$MeshFormat
4.1 0 8
$EndMeshFormat
$Entities
4 4 1 0
1 -1 -1 0 0 
2 1 -1 0 0 
3 1 1 0 0 
4 -1 1 0 0 
1 -1 -1 0 1 -1 0 1 100 2 1 -2 
2 1 -1 0 1 1 0 1 200 2 2 -3 
3 -1 1 0 1 1 0 1 300 2 3 -4 
4 -1 -1 0 -1 1 0 1 400 2 4 -1 
1 -1 -1 0 1 1 0 1 1 4 1 2 3 4 
$EndEntities
$Nodes
9 121 1 121
0 1 0 1
1
-1 -1 0
0 2 0 1
2
1 -1 0
0 3 0 1
3
1 1 0
0 4 0 1
4
-1 1 0
1 1 0 9
5
6
7
8
9
10
11
12
13
-0.8000000000005545 -1 0
-0.6000000000011093 -1 0
-0.4000000000016637 -1 0
-0.2000000000022178 -1 0
-2.750244476601438e-12 -1 0
0.1999999999977826 -1 0
0.3999999999983368 -1 0
0.5999999999988912 -1 0
0.7999999999994456 -1 0
1 2 0 9
14
15
16
17
18
19
20
21
22
1 -0.8000000000005545 0
1 -0.6000000000011093 0
1 -0.4000000000016637 0
1 -0.2000000000022178 0
1 -2.750244476601438e-12 0
1 0.1999999999977826 0
1 0.3999999999983368 0
1 0.5999999999988912 0
1 0.7999999999994456 0
1 3 0 9
23
24
25
26
27
28
29
30
31
0.8000000000005545 1 0
0.6000000000011093 1 0
0.4000000000016637 1 0
0.2000000000022178 1 0
2.750244476601438e-12 1 0
-0.1999999999977826 1 0
-0.3999999999983368 1 0
-0.5999999999988912 1 0
-0.7999999999994456 1 0
1 4 0 9
32
33
34
35
36
37
38
39
40
-1 0.8000000000005545 0
-1 0.6000000000011093 0
-1 0.4000000000016637 0
-1 0.2000000000022178 0
-1 2.750244476601438e-12 0
-1 -0.1999999999977826 0
-1 -0.3999999999983368 0
-1 -0.5999999999988912 0
-1 -0.7999999999994456 0
2 1 0 81
41
42
43
44
45
46
47
48
49
50
51
52
53
54
55
56
57
58
59
60
61
62
63
64
65
66
67
68
69
70
71
72
73
74
75
76
77
78
79
80
81
82
83
84
85
86
87
88
89
90
91
92
93
94
95
96
97
98
99
100
101
102
103
104
105
106
107
108
109
110
111
112
113
114
115
116
117
118
119
120
121
-0.8000000000004437 -0.7999999999995564 0
-0.8000000000003328 -0.5999999999991131 0
-0.8000000000002219 -0.3999999999986695 0
-0.8000000000001111 -0.1999999999982262 0
-0.8000000000000003 2.200184479050904e-12 0
-0.7999999999998892 0.2000000000017744 0
-0.7999999999997782 0.4000000000013309 0
-0.7999999999996672 0.6000000000008876 0
-0.7999999999995566 0.8000000000004435 0
-0.6000000000008877 -0.7999999999996673 0
-0.6000000000006658 -0.5999999999993348 0
-0.6000000000004437 -0.3999999999990022 0
-0.6000000000002221 -0.1999999999986697 0
-0.6000000000000003 1.65012448150037e-12 0
-0.5999999999997785 0.2000000000013308 0
-0.5999999999995567 0.4000000000009982 0
-0.5999999999993348 0.6000000000006658 0
-0.599999999999113 0.8000000000003328 0
-0.400000000001331 -0.7999999999997782 0
-0.4000000000009983 -0.5999999999995567 0
-0.4000000000006657 -0.3999999999993348 0
-0.400000000000333 -0.1999999999991132 0
-0.4000000000000004 1.100064483949836e-12 0
-0.3999999999996675 0.2000000000008872 0
-0.3999999999993349 0.4000000000006656 0
-0.3999999999990023 0.6000000000004437 0
-0.3999999999986694 0.8000000000002219 0
-0.2000000000017743 -0.7999999999998892 0
-0.2000000000013308 -0.5999999999997785 0
-0.2000000000008873 -0.3999999999996676 0
-0.2000000000004438 -0.1999999999995568 0
-0.2000000000000002 5.499489752480713e-13 0
-0.1999999999995568 0.2000000000004438 0
-0.1999999999991132 0.4000000000003329 0
-0.1999999999986696 0.6000000000002221 0
-0.1999999999982261 0.800000000000111 0
-2.20016782570706e-12 -0.8 0
-1.650091174812683e-12 -0.6000000000000003 0
-1.100153301796382e-12 -0.4000000000000002 0
-5.500488953263874e-13 -0.2000000000000002 0
-7.564178960885304e-24 0 0
5.500488953141897e-13 0.2000000000000002 0
1.10004227948477e-12 0.4000000000000002 0
1.650202197109044e-12 0.6000000000000003 0
2.200251092430857e-12 0.8 0
0.1999999999982262 -0.8000000000001111 0
0.1999999999986697 -0.6000000000002221 0
0.1999999999991132 -0.4000000000003331 0
0.1999999999995568 -0.2000000000004438 0
0.2000000000000002 -5.500044863993026e-13 0
0.2000000000004437 0.1999999999995567 0
0.2000000000008873 0.3999999999996675 0
0.2000000000013308 0.5999999999997785 0
0.2000000000017743 0.7999999999998892 0
0.3999999999986695 -0.8000000000002216 0
0.3999999999990022 -0.6000000000004441 0
0.3999999999993349 -0.4000000000006657 0
0.3999999999996675 -0.2000000000008873 0
0.4000000000000001 -1.100147750676683e-12 0
0.400000000000333 0.1999999999991132 0
0.4000000000006657 0.3999999999993349 0
0.4000000000009982 0.5999999999995567 0
0.4000000000013311 0.7999999999997782 0
0.599999999999113 -0.8000000000003327 0
0.5999999999993348 -0.6000000000006656 0
0.5999999999995564 -0.4000000000009983 0
0.5999999999997784 -0.2000000000013308 0
0.6000000000000003 -1.650096725924755e-12 0
0.6000000000002221 0.1999999999986697 0
0.600000000000444 0.3999999999990023 0
0.6000000000006658 0.5999999999993348 0
0.6000000000008874 0.7999999999996674 0
0.7999999999995566 -0.8000000000004437 0
0.7999999999996671 -0.6000000000008877 0
0.7999999999997782 -0.4000000000013308 0
0.7999999999998892 -0.2000000000017743 0
0.7999999999999997 -2.200226112414327e-12 0
0.8000000000001108 0.1999999999982262 0
0.8000000000002219 0.3999999999986694 0
0.8000000000003329 0.599999999999113 0
0.8000000000004438 0.7999999999995566 0
$EndNodes
$Elements
5 140 1 140
1 1 1 10
1 1 5 
2 5 6 
3 6 7 
4 7 8 
5 8 9 
6 9 10 
7 10 11 
8 11 12 
9 12 13 
10 13 2 
1 2 1 10
11 2 14 
12 14 15 
13 15 16 
14 16 17 
15 17 18 
16 18 19 
17 19 20 
18 20 21 
19 21 22 
20 22 3 
1 3 1 10
21 3 23 
22 23 24 
23 24 25 
24 25 26 
25 26 27 
26 27 28 
27 28 29 
28 29 30 
29 30 31 
30 31 4 
1 4 1 10
31 4 32 
32 32 33 
33 33 34 
34 34 35 
35 35 36 
36 36 37 
37 37 38 
38 38 39 
39 39 40 
40 40 1 
2 1 3 100
41 1 5 41 40 
42 40 41 42 39 
43 39 42 43 38 
44 38 43 44 37 
45 37 44 45 36 
46 36 45 46 35 
47 35 46 47 34 
48 34 47 48 33 
49 33 48 49 32 
50 32 49 31 4 
51 5 6 50 41 
52 41 50 51 42 
53 42 51 52 43 
54 43 52 53 44 
55 44 53 54 45 
56 45 54 55 46 
57 46 55 56 47 
58 47 56 57 48 
59 48 57 58 49 
60 49 58 30 31 
61 6 7 59 50 
62 50 59 60 51 
63 51 60 61 52 
64 52 61 62 53 
65 53 62 63 54 
66 54 63 64 55 
67 55 64 65 56 
68 56 65 66 57 
69 57 66 67 58 
70 58 67 29 30 
71 7 8 68 59 
72 59 68 69 60 
73 60 69 70 61 
74 61 70 71 62 
75 62 71 72 63 
76 63 72 73 64 
77 64 73 74 65 
78 65 74 75 66 
79 66 75 76 67 
80 67 76 28 29 
81 8 9 77 68 
82 68 77 78 69 
83 69 78 79 70 
84 70 79 80 71 
85 71 80 81 72 
86 72 81 82 73 
87 73 82 83 74 
88 74 83 84 75 
89 75 84 85 76 
90 76 85 27 28 
91 9 10 86 77 
92 77 86 87 78 
93 78 87 88 79 
94 79 88 89 80 
95 80 89 90 81 
96 81 90 91 82 
97 82 91 92 83 
98 83 92 93 84 
99 84 93 94 85 
100 85 94 26 27 
101 10 11 95 86 
102 86 95 96 87 
103 87 96 97 88 
104 88 97 98 89 
105 89 98 99 90 
106 90 99 100 91 
107 91 100 101 92 
108 92 101 102 93 
109 93 102 103 94 
110 94 103 25 26 
111 11 12 104 95 
112 95 104 105 96 
113 96 105 106 97 
114 97 106 107 98 
115 98 107 108 99 
116 99 108 109 100 
117 100 109 110 101 
118 101 110 111 102 
119 102 111 112 103 
120 103 112 24 25 
121 12 13 113 104 
122 104 113 114 105 
123 105 114 115 106 
124 106 115 116 107 
125 107 116 117 108 
126 108 117 118 109 
127 109 118 119 110 
128 110 119 120 111 
129 111 120 121 112 
130 112 121 23 24 
131 13 2 14 113 
132 113 14 15 114 
133 114 15 16 115 
134 115 16 17 116 
135 116 17 18 117 
136 117 18 19 118 
137 118 19 20 119 
138 119 20 21 120 
139 120 21 22 121 
140 121 22 3 23 
$EndElements
