<?xml version="1.0" encoding="utf-8" ?>
<NEKTAR>
<POINTS DIM="2" FIELDS="">
0.5	                0
0.482962913144534	0.12940952255126
0.433012701892219	0.25
0.353553390593274	0.353553390593274
0.25	                0.433012701892219
0.12940952255126	0.482962913144534
3.06161699786838E-17	0.5
-0.12940952255126	0.482962913144534
-0.25	                0.433012701892219
-0.353553390593274	0.353553390593274
-0.433012701892219	0.25
-0.482962913144534	0.129409522551261
-0.5	                0
-0.482962913144534	-0.12940952255126
-0.433012701892219	-0.25
-0.353553390593274	-0.353553390593274
-0.25	                -0.433012701892219
-0.12940952255126	-0.482962913144534
-9.18485099360515E-17	-0.5
0.129409522551261	-0.482962913144534
0.25	                -0.433012701892219
0.353553390593274	-0.353553390593274
0.433012701892219	-0.25
0.482962913144534	-0.12940952255126
0.5	                 0
</POINTS>
</NEKTAR>
