<?xml version="1.0"?>
<VTKFile type="UnstructuredGrid" version="0.1" byte_order="LittleEndian">
  <UnstructuredGrid>
    <Piece NumberOfPoints="4" NumberOfCells="3">
      <Points>
        <DataArray type="Float64" NumberOfComponents="3" format="ascii">
          9.65642184e-02 -4.61716652e-02 0.00000000e+00 
9.26280916e-02 -4.54656407e-02 0.00000000e+00 
8.86965096e-02 -4.47326750e-02 0.00000000e+00 
8.47706869e-02 -4.39694971e-02 0.00000000e+00 

        </DataArray>
      </Points>
      <Cells>
        <DataArray type="Int32" Name="connectivity" format="ascii">
0 1
1 2
2 3

        </DataArray>
        <DataArray type="Int32" Name="offsets" format="ascii">
2 4 6 
        </DataArray>
        <DataArray type="UInt8" Name="types" format="ascii">
3 3 3 
        </DataArray>
      </Cells>
      <PointData>
        <DataArray type="Float64" Name="rho">
          1.03561724e+00 1.04252223e+00 1.04974204e+00 1.05740861e+00 
        </DataArray>
        <DataArray type="Float64" Name="rhou">
          2.83694643e-02 2.18459218e-02 2.44974375e-02 2.46609186e-02 
        </DataArray>
        <DataArray type="Float64" Name="rhov">
          -2.25564081e-03 -1.03429064e-03 -6.16374511e-04 -9.22513810e-04 
        </DataArray>
        <DataArray type="Float64" Name="E">
          2.36681099e+05 2.38333447e+05 2.40062785e+05 2.41899500e+05 
        </DataArray>
      </PointData>
    </Piece>
    <Piece NumberOfPoints="4" NumberOfCells="3">
      <Points>
        <DataArray type="Float64" NumberOfComponents="3" format="ascii">
          8.47706869e-02 -4.39694971e-02 0.00000000e+00 
8.08513016e-02 -4.31745499e-02 0.00000000e+00 
7.69388378e-02 -4.23462167e-02 0.00000000e+00 
7.30340332e-02 -4.14824970e-02 0.00000000e+00 

        </DataArray>
      </Points>
      <Cells>
        <DataArray type="Int32" Name="connectivity" format="ascii">
0 1
1 2
2 3

        </DataArray>
        <DataArray type="Int32" Name="offsets" format="ascii">
2 4 6 
        </DataArray>
        <DataArray type="UInt8" Name="types" format="ascii">
3 3 3 
        </DataArray>
      </Cells>
      <PointData>
        <DataArray type="Float64" Name="rho">
          1.05740742e+00 1.06550222e+00 1.07406061e+00 1.08315255e+00 
        </DataArray>
        <DataArray type="Float64" Name="rhou">
          2.47555035e-02 2.39183259e-02 2.24913076e-02 2.09071337e-02 
        </DataArray>
        <DataArray type="Float64" Name="rhov">
          -7.27823564e-04 -5.06778630e-04 4.18286335e-04 1.63348981e-03 
        </DataArray>
        <DataArray type="Float64" Name="E">
          2.41899236e+05 2.43840529e+05 2.45894274e+05 2.48077275e+05 
        </DataArray>
      </PointData>
    </Piece>
    <Piece NumberOfPoints="4" NumberOfCells="3">
      <Points>
        <DataArray type="Float64" NumberOfComponents="3" format="ascii">
          7.30340332e-02 -4.14824970e-02 0.00000000e+00 
6.91377968e-02 -4.05809283e-02 0.00000000e+00 
6.52511865e-02 -3.96387354e-02 0.00000000e+00 
6.13753870e-02 -3.86530459e-02 0.00000000e+00 

        </DataArray>
      </Points>
      <Cells>
        <DataArray type="Int32" Name="connectivity" format="ascii">
0 1
1 2
2 3

        </DataArray>
        <DataArray type="Int32" Name="offsets" format="ascii">
2 4 6 
        </DataArray>
        <DataArray type="UInt8" Name="types" format="ascii">
3 3 3 
        </DataArray>
      </Cells>
      <PointData>
        <DataArray type="Float64" Name="rho">
          1.08315315e+00 1.09286214e+00 1.10322006e+00 1.11428657e+00 
        </DataArray>
        <DataArray type="Float64" Name="rhou">
          2.10241890e-02 1.86520526e-02 1.45242755e-02 8.98937035e-03 
        </DataArray>
        <DataArray type="Float64" Name="rhov">
          1.46754643e-03 2.23664985e-03 4.35027355e-03 7.57901422e-03 
        </DataArray>
        <DataArray type="Float64" Name="E">
          2.48077436e+05 2.50410821e+05 2.52901829e+05 2.55565503e+05 
        </DataArray>
      </PointData>
    </Piece>
    <Piece NumberOfPoints="4" NumberOfCells="3">
      <Points>
        <DataArray type="Float64" NumberOfComponents="3" format="ascii">
          6.13753870e-02 -3.86530459e-02 0.00000000e+00 
5.75117208e-02 -3.76208089e-02 0.00000000e+00 
5.36618084e-02 -3.65384258e-02 0.00000000e+00 
4.98276278e-02 -3.54015976e-02 0.00000000e+00 

        </DataArray>
      </Points>
      <Cells>
        <DataArray type="Int32" Name="connectivity" format="ascii">
0 1
1 2
2 3

        </DataArray>
        <DataArray type="Int32" Name="offsets" format="ascii">
2 4 6 
        </DataArray>
        <DataArray type="UInt8" Name="types" format="ascii">
3 3 3 
        </DataArray>
      </Cells>
      <PointData>
        <DataArray type="Float64" Name="rho">
          1.11428684e+00 1.12614460e+00 1.13887863e+00 1.15262045e+00 
        </DataArray>
        <DataArray type="Float64" Name="rhou">
          8.93184377e-03 1.83837386e-03 -7.41771399e-03 -1.89880860e-02 
        </DataArray>
        <DataArray type="Float64" Name="rhov">
          7.35032938e-03 1.20995018e-02 2.02387789e-02 3.17872804e-02 
        </DataArray>
        <DataArray type="Float64" Name="E">
          2.55565567e+05 2.58423663e+05 2.61495630e+05 2.64814044e+05 
        </DataArray>
      </PointData>
    </Piece>
    <Piece NumberOfPoints="4" NumberOfCells="3">
      <Points>
        <DataArray type="Float64" NumberOfComponents="3" format="ascii">
          4.98276278e-02 -3.54015976e-02 0.00000000e+00 
4.60115410e-02 -3.42054628e-02 0.00000000e+00 
4.22164090e-02 -3.29444520e-02 0.00000000e+00 
3.84457745e-02 -3.16120051e-02 0.00000000e+00 

        </DataArray>
      </Points>
      <Cells>
        <DataArray type="Int32" Name="connectivity" format="ascii">
0 1
1 2
2 3

        </DataArray>
        <DataArray type="Int32" Name="offsets" format="ascii">
2 4 6 
        </DataArray>
        <DataArray type="UInt8" Name="types" format="ascii">
3 3 3 
        </DataArray>
      </Cells>
      <PointData>
        <DataArray type="Float64" Name="rho">
          1.15262036e+00 1.16746973e+00 1.18353910e+00 1.20102010e+00 
        </DataArray>
        <DataArray type="Float64" Name="rhou">
          -1.94459413e-02 -3.36329902e-02 -5.26804536e-02 -7.54618928e-02 
        </DataArray>
        <DataArray type="Float64" Name="rhov">
          3.15725034e-02 4.83410867e-02 7.61297700e-02 1.16768579e-01 
        </DataArray>
        <DataArray type="Float64" Name="E">
          2.64813990e+05 2.68406401e+05 2.72298776e+05 2.76539442e+05 
        </DataArray>
      </PointData>
    </Piece>
    <Piece NumberOfPoints="4" NumberOfCells="3">
      <Points>
        <DataArray type="Float64" NumberOfComponents="3" format="ascii">
          3.84457745e-02 -3.16120051e-02 0.00000000e+00 
3.47041376e-02 -3.02002355e-02 0.00000000e+00 
3.09973080e-02 -2.86995135e-02 0.00000000e+00 
2.73328498e-02 -2.70981900e-02 0.00000000e+00 

        </DataArray>
      </Points>
      <Cells>
        <DataArray type="Int32" Name="connectivity" format="ascii">
0 1
1 2
2 3

        </DataArray>
        <DataArray type="Int32" Name="offsets" format="ascii">
2 4 6 
        </DataArray>
        <DataArray type="UInt8" Name="types" format="ascii">
3 3 3 
        </DataArray>
      </Cells>
      <PointData>
        <DataArray type="Float64" Name="rho">
          1.20102031e+00 1.22010236e+00 1.24097910e+00 1.26402245e+00 
        </DataArray>
        <DataArray type="Float64" Name="rhou">
          -7.64170466e-02 -1.00611864e-01 -1.29287373e-01 -1.54697514e-01 
        </DataArray>
        <DataArray type="Float64" Name="rhov">
          1.16686630e-01 1.72447294e-01 2.58672608e-01 3.79355544e-01 
        </DataArray>
        <DataArray type="Float64" Name="E">
          2.76539357e+05 2.81180246e+05 2.86266183e+05 2.91891472e+05 
        </DataArray>
      </PointData>
    </Piece>
    <Piece NumberOfPoints="4" NumberOfCells="3">
      <Points>
        <DataArray type="Float64" NumberOfComponents="3" format="ascii">
          2.73328498e-02 -2.70981900e-02 0.00000000e+00 
2.37206947e-02 -2.53822580e-02 0.00000000e+00 
2.01744195e-02 -2.35341713e-02 0.00000000e+00 
1.67132635e-02 -2.15314496e-02 0.00000000e+00 

        </DataArray>
      </Points>
      <Cells>
        <DataArray type="Int32" Name="connectivity" format="ascii">
0 1
1 2
2 3

        </DataArray>
        <DataArray type="Int32" Name="offsets" format="ascii">
2 4 6 
        </DataArray>
        <DataArray type="UInt8" Name="types" format="ascii">
3 3 3 
        </DataArray>
      </Cells>
      <PointData>
        <DataArray type="Float64" Name="rho">
          1.26402733e+00 1.28957772e+00 1.31809154e+00 1.35091486e+00 
        </DataArray>
        <DataArray type="Float64" Name="rhou">
          -1.55082330e-01 -1.69064695e-01 -1.53191600e-01 -5.67750051e-02 
        </DataArray>
        <DataArray type="Float64" Name="rhov">
          3.80028685e-01 5.32295588e-01 7.43554790e-01 9.62466542e-01 
        </DataArray>
        <DataArray type="Float64" Name="E">
          2.91892375e+05 2.98151847e+05 3.05149974e+05 3.13215732e+05 
        </DataArray>
      </PointData>
    </Piece>
    <Piece NumberOfPoints="4" NumberOfCells="3">
      <Points>
        <DataArray type="Float64" NumberOfComponents="3" format="ascii">
          1.67132635e-02 -2.15314496e-02 0.00000000e+00 
1.33649679e-02 -1.93456318e-02 0.00000000e+00 
1.01706637e-02 -1.69409402e-02 0.00000000e+00 
7.19343964e-03 -1.42731192e-02 0.00000000e+00 

        </DataArray>
      </Points>
      <Cells>
        <DataArray type="Int32" Name="connectivity" format="ascii">
0 1
1 2
2 3

        </DataArray>
        <DataArray type="Int32" Name="offsets" format="ascii">
2 4 6 
        </DataArray>
        <DataArray type="UInt8" Name="types" format="ascii">
3 3 3 
        </DataArray>
      </Cells>
      <PointData>
        <DataArray type="Float64" Name="rho">
          1.35080879e+00 1.39068152e+00 1.43793958e+00 1.50308083e+00 
        </DataArray>
        <DataArray type="Float64" Name="rhou">
          -3.41561613e-02 1.14934033e-01 4.57189948e-01 8.78436514e-01 
        </DataArray>
        <DataArray type="Float64" Name="rhov">
          9.24104614e-01 1.12738187e+00 1.07191765e+00 5.19782758e-01 
        </DataArray>
        <DataArray type="Float64" Name="E">
          3.13191467e+05 3.22992479e+05 3.34601506e+05 3.50488138e+05 
        </DataArray>
      </PointData>
    </Piece>
    <Piece NumberOfPoints="4" NumberOfCells="3">
      <Points>
        <DataArray type="Float64" NumberOfComponents="3" format="ascii">
          7.19343964e-03 -1.42731192e-02 0.00000000e+00 
4.53082798e-03 -1.12927537e-02 0.00000000e+00 
2.33371323e-03 -7.95678515e-03 0.00000000e+00 
8.10639584e-04 -4.26717056e-03 0.00000000e+00 

        </DataArray>
      </Points>
      <Cells>
        <DataArray type="Int32" Name="connectivity" format="ascii">
0 1
1 2
2 3

        </DataArray>
        <DataArray type="Int32" Name="offsets" format="ascii">
2 4 6 
        </DataArray>
        <DataArray type="UInt8" Name="types" format="ascii">
3 3 3 
        </DataArray>
      </Cells>
      <PointData>
        <DataArray type="Float64" Name="rho">
          1.50360153e+00 1.57809689e+00 1.66727718e+00 1.73606568e+00 
        </DataArray>
        <DataArray type="Float64" Name="rhou">
          8.03235754e-01 9.32886668e-01 2.58316753e-01 -1.28122411e+00 
        </DataArray>
        <DataArray type="Float64" Name="rhov">
          6.18818621e-01 -5.13786686e-01 -1.73565211e+00 -1.82333765e+00 
        </DataArray>
        <DataArray type="Float64" Name="E">
          3.50615838e+05 3.68819554e+05 3.90489155e+05 4.07226430e+05 
        </DataArray>
      </PointData>
    </Piece>
    <Piece NumberOfPoints="4" NumberOfCells="3">
      <Points>
        <DataArray type="Float64" NumberOfComponents="3" format="ascii">
          8.10639584e-04 -4.26717056e-03 0.00000000e+00 
1.91366620e-04 -3.27450951e-04 0.00000000e+00 
6.40850572e-04 3.63462302e-03 0.00000000e+00 
2.03182548e-03 7.37539819e-03 0.00000000e+00 

        </DataArray>
      </Points>
      <Cells>
        <DataArray type="Int32" Name="connectivity" format="ascii">
0 1
1 2
2 3

        </DataArray>
        <DataArray type="Int32" Name="offsets" format="ascii">
2 4 6 
        </DataArray>
        <DataArray type="UInt8" Name="types" format="ascii">
3 3 3 
        </DataArray>
      </Cells>
      <PointData>
        <DataArray type="Float64" Name="rho">
          1.73448495e+00 1.75945548e+00 1.70896494e+00 1.61637980e+00 
        </DataArray>
        <DataArray type="Float64" Name="rhou">
          -1.15519772e+00 -1.88660741e+00 -8.38298466e-01 7.55216680e-01 
        </DataArray>
        <DataArray type="Float64" Name="rhov">
          -1.98191047e+00 3.66413963e-01 1.88988410e+00 1.52100002e+00 
        </DataArray>
        <DataArray type="Float64" Name="E">
          4.06843334e+05 4.12827087e+05 4.00471845e+05 3.77837015e+05 
        </DataArray>
      </PointData>
    </Piece>
    <Piece NumberOfPoints="4" NumberOfCells="3">
      <Points>
        <DataArray type="Float64" NumberOfComponents="3" format="ascii">
          2.03182548e-03 7.37539819e-03 0.00000000e+00 
4.13410179e-03 1.07714310e-02 0.00000000e+00 
6.73249783e-03 1.38076087e-02 0.00000000e+00 
9.66598373e-03 1.65232457e-02 0.00000000e+00 

        </DataArray>
      </Points>
      <Cells>
        <DataArray type="Int32" Name="connectivity" format="ascii">
0 1
1 2
2 3

        </DataArray>
        <DataArray type="Int32" Name="offsets" format="ascii">
2 4 6 
        </DataArray>
        <DataArray type="UInt8" Name="types" format="ascii">
3 3 3 
        </DataArray>
      </Cells>
      <PointData>
        <DataArray type="Float64" Name="rho">
          1.61674361e+00 1.50947860e+00 1.42011736e+00 1.35306861e+00 
        </DataArray>
        <DataArray type="Float64" Name="rhou">
          7.27414848e-01 1.16007330e+00 8.44090202e-01 3.77620208e-01 
        </DataArray>
        <DataArray type="Float64" Name="rhov">
          1.75655884e+00 6.26782580e-02 -1.07909933e+00 -1.40548233e+00 
        </DataArray>
        <DataArray type="Float64" Name="E">
          3.77928622e+05 3.51862811e+05 3.30110608e+05 3.13708228e+05 
        </DataArray>
      </PointData>
    </Piece>
    <Piece NumberOfPoints="4" NumberOfCells="3">
      <Points>
        <DataArray type="Float64" NumberOfComponents="3" format="ascii">
          9.66598373e-03 1.65232457e-02 0.00000000e+00 
1.28298048e-02 1.89677756e-02 0.00000000e+00 
1.61561389e-02 2.11867876e-02 0.00000000e+00 
1.96009967e-02 2.32173651e-02 0.00000000e+00 

        </DataArray>
      </Points>
      <Cells>
        <DataArray type="Int32" Name="connectivity" format="ascii">
0 1
1 2
2 3

        </DataArray>
        <DataArray type="Int32" Name="offsets" format="ascii">
2 4 6 
        </DataArray>
        <DataArray type="UInt8" Name="types" format="ascii">
3 3 3 
        </DataArray>
      </Cells>
      <PointData>
        <DataArray type="Float64" Name="rho">
          1.35286264e+00 1.30032257e+00 1.26129193e+00 1.22693092e+00 
        </DataArray>
        <DataArray type="Float64" Name="rhou">
          3.87229322e-01 -1.60229361e-02 -1.98561681e-01 -2.19401164e-01 
        </DataArray>
        <DataArray type="Float64" Name="rhov">
          -1.43014102e+00 -1.32532304e+00 -9.94202838e-01 -6.67756332e-01 
        </DataArray>
        <DataArray type="Float64" Name="E">
          3.13655841e+05 3.00803528e+05 2.91206020e+05 2.82782846e+05 
        </DataArray>
      </PointData>
    </Piece>
    <Piece NumberOfPoints="4" NumberOfCells="3">
      <Points>
        <DataArray type="Float64" NumberOfComponents="3" format="ascii">
          1.96009967e-02 2.32173651e-02 0.00000000e+00 
2.31348258e-02 2.50891000e-02 0.00000000e+00 
2.67372411e-02 2.68253610e-02 0.00000000e+00 
3.03938854e-02 2.84444261e-02 0.00000000e+00 

        </DataArray>
      </Points>
      <Cells>
        <DataArray type="Int32" Name="connectivity" format="ascii">
0 1
1 2
2 3

        </DataArray>
        <DataArray type="Int32" Name="offsets" format="ascii">
2 4 6 
        </DataArray>
        <DataArray type="UInt8" Name="types" format="ascii">
3 3 3 
        </DataArray>
      </Cells>
      <PointData>
        <DataArray type="Float64" Name="rho">
          1.22699483e+00 1.19782677e+00 1.17173809e+00 1.14810915e+00 
        </DataArray>
        <DataArray type="Float64" Name="rhou">
          -2.32576908e-01 -2.19228950e-01 -1.73974806e-01 -1.31663278e-01 
        </DataArray>
        <DataArray type="Float64" Name="rhov">
          -6.86067868e-01 -4.34141951e-01 -2.46848270e-01 -1.33653048e-01 
        </DataArray>
        <DataArray type="Float64" Name="E">
          2.82797815e+05 2.75667155e+05 2.69312275e+05 2.63573631e+05 
        </DataArray>
      </PointData>
    </Piece>
    <Piece NumberOfPoints="4" NumberOfCells="3">
      <Points>
        <DataArray type="Float64" NumberOfComponents="3" format="ascii">
          3.03938854e-02 2.84444261e-02 0.00000000e+00 
3.40943485e-02 2.99607720e-02 0.00000000e+00 
3.78307216e-02 3.13864015e-02 0.00000000e+00 
4.15969416e-02 3.27312648e-02 0.00000000e+00 

        </DataArray>
      </Points>
      <Cells>
        <DataArray type="Int32" Name="connectivity" format="ascii">
0 1
1 2
2 3

        </DataArray>
        <DataArray type="Int32" Name="offsets" format="ascii">
2 4 6 
        </DataArray>
        <DataArray type="UInt8" Name="types" format="ascii">
3 3 3 
        </DataArray>
      </Cells>
      <PointData>
        <DataArray type="Float64" Name="rho">
          1.14810741e+00 1.12672424e+00 1.10729882e+00 1.08958761e+00 
        </DataArray>
        <DataArray type="Float64" Name="rhou">
          -1.29864183e-01 -8.96119997e-02 -5.67188440e-02 -3.36591815e-02 
        </DataArray>
        <DataArray type="Float64" Name="rhov">
          -1.32198300e-01 -5.56683405e-02 -8.31577068e-03 1.72534075e-02 
        </DataArray>
        <DataArray type="Float64" Name="E">
          2.63573479e+05 2.58398983e+05 2.53709560e+05 2.49441778e+05 
        </DataArray>
      </PointData>
    </Piece>
    <Piece NumberOfPoints="4" NumberOfCells="3">
      <Points>
        <DataArray type="Float64" NumberOfComponents="3" format="ascii">
          4.15969416e-02 3.27312648e-02 0.00000000e+00 
4.53883260e-02 3.40034962e-02 0.00000000e+00 
4.92011942e-02 3.52098532e-02 0.00000000e+00 
5.30325845e-02 3.63560505e-02 0.00000000e+00 

        </DataArray>
      </Points>
      <Cells>
        <DataArray type="Int32" Name="connectivity" format="ascii">
0 1
1 2
2 3

        </DataArray>
        <DataArray type="Int32" Name="offsets" format="ascii">
2 4 6 
        </DataArray>
        <DataArray type="UInt8" Name="types" format="ascii">
3 3 3 
        </DataArray>
      </Cells>
      <PointData>
        <DataArray type="Float64" Name="rho">
          1.08958818e+00 1.07340138e+00 1.05855112e+00 1.04487843e+00 
        </DataArray>
        <DataArray type="Float64" Name="rhou">
          -3.25142015e-02 -1.29878224e-02 1.52518754e-03 1.09695019e-02 
        </DataArray>
        <DataArray type="Float64" Name="rhov">
          1.71596397e-02 3.09817417e-02 3.77342094e-02 3.89509228e-02 
        </DataArray>
        <DataArray type="Float64" Name="E">
          2.49441991e+05 2.45550119e+05 2.41985152e+05 2.38707037e+05 
        </DataArray>
      </PointData>
    </Piece>
    <Piece NumberOfPoints="4" NumberOfCells="3">
      <Points>
        <DataArray type="Float64" NumberOfComponents="3" format="ascii">
          5.30325845e-02 3.63560505e-02 0.00000000e+00 
5.68800643e-02 3.74470428e-02 0.00000000e+00 
6.07415959e-02 3.84872220e-02 0.00000000e+00 
6.46155030e-02 3.94803248e-02 0.00000000e+00 

        </DataArray>
      </Points>
      <Cells>
        <DataArray type="Int32" Name="connectivity" format="ascii">
0 1
1 2
2 3

        </DataArray>
        <DataArray type="Int32" Name="offsets" format="ascii">
2 4 6 
        </DataArray>
        <DataArray type="UInt8" Name="types" format="ascii">
3 3 3 
        </DataArray>
      </Cells>
      <PointData>
        <DataArray type="Float64" Name="rho">
          1.04487913e+00 1.03229539e+00 1.02066873e+00 1.00985821e+00 
        </DataArray>
        <DataArray type="Float64" Name="rhou">
          1.12898915e-02 1.83340569e-02 2.39179070e-02 2.77892062e-02 
        </DataArray>
        <DataArray type="Float64" Name="rhov">
          3.86238573e-02 3.70033694e-02 3.49832286e-02 3.17788033e-02 
        </DataArray>
        <DataArray type="Float64" Name="E">
          2.38707197e+05 2.35694426e+05 2.32913636e+05 2.30330609e+05 
        </DataArray>
      </PointData>
    </Piece>
    <Piece NumberOfPoints="4" NumberOfCells="3">
      <Points>
        <DataArray type="Float64" NumberOfComponents="3" format="ascii">
          6.46155030e-02 3.94803248e-02 0.00000000e+00 
6.85004294e-02 4.04294394e-02 0.00000000e+00 
7.23951608e-02 4.13374715e-02 0.00000000e+00 
7.62986317e-02 4.22072113e-02 0.00000000e+00 

        </DataArray>
      </Points>
      <Cells>
        <DataArray type="Int32" Name="connectivity" format="ascii">
0 1
1 2
2 3

        </DataArray>
        <DataArray type="Int32" Name="offsets" format="ascii">
2 4 6 
        </DataArray>
        <DataArray type="UInt8" Name="types" format="ascii">
3 3 3 
        </DataArray>
      </Cells>
      <PointData>
        <DataArray type="Float64" Name="rho">
          1.00985893e+00 9.99823051e-01 9.90472562e-01 9.81751853e-01 
        </DataArray>
        <DataArray type="Float64" Name="rhou">
          2.76092947e-02 2.95782530e-02 3.06973202e-02 3.08069866e-02 
        </DataArray>
        <DataArray type="Float64" Name="rhov">
          3.14793413e-02 2.75903088e-02 2.42282574e-02 2.09310643e-02 
        </DataArray>
        <DataArray type="Float64" Name="E">
          2.30330757e+05 2.27935460e+05 2.25705607e+05 2.23627249e+05 
        </DataArray>
      </PointData>
    </Piece>
    <Piece NumberOfPoints="4" NumberOfCells="3">
      <Points>
        <DataArray type="Float64" NumberOfComponents="3" format="ascii">
          7.62986317e-02 4.22072113e-02 0.00000000e+00 
8.02098960e-02 4.30411920e-02 0.00000000e+00 
8.41281936e-02 4.38414887e-02 0.00000000e+00 
8.80528912e-02 4.46097627e-02 0.00000000e+00 

        </DataArray>
      </Points>
      <Cells>
        <DataArray type="Int32" Name="connectivity" format="ascii">
0 1
1 2
2 3

        </DataArray>
        <DataArray type="Int32" Name="offsets" format="ascii">
2 4 6 
        </DataArray>
        <DataArray type="UInt8" Name="types" format="ascii">
3 3 3 
        </DataArray>
      </Cells>
      <PointData>
        <DataArray type="Float64" Name="rho">
          9.81750914e-01 9.73613672e-01 9.65965185e-01 9.58759536e-01 
        </DataArray>
        <DataArray type="Float64" Name="rhou">
          3.06602655e-02 3.06941802e-02 3.04298451e-02 2.93698431e-02 
        </DataArray>
        <DataArray type="Float64" Name="rhov">
          2.07672622e-02 1.82202933e-02 1.57224386e-02 1.30492274e-02 
        </DataArray>
        <DataArray type="Float64" Name="E">
          2.23627014e+05 2.21689246e+05 2.19869174e+05 2.18155666e+05 
        </DataArray>
      </PointData>
    </Piece>
    <Piece NumberOfPoints="4" NumberOfCells="3">
      <Points>
        <DataArray type="Float64" NumberOfComponents="3" format="ascii">
          8.80528912e-02 4.46097627e-02 0.00000000e+00 
9.19835642e-02 4.53475714e-02 0.00000000e+00 
9.59195644e-02 4.60564308e-02 0.00000000e+00 
9.98597518e-02 4.67394181e-02 0.00000000e+00 

        </DataArray>
      </Points>
      <Cells>
        <DataArray type="Int32" Name="connectivity" format="ascii">
0 1
1 2
2 3

        </DataArray>
        <DataArray type="Int32" Name="offsets" format="ascii">
2 4 6 
        </DataArray>
        <DataArray type="UInt8" Name="types" format="ascii">
3 3 3 
        </DataArray>
      </Cells>
      <PointData>
        <DataArray type="Float64" Name="rho">
          9.58760034e-01 9.51987490e-01 9.45635252e-01 9.39603892e-01 
        </DataArray>
        <DataArray type="Float64" Name="rhou">
          2.91739410e-02 2.77530364e-02 2.42693098e-02 2.88118630e-02 
        </DataArray>
        <DataArray type="Float64" Name="rhov">
          1.32124401e-02 1.06469726e-02 9.07509937e-03 8.59404894e-03 
        </DataArray>
        <DataArray type="Float64" Name="E">
          2.18155782e+05 2.16546531e+05 2.15037627e+05 2.13606024e+05 
        </DataArray>
      </PointData>
    </Piece>
    <Piece NumberOfPoints="4" NumberOfCells="3">
      <Points>
        <DataArray type="Float64" NumberOfComponents="3" format="ascii">
          9.98597518e-02 4.67394181e-02 0.00000000e+00 
1.10118888e-01 4.83862534e-02 0.00000000e+00 
1.20400399e-01 4.98730615e-02 0.00000000e+00 
1.30701363e-01 5.12186773e-02 0.00000000e+00 

        </DataArray>
      </Points>
      <Cells>
        <DataArray type="Int32" Name="connectivity" format="ascii">
0 1
1 2
2 3

        </DataArray>
        <DataArray type="Int32" Name="offsets" format="ascii">
2 4 6 
        </DataArray>
        <DataArray type="UInt8" Name="types" format="ascii">
3 3 3 
        </DataArray>
      </Cells>
      <PointData>
        <DataArray type="Float64" Name="rho">
          9.39530922e-01 9.25449294e-01 9.13284058e-01 9.02809886e-01 
        </DataArray>
        <DataArray type="Float64" Name="rhou">
          2.65324626e-02 1.83186502e-02 1.61783422e-02 1.26943465e-02 
        </DataArray>
        <DataArray type="Float64" Name="rhov">
          7.35411492e-03 4.13128250e-03 3.63130653e-03 2.96365318e-03 
        </DataArray>
        <DataArray type="Float64" Name="E">
          2.13589530e+05 2.10251248e+05 2.07371042e+05 2.04894157e+05 
        </DataArray>
      </PointData>
    </Piece>
    <Piece NumberOfPoints="4" NumberOfCells="3">
      <Points>
        <DataArray type="Float64" NumberOfComponents="3" format="ascii">
          1.30701363e-01 5.12186773e-02 0.00000000e+00 
1.41019106e-01 5.24347536e-02 0.00000000e+00 
1.51350453e-01 5.35292812e-02 0.00000000e+00 
1.61692888e-01 5.45137413e-02 0.00000000e+00 

        </DataArray>
      </Points>
      <Cells>
        <DataArray type="Int32" Name="connectivity" format="ascii">
0 1
1 2
2 3

        </DataArray>
        <DataArray type="Int32" Name="offsets" format="ascii">
2 4 6 
        </DataArray>
        <DataArray type="UInt8" Name="types" format="ascii">
3 3 3 
        </DataArray>
      </Cells>
      <PointData>
        <DataArray type="Float64" Name="rho">
          9.02806385e-01 8.93597029e-01 8.85629567e-01 8.78796875e-01 
        </DataArray>
        <DataArray type="Float64" Name="rhou">
          1.40831327e-02 1.21713456e-02 1.00812198e-02 8.80486019e-03 
        </DataArray>
        <DataArray type="Float64" Name="rhov">
          3.46504249e-03 2.54113002e-03 1.76428694e-03 1.59029121e-03 
        </DataArray>
        <DataArray type="Float64" Name="E">
          2.04893315e+05 2.02719237e+05 2.00841113e+05 1.99232568e+05 
        </DataArray>
      </PointData>
    </Piece>
    <Piece NumberOfPoints="4" NumberOfCells="3">
      <Points>
        <DataArray type="Float64" NumberOfComponents="3" format="ascii">
          1.61692888e-01 5.45137413e-02 0.00000000e+00 
1.72044471e-01 5.53969070e-02 0.00000000e+00 
1.82403773e-01 5.61845005e-02 0.00000000e+00 
1.92769483e-01 5.68825118e-02 0.00000000e+00 

        </DataArray>
      </Points>
      <Cells>
        <DataArray type="Int32" Name="connectivity" format="ascii">
0 1
1 2
2 3

        </DataArray>
        <DataArray type="Int32" Name="offsets" format="ascii">
2 4 6 
        </DataArray>
        <DataArray type="UInt8" Name="types" format="ascii">
3 3 3 
        </DataArray>
      </Cells>
      <PointData>
        <DataArray type="Float64" Name="rho">
          8.78794458e-01 8.72902250e-01 8.67860859e-01 8.63618633e-01 
        </DataArray>
        <DataArray type="Float64" Name="rhou">
          8.84207099e-03 7.69972638e-03 6.65548221e-03 5.74396461e-03 
        </DataArray>
        <DataArray type="Float64" Name="rhov">
          1.64214333e-03 1.27932620e-03 9.01366728e-04 6.73316649e-04 
        </DataArray>
        <DataArray type="Float64" Name="E">
          1.99232026e+05 1.97847226e+05 1.96664824e+05 1.95672076e+05 
        </DataArray>
      </PointData>
    </Piece>
    <Piece NumberOfPoints="4" NumberOfCells="3">
      <Points>
        <DataArray type="Float64" NumberOfComponents="3" format="ascii">
          1.92769483e-01 5.68825118e-02 0.00000000e+00 
2.03140482e-01 5.74972220e-02 0.00000000e+00 
2.13515818e-01 5.80338500e-02 0.00000000e+00 
2.23894730e-01 5.84962890e-02 0.00000000e+00 

        </DataArray>
      </Points>
      <Cells>
        <DataArray type="Int32" Name="connectivity" format="ascii">
0 1
1 2
2 3

        </DataArray>
        <DataArray type="Int32" Name="offsets" format="ascii">
2 4 6 
        </DataArray>
        <DataArray type="UInt8" Name="types" format="ascii">
3 3 3 
        </DataArray>
      </Cells>
      <PointData>
        <DataArray type="Float64" Name="rho">
          8.63617940e-01 8.60095858e-01 8.57210361e-01 8.54903548e-01 
        </DataArray>
        <DataArray type="Float64" Name="rhou">
          5.78115735e-03 5.05197746e-03 4.48984849e-03 4.02434595e-03 
        </DataArray>
        <DataArray type="Float64" Name="rhov">
          7.14885813e-04 6.27494664e-04 5.13363657e-04 3.91644082e-04 
        </DataArray>
        <DataArray type="Float64" Name="E">
          1.95671916e+05 1.94849844e+05 1.94178755e+05 1.93644836e+05 
        </DataArray>
      </PointData>
    </Piece>
    <Piece NumberOfPoints="4" NumberOfCells="3">
      <Points>
        <DataArray type="Float64" NumberOfComponents="3" format="ascii">
          2.23894730e-01 5.84962890e-02 0.00000000e+00 
2.34276548e-01 5.88882305e-02 0.00000000e+00 
2.44660646e-01 5.92139624e-02 0.00000000e+00 
2.55046517e-01 5.94772622e-02 0.00000000e+00 

        </DataArray>
      </Points>
      <Cells>
        <DataArray type="Int32" Name="connectivity" format="ascii">
0 1
1 2
2 3

        </DataArray>
        <DataArray type="Int32" Name="offsets" format="ascii">
2 4 6 
        </DataArray>
        <DataArray type="UInt8" Name="types" format="ascii">
3 3 3 
        </DataArray>
      </Cells>
      <PointData>
        <DataArray type="Float64" Name="rho">
          8.54904122e-01 8.53134035e-01 8.51856269e-01 8.51015295e-01 
        </DataArray>
        <DataArray type="Float64" Name="rhou">
          4.03229669e-03 3.50570707e-03 3.12407158e-03 2.89222538e-03 
        </DataArray>
        <DataArray type="Float64" Name="rhov">
          4.06091837e-04 3.29864467e-04 3.14388194e-04 3.14592249e-04 
        </DataArray>
        <DataArray type="Float64" Name="E">
          1.93644967e+05 1.93238065e+05 1.92947554e+05 1.92760314e+05 
        </DataArray>
      </PointData>
    </Piece>
    <Piece NumberOfPoints="4" NumberOfCells="3">
      <Points>
        <DataArray type="Float64" NumberOfComponents="3" format="ascii">
          2.55046517e-01 5.94772622e-02 0.00000000e+00 
2.65433758e-01 5.96804135e-02 0.00000000e+00 
2.75821954e-01 5.98256700e-02 0.00000000e+00 
2.86210775e-01 5.99167012e-02 0.00000000e+00 

        </DataArray>
      </Points>
      <Cells>
        <DataArray type="Int32" Name="connectivity" format="ascii">
0 1
1 2
2 3

        </DataArray>
        <DataArray type="Int32" Name="offsets" format="ascii">
2 4 6 
        </DataArray>
        <DataArray type="UInt8" Name="types" format="ascii">
3 3 3 
        </DataArray>
      </Cells>
      <PointData>
        <DataArray type="Float64" Name="rho">
          8.51015306e-01 8.50562570e-01 8.50473118e-01 8.50726155e-01 
        </DataArray>
        <DataArray type="Float64" Name="rhou">
          2.88671431e-03 2.59703305e-03 2.30085564e-03 2.03542282e-03 
        </DataArray>
        <DataArray type="Float64" Name="rhov">
          3.25965325e-04 2.31579211e-04 1.74427775e-04 2.09667231e-04 
        </DataArray>
        <DataArray type="Float64" Name="E">
          1.92760320e+05 1.92664900e+05 1.92655289e+05 1.92726349e+05 
        </DataArray>
      </PointData>
    </Piece>
    <Piece NumberOfPoints="4" NumberOfCells="3">
      <Points>
        <DataArray type="Float64" NumberOfComponents="3" format="ascii">
          2.86210775e-01 5.99167012e-02 0.00000000e+00 
2.96599895e-01 5.99572174e-02 0.00000000e+00 
3.06989133e-01 5.99487796e-02 0.00000000e+00 
3.17378193e-01 5.98919280e-02 0.00000000e+00 

        </DataArray>
      </Points>
      <Cells>
        <DataArray type="Int32" Name="connectivity" format="ascii">
0 1
1 2
2 3

        </DataArray>
        <DataArray type="Int32" Name="offsets" format="ascii">
2 4 6 
        </DataArray>
        <DataArray type="UInt8" Name="types" format="ascii">
3 3 3 
        </DataArray>
      </Cells>
      <PointData>
        <DataArray type="Float64" Name="rho">
          8.50725128e-01 8.51270893e-01 8.52061908e-01 8.53082484e-01 
        </DataArray>
        <DataArray type="Float64" Name="rhou">
          2.05460193e-03 1.93795526e-03 1.81041519e-03 1.62722288e-03 
        </DataArray>
        <DataArray type="Float64" Name="rhov">
          2.26123138e-04 2.54359186e-04 2.00568419e-04 1.26538304e-04 
        </DataArray>
        <DataArray type="Float64" Name="E">
          1.92726115e+05 1.92866129e+05 1.93064084e+05 1.93316192e+05 
        </DataArray>
      </PointData>
    </Piece>
    <Piece NumberOfPoints="4" NumberOfCells="3">
      <Points>
        <DataArray type="Float64" NumberOfComponents="3" format="ascii">
          3.17378193e-01 5.98919280e-02 0.00000000e+00 
3.27766895e-01 5.97884916e-02 0.00000000e+00 
3.38155061e-01 5.96415885e-02 0.00000000e+00 
3.48542601e-01 5.94538599e-02 0.00000000e+00 

        </DataArray>
      </Points>
      <Cells>
        <DataArray type="Int32" Name="connectivity" format="ascii">
0 1
1 2
2 3

        </DataArray>
        <DataArray type="Int32" Name="offsets" format="ascii">
2 4 6 
        </DataArray>
        <DataArray type="UInt8" Name="types" format="ascii">
3 3 3 
        </DataArray>
      </Cells>
      <PointData>
        <DataArray type="Float64" Name="rho">
          8.53082832e-01 8.54319585e-01 8.55751594e-01 8.57345220e-01 
        </DataArray>
        <DataArray type="Float64" Name="rhou">
          1.65686981e-03 1.45935988e-03 1.34151460e-03 1.29428438e-03 
        </DataArray>
        <DataArray type="Float64" Name="rhov">
          1.34227112e-04 1.23273111e-04 1.49292110e-04 1.70132128e-04 
        </DataArray>
        <DataArray type="Float64" Name="E">
          1.93316270e+05 1.93619241e+05 1.93968073e+05 1.94354896e+05 
        </DataArray>
      </PointData>
    </Piece>
    <Piece NumberOfPoints="4" NumberOfCells="3">
      <Points>
        <DataArray type="Float64" NumberOfComponents="3" format="ascii">
          3.48542601e-01 5.94538599e-02 0.00000000e+00 
3.58929336e-01 5.92265576e-02 0.00000000e+00 
3.69315147e-01 5.89610897e-02 0.00000000e+00 
3.79699975e-01 5.86590059e-02 0.00000000e+00 

        </DataArray>
      </Points>
      <Cells>
        <DataArray type="Int32" Name="connectivity" format="ascii">
0 1
1 2
2 3

        </DataArray>
        <DataArray type="Int32" Name="offsets" format="ascii">
2 4 6 
        </DataArray>
        <DataArray type="UInt8" Name="types" format="ascii">
3 3 3 
        </DataArray>
      </Cells>
      <PointData>
        <DataArray type="Float64" Name="rho">
          8.57345468e-01 8.59074521e-01 8.60928673e-01 8.62887390e-01 
        </DataArray>
        <DataArray type="Float64" Name="rhou">
          1.30656861e-03 1.18127231e-03 1.08627150e-03 1.03724901e-03 
        </DataArray>
        <DataArray type="Float64" Name="rhov">
          1.67004390e-04 1.30648003e-04 1.22871053e-04 1.20893937e-04 
        </DataArray>
        <DataArray type="Float64" Name="E">
          1.94354954e+05 1.94773631e+05 1.95221660e+05 1.95694232e+05 
        </DataArray>
      </PointData>
    </Piece>
    <Piece NumberOfPoints="4" NumberOfCells="3">
      <Points>
        <DataArray type="Float64" NumberOfComponents="3" format="ascii">
          3.79699975e-01 5.86590059e-02 0.00000000e+00 
3.90083700e-01 5.83211333e-02 0.00000000e+00 
4.00466233e-01 5.79482466e-02 0.00000000e+00 
4.10847515e-01 5.75418957e-02 0.00000000e+00 

        </DataArray>
      </Points>
      <Cells>
        <DataArray type="Int32" Name="connectivity" format="ascii">
0 1
1 2
2 3

        </DataArray>
        <DataArray type="Int32" Name="offsets" format="ascii">
2 4 6 
        </DataArray>
        <DataArray type="UInt8" Name="types" format="ascii">
3 3 3 
        </DataArray>
      </Cells>
      <PointData>
        <DataArray type="Float64" Name="rho">
          8.62887402e-01 8.64933261e-01 8.67055859e-01 8.69248207e-01 
        </DataArray>
        <DataArray type="Float64" Name="rhou">
          1.02937278e-03 9.63873962e-04 8.83823157e-04 8.06782661e-04 
        </DataArray>
        <DataArray type="Float64" Name="rhov">
          1.23299758e-04 9.22742645e-05 6.86976838e-05 7.33268813e-05 
        </DataArray>
        <DataArray type="Float64" Name="E">
          1.95694236e+05 1.96187275e+05 1.96698321e+05 1.97225683e+05 
        </DataArray>
      </PointData>
    </Piece>
    <Piece NumberOfPoints="4" NumberOfCells="3">
      <Points>
        <DataArray type="Float64" NumberOfComponents="3" format="ascii">
          4.10847515e-01 5.75418957e-02 0.00000000e+00 
4.21227485e-01 5.71038015e-02 0.00000000e+00 
4.31606144e-01 5.66351078e-02 0.00000000e+00 
4.41983402e-01 5.61364293e-02 0.00000000e+00 

        </DataArray>
      </Points>
      <Cells>
        <DataArray type="Int32" Name="connectivity" format="ascii">
0 1
1 2
2 3

        </DataArray>
        <DataArray type="Int32" Name="offsets" format="ascii">
2 4 6 
        </DataArray>
        <DataArray type="UInt8" Name="types" format="ascii">
3 3 3 
        </DataArray>
      </Cells>
      <PointData>
        <DataArray type="Float64" Name="rho">
          8.69248007e-01 8.71494182e-01 8.73782276e-01 8.76102428e-01 
        </DataArray>
        <DataArray type="Float64" Name="rhou">
          8.23214830e-04 7.70320919e-04 7.29938757e-04 6.91699220e-04 
        </DataArray>
        <DataArray type="Float64" Name="rhov">
          7.67230926e-05 7.59705944e-05 6.54086745e-05 4.33373194e-05 
        </DataArray>
        <DataArray type="Float64" Name="E">
          1.97225637e+05 1.97765597e+05 1.98315384e+05 1.98872698e+05 
        </DataArray>
      </PointData>
    </Piece>
    <Piece NumberOfPoints="4" NumberOfCells="3">
      <Points>
        <DataArray type="Float64" NumberOfComponents="3" format="ascii">
          4.41983402e-01 5.61364293e-02 0.00000000e+00 
4.52359200e-01 5.56085743e-02 0.00000000e+00 
4.62733537e-01 5.50529286e-02 0.00000000e+00 
4.73106444e-01 5.44707514e-02 0.00000000e+00 

        </DataArray>
      </Points>
      <Cells>
        <DataArray type="Int32" Name="connectivity" format="ascii">
0 1
1 2
2 3

        </DataArray>
        <DataArray type="Int32" Name="offsets" format="ascii">
2 4 6 
        </DataArray>
        <DataArray type="UInt8" Name="types" format="ascii">
3 3 3 
        </DataArray>
      </Cells>
      <PointData>
        <DataArray type="Float64" Name="rho">
          8.76102571e-01 8.78450288e-01 8.80819115e-01 8.83200620e-01 
        </DataArray>
        <DataArray type="Float64" Name="rhou">
          6.88510140e-04 6.31220223e-04 5.89847833e-04 5.65193125e-04 
        </DataArray>
        <DataArray type="Float64" Name="rhov">
          4.39497125e-05 3.54696241e-05 3.49361234e-05 3.41720588e-05 
        </DataArray>
        <DataArray type="Float64" Name="E">
          1.98872731e+05 1.99436496e+05 2.00005197e+05 2.00576877e+05 
        </DataArray>
      </PointData>
    </Piece>
    <Piece NumberOfPoints="4" NumberOfCells="3">
      <Points>
        <DataArray type="Float64" NumberOfComponents="3" format="ascii">
          4.73106444e-01 5.44707514e-02 0.00000000e+00 
4.83477861e-01 5.38627952e-02 0.00000000e+00 
4.93847787e-01 5.32294959e-02 0.00000000e+00 
5.04216135e-01 5.25716618e-02 0.00000000e+00 

        </DataArray>
      </Points>
      <Cells>
        <DataArray type="Int32" Name="connectivity" format="ascii">
0 1
1 2
2 3

        </DataArray>
        <DataArray type="Int32" Name="offsets" format="ascii">
2 4 6 
        </DataArray>
        <DataArray type="UInt8" Name="types" format="ascii">
3 3 3 
        </DataArray>
      </Cells>
      <PointData>
        <DataArray type="Float64" Name="rho">
          8.83200607e-01 8.85588069e-01 8.87976288e-01 8.90364391e-01 
        </DataArray>
        <DataArray type="Float64" Name="rhou">
          5.57424532e-04 5.35282080e-04 4.98846707e-04 4.55847980e-04 
        </DataArray>
        <DataArray type="Float64" Name="rhov">
          3.59844996e-05 2.35910636e-05 7.75525980e-06 4.28362200e-06 
        </DataArray>
        <DataArray type="Float64" Name="E">
          2.00576874e+05 2.01149973e+05 2.01723289e+05 2.02296599e+05 
        </DataArray>
      </PointData>
    </Piece>
    <Piece NumberOfPoints="4" NumberOfCells="3">
      <Points>
        <DataArray type="Float64" NumberOfComponents="3" format="ascii">
          5.04216135e-01 5.25716618e-02 0.00000000e+00 
5.14582992e-01 5.18903993e-02 0.00000000e+00 
5.24948359e-01 5.11864908e-02 0.00000000e+00 
5.35312176e-01 5.04603274e-02 0.00000000e+00 

        </DataArray>
      </Points>
      <Cells>
        <DataArray type="Int32" Name="connectivity" format="ascii">
0 1
1 2
2 3

        </DataArray>
        <DataArray type="Int32" Name="offsets" format="ascii">
2 4 6 
        </DataArray>
        <DataArray type="UInt8" Name="types" format="ascii">
3 3 3 
        </DataArray>
      </Cells>
      <PointData>
        <DataArray type="Float64" Name="rho">
          8.90364305e-01 8.92747138e-01 8.95120495e-01 8.97481188e-01 
        </DataArray>
        <DataArray type="Float64" Name="rhou">
          4.64412039e-04 4.37229460e-04 4.16526152e-04 3.96142211e-04 
        </DataArray>
        <DataArray type="Float64" Name="rhov">
          6.46997347e-06 5.37458647e-06 -7.12466688e-07 -1.31616926e-05 
        </DataArray>
        <DataArray type="Float64" Name="E">
          2.02296580e+05 2.02868691e+05 2.03438634e+05 2.04005672e+05 
        </DataArray>
      </PointData>
    </Piece>
    <Piece NumberOfPoints="4" NumberOfCells="3">
      <Points>
        <DataArray type="Float64" NumberOfComponents="3" format="ascii">
          5.35312176e-01 5.04603274e-02 0.00000000e+00 
5.45674443e-01 4.97124642e-02 0.00000000e+00 
5.56035221e-01 4.89437394e-02 0.00000000e+00 
5.66394389e-01 4.81546782e-02 0.00000000e+00 

        </DataArray>
      </Points>
      <Cells>
        <DataArray type="Int32" Name="connectivity" format="ascii">
0 1
1 2
2 3

        </DataArray>
        <DataArray type="Int32" Name="offsets" format="ascii">
2 4 6 
        </DataArray>
        <DataArray type="UInt8" Name="types" format="ascii">
3 3 3 
        </DataArray>
      </Cells>
      <PointData>
        <DataArray type="Float64" Name="rho">
          8.97481232e-01 8.99828886e-01 9.02160857e-01 9.04474543e-01 
        </DataArray>
        <DataArray type="Float64" Name="rhou">
          3.91905652e-04 3.64654762e-04 3.45576442e-04 3.33153557e-04 
        </DataArray>
        <DataArray type="Float64" Name="rhov">
          -1.28515202e-05 -1.40117159e-05 -1.50461195e-05 -1.94832898e-05 
        </DataArray>
        <DataArray type="Float64" Name="E">
          2.04005683e+05 2.04569719e+05 2.05130142e+05 2.05686352e+05 
        </DataArray>
      </PointData>
    </Piece>
    <Piece NumberOfPoints="4" NumberOfCells="3">
      <Points>
        <DataArray type="Float64" NumberOfComponents="3" format="ascii">
          5.66394389e-01 4.81546782e-02 0.00000000e+00 
5.76752067e-01 4.73455116e-02 0.00000000e+00 
5.87108195e-01 4.65166979e-02 0.00000000e+00 
5.97462773e-01 4.56690118e-02 0.00000000e+00 

        </DataArray>
      </Points>
      <Cells>
        <DataArray type="Int32" Name="connectivity" format="ascii">
0 1
1 2
2 3

        </DataArray>
        <DataArray type="Int32" Name="offsets" format="ascii">
2 4 6 
        </DataArray>
        <DataArray type="UInt8" Name="types" format="ascii">
3 3 3 
        </DataArray>
      </Cells>
      <PointData>
        <DataArray type="Float64" Name="rho">
          9.04474572e-01 9.06768517e-01 9.09042633e-01 9.11296219e-01 
        </DataArray>
        <DataArray type="Float64" Name="rhou">
          3.32579586e-04 3.11789145e-04 2.90428648e-04 2.74108774e-04 
        </DataArray>
        <DataArray type="Float64" Name="rhov">
          -1.91121266e-05 -2.78885728e-05 -3.14100811e-05 -3.00109613e-05 
        </DataArray>
        <DataArray type="Float64" Name="E">
          2.05686359e+05 2.06238017e+05 2.06785094e+05 2.07327419e+05 
        </DataArray>
      </PointData>
    </Piece>
    <Piece NumberOfPoints="4" NumberOfCells="3">
      <Points>
        <DataArray type="Float64" NumberOfComponents="3" format="ascii">
          5.97462773e-01 4.56690118e-02 0.00000000e+00 
6.07815862e-01 4.48031016e-02 0.00000000e+00 
6.18167400e-01 4.39192392e-02 0.00000000e+00 
6.28517449e-01 4.30175588e-02 0.00000000e+00 

        </DataArray>
      </Points>
      <Cells>
        <DataArray type="Int32" Name="connectivity" format="ascii">
0 1
1 2
2 3

        </DataArray>
        <DataArray type="Int32" Name="offsets" format="ascii">
2 4 6 
        </DataArray>
        <DataArray type="UInt8" Name="types" format="ascii">
3 3 3 
        </DataArray>
      </Cells>
      <PointData>
        <DataArray type="Float64" Name="rho">
          9.11296155e-01 9.13527459e-01 9.15734788e-01 9.17918403e-01 
        </DataArray>
        <DataArray type="Float64" Name="rhou">
          2.72272554e-04 2.63744791e-04 2.52043697e-04 2.35027704e-04 
        </DataArray>
        <DataArray type="Float64" Name="rhov">
          -2.90530863e-05 -2.92207212e-05 -3.45201031e-05 -3.94890565e-05 
        </DataArray>
        <DataArray type="Float64" Name="E">
          2.07327405e+05 2.07864571e+05 2.08396184e+05 2.08922293e+05 
        </DataArray>
      </PointData>
    </Piece>
    <Piece NumberOfPoints="4" NumberOfCells="3">
      <Points>
        <DataArray type="Float64" NumberOfComponents="3" format="ascii">
          6.28517449e-01 4.30175588e-02 0.00000000e+00 
6.38865948e-01 4.20984775e-02 0.00000000e+00 
6.49212897e-01 4.11624312e-02 0.00000000e+00 
6.59558356e-01 4.02097441e-02 0.00000000e+00 

        </DataArray>
      </Points>
      <Cells>
        <DataArray type="Int32" Name="connectivity" format="ascii">
0 1
1 2
2 3

        </DataArray>
        <DataArray type="Int32" Name="offsets" format="ascii">
2 4 6 
        </DataArray>
        <DataArray type="UInt8" Name="types" format="ascii">
3 3 3 
        </DataArray>
      </Cells>
      <PointData>
        <DataArray type="Float64" Name="rho">
          9.17918395e-01 9.20078167e-01 9.22213282e-01 9.24323428e-01 
        </DataArray>
        <DataArray type="Float64" Name="rhou">
          2.36115812e-04 2.23908690e-04 2.13747359e-04 2.02797095e-04 
        </DataArray>
        <DataArray type="Float64" Name="rhov">
          -3.84515479e-05 -3.86198591e-05 -3.99083433e-05 -4.15356077e-05 
        </DataArray>
        <DataArray type="Float64" Name="E">
          2.08922292e+05 2.09442857e+05 2.09957682e+05 2.10466683e+05 
        </DataArray>
      </PointData>
    </Piece>
    <Piece NumberOfPoints="4" NumberOfCells="3">
      <Points>
        <DataArray type="Float64" NumberOfComponents="3" format="ascii">
          6.59558356e-01 4.02097441e-02 0.00000000e+00 
6.69902325e-01 3.92407738e-02 0.00000000e+00 
6.80244744e-01 3.82556282e-02 0.00000000e+00 
6.90585554e-01 3.72543521e-02 0.00000000e+00 

        </DataArray>
      </Points>
      <Cells>
        <DataArray type="Int32" Name="connectivity" format="ascii">
0 1
1 2
2 3

        </DataArray>
        <DataArray type="Int32" Name="offsets" format="ascii">
2 4 6 
        </DataArray>
        <DataArray type="UInt8" Name="types" format="ascii">
3 3 3 
        </DataArray>
      </Cells>
      <PointData>
        <DataArray type="Float64" Name="rho">
          9.24323411e-01 9.26408563e-01 9.28467526e-01 9.30501042e-01 
        </DataArray>
        <DataArray type="Float64" Name="rhou">
          1.99606221e-04 1.95759437e-04 1.88418148e-04 1.75059895e-04 
        </DataArray>
        <DataArray type="Float64" Name="rhov">
          -4.04876518e-05 -3.97965081e-05 -4.36570158e-05 -4.66884352e-05 
        </DataArray>
        <DataArray type="Float64" Name="E">
          2.10466679e+05 2.10969838e+05 2.11466869e+05 2.11957928e+05 
        </DataArray>
      </PointData>
    </Piece>
    <Piece NumberOfPoints="4" NumberOfCells="3">
      <Points>
        <DataArray type="Float64" NumberOfComponents="3" format="ascii">
          6.90585554e-01 3.72543521e-02 0.00000000e+00 
7.00924933e-01 3.62373814e-02 0.00000000e+00 
7.11262703e-01 3.52048986e-02 0.00000000e+00 
7.21598923e-01 3.41568366e-02 0.00000000e+00 

        </DataArray>
      </Points>
      <Cells>
        <DataArray type="Int32" Name="connectivity" format="ascii">
0 1
1 2
2 3

        </DataArray>
        <DataArray type="Int32" Name="offsets" format="ascii">
2 4 6 
        </DataArray>
        <DataArray type="UInt8" Name="types" format="ascii">
3 3 3 
        </DataArray>
      </Cells>
      <PointData>
        <DataArray type="Float64" Name="rho">
          9.30500999e-01 9.32509411e-01 9.34491417e-01 9.36447571e-01 
        </DataArray>
        <DataArray type="Float64" Name="rhou">
          1.73681344e-04 1.70191507e-04 1.66672994e-04 1.55338250e-04 
        </DataArray>
        <DataArray type="Float64" Name="rhov">
          -4.55639372e-05 -4.23229069e-05 -4.50401672e-05 -4.92339414e-05 
        </DataArray>
        <DataArray type="Float64" Name="E">
          2.11957918e+05 2.12443067e+05 2.12921995e+05 2.13394811e+05 
        </DataArray>
      </PointData>
    </Piece>
    <Piece NumberOfPoints="4" NumberOfCells="3">
      <Points>
        <DataArray type="Float64" NumberOfComponents="3" format="ascii">
          7.21598923e-01 3.41568366e-02 0.00000000e+00 
7.31933594e-01 3.30936089e-02 0.00000000e+00 
7.42266715e-01 3.20154354e-02 0.00000000e+00 
7.52598286e-01 3.09220124e-02 0.00000000e+00 

        </DataArray>
      </Points>
      <Cells>
        <DataArray type="Int32" Name="connectivity" format="ascii">
0 1
1 2
2 3

        </DataArray>
        <DataArray type="Int32" Name="offsets" format="ascii">
2 4 6 
        </DataArray>
        <DataArray type="UInt8" Name="types" format="ascii">
3 3 3 
        </DataArray>
      </Cells>
      <PointData>
        <DataArray type="Float64" Name="rho">
          9.36447551e-01 9.38378806e-01 9.40283696e-01 9.42162645e-01 
        </DataArray>
        <DataArray type="Float64" Name="rhou">
          1.52639279e-04 1.50406010e-04 1.49551936e-04 1.41260494e-04 
        </DataArray>
        <DataArray type="Float64" Name="rhov">
          -4.82643774e-05 -4.30605530e-05 -4.47820024e-05 -4.94585038e-05 
        </DataArray>
        <DataArray type="Float64" Name="E">
          2.13394807e+05 2.13861710e+05 2.14322350e+05 2.14776803e+05 
        </DataArray>
      </PointData>
    </Piece>
    <Piece NumberOfPoints="4" NumberOfCells="3">
      <Points>
        <DataArray type="Float64" NumberOfComponents="3" format="ascii">
          7.52598286e-01 3.09220124e-02 0.00000000e+00 
7.62928188e-01 2.98135038e-02 0.00000000e+00 
7.73256481e-01 2.86899786e-02 0.00000000e+00 
7.83583105e-01 2.75512449e-02 0.00000000e+00 

        </DataArray>
      </Points>
      <Cells>
        <DataArray type="Int32" Name="connectivity" format="ascii">
0 1
1 2
2 3

        </DataArray>
        <DataArray type="Int32" Name="offsets" format="ascii">
2 4 6 
        </DataArray>
        <DataArray type="UInt8" Name="types" format="ascii">
3 3 3 
        </DataArray>
      </Cells>
      <PointData>
        <DataArray type="Float64" Name="rho">
          9.42162640e-01 9.44016729e-01 9.45845050e-01 9.47648234e-01 
        </DataArray>
        <DataArray type="Float64" Name="rhou">
          1.38609368e-04 1.37024077e-04 1.35380927e-04 1.28271084e-04 
        </DataArray>
        <DataArray type="Float64" Name="rhov">
          -4.85425383e-05 -4.56820183e-05 -4.74604859e-05 -5.03636057e-05 
        </DataArray>
        <DataArray type="Float64" Name="E">
          2.14776802e+05 2.15225293e+05 2.15667596e+05 2.16103828e+05 
        </DataArray>
      </PointData>
    </Piece>
    <Piece NumberOfPoints="4" NumberOfCells="3">
      <Points>
        <DataArray type="Float64" NumberOfComponents="3" format="ascii">
          7.83583105e-01 2.75512449e-02 0.00000000e+00 
7.93908060e-01 2.63975188e-02 0.00000000e+00 
8.04231405e-01 2.52291560e-02 0.00000000e+00 
8.14553022e-01 2.40457114e-02 0.00000000e+00 

        </DataArray>
      </Points>
      <Cells>
        <DataArray type="Int32" Name="connectivity" format="ascii">
0 1
1 2
2 3

        </DataArray>
        <DataArray type="Int32" Name="offsets" format="ascii">
2 4 6 
        </DataArray>
        <DataArray type="UInt8" Name="types" format="ascii">
3 3 3 
        </DataArray>
      </Cells>
      <PointData>
        <DataArray type="Float64" Name="rho">
          9.47648241e-01 9.49427008e-01 9.51181230e-01 9.52910215e-01 
        </DataArray>
        <DataArray type="Float64" Name="rhou">
          1.30851161e-04 1.22391759e-04 1.23773117e-04 1.27370235e-04 
        </DataArray>
        <DataArray type="Float64" Name="rhov">
          -5.07408179e-05 -4.66339375e-05 -4.50499468e-05 -5.14152118e-05 
        </DataArray>
        <DataArray type="Float64" Name="E">
          2.16103830e+05 2.16534129e+05 2.16958438e+05 2.17376566e+05 
        </DataArray>
      </PointData>
    </Piece>
    <Piece NumberOfPoints="4" NumberOfCells="3">
      <Points>
        <DataArray type="Float64" NumberOfComponents="3" format="ascii">
          8.14553022e-01 2.40457114e-02 0.00000000e+00 
8.24872792e-01 2.28467938e-02 0.00000000e+00 
8.35190892e-01 2.16327831e-02 0.00000000e+00 
8.45507145e-01 2.04038676e-02 0.00000000e+00 

        </DataArray>
      </Points>
      <Cells>
        <DataArray type="Int32" Name="connectivity" format="ascii">
0 1
1 2
2 3

        </DataArray>
        <DataArray type="Int32" Name="offsets" format="ascii">
2 4 6 
        </DataArray>
        <DataArray type="UInt8" Name="types" format="ascii">
3 3 3 
        </DataArray>
      </Cells>
      <PointData>
        <DataArray type="Float64" Name="rho">
          9.52910259e-01 9.54615694e-01 9.56297894e-01 9.57957051e-01 
        </DataArray>
        <DataArray type="Float64" Name="rhou">
          1.21313962e-04 1.15443242e-04 1.10858371e-04 1.14127160e-04 
        </DataArray>
        <DataArray type="Float64" Name="rhov">
          -5.16926495e-05 -5.14629947e-05 -4.84793482e-05 -4.44282376e-05 
        </DataArray>
        <DataArray type="Float64" Name="E">
          2.17376576e+05 2.17788871e+05 2.18195362e+05 2.18596045e+05 
        </DataArray>
      </PointData>
    </Piece>
    <Piece NumberOfPoints="4" NumberOfCells="3">
      <Points>
        <DataArray type="Float64" NumberOfComponents="3" format="ascii">
          8.45507145e-01 2.04038676e-02 0.00000000e+00 
8.55821550e-01 1.91591792e-02 0.00000000e+00 
8.66134048e-01 1.78987328e-02 0.00000000e+00 
8.76444638e-01 1.66228991e-02 0.00000000e+00 

        </DataArray>
      </Points>
      <Cells>
        <DataArray type="Int32" Name="connectivity" format="ascii">
0 1
1 2
2 3

        </DataArray>
        <DataArray type="Int32" Name="offsets" format="ascii">
2 4 6 
        </DataArray>
        <DataArray type="UInt8" Name="types" format="ascii">
3 3 3 
        </DataArray>
      </Cells>
      <PointData>
        <DataArray type="Float64" Name="rho">
          9.57957166e-01 9.59591979e-01 9.61206527e-01 9.62797420e-01 
        </DataArray>
        <DataArray type="Float64" Name="rhou">
          1.35916196e-04 1.06291135e-04 1.07370362e-04 1.26480936e-04 
        </DataArray>
        <DataArray type="Float64" Name="rhov">
          -4.81579134e-05 -5.57833777e-05 -5.31793388e-05 -7.14923103e-05 
        </DataArray>
        <DataArray type="Float64" Name="E">
          2.18596071e+05 2.18990593e+05 2.19379818e+05 2.19762896e+05 
        </DataArray>
      </PointData>
    </Piece>
    <Piece NumberOfPoints="4" NumberOfCells="3">
      <Points>
        <DataArray type="Float64" NumberOfComponents="3" format="ascii">
          8.76444638e-01 1.66228991e-02 0.00000000e+00 
8.86753201e-01 1.53310820e-02 0.00000000e+00 
8.97059798e-01 1.40233757e-02 0.00000000e+00 
9.07364249e-01 1.26988320e-02 0.00000000e+00 

        </DataArray>
      </Points>
      <Cells>
        <DataArray type="Int32" Name="connectivity" format="ascii">
0 1
1 2
2 3

        </DataArray>
        <DataArray type="Int32" Name="offsets" format="ascii">
2 4 6 
        </DataArray>
        <DataArray type="UInt8" Name="types" format="ascii">
3 3 3 
        </DataArray>
      </Cells>
      <PointData>
        <DataArray type="Float64" Name="rho">
          9.62796955e-01 9.64371262e-01 9.65921539e-01 9.67467487e-01 
        </DataArray>
        <DataArray type="Float64" Name="rhou">
          3.12341239e-05 1.29364168e-04 7.45914696e-05 2.26243906e-05 
        </DataArray>
        <DataArray type="Float64" Name="rhov">
          -6.33009090e-05 -6.69214802e-05 -8.67826888e-05 1.55002658e-05 
        </DataArray>
        <DataArray type="Float64" Name="E">
          2.19762790e+05 2.20141249e+05 2.20513290e+05 2.20883302e+05 
        </DataArray>
      </PointData>
    </Piece>
    <Piece NumberOfPoints="4" NumberOfCells="3">
      <Points>
        <DataArray type="Float64" NumberOfComponents="3" format="ascii">
          9.07364249e-01 1.26988320e-02 0.00000000e+00 
9.17666554e-01 1.13577880e-02 0.00000000e+00 
9.27966774e-01 1.00004105e-02 0.00000000e+00 
9.38264549e-01 8.62528384e-03 0.00000000e+00 

        </DataArray>
      </Points>
      <Cells>
        <DataArray type="Int32" Name="connectivity" format="ascii">
0 1
1 2
2 3

        </DataArray>
        <DataArray type="Int32" Name="offsets" format="ascii">
2 4 6 
        </DataArray>
        <DataArray type="UInt8" Name="types" format="ascii">
3 3 3 
        </DataArray>
      </Cells>
      <PointData>
        <DataArray type="Float64" Name="rho">
          9.67472526e-01 9.68970800e-01 9.70497476e-01 9.71876673e-01 
        </DataArray>
        <DataArray type="Float64" Name="rhou">
          8.62288657e-04 -1.80525024e-04 3.93875471e-04 8.36409538e-04 
        </DataArray>
        <DataArray type="Float64" Name="rhov">
          -5.63570749e-05 -1.11895626e-04 -3.87098283e-05 -1.50956163e-03 
        </DataArray>
        <DataArray type="Float64" Name="E">
          2.20884452e+05 2.21242423e+05 2.21605602e+05 2.21933713e+05 
        </DataArray>
      </PointData>
    </Piece>
    <Piece NumberOfPoints="4" NumberOfCells="3">
      <Points>
        <DataArray type="Float64" NumberOfComponents="3" format="ascii">
          9.38264549e-01 8.62528384e-03 0.00000000e+00 
9.48560059e-01 7.23283459e-03 0.00000000e+00 
9.58853185e-01 5.82307298e-03 0.00000000e+00 
9.69143867e-01 4.39538015e-03 0.00000000e+00 

        </DataArray>
      </Points>
      <Cells>
        <DataArray type="Int32" Name="connectivity" format="ascii">
0 1
1 2
2 3

        </DataArray>
        <DataArray type="Int32" Name="offsets" format="ascii">
2 4 6 
        </DataArray>
        <DataArray type="UInt8" Name="types" format="ascii">
3 3 3 
        </DataArray>
      </Cells>
      <PointData>
        <DataArray type="Float64" Name="rho">
          9.71827419e-01 9.73542928e-01 9.74838763e-01 9.77640572e-01 
        </DataArray>
        <DataArray type="Float64" Name="rhou">
          -6.89450717e-03 2.26687109e-03 -3.23412586e-03 -1.96550341e-02 
        </DataArray>
        <DataArray type="Float64" Name="rhov">
          -1.11909062e-03 1.41153259e-04 -1.16179526e-03 1.96513064e-02 
        </DataArray>
        <DataArray type="Float64" Name="E">
          2.21922466e+05 2.22325876e+05 2.22631861e+05 2.23280067e+05 
        </DataArray>
      </PointData>
    </Piece>
    <Piece NumberOfPoints="4" NumberOfCells="3">
      <Points>
        <DataArray type="Float64" NumberOfComponents="3" format="ascii">
          9.69143867e-01 4.39538015e-03 0.00000000e+00 
9.79435980e-01 2.94816052e-03 0.00000000e+00 
9.89725590e-01 1.48259092e-03 0.00000000e+00 
1.00000000e+00 0.00000000e+00 0.00000000e+00 

        </DataArray>
      </Points>
      <Cells>
        <DataArray type="Int32" Name="connectivity" format="ascii">
0 1
1 2
2 3

        </DataArray>
        <DataArray type="Int32" Name="offsets" format="ascii">
2 4 6 
        </DataArray>
        <DataArray type="UInt8" Name="types" format="ascii">
3 3 3 
        </DataArray>
      </Cells>
      <PointData>
        <DataArray type="Float64" Name="rho">
          9.77942774e-01 9.77568812e-01 9.81569577e-01 9.71386343e-01 
        </DataArray>
        <DataArray type="Float64" Name="rhou">
          -1.55886860e-03 -9.89687379e-03 -3.88315521e-02 5.17632811e-01 
        </DataArray>
        <DataArray type="Float64" Name="rhov">
          2.16873581e-02 1.21853756e-03 5.42003897e-02 -1.41748768e-01 
        </DataArray>
        <DataArray type="Float64" Name="E">
          2.23349597e+05 2.23269689e+05 2.24186397e+05 2.21848387e+05 
        </DataArray>
      </PointData>
    </Piece>
    <Piece NumberOfPoints="4" NumberOfCells="3">
      <Points>
        <DataArray type="Float64" NumberOfComponents="3" format="ascii">
          9.69029665e-01 -4.41133138e-03 0.00000000e+00 
9.79355037e-01 -2.95961346e-03 0.00000000e+00 
9.89677846e-01 -1.48943183e-03 0.00000000e+00 
1.00000000e+00 0.00000000e+00 0.00000000e+00 

        </DataArray>
      </Points>
      <Cells>
        <DataArray type="Int32" Name="connectivity" format="ascii">
0 1
1 2
2 3

        </DataArray>
        <DataArray type="Int32" Name="offsets" format="ascii">
2 4 6 
        </DataArray>
        <DataArray type="UInt8" Name="types" format="ascii">
3 3 3 
        </DataArray>
      </Cells>
      <PointData>
        <DataArray type="Float64" Name="rho">
          9.77496585e-01 9.77055754e-01 9.80906803e-01 9.71754480e-01 
        </DataArray>
        <DataArray type="Float64" Name="rhou">
          -9.22167145e-04 -7.76461856e-03 -3.72957959e-02 4.78478883e-01 
        </DataArray>
        <DataArray type="Float64" Name="rhov">
          -2.49051310e-02 2.38564577e-03 -5.11983033e-02 1.50561787e-01 
        </DataArray>
        <DataArray type="Float64" Name="E">
          2.23121848e+05 2.23044548e+05 2.23951664e+05 2.21911983e+05 
        </DataArray>
      </PointData>
    </Piece>
    <Piece NumberOfPoints="4" NumberOfCells="3">
      <Points>
        <DataArray type="Float64" NumberOfComponents="3" format="ascii">
          9.38035965e-01 -8.65600072e-03 0.00000000e+00 
9.48369622e-01 -7.25875143e-03 0.00000000e+00 
9.58700895e-01 -5.84406452e-03 0.00000000e+00 
9.69029665e-01 -4.41133138e-03 0.00000000e+00 

        </DataArray>
      </Points>
      <Cells>
        <DataArray type="Int32" Name="connectivity" format="ascii">
0 1
1 2
2 3

        </DataArray>
        <DataArray type="Int32" Name="offsets" format="ascii">
2 4 6 
        </DataArray>
        <DataArray type="UInt8" Name="types" format="ascii">
3 3 3 
        </DataArray>
      </Cells>
      <PointData>
        <DataArray type="Float64" Name="rho">
          9.71705753e-01 9.73333822e-01 9.74538600e-01 9.77188978e-01 
        </DataArray>
        <DataArray type="Float64" Name="rhou">
          -6.57200119e-03 2.45867175e-03 -2.67671532e-03 -1.78664516e-02 
        </DataArray>
        <DataArray type="Float64" Name="rhov">
          1.14328049e-03 -1.93296424e-04 1.41185607e-03 -1.83023402e-02 
        </DataArray>
        <DataArray type="Float64" Name="E">
          2.21746697e+05 2.22135210e+05 2.22427987e+05 2.23052226e+05 
        </DataArray>
      </PointData>
    </Piece>
    <Piece NumberOfPoints="4" NumberOfCells="3">
      <Points>
        <DataArray type="Float64" NumberOfComponents="3" format="ascii">
          9.07021165e-01 -1.27432076e-02 0.00000000e+00 
9.17361677e-01 -1.13977119e-02 0.00000000e+00 
9.27700043e-01 -1.00357840e-02 0.00000000e+00 
9.38035965e-01 -8.65600072e-03 0.00000000e+00 

        </DataArray>
      </Points>
      <Cells>
        <DataArray type="Int32" Name="connectivity" format="ascii">
0 1
1 2
2 3

        </DataArray>
        <DataArray type="Int32" Name="offsets" format="ascii">
2 4 6 
        </DataArray>
        <DataArray type="UInt8" Name="types" format="ascii">
3 3 3 
        </DataArray>
      </Cells>
      <PointData>
        <DataArray type="Float64" Name="rho">
          9.67587666e-01 9.69005744e-01 9.70453973e-01 9.71754464e-01 
        </DataArray>
        <DataArray type="Float64" Name="rhou">
          1.00056070e-03 -3.44667358e-05 5.57398396e-04 9.74191396e-04 
        </DataArray>
        <DataArray type="Float64" Name="rhov">
          3.69554802e-05 6.62634722e-05 -2.46963594e-05 1.43639947e-03 
        </DataArray>
        <DataArray type="Float64" Name="E">
          2.20756576e+05 2.21097056e+05 2.21444276e+05 2.21757803e+05 
        </DataArray>
      </PointData>
    </Piece>
    <Piece NumberOfPoints="4" NumberOfCells="3">
      <Points>
        <DataArray type="Float64" NumberOfComponents="3" format="ascii">
          8.75986874e-01 -1.66798849e-02 0.00000000e+00 
8.86333704e-01 -1.53839625e-02 0.00000000e+00 
8.96678507e-01 -1.40720531e-02 0.00000000e+00 
9.07021165e-01 -1.27432076e-02 0.00000000e+00 

        </DataArray>
      </Points>
      <Cells>
        <DataArray type="Int32" Name="connectivity" format="ascii">
0 1
1 2
2 3

        </DataArray>
        <DataArray type="Int32" Name="offsets" format="ascii">
2 4 6 
        </DataArray>
        <DataArray type="UInt8" Name="types" format="ascii">
3 3 3 
        </DataArray>
      </Cells>
      <PointData>
        <DataArray type="Float64" Name="rho">
          9.63201162e-01 9.64670647e-01 9.66125452e-01 9.67582551e-01 
        </DataArray>
        <DataArray type="Float64" Name="rhou">
          1.88066051e-04 2.74500398e-04 2.26866413e-04 1.75526211e-04 
        </DataArray>
        <DataArray type="Float64" Name="rhov">
          5.60332291e-05 4.76590461e-05 6.37404443e-05 -3.44681147e-05 
        </DataArray>
        <DataArray type="Float64" Name="E">
          2.19703622e+05 2.20056523e+05 2.20405825e+05 2.20755412e+05 
        </DataArray>
      </PointData>
    </Piece>
    <Piece NumberOfPoints="4" NumberOfCells="3">
      <Points>
        <DataArray type="Float64" NumberOfComponents="3" format="ascii">
          8.44934702e-01 -2.04724707e-02 0.00000000e+00 
8.55287313e-01 -1.92240477e-02 0.00000000e+00 
8.65638077e-01 -1.79597028e-02 0.00000000e+00 
8.75986874e-01 -1.66798849e-02 0.00000000e+00 

        </DataArray>
      </Points>
      <Cells>
        <DataArray type="Int32" Name="connectivity" format="ascii">
0 1
1 2
2 3

        </DataArray>
        <DataArray type="Int32" Name="offsets" format="ascii">
2 4 6 
        </DataArray>
        <DataArray type="UInt8" Name="types" format="ascii">
3 3 3 
        </DataArray>
      </Cells>
      <PointData>
        <DataArray type="Float64" Name="rho">
          9.58747813e-01 9.60240038e-01 9.61727164e-01 9.63201604e-01 
        </DataArray>
        <DataArray type="Float64" Name="rhou">
          3.17406100e-04 2.59647885e-04 2.49862172e-04 2.92030602e-04 
        </DataArray>
        <DataArray type="Float64" Name="rhov">
          2.93280766e-05 5.05813301e-05 4.01329008e-05 5.96502929e-05 
        </DataArray>
        <DataArray type="Float64" Name="E">
          2.18633203e+05 2.18992020e+05 2.19349441e+05 2.19703723e+05 
        </DataArray>
      </PointData>
    </Piece>
    <Piece NumberOfPoints="4" NumberOfCells="3">
      <Points>
        <DataArray type="Float64" NumberOfComponents="3" format="ascii">
          8.13865662e-01 -2.41250079e-02 0.00000000e+00 
8.24223816e-01 -2.29226518e-02 0.00000000e+00 
8.34580123e-01 -2.17050612e-02 0.00000000e+00 
8.44934702e-01 -2.04724707e-02 0.00000000e+00 

        </DataArray>
      </Points>
      <Cells>
        <DataArray type="Int32" Name="connectivity" format="ascii">
0 1
1 2
2 3

        </DataArray>
        <DataArray type="Int32" Name="offsets" format="ascii">
2 4 6 
        </DataArray>
        <DataArray type="UInt8" Name="types" format="ascii">
3 3 3 
        </DataArray>
      </Cells>
      <PointData>
        <DataArray type="Float64" Name="rho">
          9.54208023e-01 9.55728880e-01 9.57242353e-01 9.58747577e-01 
        </DataArray>
        <DataArray type="Float64" Name="rhou">
          2.83311711e-04 2.70699931e-04 2.57991196e-04 2.66689894e-04 
        </DataArray>
        <DataArray type="Float64" Name="rhov">
          4.09270799e-05 4.17023697e-05 3.41063943e-05 2.19788205e-05 
        </DataArray>
        <DataArray type="Float64" Name="E">
          2.17541103e+05 2.17907065e+05 2.18271151e+05 2.18633150e+05 
        </DataArray>
      </PointData>
    </Piece>
    <Piece NumberOfPoints="4" NumberOfCells="3">
      <Points>
        <DataArray type="Float64" NumberOfComponents="3" format="ascii">
          7.82780826e-01 -2.76402626e-02 0.00000000e+00 
7.93144107e-01 -2.64833923e-02 0.00000000e+00 
8.03505778e-01 -2.53117718e-02 0.00000000e+00 
8.13865662e-01 -2.41250079e-02 0.00000000e+00 

        </DataArray>
      </Points>
      <Cells>
        <DataArray type="Int32" Name="connectivity" format="ascii">
0 1
1 2
2 3

        </DataArray>
        <DataArray type="Int32" Name="offsets" format="ascii">
2 4 6 
        </DataArray>
        <DataArray type="UInt8" Name="types" format="ascii">
3 3 3 
        </DataArray>
      </Cells>
      <PointData>
        <DataArray type="Float64" Name="rho">
          9.49597299e-01 9.51142018e-01 9.52679896e-01 9.54207912e-01 
        </DataArray>
        <DataArray type="Float64" Name="rhou">
          2.95617860e-04 2.77173707e-04 2.79786233e-04 2.92594377e-04 
        </DataArray>
        <DataArray type="Float64" Name="rhov">
          3.83844463e-05 2.95438746e-05 2.48059513e-05 3.94551032e-05 
        </DataArray>
        <DataArray type="Float64" Name="E">
          2.16431255e+05 2.16803134e+05 2.17173310e+05 2.17541078e+05 
        </DataArray>
      </PointData>
    </Piece>
    <Piece NumberOfPoints="4" NumberOfCells="3">
      <Points>
        <DataArray type="Float64" NumberOfComponents="3" format="ascii">
          7.51680970e-01 -3.10197193e-02 0.00000000e+00 
7.62049198e-01 -2.99084149e-02 0.00000000e+00 
7.72415876e-01 -2.87819952e-02 0.00000000e+00 
7.82780826e-01 -2.76402626e-02 0.00000000e+00 

        </DataArray>
      </Points>
      <Cells>
        <DataArray type="Int32" Name="connectivity" format="ascii">
0 1
1 2
2 3

        </DataArray>
        <DataArray type="Int32" Name="offsets" format="ascii">
2 4 6 
        </DataArray>
        <DataArray type="UInt8" Name="types" format="ascii">
3 3 3 
        </DataArray>
      </Cells>
      <PointData>
        <DataArray type="Float64" Name="rho">
          9.44926796e-01 9.46490116e-01 9.48046901e-01 9.49597262e-01 
        </DataArray>
        <DataArray type="Float64" Name="rhou">
          3.00455768e-04 2.99081264e-04 2.96428616e-04 2.84998606e-04 
        </DataArray>
        <DataArray type="Float64" Name="rhov">
          3.24591754e-05 2.52674038e-05 2.88459687e-05 3.64105780e-05 
        </DataArray>
        <DataArray type="Float64" Name="E">
          2.15306643e+05 2.15683088e+05 2.16057954e+05 2.16431246e+05 
        </DataArray>
      </PointData>
    </Piece>
    <Piece NumberOfPoints="4" NumberOfCells="3">
      <Points>
        <DataArray type="Float64" NumberOfComponents="3" format="ascii">
          7.20566452e-01 -3.42622213e-02 0.00000000e+00 
7.30939507e-01 -3.31965312e-02 0.00000000e+00 
7.41311073e-01 -3.21157984e-02 0.00000000e+00 
7.51680970e-01 -3.10197193e-02 0.00000000e+00 

        </DataArray>
      </Points>
      <Cells>
        <DataArray type="Int32" Name="connectivity" format="ascii">
0 1
1 2
2 3

        </DataArray>
        <DataArray type="Int32" Name="offsets" format="ascii">
2 4 6 
        </DataArray>
        <DataArray type="UInt8" Name="types" format="ascii">
3 3 3 
        </DataArray>
      </Cells>
      <PointData>
        <DataArray type="Float64" Name="rho">
          9.40211611e-01 9.41788106e-01 9.43360091e-01 9.44926788e-01 
        </DataArray>
        <DataArray type="Float64" Name="rhou">
          3.18874304e-04 3.14511992e-04 3.14419330e-04 3.03908317e-04 
        </DataArray>
        <DataArray type="Float64" Name="rhov">
          3.08827793e-05 1.91396427e-05 2.13690332e-05 3.31424587e-05 
        </DataArray>
        <DataArray type="Float64" Name="E">
          2.14171194e+05 2.14550805e+05 2.14929352e+05 2.15306641e+05 
        </DataArray>
      </PointData>
    </Piece>
    <Piece NumberOfPoints="4" NumberOfCells="3">
      <Points>
        <DataArray type="Float64" NumberOfComponents="3" format="ascii">
          6.89437866e-01 -3.73662710e-02 0.00000000e+00 
6.99815631e-01 -3.63472365e-02 0.00000000e+00 
7.10191846e-01 -3.53125818e-02 0.00000000e+00 
7.20566452e-01 -3.42622213e-02 0.00000000e+00 

        </DataArray>
      </Points>
      <Cells>
        <DataArray type="Int32" Name="connectivity" format="ascii">
0 1
1 2
2 3

        </DataArray>
        <DataArray type="Int32" Name="offsets" format="ascii">
2 4 6 
        </DataArray>
        <DataArray type="UInt8" Name="types" format="ascii">
3 3 3 
        </DataArray>
      </Cells>
      <PointData>
        <DataArray type="Float64" Name="rho">
          9.35474979e-01 9.37055556e-01 9.38634609e-01 9.40211622e-01 
        </DataArray>
        <DataArray type="Float64" Name="rhou">
          3.45624338e-04 3.40491139e-04 3.35886036e-04 3.20154241e-04 
        </DataArray>
        <DataArray type="Float64" Name="rhov">
          2.51758928e-05 1.70051033e-05 2.10314544e-05 3.12965920e-05 
        </DataArray>
        <DataArray type="Float64" Name="E">
          2.13030724e+05 2.13411247e+05 2.13791451e+05 2.14171196e+05 
        </DataArray>
      </PointData>
    </Piece>
    <Piece NumberOfPoints="4" NumberOfCells="3">
      <Points>
        <DataArray type="Float64" NumberOfComponents="3" format="ascii">
          6.58295333e-01 -4.03269380e-02 0.00000000e+00 
6.68677747e-01 -3.93563360e-02 0.00000000e+00 
6.79058611e-01 -3.83694395e-02 0.00000000e+00 
6.89437866e-01 -3.73662710e-02 0.00000000e+00 

        </DataArray>
      </Points>
      <Cells>
        <DataArray type="Int32" Name="connectivity" format="ascii">
0 1
1 2
2 3

        </DataArray>
        <DataArray type="Int32" Name="offsets" format="ascii">
2 4 6 
        </DataArray>
        <DataArray type="UInt8" Name="types" format="ascii">
3 3 3 
        </DataArray>
      </Cells>
      <PointData>
        <DataArray type="Float64" Name="rho">
          9.30745559e-01 9.32320085e-01 9.33896609e-01 9.35475034e-01 
        </DataArray>
        <DataArray type="Float64" Name="rhou">
          3.77574107e-04 3.73713930e-04 3.62914148e-04 3.43999937e-04 
        </DataArray>
        <DataArray type="Float64" Name="rhov">
          1.65782088e-05 1.26290005e-05 1.85891358e-05 2.60601157e-05 
        </DataArray>
        <DataArray type="Float64" Name="E">
          2.11892347e+05 2.12271274e+05 2.12650753e+05 2.13030737e+05 
        </DataArray>
      </PointData>
    </Piece>
    <Piece NumberOfPoints="4" NumberOfCells="3">
      <Points>
        <DataArray type="Float64" NumberOfComponents="3" format="ascii">
          6.27138972e-01 -4.31386717e-02 0.00000000e+00 
6.37525976e-01 -4.22184542e-02 0.00000000e+00 
6.47911429e-01 -4.12811004e-02 0.00000000e+00 
6.58295333e-01 -4.03269380e-02 0.00000000e+00 

        </DataArray>
      </Points>
      <Cells>
        <DataArray type="Int32" Name="connectivity" format="ascii">
0 1
1 2
2 3

        </DataArray>
        <DataArray type="Int32" Name="offsets" format="ascii">
2 4 6 
        </DataArray>
        <DataArray type="UInt8" Name="types" format="ascii">
3 3 3 
        </DataArray>
      </Cells>
      <PointData>
        <DataArray type="Float64" Name="rho">
          9.26059225e-01 9.27613817e-01 9.29176580e-01 9.30745593e-01 
        </DataArray>
        <DataArray type="Float64" Name="rhou">
          4.25548959e-04 4.07869151e-04 3.92057644e-04 3.78865915e-04 
        </DataArray>
        <DataArray type="Float64" Name="rhov">
          1.58696551e-05 1.38925871e-05 1.43829627e-05 1.75278276e-05 
        </DataArray>
        <DataArray type="Float64" Name="E">
          2.10764850e+05 2.11138810e+05 2.11514799e+05 2.11892354e+05 
        </DataArray>
      </PointData>
    </Piece>
    <Piece NumberOfPoints="4" NumberOfCells="3">
      <Points>
        <DataArray type="Float64" NumberOfComponents="3" format="ascii">
          5.95968783e-01 -4.57924642e-02 0.00000000e+00 
6.06360376e-01 -4.49259281e-02 0.00000000e+00 
6.16750479e-01 -4.40412909e-02 0.00000000e+00 
6.27138972e-01 -4.31386717e-02 0.00000000e+00 

        </DataArray>
      </Points>
      <Cells>
        <DataArray type="Int32" Name="connectivity" format="ascii">
0 1
1 2
2 3

        </DataArray>
        <DataArray type="Int32" Name="offsets" format="ascii">
2 4 6 
        </DataArray>
        <DataArray type="UInt8" Name="types" format="ascii">
3 3 3 
        </DataArray>
      </Cells>
      <PointData>
        <DataArray type="Float64" Name="rho">
          9.21464126e-01 9.22983389e-01 9.24515515e-01 9.26059218e-01 
        </DataArray>
        <DataArray type="Float64" Name="rhou">
          4.68282230e-04 4.56938837e-04 4.40665535e-04 4.19325339e-04 
        </DataArray>
        <DataArray type="Float64" Name="rhov">
          6.43916667e-06 2.37272443e-06 8.01986115e-06 1.66837941e-05 
        </DataArray>
        <DataArray type="Float64" Name="E">
          2.09659878e+05 2.10025133e+05 2.10393562e+05 2.10764849e+05 
        </DataArray>
      </PointData>
    </Piece>
    <Piece NumberOfPoints="4" NumberOfCells="3">
      <Points>
        <DataArray type="Float64" NumberOfComponents="3" format="ascii">
          5.64784765e-01 -4.82786149e-02 0.00000000e+00 
5.75181007e-01 -4.74695377e-02 0.00000000e+00 
5.85575700e-01 -4.66405638e-02 0.00000000e+00 
5.95968783e-01 -4.57924642e-02 0.00000000e+00 

        </DataArray>
      </Points>
      <Cells>
        <DataArray type="Int32" Name="connectivity" format="ascii">
0 1
1 2
2 3

        </DataArray>
        <DataArray type="Int32" Name="offsets" format="ascii">
2 4 6 
        </DataArray>
        <DataArray type="UInt8" Name="types" format="ascii">
3 3 3 
        </DataArray>
      </Cells>
      <PointData>
        <DataArray type="Float64" Name="rho">
          9.17021777e-01 9.18480524e-01 9.19961954e-01 9.21464240e-01 
        </DataArray>
        <DataArray type="Float64" Name="rhou">
          5.44559073e-04 5.18297329e-04 4.85653728e-04 4.62351779e-04 
        </DataArray>
        <DataArray type="Float64" Name="rhov">
          -2.74346151e-06 7.98223232e-06 1.19003198e-05 7.31646778e-06 
        </DataArray>
        <DataArray type="Float64" Name="E">
          2.08592147e+05 2.08942717e+05 2.09298785e+05 2.09659904e+05 
        </DataArray>
      </PointData>
    </Piece>
    <Piece NumberOfPoints="4" NumberOfCells="3">
      <Points>
        <DataArray type="Float64" NumberOfComponents="3" format="ascii">
          5.33586800e-01 -5.05827516e-02 0.00000000e+00 
5.43987691e-01 -4.98356484e-02 0.00000000e+00 
5.54387033e-01 -4.90674041e-02 0.00000000e+00 
5.64784765e-01 -4.82786149e-02 0.00000000e+00 

        </DataArray>
      </Points>
      <Cells>
        <DataArray type="Int32" Name="connectivity" format="ascii">
0 1
1 2
2 3

        </DataArray>
        <DataArray type="Int32" Name="offsets" format="ascii">
2 4 6 
        </DataArray>
        <DataArray type="UInt8" Name="types" format="ascii">
3 3 3 
        </DataArray>
      </Cells>
      <PointData>
        <DataArray type="Float64" Name="rho">
          9.12805146e-01 9.14179688e-01 9.15587012e-01 9.17021735e-01 
        </DataArray>
        <DataArray type="Float64" Name="rhou">
          6.20091845e-04 5.79801682e-04 5.50919336e-04 5.39171150e-04 
        </DataArray>
        <DataArray type="Float64" Name="rhov">
          4.93764379e-07 -1.84052177e-07 -4.10623069e-06 -2.48093554e-06 
        </DataArray>
        <DataArray type="Float64" Name="E">
          2.07579062e+05 2.07909289e+05 2.08247400e+05 2.08592138e+05 
        </DataArray>
      </PointData>
    </Piece>
    <Piece NumberOfPoints="4" NumberOfCells="3">
      <Points>
        <DataArray type="Float64" NumberOfComponents="3" format="ascii">
          5.02374947e-01 -5.26902266e-02 0.00000000e+00 
5.12780428e-01 -5.20105064e-02 0.00000000e+00 
5.23184419e-01 -5.13078682e-02 0.00000000e+00 
5.33586800e-01 -5.05827516e-02 0.00000000e+00 

        </DataArray>
      </Points>
      <Cells>
        <DataArray type="Int32" Name="connectivity" format="ascii">
0 1
1 2
2 3

        </DataArray>
        <DataArray type="Int32" Name="offsets" format="ascii">
2 4 6 
        </DataArray>
        <DataArray type="UInt8" Name="types" format="ascii">
3 3 3 
        </DataArray>
      </Cells>
      <PointData>
        <DataArray type="Float64" Name="rho">
          9.08911361e-01 9.10167389e-01 9.11467258e-01 9.12805049e-01 
        </DataArray>
        <DataArray type="Float64" Name="rhou">
          7.04044585e-04 6.66897445e-04 6.38792580e-04 6.17604049e-04 
        </DataArray>
        <DataArray type="Float64" Name="rhov">
          -7.47093057e-06 -1.44515963e-05 -1.35518833e-05 -1.07855302e-07 
        </DataArray>
        <DataArray type="Float64" Name="E">
          2.06643561e+05 2.06945346e+05 2.07257633e+05 2.07579040e+05 
        </DataArray>
      </PointData>
    </Piece>
    <Piece NumberOfPoints="4" NumberOfCells="3">
      <Points>
        <DataArray type="Float64" NumberOfComponents="3" format="ascii">
          4.71149325e-01 -5.45825884e-02 0.00000000e+00 
4.81559396e-01 -5.39771840e-02 0.00000000e+00 
4.91967946e-01 -5.33461571e-02 0.00000000e+00 
5.02374947e-01 -5.26902266e-02 0.00000000e+00 

        </DataArray>
      </Points>
      <Cells>
        <DataArray type="Int32" Name="connectivity" format="ascii">
0 1
1 2
2 3

        </DataArray>
        <DataArray type="Int32" Name="offsets" format="ascii">
2 4 6 
        </DataArray>
        <DataArray type="UInt8" Name="types" format="ascii">
3 3 3 
        </DataArray>
      </Cells>
      <PointData>
        <DataArray type="Float64" Name="rho">
          9.05466191e-01 9.06557284e-01 9.07705963e-01 9.08911451e-01 
        </DataArray>
        <DataArray type="Float64" Name="rhou">
          8.14508728e-04 7.90747138e-04 7.42782069e-04 6.84272951e-04 
        </DataArray>
        <DataArray type="Float64" Name="rhov">
          -3.15160701e-05 -2.53833244e-05 -8.20282056e-06 -4.77321763e-06 
        </DataArray>
        <DataArray type="Float64" Name="E">
          2.05815248e+05 2.06077675e+05 2.06353859e+05 2.06643581e+05 
        </DataArray>
      </PointData>
    </Piece>
    <Piece NumberOfPoints="4" NumberOfCells="3">
      <Points>
        <DataArray type="Float64" NumberOfComponents="3" format="ascii">
          4.39910263e-01 -5.62384278e-02 0.00000000e+00 
4.50324744e-01 -5.57143167e-02 0.00000000e+00 
4.60737765e-01 -5.51619194e-02 0.00000000e+00 
4.71149325e-01 -5.45825884e-02 0.00000000e+00 

        </DataArray>
      </Points>
      <Cells>
        <DataArray type="Int32" Name="connectivity" format="ascii">
0 1
1 2
2 3

        </DataArray>
        <DataArray type="Int32" Name="offsets" format="ascii">
2 4 6 
        </DataArray>
        <DataArray type="UInt8" Name="types" format="ascii">
3 3 3 
        </DataArray>
      </Cells>
      <PointData>
        <DataArray type="Float64" Name="rho">
          9.02620651e-01 9.03488621e-01 9.04440572e-01 9.05466267e-01 
        </DataArray>
        <DataArray type="Float64" Name="rhou">
          9.87814280e-04 9.08752963e-04 8.48832785e-04 8.20146116e-04 
        </DataArray>
        <DataArray type="Float64" Name="rhov">
          -2.40725317e-05 -1.48384549e-05 -2.15300155e-05 -2.90841620e-05 
        </DataArray>
        <DataArray type="Float64" Name="E">
          2.05129654e+05 2.05339074e+05 2.05568408e+05 2.05815265e+05 
        </DataArray>
      </PointData>
    </Piece>
    <Piece NumberOfPoints="4" NumberOfCells="3">
      <Points>
        <DataArray type="Float64" NumberOfComponents="3" format="ascii">
          4.08658355e-01 -5.76302819e-02 0.00000000e+00 
4.19077009e-01 -5.71971126e-02 0.00000000e+00 
4.29494321e-01 -5.67329265e-02 0.00000000e+00 
4.39910263e-01 -5.62384278e-02 0.00000000e+00 

        </DataArray>
      </Points>
      <Cells>
        <DataArray type="Int32" Name="connectivity" format="ascii">
0 1
1 2
2 3

        </DataArray>
        <DataArray type="Int32" Name="offsets" format="ascii">
2 4 6 
        </DataArray>
        <DataArray type="UInt8" Name="types" format="ascii">
3 3 3 
        </DataArray>
      </Cells>
      <PointData>
        <DataArray type="Float64" Name="rho">
          9.00575305e-01 9.01156186e-01 9.01841678e-01 9.02620416e-01 
        </DataArray>
        <DataArray type="Float64" Name="rhou">
          1.14811796e-03 1.07671641e-03 1.02361196e-03 9.82488266e-04 
        </DataArray>
        <DataArray type="Float64" Name="rhov">
          -3.32362804e-05 -4.55567370e-05 -4.45489775e-05 -2.40368192e-05 
        </DataArray>
        <DataArray type="Float64" Name="E">
          2.04633947e+05 2.04775253e+05 2.04941354e+05 2.05129600e+05 
        </DataArray>
      </PointData>
    </Piece>
    <Piece NumberOfPoints="4" NumberOfCells="3">
      <Points>
        <DataArray type="Float64" NumberOfComponents="3" format="ascii">
          3.77394795e-01 -5.87291755e-02 0.00000000e+00 
3.87817174e-01 -5.83979115e-02 0.00000000e+00 
3.98238391e-01 -5.80311492e-02 0.00000000e+00 
4.08658355e-01 -5.76302819e-02 0.00000000e+00 

        </DataArray>
      </Points>
      <Cells>
        <DataArray type="Int32" Name="connectivity" format="ascii">
0 1
1 2
2 3

        </DataArray>
        <DataArray type="Int32" Name="offsets" format="ascii">
2 4 6 
        </DataArray>
        <DataArray type="UInt8" Name="types" format="ascii">
3 3 3 
        </DataArray>
      </Cells>
      <PointData>
        <DataArray type="Float64" Name="rho">
          8.99583983e-01 8.99780517e-01 9.00111902e-01 9.00575518e-01 
        </DataArray>
        <DataArray type="Float64" Name="rhou">
          1.40279076e-03 1.32748338e-03 1.22391894e-03 1.11668965e-03 
        </DataArray>
        <DataArray type="Float64" Name="rhov">
          -7.84609306e-05 -4.98843750e-05 -2.14071837e-05 -2.83919350e-05 
        </DataArray>
        <DataArray type="Float64" Name="E">
          2.04387796e+05 2.04438141e+05 2.04520438e+05 2.04633996e+05 
        </DataArray>
      </PointData>
    </Piece>
    <Piece NumberOfPoints="4" NumberOfCells="3">
      <Points>
        <DataArray type="Float64" NumberOfComponents="3" format="ascii">
          3.46121490e-01 -5.95011823e-02 0.00000000e+00 
3.56546819e-01 -5.92821389e-02 0.00000000e+00 
3.66971314e-01 -5.90242445e-02 0.00000000e+00 
3.77394795e-01 -5.87291755e-02 0.00000000e+00 

        </DataArray>
      </Points>
      <Cells>
        <DataArray type="Int32" Name="connectivity" format="ascii">
0 1
1 2
2 3

        </DataArray>
        <DataArray type="Int32" Name="offsets" format="ascii">
2 4 6 
        </DataArray>
        <DataArray type="UInt8" Name="types" format="ascii">
3 3 3 
        </DataArray>
      </Cells>
      <PointData>
        <DataArray type="Float64" Name="rho">
          8.99928186e-01 8.99640688e-01 8.99531633e-01 8.99584075e-01 
        </DataArray>
        <DataArray type="Float64" Name="rhou">
          1.75123982e-03 1.60484835e-03 1.47398370e-03 1.40634104e-03 
        </DataArray>
        <DataArray type="Float64" Name="rhov">
          -1.15494037e-04 -7.25681029e-05 -6.45280152e-05 -7.38465373e-05 
        </DataArray>
        <DataArray type="Float64" Name="E">
          2.04457740e+05 2.04393578e+05 2.04371599e+05 2.04387816e+05 
        </DataArray>
      </PointData>
    </Piece>
    <Piece NumberOfPoints="4" NumberOfCells="3">
      <Points>
        <DataArray type="Float64" NumberOfComponents="3" format="ascii">
          3.14841360e-01 -5.99102043e-02 0.00000000e+00 
3.25268596e-01 -5.98174632e-02 0.00000000e+00 
3.35695356e-01 -5.96801341e-02 0.00000000e+00 
3.46121490e-01 -5.95011823e-02 0.00000000e+00 

        </DataArray>
      </Points>
      <Cells>
        <DataArray type="Int32" Name="connectivity" format="ascii">
0 1
1 2
2 3

        </DataArray>
        <DataArray type="Int32" Name="offsets" format="ascii">
2 4 6 
        </DataArray>
        <DataArray type="UInt8" Name="types" format="ascii">
3 3 3 
        </DataArray>
      </Cells>
      <PointData>
        <DataArray type="Float64" Name="rho">
          9.02004096e-01 9.01080403e-01 9.00397606e-01 8.99927893e-01 
        </DataArray>
        <DataArray type="Float64" Name="rhou">
          2.20680153e-03 1.96004273e-03 1.79314997e-03 1.71544064e-03 
        </DataArray>
        <DataArray type="Float64" Name="rhov">
          -5.45954486e-05 -3.02017296e-05 -6.18385521e-05 -1.14759785e-04 
        </DataArray>
        <DataArray type="Float64" Name="E">
          2.04937381e+05 2.04722730e+05 2.04565013e+05 2.04457673e+05 
        </DataArray>
      </PointData>
    </Piece>
    <Piece NumberOfPoints="4" NumberOfCells="3">
      <Points>
        <DataArray type="Float64" NumberOfComponents="3" format="ascii">
          2.83558637e-01 -5.98983802e-02 0.00000000e+00 
2.93986142e-01 -5.99516556e-02 0.00000000e+00 
3.04413795e-01 -5.99554181e-02 0.00000000e+00 
3.14841360e-01 -5.99102043e-02 0.00000000e+00 

        </DataArray>
      </Points>
      <Cells>
        <DataArray type="Int32" Name="connectivity" format="ascii">
0 1
1 2
2 3

        </DataArray>
        <DataArray type="Int32" Name="offsets" format="ascii">
2 4 6 
        </DataArray>
        <DataArray type="UInt8" Name="types" format="ascii">
3 3 3 
        </DataArray>
      </Cells>
      <PointData>
        <DataArray type="Float64" Name="rho">
          9.06319485e-01 9.04613993e-01 9.03181031e-01 9.02003379e-01 
        </DataArray>
        <DataArray type="Float64" Name="rhou">
          2.68875637e-03 2.52233604e-03 2.38340989e-03 2.19777817e-03 
        </DataArray>
        <DataArray type="Float64" Name="rhov">
          -1.15327121e-04 -1.81625632e-04 -1.44551685e-04 -4.79579727e-05 
        </DataArray>
        <DataArray type="Float64" Name="E">
          2.05947536e+05 2.05547412e+05 2.05212004e+05 2.04937217e+05 
        </DataArray>
      </PointData>
    </Piece>
    <Piece NumberOfPoints="4" NumberOfCells="3">
      <Points>
        <DataArray type="Float64" NumberOfComponents="3" format="ascii">
          2.52279758e-01 -5.94130717e-02 0.00000000e+00 
2.62705088e-01 -5.96327744e-02 0.00000000e+00 
2.73131490e-01 -5.97934239e-02 0.00000000e+00 
2.83558637e-01 -5.98983802e-02 0.00000000e+00 

        </DataArray>
      </Points>
      <Cells>
        <DataArray type="Int32" Name="connectivity" format="ascii">
0 1
1 2
2 3

        </DataArray>
        <DataArray type="Int32" Name="offsets" format="ascii">
2 4 6 
        </DataArray>
        <DataArray type="UInt8" Name="types" format="ascii">
3 3 3 
        </DataArray>
      </Cells>
      <PointData>
        <DataArray type="Float64" Name="rho">
          9.13489159e-01 9.10734166e-01 9.08347274e-01 9.06320410e-01 
        </DataArray>
        <DataArray type="Float64" Name="rhou">
          3.66749663e-03 3.36046283e-03 3.02278931e-03 2.67495104e-03 
        </DataArray>
        <DataArray type="Float64" Name="rhov">
          -2.68341713e-04 -1.74258860e-04 -8.52770117e-05 -9.60263183e-05 
        </DataArray>
        <DataArray type="Float64" Name="E">
          2.07634424e+05 2.06985427e+05 2.06423941e+05 2.05947750e+05 
        </DataArray>
      </PointData>
    </Piece>
    <Piece NumberOfPoints="4" NumberOfCells="3">
      <Points>
        <DataArray type="Float64" NumberOfComponents="3" format="ascii">
          2.21014455e-01 -5.83752058e-02 0.00000000e+00 
2.31433928e-01 -5.87876961e-02 0.00000000e+00 
2.41855890e-01 -5.91322705e-02 0.00000000e+00 
2.52279758e-01 -5.94130717e-02 0.00000000e+00 

        </DataArray>
      </Points>
      <Cells>
        <DataArray type="Int32" Name="connectivity" format="ascii">
0 1
1 2
2 3

        </DataArray>
        <DataArray type="Int32" Name="offsets" format="ascii">
2 4 6 
        </DataArray>
        <DataArray type="UInt8" Name="types" format="ascii">
3 3 3 
        </DataArray>
      </Cells>
      <PointData>
        <DataArray type="Float64" Name="rho">
          9.24293064e-01 9.20220585e-01 9.16635036e-01 9.13489341e-01 
        </DataArray>
        <DataArray type="Float64" Name="rhou">
          5.02752624e-03 4.43937156e-03 3.99080657e-03 3.70203878e-03 
        </DataArray>
        <DataArray type="Float64" Name="rhov">
          -3.79489801e-04 -2.73148542e-04 -2.39168207e-04 -2.51908235e-04 
        </DataArray>
        <DataArray type="Float64" Name="E">
          2.10185223e+05 2.09222907e+05 2.08376403e+05 2.07634462e+05 
        </DataArray>
      </PointData>
    </Piece>
    <Piece NumberOfPoints="4" NumberOfCells="3">
      <Points>
        <DataArray type="Float64" NumberOfComponents="3" format="ascii">
          1.89777538e-01 -5.66898957e-02 0.00000000e+00 
2.00185493e-01 -5.73302582e-02 0.00000000e+00 
2.10598081e-01 -5.78906052e-02 0.00000000e+00 
2.21014455e-01 -5.83752058e-02 0.00000000e+00 

        </DataArray>
      </Points>
      <Cells>
        <DataArray type="Int32" Name="connectivity" format="ascii">
0 1
1 2
2 3

        </DataArray>
        <DataArray type="Int32" Name="offsets" format="ascii">
2 4 6 
        </DataArray>
        <DataArray type="UInt8" Name="types" format="ascii">
3 3 3 
        </DataArray>
      </Cells>
      <PointData>
        <DataArray type="Float64" Name="rho">
          9.39817931e-01 9.34041035e-01 9.28885981e-01 9.24292301e-01 
        </DataArray>
        <DataArray type="Float64" Name="rhou">
          6.95832971e-03 6.15397385e-03 5.56584772e-03 5.09042450e-03 
        </DataArray>
        <DataArray type="Float64" Name="rhov">
          -6.68415210e-04 -5.95124939e-04 -4.92893511e-04 -3.66827481e-04 
        </DataArray>
        <DataArray type="Float64" Name="E">
          2.13860776e+05 2.12491950e+05 2.11271534e+05 2.10185047e+05 
        </DataArray>
      </PointData>
    </Piece>
    <Piece NumberOfPoints="4" NumberOfCells="3">
      <Points>
        <DataArray type="Float64" NumberOfComponents="3" format="ascii">
          1.58592433e-01 -5.42296544e-02 0.00000000e+00 
1.68979734e-01 -5.51457107e-02 0.00000000e+00 
1.79375216e-01 -5.59638515e-02 0.00000000e+00 
1.89777538e-01 -5.66898957e-02 0.00000000e+00 

        </DataArray>
      </Points>
      <Cells>
        <DataArray type="Int32" Name="connectivity" format="ascii">
0 1
1 2
2 3

        </DataArray>
        <DataArray type="Int32" Name="offsets" format="ascii">
2 4 6 
        </DataArray>
        <DataArray type="UInt8" Name="types" format="ascii">
3 3 3 
        </DataArray>
      </Cells>
      <PointData>
        <DataArray type="Float64" Name="rho">
          9.61631072e-01 9.53553210e-01 9.46299117e-01 9.39818350e-01 
        </DataArray>
        <DataArray type="Float64" Name="rhou">
          1.00285543e-02 8.95011109e-03 7.99674839e-03 7.02986471e-03 
        </DataArray>
        <DataArray type="Float64" Name="rhov">
          -1.43210100e-03 -1.23663597e-03 -9.01213901e-04 -6.27907322e-04 
        </DataArray>
        <DataArray type="Float64" Name="E">
          2.19038267e+05 2.17119244e+05 2.15397638e+05 2.13860877e+05 
        </DataArray>
      </PointData>
    </Piece>
    <Piece NumberOfPoints="4" NumberOfCells="3">
      <Points>
        <DataArray type="Float64" NumberOfComponents="3" format="ascii">
          1.27497971e-01 -5.08146733e-02 0.00000000e+00 
1.37849152e-01 -5.20747155e-02 0.00000000e+00 
1.48214847e-01 -5.32093942e-02 0.00000000e+00 
1.58592433e-01 -5.42296544e-02 0.00000000e+00 

        </DataArray>
      </Points>
      <Cells>
        <DataArray type="Int32" Name="connectivity" format="ascii">
0 1
1 2
2 3

        </DataArray>
        <DataArray type="Int32" Name="offsets" format="ascii">
2 4 6 
        </DataArray>
        <DataArray type="UInt8" Name="types" format="ascii">
3 3 3 
        </DataArray>
      </Cells>
      <PointData>
        <DataArray type="Float64" Name="rho">
          9.92161818e-01 9.80804266e-01 9.70648225e-01 9.61635134e-01 
        </DataArray>
        <DataArray type="Float64" Name="rhou">
          1.45726907e-02 1.33922535e-02 1.15819449e-02 1.00572197e-02 
        </DataArray>
        <DataArray type="Float64" Name="rhov">
          -2.31881687e-03 -2.06791866e-03 -1.44765599e-03 -1.36029230e-03 
        </DataArray>
        <DataArray type="Float64" Name="E">
          2.26304243e+05 2.23598731e+05 2.21182248e+05 2.19039200e+05 
        </DataArray>
      </PointData>
    </Piece>
    <Piece NumberOfPoints="4" NumberOfCells="3">
      <Points>
        <DataArray type="Float64" NumberOfComponents="3" format="ascii">
          9.65642184e-02 -4.61716652e-02 0.00000000e+00 
1.06852271e-01 -4.78802323e-02 0.00000000e+00 
1.17164567e-01 -4.94215861e-02 0.00000000e+00 
1.27497971e-01 -5.08146733e-02 0.00000000e+00 

        </DataArray>
      </Points>
      <Cells>
        <DataArray type="Int32" Name="connectivity" format="ascii">
0 1
1 2
2 3

        </DataArray>
        <DataArray type="Int32" Name="offsets" format="ascii">
2 4 6 
        </DataArray>
        <DataArray type="UInt8" Name="types" format="ascii">
3 3 3 
        </DataArray>
      </Cells>
      <PointData>
        <DataArray type="Float64" Name="rho">
          1.03552821e+00 1.01923493e+00 1.00480863e+00 9.92170204e-01 
        </DataArray>
        <DataArray type="Float64" Name="rhou">
          2.47646718e-02 1.81633457e-02 1.72535519e-02 1.29210577e-02 
        </DataArray>
        <DataArray type="Float64" Name="rhov">
          -9.39906396e-04 -7.58031713e-04 -1.59126725e-03 -1.63638073e-03 
        </DataArray>
        <DataArray type="Float64" Name="E">
          2.36660983e+05 2.32765058e+05 2.29320809e+05 2.26306266e+05 
        </DataArray>
      </PointData>
    </Piece>
  </UnstructuredGrid>
</VTKFile>
