<?xml version="1.0"?>
<VTKFile type="UnstructuredGrid" version="0.1" byte_order="LittleEndian">
  <UnstructuredGrid>
    <Piece NumberOfPoints="4" NumberOfCells="3">
      <Points>
        <DataArray type="Float64" NumberOfComponents="3" format="ascii">
          9.65642184e-02 -4.61716652e-02 0.00000000e+00 
9.26280916e-02 -4.54656407e-02 0.00000000e+00 
8.86965096e-02 -4.47326750e-02 0.00000000e+00 
8.47706869e-02 -4.39694971e-02 0.00000000e+00 

        </DataArray>
      </Points>
      <Cells>
        <DataArray type="Int32" Name="connectivity" format="ascii">
0 1
1 2
2 3

        </DataArray>
        <DataArray type="Int32" Name="offsets" format="ascii">
2 4 6 
        </DataArray>
        <DataArray type="UInt8" Name="types" format="ascii">
3 3 3 
        </DataArray>
      </Cells>
      <PointData>
        <DataArray type="Float64" Name="rho">
          1.03328059e+00 1.04018548e+00 1.04740498e+00 1.05507126e+00 
        </DataArray>
        <DataArray type="Float64" Name="rhou">
          2.82878499e-02 2.17889937e-02 2.44385486e-02 2.46118075e-02 
        </DataArray>
        <DataArray type="Float64" Name="rhov">
          -2.24825377e-03 -1.03680783e-03 -6.28786213e-04 -9.44926822e-04 
        </DataArray>
        <DataArray type="Float64" Name="E">
          2.36008450e+05 2.37660257e+05 2.39388950e+05 2.41224944e+05 
        </DataArray>
      </PointData>
    </Piece>
    <Piece NumberOfPoints="4" NumberOfCells="3">
      <Points>
        <DataArray type="Float64" NumberOfComponents="3" format="ascii">
          8.47706869e-02 -4.39694971e-02 0.00000000e+00 
8.08513016e-02 -4.31745499e-02 0.00000000e+00 
7.69388378e-02 -4.23462167e-02 0.00000000e+00 
7.30340332e-02 -4.14824970e-02 0.00000000e+00 

        </DataArray>
      </Points>
      <Cells>
        <DataArray type="Int32" Name="connectivity" format="ascii">
0 1
1 2
2 3

        </DataArray>
        <DataArray type="Int32" Name="offsets" format="ascii">
2 4 6 
        </DataArray>
        <DataArray type="UInt8" Name="types" format="ascii">
3 3 3 
        </DataArray>
      </Cells>
      <PointData>
        <DataArray type="Float64" Name="rho">
          1.05507006e+00 1.06316441e+00 1.07172230e+00 1.08081351e+00 
        </DataArray>
        <DataArray type="Float64" Name="rhou">
          2.47044007e-02 2.38778136e-02 2.24652309e-02 2.08954273e-02 
        </DataArray>
        <DataArray type="Float64" Name="rhov">
          -7.50369923e-04 -5.42863343e-04 3.63542639e-04 1.55730838e-03 
        </DataArray>
        <DataArray type="Float64" Name="E">
          2.41224679e+05 2.43165139e+05 2.45217954e+05 2.47399885e+05 
        </DataArray>
      </PointData>
    </Piece>
    <Piece NumberOfPoints="4" NumberOfCells="3">
      <Points>
        <DataArray type="Float64" NumberOfComponents="3" format="ascii">
          7.30340332e-02 -4.14824970e-02 0.00000000e+00 
6.91377968e-02 -4.05809283e-02 0.00000000e+00 
6.52511865e-02 -3.96387354e-02 0.00000000e+00 
6.13753870e-02 -3.86530459e-02 0.00000000e+00 

        </DataArray>
      </Points>
      <Cells>
        <DataArray type="Int32" Name="connectivity" format="ascii">
0 1
1 2
2 3

        </DataArray>
        <DataArray type="Int32" Name="offsets" format="ascii">
2 4 6 
        </DataArray>
        <DataArray type="UInt8" Name="types" format="ascii">
3 3 3 
        </DataArray>
      </Cells>
      <PointData>
        <DataArray type="Float64" Name="rho">
          1.08081411e+00 1.09052225e+00 1.10087905e+00 1.11194407e+00 
        </DataArray>
        <DataArray type="Float64" Name="rhou">
          2.10129605e-02 1.86594971e-02 1.45556821e-02 9.05013507e-03 
        </DataArray>
        <DataArray type="Float64" Name="rhov">
          1.39180559e-03 2.13687176e-03 4.21883352e-03 7.40894345e-03 
        </DataArray>
        <DataArray type="Float64" Name="E">
          2.47400046e+05 2.49732224e+05 2.52221856e+05 2.54883951e+05 
        </DataArray>
      </PointData>
    </Piece>
    <Piece NumberOfPoints="4" NumberOfCells="3">
      <Points>
        <DataArray type="Float64" NumberOfComponents="3" format="ascii">
          6.13753870e-02 -3.86530459e-02 0.00000000e+00 
5.75117208e-02 -3.76208089e-02 0.00000000e+00 
5.36618084e-02 -3.65384258e-02 0.00000000e+00 
4.98276278e-02 -3.54015976e-02 0.00000000e+00 

        </DataArray>
      </Points>
      <Cells>
        <DataArray type="Int32" Name="connectivity" format="ascii">
0 1
1 2
2 3

        </DataArray>
        <DataArray type="Int32" Name="offsets" format="ascii">
2 4 6 
        </DataArray>
        <DataArray type="UInt8" Name="types" format="ascii">
3 3 3 
        </DataArray>
      </Cells>
      <PointData>
        <DataArray type="Float64" Name="rho">
          1.11194434e+00 1.12380037e+00 1.13653221e+00 1.15027126e+00 
        </DataArray>
        <DataArray type="Float64" Name="rhou">
          8.99360329e-03 1.93192953e-03 -7.28685861e-03 -1.88123472e-02 
        </DataArray>
        <DataArray type="Float64" Name="rhov">
          7.18088601e-03 1.18831731e-02 1.99593994e-02 3.14282135e-02 
        </DataArray>
        <DataArray type="Float64" Name="E">
          2.54884016e+05 2.57740338e+05 2.60810288e+05 2.64126388e+05 
        </DataArray>
      </PointData>
    </Piece>
    <Piece NumberOfPoints="4" NumberOfCells="3">
      <Points>
        <DataArray type="Float64" NumberOfComponents="3" format="ascii">
          4.98276278e-02 -3.54015976e-02 0.00000000e+00 
4.60115410e-02 -3.42054628e-02 0.00000000e+00 
4.22164090e-02 -3.29444520e-02 0.00000000e+00 
3.84457745e-02 -3.16120051e-02 0.00000000e+00 

        </DataArray>
      </Points>
      <Cells>
        <DataArray type="Int32" Name="connectivity" format="ascii">
0 1
1 2
2 3

        </DataArray>
        <DataArray type="Int32" Name="offsets" format="ascii">
2 4 6 
        </DataArray>
        <DataArray type="UInt8" Name="types" format="ascii">
3 3 3 
        </DataArray>
      </Cells>
      <PointData>
        <DataArray type="Float64" Name="rho">
          1.15027118e+00 1.16511733e+00 1.18118275e+00 1.19865889e+00 
        </DataArray>
        <DataArray type="Float64" Name="rhou">
          -1.92673829e-02 -3.34105599e-02 -5.24060433e-02 -7.51303471e-02 
        </DataArray>
        <DataArray type="Float64" Name="rhov">
          3.12136430e-02 4.78860775e-02 7.55377334e-02 1.15995001e-01 
        </DataArray>
        <DataArray type="Float64" Name="E">
          2.64126335e+05 2.67716140e+05 2.71605548e+05 2.75842818e+05 
        </DataArray>
      </PointData>
    </Piece>
    <Piece NumberOfPoints="4" NumberOfCells="3">
      <Points>
        <DataArray type="Float64" NumberOfComponents="3" format="ascii">
          3.84457745e-02 -3.16120051e-02 0.00000000e+00 
3.47041376e-02 -3.02002355e-02 0.00000000e+00 
3.09973080e-02 -2.86995135e-02 0.00000000e+00 
2.73328498e-02 -2.70981900e-02 0.00000000e+00 

        </DataArray>
      </Points>
      <Cells>
        <DataArray type="Int32" Name="connectivity" format="ascii">
0 1
1 2
2 3

        </DataArray>
        <DataArray type="Int32" Name="offsets" format="ascii">
2 4 6 
        </DataArray>
        <DataArray type="UInt8" Name="types" format="ascii">
3 3 3 
        </DataArray>
      </Cells>
      <PointData>
        <DataArray type="Float64" Name="rho">
          1.19865911e+00 1.21773541e+00 1.23860521e+00 1.26163994e+00 
        </DataArray>
        <DataArray type="Float64" Name="rhou">
          -7.60825267e-02 -1.00239003e-01 -1.28885921e-01 -1.54301428e-01 
        </DataArray>
        <DataArray type="Float64" Name="rhov">
          1.15914202e-01 1.71460403e-01 2.57382715e-01 3.77680466e-01 
        </DataArray>
        <DataArray type="Float64" Name="E">
          2.75842736e+05 2.80479749e+05 2.85561264e+05 2.91181406e+05 
        </DataArray>
      </PointData>
    </Piece>
    <Piece NumberOfPoints="4" NumberOfCells="3">
      <Points>
        <DataArray type="Float64" NumberOfComponents="3" format="ascii">
          2.73328498e-02 -2.70981900e-02 0.00000000e+00 
2.37206947e-02 -2.53822580e-02 0.00000000e+00 
2.01744195e-02 -2.35341713e-02 0.00000000e+00 
1.67132635e-02 -2.15314496e-02 0.00000000e+00 

        </DataArray>
      </Points>
      <Cells>
        <DataArray type="Int32" Name="connectivity" format="ascii">
0 1
1 2
2 3

        </DataArray>
        <DataArray type="Int32" Name="offsets" format="ascii">
2 4 6 
        </DataArray>
        <DataArray type="UInt8" Name="types" format="ascii">
3 3 3 
        </DataArray>
      </Cells>
      <PointData>
        <DataArray type="Float64" Name="rho">
          1.26164481e+00 1.28718446e+00 1.31568478e+00 1.34849106e+00 
        </DataArray>
        <DataArray type="Float64" Name="rhou">
          -1.54685171e-01 -1.68758402e-01 -1.53096107e-01 -5.71248642e-02 
        </DataArray>
        <DataArray type="Float64" Name="rhov">
          3.78356237e-01 5.30214272e-01 7.40962173e-01 9.59428263e-01 
        </DataArray>
        <DataArray type="Float64" Name="E">
          2.91182307e+05 2.97435725e+05 3.04426718e+05 3.12483889e+05 
        </DataArray>
      </PointData>
    </Piece>
    <Piece NumberOfPoints="4" NumberOfCells="3">
      <Points>
        <DataArray type="Float64" NumberOfComponents="3" format="ascii">
          1.67132635e-02 -2.15314496e-02 0.00000000e+00 
1.33649679e-02 -1.93456318e-02 0.00000000e+00 
1.01706637e-02 -1.69409402e-02 0.00000000e+00 
7.19343964e-03 -1.42731192e-02 0.00000000e+00 

        </DataArray>
      </Points>
      <Cells>
        <DataArray type="Int32" Name="connectivity" format="ascii">
0 1
1 2
2 3

        </DataArray>
        <DataArray type="Int32" Name="offsets" format="ascii">
2 4 6 
        </DataArray>
        <DataArray type="UInt8" Name="types" format="ascii">
3 3 3 
        </DataArray>
      </Cells>
      <PointData>
        <DataArray type="Float64" Name="rho">
          1.34838519e+00 1.38823438e+00 1.43545871e+00 1.50055484e+00 
        </DataArray>
        <DataArray type="Float64" Name="rhou">
          -3.45493267e-02 1.13882060e-01 4.55187522e-01 8.75653166e-01 
        </DataArray>
        <DataArray type="Float64" Name="rhov">
          9.21164212e-01 1.12428240e+00 1.06957030e+00 5.19532989e-01 
        </DataArray>
        <DataArray type="Float64" Name="E">
          3.12459681e+05 3.22249565e+05 3.33844079e+05 3.49711210e+05 
        </DataArray>
      </PointData>
    </Piece>
    <Piece NumberOfPoints="4" NumberOfCells="3">
      <Points>
        <DataArray type="Float64" NumberOfComponents="3" format="ascii">
          7.19343964e-03 -1.42731192e-02 0.00000000e+00 
4.53082798e-03 -1.12927537e-02 0.00000000e+00 
2.33371323e-03 -7.95678515e-03 0.00000000e+00 
8.10639584e-04 -4.26717056e-03 0.00000000e+00 

        </DataArray>
      </Points>
      <Cells>
        <DataArray type="Int32" Name="connectivity" format="ascii">
0 1
1 2
2 3

        </DataArray>
        <DataArray type="Int32" Name="offsets" format="ascii">
2 4 6 
        </DataArray>
        <DataArray type="UInt8" Name="types" format="ascii">
3 3 3 
        </DataArray>
      </Cells>
      <PointData>
        <DataArray type="Float64" Name="rho">
          1.50107445e+00 1.57551954e+00 1.66465091e+00 1.73343087e+00 
        </DataArray>
        <DataArray type="Float64" Name="rhou">
          8.00640343e-01 9.30697043e-01 2.58910804e-01 -1.27612951e+00 
        </DataArray>
        <DataArray type="Float64" Name="rhov">
          6.18263230e-01 -5.11046273e-01 -1.73018466e+00 -1.81918742e+00 
        </DataArray>
        <DataArray type="Float64" Name="E">
          3.49838583e+05 3.68020364e+05 3.89666751e+05 4.06393533e+05 
        </DataArray>
      </PointData>
    </Piece>
    <Piece NumberOfPoints="4" NumberOfCells="3">
      <Points>
        <DataArray type="Float64" NumberOfComponents="3" format="ascii">
          8.10639584e-04 -4.26717056e-03 0.00000000e+00 
1.91366620e-04 -3.27450951e-04 0.00000000e+00 
6.40850572e-04 3.63462302e-03 0.00000000e+00 
2.03182548e-03 7.37539819e-03 0.00000000e+00 

        </DataArray>
      </Points>
      <Cells>
        <DataArray type="Int32" Name="connectivity" format="ascii">
0 1
1 2
2 3

        </DataArray>
        <DataArray type="Int32" Name="offsets" format="ascii">
2 4 6 
        </DataArray>
        <DataArray type="UInt8" Name="types" format="ascii">
3 3 3 
        </DataArray>
      </Cells>
      <PointData>
        <DataArray type="Float64" Name="rho">
          1.73185408e+00 1.75688350e+00 1.70655166e+00 1.61414604e+00 
        </DataArray>
        <DataArray type="Float64" Name="rhou">
          -1.15042654e+00 -1.88095359e+00 -8.36836530e-01 7.51801977e-01 
        </DataArray>
        <DataArray type="Float64" Name="rhov">
          -1.97719867e+00 3.63332382e-01 1.88353363e+00 1.51713118e+00 
        </DataArray>
        <DataArray type="Float64" Name="E">
          4.06011574e+05 4.12007461e+05 3.99698403e+05 3.77120365e+05 
        </DataArray>
      </PointData>
    </Piece>
    <Piece NumberOfPoints="4" NumberOfCells="3">
      <Points>
        <DataArray type="Float64" NumberOfComponents="3" format="ascii">
          2.03182548e-03 7.37539819e-03 0.00000000e+00 
4.13410179e-03 1.07714310e-02 0.00000000e+00 
6.73249783e-03 1.38076087e-02 0.00000000e+00 
9.66598373e-03 1.65232457e-02 0.00000000e+00 

        </DataArray>
      </Points>
      <Cells>
        <DataArray type="Int32" Name="connectivity" format="ascii">
0 1
1 2
2 3

        </DataArray>
        <DataArray type="Int32" Name="offsets" format="ascii">
2 4 6 
        </DataArray>
        <DataArray type="UInt8" Name="types" format="ascii">
3 3 3 
        </DataArray>
      </Cells>
      <PointData>
        <DataArray type="Float64" Name="rho">
          1.61451014e+00 1.50742606e+00 1.41820762e+00 1.35126865e+00 
        </DataArray>
        <DataArray type="Float64" Name="rhou">
          7.24018535e-01 1.15586123e+00 8.41057581e-01 3.76157307e-01 
        </DataArray>
        <DataArray type="Float64" Name="rhov">
          1.75184786e+00 6.35232150e-02 -1.07484334e+00 -1.40034935e+00 
        </DataArray>
        <DataArray type="Float64" Name="E">
          3.77211994e+05 3.51204620e+05 3.29499290e+05 3.13133019e+05 
        </DataArray>
      </PointData>
    </Piece>
    <Piece NumberOfPoints="4" NumberOfCells="3">
      <Points>
        <DataArray type="Float64" NumberOfComponents="3" format="ascii">
          9.66598373e-03 1.65232457e-02 0.00000000e+00 
1.28298048e-02 1.89677756e-02 0.00000000e+00 
1.61561389e-02 2.11867876e-02 0.00000000e+00 
1.96009967e-02 2.32173651e-02 0.00000000e+00 

        </DataArray>
      </Points>
      <Cells>
        <DataArray type="Int32" Name="connectivity" format="ascii">
0 1
1 2
2 3

        </DataArray>
        <DataArray type="Int32" Name="offsets" format="ascii">
2 4 6 
        </DataArray>
        <DataArray type="UInt8" Name="types" format="ascii">
3 3 3 
        </DataArray>
      </Cells>
      <PointData>
        <DataArray type="Float64" Name="rho">
          1.35106310e+00 1.29861144e+00 1.25965241e+00 1.22535945e+00 
        </DataArray>
        <DataArray type="Float64" Name="rhou">
          3.85757210e-01 -1.62257903e-02 -1.98103685e-01 -2.18829435e-01 
        </DataArray>
        <DataArray type="Float64" Name="rhov">
          -1.42492205e+00 -1.32052674e+00 -9.90527120e-01 -6.65126400e-01 
        </DataArray>
        <DataArray type="Float64" Name="E">
          3.13080771e+05 3.00257371e+05 2.90682989e+05 2.82281345e+05 
        </DataArray>
      </PointData>
    </Piece>
    <Piece NumberOfPoints="4" NumberOfCells="3">
      <Points>
        <DataArray type="Float64" NumberOfComponents="3" format="ascii">
          1.96009967e-02 2.32173651e-02 0.00000000e+00 
2.31348258e-02 2.50891000e-02 0.00000000e+00 
2.67372411e-02 2.68253610e-02 0.00000000e+00 
3.03938854e-02 2.84444261e-02 0.00000000e+00 

        </DataArray>
      </Points>
      <Cells>
        <DataArray type="Int32" Name="connectivity" format="ascii">
0 1
1 2
2 3

        </DataArray>
        <DataArray type="Int32" Name="offsets" format="ascii">
2 4 6 
        </DataArray>
        <DataArray type="UInt8" Name="types" format="ascii">
3 3 3 
        </DataArray>
      </Cells>
      <PointData>
        <DataArray type="Float64" Name="rho">
          1.22542324e+00 1.19631833e+00 1.17029028e+00 1.14672066e+00 
        </DataArray>
        <DataArray type="Float64" Name="rhou">
          -2.31963592e-01 -2.18614760e-01 -1.73473799e-01 -1.31285605e-01 
        </DataArray>
        <DataArray type="Float64" Name="rhov">
          -6.83386296e-01 -4.32290792e-01 -2.45627445e-01 -1.32820176e-01 
        </DataArray>
        <DataArray type="Float64" Name="E">
          2.82296279e+05 2.75185132e+05 2.68848644e+05 2.63127668e+05 
        </DataArray>
      </PointData>
    </Piece>
    <Piece NumberOfPoints="4" NumberOfCells="3">
      <Points>
        <DataArray type="Float64" NumberOfComponents="3" format="ascii">
          3.03938854e-02 2.84444261e-02 0.00000000e+00 
3.40943485e-02 2.99607720e-02 0.00000000e+00 
3.78307216e-02 3.13864015e-02 0.00000000e+00 
4.15969416e-02 3.27312648e-02 0.00000000e+00 

        </DataArray>
      </Points>
      <Cells>
        <DataArray type="Int32" Name="connectivity" format="ascii">
0 1
1 2
2 3

        </DataArray>
        <DataArray type="Int32" Name="offsets" format="ascii">
2 4 6 
        </DataArray>
        <DataArray type="UInt8" Name="types" format="ascii">
3 3 3 
        </DataArray>
      </Cells>
      <PointData>
        <DataArray type="Float64" Name="rho">
          1.14671892e+00 1.12539360e+00 1.10602489e+00 1.08836945e+00 
        </DataArray>
        <DataArray type="Float64" Name="rhou">
          -1.29492153e-01 -8.93641485e-02 -5.65773960e-02 -3.35995809e-02 
        </DataArray>
        <DataArray type="Float64" Name="rhov">
          -1.31368118e-01 -5.51201000e-02 -7.95111590e-03 1.75124627e-02 
        </DataArray>
        <DataArray type="Float64" Name="E">
          2.63127515e+05 2.57969928e+05 2.53296812e+05 2.49044837e+05 
        </DataArray>
      </PointData>
    </Piece>
    <Piece NumberOfPoints="4" NumberOfCells="3">
      <Points>
        <DataArray type="Float64" NumberOfComponents="3" format="ascii">
          4.15969416e-02 3.27312648e-02 0.00000000e+00 
4.53883260e-02 3.40034962e-02 0.00000000e+00 
4.92011942e-02 3.52098532e-02 0.00000000e+00 
5.30325845e-02 3.63560505e-02 0.00000000e+00 

        </DataArray>
      </Points>
      <Cells>
        <DataArray type="Int32" Name="connectivity" format="ascii">
0 1
1 2
2 3

        </DataArray>
        <DataArray type="Int32" Name="offsets" format="ascii">
2 4 6 
        </DataArray>
        <DataArray type="UInt8" Name="types" format="ascii">
3 3 3 
        </DataArray>
      </Cells>
      <PointData>
        <DataArray type="Float64" Name="rho">
          1.08837002e+00 1.07223833e+00 1.05744253e+00 1.04382379e+00 
        </DataArray>
        <DataArray type="Float64" Name="rhou">
          -3.24601929e-02 -1.30034920e-02 1.45470593e-03 1.08583358e-02 
        </DataArray>
        <DataArray type="Float64" Name="rhov">
          1.74178997e-02 3.11672997e-02 3.78757388e-02 3.90714801e-02 
        </DataArray>
        <DataArray type="Float64" Name="E">
          2.49045048e+05 2.45168548e+05 2.41618570e+05 2.38355124e+05 
        </DataArray>
      </PointData>
    </Piece>
    <Piece NumberOfPoints="4" NumberOfCells="3">
      <Points>
        <DataArray type="Float64" NumberOfComponents="3" format="ascii">
          5.30325845e-02 3.63560505e-02 0.00000000e+00 
5.68800643e-02 3.74470428e-02 0.00000000e+00 
6.07415959e-02 3.84872220e-02 0.00000000e+00 
6.46155030e-02 3.94803248e-02 0.00000000e+00 

        </DataArray>
      </Points>
      <Cells>
        <DataArray type="Int32" Name="connectivity" format="ascii">
0 1
1 2
2 3

        </DataArray>
        <DataArray type="Int32" Name="offsets" format="ascii">
2 4 6 
        </DataArray>
        <DataArray type="UInt8" Name="types" format="ascii">
3 3 3 
        </DataArray>
      </Cells>
      <PointData>
        <DataArray type="Float64" Name="rho">
          1.04382449e+00 1.03129428e+00 1.01972070e+00 1.00896302e+00 
        </DataArray>
        <DataArray type="Float64" Name="rhou">
          1.11760979e-02 1.81922277e-02 2.37512544e-02 2.76028073e-02 
        </DataArray>
        <DataArray type="Float64" Name="rhov">
          3.87448157e-02 3.71105371e-02 3.50808441e-02 3.18738291e-02 
        </DataArray>
        <DataArray type="Float64" Name="E">
          2.38355283e+05 2.35356877e+05 2.32590178e+05 2.30021030e+05 
        </DataArray>
      </PointData>
    </Piece>
    <Piece NumberOfPoints="4" NumberOfCells="3">
      <Points>
        <DataArray type="Float64" NumberOfComponents="3" format="ascii">
          6.46155030e-02 3.94803248e-02 0.00000000e+00 
6.85004294e-02 4.04294394e-02 0.00000000e+00 
7.23951608e-02 4.13374715e-02 0.00000000e+00 
7.62986317e-02 4.22072113e-02 0.00000000e+00 

        </DataArray>
      </Points>
      <Cells>
        <DataArray type="Int32" Name="connectivity" format="ascii">
0 1
1 2
2 3

        </DataArray>
        <DataArray type="Int32" Name="offsets" format="ascii">
2 4 6 
        </DataArray>
        <DataArray type="UInt8" Name="types" format="ascii">
3 3 3 
        </DataArray>
      </Cells>
      <PointData>
        <DataArray type="Float64" Name="rho">
          1.00896373e+00 9.98980351e-01 9.89682035e-01 9.81013194e-01 
        </DataArray>
        <DataArray type="Float64" Name="rhou">
          2.74228256e-02 2.93838515e-02 3.04962130e-02 3.06023191e-02 
        </DataArray>
        <DataArray type="Float64" Name="rhov">
          3.15752109e-02 2.76836527e-02 2.43186244e-02 2.10197671e-02 
        </DataArray>
        <DataArray type="Float64" Name="E">
          2.30021176e+05 2.27639523e+05 2.25423104e+05 2.23357984e+05 
        </DataArray>
      </PointData>
    </Piece>
    <Piece NumberOfPoints="4" NumberOfCells="3">
      <Points>
        <DataArray type="Float64" NumberOfComponents="3" format="ascii">
          7.62986317e-02 4.22072113e-02 0.00000000e+00 
8.02098960e-02 4.30411920e-02 0.00000000e+00 
8.41281936e-02 4.38414887e-02 0.00000000e+00 
8.80528912e-02 4.46097627e-02 0.00000000e+00 

        </DataArray>
      </Points>
      <Cells>
        <DataArray type="Int32" Name="connectivity" format="ascii">
0 1
1 2
2 3

        </DataArray>
        <DataArray type="Int32" Name="offsets" format="ascii">
2 4 6 
        </DataArray>
        <DataArray type="UInt8" Name="types" format="ascii">
3 3 3 
        </DataArray>
      </Cells>
      <PointData>
        <DataArray type="Float64" Name="rho">
          9.81012254e-01 9.72926524e-01 9.65329284e-01 9.58174670e-01 
        </DataArray>
        <DataArray type="Float64" Name="rhou">
          3.04557124e-02 3.04906960e-02 3.02265064e-02 2.91708621e-02 
        </DataArray>
        <DataArray type="Float64" Name="rhov">
          2.08564575e-02 1.83026406e-02 1.57985486e-02 1.31215961e-02 
        </DataArray>
        <DataArray type="Float64" Name="E">
          2.23357748e+05 2.21433005e+05 2.19625790e+05 2.17924985e+05 
        </DataArray>
      </PointData>
    </Piece>
    <Piece NumberOfPoints="4" NumberOfCells="3">
      <Points>
        <DataArray type="Float64" NumberOfComponents="3" format="ascii">
          8.80528912e-02 4.46097627e-02 0.00000000e+00 
9.19835642e-02 4.53475714e-02 0.00000000e+00 
9.59195644e-02 4.60564308e-02 0.00000000e+00 
9.98597518e-02 4.67394181e-02 0.00000000e+00 

        </DataArray>
      </Points>
      <Cells>
        <DataArray type="Int32" Name="connectivity" format="ascii">
0 1
1 2
2 3

        </DataArray>
        <DataArray type="Int32" Name="offsets" format="ascii">
2 4 6 
        </DataArray>
        <DataArray type="UInt8" Name="types" format="ascii">
3 3 3 
        </DataArray>
      </Cells>
      <PointData>
        <DataArray type="Float64" Name="rho">
          9.58175171e-01 9.51453215e-01 9.45151176e-01 9.39169588e-01 
        </DataArray>
        <DataArray type="Float64" Name="rhou">
          2.89769407e-02 2.75622455e-02 2.40946906e-02 2.86201942e-02 
        </DataArray>
        <DataArray type="Float64" Name="rhov">
          1.32845750e-02 1.07113939e-02 9.13094581e-03 8.63446556e-03 
        </DataArray>
        <DataArray type="Float64" Name="E">
          2.17925101e+05 2.16328341e+05 2.14831739e+05 2.13412246e+05 
        </DataArray>
      </PointData>
    </Piece>
    <Piece NumberOfPoints="4" NumberOfCells="3">
      <Points>
        <DataArray type="Float64" NumberOfComponents="3" format="ascii">
          9.98597518e-02 4.67394181e-02 0.00000000e+00 
1.10118888e-01 4.83862534e-02 0.00000000e+00 
1.20400399e-01 4.98730615e-02 0.00000000e+00 
1.30701363e-01 5.12186773e-02 0.00000000e+00 

        </DataArray>
      </Points>
      <Cells>
        <DataArray type="Int32" Name="connectivity" format="ascii">
0 1
1 2
2 3

        </DataArray>
        <DataArray type="Int32" Name="offsets" format="ascii">
2 4 6 
        </DataArray>
        <DataArray type="UInt8" Name="types" format="ascii">
3 3 3 
        </DataArray>
      </Cells>
      <PointData>
        <DataArray type="Float64" Name="rho">
          9.39096891e-01 9.25142904e-01 9.13101380e-01 9.02745815e-01 
        </DataArray>
        <DataArray type="Float64" Name="rhou">
          2.63497330e-02 1.81791893e-02 1.60540793e-02 1.25904185e-02 
        </DataArray>
        <DataArray type="Float64" Name="rhov">
          7.39825478e-03 4.17262591e-03 3.66623647e-03 2.99474454e-03 
        </DataArray>
        <DataArray type="Float64" Name="E">
          2.13395819e+05 2.10088189e+05 2.07237157e+05 2.04787724e+05 
        </DataArray>
      </PointData>
    </Piece>
    <Piece NumberOfPoints="4" NumberOfCells="3">
      <Points>
        <DataArray type="Float64" NumberOfComponents="3" format="ascii">
          1.30701363e-01 5.12186773e-02 0.00000000e+00 
1.41019106e-01 5.24347536e-02 0.00000000e+00 
1.51350453e-01 5.35292812e-02 0.00000000e+00 
1.61692888e-01 5.45137413e-02 0.00000000e+00 

        </DataArray>
      </Points>
      <Cells>
        <DataArray type="Int32" Name="connectivity" format="ascii">
0 1
1 2
2 3

        </DataArray>
        <DataArray type="Int32" Name="offsets" format="ascii">
2 4 6 
        </DataArray>
        <DataArray type="UInt8" Name="types" format="ascii">
3 3 3 
        </DataArray>
      </Cells>
      <PointData>
        <DataArray type="Float64" Name="rho">
          9.02742320e-01 8.93646136e-01 8.85784945e-01 8.79050576e-01 
        </DataArray>
        <DataArray type="Float64" Name="rhou">
          1.39730541e-02 1.20767247e-02 1.00013007e-02 8.73515738e-03 
        </DataArray>
        <DataArray type="Float64" Name="rhov">
          3.49445976e-03 2.56664457e-03 1.78728092e-03 1.60971253e-03 
        </DataArray>
        <DataArray type="Float64" Name="E">
          2.04786885e+05 2.02638516e+05 2.00784033e+05 1.99196846e+05 
        </DataArray>
      </PointData>
    </Piece>
    <Piece NumberOfPoints="4" NumberOfCells="3">
      <Points>
        <DataArray type="Float64" NumberOfComponents="3" format="ascii">
          1.61692888e-01 5.45137413e-02 0.00000000e+00 
1.72044471e-01 5.53969070e-02 0.00000000e+00 
1.82403773e-01 5.61845005e-02 0.00000000e+00 
1.92769483e-01 5.68825118e-02 0.00000000e+00 

        </DataArray>
      </Points>
      <Cells>
        <DataArray type="Int32" Name="connectivity" format="ascii">
0 1
1 2
2 3

        </DataArray>
        <DataArray type="Int32" Name="offsets" format="ascii">
2 4 6 
        </DataArray>
        <DataArray type="UInt8" Name="types" format="ascii">
3 3 3 
        </DataArray>
      </Cells>
      <PointData>
        <DataArray type="Float64" Name="rho">
          8.79048169e-01 8.73245864e-01 8.68285309e-01 8.64114226e-01 
        </DataArray>
        <DataArray type="Float64" Name="rhou">
          8.77182274e-03 7.63936355e-03 6.60329828e-03 5.69901042e-03 
        </DataArray>
        <DataArray type="Float64" Name="rhov">
          1.66133239e-03 1.29470308e-03 9.14140146e-04 6.83522562e-04 
        </DataArray>
        <DataArray type="Float64" Name="E">
          1.99196306e+05 1.97830503e+05 1.96664616e+05 1.95685779e+05 
        </DataArray>
      </PointData>
    </Piece>
    <Piece NumberOfPoints="4" NumberOfCells="3">
      <Points>
        <DataArray type="Float64" NumberOfComponents="3" format="ascii">
          1.92769483e-01 5.68825118e-02 0.00000000e+00 
2.03140482e-01 5.74972220e-02 0.00000000e+00 
2.13515818e-01 5.80338500e-02 0.00000000e+00 
2.23894730e-01 5.84962890e-02 0.00000000e+00 

        </DataArray>
      </Points>
      <Cells>
        <DataArray type="Int32" Name="connectivity" format="ascii">
0 1
1 2
2 3

        </DataArray>
        <DataArray type="Int32" Name="offsets" format="ascii">
2 4 6 
        </DataArray>
        <DataArray type="UInt8" Name="types" format="ascii">
3 3 3 
        </DataArray>
      </Cells>
      <PointData>
        <DataArray type="Float64" Name="rho">
          8.64113536e-01 8.60652603e-01 8.57818256e-01 8.55552657e-01 
        </DataArray>
        <DataArray type="Float64" Name="rhou">
          5.73571650e-03 5.01234846e-03 4.45430258e-03 3.99238389e-03 
        </DataArray>
        <DataArray type="Float64" Name="rhov">
          7.24920288e-04 6.33893237e-04 5.16892561e-04 3.92740977e-04 
        </DataArray>
        <DataArray type="Float64" Name="E">
          1.95685620e+05 1.94874818e+05 1.94212390e+05 1.93684571e+05 
        </DataArray>
      </PointData>
    </Piece>
    <Piece NumberOfPoints="4" NumberOfCells="3">
      <Points>
        <DataArray type="Float64" NumberOfComponents="3" format="ascii">
          2.23894730e-01 5.84962890e-02 0.00000000e+00 
2.34276548e-01 5.88882305e-02 0.00000000e+00 
2.44660646e-01 5.92139624e-02 0.00000000e+00 
2.55046517e-01 5.94772622e-02 0.00000000e+00 

        </DataArray>
      </Points>
      <Cells>
        <DataArray type="Int32" Name="connectivity" format="ascii">
0 1
1 2
2 3

        </DataArray>
        <DataArray type="Int32" Name="offsets" format="ascii">
2 4 6 
        </DataArray>
        <DataArray type="UInt8" Name="types" format="ascii">
3 3 3 
        </DataArray>
      </Cells>
      <PointData>
        <DataArray type="Float64" Name="rho">
          8.55553229e-01 8.53814616e-01 8.52558989e-01 8.51731435e-01 
        </DataArray>
        <DataArray type="Float64" Name="rhou">
          4.00000694e-03 3.47684683e-03 3.09720065e-03 2.86665107e-03 
        </DataArray>
        <DataArray type="Float64" Name="rhov">
          4.07097369e-04 3.28265368e-04 3.10345293e-04 3.08339865e-04 
        </DataArray>
        <DataArray type="Float64" Name="E">
          1.93684701e+05 1.93281417e+05 1.92992170e+05 1.92804019e+05 
        </DataArray>
      </PointData>
    </Piece>
    <Piece NumberOfPoints="4" NumberOfCells="3">
      <Points>
        <DataArray type="Float64" NumberOfComponents="3" format="ascii">
          2.55046517e-01 5.94772622e-02 0.00000000e+00 
2.65433758e-01 5.96804135e-02 0.00000000e+00 
2.75821954e-01 5.98256700e-02 0.00000000e+00 
2.86210775e-01 5.99167012e-02 0.00000000e+00 

        </DataArray>
      </Points>
      <Cells>
        <DataArray type="Int32" Name="connectivity" format="ascii">
0 1
1 2
2 3

        </DataArray>
        <DataArray type="Int32" Name="offsets" format="ascii">
2 4 6 
        </DataArray>
        <DataArray type="UInt8" Name="types" format="ascii">
3 3 3 
        </DataArray>
      </Cells>
      <PointData>
        <DataArray type="Float64" Name="rho">
          8.51731447e-01 8.51284151e-01 8.51192898e-01 8.51437748e-01 
        </DataArray>
        <DataArray type="Float64" Name="rhou">
          2.86089157e-03 2.57284591e-03 2.27775636e-03 2.01306410e-03 
        </DataArray>
        <DataArray type="Float64" Name="rhov">
          3.19635534e-04 2.23707352e-04 1.65107281e-04 1.98811431e-04 
        </DataArray>
        <DataArray type="Float64" Name="E">
          1.92804026e+05 1.92705729e+05 1.92691482e+05 1.92756376e+05 
        </DataArray>
      </PointData>
    </Piece>
    <Piece NumberOfPoints="4" NumberOfCells="3">
      <Points>
        <DataArray type="Float64" NumberOfComponents="3" format="ascii">
          2.86210775e-01 5.99167012e-02 0.00000000e+00 
2.96599895e-01 5.99572174e-02 0.00000000e+00 
3.06989133e-01 5.99487796e-02 0.00000000e+00 
3.17378193e-01 5.98919280e-02 0.00000000e+00 

        </DataArray>
      </Points>
      <Cells>
        <DataArray type="Int32" Name="connectivity" format="ascii">
0 1
1 2
2 3

        </DataArray>
        <DataArray type="Int32" Name="offsets" format="ascii">
2 4 6 
        </DataArray>
        <DataArray type="UInt8" Name="types" format="ascii">
3 3 3 
        </DataArray>
      </Cells>
      <PointData>
        <DataArray type="Float64" Name="rho">
          8.51436724e-01 8.51968952e-01 8.52742093e-01 8.53741417e-01 
        </DataArray>
        <DataArray type="Float64" Name="rhou">
          2.03200656e-03 1.91583620e-03 1.78880835e-03 1.60615218e-03 
        </DataArray>
        <DataArray type="Float64" Name="rhov">
          2.15184636e-04 2.42484527e-04 1.88183161e-04 1.13762234e-04 
        </DataArray>
        <DataArray type="Float64" Name="E">
          1.92756143e+05 1.92888737e+05 1.93078286e+05 1.93321249e+05 
        </DataArray>
      </PointData>
    </Piece>
    <Piece NumberOfPoints="4" NumberOfCells="3">
      <Points>
        <DataArray type="Float64" NumberOfComponents="3" format="ascii">
          3.17378193e-01 5.98919280e-02 0.00000000e+00 
3.27766895e-01 5.97884916e-02 0.00000000e+00 
3.38155061e-01 5.96415885e-02 0.00000000e+00 
3.48542601e-01 5.94538599e-02 0.00000000e+00 

        </DataArray>
      </Points>
      <Cells>
        <DataArray type="Int32" Name="connectivity" format="ascii">
0 1
1 2
2 3

        </DataArray>
        <DataArray type="Int32" Name="offsets" format="ascii">
2 4 6 
        </DataArray>
        <DataArray type="UInt8" Name="types" format="ascii">
3 3 3 
        </DataArray>
      </Cells>
      <PointData>
        <DataArray type="Float64" Name="rho">
          8.53741765e-01 8.54954856e-01 8.56361754e-01 8.57929767e-01 
        </DataArray>
        <DataArray type="Float64" Name="rhou">
          1.63575234e-03 1.43890620e-03 1.32163064e-03 1.27469760e-03 
        </DataArray>
        <DataArray type="Float64" Name="rhov">
          1.21416943e-04 1.10303705e-04 1.36363516e-04 1.57399477e-04 
        </DataArray>
        <DataArray type="Float64" Name="E">
          1.93321327e+05 1.93614665e+05 1.93953618e+05 1.94330557e+05 
        </DataArray>
      </PointData>
    </Piece>
    <Piece NumberOfPoints="4" NumberOfCells="3">
      <Points>
        <DataArray type="Float64" NumberOfComponents="3" format="ascii">
          3.48542601e-01 5.94538599e-02 0.00000000e+00 
3.58929336e-01 5.92265576e-02 0.00000000e+00 
3.69315147e-01 5.89610897e-02 0.00000000e+00 
3.79699975e-01 5.86590059e-02 0.00000000e+00 

        </DataArray>
      </Points>
      <Cells>
        <DataArray type="Int32" Name="connectivity" format="ascii">
0 1
1 2
2 3

        </DataArray>
        <DataArray type="Int32" Name="offsets" format="ascii">
2 4 6 
        </DataArray>
        <DataArray type="UInt8" Name="types" format="ascii">
3 3 3 
        </DataArray>
      </Cells>
      <PointData>
        <DataArray type="Float64" Name="rho">
          8.57930014e-01 8.59633786e-01 8.61463758e-01 8.63400096e-01 
        </DataArray>
        <DataArray type="Float64" Name="rhou">
          1.28715557e-03 1.16267490e-03 1.06859962e-03 1.02023089e-03 
        </DataArray>
        <DataArray type="Float64" Name="rhov">
          1.54292020e-04 1.18490830e-04 1.11420489e-04 1.10220467e-04 
        </DataArray>
        <DataArray type="Float64" Name="E">
          1.94330614e+05 1.94739612e+05 1.95178354e+05 1.95642200e+05 
        </DataArray>
      </PointData>
    </Piece>
    <Piece NumberOfPoints="4" NumberOfCells="3">
      <Points>
        <DataArray type="Float64" NumberOfComponents="3" format="ascii">
          3.79699975e-01 5.86590059e-02 0.00000000e+00 
3.90083700e-01 5.83211333e-02 0.00000000e+00 
4.00466233e-01 5.79482466e-02 0.00000000e+00 
4.10847515e-01 5.75418957e-02 0.00000000e+00 

        </DataArray>
      </Points>
      <Cells>
        <DataArray type="Int32" Name="connectivity" format="ascii">
0 1
1 2
2 3

        </DataArray>
        <DataArray type="Int32" Name="offsets" format="ascii">
2 4 6 
        </DataArray>
        <DataArray type="UInt8" Name="types" format="ascii">
3 3 3 
        </DataArray>
      </Cells>
      <PointData>
        <DataArray type="Float64" Name="rho">
          8.63400108e-01 8.65425959e-01 8.67531406e-01 8.69709866e-01 
        </DataArray>
        <DataArray type="Float64" Name="rhou">
          1.01257300e-03 9.48171637e-04 8.69358689e-04 7.93275377e-04 
        </DataArray>
        <DataArray type="Float64" Name="rhov">
          1.12654848e-04 8.26212747e-05 6.01433911e-05 6.59357525e-05 
        </DataArray>
        <DataArray type="Float64" Name="E">
          1.95642204e+05 1.96127214e+05 1.96631038e+05 1.97152072e+05 
        </DataArray>
      </PointData>
    </Piece>
    <Piece NumberOfPoints="4" NumberOfCells="3">
      <Points>
        <DataArray type="Float64" NumberOfComponents="3" format="ascii">
          4.10847515e-01 5.75418957e-02 0.00000000e+00 
4.21227485e-01 5.71038015e-02 0.00000000e+00 
4.31606144e-01 5.66351078e-02 0.00000000e+00 
4.41983402e-01 5.61364293e-02 0.00000000e+00 

        </DataArray>
      </Points>
      <Cells>
        <DataArray type="Int32" Name="connectivity" format="ascii">
0 1
1 2
2 3

        </DataArray>
        <DataArray type="Int32" Name="offsets" format="ascii">
2 4 6 
        </DataArray>
        <DataArray type="UInt8" Name="types" format="ascii">
3 3 3 
        </DataArray>
      </Cells>
      <PointData>
        <DataArray type="Float64" Name="rho">
          8.69709665e-01 8.71945462e-01 8.74226861e-01 8.76544085e-01 
        </DataArray>
        <DataArray type="Float64" Name="rhou">
          8.09950689e-04 7.58424371e-04 7.19542842e-04 6.82562224e-04 
        </DataArray>
        <DataArray type="Float64" Name="rhov">
          6.93644421e-05 6.98945870e-05 6.06659452e-05 3.99526267e-05 
        </DataArray>
        <DataArray type="Float64" Name="E">
          1.97152026e+05 1.97686603e+05 1.98231980e+05 1.98785861e+05 
        </DataArray>
      </PointData>
    </Piece>
    <Piece NumberOfPoints="4" NumberOfCells="3">
      <Points>
        <DataArray type="Float64" NumberOfComponents="3" format="ascii">
          4.41983402e-01 5.61364293e-02 0.00000000e+00 
4.52359200e-01 5.56085743e-02 0.00000000e+00 
4.62733537e-01 5.50529286e-02 0.00000000e+00 
4.73106444e-01 5.44707514e-02 0.00000000e+00 

        </DataArray>
      </Points>
      <Cells>
        <DataArray type="Int32" Name="connectivity" format="ascii">
0 1
1 2
2 3

        </DataArray>
        <DataArray type="Int32" Name="offsets" format="ascii">
2 4 6 
        </DataArray>
        <DataArray type="UInt8" Name="types" format="ascii">
3 3 3 
        </DataArray>
      </Cells>
      <PointData>
        <DataArray type="Float64" Name="rho">
          8.76544228e-01 8.78892740e-01 8.81265971e-01 8.83655303e-01 
        </DataArray>
        <DataArray type="Float64" Name="rhou">
          6.79582109e-04 6.23867064e-04 5.84176035e-04 5.61050172e-04 
        </DataArray>
        <DataArray type="Float64" Name="rhov">
          4.05876727e-05 3.35096761e-05 3.43585126e-05 3.49353433e-05 
        </DataArray>
        <DataArray type="Float64" Name="E">
          1.98785894e+05 1.99347176e+05 1.99914299e+05 2.00485241e+05 
        </DataArray>
      </PointData>
    </Piece>
    <Piece NumberOfPoints="4" NumberOfCells="3">
      <Points>
        <DataArray type="Float64" NumberOfComponents="3" format="ascii">
          4.73106444e-01 5.44707514e-02 0.00000000e+00 
4.83477861e-01 5.38627952e-02 0.00000000e+00 
4.93847787e-01 5.32294959e-02 0.00000000e+00 
5.04216135e-01 5.25716618e-02 0.00000000e+00 

        </DataArray>
      </Points>
      <Cells>
        <DataArray type="Int32" Name="connectivity" format="ascii">
0 1
1 2
2 3

        </DataArray>
        <DataArray type="Int32" Name="offsets" format="ascii">
2 4 6 
        </DataArray>
        <DataArray type="UInt8" Name="types" format="ascii">
3 3 3 
        </DataArray>
      </Cells>
      <PointData>
        <DataArray type="Float64" Name="rho">
          8.83655290e-01 8.86053734e-01 8.88455788e-01 8.90860208e-01 
        </DataArray>
        <DataArray type="Float64" Name="rhou">
          5.53433808e-04 5.32906675e-04 4.98197745e-04 4.56938643e-04 
        </DataArray>
        <DataArray type="Float64" Name="rhov">
          3.67437089e-05 2.56475945e-05 1.10792825e-05 8.76922581e-06 
        </DataArray>
        <DataArray type="Float64" Name="E">
          2.00485239e+05 2.01058358e+05 2.01632361e+05 2.02206916e+05 
        </DataArray>
      </PointData>
    </Piece>
    <Piece NumberOfPoints="4" NumberOfCells="3">
      <Points>
        <DataArray type="Float64" NumberOfComponents="3" format="ascii">
          5.04216135e-01 5.25716618e-02 0.00000000e+00 
5.14582992e-01 5.18903993e-02 0.00000000e+00 
5.24948359e-01 5.11864908e-02 0.00000000e+00 
5.35312176e-01 5.04603274e-02 0.00000000e+00 

        </DataArray>
      </Points>
      <Cells>
        <DataArray type="Int32" Name="connectivity" format="ascii">
0 1
1 2
2 3

        </DataArray>
        <DataArray type="Int32" Name="offsets" format="ascii">
2 4 6 
        </DataArray>
        <DataArray type="UInt8" Name="types" format="ascii">
3 3 3 
        </DataArray>
      </Cells>
      <PointData>
        <DataArray type="Float64" Name="rho">
          8.90860123e-01 8.93261366e-01 8.95654832e-01 8.98036909e-01 
        </DataArray>
        <DataArray type="Float64" Name="rhou">
          4.65511576e-04 4.39976939e-04 4.20886611e-04 4.02167796e-04 
        </DataArray>
        <DataArray type="Float64" Name="rhov">
          1.09312859e-05 1.08388534e-05 5.67921571e-06 -5.92359685e-06 
        </DataArray>
        <DataArray type="Float64" Name="E">
          2.02206896e+05 2.02780699e+05 2.03352670e+05 2.03921953e+05 
        </DataArray>
      </PointData>
    </Piece>
    <Piece NumberOfPoints="4" NumberOfCells="3">
      <Points>
        <DataArray type="Float64" NumberOfComponents="3" format="ascii">
          5.35312176e-01 5.04603274e-02 0.00000000e+00 
5.45674443e-01 4.97124642e-02 0.00000000e+00 
5.56035221e-01 4.89437394e-02 0.00000000e+00 
5.66394389e-01 4.81546782e-02 0.00000000e+00 

        </DataArray>
      </Points>
      <Cells>
        <DataArray type="Int32" Name="connectivity" format="ascii">
0 1
1 2
2 3

        </DataArray>
        <DataArray type="Int32" Name="offsets" format="ascii">
2 4 6 
        </DataArray>
        <DataArray type="UInt8" Name="types" format="ascii">
3 3 3 
        </DataArray>
      </Cells>
      <PointData>
        <DataArray type="Float64" Name="rho">
          8.98036954e-01 9.00406855e-01 9.02761536e-01 9.05098007e-01 
        </DataArray>
        <DataArray type="Float64" Name="rhou">
          3.97887736e-04 3.72179808e-04 3.54524628e-04 3.43553091e-04 
        </DataArray>
        <DataArray type="Float64" Name="rhov">
          -5.64385937e-06 -6.16393581e-06 -6.69661374e-06 -1.07510337e-05 
        </DataArray>
        <DataArray type="Float64" Name="E">
          2.03921964e+05 2.04488350e+05 2.05051119e+05 2.05609567e+05 
        </DataArray>
      </PointData>
    </Piece>
    <Piece NumberOfPoints="4" NumberOfCells="3">
      <Points>
        <DataArray type="Float64" NumberOfComponents="3" format="ascii">
          5.66394389e-01 4.81546782e-02 0.00000000e+00 
5.76752067e-01 4.73455116e-02 0.00000000e+00 
5.87108195e-01 4.65166979e-02 0.00000000e+00 
5.97462773e-01 4.56690118e-02 0.00000000e+00 

        </DataArray>
      </Points>
      <Cells>
        <DataArray type="Int32" Name="connectivity" format="ascii">
0 1
1 2
2 3

        </DataArray>
        <DataArray type="Int32" Name="offsets" format="ascii">
2 4 6 
        </DataArray>
        <DataArray type="UInt8" Name="types" format="ascii">
3 3 3 
        </DataArray>
      </Cells>
      <PointData>
        <DataArray type="Float64" Name="rho">
          9.05098036e-01 9.07414500e-01 9.09710526e-01 9.11985101e-01 
        </DataArray>
        <DataArray type="Float64" Name="rhou">
          3.42855121e-04 3.23313657e-04 3.03107066e-04 2.87981158e-04 
        </DataArray>
        <DataArray type="Float64" Name="rhov">
          -1.04160969e-05 -1.88951450e-05 -2.22886479e-05 -2.09504672e-05 
        </DataArray>
        <DataArray type="Float64" Name="E">
          2.05609574e+05 2.06163272e+05 2.06712100e+05 2.07255810e+05 
        </DataArray>
      </PointData>
    </Piece>
    <Piece NumberOfPoints="4" NumberOfCells="3">
      <Points>
        <DataArray type="Float64" NumberOfComponents="3" format="ascii">
          5.97462773e-01 4.56690118e-02 0.00000000e+00 
6.07815862e-01 4.48031016e-02 0.00000000e+00 
6.18167400e-01 4.39192392e-02 0.00000000e+00 
6.28517449e-01 4.30175588e-02 0.00000000e+00 

        </DataArray>
      </Points>
      <Cells>
        <DataArray type="Int32" Name="connectivity" format="ascii">
0 1
1 2
2 3

        </DataArray>
        <DataArray type="Int32" Name="offsets" format="ascii">
2 4 6 
        </DataArray>
        <DataArray type="UInt8" Name="types" format="ascii">
3 3 3 
        </DataArray>
      </Cells>
      <PointData>
        <DataArray type="Float64" Name="rho">
          9.11985038e-01 9.14236172e-01 9.16461957e-01 9.18662450e-01 
        </DataArray>
        <DataArray type="Float64" Name="rhou">
          2.86029745e-04 2.78275851e-04 2.67234238e-04 2.50999209e-04 
        </DataArray>
        <DataArray type="Float64" Name="rhov">
          -2.00265573e-05 -2.03824202e-05 -2.58871851e-05 -3.11542193e-05 
        </DataArray>
        <DataArray type="Float64" Name="E">
          2.07255796e+05 2.07793919e+05 2.08326009e+05 2.08852069e+05 
        </DataArray>
      </PointData>
    </Piece>
    <Piece NumberOfPoints="4" NumberOfCells="3">
      <Points>
        <DataArray type="Float64" NumberOfComponents="3" format="ascii">
          6.28517449e-01 4.30175588e-02 0.00000000e+00 
6.38865948e-01 4.20984775e-02 0.00000000e+00 
6.49212897e-01 4.11624312e-02 0.00000000e+00 
6.59558356e-01 4.02097441e-02 0.00000000e+00 

        </DataArray>
      </Points>
      <Cells>
        <DataArray type="Int32" Name="connectivity" format="ascii">
0 1
1 2
2 3

        </DataArray>
        <DataArray type="Int32" Name="offsets" format="ascii">
2 4 6 
        </DataArray>
        <DataArray type="UInt8" Name="types" format="ascii">
3 3 3 
        </DataArray>
      </Cells>
      <PointData>
        <DataArray type="Float64" Name="rho">
          9.18662442e-01 9.20837363e-01 9.22985777e-01 9.25107280e-01 
        </DataArray>
        <DataArray type="Float64" Name="rhou">
          2.51951984e-04 2.40161948e-04 2.30219903e-04 2.19510461e-04 
        </DataArray>
        <DataArray type="Float64" Name="rhov">
          -3.01391177e-05 -3.07684259e-05 -3.25607988e-05 -3.47442638e-05 
        </DataArray>
        <DataArray type="Float64" Name="E">
          2.08852067e+05 2.09372021e+05 2.09885651e+05 2.10392856e+05 
        </DataArray>
      </PointData>
    </Piece>
    <Piece NumberOfPoints="4" NumberOfCells="3">
      <Points>
        <DataArray type="Float64" NumberOfComponents="3" format="ascii">
          6.59558356e-01 4.02097441e-02 0.00000000e+00 
6.69902325e-01 3.92407738e-02 0.00000000e+00 
6.80244744e-01 3.82556282e-02 0.00000000e+00 
6.90585554e-01 3.72543521e-02 0.00000000e+00 

        </DataArray>
      </Points>
      <Cells>
        <DataArray type="Int32" Name="connectivity" format="ascii">
0 1
1 2
2 3

        </DataArray>
        <DataArray type="Int32" Name="offsets" format="ascii">
2 4 6 
        </DataArray>
        <DataArray type="UInt8" Name="types" format="ascii">
3 3 3 
        </DataArray>
      </Cells>
      <PointData>
        <DataArray type="Float64" Name="rho">
          9.25107263e-01 9.27201770e-01 9.29268060e-01 9.31306847e-01 
        </DataArray>
        <DataArray type="Float64" Name="rhou">
          2.16275881e-04 2.12276778e-04 2.04677698e-04 1.91135280e-04 
        </DataArray>
        <DataArray type="Float64" Name="rhov">
          -3.37112062e-05 -3.36711874e-05 -3.81288221e-05 -4.17859294e-05 
        </DataArray>
        <DataArray type="Float64" Name="E">
          2.10392852e+05 2.10893609e+05 2.11387638e+05 2.11875097e+05 
        </DataArray>
      </PointData>
    </Piece>
    <Piece NumberOfPoints="4" NumberOfCells="3">
      <Points>
        <DataArray type="Float64" NumberOfComponents="3" format="ascii">
          6.90585554e-01 3.72543521e-02 0.00000000e+00 
7.00924933e-01 3.62373814e-02 0.00000000e+00 
7.11262703e-01 3.52048986e-02 0.00000000e+00 
7.21598923e-01 3.41568366e-02 0.00000000e+00 

        </DataArray>
      </Points>
      <Cells>
        <DataArray type="Int32" Name="connectivity" format="ascii">
0 1
1 2
2 3

        </DataArray>
        <DataArray type="Int32" Name="offsets" format="ascii">
2 4 6 
        </DataArray>
        <DataArray type="UInt8" Name="types" format="ascii">
3 3 3 
        </DataArray>
      </Cells>
      <PointData>
        <DataArray type="Float64" Name="rho">
          9.31306804e-01 9.33318425e-01 9.35301618e-01 9.37256961e-01 
        </DataArray>
        <DataArray type="Float64" Name="rhou">
          1.89726839e-04 1.85651100e-04 1.81398159e-04 1.69420315e-04 
        </DataArray>
        <DataArray type="Float64" Name="rhov">
          -4.06691343e-05 -3.81966558e-05 -4.15708101e-05 -4.63757770e-05 
        </DataArray>
        <DataArray type="Float64" Name="E">
          2.11875087e+05 2.12356052e+05 2.12830236e+05 2.13297769e+05 
        </DataArray>
      </PointData>
    </Piece>
    <Piece NumberOfPoints="4" NumberOfCells="3">
      <Points>
        <DataArray type="Float64" NumberOfComponents="3" format="ascii">
          7.21598923e-01 3.41568366e-02 0.00000000e+00 
7.31933594e-01 3.30936089e-02 0.00000000e+00 
7.42266715e-01 3.20154354e-02 0.00000000e+00 
7.52598286e-01 3.09220124e-02 0.00000000e+00 

        </DataArray>
      </Points>
      <Cells>
        <DataArray type="Int32" Name="connectivity" format="ascii">
0 1
1 2
2 3

        </DataArray>
        <DataArray type="Int32" Name="offsets" format="ascii">
2 4 6 
        </DataArray>
        <DataArray type="UInt8" Name="types" format="ascii">
3 3 3 
        </DataArray>
      </Cells>
      <PointData>
        <DataArray type="Float64" Name="rho">
          9.37256941e-01 9.39185408e-01 9.41085608e-01 9.42958015e-01 
        </DataArray>
        <DataArray type="Float64" Name="rhou">
          1.66748446e-04 1.63521042e-04 1.61522671e-04 1.52162479e-04 
        </DataArray>
        <DataArray type="Float64" Name="rhov">
          -4.54076636e-05 -4.09984154e-05 -4.33636636e-05 -4.85863852e-05 
        </DataArray>
        <DataArray type="Float64" Name="E">
          2.13297764e+05 2.13758868e+05 2.14213229e+05 2.14660955e+05 
        </DataArray>
      </PointData>
    </Piece>
    <Piece NumberOfPoints="4" NumberOfCells="3">
      <Points>
        <DataArray type="Float64" NumberOfComponents="3" format="ascii">
          7.52598286e-01 3.09220124e-02 0.00000000e+00 
7.62928188e-01 2.98135038e-02 0.00000000e+00 
7.73256481e-01 2.86899786e-02 0.00000000e+00 
7.83583105e-01 2.75512449e-02 0.00000000e+00 

        </DataArray>
      </Points>
      <Cells>
        <DataArray type="Int32" Name="connectivity" format="ascii">
0 1
1 2
2 3

        </DataArray>
        <DataArray type="Int32" Name="offsets" format="ascii">
2 4 6 
        </DataArray>
        <DataArray type="UInt8" Name="types" format="ascii">
3 3 3 
        </DataArray>
      </Cells>
      <PointData>
        <DataArray type="Float64" Name="rho">
          9.42958010e-01 9.44803737e-01 9.46621950e-01 9.48413324e-01 
        </DataArray>
        <DataArray type="Float64" Name="rhou">
          1.49564224e-04 1.46647640e-04 1.43582129e-04 1.35084093e-04 
        </DataArray>
        <DataArray type="Float64" Name="rhov">
          -4.76705276e-05 -4.54869959e-05 -4.78255137e-05 -5.12166133e-05 
        </DataArray>
        <DataArray type="Float64" Name="E">
          2.14660954e+05 2.15102300e+05 2.15537076e+05 2.15965437e+05 
        </DataArray>
      </PointData>
    </Piece>
    <Piece NumberOfPoints="4" NumberOfCells="3">
      <Points>
        <DataArray type="Float64" NumberOfComponents="3" format="ascii">
          7.83583105e-01 2.75512449e-02 0.00000000e+00 
7.93908060e-01 2.63975188e-02 0.00000000e+00 
8.04231405e-01 2.52291560e-02 0.00000000e+00 
8.14553022e-01 2.40457114e-02 0.00000000e+00 

        </DataArray>
      </Points>
      <Cells>
        <DataArray type="Int32" Name="connectivity" format="ascii">
0 1
1 2
2 3

        </DataArray>
        <DataArray type="Int32" Name="offsets" format="ascii">
2 4 6 
        </DataArray>
        <DataArray type="UInt8" Name="types" format="ascii">
3 3 3 
        </DataArray>
      </Cells>
      <PointData>
        <DataArray type="Float64" Name="rho">
          9.48413330e-01 9.50178617e-01 9.51917732e-01 9.53630037e-01 
        </DataArray>
        <DataArray type="Float64" Name="rhou">
          1.37620500e-04 1.27728399e-04 1.27399096e-04 1.29155214e-04 
        </DataArray>
        <DataArray type="Float64" Name="rhov">
          -5.15670318e-05 -4.80553696e-05 -4.69921955e-05 -5.36485807e-05 
        </DataArray>
        <DataArray type="Float64" Name="E">
          2.15965439e+05 2.16387554e+05 2.16803402e+05 2.17212835e+05 
        </DataArray>
      </PointData>
    </Piece>
    <Piece NumberOfPoints="4" NumberOfCells="3">
      <Points>
        <DataArray type="Float64" NumberOfComponents="3" format="ascii">
          8.14553022e-01 2.40457114e-02 0.00000000e+00 
8.24872792e-01 2.28467938e-02 0.00000000e+00 
8.35190892e-01 2.16327831e-02 0.00000000e+00 
8.45507145e-01 2.04038676e-02 0.00000000e+00 

        </DataArray>
      </Points>
      <Cells>
        <DataArray type="Int32" Name="connectivity" format="ascii">
0 1
1 2
2 3

        </DataArray>
        <DataArray type="Int32" Name="offsets" format="ascii">
2 4 6 
        </DataArray>
        <DataArray type="UInt8" Name="types" format="ascii">
3 3 3 
        </DataArray>
      </Cells>
      <PointData>
        <DataArray type="Float64" Name="rho">
          9.53630080e-01 9.55317244e-01 9.56979578e-01 9.58617262e-01 
        </DataArray>
        <DataArray type="Float64" Name="rhou">
          1.23261865e-04 1.15717889e-04 1.09405056e-04 1.10695278e-04 
        </DataArray>
        <DataArray type="Float64" Name="rhov">
          -5.39055682e-05 -5.40549647e-05 -5.14918558e-05 -4.78444013e-05 
        </DataArray>
        <DataArray type="Float64" Name="E">
          2.17212844e+05 2.17616235e+05 2.18013646e+05 2.18405105e+05 
        </DataArray>
      </PointData>
    </Piece>
    <Piece NumberOfPoints="4" NumberOfCells="3">
      <Points>
        <DataArray type="Float64" NumberOfComponents="3" format="ascii">
          8.45507145e-01 2.04038676e-02 0.00000000e+00 
8.55821550e-01 1.91591792e-02 0.00000000e+00 
8.66134048e-01 1.78987328e-02 0.00000000e+00 
8.76444638e-01 1.66228991e-02 0.00000000e+00 

        </DataArray>
      </Points>
      <Cells>
        <DataArray type="Int32" Name="connectivity" format="ascii">
0 1
1 2
2 3

        </DataArray>
        <DataArray type="Int32" Name="offsets" format="ascii">
2 4 6 
        </DataArray>
        <DataArray type="UInt8" Name="types" format="ascii">
3 3 3 
        </DataArray>
      </Cells>
      <PointData>
        <DataArray type="Float64" Name="rho">
          9.58617374e-01 9.60229101e-01 9.61818792e-01 9.63383040e-01 
        </DataArray>
        <DataArray type="Float64" Name="rhou">
          1.31995449e-04 1.01164795e-04 1.00275898e-04 1.16928143e-04 
        </DataArray>
        <DataArray type="Float64" Name="rhov">
          -5.14735788e-05 -5.91698337e-05 -5.68566386e-05 -7.48924834e-05 
        </DataArray>
        <DataArray type="Float64" Name="E">
          2.18405130e+05 2.18790327e+05 2.19170131e+05 2.19543746e+05 
        </DataArray>
      </PointData>
    </Piece>
    <Piece NumberOfPoints="4" NumberOfCells="3">
      <Points>
        <DataArray type="Float64" NumberOfComponents="3" format="ascii">
          8.76444638e-01 1.66228991e-02 0.00000000e+00 
8.86753201e-01 1.53310820e-02 0.00000000e+00 
8.97059798e-01 1.40233757e-02 0.00000000e+00 
9.07364249e-01 1.26988320e-02 0.00000000e+00 

        </DataArray>
      </Points>
      <Cells>
        <DataArray type="Int32" Name="connectivity" format="ascii">
0 1
1 2
2 3

        </DataArray>
        <DataArray type="Int32" Name="offsets" format="ascii">
2 4 6 
        </DataArray>
        <DataArray type="UInt8" Name="types" format="ascii">
3 3 3 
        </DataArray>
      </Cells>
      <PointData>
        <DataArray type="Float64" Name="rho">
          9.63382586e-01 9.64928154e-01 9.66447577e-01 9.67959827e-01 
        </DataArray>
        <DataArray type="Float64" Name="rhou">
          2.40882599e-05 1.17758435e-04 6.23462302e-05 9.31958110e-06 
        </DataArray>
        <DataArray type="Float64" Name="rhov">
          -6.68748630e-05 -7.05715049e-05 -9.00046143e-05 9.64475784e-06 
        </DataArray>
        <DataArray type="Float64" Name="E">
          2.19543642e+05 2.19912583e+05 2.20275123e+05 2.20635564e+05 
        </DataArray>
      </PointData>
    </Piece>
    <Piece NumberOfPoints="4" NumberOfCells="3">
      <Points>
        <DataArray type="Float64" NumberOfComponents="3" format="ascii">
          9.07364249e-01 1.26988320e-02 0.00000000e+00 
9.17666554e-01 1.13577880e-02 0.00000000e+00 
9.27966774e-01 1.00004105e-02 0.00000000e+00 
9.38264549e-01 8.62528384e-03 0.00000000e+00 

        </DataArray>
      </Points>
      <Cells>
        <DataArray type="Int32" Name="connectivity" format="ascii">
0 1
1 2
2 3

        </DataArray>
        <DataArray type="Int32" Name="offsets" format="ascii">
2 4 6 
        </DataArray>
        <DataArray type="UInt8" Name="types" format="ascii">
3 3 3 
        </DataArray>
      </Cells>
      <PointData>
        <DataArray type="Float64" Name="rho">
          9.67964743e-01 9.69427175e-01 9.70913517e-01 9.72251506e-01 
        </DataArray>
        <DataArray type="Float64" Name="rhou">
          8.27603988e-04 -1.90678686e-04 3.66402804e-04 7.96263974e-04 
        </DataArray>
        <DataArray type="Float64" Name="rhov">
          -6.04351974e-05 -1.14119605e-04 -4.23872365e-05 -1.47438160e-03 
        </DataArray>
        <DataArray type="Float64" Name="E">
          2.20636684e+05 2.20985296e+05 2.21338897e+05 2.21658270e+05 
        </DataArray>
      </PointData>
    </Piece>
    <Piece NumberOfPoints="4" NumberOfCells="3">
      <Points>
        <DataArray type="Float64" NumberOfComponents="3" format="ascii">
          9.38264549e-01 8.62528384e-03 0.00000000e+00 
9.48560059e-01 7.23283459e-03 0.00000000e+00 
9.58853185e-01 5.82307298e-03 0.00000000e+00 
9.69143867e-01 4.39538015e-03 0.00000000e+00 

        </DataArray>
      </Points>
      <Cells>
        <DataArray type="Int32" Name="connectivity" format="ascii">
0 1
1 2
2 3

        </DataArray>
        <DataArray type="Int32" Name="offsets" format="ascii">
2 4 6 
        </DataArray>
        <DataArray type="UInt8" Name="types" format="ascii">
3 3 3 
        </DataArray>
      </Cells>
      <PointData>
        <DataArray type="Float64" Name="rho">
          9.72203473e-01 9.73864184e-01 9.75108513e-01 9.77812851e-01 
        </DataArray>
        <DataArray type="Float64" Name="rhou">
          -6.73397933e-03 2.18503542e-03 -3.17065206e-03 -1.91849744e-02 
        </DataArray>
        <DataArray type="Float64" Name="rhov">
          -1.09444812e-03 1.35920295e-04 -1.13318381e-03 1.91453407e-02 
        </DataArray>
        <DataArray type="Float64" Name="E">
          2.21647320e+05 2.22039957e+05 2.22337578e+05 2.22968277e+05 
        </DataArray>
      </PointData>
    </Piece>
    <Piece NumberOfPoints="4" NumberOfCells="3">
      <Points>
        <DataArray type="Float64" NumberOfComponents="3" format="ascii">
          9.69143867e-01 4.39538015e-03 0.00000000e+00 
9.79435980e-01 2.94816052e-03 0.00000000e+00 
9.89725590e-01 1.48259092e-03 0.00000000e+00 
1.00000000e+00 0.00000000e+00 0.00000000e+00 

        </DataArray>
      </Points>
      <Cells>
        <DataArray type="Int32" Name="connectivity" format="ascii">
0 1
1 2
2 3

        </DataArray>
        <DataArray type="Int32" Name="offsets" format="ascii">
2 4 6 
        </DataArray>
        <DataArray type="UInt8" Name="types" format="ascii">
3 3 3 
        </DataArray>
      </Cells>
      <PointData>
        <DataArray type="Float64" Name="rho">
          9.78109691e-01 9.77700784e-01 9.81543807e-01 9.71506880e-01 
        </DataArray>
        <DataArray type="Float64" Name="rhou">
          -1.55067323e-03 -9.63913157e-03 -3.78992719e-02 5.03448869e-01 
        </DataArray>
        <DataArray type="Float64" Name="rhov">
          2.12608414e-02 1.12476039e-03 5.28475318e-02 -1.38426683e-01 
        </DataArray>
        <DataArray type="Float64" Name="E">
          2.23036025e+05 2.22957298e+05 2.23849071e+05 2.21575962e+05 
        </DataArray>
      </PointData>
    </Piece>
    <Piece NumberOfPoints="4" NumberOfCells="3">
      <Points>
        <DataArray type="Float64" NumberOfComponents="3" format="ascii">
          9.69029665e-01 -4.41133138e-03 0.00000000e+00 
9.79355037e-01 -2.95961346e-03 0.00000000e+00 
9.89677846e-01 -1.48943183e-03 0.00000000e+00 
1.00000000e+00 0.00000000e+00 0.00000000e+00 

        </DataArray>
      </Points>
      <Cells>
        <DataArray type="Int32" Name="connectivity" format="ascii">
0 1
1 2
2 3

        </DataArray>
        <DataArray type="Int32" Name="offsets" format="ascii">
2 4 6 
        </DataArray>
        <DataArray type="UInt8" Name="types" format="ascii">
3 3 3 
        </DataArray>
      </Cells>
      <PointData>
        <DataArray type="Float64" Name="rho">
          9.77117860e-01 9.76738827e-01 9.80538940e-01 9.71742910e-01 
        </DataArray>
        <DataArray type="Float64" Name="rhou">
          -9.51804451e-04 -7.57933943e-03 -3.62232333e-02 4.64932180e-01 
        </DataArray>
        <DataArray type="Float64" Name="rhov">
          -2.40410523e-02 2.22927660e-03 -4.96730666e-02 1.45888394e-01 
        </DataArray>
        <DataArray type="Float64" Name="E">
          2.22802452e+05 2.22729910e+05 2.23611841e+05 2.21627194e+05 
        </DataArray>
      </PointData>
    </Piece>
    <Piece NumberOfPoints="4" NumberOfCells="3">
      <Points>
        <DataArray type="Float64" NumberOfComponents="3" format="ascii">
          9.38035965e-01 -8.65600072e-03 0.00000000e+00 
9.48369622e-01 -7.25875143e-03 0.00000000e+00 
9.58700895e-01 -5.84406452e-03 0.00000000e+00 
9.69029665e-01 -4.41133138e-03 0.00000000e+00 

        </DataArray>
      </Points>
      <Cells>
        <DataArray type="Int32" Name="connectivity" format="ascii">
0 1
1 2
2 3

        </DataArray>
        <DataArray type="Int32" Name="offsets" format="ascii">
2 4 6 
        </DataArray>
        <DataArray type="UInt8" Name="types" format="ascii">
3 3 3 
        </DataArray>
      </Cells>
      <PointData>
        <DataArray type="Float64" Name="rho">
          9.71399854e-01 9.73008401e-01 9.74210022e-01 9.76821623e-01 
        </DataArray>
        <DataArray type="Float64" Name="rhou">
          -6.39221157e-03 2.36274889e-03 -2.62319791e-03 -1.73730052e-02 
        </DataArray>
        <DataArray type="Float64" Name="rhov">
          1.11635156e-03 -1.76457291e-04 1.36984120e-03 -1.77621567e-02 
        </DataArray>
        <DataArray type="Float64" Name="E">
          2.21460744e+05 2.21840178e+05 2.22126782e+05 2.22735032e+05 
        </DataArray>
      </PointData>
    </Piece>
    <Piece NumberOfPoints="4" NumberOfCells="3">
      <Points>
        <DataArray type="Float64" NumberOfComponents="3" format="ascii">
          9.07021165e-01 -1.27432076e-02 0.00000000e+00 
9.17361677e-01 -1.13977119e-02 0.00000000e+00 
9.27700043e-01 -1.00357840e-02 0.00000000e+00 
9.38035965e-01 -8.65600072e-03 0.00000000e+00 

        </DataArray>
      </Points>
      <Cells>
        <DataArray type="Int32" Name="connectivity" format="ascii">
0 1
1 2
2 3

        </DataArray>
        <DataArray type="Int32" Name="offsets" format="ascii">
2 4 6 
        </DataArray>
        <DataArray type="UInt8" Name="types" format="ascii">
3 3 3 
        </DataArray>
      </Cells>
      <PointData>
        <DataArray type="Float64" Name="rho">
          9.67329022e-01 9.68729029e-01 9.70159028e-01 9.71447104e-01 
        </DataArray>
        <DataArray type="Float64" Name="rhou">
          9.59711546e-04 -4.58093488e-05 5.25673009e-04 9.27854060e-04 
        </DataArray>
        <DataArray type="Float64" Name="rhov">
          4.76162907e-05 7.56244608e-05 -1.21600152e-05 1.40354561e-03 
        </DataArray>
        <DataArray type="Float64" Name="E">
          2.20492448e+05 2.20825389e+05 2.21164800e+05 2.21471507e+05 
        </DataArray>
      </PointData>
    </Piece>
    <Piece NumberOfPoints="4" NumberOfCells="3">
      <Points>
        <DataArray type="Float64" NumberOfComponents="3" format="ascii">
          8.75986874e-01 -1.66798849e-02 0.00000000e+00 
8.86333704e-01 -1.53839625e-02 0.00000000e+00 
8.96678507e-01 -1.40720531e-02 0.00000000e+00 
9.07021165e-01 -1.27432076e-02 0.00000000e+00 

        </DataArray>
      </Points>
      <Cells>
        <DataArray type="Int32" Name="connectivity" format="ascii">
0 1
1 2
2 3

        </DataArray>
        <DataArray type="Int32" Name="offsets" format="ascii">
2 4 6 
        </DataArray>
        <DataArray type="UInt8" Name="types" format="ascii">
3 3 3 
        </DataArray>
      </Cells>
      <PointData>
        <DataArray type="Float64" Name="rho">
          9.63000501e-01 9.64450815e-01 9.65886411e-01 9.67324063e-01 
        </DataArray>
        <DataArray type="Float64" Name="rhou">
          1.78968049e-04 2.60486767e-04 2.12239661e-04 1.59995458e-04 
        </DataArray>
        <DataArray type="Float64" Name="rhov">
          6.54558644e-05 5.73637255e-05 7.29714676e-05 -2.20350175e-05 
        </DataArray>
        <DataArray type="Float64" Name="E">
          2.19462439e+05 2.19807768e+05 2.20149463e+05 2.20491320e+05 
        </DataArray>
      </PointData>
    </Piece>
    <Piece NumberOfPoints="4" NumberOfCells="3">
      <Points>
        <DataArray type="Float64" NumberOfComponents="3" format="ascii">
          8.44934702e-01 -2.04724707e-02 0.00000000e+00 
8.55287313e-01 -1.92240477e-02 0.00000000e+00 
8.65638077e-01 -1.79597028e-02 0.00000000e+00 
8.75986874e-01 -1.66798849e-02 0.00000000e+00 

        </DataArray>
      </Points>
      <Cells>
        <DataArray type="Int32" Name="connectivity" format="ascii">
0 1
1 2
2 3

        </DataArray>
        <DataArray type="Int32" Name="offsets" format="ascii">
2 4 6 
        </DataArray>
        <DataArray type="UInt8" Name="types" format="ascii">
3 3 3 
        </DataArray>
      </Cells>
      <PointData>
        <DataArray type="Float64" Name="rho">
          9.58601087e-01 9.60076092e-01 9.61545113e-01 9.63000930e-01 
        </DataArray>
        <DataArray type="Float64" Name="rhou">
          3.11357625e-04 2.52936098e-04 2.41133578e-04 2.79908265e-04 
        </DataArray>
        <DataArray type="Float64" Name="rhov">
          3.89690150e-05 5.97859354e-05 4.97200549e-05 6.87290209e-05 
        </DataArray>
        <DataArray type="Float64" Name="E">
          2.18413953e+05 2.18765617e+05 2.19115699e+05 2.19462537e+05 
        </DataArray>
      </PointData>
    </Piece>
    <Piece NumberOfPoints="4" NumberOfCells="3">
      <Points>
        <DataArray type="Float64" NumberOfComponents="3" format="ascii">
          8.13865662e-01 -2.41250079e-02 0.00000000e+00 
8.24223816e-01 -2.29226518e-02 0.00000000e+00 
8.34580123e-01 -2.17050612e-02 0.00000000e+00 
8.44934702e-01 -2.04724707e-02 0.00000000e+00 

        </DataArray>
      </Points>
      <Cells>
        <DataArray type="Int32" Name="connectivity" format="ascii">
0 1
1 2
2 3

        </DataArray>
        <DataArray type="Int32" Name="offsets" format="ascii">
2 4 6 
        </DataArray>
        <DataArray type="UInt8" Name="types" format="ascii">
3 3 3 
        </DataArray>
      </Cells>
      <PointData>
        <DataArray type="Float64" Name="rho">
          9.54107092e-01 9.55613873e-01 9.57112030e-01 9.58600858e-01 
        </DataArray>
        <DataArray type="Float64" Name="rhou">
          2.84846555e-04 2.70376568e-04 2.55734911e-04 2.61937691e-04 
        </DataArray>
        <DataArray type="Float64" Name="rhov">
          4.92756931e-05 5.03080150e-05 4.31720533e-05 3.15965158e-05 
        </DataArray>
        <DataArray type="Float64" Name="E">
          2.17342053e+05 2.17701545e+05 2.18058884e+05 2.18413901e+05 
        </DataArray>
      </PointData>
    </Piece>
    <Piece NumberOfPoints="4" NumberOfCells="3">
      <Points>
        <DataArray type="Float64" NumberOfComponents="3" format="ascii">
          7.82780826e-01 -2.76402626e-02 0.00000000e+00 
7.93144107e-01 -2.64833923e-02 0.00000000e+00 
8.03505778e-01 -2.53117718e-02 0.00000000e+00 
8.13865662e-01 -2.41250079e-02 0.00000000e+00 

        </DataArray>
      </Points>
      <Cells>
        <DataArray type="Int32" Name="connectivity" format="ascii">
0 1
1 2
2 3

        </DataArray>
        <DataArray type="Int32" Name="offsets" format="ascii">
2 4 6 
        </DataArray>
        <DataArray type="UInt8" Name="types" format="ascii">
3 3 3 
        </DataArray>
      </Cells>
      <PointData>
        <DataArray type="Float64" Name="rho">
          9.49530017e-01 9.51065088e-01 9.52591681e-01 9.54106984e-01 
        </DataArray>
        <DataArray type="Float64" Name="rhou">
          3.02992754e-04 2.82987841e-04 2.83358917e-04 2.93728955e-04 
        </DataArray>
        <DataArray type="Float64" Name="rhov">
          4.53134468e-05 3.71348222e-05 3.29593656e-05 4.76542358e-05 
        </DataArray>
        <DataArray type="Float64" Name="E">
          2.16249582e+05 2.16616050e+05 2.16980413e+05 2.17342028e+05 
        </DataArray>
      </PointData>
    </Piece>
    <Piece NumberOfPoints="4" NumberOfCells="3">
      <Points>
        <DataArray type="Float64" NumberOfComponents="3" format="ascii">
          7.51680970e-01 -3.10197193e-02 0.00000000e+00 
7.62049198e-01 -2.99084149e-02 0.00000000e+00 
7.72415876e-01 -2.87819952e-02 0.00000000e+00 
7.82780826e-01 -2.76402626e-02 0.00000000e+00 

        </DataArray>
      </Points>
      <Cells>
        <DataArray type="Int32" Name="connectivity" format="ascii">
0 1
1 2
2 3

        </DataArray>
        <DataArray type="Int32" Name="offsets" format="ascii">
2 4 6 
        </DataArray>
        <DataArray type="UInt8" Name="types" format="ascii">
3 3 3 
        </DataArray>
      </Cells>
      <PointData>
        <DataArray type="Float64" Name="rho">
          9.44877263e-01 9.46436658e-01 9.47987482e-01 9.49529981e-01 
        </DataArray>
        <DataArray type="Float64" Name="rhou">
          3.13107986e-04 3.10011459e-04 3.05439509e-04 2.92385629e-04 
        </DataArray>
        <DataArray type="Float64" Name="rhov">
          3.75894019e-05 3.11651858e-05 3.52703742e-05 4.32427428e-05 
        </DataArray>
        <DataArray type="Float64" Name="E">
          2.15138363e+05 2.15510859e+05 2.15881246e+05 2.16249574e+05 
        </DataArray>
      </PointData>
    </Piece>
    <Piece NumberOfPoints="4" NumberOfCells="3">
      <Points>
        <DataArray type="Float64" NumberOfComponents="3" format="ascii">
          7.20566452e-01 -3.42622213e-02 0.00000000e+00 
7.30939507e-01 -3.31965312e-02 0.00000000e+00 
7.41311073e-01 -3.21157984e-02 0.00000000e+00 
7.51680970e-01 -3.10197193e-02 0.00000000e+00 

        </DataArray>
      </Points>
      <Cells>
        <DataArray type="Int32" Name="connectivity" format="ascii">
0 1
1 2
2 3

        </DataArray>
        <DataArray type="Int32" Name="offsets" format="ascii">
2 4 6 
        </DataArray>
        <DataArray type="UInt8" Name="types" format="ascii">
3 3 3 
        </DataArray>
      </Cells>
      <PointData>
        <DataArray type="Float64" Name="rho">
          9.40160056e-01 9.41739643e-01 9.43312253e-01 9.44877254e-01 
        </DataArray>
        <DataArray type="Float64" Name="rhou">
          3.35501141e-04 3.29805325e-04 3.28003745e-04 3.16157911e-04 
        </DataArray>
        <DataArray type="Float64" Name="rhov">
          3.37430360e-05 2.29999452e-05 2.59272876e-05 3.81567773e-05 
        </DataArray>
        <DataArray type="Float64" Name="E">
          2.14011096e+05 2.14388630e+05 2.14764435e+05 2.15138361e+05 
        </DataArray>
      </PointData>
    </Piece>
    <Piece NumberOfPoints="4" NumberOfCells="3">
      <Points>
        <DataArray type="Float64" NumberOfComponents="3" format="ascii">
          6.89437866e-01 -3.73662710e-02 0.00000000e+00 
6.99815631e-01 -3.63472365e-02 0.00000000e+00 
7.10191846e-01 -3.53125818e-02 0.00000000e+00 
7.20566452e-01 -3.42622213e-02 0.00000000e+00 

        </DataArray>
      </Points>
      <Cells>
        <DataArray type="Int32" Name="connectivity" format="ascii">
0 1
1 2
2 3

        </DataArray>
        <DataArray type="Int32" Name="offsets" format="ascii">
2 4 6 
        </DataArray>
        <DataArray type="UInt8" Name="types" format="ascii">
3 3 3 
        </DataArray>
      </Cells>
      <PointData>
        <DataArray type="Float64" Name="rho">
          9.35397739e-01 9.36989719e-01 9.38577292e-01 9.40160067e-01 
        </DataArray>
        <DataArray type="Float64" Name="rhou">
          3.64857387e-04 3.58803101e-04 3.52947899e-04 3.36380676e-04 
        </DataArray>
        <DataArray type="Float64" Name="rhov">
          2.55798406e-05 1.84157243e-05 2.32090589e-05 3.40981467e-05 
        </DataArray>
        <DataArray type="Float64" Name="E">
          2.12872375e+05 2.13253098e+05 2.13632705e+05 2.14011099e+05 
        </DataArray>
      </PointData>
    </Piece>
    <Piece NumberOfPoints="4" NumberOfCells="3">
      <Points>
        <DataArray type="Float64" NumberOfComponents="3" format="ascii">
          6.58295333e-01 -4.03269380e-02 0.00000000e+00 
6.68677747e-01 -3.93563360e-02 0.00000000e+00 
6.79058611e-01 -3.83694395e-02 0.00000000e+00 
6.89437866e-01 -3.73662710e-02 0.00000000e+00 

        </DataArray>
      </Points>
      <Cells>
        <DataArray type="Int32" Name="connectivity" format="ascii">
0 1
1 2
2 3

        </DataArray>
        <DataArray type="Int32" Name="offsets" format="ascii">
2 4 6 
        </DataArray>
        <DataArray type="UInt8" Name="types" format="ascii">
3 3 3 
        </DataArray>
      </Cells>
      <PointData>
        <DataArray type="Float64" Name="rho">
          9.30615467e-01 9.32210801e-01 9.33804917e-01 9.35397794e-01 
        </DataArray>
        <DataArray type="Float64" Name="rhou">
          3.98002343e-04 3.93627488e-04 3.82128876e-04 3.62873725e-04 
        </DataArray>
        <DataArray type="Float64" Name="rhov">
          1.44708605e-05 1.14696047e-05 1.82121847e-05 2.64485850e-05 
        </DataArray>
        <DataArray type="Float64" Name="E">
          2.11728218e+05 2.12109964e+05 2.12491360e+05 2.12872388e+05 
        </DataArray>
      </PointData>
    </Piece>
    <Piece NumberOfPoints="4" NumberOfCells="3">
      <Points>
        <DataArray type="Float64" NumberOfComponents="3" format="ascii">
          6.27138972e-01 -4.31386717e-02 0.00000000e+00 
6.37525976e-01 -4.22184542e-02 0.00000000e+00 
6.47911429e-01 -4.12811004e-02 0.00000000e+00 
6.58295333e-01 -4.03269380e-02 0.00000000e+00 

        </DataArray>
      </Points>
      <Cells>
        <DataArray type="Int32" Name="connectivity" format="ascii">
0 1
1 2
2 3

        </DataArray>
        <DataArray type="Int32" Name="offsets" format="ascii">
2 4 6 
        </DataArray>
        <DataArray type="UInt8" Name="types" format="ascii">
3 3 3 
        </DataArray>
      </Cells>
      <PointData>
        <DataArray type="Float64" Name="rho">
          9.25846445e-01 9.27432039e-01 9.29022345e-01 9.30615500e-01 
        </DataArray>
        <DataArray type="Float64" Name="rhou">
          4.45532707e-04 4.28068874e-04 4.12090975e-04 3.98877555e-04 
        </DataArray>
        <DataArray type="Float64" Name="rhov">
          1.11084567e-05 1.00233206e-05 1.14226164e-05 1.54530656e-05 
        </DataArray>
        <DataArray type="Float64" Name="E">
          2.10586576e+05 2.10966220e+05 2.11346918e+05 2.11728225e+05 
        </DataArray>
      </PointData>
    </Piece>
    <Piece NumberOfPoints="4" NumberOfCells="3">
      <Points>
        <DataArray type="Float64" NumberOfComponents="3" format="ascii">
          5.95968783e-01 -4.57924642e-02 0.00000000e+00 
6.06360376e-01 -4.49259281e-02 0.00000000e+00 
6.16750479e-01 -4.40412909e-02 0.00000000e+00 
6.27138972e-01 -4.31386717e-02 0.00000000e+00 

        </DataArray>
      </Points>
      <Cells>
        <DataArray type="Int32" Name="connectivity" format="ascii">
0 1
1 2
2 3

        </DataArray>
        <DataArray type="Int32" Name="offsets" format="ascii">
2 4 6 
        </DataArray>
        <DataArray type="UInt8" Name="types" format="ascii">
3 3 3 
        </DataArray>
      </Cells>
      <PointData>
        <DataArray type="Float64" Name="rho">
          9.21137417e-01 9.22698125e-01 9.24268238e-01 9.25846438e-01 
        </DataArray>
        <DataArray type="Float64" Name="rhou">
          4.86659055e-04 4.75801020e-04 4.59806424e-04 4.39071683e-04 
        </DataArray>
        <DataArray type="Float64" Name="rhov">
          -5.46170035e-07 -3.75556674e-06 2.62365589e-06 1.20056914e-05 
        </DataArray>
        <DataArray type="Float64" Name="E">
          2.09458633e+05 2.09832529e+05 2.10208618e+05 2.10586575e+05 
        </DataArray>
      </PointData>
    </Piece>
    <Piece NumberOfPoints="4" NumberOfCells="3">
      <Points>
        <DataArray type="Float64" NumberOfComponents="3" format="ascii">
          5.64784765e-01 -4.82786149e-02 0.00000000e+00 
5.75181007e-01 -4.74695377e-02 0.00000000e+00 
5.85575700e-01 -4.66405638e-02 0.00000000e+00 
5.95968783e-01 -4.57924642e-02 0.00000000e+00 

        </DataArray>
      </Points>
      <Cells>
        <DataArray type="Int32" Name="connectivity" format="ascii">
0 1
1 2
2 3

        </DataArray>
        <DataArray type="Int32" Name="offsets" format="ascii">
2 4 6 
        </DataArray>
        <DataArray type="UInt8" Name="types" format="ascii">
3 3 3 
        </DataArray>
      </Cells>
      <PointData>
        <DataArray type="Float64" Name="rho">
          9.16550314e-01 9.18060640e-01 9.19590360e-01 9.21137530e-01 
        </DataArray>
        <DataArray type="Float64" Name="rhou">
          5.59550274e-04 5.34447626e-04 5.02796509e-04 4.80526184e-04 
        </DataArray>
        <DataArray type="Float64" Name="rhov">
          -1.15223749e-05 -3.86246805e-07 4.16653709e-06 4.48030195e-07 
        </DataArray>
        <DataArray type="Float64" Name="E">
          2.08359174e+05 2.08721267e+05 2.09087922e+05 2.09458659e+05 
        </DataArray>
      </PointData>
    </Piece>
    <Piece NumberOfPoints="4" NumberOfCells="3">
      <Points>
        <DataArray type="Float64" NumberOfComponents="3" format="ascii">
          5.33586800e-01 -5.05827516e-02 0.00000000e+00 
5.43987691e-01 -4.98356484e-02 0.00000000e+00 
5.54387033e-01 -4.90674041e-02 0.00000000e+00 
5.64784765e-01 -4.82786149e-02 0.00000000e+00 

        </DataArray>
      </Points>
      <Cells>
        <DataArray type="Int32" Name="connectivity" format="ascii">
0 1
1 2
2 3

        </DataArray>
        <DataArray type="Int32" Name="offsets" format="ascii">
2 4 6 
        </DataArray>
        <DataArray type="UInt8" Name="types" format="ascii">
3 3 3 
        </DataArray>
      </Cells>
      <PointData>
        <DataArray type="Float64" Name="rho">
          9.12160830e-01 9.13595856e-01 9.15060853e-01 9.16550274e-01 
        </DataArray>
        <DataArray type="Float64" Name="rhou">
          6.30893057e-04 5.92249392e-04 5.64602660e-04 5.54012812e-04 
        </DataArray>
        <DataArray type="Float64" Name="rhov">
          -9.65835605e-06 -9.93135034e-06 -1.32856693e-05 -1.11129733e-05 
        </DataArray>
        <DataArray type="Float64" Name="E">
          2.07306320e+05 2.07650627e+05 2.08002009e+05 2.08359164e+05 
        </DataArray>
      </PointData>
    </Piece>
    <Piece NumberOfPoints="4" NumberOfCells="3">
      <Points>
        <DataArray type="Float64" NumberOfComponents="3" format="ascii">
          5.02374947e-01 -5.26902266e-02 0.00000000e+00 
5.12780428e-01 -5.20105064e-02 0.00000000e+00 
5.23184419e-01 -5.13078682e-02 0.00000000e+00 
5.33586800e-01 -5.05827516e-02 0.00000000e+00 

        </DataArray>
      </Points>
      <Cells>
        <DataArray type="Int32" Name="connectivity" format="ascii">
0 1
1 2
2 3

        </DataArray>
        <DataArray type="Int32" Name="offsets" format="ascii">
2 4 6 
        </DataArray>
        <DataArray type="UInt8" Name="types" format="ascii">
3 3 3 
        </DataArray>
      </Cells>
      <PointData>
        <DataArray type="Float64" Name="rho">
          9.08071196e-01 9.09394635e-01 9.10759875e-01 9.12160735e-01 
        </DataArray>
        <DataArray type="Float64" Name="rhou">
          7.09927687e-04 6.74512823e-04 6.47866737e-04 6.28258117e-04 
        </DataArray>
        <DataArray type="Float64" Name="rhov">
          -1.80418255e-05 -2.47582655e-05 -2.36332407e-05 -1.00885948e-05 
        </DataArray>
        <DataArray type="Float64" Name="E">
          2.06324405e+05 2.06642283e+05 2.06970065e+05 2.07306298e+05 
        </DataArray>
      </PointData>
    </Piece>
    <Piece NumberOfPoints="4" NumberOfCells="3">
      <Points>
        <DataArray type="Float64" NumberOfComponents="3" format="ascii">
          4.71149325e-01 -5.45825884e-02 0.00000000e+00 
4.81559396e-01 -5.39771840e-02 0.00000000e+00 
4.91967946e-01 -5.33461571e-02 0.00000000e+00 
5.02374947e-01 -5.26902266e-02 0.00000000e+00 

        </DataArray>
      </Points>
      <Cells>
        <DataArray type="Int32" Name="connectivity" format="ascii">
0 1
1 2
2 3

        </DataArray>
        <DataArray type="Int32" Name="offsets" format="ascii">
2 4 6 
        </DataArray>
        <DataArray type="UInt8" Name="types" format="ascii">
3 3 3 
        </DataArray>
      </Cells>
      <PointData>
        <DataArray type="Float64" Name="rho">
          9.04414566e-01 9.05577323e-01 9.06796624e-01 9.08071285e-01 
        </DataArray>
        <DataArray type="Float64" Name="rhou">
          8.14824562e-04 7.92675478e-04 7.46589490e-04 6.90286901e-04 
        </DataArray>
        <DataArray type="Float64" Name="rhov">
          -4.14073090e-05 -3.54903638e-05 -1.86062012e-05 -1.52213982e-05 
        </DataArray>
        <DataArray type="Float64" Name="E">
          2.05445067e+05 2.05724861e+05 2.06018090e+05 2.06324425e+05 
        </DataArray>
      </PointData>
    </Piece>
    <Piece NumberOfPoints="4" NumberOfCells="3">
      <Points>
        <DataArray type="Float64" NumberOfComponents="3" format="ascii">
          4.39910263e-01 -5.62384278e-02 0.00000000e+00 
4.50324744e-01 -5.57143167e-02 0.00000000e+00 
4.60737765e-01 -5.51619194e-02 0.00000000e+00 
4.71149325e-01 -5.45825884e-02 0.00000000e+00 

        </DataArray>
      </Points>
      <Cells>
        <DataArray type="Int32" Name="connectivity" format="ascii">
0 1
1 2
2 3

        </DataArray>
        <DataArray type="Int32" Name="offsets" format="ascii">
2 4 6 
        </DataArray>
        <DataArray type="UInt8" Name="types" format="ascii">
3 3 3 
        </DataArray>
      </Cells>
      <PointData>
        <DataArray type="Float64" Name="rho">
          9.01351262e-01 9.02291929e-01 9.03316585e-01 9.04414642e-01 
        </DataArray>
        <DataArray type="Float64" Name="rhou">
          9.82033265e-04 9.05174991e-04 8.47245964e-04 8.20305762e-04 
        </DataArray>
        <DataArray type="Float64" Name="rhov">
          -3.28577286e-05 -2.41638347e-05 -3.11297442e-05 -3.88753798e-05 
        </DataArray>
        <DataArray type="Float64" Name="E">
          2.04706409e+05 2.04933578e+05 2.05180633e+05 2.05445083e+05 
        </DataArray>
      </PointData>
    </Piece>
    <Piece NumberOfPoints="4" NumberOfCells="3">
      <Points>
        <DataArray type="Float64" NumberOfComponents="3" format="ascii">
          4.08658355e-01 -5.76302819e-02 0.00000000e+00 
4.19077009e-01 -5.71971126e-02 0.00000000e+00 
4.29494321e-01 -5.67329265e-02 0.00000000e+00 
4.39910263e-01 -5.62384278e-02 0.00000000e+00 

        </DataArray>
      </Points>
      <Cells>
        <DataArray type="Int32" Name="connectivity" format="ascii">
0 1
1 2
2 3

        </DataArray>
        <DataArray type="Int32" Name="offsets" format="ascii">
2 4 6 
        </DataArray>
        <DataArray type="UInt8" Name="types" format="ascii">
3 3 3 
        </DataArray>
      </Cells>
      <PointData>
        <DataArray type="Float64" Name="rho">
          8.99091987e-01 8.99743098e-01 9.00500019e-01 9.01351030e-01 
        </DataArray>
        <DataArray type="Float64" Name="rhou">
          1.13704927e-03 1.06749225e-03 1.01612743e-03 9.76715680e-04 
        </DataArray>
        <DataArray type="Float64" Name="rhov">
          -3.99835283e-05 -5.28216061e-05 -5.24411598e-05 -3.27171610e-05 
        </DataArray>
        <DataArray type="Float64" Name="E">
          2.04158415e+05 2.04316883e+05 2.04500446e+05 2.04706356e+05 
        </DataArray>
      </PointData>
    </Piece>
    <Piece NumberOfPoints="4" NumberOfCells="3">
      <Points>
        <DataArray type="Float64" NumberOfComponents="3" format="ascii">
          3.77394795e-01 -5.87291755e-02 0.00000000e+00 
3.87817174e-01 -5.83979115e-02 0.00000000e+00 
3.98238391e-01 -5.80311492e-02 0.00000000e+00 
4.08658355e-01 -5.76302819e-02 0.00000000e+00 

        </DataArray>
      </Points>
      <Cells>
        <DataArray type="Int32" Name="connectivity" format="ascii">
0 1
1 2
2 3

        </DataArray>
        <DataArray type="Int32" Name="offsets" format="ascii">
2 4 6 
        </DataArray>
        <DataArray type="UInt8" Name="types" format="ascii">
3 3 3 
        </DataArray>
      </Cells>
      <PointData>
        <DataArray type="Float64" Name="rho">
          8.97900543e-01 8.98161670e-01 8.98559887e-01 8.99092199e-01 
        </DataArray>
        <DataArray type="Float64" Name="rhou">
          1.38652750e-03 1.31273948e-03 1.21108060e-03 1.10584083e-03 
        </DataArray>
        <DataArray type="Float64" Name="rhov">
          -8.22692173e-05 -5.47532793e-05 -2.73605143e-05 -3.51048725e-05 
        </DataArray>
        <DataArray type="Float64" Name="E">
          2.03863521e+05 2.03929559e+05 2.04028139e+05 2.04158464e+05 
        </DataArray>
      </PointData>
    </Piece>
    <Piece NumberOfPoints="4" NumberOfCells="3">
      <Points>
        <DataArray type="Float64" NumberOfComponents="3" format="ascii">
          3.46121490e-01 -5.95011823e-02 0.00000000e+00 
3.56546819e-01 -5.92821389e-02 0.00000000e+00 
3.66971314e-01 -5.90242445e-02 0.00000000e+00 
3.77394795e-01 -5.87291755e-02 0.00000000e+00 

        </DataArray>
      </Points>
      <Cells>
        <DataArray type="Int32" Name="connectivity" format="ascii">
0 1
1 2
2 3

        </DataArray>
        <DataArray type="Int32" Name="offsets" format="ascii">
2 4 6 
        </DataArray>
        <DataArray type="UInt8" Name="types" format="ascii">
3 3 3 
        </DataArray>
      </Cells>
      <PointData>
        <DataArray type="Float64" Name="rho">
          8.98067171e-01 8.97835934e-01 8.97786139e-01 8.97900635e-01 
        </DataArray>
        <DataArray type="Float64" Name="rhou">
          1.73042239e-03 1.58563180e-03 1.45642802e-03 1.38998287e-03 
        </DataArray>
        <DataArray type="Float64" Name="rhov">
          -1.16213543e-04 -7.44864239e-05 -6.74563784e-05 -7.76560956e-05 
        </DataArray>
        <DataArray type="Float64" Name="E">
          2.03890683e+05 2.03840001e+05 2.03832302e+05 2.03863541e+05 
        </DataArray>
      </PointData>
    </Piece>
    <Piece NumberOfPoints="4" NumberOfCells="3">
      <Points>
        <DataArray type="Float64" NumberOfComponents="3" format="ascii">
          3.14841360e-01 -5.99102043e-02 0.00000000e+00 
3.25268596e-01 -5.98174632e-02 0.00000000e+00 
3.35695356e-01 -5.96801341e-02 0.00000000e+00 
3.46121490e-01 -5.95011823e-02 0.00000000e+00 

        </DataArray>
      </Points>
      <Cells>
        <DataArray type="Int32" Name="connectivity" format="ascii">
0 1
1 2
2 3

        </DataArray>
        <DataArray type="Int32" Name="offsets" format="ascii">
2 4 6 
        </DataArray>
        <DataArray type="UInt8" Name="types" format="ascii">
3 3 3 
        </DataArray>
      </Cells>
      <PointData>
        <DataArray type="Float64" Name="rho">
          8.99994077e-01 8.99116663e-01 8.98483561e-01 8.98066880e-01 
        </DataArray>
        <DataArray type="Float64" Name="rhou">
          2.18223111e-03 1.93714634e-03 1.77166564e-03 1.69479340e-03 
        </DataArray>
        <DataArray type="Float64" Name="rhov">
          -5.26605001e-05 -2.93979473e-05 -6.18829919e-05 -1.15472063e-04 
        </DataArray>
        <DataArray type="Float64" Name="E">
          2.04335148e+05 2.04131321e+05 2.03985336e+05 2.03890616e+05 
        </DataArray>
      </PointData>
    </Piece>
    <Piece NumberOfPoints="4" NumberOfCells="3">
      <Points>
        <DataArray type="Float64" NumberOfComponents="3" format="ascii">
          2.83558637e-01 -5.98983802e-02 0.00000000e+00 
2.93986142e-01 -5.99516556e-02 0.00000000e+00 
3.04413795e-01 -5.99554181e-02 0.00000000e+00 
3.14841360e-01 -5.99102043e-02 0.00000000e+00 

        </DataArray>
      </Points>
      <Cells>
        <DataArray type="Int32" Name="connectivity" format="ascii">
0 1
1 2
2 3

        </DataArray>
        <DataArray type="Int32" Name="offsets" format="ascii">
2 4 6 
        </DataArray>
        <DataArray type="UInt8" Name="types" format="ascii">
3 3 3 
        </DataArray>
      </Cells>
      <PointData>
        <DataArray type="Float64" Name="rho">
          9.04191884e-01 9.02522013e-01 9.01128242e-01 8.99993363e-01 
        </DataArray>
        <DataArray type="Float64" Name="rhou">
          2.66168300e-03 2.49610724e-03 2.35792581e-03 2.17318541e-03 
        </DataArray>
        <DataArray type="Float64" Name="rhov">
          -1.10000810e-04 -1.76980214e-04 -1.41145260e-04 -4.60525217e-05 
        </DataArray>
        <DataArray type="Float64" Name="E">
          2.05318462e+05 2.04926342e+05 2.04599878e+05 2.04334986e+05 
        </DataArray>
      </PointData>
    </Piece>
    <Piece NumberOfPoints="4" NumberOfCells="3">
      <Points>
        <DataArray type="Float64" NumberOfComponents="3" format="ascii">
          2.52279758e-01 -5.94130717e-02 0.00000000e+00 
2.62705088e-01 -5.96327744e-02 0.00000000e+00 
2.73131490e-01 -5.97934239e-02 0.00000000e+00 
2.83558637e-01 -5.98983802e-02 0.00000000e+00 

        </DataArray>
      </Points>
      <Cells>
        <DataArray type="Int32" Name="connectivity" format="ascii">
0 1
1 2
2 3

        </DataArray>
        <DataArray type="Int32" Name="offsets" format="ascii">
2 4 6 
        </DataArray>
        <DataArray type="UInt8" Name="types" format="ascii">
3 3 3 
        </DataArray>
      </Cells>
      <PointData>
        <DataArray type="Float64" Name="rho">
          9.11275143e-01 9.08545647e-01 9.06187527e-01 9.04192806e-01 
        </DataArray>
        <DataArray type="Float64" Name="rhou">
          3.63701073e-03 3.33098035e-03 2.99449620e-03 2.64786061e-03 
        </DataArray>
        <DataArray type="Float64" Name="rhov">
          -2.59408052e-04 -1.66736531e-04 -7.91562661e-05 -9.07839481e-05 
        </DataArray>
        <DataArray type="Float64" Name="E">
          2.06986658e+05 2.06343039e+05 2.05787773e+05 2.05318675e+05 
        </DataArray>
      </PointData>
    </Piece>
    <Piece NumberOfPoints="4" NumberOfCells="3">
      <Points>
        <DataArray type="Float64" NumberOfComponents="3" format="ascii">
          2.21014455e-01 -5.83752058e-02 0.00000000e+00 
2.31433928e-01 -5.87876961e-02 0.00000000e+00 
2.41855890e-01 -5.91322705e-02 0.00000000e+00 
2.52279758e-01 -5.94130717e-02 0.00000000e+00 

        </DataArray>
      </Points>
      <Cells>
        <DataArray type="Int32" Name="connectivity" format="ascii">
0 1
1 2
2 3

        </DataArray>
        <DataArray type="Int32" Name="offsets" format="ascii">
2 4 6 
        </DataArray>
        <DataArray type="UInt8" Name="types" format="ascii">
3 3 3 
        </DataArray>
      </Cells>
      <PointData>
        <DataArray type="Float64" Name="rho">
          9.22020599e-01 9.17964787e-01 9.14398654e-01 9.11275325e-01 
        </DataArray>
        <DataArray type="Float64" Name="rhou">
          4.99304823e-03 4.40670550e-03 3.95942239e-03 3.67125890e-03 
        </DataArray>
        <DataArray type="Float64" Name="rhov">
          -3.67035979e-04 -2.62149289e-04 -2.29372484e-04 -2.43010913e-04 
        </DataArray>
        <DataArray type="Float64" Name="E">
          2.09525844e+05 2.08566708e+05 2.07724053e+05 2.06986695e+05 
        </DataArray>
      </PointData>
    </Piece>
    <Piece NumberOfPoints="4" NumberOfCells="3">
      <Points>
        <DataArray type="Float64" NumberOfComponents="3" format="ascii">
          1.89777538e-01 -5.66898957e-02 0.00000000e+00 
2.00185493e-01 -5.73302582e-02 0.00000000e+00 
2.10598081e-01 -5.78906052e-02 0.00000000e+00 
2.21014455e-01 -5.83752058e-02 0.00000000e+00 

        </DataArray>
      </Points>
      <Cells>
        <DataArray type="Int32" Name="connectivity" format="ascii">
0 1
1 2
2 3

        </DataArray>
        <DataArray type="Int32" Name="offsets" format="ascii">
2 4 6 
        </DataArray>
        <DataArray type="UInt8" Name="types" format="ascii">
3 3 3 
        </DataArray>
      </Cells>
      <PointData>
        <DataArray type="Float64" Name="rho">
          9.37509846e-01 9.31742647e-01 9.26599394e-01 9.22019838e-01 
        </DataArray>
        <DataArray type="Float64" Name="rhou">
          6.91838778e-03 6.11648689e-03 5.52991056e-03 5.05559633e-03 
        </DataArray>
        <DataArray type="Float64" Name="rhov">
          -6.51294741e-04 -5.79533237e-04 -4.78927434e-04 -3.54321915e-04 
        </DataArray>
        <DataArray type="Float64" Name="E">
          2.13195177e+05 2.11827944e+05 2.10609577e+05 2.09525669e+05 
        </DataArray>
      </PointData>
    </Piece>
    <Piece NumberOfPoints="4" NumberOfCells="3">
      <Points>
        <DataArray type="Float64" NumberOfComponents="3" format="ascii">
          1.58592433e-01 -5.42296544e-02 0.00000000e+00 
1.68979734e-01 -5.51457107e-02 0.00000000e+00 
1.79375216e-01 -5.59638515e-02 0.00000000e+00 
1.89777538e-01 -5.66898957e-02 0.00000000e+00 

        </DataArray>
      </Points>
      <Cells>
        <DataArray type="Int32" Name="connectivity" format="ascii">
0 1
1 2
2 3

        </DataArray>
        <DataArray type="Int32" Name="offsets" format="ascii">
2 4 6 
        </DataArray>
        <DataArray type="UInt8" Name="types" format="ascii">
3 3 3 
        </DataArray>
      </Cells>
      <PointData>
        <DataArray type="Float64" Name="rho">
          9.59304262e-01 9.51231133e-01 9.43983223e-01 9.37510264e-01 
        </DataArray>
        <DataArray type="Float64" Name="rhou">
          9.98031803e-03 8.90484608e-03 7.95390174e-03 6.98965067e-03 
        </DataArray>
        <DataArray type="Float64" Name="rhov">
          -1.40837270e-03 -1.21495049e-03 -8.82072578e-04 -6.10765711e-04 
        </DataArray>
        <DataArray type="Float64" Name="E">
          2.18369827e+05 2.16451503e+05 2.14730823e+05 2.13195277e+05 
        </DataArray>
      </PointData>
    </Piece>
    <Piece NumberOfPoints="4" NumberOfCells="3">
      <Points>
        <DataArray type="Float64" NumberOfComponents="3" format="ascii">
          1.27497971e-01 -5.08146733e-02 0.00000000e+00 
1.37849152e-01 -5.20747155e-02 0.00000000e+00 
1.48214847e-01 -5.32093942e-02 0.00000000e+00 
1.58592433e-01 -5.42296544e-02 0.00000000e+00 

        </DataArray>
      </Points>
      <Cells>
        <DataArray type="Int32" Name="connectivity" format="ascii">
0 1
1 2
2 3

        </DataArray>
        <DataArray type="Int32" Name="offsets" format="ascii">
2 4 6 
        </DataArray>
        <DataArray type="UInt8" Name="types" format="ascii">
3 3 3 
        </DataArray>
      </Cells>
      <PointData>
        <DataArray type="Float64" Name="rho">
          9.89827350e-01 9.78471491e-01 9.68317935e-01 9.59308315e-01 
        </DataArray>
        <DataArray type="Float64" Name="rhou">
          1.45141970e-02 1.33359676e-02 1.15296510e-02 1.00087489e-02 
        </DataArray>
        <DataArray type="Float64" Name="rhov">
          -2.29052557e-03 -2.04068231e-03 -1.42290219e-03 -1.33645056e-03 
        </DataArray>
        <DataArray type="Float64" Name="E">
          2.25634218e+05 2.22929237e+05 2.20513258e+05 2.18370757e+05 
        </DataArray>
      </PointData>
    </Piece>
    <Piece NumberOfPoints="4" NumberOfCells="3">
      <Points>
        <DataArray type="Float64" NumberOfComponents="3" format="ascii">
          9.65642184e-02 -4.61716652e-02 0.00000000e+00 
1.06852271e-01 -4.78802323e-02 0.00000000e+00 
1.17164567e-01 -4.94215861e-02 0.00000000e+00 
1.27497971e-01 -5.08146733e-02 0.00000000e+00 

        </DataArray>
      </Points>
      <Cells>
        <DataArray type="Int32" Name="connectivity" format="ascii">
0 1
1 2
2 3

        </DataArray>
        <DataArray type="Int32" Name="offsets" format="ascii">
2 4 6 
        </DataArray>
        <DataArray type="UInt8" Name="types" format="ascii">
3 3 3 
        </DataArray>
      </Cells>
      <PointData>
        <DataArray type="Float64" Name="rho">
          1.03319175e+00 1.01689887e+00 1.00247319e+00 9.89835709e-01 
        </DataArray>
        <DataArray type="Float64" Name="rhou">
          2.46918991e-02 1.81022834e-02 1.71900908e-02 1.28679127e-02 
        </DataArray>
        <DataArray type="Float64" Name="rhov">
          -9.36867192e-04 -7.43507230e-04 -1.56772361e-03 -1.61008565e-03 
        </DataArray>
        <DataArray type="Float64" Name="E">
          2.35988388e+05 2.32093597e+05 2.28650185e+05 2.25636233e+05 
        </DataArray>
      </PointData>
    </Piece>
  </UnstructuredGrid>
</VTKFile>
