<?xml version="1.0"?>
<VTKFile type="UnstructuredGrid" version="0.1" byte_order="LittleEndian">
  <UnstructuredGrid>
    <Piece NumberOfPoints="4" NumberOfCells="3">
      <Points>
        <DataArray type="Float64" NumberOfComponents="3" format="ascii">
          9.65642184e-02 -4.61716652e-02 0.00000000e+00 
9.26280916e-02 -4.54656407e-02 0.00000000e+00 
8.86965096e-02 -4.47326750e-02 0.00000000e+00 
8.47706869e-02 -4.39694971e-02 0.00000000e+00 

        </DataArray>
      </Points>
      <Cells>
        <DataArray type="Int32" Name="connectivity" format="ascii">
0 1
1 2
2 3

        </DataArray>
        <DataArray type="Int32" Name="offsets" format="ascii">
2 4 6 
        </DataArray>
        <DataArray type="UInt8" Name="types" format="ascii">
3 3 3 
        </DataArray>
      </Cells>
      <PointData>
        <DataArray type="Float64" Name="rho">
          1.03319719e+00 1.04010115e+00 1.04731996e+00 1.05498581e+00 
        </DataArray>
        <DataArray type="Float64" Name="rhou">
          2.82836953e-02 2.17850559e-02 2.44337393e-02 2.46068593e-02 
        </DataArray>
        <DataArray type="Float64" Name="rhov">
          -2.25470239e-03 -1.04379504e-03 -6.35728652e-04 -9.51890379e-04 
        </DataArray>
        <DataArray type="Float64" Name="E">
          2.35984872e+05 2.37635852e+05 2.39363769e+05 2.41199042e+05 
        </DataArray>
      </PointData>
    </Piece>
    <Piece NumberOfPoints="4" NumberOfCells="3">
      <Points>
        <DataArray type="Float64" NumberOfComponents="3" format="ascii">
          8.47706869e-02 -4.39694971e-02 0.00000000e+00 
8.08513016e-02 -4.31745499e-02 0.00000000e+00 
7.69388378e-02 -4.23462167e-02 0.00000000e+00 
7.30340332e-02 -4.14824970e-02 0.00000000e+00 

        </DataArray>
      </Points>
      <Cells>
        <DataArray type="Int32" Name="connectivity" format="ascii">
0 1
1 2
2 3

        </DataArray>
        <DataArray type="Int32" Name="offsets" format="ascii">
2 4 6 
        </DataArray>
        <DataArray type="UInt8" Name="types" format="ascii">
3 3 3 
        </DataArray>
      </Cells>
      <PointData>
        <DataArray type="Float64" Name="rho">
          1.05498461e+00 1.06307878e+00 1.07163675e+00 1.08072831e+00 
        </DataArray>
        <DataArray type="Float64" Name="rhou">
          2.46993656e-02 2.38724516e-02 2.24594519e-02 2.08891408e-02 
        </DataArray>
        <DataArray type="Float64" Name="rhov">
          -7.57346487e-04 -5.49422407e-04 3.57496997e-04 1.55183332e-03 
        </DataArray>
        <DataArray type="Float64" Name="E">
          2.41198777e+05 2.43138569e+05 2.45190770e+05 2.47372142e+05 
        </DataArray>
      </PointData>
    </Piece>
    <Piece NumberOfPoints="4" NumberOfCells="3">
      <Points>
        <DataArray type="Float64" NumberOfComponents="3" format="ascii">
          7.30340332e-02 -4.14824970e-02 0.00000000e+00 
6.91377968e-02 -4.05809283e-02 0.00000000e+00 
6.52511865e-02 -3.96387354e-02 0.00000000e+00 
6.13753870e-02 -3.86530459e-02 0.00000000e+00 

        </DataArray>
      </Points>
      <Cells>
        <DataArray type="Int32" Name="connectivity" format="ascii">
0 1
1 2
2 3

        </DataArray>
        <DataArray type="Int32" Name="offsets" format="ascii">
2 4 6 
        </DataArray>
        <DataArray type="UInt8" Name="types" format="ascii">
3 3 3 
        </DataArray>
      </Cells>
      <PointData>
        <DataArray type="Float64" Name="rho">
          1.08072891e+00 1.09043767e+00 1.10079537e+00 1.11186158e+00 
        </DataArray>
        <DataArray type="Float64" Name="rhou">
          2.10067391e-02 1.86530042e-02 1.45486445e-02 9.04250261e-03 
        </DataArray>
        <DataArray type="Float64" Name="rhov">
          1.38628923e-03 2.13236939e-03 4.21552841e-03 7.40699306e-03 
        </DataArray>
        <DataArray type="Float64" Name="E">
          2.47372304e+05 2.49703976e+05 2.52193160e+05 2.54854863e+05 
        </DataArray>
      </PointData>
    </Piece>
    <Piece NumberOfPoints="4" NumberOfCells="3">
      <Points>
        <DataArray type="Float64" NumberOfComponents="3" format="ascii">
          6.13753870e-02 -3.86530459e-02 0.00000000e+00 
5.75117208e-02 -3.76208089e-02 0.00000000e+00 
5.36618084e-02 -3.65384258e-02 0.00000000e+00 
4.98276278e-02 -3.54015976e-02 0.00000000e+00 

        </DataArray>
      </Points>
      <Cells>
        <DataArray type="Int32" Name="connectivity" format="ascii">
0 1
1 2
2 3

        </DataArray>
        <DataArray type="Int32" Name="offsets" format="ascii">
2 4 6 
        </DataArray>
        <DataArray type="UInt8" Name="types" format="ascii">
3 3 3 
        </DataArray>
      </Cells>
      <PointData>
        <DataArray type="Float64" Name="rho">
          1.11186185e+00 1.12371935e+00 1.13645297e+00 1.15019411e+00 
        </DataArray>
        <DataArray type="Float64" Name="rhou">
          8.98598118e-03 1.92390579e-03 -7.29573990e-03 -1.88223180e-02 
        </DataArray>
        <DataArray type="Float64" Name="rhov">
          7.17890021e-03 1.18829878e-02 1.99613326e-02 3.14327442e-02 
        </DataArray>
        <DataArray type="Float64" Name="E">
          2.54854927e+05 2.57710913e+05 2.60780583e+05 2.64096461e+05 
        </DataArray>
      </PointData>
    </Piece>
    <Piece NumberOfPoints="4" NumberOfCells="3">
      <Points>
        <DataArray type="Float64" NumberOfComponents="3" format="ascii">
          4.98276278e-02 -3.54015976e-02 0.00000000e+00 
4.60115410e-02 -3.42054628e-02 0.00000000e+00 
4.22164090e-02 -3.29444520e-02 0.00000000e+00 
3.84457745e-02 -3.16120051e-02 0.00000000e+00 

        </DataArray>
      </Points>
      <Cells>
        <DataArray type="Int32" Name="connectivity" format="ascii">
0 1
1 2
2 3

        </DataArray>
        <DataArray type="Int32" Name="offsets" format="ascii">
2 4 6 
        </DataArray>
        <DataArray type="UInt8" Name="types" format="ascii">
3 3 3 
        </DataArray>
      </Cells>
      <PointData>
        <DataArray type="Float64" Name="rho">
          1.15019403e+00 1.16504259e+00 1.18111075e+00 1.19858999e+00 
        </DataArray>
        <DataArray type="Float64" Name="rhou">
          -1.92774034e-02 -3.34214193e-02 -5.24184180e-02 -7.51444707e-02 
        </DataArray>
        <DataArray type="Float64" Name="rhov">
          3.12181694e-02 4.78936353e-02 7.55489796e-02 1.16010907e-01 
        </DataArray>
        <DataArray type="Float64" Name="E">
          2.64096408e+05 2.67686048e+05 2.71575351e+05 2.75812574e+05 
        </DataArray>
      </PointData>
    </Piece>
    <Piece NumberOfPoints="4" NumberOfCells="3">
      <Points>
        <DataArray type="Float64" NumberOfComponents="3" format="ascii">
          3.84457745e-02 -3.16120051e-02 0.00000000e+00 
3.47041376e-02 -3.02002355e-02 0.00000000e+00 
3.09973080e-02 -2.86995135e-02 0.00000000e+00 
2.73328498e-02 -2.70981900e-02 0.00000000e+00 

        </DataArray>
      </Points>
      <Cells>
        <DataArray type="Int32" Name="connectivity" format="ascii">
0 1
1 2
2 3

        </DataArray>
        <DataArray type="Int32" Name="offsets" format="ascii">
2 4 6 
        </DataArray>
        <DataArray type="UInt8" Name="types" format="ascii">
3 3 3 
        </DataArray>
      </Cells>
      <PointData>
        <DataArray type="Float64" Name="rho">
          1.19859021e+00 1.21766996e+00 1.23854360e+00 1.26158260e+00 
        </DataArray>
        <DataArray type="Float64" Name="rhou">
          -7.60966724e-02 -1.00254668e-01 -1.28903257e-01 -1.54319613e-01 
        </DataArray>
        <DataArray type="Float64" Name="rhov">
          1.15930056e-01 1.71481128e-01 2.57408786e-01 3.77711622e-01 
        </DataArray>
        <DataArray type="Float64" Name="E">
          2.75812491e+05 2.80449517e+05 2.85531106e+05 2.91151388e+05 
        </DataArray>
      </PointData>
    </Piece>
    <Piece NumberOfPoints="4" NumberOfCells="3">
      <Points>
        <DataArray type="Float64" NumberOfComponents="3" format="ascii">
          2.73328498e-02 -2.70981900e-02 0.00000000e+00 
2.37206947e-02 -2.53822580e-02 0.00000000e+00 
2.01744195e-02 -2.35341713e-02 0.00000000e+00 
1.67132635e-02 -2.15314496e-02 0.00000000e+00 

        </DataArray>
      </Points>
      <Cells>
        <DataArray type="Int32" Name="connectivity" format="ascii">
0 1
1 2
2 3

        </DataArray>
        <DataArray type="Int32" Name="offsets" format="ascii">
2 4 6 
        </DataArray>
        <DataArray type="UInt8" Name="types" format="ascii">
3 3 3 
        </DataArray>
      </Cells>
      <PointData>
        <DataArray type="Float64" Name="rho">
          1.26158747e+00 1.28713184e+00 1.31563736e+00 1.34844955e+00 
        </DataArray>
        <DataArray type="Float64" Name="rhou">
          -1.54702993e-01 -1.68776121e-01 -1.53110402e-01 -5.71321572e-02 
        </DataArray>
        <DataArray type="Float64" Name="rhov">
          3.78386864e-01 5.30248006e-01 7.40992254e-01 9.59444611e-01 
        </DataArray>
        <DataArray type="Float64" Name="E">
          2.91152288e+05 2.97405914e+05 3.04397180e+05 3.12454718e+05 
        </DataArray>
      </PointData>
    </Piece>
    <Piece NumberOfPoints="4" NumberOfCells="3">
      <Points>
        <DataArray type="Float64" NumberOfComponents="3" format="ascii">
          1.67132635e-02 -2.15314496e-02 0.00000000e+00 
1.33649679e-02 -1.93456318e-02 0.00000000e+00 
1.01706637e-02 -1.69409402e-02 0.00000000e+00 
7.19343964e-03 -1.42731192e-02 0.00000000e+00 

        </DataArray>
      </Points>
      <Cells>
        <DataArray type="Int32" Name="connectivity" format="ascii">
0 1
1 2
2 3

        </DataArray>
        <DataArray type="Int32" Name="offsets" format="ascii">
2 4 6 
        </DataArray>
        <DataArray type="UInt8" Name="types" format="ascii">
3 3 3 
        </DataArray>
      </Cells>
      <PointData>
        <DataArray type="Float64" Name="rho">
          1.34834368e+00 1.38819940e+00 1.43543116e+00 1.50053597e+00 
        </DataArray>
        <DataArray type="Float64" Name="rhou">
          -3.45575833e-02 1.13887464e-01 4.55199799e-01 8.75640265e-01 
        </DataArray>
        <DataArray type="Float64" Name="rhov">
          9.21180093e-01 1.12426750e+00 1.06948512e+00 5.19352900e-01 
        </DataArray>
        <DataArray type="Float64" Name="E">
          3.12430512e+05 3.22220800e+05 3.33815807e+05 3.49683432e+05 
        </DataArray>
      </PointData>
    </Piece>
    <Piece NumberOfPoints="4" NumberOfCells="3">
      <Points>
        <DataArray type="Float64" NumberOfComponents="3" format="ascii">
          7.19343964e-03 -1.42731192e-02 0.00000000e+00 
4.53082798e-03 -1.12927537e-02 0.00000000e+00 
2.33371323e-03 -7.95678515e-03 0.00000000e+00 
8.10639584e-04 -4.26717056e-03 0.00000000e+00 

        </DataArray>
      </Points>
      <Cells>
        <DataArray type="Int32" Name="connectivity" format="ascii">
0 1
1 2
2 3

        </DataArray>
        <DataArray type="Int32" Name="offsets" format="ascii">
2 4 6 
        </DataArray>
        <DataArray type="UInt8" Name="types" format="ascii">
3 3 3 
        </DataArray>
      </Cells>
      <PointData>
        <DataArray type="Float64" Name="rho">
          1.50105562e+00 1.57550768e+00 1.66464354e+00 1.73341993e+00 
        </DataArray>
        <DataArray type="Float64" Name="rhou">
          8.00620793e-01 9.30610362e-01 2.58709646e-01 -1.27640690e+00 
        </DataArray>
        <DataArray type="Float64" Name="rhov">
          6.18101337e-01 -5.11267381e-01 -1.73033226e+00 -1.81906539e+00 
        </DataArray>
        <DataArray type="Float64" Name="E">
          3.49810805e+05 3.67992509e+05 3.89637967e+05 4.06362220e+05 
        </DataArray>
      </PointData>
    </Piece>
    <Piece NumberOfPoints="4" NumberOfCells="3">
      <Points>
        <DataArray type="Float64" NumberOfComponents="3" format="ascii">
          8.10639584e-04 -4.26717056e-03 0.00000000e+00 
1.91366620e-04 -3.27450951e-04 0.00000000e+00 
6.40850572e-04 3.63462302e-03 0.00000000e+00 
2.03182548e-03 7.37539819e-03 0.00000000e+00 

        </DataArray>
      </Points>
      <Cells>
        <DataArray type="Int32" Name="connectivity" format="ascii">
0 1
1 2
2 3

        </DataArray>
        <DataArray type="Int32" Name="offsets" format="ascii">
2 4 6 
        </DataArray>
        <DataArray type="UInt8" Name="types" format="ascii">
3 3 3 
        </DataArray>
      </Cells>
      <PointData>
        <DataArray type="Float64" Name="rho">
          1.73184285e+00 1.75685857e+00 1.70649935e+00 1.61406808e+00 
        </DataArray>
        <DataArray type="Float64" Name="rhou">
          -1.15070037e+00 -1.88099548e+00 -8.36580717e-01 7.52089318e-01 
        </DataArray>
        <DataArray type="Float64" Name="rhov">
          -1.97714613e+00 3.63789523e-01 1.88383060e+00 1.51698380e+00 
        </DataArray>
        <DataArray type="Float64" Name="E">
          4.05980221e+05 4.11971903e+05 3.99656796e+05 3.77074019e+05 
        </DataArray>
      </PointData>
    </Piece>
    <Piece NumberOfPoints="4" NumberOfCells="3">
      <Points>
        <DataArray type="Float64" NumberOfComponents="3" format="ascii">
          2.03182548e-03 7.37539819e-03 0.00000000e+00 
4.13410179e-03 1.07714310e-02 0.00000000e+00 
6.73249783e-03 1.38076087e-02 0.00000000e+00 
9.66598373e-03 1.65232457e-02 0.00000000e+00 

        </DataArray>
      </Points>
      <Cells>
        <DataArray type="Int32" Name="connectivity" format="ascii">
0 1
1 2
2 3

        </DataArray>
        <DataArray type="Int32" Name="offsets" format="ascii">
2 4 6 
        </DataArray>
        <DataArray type="UInt8" Name="types" format="ascii">
3 3 3 
        </DataArray>
      </Cells>
      <PointData>
        <DataArray type="Float64" Name="rho">
          1.61443194e+00 1.50732227e+00 1.41808535e+00 1.35113210e+00 
        </DataArray>
        <DataArray type="Float64" Name="rhou">
          7.24325579e-01 1.15597605e+00 8.41002611e-01 3.76032866e-01 
        </DataArray>
        <DataArray type="Float64" Name="rhov">
          1.75177661e+00 6.31998431e-02 -1.07517458e+00 -1.40056105e+00 
        </DataArray>
        <DataArray type="Float64" Name="E">
          3.77165582e+05 3.51153947e+05 3.29445839e+05 3.13077464e+05 
        </DataArray>
      </PointData>
    </Piece>
    <Piece NumberOfPoints="4" NumberOfCells="3">
      <Points>
        <DataArray type="Float64" NumberOfComponents="3" format="ascii">
          9.66598373e-03 1.65232457e-02 0.00000000e+00 
1.28298048e-02 1.89677756e-02 0.00000000e+00 
1.61561389e-02 2.11867876e-02 0.00000000e+00 
1.96009967e-02 2.32173651e-02 0.00000000e+00 

        </DataArray>
      </Points>
      <Cells>
        <DataArray type="Int32" Name="connectivity" format="ascii">
0 1
1 2
2 3

        </DataArray>
        <DataArray type="Int32" Name="offsets" format="ascii">
2 4 6 
        </DataArray>
        <DataArray type="UInt8" Name="types" format="ascii">
3 3 3 
        </DataArray>
      </Cells>
      <PointData>
        <DataArray type="Float64" Name="rho">
          1.35092653e+00 1.29846289e+00 1.25949426e+00 1.22519219e+00 
        </DataArray>
        <DataArray type="Float64" Name="rhou">
          3.85630631e-01 -1.63553946e-02 -1.98200467e-01 -2.18887678e-01 
        </DataArray>
        <DataArray type="Float64" Name="rhov">
          -1.42514308e+00 -1.32064422e+00 -9.90560877e-01 -6.65111492e-01 
        </DataArray>
        <DataArray type="Float64" Name="E">
          3.13025216e+05 3.00200059e+05 2.90624275e+05 2.82221297e+05 
        </DataArray>
      </PointData>
    </Piece>
    <Piece NumberOfPoints="4" NumberOfCells="3">
      <Points>
        <DataArray type="Float64" NumberOfComponents="3" format="ascii">
          1.96009967e-02 2.32173651e-02 0.00000000e+00 
2.31348258e-02 2.50891000e-02 0.00000000e+00 
2.67372411e-02 2.68253610e-02 0.00000000e+00 
3.03938854e-02 2.84444261e-02 0.00000000e+00 

        </DataArray>
      </Points>
      <Cells>
        <DataArray type="Int32" Name="connectivity" format="ascii">
0 1
1 2
2 3

        </DataArray>
        <DataArray type="Int32" Name="offsets" format="ascii">
2 4 6 
        </DataArray>
        <DataArray type="UInt8" Name="types" format="ascii">
3 3 3 
        </DataArray>
      </Cells>
      <PointData>
        <DataArray type="Float64" Name="rho">
          1.22525599e+00 1.19614275e+00 1.17010692e+00 1.14652995e+00 
        </DataArray>
        <DataArray type="Float64" Name="rhou">
          -2.32022211e-01 -2.18642338e-01 -1.73478604e-01 -1.31275694e-01 
        </DataArray>
        <DataArray type="Float64" Name="rhov">
          -6.83370171e-01 -4.32252925e-01 -2.45581988e-01 -1.32775157e-01 
        </DataArray>
        <DataArray type="Float64" Name="E">
          2.82236230e+05 2.75123865e+05 2.68786252e+05 2.63064227e+05 
        </DataArray>
      </PointData>
    </Piece>
    <Piece NumberOfPoints="4" NumberOfCells="3">
      <Points>
        <DataArray type="Float64" NumberOfComponents="3" format="ascii">
          3.03938854e-02 2.84444261e-02 0.00000000e+00 
3.40943485e-02 2.99607720e-02 0.00000000e+00 
3.78307216e-02 3.13864015e-02 0.00000000e+00 
4.15969416e-02 3.27312648e-02 0.00000000e+00 

        </DataArray>
      </Points>
      <Cells>
        <DataArray type="Int32" Name="connectivity" format="ascii">
0 1
1 2
2 3

        </DataArray>
        <DataArray type="Int32" Name="offsets" format="ascii">
2 4 6 
        </DataArray>
        <DataArray type="UInt8" Name="types" format="ascii">
3 3 3 
        </DataArray>
      </Cells>
      <PointData>
        <DataArray type="Float64" Name="rho">
          1.14652821e+00 1.12519610e+00 1.10582102e+00 1.08815967e+00 
        </DataArray>
        <DataArray type="Float64" Name="rhou">
          -1.29482326e-01 -8.93468770e-02 -5.65560807e-02 -3.35776088e-02 
        </DataArray>
        <DataArray type="Float64" Name="rhov">
          -1.31323173e-01 -5.50801257e-02 -7.91751859e-03 1.75394178e-02 
        </DataArray>
        <DataArray type="Float64" Name="E">
          2.63064074e+05 2.57905542e+05 2.53231558e+05 2.48978801e+05 
        </DataArray>
      </PointData>
    </Piece>
    <Piece NumberOfPoints="4" NumberOfCells="3">
      <Points>
        <DataArray type="Float64" NumberOfComponents="3" format="ascii">
          4.15969416e-02 3.27312648e-02 0.00000000e+00 
4.53883260e-02 3.40034962e-02 0.00000000e+00 
4.92011942e-02 3.52098532e-02 0.00000000e+00 
5.30325845e-02 3.63560505e-02 0.00000000e+00 

        </DataArray>
      </Points>
      <Cells>
        <DataArray type="Int32" Name="connectivity" format="ascii">
0 1
1 2
2 3

        </DataArray>
        <DataArray type="Int32" Name="offsets" format="ascii">
2 4 6 
        </DataArray>
        <DataArray type="UInt8" Name="types" format="ascii">
3 3 3 
        </DataArray>
      </Cells>
      <PointData>
        <DataArray type="Float64" Name="rho">
          1.08816024e+00 1.07202310e+00 1.05722225e+00 1.04359885e+00 
        </DataArray>
        <DataArray type="Float64" Name="rhou">
          -3.24382520e-02 -1.29827806e-02 1.47363180e-03 1.08744354e-02 
        </DataArray>
        <DataArray type="Float64" Name="rhov">
          1.74447936e-02 3.11882485e-02 3.78913706e-02 3.90824625e-02 
        </DataArray>
        <DataArray type="Float64" Name="E">
          2.48979012e+05 2.45101822e+05 2.41551232e+05 2.38287255e+05 
        </DataArray>
      </PointData>
    </Piece>
    <Piece NumberOfPoints="4" NumberOfCells="3">
      <Points>
        <DataArray type="Float64" NumberOfComponents="3" format="ascii">
          5.30325845e-02 3.63560505e-02 0.00000000e+00 
5.68800643e-02 3.74470428e-02 0.00000000e+00 
6.07415959e-02 3.84872220e-02 0.00000000e+00 
6.46155030e-02 3.94803248e-02 0.00000000e+00 

        </DataArray>
      </Points>
      <Cells>
        <DataArray type="Int32" Name="connectivity" format="ascii">
0 1
1 2
2 3

        </DataArray>
        <DataArray type="Int32" Name="offsets" format="ascii">
2 4 6 
        </DataArray>
        <DataArray type="UInt8" Name="types" format="ascii">
3 3 3 
        </DataArray>
      </Cells>
      <PointData>
        <DataArray type="Float64" Name="rho">
          1.04359954e+00 1.03106510e+00 1.01948767e+00 1.00872650e+00 
        </DataArray>
        <DataArray type="Float64" Name="rhou">
          1.11920558e-02 1.82053432e-02 2.37616977e-02 2.76101999e-02 
        </DataArray>
        <DataArray type="Float64" Name="rhov">
          3.87557028e-02 3.71178519e-02 3.50851560e-02 3.18756220e-02 
        </DataArray>
        <DataArray type="Float64" Name="E">
          2.38287413e+05 2.35288564e+05 2.32521501e+05 2.29952071e+05 
        </DataArray>
      </PointData>
    </Piece>
    <Piece NumberOfPoints="4" NumberOfCells="3">
      <Points>
        <DataArray type="Float64" NumberOfComponents="3" format="ascii">
          6.46155030e-02 3.94803248e-02 0.00000000e+00 
6.85004294e-02 4.04294394e-02 0.00000000e+00 
7.23951608e-02 4.13374715e-02 0.00000000e+00 
7.62986317e-02 4.22072113e-02 0.00000000e+00 

        </DataArray>
      </Points>
      <Cells>
        <DataArray type="Int32" Name="connectivity" format="ascii">
0 1
1 2
2 3

        </DataArray>
        <DataArray type="Int32" Name="offsets" format="ascii">
2 4 6 
        </DataArray>
        <DataArray type="UInt8" Name="types" format="ascii">
3 3 3 
        </DataArray>
      </Cells>
      <PointData>
        <DataArray type="Float64" Name="rho">
          1.00872721e+00 9.98740734e-01 9.89439694e-01 9.80768505e-01 
        </DataArray>
        <DataArray type="Float64" Name="rhou">
          2.74301298e-02 2.93885777e-02 3.04987501e-02 3.06026438e-02 
        </DataArray>
        <DataArray type="Float64" Name="rhov">
          3.15769605e-02 2.76837280e-02 2.43174004e-02 2.10174974e-02 
        </DataArray>
        <DataArray type="Float64" Name="E">
          2.29952218e+05 2.27570369e+05 2.25353836e+05 2.23288689e+05 
        </DataArray>
      </PointData>
    </Piece>
    <Piece NumberOfPoints="4" NumberOfCells="3">
      <Points>
        <DataArray type="Float64" NumberOfComponents="3" format="ascii">
          7.62986317e-02 4.22072113e-02 0.00000000e+00 
8.02098960e-02 4.30411920e-02 0.00000000e+00 
8.41281936e-02 4.38414887e-02 0.00000000e+00 
8.80528912e-02 4.46097627e-02 0.00000000e+00 

        </DataArray>
      </Points>
      <Cells>
        <DataArray type="Int32" Name="connectivity" format="ascii">
0 1
1 2
2 3

        </DataArray>
        <DataArray type="Int32" Name="offsets" format="ascii">
2 4 6 
        </DataArray>
        <DataArray type="UInt8" Name="types" format="ascii">
3 3 3 
        </DataArray>
      </Cells>
      <PointData>
        <DataArray type="Float64" Name="rho">
          9.80767564e-01 9.72679876e-01 9.65081047e-01 9.57925226e-01 
        </DataArray>
        <DataArray type="Float64" Name="rhou">
          3.04559029e-02 3.04892583e-02 3.02236006e-02 2.91667651e-02 
        </DataArray>
        <DataArray type="Float64" Name="rhov">
          2.08541436e-02 1.82997452e-02 1.57953758e-02 1.31183332e-02 
        </DataArray>
        <DataArray type="Float64" Name="E">
          2.23288453e+05 2.21363771e+05 2.19556703e+05 2.17856135e+05 
        </DataArray>
      </PointData>
    </Piece>
    <Piece NumberOfPoints="4" NumberOfCells="3">
      <Points>
        <DataArray type="Float64" NumberOfComponents="3" format="ascii">
          8.80528912e-02 4.46097627e-02 0.00000000e+00 
9.19835642e-02 4.53475714e-02 0.00000000e+00 
9.59195644e-02 4.60564308e-02 0.00000000e+00 
9.98597518e-02 4.67394181e-02 0.00000000e+00 

        </DataArray>
      </Points>
      <Cells>
        <DataArray type="Int32" Name="connectivity" format="ascii">
0 1
1 2
2 3

        </DataArray>
        <DataArray type="Int32" Name="offsets" format="ascii">
2 4 6 
        </DataArray>
        <DataArray type="UInt8" Name="types" format="ascii">
3 3 3 
        </DataArray>
      </Cells>
      <PointData>
        <DataArray type="Float64" Name="rho">
          9.57925728e-01 9.51202941e-01 9.44900478e-01 9.38918829e-01 
        </DataArray>
        <DataArray type="Float64" Name="rhou">
          2.89730162e-02 2.75570309e-02 2.40895514e-02 2.86138917e-02 
        </DataArray>
        <DataArray type="Float64" Name="rhov">
          1.32812866e-02 1.07081865e-02 9.12798261e-03 8.63156817e-03 
        </DataArray>
        <DataArray type="Float64" Name="E">
          2.17856252e+05 2.16259818e+05 2.14763638e+05 2.13344655e+05 
        </DataArray>
      </PointData>
    </Piece>
    <Piece NumberOfPoints="4" NumberOfCells="3">
      <Points>
        <DataArray type="Float64" NumberOfComponents="3" format="ascii">
          9.98597518e-02 4.67394181e-02 0.00000000e+00 
1.10118888e-01 4.83862534e-02 0.00000000e+00 
1.20400399e-01 4.98730615e-02 0.00000000e+00 
1.30701363e-01 5.12186773e-02 0.00000000e+00 

        </DataArray>
      </Points>
      <Cells>
        <DataArray type="Int32" Name="connectivity" format="ascii">
0 1
1 2
2 3

        </DataArray>
        <DataArray type="Int32" Name="offsets" format="ascii">
2 4 6 
        </DataArray>
        <DataArray type="UInt8" Name="types" format="ascii">
3 3 3 
        </DataArray>
      </Cells>
      <PointData>
        <DataArray type="Float64" Name="rho">
          9.38846139e-01 9.24893919e-01 9.12856920e-01 9.02508714e-01 
        </DataArray>
        <DataArray type="Float64" Name="rhou">
          2.63434422e-02 1.81720795e-02 1.60458885e-02 1.25815557e-02 
        </DataArray>
        <DataArray type="Float64" Name="rhov">
          7.39579919e-03 4.17142655e-03 3.66586937e-03 2.99525017e-03 
        </DataArray>
        <DataArray type="Float64" Name="E">
          2.13328230e+05 2.10022390e+05 2.07173820e+05 2.04727543e+05 
        </DataArray>
      </PointData>
    </Piece>
    <Piece NumberOfPoints="4" NumberOfCells="3">
      <Points>
        <DataArray type="Float64" NumberOfComponents="3" format="ascii">
          1.30701363e-01 5.12186773e-02 0.00000000e+00 
1.41019106e-01 5.24347536e-02 0.00000000e+00 
1.51350453e-01 5.35292812e-02 0.00000000e+00 
1.61692888e-01 5.45137413e-02 0.00000000e+00 

        </DataArray>
      </Points>
      <Cells>
        <DataArray type="Int32" Name="connectivity" format="ascii">
0 1
1 2
2 3

        </DataArray>
        <DataArray type="Int32" Name="offsets" format="ascii">
2 4 6 
        </DataArray>
        <DataArray type="UInt8" Name="types" format="ascii">
3 3 3 
        </DataArray>
      </Cells>
      <PointData>
        <DataArray type="Float64" Name="rho">
          9.02505219e-01 8.93419282e-01 8.85571230e-01 8.78852865e-01 
        </DataArray>
        <DataArray type="Float64" Name="rhou">
          1.39638767e-02 1.20671298e-02 9.99177883e-03 8.72555507e-03 
        </DataArray>
        <DataArray type="Float64" Name="rhov">
          3.49479031e-03 2.56798176e-03 1.78969480e-03 1.61293325e-03 
        </DataArray>
        <DataArray type="Float64" Name="E">
          2.04726704e+05 2.02582202e+05 2.00732300e+05 1.99150399e+05 
        </DataArray>
      </PointData>
    </Piece>
    <Piece NumberOfPoints="4" NumberOfCells="3">
      <Points>
        <DataArray type="Float64" NumberOfComponents="3" format="ascii">
          1.61692888e-01 5.45137413e-02 0.00000000e+00 
1.72044471e-01 5.53969070e-02 0.00000000e+00 
1.82403773e-01 5.61845005e-02 0.00000000e+00 
1.92769483e-01 5.68825118e-02 0.00000000e+00 

        </DataArray>
      </Points>
      <Cells>
        <DataArray type="Int32" Name="connectivity" format="ascii">
0 1
1 2
2 3

        </DataArray>
        <DataArray type="Int32" Name="offsets" format="ascii">
2 4 6 
        </DataArray>
        <DataArray type="UInt8" Name="types" format="ascii">
3 3 3 
        </DataArray>
      </Cells>
      <PointData>
        <DataArray type="Float64" Name="rho">
          8.78850459e-01 8.73066962e-01 8.68127912e-01 8.63980855e-01 
        </DataArray>
        <DataArray type="Float64" Name="rhou">
          8.76226749e-03 7.63009531e-03 6.59461421e-03 5.69093514e-03 
        </DataArray>
        <DataArray type="Float64" Name="rhov">
          1.66453682e-03 1.29860117e-03 9.18913485e-04 6.89117256e-04 
        </DataArray>
        <DataArray type="Float64" Name="E">
          1.99149860e+05 1.97790034e+05 1.96630784e+05 1.95659201e+05 
        </DataArray>
      </PointData>
    </Piece>
    <Piece NumberOfPoints="4" NumberOfCells="3">
      <Points>
        <DataArray type="Float64" NumberOfComponents="3" format="ascii">
          1.92769483e-01 5.68825118e-02 0.00000000e+00 
2.03140482e-01 5.74972220e-02 0.00000000e+00 
2.13515818e-01 5.80338500e-02 0.00000000e+00 
2.23894730e-01 5.84962890e-02 0.00000000e+00 

        </DataArray>
      </Points>
      <Cells>
        <DataArray type="Int32" Name="connectivity" format="ascii">
0 1
1 2
2 3

        </DataArray>
        <DataArray type="Int32" Name="offsets" format="ascii">
2 4 6 
        </DataArray>
        <DataArray type="UInt8" Name="types" format="ascii">
3 3 3 
        </DataArray>
      </Cells>
      <PointData>
        <DataArray type="Float64" Name="rho">
          8.63980165e-01 8.60545555e-01 8.57739597e-01 8.55504164e-01 
        </DataArray>
        <DataArray type="Float64" Name="rhou">
          5.72771952e-03 5.00522531e-03 4.44813587e-03 3.98716720e-03 
        </DataArray>
        <DataArray type="Float64" Name="rhov">
          7.30515083e-04 6.39944313e-04 5.23527497e-04 4.00018245e-04 
        </DataArray>
        <DataArray type="Float64" Name="E">
          1.95659042e+05 1.94856050e+05 1.94201924e+05 1.93682825e+05 
        </DataArray>
      </PointData>
    </Piece>
    <Piece NumberOfPoints="4" NumberOfCells="3">
      <Points>
        <DataArray type="Float64" NumberOfComponents="3" format="ascii">
          2.23894730e-01 5.84962890e-02 0.00000000e+00 
2.34276548e-01 5.88882305e-02 0.00000000e+00 
2.44660646e-01 5.92139624e-02 0.00000000e+00 
2.55046517e-01 5.94772622e-02 0.00000000e+00 

        </DataArray>
      </Points>
      <Cells>
        <DataArray type="Int32" Name="connectivity" format="ascii">
0 1
1 2
2 3

        </DataArray>
        <DataArray type="Int32" Name="offsets" format="ascii">
2 4 6 
        </DataArray>
        <DataArray type="UInt8" Name="types" format="ascii">
3 3 3 
        </DataArray>
      </Cells>
      <PointData>
        <DataArray type="Float64" Name="rho">
          8.55504736e-01 8.53797715e-01 8.52574750e-01 8.51780575e-01 
        </DataArray>
        <DataArray type="Float64" Name="rhou">
          3.99485572e-03 3.47302036e-03 3.09463653e-03 2.86520858e-03 
        </DataArray>
        <DataArray type="Float64" Name="rhov">
          4.14388311e-04 3.35914828e-04 3.18293936e-04 3.16585767e-04 
        </DataArray>
        <DataArray type="Float64" Name="E">
          1.93682956e+05 1.93288714e+05 1.93008738e+05 1.92829993e+05 
        </DataArray>
      </PointData>
    </Piece>
    <Piece NumberOfPoints="4" NumberOfCells="3">
      <Points>
        <DataArray type="Float64" NumberOfComponents="3" format="ascii">
          2.55046517e-01 5.94772622e-02 0.00000000e+00 
2.65433758e-01 5.96804135e-02 0.00000000e+00 
2.75821954e-01 5.98256700e-02 0.00000000e+00 
2.86210775e-01 5.99167012e-02 0.00000000e+00 

        </DataArray>
      </Points>
      <Cells>
        <DataArray type="Int32" Name="connectivity" format="ascii">
0 1
1 2
2 3

        </DataArray>
        <DataArray type="Int32" Name="offsets" format="ascii">
2 4 6 
        </DataArray>
        <DataArray type="UInt8" Name="types" format="ascii">
3 3 3 
        </DataArray>
      </Cells>
      <PointData>
        <DataArray type="Float64" Name="rho">
          8.51780587e-01 8.51367012e-01 8.51309408e-01 8.51587423e-01 
        </DataArray>
        <DataArray type="Float64" Name="rhou">
          2.85948549e-03 2.57280960e-03 2.27916630e-03 2.01597149e-03 
        </DataArray>
        <DataArray type="Float64" Name="rhov">
          3.27883427e-04 2.32195631e-04 1.73770015e-04 2.07476266e-04 
        </DataArray>
        <DataArray type="Float64" Name="E">
          1.92829999e+05 1.92741138e+05 1.92736246e+05 1.92810306e+05 
        </DataArray>
      </PointData>
    </Piece>
    <Piece NumberOfPoints="4" NumberOfCells="3">
      <Points>
        <DataArray type="Float64" NumberOfComponents="3" format="ascii">
          2.86210775e-01 5.99167012e-02 0.00000000e+00 
2.96599895e-01 5.99572174e-02 0.00000000e+00 
3.06989133e-01 5.99487796e-02 0.00000000e+00 
3.17378193e-01 5.98919280e-02 0.00000000e+00 

        </DataArray>
      </Points>
      <Cells>
        <DataArray type="Int32" Name="connectivity" format="ascii">
0 1
1 2
2 3

        </DataArray>
        <DataArray type="Int32" Name="offsets" format="ascii">
2 4 6 
        </DataArray>
        <DataArray type="UInt8" Name="types" format="ascii">
3 3 3 
        </DataArray>
      </Cells>
      <PointData>
        <DataArray type="Float64" Name="rho">
          8.51586401e-01 8.52150968e-01 8.52955323e-01 8.53984374e-01 
        </DataArray>
        <DataArray type="Float64" Name="rhou">
          2.03488585e-03 1.91981465e-03 1.79393435e-03 1.61272081e-03 
        </DataArray>
        <DataArray type="Float64" Name="rhov">
          2.23843681e-04 2.50897745e-04 1.96550362e-04 1.22181906e-04 
        </DataArray>
        <DataArray type="Float64" Name="E">
          1.92810074e+05 1.92951550e+05 1.93149611e+05 1.93400620e+05 
        </DataArray>
      </PointData>
    </Piece>
    <Piece NumberOfPoints="4" NumberOfCells="3">
      <Points>
        <DataArray type="Float64" NumberOfComponents="3" format="ascii">
          3.17378193e-01 5.98919280e-02 0.00000000e+00 
3.27766895e-01 5.97884916e-02 0.00000000e+00 
3.38155061e-01 5.96415885e-02 0.00000000e+00 
3.48542601e-01 5.94538599e-02 0.00000000e+00 

        </DataArray>
      </Points>
      <Cells>
        <DataArray type="Int32" Name="connectivity" format="ascii">
0 1
1 2
2 3

        </DataArray>
        <DataArray type="Int32" Name="offsets" format="ascii">
2 4 6 
        </DataArray>
        <DataArray type="UInt8" Name="types" format="ascii">
3 3 3 
        </DataArray>
      </Cells>
      <PointData>
        <DataArray type="Float64" Name="rho">
          8.53984721e-01 8.55225700e-01 8.56658360e-01 8.58249807e-01 
        </DataArray>
        <DataArray type="Float64" Name="rhou">
          1.64222020e-03 1.44673685e-03 1.33052302e-03 1.28457289e-03 
        </DataArray>
        <DataArray type="Float64" Name="rhov">
          1.29843354e-04 1.18447627e-04 1.44058007e-04 1.64669891e-04 
        </DataArray>
        <DataArray type="Float64" Name="E">
          1.93400698e+05 1.93701520e+05 1.94047316e+05 1.94430399e+05 
        </DataArray>
      </PointData>
    </Piece>
    <Piece NumberOfPoints="4" NumberOfCells="3">
      <Points>
        <DataArray type="Float64" NumberOfComponents="3" format="ascii">
          3.48542601e-01 5.94538599e-02 0.00000000e+00 
3.58929336e-01 5.92265576e-02 0.00000000e+00 
3.69315147e-01 5.89610897e-02 0.00000000e+00 
3.79699975e-01 5.86590059e-02 0.00000000e+00 

        </DataArray>
      </Points>
      <Cells>
        <DataArray type="Int32" Name="connectivity" format="ascii">
0 1
1 2
2 3

        </DataArray>
        <DataArray type="Int32" Name="offsets" format="ascii">
2 4 6 
        </DataArray>
        <DataArray type="UInt8" Name="types" format="ascii">
3 3 3 
        </DataArray>
      </Cells>
      <PointData>
        <DataArray type="Float64" Name="rho">
          8.58250053e-01 8.59974752e-01 8.61822934e-01 8.63774642e-01 
        </DataArray>
        <DataArray type="Float64" Name="rhou">
          1.29690794e-03 1.17349251e-03 1.08029110e-03 1.03275377e-03 
        </DataArray>
        <DataArray type="Float64" Name="rhov">
          1.61579502e-04 1.25448685e-04 1.17909984e-04 1.16252257e-04 
        </DataArray>
        <DataArray type="Float64" Name="E">
          1.94430456e+05 1.94844848e+05 1.95288174e+05 1.95755761e+05 
        </DataArray>
      </PointData>
    </Piece>
    <Piece NumberOfPoints="4" NumberOfCells="3">
      <Points>
        <DataArray type="Float64" NumberOfComponents="3" format="ascii">
          3.79699975e-01 5.86590059e-02 0.00000000e+00 
3.90083700e-01 5.83211333e-02 0.00000000e+00 
4.00466233e-01 5.79482466e-02 0.00000000e+00 
4.10847515e-01 5.75418957e-02 0.00000000e+00 

        </DataArray>
      </Points>
      <Cells>
        <DataArray type="Int32" Name="connectivity" format="ascii">
0 1
1 2
2 3

        </DataArray>
        <DataArray type="Int32" Name="offsets" format="ascii">
2 4 6 
        </DataArray>
        <DataArray type="UInt8" Name="types" format="ascii">
3 3 3 
        </DataArray>
      </Cells>
      <PointData>
        <DataArray type="Float64" Name="rho">
          8.63774654e-01 8.65812937e-01 8.67927784e-01 8.70112544e-01 
        </DataArray>
        <DataArray type="Float64" Name="rhou">
          1.02505073e-03 9.61341129e-04 8.83182718e-04 8.07823185e-04 
        </DataArray>
        <DataArray type="Float64" Name="rhov">
          1.18693155e-04 8.82372043e-05 6.52728851e-05 7.05045417e-05 
        </DataArray>
        <DataArray type="Float64" Name="E">
          1.95755765e+05 1.96243644e+05 1.96749440e+05 1.97271531e+05 
        </DataArray>
      </PointData>
    </Piece>
    <Piece NumberOfPoints="4" NumberOfCells="3">
      <Points>
        <DataArray type="Float64" NumberOfComponents="3" format="ascii">
          4.10847515e-01 5.75418957e-02 0.00000000e+00 
4.21227485e-01 5.71038015e-02 0.00000000e+00 
4.31606144e-01 5.66351078e-02 0.00000000e+00 
4.41983402e-01 5.61364293e-02 0.00000000e+00 

        </DataArray>
      </Points>
      <Cells>
        <DataArray type="Int32" Name="connectivity" format="ascii">
0 1
1 2
2 3

        </DataArray>
        <DataArray type="Int32" Name="offsets" format="ascii">
2 4 6 
        </DataArray>
        <DataArray type="UInt8" Name="types" format="ascii">
3 3 3 
        </DataArray>
      </Cells>
      <PointData>
        <DataArray type="Float64" Name="rho">
          8.70112343e-01 8.72351346e-01 8.74632870e-01 8.76947173e-01 
        </DataArray>
        <DataArray type="Float64" Name="rhou">
          8.24380270e-04 7.73250360e-04 7.34665285e-04 6.98050982e-04 
        </DataArray>
        <DataArray type="Float64" Name="rhov">
          7.39369083e-05 7.38993176e-05 6.41183387e-05 4.29169982e-05 
        </DataArray>
        <DataArray type="Float64" Name="E">
          1.97271485e+05 1.97806206e+05 1.98350817e+05 1.98903035e+05 
        </DataArray>
      </PointData>
    </Piece>
    <Piece NumberOfPoints="4" NumberOfCells="3">
      <Points>
        <DataArray type="Float64" NumberOfComponents="3" format="ascii">
          4.41983402e-01 5.61364293e-02 0.00000000e+00 
4.52359200e-01 5.56085743e-02 0.00000000e+00 
4.62733537e-01 5.50529286e-02 0.00000000e+00 
4.73106444e-01 5.44707514e-02 0.00000000e+00 

        </DataArray>
      </Points>
      <Cells>
        <DataArray type="Int32" Name="connectivity" format="ascii">
0 1
1 2
2 3

        </DataArray>
        <DataArray type="Int32" Name="offsets" format="ascii">
2 4 6 
        </DataArray>
        <DataArray type="UInt8" Name="types" format="ascii">
3 3 3 
        </DataArray>
      </Cells>
      <PointData>
        <DataArray type="Float64" Name="rho">
          8.76947316e-01 8.79289901e-01 8.81654269e-01 8.84031900e-01 
        </DataArray>
        <DataArray type="Float64" Name="rhou">
          6.95039372e-04 6.39503463e-04 5.99871944e-04 5.76792632e-04 
        </DataArray>
        <DataArray type="Float64" Name="rhov">
          4.35642221e-05 3.59415207e-05 3.62090145e-05 3.62393423e-05 
        </DataArray>
        <DataArray type="Float64" Name="E">
          1.98903068e+05 1.99461804e+05 2.00025519e+05 2.00592223e+05 
        </DataArray>
      </PointData>
    </Piece>
    <Piece NumberOfPoints="4" NumberOfCells="3">
      <Points>
        <DataArray type="Float64" NumberOfComponents="3" format="ascii">
          4.73106444e-01 5.44707514e-02 0.00000000e+00 
4.83477861e-01 5.38627952e-02 0.00000000e+00 
4.93847787e-01 5.32294959e-02 0.00000000e+00 
5.04216135e-01 5.25716618e-02 0.00000000e+00 

        </DataArray>
      </Points>
      <Cells>
        <DataArray type="Int32" Name="connectivity" format="ascii">
0 1
1 2
2 3

        </DataArray>
        <DataArray type="Int32" Name="offsets" format="ascii">
2 4 6 
        </DataArray>
        <DataArray type="UInt8" Name="types" format="ascii">
3 3 3 
        </DataArray>
      </Cells>
      <PointData>
        <DataArray type="Float64" Name="rho">
          8.84031887e-01 8.86415902e-01 8.88800911e-01 8.91185793e-01 
        </DataArray>
        <DataArray type="Float64" Name="rhou">
          5.69161807e-04 5.48482733e-04 5.13595533e-04 4.72168699e-04 
        </DataArray>
        <DataArray type="Float64" Name="rhov">
          3.80561256e-05 2.64619579e-05 1.13808147e-05 8.54835227e-06 
        </DataArray>
        <DataArray type="Float64" Name="E">
          2.00592220e+05 2.01160304e+05 2.01728510e+05 2.02296545e+05 
        </DataArray>
      </PointData>
    </Piece>
    <Piece NumberOfPoints="4" NumberOfCells="3">
      <Points>
        <DataArray type="Float64" NumberOfComponents="3" format="ascii">
          5.04216135e-01 5.25716618e-02 0.00000000e+00 
5.14582992e-01 5.18903993e-02 0.00000000e+00 
5.24948359e-01 5.11864908e-02 0.00000000e+00 
5.35312176e-01 5.04603274e-02 0.00000000e+00 

        </DataArray>
      </Points>
      <Cells>
        <DataArray type="Int32" Name="connectivity" format="ascii">
0 1
1 2
2 3

        </DataArray>
        <DataArray type="Int32" Name="offsets" format="ascii">
2 4 6 
        </DataArray>
        <DataArray type="UInt8" Name="types" format="ascii">
3 3 3 
        </DataArray>
      </Cells>
      <PointData>
        <DataArray type="Float64" Name="rho">
          8.91185708e-01 8.93565061e-01 8.95934433e-01 8.98290367e-01 
        </DataArray>
        <DataArray type="Float64" Name="rhou">
          4.80698528e-04 4.54761042e-04 4.35219599e-04 4.16036576e-04 
        </DataArray>
        <DataArray type="Float64" Name="rhov">
          1.07157345e-05 1.01367036e-05 4.48523790e-06 -7.59243306e-06 
        </DataArray>
        <DataArray type="Float64" Name="E">
          2.02296525e+05 2.02863130e+05 2.03427269e+05 2.03988135e+05 
        </DataArray>
      </PointData>
    </Piece>
    <Piece NumberOfPoints="4" NumberOfCells="3">
      <Points>
        <DataArray type="Float64" NumberOfComponents="3" format="ascii">
          5.35312176e-01 5.04603274e-02 0.00000000e+00 
5.45674443e-01 4.97124642e-02 0.00000000e+00 
5.56035221e-01 4.89437394e-02 0.00000000e+00 
5.66394389e-01 4.81546782e-02 0.00000000e+00 

        </DataArray>
      </Points>
      <Cells>
        <DataArray type="Int32" Name="connectivity" format="ascii">
0 1
1 2
2 3

        </DataArray>
        <DataArray type="Int32" Name="offsets" format="ascii">
2 4 6 
        </DataArray>
        <DataArray type="UInt8" Name="types" format="ascii">
3 3 3 
        </DataArray>
      </Cells>
      <PointData>
        <DataArray type="Float64" Name="rho">
          8.98290412e-01 9.00632276e-01 9.02957194e-01 9.05262343e-01 
        </DataArray>
        <DataArray type="Float64" Name="rhou">
          4.11752259e-04 3.85389983e-04 3.67039521e-04 3.55348121e-04 
        </DataArray>
        <DataArray type="Float64" Name="rhov">
          -7.30482578e-06 -8.27724688e-06 -9.26410992e-06 -1.37587509e-05 
        </DataArray>
        <DataArray type="Float64" Name="E">
          2.03988145e+05 2.04545577e+05 2.05098904e+05 2.05647474e+05 
        </DataArray>
      </PointData>
    </Piece>
    <Piece NumberOfPoints="4" NumberOfCells="3">
      <Points>
        <DataArray type="Float64" NumberOfComponents="3" format="ascii">
          5.66394389e-01 4.81546782e-02 0.00000000e+00 
5.76752067e-01 4.73455116e-02 0.00000000e+00 
5.87108195e-01 4.65166979e-02 0.00000000e+00 
5.97462773e-01 4.56690118e-02 0.00000000e+00 

        </DataArray>
      </Points>
      <Cells>
        <DataArray type="Int32" Name="connectivity" format="ascii">
0 1
1 2
2 3

        </DataArray>
        <DataArray type="Int32" Name="offsets" format="ascii">
2 4 6 
        </DataArray>
        <DataArray type="UInt8" Name="types" format="ascii">
3 3 3 
        </DataArray>
      </Cells>
      <PointData>
        <DataArray type="Float64" Name="rho">
          9.05262372e-01 9.07546128e-01 9.09808235e-01 9.12047859e-01 
        </DataArray>
        <DataArray type="Float64" Name="rhou">
          3.54654016e-04 3.34229201e-04 3.13087198e-04 2.96978931e-04 
        </DataArray>
        <DataArray type="Float64" Name="rhov">
          -1.34158998e-05 -2.23193414e-05 -2.61382860e-05 -2.51944434e-05 
        </DataArray>
        <DataArray type="Float64" Name="E">
          2.05647481e+05 2.06190915e+05 2.06729148e+05 2.07261981e+05 
        </DataArray>
      </PointData>
    </Piece>
    <Piece NumberOfPoints="4" NumberOfCells="3">
      <Points>
        <DataArray type="Float64" NumberOfComponents="3" format="ascii">
          5.97462773e-01 4.56690118e-02 0.00000000e+00 
6.07815862e-01 4.48031016e-02 0.00000000e+00 
6.18167400e-01 4.39192392e-02 0.00000000e+00 
6.28517449e-01 4.30175588e-02 0.00000000e+00 

        </DataArray>
      </Points>
      <Cells>
        <DataArray type="Int32" Name="connectivity" format="ascii">
0 1
1 2
2 3

        </DataArray>
        <DataArray type="Int32" Name="offsets" format="ascii">
2 4 6 
        </DataArray>
        <DataArray type="UInt8" Name="types" format="ascii">
3 3 3 
        </DataArray>
      </Cells>
      <PointData>
        <DataArray type="Float64" Name="rho">
          9.12047796e-01 9.14263123e-01 9.16452417e-01 9.18615914e-01 
        </DataArray>
        <DataArray type="Float64" Name="rhou">
          2.95020503e-04 2.86196394e-04 2.74040740e-04 2.56600480e-04 
        </DataArray>
        <DataArray type="Float64" Name="rhov">
          -2.42640139e-05 -2.49622133e-05 -3.08489438e-05 -3.64893876e-05 
        </DataArray>
        <DataArray type="Float64" Name="E">
          2.07261967e+05 2.07788983e+05 2.08309787e+05 2.08824430e+05 
        </DataArray>
      </PointData>
    </Piece>
    <Piece NumberOfPoints="4" NumberOfCells="3">
      <Points>
        <DataArray type="Float64" NumberOfComponents="3" format="ascii">
          6.28517449e-01 4.30175588e-02 0.00000000e+00 
6.38865948e-01 4.20984775e-02 0.00000000e+00 
6.49212897e-01 4.11624312e-02 0.00000000e+00 
6.59558356e-01 4.02097441e-02 0.00000000e+00 

        </DataArray>
      </Points>
      <Cells>
        <DataArray type="Int32" Name="connectivity" format="ascii">
0 1
1 2
2 3

        </DataArray>
        <DataArray type="Int32" Name="offsets" format="ascii">
2 4 6 
        </DataArray>
        <DataArray type="UInt8" Name="types" format="ascii">
3 3 3 
        </DataArray>
      </Cells>
      <PointData>
        <DataArray type="Float64" Name="rho">
          9.18615906e-01 9.20753501e-01 9.22864429e-01 9.24948454e-01 
        </DataArray>
        <DataArray type="Float64" Name="rhou">
          2.57562367e-04 2.44486493e-04 2.33237579e-04 2.21135229e-04 
        </DataArray>
        <DataArray type="Float64" Name="rhov">
          -3.54669124e-05 -3.63978479e-05 -3.85071649e-05 -4.09895092e-05 
        </DataArray>
        <DataArray type="Float64" Name="E">
          2.08824428e+05 2.09332887e+05 2.09834988e+05 2.10330679e+05 
        </DataArray>
      </PointData>
    </Piece>
    <Piece NumberOfPoints="4" NumberOfCells="3">
      <Points>
        <DataArray type="Float64" NumberOfComponents="3" format="ascii">
          6.59558356e-01 4.02097441e-02 0.00000000e+00 
6.69902325e-01 3.92407738e-02 0.00000000e+00 
6.80244744e-01 3.82556282e-02 0.00000000e+00 
6.90585554e-01 3.72543521e-02 0.00000000e+00 

        </DataArray>
      </Points>
      <Cells>
        <DataArray type="Int32" Name="connectivity" format="ascii">
0 1
1 2
2 3

        </DataArray>
        <DataArray type="Int32" Name="offsets" format="ascii">
2 4 6 
        </DataArray>
        <DataArray type="UInt8" Name="types" format="ascii">
3 3 3 
        </DataArray>
      </Cells>
      <PointData>
        <DataArray type="Float64" Name="rho">
          9.24948437e-01 9.27005636e-01 9.29034939e-01 9.31037218e-01 
        </DataArray>
        <DataArray type="Float64" Name="rhou">
          2.17890855e-04 2.12504572e-04 2.03461773e-04 1.88332570e-04 
        </DataArray>
        <DataArray type="Float64" Name="rhov">
          -3.99462421e-05 -4.01344883e-05 -4.48775346e-05 -4.87952204e-05 
        </DataArray>
        <DataArray type="Float64" Name="E">
          2.10330676e+05 2.10819979e+05 2.11302654e+05 2.11778905e+05 
        </DataArray>
      </PointData>
    </Piece>
    <Piece NumberOfPoints="4" NumberOfCells="3">
      <Points>
        <DataArray type="Float64" NumberOfComponents="3" format="ascii">
          6.90585554e-01 3.72543521e-02 0.00000000e+00 
7.00924933e-01 3.62373814e-02 0.00000000e+00 
7.11262703e-01 3.52048986e-02 0.00000000e+00 
7.21598923e-01 3.41568366e-02 0.00000000e+00 

        </DataArray>
      </Points>
      <Cells>
        <DataArray type="Int32" Name="connectivity" format="ascii">
0 1
1 2
2 3

        </DataArray>
        <DataArray type="Int32" Name="offsets" format="ascii">
2 4 6 
        </DataArray>
        <DataArray type="UInt8" Name="types" format="ascii">
3 3 3 
        </DataArray>
      </Cells>
      <PointData>
        <DataArray type="Float64" Name="rho">
          9.31037175e-01 9.33012920e-01 9.34960988e-01 9.36882097e-01 
        </DataArray>
        <DataArray type="Float64" Name="rhou">
          1.86917199e-04 1.81328324e-04 1.75546146e-04 1.61845750e-04 
        </DataArray>
        <DataArray type="Float64" Name="rhov">
          -4.76683472e-05 -4.53255291e-05 -4.89152063e-05 -5.39352008e-05 
        </DataArray>
        <DataArray type="Float64" Name="E">
          2.11778896e+05 2.12248839e+05 2.12712221e+05 2.13169211e+05 
        </DataArray>
      </PointData>
    </Piece>
    <Piece NumberOfPoints="4" NumberOfCells="3">
      <Points>
        <DataArray type="Float64" NumberOfComponents="3" format="ascii">
          7.21598923e-01 3.41568366e-02 0.00000000e+00 
7.31933594e-01 3.30936089e-02 0.00000000e+00 
7.42266715e-01 3.20154354e-02 0.00000000e+00 
7.52598286e-01 3.09220124e-02 0.00000000e+00 

        </DataArray>
      </Points>
      <Cells>
        <DataArray type="Int32" Name="connectivity" format="ascii">
0 1
1 2
2 3

        </DataArray>
        <DataArray type="Int32" Name="offsets" format="ascii">
2 4 6 
        </DataArray>
        <DataArray type="UInt8" Name="types" format="ascii">
3 3 3 
        </DataArray>
      </Cells>
      <PointData>
        <DataArray type="Float64" Name="rho">
          9.36882077e-01 9.38777336e-01 9.40645443e-01 9.42486984e-01 
        </DataArray>
        <DataArray type="Float64" Name="rhou">
          1.59150497e-04 1.54334759e-04 1.50758466e-04 1.39611494e-04 
        </DataArray>
        <DataArray type="Float64" Name="rhov">
          -5.29550851e-05 -4.85637130e-05 -5.10589472e-05 -5.64358579e-05 
        </DataArray>
        <DataArray type="Float64" Name="E">
          2.13169206e+05 2.13620062e+05 2.14064496e+05 2.14502648e+05 
        </DataArray>
      </PointData>
    </Piece>
    <Piece NumberOfPoints="4" NumberOfCells="3">
      <Points>
        <DataArray type="Float64" NumberOfComponents="3" format="ascii">
          7.52598286e-01 3.09220124e-02 0.00000000e+00 
7.62928188e-01 2.98135038e-02 0.00000000e+00 
7.73256481e-01 2.86899786e-02 0.00000000e+00 
7.83583105e-01 2.75512449e-02 0.00000000e+00 

        </DataArray>
      </Points>
      <Cells>
        <DataArray type="Int32" Name="connectivity" format="ascii">
0 1
1 2
2 3

        </DataArray>
        <DataArray type="Int32" Name="offsets" format="ascii">
2 4 6 
        </DataArray>
        <DataArray type="UInt8" Name="types" format="ascii">
3 3 3 
        </DataArray>
      </Cells>
      <PointData>
        <DataArray type="Float64" Name="rho">
          9.42486979e-01 9.44303178e-01 9.46093270e-01 9.47858016e-01 
        </DataArray>
        <DataArray type="Float64" Name="rhou">
          1.36993612e-04 1.32444223e-04 1.27738525e-04 1.17401627e-04 
        </DataArray>
        <DataArray type="Float64" Name="rhov">
          -5.55064430e-05 -5.32963094e-05 -5.56972346e-05 -5.91451414e-05 
        </DataArray>
        <DataArray type="Float64" Name="E">
          2.14502647e+05 2.14934801e+05 2.15360791e+05 2.15780793e+05 
        </DataArray>
      </PointData>
    </Piece>
    <Piece NumberOfPoints="4" NumberOfCells="3">
      <Points>
        <DataArray type="Float64" NumberOfComponents="3" format="ascii">
          7.83583105e-01 2.75512449e-02 0.00000000e+00 
7.93908060e-01 2.63975188e-02 0.00000000e+00 
8.04231405e-01 2.52291560e-02 0.00000000e+00 
8.14553022e-01 2.40457114e-02 0.00000000e+00 

        </DataArray>
      </Points>
      <Cells>
        <DataArray type="Int32" Name="connectivity" format="ascii">
0 1
1 2
2 3

        </DataArray>
        <DataArray type="Int32" Name="offsets" format="ascii">
2 4 6 
        </DataArray>
        <DataArray type="UInt8" Name="types" format="ascii">
3 3 3 
        </DataArray>
      </Cells>
      <PointData>
        <DataArray type="Float64" Name="rho">
          9.47858022e-01 9.49598254e-01 9.51313938e-01 9.53004467e-01 
        </DataArray>
        <DataArray type="Float64" Name="rhou">
          1.20015349e-04 1.08334779e-04 1.06420586e-04 1.06540246e-04 
        </DataArray>
        <DataArray type="Float64" Name="rhov">
          -5.95018764e-05 -5.58514136e-05 -5.46918042e-05 -6.14066724e-05 
        </DataArray>
        <DataArray type="Float64" Name="E">
          2.15780794e+05 2.16195003e+05 2.16603413e+05 2.17005887e+05 
        </DataArray>
      </PointData>
    </Piece>
    <Piece NumberOfPoints="4" NumberOfCells="3">
      <Points>
        <DataArray type="Float64" NumberOfComponents="3" format="ascii">
          8.14553022e-01 2.40457114e-02 0.00000000e+00 
8.24872792e-01 2.28467938e-02 0.00000000e+00 
8.35190892e-01 2.16327831e-02 0.00000000e+00 
8.45507145e-01 2.04038676e-02 0.00000000e+00 

        </DataArray>
      </Points>
      <Cells>
        <DataArray type="Int32" Name="connectivity" format="ascii">
0 1
1 2
2 3

        </DataArray>
        <DataArray type="Int32" Name="offsets" format="ascii">
2 4 6 
        </DataArray>
        <DataArray type="UInt8" Name="types" format="ascii">
3 3 3 
        </DataArray>
      </Cells>
      <PointData>
        <DataArray type="Float64" Name="rho">
          9.53004511e-01 9.54671623e-01 9.56315665e-01 9.57936834e-01 
        </DataArray>
        <DataArray type="Float64" Name="rhou">
          1.00560023e-04 9.12860481e-05 8.32610282e-05 8.29399563e-05 
        </DataArray>
        <DataArray type="Float64" Name="rhov">
          -6.16628755e-05 -6.16930634e-05 -5.89109677e-05 -5.49777277e-05 
        </DataArray>
        <DataArray type="Float64" Name="E">
          2.17005897e+05 2.17402831e+05 2.17794297e+05 2.18180334e+05 
        </DataArray>
      </PointData>
    </Piece>
    <Piece NumberOfPoints="4" NumberOfCells="3">
      <Points>
        <DataArray type="Float64" NumberOfComponents="3" format="ascii">
          8.45507145e-01 2.04038676e-02 0.00000000e+00 
8.55821550e-01 1.91591792e-02 0.00000000e+00 
8.66134048e-01 1.78987328e-02 0.00000000e+00 
8.76444638e-01 1.66228991e-02 0.00000000e+00 

        </DataArray>
      </Points>
      <Cells>
        <DataArray type="Int32" Name="connectivity" format="ascii">
0 1
1 2
2 3

        </DataArray>
        <DataArray type="Int32" Name="offsets" format="ascii">
2 4 6 
        </DataArray>
        <DataArray type="UInt8" Name="types" format="ascii">
3 3 3 
        </DataArray>
      </Cells>
      <PointData>
        <DataArray type="Float64" Name="rho">
          9.57936949e-01 9.59533901e-01 9.61110653e-01 9.62663697e-01 
        </DataArray>
        <DataArray type="Float64" Name="rhou">
          1.04818372e-04 7.17528238e-05 6.92929287e-05 8.47433266e-05 
        </DataArray>
        <DataArray type="Float64" Name="rhov">
          -5.86854434e-05 -6.64056360e-05 -6.37821733e-05 -8.19145549e-05 
        </DataArray>
        <DataArray type="Float64" Name="E">
          2.18180360e+05 2.18560654e+05 2.18936103e+05 2.19305892e+05 
        </DataArray>
      </PointData>
    </Piece>
    <Piece NumberOfPoints="4" NumberOfCells="3">
      <Points>
        <DataArray type="Float64" NumberOfComponents="3" format="ascii">
          8.76444638e-01 1.66228991e-02 0.00000000e+00 
8.86753201e-01 1.53310820e-02 0.00000000e+00 
8.97059798e-01 1.40233757e-02 0.00000000e+00 
9.07364249e-01 1.26988320e-02 0.00000000e+00 

        </DataArray>
      </Points>
      <Cells>
        <DataArray type="Int32" Name="connectivity" format="ascii">
0 1
1 2
2 3

        </DataArray>
        <DataArray type="Int32" Name="offsets" format="ascii">
2 4 6 
        </DataArray>
        <DataArray type="UInt8" Name="types" format="ascii">
3 3 3 
        </DataArray>
      </Cells>
      <PointData>
        <DataArray type="Float64" Name="rho">
          9.62663236e-01 9.64199438e-01 9.65711137e-01 9.67217581e-01 
        </DataArray>
        <DataArray type="Float64" Name="rhou">
          -9.75141804e-06 8.40542048e-05 2.63111427e-05 -2.91067150e-05 
        </DataArray>
        <DataArray type="Float64" Name="rhov">
          -7.37592326e-05 -7.71953164e-05 -9.66575132e-05 4.89159909e-06 
        </DataArray>
        <DataArray type="Float64" Name="E">
          2.19305787e+05 2.19671463e+05 2.20031267e+05 2.20389571e+05 
        </DataArray>
      </PointData>
    </Piece>
    <Piece NumberOfPoints="4" NumberOfCells="3">
      <Points>
        <DataArray type="Float64" NumberOfComponents="3" format="ascii">
          9.07364249e-01 1.26988320e-02 0.00000000e+00 
9.17666554e-01 1.13577880e-02 0.00000000e+00 
9.27966774e-01 1.00004105e-02 0.00000000e+00 
9.38264549e-01 8.62528384e-03 0.00000000e+00 

        </DataArray>
      </Points>
      <Cells>
        <DataArray type="Int32" Name="connectivity" format="ascii">
0 1
1 2
2 3

        </DataArray>
        <DataArray type="Int32" Name="offsets" format="ascii">
2 4 6 
        </DataArray>
        <DataArray type="UInt8" Name="types" format="ascii">
3 3 3 
        </DataArray>
      </Cells>
      <PointData>
        <DataArray type="Float64" Name="rho">
          9.67222576e-01 9.68680298e-01 9.70164194e-01 9.71498884e-01 
        </DataArray>
        <DataArray type="Float64" Name="rhou">
          8.02522674e-04 -2.33782649e-04 3.31112196e-04 7.66127757e-04 
        </DataArray>
        <DataArray type="Float64" Name="rhov">
          -6.64267646e-05 -1.20525570e-04 -4.75579131e-05 -1.50314162e-03 
        </DataArray>
        <DataArray type="Float64" Name="E">
          2.20390708e+05 2.20737614e+05 2.21090218e+05 2.21408630e+05 
        </DataArray>
      </PointData>
    </Piece>
    <Piece NumberOfPoints="4" NumberOfCells="3">
      <Points>
        <DataArray type="Float64" NumberOfComponents="3" format="ascii">
          9.38264549e-01 8.62528384e-03 0.00000000e+00 
9.48560059e-01 7.23283459e-03 0.00000000e+00 
9.58853185e-01 5.82307298e-03 0.00000000e+00 
9.69143867e-01 4.39538015e-03 0.00000000e+00 

        </DataArray>
      </Points>
      <Cells>
        <DataArray type="Int32" Name="connectivity" format="ascii">
0 1
1 2
2 3

        </DataArray>
        <DataArray type="Int32" Name="offsets" format="ascii">
2 4 6 
        </DataArray>
        <DataArray type="UInt8" Name="types" format="ascii">
3 3 3 
        </DataArray>
      </Cells>
      <PointData>
        <DataArray type="Float64" Name="rho">
          9.71450119e-01 9.73114588e-01 9.74357092e-01 9.77084362e-01 
        </DataArray>
        <DataArray type="Float64" Name="rhou">
          -6.88016304e-03 2.17508112e-03 -3.25955678e-03 -1.95071372e-02 
        </DataArray>
        <DataArray type="Float64" Name="rhov">
          -1.11913642e-03 1.32477752e-04 -1.16510961e-03 1.94116433e-02 
        </DataArray>
        <DataArray type="Float64" Name="E">
          2.21397518e+05 2.21791024e+05 2.22088563e+05 2.22725035e+05 
        </DataArray>
      </PointData>
    </Piece>
    <Piece NumberOfPoints="4" NumberOfCells="3">
      <Points>
        <DataArray type="Float64" NumberOfComponents="3" format="ascii">
          9.69143867e-01 4.39538015e-03 0.00000000e+00 
9.79435980e-01 2.94816052e-03 0.00000000e+00 
9.89725590e-01 1.48259092e-03 0.00000000e+00 
1.00000000e+00 0.00000000e+00 0.00000000e+00 

        </DataArray>
      </Points>
      <Cells>
        <DataArray type="Int32" Name="connectivity" format="ascii">
0 1
1 2
2 3

        </DataArray>
        <DataArray type="Int32" Name="offsets" format="ascii">
2 4 6 
        </DataArray>
        <DataArray type="UInt8" Name="types" format="ascii">
3 3 3 
        </DataArray>
      </Cells>
      <PointData>
        <DataArray type="Float64" Name="rho">
          9.77386252e-01 9.76951624e-01 9.80840676e-01 9.70681288e-01 
        </DataArray>
        <DataArray type="Float64" Name="rhou">
          -1.52503181e-03 -9.82359738e-03 -3.85151614e-02 5.08892529e-01 
        </DataArray>
        <DataArray type="Float64" Name="rhov">
          2.17775768e-02 1.00709249e-03 5.36710774e-02 -1.40814326e-01 
        </DataArray>
        <DataArray type="Float64" Name="E">
          2.22793889e+05 2.22710532e+05 2.23614146e+05 2.21316751e+05 
        </DataArray>
      </PointData>
    </Piece>
    <Piece NumberOfPoints="4" NumberOfCells="3">
      <Points>
        <DataArray type="Float64" NumberOfComponents="3" format="ascii">
          9.69029665e-01 -4.41133138e-03 0.00000000e+00 
9.79355037e-01 -2.95961346e-03 0.00000000e+00 
9.89677846e-01 -1.48943183e-03 0.00000000e+00 
1.00000000e+00 0.00000000e+00 0.00000000e+00 

        </DataArray>
      </Points>
      <Cells>
        <DataArray type="Int32" Name="connectivity" format="ascii">
0 1
1 2
2 3

        </DataArray>
        <DataArray type="Int32" Name="offsets" format="ascii">
2 4 6 
        </DataArray>
        <DataArray type="UInt8" Name="types" format="ascii">
3 3 3 
        </DataArray>
      </Cells>
      <PointData>
        <DataArray type="Float64" Name="rho">
          9.76301120e-01 9.75917545e-01 9.79753418e-01 9.70841089e-01 
        </DataArray>
        <DataArray type="Float64" Name="rhou">
          -9.16188352e-04 -7.76747914e-03 -3.64637784e-02 4.69340250e-01 
        </DataArray>
        <DataArray type="Float64" Name="rhov">
          -2.40157113e-02 2.12686017e-03 -5.00195079e-02 1.46481325e-01 
        </DataArray>
        <DataArray type="Float64" Name="E">
          2.22544881e+05 2.22471871e+05 2.23362226e+05 2.21351583e+05 
        </DataArray>
      </PointData>
    </Piece>
    <Piece NumberOfPoints="4" NumberOfCells="3">
      <Points>
        <DataArray type="Float64" NumberOfComponents="3" format="ascii">
          9.38035965e-01 -8.65600072e-03 0.00000000e+00 
9.48369622e-01 -7.25875143e-03 0.00000000e+00 
9.58700895e-01 -5.84406452e-03 0.00000000e+00 
9.69029665e-01 -4.41133138e-03 0.00000000e+00 

        </DataArray>
      </Points>
      <Cells>
        <DataArray type="Int32" Name="connectivity" format="ascii">
0 1
1 2
2 3

        </DataArray>
        <DataArray type="Int32" Name="offsets" format="ascii">
2 4 6 
        </DataArray>
        <DataArray type="UInt8" Name="types" format="ascii">
3 3 3 
        </DataArray>
      </Cells>
      <PointData>
        <DataArray type="Float64" Name="rho">
          9.70549869e-01 9.72164288e-01 9.73370402e-01 9.76002942e-01 
        </DataArray>
        <DataArray type="Float64" Name="rhou">
          -6.50640164e-03 2.33430198e-03 -2.70870512e-03 -1.75404594e-02 
        </DataArray>
        <DataArray type="Float64" Name="rhov">
          1.12626180e-03 -1.74276004e-04 1.37792236e-03 -1.79151441e-02 
        </DataArray>
        <DataArray type="Float64" Name="E">
          2.21194783e+05 2.21575725e+05 2.21863672e+05 2.22477009e+05 
        </DataArray>
      </PointData>
    </Piece>
    <Piece NumberOfPoints="4" NumberOfCells="3">
      <Points>
        <DataArray type="Float64" NumberOfComponents="3" format="ascii">
          9.07021165e-01 -1.27432076e-02 0.00000000e+00 
9.17361677e-01 -1.13977119e-02 0.00000000e+00 
9.27700043e-01 -1.00357840e-02 0.00000000e+00 
9.38035965e-01 -8.65600072e-03 0.00000000e+00 

        </DataArray>
      </Points>
      <Cells>
        <DataArray type="Int32" Name="connectivity" format="ascii">
0 1
1 2
2 3

        </DataArray>
        <DataArray type="Int32" Name="offsets" format="ascii">
2 4 6 
        </DataArray>
        <DataArray type="UInt8" Name="types" format="ascii">
3 3 3 
        </DataArray>
      </Cells>
      <PointData>
        <DataArray type="Float64" Name="rho">
          9.66482345e-01 9.67879351e-01 9.69308938e-01 9.70597519e-01 
        </DataArray>
        <DataArray type="Float64" Name="rhou">
          9.23503940e-04 -9.27830987e-05 4.83392783e-04 8.84031598e-04 
        </DataArray>
        <DataArray type="Float64" Name="rhov">
          5.33113761e-05 8.11253125e-05 -8.00211863e-06 1.41893705e-03 
        </DataArray>
        <DataArray type="Float64" Name="E">
          2.20227456e+05 2.20559503e+05 2.20898745e+05 2.21205634e+05 
        </DataArray>
      </PointData>
    </Piece>
    <Piece NumberOfPoints="4" NumberOfCells="3">
      <Points>
        <DataArray type="Float64" NumberOfComponents="3" format="ascii">
          8.75986874e-01 -1.66798849e-02 0.00000000e+00 
8.86333704e-01 -1.53839625e-02 0.00000000e+00 
8.96678507e-01 -1.40720531e-02 0.00000000e+00 
9.07021165e-01 -1.27432076e-02 0.00000000e+00 

        </DataArray>
      </Points>
      <Cells>
        <DataArray type="Int32" Name="connectivity" format="ascii">
0 1
1 2
2 3

        </DataArray>
        <DataArray type="Int32" Name="offsets" format="ascii">
2 4 6 
        </DataArray>
        <DataArray type="UInt8" Name="types" format="ascii">
3 3 3 
        </DataArray>
      </Cells>
      <PointData>
        <DataArray type="Float64" Name="rho">
          9.62175331e-01 9.63616256e-01 9.65044606e-01 9.66477342e-01 
        </DataArray>
        <DataArray type="Float64" Name="rhou">
          1.40103170e-04 2.20970970e-04 1.71226321e-04 1.17128321e-04 
        </DataArray>
        <DataArray type="Float64" Name="rhov">
          7.28115473e-05 6.41975805e-05 7.94237413e-05 -1.71100813e-05 
        </DataArray>
        <DataArray type="Float64" Name="E">
          2.19203826e+05 2.19546380e+05 2.19885933e+05 2.20226318e+05 
        </DataArray>
      </PointData>
    </Piece>
    <Piece NumberOfPoints="4" NumberOfCells="3">
      <Points>
        <DataArray type="Float64" NumberOfComponents="3" format="ascii">
          8.44934702e-01 -2.04724707e-02 0.00000000e+00 
8.55287313e-01 -1.92240477e-02 0.00000000e+00 
8.65638077e-01 -1.79597028e-02 0.00000000e+00 
8.75986874e-01 -1.66798849e-02 0.00000000e+00 

        </DataArray>
      </Points>
      <Cells>
        <DataArray type="Int32" Name="connectivity" format="ascii">
0 1
1 2
2 3

        </DataArray>
        <DataArray type="Int32" Name="offsets" format="ascii">
2 4 6 
        </DataArray>
        <DataArray type="UInt8" Name="types" format="ascii">
3 3 3 
        </DataArray>
      </Cells>
      <PointData>
        <DataArray type="Float64" Name="rho">
          9.57817145e-01 9.59276253e-01 9.60731547e-01 9.62175763e-01 
        </DataArray>
        <DataArray type="Float64" Name="rhou">
          2.79016452e-04 2.18374765e-04 2.05220564e-04 2.42663414e-04 
        </DataArray>
        <DataArray type="Float64" Name="rhov">
          4.72940406e-05 6.79726186e-05 5.73358745e-05 7.59554265e-05 
        </DataArray>
        <DataArray type="Float64" Name="E">
          2.18167492e+05 2.18514473e+05 2.18860506e+05 2.19203924e+05 
        </DataArray>
      </PointData>
    </Piece>
    <Piece NumberOfPoints="4" NumberOfCells="3">
      <Points>
        <DataArray type="Float64" NumberOfComponents="3" format="ascii">
          8.13865662e-01 -2.41250079e-02 0.00000000e+00 
8.24223816e-01 -2.29226518e-02 0.00000000e+00 
8.34580123e-01 -2.17050612e-02 0.00000000e+00 
8.44934702e-01 -2.04724707e-02 0.00000000e+00 

        </DataArray>
      </Points>
      <Cells>
        <DataArray type="Int32" Name="connectivity" format="ascii">
0 1
1 2
2 3

        </DataArray>
        <DataArray type="Int32" Name="offsets" format="ascii">
2 4 6 
        </DataArray>
        <DataArray type="UInt8" Name="types" format="ascii">
3 3 3 
        </DataArray>
      </Cells>
      <PointData>
        <DataArray type="Float64" Name="rho">
          9.53383019e-01 9.54867831e-01 9.56346013e-01 9.57816913e-01 
        </DataArray>
        <DataArray type="Float64" Name="rhou">
          2.57757862e-04 2.41416517e-04 2.25203338e-04 2.29653019e-04 
        </DataArray>
        <DataArray type="Float64" Name="rhov">
          5.86210227e-05 5.93948552e-05 5.18289692e-05 3.96712237e-05 
        </DataArray>
        <DataArray type="Float64" Name="E">
          2.17113251e+05 2.17466262e+05 2.17817709e+05 2.18167439e+05 
        </DataArray>
      </PointData>
    </Piece>
    <Piece NumberOfPoints="4" NumberOfCells="3">
      <Points>
        <DataArray type="Float64" NumberOfComponents="3" format="ascii">
          7.82780826e-01 -2.76402626e-02 0.00000000e+00 
7.93144107e-01 -2.64833923e-02 0.00000000e+00 
8.03505778e-01 -2.53117718e-02 0.00000000e+00 
8.13865662e-01 -2.41250079e-02 0.00000000e+00 

        </DataArray>
      </Points>
      <Cells>
        <DataArray type="Int32" Name="connectivity" format="ascii">
0 1
1 2
2 3

        </DataArray>
        <DataArray type="Int32" Name="offsets" format="ascii">
2 4 6 
        </DataArray>
        <DataArray type="UInt8" Name="types" format="ascii">
3 3 3 
        </DataArray>
      </Cells>
      <PointData>
        <DataArray type="Float64" Name="rho">
          9.48882999e-01 9.50390605e-01 9.51891491e-01 9.53382910e-01 
        </DataArray>
        <DataArray type="Float64" Name="rhou">
          2.81787557e-04 2.59818317e-04 2.58637503e-04 2.67194009e-04 
        </DataArray>
        <DataArray type="Float64" Name="rhov">
          5.51682650e-05 4.67364639e-05 4.22779432e-05 5.67905009e-05 
        </DataArray>
        <DataArray type="Float64" Name="E">
          2.16043544e+05 2.16401892e+05 2.16758661e+05 2.17113226e+05 
        </DataArray>
      </PointData>
    </Piece>
    <Piece NumberOfPoints="4" NumberOfCells="3">
      <Points>
        <DataArray type="Float64" NumberOfComponents="3" format="ascii">
          7.51680970e-01 -3.10197193e-02 0.00000000e+00 
7.62049198e-01 -2.99084149e-02 0.00000000e+00 
7.72415876e-01 -2.87819952e-02 0.00000000e+00 
7.82780826e-01 -2.76402626e-02 0.00000000e+00 

        </DataArray>
      </Points>
      <Cells>
        <DataArray type="Int32" Name="connectivity" format="ascii">
0 1
1 2
2 3

        </DataArray>
        <DataArray type="Int32" Name="offsets" format="ascii">
2 4 6 
        </DataArray>
        <DataArray type="UInt8" Name="types" format="ascii">
3 3 3 
        </DataArray>
      </Cells>
      <PointData>
        <DataArray type="Float64" Name="rho">
          9.44322203e-01 9.45849466e-01 9.47369596e-01 9.48882962e-01 
        </DataArray>
        <DataArray type="Float64" Name="rhou">
          2.97731068e-04 2.92817220e-04 2.86563568e-04 2.71464548e-04 
        </DataArray>
        <DataArray type="Float64" Name="rhov">
          4.75687355e-05 4.10119024e-05 4.50294393e-05 5.28761635e-05 
        </DataArray>
        <DataArray type="Float64" Name="E">
          2.14959564e+05 2.15322532e+05 2.15683827e+05 2.16043535e+05 
        </DataArray>
      </PointData>
    </Piece>
    <Piece NumberOfPoints="4" NumberOfCells="3">
      <Points>
        <DataArray type="Float64" NumberOfComponents="3" format="ascii">
          7.20566452e-01 -3.42622213e-02 0.00000000e+00 
7.30939507e-01 -3.31965312e-02 0.00000000e+00 
7.41311073e-01 -3.21157984e-02 0.00000000e+00 
7.51680970e-01 -3.10197193e-02 0.00000000e+00 

        </DataArray>
      </Points>
      <Cells>
        <DataArray type="Int32" Name="connectivity" format="ascii">
0 1
1 2
2 3

        </DataArray>
        <DataArray type="Int32" Name="offsets" format="ascii">
2 4 6 
        </DataArray>
        <DataArray type="UInt8" Name="types" format="ascii">
3 3 3 
        </DataArray>
      </Cells>
      <PointData>
        <DataArray type="Float64" Name="rho">
          9.39708856e-01 9.41252721e-01 9.42790664e-01 9.44322194e-01 
        </DataArray>
        <DataArray type="Float64" Name="rhou">
          3.25873443e-04 3.18392728e-04 3.14916385e-04 3.01084087e-04 
        </DataArray>
        <DataArray type="Float64" Name="rhov">
          4.35505013e-05 3.27409307e-05 3.56766103e-05 4.79362850e-05 
        </DataArray>
        <DataArray type="Float64" Name="E">
          2.13863180e+05 2.14230076e+05 2.14595573e+05 2.14959562e+05 
        </DataArray>
      </PointData>
    </Piece>
    <Piece NumberOfPoints="4" NumberOfCells="3">
      <Points>
        <DataArray type="Float64" NumberOfComponents="3" format="ascii">
          6.89437866e-01 -3.73662710e-02 0.00000000e+00 
6.99815631e-01 -3.63472365e-02 0.00000000e+00 
7.10191846e-01 -3.53125818e-02 0.00000000e+00 
7.20566452e-01 -3.42622213e-02 0.00000000e+00 

        </DataArray>
      </Points>
      <Cells>
        <DataArray type="Int32" Name="connectivity" format="ascii">
0 1
1 2
2 3

        </DataArray>
        <DataArray type="Int32" Name="offsets" format="ascii">
2 4 6 
        </DataArray>
        <DataArray type="UInt8" Name="types" format="ascii">
3 3 3 
        </DataArray>
      </Cells>
      <PointData>
        <DataArray type="Float64" Name="rho">
          9.35058676e-01 9.36612611e-01 9.38162751e-01 9.39708867e-01 
        </DataArray>
        <DataArray type="Float64" Name="rhou">
          3.60707556e-04 3.52961430e-04 3.45437078e-04 3.26948072e-04 
        </DataArray>
        <DataArray type="Float64" Name="rhov">
          3.48709811e-05 2.77704195e-05 3.26921880e-05 4.37122801e-05 
        </DataArray>
        <DataArray type="Float64" Name="E">
          2.12757979e+05 2.13127306e+05 2.13495725e+05 2.13863183e+05 
        </DataArray>
      </PointData>
    </Piece>
    <Piece NumberOfPoints="4" NumberOfCells="3">
      <Points>
        <DataArray type="Float64" NumberOfComponents="3" format="ascii">
          6.58295333e-01 -4.03269380e-02 0.00000000e+00 
6.68677747e-01 -3.93563360e-02 0.00000000e+00 
6.79058611e-01 -3.83694395e-02 0.00000000e+00 
6.89437866e-01 -3.73662710e-02 0.00000000e+00 

        </DataArray>
      </Points>
      <Cells>
        <DataArray type="Int32" Name="connectivity" format="ascii">
0 1
1 2
2 3

        </DataArray>
        <DataArray type="Int32" Name="offsets" format="ascii">
2 4 6 
        </DataArray>
        <DataArray type="UInt8" Name="types" format="ascii">
3 3 3 
        </DataArray>
      </Cells>
      <PointData>
        <DataArray type="Float64" Name="rho">
          9.30392662e-01 9.31949065e-01 9.33504369e-01 9.35058730e-01 
        </DataArray>
        <DataArray type="Float64" Name="rhou">
          3.98872667e-04 3.92955888e-04 3.79846312e-04 3.58814480e-04 
        </DataArray>
        <DataArray type="Float64" Name="rhov">
          2.29481484e-05 2.01304276e-05 2.71085628e-05 3.55623679e-05 
        </DataArray>
        <DataArray type="Float64" Name="E">
          2.11648813e+05 2.12018810e+05 2.12388526e+05 2.12757991e+05 
        </DataArray>
      </PointData>
    </Piece>
    <Piece NumberOfPoints="4" NumberOfCells="3">
      <Points>
        <DataArray type="Float64" NumberOfComponents="3" format="ascii">
          6.27138972e-01 -4.31386717e-02 0.00000000e+00 
6.37525976e-01 -4.22184542e-02 0.00000000e+00 
6.47911429e-01 -4.12811004e-02 0.00000000e+00 
6.58295333e-01 -4.03269380e-02 0.00000000e+00 

        </DataArray>
      </Points>
      <Cells>
        <DataArray type="Int32" Name="connectivity" format="ascii">
0 1
1 2
2 3

        </DataArray>
        <DataArray type="Int32" Name="offsets" format="ascii">
2 4 6 
        </DataArray>
        <DataArray type="UInt8" Name="types" format="ascii">
3 3 3 
        </DataArray>
      </Cells>
      <PointData>
        <DataArray type="Float64" Name="rho">
          9.25739501e-01 9.27286806e-01 9.28838433e-01 9.30392695e-01 
        </DataArray>
        <DataArray type="Float64" Name="rhou">
          4.50888195e-04 4.32004641e-04 4.14535408e-04 3.99767077e-04 
        </DataArray>
        <DataArray type="Float64" Name="rhov">
          1.85602421e-05 1.77592178e-05 1.94570268e-05 2.37756120e-05 
        </DataArray>
        <DataArray type="Float64" Name="E">
          2.10542353e+05 2.10910331e+05 2.11279285e+05 2.11648821e+05 
        </DataArray>
      </PointData>
    </Piece>
    <Piece NumberOfPoints="4" NumberOfCells="3">
      <Points>
        <DataArray type="Float64" NumberOfComponents="3" format="ascii">
          5.95968783e-01 -4.57924642e-02 0.00000000e+00 
6.06360376e-01 -4.49259281e-02 0.00000000e+00 
6.16750479e-01 -4.40412909e-02 0.00000000e+00 
6.27138972e-01 -4.31386717e-02 0.00000000e+00 

        </DataArray>
      </Points>
      <Cells>
        <DataArray type="Int32" Name="connectivity" format="ascii">
0 1
1 2
2 3

        </DataArray>
        <DataArray type="Int32" Name="offsets" format="ascii">
2 4 6 
        </DataArray>
        <DataArray type="UInt8" Name="types" format="ascii">
3 3 3 
        </DataArray>
      </Cells>
      <PointData>
        <DataArray type="Float64" Name="rho">
          9.21141275e-01 9.22665903e-01 9.24199024e-01 9.25739493e-01 
        </DataArray>
        <DataArray type="Float64" Name="rhou">
          4.95760338e-04 4.83727276e-04 4.66435237e-04 4.44356179e-04 
        </DataArray>
        <DataArray type="Float64" Name="rhov">
          5.63989024e-06 2.77380136e-06 9.54730025e-06 1.93268810e-05 
        </DataArray>
        <DataArray type="Float64" Name="E">
          2.09448433e+05 2.09811201e+05 2.10175932e+05 2.10542351e+05 
        </DataArray>
      </PointData>
    </Piece>
    <Piece NumberOfPoints="4" NumberOfCells="3">
      <Points>
        <DataArray type="Float64" NumberOfComponents="3" format="ascii">
          5.64784765e-01 -4.82786149e-02 0.00000000e+00 
5.75181007e-01 -4.74695377e-02 0.00000000e+00 
5.85575700e-01 -4.66405638e-02 0.00000000e+00 
5.95968783e-01 -4.57924642e-02 0.00000000e+00 

        </DataArray>
      </Points>
      <Cells>
        <DataArray type="Int32" Name="connectivity" format="ascii">
0 1
1 2
2 3

        </DataArray>
        <DataArray type="Int32" Name="offsets" format="ascii">
2 4 6 
        </DataArray>
        <DataArray type="UInt8" Name="types" format="ascii">
3 3 3 
        </DataArray>
      </Cells>
      <PointData>
        <DataArray type="Float64" Name="rho">
          9.16655326e-01 9.18133279e-01 9.19629227e-01 9.21141387e-01 
        </DataArray>
        <DataArray type="Float64" Name="rhou">
          5.71711920e-04 5.45648672e-04 5.12882626e-04 4.89518366e-04 
        </DataArray>
        <DataArray type="Float64" Name="rhov">
          -6.79311917e-06 4.79114938e-06 9.80986962e-06 6.53184332e-06 
        </DataArray>
        <DataArray type="Float64" Name="E">
          2.08380483e+05 2.08732434e+05 2.09088569e+05 2.09448458e+05 
        </DataArray>
      </PointData>
    </Piece>
    <Piece NumberOfPoints="4" NumberOfCells="3">
      <Points>
        <DataArray type="Float64" NumberOfComponents="3" format="ascii">
          5.33586800e-01 -5.05827516e-02 0.00000000e+00 
5.43987691e-01 -4.98356484e-02 0.00000000e+00 
5.54387033e-01 -4.90674041e-02 0.00000000e+00 
5.64784765e-01 -4.82786149e-02 0.00000000e+00 

        </DataArray>
      </Points>
      <Cells>
        <DataArray type="Int32" Name="connectivity" format="ascii">
0 1
1 2
2 3

        </DataArray>
        <DataArray type="Int32" Name="offsets" format="ascii">
2 4 6 
        </DataArray>
        <DataArray type="UInt8" Name="types" format="ascii">
3 3 3 
        </DataArray>
      </Cells>
      <PointData>
        <DataArray type="Float64" Name="rho">
          9.12353084e-01 9.13760818e-01 9.15196689e-01 9.16655286e-01 
        </DataArray>
        <DataArray type="Float64" Name="rhou">
          6.45256617e-04 6.05903321e-04 5.77405157e-04 5.66025651e-04 
        </DataArray>
        <DataArray type="Float64" Name="rhov">
          -6.49071887e-06 -6.28399653e-06 -9.13317536e-06 -6.45388334e-06 
        </DataArray>
        <DataArray type="Float64" Name="E">
          2.07355336e+05 2.07690905e+05 2.08033037e+05 2.08380474e+05 
        </DataArray>
      </PointData>
    </Piece>
    <Piece NumberOfPoints="4" NumberOfCells="3">
      <Points>
        <DataArray type="Float64" NumberOfComponents="3" format="ascii">
          5.02374947e-01 -5.26902266e-02 0.00000000e+00 
5.12780428e-01 -5.20105064e-02 0.00000000e+00 
5.23184419e-01 -5.13078682e-02 0.00000000e+00 
5.33586800e-01 -5.05827516e-02 0.00000000e+00 

        </DataArray>
      </Points>
      <Cells>
        <DataArray type="Int32" Name="connectivity" format="ascii">
0 1
1 2
2 3

        </DataArray>
        <DataArray type="Int32" Name="offsets" format="ascii">
2 4 6 
        </DataArray>
        <DataArray type="UInt8" Name="types" format="ascii">
3 3 3 
        </DataArray>
      </Cells>
      <PointData>
        <DataArray type="Float64" Name="rho">
          9.08333115e-01 9.09635480e-01 9.10977464e-01 9.12352988e-01 
        </DataArray>
        <DataArray type="Float64" Name="rhou">
          7.25648018e-04 6.89800435e-04 6.62577376e-04 6.42464486e-04 
        </DataArray>
        <DataArray type="Float64" Name="rhov">
          -1.65257065e-05 -2.27333420e-05 -2.10605362e-05 -6.96175388e-06 
        </DataArray>
        <DataArray type="Float64" Name="E">
          2.06396185e+05 2.06707087e+05 2.07027270e+05 2.07355315e+05 
        </DataArray>
      </PointData>
    </Piece>
    <Piece NumberOfPoints="4" NumberOfCells="3">
      <Points>
        <DataArray type="Float64" NumberOfComponents="3" format="ascii">
          4.71149325e-01 -5.45825884e-02 0.00000000e+00 
4.81559396e-01 -5.39771840e-02 0.00000000e+00 
4.91967946e-01 -5.33461571e-02 0.00000000e+00 
5.02374947e-01 -5.26902266e-02 0.00000000e+00 

        </DataArray>
      </Points>
      <Cells>
        <DataArray type="Int32" Name="connectivity" format="ascii">
0 1
1 2
2 3

        </DataArray>
        <DataArray type="Int32" Name="offsets" format="ascii">
2 4 6 
        </DataArray>
        <DataArray type="UInt8" Name="types" format="ascii">
3 3 3 
        </DataArray>
      </Cells>
      <PointData>
        <DataArray type="Float64" Name="rho">
          9.04725765e-01 9.05874491e-01 9.07077346e-01 9.08333204e-01 
        </DataArray>
        <DataArray type="Float64" Name="rhou">
          8.31049396e-04 8.08740157e-04 7.62369419e-04 7.05872963e-04 
        </DataArray>
        <DataArray type="Float64" Name="rhov">
          -4.15584895e-05 -3.51282684e-05 -1.76828337e-05 -1.37204974e-05 
        </DataArray>
        <DataArray type="Float64" Name="E">
          2.05533761e+05 2.05808612e+05 2.06096196e+05 2.06396206e+05 
        </DataArray>
      </PointData>
    </Piece>
    <Piece NumberOfPoints="4" NumberOfCells="3">
      <Points>
        <DataArray type="Float64" NumberOfComponents="3" format="ascii">
          4.39910263e-01 -5.62384278e-02 0.00000000e+00 
4.50324744e-01 -5.57143167e-02 0.00000000e+00 
4.60737765e-01 -5.51619194e-02 0.00000000e+00 
4.71149325e-01 -5.45825884e-02 0.00000000e+00 

        </DataArray>
      </Points>
      <Cells>
        <DataArray type="Int32" Name="connectivity" format="ascii">
0 1
1 2
2 3

        </DataArray>
        <DataArray type="Int32" Name="offsets" format="ascii">
2 4 6 
        </DataArray>
        <DataArray type="UInt8" Name="types" format="ascii">
3 3 3 
        </DataArray>
      </Cells>
      <PointData>
        <DataArray type="Float64" Name="rho">
          9.01689673e-01 9.02623779e-01 9.03639358e-01 9.04725841e-01 
        </DataArray>
        <DataArray type="Float64" Name="rhou">
          9.97922176e-04 9.21215328e-04 8.63273846e-04 8.36391765e-04 
        </DataArray>
        <DataArray type="Float64" Name="rhov">
          -3.46695099e-05 -2.54630561e-05 -3.18475025e-05 -3.90167739e-05 
        </DataArray>
        <DataArray type="Float64" Name="E">
          2.04805579e+05 2.05029994e+05 2.05273554e+05 2.05533778e+05 
        </DataArray>
      </PointData>
    </Piece>
    <Piece NumberOfPoints="4" NumberOfCells="3">
      <Points>
        <DataArray type="Float64" NumberOfComponents="3" format="ascii">
          4.08658355e-01 -5.76302819e-02 0.00000000e+00 
4.19077009e-01 -5.71971126e-02 0.00000000e+00 
4.29494321e-01 -5.67329265e-02 0.00000000e+00 
4.39910263e-01 -5.62384278e-02 0.00000000e+00 

        </DataArray>
      </Points>
      <Cells>
        <DataArray type="Int32" Name="connectivity" format="ascii">
0 1
1 2
2 3

        </DataArray>
        <DataArray type="Int32" Name="offsets" format="ascii">
2 4 6 
        </DataArray>
        <DataArray type="UInt8" Name="types" format="ascii">
3 3 3 
        </DataArray>
      </Cells>
      <PointData>
        <DataArray type="Float64" Name="rho">
          8.99435188e-01 9.00087151e-01 9.00842488e-01 9.01689441e-01 
        </DataArray>
        <DataArray type="Float64" Name="rhou">
          1.15187556e-03 1.08267815e-03 1.03155496e-03 9.92495446e-04 
        </DataArray>
        <DataArray type="Float64" Name="rhov">
          -4.33154018e-05 -5.56436490e-05 -5.47276379e-05 -3.44977398e-05 
        </DataArray>
        <DataArray type="Float64" Name="E">
          2.04261421e+05 2.04419342e+05 2.04601629e+05 2.04805526e+05 
        </DataArray>
      </PointData>
    </Piece>
    <Piece NumberOfPoints="4" NumberOfCells="3">
      <Points>
        <DataArray type="Float64" NumberOfComponents="3" format="ascii">
          3.77394795e-01 -5.87291755e-02 0.00000000e+00 
3.87817174e-01 -5.83979115e-02 0.00000000e+00 
3.98238391e-01 -5.80311492e-02 0.00000000e+00 
4.08658355e-01 -5.76302819e-02 0.00000000e+00 

        </DataArray>
      </Points>
      <Cells>
        <DataArray type="Int32" Name="connectivity" format="ascii">
0 1
1 2
2 3

        </DataArray>
        <DataArray type="Int32" Name="offsets" format="ascii">
2 4 6 
        </DataArray>
        <DataArray type="UInt8" Name="types" format="ascii">
3 3 3 
        </DataArray>
      </Cells>
      <PointData>
        <DataArray type="Float64" Name="rho">
          8.98227248e-01 8.98496104e-01 8.98899858e-01 8.99435400e-01 
        </DataArray>
        <DataArray type="Float64" Name="rhou">
          1.39951540e-03 1.32631423e-03 1.22521000e-03 1.12063724e-03 
        </DataArray>
        <DataArray type="Float64" Name="rhov">
          -8.68774971e-05 -5.89780656e-05 -3.11473152e-05 -3.84016316e-05 
        </DataArray>
        <DataArray type="Float64" Name="E">
          2.03963959e+05 2.04031531e+05 2.04130976e+05 2.04261470e+05 
        </DataArray>
      </PointData>
    </Piece>
    <Piece NumberOfPoints="4" NumberOfCells="3">
      <Points>
        <DataArray type="Float64" NumberOfComponents="3" format="ascii">
          3.46121490e-01 -5.95011823e-02 0.00000000e+00 
3.56546819e-01 -5.92821389e-02 0.00000000e+00 
3.66971314e-01 -5.90242445e-02 0.00000000e+00 
3.77394795e-01 -5.87291755e-02 0.00000000e+00 

        </DataArray>
      </Points>
      <Cells>
        <DataArray type="Int32" Name="connectivity" format="ascii">
0 1
1 2
2 3

        </DataArray>
        <DataArray type="Int32" Name="offsets" format="ascii">
2 4 6 
        </DataArray>
        <DataArray type="UInt8" Name="types" format="ascii">
3 3 3 
        </DataArray>
      </Cells>
      <PointData>
        <DataArray type="Float64" Name="rho">
          8.98358842e-01 8.98141122e-01 8.98103054e-01 8.98227340e-01 
        </DataArray>
        <DataArray type="Float64" Name="rhou">
          1.74101861e-03 1.59705551e-03 1.46860513e-03 1.40292118e-03 
        </DataArray>
        <DataArray type="Float64" Name="rhov">
          -1.21860253e-04 -7.98403715e-05 -7.24228563e-05 -8.22273039e-05 
        </DataArray>
        <DataArray type="Float64" Name="E">
          2.03982849e+05 2.03935500e+05 2.03930571e+05 2.03963979e+05 
        </DataArray>
      </PointData>
    </Piece>
    <Piece NumberOfPoints="4" NumberOfCells="3">
      <Points>
        <DataArray type="Float64" NumberOfComponents="3" format="ascii">
          3.14841360e-01 -5.99102043e-02 0.00000000e+00 
3.25268596e-01 -5.98174632e-02 0.00000000e+00 
3.35695356e-01 -5.96801341e-02 0.00000000e+00 
3.46121490e-01 -5.95011823e-02 0.00000000e+00 

        </DataArray>
      </Points>
      <Cells>
        <DataArray type="Int32" Name="connectivity" format="ascii">
0 1
1 2
2 3

        </DataArray>
        <DataArray type="Int32" Name="offsets" format="ascii">
2 4 6 
        </DataArray>
        <DataArray type="UInt8" Name="types" format="ascii">
3 3 3 
        </DataArray>
      </Cells>
      <PointData>
        <DataArray type="Float64" Name="rho">
          9.00236222e-01 8.99376652e-01 8.98760116e-01 8.98358551e-01 
        </DataArray>
        <DataArray type="Float64" Name="rhou">
          2.19011330e-03 1.94604311e-03 1.78145026e-03 1.70543475e-03 
        </DataArray>
        <DataArray type="Float64" Name="rhov">
          -5.92387352e-05 -3.57380981e-05 -6.78659250e-05 -1.21087488e-04 
        </DataArray>
        <DataArray type="Float64" Name="E">
          2.04414424e+05 2.04215331e+05 2.04073658e+05 2.03982782e+05 
        </DataArray>
      </PointData>
    </Piece>
    <Piece NumberOfPoints="4" NumberOfCells="3">
      <Points>
        <DataArray type="Float64" NumberOfComponents="3" format="ascii">
          2.83558637e-01 -5.98983802e-02 0.00000000e+00 
2.93986142e-01 -5.99516556e-02 0.00000000e+00 
3.04413795e-01 -5.99554181e-02 0.00000000e+00 
3.14841360e-01 -5.99102043e-02 0.00000000e+00 

        </DataArray>
      </Points>
      <Cells>
        <DataArray type="Int32" Name="connectivity" format="ascii">
0 1
1 2
2 3

        </DataArray>
        <DataArray type="Int32" Name="offsets" format="ascii">
2 4 6 
        </DataArray>
        <DataArray type="UInt8" Name="types" format="ascii">
3 3 3 
        </DataArray>
      </Cells>
      <PointData>
        <DataArray type="Float64" Name="rho">
          9.04375088e-01 9.02725534e-01 9.01351483e-01 9.00235510e-01 
        </DataArray>
        <DataArray type="Float64" Name="rhou">
          2.66685057e-03 2.50208039e-03 2.36475922e-03 2.18106226e-03 
        </DataArray>
        <DataArray type="Float64" Name="rhov">
          -1.17046467e-04 -1.83726849e-04 -1.47731542e-04 -5.26123582e-05 
        </DataArray>
        <DataArray type="Float64" Name="E">
          2.05381614e+05 2.04995126e+05 2.04674057e+05 2.04414262e+05 
        </DataArray>
      </PointData>
    </Piece>
    <Piece NumberOfPoints="4" NumberOfCells="3">
      <Points>
        <DataArray type="Float64" NumberOfComponents="3" format="ascii">
          2.52279758e-01 -5.94130717e-02 0.00000000e+00 
2.62705088e-01 -5.96327744e-02 0.00000000e+00 
2.73131490e-01 -5.97934239e-02 0.00000000e+00 
2.83558637e-01 -5.98983802e-02 0.00000000e+00 

        </DataArray>
      </Points>
      <Cells>
        <DataArray type="Int32" Name="connectivity" format="ascii">
0 1
1 2
2 3

        </DataArray>
        <DataArray type="Int32" Name="offsets" format="ascii">
2 4 6 
        </DataArray>
        <DataArray type="UInt8" Name="types" format="ascii">
3 3 3 
        </DataArray>
      </Cells>
      <PointData>
        <DataArray type="Float64" Name="rho">
          9.11395708e-01 9.08687152e-01 9.06349990e-01 9.04376010e-01 
        </DataArray>
        <DataArray type="Float64" Name="rhou">
          3.63920224e-03 3.33404535e-03 2.99856396e-03 2.65302661e-03 
        </DataArray>
        <DataArray type="Float64" Name="rhov">
          -2.66594330e-04 -1.73874635e-04 -8.62743610e-05 -9.78434782e-05 
        </DataArray>
        <DataArray type="Float64" Name="E">
          2.07032017e+05 2.06394418e+05 2.05845104e+05 2.05381826e+05 
        </DataArray>
      </PointData>
    </Piece>
    <Piece NumberOfPoints="4" NumberOfCells="3">
      <Points>
        <DataArray type="Float64" NumberOfComponents="3" format="ascii">
          2.21014455e-01 -5.83752058e-02 0.00000000e+00 
2.31433928e-01 -5.87876961e-02 0.00000000e+00 
2.41855890e-01 -5.91322705e-02 0.00000000e+00 
2.52279758e-01 -5.94130717e-02 0.00000000e+00 

        </DataArray>
      </Points>
      <Cells>
        <DataArray type="Int32" Name="connectivity" format="ascii">
0 1
1 2
2 3

        </DataArray>
        <DataArray type="Int32" Name="offsets" format="ascii">
2 4 6 
        </DataArray>
        <DataArray type="UInt8" Name="types" format="ascii">
3 3 3 
        </DataArray>
      </Cells>
      <PointData>
        <DataArray type="Float64" Name="rho">
          9.22080462e-01 9.18044353e-01 9.14498510e-01 9.11395890e-01 
        </DataArray>
        <DataArray type="Float64" Name="rhou">
          4.99273332e-03 4.40722963e-03 3.96079480e-03 3.67341890e-03 
        </DataArray>
        <DataArray type="Float64" Name="rhov">
          -3.74320318e-04 -2.69401545e-04 -2.36588974e-04 -2.50241311e-04 
        </DataArray>
        <DataArray type="Float64" Name="E">
          2.09553289e+05 2.08600051e+05 2.07763382e+05 2.07032054e+05 
        </DataArray>
      </PointData>
    </Piece>
    <Piece NumberOfPoints="4" NumberOfCells="3">
      <Points>
        <DataArray type="Float64" NumberOfComponents="3" format="ascii">
          1.89777538e-01 -5.66898957e-02 0.00000000e+00 
2.00185493e-01 -5.73302582e-02 0.00000000e+00 
2.10598081e-01 -5.78906052e-02 0.00000000e+00 
2.21014455e-01 -5.83752058e-02 0.00000000e+00 

        </DataArray>
      </Points>
      <Cells>
        <DataArray type="Int32" Name="connectivity" format="ascii">
0 1
1 2
2 3

        </DataArray>
        <DataArray type="Int32" Name="offsets" format="ascii">
2 4 6 
        </DataArray>
        <DataArray type="UInt8" Name="types" format="ascii">
3 3 3 
        </DataArray>
      </Cells>
      <PointData>
        <DataArray type="Float64" Name="rho">
          9.37515853e-01 9.31765582e-01 9.26640323e-01 9.22079702e-01 
        </DataArray>
        <DataArray type="Float64" Name="rhou">
          6.91622349e-03 6.11489803e-03 5.52891983e-03 5.05522099e-03 
        </DataArray>
        <DataArray type="Float64" Name="rhov">
          -6.58617454e-04 -5.86745857e-04 -4.86141707e-04 -3.61675303e-04 
        </DataArray>
        <DataArray type="Float64" Name="E">
          2.13205937e+05 2.11844057e+05 2.10631264e+05 2.09553115e+05 
        </DataArray>
      </PointData>
    </Piece>
    <Piece NumberOfPoints="4" NumberOfCells="3">
      <Points>
        <DataArray type="Float64" NumberOfComponents="3" format="ascii">
          1.58592433e-01 -5.42296544e-02 0.00000000e+00 
1.68979734e-01 -5.51457107e-02 0.00000000e+00 
1.79375216e-01 -5.59638515e-02 0.00000000e+00 
1.89777538e-01 -5.66898957e-02 0.00000000e+00 

        </DataArray>
      </Points>
      <Cells>
        <DataArray type="Int32" Name="connectivity" format="ascii">
0 1
1 2
2 3

        </DataArray>
        <DataArray type="Int32" Name="offsets" format="ascii">
2 4 6 
        </DataArray>
        <DataArray type="UInt8" Name="types" format="ascii">
3 3 3 
        </DataArray>
      </Cells>
      <PointData>
        <DataArray type="Float64" Name="rho">
          9.59267001e-01 9.51206935e-01 9.43973478e-01 9.37516271e-01 
        </DataArray>
        <DataArray type="Float64" Name="rhou">
          9.97701053e-03 8.90179891e-03 7.95121027e-03 6.98740724e-03 
        </DataArray>
        <DataArray type="Float64" Name="rhov">
          -1.41570996e-03 -1.22215570e-03 -8.89333862e-04 -6.18199705e-04 
        </DataArray>
        <DataArray type="Float64" Name="E">
          2.18366149e+05 2.16452339e+05 2.14736479e+05 2.13206037e+05 
        </DataArray>
      </PointData>
    </Piece>
    <Piece NumberOfPoints="4" NumberOfCells="3">
      <Points>
        <DataArray type="Float64" NumberOfComponents="3" format="ascii">
          1.27497971e-01 -5.08146733e-02 0.00000000e+00 
1.37849152e-01 -5.20747155e-02 0.00000000e+00 
1.48214847e-01 -5.32093942e-02 0.00000000e+00 
1.58592433e-01 -5.42296544e-02 0.00000000e+00 

        </DataArray>
      </Points>
      <Cells>
        <DataArray type="Int32" Name="connectivity" format="ascii">
0 1
1 2
2 3

        </DataArray>
        <DataArray type="Int32" Name="offsets" format="ascii">
2 4 6 
        </DataArray>
        <DataArray type="UInt8" Name="types" format="ascii">
3 3 3 
        </DataArray>
      </Cells>
      <PointData>
        <DataArray type="Float64" Name="rho">
          9.89759835e-01 9.78412518e-01 9.68269066e-01 9.59271052e-01 
        </DataArray>
        <DataArray type="Float64" Name="rhou">
          1.45105188e-02 1.33322706e-02 1.15261318e-02 1.00053982e-02 
        </DataArray>
        <DataArray type="Float64" Name="rhov">
          -2.29779933e-03 -2.04796832e-03 -1.43032772e-03 -1.34395728e-03 
        </DataArray>
        <DataArray type="Float64" Name="E">
          2.25618993e+05 2.22917516e+05 2.20505390e+05 2.18367079e+05 
        </DataArray>
      </PointData>
    </Piece>
    <Piece NumberOfPoints="4" NumberOfCells="3">
      <Points>
        <DataArray type="Float64" NumberOfComponents="3" format="ascii">
          9.65642184e-02 -4.61716652e-02 0.00000000e+00 
1.06852271e-01 -4.78802323e-02 0.00000000e+00 
1.17164567e-01 -4.94215861e-02 0.00000000e+00 
1.27497971e-01 -5.08146733e-02 0.00000000e+00 

        </DataArray>
      </Points>
      <Cells>
        <DataArray type="Int32" Name="connectivity" format="ascii">
0 1
1 2
2 3

        </DataArray>
        <DataArray type="Int32" Name="offsets" format="ascii">
2 4 6 
        </DataArray>
        <DataArray type="UInt8" Name="types" format="ascii">
3 3 3 
        </DataArray>
      </Cells>
      <PointData>
        <DataArray type="Float64" Name="rho">
          1.03310835e+00 1.01681911e+00 1.00239874e+00 9.89768193e-01 
        </DataArray>
        <DataArray type="Float64" Name="rhou">
          2.46878886e-02 1.80987161e-02 1.71864181e-02 1.28644522e-02 
        </DataArray>
        <DataArray type="Float64" Name="rhov">
          -9.43354100e-04 -7.50469014e-04 -1.57506063e-03 -1.61767492e-03 
        </DataArray>
        <DataArray type="Float64" Name="E">
          2.35964812e+05 2.32072440e+05 2.28631815e+05 2.25621008e+05 
        </DataArray>
      </PointData>
    </Piece>
  </UnstructuredGrid>
</VTKFile>
