<?xml version="1.0"?>
<VTKFile type="UnstructuredGrid" version="0.1" byte_order="LittleEndian">
  <UnstructuredGrid>
    <Piece NumberOfPoints="4" NumberOfCells="3">
      <Points>
        <DataArray type="Float64" NumberOfComponents="3" format="ascii">
          9.65642184e-02 -4.61716652e-02 0.00000000e+00 
9.26280916e-02 -4.54656407e-02 0.00000000e+00 
8.86965096e-02 -4.47326750e-02 0.00000000e+00 
8.47706869e-02 -4.39694971e-02 0.00000000e+00 

        </DataArray>
      </Points>
      <Cells>
        <DataArray type="Int32" Name="connectivity" format="ascii">
0 1
1 2
2 3

        </DataArray>
        <DataArray type="Int32" Name="offsets" format="ascii">
2 4 6 
        </DataArray>
        <DataArray type="UInt8" Name="types" format="ascii">
3 3 3 
        </DataArray>
      </Cells>
      <PointData>
        <DataArray type="Float64" Name="rho">
          1.03129228e+00 1.03820791e+00 1.04543853e+00 1.05311657e+00 
        </DataArray>
        <DataArray type="Float64" Name="rhou">
          2.82551900e-02 2.17701649e-02 2.44169345e-02 2.45956268e-02 
        </DataArray>
        <DataArray type="Float64" Name="rhov">
          -2.22750128e-03 -1.01641388e-03 -6.08434040e-04 -9.23716386e-04 
        </DataArray>
        <DataArray type="Float64" Name="E">
          2.35436890e+05 2.37089934e+05 2.38819921e+05 2.40657313e+05 
        </DataArray>
      </PointData>
    </Piece>
    <Piece NumberOfPoints="4" NumberOfCells="3">
      <Points>
        <DataArray type="Float64" NumberOfComponents="3" format="ascii">
          8.47706869e-02 -4.39694971e-02 0.00000000e+00 
8.08513016e-02 -4.31745499e-02 0.00000000e+00 
7.69388378e-02 -4.23462167e-02 0.00000000e+00 
7.30340332e-02 -4.14824970e-02 0.00000000e+00 

        </DataArray>
      </Points>
      <Cells>
        <DataArray type="Int32" Name="connectivity" format="ascii">
0 1
1 2
2 3

        </DataArray>
        <DataArray type="Int32" Name="offsets" format="ascii">
2 4 6 
        </DataArray>
        <DataArray type="UInt8" Name="types" format="ascii">
3 3 3 
        </DataArray>
      </Cells>
      <PointData>
        <DataArray type="Float64" Name="rho">
          1.05311537e+00 1.06122197e+00 1.06979267e+00 1.07889719e+00 
        </DataArray>
        <DataArray type="Float64" Name="rhou">
          2.46867296e-02 2.38641838e-02 2.24574676e-02 2.08933846e-02 
        </DataArray>
        <DataArray type="Float64" Name="rhov">
          -7.29243891e-04 -5.22851249e-04 3.80789385e-04 1.57147637e-03 
        </DataArray>
        <DataArray type="Float64" Name="E">
          2.40657046e+05 2.42598973e+05 2.44653338e+05 2.46836880e+05 
        </DataArray>
      </PointData>
    </Piece>
    <Piece NumberOfPoints="4" NumberOfCells="3">
      <Points>
        <DataArray type="Float64" NumberOfComponents="3" format="ascii">
          7.30340332e-02 -4.14824970e-02 0.00000000e+00 
6.91377968e-02 -4.05809283e-02 0.00000000e+00 
6.52511865e-02 -3.96387354e-02 0.00000000e+00 
6.13753870e-02 -3.86530459e-02 0.00000000e+00 

        </DataArray>
      </Points>
      <Cells>
        <DataArray type="Int32" Name="connectivity" format="ascii">
0 1
1 2
2 3

        </DataArray>
        <DataArray type="Int32" Name="offsets" format="ascii">
2 4 6 
        </DataArray>
        <DataArray type="UInt8" Name="types" format="ascii">
3 3 3 
        </DataArray>
      </Cells>
      <PointData>
        <DataArray type="Float64" Name="rho">
          1.07889780e+00 1.08861986e+00 1.09899110e+00 1.11007102e+00 
        </DataArray>
        <DataArray type="Float64" Name="rhou">
          2.10113703e-02 1.86655132e-02 1.45715044e-02 9.07919970e-03 
        </DataArray>
        <DataArray type="Float64" Name="rhov">
          1.40614134e-03 2.14648479e-03 4.22146758e-03 7.40274694e-03 
        </DataArray>
        <DataArray type="Float64" Name="E">
          2.46837043e+05 2.49170906e+05 2.51662274e+05 2.54326136e+05 
        </DataArray>
      </PointData>
    </Piece>
    <Piece NumberOfPoints="4" NumberOfCells="3">
      <Points>
        <DataArray type="Float64" NumberOfComponents="3" format="ascii">
          6.13753870e-02 -3.86530459e-02 0.00000000e+00 
5.75117208e-02 -3.76208089e-02 0.00000000e+00 
5.36618084e-02 -3.65384258e-02 0.00000000e+00 
4.98276278e-02 -3.54015976e-02 0.00000000e+00 

        </DataArray>
      </Points>
      <Cells>
        <DataArray type="Int32" Name="connectivity" format="ascii">
0 1
1 2
2 3

        </DataArray>
        <DataArray type="Int32" Name="offsets" format="ascii">
2 4 6 
        </DataArray>
        <DataArray type="UInt8" Name="types" format="ascii">
3 3 3 
        </DataArray>
      </Cells>
      <PointData>
        <DataArray type="Float64" Name="rho">
          1.11007129e+00 1.12194278e+00 1.13469055e+00 1.14844594e+00 
        </DataArray>
        <DataArray type="Float64" Name="rhou">
          9.02317582e-03 1.97457172e-03 -7.22864573e-03 -1.87335145e-02 
        </DataArray>
        <DataArray type="Float64" Name="rhov">
          7.17502225e-03 1.18639920e-02 1.99211261e-02 3.13650160e-02 
        </DataArray>
        <DataArray type="Float64" Name="E">
          2.54326201e+05 2.57184336e+05 2.60256109e+05 2.63574017e+05 
        </DataArray>
      </PointData>
    </Piece>
    <Piece NumberOfPoints="4" NumberOfCells="3">
      <Points>
        <DataArray type="Float64" NumberOfComponents="3" format="ascii">
          4.98276278e-02 -3.54015976e-02 0.00000000e+00 
4.60115410e-02 -3.42054628e-02 0.00000000e+00 
4.22164090e-02 -3.29444520e-02 0.00000000e+00 
3.84457745e-02 -3.16120051e-02 0.00000000e+00 

        </DataArray>
      </Points>
      <Cells>
        <DataArray type="Int32" Name="connectivity" format="ascii">
0 1
1 2
2 3

        </DataArray>
        <DataArray type="Int32" Name="offsets" format="ascii">
2 4 6 
        </DataArray>
        <DataArray type="UInt8" Name="types" format="ascii">
3 3 3 
        </DataArray>
      </Cells>
      <PointData>
        <DataArray type="Float64" Name="rho">
          1.14844586e+00 1.16330887e+00 1.17939147e+00 1.19688512e+00 
        </DataArray>
        <DataArray type="Float64" Name="rhou">
          -1.91870105e-02 -3.33120018e-02 -5.22840715e-02 -7.49784922e-02 
        </DataArray>
        <DataArray type="Float64" Name="rhov">
          3.11506065e-02 4.77894397e-02 7.53893307e-02 1.15773679e-01 
        </DataArray>
        <DataArray type="Float64" Name="E">
          2.63573964e+05 2.67165572e+05 2.71056723e+05 2.75295650e+05 
        </DataArray>
      </PointData>
    </Piece>
    <Piece NumberOfPoints="4" NumberOfCells="3">
      <Points>
        <DataArray type="Float64" NumberOfComponents="3" format="ascii">
          3.84457745e-02 -3.16120051e-02 0.00000000e+00 
3.47041376e-02 -3.02002355e-02 0.00000000e+00 
3.09973080e-02 -2.86995135e-02 0.00000000e+00 
2.73328498e-02 -2.70981900e-02 0.00000000e+00 

        </DataArray>
      </Points>
      <Cells>
        <DataArray type="Int32" Name="connectivity" format="ascii">
0 1
1 2
2 3

        </DataArray>
        <DataArray type="Int32" Name="offsets" format="ascii">
2 4 6 
        </DataArray>
        <DataArray type="UInt8" Name="types" format="ascii">
3 3 3 
        </DataArray>
      </Cells>
      <PointData>
        <DataArray type="Float64" Name="rho">
          1.19688534e+00 1.21597949e+00 1.23686731e+00 1.25992023e+00 
        </DataArray>
        <DataArray type="Float64" Name="rhou">
          -7.59282840e-02 -1.00066807e-01 -1.28691495e-01 -1.54088594e-01 
        </DataArray>
        <DataArray type="Float64" Name="rhov">
          1.15693109e-01 1.71145653e-01 2.56921821e-01 3.77013627e-01 
        </DataArray>
        <DataArray type="Float64" Name="E">
          2.75295569e+05 2.79934131e+05 2.85017025e+05 2.90638335e+05 
        </DataArray>
      </PointData>
    </Piece>
    <Piece NumberOfPoints="4" NumberOfCells="3">
      <Points>
        <DataArray type="Float64" NumberOfComponents="3" format="ascii">
          2.73328498e-02 -2.70981900e-02 0.00000000e+00 
2.37206947e-02 -2.53822580e-02 0.00000000e+00 
2.01744195e-02 -2.35341713e-02 0.00000000e+00 
1.67132635e-02 -2.15314496e-02 0.00000000e+00 

        </DataArray>
      </Points>
      <Cells>
        <DataArray type="Int32" Name="connectivity" format="ascii">
0 1
1 2
2 3

        </DataArray>
        <DataArray type="Int32" Name="offsets" format="ascii">
2 4 6 
        </DataArray>
        <DataArray type="UInt8" Name="types" format="ascii">
3 3 3 
        </DataArray>
      </Cells>
      <PointData>
        <DataArray type="Float64" Name="rho">
          1.25992509e+00 1.28548288e+00 1.31400104e+00 1.34682555e+00 
        </DataArray>
        <DataArray type="Float64" Name="rhou">
          -1.54468835e-01 -1.68566733e-01 -1.52961410e-01 -5.71524660e-02 
        </DataArray>
        <DataArray type="Float64" Name="rhov">
          3.77687514e-01 5.29298351e-01 7.39668597e-01 9.57686333e-01 
        </DataArray>
        <DataArray type="Float64" Name="E">
          2.90639233e+05 2.96893495e+05 3.03884907e+05 3.11942061e+05 
        </DataArray>
      </PointData>
    </Piece>
    <Piece NumberOfPoints="4" NumberOfCells="3">
      <Points>
        <DataArray type="Float64" NumberOfComponents="3" format="ascii">
          1.67132635e-02 -2.15314496e-02 0.00000000e+00 
1.33649679e-02 -1.93456318e-02 0.00000000e+00 
1.01706637e-02 -1.69409402e-02 0.00000000e+00 
7.19343964e-03 -1.42731192e-02 0.00000000e+00 

        </DataArray>
      </Points>
      <Cells>
        <DataArray type="Int32" Name="connectivity" format="ascii">
0 1
1 2
2 3

        </DataArray>
        <DataArray type="Int32" Name="offsets" format="ascii">
2 4 6 
        </DataArray>
        <DataArray type="UInt8" Name="types" format="ascii">
3 3 3 
        </DataArray>
      </Cells>
      <PointData>
        <DataArray type="Float64" Name="rho">
          1.34671981e+00 1.38658525e+00 1.43382285e+00 1.49892661e+00 
        </DataArray>
        <DataArray type="Float64" Name="rhou">
          -3.46078843e-02 1.13539373e-01 4.54295114e-01 8.74009455e-01 
        </DataArray>
        <DataArray type="Float64" Name="rhov">
          9.19475445e-01 1.12215258e+00 1.06723271e+00 5.17661023e-01 
        </DataArray>
        <DataArray type="Float64" Name="E">
          3.11917895e+05 3.21706412e+05 3.33297955e+05 3.49158610e+05 
        </DataArray>
      </PointData>
    </Piece>
    <Piece NumberOfPoints="4" NumberOfCells="3">
      <Points>
        <DataArray type="Float64" NumberOfComponents="3" format="ascii">
          7.19343964e-03 -1.42731192e-02 0.00000000e+00 
4.53082798e-03 -1.12927537e-02 0.00000000e+00 
2.33371323e-03 -7.95678515e-03 0.00000000e+00 
8.10639584e-04 -4.26717056e-03 0.00000000e+00 

        </DataArray>
      </Points>
      <Cells>
        <DataArray type="Int32" Name="connectivity" format="ascii">
0 1
1 2
2 3

        </DataArray>
        <DataArray type="Int32" Name="offsets" format="ascii">
2 4 6 
        </DataArray>
        <DataArray type="UInt8" Name="types" format="ascii">
3 3 3 
        </DataArray>
      </Cells>
      <PointData>
        <DataArray type="Float64" Name="rho">
          1.49944574e+00 1.57387854e+00 1.66297415e+00 1.73168617e+00 
        </DataArray>
        <DataArray type="Float64" Name="rhou">
          7.99061474e-01 9.28707889e-01 2.57546097e-01 -1.27541580e+00 
        </DataArray>
        <DataArray type="Float64" Name="rhov">
          6.16345778e-01 -5.11458290e-01 -1.72828728e+00 -1.81574637e+00 
        </DataArray>
        <DataArray type="Float64" Name="E">
          3.49285805e+05 3.67455149e+05 3.89081655e+05 4.05783078e+05 
        </DataArray>
      </PointData>
    </Piece>
    <Piece NumberOfPoints="4" NumberOfCells="3">
      <Points>
        <DataArray type="Float64" NumberOfComponents="3" format="ascii">
          8.10639584e-04 -4.26717056e-03 0.00000000e+00 
1.91366620e-04 -3.27450951e-04 0.00000000e+00 
6.40850572e-04 3.63462302e-03 0.00000000e+00 
2.03182548e-03 7.37539819e-03 0.00000000e+00 

        </DataArray>
      </Points>
      <Cells>
        <DataArray type="Int32" Name="connectivity" format="ascii">
0 1
1 2
2 3

        </DataArray>
        <DataArray type="Int32" Name="offsets" format="ascii">
2 4 6 
        </DataArray>
        <DataArray type="UInt8" Name="types" format="ascii">
3 3 3 
        </DataArray>
      </Cells>
      <PointData>
        <DataArray type="Float64" Name="rho">
          1.73011033e+00 1.75505146e+00 1.70461744e+00 1.61215152e+00 
        </DataArray>
        <DataArray type="Float64" Name="rhou">
          -1.14988378e+00 -1.87797438e+00 -8.34059175e-01 7.51984627e-01 
        </DataArray>
        <DataArray type="Float64" Name="rhov">
          -1.97393176e+00 3.64960200e-01 1.88196555e+00 1.51368856e+00 
        </DataArray>
        <DataArray type="Float64" Name="E">
          4.05401538e+05 4.11372262e+05 3.99044036e+05 3.76462311e+05 
        </DataArray>
      </PointData>
    </Piece>
    <Piece NumberOfPoints="4" NumberOfCells="3">
      <Points>
        <DataArray type="Float64" NumberOfComponents="3" format="ascii">
          2.03182548e-03 7.37539819e-03 0.00000000e+00 
4.13410179e-03 1.07714310e-02 0.00000000e+00 
6.73249783e-03 1.38076087e-02 0.00000000e+00 
9.66598373e-03 1.65232457e-02 0.00000000e+00 

        </DataArray>
      </Points>
      <Cells>
        <DataArray type="Int32" Name="connectivity" format="ascii">
0 1
1 2
2 3

        </DataArray>
        <DataArray type="Int32" Name="offsets" format="ascii">
2 4 6 
        </DataArray>
        <DataArray type="UInt8" Name="types" format="ascii">
3 3 3 
        </DataArray>
      </Cells>
      <PointData>
        <DataArray type="Float64" Name="rho">
          1.61251387e+00 1.50537821e+00 1.41613525e+00 1.34917658e+00 
        </DataArray>
        <DataArray type="Float64" Name="rhou">
          7.24364953e-01 1.15432134e+00 8.38974045e-01 3.74505478e-01 
        </DataArray>
        <DataArray type="Float64" Name="rhov">
          1.74845920e+00 6.15639635e-02 -1.07483746e+00 -1.39894125e+00 
        </DataArray>
        <DataArray type="Float64" Name="E">
          3.76553470e+05 3.50546799e+05 3.28846661e+05 3.12484188e+05 
        </DataArray>
      </PointData>
    </Piece>
    <Piece NumberOfPoints="4" NumberOfCells="3">
      <Points>
        <DataArray type="Float64" NumberOfComponents="3" format="ascii">
          9.66598373e-03 1.65232457e-02 0.00000000e+00 
1.28298048e-02 1.89677756e-02 0.00000000e+00 
1.61561389e-02 2.11867876e-02 0.00000000e+00 
1.96009967e-02 2.32173651e-02 0.00000000e+00 

        </DataArray>
      </Points>
      <Cells>
        <DataArray type="Int32" Name="connectivity" format="ascii">
0 1
1 2
2 3

        </DataArray>
        <DataArray type="Int32" Name="offsets" format="ascii">
2 4 6 
        </DataArray>
        <DataArray type="UInt8" Name="types" format="ascii">
3 3 3 
        </DataArray>
      </Cells>
      <PointData>
        <DataArray type="Float64" Name="rho">
          1.34897125e+00 1.29650052e+00 1.25752457e+00 1.22321402e+00 
        </DataArray>
        <DataArray type="Float64" Name="rhou">
          3.84079610e-01 -1.72051790e-02 -1.98465219e-01 -2.18861054e-01 
        </DataArray>
        <DataArray type="Float64" Name="rhov">
          -1.42354313e+00 -1.31863057e+00 -9.88675373e-01 -6.63531391e-01 
        </DataArray>
        <DataArray type="Float64" Name="E">
          3.12432022e+05 2.99610860e+05 2.90037612e+05 2.81636427e+05 
        </DataArray>
      </PointData>
    </Piece>
    <Piece NumberOfPoints="4" NumberOfCells="3">
      <Points>
        <DataArray type="Float64" NumberOfComponents="3" format="ascii">
          1.96009967e-02 2.32173651e-02 0.00000000e+00 
2.31348258e-02 2.50891000e-02 0.00000000e+00 
2.67372411e-02 2.68253610e-02 0.00000000e+00 
3.03938854e-02 2.84444261e-02 0.00000000e+00 

        </DataArray>
      </Points>
      <Cells>
        <DataArray type="Int32" Name="connectivity" format="ascii">
0 1
1 2
2 3

        </DataArray>
        <DataArray type="Int32" Name="offsets" format="ascii">
2 4 6 
        </DataArray>
        <DataArray type="UInt8" Name="types" format="ascii">
3 3 3 
        </DataArray>
      </Cells>
      <PointData>
        <DataArray type="Float64" Name="rho">
          1.22327771e+00 1.19415539e+00 1.16811015e+00 1.14452358e+00 
        </DataArray>
        <DataArray type="Float64" Name="rhou">
          -2.31971779e-01 -2.18406224e-01 -1.73168385e-01 -1.30940770e-01 
        </DataArray>
        <DataArray type="Float64" Name="rhov">
          -6.81750853e-01 -4.30972428e-01 -2.44613352e-01 -1.32030392e-01 
        </DataArray>
        <DataArray type="Float64" Name="E">
          2.81651330e+05 2.74540045e+05 2.68203112e+05 2.62481469e+05 
        </DataArray>
      </PointData>
    </Piece>
    <Piece NumberOfPoints="4" NumberOfCells="3">
      <Points>
        <DataArray type="Float64" NumberOfComponents="3" format="ascii">
          3.03938854e-02 2.84444261e-02 0.00000000e+00 
3.40943485e-02 2.99607720e-02 0.00000000e+00 
3.78307216e-02 3.13864015e-02 0.00000000e+00 
4.15969416e-02 3.27312648e-02 0.00000000e+00 

        </DataArray>
      </Points>
      <Cells>
        <DataArray type="Int32" Name="connectivity" format="ascii">
0 1
1 2
2 3

        </DataArray>
        <DataArray type="Int32" Name="offsets" format="ascii">
2 4 6 
        </DataArray>
        <DataArray type="UInt8" Name="types" format="ascii">
3 3 3 
        </DataArray>
      </Cells>
      <PointData>
        <DataArray type="Float64" Name="rho">
          1.14452185e+00 1.12318076e+00 1.10379680e+00 1.08612686e+00 
        </DataArray>
        <DataArray type="Float64" Name="rhou">
          -1.29151397e-01 -8.90393823e-02 -5.62796277e-02 -3.33355642e-02 
        </DataArray>
        <DataArray type="Float64" Name="rhov">
          -1.30580475e-01 -5.45309090e-02 -7.51334922e-03 1.78403159e-02 
        </DataArray>
        <DataArray type="Float64" Name="E">
          2.62481317e+05 2.57323059e+05 2.52649167e+05 2.48396391e+05 
        </DataArray>
      </PointData>
    </Piece>
    <Piece NumberOfPoints="4" NumberOfCells="3">
      <Points>
        <DataArray type="Float64" NumberOfComponents="3" format="ascii">
          4.15969416e-02 3.27312648e-02 0.00000000e+00 
4.53883260e-02 3.40034962e-02 0.00000000e+00 
4.92011942e-02 3.52098532e-02 0.00000000e+00 
5.30325845e-02 3.63560505e-02 0.00000000e+00 

        </DataArray>
      </Points>
      <Cells>
        <DataArray type="Int32" Name="connectivity" format="ascii">
0 1
1 2
2 3

        </DataArray>
        <DataArray type="Int32" Name="offsets" format="ascii">
2 4 6 
        </DataArray>
        <DataArray type="UInt8" Name="types" format="ascii">
3 3 3 
        </DataArray>
      </Cells>
      <PointData>
        <DataArray type="Float64" Name="rho">
          1.08612743e+00 1.06998248e+00 1.05517408e+00 1.04154351e+00 
        </DataArray>
        <DataArray type="Float64" Name="rhou">
          -3.21997011e-02 -1.27876818e-02 1.63222561e-03 1.10000697e-02 
        </DataArray>
        <DataArray type="Float64" Name="rhov">
          1.77448430e-02 3.14070031e-02 3.80495932e-02 3.91965525e-02 
        </DataArray>
        <DataArray type="Float64" Name="E">
          2.48396601e+05 2.44519405e+05 2.40968732e+05 2.37704639e+05 
        </DataArray>
      </PointData>
    </Piece>
    <Piece NumberOfPoints="4" NumberOfCells="3">
      <Points>
        <DataArray type="Float64" NumberOfComponents="3" format="ascii">
          5.30325845e-02 3.63560505e-02 0.00000000e+00 
5.68800643e-02 3.74470428e-02 0.00000000e+00 
6.07415959e-02 3.84872220e-02 0.00000000e+00 
6.46155030e-02 3.94803248e-02 0.00000000e+00 

        </DataArray>
      </Points>
      <Cells>
        <DataArray type="Int32" Name="connectivity" format="ascii">
0 1
1 2
2 3

        </DataArray>
        <DataArray type="Int32" Name="offsets" format="ascii">
2 4 6 
        </DataArray>
        <DataArray type="UInt8" Name="types" format="ascii">
3 3 3 
        </DataArray>
      </Cells>
      <PointData>
        <DataArray type="Float64" Name="rho">
          1.04154421e+00 1.02900333e+00 1.01741980e+00 1.00665299e+00 
        </DataArray>
        <DataArray type="Float64" Name="rhou">
          1.13153001e-02 1.82981602e-02 2.38282672e-02 2.76521723e-02 
        </DataArray>
        <DataArray type="Float64" Name="rhov">
          3.88694333e-02 3.71987220e-02 3.51393246e-02 3.19093938e-02 
        </DataArray>
        <DataArray type="Float64" Name="E">
          2.37704796e+05 2.34705881e+05 2.31938735e+05 2.29369243e+05 
        </DataArray>
      </PointData>
    </Piece>
    <Piece NumberOfPoints="4" NumberOfCells="3">
      <Points>
        <DataArray type="Float64" NumberOfComponents="3" format="ascii">
          6.46155030e-02 3.94803248e-02 0.00000000e+00 
6.85004294e-02 4.04294394e-02 0.00000000e+00 
7.23951608e-02 4.13374715e-02 0.00000000e+00 
7.62986317e-02 4.22072113e-02 0.00000000e+00 

        </DataArray>
      </Points>
      <Cells>
        <DataArray type="Int32" Name="connectivity" format="ascii">
0 1
1 2
2 3

        </DataArray>
        <DataArray type="Int32" Name="offsets" format="ascii">
2 4 6 
        </DataArray>
        <DataArray type="UInt8" Name="types" format="ascii">
3 3 3 
        </DataArray>
      </Cells>
      <PointData>
        <DataArray type="Float64" Name="rho">
          1.00665370e+00 9.96662231e-01 9.87356600e-01 9.78681321e-01 
        </DataArray>
        <DataArray type="Float64" Name="rhou">
          2.74715499e-02 2.94110388e-02 3.05054055e-02 3.05954033e-02 
        </DataArray>
        <DataArray type="Float64" Name="rhov">
          3.16110072e-02 2.77044446e-02 2.43264031e-02 2.10170951e-02 
        </DataArray>
        <DataArray type="Float64" Name="E">
          2.29369389e+05 2.26987544e+05 2.24771041e+05 2.22705974e+05 
        </DataArray>
      </PointData>
    </Piece>
    <Piece NumberOfPoints="4" NumberOfCells="3">
      <Points>
        <DataArray type="Float64" NumberOfComponents="3" format="ascii">
          7.62986317e-02 4.22072113e-02 0.00000000e+00 
8.02098960e-02 4.30411920e-02 0.00000000e+00 
8.41281936e-02 4.38414887e-02 0.00000000e+00 
8.80528912e-02 4.46097627e-02 0.00000000e+00 

        </DataArray>
      </Points>
      <Cells>
        <DataArray type="Int32" Name="connectivity" format="ascii">
0 1
1 2
2 3

        </DataArray>
        <DataArray type="Int32" Name="offsets" format="ascii">
2 4 6 
        </DataArray>
        <DataArray type="UInt8" Name="types" format="ascii">
3 3 3 
        </DataArray>
      </Cells>
      <PointData>
        <DataArray type="Float64" Name="rho">
          9.78680376e-01 9.70589220e-01 9.62987369e-01 9.55829072e-01 
        </DataArray>
        <DataArray type="Float64" Name="rhou">
          3.04480659e-02 3.04714207e-02 3.01958943e-02 2.91322688e-02 
        </DataArray>
        <DataArray type="Float64" Name="rhov">
          2.08538886e-02 1.82928845e-02 1.57832300e-02 1.31031945e-02 
        </DataArray>
        <DataArray type="Float64" Name="E">
          2.22705738e+05 2.20781220e+05 2.18974370e+05 2.17274103e+05 
        </DataArray>
      </PointData>
    </Piece>
    <Piece NumberOfPoints="4" NumberOfCells="3">
      <Points>
        <DataArray type="Float64" NumberOfComponents="3" format="ascii">
          8.80528912e-02 4.46097627e-02 0.00000000e+00 
9.19835642e-02 4.53475714e-02 0.00000000e+00 
9.59195644e-02 4.60564308e-02 0.00000000e+00 
9.98597518e-02 4.67394181e-02 0.00000000e+00 

        </DataArray>
      </Points>
      <Cells>
        <DataArray type="Int32" Name="connectivity" format="ascii">
0 1
1 2
2 3

        </DataArray>
        <DataArray type="Int32" Name="offsets" format="ascii">
2 4 6 
        </DataArray>
        <DataArray type="UInt8" Name="types" format="ascii">
3 3 3 
        </DataArray>
      </Cells>
      <PointData>
        <DataArray type="Float64" Name="rho">
          9.55829581e-01 9.49104814e-01 9.42800962e-01 9.36818307e-01 
        </DataArray>
        <DataArray type="Float64" Name="rhou">
          2.89401401e-02 2.75175370e-02 2.40524093e-02 2.85598656e-02 
        </DataArray>
        <DataArray type="Float64" Name="rhov">
          1.32660014e-02 1.06917915e-02 9.10962426e-03 8.61050402e-03 
        </DataArray>
        <DataArray type="Float64" Name="E">
          2.17274221e+05 2.15678158e+05 2.14182444e+05 2.12763984e+05 
        </DataArray>
      </PointData>
    </Piece>
    <Piece NumberOfPoints="4" NumberOfCells="3">
      <Points>
        <DataArray type="Float64" NumberOfComponents="3" format="ascii">
          9.98597518e-02 4.67394181e-02 0.00000000e+00 
1.10118888e-01 4.83862534e-02 0.00000000e+00 
1.20400399e-01 4.98730615e-02 0.00000000e+00 
1.30701363e-01 5.12186773e-02 0.00000000e+00 

        </DataArray>
      </Points>
      <Cells>
        <DataArray type="Int32" Name="connectivity" format="ascii">
0 1
1 2
2 3

        </DataArray>
        <DataArray type="Int32" Name="offsets" format="ascii">
2 4 6 
        </DataArray>
        <DataArray type="UInt8" Name="types" format="ascii">
3 3 3 
        </DataArray>
      </Cells>
      <PointData>
        <DataArray type="Float64" Name="rho">
          9.36745738e-01 9.22793589e-01 9.10760229e-01 9.00419172e-01 
        </DataArray>
        <DataArray type="Float64" Name="rhou">
          2.62931195e-02 1.81310428e-02 1.60042114e-02 1.25449356e-02 
        </DataArray>
        <DataArray type="Float64" Name="rhov">
          7.37828236e-03 4.15470379e-03 3.64718131e-03 2.97773088e-03 
        </DataArray>
        <DataArray type="Float64" Name="E">
          2.12747594e+05 2.09443571e+05 2.06597450e+05 2.04154258e+05 
        </DataArray>
      </PointData>
    </Piece>
    <Piece NumberOfPoints="4" NumberOfCells="3">
      <Points>
        <DataArray type="Float64" NumberOfComponents="3" format="ascii">
          1.30701363e-01 5.12186773e-02 0.00000000e+00 
1.41019106e-01 5.24347536e-02 0.00000000e+00 
1.51350453e-01 5.35292812e-02 0.00000000e+00 
1.61692888e-01 5.45137413e-02 0.00000000e+00 

        </DataArray>
      </Points>
      <Cells>
        <DataArray type="Int32" Name="connectivity" format="ascii">
0 1
1 2
2 3

        </DataArray>
        <DataArray type="Int32" Name="offsets" format="ascii">
2 4 6 
        </DataArray>
        <DataArray type="UInt8" Name="types" format="ascii">
3 3 3 
        </DataArray>
      </Cells>
      <PointData>
        <DataArray type="Float64" Name="rho">
          9.00415686e-01 8.91340341e-01 8.83506095e-01 8.76804577e-01 
        </DataArray>
        <DataArray type="Float64" Name="rhou">
          1.39235500e-02 1.20294171e-02 9.95816298e-03 8.69463217e-03 
        </DataArray>
        <DataArray type="Float64" Name="rhov">
          3.47575530e-03 2.55243288e-03 1.77757990e-03 1.60248479e-03 
        </DataArray>
        <DataArray type="Float64" Name="E">
          2.04153421e+05 2.02012670e+05 2.00167125e+05 1.98590156e+05 
        </DataArray>
      </PointData>
    </Piece>
    <Piece NumberOfPoints="4" NumberOfCells="3">
      <Points>
        <DataArray type="Float64" NumberOfComponents="3" format="ascii">
          1.61692888e-01 5.45137413e-02 0.00000000e+00 
1.72044471e-01 5.53969070e-02 0.00000000e+00 
1.82403773e-01 5.61845005e-02 0.00000000e+00 
1.92769483e-01 5.68825118e-02 0.00000000e+00 

        </DataArray>
      </Points>
      <Cells>
        <DataArray type="Int32" Name="connectivity" format="ascii">
0 1
1 2
2 3

        </DataArray>
        <DataArray type="Int32" Name="offsets" format="ascii">
2 4 6 
        </DataArray>
        <DataArray type="UInt8" Name="types" format="ascii">
3 3 3 
        </DataArray>
      </Cells>
      <PointData>
        <DataArray type="Float64" Name="rho">
          8.76802175e-01 8.71038354e-01 8.66121537e-01 8.61998941e-01 
        </DataArray>
        <DataArray type="Float64" Name="rhou">
          8.73128778e-03 7.60188342e-03 6.56932557e-03 5.66847793e-03 
        </DataArray>
        <DataArray type="Float64" Name="rhov">
          1.65397365e-03 1.29035130e-03 9.13117677e-04 6.85054840e-04 
        </DataArray>
        <DataArray type="Float64" Name="E">
          1.98589618e+05 1.97235266e+05 1.96081975e+05 1.95116758e+05 
        </DataArray>
      </PointData>
    </Piece>
    <Piece NumberOfPoints="4" NumberOfCells="3">
      <Points>
        <DataArray type="Float64" NumberOfComponents="3" format="ascii">
          1.92769483e-01 5.68825118e-02 0.00000000e+00 
2.03140482e-01 5.74972220e-02 0.00000000e+00 
2.13515818e-01 5.80338500e-02 0.00000000e+00 
2.23894730e-01 5.84962890e-02 0.00000000e+00 

        </DataArray>
      </Points>
      <Cells>
        <DataArray type="Int32" Name="connectivity" format="ascii">
0 1
1 2
2 3

        </DataArray>
        <DataArray type="Int32" Name="offsets" format="ascii">
2 4 6 
        </DataArray>
        <DataArray type="UInt8" Name="types" format="ascii">
3 3 3 
        </DataArray>
      </Cells>
      <PointData>
        <DataArray type="Float64" Name="rho">
          8.61998253e-01 8.58590026e-01 8.55812050e-01 8.53605861e-01 
        </DataArray>
        <DataArray type="Float64" Name="rhou">
          5.70509224e-03 4.98510375e-03 4.43000471e-03 3.97075910e-03 
        </DataArray>
        <DataArray type="Float64" Name="rhov">
          7.26314597e-04 6.36750866e-04 5.21408000e-04 3.98849277e-04 
        </DataArray>
        <DataArray type="Float64" Name="E">
          1.95116600e+05 1.94320318e+05 1.93673180e+05 1.93161269e+05 
        </DataArray>
      </PointData>
    </Piece>
    <Piece NumberOfPoints="4" NumberOfCells="3">
      <Points>
        <DataArray type="Float64" NumberOfComponents="3" format="ascii">
          2.23894730e-01 5.84962890e-02 0.00000000e+00 
2.34276548e-01 5.88882305e-02 0.00000000e+00 
2.44660646e-01 5.92139624e-02 0.00000000e+00 
2.55046517e-01 5.94772622e-02 0.00000000e+00 

        </DataArray>
      </Points>
      <Cells>
        <DataArray type="Int32" Name="connectivity" format="ascii">
0 1
1 2
2 3

        </DataArray>
        <DataArray type="Int32" Name="offsets" format="ascii">
2 4 6 
        </DataArray>
        <DataArray type="UInt8" Name="types" format="ascii">
3 3 3 
        </DataArray>
      </Cells>
      <PointData>
        <DataArray type="Float64" Name="rho">
          8.53606429e-01 8.51929559e-01 8.50737311e-01 8.49974136e-01 
        </DataArray>
        <DataArray type="Float64" Name="rhou">
          3.97839635e-03 3.45864601e-03 3.08174781e-03 2.85318585e-03 
        </DataArray>
        <DataArray type="Float64" Name="rhov">
          4.13189996e-04 3.35253040e-04 3.17849087e-04 3.16207234e-04 
        </DataArray>
        <DataArray type="Float64" Name="E">
          1.93161399e+05 1.92774470e+05 1.92501856e+05 1.92330464e+05 
        </DataArray>
      </PointData>
    </Piece>
    <Piece NumberOfPoints="4" NumberOfCells="3">
      <Points>
        <DataArray type="Float64" NumberOfComponents="3" format="ascii">
          2.55046517e-01 5.94772622e-02 0.00000000e+00 
2.65433758e-01 5.96804135e-02 0.00000000e+00 
2.75821954e-01 5.98256700e-02 0.00000000e+00 
2.86210775e-01 5.99167012e-02 0.00000000e+00 

        </DataArray>
      </Points>
      <Cells>
        <DataArray type="Int32" Name="connectivity" format="ascii">
0 1
1 2
2 3

        </DataArray>
        <DataArray type="Int32" Name="offsets" format="ascii">
2 4 6 
        </DataArray>
        <DataArray type="UInt8" Name="types" format="ascii">
3 3 3 
        </DataArray>
      </Cells>
      <PointData>
        <DataArray type="Float64" Name="rho">
          8.49974147e-01 8.49591575e-01 8.49564683e-01 8.49872847e-01 
        </DataArray>
        <DataArray type="Float64" Name="rhou">
          2.84747427e-03 2.56192174e-03 2.26940492e-03 2.00725629e-03 
        </DataArray>
        <DataArray type="Float64" Name="rhov">
          3.27463933e-04 2.32158845e-04 1.73862341e-04 2.07172089e-04 
        </DataArray>
        <DataArray type="Float64" Name="E">
          1.92330470e+05 1.92248895e+05 1.92251161e+05 1.92332190e+05 
        </DataArray>
      </PointData>
    </Piece>
    <Piece NumberOfPoints="4" NumberOfCells="3">
      <Points>
        <DataArray type="Float64" NumberOfComponents="3" format="ascii">
          2.86210775e-01 5.99167012e-02 0.00000000e+00 
2.96599895e-01 5.99572174e-02 0.00000000e+00 
3.06989133e-01 5.99487796e-02 0.00000000e+00 
3.17378193e-01 5.98919280e-02 0.00000000e+00 

        </DataArray>
      </Points>
      <Cells>
        <DataArray type="Int32" Name="connectivity" format="ascii">
0 1
1 2
2 3

        </DataArray>
        <DataArray type="Int32" Name="offsets" format="ascii">
2 4 6 
        </DataArray>
        <DataArray type="UInt8" Name="types" format="ascii">
3 3 3 
        </DataArray>
      </Cells>
      <PointData>
        <DataArray type="Float64" Name="rho">
          8.49871830e-01 8.50465837e-01 8.51298807e-01 8.52355479e-01 
        </DataArray>
        <DataArray type="Float64" Name="rhou">
          2.02600693e-03 1.91113742e-03 1.78543108e-03 1.60479049e-03 
        </DataArray>
        <DataArray type="Float64" Name="rhov">
          2.23460771e-04 2.50086486e-04 1.95765947e-04 1.21538654e-04 
        </DataArray>
        <DataArray type="Float64" Name="E">
          1.92331959e+05 1.92480193e+05 1.92684782e+05 1.92942056e+05 
        </DataArray>
      </PointData>
    </Piece>
    <Piece NumberOfPoints="4" NumberOfCells="3">
      <Points>
        <DataArray type="Float64" NumberOfComponents="3" format="ascii">
          3.17378193e-01 5.98919280e-02 0.00000000e+00 
3.27766895e-01 5.97884916e-02 0.00000000e+00 
3.38155061e-01 5.96415885e-02 0.00000000e+00 
3.48542601e-01 5.94538599e-02 0.00000000e+00 

        </DataArray>
      </Points>
      <Cells>
        <DataArray type="Int32" Name="connectivity" format="ascii">
0 1
1 2
2 3

        </DataArray>
        <DataArray type="Int32" Name="offsets" format="ascii">
2 4 6 
        </DataArray>
        <DataArray type="UInt8" Name="types" format="ascii">
3 3 3 
        </DataArray>
      </Cells>
      <PointData>
        <DataArray type="Float64" Name="rho">
          8.52355823e-01 8.53623279e-01 8.55081183e-01 8.56696652e-01 
        </DataArray>
        <DataArray type="Float64" Name="rhou">
          1.63404663e-03 1.43920018e-03 1.32305731e-03 1.27674970e-03 
        </DataArray>
        <DataArray type="Float64" Name="rhov">
          1.29171029e-04 1.17509899e-04 1.42608911e-04 1.62732607e-04 
        </DataArray>
        <DataArray type="Float64" Name="E">
          1.92942133e+05 1.93248927e+05 1.93600391e+05 1.93988846e+05 
        </DataArray>
      </PointData>
    </Piece>
    <Piece NumberOfPoints="4" NumberOfCells="3">
      <Points>
        <DataArray type="Float64" NumberOfComponents="3" format="ascii">
          3.48542601e-01 5.94538599e-02 0.00000000e+00 
3.58929336e-01 5.92265576e-02 0.00000000e+00 
3.69315147e-01 5.89610897e-02 0.00000000e+00 
3.79699975e-01 5.86590059e-02 0.00000000e+00 

        </DataArray>
      </Points>
      <Cells>
        <DataArray type="Int32" Name="connectivity" format="ascii">
0 1
1 2
2 3

        </DataArray>
        <DataArray type="Int32" Name="offsets" format="ascii">
2 4 6 
        </DataArray>
        <DataArray type="UInt8" Name="types" format="ascii">
3 3 3 
        </DataArray>
      </Cells>
      <PointData>
        <DataArray type="Float64" Name="rho">
          8.56696897e-01 8.58444416e-01 8.60314179e-01 8.62286282e-01 
        </DataArray>
        <DataArray type="Float64" Name="rhou">
          1.28894517e-03 1.16571520e-03 1.07244197e-03 1.02451808e-03 
        </DataArray>
        <DataArray type="Float64" Name="rhov">
          1.59676553e-04 1.23490588e-04 1.15717373e-04 1.13806119e-04 
        </DataArray>
        <DataArray type="Float64" Name="E">
          1.93988902e+05 1.94408383e+05 1.94856511e+05 1.95328631e+05 
        </DataArray>
      </PointData>
    </Piece>
    <Piece NumberOfPoints="4" NumberOfCells="3">
      <Points>
        <DataArray type="Float64" NumberOfComponents="3" format="ascii">
          3.79699975e-01 5.86590059e-02 0.00000000e+00 
3.90083700e-01 5.83211333e-02 0.00000000e+00 
4.00466233e-01 5.79482466e-02 0.00000000e+00 
4.10847515e-01 5.75418957e-02 0.00000000e+00 

        </DataArray>
      </Points>
      <Cells>
        <DataArray type="Int32" Name="connectivity" format="ascii">
0 1
1 2
2 3

        </DataArray>
        <DataArray type="Int32" Name="offsets" format="ascii">
2 4 6 
        </DataArray>
        <DataArray type="UInt8" Name="types" format="ascii">
3 3 3 
        </DataArray>
      </Cells>
      <PointData>
        <DataArray type="Float64" Name="rho">
          8.62286294e-01 8.64343841e-01 8.66476852e-01 8.68678715e-01 
        </DataArray>
        <DataArray type="Float64" Name="rhou">
          1.01685255e-03 9.52926732e-04 8.74654534e-04 7.99173820e-04 
        </DataArray>
        <DataArray type="Float64" Name="rhov">
          1.16238245e-04 8.57981282e-05 6.28157042e-05 6.78233313e-05 
        </DataArray>
        <DataArray type="Float64" Name="E">
          1.95328635e+05 1.95820795e+05 1.96330631e+05 1.96856533e+05 
        </DataArray>
      </PointData>
    </Piece>
    <Piece NumberOfPoints="4" NumberOfCells="3">
      <Points>
        <DataArray type="Float64" NumberOfComponents="3" format="ascii">
          4.10847515e-01 5.75418957e-02 0.00000000e+00 
4.21227485e-01 5.71038015e-02 0.00000000e+00 
4.31606144e-01 5.66351078e-02 0.00000000e+00 
4.41983402e-01 5.61364293e-02 0.00000000e+00 

        </DataArray>
      </Points>
      <Cells>
        <DataArray type="Int32" Name="connectivity" format="ascii">
0 1
1 2
2 3

        </DataArray>
        <DataArray type="Int32" Name="offsets" format="ascii">
2 4 6 
        </DataArray>
        <DataArray type="UInt8" Name="types" format="ascii">
3 3 3 
        </DataArray>
      </Cells>
      <PointData>
        <DataArray type="Float64" Name="rho">
          8.68678516e-01 8.70933661e-01 8.73230454e-01 8.75559248e-01 
        </DataArray>
        <DataArray type="Float64" Name="rhou">
          8.15583743e-04 7.64201950e-04 7.25258851e-04 6.88284804e-04 
        </DataArray>
        <DataArray type="Float64" Name="rhov">
          7.12405976e-05 7.10540809e-05 6.12497541e-05 4.01552115e-05 
        </DataArray>
        <DataArray type="Float64" Name="E">
          1.96856488e+05 1.97394817e+05 1.97942854e+05 1.98498340e+05 
        </DataArray>
      </PointData>
    </Piece>
    <Piece NumberOfPoints="4" NumberOfCells="3">
      <Points>
        <DataArray type="Float64" NumberOfComponents="3" format="ascii">
          4.41983402e-01 5.61364293e-02 0.00000000e+00 
4.52359200e-01 5.56085743e-02 0.00000000e+00 
4.62733537e-01 5.50529286e-02 0.00000000e+00 
4.73106444e-01 5.44707514e-02 0.00000000e+00 

        </DataArray>
      </Points>
      <Cells>
        <DataArray type="Int32" Name="connectivity" format="ascii">
0 1
1 2
2 3

        </DataArray>
        <DataArray type="Int32" Name="offsets" format="ascii">
2 4 6 
        </DataArray>
        <DataArray type="UInt8" Name="types" format="ascii">
3 3 3 
        </DataArray>
      </Cells>
      <PointData>
        <DataArray type="Float64" Name="rho">
          8.75559390e-01 8.77915740e-01 8.80293218e-01 8.82683404e-01 
        </DataArray>
        <DataArray type="Float64" Name="rhou">
          6.85302801e-04 6.29684381e-04 5.89832665e-04 5.66367644e-04 
        </DataArray>
        <DataArray type="Float64" Name="rhov">
          4.08087431e-05 3.32179007e-05 3.34603277e-05 3.34837239e-05 
        </DataArray>
        <DataArray type="Float64" Name="E">
          1.98498373e+05 1.99060230e+05 1.99626936e+05 2.00196522e+05 
        </DataArray>
      </PointData>
    </Piece>
    <Piece NumberOfPoints="4" NumberOfCells="3">
      <Points>
        <DataArray type="Float64" NumberOfComponents="3" format="ascii">
          4.73106444e-01 5.44707514e-02 0.00000000e+00 
4.83477861e-01 5.38627952e-02 0.00000000e+00 
4.93847787e-01 5.32294959e-02 0.00000000e+00 
5.04216135e-01 5.25716618e-02 0.00000000e+00 

        </DataArray>
      </Points>
      <Cells>
        <DataArray type="Int32" Name="connectivity" format="ascii">
0 1
1 2
2 3

        </DataArray>
        <DataArray type="Int32" Name="offsets" format="ascii">
2 4 6 
        </DataArray>
        <DataArray type="UInt8" Name="types" format="ascii">
3 3 3 
        </DataArray>
      </Cells>
      <PointData>
        <DataArray type="Float64" Name="rho">
          8.82683391e-01 8.85079487e-01 8.87476173e-01 8.89872363e-01 
        </DataArray>
        <DataArray type="Float64" Name="rhou">
          5.58831783e-04 5.37850451e-04 5.02846113e-04 4.61382463e-04 
        </DataArray>
        <DataArray type="Float64" Name="rhov">
          3.52891083e-05 2.38493485e-05 8.99141293e-06 6.26355341e-06 
        </DataArray>
        <DataArray type="Float64" Name="E">
          2.00196519e+05 2.00767394e+05 2.01338313e+05 2.01908991e+05 
        </DataArray>
      </PointData>
    </Piece>
    <Piece NumberOfPoints="4" NumberOfCells="3">
      <Points>
        <DataArray type="Float64" NumberOfComponents="3" format="ascii">
          5.04216135e-01 5.25716618e-02 0.00000000e+00 
5.14582992e-01 5.18903993e-02 0.00000000e+00 
5.24948359e-01 5.11864908e-02 0.00000000e+00 
5.35312176e-01 5.04603274e-02 0.00000000e+00 

        </DataArray>
      </Points>
      <Cells>
        <DataArray type="Int32" Name="connectivity" format="ascii">
0 1
1 2
2 3

        </DataArray>
        <DataArray type="Int32" Name="offsets" format="ascii">
2 4 6 
        </DataArray>
        <DataArray type="UInt8" Name="types" format="ascii">
3 3 3 
        </DataArray>
      </Cells>
      <PointData>
        <DataArray type="Float64" Name="rho">
          8.89872278e-01 8.92262636e-01 8.94642769e-01 8.97009269e-01 
        </DataArray>
        <DataArray type="Float64" Name="rhou">
          4.69837169e-04 4.43799517e-04 4.24112503e-04 4.04793808e-04 
        </DataArray>
        <DataArray type="Float64" Name="rhov">
          8.41456640e-06 7.92354250e-06 2.44968634e-06 -9.35773296e-06 
        </DataArray>
        <DataArray type="Float64" Name="E">
          2.01908972e+05 2.02478160e+05 2.03044835e+05 2.03608198e+05 
        </DataArray>
      </PointData>
    </Piece>
    <Piece NumberOfPoints="4" NumberOfCells="3">
      <Points>
        <DataArray type="Float64" NumberOfComponents="3" format="ascii">
          5.35312176e-01 5.04603274e-02 0.00000000e+00 
5.45674443e-01 4.97124642e-02 0.00000000e+00 
5.56035221e-01 4.89437394e-02 0.00000000e+00 
5.66394389e-01 4.81546782e-02 0.00000000e+00 

        </DataArray>
      </Points>
      <Cells>
        <DataArray type="Int32" Name="connectivity" format="ascii">
0 1
1 2
2 3

        </DataArray>
        <DataArray type="Int32" Name="offsets" format="ascii">
2 4 6 
        </DataArray>
        <DataArray type="UInt8" Name="types" format="ascii">
3 3 3 
        </DataArray>
      </Cells>
      <PointData>
        <DataArray type="Float64" Name="rho">
          8.97009313e-01 8.99361560e-01 9.01696710e-01 9.04011976e-01 
        </DataArray>
        <DataArray type="Float64" Name="rhou">
          4.00580022e-04 3.74289603e-04 3.55936589e-04 3.44157874e-04 
        </DataArray>
        <DataArray type="Float64" Name="rhov">
          -9.06791292e-06 -9.89190526e-06 -1.07190682e-05 -1.50024660e-05 
        </DataArray>
        <DataArray type="Float64" Name="E">
          2.03608208e+05 2.04168097e+05 2.04723847e+05 2.05274810e+05 
        </DataArray>
      </PointData>
    </Piece>
    <Piece NumberOfPoints="4" NumberOfCells="3">
      <Points>
        <DataArray type="Float64" NumberOfComponents="3" format="ascii">
          5.66394389e-01 4.81546782e-02 0.00000000e+00 
5.76752067e-01 4.73455116e-02 0.00000000e+00 
5.87108195e-01 4.65166979e-02 0.00000000e+00 
5.97462773e-01 4.56690118e-02 0.00000000e+00 

        </DataArray>
      </Points>
      <Cells>
        <DataArray type="Int32" Name="connectivity" format="ascii">
0 1
1 2
2 3

        </DataArray>
        <DataArray type="Int32" Name="offsets" format="ascii">
2 4 6 
        </DataArray>
        <DataArray type="UInt8" Name="types" format="ascii">
3 3 3 
        </DataArray>
      </Cells>
      <PointData>
        <DataArray type="Float64" Name="rho">
          9.04012005e-01 9.06305773e-01 9.08577780e-01 9.10827190e-01 
        </DataArray>
        <DataArray type="Float64" Name="rhou">
          3.43487080e-04 3.23215289e-04 3.02275644e-04 2.86309963e-04 
        </DataArray>
        <DataArray type="Float64" Name="rhov">
          -1.46621589e-05 -2.32675205e-05 -2.68514212e-05 -2.57497129e-05 
        </DataArray>
        <DataArray type="Float64" Name="E">
          2.05274817e+05 2.05820615e+05 2.06361176e+05 2.06896302e+05 
        </DataArray>
      </PointData>
    </Piece>
    <Piece NumberOfPoints="4" NumberOfCells="3">
      <Points>
        <DataArray type="Float64" NumberOfComponents="3" format="ascii">
          5.97462773e-01 4.56690118e-02 0.00000000e+00 
6.07815862e-01 4.48031016e-02 0.00000000e+00 
6.18167400e-01 4.39192392e-02 0.00000000e+00 
6.28517449e-01 4.30175588e-02 0.00000000e+00 

        </DataArray>
      </Points>
      <Cells>
        <DataArray type="Int32" Name="connectivity" format="ascii">
0 1
1 2
2 3

        </DataArray>
        <DataArray type="Int32" Name="offsets" format="ascii">
2 4 6 
        </DataArray>
        <DataArray type="UInt8" Name="types" format="ascii">
3 3 3 
        </DataArray>
      </Cells>
      <PointData>
        <DataArray type="Float64" Name="rho">
          9.10827127e-01 9.13052132e-01 9.15251000e-01 9.17423945e-01 
        </DataArray>
        <DataArray type="Float64" Name="rhou">
          2.84402508e-04 2.75696594e-04 2.63749320e-04 2.46633645e-04 
        </DataArray>
        <DataArray type="Float64" Name="rhov">
          -2.48315570e-05 -2.53518721e-05 -3.09503605e-05 -3.63016203e-05 
        </DataArray>
        <DataArray type="Float64" Name="E">
          2.06896288e+05 2.07425559e+05 2.07948578e+05 2.08465391e+05 
        </DataArray>
      </PointData>
    </Piece>
    <Piece NumberOfPoints="4" NumberOfCells="3">
      <Points>
        <DataArray type="Float64" NumberOfComponents="3" format="ascii">
          6.28517449e-01 4.30175588e-02 0.00000000e+00 
6.38865948e-01 4.20984775e-02 0.00000000e+00 
6.49212897e-01 4.11624312e-02 0.00000000e+00 
6.59558356e-01 4.02097441e-02 0.00000000e+00 

        </DataArray>
      </Points>
      <Cells>
        <DataArray type="Int32" Name="connectivity" format="ascii">
0 1
1 2
2 3

        </DataArray>
        <DataArray type="Int32" Name="offsets" format="ascii">
2 4 6 
        </DataArray>
        <DataArray type="UInt8" Name="types" format="ascii">
3 3 3 
        </DataArray>
      </Cells>
      <PointData>
        <DataArray type="Float64" Name="rho">
          9.17423937e-01 9.19570827e-01 9.21690882e-01 9.23783843e-01 
        </DataArray>
        <DataArray type="Float64" Name="rhou">
          2.47596493e-04 2.34863718e-04 2.23957429e-04 2.12243137e-04 
        </DataArray>
        <DataArray type="Float64" Name="rhov">
          -3.52948396e-05 -3.60275142e-05 -3.79032428e-05 -4.01484553e-05 
        </DataArray>
        <DataArray type="Float64" Name="E">
          2.08465389e+05 2.08975963e+05 2.09480119e+05 2.09977799e+05 
        </DataArray>
      </PointData>
    </Piece>
    <Piece NumberOfPoints="4" NumberOfCells="3">
      <Points>
        <DataArray type="Float64" NumberOfComponents="3" format="ascii">
          6.59558356e-01 4.02097441e-02 0.00000000e+00 
6.69902325e-01 3.92407738e-02 0.00000000e+00 
6.80244744e-01 3.82556282e-02 0.00000000e+00 
6.90585554e-01 3.72543521e-02 0.00000000e+00 

        </DataArray>
      </Points>
      <Cells>
        <DataArray type="Int32" Name="connectivity" format="ascii">
0 1
1 2
2 3

        </DataArray>
        <DataArray type="Int32" Name="offsets" format="ascii">
2 4 6 
        </DataArray>
        <DataArray type="UInt8" Name="types" format="ascii">
3 3 3 
        </DataArray>
      </Cells>
      <PointData>
        <DataArray type="Float64" Name="rho">
          9.23783826e-01 9.25849740e-01 9.27887526e-01 9.29898013e-01 
        </DataArray>
        <DataArray type="Float64" Name="rhou">
          2.09078974e-04 2.04018483e-04 1.95410380e-04 1.80879812e-04 
        </DataArray>
        <DataArray type="Float64" Name="rhov">
          -3.91250672e-05 -3.91338208e-05 -4.35816022e-05 -4.72217778e-05 
        </DataArray>
        <DataArray type="Float64" Name="E">
          2.09977795e+05 2.10469010e+05 2.10953518e+05 2.11431508e+05 
        </DataArray>
      </PointData>
    </Piece>
    <Piece NumberOfPoints="4" NumberOfCells="3">
      <Points>
        <DataArray type="Float64" NumberOfComponents="3" format="ascii">
          6.90585554e-01 3.72543521e-02 0.00000000e+00 
7.00924933e-01 3.62373814e-02 0.00000000e+00 
7.11262703e-01 3.52048986e-02 0.00000000e+00 
7.21598923e-01 3.41568366e-02 0.00000000e+00 

        </DataArray>
      </Points>
      <Cells>
        <DataArray type="Int32" Name="connectivity" format="ascii">
0 1
1 2
2 3

        </DataArray>
        <DataArray type="Int32" Name="offsets" format="ascii">
2 4 6 
        </DataArray>
        <DataArray type="UInt8" Name="types" format="ascii">
3 3 3 
        </DataArray>
      </Cells>
      <PointData>
        <DataArray type="Float64" Name="rho">
          9.29897971e-01 9.31881605e-01 9.33837244e-01 9.35765562e-01 
        </DataArray>
        <DataArray type="Float64" Name="rhou">
          1.79517388e-04 1.74383278e-04 1.69084704e-04 1.56101235e-04 
        </DataArray>
        <DataArray type="Float64" Name="rhov">
          -4.61173624e-05 -4.36649447e-05 -4.69841598e-05 -5.16977696e-05 
        </DataArray>
        <DataArray type="Float64" Name="E">
          2.11431499e+05 2.11903076e+05 2.12367985e+05 2.12826382e+05 
        </DataArray>
      </PointData>
    </Piece>
    <Piece NumberOfPoints="4" NumberOfCells="3">
      <Points>
        <DataArray type="Float64" NumberOfComponents="3" format="ascii">
          7.21598923e-01 3.41568366e-02 0.00000000e+00 
7.31933594e-01 3.30936089e-02 0.00000000e+00 
7.42266715e-01 3.20154354e-02 0.00000000e+00 
7.52598286e-01 3.09220124e-02 0.00000000e+00 

        </DataArray>
      </Points>
      <Cells>
        <DataArray type="Int32" Name="connectivity" format="ascii">
0 1
1 2
2 3

        </DataArray>
        <DataArray type="Int32" Name="offsets" format="ascii">
2 4 6 
        </DataArray>
        <DataArray type="UInt8" Name="types" format="ascii">
3 3 3 
        </DataArray>
      </Cells>
      <PointData>
        <DataArray type="Float64" Name="rho">
          9.35765541e-01 9.37667593e-01 9.39542089e-01 9.41389577e-01 
        </DataArray>
        <DataArray type="Float64" Name="rhou">
          1.53493222e-04 1.49225784e-04 1.46185174e-04 1.35819131e-04 
        </DataArray>
        <DataArray type="Float64" Name="rhov">
          -5.07402714e-05 -4.63150538e-05 -4.85778615e-05 -5.36444989e-05 
        </DataArray>
        <DataArray type="Float64" Name="E">
          2.12826378e+05 2.13278507e+05 2.13724078e+05 2.14163220e+05 
        </DataArray>
      </PointData>
    </Piece>
    <Piece NumberOfPoints="4" NumberOfCells="3">
      <Points>
        <DataArray type="Float64" NumberOfComponents="3" format="ascii">
          7.52598286e-01 3.09220124e-02 0.00000000e+00 
7.62928188e-01 2.98135038e-02 0.00000000e+00 
7.73256481e-01 2.86899786e-02 0.00000000e+00 
7.83583105e-01 2.75512449e-02 0.00000000e+00 

        </DataArray>
      </Points>
      <Cells>
        <DataArray type="Int32" Name="connectivity" format="ascii">
0 1
1 2
2 3

        </DataArray>
        <DataArray type="Int32" Name="offsets" format="ascii">
2 4 6 
        </DataArray>
        <DataArray type="UInt8" Name="types" format="ascii">
3 3 3 
        </DataArray>
      </Cells>
      <PointData>
        <DataArray type="Float64" Name="rho">
          9.41389572e-01 9.43211224e-01 9.45006277e-01 9.46775456e-01 
        </DataArray>
        <DataArray type="Float64" Name="rhou">
          1.33288537e-04 1.29379028e-04 1.25338007e-04 1.15880902e-04 
        </DataArray>
        <DataArray type="Float64" Name="rhov">
          -5.27400596e-05 -5.04600070e-05 -5.26399777e-05 -5.58418050e-05 
        </DataArray>
        <DataArray type="Float64" Name="E">
          2.14163219e+05 2.14596203e+05 2.15022857e+05 2.15443349e+05 
        </DataArray>
      </PointData>
    </Piece>
    <Piece NumberOfPoints="4" NumberOfCells="3">
      <Points>
        <DataArray type="Float64" NumberOfComponents="3" format="ascii">
          7.83583105e-01 2.75512449e-02 0.00000000e+00 
7.93908060e-01 2.63975188e-02 0.00000000e+00 
8.04231405e-01 2.52291560e-02 0.00000000e+00 
8.14553022e-01 2.40457114e-02 0.00000000e+00 

        </DataArray>
      </Points>
      <Cells>
        <DataArray type="Int32" Name="connectivity" format="ascii">
0 1
1 2
2 3

        </DataArray>
        <DataArray type="Int32" Name="offsets" format="ascii">
2 4 6 
        </DataArray>
        <DataArray type="UInt8" Name="types" format="ascii">
3 3 3 
        </DataArray>
      </Cells>
      <PointData>
        <DataArray type="Float64" Name="rho">
          9.46775462e-01 9.48519558e-01 9.50238525e-01 9.51931763e-01 
        </DataArray>
        <DataArray type="Float64" Name="rhou">
          1.18416104e-04 1.07701117e-04 1.06440955e-04 1.07187509e-04 
        </DataArray>
        <DataArray type="Float64" Name="rhov">
          -5.61872645e-05 -5.25456112e-05 -5.13141965e-05 -5.76912016e-05 
        </DataArray>
        <DataArray type="Float64" Name="E">
          2.15443351e+05 2.15857861e+05 2.16266379e+05 2.16668768e+05 
        </DataArray>
      </PointData>
    </Piece>
    <Piece NumberOfPoints="4" NumberOfCells="3">
      <Points>
        <DataArray type="Float64" NumberOfComponents="3" format="ascii">
          8.14553022e-01 2.40457114e-02 0.00000000e+00 
8.24872792e-01 2.28467938e-02 0.00000000e+00 
8.35190892e-01 2.16327831e-02 0.00000000e+00 
8.45507145e-01 2.04038676e-02 0.00000000e+00 

        </DataArray>
      </Points>
      <Cells>
        <DataArray type="Int32" Name="connectivity" format="ascii">
0 1
1 2
2 3

        </DataArray>
        <DataArray type="Int32" Name="offsets" format="ascii">
2 4 6 
        </DataArray>
        <DataArray type="UInt8" Name="types" format="ascii">
3 3 3 
        </DataArray>
      </Cells>
      <PointData>
        <DataArray type="Float64" Name="rho">
          9.51931805e-01 9.53600985e-01 9.55246424e-01 9.56868299e-01 
        </DataArray>
        <DataArray type="Float64" Name="rhou">
          1.01403381e-04 9.31083018e-05 8.60489066e-05 8.64459940e-05 
        </DataArray>
        <DataArray type="Float64" Name="rhov">
          -5.79453623e-05 -5.78727927e-05 -5.51213713e-05 -5.13071687e-05 
        </DataArray>
        <DataArray type="Float64" Name="E">
          2.16668778e+05 2.17065415e+05 2.17456367e+05 2.17841669e+05 
        </DataArray>
      </PointData>
    </Piece>
    <Piece NumberOfPoints="4" NumberOfCells="3">
      <Points>
        <DataArray type="Float64" NumberOfComponents="3" format="ascii">
          8.45507145e-01 2.04038676e-02 0.00000000e+00 
8.55821550e-01 1.91591792e-02 0.00000000e+00 
8.66134048e-01 1.78987328e-02 0.00000000e+00 
8.76444638e-01 1.66228991e-02 0.00000000e+00 

        </DataArray>
      </Points>
      <Cells>
        <DataArray type="Int32" Name="connectivity" format="ascii">
0 1
1 2
2 3

        </DataArray>
        <DataArray type="Int32" Name="offsets" format="ascii">
2 4 6 
        </DataArray>
        <DataArray type="UInt8" Name="types" format="ascii">
3 3 3 
        </DataArray>
      </Cells>
      <PointData>
        <DataArray type="Float64" Name="rho">
          9.56868409e-01 9.58465415e-01 9.60041396e-01 9.61592941e-01 
        </DataArray>
        <DataArray type="Float64" Name="rhou">
          1.07488900e-04 7.63383767e-05 7.47758096e-05 9.04203660e-05 
        </DataArray>
        <DataArray type="Float64" Name="rhov">
          -5.48926938e-05 -6.22384532e-05 -5.97505110e-05 -7.73818118e-05 
        </DataArray>
        <DataArray type="Float64" Name="E">
          2.17841694e+05 2.18221039e+05 2.18595293e+05 2.18963668e+05 
        </DataArray>
      </PointData>
    </Piece>
    <Piece NumberOfPoints="4" NumberOfCells="3">
      <Points>
        <DataArray type="Float64" NumberOfComponents="3" format="ascii">
          8.76444638e-01 1.66228991e-02 0.00000000e+00 
8.86753201e-01 1.53310820e-02 0.00000000e+00 
8.97059798e-01 1.40233757e-02 0.00000000e+00 
9.07364249e-01 1.26988320e-02 0.00000000e+00 

        </DataArray>
      </Points>
      <Cells>
        <DataArray type="Int32" Name="connectivity" format="ascii">
0 1
1 2
2 3

        </DataArray>
        <DataArray type="Int32" Name="offsets" format="ascii">
2 4 6 
        </DataArray>
        <DataArray type="UInt8" Name="types" format="ascii">
3 3 3 
        </DataArray>
      </Cells>
      <PointData>
        <DataArray type="Float64" Name="rho">
          9.61592492e-01 9.63126239e-01 9.64634703e-01 9.66136610e-01 
        </DataArray>
        <DataArray type="Float64" Name="rhou">
          -1.40484051e-06 9.07833476e-05 3.52852446e-05 -1.78746423e-05 
        </DataArray>
        <DataArray type="Float64" Name="rhov">
          -6.94108733e-05 -7.29862036e-05 -9.20625034e-05 6.59886267e-06 
        </DataArray>
        <DataArray type="Float64" Name="E">
          2.18963566e+05 2.19327563e+05 2.19685475e+05 2.20041570e+05 
        </DataArray>
      </PointData>
    </Piece>
    <Piece NumberOfPoints="4" NumberOfCells="3">
      <Points>
        <DataArray type="Float64" NumberOfComponents="3" format="ascii">
          9.07364249e-01 1.26988320e-02 0.00000000e+00 
9.17666554e-01 1.13577880e-02 0.00000000e+00 
9.27966774e-01 1.00004105e-02 0.00000000e+00 
9.38264549e-01 8.62528384e-03 0.00000000e+00 

        </DataArray>
      </Points>
      <Cells>
        <DataArray type="Int32" Name="connectivity" format="ascii">
0 1
1 2
2 3

        </DataArray>
        <DataArray type="Int32" Name="offsets" format="ascii">
2 4 6 
        </DataArray>
        <DataArray type="UInt8" Name="types" format="ascii">
3 3 3 
        </DataArray>
      </Cells>
      <PointData>
        <DataArray type="Float64" Name="rho">
          9.66141471e-01 9.67594377e-01 9.69071245e-01 9.70401097e-01 
        </DataArray>
        <DataArray type="Float64" Name="rhou">
          7.91393692e-04 -2.16135239e-04 3.33554894e-04 7.58317144e-04 
        </DataArray>
        <DataArray type="Float64" Name="rhov">
          -6.28159029e-05 -1.15879773e-04 -4.51714483e-05 -1.46112052e-03 
        </DataArray>
        <DataArray type="Float64" Name="E">
          2.20042676e+05 2.20387310e+05 2.20737151e+05 2.21053360e+05 
        </DataArray>
      </PointData>
    </Piece>
    <Piece NumberOfPoints="4" NumberOfCells="3">
      <Points>
        <DataArray type="Float64" NumberOfComponents="3" format="ascii">
          9.38264549e-01 8.62528384e-03 0.00000000e+00 
9.48560059e-01 7.23283459e-03 0.00000000e+00 
9.58853185e-01 5.82307298e-03 0.00000000e+00 
9.69143867e-01 4.39538015e-03 0.00000000e+00 

        </DataArray>
      </Points>
      <Cells>
        <DataArray type="Int32" Name="connectivity" format="ascii">
0 1
1 2
2 3

        </DataArray>
        <DataArray type="Int32" Name="offsets" format="ascii">
2 4 6 
        </DataArray>
        <DataArray type="UInt8" Name="types" format="ascii">
3 3 3 
        </DataArray>
      </Cells>
      <PointData>
        <DataArray type="Float64" Name="rho">
          9.70353623e-01 9.72003023e-01 9.73239223e-01 9.75919745e-01 
        </DataArray>
        <DataArray type="Float64" Name="rhou">
          -6.68006145e-03 2.12691330e-03 -3.15785967e-03 -1.89825099e-02 
        </DataArray>
        <DataArray type="Float64" Name="rhov">
          -1.08697351e-03 1.30938184e-04 -1.12907211e-03 1.88962271e-02 
        </DataArray>
        <DataArray type="Float64" Name="E">
          2.21042547e+05 2.21431557e+05 2.21726754e+05 2.22351665e+05 
        </DataArray>
      </PointData>
    </Piece>
    <Piece NumberOfPoints="4" NumberOfCells="3">
      <Points>
        <DataArray type="Float64" NumberOfComponents="3" format="ascii">
          9.69143867e-01 4.39538015e-03 0.00000000e+00 
9.79435980e-01 2.94816052e-03 0.00000000e+00 
9.89725590e-01 1.48259092e-03 0.00000000e+00 
1.00000000e+00 0.00000000e+00 0.00000000e+00 

        </DataArray>
      </Points>
      <Cells>
        <DataArray type="Int32" Name="connectivity" format="ascii">
0 1
1 2
2 3

        </DataArray>
        <DataArray type="Int32" Name="offsets" format="ascii">
2 4 6 
        </DataArray>
        <DataArray type="UInt8" Name="types" format="ascii">
3 3 3 
        </DataArray>
      </Cells>
      <PointData>
        <DataArray type="Float64" Name="rho">
          9.76213981e-01 9.75809906e-01 9.79614343e-01 9.69723491e-01 
        </DataArray>
        <DataArray type="Float64" Name="rhou">
          -1.49406246e-03 -9.53675712e-03 -3.75038023e-02 4.94918859e-01 
        </DataArray>
        <DataArray type="Float64" Name="rhov">
          2.12233629e-02 9.85140015e-04 5.22714652e-02 -1.36978688e-01 
        </DataArray>
        <DataArray type="Float64" Name="E">
          2.22418684e+05 2.22342041e+05 2.23225985e+05 2.20992713e+05 
        </DataArray>
      </PointData>
    </Piece>
    <Piece NumberOfPoints="4" NumberOfCells="3">
      <Points>
        <DataArray type="Float64" NumberOfComponents="3" format="ascii">
          9.69029665e-01 -4.41133138e-03 0.00000000e+00 
9.79355037e-01 -2.95961346e-03 0.00000000e+00 
9.89677846e-01 -1.48943183e-03 0.00000000e+00 
1.00000000e+00 0.00000000e+00 0.00000000e+00 

        </DataArray>
      </Points>
      <Cells>
        <DataArray type="Int32" Name="connectivity" format="ascii">
0 1
1 2
2 3

        </DataArray>
        <DataArray type="Int32" Name="offsets" format="ascii">
2 4 6 
        </DataArray>
        <DataArray type="UInt8" Name="types" format="ascii">
3 3 3 
        </DataArray>
      </Cells>
      <PointData>
        <DataArray type="Float64" Name="rho">
          9.75040805e-01 9.74707923e-01 9.78471972e-01 9.69849547e-01 
        </DataArray>
        <DataArray type="Float64" Name="rhou">
          -9.11981923e-04 -7.50253227e-03 -3.53680530e-02 4.55566687e-01 
        </DataArray>
        <DataArray type="Float64" Name="rhov">
          -2.32841462e-02 2.04117632e-03 -4.85266043e-02 1.42163547e-01 
        </DataArray>
        <DataArray type="Float64" Name="E">
          2.22163077e+05 2.22099545e+05 2.22970509e+05 2.21021990e+05 
        </DataArray>
      </PointData>
    </Piece>
    <Piece NumberOfPoints="4" NumberOfCells="3">
      <Points>
        <DataArray type="Float64" NumberOfComponents="3" format="ascii">
          9.38035965e-01 -8.65600072e-03 0.00000000e+00 
9.48369622e-01 -7.25875143e-03 0.00000000e+00 
9.58700895e-01 -5.84406452e-03 0.00000000e+00 
9.69029665e-01 -4.41133138e-03 0.00000000e+00 

        </DataArray>
      </Points>
      <Cells>
        <DataArray type="Int32" Name="connectivity" format="ascii">
0 1
1 2
2 3

        </DataArray>
        <DataArray type="Int32" Name="offsets" format="ascii">
2 4 6 
        </DataArray>
        <DataArray type="UInt8" Name="types" format="ascii">
3 3 3 
        </DataArray>
      </Cells>
      <PointData>
        <DataArray type="Float64" Name="rho">
          9.69335108e-01 9.70943834e-01 9.72155362e-01 9.74751841e-01 
        </DataArray>
        <DataArray type="Float64" Name="rhou">
          -6.28904594e-03 2.28257170e-03 -2.60662647e-03 -1.70000547e-02 
        </DataArray>
        <DataArray type="Float64" Name="rhov">
          1.09032243e-03 -1.69940799e-04 1.33206652e-03 -1.73829843e-02 
        </DataArray>
        <DataArray type="Float64" Name="E">
          2.20827880e+05 2.21206275e+05 2.21494017e+05 2.22097277e+05 
        </DataArray>
      </PointData>
    </Piece>
    <Piece NumberOfPoints="4" NumberOfCells="3">
      <Points>
        <DataArray type="Float64" NumberOfComponents="3" format="ascii">
          9.07021165e-01 -1.27432076e-02 0.00000000e+00 
9.17361677e-01 -1.13977119e-02 0.00000000e+00 
9.27700043e-01 -1.00357840e-02 0.00000000e+00 
9.38035965e-01 -8.65600072e-03 0.00000000e+00 

        </DataArray>
      </Points>
      <Cells>
        <DataArray type="Int32" Name="connectivity" format="ascii">
0 1
1 2
2 3

        </DataArray>
        <DataArray type="Int32" Name="offsets" format="ascii">
2 4 6 
        </DataArray>
        <DataArray type="UInt8" Name="types" format="ascii">
3 3 3 
        </DataArray>
      </Cells>
      <PointData>
        <DataArray type="Float64" Name="rho">
          9.65256350e-01 9.66657026e-01 9.68088174e-01 9.69381336e-01 
        </DataArray>
        <DataArray type="Float64" Name="rhou">
          9.12775126e-04 -7.17690246e-05 4.87429503e-04 8.77102189e-04 
        </DataArray>
        <DataArray type="Float64" Name="rhov">
          5.03055666e-05 7.71267270e-05 -8.78297643e-06 1.37509241e-03 
        </DataArray>
        <DataArray type="Float64" Name="E">
          2.19860735e+05 2.20192832e+05 2.20531516e+05 2.20838402e+05 
        </DataArray>
      </PointData>
    </Piece>
    <Piece NumberOfPoints="4" NumberOfCells="3">
      <Points>
        <DataArray type="Float64" NumberOfComponents="3" format="ascii">
          8.75986874e-01 -1.66798849e-02 0.00000000e+00 
8.86333704e-01 -1.53839625e-02 0.00000000e+00 
8.96678507e-01 -1.40720531e-02 0.00000000e+00 
9.07021165e-01 -1.27432076e-02 0.00000000e+00 

        </DataArray>
      </Points>
      <Cells>
        <DataArray type="Int32" Name="connectivity" format="ascii">
0 1
1 2
2 3

        </DataArray>
        <DataArray type="Int32" Name="offsets" format="ascii">
2 4 6 
        </DataArray>
        <DataArray type="UInt8" Name="types" format="ascii">
3 3 3 
        </DataArray>
      </Cells>
      <PointData>
        <DataArray type="Float64" Name="rho">
          9.60934358e-01 9.62381406e-01 9.63814958e-01 9.65251497e-01 
        </DataArray>
        <DataArray type="Float64" Name="rhou">
          1.51031886e-04 2.30051305e-04 1.82595608e-04 1.30774559e-04 
        </DataArray>
        <DataArray type="Float64" Name="rhov">
          6.85145079e-05 6.01588540e-05 7.51094198e-05 -1.79940896e-05 
        </DataArray>
        <DataArray type="Float64" Name="E">
          2.18835441e+05 2.19178901e+05 2.19519059e+05 2.19859631e+05 
        </DataArray>
      </PointData>
    </Piece>
    <Piece NumberOfPoints="4" NumberOfCells="3">
      <Points>
        <DataArray type="Float64" NumberOfComponents="3" format="ascii">
          8.44934702e-01 -2.04724707e-02 0.00000000e+00 
8.55287313e-01 -1.92240477e-02 0.00000000e+00 
8.65638077e-01 -1.79597028e-02 0.00000000e+00 
8.75986874e-01 -1.66798849e-02 0.00000000e+00 

        </DataArray>
      </Points>
      <Cells>
        <DataArray type="Int32" Name="connectivity" format="ascii">
0 1
1 2
2 3

        </DataArray>
        <DataArray type="Int32" Name="offsets" format="ascii">
2 4 6 
        </DataArray>
        <DataArray type="UInt8" Name="types" format="ascii">
3 3 3 
        </DataArray>
      </Cells>
      <PointData>
        <DataArray type="Float64" Name="rho">
          9.56551194e-01 9.58019694e-01 9.59483266e-01 9.60934777e-01 
        </DataArray>
        <DataArray type="Float64" Name="rhou">
          2.83777158e-04 2.25203566e-04 2.12943523e-04 2.50521251e-04 
        </DataArray>
        <DataArray type="Float64" Name="rhov">
          4.34243483e-05 6.37166032e-05 5.33395967e-05 7.15674732e-05 
        </DataArray>
        <DataArray type="Float64" Name="E">
          2.17794407e+05 2.18143271e+05 2.18490863e+05 2.18835536e+05 
        </DataArray>
      </PointData>
    </Piece>
    <Piece NumberOfPoints="4" NumberOfCells="3">
      <Points>
        <DataArray type="Float64" NumberOfComponents="3" format="ascii">
          8.13865662e-01 -2.41250079e-02 0.00000000e+00 
8.24223816e-01 -2.29226518e-02 0.00000000e+00 
8.34580123e-01 -2.17050612e-02 0.00000000e+00 
8.44934702e-01 -2.04724707e-02 0.00000000e+00 

        </DataArray>
      </Points>
      <Cells>
        <DataArray type="Int32" Name="connectivity" format="ascii">
0 1
1 2
2 3

        </DataArray>
        <DataArray type="Int32" Name="offsets" format="ascii">
2 4 6 
        </DataArray>
        <DataArray type="UInt8" Name="types" format="ascii">
3 3 3 
        </DataArray>
      </Cells>
      <PointData>
        <DataArray type="Float64" Name="rho">
          9.52083093e-01 9.53580216e-01 9.55069733e-01 9.56550967e-01 
        </DataArray>
        <DataArray type="Float64" Name="rhou">
          2.60581154e-04 2.45280672e-04 2.30076087e-04 2.35281992e-04 
        </DataArray>
        <DataArray type="Float64" Name="rhov">
          5.46189137e-05 5.53344737e-05 4.78969117e-05 3.60181860e-05 
        </DataArray>
        <DataArray type="Float64" Name="E">
          2.16732793e+05 2.17088549e+05 2.17442458e+05 2.17794355e+05 
        </DataArray>
      </PointData>
    </Piece>
    <Piece NumberOfPoints="4" NumberOfCells="3">
      <Points>
        <DataArray type="Float64" NumberOfComponents="3" format="ascii">
          7.82780826e-01 -2.76402626e-02 0.00000000e+00 
7.93144107e-01 -2.64833923e-02 0.00000000e+00 
8.03505778e-01 -2.53117718e-02 0.00000000e+00 
8.13865662e-01 -2.41250079e-02 0.00000000e+00 

        </DataArray>
      </Points>
      <Cells>
        <DataArray type="Int32" Name="connectivity" format="ascii">
0 1
1 2
2 3

        </DataArray>
        <DataArray type="Int32" Name="offsets" format="ascii">
2 4 6 
        </DataArray>
        <DataArray type="UInt8" Name="types" format="ascii">
3 3 3 
        </DataArray>
      </Cells>
      <PointData>
        <DataArray type="Float64" Name="rho">
          9.47540799e-01 9.49063342e-01 9.50578322e-01 9.52082986e-01 
        </DataArray>
        <DataArray type="Float64" Name="rhou">
          2.81909031e-04 2.61012877e-04 2.60527499e-04 2.69728427e-04 
        </DataArray>
        <DataArray type="Float64" Name="rhov">
          5.14492505e-05 4.30853885e-05 3.86483166e-05 5.28820466e-05 
        </DataArray>
        <DataArray type="Float64" Name="E">
          2.15653298e+05 2.16015155e+05 2.16375188e+05 2.16732769e+05 
        </DataArray>
      </PointData>
    </Piece>
    <Piece NumberOfPoints="4" NumberOfCells="3">
      <Points>
        <DataArray type="Float64" NumberOfComponents="3" format="ascii">
          7.51680970e-01 -3.10197193e-02 0.00000000e+00 
7.62049198e-01 -2.99084149e-02 0.00000000e+00 
7.72415876e-01 -2.87819952e-02 0.00000000e+00 
7.82780826e-01 -2.76402626e-02 0.00000000e+00 

        </DataArray>
      </Points>
      <Cells>
        <DataArray type="Int32" Name="connectivity" format="ascii">
0 1
1 2
2 3

        </DataArray>
        <DataArray type="Int32" Name="offsets" format="ascii">
2 4 6 
        </DataArray>
        <DataArray type="UInt8" Name="types" format="ascii">
3 3 3 
        </DataArray>
      </Cells>
      <PointData>
        <DataArray type="Float64" Name="rho">
          9.42930616e-01 9.44475039e-01 9.46011653e-01 9.47540762e-01 
        </DataArray>
        <DataArray type="Float64" Name="rhou">
          2.95550833e-04 2.91345862e-04 2.85823838e-04 2.71677363e-04 
        </DataArray>
        <DataArray type="Float64" Name="rhov">
          4.43187882e-05 3.77550365e-05 4.16132504e-05 4.92574121e-05 
        </DataArray>
        <DataArray type="Float64" Name="E">
          2.14557467e+05 2.14924588e+05 2.15289840e+05 2.15653290e+05 
        </DataArray>
      </PointData>
    </Piece>
    <Piece NumberOfPoints="4" NumberOfCells="3">
      <Points>
        <DataArray type="Float64" NumberOfComponents="3" format="ascii">
          7.20566452e-01 -3.42622213e-02 0.00000000e+00 
7.30939507e-01 -3.31965312e-02 0.00000000e+00 
7.41311073e-01 -3.21157984e-02 0.00000000e+00 
7.51680970e-01 -3.10197193e-02 0.00000000e+00 

        </DataArray>
      </Points>
      <Cells>
        <DataArray type="Int32" Name="connectivity" format="ascii">
0 1
1 2
2 3

        </DataArray>
        <DataArray type="Int32" Name="offsets" format="ascii">
2 4 6 
        </DataArray>
        <DataArray type="UInt8" Name="types" format="ascii">
3 3 3 
        </DataArray>
      </Cells>
      <PointData>
        <DataArray type="Float64" Name="rho">
          9.38262172e-01 9.39824933e-01 9.41381260e-01 9.42930608e-01 
        </DataArray>
        <DataArray type="Float64" Name="rhou">
          3.21529648e-04 3.14691819e-04 3.11824815e-04 2.98811907e-04 
        </DataArray>
        <DataArray type="Float64" Name="rhov">
          4.07976564e-05 3.00114056e-05 3.27778703e-05 4.47364868e-05 
        </DataArray>
        <DataArray type="Float64" Name="E">
          2.13447567e+05 2.13819125e+05 2.14189132e+05 2.14557465e+05 
        </DataArray>
      </PointData>
    </Piece>
    <Piece NumberOfPoints="4" NumberOfCells="3">
      <Points>
        <DataArray type="Float64" NumberOfComponents="3" format="ascii">
          6.89437866e-01 -3.73662710e-02 0.00000000e+00 
6.99815631e-01 -3.63472365e-02 0.00000000e+00 
7.10191846e-01 -3.53125818e-02 0.00000000e+00 
7.20566452e-01 -3.42622213e-02 0.00000000e+00 

        </DataArray>
      </Points>
      <Cells>
        <DataArray type="Int32" Name="connectivity" format="ascii">
0 1
1 2
2 3

        </DataArray>
        <DataArray type="Int32" Name="offsets" format="ascii">
2 4 6 
        </DataArray>
        <DataArray type="UInt8" Name="types" format="ascii">
3 3 3 
        </DataArray>
      </Cells>
      <PointData>
        <DataArray type="Float64" Name="rho">
          9.33552687e-01 9.35126751e-01 9.36696681e-01 9.38262183e-01 
        </DataArray>
        <DataArray type="Float64" Name="rhou">
          3.54484839e-04 3.47268771e-04 3.40312532e-04 3.22580287e-04 
        </DataArray>
        <DataArray type="Float64" Name="rhov">
          3.27371401e-05 2.55798337e-05 3.02839512e-05 4.10042968e-05 
        </DataArray>
        <DataArray type="Float64" Name="E">
          2.12327603e+05 2.12701961e+05 2.13075307e+05 2.13447570e+05 
        </DataArray>
      </PointData>
    </Piece>
    <Piece NumberOfPoints="4" NumberOfCells="3">
      <Points>
        <DataArray type="Float64" NumberOfComponents="3" format="ascii">
          6.58295333e-01 -4.03269380e-02 0.00000000e+00 
6.68677747e-01 -3.93563360e-02 0.00000000e+00 
6.79058611e-01 -3.83694395e-02 0.00000000e+00 
6.89437866e-01 -3.73662710e-02 0.00000000e+00 

        </DataArray>
      </Points>
      <Cells>
        <DataArray type="Int32" Name="connectivity" format="ascii">
0 1
1 2
2 3

        </DataArray>
        <DataArray type="Int32" Name="offsets" format="ascii">
2 4 6 
        </DataArray>
        <DataArray type="UInt8" Name="types" format="ascii">
3 3 3 
        </DataArray>
      </Cells>
      <PointData>
        <DataArray type="Float64" Name="rho">
          9.28824713e-01 9.30401959e-01 9.31977938e-01 9.33552740e-01 
        </DataArray>
        <DataArray type="Float64" Name="rhou">
          3.91152329e-04 3.85615307e-04 3.73026033e-04 3.52631820e-04 
        </DataArray>
        <DataArray type="Float64" Name="rhov">
          2.15030876e-05 1.85569914e-05 2.52813224e-05 3.34571887e-05 
        </DataArray>
        <DataArray type="Float64" Name="E">
          2.11202857e+05 2.11578109e+05 2.11953025e+05 2.12327615e+05 
        </DataArray>
      </PointData>
    </Piece>
    <Piece NumberOfPoints="4" NumberOfCells="3">
      <Points>
        <DataArray type="Float64" NumberOfComponents="3" format="ascii">
          6.27138972e-01 -4.31386717e-02 0.00000000e+00 
6.37525976e-01 -4.22184542e-02 0.00000000e+00 
6.47911429e-01 -4.12811004e-02 0.00000000e+00 
6.58295333e-01 -4.03269380e-02 0.00000000e+00 

        </DataArray>
      </Points>
      <Cells>
        <DataArray type="Int32" Name="connectivity" format="ascii">
0 1
1 2
2 3

        </DataArray>
        <DataArray type="Int32" Name="offsets" format="ascii">
2 4 6 
        </DataArray>
        <DataArray type="UInt8" Name="types" format="ascii">
3 3 3 
        </DataArray>
      </Cells>
      <PointData>
        <DataArray type="Float64" Name="rho">
          9.24108465e-01 9.25676835e-01 9.27249507e-01 9.28824745e-01 
        </DataArray>
        <DataArray type="Float64" Name="rhou">
          4.41967567e-04 4.23469590e-04 4.06434328e-04 3.92077200e-04 
        </DataArray>
        <DataArray type="Float64" Name="rhov">
          1.77140911e-05 1.67538283e-05 1.82567525e-05 2.23462466e-05 
        </DataArray>
        <DataArray type="Float64" Name="E">
          2.10080420e+05 2.10453743e+05 2.10828026e+05 2.11202864e+05 
        </DataArray>
      </PointData>
    </Piece>
    <Piece NumberOfPoints="4" NumberOfCells="3">
      <Points>
        <DataArray type="Float64" NumberOfComponents="3" format="ascii">
          5.95968783e-01 -4.57924642e-02 0.00000000e+00 
6.06360376e-01 -4.49259281e-02 0.00000000e+00 
6.16750479e-01 -4.40412909e-02 0.00000000e+00 
6.27138972e-01 -4.31386717e-02 0.00000000e+00 

        </DataArray>
      </Points>
      <Cells>
        <DataArray type="Int32" Name="connectivity" format="ascii">
0 1
1 2
2 3

        </DataArray>
        <DataArray type="Int32" Name="offsets" format="ascii">
2 4 6 
        </DataArray>
        <DataArray type="UInt8" Name="types" format="ascii">
3 3 3 
        </DataArray>
      </Cells>
      <PointData>
        <DataArray type="Float64" Name="rho">
          9.19447408e-01 9.20992863e-01 9.22546945e-01 9.24108458e-01 
        </DataArray>
        <DataArray type="Float64" Name="rhou">
          4.86178958e-04 4.74312788e-04 4.57304960e-04 4.35558633e-04 
        </DataArray>
        <DataArray type="Float64" Name="rhov">
          5.45850886e-06 2.46223152e-06 8.99308228e-06 1.84878341e-05 
        </DataArray>
        <DataArray type="Float64" Name="E">
          2.08970518e+05 2.09338590e+05 2.09708652e+05 2.10080418e+05 
        </DataArray>
      </PointData>
    </Piece>
    <Piece NumberOfPoints="4" NumberOfCells="3">
      <Points>
        <DataArray type="Float64" NumberOfComponents="3" format="ascii">
          5.64784765e-01 -4.82786149e-02 0.00000000e+00 
5.75181007e-01 -4.74695377e-02 0.00000000e+00 
5.85575700e-01 -4.66405638e-02 0.00000000e+00 
5.95968783e-01 -4.57924642e-02 0.00000000e+00 

        </DataArray>
      </Points>
      <Cells>
        <DataArray type="Int32" Name="connectivity" format="ascii">
0 1
1 2
2 3

        </DataArray>
        <DataArray type="Int32" Name="offsets" format="ascii">
2 4 6 
        </DataArray>
        <DataArray type="UInt8" Name="types" format="ascii">
3 3 3 
        </DataArray>
      </Cells>
      <PointData>
        <DataArray type="Float64" Name="rho">
          9.14900085e-01 9.16398274e-01 9.17914693e-01 9.19447520e-01 
        </DataArray>
        <DataArray type="Float64" Name="rhou">
          5.61638728e-04 5.35724844e-04 5.03235342e-04 4.80054968e-04 
        </DataArray>
        <DataArray type="Float64" Name="rhov">
          -6.36304623e-06 4.96680042e-06 9.77258273e-06 6.34732135e-06 
        </DataArray>
        <DataArray type="Float64" Name="E">
          2.07886928e+05 2.08244037e+05 2.08605389e+05 2.08970543e+05 
        </DataArray>
      </PointData>
    </Piece>
    <Piece NumberOfPoints="4" NumberOfCells="3">
      <Points>
        <DataArray type="Float64" NumberOfComponents="3" format="ascii">
          5.33586800e-01 -5.05827516e-02 0.00000000e+00 
5.43987691e-01 -4.98356484e-02 0.00000000e+00 
5.54387033e-01 -4.90674041e-02 0.00000000e+00 
5.64784765e-01 -4.82786149e-02 0.00000000e+00 

        </DataArray>
      </Points>
      <Cells>
        <DataArray type="Int32" Name="connectivity" format="ascii">
0 1
1 2
2 3

        </DataArray>
        <DataArray type="Int32" Name="offsets" format="ascii">
2 4 6 
        </DataArray>
        <DataArray type="UInt8" Name="types" format="ascii">
3 3 3 
        </DataArray>
      </Cells>
      <PointData>
        <DataArray type="Float64" Name="rho">
          9.10538923e-01 9.11965975e-01 9.13421491e-01 9.14900045e-01 
        </DataArray>
        <DataArray type="Float64" Name="rhou">
          6.35175690e-04 5.95927894e-04 5.67513079e-04 5.56063995e-04 
        </DataArray>
        <DataArray type="Float64" Name="rhov">
          -5.62007745e-06 -5.55132429e-06 -8.52920061e-06 -6.03114791e-06 
        </DataArray>
        <DataArray type="Float64" Name="E">
          2.06846780e+05 2.07187263e+05 2.07534397e+05 2.07886919e+05 
        </DataArray>
      </PointData>
    </Piece>
    <Piece NumberOfPoints="4" NumberOfCells="3">
      <Points>
        <DataArray type="Float64" NumberOfComponents="3" format="ascii">
          5.02374947e-01 -5.26902266e-02 0.00000000e+00 
5.12780428e-01 -5.20105064e-02 0.00000000e+00 
5.23184419e-01 -5.13078682e-02 0.00000000e+00 
5.33586800e-01 -5.05827516e-02 0.00000000e+00 

        </DataArray>
      </Points>
      <Cells>
        <DataArray type="Int32" Name="connectivity" format="ascii">
0 1
1 2
2 3

        </DataArray>
        <DataArray type="Int32" Name="offsets" format="ascii">
2 4 6 
        </DataArray>
        <DataArray type="UInt8" Name="types" format="ascii">
3 3 3 
        </DataArray>
      </Cells>
      <PointData>
        <DataArray type="Float64" Name="rho">
          9.06463244e-01 9.07783781e-01 9.09144338e-01 9.10538828e-01 
        </DataArray>
        <DataArray type="Float64" Name="rhou">
          7.15917267e-04 6.80007743e-04 6.52713599e-04 6.32469301e-04 
        </DataArray>
        <DataArray type="Float64" Name="rhov">
          -1.52200036e-05 -2.14918108e-05 -1.99581670e-05 -6.09631607e-06 
        </DataArray>
        <DataArray type="Float64" Name="E">
          2.05873501e+05 2.06189002e+05 2.06513896e+05 2.06846759e+05 
        </DataArray>
      </PointData>
    </Piece>
    <Piece NumberOfPoints="4" NumberOfCells="3">
      <Points>
        <DataArray type="Float64" NumberOfComponents="3" format="ascii">
          4.71149325e-01 -5.45825884e-02 0.00000000e+00 
4.81559396e-01 -5.39771840e-02 0.00000000e+00 
4.91967946e-01 -5.33461571e-02 0.00000000e+00 
5.02374947e-01 -5.26902266e-02 0.00000000e+00 

        </DataArray>
      </Points>
      <Cells>
        <DataArray type="Int32" Name="connectivity" format="ascii">
0 1
1 2
2 3

        </DataArray>
        <DataArray type="Int32" Name="offsets" format="ascii">
2 4 6 
        </DataArray>
        <DataArray type="UInt8" Name="types" format="ascii">
3 3 3 
        </DataArray>
      </Cells>
      <PointData>
        <DataArray type="Float64" Name="rho">
          9.02803946e-01 9.03969536e-01 9.05189718e-01 9.06463333e-01 
        </DataArray>
        <DataArray type="Float64" Name="rhou">
          8.21867177e-04 7.99290958e-04 7.52841264e-04 6.96323504e-04 
        </DataArray>
        <DataArray type="Float64" Name="rhov">
          -3.98135478e-05 -3.35089924e-05 -1.62723766e-05 -1.24464290e-05 
        </DataArray>
        <DataArray type="Float64" Name="E">
          2.04997993e+05 2.05277079e+05 2.05569028e+05 2.05873522e+05 
        </DataArray>
      </PointData>
    </Piece>
    <Piece NumberOfPoints="4" NumberOfCells="3">
      <Points>
        <DataArray type="Float64" NumberOfComponents="3" format="ascii">
          4.39910263e-01 -5.62384278e-02 0.00000000e+00 
4.50324744e-01 -5.57143167e-02 0.00000000e+00 
4.60737765e-01 -5.51619194e-02 0.00000000e+00 
4.71149325e-01 -5.45825884e-02 0.00000000e+00 

        </DataArray>
      </Points>
      <Cells>
        <DataArray type="Int32" Name="connectivity" format="ascii">
0 1
1 2
2 3

        </DataArray>
        <DataArray type="Int32" Name="offsets" format="ascii">
2 4 6 
        </DataArray>
        <DataArray type="UInt8" Name="types" format="ascii">
3 3 3 
        </DataArray>
      </Cells>
      <PointData>
        <DataArray type="Float64" Name="rho">
          8.99720138e-01 9.00669660e-01 9.01701146e-01 9.02804021e-01 
        </DataArray>
        <DataArray type="Float64" Name="rhou">
          9.89262564e-04 9.12489351e-04 8.54416330e-04 8.27216707e-04 
        </DataArray>
        <DataArray type="Float64" Name="rhov">
          -3.27785323e-05 -2.36819937e-05 -3.01016597e-05 -3.73039426e-05 
        </DataArray>
        <DataArray type="Float64" Name="E">
          2.04257901e+05 2.04486151e+05 2.04733681e+05 2.04998009e+05 
        </DataArray>
      </PointData>
    </Piece>
    <Piece NumberOfPoints="4" NumberOfCells="3">
      <Points>
        <DataArray type="Float64" NumberOfComponents="3" format="ascii">
          4.08658355e-01 -5.76302819e-02 0.00000000e+00 
4.19077009e-01 -5.71971126e-02 0.00000000e+00 
4.29494321e-01 -5.67329265e-02 0.00000000e+00 
4.39910263e-01 -5.62384278e-02 0.00000000e+00 

        </DataArray>
      </Points>
      <Cells>
        <DataArray type="Int32" Name="connectivity" format="ascii">
0 1
1 2
2 3

        </DataArray>
        <DataArray type="Int32" Name="offsets" format="ascii">
2 4 6 
        </DataArray>
        <DataArray type="UInt8" Name="types" format="ascii">
3 3 3 
        </DataArray>
      </Cells>
      <PointData>
        <DataArray type="Float64" Name="rho">
          8.97422614e-01 8.98088366e-01 8.98858055e-01 8.99719908e-01 
        </DataArray>
        <DataArray type="Float64" Name="rhou">
          1.14406771e-03 1.07468037e-03 1.02329057e-03 9.83901311e-04 
        </DataArray>
        <DataArray type="Float64" Name="rhov">
          -4.12537590e-05 -5.35618115e-05 -5.27013660e-05 -3.26215062e-05 
        </DataArray>
        <DataArray type="Float64" Name="E">
          2.03703105e+05 2.03864423e+05 2.04050257e+05 2.04257849e+05 
        </DataArray>
      </PointData>
    </Piece>
    <Piece NumberOfPoints="4" NumberOfCells="3">
      <Points>
        <DataArray type="Float64" NumberOfComponents="3" format="ascii">
          3.77394795e-01 -5.87291755e-02 0.00000000e+00 
3.87817174e-01 -5.83979115e-02 0.00000000e+00 
3.98238391e-01 -5.80311492e-02 0.00000000e+00 
4.08658355e-01 -5.76302819e-02 0.00000000e+00 

        </DataArray>
      </Points>
      <Cells>
        <DataArray type="Int32" Name="connectivity" format="ascii">
0 1
1 2
2 3

        </DataArray>
        <DataArray type="Int32" Name="offsets" format="ascii">
2 4 6 
        </DataArray>
        <DataArray type="UInt8" Name="types" format="ascii">
3 3 3 
        </DataArray>
      </Cells>
      <PointData>
        <DataArray type="Float64" Name="rho">
          8.96176915e-01 8.96457722e-01 8.96874079e-01 8.97422825e-01 
        </DataArray>
        <DataArray type="Float64" Name="rhou">
          1.39234035e-03 1.31888429e-03 1.21766176e-03 1.11300246e-03 
        </DataArray>
        <DataArray type="Float64" Name="rhov">
          -8.45320491e-05 -5.67995814e-05 -2.91272000e-05 -3.63762163e-05 
        </DataArray>
        <DataArray type="Float64" Name="E">
          2.03396376e+05 2.03466877e+05 2.03569414e+05 2.03703153e+05 
        </DataArray>
      </PointData>
    </Piece>
    <Piece NumberOfPoints="4" NumberOfCells="3">
      <Points>
        <DataArray type="Float64" NumberOfComponents="3" format="ascii">
          3.46121490e-01 -5.95011823e-02 0.00000000e+00 
3.56546819e-01 -5.92821389e-02 0.00000000e+00 
3.66971314e-01 -5.90242445e-02 0.00000000e+00 
3.77394795e-01 -5.87291755e-02 0.00000000e+00 

        </DataArray>
      </Points>
      <Cells>
        <DataArray type="Int32" Name="connectivity" format="ascii">
0 1
1 2
2 3

        </DataArray>
        <DataArray type="Int32" Name="offsets" format="ascii">
2 4 6 
        </DataArray>
        <DataArray type="UInt8" Name="types" format="ascii">
3 3 3 
        </DataArray>
      </Cells>
      <PointData>
        <DataArray type="Float64" Name="rho">
          8.96276955e-01 8.96068996e-01 8.96041459e-01 8.96177006e-01 
        </DataArray>
        <DataArray type="Float64" Name="rhou">
          1.73424208e-03 1.59024009e-03 1.46172155e-03 1.39573660e-03 
        </DataArray>
        <DataArray type="Float64" Name="rhov">
          -1.19275772e-04 -7.74614285e-05 -7.01163930e-05 -7.99142909e-05 
        </DataArray>
        <DataArray type="Float64" Name="E">
          2.03407523e+05 2.03362575e+05 2.03360229e+05 2.03396395e+05 
        </DataArray>
      </PointData>
    </Piece>
    <Piece NumberOfPoints="4" NumberOfCells="3">
      <Points>
        <DataArray type="Float64" NumberOfComponents="3" format="ascii">
          3.14841360e-01 -5.99102043e-02 0.00000000e+00 
3.25268596e-01 -5.98174632e-02 0.00000000e+00 
3.35695356e-01 -5.96801341e-02 0.00000000e+00 
3.46121490e-01 -5.95011823e-02 0.00000000e+00 

        </DataArray>
      </Points>
      <Cells>
        <DataArray type="Int32" Name="connectivity" format="ascii">
0 1
1 2
2 3

        </DataArray>
        <DataArray type="Int32" Name="offsets" format="ascii">
2 4 6 
        </DataArray>
        <DataArray type="UInt8" Name="types" format="ascii">
3 3 3 
        </DataArray>
      </Cells>
      <PointData>
        <DataArray type="Float64" Name="rho">
          8.98130250e-01 8.97277792e-01 8.96669303e-01 8.96276666e-01 
        </DataArray>
        <DataArray type="Float64" Name="rhou">
          2.18344062e-03 1.93962247e-03 1.77505972e-03 1.69877888e-03 
        </DataArray>
        <DataArray type="Float64" Name="rhov">
          -5.66495683e-05 -3.33320627e-05 -6.54241161e-05 -1.18503055e-04 
        </DataArray>
        <DataArray type="Float64" Name="E">
          2.03833079e+05 2.03635788e+05 2.03496124e+05 2.03407456e+05 
        </DataArray>
      </PointData>
    </Piece>
    <Piece NumberOfPoints="4" NumberOfCells="3">
      <Points>
        <DataArray type="Float64" NumberOfComponents="3" format="ascii">
          2.83558637e-01 -5.98983802e-02 0.00000000e+00 
2.93986142e-01 -5.99516556e-02 0.00000000e+00 
3.04413795e-01 -5.99554181e-02 0.00000000e+00 
3.14841360e-01 -5.99102043e-02 0.00000000e+00 

        </DataArray>
      </Points>
      <Cells>
        <DataArray type="Int32" Name="connectivity" format="ascii">
0 1
1 2
2 3

        </DataArray>
        <DataArray type="Int32" Name="offsets" format="ascii">
2 4 6 
        </DataArray>
        <DataArray type="UInt8" Name="types" format="ascii">
3 3 3 
        </DataArray>
      </Cells>
      <PointData>
        <DataArray type="Float64" Name="rho">
          9.02254146e-01 9.00608443e-01 8.99239409e-01 8.98129540e-01 
        </DataArray>
        <DataArray type="Float64" Name="rhou">
          2.66025476e-03 2.49552235e-03 2.35809874e-03 2.17444494e-03 
        </DataArray>
        <DataArray type="Float64" Name="rhov">
          -1.13671603e-04 -1.80411884e-04 -1.44732290e-04 -5.00435756e-05 
        </DataArray>
        <DataArray type="Float64" Name="E">
          2.04796246e+05 2.04410853e+05 2.04091130e+05 2.03832917e+05 
        </DataArray>
      </PointData>
    </Piece>
    <Piece NumberOfPoints="4" NumberOfCells="3">
      <Points>
        <DataArray type="Float64" NumberOfComponents="3" format="ascii">
          2.52279758e-01 -5.94130717e-02 0.00000000e+00 
2.62705088e-01 -5.96327744e-02 0.00000000e+00 
2.73131490e-01 -5.97934239e-02 0.00000000e+00 
2.83558637e-01 -5.98983802e-02 0.00000000e+00 

        </DataArray>
      </Points>
      <Cells>
        <DataArray type="Int32" Name="connectivity" format="ascii">
0 1
1 2
2 3

        </DataArray>
        <DataArray type="Int32" Name="offsets" format="ascii">
2 4 6 
        </DataArray>
        <DataArray type="UInt8" Name="types" format="ascii">
3 3 3 
        </DataArray>
      </Cells>
      <PointData>
        <DataArray type="Float64" Name="rho">
          9.09271031e-01 9.06562337e-01 9.04226449e-01 9.02255065e-01 
        </DataArray>
        <DataArray type="Float64" Name="rhou">
          3.63159114e-03 3.32665750e-03 2.99155824e-03 2.64651654e-03 
        </DataArray>
        <DataArray type="Float64" Name="rhov">
          -2.61829792e-04 -1.69814318e-04 -8.27796473e-05 -9.45234001e-05 
        </DataArray>
        <DataArray type="Float64" Name="E">
          2.06445000e+05 2.05807664e+05 2.05258905e+05 2.04796458e+05 
        </DataArray>
      </PointData>
    </Piece>
    <Piece NumberOfPoints="4" NumberOfCells="3">
      <Points>
        <DataArray type="Float64" NumberOfComponents="3" format="ascii">
          2.21014455e-01 -5.83752058e-02 0.00000000e+00 
2.31433928e-01 -5.87876961e-02 0.00000000e+00 
2.41855890e-01 -5.91322705e-02 0.00000000e+00 
2.52279758e-01 -5.94130717e-02 0.00000000e+00 

        </DataArray>
      </Points>
      <Cells>
        <DataArray type="Int32" Name="connectivity" format="ascii">
0 1
1 2
2 3

        </DataArray>
        <DataArray type="Int32" Name="offsets" format="ascii">
2 4 6 
        </DataArray>
        <DataArray type="UInt8" Name="types" format="ascii">
3 3 3 
        </DataArray>
      </Cells>
      <PointData>
        <DataArray type="Float64" Name="rho">
          9.19965512e-01 9.15924519e-01 9.12375461e-01 9.09271212e-01 
        </DataArray>
        <DataArray type="Float64" Name="rhou">
          4.98338480e-03 4.39864892e-03 3.95280352e-03 3.66569187e-03 
        </DataArray>
        <DataArray type="Float64" Name="rhov">
          -3.67495030e-04 -2.63553754e-04 -2.31414062e-04 -2.45490657e-04 
        </DataArray>
        <DataArray type="Float64" Name="E">
          2.08967403e+05 2.08013454e+05 2.07176413e+05 2.06445037e+05 
        </DataArray>
      </PointData>
    </Piece>
    <Piece NumberOfPoints="4" NumberOfCells="3">
      <Points>
        <DataArray type="Float64" NumberOfComponents="3" format="ascii">
          1.89777538e-01 -5.66898957e-02 0.00000000e+00 
2.00185493e-01 -5.73302582e-02 0.00000000e+00 
2.10598081e-01 -5.78906052e-02 0.00000000e+00 
2.21014455e-01 -5.83752058e-02 0.00000000e+00 

        </DataArray>
      </Points>
      <Cells>
        <DataArray type="Int32" Name="connectivity" format="ascii">
0 1
1 2
2 3

        </DataArray>
        <DataArray type="Int32" Name="offsets" format="ascii">
2 4 6 
        </DataArray>
        <DataArray type="UInt8" Name="types" format="ascii">
3 3 3 
        </DataArray>
      </Cells>
      <PointData>
        <DataArray type="Float64" Name="rho">
          9.35426283e-01 9.29665695e-01 9.24532001e-01 9.19964753e-01 
        </DataArray>
        <DataArray type="Float64" Name="rhou">
          6.90445547e-03 6.10418231e-03 5.51892097e-03 5.04575955e-03 
        </DataArray>
        <DataArray type="Float64" Name="rhov">
          -6.48031333e-04 -5.77556928e-04 -4.78209678e-04 -3.54802320e-04 
        </DataArray>
        <DataArray type="Float64" Name="E">
          2.12624349e+05 2.11260664e+05 2.10046442e+05 2.08967229e+05 
        </DataArray>
      </PointData>
    </Piece>
    <Piece NumberOfPoints="4" NumberOfCells="3">
      <Points>
        <DataArray type="Float64" NumberOfComponents="3" format="ascii">
          1.58592433e-01 -5.42296544e-02 0.00000000e+00 
1.68979734e-01 -5.51457107e-02 0.00000000e+00 
1.79375216e-01 -5.59638515e-02 0.00000000e+00 
1.89777538e-01 -5.66898957e-02 0.00000000e+00 

        </DataArray>
      </Points>
      <Cells>
        <DataArray type="Int32" Name="connectivity" format="ascii">
0 1
1 2
2 3

        </DataArray>
        <DataArray type="Int32" Name="offsets" format="ascii">
2 4 6 
        </DataArray>
        <DataArray type="UInt8" Name="types" format="ascii">
3 3 3 
        </DataArray>
      </Cells>
      <PointData>
        <DataArray type="Float64" Name="rho">
          9.57220285e-01 9.49143922e-01 9.41896197e-01 9.35426701e-01 
        </DataArray>
        <DataArray type="Float64" Name="rhou">
          9.96197672e-03 8.88776229e-03 7.93817282e-03 6.97564911e-03 
        </DataArray>
        <DataArray type="Float64" Name="rhov">
          -1.39869017e-03 -1.20749590e-03 -8.76979554e-04 -6.07586666e-04 
        </DataArray>
        <DataArray type="Float64" Name="E">
          2.17792320e+05 2.15875531e+05 2.14157088e+05 2.12624449e+05 
        </DataArray>
      </PointData>
    </Piece>
    <Piece NumberOfPoints="4" NumberOfCells="3">
      <Points>
        <DataArray type="Float64" NumberOfComponents="3" format="ascii">
          1.27497971e-01 -5.08146733e-02 0.00000000e+00 
1.37849152e-01 -5.20747155e-02 0.00000000e+00 
1.48214847e-01 -5.32093942e-02 0.00000000e+00 
1.58592433e-01 -5.42296544e-02 0.00000000e+00 

        </DataArray>
      </Points>
      <Cells>
        <DataArray type="Int32" Name="connectivity" format="ascii">
0 1
1 2
2 3

        </DataArray>
        <DataArray type="Int32" Name="offsets" format="ascii">
2 4 6 
        </DataArray>
        <DataArray type="UInt8" Name="types" format="ascii">
3 3 3 
        </DataArray>
      </Cells>
      <PointData>
        <DataArray type="Float64" Name="rho">
          9.87774586e-01 9.76404694e-01 9.66240734e-01 9.57224331e-01 
        </DataArray>
        <DataArray type="Float64" Name="rhou">
          1.44919325e-02 1.33139193e-02 1.15093849e-02 9.99043405e-03 
        </DataArray>
        <DataArray type="Float64" Name="rhov">
          -2.27242018e-03 -2.02585150e-03 -1.41146203e-03 -1.32679415e-03 
        </DataArray>
        <DataArray type="Float64" Name="E">
          2.25056460e+05 2.22350838e+05 2.19934941e+05 2.17793248e+05 
        </DataArray>
      </PointData>
    </Piece>
    <Piece NumberOfPoints="4" NumberOfCells="3">
      <Points>
        <DataArray type="Float64" NumberOfComponents="3" format="ascii">
          9.65642184e-02 -4.61716652e-02 0.00000000e+00 
1.06852271e-01 -4.78802323e-02 0.00000000e+00 
1.17164567e-01 -4.94215861e-02 0.00000000e+00 
1.27497971e-01 -5.08146733e-02 0.00000000e+00 

        </DataArray>
      </Points>
      <Cells>
        <DataArray type="Int32" Name="connectivity" format="ascii">
0 1
1 2
2 3

        </DataArray>
        <DataArray type="Int32" Name="offsets" format="ascii">
2 4 6 
        </DataArray>
        <DataArray type="UInt8" Name="types" format="ascii">
3 3 3 
        </DataArray>
      </Cells>
      <PointData>
        <DataArray type="Float64" Name="rho">
          1.03120353e+00 1.01488539e+00 1.00043817e+00 9.87782927e-01 
        </DataArray>
        <DataArray type="Float64" Name="rhou">
          2.46636912e-02 1.80798486e-02 1.71657341e-02 1.28492957e-02 
        </DataArray>
        <DataArray type="Float64" Name="rhov">
          -9.19509691e-04 -7.26337393e-04 -1.54948348e-03 -1.59344267e-03 
        </DataArray>
        <DataArray type="Float64" Name="E">
          2.35416858e+05 2.31519302e+05 2.28073808e+05 2.25058470e+05 
        </DataArray>
      </PointData>
    </Piece>
  </UnstructuredGrid>
</VTKFile>
