<?xml version="1.0"?>
<VTKFile type="UnstructuredGrid" version="0.1" byte_order="LittleEndian">
  <UnstructuredGrid>
    <Piece NumberOfPoints="4" NumberOfCells="3">
      <Points>
        <DataArray type="Float64" NumberOfComponents="3" format="ascii">
          9.65642184e-02 -4.61716652e-02 0.00000000e+00 
9.26280916e-02 -4.54656407e-02 0.00000000e+00 
8.86965096e-02 -4.47326750e-02 0.00000000e+00 
8.47706869e-02 -4.39694971e-02 0.00000000e+00 

        </DataArray>
      </Points>
      <Cells>
        <DataArray type="Int32" Name="connectivity" format="ascii">
0 1
1 2
2 3

        </DataArray>
        <DataArray type="Int32" Name="offsets" format="ascii">
2 4 6 
        </DataArray>
        <DataArray type="UInt8" Name="types" format="ascii">
3 3 3 
        </DataArray>
      </Cells>
      <PointData>
        <DataArray type="Float64" Name="rho">
          1.03095824e+00 1.03787685e+00 1.04511033e+00 1.05279112e+00 
        </DataArray>
        <DataArray type="Float64" Name="rhou">
          2.82616300e-02 2.17800003e-02 2.44285809e-02 2.46099727e-02 
        </DataArray>
        <DataArray type="Float64" Name="rhov">
          -2.22798212e-03 -1.01864933e-03 -6.13052242e-04 -9.30857844e-04 
        </DataArray>
        <DataArray type="Float64" Name="E">
          2.35352523e+05 2.37006464e+05 2.38737314e+05 2.40575542e+05 
        </DataArray>
      </PointData>
    </Piece>
    <Piece NumberOfPoints="4" NumberOfCells="3">
      <Points>
        <DataArray type="Float64" NumberOfComponents="3" format="ascii">
          8.47706869e-02 -4.39694971e-02 0.00000000e+00 
8.08513016e-02 -4.31745499e-02 0.00000000e+00 
7.69388378e-02 -4.23462167e-02 0.00000000e+00 
7.30340332e-02 -4.14824970e-02 0.00000000e+00 

        </DataArray>
      </Points>
      <Cells>
        <DataArray type="Int32" Name="connectivity" format="ascii">
0 1
1 2
2 3

        </DataArray>
        <DataArray type="Int32" Name="offsets" format="ascii">
2 4 6 
        </DataArray>
        <DataArray type="UInt8" Name="types" format="ascii">
3 3 3 
        </DataArray>
      </Cells>
      <PointData>
        <DataArray type="Float64" Name="rho">
          1.05278992e+00 1.06089917e+00 1.06947243e+00 1.07857942e+00 
        </DataArray>
        <DataArray type="Float64" Name="rhou">
          2.47008342e-02 2.38808507e-02 2.24770483e-02 2.09157505e-02 
        </DataArray>
        <DataArray type="Float64" Name="rhov">
          -7.36345188e-04 -5.33251460e-04 3.66345191e-04 1.55256210e-03 
        </DataArray>
        <DataArray type="Float64" Name="E">
          2.40575275e+05 2.42518011e+05 2.44573158e+05 2.46757453e+05 
        </DataArray>
      </PointData>
    </Piece>
    <Piece NumberOfPoints="4" NumberOfCells="3">
      <Points>
        <DataArray type="Float64" NumberOfComponents="3" format="ascii">
          7.30340332e-02 -4.14824970e-02 0.00000000e+00 
6.91377968e-02 -4.05809283e-02 0.00000000e+00 
6.52511865e-02 -3.96387354e-02 0.00000000e+00 
6.13753870e-02 -3.86530459e-02 0.00000000e+00 

        </DataArray>
      </Points>
      <Cells>
        <DataArray type="Int32" Name="connectivity" format="ascii">
0 1
1 2
2 3

        </DataArray>
        <DataArray type="Int32" Name="offsets" format="ascii">
2 4 6 
        </DataArray>
        <DataArray type="UInt8" Name="types" format="ascii">
3 3 3 
        </DataArray>
      </Cells>
      <PointData>
        <DataArray type="Float64" Name="rho">
          1.07858002e+00 1.08830448e+00 1.09867803e+00 1.10976018e+00 
        </DataArray>
        <DataArray type="Float64" Name="rhou">
          2.10338253e-02 1.86909128e-02 1.46001073e-02 9.11129379e-03 
        </DataArray>
        <DataArray type="Float64" Name="rhov">
          1.38725598e-03 2.12241519e-03 4.19121531e-03 7.36546170e-03 
        </DataArray>
        <DataArray type="Float64" Name="E">
          2.46757615e+05 2.49092213e+05 2.51584290e+05 2.54248837e+05 
        </DataArray>
      </PointData>
    </Piece>
    <Piece NumberOfPoints="4" NumberOfCells="3">
      <Points>
        <DataArray type="Float64" NumberOfComponents="3" format="ascii">
          6.13753870e-02 -3.86530459e-02 0.00000000e+00 
5.75117208e-02 -3.76208089e-02 0.00000000e+00 
5.36618084e-02 -3.65384258e-02 0.00000000e+00 
4.98276278e-02 -3.54015976e-02 0.00000000e+00 

        </DataArray>
      </Points>
      <Cells>
        <DataArray type="Int32" Name="connectivity" format="ascii">
0 1
1 2
2 3

        </DataArray>
        <DataArray type="Int32" Name="offsets" format="ascii">
2 4 6 
        </DataArray>
        <DataArray type="UInt8" Name="types" format="ascii">
3 3 3 
        </DataArray>
      </Cells>
      <PointData>
        <DataArray type="Float64" Name="rho">
          1.10976045e+00 1.12163414e+00 1.13438404e+00 1.14814151e+00 
        </DataArray>
        <DataArray type="Float64" Name="rhou">
          9.05537376e-03 2.00962170e-03 -7.19083152e-03 -1.86928500e-02 
        </DataArray>
        <DataArray type="Float64" Name="rhov">
          7.13776965e-03 1.18188593e-02 1.98665654e-02 3.12995732e-02 
        </DataArray>
        <DataArray type="Float64" Name="E">
          2.54248901e+05 2.57107706e+05 2.60180131e+05 2.63498673e+05 
        </DataArray>
      </PointData>
    </Piece>
    <Piece NumberOfPoints="4" NumberOfCells="3">
      <Points>
        <DataArray type="Float64" NumberOfComponents="3" format="ascii">
          4.98276278e-02 -3.54015976e-02 0.00000000e+00 
4.60115410e-02 -3.42054628e-02 0.00000000e+00 
4.22164090e-02 -3.29444520e-02 0.00000000e+00 
3.84457745e-02 -3.16120051e-02 0.00000000e+00 

        </DataArray>
      </Points>
      <Cells>
        <DataArray type="Int32" Name="connectivity" format="ascii">
0 1
1 2
2 3

        </DataArray>
        <DataArray type="Int32" Name="offsets" format="ascii">
2 4 6 
        </DataArray>
        <DataArray type="UInt8" Name="types" format="ascii">
3 3 3 
        </DataArray>
      </Cells>
      <PointData>
        <DataArray type="Float64" Name="rho">
          1.14814143e+00 1.16300654e+00 1.17909123e+00 1.19658696e+00 
        </DataArray>
        <DataArray type="Float64" Name="rhou">
          -1.91461307e-02 -3.32701125e-02 -5.22423244e-02 -7.49387155e-02 
        </DataArray>
        <DataArray type="Float64" Name="rhov">
          3.10851264e-02 4.77126065e-02 7.52987999e-02 1.15667763e-01 
        </DataArray>
        <DataArray type="Float64" Name="E">
          2.63498621e+05 2.67090859e+05 2.70982633e+05 2.75222178e+05 
        </DataArray>
      </PointData>
    </Piece>
    <Piece NumberOfPoints="4" NumberOfCells="3">
      <Points>
        <DataArray type="Float64" NumberOfComponents="3" format="ascii">
          3.84457745e-02 -3.16120051e-02 0.00000000e+00 
3.47041376e-02 -3.02002355e-02 0.00000000e+00 
3.09973080e-02 -2.86995135e-02 0.00000000e+00 
2.73328498e-02 -2.70981900e-02 0.00000000e+00 

        </DataArray>
      </Points>
      <Cells>
        <DataArray type="Int32" Name="connectivity" format="ascii">
0 1
1 2
2 3

        </DataArray>
        <DataArray type="Int32" Name="offsets" format="ascii">
2 4 6 
        </DataArray>
        <DataArray type="UInt8" Name="types" format="ascii">
3 3 3 
        </DataArray>
      </Cells>
      <PointData>
        <DataArray type="Float64" Name="rho">
          1.19658719e+00 1.21568348e+00 1.23657351e+00 1.25962868e+00 
        </DataArray>
        <DataArray type="Float64" Name="rhou">
          -7.58886419e-02 -1.00034117e-01 -1.28671720e-01 -1.54089386e-01 
        </DataArray>
        <DataArray type="Float64" Name="rhov">
          1.15587519e-01 1.71026634e-01 2.56789851e-01 3.76873536e-01 
        </DataArray>
        <DataArray type="Float64" Name="E">
          2.75222097e+05 2.79861286e+05 2.84944816e+05 2.90566767e+05 
        </DataArray>
      </PointData>
    </Piece>
    <Piece NumberOfPoints="4" NumberOfCells="3">
      <Points>
        <DataArray type="Float64" NumberOfComponents="3" format="ascii">
          2.73328498e-02 -2.70981900e-02 0.00000000e+00 
2.37206947e-02 -2.53822580e-02 0.00000000e+00 
2.01744195e-02 -2.35341713e-02 0.00000000e+00 
1.67132635e-02 -2.15314496e-02 0.00000000e+00 

        </DataArray>
      </Points>
      <Cells>
        <DataArray type="Int32" Name="connectivity" format="ascii">
0 1
1 2
2 3

        </DataArray>
        <DataArray type="Int32" Name="offsets" format="ascii">
2 4 6 
        </DataArray>
        <DataArray type="UInt8" Name="types" format="ascii">
3 3 3 
        </DataArray>
      </Cells>
      <PointData>
        <DataArray type="Float64" Name="rho">
          1.25963354e+00 1.28519372e+00 1.31371429e+00 1.34654148e+00 
        </DataArray>
        <DataArray type="Float64" Name="rhou">
          -1.54469585e-01 -1.68601258e-01 -1.53042483e-01 -5.72911523e-02 
        </DataArray>
        <DataArray type="Float64" Name="rhov">
          3.77547978e-01 5.29167290e-01 7.39568692e-01 9.57654173e-01 
        </DataArray>
        <DataArray type="Float64" Name="E">
          2.90567665e+05 2.96822598e+05 3.03814684e+05 3.11872577e+05 
        </DataArray>
      </PointData>
    </Piece>
    <Piece NumberOfPoints="4" NumberOfCells="3">
      <Points>
        <DataArray type="Float64" NumberOfComponents="3" format="ascii">
          1.67132635e-02 -2.15314496e-02 0.00000000e+00 
1.33649679e-02 -1.93456318e-02 0.00000000e+00 
1.01706637e-02 -1.69409402e-02 0.00000000e+00 
7.19343964e-03 -1.42731192e-02 0.00000000e+00 

        </DataArray>
      </Points>
      <Cells>
        <DataArray type="Int32" Name="connectivity" format="ascii">
0 1
1 2
2 3

        </DataArray>
        <DataArray type="Int32" Name="offsets" format="ascii">
2 4 6 
        </DataArray>
        <DataArray type="UInt8" Name="types" format="ascii">
3 3 3 
        </DataArray>
      </Cells>
      <PointData>
        <DataArray type="Float64" Name="rho">
          1.34643576e+00 1.38630440e+00 1.43354542e+00 1.49865619e+00 
        </DataArray>
        <DataArray type="Float64" Name="rhou">
          -3.47452383e-02 1.13341805e-01 4.54092799e-01 8.73926371e-01 
        </DataArray>
        <DataArray type="Float64" Name="rhov">
          9.19446870e-01 1.12225922e+00 1.06756433e+00 5.18231194e-01 
        </DataArray>
        <DataArray type="Float64" Name="E">
          3.11848414e+05 3.21637790e+05 3.33230251e+05 3.49092666e+05 
        </DataArray>
      </PointData>
    </Piece>
    <Piece NumberOfPoints="4" NumberOfCells="3">
      <Points>
        <DataArray type="Float64" NumberOfComponents="3" format="ascii">
          7.19343964e-03 -1.42731192e-02 0.00000000e+00 
4.53082798e-03 -1.12927537e-02 0.00000000e+00 
2.33371323e-03 -7.95678515e-03 0.00000000e+00 
8.10639584e-04 -4.26717056e-03 0.00000000e+00 

        </DataArray>
      </Points>
      <Cells>
        <DataArray type="Int32" Name="connectivity" format="ascii">
0 1
1 2
2 3

        </DataArray>
        <DataArray type="Int32" Name="offsets" format="ascii">
2 4 6 
        </DataArray>
        <DataArray type="UInt8" Name="types" format="ascii">
3 3 3 
        </DataArray>
      </Cells>
      <PointData>
        <DataArray type="Float64" Name="rho">
          1.49917531e+00 1.57362046e+00 1.66273754e+00 1.73148168e+00 
        </DataArray>
        <DataArray type="Float64" Name="rhou">
          7.98985502e-01 9.28889721e-01 2.58098710e-01 -1.27469154e+00 
        </DataArray>
        <DataArray type="Float64" Name="rhov">
          6.16882487e-01 -5.10813323e-01 -1.72790635e+00 -1.81607237e+00 
        </DataArray>
        <DataArray type="Float64" Name="E">
          3.49219860e+05 3.67392283e+05 3.89024097e+05 4.05733509e+05 
        </DataArray>
      </PointData>
    </Piece>
    <Piece NumberOfPoints="4" NumberOfCells="3">
      <Points>
        <DataArray type="Float64" NumberOfComponents="3" format="ascii">
          8.10639584e-04 -4.26717056e-03 0.00000000e+00 
1.91366620e-04 -3.27450951e-04 0.00000000e+00 
6.40850572e-04 3.63462302e-03 0.00000000e+00 
2.03182548e-03 7.37539819e-03 0.00000000e+00 

        </DataArray>
      </Points>
      <Cells>
        <DataArray type="Int32" Name="connectivity" format="ascii">
0 1
1 2
2 3

        </DataArray>
        <DataArray type="Int32" Name="offsets" format="ascii">
2 4 6 
        </DataArray>
        <DataArray type="UInt8" Name="types" format="ascii">
3 3 3 
        </DataArray>
      </Cells>
      <PointData>
        <DataArray type="Float64" Name="rho">
          1.72990612e+00 1.75488799e+00 1.70450051e+00 1.61206220e+00 
        </DataArray>
        <DataArray type="Float64" Name="rhou">
          -1.14915444e+00 -1.87781759e+00 -8.34560399e-01 7.51380544e-01 
        </DataArray>
        <DataArray type="Float64" Name="rhov">
          -1.97412609e+00 3.63982563e-01 1.88141423e+00 1.51405890e+00 
        </DataArray>
        <DataArray type="Float64" Name="E">
          4.05352033e+05 4.11332928e+05 3.99016181e+05 3.76441286e+05 
        </DataArray>
      </PointData>
    </Piece>
    <Piece NumberOfPoints="4" NumberOfCells="3">
      <Points>
        <DataArray type="Float64" NumberOfComponents="3" format="ascii">
          2.03182548e-03 7.37539819e-03 0.00000000e+00 
4.13410179e-03 1.07714310e-02 0.00000000e+00 
6.73249783e-03 1.38076087e-02 0.00000000e+00 
9.66598373e-03 1.65232457e-02 0.00000000e+00 

        </DataArray>
      </Points>
      <Cells>
        <DataArray type="Int32" Name="connectivity" format="ascii">
0 1
1 2
2 3

        </DataArray>
        <DataArray type="Int32" Name="offsets" format="ascii">
2 4 6 
        </DataArray>
        <DataArray type="UInt8" Name="types" format="ascii">
3 3 3 
        </DataArray>
      </Cells>
      <PointData>
        <DataArray type="Float64" Name="rho">
          1.61242512e+00 1.50530764e+00 1.41606969e+00 1.34911204e+00 
        </DataArray>
        <DataArray type="Float64" Name="rhou">
          7.23716660e-01 1.15399696e+00 8.38922259e-01 3.74576074e-01 
        </DataArray>
        <DataArray type="Float64" Name="rhov">
          1.74869310e+00 6.22251670e-02 -1.07419250e+00 -1.39852006e+00 
        </DataArray>
        <DataArray type="Float64" Name="E">
          3.76532584e+05 3.50530299e+05 3.28831349e+05 3.12469064e+05 
        </DataArray>
      </PointData>
    </Piece>
    <Piece NumberOfPoints="4" NumberOfCells="3">
      <Points>
        <DataArray type="Float64" NumberOfComponents="3" format="ascii">
          9.66598373e-03 1.65232457e-02 0.00000000e+00 
1.28298048e-02 1.89677756e-02 0.00000000e+00 
1.61561389e-02 2.11867876e-02 0.00000000e+00 
1.96009967e-02 2.32173651e-02 0.00000000e+00 

        </DataArray>
      </Points>
      <Cells>
        <DataArray type="Int32" Name="connectivity" format="ascii">
0 1
1 2
2 3

        </DataArray>
        <DataArray type="Int32" Name="offsets" format="ascii">
2 4 6 
        </DataArray>
        <DataArray type="UInt8" Name="types" format="ascii">
3 3 3 
        </DataArray>
      </Cells>
      <PointData>
        <DataArray type="Float64" Name="rho">
          1.34890666e+00 1.29643398e+00 1.25745573e+00 1.22314286e+00 
        </DataArray>
        <DataArray type="Float64" Name="rhou">
          3.84161707e-01 -1.70927760e-02 -1.98372755e-01 -2.18796224e-01 
        </DataArray>
        <DataArray type="Float64" Name="rhov">
          -1.42309126e+00 -1.31838326e+00 -9.88586588e-01 -6.63527829e-01 
        </DataArray>
        <DataArray type="Float64" Name="E">
          3.12416887e+05 2.99595173e+05 2.90021265e+05 2.81619395e+05 
        </DataArray>
      </PointData>
    </Piece>
    <Piece NumberOfPoints="4" NumberOfCells="3">
      <Points>
        <DataArray type="Float64" NumberOfComponents="3" format="ascii">
          1.96009967e-02 2.32173651e-02 0.00000000e+00 
2.31348258e-02 2.50891000e-02 0.00000000e+00 
2.67372411e-02 2.68253610e-02 0.00000000e+00 
3.03938854e-02 2.84444261e-02 0.00000000e+00 

        </DataArray>
      </Points>
      <Cells>
        <DataArray type="Int32" Name="connectivity" format="ascii">
0 1
1 2
2 3

        </DataArray>
        <DataArray type="Int32" Name="offsets" format="ascii">
2 4 6 
        </DataArray>
        <DataArray type="UInt8" Name="types" format="ascii">
3 3 3 
        </DataArray>
      </Cells>
      <PointData>
        <DataArray type="Float64" Name="rho">
          1.22320655e+00 1.19408173e+00 1.16803397e+00 1.14444467e+00 
        </DataArray>
        <DataArray type="Float64" Name="rhou">
          -2.31906623e-01 -2.18368818e-01 -1.73150167e-01 -1.30931537e-01 
        </DataArray>
        <DataArray type="Float64" Name="rhov">
          -6.81748904e-01 -4.31018904e-01 -2.44680853e-01 -1.32101857e-01 
        </DataArray>
        <DataArray type="Float64" Name="E">
          2.81634298e+05 2.74522272e+05 2.68184583e+05 2.62462128e+05 
        </DataArray>
      </PointData>
    </Piece>
    <Piece NumberOfPoints="4" NumberOfCells="3">
      <Points>
        <DataArray type="Float64" NumberOfComponents="3" format="ascii">
          3.03938854e-02 2.84444261e-02 0.00000000e+00 
3.40943485e-02 2.99607720e-02 0.00000000e+00 
3.78307216e-02 3.13864015e-02 0.00000000e+00 
4.15969416e-02 3.27312648e-02 0.00000000e+00 

        </DataArray>
      </Points>
      <Cells>
        <DataArray type="Int32" Name="connectivity" format="ascii">
0 1
1 2
2 3

        </DataArray>
        <DataArray type="Int32" Name="offsets" format="ascii">
2 4 6 
        </DataArray>
        <DataArray type="UInt8" Name="types" format="ascii">
3 3 3 
        </DataArray>
      </Cells>
      <PointData>
        <DataArray type="Float64" Name="rho">
          1.14444294e+00 1.12309891e+00 1.10371183e+00 1.08603852e+00 
        </DataArray>
        <DataArray type="Float64" Name="rhou">
          -1.29142896e-01 -8.90380462e-02 -5.62811804e-02 -3.33366700e-02 
        </DataArray>
        <DataArray type="Float64" Name="rhov">
          -1.30652414e-01 -5.46001476e-02 -7.57664227e-03 1.77836664e-02 
        </DataArray>
        <DataArray type="Float64" Name="E">
          2.62461977e+05 2.57302850e+05 2.52628041e+05 2.48374288e+05 
        </DataArray>
      </PointData>
    </Piece>
    <Piece NumberOfPoints="4" NumberOfCells="3">
      <Points>
        <DataArray type="Float64" NumberOfComponents="3" format="ascii">
          4.15969416e-02 3.27312648e-02 0.00000000e+00 
4.53883260e-02 3.40034962e-02 0.00000000e+00 
4.92011942e-02 3.52098532e-02 0.00000000e+00 
5.30325845e-02 3.63560505e-02 0.00000000e+00 

        </DataArray>
      </Points>
      <Cells>
        <DataArray type="Int32" Name="connectivity" format="ascii">
0 1
1 2
2 3

        </DataArray>
        <DataArray type="Int32" Name="offsets" format="ascii">
2 4 6 
        </DataArray>
        <DataArray type="UInt8" Name="types" format="ascii">
3 3 3 
        </DataArray>
      </Cells>
      <PointData>
        <DataArray type="Float64" Name="rho">
          1.08603908e+00 1.06989057e+00 1.05507840e+00 1.04144385e+00 
        </DataArray>
        <DataArray type="Float64" Name="rhou">
          -3.22010597e-02 -1.27890479e-02 1.63203309e-03 1.10018253e-02 
        </DataArray>
        <DataArray type="Float64" Name="rhov">
          1.76881823e-02 3.13573405e-02 3.80060273e-02 3.91578488e-02 
        </DataArray>
        <DataArray type="Float64" Name="E">
          2.48374497e+05 2.44496272e+05 2.40944516e+05 2.37679283e+05 
        </DataArray>
      </PointData>
    </Piece>
    <Piece NumberOfPoints="4" NumberOfCells="3">
      <Points>
        <DataArray type="Float64" NumberOfComponents="3" format="ascii">
          5.30325845e-02 3.63560505e-02 0.00000000e+00 
5.68800643e-02 3.74470428e-02 0.00000000e+00 
6.07415959e-02 3.84872220e-02 0.00000000e+00 
6.46155030e-02 3.94803248e-02 0.00000000e+00 

        </DataArray>
      </Points>
      <Cells>
        <DataArray type="Int32" Name="connectivity" format="ascii">
0 1
1 2
2 3

        </DataArray>
        <DataArray type="Int32" Name="offsets" format="ascii">
2 4 6 
        </DataArray>
        <DataArray type="UInt8" Name="types" format="ascii">
3 3 3 
        </DataArray>
      </Cells>
      <PointData>
        <DataArray type="Float64" Name="rho">
          1.04144455e+00 1.02889949e+00 1.01731159e+00 1.00654019e+00 
        </DataArray>
        <DataArray type="Float64" Name="rhou">
          1.13170339e-02 1.83010882e-02 2.38326624e-02 2.76581175e-02 
        </DataArray>
        <DataArray type="Float64" Name="rhov">
          3.88307830e-02 3.71647615e-02 3.51090553e-02 3.18818616e-02 
        </DataArray>
        <DataArray type="Float64" Name="E">
          2.37679440e+05 2.34679337e+05 2.31910949e+05 2.29340158e+05 
        </DataArray>
      </PointData>
    </Piece>
    <Piece NumberOfPoints="4" NumberOfCells="3">
      <Points>
        <DataArray type="Float64" NumberOfComponents="3" format="ascii">
          6.46155030e-02 3.94803248e-02 0.00000000e+00 
6.85004294e-02 4.04294394e-02 0.00000000e+00 
7.23951608e-02 4.13374715e-02 0.00000000e+00 
7.62986317e-02 4.22072113e-02 0.00000000e+00 

        </DataArray>
      </Points>
      <Cells>
        <DataArray type="Int32" Name="connectivity" format="ascii">
0 1
1 2
2 3

        </DataArray>
        <DataArray type="Int32" Name="offsets" format="ascii">
2 4 6 
        </DataArray>
        <DataArray type="UInt8" Name="types" format="ascii">
3 3 3 
        </DataArray>
      </Cells>
      <PointData>
        <DataArray type="Float64" Name="rho">
          1.00654090e+00 9.96544639e-01 9.87234006e-01 9.78553505e-01 
        </DataArray>
        <DataArray type="Float64" Name="rhou">
          2.74775228e-02 2.94179486e-02 3.05132298e-02 3.06040368e-02 
        </DataArray>
        <DataArray type="Float64" Name="rhov">
          3.15835104e-02 2.76798277e-02 2.43039424e-02 2.09962290e-02 
        </DataArray>
        <DataArray type="Float64" Name="E">
          2.29340304e+05 2.26957110e+05 2.24739201e+05 2.22672670e+05 
        </DataArray>
      </PointData>
    </Piece>
    <Piece NumberOfPoints="4" NumberOfCells="3">
      <Points>
        <DataArray type="Float64" NumberOfComponents="3" format="ascii">
          7.62986317e-02 4.22072113e-02 0.00000000e+00 
8.02098960e-02 4.30411920e-02 0.00000000e+00 
8.41281936e-02 4.38414887e-02 0.00000000e+00 
8.80528912e-02 4.46097627e-02 0.00000000e+00 

        </DataArray>
      </Points>
      <Cells>
        <DataArray type="Int32" Name="connectivity" format="ascii">
0 1
1 2
2 3

        </DataArray>
        <DataArray type="Int32" Name="offsets" format="ascii">
2 4 6 
        </DataArray>
        <DataArray type="UInt8" Name="types" format="ascii">
3 3 3 
        </DataArray>
      </Cells>
      <PointData>
        <DataArray type="Float64" Name="rho">
          9.78552561e-01 9.70455981e-01 9.62848474e-01 9.55684286e-01 
        </DataArray>
        <DataArray type="Float64" Name="rhou">
          3.04567313e-02 3.04805224e-02 3.02052863e-02 2.91417126e-02 
        </DataArray>
        <DataArray type="Float64" Name="rhov">
          2.08330529e-02 1.82740253e-02 1.57658812e-02 1.30870358e-02 
        </DataArray>
        <DataArray type="Float64" Name="E">
          2.22672433e+05 2.20746398e+05 2.18937971e+05 2.17236065e+05 
        </DataArray>
      </PointData>
    </Piece>
    <Piece NumberOfPoints="4" NumberOfCells="3">
      <Points>
        <DataArray type="Float64" NumberOfComponents="3" format="ascii">
          8.80528912e-02 4.46097627e-02 0.00000000e+00 
9.19835642e-02 4.53475714e-02 0.00000000e+00 
9.59195644e-02 4.60564308e-02 0.00000000e+00 
9.98597518e-02 4.67394181e-02 0.00000000e+00 

        </DataArray>
      </Points>
      <Cells>
        <DataArray type="Int32" Name="connectivity" format="ascii">
0 1
1 2
2 3

        </DataArray>
        <DataArray type="Int32" Name="offsets" format="ascii">
2 4 6 
        </DataArray>
        <DataArray type="UInt8" Name="types" format="ascii">
3 3 3 
        </DataArray>
      </Cells>
      <PointData>
        <DataArray type="Float64" Name="rho">
          9.55684794e-01 9.48953915e-01 9.42643714e-01 9.36654474e-01 
        </DataArray>
        <DataArray type="Float64" Name="rhou">
          2.89495170e-02 2.75269535e-02 2.40611826e-02 2.85683674e-02 
        </DataArray>
        <DataArray type="Float64" Name="rhov">
          1.32498348e-02 1.06773466e-02 9.09639573e-03 8.59908396e-03 
        </DataArray>
        <DataArray type="Float64" Name="E">
          2.17236183e+05 2.15638424e+05 2.14140952e+05 2.12720674e+05 
        </DataArray>
      </PointData>
    </Piece>
    <Piece NumberOfPoints="4" NumberOfCells="3">
      <Points>
        <DataArray type="Float64" NumberOfComponents="3" format="ascii">
          9.98597518e-02 4.67394181e-02 0.00000000e+00 
1.10118888e-01 4.83862534e-02 0.00000000e+00 
1.20400399e-01 4.98730615e-02 0.00000000e+00 
1.30701363e-01 5.12186773e-02 0.00000000e+00 

        </DataArray>
      </Points>
      <Cells>
        <DataArray type="Int32" Name="connectivity" format="ascii">
0 1
1 2
2 3

        </DataArray>
        <DataArray type="Int32" Name="offsets" format="ascii">
2 4 6 
        </DataArray>
        <DataArray type="UInt8" Name="types" format="ascii">
3 3 3 
        </DataArray>
      </Cells>
      <PointData>
        <DataArray type="Float64" Name="rho">
          9.36581897e-01 9.22611412e-01 9.10558071e-01 9.00195419e-01 
        </DataArray>
        <DataArray type="Float64" Name="rhou">
          2.63017358e-02 1.81389854e-02 1.60118446e-02 1.25523598e-02 
        </DataArray>
        <DataArray type="Float64" Name="rhov">
          7.36701535e-03 4.14413871e-03 3.63670505e-03 2.96737944e-03 
        </DataArray>
        <DataArray type="Float64" Name="E">
          2.12704283e+05 2.09395217e+05 2.06543627e+05 2.04094553e+05 
        </DataArray>
      </PointData>
    </Piece>
    <Piece NumberOfPoints="4" NumberOfCells="3">
      <Points>
        <DataArray type="Float64" NumberOfComponents="3" format="ascii">
          1.30701363e-01 5.12186773e-02 0.00000000e+00 
1.41019106e-01 5.24347536e-02 0.00000000e+00 
1.51350453e-01 5.35292812e-02 0.00000000e+00 
1.61692888e-01 5.45137413e-02 0.00000000e+00 

        </DataArray>
      </Points>
      <Cells>
        <DataArray type="Int32" Name="connectivity" format="ascii">
0 1
1 2
2 3

        </DataArray>
        <DataArray type="Int32" Name="offsets" format="ascii">
2 4 6 
        </DataArray>
        <DataArray type="UInt8" Name="types" format="ascii">
3 3 3 
        </DataArray>
      </Cells>
      <PointData>
        <DataArray type="Float64" Name="rho">
          9.00191934e-01 8.91093366e-01 8.83234420e-01 8.76506884e-01 
        </DataArray>
        <DataArray type="Float64" Name="rhou">
          1.39310381e-02 1.20363488e-02 9.96428264e-03 8.70017514e-03 
        </DataArray>
        <DataArray type="Float64" Name="rhov">
          3.46537254e-03 2.54240373e-03 1.76764055e-03 1.59255279e-03 
        </DataArray>
        <DataArray type="Float64" Name="E">
          2.04093716e+05 2.01946666e+05 2.00094445e+05 1.98510463e+05 
        </DataArray>
      </PointData>
    </Piece>
    <Piece NumberOfPoints="4" NumberOfCells="3">
      <Points>
        <DataArray type="Float64" NumberOfComponents="3" format="ascii">
          1.61692888e-01 5.45137413e-02 0.00000000e+00 
1.72044471e-01 5.53969070e-02 0.00000000e+00 
1.82403773e-01 5.61845005e-02 0.00000000e+00 
1.92769483e-01 5.68825118e-02 0.00000000e+00 

        </DataArray>
      </Points>
      <Cells>
        <DataArray type="Int32" Name="connectivity" format="ascii">
0 1
1 2
2 3

        </DataArray>
        <DataArray type="Int32" Name="offsets" format="ascii">
2 4 6 
        </DataArray>
        <DataArray type="UInt8" Name="types" format="ascii">
3 3 3 
        </DataArray>
      </Cells>
      <PointData>
        <DataArray type="Float64" Name="rho">
          8.76504483e-01 8.70713467e-01 8.65768478e-01 8.61616994e-01 
        </DataArray>
        <DataArray type="Float64" Name="rhou">
          8.73679170e-03 7.60660095e-03 6.57313094e-03 5.67138027e-03 
        </DataArray>
        <DataArray type="Float64" Name="rhov">
          1.64404118e-03 1.28077841e-03 9.03658686e-04 6.75584470e-04 
        </DataArray>
        <DataArray type="Float64" Name="E">
          1.98509925e+05 1.97148259e+05 1.95987406e+05 1.95014445e+05 
        </DataArray>
      </PointData>
    </Piece>
    <Piece NumberOfPoints="4" NumberOfCells="3">
      <Points>
        <DataArray type="Float64" NumberOfComponents="3" format="ascii">
          1.92769483e-01 5.68825118e-02 0.00000000e+00 
2.03140482e-01 5.74972220e-02 0.00000000e+00 
2.13515818e-01 5.80338500e-02 0.00000000e+00 
2.23894730e-01 5.84962890e-02 0.00000000e+00 

        </DataArray>
      </Points>
      <Cells>
        <DataArray type="Int32" Name="connectivity" format="ascii">
0 1
1 2
2 3

        </DataArray>
        <DataArray type="Int32" Name="offsets" format="ascii">
2 4 6 
        </DataArray>
        <DataArray type="UInt8" Name="types" format="ascii">
3 3 3 
        </DataArray>
      </Cells>
      <PointData>
        <DataArray type="Float64" Name="rho">
          8.61616306e-01 8.58178760e-01 8.55371280e-01 8.53135689e-01 
        </DataArray>
        <DataArray type="Float64" Name="rhou">
          5.70792166e-03 4.98701494e-03 4.43102681e-03 3.97087377e-03 
        </DataArray>
        <DataArray type="Float64" Name="rhov">
          7.16818120e-04 6.27649149e-04 5.12554155e-04 3.90098430e-04 
        </DataArray>
        <DataArray type="Float64" Name="E">
          1.95014287e+05 1.94210150e+05 1.93555108e+05 1.93035321e+05 
        </DataArray>
      </PointData>
    </Piece>
    <Piece NumberOfPoints="4" NumberOfCells="3">
      <Points>
        <DataArray type="Float64" NumberOfComponents="3" format="ascii">
          2.23894730e-01 5.84962890e-02 0.00000000e+00 
2.34276548e-01 5.88882305e-02 0.00000000e+00 
2.44660646e-01 5.92139624e-02 0.00000000e+00 
2.55046517e-01 5.94772622e-02 0.00000000e+00 

        </DataArray>
      </Points>
      <Cells>
        <DataArray type="Int32" Name="connectivity" format="ascii">
0 1
1 2
2 3

        </DataArray>
        <DataArray type="Int32" Name="offsets" format="ascii">
2 4 6 
        </DataArray>
        <DataArray type="UInt8" Name="types" format="ascii">
3 3 3 
        </DataArray>
      </Cells>
      <PointData>
        <DataArray type="Float64" Name="rho">
          8.53136259e-01 8.51430414e-01 8.50209921e-01 8.49419494e-01 
        </DataArray>
        <DataArray type="Float64" Name="rhou">
          3.97848868e-03 3.45771471e-03 3.07996001e-03 2.85063749e-03 
        </DataArray>
        <DataArray type="Float64" Name="rhov">
          4.04420681e-04 3.26838185e-04 3.09810822e-04 3.08482425e-04 
        </DataArray>
        <DataArray type="Float64" Name="E">
          1.93035451e+05 1.92640752e+05 1.92360553e+05 1.92181828e+05 
        </DataArray>
      </PointData>
    </Piece>
    <Piece NumberOfPoints="4" NumberOfCells="3">
      <Points>
        <DataArray type="Float64" NumberOfComponents="3" format="ascii">
          2.55046517e-01 5.94772622e-02 0.00000000e+00 
2.65433758e-01 5.96804135e-02 0.00000000e+00 
2.75821954e-01 5.98256700e-02 0.00000000e+00 
2.86210775e-01 5.99167012e-02 0.00000000e+00 

        </DataArray>
      </Points>
      <Cells>
        <DataArray type="Int32" Name="connectivity" format="ascii">
0 1
1 2
2 3

        </DataArray>
        <DataArray type="Int32" Name="offsets" format="ascii">
2 4 6 
        </DataArray>
        <DataArray type="UInt8" Name="types" format="ascii">
3 3 3 
        </DataArray>
      </Cells>
      <PointData>
        <DataArray type="Float64" Name="rho">
          8.49419506e-01 8.49010934e-01 8.48959584e-01 8.49245095e-01 
        </DataArray>
        <DataArray type="Float64" Name="rhou">
          2.84494767e-03 2.55855130e-03 2.26523128e-03 2.00225456e-03 
        </DataArray>
        <DataArray type="Float64" Name="rhov">
          3.19733954e-04 2.24773766e-04 1.66846723e-04 2.00595455e-04 
        </DataArray>
        <DataArray type="Float64" Name="E">
          1.92181834e+05 1.92093246e+05 1.92088890e+05 1.92163756e+05 
        </DataArray>
      </PointData>
    </Piece>
    <Piece NumberOfPoints="4" NumberOfCells="3">
      <Points>
        <DataArray type="Float64" NumberOfComponents="3" format="ascii">
          2.86210775e-01 5.99167012e-02 0.00000000e+00 
2.96599895e-01 5.99572174e-02 0.00000000e+00 
3.06989133e-01 5.99487796e-02 0.00000000e+00 
3.17378193e-01 5.98919280e-02 0.00000000e+00 

        </DataArray>
      </Points>
      <Cells>
        <DataArray type="Int32" Name="connectivity" format="ascii">
0 1
1 2
2 3

        </DataArray>
        <DataArray type="Int32" Name="offsets" format="ascii">
2 4 6 
        </DataArray>
        <DataArray type="UInt8" Name="types" format="ascii">
3 3 3 
        </DataArray>
      </Cells>
      <PointData>
        <DataArray type="Float64" Name="rho">
          8.49244076e-01 8.49817409e-01 8.50631817e-01 8.51672219e-01 
        </DataArray>
        <DataArray type="Float64" Name="rhou">
          2.02105689e-03 1.90575840e-03 1.77959954e-03 1.59829006e-03 
        </DataArray>
        <DataArray type="Float64" Name="rhov">
          2.16881629e-04 2.44092378e-04 1.90182617e-04 1.16250560e-04 
        </DataArray>
        <DataArray type="Float64" Name="E">
          1.92163525e+05 1.92306102e+05 1.92505577e+05 1.92758325e+05 
        </DataArray>
      </PointData>
    </Piece>
    <Piece NumberOfPoints="4" NumberOfCells="3">
      <Points>
        <DataArray type="Float64" NumberOfComponents="3" format="ascii">
          3.17378193e-01 5.98919280e-02 0.00000000e+00 
3.27766895e-01 5.97884916e-02 0.00000000e+00 
3.38155061e-01 5.96415885e-02 0.00000000e+00 
3.48542601e-01 5.94538599e-02 0.00000000e+00 

        </DataArray>
      </Points>
      <Cells>
        <DataArray type="Int32" Name="connectivity" format="ascii">
0 1
1 2
2 3

        </DataArray>
        <DataArray type="Int32" Name="offsets" format="ascii">
2 4 6 
        </DataArray>
        <DataArray type="UInt8" Name="types" format="ascii">
3 3 3 
        </DataArray>
      </Cells>
      <PointData>
        <DataArray type="Float64" Name="rho">
          8.51672564e-01 8.52926212e-01 8.54372874e-01 8.55979702e-01 
        </DataArray>
        <DataArray type="Float64" Name="rhou">
          1.62762269e-03 1.43223889e-03 1.31578814e-03 1.26922297e-03 
        </DataArray>
        <DataArray type="Float64" Name="rhov">
          1.23871064e-04 1.12691564e-04 1.38355904e-04 1.58986288e-04 
        </DataArray>
        <DataArray type="Float64" Name="E">
          1.92758403e+05 1.93061305e+05 1.93409538e+05 1.93795437e+05 
        </DataArray>
      </PointData>
    </Piece>
    <Piece NumberOfPoints="4" NumberOfCells="3">
      <Points>
        <DataArray type="Float64" NumberOfComponents="3" format="ascii">
          3.48542601e-01 5.94538599e-02 0.00000000e+00 
3.58929336e-01 5.92265576e-02 0.00000000e+00 
3.69315147e-01 5.89610897e-02 0.00000000e+00 
3.79699975e-01 5.86590059e-02 0.00000000e+00 

        </DataArray>
      </Points>
      <Cells>
        <DataArray type="Int32" Name="connectivity" format="ascii">
0 1
1 2
2 3

        </DataArray>
        <DataArray type="Int32" Name="offsets" format="ascii">
2 4 6 
        </DataArray>
        <DataArray type="UInt8" Name="types" format="ascii">
3 3 3 
        </DataArray>
      </Cells>
      <PointData>
        <DataArray type="Float64" Name="rho">
          8.55979948e-01 8.57721443e-01 8.59587848e-01 8.61559237e-01 
        </DataArray>
        <DataArray type="Float64" Name="rhou">
          1.28149916e-03 1.15795521e-03 1.06449139e-03 1.01640475e-03 
        </DataArray>
        <DataArray type="Float64" Name="rhov">
          1.55915579e-04 1.20118419e-04 1.12797524e-04 1.11300282e-04 
        </DataArray>
        <DataArray type="Float64" Name="E">
          1.93795494e+05 1.94213100e+05 1.94660051e+05 1.95131688e+05 
        </DataArray>
      </PointData>
    </Piece>
    <Piece NumberOfPoints="4" NumberOfCells="3">
      <Points>
        <DataArray type="Float64" NumberOfComponents="3" format="ascii">
          3.79699975e-01 5.86590059e-02 0.00000000e+00 
3.90083700e-01 5.83211333e-02 0.00000000e+00 
4.00466233e-01 5.79482466e-02 0.00000000e+00 
4.10847515e-01 5.75418957e-02 0.00000000e+00 

        </DataArray>
      </Points>
      <Cells>
        <DataArray type="Int32" Name="connectivity" format="ascii">
0 1
1 2
2 3

        </DataArray>
        <DataArray type="Int32" Name="offsets" format="ascii">
2 4 6 
        </DataArray>
        <DataArray type="UInt8" Name="types" format="ascii">
3 3 3 
        </DataArray>
      </Cells>
      <PointData>
        <DataArray type="Float64" Name="rho">
          8.61559249e-01 8.63618694e-01 8.65756185e-01 8.67965061e-01 
        </DataArray>
        <DataArray type="Float64" Name="rhou">
          1.00876021e-03 9.44737431e-04 8.66375879e-04 7.90766702e-04 
        </DataArray>
        <DataArray type="Float64" Name="rhov">
          1.13723007e-04 8.36345061e-05 6.10215171e-05 6.64187773e-05 
        </DataArray>
        <DataArray type="Float64" Name="E">
          1.95131692e+05 1.95624059e+05 1.96134789e+05 1.96662261e+05 
        </DataArray>
      </PointData>
    </Piece>
    <Piece NumberOfPoints="4" NumberOfCells="3">
      <Points>
        <DataArray type="Float64" NumberOfComponents="3" format="ascii">
          4.10847515e-01 5.75418957e-02 0.00000000e+00 
4.21227485e-01 5.71038015e-02 0.00000000e+00 
4.31606144e-01 5.66351078e-02 0.00000000e+00 
4.41983402e-01 5.61364293e-02 0.00000000e+00 

        </DataArray>
      </Points>
      <Cells>
        <DataArray type="Int32" Name="connectivity" format="ascii">
0 1
1 2
2 3

        </DataArray>
        <DataArray type="Int32" Name="offsets" format="ascii">
2 4 6 
        </DataArray>
        <DataArray type="UInt8" Name="types" format="ascii">
3 3 3 
        </DataArray>
      </Cells>
      <PointData>
        <DataArray type="Float64" Name="rho">
          8.67964862e-01 8.70229460e-01 8.72538055e-01 8.74880892e-01 
        </DataArray>
        <DataArray type="Float64" Name="rhou">
          8.07234743e-04 7.55894119e-04 7.17012605e-04 6.80051597e-04 
        </DataArray>
        <DataArray type="Float64" Name="rhov">
          6.98305611e-05 6.99989172e-05 6.05226594e-05 3.97055411e-05 
        </DataArray>
        <DataArray type="Float64" Name="E">
          1.96662216e+05 1.97202771e+05 1.97753674e+05 1.98312640e+05 
        </DataArray>
      </PointData>
    </Piece>
    <Piece NumberOfPoints="4" NumberOfCells="3">
      <Points>
        <DataArray type="Float64" NumberOfComponents="3" format="ascii">
          4.41983402e-01 5.61364293e-02 0.00000000e+00 
4.52359200e-01 5.56085743e-02 0.00000000e+00 
4.62733537e-01 5.50529286e-02 0.00000000e+00 
4.73106444e-01 5.44707514e-02 0.00000000e+00 

        </DataArray>
      </Points>
      <Cells>
        <DataArray type="Int32" Name="connectivity" format="ascii">
0 1
1 2
2 3

        </DataArray>
        <DataArray type="Int32" Name="offsets" format="ascii">
2 4 6 
        </DataArray>
        <DataArray type="UInt8" Name="types" format="ascii">
3 3 3 
        </DataArray>
      </Cells>
      <PointData>
        <DataArray type="Float64" Name="rho">
          8.74881033e-01 8.77253569e-01 8.79649259e-01 8.82059554e-01 
        </DataArray>
        <DataArray type="Float64" Name="rhou">
          6.77071202e-04 6.21547435e-04 5.81820273e-04 5.58471634e-04 
        </DataArray>
        <DataArray type="Float64" Name="rhov">
          4.03497022e-05 3.30415695e-05 3.35685113e-05 3.38435769e-05 
        </DataArray>
        <DataArray type="Float64" Name="E">
          1.98312672e+05 1.98878603e+05 1.99449950e+05 2.00024717e+05 
        </DataArray>
      </PointData>
    </Piece>
    <Piece NumberOfPoints="4" NumberOfCells="3">
      <Points>
        <DataArray type="Float64" NumberOfComponents="3" format="ascii">
          4.73106444e-01 5.44707514e-02 0.00000000e+00 
4.83477861e-01 5.38627952e-02 0.00000000e+00 
4.93847787e-01 5.32294959e-02 0.00000000e+00 
5.04216135e-01 5.25716618e-02 0.00000000e+00 

        </DataArray>
      </Points>
      <Cells>
        <DataArray type="Int32" Name="connectivity" format="ascii">
0 1
1 2
2 3

        </DataArray>
        <DataArray type="Int32" Name="offsets" format="ascii">
2 4 6 
        </DataArray>
        <DataArray type="UInt8" Name="types" format="ascii">
3 3 3 
        </DataArray>
      </Cells>
      <PointData>
        <DataArray type="Float64" Name="rho">
          8.82059541e-01 8.84477514e-01 8.86897718e-01 8.89318940e-01 
        </DataArray>
        <DataArray type="Float64" Name="rhou">
          5.50932733e-04 5.30132725e-04 4.95295627e-04 4.53987923e-04 
        </DataArray>
        <DataArray type="Float64" Name="rhov">
          3.56420773e-05 2.44127530e-05 9.76670310e-06 7.24303955e-06 
        </DataArray>
        <DataArray type="Float64" Name="E">
          2.00024714e+05 2.00601280e+05 2.01178372e+05 2.01755675e+05 
        </DataArray>
      </PointData>
    </Piece>
    <Piece NumberOfPoints="4" NumberOfCells="3">
      <Points>
        <DataArray type="Float64" NumberOfComponents="3" format="ascii">
          5.04216135e-01 5.25716618e-02 0.00000000e+00 
5.14582992e-01 5.18903993e-02 0.00000000e+00 
5.24948359e-01 5.11864908e-02 0.00000000e+00 
5.35312176e-01 5.04603274e-02 0.00000000e+00 

        </DataArray>
      </Points>
      <Cells>
        <DataArray type="Int32" Name="connectivity" format="ascii">
0 1
1 2
2 3

        </DataArray>
        <DataArray type="Int32" Name="offsets" format="ascii">
2 4 6 
        </DataArray>
        <DataArray type="UInt8" Name="types" format="ascii">
3 3 3 
        </DataArray>
      </Cells>
      <PointData>
        <DataArray type="Float64" Name="rho">
          8.89318856e-01 8.91735626e-01 8.94143423e-01 8.96538711e-01 
        </DataArray>
        <DataArray type="Float64" Name="rhou">
          4.62450132e-04 4.36650526e-04 4.17183800e-04 3.98078396e-04 
        </DataArray>
        <DataArray type="Float64" Name="rhov">
          9.39023213e-06 9.06479586e-06 3.75661916e-06 -7.89014045e-06 
        </DataArray>
        <DataArray type="Float64" Name="E">
          2.01755656e+05 2.02331892e+05 2.02906006e+05 2.03477171e+05 
        </DataArray>
      </PointData>
    </Piece>
    <Piece NumberOfPoints="4" NumberOfCells="3">
      <Points>
        <DataArray type="Float64" NumberOfComponents="3" format="ascii">
          5.35312176e-01 5.04603274e-02 0.00000000e+00 
5.45674443e-01 4.97124642e-02 0.00000000e+00 
5.56035221e-01 4.89437394e-02 0.00000000e+00 
5.66394389e-01 4.81546782e-02 0.00000000e+00 

        </DataArray>
      </Points>
      <Cells>
        <DataArray type="Int32" Name="connectivity" format="ascii">
0 1
1 2
2 3

        </DataArray>
        <DataArray type="Int32" Name="offsets" format="ascii">
2 4 6 
        </DataArray>
        <DataArray type="UInt8" Name="types" format="ascii">
3 3 3 
        </DataArray>
      </Cells>
      <PointData>
        <DataArray type="Float64" Name="rho">
          8.96538755e-01 8.98920789e-01 9.01286604e-01 9.03633294e-01 
        </DataArray>
        <DataArray type="Float64" Name="rhou">
          3.93858745e-04 3.67859451e-04 3.49774877e-04 3.38250890e-04 
        </DataArray>
        <DataArray type="Float64" Name="rhov">
          -7.60439881e-06 -8.29885860e-06 -9.00367550e-06 -1.31691964e-05 
        </DataArray>
        <DataArray type="Float64" Name="E">
          2.03477181e+05 2.04045205e+05 2.04609394e+05 2.05169071e+05 
        </DataArray>
      </PointData>
    </Piece>
    <Piece NumberOfPoints="4" NumberOfCells="3">
      <Points>
        <DataArray type="Float64" NumberOfComponents="3" format="ascii">
          5.66394389e-01 4.81546782e-02 0.00000000e+00 
5.76752067e-01 4.73455116e-02 0.00000000e+00 
5.87108195e-01 4.65166979e-02 0.00000000e+00 
5.97462773e-01 4.56690118e-02 0.00000000e+00 

        </DataArray>
      </Points>
      <Cells>
        <DataArray type="Int32" Name="connectivity" format="ascii">
0 1
1 2
2 3

        </DataArray>
        <DataArray type="Int32" Name="offsets" format="ascii">
2 4 6 
        </DataArray>
        <DataArray type="UInt8" Name="types" format="ascii">
3 3 3 
        </DataArray>
      </Cells>
      <PointData>
        <DataArray type="Float64" Name="rho">
          9.03633323e-01 9.05959165e-01 9.08263783e-01 9.10546238e-01 
        </DataArray>
        <DataArray type="Float64" Name="rhou">
          3.37567603e-04 3.17620346e-04 2.97006309e-04 2.81365692e-04 
        </DataArray>
        <DataArray type="Float64" Name="rhov">
          -1.28331418e-05 -2.13204902e-05 -2.47987006e-05 -2.36182589e-05 
        </DataArray>
        <DataArray type="Float64" Name="E">
          2.05169077e+05 2.05723837e+05 2.06273580e+05 2.06818079e+05 
        </DataArray>
      </PointData>
    </Piece>
    <Piece NumberOfPoints="4" NumberOfCells="3">
      <Points>
        <DataArray type="Float64" NumberOfComponents="3" format="ascii">
          5.97462773e-01 4.56690118e-02 0.00000000e+00 
6.07815862e-01 4.48031016e-02 0.00000000e+00 
6.18167400e-01 4.39192392e-02 0.00000000e+00 
6.28517449e-01 4.30175588e-02 0.00000000e+00 

        </DataArray>
      </Points>
      <Cells>
        <DataArray type="Int32" Name="connectivity" format="ascii">
0 1
1 2
2 3

        </DataArray>
        <DataArray type="Int32" Name="offsets" format="ascii">
2 4 6 
        </DataArray>
        <DataArray type="UInt8" Name="types" format="ascii">
3 3 3 
        </DataArray>
      </Cells>
      <PointData>
        <DataArray type="Float64" Name="rho">
          9.10546176e-01 9.12804562e-01 9.15037064e-01 9.17243806e-01 
        </DataArray>
        <DataArray type="Float64" Name="rhou">
          2.79461604e-04 2.71084099e-04 2.59467726e-04 2.42726726e-04 
        </DataArray>
        <DataArray type="Float64" Name="rhov">
          -2.27038367e-05 -2.31732846e-05 -2.86853756e-05 -3.39500107e-05 
        </DataArray>
        <DataArray type="Float64" Name="E">
          2.06818066e+05 2.07356877e+05 2.07889581e+05 2.08416197e+05 
        </DataArray>
      </PointData>
    </Piece>
    <Piece NumberOfPoints="4" NumberOfCells="3">
      <Points>
        <DataArray type="Float64" NumberOfComponents="3" format="ascii">
          6.28517449e-01 4.30175588e-02 0.00000000e+00 
6.38865948e-01 4.20984775e-02 0.00000000e+00 
6.49212897e-01 4.11624312e-02 0.00000000e+00 
6.59558356e-01 4.02097441e-02 0.00000000e+00 

        </DataArray>
      </Points>
      <Cells>
        <DataArray type="Int32" Name="connectivity" format="ascii">
0 1
1 2
2 3

        </DataArray>
        <DataArray type="Int32" Name="offsets" format="ascii">
2 4 6 
        </DataArray>
        <DataArray type="UInt8" Name="types" format="ascii">
3 3 3 
        </DataArray>
      </Cells>
      <PointData>
        <DataArray type="Float64" Name="rho">
          9.17243798e-01 9.19424563e-01 9.21578503e-01 9.23705289e-01 
        </DataArray>
        <DataArray type="Float64" Name="rhou">
          2.43681285e-04 2.31342079e-04 2.20812487e-04 2.09505073e-04 
        </DataArray>
        <DataArray type="Float64" Name="rhov">
          -3.29477209e-05 -3.36421478e-05 -3.54664530e-05 -3.76637355e-05 
        </DataArray>
        <DataArray type="Float64" Name="E">
          2.08416195e+05 2.08936667e+05 2.09450795e+05 2.09958499e+05 
        </DataArray>
      </PointData>
    </Piece>
    <Piece NumberOfPoints="4" NumberOfCells="3">
      <Points>
        <DataArray type="Float64" NumberOfComponents="3" format="ascii">
          6.59558356e-01 4.02097441e-02 0.00000000e+00 
6.69902325e-01 3.92407738e-02 0.00000000e+00 
6.80244744e-01 3.82556282e-02 0.00000000e+00 
6.90585554e-01 3.72543521e-02 0.00000000e+00 

        </DataArray>
      </Points>
      <Cells>
        <DataArray type="Int32" Name="connectivity" format="ascii">
0 1
1 2
2 3

        </DataArray>
        <DataArray type="Int32" Name="offsets" format="ascii">
2 4 6 
        </DataArray>
        <DataArray type="UInt8" Name="types" format="ascii">
3 3 3 
        </DataArray>
      </Cells>
      <PointData>
        <DataArray type="Float64" Name="rho">
          9.23705273e-01 9.25804887e-01 9.27876202e-01 9.29919988e-01 
        </DataArray>
        <DataArray type="Float64" Name="rhou">
          2.06359913e-04 2.01670483e-04 1.93459573e-04 1.79409212e-04 
        </DataArray>
        <DataArray type="Float64" Name="rhov">
          -3.66473088e-05 -3.66497260e-05 -4.10345834e-05 -4.46184380e-05 
        </DataArray>
        <DataArray type="Float64" Name="E">
          2.09958495e+05 2.10459765e+05 2.10954342e+05 2.11442395e+05 
        </DataArray>
      </PointData>
    </Piece>
    <Piece NumberOfPoints="4" NumberOfCells="3">
      <Points>
        <DataArray type="Float64" NumberOfComponents="3" format="ascii">
          6.90585554e-01 3.72543521e-02 0.00000000e+00 
7.00924933e-01 3.62373814e-02 0.00000000e+00 
7.11262703e-01 3.52048986e-02 0.00000000e+00 
7.21598923e-01 3.41568366e-02 0.00000000e+00 

        </DataArray>
      </Points>
      <Cells>
        <DataArray type="Int32" Name="connectivity" format="ascii">
0 1
1 2
2 3

        </DataArray>
        <DataArray type="Int32" Name="offsets" format="ascii">
2 4 6 
        </DataArray>
        <DataArray type="UInt8" Name="types" format="ascii">
3 3 3 
        </DataArray>
      </Cells>
      <PointData>
        <DataArray type="Float64" Name="rho">
          9.29919947e-01 9.31936594e-01 9.33924936e-01 9.35885603e-01 
        </DataArray>
        <DataArray type="Float64" Name="rhou">
          1.78067652e-04 1.73339729e-04 1.68440591e-04 1.55987062e-04 
        </DataArray>
        <DataArray type="Float64" Name="rhov">
          -4.35210469e-05 -4.11098219e-05 -4.43823943e-05 -4.90277846e-05 
        </DataArray>
        <DataArray type="Float64" Name="E">
          2.11442386e+05 2.11924001e+05 2.12398910e+05 2.12867251e+05 
        </DataArray>
      </PointData>
    </Piece>
    <Piece NumberOfPoints="4" NumberOfCells="3">
      <Points>
        <DataArray type="Float64" NumberOfComponents="3" format="ascii">
          7.21598923e-01 3.41568366e-02 0.00000000e+00 
7.31933594e-01 3.30936089e-02 0.00000000e+00 
7.42266715e-01 3.20154354e-02 0.00000000e+00 
7.52598286e-01 3.09220124e-02 0.00000000e+00 

        </DataArray>
      </Points>
      <Cells>
        <DataArray type="Int32" Name="connectivity" format="ascii">
0 1
1 2
2 3

        </DataArray>
        <DataArray type="Int32" Name="offsets" format="ascii">
2 4 6 
        </DataArray>
        <DataArray type="UInt8" Name="types" format="ascii">
3 3 3 
        </DataArray>
      </Cells>
      <PointData>
        <DataArray type="Float64" Name="rho">
          9.35885583e-01 9.37819580e-01 9.39725611e-01 9.41604194e-01 
        </DataArray>
        <DataArray type="Float64" Name="rhou">
          1.53422679e-04 1.49581966e-04 1.46941590e-04 1.37123264e-04 
        </DataArray>
        <DataArray type="Float64" Name="rhov">
          -4.80793240e-05 -4.37486141e-05 -4.59883501e-05 -5.09825880e-05 
        </DataArray>
        <DataArray type="Float64" Name="E">
          2.12867246e+05 2.13329245e+05 2.13784604e+05 2.14233438e+05 
        </DataArray>
      </PointData>
    </Piece>
    <Piece NumberOfPoints="4" NumberOfCells="3">
      <Points>
        <DataArray type="Float64" NumberOfComponents="3" format="ascii">
          7.52598286e-01 3.09220124e-02 0.00000000e+00 
7.62928188e-01 2.98135038e-02 0.00000000e+00 
7.73256481e-01 2.86899786e-02 0.00000000e+00 
7.83583105e-01 2.75512449e-02 0.00000000e+00 

        </DataArray>
      </Points>
      <Cells>
        <DataArray type="Int32" Name="connectivity" format="ascii">
0 1
1 2
2 3

        </DataArray>
        <DataArray type="Int32" Name="offsets" format="ascii">
2 4 6 
        </DataArray>
        <DataArray type="UInt8" Name="types" format="ascii">
3 3 3 
        </DataArray>
      </Cells>
      <PointData>
        <DataArray type="Float64" Name="rho">
          9.41604188e-01 9.43456452e-01 9.45281632e-01 9.47080428e-01 
        </DataArray>
        <DataArray type="Float64" Name="rhou">
          1.34639385e-04 1.31180549e-04 1.27589636e-04 1.18727094e-04 
        </DataArray>
        <DataArray type="Float64" Name="rhov">
          -5.00897590e-05 -4.78858799e-05 -5.00407686e-05 -5.31951424e-05 
        </DataArray>
        <DataArray type="Float64" Name="E">
          2.14233437e+05 2.14675999e+05 2.15112111e+05 2.15541928e+05 
        </DataArray>
      </PointData>
    </Piece>
    <Piece NumberOfPoints="4" NumberOfCells="3">
      <Points>
        <DataArray type="Float64" NumberOfComponents="3" format="ascii">
          7.83583105e-01 2.75512449e-02 0.00000000e+00 
7.93908060e-01 2.63975188e-02 0.00000000e+00 
8.04231405e-01 2.52291560e-02 0.00000000e+00 
8.14553022e-01 2.40457114e-02 0.00000000e+00 

        </DataArray>
      </Points>
      <Cells>
        <DataArray type="Int32" Name="connectivity" format="ascii">
0 1
1 2
2 3

        </DataArray>
        <DataArray type="Int32" Name="offsets" format="ascii">
2 4 6 
        </DataArray>
        <DataArray type="UInt8" Name="types" format="ascii">
3 3 3 
        </DataArray>
      </Cells>
      <PointData>
        <DataArray type="Float64" Name="rho">
          9.47080434e-01 9.48853604e-01 9.50601098e-01 9.52322323e-01 
        </DataArray>
        <DataArray type="Float64" Name="rhou">
          1.21209989e-04 1.11134248e-04 1.10291497e-04 1.11445253e-04 
        </DataArray>
        <DataArray type="Float64" Name="rhov">
          -5.35326644e-05 -5.00156401e-05 -4.88541138e-05 -5.51044884e-05 
        </DataArray>
        <DataArray type="Float64" Name="E">
          2.15541929e+05 2.15965618e+05 2.16383162e+05 2.16794421e+05 
        </DataArray>
      </PointData>
    </Piece>
    <Piece NumberOfPoints="4" NumberOfCells="3">
      <Points>
        <DataArray type="Float64" NumberOfComponents="3" format="ascii">
          8.14553022e-01 2.40457114e-02 0.00000000e+00 
8.24872792e-01 2.28467938e-02 0.00000000e+00 
8.35190892e-01 2.16327831e-02 0.00000000e+00 
8.45507145e-01 2.04038676e-02 0.00000000e+00 

        </DataArray>
      </Points>
      <Cells>
        <DataArray type="Int32" Name="connectivity" format="ascii">
0 1
1 2
2 3

        </DataArray>
        <DataArray type="Int32" Name="offsets" format="ascii">
2 4 6 
        </DataArray>
        <DataArray type="UInt8" Name="types" format="ascii">
3 3 3 
        </DataArray>
      </Cells>
      <PointData>
        <DataArray type="Float64" Name="rho">
          9.52322364e-01 9.54018946e-01 9.55691189e-01 9.57339260e-01 
        </DataArray>
        <DataArray type="Float64" Name="rhou">
          1.05798568e-04 9.81268493e-05 9.17066283e-05 9.25667548e-05 
        </DataArray>
        <DataArray type="Float64" Name="rhov">
          -5.53628244e-05 -5.53151170e-05 -5.26943274e-05 -4.90884420e-05 
        </DataArray>
        <DataArray type="Float64" Name="E">
          2.16794430e+05 2.17199765e+05 2.17599235e+05 2.17992867e+05 
        </DataArray>
      </PointData>
    </Piece>
    <Piece NumberOfPoints="4" NumberOfCells="3">
      <Points>
        <DataArray type="Float64" NumberOfComponents="3" format="ascii">
          8.45507145e-01 2.04038676e-02 0.00000000e+00 
8.55821550e-01 1.91591792e-02 0.00000000e+00 
8.66134048e-01 1.78987328e-02 0.00000000e+00 
8.76444638e-01 1.66228991e-02 0.00000000e+00 

        </DataArray>
      </Points>
      <Cells>
        <DataArray type="Int32" Name="connectivity" format="ascii">
0 1
1 2
2 3

        </DataArray>
        <DataArray type="Int32" Name="offsets" format="ascii">
2 4 6 
        </DataArray>
        <DataArray type="UInt8" Name="types" format="ascii">
3 3 3 
        </DataArray>
      </Cells>
      <PointData>
        <DataArray type="Float64" Name="rho">
          9.57339366e-01 9.58962015e-01 9.60562960e-01 9.62138913e-01 
        </DataArray>
        <DataArray type="Float64" Name="rhou">
          1.12859689e-04 8.31651836e-05 8.21235886e-05 9.77766233e-05 
        </DataArray>
        <DataArray type="Float64" Name="rhov">
          -5.25782507e-05 -5.97067492e-05 -5.74066371e-05 -7.45782795e-05 
        </DataArray>
        <DataArray type="Float64" Name="E">
          2.17992891e+05 2.18380390e+05 2.18762587e+05 2.19138719e+05 
        </DataArray>
      </PointData>
    </Piece>
    <Piece NumberOfPoints="4" NumberOfCells="3">
      <Points>
        <DataArray type="Float64" NumberOfComponents="3" format="ascii">
          8.76444638e-01 1.66228991e-02 0.00000000e+00 
8.86753201e-01 1.53310820e-02 0.00000000e+00 
8.97059798e-01 1.40233757e-02 0.00000000e+00 
9.07364249e-01 1.26988320e-02 0.00000000e+00 

        </DataArray>
      </Points>
      <Cells>
        <DataArray type="Int32" Name="connectivity" format="ascii">
0 1
1 2
2 3

        </DataArray>
        <DataArray type="Int32" Name="offsets" format="ascii">
2 4 6 
        </DataArray>
        <DataArray type="UInt8" Name="types" format="ascii">
3 3 3 
        </DataArray>
      </Cells>
      <PointData>
        <DataArray type="Float64" Name="rho">
          9.62138479e-01 9.63695874e-01 9.65227502e-01 9.66751522e-01 
        </DataArray>
        <DataArray type="Float64" Name="rhou">
          8.87095565e-06 9.86598858e-05 4.53934126e-05 -5.55220598e-06 
        </DataArray>
        <DataArray type="Float64" Name="rhov">
          -6.68682235e-05 -7.05739839e-05 -8.93104268e-05 5.87089041e-06 
        </DataArray>
        <DataArray type="Float64" Name="E">
          2.19138620e+05 2.19510139e+05 2.19875395e+05 2.20238522e+05 
        </DataArray>
      </PointData>
    </Piece>
    <Piece NumberOfPoints="4" NumberOfCells="3">
      <Points>
        <DataArray type="Float64" NumberOfComponents="3" format="ascii">
          9.07364249e-01 1.26988320e-02 0.00000000e+00 
9.17666554e-01 1.13577880e-02 0.00000000e+00 
9.27966774e-01 1.00004105e-02 0.00000000e+00 
9.38264549e-01 8.62528384e-03 0.00000000e+00 

        </DataArray>
      </Points>
      <Cells>
        <DataArray type="Int32" Name="connectivity" format="ascii">
0 1
1 2
2 3

        </DataArray>
        <DataArray type="Int32" Name="offsets" format="ascii">
2 4 6 
        </DataArray>
        <DataArray type="UInt8" Name="types" format="ascii">
3 3 3 
        </DataArray>
      </Cells>
      <PointData>
        <DataArray type="Float64" Name="rho">
          9.66756228e-01 9.68231609e-01 9.69729048e-01 9.71083237e-01 
        </DataArray>
        <DataArray type="Float64" Name="rhou">
          7.78223892e-04 -1.96919301e-04 3.35601094e-04 7.47335541e-04 
        </DataArray>
        <DataArray type="Float64" Name="rhov">
          -6.13320998e-05 -1.13398576e-04 -4.56916796e-05 -1.41737649e-03 
        </DataArray>
        <DataArray type="Float64" Name="E">
          2.20239593e+05 2.20591262e+05 2.20947620e+05 2.21271095e+05 
        </DataArray>
      </PointData>
    </Piece>
    <Piece NumberOfPoints="4" NumberOfCells="3">
      <Points>
        <DataArray type="Float64" NumberOfComponents="3" format="ascii">
          9.38264549e-01 8.62528384e-03 0.00000000e+00 
9.48560059e-01 7.23283459e-03 0.00000000e+00 
9.58853185e-01 5.82307298e-03 0.00000000e+00 
9.69143867e-01 4.39538015e-03 0.00000000e+00 

        </DataArray>
      </Points>
      <Cells>
        <DataArray type="Int32" Name="connectivity" format="ascii">
0 1
1 2
2 3

        </DataArray>
        <DataArray type="Int32" Name="offsets" format="ascii">
2 4 6 
        </DataArray>
        <DataArray type="UInt8" Name="types" format="ascii">
3 3 3 
        </DataArray>
      </Cells>
      <PointData>
        <DataArray type="Float64" Name="rho">
          9.71037255e-01 9.72699860e-01 9.73961848e-01 9.76622040e-01 
        </DataArray>
        <DataArray type="Float64" Name="rhou">
          -6.46116961e-03 2.07270389e-03 -3.05404198e-03 -1.84076064e-02 
        </DataArray>
        <DataArray type="Float64" Name="rhov">
          -1.05249572e-03 1.24190840e-04 -1.08840483e-03 1.83300977e-02 
        </DataArray>
        <DataArray type="Float64" Name="E">
          2.21260619e+05 2.21654267e+05 2.21956800e+05 2.22578463e+05 
        </DataArray>
      </PointData>
    </Piece>
    <Piece NumberOfPoints="4" NumberOfCells="3">
      <Points>
        <DataArray type="Float64" NumberOfComponents="3" format="ascii">
          9.69143867e-01 4.39538015e-03 0.00000000e+00 
9.79435980e-01 2.94816052e-03 0.00000000e+00 
9.89725590e-01 1.48259092e-03 0.00000000e+00 
1.00000000e+00 0.00000000e+00 0.00000000e+00 

        </DataArray>
      </Points>
      <Cells>
        <DataArray type="Int32" Name="connectivity" format="ascii">
0 1
1 2
2 3

        </DataArray>
        <DataArray type="Int32" Name="offsets" format="ascii">
2 4 6 
        </DataArray>
        <DataArray type="UInt8" Name="types" format="ascii">
3 3 3 
        </DataArray>
      </Cells>
      <PointData>
        <DataArray type="Float64" Name="rho">
          9.76906671e-01 9.76579410e-01 9.80325485e-01 9.70776506e-01 
        </DataArray>
        <DataArray type="Float64" Name="rhou">
          -1.48500765e-03 -9.26336183e-03 -3.63847992e-02 4.80806730e-01 
        </DataArray>
        <DataArray type="Float64" Name="rhov">
          2.04293344e-02 1.06632924e-03 5.07097307e-02 -1.32301518e-01 
        </DataArray>
        <DataArray type="Float64" Name="E">
          2.22643327e+05 2.22585121e+05 2.23456702e+05 2.21300620e+05 
        </DataArray>
      </PointData>
    </Piece>
    <Piece NumberOfPoints="4" NumberOfCells="3">
      <Points>
        <DataArray type="Float64" NumberOfComponents="3" format="ascii">
          9.69029665e-01 -4.41133138e-03 0.00000000e+00 
9.79355037e-01 -2.95961346e-03 0.00000000e+00 
9.89677846e-01 -1.48943183e-03 0.00000000e+00 
1.00000000e+00 0.00000000e+00 0.00000000e+00 

        </DataArray>
      </Points>
      <Cells>
        <DataArray type="Int32" Name="connectivity" format="ascii">
0 1
1 2
2 3

        </DataArray>
        <DataArray type="Int32" Name="offsets" format="ascii">
2 4 6 
        </DataArray>
        <DataArray type="UInt8" Name="types" format="ascii">
3 3 3 
        </DataArray>
      </Cells>
      <PointData>
        <DataArray type="Float64" Name="rho">
          9.75781138e-01 9.75516132e-01 9.79230250e-01 9.70942934e-01 
        </DataArray>
        <DataArray type="Float64" Name="rhou">
          -9.31679489e-04 -7.23796704e-03 -3.44727071e-02 4.42362628e-01 
        </DataArray>
        <DataArray type="Float64" Name="rhov">
          -2.27928884e-02 2.05638643e-03 -4.72609075e-02 1.38575528e-01 
        </DataArray>
        <DataArray type="Float64" Name="E">
          2.22396798e+05 2.22349836e+05 2.23210652e+05 2.21338795e+05 
        </DataArray>
      </PointData>
    </Piece>
    <Piece NumberOfPoints="4" NumberOfCells="3">
      <Points>
        <DataArray type="Float64" NumberOfComponents="3" format="ascii">
          9.38035965e-01 -8.65600072e-03 0.00000000e+00 
9.48369622e-01 -7.25875143e-03 0.00000000e+00 
9.58700895e-01 -5.84406452e-03 0.00000000e+00 
9.69029665e-01 -4.41133138e-03 0.00000000e+00 

        </DataArray>
      </Points>
      <Cells>
        <DataArray type="Int32" Name="connectivity" format="ascii">
0 1
1 2
2 3

        </DataArray>
        <DataArray type="Int32" Name="offsets" format="ascii">
2 4 6 
        </DataArray>
        <DataArray type="UInt8" Name="types" format="ascii">
3 3 3 
        </DataArray>
      </Cells>
      <PointData>
        <DataArray type="Float64" Name="rho">
          9.70061090e-01 9.71683910e-01 9.72920161e-01 9.75500222e-01 
        </DataArray>
        <DataArray type="Float64" Name="rhou">
          -6.08691350e-03 2.23584868e-03 -2.50730882e-03 -1.65331999e-02 
        </DataArray>
        <DataArray type="Float64" Name="rhov">
          1.06127196e-03 -1.64238088e-04 1.29870568e-03 -1.68949498e-02 
        </DataArray>
        <DataArray type="Float64" Name="E">
          2.21053870e+05 2.21437049e+05 2.21731871e+05 2.22332815e+05 
        </DataArray>
      </PointData>
    </Piece>
    <Piece NumberOfPoints="4" NumberOfCells="3">
      <Points>
        <DataArray type="Float64" NumberOfComponents="3" format="ascii">
          9.07021165e-01 -1.27432076e-02 0.00000000e+00 
9.17361677e-01 -1.13977119e-02 0.00000000e+00 
9.27700043e-01 -1.00357840e-02 0.00000000e+00 
9.38035965e-01 -8.65600072e-03 0.00000000e+00 

        </DataArray>
      </Points>
      <Cells>
        <DataArray type="Int32" Name="connectivity" format="ascii">
0 1
1 2
2 3

        </DataArray>
        <DataArray type="Int32" Name="offsets" format="ascii">
2 4 6 
        </DataArray>
        <DataArray type="UInt8" Name="types" format="ascii">
3 3 3 
        </DataArray>
      </Cells>
      <PointData>
        <DataArray type="Float64" Name="rho">
          9.65913047e-01 9.67336609e-01 9.68788762e-01 9.70105989e-01 
        </DataArray>
        <DataArray type="Float64" Name="rhou">
          9.03309270e-04 -5.22087162e-05 4.91521495e-04 8.73117853e-04 
        </DataArray>
        <DataArray type="Float64" Name="rhov">
          4.77498524e-05 7.36477130e-05 -9.07644598e-06 1.33681697e-03 
        </DataArray>
        <DataArray type="Float64" Name="E">
          2.20065785e+05 2.20404892e+05 2.20750086e+05 2.21064094e+05 
        </DataArray>
      </PointData>
    </Piece>
    <Piece NumberOfPoints="4" NumberOfCells="3">
      <Points>
        <DataArray type="Float64" NumberOfComponents="3" format="ascii">
          8.75986874e-01 -1.66798849e-02 0.00000000e+00 
8.86333704e-01 -1.53839625e-02 0.00000000e+00 
8.96678507e-01 -1.40720531e-02 0.00000000e+00 
9.07021165e-01 -1.27432076e-02 0.00000000e+00 

        </DataArray>
      </Points>
      <Cells>
        <DataArray type="Int32" Name="connectivity" format="ascii">
0 1
1 2
2 3

        </DataArray>
        <DataArray type="Int32" Name="offsets" format="ascii">
2 4 6 
        </DataArray>
        <DataArray type="UInt8" Name="types" format="ascii">
3 3 3 
        </DataArray>
      </Cells>
      <PointData>
        <DataArray type="Float64" Name="rho">
          9.61520031e-01 9.62991571e-01 9.64449013e-01 9.65908333e-01 
        </DataArray>
        <DataArray type="Float64" Name="rhou">
          1.61910116e-04 2.39008860e-04 1.93566455e-04 1.43615346e-04 
        </DataArray>
        <DataArray type="Float64" Name="rhov">
          6.46761885e-05 5.65403981e-05 7.12681597e-05 -1.86354621e-05 
        </DataArray>
        <DataArray type="Float64" Name="E">
          2.19018554e+05 2.19369569e+05 2.19717090e+05 2.20064713e+05 
        </DataArray>
      </PointData>
    </Piece>
    <Piece NumberOfPoints="4" NumberOfCells="3">
      <Points>
        <DataArray type="Float64" NumberOfComponents="3" format="ascii">
          8.44934702e-01 -2.04724707e-02 0.00000000e+00 
8.55287313e-01 -1.92240477e-02 0.00000000e+00 
8.65638077e-01 -1.79597028e-02 0.00000000e+00 
8.75986874e-01 -1.66798849e-02 0.00000000e+00 

        </DataArray>
      </Points>
      <Cells>
        <DataArray type="Int32" Name="connectivity" format="ascii">
0 1
1 2
2 3

        </DataArray>
        <DataArray type="Int32" Name="offsets" format="ascii">
2 4 6 
        </DataArray>
        <DataArray type="UInt8" Name="types" format="ascii">
3 3 3 
        </DataArray>
      </Cells>
      <PointData>
        <DataArray type="Float64" Name="rho">
          9.57058887e-01 9.58554080e-01 9.60043608e-01 9.61520436e-01 
        </DataArray>
        <DataArray type="Float64" Name="rhou">
          2.89759195e-04 2.32661304e-04 2.20970455e-04 2.58696802e-04 
        </DataArray>
        <DataArray type="Float64" Name="rhov">
          3.97531018e-05 5.98353677e-05 4.96981613e-05 6.76174637e-05 
        </DataArray>
        <DataArray type="Float64" Name="E">
          2.17953551e+05 2.18310606e+05 2.18666180e+05 2.19018646e+05 
        </DataArray>
      </PointData>
    </Piece>
    <Piece NumberOfPoints="4" NumberOfCells="3">
      <Points>
        <DataArray type="Float64" NumberOfComponents="3" format="ascii">
          8.13865662e-01 -2.41250079e-02 0.00000000e+00 
8.24223816e-01 -2.29226518e-02 0.00000000e+00 
8.34580123e-01 -2.17050612e-02 0.00000000e+00 
8.44934702e-01 -2.04724707e-02 0.00000000e+00 

        </DataArray>
      </Points>
      <Cells>
        <DataArray type="Int32" Name="connectivity" format="ascii">
0 1
1 2
2 3

        </DataArray>
        <DataArray type="Int32" Name="offsets" format="ascii">
2 4 6 
        </DataArray>
        <DataArray type="UInt8" Name="types" format="ascii">
3 3 3 
        </DataArray>
      </Cells>
      <PointData>
        <DataArray type="Float64" Name="rho">
          9.52507049e-01 9.54032704e-01 9.55550145e-01 9.57058664e-01 
        </DataArray>
        <DataArray type="Float64" Name="rhou">
          2.65241725e-04 2.50630938e-04 2.36099950e-04 2.41863504e-04 
        </DataArray>
        <DataArray type="Float64" Name="rhov">
          5.06543989e-05 5.14013862e-05 4.41213050e-05 3.25112355e-05 
        </DataArray>
        <DataArray type="Float64" Name="E">
          2.16866339e+05 2.17230796e+05 2.17593242e+05 2.17953500e+05 
        </DataArray>
      </PointData>
    </Piece>
    <Piece NumberOfPoints="4" NumberOfCells="3">
      <Points>
        <DataArray type="Float64" NumberOfComponents="3" format="ascii">
          7.82780826e-01 -2.76402626e-02 0.00000000e+00 
7.93144107e-01 -2.64833923e-02 0.00000000e+00 
8.03505778e-01 -2.53117718e-02 0.00000000e+00 
8.13865662e-01 -2.41250079e-02 0.00000000e+00 

        </DataArray>
      </Points>
      <Cells>
        <DataArray type="Int32" Name="connectivity" format="ascii">
0 1
1 2
2 3

        </DataArray>
        <DataArray type="Int32" Name="offsets" format="ascii">
2 4 6 
        </DataArray>
        <DataArray type="UInt8" Name="types" format="ascii">
3 3 3 
        </DataArray>
      </Cells>
      <PointData>
        <DataArray type="Float64" Name="rho">
          9.47875922e-01 9.49428579e-01 9.50973174e-01 9.52506943e-01 
        </DataArray>
        <DataArray type="Float64" Name="rhou">
          2.84692992e-04 2.64505254e-04 2.64485141e-04 2.74163392e-04 
        </DataArray>
        <DataArray type="Float64" Name="rhov">
          4.74338556e-05 3.91929952e-05 3.48565323e-05 4.90018181e-05 
        </DataArray>
        <DataArray type="Float64" Name="E">
          2.15759896e+05 2.16130862e+05 2.16499881e+05 2.16866314e+05 
        </DataArray>
      </PointData>
    </Piece>
    <Piece NumberOfPoints="4" NumberOfCells="3">
      <Points>
        <DataArray type="Float64" NumberOfComponents="3" format="ascii">
          7.51680970e-01 -3.10197193e-02 0.00000000e+00 
7.62049198e-01 -2.99084149e-02 0.00000000e+00 
7.72415876e-01 -2.87819952e-02 0.00000000e+00 
7.82780826e-01 -2.76402626e-02 0.00000000e+00 

        </DataArray>
      </Points>
      <Cells>
        <DataArray type="Int32" Name="connectivity" format="ascii">
0 1
1 2
2 3

        </DataArray>
        <DataArray type="Int32" Name="offsets" format="ascii">
2 4 6 
        </DataArray>
        <DataArray type="UInt8" Name="types" format="ascii">
3 3 3 
        </DataArray>
      </Cells>
      <PointData>
        <DataArray type="Float64" Name="rho">
          9.43172810e-01 9.44748589e-01 9.46316196e-01 9.47875886e-01 
        </DataArray>
        <DataArray type="Float64" Name="rhou">
          2.96680183e-04 2.92981344e-04 2.87956589e-04 2.74465601e-04 
        </DataArray>
        <DataArray type="Float64" Name="rhov">
          4.03531561e-05 3.38725124e-05 3.77261160e-05 4.53376173e-05 
        </DataArray>
        <DataArray type="Float64" Name="E">
          2.14636132e+05 2.15012648e+05 2.15387217e+05 2.15759888e+05 
        </DataArray>
      </PointData>
    </Piece>
    <Piece NumberOfPoints="4" NumberOfCells="3">
      <Points>
        <DataArray type="Float64" NumberOfComponents="3" format="ascii">
          7.20566452e-01 -3.42622213e-02 0.00000000e+00 
7.30939507e-01 -3.31965312e-02 0.00000000e+00 
7.41311073e-01 -3.21157984e-02 0.00000000e+00 
7.51680970e-01 -3.10197193e-02 0.00000000e+00 

        </DataArray>
      </Points>
      <Cells>
        <DataArray type="Int32" Name="connectivity" format="ascii">
0 1
1 2
2 3

        </DataArray>
        <DataArray type="Int32" Name="offsets" format="ascii">
2 4 6 
        </DataArray>
        <DataArray type="UInt8" Name="types" format="ascii">
3 3 3 
        </DataArray>
      </Cells>
      <PointData>
        <DataArray type="Float64" Name="rho">
          9.38408534e-01 9.40003472e-01 9.41591760e-01 9.43172801e-01 
        </DataArray>
        <DataArray type="Float64" Name="rhou">
          3.21057452e-04 3.14702762e-04 3.12284554e-04 2.99856069e-04 
        </DataArray>
        <DataArray type="Float64" Name="rhov">
          3.68981865e-05 2.62053766e-05 2.89646550e-05 4.08448460e-05 
        </DataArray>
        <DataArray type="Float64" Name="E">
          2.13497721e+05 2.13878818e+05 2.14258335e+05 2.14636130e+05 
        </DataArray>
      </PointData>
    </Piece>
    <Piece NumberOfPoints="4" NumberOfCells="3">
      <Points>
        <DataArray type="Float64" NumberOfComponents="3" format="ascii">
          6.89437866e-01 -3.73662710e-02 0.00000000e+00 
6.99815631e-01 -3.63472365e-02 0.00000000e+00 
7.10191846e-01 -3.53125818e-02 0.00000000e+00 
7.20566452e-01 -3.42622213e-02 0.00000000e+00 

        </DataArray>
      </Points>
      <Cells>
        <DataArray type="Int32" Name="connectivity" format="ascii">
0 1
1 2
2 3

        </DataArray>
        <DataArray type="Int32" Name="offsets" format="ascii">
2 4 6 
        </DataArray>
        <DataArray type="UInt8" Name="types" format="ascii">
3 3 3 
        </DataArray>
      </Cells>
      <PointData>
        <DataArray type="Float64" Name="rho">
          9.33601692e-01 9.35208277e-01 9.36810681e-01 9.38408545e-01 
        </DataArray>
        <DataArray type="Float64" Name="rhou">
          3.52521363e-04 3.45747988e-04 3.39240443e-04 3.22067831e-04 
        </DataArray>
        <DataArray type="Float64" Name="rhov">
          2.89931426e-05 2.18761110e-05 2.65399296e-05 3.71787885e-05 
        </DataArray>
        <DataArray type="Float64" Name="E">
          2.12349113e+05 2.12733003e+05 2.13115903e+05 2.13497724e+05 
        </DataArray>
      </PointData>
    </Piece>
    <Piece NumberOfPoints="4" NumberOfCells="3">
      <Points>
        <DataArray type="Float64" NumberOfComponents="3" format="ascii">
          6.58295333e-01 -4.03269380e-02 0.00000000e+00 
6.68677747e-01 -3.93563360e-02 0.00000000e+00 
6.79058611e-01 -3.83694395e-02 0.00000000e+00 
6.89437866e-01 -3.73662710e-02 0.00000000e+00 

        </DataArray>
      </Points>
      <Cells>
        <DataArray type="Int32" Name="connectivity" format="ascii">
0 1
1 2
2 3

        </DataArray>
        <DataArray type="Int32" Name="offsets" format="ascii">
2 4 6 
        </DataArray>
        <DataArray type="UInt8" Name="types" format="ascii">
3 3 3 
        </DataArray>
      </Cells>
      <PointData>
        <DataArray type="Float64" Name="rho">
          9.28776437e-01 9.30385989e-01 9.31994419e-01 9.33601745e-01 
        </DataArray>
        <DataArray type="Float64" Name="rhou">
          3.87852141e-04 3.82705432e-04 3.70560169e-04 3.50670933e-04 
        </DataArray>
        <DataArray type="Float64" Name="rhov">
          1.79846245e-05 1.50299868e-05 2.16861671e-05 2.97819882e-05 
        </DataArray>
        <DataArray type="Float64" Name="E">
          2.11196075e+05 2.11580686e+05 2.11965039e+05 2.12349125e+05 
        </DataArray>
      </PointData>
    </Piece>
    <Piece NumberOfPoints="4" NumberOfCells="3">
      <Points>
        <DataArray type="Float64" NumberOfComponents="3" format="ascii">
          6.27138972e-01 -4.31386717e-02 0.00000000e+00 
6.37525976e-01 -4.22184542e-02 0.00000000e+00 
6.47911429e-01 -4.12811004e-02 0.00000000e+00 
6.58295333e-01 -4.03269380e-02 0.00000000e+00 

        </DataArray>
      </Points>
      <Cells>
        <DataArray type="Int32" Name="connectivity" format="ascii">
0 1
1 2
2 3

        </DataArray>
        <DataArray type="Int32" Name="offsets" format="ascii">
2 4 6 
        </DataArray>
        <DataArray type="UInt8" Name="types" format="ascii">
3 3 3 
        </DataArray>
      </Cells>
      <PointData>
        <DataArray type="Float64" Name="rho">
          9.23964789e-01 9.25564631e-01 9.27169128e-01 9.28776469e-01 
        </DataArray>
        <DataArray type="Float64" Name="rhou">
          4.37446340e-04 4.19346234e-04 4.02734730e-04 3.88796563e-04 
        </DataArray>
        <DataArray type="Float64" Name="rhov">
          1.44470990e-05 1.34390252e-05 1.48759754e-05 1.88893841e-05 
        </DataArray>
        <DataArray type="Float64" Name="E">
          2.10046220e+05 2.10428552e+05 2.10811982e+05 2.11196082e+05 
        </DataArray>
      </PointData>
    </Piece>
    <Piece NumberOfPoints="4" NumberOfCells="3">
      <Points>
        <DataArray type="Float64" NumberOfComponents="3" format="ascii">
          5.95968783e-01 -4.57924642e-02 0.00000000e+00 
6.06360376e-01 -4.49259281e-02 0.00000000e+00 
6.16750479e-01 -4.40412909e-02 0.00000000e+00 
6.27138972e-01 -4.31386717e-02 0.00000000e+00 

        </DataArray>
      </Points>
      <Cells>
        <DataArray type="Int32" Name="connectivity" format="ascii">
0 1
1 2
2 3

        </DataArray>
        <DataArray type="Int32" Name="offsets" format="ascii">
2 4 6 
        </DataArray>
        <DataArray type="UInt8" Name="types" format="ascii">
3 3 3 
        </DataArray>
      </Cells>
      <PointData>
        <DataArray type="Float64" Name="rho">
          9.19212186e-01 9.20787597e-01 9.22372221e-01 9.23964782e-01 
        </DataArray>
        <DataArray type="Float64" Name="rhou">
          4.80649744e-04 4.69106148e-04 4.52470280e-04 4.31101462e-04 
        </DataArray>
        <DataArray type="Float64" Name="rhov">
          2.53510150e-06 -5.23097276e-07 5.90172969e-06 1.52763433e-05 
        </DataArray>
        <DataArray type="Float64" Name="E">
          2.08910315e+05 2.09286862e+05 2.09665599e+05 2.10046218e+05 
        </DataArray>
      </PointData>
    </Piece>
    <Piece NumberOfPoints="4" NumberOfCells="3">
      <Points>
        <DataArray type="Float64" NumberOfComponents="3" format="ascii">
          5.64784765e-01 -4.82786149e-02 0.00000000e+00 
5.75181007e-01 -4.74695377e-02 0.00000000e+00 
5.85575700e-01 -4.66405638e-02 0.00000000e+00 
5.95968783e-01 -4.57924642e-02 0.00000000e+00 

        </DataArray>
      </Points>
      <Cells>
        <DataArray type="Int32" Name="connectivity" format="ascii">
0 1
1 2
2 3

        </DataArray>
        <DataArray type="Int32" Name="offsets" format="ascii">
2 4 6 
        </DataArray>
        <DataArray type="UInt8" Name="types" format="ascii">
3 3 3 
        </DataArray>
      </Cells>
      <PointData>
        <DataArray type="Float64" Name="rho">
          9.14579269e-01 9.16105195e-01 9.17650173e-01 9.19212297e-01 
        </DataArray>
        <DataArray type="Float64" Name="rhou">
          5.55195079e-04 5.29581607e-04 4.97454033e-04 4.74596005e-04 
        </DataArray>
        <DataArray type="Float64" Name="rhov">
          -8.85872261e-06 2.33902758e-06 7.01026635e-06 3.47092942e-06 
        </DataArray>
        <DataArray type="Float64" Name="E">
          2.07802692e+05 2.08167558e+05 2.08536929e+05 2.08910340e+05 
        </DataArray>
      </PointData>
    </Piece>
    <Piece NumberOfPoints="4" NumberOfCells="3">
      <Points>
        <DataArray type="Float64" NumberOfComponents="3" format="ascii">
          5.33586800e-01 -5.05827516e-02 0.00000000e+00 
5.43987691e-01 -4.98356484e-02 0.00000000e+00 
5.54387033e-01 -4.90674041e-02 0.00000000e+00 
5.64784765e-01 -4.82786149e-02 0.00000000e+00 

        </DataArray>
      </Points>
      <Cells>
        <DataArray type="Int32" Name="connectivity" format="ascii">
0 1
1 2
2 3

        </DataArray>
        <DataArray type="Int32" Name="offsets" format="ascii">
2 4 6 
        </DataArray>
        <DataArray type="UInt8" Name="types" format="ascii">
3 3 3 
        </DataArray>
      </Cells>
      <PointData>
        <DataArray type="Float64" Name="rho">
          9.10140631e-01 9.11592474e-01 9.13073841e-01 9.14579229e-01 
        </DataArray>
        <DataArray type="Float64" Name="rhou">
          6.28026027e-04 5.89040531e-04 5.60921081e-04 5.49705164e-04 
        </DataArray>
        <DataArray type="Float64" Name="rhov">
          -7.63424292e-06 -7.70838175e-06 -1.08353715e-05 -8.49070082e-06 
        </DataArray>
        <DataArray type="Float64" Name="E">
          2.06741034e+05 2.07088373e+05 2.07442684e+05 2.07802683e+05 
        </DataArray>
      </PointData>
    </Piece>
    <Piece NumberOfPoints="4" NumberOfCells="3">
      <Points>
        <DataArray type="Float64" NumberOfComponents="3" format="ascii">
          5.02374947e-01 -5.26902266e-02 0.00000000e+00 
5.12780428e-01 -5.20105064e-02 0.00000000e+00 
5.23184419e-01 -5.13078682e-02 0.00000000e+00 
5.33586800e-01 -5.05827516e-02 0.00000000e+00 

        </DataArray>
      </Points>
      <Cells>
        <DataArray type="Int32" Name="connectivity" format="ascii">
0 1
1 2
2 3

        </DataArray>
        <DataArray type="Int32" Name="offsets" format="ascii">
2 4 6 
        </DataArray>
        <DataArray type="UInt8" Name="types" format="ascii">
3 3 3 
        </DataArray>
      </Cells>
      <PointData>
        <DataArray type="Float64" Name="rho">
          9.05997697e-01 9.07339390e-01 9.08722391e-01 9.10140537e-01 
        </DataArray>
        <DataArray type="Float64" Name="rhou">
          7.08242692e-04 6.72530112e-04 6.45467939e-04 6.25402702e-04 
        </DataArray>
        <DataArray type="Float64" Name="rhov">
          -1.66503427e-05 -2.30919176e-05 -2.17478863e-05 -8.08405672e-06 
        </DataArray>
        <DataArray type="Float64" Name="E">
          2.05749290e+05 2.06070577e+05 2.06401631e+05 2.06741013e+05 
        </DataArray>
      </PointData>
    </Piece>
    <Piece NumberOfPoints="4" NumberOfCells="3">
      <Points>
        <DataArray type="Float64" NumberOfComponents="3" format="ascii">
          4.71149325e-01 -5.45825884e-02 0.00000000e+00 
4.81559396e-01 -5.39771840e-02 0.00000000e+00 
4.91967946e-01 -5.33461571e-02 0.00000000e+00 
5.02374947e-01 -5.26902266e-02 0.00000000e+00 

        </DataArray>
      </Points>
      <Cells>
        <DataArray type="Int32" Name="connectivity" format="ascii">
0 1
1 2
2 3

        </DataArray>
        <DataArray type="Int32" Name="offsets" format="ascii">
2 4 6 
        </DataArray>
        <DataArray type="UInt8" Name="types" format="ascii">
3 3 3 
        </DataArray>
      </Cells>
      <PointData>
        <DataArray type="Float64" Name="rho">
          9.02283293e-01 9.03465794e-01 9.04704364e-01 9.05997785e-01 
        </DataArray>
        <DataArray type="Float64" Name="rhou">
          8.13852661e-04 7.91400454e-04 7.45121675e-04 6.88726773e-04 
        </DataArray>
        <DataArray type="Float64" Name="rhov">
          -4.05634622e-05 -3.44673417e-05 -1.74624615e-05 -1.38622662e-05 
        </DataArray>
        <DataArray type="Float64" Name="E">
          2.04858825e+05 2.05142481e+05 2.05439420e+05 2.05749310e+05 
        </DataArray>
      </PointData>
    </Piece>
    <Piece NumberOfPoints="4" NumberOfCells="3">
      <Points>
        <DataArray type="Float64" NumberOfComponents="3" format="ascii">
          4.39910263e-01 -5.62384278e-02 0.00000000e+00 
4.50324744e-01 -5.57143167e-02 0.00000000e+00 
4.60737765e-01 -5.51619194e-02 0.00000000e+00 
4.71149325e-01 -5.45825884e-02 0.00000000e+00 

        </DataArray>
      </Points>
      <Cells>
        <DataArray type="Int32" Name="connectivity" format="ascii">
0 1
1 2
2 3

        </DataArray>
        <DataArray type="Int32" Name="offsets" format="ascii">
2 4 6 
        </DataArray>
        <DataArray type="UInt8" Name="types" format="ascii">
3 3 3 
        </DataArray>
      </Cells>
      <PointData>
        <DataArray type="Float64" Name="rho">
          8.99158122e-01 9.00119822e-01 9.01165111e-01 9.02283368e-01 
        </DataArray>
        <DataArray type="Float64" Name="rhou">
          9.81098479e-04 9.04379390e-04 8.46416963e-04 8.19270167e-04 
        </DataArray>
        <DataArray type="Float64" Name="rhov">
          -3.27579622e-05 -2.39095459e-05 -3.05963447e-05 -3.80514588e-05 
        </DataArray>
        <DataArray type="Float64" Name="E">
          2.04107655e+05 2.04339148e+05 2.04590374e+05 2.04858841e+05 
        </DataArray>
      </PointData>
    </Piece>
    <Piece NumberOfPoints="4" NumberOfCells="3">
      <Points>
        <DataArray type="Float64" NumberOfComponents="3" format="ascii">
          4.08658355e-01 -5.76302819e-02 0.00000000e+00 
4.19077009e-01 -5.71971126e-02 0.00000000e+00 
4.29494321e-01 -5.67329265e-02 0.00000000e+00 
4.39910263e-01 -5.62384278e-02 0.00000000e+00 

        </DataArray>
      </Points>
      <Cells>
        <DataArray type="Int32" Name="connectivity" format="ascii">
0 1
1 2
2 3

        </DataArray>
        <DataArray type="Int32" Name="offsets" format="ascii">
2 4 6 
        </DataArray>
        <DataArray type="UInt8" Name="types" format="ascii">
3 3 3 
        </DataArray>
      </Cells>
      <PointData>
        <DataArray type="Float64" Name="rho">
          8.96834064e-01 8.97506974e-01 8.98285514e-01 8.99157891e-01 
        </DataArray>
        <DataArray type="Float64" Name="rhou">
          1.13597125e-03 1.06658207e-03 1.01522562e-03 9.75798735e-04 
        </DataArray>
        <DataArray type="Float64" Name="rhov">
          -4.03906047e-05 -5.29852726e-05 -5.24176834e-05 -3.26093653e-05 
        </DataArray>
        <DataArray type="Float64" Name="E">
          2.03545895e+05 2.03709071e+05 2.03897227e+05 2.04107603e+05 
        </DataArray>
      </PointData>
    </Piece>
    <Piece NumberOfPoints="4" NumberOfCells="3">
      <Points>
        <DataArray type="Float64" NumberOfComponents="3" format="ascii">
          3.77394795e-01 -5.87291755e-02 0.00000000e+00 
3.87817174e-01 -5.83979115e-02 0.00000000e+00 
3.98238391e-01 -5.80311492e-02 0.00000000e+00 
4.08658355e-01 -5.76302819e-02 0.00000000e+00 

        </DataArray>
      </Points>
      <Cells>
        <DataArray type="Int32" Name="connectivity" format="ascii">
0 1
1 2
2 3

        </DataArray>
        <DataArray type="Int32" Name="offsets" format="ascii">
2 4 6 
        </DataArray>
        <DataArray type="UInt8" Name="types" format="ascii">
3 3 3 
        </DataArray>
      </Cells>
      <PointData>
        <DataArray type="Float64" Name="rho">
          8.95577068e-01 8.95859957e-01 8.96280070e-01 8.96834275e-01 
        </DataArray>
        <DataArray type="Float64" Name="rhou">
          1.38459511e-03 1.31103883e-03 1.20973470e-03 1.10493120e-03 
        </DataArray>
        <DataArray type="Float64" Name="rhov">
          -8.27909256e-05 -5.53430953e-05 -2.79727530e-05 -3.55273859e-05 
        </DataArray>
        <DataArray type="Float64" Name="E">
          2.03236377e+05 2.03307349e+05 2.03410813e+05 2.03545944e+05 
        </DataArray>
      </PointData>
    </Piece>
    <Piece NumberOfPoints="4" NumberOfCells="3">
      <Points>
        <DataArray type="Float64" NumberOfComponents="3" format="ascii">
          3.46121490e-01 -5.95011823e-02 0.00000000e+00 
3.56546819e-01 -5.92821389e-02 0.00000000e+00 
3.66971314e-01 -5.90242445e-02 0.00000000e+00 
3.77394795e-01 -5.87291755e-02 0.00000000e+00 

        </DataArray>
      </Points>
      <Cells>
        <DataArray type="Int32" Name="connectivity" format="ascii">
0 1
1 2
2 3

        </DataArray>
        <DataArray type="Int32" Name="offsets" format="ascii">
2 4 6 
        </DataArray>
        <DataArray type="UInt8" Name="types" format="ascii">
3 3 3 
        </DataArray>
      </Cells>
      <PointData>
        <DataArray type="Float64" Name="rho">
          8.95680561e-01 8.95469874e-01 8.95441171e-01 8.95577160e-01 
        </DataArray>
        <DataArray type="Float64" Name="rhou">
          1.72708629e-03 1.58287246e-03 1.45418857e-03 1.38801498e-03 
        </DataArray>
        <DataArray type="Float64" Name="rhov">
          -1.16627505e-04 -7.51052100e-05 -6.80855745e-05 -7.81924972e-05 
        </DataArray>
        <DataArray type="Float64" Name="E">
          2.03248745e+05 2.03202964e+05 2.03200207e+05 2.03236397e+05 
        </DataArray>
      </PointData>
    </Piece>
    <Piece NumberOfPoints="4" NumberOfCells="3">
      <Points>
        <DataArray type="Float64" NumberOfComponents="3" format="ascii">
          3.14841360e-01 -5.99102043e-02 0.00000000e+00 
3.25268596e-01 -5.98174632e-02 0.00000000e+00 
3.35695356e-01 -5.96801341e-02 0.00000000e+00 
3.46121490e-01 -5.95011823e-02 0.00000000e+00 

        </DataArray>
      </Points>
      <Cells>
        <DataArray type="Int32" Name="connectivity" format="ascii">
0 1
1 2
2 3

        </DataArray>
        <DataArray type="Int32" Name="offsets" format="ascii">
2 4 6 
        </DataArray>
        <DataArray type="UInt8" Name="types" format="ascii">
3 3 3 
        </DataArray>
      </Cells>
      <PointData>
        <DataArray type="Float64" Name="rho">
          8.97550708e-01 8.96691248e-01 8.96077118e-01 8.95680272e-01 
        </DataArray>
        <DataArray type="Float64" Name="rhou">
          2.17706204e-03 1.93292373e-03 1.76812139e-03 1.69159584e-03 
        </DataArray>
        <DataArray type="Float64" Name="rhov">
          -5.30010370e-05 -2.99951182e-05 -6.24472440e-05 -1.15871166e-04 
        </DataArray>
        <DataArray type="Float64" Name="E">
          2.03679147e+05 2.03479868e+05 2.03338582e+05 2.03248679e+05 
        </DataArray>
      </PointData>
    </Piece>
    <Piece NumberOfPoints="4" NumberOfCells="3">
      <Points>
        <DataArray type="Float64" NumberOfComponents="3" format="ascii">
          2.83558637e-01 -5.98983802e-02 0.00000000e+00 
2.93986142e-01 -5.99516556e-02 0.00000000e+00 
3.04413795e-01 -5.99554181e-02 0.00000000e+00 
3.14841360e-01 -5.99102043e-02 0.00000000e+00 

        </DataArray>
      </Points>
      <Cells>
        <DataArray type="Int32" Name="connectivity" format="ascii">
0 1
1 2
2 3

        </DataArray>
        <DataArray type="Int32" Name="offsets" format="ascii">
2 4 6 
        </DataArray>
        <DataArray type="UInt8" Name="types" format="ascii">
3 3 3 
        </DataArray>
      </Cells>
      <PointData>
        <DataArray type="Float64" Name="rho">
          9.01702614e-01 9.00046534e-01 8.98668125e-01 8.97549998e-01 
        </DataArray>
        <DataArray type="Float64" Name="rhou">
          2.65479539e-03 2.48982115e-03 2.35211426e-03 2.16806582e-03 
        </DataArray>
        <DataArray type="Float64" Name="rhov">
          -1.09100546e-04 -1.76231455e-04 -1.40871087e-04 -4.64112301e-05 
        </DataArray>
        <DataArray type="Float64" Name="E">
          2.04650174e+05 2.04261878e+05 2.03939525e+05 2.03678985e+05 
        </DataArray>
      </PointData>
    </Piece>
    <Piece NumberOfPoints="4" NumberOfCells="3">
      <Points>
        <DataArray type="Float64" NumberOfComponents="3" format="ascii">
          2.52279758e-01 -5.94130717e-02 0.00000000e+00 
2.62705088e-01 -5.96327744e-02 0.00000000e+00 
2.73131490e-01 -5.97934239e-02 0.00000000e+00 
2.83558637e-01 -5.98983802e-02 0.00000000e+00 

        </DataArray>
      </Points>
      <Cells>
        <DataArray type="Int32" Name="connectivity" format="ascii">
0 1
1 2
2 3

        </DataArray>
        <DataArray type="Int32" Name="offsets" format="ascii">
2 4 6 
        </DataArray>
        <DataArray type="UInt8" Name="types" format="ascii">
3 3 3 
        </DataArray>
      </Cells>
      <PointData>
        <DataArray type="Float64" Name="rho">
          9.08755583e-01 9.06034175e-01 9.03686208e-01 9.01703534e-01 
        </DataArray>
        <DataArray type="Float64" Name="rhou">
          3.62739282e-03 3.32207491e-03 2.98655476e-03 2.64104740e-03 
        </DataArray>
        <DataArray type="Float64" Name="rhov">
          -2.56411269e-04 -1.64706179e-04 -7.79532769e-05 -8.99524568e-05 
        </DataArray>
        <DataArray type="Float64" Name="E">
          2.06308987e+05 2.05668109e+05 2.05115984e+05 2.04650386e+05 
        </DataArray>
      </PointData>
    </Piece>
    <Piece NumberOfPoints="4" NumberOfCells="3">
      <Points>
        <DataArray type="Float64" NumberOfComponents="3" format="ascii">
          2.21014455e-01 -5.83752058e-02 0.00000000e+00 
2.31433928e-01 -5.87876961e-02 0.00000000e+00 
2.41855890e-01 -5.91322705e-02 0.00000000e+00 
2.52279758e-01 -5.94130717e-02 0.00000000e+00 

        </DataArray>
      </Points>
      <Cells>
        <DataArray type="Int32" Name="connectivity" format="ascii">
0 1
1 2
2 3

        </DataArray>
        <DataArray type="Int32" Name="offsets" format="ascii">
2 4 6 
        </DataArray>
        <DataArray type="UInt8" Name="types" format="ascii">
3 3 3 
        </DataArray>
      </Cells>
      <PointData>
        <DataArray type="Float64" Name="rho">
          9.19490619e-01 9.15435834e-01 9.11873215e-01 9.08755764e-01 
        </DataArray>
        <DataArray type="Float64" Name="rhou">
          4.98040983e-03 4.39523709e-03 3.94897647e-03 3.66147264e-03 
        </DataArray>
        <DataArray type="Float64" Name="rhov">
          -3.61196398e-04 -2.57565244e-04 -2.25728196e-04 -2.40044857e-04 
        </DataArray>
        <DataArray type="Float64" Name="E">
          2.08842700e+05 2.07884900e+05 2.07044078e+05 2.06309024e+05 
        </DataArray>
      </PointData>
    </Piece>
    <Piece NumberOfPoints="4" NumberOfCells="3">
      <Points>
        <DataArray type="Float64" NumberOfComponents="3" format="ascii">
          1.89777538e-01 -5.66898957e-02 0.00000000e+00 
2.00185493e-01 -5.73302582e-02 0.00000000e+00 
2.10598081e-01 -5.78906052e-02 0.00000000e+00 
2.21014455e-01 -5.83752058e-02 0.00000000e+00 

        </DataArray>
      </Points>
      <Cells>
        <DataArray type="Int32" Name="connectivity" format="ascii">
0 1
1 2
2 3

        </DataArray>
        <DataArray type="Int32" Name="offsets" format="ascii">
2 4 6 
        </DataArray>
        <DataArray type="UInt8" Name="types" format="ascii">
3 3 3 
        </DataArray>
      </Cells>
      <PointData>
        <DataArray type="Float64" Name="rho">
          9.34992729e-01 9.29218497e-01 9.24070985e-01 9.19489860e-01 
        </DataArray>
        <DataArray type="Float64" Name="rhou">
          6.90269026e-03 6.10201893e-03 5.51635283e-03 5.04278314e-03 
        </DataArray>
        <DataArray type="Float64" Name="rhov">
          -6.40883578e-04 -5.70735660e-04 -4.71673347e-04 -3.48447512e-04 
        </DataArray>
        <DataArray type="Float64" Name="E">
          2.12511242e+05 2.11143719e+05 2.09925620e+05 2.08842525e+05 
        </DataArray>
      </PointData>
    </Piece>
    <Piece NumberOfPoints="4" NumberOfCells="3">
      <Points>
        <DataArray type="Float64" NumberOfComponents="3" format="ascii">
          1.58592433e-01 -5.42296544e-02 0.00000000e+00 
1.68979734e-01 -5.51457107e-02 0.00000000e+00 
1.79375216e-01 -5.59638515e-02 0.00000000e+00 
1.89777538e-01 -5.66898957e-02 0.00000000e+00 

        </DataArray>
      </Points>
      <Cells>
        <DataArray type="Int32" Name="connectivity" format="ascii">
0 1
1 2
2 3

        </DataArray>
        <DataArray type="Int32" Name="offsets" format="ascii">
2 4 6 
        </DataArray>
        <DataArray type="UInt8" Name="types" format="ascii">
3 3 3 
        </DataArray>
      </Cells>
      <PointData>
        <DataArray type="Float64" Name="rho">
          9.56825518e-01 9.48736700e-01 9.41476010e-01 9.34993147e-01 
        </DataArray>
        <DataArray type="Float64" Name="rhou">
          9.96163342e-03 8.88693094e-03 7.93687079e-03 6.97392200e-03 
        </DataArray>
        <DataArray type="Float64" Name="rhov">
          -1.39097229e-03 -1.19998349e-03 -8.69652872e-04 -6.00351357e-04 
        </DataArray>
        <DataArray type="Float64" Name="E">
          2.17690216e+05 2.15769875e+05 2.14047755e+05 2.12511342e+05 
        </DataArray>
      </PointData>
    </Piece>
    <Piece NumberOfPoints="4" NumberOfCells="3">
      <Points>
        <DataArray type="Float64" NumberOfComponents="3" format="ascii">
          1.27497971e-01 -5.08146733e-02 0.00000000e+00 
1.37849152e-01 -5.20747155e-02 0.00000000e+00 
1.48214847e-01 -5.32093942e-02 0.00000000e+00 
1.58592433e-01 -5.42296544e-02 0.00000000e+00 

        </DataArray>
      </Points>
      <Cells>
        <DataArray type="Int32" Name="connectivity" format="ascii">
0 1
1 2
2 3

        </DataArray>
        <DataArray type="Int32" Name="offsets" format="ascii">
2 4 6 
        </DataArray>
        <DataArray type="UInt8" Name="types" format="ascii">
3 3 3 
        </DataArray>
      </Cells>
      <PointData>
        <DataArray type="Float64" Name="rho">
          9.87413476e-01 9.76033056e-01 9.65857846e-01 9.56829564e-01 
        </DataArray>
        <DataArray type="Float64" Name="rhou">
          1.44937296e-02 1.33148254e-02 1.15095797e-02 9.99011668e-03 
        </DataArray>
        <DataArray type="Float64" Name="rhov">
          -2.26544967e-03 -2.01847922e-03 -1.40382989e-03 -1.31892460e-03 
        </DataArray>
        <DataArray type="Float64" Name="E">
          2.24964075e+05 2.22255389e+05 2.19836245e+05 2.17691144e+05 
        </DataArray>
      </PointData>
    </Piece>
    <Piece NumberOfPoints="4" NumberOfCells="3">
      <Points>
        <DataArray type="Float64" NumberOfComponents="3" format="ascii">
          9.65642184e-02 -4.61716652e-02 0.00000000e+00 
1.06852271e-01 -4.78802323e-02 0.00000000e+00 
1.17164567e-01 -4.94215861e-02 0.00000000e+00 
1.27497971e-01 -5.08146733e-02 0.00000000e+00 

        </DataArray>
      </Points>
      <Cells>
        <DataArray type="Int32" Name="connectivity" format="ascii">
0 1
1 2
2 3

        </DataArray>
        <DataArray type="Int32" Name="offsets" format="ascii">
2 4 6 
        </DataArray>
        <DataArray type="UInt8" Name="types" format="ascii">
3 3 3 
        </DataArray>
      </Cells>
      <PointData>
        <DataArray type="Float64" Name="rho">
          1.03086949e+00 1.01454308e+00 1.00008683e+00 9.87421815e-01 
        </DataArray>
        <DataArray type="Float64" Name="rhou">
          2.46701919e-02 1.80844351e-02 1.71685521e-02 1.28515108e-02 
        </DataArray>
        <DataArray type="Float64" Name="rhov">
          -9.20042621e-04 -7.23164132e-04 -1.54383357e-03 -1.58644216e-03 
        </DataArray>
        <DataArray type="Float64" Name="E">
          2.35332493e+05 2.31432464e+05 2.27984293e+05 2.24966085e+05 
        </DataArray>
      </PointData>
    </Piece>
  </UnstructuredGrid>
</VTKFile>
