<?xml version="1.0"?>
<VTKFile type="UnstructuredGrid" version="0.1" byte_order="LittleEndian">
  <UnstructuredGrid>
    <Piece NumberOfPoints="4" NumberOfCells="3">
      <Points>
        <DataArray type="Float64" NumberOfComponents="3" format="ascii">
          9.65642184e-02 -4.61716652e-02 0.00000000e+00 
9.26280916e-02 -4.54656407e-02 0.00000000e+00 
8.86965096e-02 -4.47326750e-02 0.00000000e+00 
8.47706869e-02 -4.39694971e-02 0.00000000e+00 

        </DataArray>
      </Points>
      <Cells>
        <DataArray type="Int32" Name="connectivity" format="ascii">
0 1
1 2
2 3

        </DataArray>
        <DataArray type="Int32" Name="offsets" format="ascii">
2 4 6 
        </DataArray>
        <DataArray type="UInt8" Name="types" format="ascii">
3 3 3 
        </DataArray>
      </Cells>
      <PointData>
        <DataArray type="Float64" Name="rho">
          1.04347816e+00 1.05035080e+00 1.05753370e+00 1.06515730e+00 
        </DataArray>
        <DataArray type="Float64" Name="rhou">
          2.83817500e-02 2.18097132e-02 2.44666311e-02 2.46013926e-02 
        </DataArray>
        <DataArray type="Float64" Name="rhov">
          -2.28084610e-03 -1.05877404e-03 -6.45133214e-04 -9.59066379e-04 
        </DataArray>
        <DataArray type="Float64" Name="E">
          2.38834879e+05 2.40484087e+05 2.42209260e+05 2.44040471e+05 
        </DataArray>
      </PointData>
    </Piece>
    <Piece NumberOfPoints="4" NumberOfCells="3">
      <Points>
        <DataArray type="Float64" NumberOfComponents="3" format="ascii">
          8.47706869e-02 -4.39694971e-02 0.00000000e+00 
8.08513016e-02 -4.31745499e-02 0.00000000e+00 
7.69388378e-02 -4.23462167e-02 0.00000000e+00 
7.30340332e-02 -4.14824970e-02 0.00000000e+00 

        </DataArray>
      </Points>
      <Cells>
        <DataArray type="Int32" Name="connectivity" format="ascii">
0 1
1 2
2 3

        </DataArray>
        <DataArray type="Int32" Name="offsets" format="ascii">
2 4 6 
        </DataArray>
        <DataArray type="UInt8" Name="types" format="ascii">
3 3 3 
        </DataArray>
      </Cells>
      <PointData>
        <DataArray type="Float64" Name="rho">
          1.06515615e+00 1.07320251e+00 1.08170652e+00 1.09073807e+00 
        </DataArray>
        <DataArray type="Float64" Name="rhou">
          2.47026483e-02 2.38511154e-02 2.24058218e-02 2.08051483e-02 
        </DataArray>
        <DataArray type="Float64" Name="rhov">
          -7.64458096e-04 -5.49075805e-04 3.70925499e-04 1.57836192e-03 
        </DataArray>
        <DataArray type="Float64" Name="E">
          2.44040215e+05 2.45974795e+05 2.48020508e+05 2.50194167e+05 
        </DataArray>
      </PointData>
    </Piece>
    <Piece NumberOfPoints="4" NumberOfCells="3">
      <Points>
        <DataArray type="Float64" NumberOfComponents="3" format="ascii">
          7.30340332e-02 -4.14824970e-02 0.00000000e+00 
6.91377968e-02 -4.05809283e-02 0.00000000e+00 
6.52511865e-02 -3.96387354e-02 0.00000000e+00 
6.13753870e-02 -3.86530459e-02 0.00000000e+00 

        </DataArray>
      </Points>
      <Cells>
        <DataArray type="Int32" Name="connectivity" format="ascii">
0 1
1 2
2 3

        </DataArray>
        <DataArray type="Int32" Name="offsets" format="ascii">
2 4 6 
        </DataArray>
        <DataArray type="UInt8" Name="types" format="ascii">
3 3 3 
        </DataArray>
      </Cells>
      <PointData>
        <DataArray type="Float64" Name="rho">
          1.09073865e+00 1.10038060e+00 1.11066501e+00 1.12165139e+00 
        </DataArray>
        <DataArray type="Float64" Name="rhou">
          2.09196761e-02 1.85294714e-02 1.43833825e-02 8.82209597e-03 
        </DataArray>
        <DataArray type="Float64" Name="rhov">
          1.41264886e-03 2.17548319e-03 4.28185810e-03 7.50107619e-03 
        </DataArray>
        <DataArray type="Float64" Name="E">
          2.50194325e+05 2.52516932e+05 2.54995772e+05 2.57645864e+05 
        </DataArray>
      </PointData>
    </Piece>
    <Piece NumberOfPoints="4" NumberOfCells="3">
      <Points>
        <DataArray type="Float64" NumberOfComponents="3" format="ascii">
          6.13753870e-02 -3.86530459e-02 0.00000000e+00 
5.75117208e-02 -3.76208089e-02 0.00000000e+00 
5.36618084e-02 -3.65384258e-02 0.00000000e+00 
4.98276278e-02 -3.54015976e-02 0.00000000e+00 

        </DataArray>
      </Points>
      <Cells>
        <DataArray type="Int32" Name="connectivity" format="ascii">
0 1
1 2
2 3

        </DataArray>
        <DataArray type="Int32" Name="offsets" format="ascii">
2 4 6 
        </DataArray>
        <DataArray type="UInt8" Name="types" format="ascii">
3 3 3 
        </DataArray>
      </Cells>
      <PointData>
        <DataArray type="Float64" Name="rho">
          1.12165165e+00 1.13342203e+00 1.14606146e+00 1.15970119e+00 
        </DataArray>
        <DataArray type="Float64" Name="rhou">
          8.76345487e-03 1.65499493e-03 -7.61161495e-03 -1.92003631e-02 
        </DataArray>
        <DataArray type="Float64" Name="rhov">
          7.27189340e-03 1.20168711e-02 2.01510743e-02 3.16904970e-02 
        </DataArray>
        <DataArray type="Float64" Name="E">
          2.57645927e+05 2.60488899e+05 2.63544235e+05 2.66844477e+05 
        </DataArray>
      </PointData>
    </Piece>
    <Piece NumberOfPoints="4" NumberOfCells="3">
      <Points>
        <DataArray type="Float64" NumberOfComponents="3" format="ascii">
          4.98276278e-02 -3.54015976e-02 0.00000000e+00 
4.60115410e-02 -3.42054628e-02 0.00000000e+00 
4.22164090e-02 -3.29444520e-02 0.00000000e+00 
3.84457745e-02 -3.16120051e-02 0.00000000e+00 

        </DataArray>
      </Points>
      <Cells>
        <DataArray type="Int32" Name="connectivity" format="ascii">
0 1
1 2
2 3

        </DataArray>
        <DataArray type="Int32" Name="offsets" format="ascii">
2 4 6 
        </DataArray>
        <DataArray type="UInt8" Name="types" format="ascii">
3 3 3 
        </DataArray>
      </Cells>
      <PointData>
        <DataArray type="Float64" Name="rho">
          1.15970110e+00 1.17444017e+00 1.19039125e+00 1.20774538e+00 
        </DataArray>
        <DataArray type="Float64" Name="rhou">
          -1.96613425e-02 -3.38416398e-02 -5.28758181e-02 -7.56495734e-02 
        </DataArray>
        <DataArray type="Float64" Name="rhov">
          3.14757476e-02 4.82390081e-02 7.60284301e-02 1.16673470e-01 
        </DataArray>
        <DataArray type="Float64" Name="E">
          2.66844421e+05 2.70416971e+05 2.74287875e+05 2.78505377e+05 
        </DataArray>
      </PointData>
    </Piece>
    <Piece NumberOfPoints="4" NumberOfCells="3">
      <Points>
        <DataArray type="Float64" NumberOfComponents="3" format="ascii">
          3.84457745e-02 -3.16120051e-02 0.00000000e+00 
3.47041376e-02 -3.02002355e-02 0.00000000e+00 
3.09973080e-02 -2.86995135e-02 0.00000000e+00 
2.73328498e-02 -2.70981900e-02 0.00000000e+00 

        </DataArray>
      </Points>
      <Cells>
        <DataArray type="Int32" Name="connectivity" format="ascii">
0 1
1 2
2 3

        </DataArray>
        <DataArray type="Int32" Name="offsets" format="ascii">
2 4 6 
        </DataArray>
        <DataArray type="UInt8" Name="types" format="ascii">
3 3 3 
        </DataArray>
      </Cells>
      <PointData>
        <DataArray type="Float64" Name="rho">
          1.20774557e+00 1.22669142e+00 1.24742274e+00 1.27030986e+00 
        </DataArray>
        <DataArray type="Float64" Name="rhou">
          -7.66092750e-02 -1.00736547e-01 -1.29342113e-01 -1.54694111e-01 
        </DataArray>
        <DataArray type="Float64" Name="rhov">
          1.16590302e-01 1.72362129e-01 2.58640047e-01 3.79442273e-01 
        </DataArray>
        <DataArray type="Float64" Name="E">
          2.78505288e+05 2.83121177e+05 2.88180364e+05 2.93776883e+05 
        </DataArray>
      </PointData>
    </Piece>
    <Piece NumberOfPoints="4" NumberOfCells="3">
      <Points>
        <DataArray type="Float64" NumberOfComponents="3" format="ascii">
          2.73328498e-02 -2.70981900e-02 0.00000000e+00 
2.37206947e-02 -2.53822580e-02 0.00000000e+00 
2.01744195e-02 -2.35341713e-02 0.00000000e+00 
1.67132635e-02 -2.15314496e-02 0.00000000e+00 

        </DataArray>
      </Points>
      <Cells>
        <DataArray type="Int32" Name="connectivity" format="ascii">
0 1
1 2
2 3

        </DataArray>
        <DataArray type="Int32" Name="offsets" format="ascii">
2 4 6 
        </DataArray>
        <DataArray type="UInt8" Name="types" format="ascii">
3 3 3 
        </DataArray>
      </Cells>
      <PointData>
        <DataArray type="Float64" Name="rho">
          1.27031478e+00 1.29569718e+00 1.32403175e+00 1.35665506e+00 
        </DataArray>
        <DataArray type="Float64" Name="rhou">
          -1.55099149e-01 -1.68898328e-01 -1.52900634e-01 -5.63440678e-02 
        </DataArray>
        <DataArray type="Float64" Name="rhov">
          3.80131397e-01 5.32544351e-01 7.44229544e-01 9.63875844e-01 
        </DataArray>
        <DataArray type="Float64" Name="E">
          2.93777797e+05 3.00006340e+05 3.06971635e+05 3.15000879e+05 
        </DataArray>
      </PointData>
    </Piece>
    <Piece NumberOfPoints="4" NumberOfCells="3">
      <Points>
        <DataArray type="Float64" NumberOfComponents="3" format="ascii">
          1.67132635e-02 -2.15314496e-02 0.00000000e+00 
1.33649679e-02 -1.93456318e-02 0.00000000e+00 
1.01706637e-02 -1.69409402e-02 0.00000000e+00 
7.19343964e-03 -1.42731192e-02 0.00000000e+00 

        </DataArray>
      </Points>
      <Cells>
        <DataArray type="Int32" Name="connectivity" format="ascii">
0 1
1 2
2 3

        </DataArray>
        <DataArray type="Int32" Name="offsets" format="ascii">
2 4 6 
        </DataArray>
        <DataArray type="UInt8" Name="types" format="ascii">
3 3 3 
        </DataArray>
      </Cells>
      <PointData>
        <DataArray type="Float64" Name="rho">
          1.35654865e+00 1.39620447e+00 1.44322544e+00 1.50809102e+00 
        </DataArray>
        <DataArray type="Float64" Name="rhou">
          -3.36771396e-02 1.15643450e-01 4.58327397e-01 8.80598195e-01 
        </DataArray>
        <DataArray type="Float64" Name="rhov">
          9.25451932e-01 1.12970107e+00 1.07580055e+00 5.25190476e-01 
        </DataArray>
        <DataArray type="Float64" Name="E">
          3.14976498e+05 3.24739113e+05 3.36307215e+05 3.52149639e+05 
        </DataArray>
      </PointData>
    </Piece>
    <Piece NumberOfPoints="4" NumberOfCells="3">
      <Points>
        <DataArray type="Float64" NumberOfComponents="3" format="ascii">
          7.19343964e-03 -1.42731192e-02 0.00000000e+00 
4.53082798e-03 -1.12927537e-02 0.00000000e+00 
2.33371323e-03 -7.95678515e-03 0.00000000e+00 
8.10639584e-04 -4.26717056e-03 0.00000000e+00 

        </DataArray>
      </Points>
      <Cells>
        <DataArray type="Int32" Name="connectivity" format="ascii">
0 1
1 2
2 3

        </DataArray>
        <DataArray type="Int32" Name="offsets" format="ascii">
2 4 6 
        </DataArray>
        <DataArray type="UInt8" Name="types" format="ascii">
3 3 3 
        </DataArray>
      </Cells>
      <PointData>
        <DataArray type="Float64" Name="rho">
          1.50861137e+00 1.58288773e+00 1.67191650e+00 1.74078499e+00 
        </DataArray>
        <DataArray type="Float64" Name="rhou">
          8.05513500e-01 9.36533683e-01 2.63204215e-01 -1.27698650e+00 
        </DataArray>
        <DataArray type="Float64" Name="rhov">
          6.23851958e-01 -5.08748060e-01 -1.73395467e+00 -1.82856870e+00 
        </DataArray>
        <DataArray type="Float64" Name="E">
          3.52277411e+05 3.70453382e+05 3.92116645e+05 4.08897379e+05 
        </DataArray>
      </PointData>
    </Piece>
    <Piece NumberOfPoints="4" NumberOfCells="3">
      <Points>
        <DataArray type="Float64" NumberOfComponents="3" format="ascii">
          8.10639584e-04 -4.26717056e-03 0.00000000e+00 
1.91366620e-04 -3.27450951e-04 0.00000000e+00 
6.40850572e-04 3.63462302e-03 0.00000000e+00 
2.03182548e-03 7.37539819e-03 0.00000000e+00 

        </DataArray>
      </Points>
      <Cells>
        <DataArray type="Int32" Name="connectivity" format="ascii">
0 1
1 2
2 3

        </DataArray>
        <DataArray type="Int32" Name="offsets" format="ascii">
2 4 6 
        </DataArray>
        <DataArray type="UInt8" Name="types" format="ascii">
3 3 3 
        </DataArray>
      </Cells>
      <PointData>
        <DataArray type="Float64" Name="rho">
          1.73920791e+00 1.76451576e+00 1.71469685e+00 1.62273768e+00 
        </DataArray>
        <DataArray type="Float64" Name="rhou">
          -1.15095304e+00 -1.88948633e+00 -8.46708742e-01 7.49306311e-01 
        </DataArray>
        <DataArray type="Float64" Name="rhov">
          -1.98545799e+00 3.56180490e-01 1.88580369e+00 1.52815716e+00 
        </DataArray>
        <DataArray type="Float64" Name="E">
          4.08514652e+05 4.14591411e+05 4.02384815e+05 3.79873067e+05 
        </DataArray>
      </PointData>
    </Piece>
    <Piece NumberOfPoints="4" NumberOfCells="3">
      <Points>
        <DataArray type="Float64" NumberOfComponents="3" format="ascii">
          2.03182548e-03 7.37539819e-03 0.00000000e+00 
4.13410179e-03 1.07714310e-02 0.00000000e+00 
6.73249783e-03 1.38076087e-02 0.00000000e+00 
9.66598373e-03 1.65232457e-02 0.00000000e+00 

        </DataArray>
      </Points>
      <Cells>
        <DataArray type="Int32" Name="connectivity" format="ascii">
0 1
1 2
2 3

        </DataArray>
        <DataArray type="Int32" Name="offsets" format="ascii">
2 4 6 
        </DataArray>
        <DataArray type="UInt8" Name="types" format="ascii">
3 3 3 
        </DataArray>
      </Cells>
      <PointData>
        <DataArray type="Float64" Name="rho">
          1.62310819e+00 1.51647707e+00 1.42755985e+00 1.36084392e+00 
        </DataArray>
        <DataArray type="Float64" Name="rhou">
          7.20903812e-01 1.16005421e+00 8.48601701e-01 3.83126750e-01 
        </DataArray>
        <DataArray type="Float64" Name="rhov">
          1.76203546e+00 7.20749578e-02 -1.07182920e+00 -1.40264794e+00 
        </DataArray>
        <DataArray type="Float64" Name="E">
          3.79966403e+05 3.54017588e+05 3.32341805e+05 3.15996068e+05 
        </DataArray>
      </PointData>
    </Piece>
    <Piece NumberOfPoints="4" NumberOfCells="3">
      <Points>
        <DataArray type="Float64" NumberOfComponents="3" format="ascii">
          9.66598373e-03 1.65232457e-02 0.00000000e+00 
1.28298048e-02 1.89677756e-02 0.00000000e+00 
1.61561389e-02 2.11867876e-02 0.00000000e+00 
1.96009967e-02 2.32173651e-02 0.00000000e+00 

        </DataArray>
      </Points>
      <Cells>
        <DataArray type="Int32" Name="connectivity" format="ascii">
0 1
1 2
2 3

        </DataArray>
        <DataArray type="Int32" Name="offsets" format="ascii">
2 4 6 
        </DataArray>
        <DataArray type="UInt8" Name="types" format="ascii">
3 3 3 
        </DataArray>
      </Cells>
      <PointData>
        <DataArray type="Float64" Name="rho">
          1.36063809e+00 1.30837386e+00 1.26955164e+00 1.23538202e+00 
        </DataArray>
        <DataArray type="Float64" Name="rhou">
          3.92788736e-01 -1.13747483e-02 -1.95619994e-01 -2.17882865e-01 
        </DataArray>
        <DataArray type="Float64" Name="rhov">
          -1.42709836e+00 -1.32530280e+00 -9.96071187e-01 -6.70515944e-01 
        </DataArray>
        <DataArray type="Float64" Name="E">
          3.15943654e+05 3.03138583e+05 2.93576637e+05 2.85186043e+05 
        </DataArray>
      </PointData>
    </Piece>
    <Piece NumberOfPoints="4" NumberOfCells="3">
      <Points>
        <DataArray type="Float64" NumberOfComponents="3" format="ascii">
          1.96009967e-02 2.32173651e-02 0.00000000e+00 
2.31348258e-02 2.50891000e-02 0.00000000e+00 
2.67372411e-02 2.68253610e-02 0.00000000e+00 
3.03938854e-02 2.84444261e-02 0.00000000e+00 

        </DataArray>
      </Points>
      <Cells>
        <DataArray type="Int32" Name="connectivity" format="ascii">
0 1
1 2
2 3

        </DataArray>
        <DataArray type="Int32" Name="offsets" format="ascii">
2 4 6 
        </DataArray>
        <DataArray type="UInt8" Name="types" format="ascii">
3 3 3 
        </DataArray>
      </Cells>
      <PointData>
        <DataArray type="Float64" Name="rho">
          1.23544612e+00 1.20644653e+00 1.18050989e+00 1.15701953e+00 
        </DataArray>
        <DataArray type="Float64" Name="rhou">
          -2.31079928e-01 -2.18826626e-01 -1.74300267e-01 -1.32436768e-01 
        </DataArray>
        <DataArray type="Float64" Name="rhov">
          -6.88906159e-01 -4.37139308e-01 -2.49676968e-01 -1.36226965e-01 
        </DataArray>
        <DataArray type="Float64" Name="E">
          2.85201075e+05 2.78099030e+05 2.71769626e+05 2.66053856e+05 
        </DataArray>
      </PointData>
    </Piece>
    <Piece NumberOfPoints="4" NumberOfCells="3">
      <Points>
        <DataArray type="Float64" NumberOfComponents="3" format="ascii">
          3.03938854e-02 2.84444261e-02 0.00000000e+00 
3.40943485e-02 2.99607720e-02 0.00000000e+00 
3.78307216e-02 3.13864015e-02 0.00000000e+00 
4.15969416e-02 3.27312648e-02 0.00000000e+00 

        </DataArray>
      </Points>
      <Cells>
        <DataArray type="Int32" Name="connectivity" format="ascii">
0 1
1 2
2 3

        </DataArray>
        <DataArray type="Int32" Name="offsets" format="ascii">
2 4 6 
        </DataArray>
        <DataArray type="UInt8" Name="types" format="ascii">
3 3 3 
        </DataArray>
      </Cells>
      <PointData>
        <DataArray type="Float64" Name="rho">
          1.15701773e+00 1.13575592e+00 1.11643900e+00 1.09882286e+00 
        </DataArray>
        <DataArray type="Float64" Name="rhou">
          -1.30626299e-01 -9.05547230e-02 -5.77413915e-02 -3.46636311e-02 
        </DataArray>
        <DataArray type="Float64" Name="rhov">
          -1.34767577e-01 -5.78773656e-02 -1.01846079e-02 1.56777940e-02 
        </DataArray>
        <DataArray type="Float64" Name="E">
          2.66053687e+05 2.60898629e+05 2.56226124e+05 2.51972550e+05 
        </DataArray>
      </PointData>
    </Piece>
    <Piece NumberOfPoints="4" NumberOfCells="3">
      <Points>
        <DataArray type="Float64" NumberOfComponents="3" format="ascii">
          4.15969416e-02 3.27312648e-02 0.00000000e+00 
4.53883260e-02 3.40034962e-02 0.00000000e+00 
4.92011942e-02 3.52098532e-02 0.00000000e+00 
5.30325845e-02 3.63560505e-02 0.00000000e+00 

        </DataArray>
      </Points>
      <Cells>
        <DataArray type="Int32" Name="connectivity" format="ascii">
0 1
1 2
2 3

        </DataArray>
        <DataArray type="Int32" Name="offsets" format="ascii">
2 4 6 
        </DataArray>
        <DataArray type="UInt8" Name="types" format="ascii">
3 3 3 
        </DataArray>
      </Cells>
      <PointData>
        <DataArray type="Float64" Name="rho">
          1.09882344e+00 1.08271715e+00 1.06793594e+00 1.05432066e+00 
        </DataArray>
        <DataArray type="Float64" Name="rhou">
          -3.35111836e-02 -1.38977570e-02 7.07734986e-04 1.02665227e-02 
        </DataArray>
        <DataArray type="Float64" Name="rhov">
          1.55864547e-02 2.96746530e-02 3.66499351e-02 3.80468465e-02 
        </DataArray>
        <DataArray type="Float64" Name="E">
          2.51972765e+05 2.48092128e+05 2.44536058e+05 2.41264418e+05 
        </DataArray>
      </PointData>
    </Piece>
    <Piece NumberOfPoints="4" NumberOfCells="3">
      <Points>
        <DataArray type="Float64" NumberOfComponents="3" format="ascii">
          5.30325845e-02 3.63560505e-02 0.00000000e+00 
5.68800643e-02 3.74470428e-02 0.00000000e+00 
6.07415959e-02 3.84872220e-02 0.00000000e+00 
6.46155030e-02 3.94803248e-02 0.00000000e+00 

        </DataArray>
      </Points>
      <Cells>
        <DataArray type="Int32" Name="connectivity" format="ascii">
0 1
1 2
2 3

        </DataArray>
        <DataArray type="Int32" Name="offsets" format="ascii">
2 4 6 
        </DataArray>
        <DataArray type="UInt8" Name="types" format="ascii">
3 3 3 
        </DataArray>
      </Cells>
      <PointData>
        <DataArray type="Float64" Name="rho">
          1.05432138e+00 1.04178253e+00 1.03019044e+00 1.01940407e+00 
        </DataArray>
        <DataArray type="Float64" Name="rhou">
          1.05953981e-02 1.77532792e-02 2.34434903e-02 2.74281562e-02 
        </DataArray>
        <DataArray type="Float64" Name="rhov">
          3.77228971e-02 3.62520549e-02 3.43602359e-02 3.12604278e-02 
        </DataArray>
        <DataArray type="Float64" Name="E">
          2.41264582e+05 2.38255671e+05 2.35476572e+05 2.32892994e+05 
        </DataArray>
      </PointData>
    </Piece>
    <Piece NumberOfPoints="4" NumberOfCells="3">
      <Points>
        <DataArray type="Float64" NumberOfComponents="3" format="ascii">
          6.46155030e-02 3.94803248e-02 0.00000000e+00 
6.85004294e-02 4.04294394e-02 0.00000000e+00 
7.23951608e-02 4.13374715e-02 0.00000000e+00 
7.62986317e-02 4.22072113e-02 0.00000000e+00 

        </DataArray>
      </Points>
      <Cells>
        <DataArray type="Int32" Name="connectivity" format="ascii">
0 1
1 2
2 3

        </DataArray>
        <DataArray type="Int32" Name="offsets" format="ascii">
2 4 6 
        </DataArray>
        <DataArray type="UInt8" Name="types" format="ascii">
3 3 3 
        </DataArray>
      </Cells>
      <PointData>
        <DataArray type="Float64" Name="rho">
          1.01940480e+00 1.00938222e+00 1.00003554e+00 9.91308995e-01 
        </DataArray>
        <DataArray type="Float64" Name="rhou">
          2.72508681e-02 2.93131366e-02 3.05133941e-02 3.07002152e-02 
        </DataArray>
        <DataArray type="Float64" Name="rhov">
          3.09610709e-02 2.71529791e-02 2.38617312e-02 2.06240120e-02 
        </DataArray>
        <DataArray type="Float64" Name="E">
          2.32893144e+05 2.30494979e+05 2.28260201e+05 2.26174808e+05 
        </DataArray>
      </PointData>
    </Piece>
    <Piece NumberOfPoints="4" NumberOfCells="3">
      <Points>
        <DataArray type="Float64" NumberOfComponents="3" format="ascii">
          7.62986317e-02 4.22072113e-02 0.00000000e+00 
8.02098960e-02 4.30411920e-02 0.00000000e+00 
8.41281936e-02 4.38414887e-02 0.00000000e+00 
8.80528912e-02 4.46097627e-02 0.00000000e+00 

        </DataArray>
      </Points>
      <Cells>
        <DataArray type="Int32" Name="connectivity" format="ascii">
0 1
1 2
2 3

        </DataArray>
        <DataArray type="Int32" Name="offsets" format="ascii">
2 4 6 
        </DataArray>
        <DataArray type="UInt8" Name="types" format="ascii">
3 3 3 
        </DataArray>
      </Cells>
      <PointData>
        <DataArray type="Float64" Name="rho">
          9.91308079e-01 9.83155123e-01 9.75482059e-01 9.68242635e-01 
        </DataArray>
        <DataArray type="Float64" Name="rhou">
          3.05579452e-02 3.06513750e-02 3.04469047e-02 2.94325888e-02 
        </DataArray>
        <DataArray type="Float64" Name="rhov">
          2.04607776e-02 1.79660378e-02 1.55121414e-02 1.28721878e-02 
        </DataArray>
        <DataArray type="Float64" Name="E">
          2.26174577e+05 2.24227624e+05 2.22396398e+05 2.20669674e+05 
        </DataArray>
      </PointData>
    </Piece>
    <Piece NumberOfPoints="4" NumberOfCells="3">
      <Points>
        <DataArray type="Float64" NumberOfComponents="3" format="ascii">
          8.80528912e-02 4.46097627e-02 0.00000000e+00 
9.19835642e-02 4.53475714e-02 0.00000000e+00 
9.59195644e-02 4.60564308e-02 0.00000000e+00 
9.98597518e-02 4.67394181e-02 0.00000000e+00 

        </DataArray>
      </Points>
      <Cells>
        <DataArray type="Int32" Name="connectivity" format="ascii">
0 1
1 2
2 3

        </DataArray>
        <DataArray type="Int32" Name="offsets" format="ascii">
2 4 6 
        </DataArray>
        <DataArray type="UInt8" Name="types" format="ascii">
3 3 3 
        </DataArray>
      </Cells>
      <PointData>
        <DataArray type="Float64" Name="rho">
          9.68243091e-01 9.61428182e-01 9.55024426e-01 9.48934006e-01 
        </DataArray>
        <DataArray type="Float64" Name="rhou">
          2.92270069e-02 2.78582403e-02 2.43723093e-02 2.90024218e-02 
        </DataArray>
        <DataArray type="Float64" Name="rhov">
          1.30356325e-02 1.05013207e-02 8.95920913e-03 8.51892167e-03 
        </DataArray>
        <DataArray type="Float64" Name="E">
          2.20669780e+05 2.19045416e+05 2.17519349e+05 2.16068891e+05 
        </DataArray>
      </PointData>
    </Piece>
    <Piece NumberOfPoints="4" NumberOfCells="3">
      <Points>
        <DataArray type="Float64" NumberOfComponents="3" format="ascii">
          9.98597518e-02 4.67394181e-02 0.00000000e+00 
1.10118888e-01 4.83862534e-02 0.00000000e+00 
1.20400399e-01 4.98730615e-02 0.00000000e+00 
1.30701363e-01 5.12186773e-02 0.00000000e+00 

        </DataArray>
      </Points>
      <Cells>
        <DataArray type="Int32" Name="connectivity" format="ascii">
0 1
1 2
2 3

        </DataArray>
        <DataArray type="Int32" Name="offsets" format="ascii">
2 4 6 
        </DataArray>
        <DataArray type="UInt8" Name="types" format="ascii">
3 3 3 
        </DataArray>
      </Cells>
      <PointData>
        <DataArray type="Float64" Name="rho">
          9.48860462e-01 9.34583112e-01 9.22167263e-01 9.11390096e-01 
        </DataArray>
        <DataArray type="Float64" Name="rhou">
          2.67170271e-02 1.84994946e-02 1.63877549e-02 1.29033242e-02 
        </DataArray>
        <DataArray type="Float64" Name="rhov">
          7.26683837e-03 4.05930839e-03 3.57596032e-03 2.91087893e-03 
        </DataArray>
        <DataArray type="Float64" Name="E">
          2.16052249e+05 2.12655401e+05 2.09704186e+05 2.07144407e+05 
        </DataArray>
      </PointData>
    </Piece>
    <Piece NumberOfPoints="4" NumberOfCells="3">
      <Points>
        <DataArray type="Float64" NumberOfComponents="3" format="ascii">
          1.30701363e-01 5.12186773e-02 0.00000000e+00 
1.41019106e-01 5.24347536e-02 0.00000000e+00 
1.51350453e-01 5.35292812e-02 0.00000000e+00 
1.61692888e-01 5.45137413e-02 0.00000000e+00 

        </DataArray>
      </Points>
      <Cells>
        <DataArray type="Int32" Name="connectivity" format="ascii">
0 1
1 2
2 3

        </DataArray>
        <DataArray type="Int32" Name="offsets" format="ascii">
2 4 6 
        </DataArray>
        <DataArray type="UInt8" Name="types" format="ascii">
3 3 3 
        </DataArray>
      </Cells>
      <PointData>
        <DataArray type="Float64" Name="rho">
          9.11386574e-01 9.01823500e-01 8.93455490e-01 8.86178898e-01 
        </DataArray>
        <DataArray type="Float64" Name="rhou">
          1.43099005e-02 1.24015484e-02 1.03012036e-02 9.02081719e-03 
        </DataArray>
        <DataArray type="Float64" Name="rhov">
          3.41867306e-03 2.48726409e-03 1.69994388e-03 1.52238094e-03 
        </DataArray>
        <DataArray type="Float64" Name="E">
          2.07143557e+05 2.04874989e+05 2.02891720e+05 2.01168202e+05 
        </DataArray>
      </PointData>
    </Piece>
    <Piece NumberOfPoints="4" NumberOfCells="3">
      <Points>
        <DataArray type="Float64" NumberOfComponents="3" format="ascii">
          1.61692888e-01 5.45137413e-02 0.00000000e+00 
1.72044471e-01 5.53969070e-02 0.00000000e+00 
1.82403773e-01 5.61845005e-02 0.00000000e+00 
1.92769483e-01 5.68825118e-02 0.00000000e+00 

        </DataArray>
      </Points>
      <Cells>
        <DataArray type="Int32" Name="connectivity" format="ascii">
0 1
1 2
2 3

        </DataArray>
        <DataArray type="Int32" Name="offsets" format="ascii">
2 4 6 
        </DataArray>
        <DataArray type="UInt8" Name="types" format="ascii">
3 3 3 
        </DataArray>
      </Cells>
      <PointData>
        <DataArray type="Float64" Name="rho">
          8.86176457e-01 8.79800247e-01 8.74238767e-01 8.69445272e-01 
        </DataArray>
        <DataArray type="Float64" Name="rhou">
          9.05825618e-03 7.90775513e-03 6.85104809e-03 5.92615910e-03 
        </DataArray>
        <DataArray type="Float64" Name="rhov">
          1.57476036e-03 1.20898773e-03 8.22970889e-04 5.88249857e-04 
        </DataArray>
        <DataArray type="Float64" Name="E">
          2.01167654e+05 1.99658810e+05 1.98344252e+05 1.97212419e+05 
        </DataArray>
      </PointData>
    </Piece>
    <Piece NumberOfPoints="4" NumberOfCells="3">
      <Points>
        <DataArray type="Float64" NumberOfComponents="3" format="ascii">
          1.92769483e-01 5.68825118e-02 0.00000000e+00 
2.03140482e-01 5.74972220e-02 0.00000000e+00 
2.13515818e-01 5.80338500e-02 0.00000000e+00 
2.23894730e-01 5.84962890e-02 0.00000000e+00 

        </DataArray>
      </Points>
      <Cells>
        <DataArray type="Int32" Name="connectivity" format="ascii">
0 1
1 2
2 3

        </DataArray>
        <DataArray type="Int32" Name="offsets" format="ascii">
2 4 6 
        </DataArray>
        <DataArray type="UInt8" Name="types" format="ascii">
3 3 3 
        </DataArray>
      </Cells>
      <PointData>
        <DataArray type="Float64" Name="rho">
          8.69444578e-01 8.65345053e-01 8.61860457e-01 8.58937880e-01 
        </DataArray>
        <DataArray type="Float64" Name="rhou">
          5.96359553e-03 5.22087892e-03 4.64742201e-03 4.17145068e-03 
        </DataArray>
        <DataArray type="Float64" Name="rhov">
          6.30186608e-04 5.44629888e-04 4.29031715e-04 3.04259055e-04 
        </DataArray>
        <DataArray type="Float64" Name="E">
          1.97212259e+05 1.96245377e+05 1.95424831e+05 1.94738009e+05 
        </DataArray>
      </PointData>
    </Piece>
    <Piece NumberOfPoints="4" NumberOfCells="3">
      <Points>
        <DataArray type="Float64" NumberOfComponents="3" format="ascii">
          2.23894730e-01 5.84962890e-02 0.00000000e+00 
2.34276548e-01 5.88882305e-02 0.00000000e+00 
2.44660646e-01 5.92139624e-02 0.00000000e+00 
2.55046517e-01 5.94772622e-02 0.00000000e+00 

        </DataArray>
      </Points>
      <Cells>
        <DataArray type="Int32" Name="connectivity" format="ascii">
0 1
1 2
2 3

        </DataArray>
        <DataArray type="Int32" Name="offsets" format="ascii">
2 4 6 
        </DataArray>
        <DataArray type="UInt8" Name="types" format="ascii">
3 3 3 
        </DataArray>
      </Cells>
      <PointData>
        <DataArray type="Float64" Name="rho">
          8.58938485e-01 8.56541625e-01 8.54631397e-01 8.53156783e-01 
        </DataArray>
        <DataArray type="Float64" Name="rhou">
          4.17952036e-03 3.63700259e-03 3.24436619e-03 3.00647183e-03 
        </DataArray>
        <DataArray type="Float64" Name="rhov">
          3.18638484e-04 2.44438837e-04 2.32225989e-04 2.35609950e-04 
        </DataArray>
        <DataArray type="Float64" Name="E">
          1.94738148e+05 1.94176257e+05 1.93729937e+05 1.93387145e+05 
        </DataArray>
      </PointData>
    </Piece>
    <Piece NumberOfPoints="4" NumberOfCells="3">
      <Points>
        <DataArray type="Float64" NumberOfComponents="3" format="ascii">
          2.55046517e-01 5.94772622e-02 0.00000000e+00 
2.65433758e-01 5.96804135e-02 0.00000000e+00 
2.75821954e-01 5.98256700e-02 0.00000000e+00 
2.86210775e-01 5.99167012e-02 0.00000000e+00 

        </DataArray>
      </Points>
      <Cells>
        <DataArray type="Int32" Name="connectivity" format="ascii">
0 1
1 2
2 3

        </DataArray>
        <DataArray type="Int32" Name="offsets" format="ascii">
2 4 6 
        </DataArray>
        <DataArray type="UInt8" Name="types" format="ascii">
3 3 3 
        </DataArray>
      </Cells>
      <PointData>
        <DataArray type="Float64" Name="rho">
          8.53156798e-01 8.52073798e-01 8.51362599e-01 8.51007269e-01 
        </DataArray>
        <DataArray type="Float64" Name="rhou">
          3.00113331e-03 2.70067929e-03 2.39374258e-03 2.11808225e-03 
        </DataArray>
        <DataArray type="Float64" Name="rhov">
          2.47190347e-04 1.54328842e-04 9.97120212e-05 1.41468740e-04 
        </DataArray>
        <DataArray type="Float64" Name="E">
          1.93387153e+05 1.93137531e+05 1.92976289e+05 1.92899432e+05 
        </DataArray>
      </PointData>
    </Piece>
    <Piece NumberOfPoints="4" NumberOfCells="3">
      <Points>
        <DataArray type="Float64" NumberOfComponents="3" format="ascii">
          2.86210775e-01 5.99167012e-02 0.00000000e+00 
2.96599895e-01 5.99572174e-02 0.00000000e+00 
3.06989133e-01 5.99487796e-02 0.00000000e+00 
3.17378193e-01 5.98919280e-02 0.00000000e+00 

        </DataArray>
      </Points>
      <Cells>
        <DataArray type="Int32" Name="connectivity" format="ascii">
0 1
1 2
2 3

        </DataArray>
        <DataArray type="Int32" Name="offsets" format="ascii">
2 4 6 
        </DataArray>
        <DataArray type="UInt8" Name="types" format="ascii">
3 3 3 
        </DataArray>
      </Cells>
      <PointData>
        <DataArray type="Float64" Name="rho">
          8.51006190e-01 8.50960064e-01 8.51177999e-01 8.51647928e-01 
        </DataArray>
        <DataArray type="Float64" Name="rhou">
          2.13863071e-03 2.01993312e-03 1.88976920e-03 1.69905864e-03 
        </DataArray>
        <DataArray type="Float64" Name="rhov">
          1.58365810e-04 1.95408133e-04 1.44730446e-04 7.15708505e-05 
        </DataArray>
        <DataArray type="Float64" Name="E">
          1.92899186e+05 1.92895727e+05 1.92955205e+05 1.93074683e+05 
        </DataArray>
      </PointData>
    </Piece>
    <Piece NumberOfPoints="4" NumberOfCells="3">
      <Points>
        <DataArray type="Float64" NumberOfComponents="3" format="ascii">
          3.17378193e-01 5.98919280e-02 0.00000000e+00 
3.27766895e-01 5.97884916e-02 0.00000000e+00 
3.38155061e-01 5.96415885e-02 0.00000000e+00 
3.48542601e-01 5.94538599e-02 0.00000000e+00 

        </DataArray>
      </Points>
      <Cells>
        <DataArray type="Int32" Name="connectivity" format="ascii">
0 1
1 2
2 3

        </DataArray>
        <DataArray type="Int32" Name="offsets" format="ascii">
2 4 6 
        </DataArray>
        <DataArray type="UInt8" Name="types" format="ascii">
3 3 3 
        </DataArray>
      </Cells>
      <PointData>
        <DataArray type="Float64" Name="rho">
          8.51648304e-01 8.52360368e-01 8.53296063e-01 8.54422628e-01 
        </DataArray>
        <DataArray type="Float64" Name="rhou">
          1.73094574e-03 1.52487135e-03 1.40481690e-03 1.35899509e-03 
        </DataArray>
        <DataArray type="Float64" Name="rhov">
          7.93203630e-05 7.42480312e-05 1.08435506e-04 1.36755604e-04 
        </DataArray>
        <DataArray type="Float64" Name="E">
          1.93074767e+05 1.93251772e+05 1.93481848e+05 1.93757319e+05 
        </DataArray>
      </PointData>
    </Piece>
    <Piece NumberOfPoints="4" NumberOfCells="3">
      <Points>
        <DataArray type="Float64" NumberOfComponents="3" format="ascii">
          3.48542601e-01 5.94538599e-02 0.00000000e+00 
3.58929336e-01 5.92265576e-02 0.00000000e+00 
3.69315147e-01 5.89610897e-02 0.00000000e+00 
3.79699975e-01 5.86590059e-02 0.00000000e+00 

        </DataArray>
      </Points>
      <Cells>
        <DataArray type="Int32" Name="connectivity" format="ascii">
0 1
1 2
2 3

        </DataArray>
        <DataArray type="Int32" Name="offsets" format="ascii">
2 4 6 
        </DataArray>
        <DataArray type="UInt8" Name="types" format="ascii">
3 3 3 
        </DataArray>
      </Cells>
      <PointData>
        <DataArray type="Float64" Name="rho">
          8.54422893e-01 8.55714876e-01 8.57163587e-01 8.58748700e-01 
        </DataArray>
        <DataArray type="Float64" Name="rhou">
          1.37325514e-03 1.24310002e-03 1.14642320e-03 1.09826834e-03 
        </DataArray>
        <DataArray type="Float64" Name="rhov">
          1.33362514e-04 1.00362093e-04 9.76728298e-05 1.00580963e-04 
        </DataArray>
        <DataArray type="Float64" Name="E">
          1.93757380e+05 1.94072265e+05 1.94424419e+05 1.94809058e+05 
        </DataArray>
      </PointData>
    </Piece>
    <Piece NumberOfPoints="4" NumberOfCells="3">
      <Points>
        <DataArray type="Float64" NumberOfComponents="3" format="ascii">
          3.79699975e-01 5.86590059e-02 0.00000000e+00 
3.90083700e-01 5.83211333e-02 0.00000000e+00 
4.00466233e-01 5.79482466e-02 0.00000000e+00 
4.10847515e-01 5.75418957e-02 0.00000000e+00 

        </DataArray>
      </Points>
      <Cells>
        <DataArray type="Int32" Name="connectivity" format="ascii">
0 1
1 2
2 3

        </DataArray>
        <DataArray type="Int32" Name="offsets" format="ascii">
2 4 6 
        </DataArray>
        <DataArray type="UInt8" Name="types" format="ascii">
3 3 3 
        </DataArray>
      </Cells>
      <PointData>
        <DataArray type="Float64" Name="rho">
          8.58748714e-01 8.60452867e-01 8.62265975e-01 8.64181169e-01 
        </DataArray>
        <DataArray type="Float64" Name="rhou">
          1.09046238e-03 1.02374959e-03 9.41751544e-04 8.62254256e-04 
        </DataArray>
        <DataArray type="Float64" Name="rhov">
          1.03045888e-04 7.45975347e-05 5.37999083e-05 6.31175340e-05 
        </DataArray>
        <DataArray type="Float64" Name="E">
          1.94809062e+05 1.95222098e+05 1.95661118e+05 1.96124422e+05 
        </DataArray>
      </PointData>
    </Piece>
    <Piece NumberOfPoints="4" NumberOfCells="3">
      <Points>
        <DataArray type="Float64" NumberOfComponents="3" format="ascii">
          4.10847515e-01 5.75418957e-02 0.00000000e+00 
4.21227485e-01 5.71038015e-02 0.00000000e+00 
4.31606144e-01 5.66351078e-02 0.00000000e+00 
4.41983402e-01 5.61364293e-02 0.00000000e+00 

        </DataArray>
      </Points>
      <Cells>
        <DataArray type="Int32" Name="connectivity" format="ascii">
0 1
1 2
2 3

        </DataArray>
        <DataArray type="Int32" Name="offsets" format="ascii">
2 4 6 
        </DataArray>
        <DataArray type="UInt8" Name="types" format="ascii">
3 3 3 
        </DataArray>
      </Cells>
      <PointData>
        <DataArray type="Float64" Name="rho">
          8.64180953e-01 8.66181333e-01 8.68254045e-01 8.70388154e-01 
        </DataArray>
        <DataArray type="Float64" Name="rhou">
          8.80502533e-04 8.26925601e-04 7.86811763e-04 7.48017648e-04 
        </DataArray>
        <DataArray type="Float64" Name="rhov">
          6.66570044e-05 7.01133634e-05 6.23668862e-05 4.16889803e-05 
        </DataArray>
        <DataArray type="Float64" Name="E">
          1.96124373e+05 1.96607984e+05 1.97108877e+05 1.97624468e+05 
        </DataArray>
      </PointData>
    </Piece>
    <Piece NumberOfPoints="4" NumberOfCells="3">
      <Points>
        <DataArray type="Float64" NumberOfComponents="3" format="ascii">
          4.41983402e-01 5.61364293e-02 0.00000000e+00 
4.52359200e-01 5.56085743e-02 0.00000000e+00 
4.62733537e-01 5.50529286e-02 0.00000000e+00 
4.73106444e-01 5.44707514e-02 0.00000000e+00 

        </DataArray>
      </Points>
      <Cells>
        <DataArray type="Int32" Name="connectivity" format="ascii">
0 1
1 2
2 3

        </DataArray>
        <DataArray type="Int32" Name="offsets" format="ascii">
2 4 6 
        </DataArray>
        <DataArray type="UInt8" Name="types" format="ascii">
3 3 3 
        </DataArray>
      </Cells>
      <PointData>
        <DataArray type="Float64" Name="rho">
          8.70388311e-01 8.72578561e-01 8.74817341e-01 8.77094614e-01 
        </DataArray>
        <DataArray type="Float64" Name="rhou">
          7.44788085e-04 6.84879935e-04 6.42372744e-04 6.17575470e-04 
        </DataArray>
        <DataArray type="Float64" Name="rhov">
          4.22537263e-05 3.61624956e-05 3.84330163e-05 4.01076998e-05 
        </DataArray>
        <DataArray type="Float64" Name="E">
          1.97624504e+05 1.98153504e+05 1.98694093e+05 1.99243905e+05 
        </DataArray>
      </PointData>
    </Piece>
    <Piece NumberOfPoints="4" NumberOfCells="3">
      <Points>
        <DataArray type="Float64" NumberOfComponents="3" format="ascii">
          4.73106444e-01 5.44707514e-02 0.00000000e+00 
4.83477861e-01 5.38627952e-02 0.00000000e+00 
4.93847787e-01 5.32294959e-02 0.00000000e+00 
5.04216135e-01 5.25716618e-02 0.00000000e+00 

        </DataArray>
      </Points>
      <Cells>
        <DataArray type="Int32" Name="connectivity" format="ascii">
0 1
1 2
2 3

        </DataArray>
        <DataArray type="Int32" Name="offsets" format="ascii">
2 4 6 
        </DataArray>
        <DataArray type="UInt8" Name="types" format="ascii">
3 3 3 
        </DataArray>
      </Cells>
      <PointData>
        <DataArray type="Float64" Name="rho">
          8.77094602e-01 8.79402115e-01 8.81733215e-01 8.84085822e-01 
        </DataArray>
        <DataArray type="Float64" Name="rhou">
          6.09284153e-04 5.86378215e-04 5.47772101e-04 5.01869835e-04 
        </DataArray>
        <DataArray type="Float64" Name="rhov">
          4.19854705e-05 3.06483255e-05 1.52795416e-05 1.32041840e-05 
        </DataArray>
        <DataArray type="Float64" Name="E">
          1.99243903e+05 1.99800990e+05 2.00363780e+05 2.00931737e+05 
        </DataArray>
      </PointData>
    </Piece>
    <Piece NumberOfPoints="4" NumberOfCells="3">
      <Points>
        <DataArray type="Float64" NumberOfComponents="3" format="ascii">
          5.04216135e-01 5.25716618e-02 0.00000000e+00 
5.14582992e-01 5.18903993e-02 0.00000000e+00 
5.24948359e-01 5.11864908e-02 0.00000000e+00 
5.35312176e-01 5.04603274e-02 0.00000000e+00 

        </DataArray>
      </Points>
      <Cells>
        <DataArray type="Int32" Name="connectivity" format="ascii">
0 1
1 2
2 3

        </DataArray>
        <DataArray type="Int32" Name="offsets" format="ascii">
2 4 6 
        </DataArray>
        <DataArray type="UInt8" Name="types" format="ascii">
3 3 3 
        </DataArray>
      </Cells>
      <PointData>
        <DataArray type="Float64" Name="rho">
          8.84085730e-01 8.86453071e-01 8.88829362e-01 8.91209879e-01 
        </DataArray>
        <DataArray type="Float64" Name="rhou">
          5.11130250e-04 4.81993219e-04 4.59681382e-04 4.37582273e-04 
        </DataArray>
        <DataArray type="Float64" Name="rhov">
          1.54776018e-05 1.57718524e-05 1.03058160e-05 -2.27340179e-06 
        </DataArray>
        <DataArray type="Float64" Name="E">
          2.00931717e+05 2.01503240e+05 2.02076964e+05 2.02651769e+05 
        </DataArray>
      </PointData>
    </Piece>
    <Piece NumberOfPoints="4" NumberOfCells="3">
      <Points>
        <DataArray type="Float64" NumberOfComponents="3" format="ascii">
          5.35312176e-01 5.04603274e-02 0.00000000e+00 
5.45674443e-01 4.97124642e-02 0.00000000e+00 
5.56035221e-01 4.89437394e-02 0.00000000e+00 
5.66394389e-01 4.81546782e-02 0.00000000e+00 

        </DataArray>
      </Points>
      <Cells>
        <DataArray type="Int32" Name="connectivity" format="ascii">
0 1
1 2
2 3

        </DataArray>
        <DataArray type="Int32" Name="offsets" format="ascii">
2 4 6 
        </DataArray>
        <DataArray type="UInt8" Name="types" format="ascii">
3 3 3 
        </DataArray>
      </Cells>
      <PointData>
        <DataArray type="Float64" Name="rho">
          8.91209930e-01 8.93593119e-01 8.95974916e-01 8.98351305e-01 
        </DataArray>
        <DataArray type="Float64" Name="rhou">
          4.32741437e-04 4.02778905e-04 3.81593867e-04 3.67764856e-04 
        </DataArray>
        <DataArray type="Float64" Name="rhov">
          -2.02109622e-06 -2.47273755e-06 -2.99420892e-06 -7.36320607e-06 
        </DataArray>
        <DataArray type="Float64" Name="E">
          2.02651780e+05 2.03227266e+05 2.03802467e+05 2.04376429e+05 
        </DataArray>
      </PointData>
    </Piece>
    <Piece NumberOfPoints="4" NumberOfCells="3">
      <Points>
        <DataArray type="Float64" NumberOfComponents="3" format="ascii">
          5.66394389e-01 4.81546782e-02 0.00000000e+00 
5.76752067e-01 4.73455116e-02 0.00000000e+00 
5.87108195e-01 4.65166979e-02 0.00000000e+00 
5.97462773e-01 4.56690118e-02 0.00000000e+00 

        </DataArray>
      </Points>
      <Cells>
        <DataArray type="Int32" Name="connectivity" format="ascii">
0 1
1 2
2 3

        </DataArray>
        <DataArray type="Int32" Name="offsets" format="ascii">
2 4 6 
        </DataArray>
        <DataArray type="UInt8" Name="types" format="ascii">
3 3 3 
        </DataArray>
      </Cells>
      <PointData>
        <DataArray type="Float64" Name="rho">
          8.98351338e-01 9.00719677e-01 9.03078848e-01 9.05427076e-01 
        </DataArray>
        <DataArray type="Float64" Name="rhou">
          3.66902370e-04 3.43445793e-04 3.19398030e-04 3.01157759e-04 
        </DataArray>
        <DataArray type="Float64" Name="rhov">
          -7.03774236e-06 -1.62688136e-05 -1.98981678e-05 -1.82623528e-05 
        </DataArray>
        <DataArray type="Float64" Name="E">
          2.04376437e+05 2.04948523e+05 2.05518440e+05 2.06085747e+05 
        </DataArray>
      </PointData>
    </Piece>
    <Piece NumberOfPoints="4" NumberOfCells="3">
      <Points>
        <DataArray type="Float64" NumberOfComponents="3" format="ascii">
          5.97462773e-01 4.56690118e-02 0.00000000e+00 
6.07815862e-01 4.48031016e-02 0.00000000e+00 
6.18167400e-01 4.39192392e-02 0.00000000e+00 
6.28517449e-01 4.30175588e-02 0.00000000e+00 

        </DataArray>
      </Points>
      <Cells>
        <DataArray type="Int32" Name="connectivity" format="ascii">
0 1
1 2
2 3

        </DataArray>
        <DataArray type="Int32" Name="offsets" format="ascii">
2 4 6 
        </DataArray>
        <DataArray type="UInt8" Name="types" format="ascii">
3 3 3 
        </DataArray>
      </Cells>
      <PointData>
        <DataArray type="Float64" Name="rho">
          9.05427008e-01 9.07761501e-01 9.10079578e-01 9.12380745e-01 
        </DataArray>
        <DataArray type="Float64" Name="rhou">
          2.98905908e-04 2.88809984e-04 2.75199023e-04 2.56136536e-04 
        </DataArray>
        <DataArray type="Float64" Name="rhov">
          -1.72916785e-05 -1.75198614e-05 -2.34275892e-05 -2.90057021e-05 
        </DataArray>
        <DataArray type="Float64" Name="E">
          2.06085732e+05 2.06649756e+05 2.07209854e+05 2.07765878e+05 
        </DataArray>
      </PointData>
    </Piece>
    <Piece NumberOfPoints="4" NumberOfCells="3">
      <Points>
        <DataArray type="Float64" NumberOfComponents="3" format="ascii">
          6.28517449e-01 4.30175588e-02 0.00000000e+00 
6.38865948e-01 4.20984775e-02 0.00000000e+00 
6.49212897e-01 4.11624312e-02 0.00000000e+00 
6.59558356e-01 4.02097441e-02 0.00000000e+00 

        </DataArray>
      </Points>
      <Cells>
        <DataArray type="Int32" Name="connectivity" format="ascii">
0 1
1 2
2 3

        </DataArray>
        <DataArray type="Int32" Name="offsets" format="ascii">
2 4 6 
        </DataArray>
        <DataArray type="UInt8" Name="types" format="ascii">
3 3 3 
        </DataArray>
      </Cells>
      <PointData>
        <DataArray type="Float64" Name="rho">
          9.12380738e-01 9.14664191e-01 9.16928420e-01 9.19172519e-01 
        </DataArray>
        <DataArray type="Float64" Name="rhou">
          2.57069854e-04 2.43132007e-04 2.31435997e-04 2.19214439e-04 
        </DataArray>
        <DataArray type="Float64" Name="rhov">
          -2.79285739e-05 -2.83708091e-05 -3.00903870e-05 -3.21969159e-05 
        </DataArray>
        <DataArray type="Float64" Name="E">
          2.07765877e+05 2.08317609e+05 2.08864670e+05 2.09406817e+05 
        </DataArray>
      </PointData>
    </Piece>
    <Piece NumberOfPoints="4" NumberOfCells="3">
      <Points>
        <DataArray type="Float64" NumberOfComponents="3" format="ascii">
          6.59558356e-01 4.02097441e-02 0.00000000e+00 
6.69902325e-01 3.92407738e-02 0.00000000e+00 
6.80244744e-01 3.82556282e-02 0.00000000e+00 
6.90585554e-01 3.72543521e-02 0.00000000e+00 

        </DataArray>
      </Points>
      <Cells>
        <DataArray type="Int32" Name="connectivity" format="ascii">
0 1
1 2
2 3

        </DataArray>
        <DataArray type="Int32" Name="offsets" format="ascii">
2 4 6 
        </DataArray>
        <DataArray type="UInt8" Name="types" format="ascii">
3 3 3 
        </DataArray>
      </Cells>
      <PointData>
        <DataArray type="Float64" Name="rho">
          9.19172501e-01 9.21395976e-01 9.23597104e-01 9.25776323e-01 
        </DataArray>
        <DataArray type="Float64" Name="rhou">
          2.15558648e-04 2.11027646e-04 2.02748842e-04 1.88258933e-04 
        </DataArray>
        <DataArray type="Float64" Name="rhov">
          -3.10892480e-05 -3.07547653e-05 -3.53767098e-05 -3.90851596e-05 
        </DataArray>
        <DataArray type="Float64" Name="E">
          2.09406813e+05 2.09943900e+05 2.10475497e+05 2.11001667e+05 
        </DataArray>
      </PointData>
    </Piece>
    <Piece NumberOfPoints="4" NumberOfCells="3">
      <Points>
        <DataArray type="Float64" NumberOfComponents="3" format="ascii">
          6.90585554e-01 3.72543521e-02 0.00000000e+00 
7.00924933e-01 3.62373814e-02 0.00000000e+00 
7.11262703e-01 3.52048986e-02 0.00000000e+00 
7.21598923e-01 3.41568366e-02 0.00000000e+00 

        </DataArray>
      </Points>
      <Cells>
        <DataArray type="Int32" Name="connectivity" format="ascii">
0 1
1 2
2 3

        </DataArray>
        <DataArray type="Int32" Name="offsets" format="ascii">
2 4 6 
        </DataArray>
        <DataArray type="UInt8" Name="types" format="ascii">
3 3 3 
        </DataArray>
      </Cells>
      <PointData>
        <DataArray type="Float64" Name="rho">
          9.25776277e-01 9.27933659e-01 9.30067523e-01 9.32178252e-01 
        </DataArray>
        <DataArray type="Float64" Name="rhou">
          1.86615215e-04 1.82954534e-04 1.79314490e-04 1.67447549e-04 
        </DataArray>
        <DataArray type="Float64" Name="rhov">
          -3.78766428e-05 -3.48299154e-05 -3.82500872e-05 -4.32510640e-05 
        </DataArray>
        <DataArray type="Float64" Name="E">
          2.11001657e+05 2.11522380e+05 2.12037235e+05 2.12546272e+05 
        </DataArray>
      </PointData>
    </Piece>
    <Piece NumberOfPoints="4" NumberOfCells="3">
      <Points>
        <DataArray type="Float64" NumberOfComponents="3" format="ascii">
          7.21598923e-01 3.41568366e-02 0.00000000e+00 
7.31933594e-01 3.30936089e-02 0.00000000e+00 
7.42266715e-01 3.20154354e-02 0.00000000e+00 
7.52598286e-01 3.09220124e-02 0.00000000e+00 

        </DataArray>
      </Points>
      <Cells>
        <DataArray type="Int32" Name="connectivity" format="ascii">
0 1
1 2
2 3

        </DataArray>
        <DataArray type="Int32" Name="offsets" format="ascii">
2 4 6 
        </DataArray>
        <DataArray type="UInt8" Name="types" format="ascii">
3 3 3 
        </DataArray>
      </Cells>
      <PointData>
        <DataArray type="Float64" Name="rho">
          9.32178230e-01 9.34266689e-01 9.36331129e-01 9.38371897e-01 
        </DataArray>
        <DataArray type="Float64" Name="rhou">
          1.64413010e-04 1.62623066e-04 1.62380101e-04 1.54250219e-04 
        </DataArray>
        <DataArray type="Float64" Name="rhov">
          -4.21951736e-05 -3.70305108e-05 -3.93766155e-05 -4.49051552e-05 
        </DataArray>
        <DataArray type="Float64" Name="E">
          2.12546267e+05 2.13049642e+05 2.13546918e+05 2.14038135e+05 
        </DataArray>
      </PointData>
    </Piece>
    <Piece NumberOfPoints="4" NumberOfCells="3">
      <Points>
        <DataArray type="Float64" NumberOfComponents="3" format="ascii">
          7.52598286e-01 3.09220124e-02 0.00000000e+00 
7.62928188e-01 2.98135038e-02 0.00000000e+00 
7.73256481e-01 2.86899786e-02 0.00000000e+00 
7.83583105e-01 2.75512449e-02 0.00000000e+00 

        </DataArray>
      </Points>
      <Cells>
        <DataArray type="Int32" Name="connectivity" format="ascii">
0 1
1 2
2 3

        </DataArray>
        <DataArray type="Int32" Name="offsets" format="ascii">
2 4 6 
        </DataArray>
        <DataArray type="UInt8" Name="types" format="ascii">
3 3 3 
        </DataArray>
      </Cells>
      <PointData>
        <DataArray type="Float64" Name="rho">
          9.38371892e-01 9.40390076e-01 9.42384609e-01 9.44356121e-01 
        </DataArray>
        <DataArray type="Float64" Name="rhou">
          1.51303731e-04 1.50664256e-04 1.50015642e-04 1.43556880e-04 
        </DataArray>
        <DataArray type="Float64" Name="rhov">
          -4.38970796e-05 -4.12554394e-05 -4.36471332e-05 -4.72355956e-05 
        </DataArray>
        <DataArray type="Float64" Name="E">
          2.14038133e+05 2.14523498e+05 2.15002727e+05 2.15475920e+05 
        </DataArray>
      </PointData>
    </Piece>
    <Piece NumberOfPoints="4" NumberOfCells="3">
      <Points>
        <DataArray type="Float64" NumberOfComponents="3" format="ascii">
          7.83583105e-01 2.75512449e-02 0.00000000e+00 
7.93908060e-01 2.63975188e-02 0.00000000e+00 
8.04231405e-01 2.52291560e-02 0.00000000e+00 
8.14553022e-01 2.40457114e-02 0.00000000e+00 

        </DataArray>
      </Points>
      <Cells>
        <DataArray type="Int32" Name="connectivity" format="ascii">
0 1
1 2
2 3

        </DataArray>
        <DataArray type="Int32" Name="offsets" format="ascii">
2 4 6 
        </DataArray>
        <DataArray type="UInt8" Name="types" format="ascii">
3 3 3 
        </DataArray>
      </Cells>
      <PointData>
        <DataArray type="Float64" Name="rho">
          9.44356128e-01 9.46305353e-01 9.48232101e-01 9.50135569e-01 
        </DataArray>
        <DataArray type="Float64" Name="rhou">
          1.46338888e-04 1.38548953e-04 1.41541456e-04 1.47050753e-04 
        </DataArray>
        <DataArray type="Float64" Name="rhov">
          -4.76308833e-05 -4.36070603e-05 -4.23112606e-05 -4.96935940e-05 
        </DataArray>
        <DataArray type="Float64" Name="E">
          2.15475921e+05 2.15943204e+05 2.16404489e+05 2.16859550e+05 
        </DataArray>
      </PointData>
    </Piece>
    <Piece NumberOfPoints="4" NumberOfCells="3">
      <Points>
        <DataArray type="Float64" NumberOfComponents="3" format="ascii">
          8.14553022e-01 2.40457114e-02 0.00000000e+00 
8.24872792e-01 2.28467938e-02 0.00000000e+00 
8.35190892e-01 2.16327831e-02 0.00000000e+00 
8.45507145e-01 2.04038676e-02 0.00000000e+00 

        </DataArray>
      </Points>
      <Cells>
        <DataArray type="Int32" Name="connectivity" format="ascii">
0 1
1 2
2 3

        </DataArray>
        <DataArray type="Int32" Name="offsets" format="ascii">
2 4 6 
        </DataArray>
        <DataArray type="UInt8" Name="types" format="ascii">
3 3 3 
        </DataArray>
      </Cells>
      <PointData>
        <DataArray type="Float64" Name="rho">
          9.50135617e-01 9.52017594e-01 9.53878362e-01 9.55718044e-01 
        </DataArray>
        <DataArray type="Float64" Name="rhou">
          1.40410229e-04 1.35605699e-04 1.32206195e-04 1.37482120e-04 
        </DataArray>
        <DataArray type="Float64" Name="rhov">
          -4.99817141e-05 -5.02022271e-05 -4.73535197e-05 -4.32654699e-05 
        </DataArray>
        <DataArray type="Float64" Name="E">
          2.16859561e+05 2.17308762e+05 2.17752120e+05 2.18189616e+05 
        </DataArray>
      </PointData>
    </Piece>
    <Piece NumberOfPoints="4" NumberOfCells="3">
      <Points>
        <DataArray type="Float64" NumberOfComponents="3" format="ascii">
          8.45507145e-01 2.04038676e-02 0.00000000e+00 
8.55821550e-01 1.91591792e-02 0.00000000e+00 
8.66134048e-01 1.78987328e-02 0.00000000e+00 
8.76444638e-01 1.66228991e-02 0.00000000e+00 

        </DataArray>
      </Points>
      <Cells>
        <DataArray type="Int32" Name="connectivity" format="ascii">
0 1
1 2
2 3

        </DataArray>
        <DataArray type="Int32" Name="offsets" format="ascii">
2 4 6 
        </DataArray>
        <DataArray type="UInt8" Name="types" format="ascii">
3 3 3 
        </DataArray>
      </Cells>
      <PointData>
        <DataArray type="Float64" Name="rho">
          9.55718169e-01 9.57535215e-01 9.59333955e-01 9.61110490e-01 
        </DataArray>
        <DataArray type="Float64" Name="rhou">
          1.61308199e-04 1.30533425e-04 1.33127763e-04 1.55644312e-04 
        </DataArray>
        <DataArray type="Float64" Name="rhov">
          -4.73065020e-05 -5.61820847e-05 -5.35564119e-05 -7.35528807e-05 
        </DataArray>
        <DataArray type="Float64" Name="E">
          2.18189644e+05 2.18620878e+05 2.19046788e+05 2.19466433e+05 
        </DataArray>
      </PointData>
    </Piece>
    <Piece NumberOfPoints="4" NumberOfCells="3">
      <Points>
        <DataArray type="Float64" NumberOfComponents="3" format="ascii">
          8.76444638e-01 1.66228991e-02 0.00000000e+00 
8.86753201e-01 1.53310820e-02 0.00000000e+00 
8.97059798e-01 1.40233757e-02 0.00000000e+00 
9.07364249e-01 1.26988320e-02 0.00000000e+00 

        </DataArray>
      </Points>
      <Cells>
        <DataArray type="Int32" Name="connectivity" format="ascii">
0 1
1 2
2 3

        </DataArray>
        <DataArray type="Int32" Name="offsets" format="ascii">
2 4 6 
        </DataArray>
        <DataArray type="UInt8" Name="types" format="ascii">
3 3 3 
        </DataArray>
      </Cells>
      <PointData>
        <DataArray type="Float64" Name="rho">
          9.61109992e-01 9.62871701e-01 9.64610266e-01 9.66346349e-01 
        </DataArray>
        <DataArray type="Float64" Name="rhou">
          5.33427966e-05 1.59563467e-04 1.02477126e-04 4.90372243e-05 
        </DataArray>
        <DataArray type="Float64" Name="rhov">
          -6.49840462e-05 -6.85295953e-05 -8.99496505e-05 1.97691641e-05 
        </DataArray>
        <DataArray type="Float64" Name="E">
          2.19466319e+05 2.19881335e+05 2.20289774e+05 2.20696308e+05 
        </DataArray>
      </PointData>
    </Piece>
    <Piece NumberOfPoints="4" NumberOfCells="3">
      <Points>
        <DataArray type="Float64" NumberOfComponents="3" format="ascii">
          9.07364249e-01 1.26988320e-02 0.00000000e+00 
9.17666554e-01 1.13577880e-02 0.00000000e+00 
9.27966774e-01 1.00004105e-02 0.00000000e+00 
9.38264549e-01 8.62528384e-03 0.00000000e+00 

        </DataArray>
      </Points>
      <Cells>
        <DataArray type="Int32" Name="connectivity" format="ascii">
0 1
1 2
2 3

        </DataArray>
        <DataArray type="Int32" Name="offsets" format="ascii">
2 4 6 
        </DataArray>
        <DataArray type="UInt8" Name="types" format="ascii">
3 3 3 
        </DataArray>
      </Cells>
      <PointData>
        <DataArray type="Float64" Name="rho">
          9.66351757e-01 9.68038544e-01 9.69756788e-01 9.71317413e-01 
        </DataArray>
        <DataArray type="Float64" Name="rhou">
          9.49431407e-04 -1.68562470e-04 4.52083202e-04 9.12022977e-04 
        </DataArray>
        <DataArray type="Float64" Name="rhov">
          -5.67478683e-05 -1.16421768e-04 -3.67909893e-05 -1.61181135e-03 
        </DataArray>
        <DataArray type="Float64" Name="E">
          2.20697542e+05 2.21091447e+05 2.21491141e+05 2.21853450e+05 
        </DataArray>
      </PointData>
    </Piece>
    <Piece NumberOfPoints="4" NumberOfCells="3">
      <Points>
        <DataArray type="Float64" NumberOfComponents="3" format="ascii">
          9.38264549e-01 8.62528384e-03 0.00000000e+00 
9.48560059e-01 7.23283459e-03 0.00000000e+00 
9.58853185e-01 5.82307298e-03 0.00000000e+00 
9.69143867e-01 4.39538015e-03 0.00000000e+00 

        </DataArray>
      </Points>
      <Cells>
        <DataArray type="Int32" Name="connectivity" format="ascii">
0 1
1 2
2 3

        </DataArray>
        <DataArray type="Int32" Name="offsets" format="ascii">
2 4 6 
        </DataArray>
        <DataArray type="UInt8" Name="types" format="ascii">
3 3 3 
        </DataArray>
      </Cells>
      <PointData>
        <DataArray type="Float64" Name="rho">
          9.71264516e-01 9.73185376e-01 9.74656409e-01 9.77746526e-01 
        </DataArray>
        <DataArray type="Float64" Name="rhou">
          -7.41529702e-03 2.47805637e-03 -3.50226660e-03 -2.09352215e-02 
        </DataArray>
        <DataArray type="Float64" Name="rhov">
          -1.17799786e-03 1.54552764e-04 -1.19925727e-03 2.11645749e-02 
        </DataArray>
        <DataArray type="Float64" Name="E">
          2.21841371e+05 2.22284607e+05 2.22623855e+05 2.23331753e+05 
        </DataArray>
      </PointData>
    </Piece>
    <Piece NumberOfPoints="4" NumberOfCells="3">
      <Points>
        <DataArray type="Float64" NumberOfComponents="3" format="ascii">
          9.69143867e-01 4.39538015e-03 0.00000000e+00 
9.79435980e-01 2.94816052e-03 0.00000000e+00 
9.89725590e-01 1.48259092e-03 0.00000000e+00 
1.00000000e+00 0.00000000e+00 0.00000000e+00 

        </DataArray>
      </Points>
      <Cells>
        <DataArray type="Int32" Name="connectivity" format="ascii">
0 1
1 2
2 3

        </DataArray>
        <DataArray type="Int32" Name="offsets" format="ascii">
2 4 6 
        </DataArray>
        <DataArray type="UInt8" Name="types" format="ascii">
3 3 3 
        </DataArray>
      </Cells>
      <PointData>
        <DataArray type="Float64" Name="rho">
          9.78067956e-01 9.77745307e-01 9.82102446e-01 9.70851382e-01 
        </DataArray>
        <DataArray type="Float64" Name="rhou">
          -1.55047906e-03 -1.09075434e-02 -4.10500419e-02 5.66415690e-01 
        </DataArray>
        <DataArray type="Float64" Name="rhov">
          2.16125480e-02 2.21720084e-03 5.76381045e-02 -1.48879162e-01 
        </DataArray>
        <DataArray type="Float64" Name="E">
          2.23405633e+05 2.23332091e+05 2.24326032e+05 2.21742197e+05 
        </DataArray>
      </PointData>
    </Piece>
    <Piece NumberOfPoints="4" NumberOfCells="3">
      <Points>
        <DataArray type="Float64" NumberOfComponents="3" format="ascii">
          9.69029665e-01 -4.41133138e-03 0.00000000e+00 
9.79355037e-01 -2.95961346e-03 0.00000000e+00 
9.89677846e-01 -1.48943183e-03 0.00000000e+00 
1.00000000e+00 0.00000000e+00 0.00000000e+00 

        </DataArray>
      </Points>
      <Cells>
        <DataArray type="Int32" Name="connectivity" format="ascii">
0 1
1 2
2 3

        </DataArray>
        <DataArray type="Int32" Name="offsets" format="ascii">
2 4 6 
        </DataArray>
        <DataArray type="UInt8" Name="types" format="ascii">
3 3 3 
        </DataArray>
      </Cells>
      <PointData>
        <DataArray type="Float64" Name="rho">
          9.78268676e-01 9.77655142e-01 9.81939918e-01 9.71869402e-01 
        </DataArray>
        <DataArray type="Float64" Name="rhou">
          -8.30142650e-04 -8.58140976e-03 -4.25293285e-02 5.32340716e-01 
        </DataArray>
        <DataArray type="Float64" Name="rhov">
          -2.97687833e-02 3.66663150e-03 -5.83816199e-02 1.73335179e-01 
        </DataArray>
        <DataArray type="Float64" Name="E">
          2.23332082e+05 2.23209753e+05 2.24210015e+05 2.21955040e+05 
        </DataArray>
      </PointData>
    </Piece>
    <Piece NumberOfPoints="4" NumberOfCells="3">
      <Points>
        <DataArray type="Float64" NumberOfComponents="3" format="ascii">
          9.38035965e-01 -8.65600072e-03 0.00000000e+00 
9.48369622e-01 -7.25875143e-03 0.00000000e+00 
9.58700895e-01 -5.84406452e-03 0.00000000e+00 
9.69029665e-01 -4.41133138e-03 0.00000000e+00 

        </DataArray>
      </Points>
      <Cells>
        <DataArray type="Int32" Name="connectivity" format="ascii">
0 1
1 2
2 3

        </DataArray>
        <DataArray type="Int32" Name="offsets" format="ascii">
2 4 6 
        </DataArray>
        <DataArray type="UInt8" Name="types" format="ascii">
3 3 3 
        </DataArray>
      </Cells>
      <PointData>
        <DataArray type="Float64" Name="rho">
          9.72077189e-01 9.73793139e-01 9.75032241e-01 9.77915716e-01 
        </DataArray>
        <DataArray type="Float64" Name="rhou">
          -7.45019532e-03 2.79302737e-03 -2.98546775e-03 -2.02574419e-02 
        </DataArray>
        <DataArray type="Float64" Name="rhov">
          1.31638749e-03 -2.33629336e-04 1.66752114e-03 -2.06716189e-02 
        </DataArray>
        <DataArray type="Float64" Name="E">
          2.21878742e+05 2.22283481e+05 2.22579669e+05 2.23252122e+05 
        </DataArray>
      </PointData>
    </Piece>
    <Piece NumberOfPoints="4" NumberOfCells="3">
      <Points>
        <DataArray type="Float64" NumberOfComponents="3" format="ascii">
          9.07021165e-01 -1.27432076e-02 0.00000000e+00 
9.17361677e-01 -1.13977119e-02 0.00000000e+00 
9.27700043e-01 -1.00357840e-02 0.00000000e+00 
9.38035965e-01 -8.65600072e-03 0.00000000e+00 

        </DataArray>
      </Points>
      <Cells>
        <DataArray type="Int32" Name="connectivity" format="ascii">
0 1
1 2
2 3

        </DataArray>
        <DataArray type="Int32" Name="offsets" format="ascii">
2 4 6 
        </DataArray>
        <DataArray type="UInt8" Name="types" format="ascii">
3 3 3 
        </DataArray>
      </Cells>
      <PointData>
        <DataArray type="Float64" Name="rho">
          9.67830026e-01 9.69292686e-01 9.70794433e-01 9.72132604e-01 
        </DataArray>
        <DataArray type="Float64" Name="rhou">
          1.12701377e-03 -5.11993354e-05 6.24329540e-04 1.10757947e-03 
        </DataArray>
        <DataArray type="Float64" Name="rhov">
          2.58717686e-05 6.17356374e-05 -4.39034470e-05 1.62566920e-03 
        </DataArray>
        <DataArray type="Float64" Name="E">
          2.20867763e+05 2.21215967e+05 2.21572559e+05 2.21891378e+05 
        </DataArray>
      </PointData>
    </Piece>
    <Piece NumberOfPoints="4" NumberOfCells="3">
      <Points>
        <DataArray type="Float64" NumberOfComponents="3" format="ascii">
          8.75986874e-01 -1.66798849e-02 0.00000000e+00 
8.86333704e-01 -1.53839625e-02 0.00000000e+00 
8.96678507e-01 -1.40720531e-02 0.00000000e+00 
9.07021165e-01 -1.27432076e-02 0.00000000e+00 

        </DataArray>
      </Points>
      <Cells>
        <DataArray type="Int32" Name="connectivity" format="ascii">
0 1
1 2
2 3

        </DataArray>
        <DataArray type="Int32" Name="offsets" format="ascii">
2 4 6 
        </DataArray>
        <DataArray type="UInt8" Name="types" format="ascii">
3 3 3 
        </DataArray>
      </Cells>
      <PointData>
        <DataArray type="Float64" Name="rho">
          9.63315604e-01 9.64824739e-01 9.66321064e-01 9.67824198e-01 
        </DataArray>
        <DataArray type="Float64" Name="rhou">
          1.93635596e-04 2.95202233e-04 2.41935512e-04 1.86212635e-04 
        </DataArray>
        <DataArray type="Float64" Name="rhov">
          4.98722802e-05 4.09294360e-05 5.90572421e-05 -5.48217260e-05 
        </DataArray>
        <DataArray type="Float64" Name="E">
          2.19791211e+05 2.20151540e+05 2.20508467e+05 2.20866437e+05 
        </DataArray>
      </PointData>
    </Piece>
    <Piece NumberOfPoints="4" NumberOfCells="3">
      <Points>
        <DataArray type="Float64" NumberOfComponents="3" format="ascii">
          8.44934702e-01 -2.04724707e-02 0.00000000e+00 
8.55287313e-01 -1.92240477e-02 0.00000000e+00 
8.65638077e-01 -1.79597028e-02 0.00000000e+00 
8.75986874e-01 -1.66798849e-02 0.00000000e+00 

        </DataArray>
      </Points>
      <Cells>
        <DataArray type="Int32" Name="connectivity" format="ascii">
0 1
1 2
2 3

        </DataArray>
        <DataArray type="Int32" Name="offsets" format="ascii">
2 4 6 
        </DataArray>
        <DataArray type="UInt8" Name="types" format="ascii">
3 3 3 
        </DataArray>
      </Cells>
      <PointData>
        <DataArray type="Float64" Name="rho">
          9.58758918e-01 9.60283211e-01 9.61805018e-01 9.63316114e-01 
        </DataArray>
        <DataArray type="Float64" Name="rhou">
          3.32561650e-04 2.71658995e-04 2.63571486e-04 3.11117990e-04 
        </DataArray>
        <DataArray type="Float64" Name="rhov">
          2.07144023e-05 4.37711378e-05 3.25949236e-05 5.45728799e-05 
        </DataArray>
        <DataArray type="Float64" Name="E">
          2.18701017e+05 2.19066032e+05 2.19430105e+05 2.19791327e+05 
        </DataArray>
      </PointData>
    </Piece>
    <Piece NumberOfPoints="4" NumberOfCells="3">
      <Points>
        <DataArray type="Float64" NumberOfComponents="3" format="ascii">
          8.13865662e-01 -2.41250079e-02 0.00000000e+00 
8.24223816e-01 -2.29226518e-02 0.00000000e+00 
8.34580123e-01 -2.17050612e-02 0.00000000e+00 
8.44934702e-01 -2.04724707e-02 0.00000000e+00 

        </DataArray>
      </Points>
      <Cells>
        <DataArray type="Int32" Name="connectivity" format="ascii">
0 1
1 2
2 3

        </DataArray>
        <DataArray type="Int32" Name="offsets" format="ascii">
2 4 6 
        </DataArray>
        <DataArray type="UInt8" Name="types" format="ascii">
3 3 3 
        </DataArray>
      </Cells>
      <PointData>
        <DataArray type="Float64" Name="rho">
          9.54135376e-01 9.55681866e-01 9.57223257e-01 9.58758661e-01 
        </DataArray>
        <DataArray type="Float64" Name="rhou">
          2.89165001e-04 2.77726660e-04 2.66168617e-04 2.77539349e-04 
        </DataArray>
        <DataArray type="Float64" Name="rhov">
          3.34048227e-05 3.43103064e-05 2.61677153e-05 1.29930952e-05 
        </DataArray>
        <DataArray type="Float64" Name="E">
          2.17592502e+05 2.17963509e+05 2.18333072e+05 2.18700959e+05 
        </DataArray>
      </PointData>
    </Piece>
    <Piece NumberOfPoints="4" NumberOfCells="3">
      <Points>
        <DataArray type="Float64" NumberOfComponents="3" format="ascii">
          7.82780826e-01 -2.76402626e-02 0.00000000e+00 
7.93144107e-01 -2.64833923e-02 0.00000000e+00 
8.03505778e-01 -2.53117718e-02 0.00000000e+00 
8.13865662e-01 -2.41250079e-02 0.00000000e+00 

        </DataArray>
      </Points>
      <Cells>
        <DataArray type="Int32" Name="connectivity" format="ascii">
0 1
1 2
2 3

        </DataArray>
        <DataArray type="Int32" Name="offsets" format="ascii">
2 4 6 
        </DataArray>
        <DataArray type="UInt8" Name="types" format="ascii">
3 3 3 
        </DataArray>
      </Cells>
      <PointData>
        <DataArray type="Float64" Name="rho">
          9.49461155e-01 9.51024784e-01 9.52583899e-01 9.54135259e-01 
        </DataArray>
        <DataArray type="Float64" Name="rhou">
          2.97144753e-04 2.79154365e-04 2.83884586e-04 2.99396833e-04 
        </DataArray>
        <DataArray type="Float64" Name="rhov">
          3.11502928e-05 2.16888679e-05 1.65253993e-05 3.20632346e-05 
        </DataArray>
        <DataArray type="Float64" Name="E">
          2.16470155e+05 2.16845746e+05 2.17220107e+05 2.17592476e+05 
        </DataArray>
      </PointData>
    </Piece>
    <Piece NumberOfPoints="4" NumberOfCells="3">
      <Points>
        <DataArray type="Float64" NumberOfComponents="3" format="ascii">
          7.51680970e-01 -3.10197193e-02 0.00000000e+00 
7.62049198e-01 -2.99084149e-02 0.00000000e+00 
7.72415876e-01 -2.87819952e-02 0.00000000e+00 
7.82780826e-01 -2.76402626e-02 0.00000000e+00 

        </DataArray>
      </Points>
      <Cells>
        <DataArray type="Int32" Name="connectivity" format="ascii">
0 1
1 2
2 3

        </DataArray>
        <DataArray type="Int32" Name="offsets" format="ascii">
2 4 6 
        </DataArray>
        <DataArray type="UInt8" Name="types" format="ascii">
3 3 3 
        </DataArray>
      </Cells>
      <PointData>
        <DataArray type="Float64" Name="rho">
          9.44748329e-01 9.46323353e-01 9.47894253e-01 9.49461115e-01 
        </DataArray>
        <DataArray type="Float64" Name="rhou">
          2.98426850e-04 2.98160741e-04 2.96836241e-04 2.86127290e-04 
        </DataArray>
        <DataArray type="Float64" Name="rhov">
          2.53909748e-05 1.77038442e-05 2.13702960e-05 2.92368370e-05 
        </DataArray>
        <DataArray type="Float64" Name="E">
          2.15337463e+05 2.15716084e+05 2.16093647e+05 2.16470146e+05 
        </DataArray>
      </PointData>
    </Piece>
    <Piece NumberOfPoints="4" NumberOfCells="3">
      <Points>
        <DataArray type="Float64" NumberOfComponents="3" format="ascii">
          7.20566452e-01 -3.42622213e-02 0.00000000e+00 
7.30939507e-01 -3.31965312e-02 0.00000000e+00 
7.41311073e-01 -3.21157984e-02 0.00000000e+00 
7.51680970e-01 -3.10197193e-02 0.00000000e+00 

        </DataArray>
      </Points>
      <Cells>
        <DataArray type="Int32" Name="connectivity" format="ascii">
0 1
1 2
2 3

        </DataArray>
        <DataArray type="Int32" Name="offsets" format="ascii">
2 4 6 
        </DataArray>
        <DataArray type="UInt8" Name="types" format="ascii">
3 3 3 
        </DataArray>
      </Cells>
      <PointData>
        <DataArray type="Float64" Name="rho">
          9.40013679e-01 9.41594040e-01 9.43172547e-01 9.44748320e-01 
        </DataArray>
        <DataArray type="Float64" Name="rhou">
          3.15772061e-04 3.11797550e-04 3.12659144e-04 3.02443903e-04 
        </DataArray>
        <DataArray type="Float64" Name="rhov">
          2.42190963e-05 1.17448203e-05 1.39716739e-05 2.62817244e-05 
        </DataArray>
        <DataArray type="Float64" Name="E">
          2.14198980e+05 2.14579009e+05 2.14958578e+05 2.15337461e+05 
        </DataArray>
      </PointData>
    </Piece>
    <Piece NumberOfPoints="4" NumberOfCells="3">
      <Points>
        <DataArray type="Float64" NumberOfComponents="3" format="ascii">
          6.89437866e-01 -3.73662710e-02 0.00000000e+00 
6.99815631e-01 -3.63472365e-02 0.00000000e+00 
7.10191846e-01 -3.53125818e-02 0.00000000e+00 
7.20566452e-01 -3.42622213e-02 0.00000000e+00 

        </DataArray>
      </Points>
      <Cells>
        <DataArray type="Int32" Name="connectivity" format="ascii">
0 1
1 2
2 3

        </DataArray>
        <DataArray type="Int32" Name="offsets" format="ascii">
2 4 6 
        </DataArray>
        <DataArray type="UInt8" Name="types" format="ascii">
3 3 3 
        </DataArray>
      </Cells>
      <PointData>
        <DataArray type="Float64" Name="rho">
          9.35283133e-01 9.36858683e-01 9.38435748e-01 9.40013691e-01 
        </DataArray>
        <DataArray type="Float64" Name="rhou">
          3.43640021e-04 3.38269939e-04 3.33771584e-04 3.17509123e-04 
        </DataArray>
        <DataArray type="Float64" Name="rhov">
          1.86507063e-05 9.98697187e-06 1.41154674e-05 2.48004536e-05 
        </DataArray>
        <DataArray type="Float64" Name="E">
          2.13061348e+05 2.13440225e+05 2.13819494e+05 2.14198982e+05 
        </DataArray>
      </PointData>
    </Piece>
    <Piece NumberOfPoints="4" NumberOfCells="3">
      <Points>
        <DataArray type="Float64" NumberOfComponents="3" format="ascii">
          6.58295333e-01 -4.03269380e-02 0.00000000e+00 
6.68677747e-01 -3.93563360e-02 0.00000000e+00 
6.79058611e-01 -3.83694395e-02 0.00000000e+00 
6.89437866e-01 -3.73662710e-02 0.00000000e+00 

        </DataArray>
      </Points>
      <Cells>
        <DataArray type="Int32" Name="connectivity" format="ascii">
0 1
1 2
2 3

        </DataArray>
        <DataArray type="Int32" Name="offsets" format="ascii">
2 4 6 
        </DataArray>
        <DataArray type="UInt8" Name="types" format="ascii">
3 3 3 
        </DataArray>
      </Cells>
      <PointData>
        <DataArray type="Float64" Name="rho">
          9.30589183e-01 9.32148369e-01 9.33713120e-01 9.35283192e-01 
        </DataArray>
        <DataArray type="Float64" Name="rhou">
          3.78517918e-04 3.73969085e-04 3.62397372e-04 3.42313720e-04 
        </DataArray>
        <DataArray type="Float64" Name="rhov">
          1.00279857e-05 5.81796357e-06 1.19740039e-05 1.97021683e-05 
        </DataArray>
        <DataArray type="Float64" Name="E">
          2.11932730e+05 2.12307568e+05 2.12683806e+05 2.13061361e+05 
        </DataArray>
      </PointData>
    </Piece>
    <Piece NumberOfPoints="4" NumberOfCells="3">
      <Points>
        <DataArray type="Float64" NumberOfComponents="3" format="ascii">
          6.27138972e-01 -4.31386717e-02 0.00000000e+00 
6.37525976e-01 -4.22184542e-02 0.00000000e+00 
6.47911429e-01 -4.12811004e-02 0.00000000e+00 
6.58295333e-01 -4.03269380e-02 0.00000000e+00 

        </DataArray>
      </Points>
      <Cells>
        <DataArray type="Int32" Name="connectivity" format="ascii">
0 1
1 2
2 3

        </DataArray>
        <DataArray type="Int32" Name="offsets" format="ascii">
2 4 6 
        </DataArray>
        <DataArray type="UInt8" Name="types" format="ascii">
3 3 3 
        </DataArray>
      </Cells>
      <PointData>
        <DataArray type="Float64" Name="rho">
          9.25973082e-01 9.27499979e-01 9.29039431e-01 9.30589218e-01 
        </DataArray>
        <DataArray type="Float64" Name="rhou">
          4.31298636e-04 4.11874580e-04 3.94651755e-04 3.80222642e-04 
        </DataArray>
        <DataArray type="Float64" Name="rhov">
          9.86277191e-06 7.65343518e-06 7.99487859e-06 1.11271576e-05 
        </DataArray>
        <DataArray type="Float64" Name="E">
          2.10823284e+05 2.11190202e+05 2.11560198e+05 2.11932738e+05 
        </DataArray>
      </PointData>
    </Piece>
    <Piece NumberOfPoints="4" NumberOfCells="3">
      <Points>
        <DataArray type="Float64" NumberOfComponents="3" format="ascii">
          5.95968783e-01 -4.57924642e-02 0.00000000e+00 
6.06360376e-01 -4.49259281e-02 0.00000000e+00 
6.16750479e-01 -4.40412909e-02 0.00000000e+00 
6.27138972e-01 -4.31386717e-02 0.00000000e+00 

        </DataArray>
      </Points>
      <Cells>
        <DataArray type="Int32" Name="connectivity" format="ascii">
0 1
1 2
2 3

        </DataArray>
        <DataArray type="Int32" Name="offsets" format="ascii">
2 4 6 
        </DataArray>
        <DataArray type="UInt8" Name="types" format="ascii">
3 3 3 
        </DataArray>
      </Cells>
      <PointData>
        <DataArray type="Float64" Name="rho">
          9.21490430e-01 9.22967033e-01 9.24461783e-01 9.25973074e-01 
        </DataArray>
        <DataArray type="Float64" Name="rhou">
          4.79201950e-04 4.66290694e-04 4.48328877e-04 4.25067902e-04 
        </DataArray>
        <DataArray type="Float64" Name="rhov">
          7.97475931e-07 -3.72900185e-06 1.93771910e-06 1.07915955e-05 
        </DataArray>
        <DataArray type="Float64" Name="E">
          2.09746468e+05 2.10101097e+05 2.10460166e+05 2.10823282e+05 
        </DataArray>
      </PointData>
    </Piece>
    <Piece NumberOfPoints="4" NumberOfCells="3">
      <Points>
        <DataArray type="Float64" NumberOfComponents="3" format="ascii">
          5.64784765e-01 -4.82786149e-02 0.00000000e+00 
5.75181007e-01 -4.74695377e-02 0.00000000e+00 
5.85575700e-01 -4.66405638e-02 0.00000000e+00 
5.95968783e-01 -4.57924642e-02 0.00000000e+00 

        </DataArray>
      </Points>
      <Cells>
        <DataArray type="Int32" Name="connectivity" format="ascii">
0 1
1 2
2 3

        </DataArray>
        <DataArray type="Int32" Name="offsets" format="ascii">
2 4 6 
        </DataArray>
        <DataArray type="UInt8" Name="types" format="ascii">
3 3 3 
        </DataArray>
      </Cells>
      <PointData>
        <DataArray type="Float64" Name="rho">
          9.17212129e-01 9.18609772e-01 9.20036648e-01 9.21490549e-01 
        </DataArray>
        <DataArray type="Float64" Name="rhou">
          5.62216718e-04 5.33628577e-04 4.98511155e-04 4.73208954e-04 
        </DataArray>
        <DataArray type="Float64" Name="rhov">
          -7.50034065e-06 3.28597860e-06 6.95111872e-06 1.76640811e-06 
        </DataArray>
        <DataArray type="Float64" Name="E">
          2.08719252e+05 2.09054779e+05 2.09397373e+05 2.09746495e+05 
        </DataArray>
      </PointData>
    </Piece>
    <Piece NumberOfPoints="4" NumberOfCells="3">
      <Points>
        <DataArray type="Float64" NumberOfComponents="3" format="ascii">
          5.33586800e-01 -5.05827516e-02 0.00000000e+00 
5.43987691e-01 -4.98356484e-02 0.00000000e+00 
5.54387033e-01 -4.90674041e-02 0.00000000e+00 
5.64784765e-01 -4.82786149e-02 0.00000000e+00 

        </DataArray>
      </Points>
      <Cells>
        <DataArray type="Int32" Name="connectivity" format="ascii">
0 1
1 2
2 3

        </DataArray>
        <DataArray type="Int32" Name="offsets" format="ascii">
2 4 6 
        </DataArray>
        <DataArray type="UInt8" Name="types" format="ascii">
3 3 3 
        </DataArray>
      </Cells>
      <PointData>
        <DataArray type="Float64" Name="rho">
          9.13221849e-01 9.14513294e-01 9.15845343e-01 9.17212085e-01 
        </DataArray>
        <DataArray type="Float64" Name="rhou">
          6.43591573e-04 6.00730347e-04 5.69807345e-04 5.56700660e-04 
        </DataArray>
        <DataArray type="Float64" Name="rhov">
          -2.23845766e-06 -3.62811196e-06 -8.35446591e-06 -7.19729433e-06 
        </DataArray>
        <DataArray type="Float64" Name="E">
          2.07761616e+05 2.08071526e+05 2.08391196e+05 2.08719242e+05 
        </DataArray>
      </PointData>
    </Piece>
    <Piece NumberOfPoints="4" NumberOfCells="3">
      <Points>
        <DataArray type="Float64" NumberOfComponents="3" format="ascii">
          5.02374947e-01 -5.26902266e-02 0.00000000e+00 
5.12780428e-01 -5.20105064e-02 0.00000000e+00 
5.23184419e-01 -5.13078682e-02 0.00000000e+00 
5.33586800e-01 -5.05827516e-02 0.00000000e+00 

        </DataArray>
      </Points>
      <Cells>
        <DataArray type="Int32" Name="connectivity" format="ascii">
0 1
1 2
2 3

        </DataArray>
        <DataArray type="Int32" Name="offsets" format="ascii">
2 4 6 
        </DataArray>
        <DataArray type="UInt8" Name="types" format="ascii">
3 3 3 
        </DataArray>
      </Cells>
      <PointData>
        <DataArray type="Float64" Name="rho">
          9.09628097e-01 9.10775281e-01 9.11975295e-01 9.13221748e-01 
        </DataArray>
        <DataArray type="Float64" Name="rhou">
          7.32503725e-04 6.93483095e-04 6.63785069e-04 6.41046428e-04 
        </DataArray>
        <DataArray type="Float64" Name="rhov">
          -7.84111328e-06 -1.61574013e-05 -1.61123014e-05 -2.87132687e-06 
        </DataArray>
        <DataArray type="Float64" Name="E">
          2.06899281e+05 2.07174547e+05 2.07462483e+05 2.07761593e+05 
        </DataArray>
      </PointData>
    </Piece>
    <Piece NumberOfPoints="4" NumberOfCells="3">
      <Points>
        <DataArray type="Float64" NumberOfComponents="3" format="ascii">
          4.71149325e-01 -5.45825884e-02 0.00000000e+00 
4.81559396e-01 -5.39771840e-02 0.00000000e+00 
4.91967946e-01 -5.33461571e-02 0.00000000e+00 
5.02374947e-01 -5.26902266e-02 0.00000000e+00 

        </DataArray>
      </Points>
      <Cells>
        <DataArray type="Int32" Name="connectivity" format="ascii">
0 1
1 2
2 3

        </DataArray>
        <DataArray type="Int32" Name="offsets" format="ascii">
2 4 6 
        </DataArray>
        <DataArray type="UInt8" Name="types" format="ascii">
3 3 3 
        </DataArray>
      </Cells>
      <PointData>
        <DataArray type="Float64" Name="rho">
          9.06567319e-01 9.07520394e-01 9.08540982e-01 9.09628190e-01 
        </DataArray>
        <DataArray type="Float64" Name="rhou">
          8.47454520e-04 8.22861290e-04 7.72970223e-04 7.11869517e-04 
        </DataArray>
        <DataArray type="Float64" Name="rhov">
          -2.92807746e-05 -2.42305378e-05 -7.55836726e-06 -5.08702566e-06 
        </DataArray>
        <DataArray type="Float64" Name="E">
          2.06164553e+05 2.06393378e+05 2.06638381e+05 2.06899302e+05 
        </DataArray>
      </PointData>
    </Piece>
    <Piece NumberOfPoints="4" NumberOfCells="3">
      <Points>
        <DataArray type="Float64" NumberOfComponents="3" format="ascii">
          4.39910263e-01 -5.62384278e-02 0.00000000e+00 
4.50324744e-01 -5.57143167e-02 0.00000000e+00 
4.60737765e-01 -5.51619194e-02 0.00000000e+00 
4.71149325e-01 -5.45825884e-02 0.00000000e+00 

        </DataArray>
      </Points>
      <Cells>
        <DataArray type="Int32" Name="connectivity" format="ascii">
0 1
1 2
2 3

        </DataArray>
        <DataArray type="Int32" Name="offsets" format="ascii">
2 4 6 
        </DataArray>
        <DataArray type="UInt8" Name="types" format="ascii">
3 3 3 
        </DataArray>
      </Cells>
      <PointData>
        <DataArray type="Float64" Name="rho">
          9.04198226e-01 9.04896721e-01 9.05689944e-01 9.06567398e-01 
        </DataArray>
        <DataArray type="Float64" Name="rhou">
          1.02533433e-03 9.43933936e-04 8.82478542e-04 8.53178852e-04 
        </DataArray>
        <DataArray type="Float64" Name="rhov">
          -1.67203199e-05 -8.90245793e-06 -1.75149027e-05 -2.68364613e-05 
        </DataArray>
        <DataArray type="Float64" Name="E">
          2.05595073e+05 2.05763160e+05 2.05953815e+05 2.06164570e+05 
        </DataArray>
      </PointData>
    </Piece>
    <Piece NumberOfPoints="4" NumberOfCells="3">
      <Points>
        <DataArray type="Float64" NumberOfComponents="3" format="ascii">
          4.08658355e-01 -5.76302819e-02 0.00000000e+00 
4.19077009e-01 -5.71971126e-02 0.00000000e+00 
4.29494321e-01 -5.67329265e-02 0.00000000e+00 
4.39910263e-01 -5.62384278e-02 0.00000000e+00 

        </DataArray>
      </Points>
      <Cells>
        <DataArray type="Int32" Name="connectivity" format="ascii">
0 1
1 2
2 3

        </DataArray>
        <DataArray type="Int32" Name="offsets" format="ascii">
2 4 6 
        </DataArray>
        <DataArray type="UInt8" Name="types" format="ascii">
3 3 3 
        </DataArray>
      </Cells>
      <PointData>
        <DataArray type="Float64" Name="rho">
          9.02724791e-01 9.03104572e-01 9.03599410e-01 9.04197982e-01 
        </DataArray>
        <DataArray type="Float64" Name="rhou">
          1.18745070e-03 1.11499469e-03 1.06139803e-03 1.01965315e-03 
        </DataArray>
        <DataArray type="Float64" Name="rhov">
          -2.03616171e-05 -3.54118917e-05 -3.63426397e-05 -1.68175812e-05 
        </DataArray>
        <DataArray type="Float64" Name="E">
          2.05239231e+05 2.05331281e+05 2.05450762e+05 2.05595018e+05 
        </DataArray>
      </PointData>
    </Piece>
    <Piece NumberOfPoints="4" NumberOfCells="3">
      <Points>
        <DataArray type="Float64" NumberOfComponents="3" format="ascii">
          3.77394795e-01 -5.87291755e-02 0.00000000e+00 
3.87817174e-01 -5.83979115e-02 0.00000000e+00 
3.98238391e-01 -5.80311492e-02 0.00000000e+00 
4.08658355e-01 -5.76302819e-02 0.00000000e+00 

        </DataArray>
      </Points>
      <Cells>
        <DataArray type="Int32" Name="connectivity" format="ascii">
0 1
1 2
2 3

        </DataArray>
        <DataArray type="Int32" Name="offsets" format="ascii">
2 4 6 
        </DataArray>
        <DataArray type="UInt8" Name="types" format="ascii">
3 3 3 
        </DataArray>
      </Cells>
      <PointData>
        <DataArray type="Float64" Name="rho">
          9.02397330e-01 9.02362955e-01 9.02472810e-01 9.02725011e-01 
        </DataArray>
        <DataArray type="Float64" Name="rhou">
          1.44551852e-03 1.36946823e-03 1.26420405e-03 1.15471296e-03 
        </DataArray>
        <DataArray type="Float64" Name="rhov">
          -6.04225432e-05 -3.33486945e-05 -6.17331586e-06 -1.55305475e-05 
        </DataArray>
        <DataArray type="Float64" Name="E">
          2.05156376e+05 2.05149790e+05 2.05177606e+05 2.05239282e+05 
        </DataArray>
      </PointData>
    </Piece>
    <Piece NumberOfPoints="4" NumberOfCells="3">
      <Points>
        <DataArray type="Float64" NumberOfComponents="3" format="ascii">
          3.46121490e-01 -5.95011823e-02 0.00000000e+00 
3.56546819e-01 -5.92821389e-02 0.00000000e+00 
3.66971314e-01 -5.90242445e-02 0.00000000e+00 
3.77394795e-01 -5.87291755e-02 0.00000000e+00 

        </DataArray>
      </Points>
      <Cells>
        <DataArray type="Int32" Name="connectivity" format="ascii">
0 1
1 2
2 3

        </DataArray>
        <DataArray type="Int32" Name="offsets" format="ascii">
2 4 6 
        </DataArray>
        <DataArray type="UInt8" Name="types" format="ascii">
3 3 3 
        </DataArray>
      </Cells>
      <PointData>
        <DataArray type="Float64" Name="rho">
          9.03483838e-01 9.02941313e-01 9.02584577e-01 9.02397426e-01 
        </DataArray>
        <DataArray type="Float64" Name="rhou">
          1.79785722e-03 1.64919051e-03 1.51668780e-03 1.44897314e-03 
        </DataArray>
        <DataArray type="Float64" Name="rhov">
          -9.11295826e-05 -4.97036436e-05 -4.39654444e-05 -5.58319785e-05 
        </DataArray>
        <DataArray type="Float64" Name="E">
          2.05410426e+05 2.05282813e+05 2.05199415e+05 2.05156396e+05 
        </DataArray>
      </PointData>
    </Piece>
    <Piece NumberOfPoints="4" NumberOfCells="3">
      <Points>
        <DataArray type="Float64" NumberOfComponents="3" format="ascii">
          3.14841360e-01 -5.99102043e-02 0.00000000e+00 
3.25268596e-01 -5.98174632e-02 0.00000000e+00 
3.35695356e-01 -5.96801341e-02 0.00000000e+00 
3.46121490e-01 -5.95011823e-02 0.00000000e+00 

        </DataArray>
      </Points>
      <Cells>
        <DataArray type="Int32" Name="connectivity" format="ascii">
0 1
1 2
2 3

        </DataArray>
        <DataArray type="Int32" Name="offsets" format="ascii">
2 4 6 
        </DataArray>
        <DataArray type="UInt8" Name="types" format="ascii">
3 3 3 
        </DataArray>
      </Cells>
      <PointData>
        <DataArray type="Float64" Name="rho">
          9.06357997e-01 9.05163546e-01 9.04214333e-01 9.03483535e-01 
        </DataArray>
        <DataArray type="Float64" Name="rhou">
          2.25766398e-03 2.00674665e-03 1.83807164e-03 1.76067890e-03 
        </DataArray>
        <DataArray type="Float64" Name="rhov">
          -2.05425380e-05 1.69493113e-06 -3.35496168e-05 -9.05082649e-05 
        </DataArray>
        <DataArray type="Float64" Name="E">
          2.06090222e+05 2.05807402e+05 2.05582894e+05 2.05410357e+05 
        </DataArray>
      </PointData>
    </Piece>
    <Piece NumberOfPoints="4" NumberOfCells="3">
      <Points>
        <DataArray type="Float64" NumberOfComponents="3" format="ascii">
          2.83558637e-01 -5.98983802e-02 0.00000000e+00 
2.93986142e-01 -5.99516556e-02 0.00000000e+00 
3.04413795e-01 -5.99554181e-02 0.00000000e+00 
3.14841360e-01 -5.99102043e-02 0.00000000e+00 

        </DataArray>
      </Points>
      <Cells>
        <DataArray type="Int32" Name="connectivity" format="ascii">
0 1
1 2
2 3

        </DataArray>
        <DataArray type="Int32" Name="offsets" format="ascii">
2 4 6 
        </DataArray>
        <DataArray type="UInt8" Name="types" format="ascii">
3 3 3 
        </DataArray>
      </Cells>
      <PointData>
        <DataArray type="Float64" Name="rho">
          9.11494800e-01 9.09515790e-01 9.07808456e-01 9.06357259e-01 
        </DataArray>
        <DataArray type="Float64" Name="rhou">
          2.74179614e-03 2.57494769e-03 2.43600680e-03 2.24830068e-03 
        </DataArray>
        <DataArray type="Float64" Name="rhov">
          -7.60306308e-05 -1.46758786e-04 -1.11063911e-04 -1.38913764e-05 
        </DataArray>
        <DataArray type="Float64" Name="E">
          2.07309298e+05 2.06839218e+05 2.06434038e+05 2.06090054e+05 
        </DataArray>
      </PointData>
    </Piece>
    <Piece NumberOfPoints="4" NumberOfCells="3">
      <Points>
        <DataArray type="Float64" NumberOfComponents="3" format="ascii">
          2.52279758e-01 -5.94130717e-02 0.00000000e+00 
2.62705088e-01 -5.96327744e-02 0.00000000e+00 
2.73131490e-01 -5.97934239e-02 0.00000000e+00 
2.83558637e-01 -5.98983802e-02 0.00000000e+00 

        </DataArray>
      </Points>
      <Cells>
        <DataArray type="Int32" Name="connectivity" format="ascii">
0 1
1 2
2 3

        </DataArray>
        <DataArray type="Int32" Name="offsets" format="ascii">
2 4 6 
        </DataArray>
        <DataArray type="UInt8" Name="types" format="ascii">
3 3 3 
        </DataArray>
      </Cells>
      <PointData>
        <DataArray type="Float64" Name="rho">
          9.19465240e-01 9.16448560e-01 9.13794024e-01 9.11495745e-01 
        </DataArray>
        <DataArray type="Float64" Name="rhou">
          3.72968669e-03 3.42067852e-03 3.07978649e-03 2.72761406e-03 
        </DataArray>
        <DataArray type="Float64" Name="rhov">
          -2.26706706e-04 -1.32788949e-04 -4.37560977e-05 -5.63325141e-05 
        </DataArray>
        <DataArray type="Float64" Name="E">
          2.09203769e+05 2.08486414e+05 2.07855562e+05 2.07309516e+05 
        </DataArray>
      </PointData>
    </Piece>
    <Piece NumberOfPoints="4" NumberOfCells="3">
      <Points>
        <DataArray type="Float64" NumberOfComponents="3" format="ascii">
          2.21014455e-01 -5.83752058e-02 0.00000000e+00 
2.31433928e-01 -5.87876961e-02 0.00000000e+00 
2.41855890e-01 -5.91322705e-02 0.00000000e+00 
2.52279758e-01 -5.94130717e-02 0.00000000e+00 

        </DataArray>
      </Points>
      <Cells>
        <DataArray type="Int32" Name="connectivity" format="ascii">
0 1
1 2
2 3

        </DataArray>
        <DataArray type="Int32" Name="offsets" format="ascii">
2 4 6 
        </DataArray>
        <DataArray type="UInt8" Name="types" format="ascii">
3 3 3 
        </DataArray>
      </Cells>
      <PointData>
        <DataArray type="Float64" Name="rho">
          9.30998573e-01 9.26694108e-01 9.22864794e-01 9.19465425e-01 
        </DataArray>
        <DataArray type="Float64" Name="rhou">
          5.09743129e-03 4.50537125e-03 4.05424907e-03 3.76493988e-03 
        </DataArray>
        <DataArray type="Float64" Name="rhov">
          -3.36446883e-04 -2.29664294e-04 -1.96152336e-04 -2.09769186e-04 
        </DataArray>
        <DataArray type="Float64" Name="E">
          2.11948841e+05 2.10924020e+05 2.10012609e+05 2.09203807e+05 
        </DataArray>
      </PointData>
    </Piece>
    <Piece NumberOfPoints="4" NumberOfCells="3">
      <Points>
        <DataArray type="Float64" NumberOfComponents="3" format="ascii">
          1.89777538e-01 -5.66898957e-02 0.00000000e+00 
2.00185493e-01 -5.73302582e-02 0.00000000e+00 
2.10598081e-01 -5.78906052e-02 0.00000000e+00 
2.21014455e-01 -5.83752058e-02 0.00000000e+00 

        </DataArray>
      </Points>
      <Cells>
        <DataArray type="Int32" Name="connectivity" format="ascii">
0 1
1 2
2 3

        </DataArray>
        <DataArray type="Int32" Name="offsets" format="ascii">
2 4 6 
        </DataArray>
        <DataArray type="UInt8" Name="types" format="ascii">
3 3 3 
        </DataArray>
      </Cells>
      <PointData>
        <DataArray type="Float64" Name="rho">
          9.47127745e-01 9.41166678e-01 9.35809564e-01 9.30997795e-01 
        </DataArray>
        <DataArray type="Float64" Name="rhou">
          7.03181658e-03 6.22556230e-03 5.63692819e-03 5.16130345e-03 
        </DataArray>
        <DataArray type="Float64" Name="rhov">
          -6.29835869e-04 -5.55680882e-04 -4.51789114e-04 -3.23292247e-04 
        </DataArray>
        <DataArray type="Float64" Name="E">
          2.15792393e+05 2.14371308e+05 2.13094739e+05 2.11948662e+05 
        </DataArray>
      </PointData>
    </Piece>
    <Piece NumberOfPoints="4" NumberOfCells="3">
      <Points>
        <DataArray type="Float64" NumberOfComponents="3" format="ascii">
          1.58592433e-01 -5.42296544e-02 0.00000000e+00 
1.68979734e-01 -5.51457107e-02 0.00000000e+00 
1.79375216e-01 -5.59638515e-02 0.00000000e+00 
1.89777538e-01 -5.66898957e-02 0.00000000e+00 

        </DataArray>
      </Points>
      <Cells>
        <DataArray type="Int32" Name="connectivity" format="ascii">
0 1
1 2
2 3

        </DataArray>
        <DataArray type="Int32" Name="offsets" format="ascii">
2 4 6 
        </DataArray>
        <DataArray type="UInt8" Name="types" format="ascii">
3 3 3 
        </DataArray>
      </Cells>
      <PointData>
        <DataArray type="Float64" Name="rho">
          9.69367146e-01 9.61170131e-01 9.53773330e-01 9.47128166e-01 
        </DataArray>
        <DataArray type="Float64" Name="rhou">
          1.00981147e-02 9.02312787e-03 8.07166409e-03 7.10399375e-03 
        </DataArray>
        <DataArray type="Float64" Name="rhov">
          -1.40786634e-03 -1.20818659e-03 -8.66853102e-04 -5.88337338e-04 
        </DataArray>
        <DataArray type="Float64" Name="E">
          2.21098693e+05 2.19141866e+05 2.17377168e+05 2.15792494e+05 
        </DataArray>
      </PointData>
    </Piece>
    <Piece NumberOfPoints="4" NumberOfCells="3">
      <Points>
        <DataArray type="Float64" NumberOfComponents="3" format="ascii">
          1.27497971e-01 -5.08146733e-02 0.00000000e+00 
1.37849152e-01 -5.20747155e-02 0.00000000e+00 
1.48214847e-01 -5.32093942e-02 0.00000000e+00 
1.58592433e-01 -5.42296544e-02 0.00000000e+00 

        </DataArray>
      </Points>
      <Cells>
        <DataArray type="Int32" Name="connectivity" format="ascii">
0 1
1 2
2 3

        </DataArray>
        <DataArray type="Int32" Name="offsets" format="ascii">
2 4 6 
        </DataArray>
        <DataArray type="UInt8" Name="types" format="ascii">
3 3 3 
        </DataArray>
      </Cells>
      <PointData>
        <DataArray type="Float64" Name="rho">
          1.00009697e+00 9.88701076e-01 9.78478172e-01 9.69371236e-01 
        </DataArray>
        <DataArray type="Float64" Name="rhou">
          1.46213505e-02 1.34542540e-02 1.16489174e-02 1.01265530e-02 
        </DataArray>
        <DataArray type="Float64" Name="rhov">
          -2.32022999e-03 -2.05825736e-03 -1.42704987e-03 -1.33481506e-03 
        </DataArray>
        <DataArray type="Float64" Name="E">
          2.28442322e+05 2.25717275e+05 2.23274778e+05 2.21099633e+05 
        </DataArray>
      </PointData>
    </Piece>
    <Piece NumberOfPoints="4" NumberOfCells="3">
      <Points>
        <DataArray type="Float64" NumberOfComponents="3" format="ascii">
          9.65642184e-02 -4.61716652e-02 0.00000000e+00 
1.06852271e-01 -4.78802323e-02 0.00000000e+00 
1.17164567e-01 -4.94215861e-02 0.00000000e+00 
1.27497971e-01 -5.08146733e-02 0.00000000e+00 

        </DataArray>
      </Points>
      <Cells>
        <DataArray type="Int32" Name="connectivity" format="ascii">
0 1
1 2
2 3

        </DataArray>
        <DataArray type="Int32" Name="offsets" format="ascii">
2 4 6 
        </DataArray>
        <DataArray type="UInt8" Name="types" format="ascii">
3 3 3 
        </DataArray>
      </Cells>
      <PointData>
        <DataArray type="Float64" Name="rho">
          1.04338891e+00 1.02715379e+00 1.01275179e+00 1.00010542e+00 
        </DataArray>
        <DataArray type="Float64" Name="rhou">
          2.47715348e-02 1.81788118e-02 1.72923833e-02 1.29574085e-02 
        </DataArray>
        <DataArray type="Float64" Name="rhov">
          -9.55767755e-04 -7.65045434e-04 -1.59473112e-03 -1.63150296e-03 
        </DataArray>
        <DataArray type="Float64" Name="E">
          2.38814683e+05 2.34921088e+05 2.31471501e+05 2.28444363e+05 
        </DataArray>
      </PointData>
    </Piece>
  </UnstructuredGrid>
</VTKFile>
