<?xml version="1.0"?>
<VTKFile type="UnstructuredGrid" version="0.1" byte_order="LittleEndian">
  <UnstructuredGrid>
    <Piece NumberOfPoints="4" NumberOfCells="3">
      <Points>
        <DataArray type="Float64" NumberOfComponents="3" format="ascii">
          9.65642184e-02 -4.61716652e-02 0.00000000e+00 
9.26280916e-02 -4.54656407e-02 0.00000000e+00 
8.86965096e-02 -4.47326750e-02 0.00000000e+00 
8.47706869e-02 -4.39694971e-02 0.00000000e+00 

        </DataArray>
      </Points>
      <Cells>
        <DataArray type="Int32" Name="connectivity" format="ascii">
0 1
1 2
2 3

        </DataArray>
        <DataArray type="Int32" Name="offsets" format="ascii">
2 4 6 
        </DataArray>
        <DataArray type="UInt8" Name="types" format="ascii">
3 3 3 
        </DataArray>
      </Cells>
      <PointData>
        <DataArray type="Float64" Name="rho">
          1.07664639e+00 1.08316629e+00 1.08998331e+00 1.09722199e+00 
        </DataArray>
        <DataArray type="Float64" Name="rhou">
          2.78980460e-02 2.11915925e-02 2.38191523e-02 2.38300378e-02 
        </DataArray>
        <DataArray type="Float64" Name="rhov">
          -2.87641461e-03 -1.74406163e-03 -1.40332464e-03 -1.80739065e-03 
        </DataArray>
        <DataArray type="Float64" Name="E">
          2.47650754e+05 2.49228624e+05 2.50879471e+05 2.52632189e+05 
        </DataArray>
      </PointData>
    </Piece>
    <Piece NumberOfPoints="4" NumberOfCells="3">
      <Points>
        <DataArray type="Float64" NumberOfComponents="3" format="ascii">
          8.47706869e-02 -4.39694971e-02 0.00000000e+00 
8.08513016e-02 -4.31745499e-02 0.00000000e+00 
7.69388378e-02 -4.23462167e-02 0.00000000e+00 
7.30340332e-02 -4.14824970e-02 0.00000000e+00 

        </DataArray>
      </Points>
      <Cells>
        <DataArray type="Int32" Name="connectivity" format="ascii">
0 1
1 2
2 3

        </DataArray>
        <DataArray type="Int32" Name="offsets" format="ascii">
2 4 6 
        </DataArray>
        <DataArray type="UInt8" Name="types" format="ascii">
3 3 3 
        </DataArray>
      </Cells>
      <PointData>
        <DataArray type="Float64" Name="rho">
          1.09722098e+00 1.10486563e+00 1.11294990e+00 1.12154329e+00 
        </DataArray>
        <DataArray type="Float64" Name="rhou">
          2.39524030e-02 2.30368207e-02 2.15161894e-02 1.98391387e-02 
        </DataArray>
        <DataArray type="Float64" Name="rhov">
          -1.61388266e-03 -1.45437212e-03 -5.92622611e-04 5.44989439e-04 
        </DataArray>
        <DataArray type="Float64" Name="E">
          2.52631963e+05 2.54484309e+05 2.56443837e+05 2.58527336e+05 
        </DataArray>
      </PointData>
    </Piece>
    <Piece NumberOfPoints="4" NumberOfCells="3">
      <Points>
        <DataArray type="Float64" NumberOfComponents="3" format="ascii">
          7.30340332e-02 -4.14824970e-02 0.00000000e+00 
6.91377968e-02 -4.05809283e-02 0.00000000e+00 
6.52511865e-02 -3.96387354e-02 0.00000000e+00 
6.13753870e-02 -3.86530459e-02 0.00000000e+00 

        </DataArray>
      </Points>
      <Cells>
        <DataArray type="Int32" Name="connectivity" format="ascii">
0 1
1 2
2 3

        </DataArray>
        <DataArray type="Int32" Name="offsets" format="ascii">
2 4 6 
        </DataArray>
        <DataArray type="UInt8" Name="types" format="ascii">
3 3 3 
        </DataArray>
      </Cells>
      <PointData>
        <DataArray type="Float64" Name="rho">
          1.12154382e+00 1.13072617e+00 1.14053087e+00 1.15101702e+00 
        </DataArray>
        <DataArray type="Float64" Name="rhou">
          1.99446719e-02 1.74858081e-02 1.32762838e-02 7.61996657e-03 
        </DataArray>
        <DataArray type="Float64" Name="rhov">
          3.80438591e-04 1.11685439e-03 3.18705134e-03 6.35804909e-03 
        </DataArray>
        <DataArray type="Float64" Name="E">
          2.58527482e+05 2.60755263e+05 2.63134993e+05 2.65681631e+05 
        </DataArray>
      </PointData>
    </Piece>
    <Piece NumberOfPoints="4" NumberOfCells="3">
      <Points>
        <DataArray type="Float64" NumberOfComponents="3" format="ascii">
          6.13753870e-02 -3.86530459e-02 0.00000000e+00 
5.75117208e-02 -3.76208089e-02 0.00000000e+00 
5.36618084e-02 -3.65384258e-02 0.00000000e+00 
4.98276278e-02 -3.54015976e-02 0.00000000e+00 

        </DataArray>
      </Points>
      <Cells>
        <DataArray type="Int32" Name="connectivity" format="ascii">
0 1
1 2
2 3

        </DataArray>
        <DataArray type="Int32" Name="offsets" format="ascii">
2 4 6 
        </DataArray>
        <DataArray type="UInt8" Name="types" format="ascii">
3 3 3 
        </DataArray>
      </Cells>
      <PointData>
        <DataArray type="Float64" Name="rho">
          1.15101726e+00 1.16226400e+00 1.17435716e+00 1.18742654e+00 
        </DataArray>
        <DataArray type="Float64" Name="rhou">
          7.55829890e-03 4.24968071e-04 -8.84944531e-03 -2.04765391e-02 
        </DataArray>
        <DataArray type="Float64" Name="rhov">
          6.12808902e-03 1.08712757e-02 1.89864873e-02 3.04856705e-02 
        </DataArray>
        <DataArray type="Float64" Name="E">
          2.65681691e+05 2.68416185e+05 2.71358334e+05 2.74540436e+05 
        </DataArray>
      </PointData>
    </Piece>
    <Piece NumberOfPoints="4" NumberOfCells="3">
      <Points>
        <DataArray type="Float64" NumberOfComponents="3" format="ascii">
          4.98276278e-02 -3.54015976e-02 0.00000000e+00 
4.60115410e-02 -3.42054628e-02 0.00000000e+00 
4.22164090e-02 -3.29444520e-02 0.00000000e+00 
3.84457745e-02 -3.16120051e-02 0.00000000e+00 

        </DataArray>
      </Points>
      <Cells>
        <DataArray type="Int32" Name="connectivity" format="ascii">
0 1
1 2
2 3

        </DataArray>
        <DataArray type="Int32" Name="offsets" format="ascii">
2 4 6 
        </DataArray>
        <DataArray type="UInt8" Name="types" format="ascii">
3 3 3 
        </DataArray>
      </Cells>
      <PointData>
        <DataArray type="Float64" Name="rho">
          1.18742641e+00 1.20156798e+00 1.21689593e+00 1.23359869e+00 
        </DataArray>
        <DataArray type="Float64" Name="rhou">
          -2.09454600e-02 -3.50278451e-02 -5.39265313e-02 -7.65746109e-02 
        </DataArray>
        <DataArray type="Float64" Name="rhov">
          3.02717597e-02 4.70184458e-02 7.47653879e-02 1.15341721e-01 
        </DataArray>
        <DataArray type="Float64" Name="E">
          2.74540373e+05 2.77989088e+05 2.81730981e+05 2.85813806e+05 
        </DataArray>
      </PointData>
    </Piece>
    <Piece NumberOfPoints="4" NumberOfCells="3">
      <Points>
        <DataArray type="Float64" NumberOfComponents="3" format="ascii">
          3.84457745e-02 -3.16120051e-02 0.00000000e+00 
3.47041376e-02 -3.02002355e-02 0.00000000e+00 
3.09973080e-02 -2.86995135e-02 0.00000000e+00 
2.73328498e-02 -2.70981900e-02 0.00000000e+00 

        </DataArray>
      </Points>
      <Cells>
        <DataArray type="Int32" Name="connectivity" format="ascii">
0 1
1 2
2 3

        </DataArray>
        <DataArray type="Int32" Name="offsets" format="ascii">
2 4 6 
        </DataArray>
        <DataArray type="UInt8" Name="types" format="ascii">
3 3 3 
        </DataArray>
      </Cells>
      <PointData>
        <DataArray type="Float64" Name="rho">
          1.23359880e+00 1.25186129e+00 1.27187854e+00 1.29401441e+00 
        </DataArray>
        <DataArray type="Float64" Name="rhou">
          -7.75441180e-02 -1.01271563e-01 -1.29439223e-01 -1.54385186e-01 
        </DataArray>
        <DataArray type="Float64" Name="rhov">
          1.15253878e-01 1.70938634e-01 2.57134097e-01 3.77934325e-01 
        </DataArray>
        <DataArray type="Float64" Name="E">
          2.85813699e+05 2.90288383e+05 2.95200382e+05 3.00642466e+05 
        </DataArray>
      </PointData>
    </Piece>
    <Piece NumberOfPoints="4" NumberOfCells="3">
      <Points>
        <DataArray type="Float64" NumberOfComponents="3" format="ascii">
          2.73328498e-02 -2.70981900e-02 0.00000000e+00 
2.37206947e-02 -2.53822580e-02 0.00000000e+00 
2.01744195e-02 -2.35341713e-02 0.00000000e+00 
1.67132635e-02 -2.15314496e-02 0.00000000e+00 

        </DataArray>
      </Points>
      <Cells>
        <DataArray type="Int32" Name="connectivity" format="ascii">
0 1
1 2
2 3

        </DataArray>
        <DataArray type="Int32" Name="offsets" format="ascii">
2 4 6 
        </DataArray>
        <DataArray type="UInt8" Name="types" format="ascii">
3 3 3 
        </DataArray>
      </Cells>
      <PointData>
        <DataArray type="Float64" Name="rho">
          1.29401944e+00 1.31860816e+00 1.34611023e+00 1.37782365e+00 
        </DataArray>
        <DataArray type="Float64" Name="rhou">
          -1.54865488e-01 -1.67744867e-01 -1.51130090e-01 -5.41632854e-02 
        </DataArray>
        <DataArray type="Float64" Name="rhov">
          3.78683426e-01 5.31005728e-01 7.43236279e-01 9.64287399e-01 
        </DataArray>
        <DataArray type="Float64" Name="E">
          3.00643414e+05 3.06709136e+05 3.13504605e+05 3.21349202e+05 
        </DataArray>
      </PointData>
    </Piece>
    <Piece NumberOfPoints="4" NumberOfCells="3">
      <Points>
        <DataArray type="Float64" NumberOfComponents="3" format="ascii">
          1.67132635e-02 -2.15314496e-02 0.00000000e+00 
1.33649679e-02 -1.93456318e-02 0.00000000e+00 
1.01706637e-02 -1.69409402e-02 0.00000000e+00 
7.19343964e-03 -1.42731192e-02 0.00000000e+00 

        </DataArray>
      </Points>
      <Cells>
        <DataArray type="Int32" Name="connectivity" format="ascii">
0 1
1 2
2 3

        </DataArray>
        <DataArray type="Int32" Name="offsets" format="ascii">
2 4 6 
        </DataArray>
        <DataArray type="UInt8" Name="types" format="ascii">
3 3 3 
        </DataArray>
      </Cells>
      <PointData>
        <DataArray type="Float64" Name="rho">
          1.37771607e+00 1.41639192e+00 1.46235042e+00 1.52596490e+00 
        </DataArray>
        <DataArray type="Float64" Name="rhou">
          -3.13994427e-02 1.18397225e-01 4.61175960e-01 8.84625454e-01 
        </DataArray>
        <DataArray type="Float64" Name="rhov">
          9.25746254e-01 1.13200598e+00 1.08280239e+00 5.38800023e-01 
        </DataArray>
        <DataArray type="Float64" Name="E">
          3.21324438e+05 3.30891808e+05 3.42251611e+05 3.57858384e+05 
        </DataArray>
      </PointData>
    </Piece>
    <Piece NumberOfPoints="4" NumberOfCells="3">
      <Points>
        <DataArray type="Float64" NumberOfComponents="3" format="ascii">
          7.19343964e-03 -1.42731192e-02 0.00000000e+00 
4.53082798e-03 -1.12927537e-02 0.00000000e+00 
2.33371323e-03 -7.95678515e-03 0.00000000e+00 
8.10639584e-04 -4.26717056e-03 0.00000000e+00 

        </DataArray>
      </Points>
      <Cells>
        <DataArray type="Int32" Name="connectivity" format="ascii">
0 1
1 2
2 3

        </DataArray>
        <DataArray type="Int32" Name="offsets" format="ascii">
2 4 6 
        </DataArray>
        <DataArray type="UInt8" Name="types" format="ascii">
3 3 3 
        </DataArray>
      </Cells>
      <PointData>
        <DataArray type="Float64" Name="rho">
          1.52648218e+00 1.59965919e+00 1.68774805e+00 1.75648427e+00 
        </DataArray>
        <DataArray type="Float64" Name="rhou">
          8.10197607e-01 9.44191396e-01 2.75985648e-01 -1.26089598e+00 
        </DataArray>
        <DataArray type="Float64" Name="rhov">
          6.35943221e-01 -4.92374544e-01 -1.72218352e+00 -1.83626911e+00 
        </DataArray>
        <DataArray type="Float64" Name="E">
          3.57985868e+05 3.75970572e+05 3.97496386e+05 4.14316122e+05 
        </DataArray>
      </PointData>
    </Piece>
    <Piece NumberOfPoints="4" NumberOfCells="3">
      <Points>
        <DataArray type="Float64" NumberOfComponents="3" format="ascii">
          8.10639584e-04 -4.26717056e-03 0.00000000e+00 
1.91366620e-04 -3.27450951e-04 0.00000000e+00 
6.40850572e-04 3.63462302e-03 0.00000000e+00 
2.03182548e-03 7.37539819e-03 0.00000000e+00 

        </DataArray>
      </Points>
      <Cells>
        <DataArray type="Int32" Name="connectivity" format="ascii">
0 1
1 2
2 3

        </DataArray>
        <DataArray type="Int32" Name="offsets" format="ascii">
2 4 6 
        </DataArray>
        <DataArray type="UInt8" Name="types" format="ascii">
3 3 3 
        </DataArray>
      </Cells>
      <PointData>
        <DataArray type="Float64" Name="rho">
          1.75492350e+00 1.78107324e+00 1.73343119e+00 1.64376986e+00 
        </DataArray>
        <DataArray type="Float64" Name="rhou">
          -1.13547262e+00 -1.89185086e+00 -8.68976240e-01 7.28841374e-01 
        </DataArray>
        <DataArray type="Float64" Name="rhov">
          -1.98778521e+00 3.25188237e-01 1.86642004e+00 1.54271916e+00 
        </DataArray>
        <DataArray type="Float64" Name="E">
          4.13935847e+05 4.20250128e+05 4.08529877e+05 3.86490222e+05 
        </DataArray>
      </PointData>
    </Piece>
    <Piece NumberOfPoints="4" NumberOfCells="3">
      <Points>
        <DataArray type="Float64" NumberOfComponents="3" format="ascii">
          2.03182548e-03 7.37539819e-03 0.00000000e+00 
4.13410179e-03 1.07714310e-02 0.00000000e+00 
6.73249783e-03 1.38076087e-02 0.00000000e+00 
9.66598373e-03 1.65232457e-02 0.00000000e+00 

        </DataArray>
      </Points>
      <Cells>
        <DataArray type="Int32" Name="connectivity" format="ascii">
0 1
1 2
2 3

        </DataArray>
        <DataArray type="Int32" Name="offsets" format="ascii">
2 4 6 
        </DataArray>
        <DataArray type="UInt8" Name="types" format="ascii">
3 3 3 
        </DataArray>
      </Cells>
      <PointData>
        <DataArray type="Float64" Name="rho">
          1.64415866e+00 1.53999540e+00 1.45297528e+00 1.38776871e+00 
        </DataArray>
        <DataArray type="Float64" Name="rhou">
          6.98762684e-01 1.15620904e+00 8.60092235e-01 3.99459084e-01 
        </DataArray>
        <DataArray type="Float64" Name="rhov">
          1.77060772e+00 9.94681457e-02 -1.04585316e+00 -1.38836055e+00 
        </DataArray>
        <DataArray type="Float64" Name="E">
          3.86588291e+05 3.61127659e+05 3.39816912e+05 3.23763531e+05 
        </DataArray>
      </PointData>
    </Piece>
    <Piece NumberOfPoints="4" NumberOfCells="3">
      <Points>
        <DataArray type="Float64" NumberOfComponents="3" format="ascii">
          9.66598373e-03 1.65232457e-02 0.00000000e+00 
1.28298048e-02 1.89677756e-02 0.00000000e+00 
1.61561389e-02 2.11867876e-02 0.00000000e+00 
1.96009967e-02 2.32173651e-02 0.00000000e+00 

        </DataArray>
      </Points>
      <Cells>
        <DataArray type="Int32" Name="connectivity" format="ascii">
0 1
1 2
2 3

        </DataArray>
        <DataArray type="Int32" Name="offsets" format="ascii">
2 4 6 
        </DataArray>
        <DataArray type="UInt8" Name="types" format="ascii">
3 3 3 
        </DataArray>
      </Cells>
      <PointData>
        <DataArray type="Float64" Name="rho">
          1.38756468e+00 1.33661368e+00 1.29884721e+00 1.26567948e+00 
        </DataArray>
        <DataArray type="Float64" Name="rhou">
          4.09170836e-01 3.66840982e-03 -1.85330359e-01 -2.12307036e-01 
        </DataArray>
        <DataArray type="Float64" Name="rhov">
          -1.41224942e+00 -1.31950545e+00 -9.97093223e-01 -6.75475131e-01 
        </DataArray>
        <DataArray type="Float64" Name="E">
          3.23711380e+05 3.11163706e+05 3.01810766e+05 2.93619299e+05 
        </DataArray>
      </PointData>
    </Piece>
    <Piece NumberOfPoints="4" NumberOfCells="3">
      <Points>
        <DataArray type="Float64" NumberOfComponents="3" format="ascii">
          1.96009967e-02 2.32173651e-02 0.00000000e+00 
2.31348258e-02 2.50891000e-02 0.00000000e+00 
2.67372411e-02 2.68253610e-02 0.00000000e+00 
3.03938854e-02 2.84444261e-02 0.00000000e+00 

        </DataArray>
      </Points>
      <Cells>
        <DataArray type="Int32" Name="connectivity" format="ascii">
0 1
1 2
2 3

        </DataArray>
        <DataArray type="Int32" Name="offsets" format="ascii">
2 4 6 
        </DataArray>
        <DataArray type="UInt8" Name="types" format="ascii">
3 3 3 
        </DataArray>
      </Cells>
      <PointData>
        <DataArray type="Float64" Name="rho">
          1.26574424e+00 1.23766657e+00 1.21259680e+00 1.18993438e+00 
        </DataArray>
        <DataArray type="Float64" Name="rhou">
          -2.25509440e-01 -2.16917413e-01 -1.75054930e-01 -1.35015129e-01 
        </DataArray>
        <DataArray type="Float64" Name="rhov">
          -6.94043049e-01 -4.43621322e-01 -2.56330016e-01 -1.42524028e-01 
        </DataArray>
        <DataArray type="Float64" Name="E">
          2.93634542e+05 2.86716647e+05 2.80560388e+05 2.75010165e+05 
        </DataArray>
      </PointData>
    </Piece>
    <Piece NumberOfPoints="4" NumberOfCells="3">
      <Points>
        <DataArray type="Float64" NumberOfComponents="3" format="ascii">
          3.03938854e-02 2.84444261e-02 0.00000000e+00 
3.40943485e-02 2.99607720e-02 0.00000000e+00 
3.78307216e-02 3.13864015e-02 0.00000000e+00 
4.15969416e-02 3.27312648e-02 0.00000000e+00 

        </DataArray>
      </Points>
      <Cells>
        <DataArray type="Int32" Name="connectivity" format="ascii">
0 1
1 2
2 3

        </DataArray>
        <DataArray type="Int32" Name="offsets" format="ascii">
2 4 6 
        </DataArray>
        <DataArray type="UInt8" Name="types" format="ascii">
3 3 3 
        </DataArray>
      </Cells>
      <PointData>
        <DataArray type="Float64" Name="rho">
          1.18993234e+00 1.16944421e+00 1.15086264e+00 1.13394272e+00 
        </DataArray>
        <DataArray type="Float64" Name="rhou">
          -1.33164296e-01 -9.39116309e-02 -6.15909309e-02 -3.86617322e-02 
        </DataArray>
        <DataArray type="Float64" Name="rhov">
          -1.41043249e-01 -6.33259680e-02 -1.47554740e-02 1.19489380e-02 
        </DataArray>
        <DataArray type="Float64" Name="E">
          2.75009938e+05 2.70009246e+05 2.65483506e+05 2.61368804e+05 
        </DataArray>
      </PointData>
    </Piece>
    <Piece NumberOfPoints="4" NumberOfCells="3">
      <Points>
        <DataArray type="Float64" NumberOfComponents="3" format="ascii">
          4.15969416e-02 3.27312648e-02 0.00000000e+00 
4.53883260e-02 3.40034962e-02 0.00000000e+00 
4.92011942e-02 3.52098532e-02 0.00000000e+00 
5.30325845e-02 3.63560505e-02 0.00000000e+00 

        </DataArray>
      </Points>
      <Cells>
        <DataArray type="Int32" Name="connectivity" format="ascii">
0 1
1 2
2 3

        </DataArray>
        <DataArray type="Int32" Name="offsets" format="ascii">
2 4 6 
        </DataArray>
        <DataArray type="UInt8" Name="types" format="ascii">
3 3 3 
        </DataArray>
      </Cells>
      <PointData>
        <DataArray type="Float64" Name="rho">
          1.13394333e+00 1.11848939e+00 1.10432802e+00 1.09130014e+00 
        </DataArray>
        <DataArray type="Float64" Name="rhou">
          -3.74916001e-02 -1.77077352e-02 -2.91624244e-03 6.91826018e-03 
        </DataArray>
        <DataArray type="Float64" Name="rhov">
          1.18653289e-02 2.67225104e-02 3.43704098e-02 3.63514254e-02 
        </DataArray>
        <DataArray type="Float64" Name="E">
          2.61369027e+05 2.57618145e+05 2.54185235e+05 2.51030071e+05 
        </DataArray>
      </PointData>
    </Piece>
    <Piece NumberOfPoints="4" NumberOfCells="3">
      <Points>
        <DataArray type="Float64" NumberOfComponents="3" format="ascii">
          5.30325845e-02 3.63560505e-02 0.00000000e+00 
5.68800643e-02 3.74470428e-02 0.00000000e+00 
6.07415959e-02 3.84872220e-02 0.00000000e+00 
6.46155030e-02 3.94803248e-02 0.00000000e+00 

        </DataArray>
      </Points>
      <Cells>
        <DataArray type="Int32" Name="connectivity" format="ascii">
0 1
1 2
2 3

        </DataArray>
        <DataArray type="Int32" Name="offsets" format="ascii">
2 4 6 
        </DataArray>
        <DataArray type="UInt8" Name="types" format="ascii">
3 3 3 
        </DataArray>
      </Cells>
      <PointData>
        <DataArray type="Float64" Name="rho">
          1.09130089e+00 1.07931270e+00 1.06824280e+00 1.05795072e+00 
        </DataArray>
        <DataArray type="Float64" Name="rhou">
          7.27163093e-03 1.47720950e-02 2.07609273e-02 2.50735762e-02 
        </DataArray>
        <DataArray type="Float64" Name="rhov">
          3.60386568e-02 3.50286027e-02 3.35354577e-02 3.07793608e-02 
        </DataArray>
        <DataArray type="Float64" Name="E">
          2.51030244e+05 2.48130062e+05 2.45453768e+05 2.42967078e+05 
        </DataArray>
      </PointData>
    </Piece>
    <Piece NumberOfPoints="4" NumberOfCells="3">
      <Points>
        <DataArray type="Float64" NumberOfComponents="3" format="ascii">
          6.46155030e-02 3.94803248e-02 0.00000000e+00 
6.85004294e-02 4.04294394e-02 0.00000000e+00 
7.23951608e-02 4.13374715e-02 0.00000000e+00 
7.62986317e-02 4.22072113e-02 0.00000000e+00 

        </DataArray>
      </Points>
      <Cells>
        <DataArray type="Int32" Name="connectivity" format="ascii">
0 1
1 2
2 3

        </DataArray>
        <DataArray type="Int32" Name="offsets" format="ascii">
2 4 6 
        </DataArray>
        <DataArray type="UInt8" Name="types" format="ascii">
3 3 3 
        </DataArray>
      </Cells>
      <PointData>
        <DataArray type="Float64" Name="rho">
          1.05795147e+00 1.04839245e+00 1.03948408e+00 1.03116995e+00 
        </DataArray>
        <DataArray type="Float64" Name="rhou">
          2.49067228e-02 2.72857366e-02 2.87507738e-02 2.91974384e-02 
        </DataArray>
        <DataArray type="Float64" Name="rhov">
          3.04823074e-02 2.69036980e-02 2.38135921e-02 2.07481134e-02 
        </DataArray>
        <DataArray type="Float64" Name="E">
          2.42967236e+05 2.40659345e+05 2.38509442e+05 2.36503329e+05 
        </DataArray>
      </PointData>
    </Piece>
    <Piece NumberOfPoints="4" NumberOfCells="3">
      <Points>
        <DataArray type="Float64" NumberOfComponents="3" format="ascii">
          7.62986317e-02 4.22072113e-02 0.00000000e+00 
8.02098960e-02 4.30411920e-02 0.00000000e+00 
8.41281936e-02 4.38414887e-02 0.00000000e+00 
8.80528912e-02 4.46097627e-02 0.00000000e+00 

        </DataArray>
      </Points>
      <Cells>
        <DataArray type="Int32" Name="connectivity" format="ascii">
0 1
1 2
2 3

        </DataArray>
        <DataArray type="Int32" Name="offsets" format="ascii">
2 4 6 
        </DataArray>
        <DataArray type="UInt8" Name="types" format="ascii">
3 3 3 
        </DataArray>
      </Cells>
      <PointData>
        <DataArray type="Float64" Name="rho">
          1.03116910e+00 1.02340096e+00 1.01609004e+00 1.00918916e+00 
        </DataArray>
        <DataArray type="Float64" Name="rhou">
          2.90709523e-02 2.93846402e-02 2.93960268e-02 2.85667346e-02 
        </DataArray>
        <DataArray type="Float64" Name="rhov">
          2.05873582e-02 1.81899239e-02 1.58152876e-02 1.32306523e-02 
        </DataArray>
        <DataArray type="Float64" Name="E">
          2.36503113e+05 2.34629397e+05 2.32866426e+05 2.31202714e+05 
        </DataArray>
      </PointData>
    </Piece>
    <Piece NumberOfPoints="4" NumberOfCells="3">
      <Points>
        <DataArray type="Float64" NumberOfComponents="3" format="ascii">
          8.80528912e-02 4.46097627e-02 0.00000000e+00 
9.19835642e-02 4.53475714e-02 0.00000000e+00 
9.59195644e-02 4.60564308e-02 0.00000000e+00 
9.98597518e-02 4.67394181e-02 0.00000000e+00 

        </DataArray>
      </Points>
      <Cells>
        <DataArray type="Int32" Name="connectivity" format="ascii">
0 1
1 2
2 3

        </DataArray>
        <DataArray type="Int32" Name="offsets" format="ascii">
2 4 6 
        </DataArray>
        <DataArray type="UInt8" Name="types" format="ascii">
3 3 3 
        </DataArray>
      </Cells>
      <PointData>
        <DataArray type="Float64" Name="rho">
          1.00918947e+00 1.00268997e+00 9.96577263e-01 9.90758907e-01 
        </DataArray>
        <DataArray type="Float64" Name="rhou">
          2.83366285e-02 2.71802540e-02 2.37694903e-02 2.86532463e-02 
        </DataArray>
        <DataArray type="Float64" Name="rhov">
          1.33943926e-02 1.08658917e-02 9.33778262e-03 8.89703816e-03 
        </DataArray>
        <DataArray type="Float64" Name="E">
          2.31202787e+05 2.29636284e+05 2.28162661e+05 2.26760346e+05 
        </DataArray>
      </PointData>
    </Piece>
    <Piece NumberOfPoints="4" NumberOfCells="3">
      <Points>
        <DataArray type="Float64" NumberOfComponents="3" format="ascii">
          9.98597518e-02 4.67394181e-02 0.00000000e+00 
1.10118888e-01 4.83862534e-02 0.00000000e+00 
1.20400399e-01 4.98730615e-02 0.00000000e+00 
1.30701363e-01 5.12186773e-02 0.00000000e+00 

        </DataArray>
      </Points>
      <Cells>
        <DataArray type="Int32" Name="connectivity" format="ascii">
0 1
1 2
2 3

        </DataArray>
        <DataArray type="Int32" Name="offsets" format="ascii">
2 4 6 
        </DataArray>
        <DataArray type="UInt8" Name="types" format="ascii">
3 3 3 
        </DataArray>
      </Cells>
      <PointData>
        <DataArray type="Float64" Name="rho">
          9.90684726e-01 9.77007523e-01 9.65046018e-01 9.54579551e-01 
        </DataArray>
        <DataArray type="Float64" Name="rhou">
          2.63729780e-02 1.83207956e-02 1.63674903e-02 1.29525213e-02 
        </DataArray>
        <DataArray type="Float64" Name="rhov">
          7.60595583e-03 4.39967345e-03 3.93314818e-03 3.23990354e-03 
        </DataArray>
        <DataArray type="Float64" Name="E">
          2.26743463e+05 2.23447598e+05 2.20564142e+05 2.18039183e+05 
        </DataArray>
      </PointData>
    </Piece>
    <Piece NumberOfPoints="4" NumberOfCells="3">
      <Points>
        <DataArray type="Float64" NumberOfComponents="3" format="ascii">
          1.30701363e-01 5.12186773e-02 0.00000000e+00 
1.41019106e-01 5.24347536e-02 0.00000000e+00 
1.51350453e-01 5.35292812e-02 0.00000000e+00 
1.61692888e-01 5.45137413e-02 0.00000000e+00 

        </DataArray>
      </Points>
      <Cells>
        <DataArray type="Int32" Name="connectivity" format="ascii">
0 1
1 2
2 3

        </DataArray>
        <DataArray type="Int32" Name="offsets" format="ascii">
2 4 6 
        </DataArray>
        <DataArray type="UInt8" Name="types" format="ascii">
3 3 3 
        </DataArray>
      </Cells>
      <PointData>
        <DataArray type="Float64" Name="rho">
          9.54575889e-01 9.45185295e-01 9.36852968e-01 9.29476809e-01 
        </DataArray>
        <DataArray type="Float64" Name="rhou">
          1.43965631e-02 1.25668427e-02 1.05035544e-02 9.25470884e-03 
        </DataArray>
        <DataArray type="Float64" Name="rhov">
          3.76691124e-03 2.76278556e-03 1.91088117e-03 1.69508123e-03 
        </DataArray>
        <DataArray type="Float64" Name="E">
          2.18038299e+05 2.15772436e+05 2.13760111e+05 2.11976067e+05 
        </DataArray>
      </PointData>
    </Piece>
    <Piece NumberOfPoints="4" NumberOfCells="3">
      <Points>
        <DataArray type="Float64" NumberOfComponents="3" format="ascii">
          1.61692888e-01 5.45137413e-02 0.00000000e+00 
1.72044471e-01 5.53969070e-02 0.00000000e+00 
1.82403773e-01 5.61845005e-02 0.00000000e+00 
1.92769483e-01 5.68825118e-02 0.00000000e+00 

        </DataArray>
      </Points>
      <Cells>
        <DataArray type="Int32" Name="connectivity" format="ascii">
0 1
1 2
2 3

        </DataArray>
        <DataArray type="Int32" Name="offsets" format="ascii">
2 4 6 
        </DataArray>
        <DataArray type="UInt8" Name="types" format="ascii">
3 3 3 
        </DataArray>
      </Cells>
      <PointData>
        <DataArray type="Float64" Name="rho">
          9.29474334e-01 9.22867540e-01 9.16948028e-01 9.11673349e-01 
        </DataArray>
        <DataArray type="Float64" Name="rhou">
          9.29205863e-03 8.16677385e-03 7.11803855e-03 6.19244466e-03 
        </DataArray>
        <DataArray type="Float64" Name="rhov">
          1.74869012e-03 1.33375199e-03 8.96824306e-04 6.22270934e-04 
        </DataArray>
        <DataArray type="Float64" Name="E">
          2.11975507e+05 2.10375487e+05 2.08939869e+05 2.07658092e+05 
        </DataArray>
      </PointData>
    </Piece>
    <Piece NumberOfPoints="4" NumberOfCells="3">
      <Points>
        <DataArray type="Float64" NumberOfComponents="3" format="ascii">
          1.92769483e-01 5.68825118e-02 0.00000000e+00 
2.03140482e-01 5.74972220e-02 0.00000000e+00 
2.13515818e-01 5.80338500e-02 0.00000000e+00 
2.23894730e-01 5.84962890e-02 0.00000000e+00 

        </DataArray>
      </Points>
      <Cells>
        <DataArray type="Int32" Name="connectivity" format="ascii">
0 1
1 2
2 3

        </DataArray>
        <DataArray type="Int32" Name="offsets" format="ascii">
2 4 6 
        </DataArray>
        <DataArray type="UInt8" Name="types" format="ascii">
3 3 3 
        </DataArray>
      </Cells>
      <PointData>
        <DataArray type="Float64" Name="rho">
          9.11672645e-01 9.06973541e-01 9.02776702e-01 8.99035282e-01 
        </DataArray>
        <DataArray type="Float64" Name="rhou">
          6.23180459e-03 5.48472396e-03 4.90596766e-03 4.42472536e-03 
        </DataArray>
        <DataArray type="Float64" Name="rhov">
          6.66198773e-04 5.53021417e-04 4.07587830e-04 2.54316846e-04 
        </DataArray>
        <DataArray type="Float64" Name="E">
          2.07657928e+05 2.06513309e+05 2.05488525e+05 2.04572386e+05 
        </DataArray>
      </PointData>
    </Piece>
    <Piece NumberOfPoints="4" NumberOfCells="3">
      <Points>
        <DataArray type="Float64" NumberOfComponents="3" format="ascii">
          2.23894730e-01 5.84962890e-02 0.00000000e+00 
2.34276548e-01 5.88882305e-02 0.00000000e+00 
2.44660646e-01 5.92139624e-02 0.00000000e+00 
2.55046517e-01 5.94772622e-02 0.00000000e+00 

        </DataArray>
      </Points>
      <Cells>
        <DataArray type="Int32" Name="connectivity" format="ascii">
0 1
1 2
2 3

        </DataArray>
        <DataArray type="Int32" Name="offsets" format="ascii">
2 4 6 
        </DataArray>
        <DataArray type="UInt8" Name="types" format="ascii">
3 3 3 
        </DataArray>
      </Cells>
      <PointData>
        <DataArray type="Float64" Name="rho">
          8.99035950e-01 8.95720770e-01 8.92800346e-01 8.90230905e-01 
        </DataArray>
        <DataArray type="Float64" Name="rhou">
          4.43262782e-03 3.87170354e-03 3.46392113e-03 3.22020672e-03 
        </DataArray>
        <DataArray type="Float64" Name="rhov">
          2.68875198e-04 1.75462140e-04 1.48677293e-04 1.39635413e-04 
        </DataArray>
        <DataArray type="Float64" Name="E">
          2.04572539e+05 2.03757951e+05 2.03037345e+05 2.02400401e+05 
        </DataArray>
      </PointData>
    </Piece>
    <Piece NumberOfPoints="4" NumberOfCells="3">
      <Points>
        <DataArray type="Float64" NumberOfComponents="3" format="ascii">
          2.55046517e-01 5.94772622e-02 0.00000000e+00 
2.65433758e-01 5.96804135e-02 0.00000000e+00 
2.75821954e-01 5.98256700e-02 0.00000000e+00 
2.86210775e-01 5.99167012e-02 0.00000000e+00 

        </DataArray>
      </Points>
      <Cells>
        <DataArray type="Int32" Name="connectivity" format="ascii">
0 1
1 2
2 3

        </DataArray>
        <DataArray type="Int32" Name="offsets" format="ascii">
2 4 6 
        </DataArray>
        <DataArray type="UInt8" Name="types" format="ascii">
3 3 3 
        </DataArray>
      </Cells>
      <PointData>
        <DataArray type="Float64" Name="rho">
          8.90230927e-01 8.87976574e-01 8.86026547e-01 8.84374559e-01 
        </DataArray>
        <DataArray type="Float64" Name="rhou">
          3.21288435e-03 2.89728102e-03 2.56827553e-03 2.26952320e-03 
        </DataArray>
        <DataArray type="Float64" Name="rhov">
          1.51731964e-04 4.26438472e-05 -2.46850147e-05 1.52269934e-05 
        </DataArray>
        <DataArray type="Float64" Name="E">
          2.02400411e+05 2.01838713e+05 2.01349653e+05 2.00931559e+05 
        </DataArray>
      </PointData>
    </Piece>
    <Piece NumberOfPoints="4" NumberOfCells="3">
      <Points>
        <DataArray type="Float64" NumberOfComponents="3" format="ascii">
          2.86210775e-01 5.99167012e-02 0.00000000e+00 
2.96599895e-01 5.99572174e-02 0.00000000e+00 
3.06989133e-01 5.99487796e-02 0.00000000e+00 
3.17378193e-01 5.98919280e-02 0.00000000e+00 

        </DataArray>
      </Points>
      <Cells>
        <DataArray type="Int32" Name="connectivity" format="ascii">
0 1
1 2
2 3

        </DataArray>
        <DataArray type="Int32" Name="offsets" format="ascii">
2 4 6 
        </DataArray>
        <DataArray type="UInt8" Name="types" format="ascii">
3 3 3 
        </DataArray>
      </Cells>
      <PointData>
        <DataArray type="Float64" Name="rho">
          8.84373366e-01 8.82980661e-01 8.81809054e-01 8.80856113e-01 
        </DataArray>
        <DataArray type="Float64" Name="rhou">
          2.29117388e-03 2.16608831e-03 2.02621862e-03 1.81415839e-03 
        </DataArray>
        <DataArray type="Float64" Name="rhov">
          3.32233284e-05 7.46207400e-05 1.59592843e-05 -6.95497348e-05 
        </DataArray>
        <DataArray type="Float64" Name="E">
          2.00931286e+05 2.00575077e+05 2.00271997e+05 2.00021453e+05 
        </DataArray>
      </PointData>
    </Piece>
    <Piece NumberOfPoints="4" NumberOfCells="3">
      <Points>
        <DataArray type="Float64" NumberOfComponents="3" format="ascii">
          3.17378193e-01 5.98919280e-02 0.00000000e+00 
3.27766895e-01 5.97884916e-02 0.00000000e+00 
3.38155061e-01 5.96415885e-02 0.00000000e+00 
3.48542601e-01 5.94538599e-02 0.00000000e+00 

        </DataArray>
      </Points>
      <Cells>
        <DataArray type="Int32" Name="connectivity" format="ascii">
0 1
1 2
2 3

        </DataArray>
        <DataArray type="Int32" Name="offsets" format="ascii">
2 4 6 
        </DataArray>
        <DataArray type="UInt8" Name="types" format="ascii">
3 3 3 
        </DataArray>
      </Cells>
      <PointData>
        <DataArray type="Float64" Name="rho">
          8.80856562e-01 8.80122712e-01 8.79598445e-01 8.79257351e-01 
        </DataArray>
        <DataArray type="Float64" Name="rhou">
          1.85036115e-03 1.61721014e-03 1.48285671e-03 1.43295872e-03 
        </DataArray>
        <DataArray type="Float64" Name="rhov">
          -6.17432839e-05 -6.54850993e-05 -2.23417241e-05 1.48815882e-05 
        </DataArray>
        <DataArray type="Float64" Name="E">
          2.00021554e+05 1.99823579e+05 1.99675901e+05 1.99572420e+05 
        </DataArray>
      </PointData>
    </Piece>
    <Piece NumberOfPoints="4" NumberOfCells="3">
      <Points>
        <DataArray type="Float64" NumberOfComponents="3" format="ascii">
          3.48542601e-01 5.94538599e-02 0.00000000e+00 
3.58929336e-01 5.92265576e-02 0.00000000e+00 
3.69315147e-01 5.89610897e-02 0.00000000e+00 
3.79699975e-01 5.86590059e-02 0.00000000e+00 

        </DataArray>
      </Points>
      <Cells>
        <DataArray type="Int32" Name="connectivity" format="ascii">
0 1
1 2
2 3

        </DataArray>
        <DataArray type="Int32" Name="offsets" format="ascii">
2 4 6 
        </DataArray>
        <DataArray type="UInt8" Name="types" format="ascii">
3 3 3 
        </DataArray>
      </Cells>
      <PointData>
        <DataArray type="Float64" Name="rho">
          8.79257665e-01 8.79080694e-01 8.79067859e-01 8.79204598e-01 
        </DataArray>
        <DataArray type="Float64" Name="rhou">
          1.45159547e-03 1.30133880e-03 1.19172715e-03 1.13878381e-03 
        </DataArray>
        <DataArray type="Float64" Name="rhov">
          1.04690404e-05 -2.27145450e-05 -1.90935023e-05 -9.30590777e-06 
        </DataArray>
        <DataArray type="Float64" Name="E">
          1.99572493e+05 1.99508825e+05 1.99484937e+05 1.99497486e+05 
        </DataArray>
      </PointData>
    </Piece>
    <Piece NumberOfPoints="4" NumberOfCells="3">
      <Points>
        <DataArray type="Float64" NumberOfComponents="3" format="ascii">
          3.79699975e-01 5.86590059e-02 0.00000000e+00 
3.90083700e-01 5.83211333e-02 0.00000000e+00 
4.00466233e-01 5.79482466e-02 0.00000000e+00 
4.10847515e-01 5.75418957e-02 0.00000000e+00 

        </DataArray>
      </Points>
      <Cells>
        <DataArray type="Int32" Name="connectivity" format="ascii">
0 1
1 2
2 3

        </DataArray>
        <DataArray type="Int32" Name="offsets" format="ascii">
2 4 6 
        </DataArray>
        <DataArray type="UInt8" Name="types" format="ascii">
3 3 3 
        </DataArray>
      </Cells>
      <PointData>
        <DataArray type="Float64" Name="rho">
          8.79204616e-01 8.79479342e-01 8.79888500e-01 8.80431595e-01 
        </DataArray>
        <DataArray type="Float64" Name="rhou">
          1.13011329e-03 1.05465889e-03 9.60862752e-04 8.68245002e-04 
        </DataArray>
        <DataArray type="Float64" Name="rhov">
          -6.78174694e-06 -3.34862709e-05 -5.05401101e-05 -3.04165599e-05 
        </DataArray>
        <DataArray type="Float64" Name="E">
          1.99497492e+05 1.99543830e+05 1.99623148e+05 1.99735302e+05 
        </DataArray>
      </PointData>
    </Piece>
    <Piece NumberOfPoints="4" NumberOfCells="3">
      <Points>
        <DataArray type="Float64" NumberOfComponents="3" format="ascii">
          4.10847515e-01 5.75418957e-02 0.00000000e+00 
4.21227485e-01 5.71038015e-02 0.00000000e+00 
4.31606144e-01 5.66351078e-02 0.00000000e+00 
4.41983402e-01 5.61364293e-02 0.00000000e+00 

        </DataArray>
      </Points>
      <Cells>
        <DataArray type="Int32" Name="connectivity" format="ascii">
0 1
1 2
2 3

        </DataArray>
        <DataArray type="Int32" Name="offsets" format="ascii">
2 4 6 
        </DataArray>
        <DataArray type="UInt8" Name="types" format="ascii">
3 3 3 
        </DataArray>
      </Cells>
      <PointData>
        <DataArray type="Float64" Name="rho">
          8.80431332e-01 8.81095014e-01 8.81869892e-01 8.82748095e-01 
        </DataArray>
        <DataArray type="Float64" Name="rhou">
          8.92018389e-04 8.33687607e-04 7.93595940e-04 7.52967505e-04 
        </DataArray>
        <DataArray type="Float64" Name="rhov">
          -2.66696530e-05 -1.13253706e-05 -1.05230536e-05 -2.72962617e-05 
        </DataArray>
        <DataArray type="Float64" Name="E">
          1.99735242e+05 1.99877154e+05 2.00046671e+05 2.00241985e+05 
        </DataArray>
      </PointData>
    </Piece>
    <Piece NumberOfPoints="4" NumberOfCells="3">
      <Points>
        <DataArray type="Float64" NumberOfComponents="3" format="ascii">
          4.41983402e-01 5.61364293e-02 0.00000000e+00 
4.52359200e-01 5.56085743e-02 0.00000000e+00 
4.62733537e-01 5.50529286e-02 0.00000000e+00 
4.73106444e-01 5.44707514e-02 0.00000000e+00 

        </DataArray>
      </Points>
      <Cells>
        <DataArray type="Int32" Name="connectivity" format="ascii">
0 1
1 2
2 3

        </DataArray>
        <DataArray type="Int32" Name="offsets" format="ascii">
2 4 6 
        </DataArray>
        <DataArray type="UInt8" Name="types" format="ascii">
3 3 3 
        </DataArray>
      </Cells>
      <PointData>
        <DataArray type="Float64" Name="rho">
          8.82748306e-01 8.83728675e-01 8.84806467e-01 8.85972695e-01 
        </DataArray>
        <DataArray type="Float64" Name="rhou">
          7.49846543e-04 6.82867507e-04 6.40423685e-04 6.20413335e-04 
        </DataArray>
        <DataArray type="Float64" Name="rhov">
          -2.71360473e-05 -2.44718600e-05 -1.01421308e-05 2.84360812e-06 
        </DataArray>
        <DataArray type="Float64" Name="E">
          2.00242033e+05 2.00462852e+05 2.00708058e+05 2.00975569e+05 
        </DataArray>
      </PointData>
    </Piece>
    <Piece NumberOfPoints="4" NumberOfCells="3">
      <Points>
        <DataArray type="Float64" NumberOfComponents="3" format="ascii">
          4.73106444e-01 5.44707514e-02 0.00000000e+00 
4.83477861e-01 5.38627952e-02 0.00000000e+00 
4.93847787e-01 5.32294959e-02 0.00000000e+00 
5.04216135e-01 5.25716618e-02 0.00000000e+00 

        </DataArray>
      </Points>
      <Cells>
        <DataArray type="Int32" Name="connectivity" format="ascii">
0 1
1 2
2 3

        </DataArray>
        <DataArray type="Int32" Name="offsets" format="ascii">
2 4 6 
        </DataArray>
        <DataArray type="UInt8" Name="types" format="ascii">
3 3 3 
        </DataArray>
      </Cells>
      <PointData>
        <DataArray type="Float64" Name="rho">
          8.85972678e-01 8.87220137e-01 8.88543317e-01 8.89942119e-01 
        </DataArray>
        <DataArray type="Float64" Name="rhou">
          6.10286047e-04 5.93702653e-04 5.56427556e-04 5.08048765e-04 
        </DataArray>
        <DataArray type="Float64" Name="rhov">
          4.95839052e-06 2.55791595e-07 -1.04394389e-05 -3.64926766e-06 
        </DataArray>
        <DataArray type="Float64" Name="E">
          2.00975566e+05 2.01263701e+05 2.01571175e+05 2.01897912e+05 
        </DataArray>
      </PointData>
    </Piece>
    <Piece NumberOfPoints="4" NumberOfCells="3">
      <Points>
        <DataArray type="Float64" NumberOfComponents="3" format="ascii">
          5.04216135e-01 5.25716618e-02 0.00000000e+00 
5.14582992e-01 5.18903993e-02 0.00000000e+00 
5.24948359e-01 5.11864908e-02 0.00000000e+00 
5.35312176e-01 5.04603274e-02 0.00000000e+00 

        </DataArray>
      </Points>
      <Cells>
        <DataArray type="Int32" Name="connectivity" format="ascii">
0 1
1 2
2 3

        </DataArray>
        <DataArray type="Int32" Name="offsets" format="ascii">
2 4 6 
        </DataArray>
        <DataArray type="UInt8" Name="types" format="ascii">
3 3 3 
        </DataArray>
      </Cells>
      <PointData>
        <DataArray type="Float64" Name="rho">
          8.89942000e-01 8.91409668e-01 8.92940141e-01 8.94528339e-01 
        </DataArray>
        <DataArray type="Float64" Name="rhou">
          5.21186162e-04 4.97116686e-04 4.82958099e-04 4.67494234e-04 
        </DataArray>
        <DataArray type="Float64" Name="rhov">
          -1.07285149e-06 9.46880570e-06 1.09716565e-05 1.29142825e-06 
        </DataArray>
        <DataArray type="Float64" Name="E">
          2.01897885e+05 2.02242286e+05 2.02602911e+05 2.02978536e+05 
        </DataArray>
      </PointData>
    </Piece>
    <Piece NumberOfPoints="4" NumberOfCells="3">
      <Points>
        <DataArray type="Float64" NumberOfComponents="3" format="ascii">
          5.35312176e-01 5.04603274e-02 0.00000000e+00 
5.45674443e-01 4.97124642e-02 0.00000000e+00 
5.56035221e-01 4.89437394e-02 0.00000000e+00 
5.66394389e-01 4.81546782e-02 0.00000000e+00 

        </DataArray>
      </Points>
      <Cells>
        <DataArray type="Int32" Name="connectivity" format="ascii">
0 1
1 2
2 3

        </DataArray>
        <DataArray type="Int32" Name="offsets" format="ascii">
2 4 6 
        </DataArray>
        <DataArray type="UInt8" Name="types" format="ascii">
3 3 3 
        </DataArray>
      </Cells>
      <PointData>
        <DataArray type="Float64" Name="rho">
          8.94528417e-01 8.96173621e-01 8.97871203e-01 8.99616091e-01 
        </DataArray>
        <DataArray type="Float64" Name="rhou">
          4.60732993e-04 4.34347949e-04 4.20814370e-04 4.17108261e-04 
        </DataArray>
        <DataArray type="Float64" Name="rhov">
          1.24138326e-06 8.39726907e-06 1.50507224e-05 1.52380092e-05 
        </DataArray>
        <DataArray type="Float64" Name="E">
          2.02978554e+05 2.03368932e+05 2.03772917e+05 2.04189255e+05 
        </DataArray>
      </PointData>
    </Piece>
    <Piece NumberOfPoints="4" NumberOfCells="3">
      <Points>
        <DataArray type="Float64" NumberOfComponents="3" format="ascii">
          5.66394389e-01 4.81546782e-02 0.00000000e+00 
5.76752067e-01 4.73455116e-02 0.00000000e+00 
5.87108195e-01 4.65166979e-02 0.00000000e+00 
5.97462773e-01 4.56690118e-02 0.00000000e+00 

        </DataArray>
      </Points>
      <Cells>
        <DataArray type="Int32" Name="connectivity" format="ascii">
0 1
1 2
2 3

        </DataArray>
        <DataArray type="Int32" Name="offsets" format="ascii">
2 4 6 
        </DataArray>
        <DataArray type="UInt8" Name="types" format="ascii">
3 3 3 
        </DataArray>
      </Cells>
      <PointData>
        <DataArray type="Float64" Name="rho">
          8.99616147e-01 9.01405192e-01 9.03237445e-01 9.05110586e-01 
        </DataArray>
        <DataArray type="Float64" Name="rhou">
          4.16074912e-04 3.96994002e-04 3.76788372e-04 3.64475982e-04 
        </DataArray>
        <DataArray type="Float64" Name="rhov">
          1.54614683e-05 7.23390311e-06 6.97722403e-06 1.42867104e-05 
        </DataArray>
        <DataArray type="Float64" Name="E">
          2.04189268e+05 2.04617129e+05 2.05056167e+05 2.05505708e+05 
        </DataArray>
      </PointData>
    </Piece>
    <Piece NumberOfPoints="4" NumberOfCells="3">
      <Points>
        <DataArray type="Float64" NumberOfComponents="3" format="ascii">
          5.97462773e-01 4.56690118e-02 0.00000000e+00 
6.07815862e-01 4.48031016e-02 0.00000000e+00 
6.18167400e-01 4.39192392e-02 0.00000000e+00 
6.28517449e-01 4.30175588e-02 0.00000000e+00 

        </DataArray>
      </Points>
      <Cells>
        <DataArray type="Int32" Name="connectivity" format="ascii">
0 1
1 2
2 3

        </DataArray>
        <DataArray type="Int32" Name="offsets" format="ascii">
2 4 6 
        </DataArray>
        <DataArray type="UInt8" Name="types" format="ascii">
3 3 3 
        </DataArray>
      </Cells>
      <PointData>
        <DataArray type="Float64" Name="rho">
          9.05110485e-01 9.07020602e-01 9.08963759e-01 9.10939287e-01 
        </DataArray>
        <DataArray type="Float64" Name="rhou">
          3.60845786e-04 3.60625556e-04 3.53816633e-04 3.37047424e-04 
        </DataArray>
        <DataArray type="Float64" Name="rhov">
          1.55260987e-05 1.94158441e-05 1.33863444e-05 7.30017293e-06 
        </DataArray>
        <DataArray type="Float64" Name="E">
          2.05505686e+05 2.05964680e+05 2.06432065e+05 2.06907501e+05 
        </DataArray>
      </PointData>
    </Piece>
    <Piece NumberOfPoints="4" NumberOfCells="3">
      <Points>
        <DataArray type="Float64" NumberOfComponents="3" format="ascii">
          6.28517449e-01 4.30175588e-02 0.00000000e+00 
6.38865948e-01 4.20984775e-02 0.00000000e+00 
6.49212897e-01 4.11624312e-02 0.00000000e+00 
6.59558356e-01 4.02097441e-02 0.00000000e+00 

        </DataArray>
      </Points>
      <Cells>
        <DataArray type="Int32" Name="connectivity" format="ascii">
0 1
1 2
2 3

        </DataArray>
        <DataArray type="Int32" Name="offsets" format="ascii">
2 4 6 
        </DataArray>
        <DataArray type="UInt8" Name="types" format="ascii">
3 3 3 
        </DataArray>
      </Cells>
      <PointData>
        <DataArray type="Float64" Name="rho">
          9.10939281e-01 9.12946093e-01 9.14981776e-01 9.17044770e-01 
        </DataArray>
        <DataArray type="Float64" Name="rhou">
          3.38192434e-04 3.28823673e-04 3.22015362e-04 3.13023312e-04 
        </DataArray>
        <DataArray type="Float64" Name="rhov">
          8.79658536e-06 1.05033738e-05 9.49372006e-06 7.59518531e-06 
        </DataArray>
        <DataArray type="Float64" Name="E">
          2.06907500e+05 2.07390542e+05 2.07880426e+05 2.08376575e+05 
        </DataArray>
      </PointData>
    </Piece>
    <Piece NumberOfPoints="4" NumberOfCells="3">
      <Points>
        <DataArray type="Float64" NumberOfComponents="3" format="ascii">
          6.59558356e-01 4.02097441e-02 0.00000000e+00 
6.69902325e-01 3.92407738e-02 0.00000000e+00 
6.80244744e-01 3.82556282e-02 0.00000000e+00 
6.90585554e-01 3.72543521e-02 0.00000000e+00 

        </DataArray>
      </Points>
      <Cells>
        <DataArray type="Int32" Name="connectivity" format="ascii">
0 1
1 2
2 3

        </DataArray>
        <DataArray type="Int32" Name="offsets" format="ascii">
2 4 6 
        </DataArray>
        <DataArray type="UInt8" Name="types" format="ascii">
3 3 3 
        </DataArray>
      </Cells>
      <PointData>
        <DataArray type="Float64" Name="rho">
          9.17044744e-01 9.19134170e-01 9.21246989e-01 9.23383663e-01 
        </DataArray>
        <DataArray type="Float64" Name="rhou">
          3.06778968e-04 3.09729468e-04 3.05201835e-04 2.89083451e-04 
        </DataArray>
        <DataArray type="Float64" Name="rhov">
          9.29555805e-06 1.10046157e-05 3.74981266e-06 -2.10575717e-06 
        </DataArray>
        <DataArray type="Float64" Name="E">
          2.08376569e+05 2.08878547e+05 2.09385426e+05 2.09897063e+05 
        </DataArray>
      </PointData>
    </Piece>
    <Piece NumberOfPoints="4" NumberOfCells="3">
      <Points>
        <DataArray type="Float64" NumberOfComponents="3" format="ascii">
          6.90585554e-01 3.72543521e-02 0.00000000e+00 
7.00924933e-01 3.62373814e-02 0.00000000e+00 
7.11262703e-01 3.52048986e-02 0.00000000e+00 
7.21598923e-01 3.41568366e-02 0.00000000e+00 

        </DataArray>
      </Points>
      <Cells>
        <DataArray type="Int32" Name="connectivity" format="ascii">
0 1
1 2
2 3

        </DataArray>
        <DataArray type="Int32" Name="offsets" format="ascii">
2 4 6 
        </DataArray>
        <DataArray type="UInt8" Name="types" format="ascii">
3 3 3 
        </DataArray>
      </Cells>
      <PointData>
        <DataArray type="Float64" Name="rho">
          9.23383589e-01 9.25544028e-01 9.27724905e-01 9.29926383e-01 
        </DataArray>
        <DataArray type="Float64" Name="rhou">
          2.85768075e-04 2.87427362e-04 2.87980700e-04 2.73073352e-04 
        </DataArray>
        <DataArray type="Float64" Name="rhov">
          -2.05208005e-07 5.46055537e-06 -6.84779706e-07 -9.65299020e-06 
        </DataArray>
        <DataArray type="Float64" Name="E">
          2.09897046e+05 2.10413167e+05 2.10932768e+05 2.11455636e+05 
        </DataArray>
      </PointData>
    </Piece>
    <Piece NumberOfPoints="4" NumberOfCells="3">
      <Points>
        <DataArray type="Float64" NumberOfComponents="3" format="ascii">
          7.21598923e-01 3.41568366e-02 0.00000000e+00 
7.31933594e-01 3.30936089e-02 0.00000000e+00 
7.42266715e-01 3.20154354e-02 0.00000000e+00 
7.52598286e-01 3.09220124e-02 0.00000000e+00 

        </DataArray>
      </Points>
      <Cells>
        <DataArray type="Int32" Name="connectivity" format="ascii">
0 1
1 2
2 3

        </DataArray>
        <DataArray type="Int32" Name="offsets" format="ascii">
2 4 6 
        </DataArray>
        <DataArray type="UInt8" Name="types" format="ascii">
3 3 3 
        </DataArray>
      </Cells>
      <PointData>
        <DataArray type="Float64" Name="rho">
          9.29926347e-01 9.32149481e-01 9.34390463e-01 9.36649144e-01 
        </DataArray>
        <DataArray type="Float64" Name="rhou">
          2.67148861e-04 2.69662979e-04 2.73851564e-04 2.63053767e-04 
        </DataArray>
        <DataArray type="Float64" Name="rhov">
          -7.90302825e-06 1.12239184e-06 -3.75758711e-06 -1.43352534e-05 
        </DataArray>
        <DataArray type="Float64" Name="E">
          2.11455628e+05 2.11981757e+05 2.12510046e+05 2.13040235e+05 
        </DataArray>
      </PointData>
    </Piece>
    <Piece NumberOfPoints="4" NumberOfCells="3">
      <Points>
        <DataArray type="Float64" NumberOfComponents="3" format="ascii">
          7.52598286e-01 3.09220124e-02 0.00000000e+00 
7.62928188e-01 2.98135038e-02 0.00000000e+00 
7.73256481e-01 2.86899786e-02 0.00000000e+00 
7.83583105e-01 2.75512449e-02 0.00000000e+00 

        </DataArray>
      </Points>
      <Cells>
        <DataArray type="Int32" Name="connectivity" format="ascii">
0 1
1 2
2 3

        </DataArray>
        <DataArray type="Int32" Name="offsets" format="ascii">
2 4 6 
        </DataArray>
        <DataArray type="UInt8" Name="types" format="ascii">
3 3 3 
        </DataArray>
      </Cells>
      <PointData>
        <DataArray type="Float64" Name="rho">
          9.36649138e-01 9.38926730e-01 9.41220313e-01 9.43529976e-01 
        </DataArray>
        <DataArray type="Float64" Name="rhou">
          2.57174445e-04 2.59578048e-04 2.61288716e-04 2.51788014e-04 
        </DataArray>
        <DataArray type="Float64" Name="rhov">
          -1.25869344e-05 -8.30068020e-06 -1.36893784e-05 -2.10945256e-05 
        </DataArray>
        <DataArray type="Float64" Name="E">
          2.13040233e+05 2.13572383e+05 2.14105632e+05 2.14639817e+05 
        </DataArray>
      </PointData>
    </Piece>
    <Piece NumberOfPoints="4" NumberOfCells="3">
      <Points>
        <DataArray type="Float64" NumberOfComponents="3" format="ascii">
          7.83583105e-01 2.75512449e-02 0.00000000e+00 
7.93908060e-01 2.63975188e-02 0.00000000e+00 
8.04231405e-01 2.52291560e-02 0.00000000e+00 
8.14553022e-01 2.40457114e-02 0.00000000e+00 

        </DataArray>
      </Points>
      <Cells>
        <DataArray type="Int32" Name="connectivity" format="ascii">
0 1
1 2
2 3

        </DataArray>
        <DataArray type="Int32" Name="offsets" format="ascii">
2 4 6 
        </DataArray>
        <DataArray type="UInt8" Name="types" format="ascii">
3 3 3 
        </DataArray>
      </Cells>
      <PointData>
        <DataArray type="Float64" Name="rho">
          9.43529994e-01 9.45856039e-01 9.48196795e-01 9.50549365e-01 
        </DataArray>
        <DataArray type="Float64" Name="rhou">
          2.56302252e-04 2.44184173e-04 2.51983398e-04 2.64160518e-04 
        </DataArray>
        <DataArray type="Float64" Name="rhov">
          -2.18127796e-05 -1.49463334e-05 -1.34428366e-05 -2.84153661e-05 
        </DataArray>
        <DataArray type="Float64" Name="E">
          2.14639821e+05 2.15174848e+05 2.15710195e+05 2.16245084e+05 
        </DataArray>
      </PointData>
    </Piece>
    <Piece NumberOfPoints="4" NumberOfCells="3">
      <Points>
        <DataArray type="Float64" NumberOfComponents="3" format="ascii">
          8.14553022e-01 2.40457114e-02 0.00000000e+00 
8.24872792e-01 2.28467938e-02 0.00000000e+00 
8.35190892e-01 2.16327831e-02 0.00000000e+00 
8.45507145e-01 2.04038676e-02 0.00000000e+00 

        </DataArray>
      </Points>
      <Cells>
        <DataArray type="Int32" Name="connectivity" format="ascii">
0 1
1 2
2 3

        </DataArray>
        <DataArray type="Int32" Name="offsets" format="ascii">
2 4 6 
        </DataArray>
        <DataArray type="UInt8" Name="types" format="ascii">
3 3 3 
        </DataArray>
      </Cells>
      <PointData>
        <DataArray type="Float64" Name="rho">
          9.50549463e-01 9.52915829e-01 9.55294991e-01 9.57685389e-01 
        </DataArray>
        <DataArray type="Float64" Name="rhou">
          2.51202613e-04 2.43276747e-04 2.38196967e-04 2.50527335e-04 
        </DataArray>
        <DataArray type="Float64" Name="rhov">
          -2.88353465e-05 -3.03472811e-05 -2.55095140e-05 -1.74920263e-05 
        </DataArray>
        <DataArray type="Float64" Name="E">
          2.16245106e+05 2.16779894e+05 2.17314290e+05 2.17847905e+05 
        </DataArray>
      </PointData>
    </Piece>
    <Piece NumberOfPoints="4" NumberOfCells="3">
      <Points>
        <DataArray type="Float64" NumberOfComponents="3" format="ascii">
          8.45507145e-01 2.04038676e-02 0.00000000e+00 
8.55821550e-01 1.91591792e-02 0.00000000e+00 
8.66134048e-01 1.78987328e-02 0.00000000e+00 
8.76444638e-01 1.66228991e-02 0.00000000e+00 

        </DataArray>
      </Points>
      <Cells>
        <DataArray type="Int32" Name="connectivity" format="ascii">
0 1
1 2
2 3

        </DataArray>
        <DataArray type="Int32" Name="offsets" format="ascii">
2 4 6 
        </DataArray>
        <DataArray type="UInt8" Name="types" format="ascii">
3 3 3 
        </DataArray>
      </Cells>
      <PointData>
        <DataArray type="Float64" Name="rho">
          9.57685628e-01 9.60082358e-01 9.62491681e-01 9.64904091e-01 
        </DataArray>
        <DataArray type="Float64" Name="rhou">
          2.94905522e-04 2.38569418e-04 2.42305898e-04 2.86660485e-04 
        </DataArray>
        <DataArray type="Float64" Name="rhov">
          -2.46464922e-05 -4.36240212e-05 -3.68884113e-05 -6.83083061e-05 
        </DataArray>
        <DataArray type="Float64" Name="E">
          2.17847959e+05 2.18379685e+05 2.18911006e+05 2.19439882e+05 
        </DataArray>
      </PointData>
    </Piece>
    <Piece NumberOfPoints="4" NumberOfCells="3">
      <Points>
        <DataArray type="Float64" NumberOfComponents="3" format="ascii">
          8.76444638e-01 1.66228991e-02 0.00000000e+00 
8.86753201e-01 1.53310820e-02 0.00000000e+00 
8.97059798e-01 1.40233757e-02 0.00000000e+00 
9.07364249e-01 1.26988320e-02 0.00000000e+00 

        </DataArray>
      </Points>
      <Cells>
        <DataArray type="Int32" Name="connectivity" format="ascii">
0 1
1 2
2 3

        </DataArray>
        <DataArray type="Int32" Name="offsets" format="ascii">
2 4 6 
        </DataArray>
        <DataArray type="UInt8" Name="types" format="ascii">
3 3 3 
        </DataArray>
      </Cells>
      <PointData>
        <DataArray type="Float64" Name="rho">
          9.64903340e-01 9.67328283e-01 9.69749038e-01 9.72192597e-01 
        </DataArray>
        <DataArray type="Float64" Name="rhou">
          1.23579546e-04 2.85376050e-04 2.03038892e-04 1.28123481e-04 
        </DataArray>
        <DataArray type="Float64" Name="rhov">
          -5.68401285e-05 -5.42124767e-05 -8.32418617e-05 9.30707579e-05 
        </DataArray>
        <DataArray type="Float64" Name="E">
          2.19439710e+05 2.19968492e+05 2.20493722e+05 2.21022038e+05 
        </DataArray>
      </PointData>
    </Piece>
    <Piece NumberOfPoints="4" NumberOfCells="3">
      <Points>
        <DataArray type="Float64" NumberOfComponents="3" format="ascii">
          9.07364249e-01 1.26988320e-02 0.00000000e+00 
9.17666554e-01 1.13577880e-02 0.00000000e+00 
9.27966774e-01 1.00004105e-02 0.00000000e+00 
9.38264549e-01 8.62528384e-03 0.00000000e+00 

        </DataArray>
      </Points>
      <Cells>
        <DataArray type="Int32" Name="connectivity" format="ascii">
0 1
1 2
2 3

        </DataArray>
        <DataArray type="Int32" Name="offsets" format="ascii">
2 4 6 
        </DataArray>
        <DataArray type="UInt8" Name="types" format="ascii">
3 3 3 
        </DataArray>
      </Cells>
      <PointData>
        <DataArray type="Float64" Name="rho">
          9.72200990e-01 9.74591332e-01 9.77042858e-01 9.79256250e-01 
        </DataArray>
        <DataArray type="Float64" Name="rhou">
          1.50652868e-03 -2.08988072e-04 7.77357737e-04 1.43946962e-03 
        </DataArray>
        <DataArray type="Float64" Name="rhov">
          -2.00653581e-05 -1.01828194e-04 4.20922001e-05 -2.38175418e-03 
        </DataArray>
        <DataArray type="Float64" Name="E">
          2.21023937e+05 2.21538800e+05 2.22067325e+05 2.22543128e+05 
        </DataArray>
      </PointData>
    </Piece>
    <Piece NumberOfPoints="4" NumberOfCells="3">
      <Points>
        <DataArray type="Float64" NumberOfComponents="3" format="ascii">
          9.38264549e-01 8.62528384e-03 0.00000000e+00 
9.48560059e-01 7.23283459e-03 0.00000000e+00 
9.58853185e-01 5.82307298e-03 0.00000000e+00 
9.69143867e-01 4.39538015e-03 0.00000000e+00 

        </DataArray>
      </Points>
      <Cells>
        <DataArray type="Int32" Name="connectivity" format="ascii">
0 1
1 2
2 3

        </DataArray>
        <DataArray type="Int32" Name="offsets" format="ascii">
2 4 6 
        </DataArray>
        <DataArray type="UInt8" Name="types" format="ascii">
3 3 3 
        </DataArray>
      </Cells>
      <PointData>
        <DataArray type="Float64" Name="rho">
          9.79174810e-01 9.81927929e-01 9.83970886e-01 9.88439930e-01 
        </DataArray>
        <DataArray type="Float64" Name="rhou">
          -1.13636792e-02 4.01309376e-03 -5.22718171e-03 -3.07508071e-02 
        </DataArray>
        <DataArray type="Float64" Name="rhov">
          -1.75214426e-03 3.08442920e-04 -1.91971549e-03 3.19708324e-02 
        </DataArray>
        <DataArray type="Float64" Name="E">
          2.22524647e+05 2.23126729e+05 2.23574927e+05 2.24586522e+05 
        </DataArray>
      </PointData>
    </Piece>
    <Piece NumberOfPoints="4" NumberOfCells="3">
      <Points>
        <DataArray type="Float64" NumberOfComponents="3" format="ascii">
          9.69143867e-01 4.39538015e-03 0.00000000e+00 
9.79435980e-01 2.94816052e-03 0.00000000e+00 
9.89725590e-01 1.48259092e-03 0.00000000e+00 
1.00000000e+00 0.00000000e+00 0.00000000e+00 

        </DataArray>
      </Points>
      <Cells>
        <DataArray type="Int32" Name="connectivity" format="ascii">
0 1
1 2
2 3

        </DataArray>
        <DataArray type="Int32" Name="offsets" format="ascii">
2 4 6 
        </DataArray>
        <DataArray type="UInt8" Name="types" format="ascii">
3 3 3 
        </DataArray>
      </Cells>
      <PointData>
        <DataArray type="Float64" Name="rho">
          9.88945422e-01 9.88143414e-01 9.94376148e-01 9.76036373e-01 
        </DataArray>
        <DataArray type="Float64" Name="rhou">
          -1.05688277e-03 -1.66868851e-02 -5.98947147e-02 8.76398267e-01 
        </DataArray>
        <DataArray type="Float64" Name="rhov">
          3.06217139e-02 3.45188757e-03 8.52196472e-02 -2.23977996e-01 
        </DataArray>
        <DataArray type="Float64" Name="E">
          2.24698333e+05 2.24537313e+05 2.26004938e+05 2.22006778e+05 
        </DataArray>
      </PointData>
    </Piece>
    <Piece NumberOfPoints="4" NumberOfCells="3">
      <Points>
        <DataArray type="Float64" NumberOfComponents="3" format="ascii">
          9.69029665e-01 -4.41133138e-03 0.00000000e+00 
9.79355037e-01 -2.95961346e-03 0.00000000e+00 
9.89677846e-01 -1.48943183e-03 0.00000000e+00 
1.00000000e+00 0.00000000e+00 0.00000000e+00 

        </DataArray>
      </Points>
      <Cells>
        <DataArray type="Int32" Name="connectivity" format="ascii">
0 1
1 2
2 3

        </DataArray>
        <DataArray type="Int32" Name="offsets" format="ascii">
2 4 6 
        </DataArray>
        <DataArray type="UInt8" Name="types" format="ascii">
3 3 3 
        </DataArray>
      </Cells>
      <PointData>
        <DataArray type="Float64" Name="rho">
          9.87787944e-01 9.86518498e-01 9.93404949e-01 9.78042558e-01 
        </DataArray>
        <DataArray type="Float64" Name="rhou">
          5.26050014e-05 -1.40887481e-02 -6.83023347e-02 8.55145894e-01 
        </DataArray>
        <DataArray type="Float64" Name="rhov">
          -5.02653772e-02 7.39897298e-03 -9.48659420e-02 2.83832591e-01 
        </DataArray>
        <DataArray type="Float64" Name="E">
          2.25137542e+05 2.24774274e+05 2.26249201e+05 2.22572427e+05 
        </DataArray>
      </PointData>
    </Piece>
    <Piece NumberOfPoints="4" NumberOfCells="3">
      <Points>
        <DataArray type="Float64" NumberOfComponents="3" format="ascii">
          9.38035965e-01 -8.65600072e-03 0.00000000e+00 
9.48369622e-01 -7.25875143e-03 0.00000000e+00 
9.58700895e-01 -5.84406452e-03 0.00000000e+00 
9.69029665e-01 -4.41133138e-03 0.00000000e+00 

        </DataArray>
      </Points>
      <Cells>
        <DataArray type="Int32" Name="connectivity" format="ascii">
0 1
1 2
2 3

        </DataArray>
        <DataArray type="Int32" Name="offsets" format="ascii">
2 4 6 
        </DataArray>
        <DataArray type="UInt8" Name="types" format="ascii">
3 3 3 
        </DataArray>
      </Cells>
      <PointData>
        <DataArray type="Float64" Name="rho">
          9.79066687e-01 9.81353373e-01 9.82912620e-01 9.87214803e-01 
        </DataArray>
        <DataArray type="Float64" Name="rhou">
          -1.23767080e-02 4.52761033e-03 -4.94976041e-03 -3.26573203e-02 
        </DataArray>
        <DataArray type="Float64" Name="rhov">
          2.14049810e-03 -5.16676869e-04 2.79739585e-03 -3.36335110e-02 
        </DataArray>
        <DataArray type="Float64" Name="E">
          2.23283504e+05 2.23768798e+05 2.24079713e+05 2.25004659e+05 
        </DataArray>
      </PointData>
    </Piece>
    <Piece NumberOfPoints="4" NumberOfCells="3">
      <Points>
        <DataArray type="Float64" NumberOfComponents="3" format="ascii">
          9.07021165e-01 -1.27432076e-02 0.00000000e+00 
9.17361677e-01 -1.13977119e-02 0.00000000e+00 
9.27700043e-01 -1.00357840e-02 0.00000000e+00 
9.38035965e-01 -8.65600072e-03 0.00000000e+00 

        </DataArray>
      </Points>
      <Cells>
        <DataArray type="Int32" Name="connectivity" format="ascii">
0 1
1 2
2 3

        </DataArray>
        <DataArray type="Int32" Name="offsets" format="ascii">
2 4 6 
        </DataArray>
        <DataArray type="UInt8" Name="types" format="ascii">
3 3 3 
        </DataArray>
      </Cells>
      <PointData>
        <DataArray type="Float64" Name="rho">
          9.73929369e-01 9.75679877e-01 9.77532801e-01 9.79158185e-01 
        </DataArray>
        <DataArray type="Float64" Name="rhou">
          1.73950533e-03 -2.11587773e-04 9.09172487e-04 1.67342559e-03 
        </DataArray>
        <DataArray type="Float64" Name="rhov">
          -4.50468340e-05 2.54121640e-05 -1.72926927e-04 2.57607657e-03 
        </DataArray>
        <DataArray type="Float64" Name="E">
          2.22184042e+05 2.22564152e+05 2.22962960e+05 2.23304330e+05 
        </DataArray>
      </PointData>
    </Piece>
    <Piece NumberOfPoints="4" NumberOfCells="3">
      <Points>
        <DataArray type="Float64" NumberOfComponents="3" format="ascii">
          8.75986874e-01 -1.66798849e-02 0.00000000e+00 
8.86333704e-01 -1.53839625e-02 0.00000000e+00 
8.96678507e-01 -1.40720531e-02 0.00000000e+00 
9.07021165e-01 -1.27432076e-02 0.00000000e+00 

        </DataArray>
      </Points>
      <Cells>
        <DataArray type="Int32" Name="connectivity" format="ascii">
0 1
1 2
2 3

        </DataArray>
        <DataArray type="Int32" Name="offsets" format="ascii">
2 4 6 
        </DataArray>
        <DataArray type="UInt8" Name="types" format="ascii">
3 3 3 
        </DataArray>
      </Cells>
      <PointData>
        <DataArray type="Float64" Name="rho">
          9.68680563e-01 9.70402031e-01 9.72137482e-01 9.73919753e-01 
        </DataArray>
        <DataArray type="Float64" Name="rhou">
          1.85037367e-04 3.58466069e-04 2.67336886e-04 1.83966711e-04 
        </DataArray>
        <DataArray type="Float64" Name="rhov">
          1.95173904e-05 4.23649145e-06 3.07716481e-05 -1.71207764e-04 
        </DataArray>
        <DataArray type="Float64" Name="E">
          2.21022110e+05 2.21406333e+05 2.21790523e+05 2.22181851e+05 
        </DataArray>
      </PointData>
    </Piece>
    <Piece NumberOfPoints="4" NumberOfCells="3">
      <Points>
        <DataArray type="Float64" NumberOfComponents="3" format="ascii">
          8.44934702e-01 -2.04724707e-02 0.00000000e+00 
8.55287313e-01 -1.92240477e-02 0.00000000e+00 
8.65638077e-01 -1.79597028e-02 0.00000000e+00 
8.75986874e-01 -1.66798849e-02 0.00000000e+00 

        </DataArray>
      </Points>
      <Cells>
        <DataArray type="Int32" Name="connectivity" format="ascii">
0 1
1 2
2 3

        </DataArray>
        <DataArray type="Int32" Name="offsets" format="ascii">
2 4 6 
        </DataArray>
        <DataArray type="UInt8" Name="types" format="ascii">
3 3 3 
        </DataArray>
      </Cells>
      <PointData>
        <DataArray type="Float64" Name="rho">
          9.63677708e-01 9.65319295e-01 9.66991303e-01 9.68681439e-01 
        </DataArray>
        <DataArray type="Float64" Name="rhou">
          4.03383295e-04 3.15708505e-04 3.07658085e-04 3.74358479e-04 
        </DataArray>
        <DataArray type="Float64" Name="rhov">
          -1.66166500e-05 1.40894800e-05 -3.15296168e-06 2.94076577e-05 
        </DataArray>
        <DataArray type="Float64" Name="E">
          2.19889041e+05 2.20263503e+05 2.20642244e+05 2.21022308e+05 
        </DataArray>
      </PointData>
    </Piece>
    <Piece NumberOfPoints="4" NumberOfCells="3">
      <Points>
        <DataArray type="Float64" NumberOfComponents="3" format="ascii">
          8.13865662e-01 -2.41250079e-02 0.00000000e+00 
8.24223816e-01 -2.29226518e-02 0.00000000e+00 
8.34580123e-01 -2.17050612e-02 0.00000000e+00 
8.44934702e-01 -2.04724707e-02 0.00000000e+00 

        </DataArray>
      </Points>
      <Cells>
        <DataArray type="Int32" Name="connectivity" format="ascii">
0 1
1 2
2 3

        </DataArray>
        <DataArray type="Int32" Name="offsets" format="ascii">
2 4 6 
        </DataArray>
        <DataArray type="UInt8" Name="types" format="ascii">
3 3 3 
        </DataArray>
      </Cells>
      <PointData>
        <DataArray type="Float64" Name="rho">
          9.58889320e-01 9.60457975e-01 9.62054491e-01 9.63677339e-01 
        </DataArray>
        <DataArray type="Float64" Name="rhou">
          3.41092426e-04 3.25464327e-04 3.10118678e-04 3.26100673e-04 
        </DataArray>
        <DataArray type="Float64" Name="rhov">
          6.16001487e-06 6.24038179e-06 -6.28172004e-06 -2.64796198e-05 
        </DataArray>
        <DataArray type="Float64" Name="E">
          2.18782131e+05 2.19147143e+05 2.19516245e+05 2.19888956e+05 
        </DataArray>
      </PointData>
    </Piece>
    <Piece NumberOfPoints="4" NumberOfCells="3">
      <Points>
        <DataArray type="Float64" NumberOfComponents="3" format="ascii">
          7.82780826e-01 -2.76402626e-02 0.00000000e+00 
7.93144107e-01 -2.64833923e-02 0.00000000e+00 
8.03505778e-01 -2.53117718e-02 0.00000000e+00 
8.13865662e-01 -2.41250079e-02 0.00000000e+00 

        </DataArray>
      </Points>
      <Cells>
        <DataArray type="Int32" Name="connectivity" format="ascii">
0 1
1 2
2 3

        </DataArray>
        <DataArray type="Int32" Name="offsets" format="ascii">
2 4 6 
        </DataArray>
        <DataArray type="UInt8" Name="types" format="ascii">
3 3 3 
        </DataArray>
      </Cells>
      <PointData>
        <DataArray type="Float64" Name="rho">
          9.54347315e-01 9.55833528e-01 9.57348972e-01 9.58889166e-01 
        </DataArray>
        <DataArray type="Float64" Name="rhou">
          3.53276427e-04 3.28976050e-04 3.35854174e-04 3.56190000e-04 
        </DataArray>
        <DataArray type="Float64" Name="rhov">
          7.93950300e-06 -6.04428354e-06 -1.44086920e-05 5.16722230e-06 
        </DataArray>
        <DataArray type="Float64" Name="E">
          2.17712348e+05 2.18064478e+05 2.18421453e+05 2.18782096e+05 
        </DataArray>
      </PointData>
    </Piece>
    <Piece NumberOfPoints="4" NumberOfCells="3">
      <Points>
        <DataArray type="Float64" NumberOfComponents="3" format="ascii">
          7.51680970e-01 -3.10197193e-02 0.00000000e+00 
7.62049198e-01 -2.99084149e-02 0.00000000e+00 
7.72415876e-01 -2.87819952e-02 0.00000000e+00 
7.82780826e-01 -2.76402626e-02 0.00000000e+00 

        </DataArray>
      </Points>
      <Cells>
        <DataArray type="Int32" Name="connectivity" format="ascii">
0 1
1 2
2 3

        </DataArray>
        <DataArray type="Int32" Name="offsets" format="ascii">
2 4 6 
        </DataArray>
        <DataArray type="UInt8" Name="types" format="ascii">
3 3 3 
        </DataArray>
      </Cells>
      <PointData>
        <DataArray type="Float64" Name="rho">
          9.50070296e-01 9.51466431e-01 9.52891978e-01 9.54347262e-01 
        </DataArray>
        <DataArray type="Float64" Name="rhou">
          3.54942882e-04 3.55089885e-04 3.53935208e-04 3.39199489e-04 
        </DataArray>
        <DataArray type="Float64" Name="rhov">
          4.78158432e-06 -6.56120222e-06 -3.00686162e-06 5.98242962e-06 
        </DataArray>
        <DataArray type="Float64" Name="E">
          2.16688180e+05 2.17024185e+05 2.17365606e+05 2.17712336e+05 
        </DataArray>
      </PointData>
    </Piece>
    <Piece NumberOfPoints="4" NumberOfCells="3">
      <Points>
        <DataArray type="Float64" NumberOfComponents="3" format="ascii">
          7.20566452e-01 -3.42622213e-02 0.00000000e+00 
7.30939507e-01 -3.31965312e-02 0.00000000e+00 
7.41311073e-01 -3.21157984e-02 0.00000000e+00 
7.51680970e-01 -3.10197193e-02 0.00000000e+00 

        </DataArray>
      </Points>
      <Cells>
        <DataArray type="Int32" Name="connectivity" format="ascii">
0 1
1 2
2 3

        </DataArray>
        <DataArray type="Int32" Name="offsets" format="ascii">
2 4 6 
        </DataArray>
        <DataArray type="UInt8" Name="types" format="ascii">
3 3 3 
        </DataArray>
      </Cells>
      <PointData>
        <DataArray type="Float64" Name="rho">
          9.46074149e-01 9.47375398e-01 9.48707645e-01 9.50070286e-01 
        </DataArray>
        <DataArray type="Float64" Name="rhou">
          3.74075851e-04 3.70954795e-04 3.73959723e-04 3.60859839e-04 
        </DataArray>
        <DataArray type="Float64" Name="rhov">
          7.37598039e-06 -1.02605198e-05 -8.60601468e-06 6.44498522e-06 
        </DataArray>
        <DataArray type="Float64" Name="E">
          2.15718213e+05 2.16035280e+05 2.16358714e+05 2.16688178e+05 
        </DataArray>
      </PointData>
    </Piece>
    <Piece NumberOfPoints="4" NumberOfCells="3">
      <Points>
        <DataArray type="Float64" NumberOfComponents="3" format="ascii">
          6.89437866e-01 -3.73662710e-02 0.00000000e+00 
6.99815631e-01 -3.63472365e-02 0.00000000e+00 
7.10191846e-01 -3.53125818e-02 0.00000000e+00 
7.20566452e-01 -3.42622213e-02 0.00000000e+00 

        </DataArray>
      </Points>
      <Cells>
        <DataArray type="Int32" Name="connectivity" format="ascii">
0 1
1 2
2 3

        </DataArray>
        <DataArray type="Int32" Name="offsets" format="ascii">
2 4 6 
        </DataArray>
        <DataArray type="UInt8" Name="types" format="ascii">
3 3 3 
        </DataArray>
      </Cells>
      <PointData>
        <DataArray type="Float64" Name="rho">
          9.42377375e-01 9.43576562e-01 9.44808814e-01 9.46074166e-01 
        </DataArray>
        <DataArray type="Float64" Name="rhou">
          4.02025057e-04 3.98778050e-04 3.96352952e-04 3.76916911e-04 
        </DataArray>
        <DataArray type="Float64" Name="rhov">
          4.51943062e-06 -8.09531963e-06 -4.10089950e-06 8.51520486e-06 
        </DataArray>
        <DataArray type="Float64" Name="E">
          2.14812032e+05 2.15106711e+05 2.15408836e+05 2.15718217e+05 
        </DataArray>
      </PointData>
    </Piece>
    <Piece NumberOfPoints="4" NumberOfCells="3">
      <Points>
        <DataArray type="Float64" NumberOfComponents="3" format="ascii">
          6.58295333e-01 -4.03269380e-02 0.00000000e+00 
6.68677747e-01 -3.93563360e-02 0.00000000e+00 
6.79058611e-01 -3.83694395e-02 0.00000000e+00 
6.89437866e-01 -3.73662710e-02 0.00000000e+00 

        </DataArray>
      </Points>
      <Cells>
        <DataArray type="Int32" Name="connectivity" format="ascii">
0 1
1 2
2 3

        </DataArray>
        <DataArray type="Int32" Name="offsets" format="ascii">
2 4 6 
        </DataArray>
        <DataArray type="UInt8" Name="types" format="ascii">
3 3 3 
        </DataArray>
      </Cells>
      <PointData>
        <DataArray type="Float64" Name="rho">
          9.38998471e-01 9.40089406e-01 9.41215466e-01 9.42377451e-01 
        </DataArray>
        <DataArray type="Float64" Name="rhou">
          4.33036672e-04 4.32762033e-04 4.23101287e-04 4.00886028e-04 
        </DataArray>
        <DataArray type="Float64" Name="rhov">
          -1.84452198e-06 -8.76483001e-06 -2.38298081e-06 6.12943911e-06 
        </DataArray>
        <DataArray type="Float64" Name="E">
          2.13979228e+05 2.14248348e+05 2.14525955e+05 2.14812049e+05 
        </DataArray>
      </PointData>
    </Piece>
    <Piece NumberOfPoints="4" NumberOfCells="3">
      <Points>
        <DataArray type="Float64" NumberOfComponents="3" format="ascii">
          6.27138972e-01 -4.31386717e-02 0.00000000e+00 
6.37525976e-01 -4.22184542e-02 0.00000000e+00 
6.47911429e-01 -4.12811004e-02 0.00000000e+00 
6.58295333e-01 -4.03269380e-02 0.00000000e+00 

        </DataArray>
      </Points>
      <Cells>
        <DataArray type="Int32" Name="connectivity" format="ascii">
0 1
1 2
2 3

        </DataArray>
        <DataArray type="Int32" Name="offsets" format="ascii">
2 4 6 
        </DataArray>
        <DataArray type="UInt8" Name="types" format="ascii">
3 3 3 
        </DataArray>
      </Cells>
      <PointData>
        <DataArray type="Float64" Name="rho">
          9.35959527e-01 9.36932846e-01 9.37946341e-01 9.38998517e-01 
        </DataArray>
        <DataArray type="Float64" Name="rhou">
          4.80191451e-04 4.62948336e-04 4.48401676e-04 4.35836501e-04 
        </DataArray>
        <DataArray type="Float64" Name="rhov">
          4.10585626e-06 -7.05508810e-07 -2.35581694e-06 -2.76059653e-07 
        </DataArray>
        <DataArray type="Float64" Name="E">
          2.13229732e+05 2.13469603e+05 2.13719604e+05 2.13979238e+05 
        </DataArray>
      </PointData>
    </Piece>
    <Piece NumberOfPoints="4" NumberOfCells="3">
      <Points>
        <DataArray type="Float64" NumberOfComponents="3" format="ascii">
          5.95968783e-01 -4.57924642e-02 0.00000000e+00 
6.06360376e-01 -4.49259281e-02 0.00000000e+00 
6.16750479e-01 -4.40412909e-02 0.00000000e+00 
6.27138972e-01 -4.31386717e-02 0.00000000e+00 

        </DataArray>
      </Points>
      <Cells>
        <DataArray type="Int32" Name="connectivity" format="ascii">
0 1
1 2
2 3

        </DataArray>
        <DataArray type="Int32" Name="offsets" format="ascii">
2 4 6 
        </DataArray>
        <DataArray type="UInt8" Name="types" format="ascii">
3 3 3 
        </DataArray>
      </Cells>
      <PointData>
        <DataArray type="Float64" Name="rho">
          9.33294469e-01 9.34140238e-01 9.35028753e-01 9.35959516e-01 
        </DataArray>
        <DataArray type="Float64" Name="rhou">
          5.15219855e-04 5.08400468e-04 4.94993709e-04 4.73145388e-04 
        </DataArray>
        <DataArray type="Float64" Name="rhov">
          3.45154177e-07 -8.10199840e-06 -3.56448690e-06 5.27359002e-06 
        </DataArray>
        <DataArray type="Float64" Name="E">
          2.12575399e+05 2.12782485e+05 2.13000671e+05 2.13229729e+05 
        </DataArray>
      </PointData>
    </Piece>
    <Piece NumberOfPoints="4" NumberOfCells="3">
      <Points>
        <DataArray type="Float64" NumberOfComponents="3" format="ascii">
          5.64784765e-01 -4.82786149e-02 0.00000000e+00 
5.75181007e-01 -4.74695377e-02 0.00000000e+00 
5.85575700e-01 -4.66405638e-02 0.00000000e+00 
5.95968783e-01 -4.57924642e-02 0.00000000e+00 

        </DataArray>
      </Points>
      <Cells>
        <DataArray type="Int32" Name="connectivity" format="ascii">
0 1
1 2
2 3

        </DataArray>
        <DataArray type="Int32" Name="offsets" format="ascii">
2 4 6 
        </DataArray>
        <DataArray type="UInt8" Name="types" format="ascii">
3 3 3 
        </DataArray>
      </Cells>
      <PointData>
        <DataArray type="Float64" Name="rho">
          9.31050038e-01 9.31747081e-01 9.32495621e-01 9.33294617e-01 
        </DataArray>
        <DataArray type="Float64" Name="rhou">
          5.89085397e-04 5.63902333e-04 5.30986144e-04 5.08805009e-04 
        </DataArray>
        <DataArray type="Float64" Name="rhov">
          5.77313770e-08 9.97536480e-06 1.10453942e-05 1.39088120e-06 
        </DataArray>
        <DataArray type="Float64" Name="E">
          2.12030019e+05 2.12198552e+05 2.12380464e+05 2.12575433e+05 
        </DataArray>
      </PointData>
    </Piece>
    <Piece NumberOfPoints="4" NumberOfCells="3">
      <Points>
        <DataArray type="Float64" NumberOfComponents="3" format="ascii">
          5.33586800e-01 -5.05827516e-02 0.00000000e+00 
5.43987691e-01 -4.98356484e-02 0.00000000e+00 
5.54387033e-01 -4.90674041e-02 0.00000000e+00 
5.64784765e-01 -4.82786149e-02 0.00000000e+00 

        </DataArray>
      </Points>
      <Cells>
        <DataArray type="Int32" Name="connectivity" format="ascii">
0 1
1 2
2 3

        </DataArray>
        <DataArray type="Int32" Name="offsets" format="ascii">
2 4 6 
        </DataArray>
        <DataArray type="UInt8" Name="types" format="ascii">
3 3 3 
        </DataArray>
      </Cells>
      <PointData>
        <DataArray type="Float64" Name="rho">
          9.29282351e-01 9.29813651e-01 9.30404603e-01 9.31049982e-01 
        </DataArray>
        <DataArray type="Float64" Name="rhou">
          6.56248452e-04 6.15327131e-04 5.89292839e-04 5.83461473e-04 
        </DataArray>
        <DataArray type="Float64" Name="rhov">
          1.88121532e-05 1.27830622e-05 2.67520958e-06 1.26048505e-07 
        </DataArray>
        <DataArray type="Float64" Name="E">
          2.11608618e+05 2.11734081e+05 2.11874957e+05 2.12030006e+05 
        </DataArray>
      </PointData>
    </Piece>
    <Piece NumberOfPoints="4" NumberOfCells="3">
      <Points>
        <DataArray type="Float64" NumberOfComponents="3" format="ascii">
          5.02374947e-01 -5.26902266e-02 0.00000000e+00 
5.12780428e-01 -5.20105064e-02 0.00000000e+00 
5.23184419e-01 -5.13078682e-02 0.00000000e+00 
5.33586800e-01 -5.05827516e-02 0.00000000e+00 

        </DataArray>
      </Points>
      <Cells>
        <DataArray type="Int32" Name="connectivity" format="ascii">
0 1
1 2
2 3

        </DataArray>
        <DataArray type="Int32" Name="offsets" format="ascii">
2 4 6 
        </DataArray>
        <DataArray type="UInt8" Name="types" format="ascii">
3 3 3 
        </DataArray>
      </Cells>
      <PointData>
        <DataArray type="Float64" Name="rho">
          9.28069386e-01 9.28407656e-01 9.28813722e-01 9.29282226e-01 
        </DataArray>
        <DataArray type="Float64" Name="rhou">
          7.30897294e-04 6.95575297e-04 6.71791362e-04 6.54517465e-04 
        </DataArray>
        <DataArray type="Float64" Name="rhov">
          2.69418316e-05 1.15534483e-05 6.39139826e-06 1.74887207e-05 
        </DataArray>
        <DataArray type="Float64" Name="E">
          2.11330403e+05 2.11406160e+05 2.11499307e+05 2.11608589e+05 
        </DataArray>
      </PointData>
    </Piece>
    <Piece NumberOfPoints="4" NumberOfCells="3">
      <Points>
        <DataArray type="Float64" NumberOfComponents="3" format="ascii">
          4.71149325e-01 -5.45825884e-02 0.00000000e+00 
4.81559396e-01 -5.39771840e-02 0.00000000e+00 
4.91967946e-01 -5.33461571e-02 0.00000000e+00 
5.02374947e-01 -5.26902266e-02 0.00000000e+00 

        </DataArray>
      </Points>
      <Cells>
        <DataArray type="Int32" Name="connectivity" format="ascii">
0 1
1 2
2 3

        </DataArray>
        <DataArray type="Int32" Name="offsets" format="ascii">
2 4 6 
        </DataArray>
        <DataArray type="UInt8" Name="types" format="ascii">
3 3 3 
        </DataArray>
      </Cells>
      <PointData>
        <DataArray type="Float64" Name="rho">
          9.27511608e-01 9.27619557e-01 9.27805020e-01 9.28069490e-01 
        </DataArray>
        <DataArray type="Float64" Name="rhou">
          8.37179053e-04 8.18340941e-04 7.70514318e-04 7.08063687e-04 
        </DataArray>
        <DataArray type="Float64" Name="rhov">
          1.77258073e-05 1.78980370e-05 3.17455877e-05 2.93557951e-05 
        </DataArray>
        <DataArray type="Float64" Name="E">
          2.11219250e+05 2.11236505e+05 2.11273459e+05 2.11330427e+05 
        </DataArray>
      </PointData>
    </Piece>
    <Piece NumberOfPoints="4" NumberOfCells="3">
      <Points>
        <DataArray type="Float64" NumberOfComponents="3" format="ascii">
          4.39910263e-01 -5.62384278e-02 0.00000000e+00 
4.50324744e-01 -5.57143167e-02 0.00000000e+00 
4.60737765e-01 -5.51619194e-02 0.00000000e+00 
4.71149325e-01 -5.45825884e-02 0.00000000e+00 

        </DataArray>
      </Points>
      <Cells>
        <DataArray type="Int32" Name="connectivity" format="ascii">
0 1
1 2
2 3

        </DataArray>
        <DataArray type="Int32" Name="offsets" format="ascii">
2 4 6 
        </DataArray>
        <DataArray type="UInt8" Name="types" format="ascii">
3 3 3 
        </DataArray>
      </Cells>
      <PointData>
        <DataArray type="Float64" Name="rho">
          9.27721204e-01 9.27554630e-01 9.27487731e-01 9.27511699e-01 
        </DataArray>
        <DataArray type="Float64" Name="rhou">
          1.01707650e-03 9.31906293e-04 8.70540672e-04 8.45066205e-04 
        </DataArray>
        <DataArray type="Float64" Name="rhov">
          4.85778038e-05 5.19815821e-05 3.61303647e-05 1.96982497e-05 
        </DataArray>
        <DataArray type="Float64" Name="E">
          2.11301455e+05 2.11249912e+05 2.11223199e+05 2.11219270e+05 
        </DataArray>
      </PointData>
    </Piece>
    <Piece NumberOfPoints="4" NumberOfCells="3">
      <Points>
        <DataArray type="Float64" NumberOfComponents="3" format="ascii">
          4.08658355e-01 -5.76302819e-02 0.00000000e+00 
4.19077009e-01 -5.71971126e-02 0.00000000e+00 
4.29494321e-01 -5.67329265e-02 0.00000000e+00 
4.39910263e-01 -5.62384278e-02 0.00000000e+00 

        </DataArray>
      </Points>
      <Cells>
        <DataArray type="Int32" Name="connectivity" format="ascii">
0 1
1 2
2 3

        </DataArray>
        <DataArray type="Int32" Name="offsets" format="ascii">
2 4 6 
        </DataArray>
        <DataArray type="UInt8" Name="types" format="ascii">
3 3 3 
        </DataArray>
      </Cells>
      <PointData>
        <DataArray type="Float64" Name="rho">
          9.28844778e-01 9.28361267e-01 9.27989624e-01 9.27720922e-01 
        </DataArray>
        <DataArray type="Float64" Name="rhou">
          1.18070099e-03 1.10577101e-03 1.05273100e-03 1.01156375e-03 
        </DataArray>
        <DataArray type="Float64" Name="rhov">
          5.87118048e-05 3.64842563e-05 3.02138023e-05 4.74503253e-05 
        </DataArray>
        <DataArray type="Float64" Name="E">
          2.11611209e+05 2.11480942e+05 2.11378354e+05 2.11301390e+05 
        </DataArray>
      </PointData>
    </Piece>
    <Piece NumberOfPoints="4" NumberOfCells="3">
      <Points>
        <DataArray type="Float64" NumberOfComponents="3" format="ascii">
          3.77394795e-01 -5.87291755e-02 0.00000000e+00 
3.87817174e-01 -5.83979115e-02 0.00000000e+00 
3.98238391e-01 -5.80311492e-02 0.00000000e+00 
4.08658355e-01 -5.76302819e-02 0.00000000e+00 

        </DataArray>
      </Points>
      <Cells>
        <DataArray type="Int32" Name="connectivity" format="ascii">
0 1
1 2
2 3

        </DataArray>
        <DataArray type="Int32" Name="offsets" format="ascii">
2 4 6 
        </DataArray>
        <DataArray type="UInt8" Name="types" format="ascii">
3 3 3 
        </DataArray>
      </Cells>
      <PointData>
        <DataArray type="Float64" Name="rho">
          9.31060225e-01 9.30189406e-01 9.29450309e-01 9.28845015e-01 
        </DataArray>
        <DataArray type="Float64" Name="rhou">
          1.45337665e-03 1.37445414e-03 1.26289280e-03 1.14493572e-03 
        </DataArray>
        <DataArray type="Float64" Name="rhov">
          2.39235069e-05 5.05451227e-05 7.71190590e-05 6.30626416e-05 
        </DataArray>
        <DataArray type="Float64" Name="E">
          2.12189850e+05 2.11964512e+05 2.11771503e+05 2.11611265e+05 
        </DataArray>
      </PointData>
    </Piece>
    <Piece NumberOfPoints="4" NumberOfCells="3">
      <Points>
        <DataArray type="Float64" NumberOfComponents="3" format="ascii">
          3.46121490e-01 -5.95011823e-02 0.00000000e+00 
3.56546819e-01 -5.92821389e-02 0.00000000e+00 
3.66971314e-01 -5.90242445e-02 0.00000000e+00 
3.77394795e-01 -5.87291755e-02 0.00000000e+00 

        </DataArray>
      </Points>
      <Cells>
        <DataArray type="Int32" Name="connectivity" format="ascii">
0 1
1 2
2 3

        </DataArray>
        <DataArray type="Int32" Name="offsets" format="ascii">
2 4 6 
        </DataArray>
        <DataArray type="UInt8" Name="types" format="ascii">
3 3 3 
        </DataArray>
      </Cells>
      <PointData>
        <DataArray type="Float64" Name="rho">
          9.34545786e-01 9.33225369e-01 9.32067797e-01 9.31060328e-01 
        </DataArray>
        <DataArray type="Float64" Name="rhou">
          1.82650441e-03 1.66928845e-03 1.52889065e-03 1.45793383e-03 
        </DataArray>
        <DataArray type="Float64" Name="rhov">
          -5.08322626e-06 3.84668513e-05 4.28734366e-05 2.82215650e-05 
        </DataArray>
        <DataArray type="Float64" Name="E">
          2.13078891e+05 2.12744019e+05 2.12448667e+05 2.12189873e+05 
        </DataArray>
      </PointData>
    </Piece>
    <Piece NumberOfPoints="4" NumberOfCells="3">
      <Points>
        <DataArray type="Float64" NumberOfComponents="3" format="ascii">
          3.14841360e-01 -5.99102043e-02 0.00000000e+00 
3.25268596e-01 -5.98174632e-02 0.00000000e+00 
3.35695356e-01 -5.96801341e-02 0.00000000e+00 
3.46121490e-01 -5.95011823e-02 0.00000000e+00 

        </DataArray>
      </Points>
      <Cells>
        <DataArray type="Int32" Name="connectivity" format="ascii">
0 1
1 2
2 3

        </DataArray>
        <DataArray type="Int32" Name="offsets" format="ascii">
2 4 6 
        </DataArray>
        <DataArray type="UInt8" Name="types" format="ascii">
3 3 3 
        </DataArray>
      </Cells>
      <PointData>
        <DataArray type="Float64" Name="rho">
          9.39575981e-01 9.37695886e-01 9.36026785e-01 9.34545453e-01 
        </DataArray>
        <DataArray type="Float64" Name="rhou">
          2.30819141e-03 2.04459242e-03 1.86711602e-03 1.78630786e-03 
        </DataArray>
        <DataArray type="Float64" Name="rhov">
          6.73037409e-05 9.29147134e-05 5.59448534e-05 -4.99260916e-06 
        </DataArray>
        <DataArray type="Float64" Name="E">
          2.14342263e+05 2.13872152e+05 2.13452814e+05 2.13078814e+05 
        </DataArray>
      </PointData>
    </Piece>
    <Piece NumberOfPoints="4" NumberOfCells="3">
      <Points>
        <DataArray type="Float64" NumberOfComponents="3" format="ascii">
          2.83558637e-01 -5.98983802e-02 0.00000000e+00 
2.93986142e-01 -5.99516556e-02 0.00000000e+00 
3.04413795e-01 -5.99554181e-02 0.00000000e+00 
3.14841360e-01 -5.99102043e-02 0.00000000e+00 

        </DataArray>
      </Points>
      <Cells>
        <DataArray type="Int32" Name="connectivity" format="ascii">
0 1
1 2
2 3

        </DataArray>
        <DataArray type="Int32" Name="offsets" format="ascii">
2 4 6 
        </DataArray>
        <DataArray type="UInt8" Name="types" format="ascii">
3 3 3 
        </DataArray>
      </Cells>
      <PointData>
        <DataArray type="Float64" Name="rho">
          9.46520037e-01 9.43984503e-01 9.41673404e-01 9.39575192e-01 
        </DataArray>
        <DataArray type="Float64" Name="rhou">
          2.80238801e-03 2.63312860e-03 2.49252438e-03 2.29828980e-03 
        </DataArray>
        <DataArray type="Float64" Name="rhov">
          -6.37946629e-06 -7.65640664e-05 -3.40809992e-05 7.39959781e-05 
        </DataArray>
        <DataArray type="Float64" Name="E">
          2.16066778e+05 2.15438717e+05 2.14864713e+05 2.14342082e+05 
        </DataArray>
      </PointData>
    </Piece>
    <Piece NumberOfPoints="4" NumberOfCells="3">
      <Points>
        <DataArray type="Float64" NumberOfComponents="3" format="ascii">
          2.52279758e-01 -5.94130717e-02 0.00000000e+00 
2.62705088e-01 -5.96327744e-02 0.00000000e+00 
2.73131490e-01 -5.97934239e-02 0.00000000e+00 
2.83558637e-01 -5.98983802e-02 0.00000000e+00 

        </DataArray>
      </Points>
      <Cells>
        <DataArray type="Int32" Name="connectivity" format="ascii">
0 1
1 2
2 3

        </DataArray>
        <DataArray type="Int32" Name="offsets" format="ascii">
2 4 6 
        </DataArray>
        <DataArray type="UInt8" Name="types" format="ascii">
3 3 3 
        </DataArray>
      </Cells>
      <PointData>
        <DataArray type="Float64" Name="rho">
          9.55840117e-01 9.52430746e-01 9.49325034e-01 9.46521022e-01 
        </DataArray>
        <DataArray type="Float64" Name="rhou">
          3.80444165e-03 3.49635705e-03 3.14989548e-03 2.78753577e-03 
        </DataArray>
        <DataArray type="Float64" Name="rhov">
          -1.89870866e-04 -8.20527450e-05 1.99064311e-05 1.43285916e-05 
        </DataArray>
        <DataArray type="Float64" Name="E">
          2.18361050e+05 2.17523767e+05 2.16759315e+05 2.16067007e+05 
        </DataArray>
      </PointData>
    </Piece>
    <Piece NumberOfPoints="4" NumberOfCells="3">
      <Points>
        <DataArray type="Float64" NumberOfComponents="3" format="ascii">
          2.21014455e-01 -5.83752058e-02 0.00000000e+00 
2.31433928e-01 -5.87876961e-02 0.00000000e+00 
2.41855890e-01 -5.91322705e-02 0.00000000e+00 
2.52279758e-01 -5.94130717e-02 0.00000000e+00 

        </DataArray>
      </Points>
      <Cells>
        <DataArray type="Int32" Name="connectivity" format="ascii">
0 1
1 2
2 3

        </DataArray>
        <DataArray type="Int32" Name="offsets" format="ascii">
2 4 6 
        </DataArray>
        <DataArray type="UInt8" Name="types" format="ascii">
3 3 3 
        </DataArray>
      </Cells>
      <PointData>
        <DataArray type="Float64" Name="rho">
          9.68165827e-01 9.63664925e-01 9.59570426e-01 9.55840309e-01 
        </DataArray>
        <DataArray type="Float64" Name="rhou">
          5.17105838e-03 4.58053441e-03 4.12895861e-03 3.84189574e-03 
        </DataArray>
        <DataArray type="Float64" Name="rhov">
          -3.44470156e-04 -2.18651641e-04 -1.70269159e-04 -1.72082210e-04 
        </DataArray>
        <DataArray type="Float64" Name="E">
          2.21375143e+05 2.20276612e+05 2.19275266e+05 2.18361090e+05 
        </DataArray>
      </PointData>
    </Piece>
    <Piece NumberOfPoints="4" NumberOfCells="3">
      <Points>
        <DataArray type="Float64" NumberOfComponents="3" format="ascii">
          1.89777538e-01 -5.66898957e-02 0.00000000e+00 
2.00185493e-01 -5.73302582e-02 0.00000000e+00 
2.10598081e-01 -5.78906052e-02 0.00000000e+00 
2.21014455e-01 -5.83752058e-02 0.00000000e+00 

        </DataArray>
      </Points>
      <Cells>
        <DataArray type="Int32" Name="connectivity" format="ascii">
0 1
1 2
2 3

        </DataArray>
        <DataArray type="Int32" Name="offsets" format="ascii">
2 4 6 
        </DataArray>
        <DataArray type="UInt8" Name="types" format="ascii">
3 3 3 
        </DataArray>
      </Cells>
      <PointData>
        <DataArray type="Float64" Name="rho">
          9.84442658e-01 9.78508708e-01 9.73101458e-01 9.68165021e-01 
        </DataArray>
        <DataArray type="Float64" Name="rhou">
          7.07661156e-03 6.28159040e-03 5.70268480e-03 5.23602288e-03 
        </DataArray>
        <DataArray type="Float64" Name="rhov">
          -7.11720562e-04 -6.10440201e-04 -4.81900726e-04 -3.31212345e-04 
        </DataArray>
        <DataArray type="Float64" Name="E">
          2.25335303e+05 2.23893426e+05 2.22577774e+05 2.21374957e+05 
        </DataArray>
      </PointData>
    </Piece>
    <Piece NumberOfPoints="4" NumberOfCells="3">
      <Points>
        <DataArray type="Float64" NumberOfComponents="3" format="ascii">
          1.58592433e-01 -5.42296544e-02 0.00000000e+00 
1.68979734e-01 -5.51457107e-02 0.00000000e+00 
1.79375216e-01 -5.59638515e-02 0.00000000e+00 
1.89777538e-01 -5.66898957e-02 0.00000000e+00 

        </DataArray>
      </Points>
      <Cells>
        <DataArray type="Int32" Name="connectivity" format="ascii">
0 1
1 2
2 3

        </DataArray>
        <DataArray type="Int32" Name="offsets" format="ascii">
2 4 6 
        </DataArray>
        <DataArray type="UInt8" Name="types" format="ascii">
3 3 3 
        </DataArray>
      </Cells>
      <PointData>
        <DataArray type="Float64" Name="rho">
          1.00611049e+00 9.98187598e-01 9.90980666e-01 9.84443086e-01 
        </DataArray>
        <DataArray type="Float64" Name="rhou">
          1.00672984e-02 9.02627349e-03 8.09924884e-03 7.14693569e-03 
        </DataArray>
        <DataArray type="Float64" Name="rhov">
          -1.60905563e-03 -1.36374168e-03 -9.81002504e-04 -6.69918743e-04 
        </DataArray>
        <DataArray type="Float64" Name="E">
          2.30588223e+05 2.28668916e+05 2.26921861e+05 2.25335406e+05 
        </DataArray>
      </PointData>
    </Piece>
    <Piece NumberOfPoints="4" NumberOfCells="3">
      <Points>
        <DataArray type="Float64" NumberOfComponents="3" format="ascii">
          1.27497971e-01 -5.08146733e-02 0.00000000e+00 
1.37849152e-01 -5.20747155e-02 0.00000000e+00 
1.48214847e-01 -5.32093942e-02 0.00000000e+00 
1.58592433e-01 -5.42296544e-02 0.00000000e+00 

        </DataArray>
      </Points>
      <Cells>
        <DataArray type="Int32" Name="connectivity" format="ascii">
0 1
1 2
2 3

        </DataArray>
        <DataArray type="Int32" Name="offsets" format="ascii">
2 4 6 
        </DataArray>
        <DataArray type="UInt8" Name="types" format="ascii">
3 3 3 
        </DataArray>
      </Cells>
      <PointData>
        <DataArray type="Float64" Name="rho">
          1.03548306e+00 1.02463078e+00 1.01486019e+00 1.00611461e+00 
        </DataArray>
        <DataArray type="Float64" Name="rhou">
          1.44367156e-02 1.33416850e-02 1.15831652e-02 1.00917639e-02 
        </DataArray>
        <DataArray type="Float64" Name="rhov">
          -2.70317806e-03 -2.36333239e-03 -1.66925045e-03 -1.53823960e-03 
        </DataArray>
        <DataArray type="Float64" Name="E">
          2.37694245e+05 2.35069625e+05 2.32706310e+05 2.30589175e+05 
        </DataArray>
      </PointData>
    </Piece>
    <Piece NumberOfPoints="4" NumberOfCells="3">
      <Points>
        <DataArray type="Float64" NumberOfComponents="3" format="ascii">
          9.65642184e-02 -4.61716652e-02 0.00000000e+00 
1.06852271e-01 -4.78802323e-02 0.00000000e+00 
1.17164567e-01 -4.94215861e-02 0.00000000e+00 
1.27497971e-01 -5.08146733e-02 0.00000000e+00 

        </DataArray>
      </Points>
      <Cells>
        <DataArray type="Int32" Name="connectivity" format="ascii">
0 1
1 2
2 3

        </DataArray>
        <DataArray type="Int32" Name="offsets" format="ascii">
2 4 6 
        </DataArray>
        <DataArray type="UInt8" Name="types" format="ascii">
3 3 3 
        </DataArray>
      </Cells>
      <PointData>
        <DataArray type="Float64" Name="rho">
          1.07655729e+00 1.06116340e+00 1.04750057e+00 1.03549171e+00 
        </DataArray>
        <DataArray type="Float64" Name="rhou">
          2.42995098e-02 1.78212293e-02 1.70375548e-02 1.27411454e-02 
        </DataArray>
        <DataArray type="Float64" Name="rhov">
          -1.51395226e-03 -1.24356051e-03 -2.02776377e-03 -2.00580515e-03 
        </DataArray>
        <DataArray type="Float64" Name="E">
          2.47630469e+05 2.43905455e+05 2.40601238e+05 2.37696336e+05 
        </DataArray>
      </PointData>
    </Piece>
  </UnstructuredGrid>
</VTKFile>
