<?xml version="1.0"?>
<VTKFile type="UnstructuredGrid" version="0.1" byte_order="LittleEndian">
  <UnstructuredGrid>
    <Piece NumberOfPoints="4" NumberOfCells="3">
      <Points>
        <DataArray type="Float64" NumberOfComponents="3" format="ascii">
          9.65642184e-02 -4.61716652e-02 0.00000000e+00 
9.26280916e-02 -4.54656407e-02 0.00000000e+00 
8.86965096e-02 -4.47326750e-02 0.00000000e+00 
8.47706869e-02 -4.39694971e-02 0.00000000e+00 

        </DataArray>
      </Points>
      <Cells>
        <DataArray type="Int32" Name="connectivity" format="ascii">
0 1
1 2
2 3

        </DataArray>
        <DataArray type="Int32" Name="offsets" format="ascii">
2 4 6 
        </DataArray>
        <DataArray type="UInt8" Name="types" format="ascii">
3 3 3 
        </DataArray>
      </Cells>
      <PointData>
        <DataArray type="Float64" Name="rho">
          1.03829684e+00 1.04520729e+00 1.05243041e+00 1.06009759e+00 
        </DataArray>
        <DataArray type="Float64" Name="rhou">
          2.84300161e-02 2.18868492e-02 2.45467862e-02 2.47034647e-02 
        </DataArray>
        <DataArray type="Float64" Name="rhov">
          -2.23634738e-03 -1.01062212e-03 -5.93593003e-04 -9.02110214e-04 
        </DataArray>
        <DataArray type="Float64" Name="E">
          2.37431664e+05 2.39087883e+05 2.40820632e+05 2.42660182e+05 
        </DataArray>
      </PointData>
    </Piece>
    <Piece NumberOfPoints="4" NumberOfCells="3">
      <Points>
        <DataArray type="Float64" NumberOfComponents="3" format="ascii">
          8.47706869e-02 -4.39694971e-02 0.00000000e+00 
8.08513016e-02 -4.31745499e-02 0.00000000e+00 
7.69388378e-02 -4.23462167e-02 0.00000000e+00 
7.30340332e-02 -4.14824970e-02 0.00000000e+00 

        </DataArray>
      </Points>
      <Cells>
        <DataArray type="Int32" Name="connectivity" format="ascii">
0 1
1 2
2 3

        </DataArray>
        <DataArray type="Int32" Name="offsets" format="ascii">
2 4 6 
        </DataArray>
        <DataArray type="UInt8" Name="types" format="ascii">
3 3 3 
        </DataArray>
      </Cells>
      <PointData>
        <DataArray type="Float64" Name="rho">
          1.06009642e+00 1.06818935e+00 1.07674318e+00 1.08582782e+00 
        </DataArray>
        <DataArray type="Float64" Name="rhou">
          2.48007344e-02 2.39615081e-02 2.25308940e-02 2.09441670e-02 
        </DataArray>
        <DataArray type="Float64" Name="rhov">
          -7.07321112e-04 -4.90352833e-04 4.30466312e-04 1.63988329e-03 
        </DataArray>
        <DataArray type="Float64" Name="E">
          2.42659922e+05 2.44603527e+05 2.46659004e+05 2.48843161e+05 
        </DataArray>
      </PointData>
    </Piece>
    <Piece NumberOfPoints="4" NumberOfCells="3">
      <Points>
        <DataArray type="Float64" NumberOfComponents="3" format="ascii">
          7.30340332e-02 -4.14824970e-02 0.00000000e+00 
6.91377968e-02 -4.05809283e-02 0.00000000e+00 
6.52511865e-02 -3.96387354e-02 0.00000000e+00 
6.13753870e-02 -3.86530459e-02 0.00000000e+00 

        </DataArray>
      </Points>
      <Cells>
        <DataArray type="Int32" Name="connectivity" format="ascii">
0 1
1 2
2 3

        </DataArray>
        <DataArray type="Int32" Name="offsets" format="ascii">
2 4 6 
        </DataArray>
        <DataArray type="UInt8" Name="types" format="ascii">
3 3 3 
        </DataArray>
      </Cells>
      <PointData>
        <DataArray type="Float64" Name="rho">
          1.08582841e+00 1.09552723e+00 1.10587209e+00 1.11692257e+00 
        </DataArray>
        <DataArray type="Float64" Name="rhou">
          2.10603100e-02 1.86838709e-02 1.45511522e-02 9.00804461e-03 
        </DataArray>
        <DataArray type="Float64" Name="rhov">
          1.47399439e-03 2.23454343e-03 4.33869134e-03 7.55642498e-03 
        </DataArray>
        <DataArray type="Float64" Name="E">
          2.48843321e+05 2.51177262e+05 2.53668223e+05 2.56331236e+05 
        </DataArray>
      </PointData>
    </Piece>
    <Piece NumberOfPoints="4" NumberOfCells="3">
      <Points>
        <DataArray type="Float64" NumberOfComponents="3" format="ascii">
          6.13753870e-02 -3.86530459e-02 0.00000000e+00 
5.75117208e-02 -3.76208089e-02 0.00000000e+00 
5.36618084e-02 -3.65384258e-02 0.00000000e+00 
4.98276278e-02 -3.54015976e-02 0.00000000e+00 

        </DataArray>
      </Points>
      <Cells>
        <DataArray type="Int32" Name="connectivity" format="ascii">
0 1
1 2
2 3

        </DataArray>
        <DataArray type="Int32" Name="offsets" format="ascii">
2 4 6 
        </DataArray>
        <DataArray type="UInt8" Name="types" format="ascii">
3 3 3 
        </DataArray>
      </Cells>
      <PointData>
        <DataArray type="Float64" Name="rho">
          1.11692284e+00 1.12876146e+00 1.14147319e+00 1.15518950e+00 
        </DataArray>
        <DataArray type="Float64" Name="rhou">
          8.95006060e-03 1.84973532e-03 -7.41232839e-03 -1.89926040e-02 
        </DataArray>
        <DataArray type="Float64" Name="rhov">
          7.32744906e-03 1.20654564e-02 2.01932394e-02 3.17282825e-02 
        </DataArray>
        <DataArray type="Float64" Name="E">
          2.56331299e+05 2.59188096e+05 2.62258121e+05 2.65573952e+05 
        </DataArray>
      </PointData>
    </Piece>
    <Piece NumberOfPoints="4" NumberOfCells="3">
      <Points>
        <DataArray type="Float64" NumberOfComponents="3" format="ascii">
          4.98276278e-02 -3.54015976e-02 0.00000000e+00 
4.60115410e-02 -3.42054628e-02 0.00000000e+00 
4.22164090e-02 -3.29444520e-02 0.00000000e+00 
3.84457745e-02 -3.16120051e-02 0.00000000e+00 

        </DataArray>
      </Points>
      <Cells>
        <DataArray type="Int32" Name="connectivity" format="ascii">
0 1
1 2
2 3

        </DataArray>
        <DataArray type="Int32" Name="offsets" format="ascii">
2 4 6 
        </DataArray>
        <DataArray type="UInt8" Name="types" format="ascii">
3 3 3 
        </DataArray>
      </Cells>
      <PointData>
        <DataArray type="Float64" Name="rho">
          1.15518941e+00 1.17000986e+00 1.18604693e+00 1.20349210e+00 
        </DataArray>
        <DataArray type="Float64" Name="rhou">
          -1.94519032e-02 -3.36447584e-02 -5.26995295e-02 -7.54955625e-02 
        </DataArray>
        <DataArray type="Float64" Name="rhov">
          3.15133521e-02 4.82704697e-02 7.60540215e-02 1.16695229e-01 
        </DataArray>
        <DataArray type="Float64" Name="E">
          2.65573897e+05 2.69163054e+05 2.73051520e+05 2.77287610e+05 
        </DataArray>
      </PointData>
    </Piece>
    <Piece NumberOfPoints="4" NumberOfCells="3">
      <Points>
        <DataArray type="Float64" NumberOfComponents="3" format="ascii">
          3.84457745e-02 -3.16120051e-02 0.00000000e+00 
3.47041376e-02 -3.02002355e-02 0.00000000e+00 
3.09973080e-02 -2.86995135e-02 0.00000000e+00 
2.73328498e-02 -2.70981900e-02 0.00000000e+00 

        </DataArray>
      </Points>
      <Cells>
        <DataArray type="Int32" Name="connectivity" format="ascii">
0 1
1 2
2 3

        </DataArray>
        <DataArray type="Int32" Name="offsets" format="ascii">
2 4 6 
        </DataArray>
        <DataArray type="UInt8" Name="types" format="ascii">
3 3 3 
        </DataArray>
      </Cells>
      <PointData>
        <DataArray type="Float64" Name="rho">
          1.20349231e+00 1.22253484e+00 1.24336838e+00 1.26636427e+00 
        </DataArray>
        <DataArray type="Float64" Name="rhou">
          -7.64537071e-02 -1.00649284e-01 -1.29336852e-01 -1.54775244e-01 
        </DataArray>
        <DataArray type="Float64" Name="rhov">
          1.16613308e-01 1.72388601e-01 2.58667527e-01 3.79461916e-01 
        </DataArray>
        <DataArray type="Float64" Name="E">
          2.77287524e+05 2.81923157e+05 2.87003187e+05 2.92621831e+05 
        </DataArray>
      </PointData>
    </Piece>
    <Piece NumberOfPoints="4" NumberOfCells="3">
      <Points>
        <DataArray type="Float64" NumberOfComponents="3" format="ascii">
          2.73328498e-02 -2.70981900e-02 0.00000000e+00 
2.37206947e-02 -2.53822580e-02 0.00000000e+00 
2.01744195e-02 -2.35341713e-02 0.00000000e+00 
1.67132635e-02 -2.15314496e-02 0.00000000e+00 

        </DataArray>
      </Points>
      <Cells>
        <DataArray type="Int32" Name="connectivity" format="ascii">
0 1
1 2
2 3

        </DataArray>
        <DataArray type="Int32" Name="offsets" format="ascii">
2 4 6 
        </DataArray>
        <DataArray type="UInt8" Name="types" format="ascii">
3 3 3 
        </DataArray>
      </Cells>
      <PointData>
        <DataArray type="Float64" Name="rho">
          1.26636917e+00 1.29186779e+00 1.32032543e+00 1.35308514e+00 
        </DataArray>
        <DataArray type="Float64" Name="rhou">
          -1.55168360e-01 -1.69146302e-01 -1.53296694e-01 -5.68720805e-02 
        </DataArray>
        <DataArray type="Float64" Name="rhov">
          3.80142236e-01 5.32579534e-01 7.44208412e-01 9.63699676e-01 
        </DataArray>
        <DataArray type="Float64" Name="E">
          2.92622739e+05 2.98874870e+05 3.05864996e+05 3.13921605e+05 
        </DataArray>
      </PointData>
    </Piece>
    <Piece NumberOfPoints="4" NumberOfCells="3">
      <Points>
        <DataArray type="Float64" NumberOfComponents="3" format="ascii">
          1.67132635e-02 -2.15314496e-02 0.00000000e+00 
1.33649679e-02 -1.93456318e-02 0.00000000e+00 
1.01706637e-02 -1.69409402e-02 0.00000000e+00 
7.19343964e-03 -1.42731192e-02 0.00000000e+00 

        </DataArray>
      </Points>
      <Cells>
        <DataArray type="Int32" Name="connectivity" format="ascii">
0 1
1 2
2 3

        </DataArray>
        <DataArray type="Int32" Name="offsets" format="ascii">
2 4 6 
        </DataArray>
        <DataArray type="UInt8" Name="types" format="ascii">
3 3 3 
        </DataArray>
      </Cells>
      <PointData>
        <DataArray type="Float64" Name="rho">
          1.35297893e+00 1.39278336e+00 1.43996699e+00 1.50502929e+00 
        </DataArray>
        <DataArray type="Float64" Name="rhou">
          -3.42208900e-02 1.14953873e-01 4.57595462e-01 8.79779267e-01 
        </DataArray>
        <DataArray type="Float64" Name="rhov">
          9.25301443e-01 1.12937196e+00 1.07498825e+00 5.23651632e-01 
        </DataArray>
        <DataArray type="Float64" Name="E">
          3.13897290e+05 3.23689086e+05 3.35288550e+05 3.51167320e+05 
        </DataArray>
      </PointData>
    </Piece>
    <Piece NumberOfPoints="4" NumberOfCells="3">
      <Points>
        <DataArray type="Float64" NumberOfComponents="3" format="ascii">
          7.19343964e-03 -1.42731192e-02 0.00000000e+00 
4.53082798e-03 -1.12927537e-02 0.00000000e+00 
2.33371323e-03 -7.95678515e-03 0.00000000e+00 
8.10639584e-04 -4.26717056e-03 0.00000000e+00 

        </DataArray>
      </Points>
      <Cells>
        <DataArray type="Int32" Name="connectivity" format="ascii">
0 1
1 2
2 3

        </DataArray>
        <DataArray type="Int32" Name="offsets" format="ascii">
2 4 6 
        </DataArray>
        <DataArray type="UInt8" Name="types" format="ascii">
3 3 3 
        </DataArray>
      </Cells>
      <PointData>
        <DataArray type="Float64" Name="rho">
          1.50555005e+00 1.58000492e+00 1.66919637e+00 1.73811258e+00 
        </DataArray>
        <DataArray type="Float64" Name="rhou">
          8.04606491e-01 9.35436149e-01 2.61783877e-01 -1.27855515e+00 
        </DataArray>
        <DataArray type="Float64" Name="rhov">
          6.22506716e-01 -5.10536672e-01 -1.73514308e+00 -1.82742766e+00 
        </DataArray>
        <DataArray type="Float64" Name="E">
          3.51295117e+05 3.69501690e+05 3.91189084e+05 4.07969587e+05 
        </DataArray>
      </PointData>
    </Piece>
    <Piece NumberOfPoints="4" NumberOfCells="3">
      <Points>
        <DataArray type="Float64" NumberOfComponents="3" format="ascii">
          8.10639584e-04 -4.26717056e-03 0.00000000e+00 
1.91366620e-04 -3.27450951e-04 0.00000000e+00 
6.40850572e-04 3.63462302e-03 0.00000000e+00 
2.03182548e-03 7.37539819e-03 0.00000000e+00 

        </DataArray>
      </Points>
      <Cells>
        <DataArray type="Int32" Name="connectivity" format="ascii">
0 1
1 2
2 3

        </DataArray>
        <DataArray type="Int32" Name="offsets" format="ascii">
2 4 6 
        </DataArray>
        <DataArray type="UInt8" Name="types" format="ascii">
3 3 3 
        </DataArray>
      </Cells>
      <PointData>
        <DataArray type="Float64" Name="rho">
          1.73653328e+00 1.76174778e+00 1.71163598e+00 1.61935540e+00 
        </DataArray>
        <DataArray type="Float64" Name="rhou">
          -1.15244143e+00 -1.88863717e+00 -8.43569322e-01 7.51742350e-01 
        </DataArray>
        <DataArray type="Float64" Name="rhov">
          -1.98505489e+00 3.60021463e-01 1.88795846e+00 1.52581679e+00 
        </DataArray>
        <DataArray type="Float64" Name="E">
          4.07586578e+05 4.13635657e+05 4.01365966e+05 3.78791534e+05 
        </DataArray>
      </PointData>
    </Piece>
    <Piece NumberOfPoints="4" NumberOfCells="3">
      <Points>
        <DataArray type="Float64" NumberOfComponents="3" format="ascii">
          2.03182548e-03 7.37539819e-03 0.00000000e+00 
4.13410179e-03 1.07714310e-02 0.00000000e+00 
6.73249783e-03 1.38076087e-02 0.00000000e+00 
9.66598373e-03 1.65232457e-02 0.00000000e+00 

        </DataArray>
      </Points>
      <Cells>
        <DataArray type="Int32" Name="connectivity" format="ascii">
0 1
1 2
2 3

        </DataArray>
        <DataArray type="Int32" Name="offsets" format="ascii">
2 4 6 
        </DataArray>
        <DataArray type="UInt8" Name="types" format="ascii">
3 3 3 
        </DataArray>
      </Cells>
      <PointData>
        <DataArray type="Float64" Name="rho">
          1.61972352e+00 1.51274125e+00 1.42355503e+00 1.35663001e+00 
        </DataArray>
        <DataArray type="Float64" Name="rhou">
          7.23566005e-01 1.16004444e+00 8.46492652e-01 3.80459032e-01 
        </DataArray>
        <DataArray type="Float64" Name="rhov">
          1.76047612e+00 6.82893013e-02 -1.07513189e+00 -1.40418226e+00 
        </DataArray>
        <DataArray type="Float64" Name="E">
          3.78884242e+05 3.52869487e+05 3.31144777e+05 3.14760765e+05 
        </DataArray>
      </PointData>
    </Piece>
    <Piece NumberOfPoints="4" NumberOfCells="3">
      <Points>
        <DataArray type="Float64" NumberOfComponents="3" format="ascii">
          9.66598373e-03 1.65232457e-02 0.00000000e+00 
1.28298048e-02 1.89677756e-02 0.00000000e+00 
1.61561389e-02 2.11867876e-02 0.00000000e+00 
1.96009967e-02 2.32173651e-02 0.00000000e+00 

        </DataArray>
      </Points>
      <Cells>
        <DataArray type="Int32" Name="connectivity" format="ascii">
0 1
1 2
2 3

        </DataArray>
        <DataArray type="Int32" Name="offsets" format="ascii">
2 4 6 
        </DataArray>
        <DataArray type="UInt8" Name="types" format="ascii">
3 3 3 
        </DataArray>
      </Cells>
      <PointData>
        <DataArray type="Float64" Name="rho">
          1.35642389e+00 1.30397986e+00 1.26501872e+00 1.23072030e+00 
        </DataArray>
        <DataArray type="Float64" Name="rhou">
          3.90121980e-01 -1.36949130e-02 -1.97151872e-01 -2.18697150e-01 
        </DataArray>
        <DataArray type="Float64" Name="rhov">
          -1.42869069e+00 -1.32562147e+00 -9.95502199e-01 -6.69453799e-01 
        </DataArray>
        <DataArray type="Float64" Name="E">
          3.14708312e+05 3.01869730e+05 2.92281656e+05 2.83866772e+05 
        </DataArray>
      </PointData>
    </Piece>
    <Piece NumberOfPoints="4" NumberOfCells="3">
      <Points>
        <DataArray type="Float64" NumberOfComponents="3" format="ascii">
          1.96009967e-02 2.32173651e-02 0.00000000e+00 
2.31348258e-02 2.50891000e-02 0.00000000e+00 
2.67372411e-02 2.68253610e-02 0.00000000e+00 
3.03938854e-02 2.84444261e-02 0.00000000e+00 

        </DataArray>
      </Points>
      <Cells>
        <DataArray type="Int32" Name="connectivity" format="ascii">
0 1
1 2
2 3

        </DataArray>
        <DataArray type="Int32" Name="offsets" format="ascii">
2 4 6 
        </DataArray>
        <DataArray type="UInt8" Name="types" format="ascii">
3 3 3 
        </DataArray>
      </Cells>
      <PointData>
        <DataArray type="Float64" Name="rho">
          1.23078431e+00 1.20166935e+00 1.17562701e+00 1.15203819e+00 
        </DataArray>
        <DataArray type="Float64" Name="rhou">
          -2.31889789e-01 -2.19084580e-01 -1.74170852e-01 -1.32051292e-01 
        </DataArray>
        <DataArray type="Float64" Name="rhov">
          -6.87813934e-01 -4.35919558e-01 -2.48485145e-01 -1.35116117e-01 
        </DataArray>
        <DataArray type="Float64" Name="E">
          2.83881773e+05 2.76757859e+05 2.70408483e+05 2.64674154e+05 
        </DataArray>
      </PointData>
    </Piece>
    <Piece NumberOfPoints="4" NumberOfCells="3">
      <Points>
        <DataArray type="Float64" NumberOfComponents="3" format="ascii">
          3.03938854e-02 2.84444261e-02 0.00000000e+00 
3.40943485e-02 2.99607720e-02 0.00000000e+00 
3.78307216e-02 3.13864015e-02 0.00000000e+00 
4.15969416e-02 3.27312648e-02 0.00000000e+00 

        </DataArray>
      </Points>
      <Cells>
        <DataArray type="Int32" Name="connectivity" format="ascii">
0 1
1 2
2 3

        </DataArray>
        <DataArray type="Int32" Name="offsets" format="ascii">
2 4 6 
        </DataArray>
        <DataArray type="UInt8" Name="types" format="ascii">
3 3 3 
        </DataArray>
      </Cells>
      <PointData>
        <DataArray type="Float64" Name="rho">
          1.15203642e+00 1.13068553e+00 1.11128647e+00 1.09359529e+00 
        </DataArray>
        <DataArray type="Float64" Name="rhou">
          -1.30247903e-01 -9.00673001e-02 -5.71949803e-02 -3.41103094e-02 
        </DataArray>
        <DataArray type="Float64" Name="rhov">
          -1.33660059e-01 -5.69140157e-02 -9.36502689e-03 1.63669027e-02 
        </DataArray>
        <DataArray type="Float64" Name="E">
          2.64673994e+05 2.59502279e+05 2.54814490e+05 2.50547069e+05 
        </DataArray>
      </PointData>
    </Piece>
    <Piece NumberOfPoints="4" NumberOfCells="3">
      <Points>
        <DataArray type="Float64" NumberOfComponents="3" format="ascii">
          4.15969416e-02 3.27312648e-02 0.00000000e+00 
4.53883260e-02 3.40034962e-02 0.00000000e+00 
4.92011942e-02 3.52098532e-02 0.00000000e+00 
5.30325845e-02 3.63560505e-02 0.00000000e+00 

        </DataArray>
      </Points>
      <Cells>
        <DataArray type="Int32" Name="connectivity" format="ascii">
0 1
1 2
2 3

        </DataArray>
        <DataArray type="Int32" Name="offsets" format="ascii">
2 4 6 
        </DataArray>
        <DataArray type="UInt8" Name="types" format="ascii">
3 3 3 
        </DataArray>
      </Cells>
      <PointData>
        <DataArray type="Float64" Name="rho">
          1.09359587e+00 1.07742229e+00 1.06257981e+00 1.04890929e+00 
        </DataArray>
        <DataArray type="Float64" Name="rhou">
          -3.29615350e-02 -1.33836849e-02 1.18322221e-03 1.06900450e-02 
        </DataArray>
        <DataArray type="Float64" Name="rhov">
          1.62742968e-02 3.02426080e-02 3.71147264e-02 3.84250533e-02 
        </DataArray>
        <DataArray type="Float64" Name="E">
          2.50547283e+05 2.46654399e+05 2.43087312e+05 2.39805915e+05 
        </DataArray>
      </PointData>
    </Piece>
    <Piece NumberOfPoints="4" NumberOfCells="3">
      <Points>
        <DataArray type="Float64" NumberOfComponents="3" format="ascii">
          5.30325845e-02 3.63560505e-02 0.00000000e+00 
5.68800643e-02 3.74470428e-02 0.00000000e+00 
6.07415959e-02 3.84872220e-02 0.00000000e+00 
6.46155030e-02 3.94803248e-02 0.00000000e+00 

        </DataArray>
      </Points>
      <Cells>
        <DataArray type="Int32" Name="connectivity" format="ascii">
0 1
1 2
2 3

        </DataArray>
        <DataArray type="Int32" Name="offsets" format="ascii">
2 4 6 
        </DataArray>
        <DataArray type="UInt8" Name="types" format="ascii">
3 3 3 
        </DataArray>
      </Cells>
      <PointData>
        <DataArray type="Float64" Name="rho">
          1.04891000e+00 1.03632252e+00 1.02468713e+00 1.01386279e+00 
        </DataArray>
        <DataArray type="Float64" Name="rhou">
          1.10146411e-02 1.81166919e-02 2.37555552e-02 2.76841419e-02 
        </DataArray>
        <DataArray type="Float64" Name="rhov">
          3.80993930e-02 3.65580474e-02 3.46047133e-02 3.14531472e-02 
        </DataArray>
        <DataArray type="Float64" Name="E">
          2.39806078e+05 2.36788799e+05 2.34002457e+05 2.31412782e+05 
        </DataArray>
      </PointData>
    </Piece>
    <Piece NumberOfPoints="4" NumberOfCells="3">
      <Points>
        <DataArray type="Float64" NumberOfComponents="3" format="ascii">
          6.46155030e-02 3.94803248e-02 0.00000000e+00 
6.85004294e-02 4.04294394e-02 0.00000000e+00 
7.23951608e-02 4.13374715e-02 0.00000000e+00 
7.62986317e-02 4.22072113e-02 0.00000000e+00 

        </DataArray>
      </Points>
      <Cells>
        <DataArray type="Int32" Name="connectivity" format="ascii">
0 1
1 2
2 3

        </DataArray>
        <DataArray type="Int32" Name="offsets" format="ascii">
2 4 6 
        </DataArray>
        <DataArray type="UInt8" Name="types" format="ascii">
3 3 3 
        </DataArray>
      </Cells>
      <PointData>
        <DataArray type="Float64" Name="rho">
          1.01386351e+00 1.00380860e+00 9.94434396e-01 9.85685232e-01 
        </DataArray>
        <DataArray type="Float64" Name="rhou">
          2.75054176e-02 2.95190988e-02 3.06775540e-02 3.08239259e-02 
        </DataArray>
        <DataArray type="Float64" Name="rhov">
          3.11536174e-02 2.73079443e-02 2.39833339e-02 2.07170748e-02 
        </DataArray>
        <DataArray type="Float64" Name="E">
          2.31412931e+05 2.29009883e+05 2.26771270e+05 2.24683117e+05 
        </DataArray>
      </PointData>
    </Piece>
    <Piece NumberOfPoints="4" NumberOfCells="3">
      <Points>
        <DataArray type="Float64" NumberOfComponents="3" format="ascii">
          7.62986317e-02 4.22072113e-02 0.00000000e+00 
8.02098960e-02 4.30411920e-02 0.00000000e+00 
8.41281936e-02 4.38414887e-02 0.00000000e+00 
8.80528912e-02 4.46097627e-02 0.00000000e+00 

        </DataArray>
      </Points>
      <Cells>
        <DataArray type="Int32" Name="connectivity" format="ascii">
0 1
1 2
2 3

        </DataArray>
        <DataArray type="Int32" Name="offsets" format="ascii">
2 4 6 
        </DataArray>
        <DataArray type="UInt8" Name="types" format="ascii">
3 3 3 
        </DataArray>
      </Cells>
      <PointData>
        <DataArray type="Float64" Name="rho">
          9.85684303e-01 9.77513816e-01 9.69827639e-01 9.62579693e-01 
        </DataArray>
        <DataArray type="Float64" Name="rhou">
          3.06791813e-02 3.07404908e-02 3.05036777e-02 2.94634966e-02 
        </DataArray>
        <DataArray type="Float64" Name="rhov">
          2.05534769e-02 1.80367479e-02 1.55643379e-02 1.29105793e-02 
        </DataArray>
        <DataArray type="Float64" Name="E">
          2.24682884e+05 2.22734288e+05 2.20902407e+05 2.19176062e+05 
        </DataArray>
      </PointData>
    </Piece>
    <Piece NumberOfPoints="4" NumberOfCells="3">
      <Points>
        <DataArray type="Float64" NumberOfComponents="3" format="ascii">
          8.80528912e-02 4.46097627e-02 0.00000000e+00 
9.19835642e-02 4.53475714e-02 0.00000000e+00 
9.59195644e-02 4.60564308e-02 0.00000000e+00 
9.98597518e-02 4.67394181e-02 0.00000000e+00 

        </DataArray>
      </Points>
      <Cells>
        <DataArray type="Int32" Name="connectivity" format="ascii">
0 1
1 2
2 3

        </DataArray>
        <DataArray type="Int32" Name="offsets" format="ascii">
2 4 6 
        </DataArray>
        <DataArray type="UInt8" Name="types" format="ascii">
3 3 3 
        </DataArray>
      </Cells>
      <PointData>
        <DataArray type="Float64" Name="rho">
          9.62580173e-01 9.55761088e-01 9.49357770e-01 9.43271501e-01 
        </DataArray>
        <DataArray type="Float64" Name="rhou">
          2.92627475e-02 2.78641139e-02 2.43751040e-02 2.89600652e-02 
        </DataArray>
        <DataArray type="Float64" Name="rhov">
          1.30739164e-02 1.05293185e-02 8.97663627e-03 8.52262884e-03 
        </DataArray>
        <DataArray type="Float64" Name="E">
          2.19176173e+05 2.17553159e+05 2.16029482e+05 2.14582259e+05 
        </DataArray>
      </PointData>
    </Piece>
    <Piece NumberOfPoints="4" NumberOfCells="3">
      <Points>
        <DataArray type="Float64" NumberOfComponents="3" format="ascii">
          9.98597518e-02 4.67394181e-02 0.00000000e+00 
1.10118888e-01 4.83862534e-02 0.00000000e+00 
1.20400399e-01 4.98730615e-02 0.00000000e+00 
1.30701363e-01 5.12186773e-02 0.00000000e+00 

        </DataArray>
      </Points>
      <Cells>
        <DataArray type="Int32" Name="connectivity" format="ascii">
0 1
1 2
2 3

        </DataArray>
        <DataArray type="Int32" Name="offsets" format="ascii">
2 4 6 
        </DataArray>
        <DataArray type="UInt8" Name="types" format="ascii">
3 3 3 
        </DataArray>
      </Cells>
      <PointData>
        <DataArray type="Float64" Name="rho">
          9.43198194e-01 9.28952558e-01 9.16595962e-01 9.05904593e-01 
        </DataArray>
        <DataArray type="Float64" Name="rhou">
          2.66763921e-02 1.84509395e-02 1.63202962e-02 1.28322982e-02 
        </DataArray>
        <DataArray type="Float64" Name="rhov">
          7.27701738e-03 4.06463056e-03 3.57451693e-03 2.90995670e-03 
        </DataArray>
        <DataArray type="Float64" Name="E">
          2.14565684e+05 2.11182021e+05 2.08250307e+05 2.05716134e+05 
        </DataArray>
      </PointData>
    </Piece>
    <Piece NumberOfPoints="4" NumberOfCells="3">
      <Points>
        <DataArray type="Float64" NumberOfComponents="3" format="ascii">
          1.30701363e-01 5.12186773e-02 0.00000000e+00 
1.41019106e-01 5.24347536e-02 0.00000000e+00 
1.51350453e-01 5.35292812e-02 0.00000000e+00 
1.61692888e-01 5.45137413e-02 0.00000000e+00 

        </DataArray>
      </Points>
      <Cells>
        <DataArray type="Int32" Name="connectivity" format="ascii">
0 1
1 2
2 3

        </DataArray>
        <DataArray type="Int32" Name="offsets" format="ascii">
2 4 6 
        </DataArray>
        <DataArray type="UInt8" Name="types" format="ascii">
3 3 3 
        </DataArray>
      </Cells>
      <PointData>
        <DataArray type="Float64" Name="rho">
          9.05901087e-01 8.96449504e-01 8.88217308e-01 8.81099644e-01 
        </DataArray>
        <DataArray type="Float64" Name="rhou">
          1.42303987e-02 1.23161898e-02 1.02170583e-02 8.93598981e-03 
        </DataArray>
        <DataArray type="Float64" Name="rhov">
          3.41438068e-03 2.48955638e-03 1.70922605e-03 1.53460893e-03 
        </DataArray>
        <DataArray type="Float64" Name="E">
          2.05715288e+05 2.03478292e+05 2.01532223e+05 1.99851244e+05 
        </DataArray>
      </PointData>
    </Piece>
    <Piece NumberOfPoints="4" NumberOfCells="3">
      <Points>
        <DataArray type="Float64" NumberOfComponents="3" format="ascii">
          1.61692888e-01 5.45137413e-02 0.00000000e+00 
1.72044471e-01 5.53969070e-02 0.00000000e+00 
1.82403773e-01 5.61845005e-02 0.00000000e+00 
1.92769483e-01 5.68825118e-02 0.00000000e+00 

        </DataArray>
      </Points>
      <Cells>
        <DataArray type="Int32" Name="connectivity" format="ascii">
0 1
1 2
2 3

        </DataArray>
        <DataArray type="Int32" Name="offsets" format="ascii">
2 4 6 
        </DataArray>
        <DataArray type="UInt8" Name="types" format="ascii">
3 3 3 
        </DataArray>
      </Cells>
      <PointData>
        <DataArray type="Float64" Name="rho">
          8.81097214e-01 8.74901784e-01 8.69541465e-01 8.64967701e-01 
        </DataArray>
        <DataArray type="Float64" Name="rhou">
          8.97332449e-03 7.82360607e-03 6.77007510e-03 5.84912825e-03 
        </DataArray>
        <DataArray type="Float64" Name="rhov">
          1.58672763e-03 1.22432305e-03 8.43470439e-04 6.12733633e-04 
        </DataArray>
        <DataArray type="Float64" Name="E">
          1.99850698e+05 1.98389443e+05 1.97127171e+05 1.96051882e+05 
        </DataArray>
      </PointData>
    </Piece>
    <Piece NumberOfPoints="4" NumberOfCells="3">
      <Points>
        <DataArray type="Float64" NumberOfComponents="3" format="ascii">
          1.92769483e-01 5.68825118e-02 0.00000000e+00 
2.03140482e-01 5.74972220e-02 0.00000000e+00 
2.13515818e-01 5.80338500e-02 0.00000000e+00 
2.23894730e-01 5.84962890e-02 0.00000000e+00 

        </DataArray>
      </Points>
      <Cells>
        <DataArray type="Int32" Name="connectivity" format="ascii">
0 1
1 2
2 3

        </DataArray>
        <DataArray type="Int32" Name="offsets" format="ascii">
2 4 6 
        </DataArray>
        <DataArray type="UInt8" Name="types" format="ascii">
3 3 3 
        </DataArray>
      </Cells>
      <PointData>
        <DataArray type="Float64" Name="rho">
          8.64967008e-01 8.61103938e-01 8.57870797e-01 8.55212781e-01 
        </DataArray>
        <DataArray type="Float64" Name="rhou">
          5.88631453e-03 5.14749834e-03 4.57707292e-03 4.10371903e-03 
        </DataArray>
        <DataArray type="Float64" Name="rhov">
          6.54413486e-04 5.69160626e-04 4.55093753e-04 3.32284478e-04 
        </DataArray>
        <DataArray type="Float64" Name="E">
          1.96051722e+05 1.95145195e+05 1.94388407e+05 1.93768290e+05 
        </DataArray>
      </PointData>
    </Piece>
    <Piece NumberOfPoints="4" NumberOfCells="3">
      <Points>
        <DataArray type="Float64" NumberOfComponents="3" format="ascii">
          2.23894730e-01 5.84962890e-02 0.00000000e+00 
2.34276548e-01 5.88882305e-02 0.00000000e+00 
2.44660646e-01 5.92139624e-02 0.00000000e+00 
2.55046517e-01 5.94772622e-02 0.00000000e+00 

        </DataArray>
      </Points>
      <Cells>
        <DataArray type="Int32" Name="connectivity" format="ascii">
0 1
1 2
2 3

        </DataArray>
        <DataArray type="Int32" Name="offsets" format="ascii">
2 4 6 
        </DataArray>
        <DataArray type="UInt8" Name="types" format="ascii">
3 3 3 
        </DataArray>
      </Cells>
      <PointData>
        <DataArray type="Float64" Name="rho">
          8.55213372e-01 8.53092008e-01 8.51466128e-01 8.50282948e-01 
        </DataArray>
        <DataArray type="Float64" Name="rhou">
          4.11168938e-03 3.57428038e-03 3.18467760e-03 2.94735568e-03 
        </DataArray>
        <DataArray type="Float64" Name="rhov">
          3.46659802e-04 2.72181392e-04 2.58962300e-04 2.61203322e-04 
        </DataArray>
        <DataArray type="Float64" Name="E">
          1.93768425e+05 1.93275667e+05 1.92900414e+05 1.92630212e+05 
        </DataArray>
      </PointData>
    </Piece>
    <Piece NumberOfPoints="4" NumberOfCells="3">
      <Points>
        <DataArray type="Float64" NumberOfComponents="3" format="ascii">
          2.55046517e-01 5.94772622e-02 0.00000000e+00 
2.65433758e-01 5.96804135e-02 0.00000000e+00 
2.75821954e-01 5.98256700e-02 0.00000000e+00 
2.86210775e-01 5.99167012e-02 0.00000000e+00 

        </DataArray>
      </Points>
      <Cells>
        <DataArray type="Int32" Name="connectivity" format="ascii">
0 1
1 2
2 3

        </DataArray>
        <DataArray type="Int32" Name="offsets" format="ascii">
2 4 6 
        </DataArray>
        <DataArray type="UInt8" Name="types" format="ascii">
3 3 3 
        </DataArray>
      </Cells>
      <PointData>
        <DataArray type="Float64" Name="rho">
          8.50282961e-01 8.49496665e-01 8.49085336e-01 8.49030988e-01 
        </DataArray>
        <DataArray type="Float64" Name="rhou">
          2.94202267e-03 2.64429103e-03 2.34042501e-03 2.06756613e-03 
        </DataArray>
        <DataArray type="Float64" Name="rhov">
          2.72658202e-04 1.79633048e-04 1.24368686e-04 1.63416941e-04 
        </DataArray>
        <DataArray type="Float64" Name="E">
          1.92630219e+05 1.92454278e+05 1.92367321e+05 1.92364876e+05 
        </DataArray>
      </PointData>
    </Piece>
    <Piece NumberOfPoints="4" NumberOfCells="3">
      <Points>
        <DataArray type="Float64" NumberOfComponents="3" format="ascii">
          2.86210775e-01 5.99167012e-02 0.00000000e+00 
2.96599895e-01 5.99572174e-02 0.00000000e+00 
3.06989133e-01 5.99487796e-02 0.00000000e+00 
3.17378193e-01 5.98919280e-02 0.00000000e+00 

        </DataArray>
      </Points>
      <Cells>
        <DataArray type="Int32" Name="connectivity" format="ascii">
0 1
1 2
2 3

        </DataArray>
        <DataArray type="Int32" Name="offsets" format="ascii">
2 4 6 
        </DataArray>
        <DataArray type="UInt8" Name="types" format="ascii">
3 3 3 
        </DataArray>
      </Cells>
      <PointData>
        <DataArray type="Float64" Name="rho">
          8.49029935e-01 8.49284582e-01 8.49802077e-01 8.50568687e-01 
        </DataArray>
        <DataArray type="Float64" Name="rhou">
          2.08756347e-03 1.96781451e-03 1.83701973e-03 1.64798404e-03 
        </DataArray>
        <DataArray type="Float64" Name="rhov">
          1.80082820e-04 2.13380382e-04 1.61908046e-04 8.91155310e-05 
        </DataArray>
        <DataArray type="Float64" Name="E">
          1.92364636e+05 1.92435418e+05 1.92568741e+05 1.92761284e+05 
        </DataArray>
      </PointData>
    </Piece>
    <Piece NumberOfPoints="4" NumberOfCells="3">
      <Points>
        <DataArray type="Float64" NumberOfComponents="3" format="ascii">
          3.17378193e-01 5.98919280e-02 0.00000000e+00 
3.27766895e-01 5.97884916e-02 0.00000000e+00 
3.38155061e-01 5.96415885e-02 0.00000000e+00 
3.48542601e-01 5.94538599e-02 0.00000000e+00 

        </DataArray>
      </Points>
      <Cells>
        <DataArray type="Int32" Name="connectivity" format="ascii">
0 1
1 2
2 3

        </DataArray>
        <DataArray type="Int32" Name="offsets" format="ascii">
2 4 6 
        </DataArray>
        <DataArray type="UInt8" Name="types" format="ascii">
3 3 3 
        </DataArray>
      </Cells>
      <PointData>
        <DataArray type="Float64" Name="rho">
          8.50569048e-01 8.51573183e-01 8.52795036e-01 8.54201243e-01 
        </DataArray>
        <DataArray type="Float64" Name="rhou">
          1.67884665e-03 1.47561409e-03 1.35544572e-03 1.30741038e-03 
        </DataArray>
        <DataArray type="Float64" Name="rhov">
          9.68476971e-05 8.98009616e-05 1.20870324e-04 1.46380036e-04 
        </DataArray>
        <DataArray type="Float64" Name="E">
          1.92761366e+05 1.93010264e+05 1.93310774e+05 1.93655087e+05 
        </DataArray>
      </PointData>
    </Piece>
    <Piece NumberOfPoints="4" NumberOfCells="3">
      <Points>
        <DataArray type="Float64" NumberOfComponents="3" format="ascii">
          3.48542601e-01 5.94538599e-02 0.00000000e+00 
3.58929336e-01 5.92265576e-02 0.00000000e+00 
3.69315147e-01 5.89610897e-02 0.00000000e+00 
3.79699975e-01 5.86590059e-02 0.00000000e+00 

        </DataArray>
      </Points>
      <Cells>
        <DataArray type="Int32" Name="connectivity" format="ascii">
0 1
1 2
2 3

        </DataArray>
        <DataArray type="Int32" Name="offsets" format="ascii">
2 4 6 
        </DataArray>
        <DataArray type="UInt8" Name="types" format="ascii">
3 3 3 
        </DataArray>
      </Cells>
      <PointData>
        <DataArray type="Float64" Name="rho">
          8.54201498e-01 8.55765980e-01 8.57478865e-01 8.59319313e-01 
        </DataArray>
        <DataArray type="Float64" Name="rhou">
          1.32075475e-03 1.19228550e-03 1.09592697e-03 1.04653890e-03 
        </DataArray>
        <DataArray type="Float64" Name="rhov">
          1.43160429e-04 1.09730314e-04 1.05758017e-04 1.07532037e-04 
        </DataArray>
        <DataArray type="Float64" Name="E">
          1.93655145e+05 1.94037145e+05 1.94454419e+05 1.94902072e+05 
        </DataArray>
      </PointData>
    </Piece>
    <Piece NumberOfPoints="4" NumberOfCells="3">
      <Points>
        <DataArray type="Float64" NumberOfComponents="3" format="ascii">
          3.79699975e-01 5.86590059e-02 0.00000000e+00 
3.90083700e-01 5.83211333e-02 0.00000000e+00 
4.00466233e-01 5.79482466e-02 0.00000000e+00 
4.10847515e-01 5.75418957e-02 0.00000000e+00 

        </DataArray>
      </Points>
      <Cells>
        <DataArray type="Int32" Name="connectivity" format="ascii">
0 1
1 2
2 3

        </DataArray>
        <DataArray type="Int32" Name="offsets" format="ascii">
2 4 6 
        </DataArray>
        <DataArray type="UInt8" Name="types" format="ascii">
3 3 3 
        </DataArray>
      </Cells>
      <PointData>
        <DataArray type="Float64" Name="rho">
          8.59319326e-01 8.61269417e-01 8.63318293e-01 8.65458323e-01 
        </DataArray>
        <DataArray type="Float64" Name="rhou">
          1.03894694e-03 9.72761016e-04 8.92170810e-04 8.14433449e-04 
        </DataArray>
        <DataArray type="Float64" Name="rhov">
          1.09993295e-04 8.18444878e-05 6.13757308e-05 6.99375982e-05 
        </DataArray>
        <DataArray type="Float64" Name="E">
          1.94902076e+05 1.95375893e+05 1.95873280e+05 1.96392359e+05 
        </DataArray>
      </PointData>
    </Piece>
    <Piece NumberOfPoints="4" NumberOfCells="3">
      <Points>
        <DataArray type="Float64" NumberOfComponents="3" format="ascii">
          4.10847515e-01 5.75418957e-02 0.00000000e+00 
4.21227485e-01 5.71038015e-02 0.00000000e+00 
4.31606144e-01 5.66351078e-02 0.00000000e+00 
4.41983402e-01 5.61364293e-02 0.00000000e+00 

        </DataArray>
      </Points>
      <Cells>
        <DataArray type="Int32" Name="connectivity" format="ascii">
0 1
1 2
2 3

        </DataArray>
        <DataArray type="Int32" Name="offsets" format="ascii">
2 4 6 
        </DataArray>
        <DataArray type="UInt8" Name="types" format="ascii">
3 3 3 
        </DataArray>
      </Cells>
      <PointData>
        <DataArray type="Float64" Name="rho">
          8.65458116e-01 8.67672140e-01 8.69947004e-01 8.72271483e-01 
        </DataArray>
        <DataArray type="Float64" Name="rhou">
          8.31820811e-04 7.79576501e-04 7.40496543e-04 7.03340307e-04 
        </DataArray>
        <DataArray type="Float64" Name="rhov">
          7.34276237e-05 7.63062536e-05 6.88887709e-05 4.94804254e-05 
        </DataArray>
        <DataArray type="Float64" Name="E">
          1.96392312e+05 1.96929042e+05 1.97480319e+05 1.98043481e+05 
        </DataArray>
      </PointData>
    </Piece>
    <Piece NumberOfPoints="4" NumberOfCells="3">
      <Points>
        <DataArray type="Float64" NumberOfComponents="3" format="ascii">
          4.41983402e-01 5.61364293e-02 0.00000000e+00 
4.52359200e-01 5.56085743e-02 0.00000000e+00 
4.62733537e-01 5.50529286e-02 0.00000000e+00 
4.73106444e-01 5.44707514e-02 0.00000000e+00 

        </DataArray>
      </Points>
      <Cells>
        <DataArray type="Int32" Name="connectivity" format="ascii">
0 1
1 2
2 3

        </DataArray>
        <DataArray type="Int32" Name="offsets" format="ascii">
2 4 6 
        </DataArray>
        <DataArray type="UInt8" Name="types" format="ascii">
3 3 3 
        </DataArray>
      </Cells>
      <PointData>
        <DataArray type="Float64" Name="rho">
          8.72271632e-01 8.74639913e-01 8.77044039e-01 8.79473891e-01 
        </DataArray>
        <DataArray type="Float64" Name="rhou">
          7.00253061e-04 6.43911346e-04 6.04301459e-04 5.81987578e-04 
        </DataArray>
        <DataArray type="Float64" Name="rhov">
          5.00873456e-05 4.45492062e-05 4.70111405e-05 4.90157105e-05 
        </DataArray>
        <DataArray type="Float64" Name="E">
          1.98043515e+05 1.98617131e+05 1.99199285e+05 1.99787577e+05 
        </DataArray>
      </PointData>
    </Piece>
    <Piece NumberOfPoints="4" NumberOfCells="3">
      <Points>
        <DataArray type="Float64" NumberOfComponents="3" format="ascii">
          4.73106444e-01 5.44707514e-02 0.00000000e+00 
4.83477861e-01 5.38627952e-02 0.00000000e+00 
4.93847787e-01 5.32294959e-02 0.00000000e+00 
5.04216135e-01 5.25716618e-02 0.00000000e+00 

        </DataArray>
      </Points>
      <Cells>
        <DataArray type="Int32" Name="connectivity" format="ascii">
0 1
1 2
2 3

        </DataArray>
        <DataArray type="Int32" Name="offsets" format="ascii">
2 4 6 
        </DataArray>
        <DataArray type="UInt8" Name="types" format="ascii">
3 3 3 
        </DataArray>
      </Cells>
      <PointData>
        <DataArray type="Float64" Name="rho">
          8.79473878e-01 8.81921082e-01 8.84378830e-01 8.86844707e-01 
        </DataArray>
        <DataArray type="Float64" Name="rhou">
          5.74068002e-04 5.54222013e-04 5.19919629e-04 4.79307494e-04 
        </DataArray>
        <DataArray type="Float64" Name="rhov">
          5.08175414e-05 4.05482120e-05 2.65907347e-05 2.51070699e-05 
        </DataArray>
        <DataArray type="Float64" Name="E">
          1.99787574e+05 2.00380008e+05 2.00974957e+05 2.01571789e+05 
        </DataArray>
      </PointData>
    </Piece>
    <Piece NumberOfPoints="4" NumberOfCells="3">
      <Points>
        <DataArray type="Float64" NumberOfComponents="3" format="ascii">
          5.04216135e-01 5.25716618e-02 0.00000000e+00 
5.14582992e-01 5.18903993e-02 0.00000000e+00 
5.24948359e-01 5.11864908e-02 0.00000000e+00 
5.35312176e-01 5.04603274e-02 0.00000000e+00 

        </DataArray>
      </Points>
      <Cells>
        <DataArray type="Int32" Name="connectivity" format="ascii">
0 1
1 2
2 3

        </DataArray>
        <DataArray type="Int32" Name="offsets" format="ascii">
2 4 6 
        </DataArray>
        <DataArray type="UInt8" Name="types" format="ascii">
3 3 3 
        </DataArray>
      </Cells>
      <PointData>
        <DataArray type="Float64" Name="rho">
          8.86844621e-01 8.89311876e-01 8.91774792e-01 8.94228712e-01 
        </DataArray>
        <DataArray type="Float64" Name="rhou">
          4.87931421e-04 4.63344083e-04 4.45367651e-04 4.28158538e-04 
        </DataArray>
        <DataArray type="Float64" Name="rhov">
          2.72697040e-05 2.77891723e-05 2.29526758e-05 1.13786866e-05 
        </DataArray>
        <DataArray type="Float64" Name="E">
          2.01571770e+05 2.02168873e+05 2.02764880e+05 2.03358670e+05 
        </DataArray>
      </PointData>
    </Piece>
    <Piece NumberOfPoints="4" NumberOfCells="3">
      <Points>
        <DataArray type="Float64" NumberOfComponents="3" format="ascii">
          5.35312176e-01 5.04603274e-02 0.00000000e+00 
5.45674443e-01 4.97124642e-02 0.00000000e+00 
5.56035221e-01 4.89437394e-02 0.00000000e+00 
5.66394389e-01 4.81546782e-02 0.00000000e+00 

        </DataArray>
      </Points>
      <Cells>
        <DataArray type="Int32" Name="connectivity" format="ascii">
0 1
1 2
2 3

        </DataArray>
        <DataArray type="Int32" Name="offsets" format="ascii">
2 4 6 
        </DataArray>
        <DataArray type="UInt8" Name="types" format="ascii">
3 3 3 
        </DataArray>
      </Cells>
      <PointData>
        <DataArray type="Float64" Name="rho">
          8.94228760e-01 8.96672065e-01 8.99100883e-01 9.01511464e-01 
        </DataArray>
        <DataArray type="Float64" Name="rhou">
          4.23505845e-04 3.98941788e-04 3.82579637e-04 3.73424655e-04 
        </DataArray>
        <DataArray type="Float64" Name="rhov">
          1.16127509e-05 1.11537703e-05 1.05275451e-05 6.15209217e-06 
        </DataArray>
        <DataArray type="Float64" Name="E">
          2.03358681e+05 2.03949829e+05 2.04537401e+05 2.05120497e+05 
        </DataArray>
      </PointData>
    </Piece>
    <Piece NumberOfPoints="4" NumberOfCells="3">
      <Points>
        <DataArray type="Float64" NumberOfComponents="3" format="ascii">
          5.66394389e-01 4.81546782e-02 0.00000000e+00 
5.76752067e-01 4.73455116e-02 0.00000000e+00 
5.87108195e-01 4.65166979e-02 0.00000000e+00 
5.97462773e-01 4.56690118e-02 0.00000000e+00 

        </DataArray>
      </Points>
      <Cells>
        <DataArray type="Int32" Name="connectivity" format="ascii">
0 1
1 2
2 3

        </DataArray>
        <DataArray type="Int32" Name="offsets" format="ascii">
2 4 6 
        </DataArray>
        <DataArray type="UInt8" Name="types" format="ascii">
3 3 3 
        </DataArray>
      </Cells>
      <PointData>
        <DataArray type="Float64" Name="rho">
          9.01511495e-01 9.03901458e-01 9.06269886e-01 9.08615347e-01 
        </DataArray>
        <DataArray type="Float64" Name="rhou">
          3.72433376e-04 3.54178539e-04 3.35150690e-04 3.21609160e-04 
        </DataArray>
        <DataArray type="Float64" Name="rhov">
          6.45545540e-06 -2.65605323e-06 -6.69958545e-06 -6.03763602e-06 
        </DataArray>
        <DataArray type="Float64" Name="E">
          2.05120504e+05 2.05698543e+05 2.06271278e+05 2.06838348e+05 
        </DataArray>
      </PointData>
    </Piece>
    <Piece NumberOfPoints="4" NumberOfCells="3">
      <Points>
        <DataArray type="Float64" NumberOfComponents="3" format="ascii">
          5.97462773e-01 4.56690118e-02 0.00000000e+00 
6.07815862e-01 4.48031016e-02 0.00000000e+00 
6.18167400e-01 4.39192392e-02 0.00000000e+00 
6.28517449e-01 4.30175588e-02 0.00000000e+00 

        </DataArray>
      </Points>
      <Cells>
        <DataArray type="Int32" Name="connectivity" format="ascii">
0 1
1 2
2 3

        </DataArray>
        <DataArray type="Int32" Name="offsets" format="ascii">
2 4 6 
        </DataArray>
        <DataArray type="UInt8" Name="types" format="ascii">
3 3 3 
        </DataArray>
      </Cells>
      <PointData>
        <DataArray type="Float64" Name="rho">
          9.08615283e-01 9.10935462e-01 9.13228192e-01 9.15493396e-01 
        </DataArray>
        <DataArray type="Float64" Name="rhou">
          3.19366139e-04 3.13008621e-04 3.03098949e-04 2.88032124e-04 
        </DataArray>
        <DataArray type="Float64" Name="rhov">
          -5.11092385e-06 -6.35376379e-06 -1.29722798e-05 -1.94422211e-05 
        </DataArray>
        <DataArray type="Float64" Name="E">
          2.06838334e+05 2.07399182e+05 2.07953291e+05 2.08500622e+05 
        </DataArray>
      </PointData>
    </Piece>
    <Piece NumberOfPoints="4" NumberOfCells="3">
      <Points>
        <DataArray type="Float64" NumberOfComponents="3" format="ascii">
          6.28517449e-01 4.30175588e-02 0.00000000e+00 
6.38865948e-01 4.20984775e-02 0.00000000e+00 
6.49212897e-01 4.11624312e-02 0.00000000e+00 
6.59558356e-01 4.02097441e-02 0.00000000e+00 

        </DataArray>
      </Points>
      <Cells>
        <DataArray type="Int32" Name="connectivity" format="ascii">
0 1
1 2
2 3

        </DataArray>
        <DataArray type="Int32" Name="offsets" format="ascii">
2 4 6 
        </DataArray>
        <DataArray type="UInt8" Name="types" format="ascii">
3 3 3 
        </DataArray>
      </Cells>
      <PointData>
        <DataArray type="Float64" Name="rho">
          9.15493388e-01 9.17730736e-01 9.19939276e-01 9.22118665e-01 
        </DataArray>
        <DataArray type="Float64" Name="rhou">
          2.88813614e-04 2.77943970e-04 2.68748989e-04 2.58797822e-04 
        </DataArray>
        <DataArray type="Float64" Name="rhov">
          -1.84014216e-05 -2.02428643e-05 -2.33445959e-05 -2.68930652e-05 
        </DataArray>
        <DataArray type="Float64" Name="E">
          2.08500621e+05 2.09041079e+05 2.09574432e+05 2.10100585e+05 
        </DataArray>
      </PointData>
    </Piece>
    <Piece NumberOfPoints="4" NumberOfCells="3">
      <Points>
        <DataArray type="Float64" NumberOfComponents="3" format="ascii">
          6.59558356e-01 4.02097441e-02 0.00000000e+00 
6.69902325e-01 3.92407738e-02 0.00000000e+00 
6.80244744e-01 3.82556282e-02 0.00000000e+00 
6.90585554e-01 3.72543521e-02 0.00000000e+00 

        </DataArray>
      </Points>
      <Cells>
        <DataArray type="Int32" Name="connectivity" format="ascii">
0 1
1 2
2 3

        </DataArray>
        <DataArray type="Int32" Name="offsets" format="ascii">
2 4 6 
        </DataArray>
        <DataArray type="UInt8" Name="types" format="ascii">
3 3 3 
        </DataArray>
      </Cells>
      <PointData>
        <DataArray type="Float64" Name="rho">
          9.22118647e-01 9.24268925e-01 9.26388999e-01 9.28479816e-01 
        </DataArray>
        <DataArray type="Float64" Name="rhou">
          2.55341329e-04 2.51948888e-04 2.44628014e-04 2.31125867e-04 
        </DataArray>
        <DataArray type="Float64" Name="rhov">
          -2.58139367e-05 -2.71341031e-05 -3.31211132e-05 -3.82993322e-05 
        </DataArray>
        <DataArray type="Float64" Name="E">
          2.10100582e+05 2.10619534e+05 2.11131026e+05 2.11635265e+05 
        </DataArray>
      </PointData>
    </Piece>
    <Piece NumberOfPoints="4" NumberOfCells="3">
      <Points>
        <DataArray type="Float64" NumberOfComponents="3" format="ascii">
          6.90585554e-01 3.72543521e-02 0.00000000e+00 
7.00924933e-01 3.62373814e-02 0.00000000e+00 
7.11262703e-01 3.52048986e-02 0.00000000e+00 
7.21598923e-01 3.41568366e-02 0.00000000e+00 

        </DataArray>
      </Points>
      <Cells>
        <DataArray type="Int32" Name="connectivity" format="ascii">
0 1
1 2
2 3

        </DataArray>
        <DataArray type="Int32" Name="offsets" format="ascii">
2 4 6 
        </DataArray>
        <DataArray type="UInt8" Name="types" format="ascii">
3 3 3 
        </DataArray>
      </Cells>
      <PointData>
        <DataArray type="Float64" Name="rho">
          9.28479772e-01 9.30541923e-01 9.32574363e-01 9.34577982e-01 
        </DataArray>
        <DataArray type="Float64" Name="rhou">
          2.29588657e-04 2.25520535e-04 2.21063131e-04 2.08491940e-04 
        </DataArray>
        <DataArray type="Float64" Name="rhov">
          -3.71224405e-05 -3.59712329e-05 -4.08772691e-05 -4.72517901e-05 
        </DataArray>
        <DataArray type="Float64" Name="E">
          2.11635255e+05 2.12132365e+05 2.12622103e+05 2.13104664e+05 
        </DataArray>
      </PointData>
    </Piece>
    <Piece NumberOfPoints="4" NumberOfCells="3">
      <Points>
        <DataArray type="Float64" NumberOfComponents="3" format="ascii">
          7.21598923e-01 3.41568366e-02 0.00000000e+00 
7.31933594e-01 3.30936089e-02 0.00000000e+00 
7.42266715e-01 3.20154354e-02 0.00000000e+00 
7.52598286e-01 3.09220124e-02 0.00000000e+00 

        </DataArray>
      </Points>
      <Cells>
        <DataArray type="Int32" Name="connectivity" format="ascii">
0 1
1 2
2 3

        </DataArray>
        <DataArray type="Int32" Name="offsets" format="ascii">
2 4 6 
        </DataArray>
        <DataArray type="UInt8" Name="types" format="ascii">
3 3 3 
        </DataArray>
      </Cells>
      <PointData>
        <DataArray type="Float64" Name="rho">
          9.34577961e-01 9.36554072e-01 9.38501538e-01 9.40421177e-01 
        </DataArray>
        <DataArray type="Float64" Name="rhou">
          2.05674657e-04 2.01857565e-04 1.99145144e-04 1.88628170e-04 
        </DataArray>
        <DataArray type="Float64" Name="rhov">
          -4.62230418e-05 -4.29908438e-05 -4.67954719e-05 -5.35411058e-05 
        </DataArray>
        <DataArray type="Float64" Name="E">
          2.13104659e+05 2.13580335e+05 2.14048860e+05 2.14510414e+05 
        </DataArray>
      </PointData>
    </Piece>
    <Piece NumberOfPoints="4" NumberOfCells="3">
      <Points>
        <DataArray type="Float64" NumberOfComponents="3" format="ascii">
          7.52598286e-01 3.09220124e-02 0.00000000e+00 
7.62928188e-01 2.98135038e-02 0.00000000e+00 
7.73256481e-01 2.86899786e-02 0.00000000e+00 
7.83583105e-01 2.75512449e-02 0.00000000e+00 

        </DataArray>
      </Points>
      <Cells>
        <DataArray type="Int32" Name="connectivity" format="ascii">
0 1
1 2
2 3

        </DataArray>
        <DataArray type="Int32" Name="offsets" format="ascii">
2 4 6 
        </DataArray>
        <DataArray type="UInt8" Name="types" format="ascii">
3 3 3 
        </DataArray>
      </Cells>
      <PointData>
        <DataArray type="Float64" Name="rho">
          9.40421172e-01 9.42314468e-01 9.44180874e-01 9.46021426e-01 
        </DataArray>
        <DataArray type="Float64" Name="rhou">
          1.85895300e-04 1.81807559e-04 1.77413858e-04 1.67165038e-04 
        </DataArray>
        <DataArray type="Float64" Name="rhov">
          -5.25614533e-05 -5.15162848e-05 -5.52036381e-05 -5.99457891e-05 
        </DataArray>
        <DataArray type="Float64" Name="E">
          2.14510413e+05 2.14965326e+05 2.15413464e+05 2.15855054e+05 
        </DataArray>
      </PointData>
    </Piece>
    <Piece NumberOfPoints="4" NumberOfCells="3">
      <Points>
        <DataArray type="Float64" NumberOfComponents="3" format="ascii">
          7.83583105e-01 2.75512449e-02 0.00000000e+00 
7.93908060e-01 2.63975188e-02 0.00000000e+00 
8.04231405e-01 2.52291560e-02 0.00000000e+00 
8.14553022e-01 2.40457114e-02 0.00000000e+00 

        </DataArray>
      </Points>
      <Cells>
        <DataArray type="Int32" Name="connectivity" format="ascii">
0 1
1 2
2 3

        </DataArray>
        <DataArray type="Int32" Name="offsets" format="ascii">
2 4 6 
        </DataArray>
        <DataArray type="UInt8" Name="types" format="ascii">
3 3 3 
        </DataArray>
      </Cells>
      <PointData>
        <DataArray type="Float64" Name="rho">
          9.46021432e-01 9.47837242e-01 9.49628539e-01 9.51394966e-01 
        </DataArray>
        <DataArray type="Float64" Name="rhou">
          1.69842581e-04 1.57834695e-04 1.55801704e-04 1.55825383e-04 
        </DataArray>
        <DataArray type="Float64" Name="rhov">
          -6.02925210e-05 -5.76897954e-05 -5.76445823e-05 -6.56979740e-05 
        </DataArray>
        <DataArray type="Float64" Name="E">
          2.15855055e+05 2.16290336e+05 2.16719346e+05 2.17141986e+05 
        </DataArray>
      </PointData>
    </Piece>
    <Piece NumberOfPoints="4" NumberOfCells="3">
      <Points>
        <DataArray type="Float64" NumberOfComponents="3" format="ascii">
          8.14553022e-01 2.40457114e-02 0.00000000e+00 
8.24872792e-01 2.28467938e-02 0.00000000e+00 
8.35190892e-01 2.16327831e-02 0.00000000e+00 
8.45507145e-01 2.04038676e-02 0.00000000e+00 

        </DataArray>
      </Points>
      <Cells>
        <DataArray type="Int32" Name="connectivity" format="ascii">
0 1
1 2
2 3

        </DataArray>
        <DataArray type="Int32" Name="offsets" format="ascii">
2 4 6 
        </DataArray>
        <DataArray type="UInt8" Name="types" format="ascii">
3 3 3 
        </DataArray>
      </Cells>
      <PointData>
        <DataArray type="Float64" Name="rho">
          9.51395011e-01 9.53138637e-01 9.54860101e-01 9.56559903e-01 
        </DataArray>
        <DataArray type="Float64" Name="rhou">
          1.49603718e-04 1.39584477e-04 1.30702939e-04 1.29762441e-04 
        </DataArray>
        <DataArray type="Float64" Name="rhov">
          -6.59390270e-05 -6.70616643e-05 -6.52465961e-05 -6.21097183e-05 
        </DataArray>
        <DataArray type="Float64" Name="E">
          2.17141996e+05 2.17558716e+05 2.17969634e+05 2.18374833e+05 
        </DataArray>
      </PointData>
    </Piece>
    <Piece NumberOfPoints="4" NumberOfCells="3">
      <Points>
        <DataArray type="Float64" NumberOfComponents="3" format="ascii">
          8.45507145e-01 2.04038676e-02 0.00000000e+00 
8.55821550e-01 1.91591792e-02 0.00000000e+00 
8.66134048e-01 1.78987328e-02 0.00000000e+00 
8.76444638e-01 1.66228991e-02 0.00000000e+00 

        </DataArray>
      </Points>
      <Cells>
        <DataArray type="Int32" Name="connectivity" format="ascii">
0 1
1 2
2 3

        </DataArray>
        <DataArray type="Int32" Name="offsets" format="ascii">
2 4 6 
        </DataArray>
        <DataArray type="UInt8" Name="types" format="ascii">
3 3 3 
        </DataArray>
      </Cells>
      <PointData>
        <DataArray type="Float64" Name="rho">
          9.56560022e-01 9.58237043e-01 9.59895784e-01 9.61532889e-01 
        </DataArray>
        <DataArray type="Float64" Name="rhou">
          1.52703620e-04 1.17202739e-04 1.13757424e-04 1.28937400e-04 
        </DataArray>
        <DataArray type="Float64" Name="rhov">
          -6.59537421e-05 -7.49369513e-05 -7.30622310e-05 -9.29337391e-05 
        </DataArray>
        <DataArray type="Float64" Name="E">
          2.18374860e+05 2.18774046e+05 2.19168198e+05 2.19556492e+05 
        </DataArray>
      </PointData>
    </Piece>
    <Piece NumberOfPoints="4" NumberOfCells="3">
      <Points>
        <DataArray type="Float64" NumberOfComponents="3" format="ascii">
          8.76444638e-01 1.66228991e-02 0.00000000e+00 
8.86753201e-01 1.53310820e-02 0.00000000e+00 
8.97059798e-01 1.40233757e-02 0.00000000e+00 
9.07364249e-01 1.26988320e-02 0.00000000e+00 

        </DataArray>
      </Points>
      <Cells>
        <DataArray type="Int32" Name="connectivity" format="ascii">
0 1
1 2
2 3

        </DataArray>
        <DataArray type="Int32" Name="offsets" format="ascii">
2 4 6 
        </DataArray>
        <DataArray type="UInt8" Name="types" format="ascii">
3 3 3 
        </DataArray>
      </Cells>
      <PointData>
        <DataArray type="Float64" Name="rho">
          9.61532401e-01 9.63155432e-01 9.64756691e-01 9.66356886e-01 
        </DataArray>
        <DataArray type="Float64" Name="rhou">
          2.92785173e-05 1.27137309e-04 6.48624864e-05 5.62852338e-06 
        </DataArray>
        <DataArray type="Float64" Name="rhov">
          -8.43675485e-05 -8.83973558e-05 -1.09436479e-04 -2.11028764e-06 
        </DataArray>
        <DataArray type="Float64" Name="E">
          2.19556380e+05 2.19940478e+05 2.20318544e+05 2.20695222e+05 
        </DataArray>
      </PointData>
    </Piece>
    <Piece NumberOfPoints="4" NumberOfCells="3">
      <Points>
        <DataArray type="Float64" NumberOfComponents="3" format="ascii">
          9.07364249e-01 1.26988320e-02 0.00000000e+00 
9.17666554e-01 1.13577880e-02 0.00000000e+00 
9.27966774e-01 1.00004105e-02 0.00000000e+00 
9.38264549e-01 8.62528384e-03 0.00000000e+00 

        </DataArray>
      </Points>
      <Cells>
        <DataArray type="Int32" Name="connectivity" format="ascii">
0 1
1 2
2 3

        </DataArray>
        <DataArray type="Int32" Name="offsets" format="ascii">
2 4 6 
        </DataArray>
        <DataArray type="UInt8" Name="types" format="ascii">
3 3 3 
        </DataArray>
      </Cells>
      <PointData>
        <DataArray type="Float64" Name="rho">
          9.66362167e-01 9.67915907e-01 9.69502835e-01 9.70938525e-01 
        </DataArray>
        <DataArray type="Float64" Name="rhou">
          8.85838503e-04 -2.12763144e-04 3.85525358e-04 8.37087467e-04 
        </DataArray>
        <DataArray type="Float64" Name="rhov">
          -7.72572250e-05 -1.34905724e-04 -5.69177166e-05 -1.59582757e-03 
        </DataArray>
        <DataArray type="Float64" Name="E">
          2.20696427e+05 2.21061260e+05 2.21432339e+05 2.21767455e+05 
        </DataArray>
      </PointData>
    </Piece>
    <Piece NumberOfPoints="4" NumberOfCells="3">
      <Points>
        <DataArray type="Float64" NumberOfComponents="3" format="ascii">
          9.38264549e-01 8.62528384e-03 0.00000000e+00 
9.48560059e-01 7.23283459e-03 0.00000000e+00 
9.58853185e-01 5.82307298e-03 0.00000000e+00 
9.69143867e-01 4.39538015e-03 0.00000000e+00 

        </DataArray>
      </Points>
      <Cells>
        <DataArray type="Int32" Name="connectivity" format="ascii">
0 1
1 2
2 3

        </DataArray>
        <DataArray type="Int32" Name="offsets" format="ascii">
2 4 6 
        </DataArray>
        <DataArray type="UInt8" Name="types" format="ascii">
3 3 3 
        </DataArray>
      </Cells>
      <PointData>
        <DataArray type="Float64" Name="rho">
          9.70886895e-01 9.72678328e-01 9.74033455e-01 9.76972400e-01 
        </DataArray>
        <DataArray type="Float64" Name="rhou">
          -7.27815036e-03 2.34405077e-03 -3.45658803e-03 -2.05755796e-02 
        </DataArray>
        <DataArray type="Float64" Name="rhov">
          -1.18100318e-03 1.34083813e-04 -1.21289388e-03 2.06058497e-02 
        </DataArray>
        <DataArray type="Float64" Name="E">
          2.21755664e+05 2.22170528e+05 2.22484164e+05 2.23157874e+05 
        </DataArray>
      </PointData>
    </Piece>
    <Piece NumberOfPoints="4" NumberOfCells="3">
      <Points>
        <DataArray type="Float64" NumberOfComponents="3" format="ascii">
          9.69143867e-01 4.39538015e-03 0.00000000e+00 
9.79435980e-01 2.94816052e-03 0.00000000e+00 
9.89725590e-01 1.48259092e-03 0.00000000e+00 
1.00000000e+00 0.00000000e+00 0.00000000e+00 

        </DataArray>
      </Points>
      <Cells>
        <DataArray type="Int32" Name="connectivity" format="ascii">
0 1
1 2
2 3

        </DataArray>
        <DataArray type="Int32" Name="offsets" format="ascii">
2 4 6 
        </DataArray>
        <DataArray type="UInt8" Name="types" format="ascii">
3 3 3 
        </DataArray>
      </Cells>
      <PointData>
        <DataArray type="Float64" Name="rho">
          9.77287669e-01 9.76899959e-01 9.81098233e-01 9.70303239e-01 
        </DataArray>
        <DataArray type="Float64" Name="rhou">
          -1.55645616e-03 -1.05570929e-02 -4.04380879e-02 5.45841817e-01 
        </DataArray>
        <DataArray type="Float64" Name="rhov">
          2.21107765e-02 1.59338822e-03 5.65588983e-02 -1.47439150e-01 
        </DataArray>
        <DataArray type="Float64" Name="E">
          2.23230499e+05 2.23141342e+05 2.24097039e+05 2.21610081e+05 
        </DataArray>
      </PointData>
    </Piece>
    <Piece NumberOfPoints="4" NumberOfCells="3">
      <Points>
        <DataArray type="Float64" NumberOfComponents="3" format="ascii">
          9.69029665e-01 -4.41133138e-03 0.00000000e+00 
9.79355037e-01 -2.95961346e-03 0.00000000e+00 
9.89677846e-01 -1.48943183e-03 0.00000000e+00 
1.00000000e+00 0.00000000e+00 0.00000000e+00 

        </DataArray>
      </Points>
      <Cells>
        <DataArray type="Int32" Name="connectivity" format="ascii">
0 1
1 2
2 3

        </DataArray>
        <DataArray type="Int32" Name="offsets" format="ascii">
2 4 6 
        </DataArray>
        <DataArray type="UInt8" Name="types" format="ascii">
3 3 3 
        </DataArray>
      </Cells>
      <PointData>
        <DataArray type="Float64" Name="rho">
          9.77188681e-01 9.76627455e-01 9.80673180e-01 9.70931806e-01 
        </DataArray>
        <DataArray type="Float64" Name="rhou">
          -9.00597086e-04 -8.32203588e-03 -3.99969797e-02 5.07624929e-01 
        </DataArray>
        <DataArray type="Float64" Name="rhov">
          -2.71488276e-02 2.93735867e-03 -5.48124373e-02 1.61886733e-01 
        </DataArray>
        <DataArray type="Float64" Name="E">
          2.23051796e+05 2.22945918e+05 2.23897484e+05 2.21728540e+05 
        </DataArray>
      </PointData>
    </Piece>
    <Piece NumberOfPoints="4" NumberOfCells="3">
      <Points>
        <DataArray type="Float64" NumberOfComponents="3" format="ascii">
          9.38035965e-01 -8.65600072e-03 0.00000000e+00 
9.48369622e-01 -7.25875143e-03 0.00000000e+00 
9.58700895e-01 -5.84406452e-03 0.00000000e+00 
9.69029665e-01 -4.41133138e-03 0.00000000e+00 

        </DataArray>
      </Points>
      <Cells>
        <DataArray type="Int32" Name="connectivity" format="ascii">
0 1
1 2
2 3

        </DataArray>
        <DataArray type="Int32" Name="offsets" format="ascii">
2 4 6 
        </DataArray>
        <DataArray type="UInt8" Name="types" format="ascii">
3 3 3 
        </DataArray>
      </Cells>
      <PointData>
        <DataArray type="Float64" Name="rho">
          9.71275004e-01 9.72918598e-01 9.74112238e-01 9.76857504e-01 
        </DataArray>
        <DataArray type="Float64" Name="rhou">
          -7.09910786e-03 2.56959631e-03 -2.91858704e-03 -1.91602445e-02 
        </DataArray>
        <DataArray type="Float64" Name="rhov">
          1.25472538e-03 -1.89765886e-04 1.55965982e-03 -1.95230309e-02 
        </DataArray>
        <DataArray type="Float64" Name="E">
          2.21656157e+05 2.22045389e+05 2.22333111e+05 2.22976935e+05 
        </DataArray>
      </PointData>
    </Piece>
    <Piece NumberOfPoints="4" NumberOfCells="3">
      <Points>
        <DataArray type="Float64" NumberOfComponents="3" format="ascii">
          9.07021165e-01 -1.27432076e-02 0.00000000e+00 
9.17361677e-01 -1.13977119e-02 0.00000000e+00 
9.27700043e-01 -1.00357840e-02 0.00000000e+00 
9.38035965e-01 -8.65600072e-03 0.00000000e+00 

        </DataArray>
      </Points>
      <Cells>
        <DataArray type="Int32" Name="connectivity" format="ascii">
0 1
1 2
2 3

        </DataArray>
        <DataArray type="Int32" Name="offsets" format="ascii">
2 4 6 
        </DataArray>
        <DataArray type="UInt8" Name="types" format="ascii">
3 3 3 
        </DataArray>
      </Cells>
      <PointData>
        <DataArray type="Float64" Name="rho">
          9.67192775e-01 9.68597586e-01 9.70039396e-01 9.71327206e-01 
        </DataArray>
        <DataArray type="Float64" Name="rhou">
          1.02665317e-03 -8.99760176e-05 5.40356320e-04 9.82377535e-04 
        </DataArray>
        <DataArray type="Float64" Name="rhov">
          5.93459858e-05 9.11744181e-05 -8.27920220e-06 1.55952878e-03 
        </DataArray>
        <DataArray type="Float64" Name="E">
          2.20683773e+05 2.21017895e+05 2.21360456e+05 2.21668059e+05 
        </DataArray>
      </PointData>
    </Piece>
    <Piece NumberOfPoints="4" NumberOfCells="3">
      <Points>
        <DataArray type="Float64" NumberOfComponents="3" format="ascii">
          8.75986874e-01 -1.66798849e-02 0.00000000e+00 
8.86333704e-01 -1.53839625e-02 0.00000000e+00 
8.96678507e-01 -1.40720531e-02 0.00000000e+00 
9.07021165e-01 -1.27432076e-02 0.00000000e+00 

        </DataArray>
      </Points>
      <Cells>
        <DataArray type="Int32" Name="connectivity" format="ascii">
0 1
1 2
2 3

        </DataArray>
        <DataArray type="Int32" Name="offsets" format="ascii">
2 4 6 
        </DataArray>
        <DataArray type="UInt8" Name="types" format="ascii">
3 3 3 
        </DataArray>
      </Cells>
      <PointData>
        <DataArray type="Float64" Name="rho">
          9.62861949e-01 9.64309283e-01 9.65744891e-01 9.67187286e-01 
        </DataArray>
        <DataArray type="Float64" Name="rhou">
          1.70774524e-04 2.58603874e-04 2.01860785e-04 1.41545258e-04 
        </DataArray>
        <DataArray type="Float64" Name="rhov">
          8.07581011e-05 7.20746154e-05 8.90994225e-05 -1.76092782e-05 
        </DataArray>
        <DataArray type="Float64" Name="E">
          2.19654197e+05 2.19998383e+05 2.20339743e+05 2.20682523e+05 
        </DataArray>
      </PointData>
    </Piece>
    <Piece NumberOfPoints="4" NumberOfCells="3">
      <Points>
        <DataArray type="Float64" NumberOfComponents="3" format="ascii">
          8.44934702e-01 -2.04724707e-02 0.00000000e+00 
8.55287313e-01 -1.92240477e-02 0.00000000e+00 
8.65638077e-01 -1.79597028e-02 0.00000000e+00 
8.75986874e-01 -1.66798849e-02 0.00000000e+00 

        </DataArray>
      </Points>
      <Cells>
        <DataArray type="Int32" Name="connectivity" format="ascii">
0 1
1 2
2 3

        </DataArray>
        <DataArray type="Int32" Name="offsets" format="ascii">
2 4 6 
        </DataArray>
        <DataArray type="UInt8" Name="types" format="ascii">
3 3 3 
        </DataArray>
      </Cells>
      <PointData>
        <DataArray type="Float64" Name="rho">
          9.58493201e-01 9.59954554e-01 9.61413519e-01 9.62862426e-01 
        </DataArray>
        <DataArray type="Float64" Name="rhou">
          3.24876004e-04 2.59007848e-04 2.43744331e-04 2.82190457e-04 
        </DataArray>
        <DataArray type="Float64" Name="rhov">
          5.08530894e-05 7.36978419e-05 6.32664394e-05 8.43385872e-05 
        </DataArray>
        <DataArray type="Float64" Name="E">
          2.18614552e+05 2.18962432e+05 2.19309599e+05 2.19654306e+05 
        </DataArray>
      </PointData>
    </Piece>
    <Piece NumberOfPoints="4" NumberOfCells="3">
      <Points>
        <DataArray type="Float64" NumberOfComponents="3" format="ascii">
          8.13865662e-01 -2.41250079e-02 0.00000000e+00 
8.24223816e-01 -2.29226518e-02 0.00000000e+00 
8.34580123e-01 -2.17050612e-02 0.00000000e+00 
8.44934702e-01 -2.04724707e-02 0.00000000e+00 

        </DataArray>
      </Points>
      <Cells>
        <DataArray type="Int32" Name="connectivity" format="ascii">
0 1
1 2
2 3

        </DataArray>
        <DataArray type="Int32" Name="offsets" format="ascii">
2 4 6 
        </DataArray>
        <DataArray type="UInt8" Name="types" format="ascii">
3 3 3 
        </DataArray>
      </Cells>
      <PointData>
        <DataArray type="Float64" Name="rho">
          9.54057629e-01 9.55542017e-01 9.57020637e-01 9.58492953e-01 
        </DataArray>
        <DataArray type="Float64" Name="rhou">
          3.03801336e-04 2.86041326e-04 2.67856127e-04 2.71715701e-04 
        </DataArray>
        <DataArray type="Float64" Name="rhov">
          5.97939499e-05 6.16442120e-05 5.46828411e-05 4.27588478e-05 
        </DataArray>
        <DataArray type="Float64" Name="E">
          2.17558137e+05 2.17911788e+05 2.18263947e+05 2.18614496e+05 
        </DataArray>
      </PointData>
    </Piece>
    <Piece NumberOfPoints="4" NumberOfCells="3">
      <Points>
        <DataArray type="Float64" NumberOfComponents="3" format="ascii">
          7.82780826e-01 -2.76402626e-02 0.00000000e+00 
7.93144107e-01 -2.64833923e-02 0.00000000e+00 
8.03505778e-01 -2.53117718e-02 0.00000000e+00 
8.13865662e-01 -2.41250079e-02 0.00000000e+00 

        </DataArray>
      </Points>
      <Cells>
        <DataArray type="Int32" Name="connectivity" format="ascii">
0 1
1 2
2 3

        </DataArray>
        <DataArray type="Int32" Name="offsets" format="ascii">
2 4 6 
        </DataArray>
        <DataArray type="UInt8" Name="types" format="ascii">
3 3 3 
        </DataArray>
      </Cells>
      <PointData>
        <DataArray type="Float64" Name="rho">
          9.49562390e-01 9.51067964e-01 9.52567256e-01 9.54057515e-01 
        </DataArray>
        <DataArray type="Float64" Name="rhou">
          3.29228316e-04 3.06170714e-04 3.04512025e-04 3.13264439e-04 
        </DataArray>
        <DataArray type="Float64" Name="rhov">
          5.29919958e-05 4.51679992e-05 4.15428322e-05 5.79325369e-05 
        </DataArray>
        <DataArray type="Float64" Name="E">
          2.16486501e+05 2.16845533e+05 2.17202943e+05 2.17558110e+05 
        </DataArray>
      </PointData>
    </Piece>
    <Piece NumberOfPoints="4" NumberOfCells="3">
      <Points>
        <DataArray type="Float64" NumberOfComponents="3" format="ascii">
          7.51680970e-01 -3.10197193e-02 0.00000000e+00 
7.62049198e-01 -2.99084149e-02 0.00000000e+00 
7.72415876e-01 -2.87819952e-02 0.00000000e+00 
7.82780826e-01 -2.76402626e-02 0.00000000e+00 

        </DataArray>
      </Points>
      <Cells>
        <DataArray type="Int32" Name="connectivity" format="ascii">
0 1
1 2
2 3

        </DataArray>
        <DataArray type="Int32" Name="offsets" format="ascii">
2 4 6 
        </DataArray>
        <DataArray type="UInt8" Name="types" format="ascii">
3 3 3 
        </DataArray>
      </Cells>
      <PointData>
        <DataArray type="Float64" Name="rho">
          9.45009119e-01 9.46533798e-01 9.48051375e-01 9.49562351e-01 
        </DataArray>
        <DataArray type="Float64" Name="rhou">
          3.44135062e-04 3.39649267e-04 3.33300437e-04 3.17870277e-04 
        </DataArray>
        <DataArray type="Float64" Name="rhov">
          4.18823985e-05 3.60573032e-05 4.13343188e-05 5.06915414e-05 
        </DataArray>
        <DataArray type="Float64" Name="E">
          2.15399905e+05 2.15763880e+05 2.16126036e+05 2.16486492e+05 
        </DataArray>
      </PointData>
    </Piece>
    <Piece NumberOfPoints="4" NumberOfCells="3">
      <Points>
        <DataArray type="Float64" NumberOfComponents="3" format="ascii">
          7.20566452e-01 -3.42622213e-02 0.00000000e+00 
7.30939507e-01 -3.31965312e-02 0.00000000e+00 
7.41311073e-01 -3.21157984e-02 0.00000000e+00 
7.51680970e-01 -3.10197193e-02 0.00000000e+00 

        </DataArray>
      </Points>
      <Cells>
        <DataArray type="Int32" Name="connectivity" format="ascii">
0 1
1 2
2 3

        </DataArray>
        <DataArray type="Int32" Name="offsets" format="ascii">
2 4 6 
        </DataArray>
        <DataArray type="UInt8" Name="types" format="ascii">
3 3 3 
        </DataArray>
      </Cells>
      <PointData>
        <DataArray type="Float64" Name="rho">
          9.40403113e-01 9.41944739e-01 9.43480213e-01 9.45009110e-01 
        </DataArray>
        <DataArray type="Float64" Name="rhou">
          3.69828657e-04 3.63317097e-04 3.60544160e-04 3.47142005e-04 
        </DataArray>
        <DataArray type="Float64" Name="rhov">
          3.47117286e-05 2.44402495e-05 2.85261009e-05 4.24258764e-05 
        </DataArray>
        <DataArray type="Float64" Name="E">
          2.14299461e+05 2.14667918e+05 2.15034763e+05 2.15399903e+05 
        </DataArray>
      </PointData>
    </Piece>
    <Piece NumberOfPoints="4" NumberOfCells="3">
      <Points>
        <DataArray type="Float64" NumberOfComponents="3" format="ascii">
          6.89437866e-01 -3.73662710e-02 0.00000000e+00 
6.99815631e-01 -3.63472365e-02 0.00000000e+00 
7.10191846e-01 -3.53125818e-02 0.00000000e+00 
7.20566452e-01 -3.42622213e-02 0.00000000e+00 

        </DataArray>
      </Points>
      <Cells>
        <DataArray type="Int32" Name="connectivity" format="ascii">
0 1
1 2
2 3

        </DataArray>
        <DataArray type="Int32" Name="offsets" format="ascii">
2 4 6 
        </DataArray>
        <DataArray type="UInt8" Name="types" format="ascii">
3 3 3 
        </DataArray>
      </Cells>
      <PointData>
        <DataArray type="Float64" Name="rho">
          9.35758195e-01 9.37310715e-01 9.38859089e-01 9.40403125e-01 
        </DataArray>
        <DataArray type="Float64" Name="rhou">
          4.00608298e-04 3.94425219e-04 3.88084818e-04 3.70500180e-04 
        </DataArray>
        <DataArray type="Float64" Name="rhov">
          2.30104354e-05 1.65464075e-05 2.26046591e-05 3.50896073e-05 
        </DataArray>
        <DataArray type="Float64" Name="E">
          2.13188281e+05 2.13559839e+05 2.13930249e+05 2.14299464e+05 
        </DataArray>
      </PointData>
    </Piece>
    <Piece NumberOfPoints="4" NumberOfCells="3">
      <Points>
        <DataArray type="Float64" NumberOfComponents="3" format="ascii">
          6.58295333e-01 -4.03269380e-02 0.00000000e+00 
6.68677747e-01 -3.93563360e-02 0.00000000e+00 
6.79058611e-01 -3.83694395e-02 0.00000000e+00 
6.89437866e-01 -3.73662710e-02 0.00000000e+00 

        </DataArray>
      </Points>
      <Cells>
        <DataArray type="Int32" Name="connectivity" format="ascii">
0 1
1 2
2 3

        </DataArray>
        <DataArray type="Int32" Name="offsets" format="ascii">
2 4 6 
        </DataArray>
        <DataArray type="UInt8" Name="types" format="ascii">
3 3 3 
        </DataArray>
      </Cells>
      <PointData>
        <DataArray type="Float64" Name="rho">
          9.31094700e-01 9.32650578e-01 9.34205044e-01 9.35758252e-01 
        </DataArray>
        <DataArray type="Float64" Name="rhou">
          4.33199476e-04 4.29425849e-04 4.17885790e-04 3.98286370e-04 
        </DataArray>
        <DataArray type="Float64" Name="rhov">
          8.42007047e-06 6.27652078e-06 1.43158259e-05 2.39798569e-05 
        </DataArray>
        <DataArray type="Float64" Name="E">
          2.12071086e+05 2.12443985e+05 2.12816378e+05 2.13188294e+05 
        </DataArray>
      </PointData>
    </Piece>
    <Piece NumberOfPoints="4" NumberOfCells="3">
      <Points>
        <DataArray type="Float64" NumberOfComponents="3" format="ascii">
          6.27138972e-01 -4.31386717e-02 0.00000000e+00 
6.37525976e-01 -4.22184542e-02 0.00000000e+00 
6.47911429e-01 -4.12811004e-02 0.00000000e+00 
6.58295333e-01 -4.03269380e-02 0.00000000e+00 

        </DataArray>
      </Points>
      <Cells>
        <DataArray type="Int32" Name="connectivity" format="ascii">
0 1
1 2
2 3

        </DataArray>
        <DataArray type="Int32" Name="offsets" format="ascii">
2 4 6 
        </DataArray>
        <DataArray type="UInt8" Name="types" format="ascii">
3 3 3 
        </DataArray>
      </Cells>
      <PointData>
        <DataArray type="Float64" Name="rho">
          9.26442307e-01 9.27989401e-01 9.29540817e-01 9.31094735e-01 
        </DataArray>
        <DataArray type="Float64" Name="rhou">
          4.78770073e-04 4.62013146e-04 4.46479451e-04 4.33869524e-04 
        </DataArray>
        <DataArray type="Float64" Name="rhov">
          2.30006877e-06 2.03781984e-06 4.39936537e-06 9.56013733e-06 
        </DataArray>
        <DataArray type="Float64" Name="E">
          2.10954874e+05 2.11326250e+05 2.11698467e+05 2.12071094e+05 
        </DataArray>
      </PointData>
    </Piece>
    <Piece NumberOfPoints="4" NumberOfCells="3">
      <Points>
        <DataArray type="Float64" NumberOfComponents="3" format="ascii">
          5.95968783e-01 -4.57924642e-02 0.00000000e+00 
6.06360376e-01 -4.49259281e-02 0.00000000e+00 
6.16750479e-01 -4.40412909e-02 0.00000000e+00 
6.27138972e-01 -4.31386717e-02 0.00000000e+00 

        </DataArray>
      </Points>
      <Cells>
        <DataArray type="Int32" Name="connectivity" format="ascii">
0 1
1 2
2 3

        </DataArray>
        <DataArray type="Int32" Name="offsets" format="ascii">
2 4 6 
        </DataArray>
        <DataArray type="UInt8" Name="types" format="ascii">
3 3 3 
        </DataArray>
      </Cells>
      <PointData>
        <DataArray type="Float64" Name="rho">
          9.21846344e-01 9.23369780e-01 9.24902214e-01 9.26442300e-01 
        </DataArray>
        <DataArray type="Float64" Name="rhou">
          5.16112502e-04 5.06691702e-04 4.91703350e-04 4.71913313e-04 
        </DataArray>
        <DataArray type="Float64" Name="rhov">
          -1.17141012e-05 -1.44159672e-05 -7.12345812e-06 3.38165161e-06 
        </DataArray>
        <DataArray type="Float64" Name="E">
          2.09850422e+05 2.10216709e+05 2.10584970e+05 2.10954873e+05 
        </DataArray>
      </PointData>
    </Piece>
    <Piece NumberOfPoints="4" NumberOfCells="3">
      <Points>
        <DataArray type="Float64" NumberOfComponents="3" format="ascii">
          5.64784765e-01 -4.82786149e-02 0.00000000e+00 
5.75181007e-01 -4.74695377e-02 0.00000000e+00 
5.85575700e-01 -4.66405638e-02 0.00000000e+00 
5.95968783e-01 -4.57924642e-02 0.00000000e+00 

        </DataArray>
      </Points>
      <Cells>
        <DataArray type="Int32" Name="connectivity" format="ascii">
0 1
1 2
2 3

        </DataArray>
        <DataArray type="Int32" Name="offsets" format="ascii">
2 4 6 
        </DataArray>
        <DataArray type="UInt8" Name="types" format="ascii">
3 3 3 
        </DataArray>
      </Cells>
      <PointData>
        <DataArray type="Float64" Name="rho">
          9.17370044e-01 9.18843458e-01 9.20336296e-01 9.21846461e-01 
        </DataArray>
        <DataArray type="Float64" Name="rhou">
          5.85069882e-04 5.61271691e-04 5.30580244e-04 5.09699028e-04 
        </DataArray>
        <DataArray type="Float64" Name="rhov">
          -2.40446575e-05 -1.22812393e-05 -7.19969065e-06 -1.05161343e-05 
        </DataArray>
        <DataArray type="Float64" Name="E">
          2.08772824e+05 2.09127753e+05 2.09487134e+05 2.09850449e+05 
        </DataArray>
      </PointData>
    </Piece>
    <Piece NumberOfPoints="4" NumberOfCells="3">
      <Points>
        <DataArray type="Float64" NumberOfComponents="3" format="ascii">
          5.33586800e-01 -5.05827516e-02 0.00000000e+00 
5.43987691e-01 -4.98356484e-02 0.00000000e+00 
5.54387033e-01 -4.90674041e-02 0.00000000e+00 
5.64784765e-01 -4.82786149e-02 0.00000000e+00 

        </DataArray>
      </Points>
      <Cells>
        <DataArray type="Int32" Name="connectivity" format="ascii">
0 1
1 2
2 3

        </DataArray>
        <DataArray type="Int32" Name="offsets" format="ascii">
2 4 6 
        </DataArray>
        <DataArray type="UInt8" Name="types" format="ascii">
3 3 3 
        </DataArray>
      </Cells>
      <PointData>
        <DataArray type="Float64" Name="rho">
          9.13093520e-01 9.14490223e-01 9.15917686e-01 9.17370003e-01 
        </DataArray>
        <DataArray type="Float64" Name="rhou">
          6.51698137e-04 6.14200006e-04 5.87929084e-04 5.79350534e-04 
        </DataArray>
        <DataArray type="Float64" Name="rhov">
          -2.19540298e-05 -2.23449835e-05 -2.58047602e-05 -2.34505962e-05 
        </DataArray>
        <DataArray type="Float64" Name="E">
          2.07741344e+05 2.08078469e+05 2.08422757e+05 2.08772815e+05 
        </DataArray>
      </PointData>
    </Piece>
    <Piece NumberOfPoints="4" NumberOfCells="3">
      <Points>
        <DataArray type="Float64" NumberOfComponents="3" format="ascii">
          5.02374947e-01 -5.26902266e-02 0.00000000e+00 
5.12780428e-01 -5.20105064e-02 0.00000000e+00 
5.23184419e-01 -5.13078682e-02 0.00000000e+00 
5.33586800e-01 -5.05827516e-02 0.00000000e+00 

        </DataArray>
      </Points>
      <Cells>
        <DataArray type="Int32" Name="connectivity" format="ascii">
0 1
1 2
2 3

        </DataArray>
        <DataArray type="Int32" Name="offsets" format="ascii">
2 4 6 
        </DataArray>
        <DataArray type="UInt8" Name="types" format="ascii">
3 3 3 
        </DataArray>
      </Cells>
      <PointData>
        <DataArray type="Float64" Name="rho">
          9.09126841e-01 9.10407593e-01 9.11731998e-01 9.13093422e-01 
        </DataArray>
        <DataArray type="Float64" Name="rhou">
          7.26148379e-04 6.91993822e-04 6.66840014e-04 6.49028753e-04 
        </DataArray>
        <DataArray type="Float64" Name="rhov">
          -2.89985292e-05 -3.64810012e-05 -3.58063058e-05 -2.22532298e-05 
        </DataArray>
        <DataArray type="Float64" Name="E">
          2.06782370e+05 2.07092270e+05 2.07412444e+05 2.07741321e+05 
        </DataArray>
      </PointData>
    </Piece>
    <Piece NumberOfPoints="4" NumberOfCells="3">
      <Points>
        <DataArray type="Float64" NumberOfComponents="3" format="ascii">
          4.71149325e-01 -5.45825884e-02 0.00000000e+00 
4.81559396e-01 -5.39771840e-02 0.00000000e+00 
4.91967946e-01 -5.33461571e-02 0.00000000e+00 
5.02374947e-01 -5.26902266e-02 0.00000000e+00 

        </DataArray>
      </Points>
      <Cells>
        <DataArray type="Int32" Name="connectivity" format="ascii">
0 1
1 2
2 3

        </DataArray>
        <DataArray type="Int32" Name="offsets" format="ascii">
2 4 6 
        </DataArray>
        <DataArray type="UInt8" Name="types" format="ascii">
3 3 3 
        </DataArray>
      </Cells>
      <PointData>
        <DataArray type="Float64" Name="rho">
          9.05613848e-01 9.06725718e-01 9.07897264e-01 9.09126931e-01 
        </DataArray>
        <DataArray type="Float64" Name="rhou">
          8.27585954e-04 8.06776033e-04 7.61599343e-04 7.06099150e-04 
        </DataArray>
        <DataArray type="Float64" Name="rhov">
          -5.00515597e-05 -4.50180262e-05 -2.86807700e-05 -2.60143372e-05 
        </DataArray>
        <DataArray type="Float64" Name="E">
          2.05930383e+05 2.06200379e+05 2.06484526e+05 2.06782391e+05 
        </DataArray>
      </PointData>
    </Piece>
    <Piece NumberOfPoints="4" NumberOfCells="3">
      <Points>
        <DataArray type="Float64" NumberOfComponents="3" format="ascii">
          4.39910263e-01 -5.62384278e-02 0.00000000e+00 
4.50324744e-01 -5.57143167e-02 0.00000000e+00 
4.60737765e-01 -5.51619194e-02 0.00000000e+00 
4.71149325e-01 -5.45825884e-02 0.00000000e+00 

        </DataArray>
      </Points>
      <Cells>
        <DataArray type="Int32" Name="connectivity" format="ascii">
0 1
1 2
2 3

        </DataArray>
        <DataArray type="Int32" Name="offsets" format="ascii">
2 4 6 
        </DataArray>
        <DataArray type="UInt8" Name="types" format="ascii">
3 3 3 
        </DataArray>
      </Cells>
      <PointData>
        <DataArray type="Float64" Name="rho">
          9.02726826e-01 9.03604297e-01 9.04570364e-01 9.05613925e-01 
        </DataArray>
        <DataArray type="Float64" Name="rhou">
          9.93381465e-04 9.16359479e-04 8.58924615e-04 8.33221994e-04 
        </DataArray>
        <DataArray type="Float64" Name="rhov">
          -3.72336680e-05 -2.97667564e-05 -3.82516516e-05 -4.74068425e-05 
        </DataArray>
        <DataArray type="Float64" Name="E">
          2.05226715e+05 2.05441153e+05 2.05676591e+05 2.05930400e+05 
        </DataArray>
      </PointData>
    </Piece>
    <Piece NumberOfPoints="4" NumberOfCells="3">
      <Points>
        <DataArray type="Float64" NumberOfComponents="3" format="ascii">
          4.08658355e-01 -5.76302819e-02 0.00000000e+00 
4.19077009e-01 -5.71971126e-02 0.00000000e+00 
4.29494321e-01 -5.67329265e-02 0.00000000e+00 
4.39910263e-01 -5.62384278e-02 0.00000000e+00 

        </DataArray>
      </Points>
      <Cells>
        <DataArray type="Int32" Name="connectivity" format="ascii">
0 1
1 2
2 3

        </DataArray>
        <DataArray type="Int32" Name="offsets" format="ascii">
2 4 6 
        </DataArray>
        <DataArray type="UInt8" Name="types" format="ascii">
3 3 3 
        </DataArray>
      </Cells>
      <PointData>
        <DataArray type="Float64" Name="rho">
          9.00688113e-01 9.01260203e-01 9.01943728e-01 9.02726590e-01 
        </DataArray>
        <DataArray type="Float64" Name="rhou">
          1.14776045e-03 1.07795175e-03 1.02690447e-03 9.87950172e-04 
        </DataArray>
        <DataArray type="Float64" Name="rhov">
          -3.95920826e-05 -5.44234481e-05 -5.56769725e-05 -3.70895610e-05 
        </DataArray>
        <DataArray type="Float64" Name="E">
          2.04724555e+05 2.04866374e+05 2.05034694e+05 2.05226661e+05 
        </DataArray>
      </PointData>
    </Piece>
    <Piece NumberOfPoints="4" NumberOfCells="3">
      <Points>
        <DataArray type="Float64" NumberOfComponents="3" format="ascii">
          3.77394795e-01 -5.87291755e-02 0.00000000e+00 
3.87817174e-01 -5.83979115e-02 0.00000000e+00 
3.98238391e-01 -5.80311492e-02 0.00000000e+00 
4.08658355e-01 -5.76302819e-02 0.00000000e+00 

        </DataArray>
      </Points>
      <Cells>
        <DataArray type="Int32" Name="connectivity" format="ascii">
0 1
1 2
2 3

        </DataArray>
        <DataArray type="Int32" Name="offsets" format="ascii">
2 4 6 
        </DataArray>
        <DataArray type="UInt8" Name="types" format="ascii">
3 3 3 
        </DataArray>
      </Cells>
      <PointData>
        <DataArray type="Float64" Name="rho">
          8.99770231e-01 8.99933949e-01 9.00240976e-01 9.00688328e-01 
        </DataArray>
        <DataArray type="Float64" Name="rhou">
          1.39976582e-03 1.32513719e-03 1.22237083e-03 1.11586128e-03 
        </DataArray>
        <DataArray type="Float64" Name="rhov">
          -7.73309679e-05 -5.11001383e-05 -2.49967507e-05 -3.46628614e-05 
        </DataArray>
        <DataArray type="Float64" Name="E">
          2.04488864e+05 2.04533575e+05 2.04612425e+05 2.04724605e+05 
        </DataArray>
      </PointData>
    </Piece>
    <Piece NumberOfPoints="4" NumberOfCells="3">
      <Points>
        <DataArray type="Float64" NumberOfComponents="3" format="ascii">
          3.46121490e-01 -5.95011823e-02 0.00000000e+00 
3.56546819e-01 -5.92821389e-02 0.00000000e+00 
3.66971314e-01 -5.90242445e-02 0.00000000e+00 
3.77394795e-01 -5.87291755e-02 0.00000000e+00 

        </DataArray>
      </Points>
      <Cells>
        <DataArray type="Int32" Name="connectivity" format="ascii">
0 1
1 2
2 3

        </DataArray>
        <DataArray type="Int32" Name="offsets" format="ascii">
2 4 6 
        </DataArray>
        <DataArray type="UInt8" Name="types" format="ascii">
3 3 3 
        </DataArray>
      </Cells>
      <PointData>
        <DataArray type="Float64" Name="rho">
          9.00266346e-01 8.99919092e-01 8.99759444e-01 8.99770324e-01 
        </DataArray>
        <DataArray type="Float64" Name="rhou">
          1.74866768e-03 1.60147690e-03 1.47045324e-03 1.40317397e-03 
        </DataArray>
        <DataArray type="Float64" Name="rhov">
          -1.06388657e-04 -6.58407024e-05 -6.05511630e-05 -7.26935631e-05 
        </DataArray>
        <DataArray type="Float64" Name="E">
          2.04589721e+05 2.04512845e+05 2.04480580e+05 2.04488884e+05 
        </DataArray>
      </PointData>
    </Piece>
    <Piece NumberOfPoints="4" NumberOfCells="3">
      <Points>
        <DataArray type="Float64" NumberOfComponents="3" format="ascii">
          3.14841360e-01 -5.99102043e-02 0.00000000e+00 
3.25268596e-01 -5.98174632e-02 0.00000000e+00 
3.35695356e-01 -5.96801341e-02 0.00000000e+00 
3.46121490e-01 -5.95011823e-02 0.00000000e+00 

        </DataArray>
      </Points>
      <Cells>
        <DataArray type="Int32" Name="connectivity" format="ascii">
0 1
1 2
2 3

        </DataArray>
        <DataArray type="Int32" Name="offsets" format="ascii">
2 4 6 
        </DataArray>
        <DataArray type="UInt8" Name="types" format="ascii">
3 3 3 
        </DataArray>
      </Cells>
      <PointData>
        <DataArray type="Float64" Name="rho">
          9.02575295e-01 9.01565057e-01 9.00804513e-01 9.00266050e-01 
        </DataArray>
        <DataArray type="Float64" Name="rhou">
          2.20756995e-03 1.95833571e-03 1.79033159e-03 1.71224980e-03 
        </DataArray>
        <DataArray type="Float64" Name="rhov">
          -3.62300367e-05 -1.44707383e-05 -4.93923013e-05 -1.05695096e-04 
        </DataArray>
        <DataArray type="Float64" Name="E">
          2.05121966e+05 2.04887375e+05 2.04712113e+05 2.04589653e+05 
        </DataArray>
      </PointData>
    </Piece>
    <Piece NumberOfPoints="4" NumberOfCells="3">
      <Points>
        <DataArray type="Float64" NumberOfComponents="3" format="ascii">
          2.83558637e-01 -5.98983802e-02 0.00000000e+00 
2.93986142e-01 -5.99516556e-02 0.00000000e+00 
3.04413795e-01 -5.99554181e-02 0.00000000e+00 
3.14841360e-01 -5.99102043e-02 0.00000000e+00 

        </DataArray>
      </Points>
      <Cells>
        <DataArray type="Int32" Name="connectivity" format="ascii">
0 1
1 2
2 3

        </DataArray>
        <DataArray type="Int32" Name="offsets" format="ascii">
2 4 6 
        </DataArray>
        <DataArray type="UInt8" Name="types" format="ascii">
3 3 3 
        </DataArray>
      </Cells>
      <PointData>
        <DataArray type="Float64" Name="rho">
          9.07196698e-01 9.05382267e-01 9.03847037e-01 9.02574570e-01 
        </DataArray>
        <DataArray type="Float64" Name="rhou">
          2.69458600e-03 2.52655014e-03 2.38629385e-03 2.19826896e-03 
        </DataArray>
        <DataArray type="Float64" Name="rhov">
          -8.99134998e-05 -1.59662041e-04 -1.24799455e-04 -2.95886535e-05 
        </DataArray>
        <DataArray type="Float64" Name="E">
          2.06204907e+05 2.05778540e+05 2.05418810e+05 2.05121800e+05 
        </DataArray>
      </PointData>
    </Piece>
    <Piece NumberOfPoints="4" NumberOfCells="3">
      <Points>
        <DataArray type="Float64" NumberOfComponents="3" format="ascii">
          2.52279758e-01 -5.94130717e-02 0.00000000e+00 
2.62705088e-01 -5.96327744e-02 0.00000000e+00 
2.73131490e-01 -5.97934239e-02 0.00000000e+00 
2.83558637e-01 -5.98983802e-02 0.00000000e+00 

        </DataArray>
      </Points>
      <Cells>
        <DataArray type="Int32" Name="connectivity" format="ascii">
0 1
1 2
2 3

        </DataArray>
        <DataArray type="Int32" Name="offsets" format="ascii">
2 4 6 
        </DataArray>
        <DataArray type="UInt8" Name="types" format="ascii">
3 3 3 
        </DataArray>
      </Cells>
      <PointData>
        <DataArray type="Float64" Name="rho">
          9.14725610e-01 9.11846541e-01 9.09339489e-01 9.07197633e-01 
        </DataArray>
        <DataArray type="Float64" Name="rhou">
          3.68354711e-03 3.37334358e-03 3.03222276e-03 2.68043598e-03 
        </DataArray>
        <DataArray type="Float64" Name="rhov">
          -2.37443839e-04 -1.44903750e-04 -5.74230168e-05 -7.04230210e-05 
        </DataArray>
        <DataArray type="Float64" Name="E">
          2.07980300e+05 2.07300423e+05 2.06709338e+05 2.06205123e+05 
        </DataArray>
      </PointData>
    </Piece>
    <Piece NumberOfPoints="4" NumberOfCells="3">
      <Points>
        <DataArray type="Float64" NumberOfComponents="3" format="ascii">
          2.21014455e-01 -5.83752058e-02 0.00000000e+00 
2.31433928e-01 -5.87876961e-02 0.00000000e+00 
2.41855890e-01 -5.91322705e-02 0.00000000e+00 
2.52279758e-01 -5.94130717e-02 0.00000000e+00 

        </DataArray>
      </Points>
      <Cells>
        <DataArray type="Int32" Name="connectivity" format="ascii">
0 1
1 2
2 3

        </DataArray>
        <DataArray type="Int32" Name="offsets" format="ascii">
2 4 6 
        </DataArray>
        <DataArray type="UInt8" Name="types" format="ascii">
3 3 3 
        </DataArray>
      </Cells>
      <PointData>
        <DataArray type="Float64" Name="rho">
          9.25912928e-01 9.21711991e-01 9.17998229e-01 9.14725794e-01 
        </DataArray>
        <DataArray type="Float64" Name="rhou">
          5.05462628e-03 4.46189657e-03 4.00971206e-03 3.71824255e-03 
        </DataArray>
        <DataArray type="Float64" Name="rhov">
          -3.43610866e-04 -2.38590959e-04 -2.06295319e-04 -2.20721014e-04 
        </DataArray>
        <DataArray type="Float64" Name="E">
          2.10628497e+05 2.09633211e+05 2.08754143e+05 2.07980338e+05 
        </DataArray>
      </PointData>
    </Piece>
    <Piece NumberOfPoints="4" NumberOfCells="3">
      <Points>
        <DataArray type="Float64" NumberOfComponents="3" format="ascii">
          1.89777538e-01 -5.66898957e-02 0.00000000e+00 
2.00185493e-01 -5.73302582e-02 0.00000000e+00 
2.10598081e-01 -5.78906052e-02 0.00000000e+00 
2.21014455e-01 -5.83752058e-02 0.00000000e+00 

        </DataArray>
      </Points>
      <Cells>
        <DataArray type="Int32" Name="connectivity" format="ascii">
0 1
1 2
2 3

        </DataArray>
        <DataArray type="Int32" Name="offsets" format="ascii">
2 4 6 
        </DataArray>
        <DataArray type="UInt8" Name="types" format="ascii">
3 3 3 
        </DataArray>
      </Cells>
      <PointData>
        <DataArray type="Float64" Name="rho">
          9.41810290e-01 9.35912779e-01 9.30633116e-01 9.25912157e-01 
        </DataArray>
        <DataArray type="Float64" Name="rhou">
          6.99598290e-03 6.18758727e-03 5.59636736e-03 5.11796889e-03 
        </DataArray>
        <DataArray type="Float64" Name="rhov">
          -6.29865131e-04 -5.57992560e-04 -4.56555100e-04 -3.30572564e-04 
        </DataArray>
        <DataArray type="Float64" Name="E">
          2.14401966e+05 2.13001005e+05 2.11747844e+05 2.10628320e+05 
        </DataArray>
      </PointData>
    </Piece>
    <Piece NumberOfPoints="4" NumberOfCells="3">
      <Points>
        <DataArray type="Float64" NumberOfComponents="3" format="ascii">
          1.58592433e-01 -5.42296544e-02 0.00000000e+00 
1.68979734e-01 -5.51457107e-02 0.00000000e+00 
1.79375216e-01 -5.59638515e-02 0.00000000e+00 
1.89777538e-01 -5.66898957e-02 0.00000000e+00 

        </DataArray>
      </Points>
      <Cells>
        <DataArray type="Int32" Name="connectivity" format="ascii">
0 1
1 2
2 3

        </DataArray>
        <DataArray type="Int32" Name="offsets" format="ascii">
2 4 6 
        </DataArray>
        <DataArray type="UInt8" Name="types" format="ascii">
3 3 3 
        </DataArray>
      </Cells>
      <PointData>
        <DataArray type="Float64" Name="rho">
          9.63947671e-01 9.55769430e-01 9.48406788e-01 9.41810711e-01 
        </DataArray>
        <DataArray type="Float64" Name="rhou">
          1.00753863e-02 8.99462405e-03 8.03864334e-03 7.06801216e-03 
        </DataArray>
        <DataArray type="Float64" Name="rhov">
          -1.39491863e-03 -1.19965982e-03 -8.63167299e-04 -5.88628677e-04 
        </DataArray>
        <DataArray type="Float64" Name="E">
          2.19668922e+05 2.17721582e+05 2.15970040e+05 2.14402067e+05 
        </DataArray>
      </PointData>
    </Piece>
    <Piece NumberOfPoints="4" NumberOfCells="3">
      <Points>
        <DataArray type="Float64" NumberOfComponents="3" format="ascii">
          1.27497971e-01 -5.08146733e-02 0.00000000e+00 
1.37849152e-01 -5.20747155e-02 0.00000000e+00 
1.48214847e-01 -5.32093942e-02 0.00000000e+00 
1.58592433e-01 -5.42296544e-02 0.00000000e+00 

        </DataArray>
      </Points>
      <Cells>
        <DataArray type="Int32" Name="connectivity" format="ascii">
0 1
1 2
2 3

        </DataArray>
        <DataArray type="Int32" Name="offsets" format="ascii">
2 4 6 
        </DataArray>
        <DataArray type="UInt8" Name="types" format="ascii">
3 3 3 
        </DataArray>
      </Cells>
      <PointData>
        <DataArray type="Float64" Name="rho">
          9.94718373e-01 9.83292254e-01 9.73055800e-01 9.63951749e-01 
        </DataArray>
        <DataArray type="Float64" Name="rhou">
          1.46239691e-02 1.34445404e-02 1.16317671e-02 1.01041947e-02 
        </DataArray>
        <DataArray type="Float64" Name="rhov">
          -2.28808235e-03 -2.03427748e-03 -1.41044652e-03 -1.32198897e-03 
        </DataArray>
        <DataArray type="Float64" Name="E">
          2.27007262e+05 2.24280021e+05 2.21839311e+05 2.19669859e+05 
        </DataArray>
      </PointData>
    </Piece>
    <Piece NumberOfPoints="4" NumberOfCells="3">
      <Points>
        <DataArray type="Float64" NumberOfComponents="3" format="ascii">
          9.65642184e-02 -4.61716652e-02 0.00000000e+00 
1.06852271e-01 -4.78802323e-02 0.00000000e+00 
1.17164567e-01 -4.94215861e-02 0.00000000e+00 
1.27497971e-01 -5.08146733e-02 0.00000000e+00 

        </DataArray>
      </Points>
      <Cells>
        <DataArray type="Int32" Name="connectivity" format="ascii">
0 1
1 2
2 3

        </DataArray>
        <DataArray type="Int32" Name="offsets" format="ascii">
2 4 6 
        </DataArray>
        <DataArray type="UInt8" Name="types" format="ascii">
3 3 3 
        </DataArray>
      </Cells>
      <PointData>
        <DataArray type="Float64" Name="rho">
          1.03820765e+00 1.02188828e+00 1.00742060e+00 9.94726789e-01 
        </DataArray>
        <DataArray type="Float64" Name="rhou">
          2.48199144e-02 1.82112715e-02 1.73062503e-02 1.29666445e-02 
        </DataArray>
        <DataArray type="Float64" Name="rhov">
          -9.16642189e-04 -7.29438297e-04 -1.56032019e-03 -1.60197563e-03 
        </DataArray>
        <DataArray type="Float64" Name="E">
          2.37411501e+05 2.33502935e+05 2.30042749e+05 2.27009294e+05 
        </DataArray>
      </PointData>
    </Piece>
  </UnstructuredGrid>
</VTKFile>
