<?xml version="1.0"?>
<VTKFile type="UnstructuredGrid" version="0.1" byte_order="LittleEndian">
  <UnstructuredGrid>
    <Piece NumberOfPoints="4" NumberOfCells="3">
      <Points>
        <DataArray type="Float64" NumberOfComponents="3" format="ascii">
          9.65642184e-02 -4.61716652e-02 0.00000000e+00 
9.26280916e-02 -4.54656407e-02 0.00000000e+00 
8.86965096e-02 -4.47326750e-02 0.00000000e+00 
8.47706869e-02 -4.39694971e-02 0.00000000e+00 

        </DataArray>
      </Points>
      <Cells>
        <DataArray type="Int32" Name="connectivity" format="ascii">
0 1
1 2
2 3

        </DataArray>
        <DataArray type="Int32" Name="offsets" format="ascii">
2 4 6 
        </DataArray>
        <DataArray type="UInt8" Name="types" format="ascii">
3 3 3 
        </DataArray>
      </Cells>
      <PointData>
        <DataArray type="Float64" Name="rho">
          1.03316316e+00 1.04006967e+00 1.04729096e+00 1.05495923e+00 
        </DataArray>
        <DataArray type="Float64" Name="rhou">
          2.82917366e-02 2.17930445e-02 2.44415552e-02 2.46144305e-02 
        </DataArray>
        <DataArray type="Float64" Name="rhov">
          -2.24797623e-03 -1.03540157e-03 -6.25849521e-04 -9.40128811e-04 
        </DataArray>
        <DataArray type="Float64" Name="E">
          2.35955806e+05 2.37607602e+05 2.39336321e+05 2.41172384e+05 
        </DataArray>
      </PointData>
    </Piece>
    <Piece NumberOfPoints="4" NumberOfCells="3">
      <Points>
        <DataArray type="Float64" NumberOfComponents="3" format="ascii">
          8.47706869e-02 -4.39694971e-02 0.00000000e+00 
8.08513016e-02 -4.31745499e-02 0.00000000e+00 
7.69388378e-02 -4.23462167e-02 0.00000000e+00 
7.30340332e-02 -4.14824970e-02 0.00000000e+00 

        </DataArray>
      </Points>
      <Cells>
        <DataArray type="Int32" Name="connectivity" format="ascii">
0 1
1 2
2 3

        </DataArray>
        <DataArray type="Int32" Name="offsets" format="ascii">
2 4 6 
        </DataArray>
        <DataArray type="UInt8" Name="types" format="ascii">
3 3 3 
        </DataArray>
      </Cells>
      <PointData>
        <DataArray type="Float64" Name="rho">
          1.05495804e+00 1.06305458e+00 1.07161487e+00 1.08070869e+00 
        </DataArray>
        <DataArray type="Float64" Name="rhou">
          2.47068863e-02 2.38792563e-02 2.24655681e-02 2.08946165e-02 
        </DataArray>
        <DataArray type="Float64" Name="rhov">
          -7.45571339e-04 -5.35933956e-04 3.72986461e-04 1.56968186e-03 
        </DataArray>
        <DataArray type="Float64" Name="E">
          2.41172119e+05 2.43112688e+05 2.45165656e+05 2.47347782e+05 
        </DataArray>
      </PointData>
    </Piece>
    <Piece NumberOfPoints="4" NumberOfCells="3">
      <Points>
        <DataArray type="Float64" NumberOfComponents="3" format="ascii">
          7.30340332e-02 -4.14824970e-02 0.00000000e+00 
6.91377968e-02 -4.05809283e-02 0.00000000e+00 
6.52511865e-02 -3.96387354e-02 0.00000000e+00 
6.13753870e-02 -3.86530459e-02 0.00000000e+00 

        </DataArray>
      </Points>
      <Cells>
        <DataArray type="Int32" Name="connectivity" format="ascii">
0 1
1 2
2 3

        </DataArray>
        <DataArray type="Int32" Name="offsets" format="ascii">
2 4 6 
        </DataArray>
        <DataArray type="UInt8" Name="types" format="ascii">
3 3 3 
        </DataArray>
      </Cells>
      <PointData>
        <DataArray type="Float64" Name="rho">
          1.08070929e+00 1.09042028e+00 1.10078015e+00 1.11184848e+00 
        </DataArray>
        <DataArray type="Float64" Name="rhou">
          2.10121987e-02 1.86573882e-02 1.45521189e-02 9.04530535e-03 
        </DataArray>
        <DataArray type="Float64" Name="rhov">
          1.40416457e-03 2.15240245e-03 4.23811176e-03 7.43256066e-03 
        </DataArray>
        <DataArray type="Float64" Name="E">
          2.47347944e+05 2.49680361e+05 2.52170276e+05 2.54832699e+05 
        </DataArray>
      </PointData>
    </Piece>
    <Piece NumberOfPoints="4" NumberOfCells="3">
      <Points>
        <DataArray type="Float64" NumberOfComponents="3" format="ascii">
          6.13753870e-02 -3.86530459e-02 0.00000000e+00 
5.75117208e-02 -3.76208089e-02 0.00000000e+00 
5.36618084e-02 -3.65384258e-02 0.00000000e+00 
4.98276278e-02 -3.54015976e-02 0.00000000e+00 

        </DataArray>
      </Points>
      <Cells>
        <DataArray type="Int32" Name="connectivity" format="ascii">
0 1
1 2
2 3

        </DataArray>
        <DataArray type="Int32" Name="offsets" format="ascii">
2 4 6 
        </DataArray>
        <DataArray type="UInt8" Name="types" format="ascii">
3 3 3 
        </DataArray>
      </Cells>
      <PointData>
        <DataArray type="Float64" Name="rho">
          1.11184874e+00 1.12370831e+00 1.13644393e+00 1.15018701e+00 
        </DataArray>
        <DataArray type="Float64" Name="rhou">
          8.98876107e-03 1.92554985e-03 -7.29477850e-03 -1.88214170e-02 
        </DataArray>
        <DataArray type="Float64" Name="rhov">
          7.20451321e-03 1.19113000e-02 1.99928475e-02 3.14678614e-02 
        </DataArray>
        <DataArray type="Float64" Name="E">
          2.54832763e+05 2.57689456e+05 2.60759819e+05 2.64076372e+05 
        </DataArray>
      </PointData>
    </Piece>
    <Piece NumberOfPoints="4" NumberOfCells="3">
      <Points>
        <DataArray type="Float64" NumberOfComponents="3" format="ascii">
          4.98276278e-02 -3.54015976e-02 0.00000000e+00 
4.60115410e-02 -3.42054628e-02 0.00000000e+00 
4.22164090e-02 -3.29444520e-02 0.00000000e+00 
3.84457745e-02 -3.16120051e-02 0.00000000e+00 

        </DataArray>
      </Points>
      <Cells>
        <DataArray type="Int32" Name="connectivity" format="ascii">
0 1
1 2
2 3

        </DataArray>
        <DataArray type="Int32" Name="offsets" format="ascii">
2 4 6 
        </DataArray>
        <DataArray type="UInt8" Name="types" format="ascii">
3 3 3 
        </DataArray>
      </Cells>
      <PointData>
        <DataArray type="Float64" Name="rho">
          1.15018692e+00 1.16503735e+00 1.18110729e+00 1.19858821e+00 
        </DataArray>
        <DataArray type="Float64" Name="rhou">
          -1.92764368e-02 -3.34208649e-02 -5.24169798e-02 -7.51404676e-02 
        </DataArray>
        <DataArray type="Float64" Name="rhov">
          3.12533133e-02 4.79318869e-02 7.55904666e-02 1.16054997e-01 
        </DataArray>
        <DataArray type="Float64" Name="E">
          2.64076319e+05 2.67666618e+05 2.71556554e+05 2.75794388e+05 
        </DataArray>
      </PointData>
    </Piece>
    <Piece NumberOfPoints="4" NumberOfCells="3">
      <Points>
        <DataArray type="Float64" NumberOfComponents="3" format="ascii">
          3.84457745e-02 -3.16120051e-02 0.00000000e+00 
3.47041376e-02 -3.02002355e-02 0.00000000e+00 
3.09973080e-02 -2.86995135e-02 0.00000000e+00 
2.73328498e-02 -2.70981900e-02 0.00000000e+00 

        </DataArray>
      </Points>
      <Cells>
        <DataArray type="Int32" Name="connectivity" format="ascii">
0 1
1 2
2 3

        </DataArray>
        <DataArray type="Int32" Name="offsets" format="ascii">
2 4 6 
        </DataArray>
        <DataArray type="UInt8" Name="types" format="ascii">
3 3 3 
        </DataArray>
      </Cells>
      <PointData>
        <DataArray type="Float64" Name="rho">
          1.19858843e+00 1.21766976e+00 1.23854485e+00 1.26158519e+00 
        </DataArray>
        <DataArray type="Float64" Name="rhou">
          -7.60923764e-02 -1.00247709e-01 -1.28889969e-01 -1.54296036e-01 
        </DataArray>
        <DataArray type="Float64" Name="rhov">
          1.15974069e-01 1.71525802e-01 2.57450852e-01 3.77744974e-01 
        </DataArray>
        <DataArray type="Float64" Name="E">
          2.75794305e+05 2.80431912e+05 2.85514043e+05 2.91134831e+05 
        </DataArray>
      </PointData>
    </Piece>
    <Piece NumberOfPoints="4" NumberOfCells="3">
      <Points>
        <DataArray type="Float64" NumberOfComponents="3" format="ascii">
          2.73328498e-02 -2.70981900e-02 0.00000000e+00 
2.37206947e-02 -2.53822580e-02 0.00000000e+00 
2.01744195e-02 -2.35341713e-02 0.00000000e+00 
1.67132635e-02 -2.15314496e-02 0.00000000e+00 

        </DataArray>
      </Points>
      <Cells>
        <DataArray type="Int32" Name="connectivity" format="ascii">
0 1
1 2
2 3

        </DataArray>
        <DataArray type="Int32" Name="offsets" format="ascii">
2 4 6 
        </DataArray>
        <DataArray type="UInt8" Name="types" format="ascii">
3 3 3 
        </DataArray>
      </Cells>
      <PointData>
        <DataArray type="Float64" Name="rho">
          1.26159006e+00 1.28713562e+00 1.31564218e+00 1.34845530e+00 
        </DataArray>
        <DataArray type="Float64" Name="rhou">
          -1.54679002e-01 -1.68740821e-01 -1.53058207e-01 -5.70629426e-02 
        </DataArray>
        <DataArray type="Float64" Name="rhov">
          3.78419824e-01 5.30263139e-01 7.40970915e-01 9.59363386e-01 
        </DataArray>
        <DataArray type="Float64" Name="E">
          2.91135731e+05 2.97389812e+05 3.04381477e+05 3.12439352e+05 
        </DataArray>
      </PointData>
    </Piece>
    <Piece NumberOfPoints="4" NumberOfCells="3">
      <Points>
        <DataArray type="Float64" NumberOfComponents="3" format="ascii">
          1.67132635e-02 -2.15314496e-02 0.00000000e+00 
1.33649679e-02 -1.93456318e-02 0.00000000e+00 
1.01706637e-02 -1.69409402e-02 0.00000000e+00 
7.19343964e-03 -1.42731192e-02 0.00000000e+00 

        </DataArray>
      </Points>
      <Cells>
        <DataArray type="Int32" Name="connectivity" format="ascii">
0 1
1 2
2 3

        </DataArray>
        <DataArray type="Int32" Name="offsets" format="ascii">
2 4 6 
        </DataArray>
        <DataArray type="UInt8" Name="types" format="ascii">
3 3 3 
        </DataArray>
      </Cells>
      <PointData>
        <DataArray type="Float64" Name="rho">
          1.34834944e+00 1.38820582e+00 1.43543790e+00 1.50054136e+00 
        </DataArray>
        <DataArray type="Float64" Name="rhou">
          -3.44903724e-02 1.13959067e-01 4.55239348e-01 8.75586130e-01 
        </DataArray>
        <DataArray type="Float64" Name="rhov">
          9.21100737e-01 1.12409937e+00 1.06920367e+00 5.18993589e-01 
        </DataArray>
        <DataArray type="Float64" Name="E">
          3.12415149e+05 3.22205631e+05 3.33800675e+05 3.49667734e+05 
        </DataArray>
      </PointData>
    </Piece>
    <Piece NumberOfPoints="4" NumberOfCells="3">
      <Points>
        <DataArray type="Float64" NumberOfComponents="3" format="ascii">
          7.19343964e-03 -1.42731192e-02 0.00000000e+00 
4.53082798e-03 -1.12927537e-02 0.00000000e+00 
2.33371323e-03 -7.95678515e-03 0.00000000e+00 
8.10639584e-04 -4.26717056e-03 0.00000000e+00 

        </DataArray>
      </Points>
      <Cells>
        <DataArray type="Int32" Name="connectivity" format="ascii">
0 1
1 2
2 3

        </DataArray>
        <DataArray type="Int32" Name="offsets" format="ascii">
2 4 6 
        </DataArray>
        <DataArray type="UInt8" Name="types" format="ascii">
3 3 3 
        </DataArray>
      </Cells>
      <PointData>
        <DataArray type="Float64" Name="rho">
          1.50106098e+00 1.57550819e+00 1.66463417e+00 1.73339361e+00 
        </DataArray>
        <DataArray type="Float64" Name="rhou">
          8.00566775e-01 9.30424815e-01 2.58405238e-01 -1.27665927e+00 
        </DataArray>
        <DataArray type="Float64" Name="rhov">
          6.17753696e-01 -5.11581730e-01 -1.73040623e+00 -1.81873819e+00 
        </DataArray>
        <DataArray type="Float64" Name="E">
          3.49795096e+05 3.67975276e+05 3.89617800e+05 4.06337532e+05 
        </DataArray>
      </PointData>
    </Piece>
    <Piece NumberOfPoints="4" NumberOfCells="3">
      <Points>
        <DataArray type="Float64" NumberOfComponents="3" format="ascii">
          8.10639584e-04 -4.26717056e-03 0.00000000e+00 
1.91366620e-04 -3.27450951e-04 0.00000000e+00 
6.40850572e-04 3.63462302e-03 0.00000000e+00 
2.03182548e-03 7.37539819e-03 0.00000000e+00 

        </DataArray>
      </Points>
      <Cells>
        <DataArray type="Int32" Name="connectivity" format="ascii">
0 1
1 2
2 3

        </DataArray>
        <DataArray type="Int32" Name="offsets" format="ascii">
2 4 6 
        </DataArray>
        <DataArray type="UInt8" Name="types" format="ascii">
3 3 3 
        </DataArray>
      </Cells>
      <PointData>
        <DataArray type="Float64" Name="rho">
          1.73181656e+00 1.75681062e+00 1.70642716e+00 1.61398146e+00 
        </DataArray>
        <DataArray type="Float64" Name="rhou">
          -1.15096388e+00 -1.88087799e+00 -8.36226857e-01 7.52327871e-01 
        </DataArray>
        <DataArray type="Float64" Name="rhov">
          -1.97687695e+00 3.64245557e-01 1.88393382e+00 1.51662029e+00 
        </DataArray>
        <DataArray type="Float64" Name="E">
          4.05955557e+05 4.11941892e+05 3.99621505e+05 3.77036145e+05 
        </DataArray>
      </PointData>
    </Piece>
    <Piece NumberOfPoints="4" NumberOfCells="3">
      <Points>
        <DataArray type="Float64" NumberOfComponents="3" format="ascii">
          2.03182548e-03 7.37539819e-03 0.00000000e+00 
4.13410179e-03 1.07714310e-02 0.00000000e+00 
6.73249783e-03 1.38076087e-02 0.00000000e+00 
9.66598373e-03 1.65232457e-02 0.00000000e+00 

        </DataArray>
      </Points>
      <Cells>
        <DataArray type="Int32" Name="connectivity" format="ascii">
0 1
1 2
2 3

        </DataArray>
        <DataArray type="Int32" Name="offsets" format="ascii">
2 4 6 
        </DataArray>
        <DataArray type="UInt8" Name="types" format="ascii">
3 3 3 
        </DataArray>
      </Cells>
      <PointData>
        <DataArray type="Float64" Name="rho">
          1.61434500e+00 1.50722541e+00 1.41798596e+00 1.35103245e+00 
        </DataArray>
        <DataArray type="Float64" Name="rhou">
          7.24591519e-01 1.15600140e+00 8.40888366e-01 3.75900019e-01 
        </DataArray>
        <DataArray type="Float64" Name="rhov">
          1.75146604e+00 6.28104951e-02 -1.07543351e+00 -1.40064175e+00 
        </DataArray>
        <DataArray type="Float64" Name="E">
          3.77127628e+05 3.51114643e+05 3.29406721e+05 3.13038819e+05 
        </DataArray>
      </PointData>
    </Piece>
    <Piece NumberOfPoints="4" NumberOfCells="3">
      <Points>
        <DataArray type="Float64" NumberOfComponents="3" format="ascii">
          9.66598373e-03 1.65232457e-02 0.00000000e+00 
1.28298048e-02 1.89677756e-02 0.00000000e+00 
1.61561389e-02 2.11867876e-02 0.00000000e+00 
1.96009967e-02 2.32173651e-02 0.00000000e+00 

        </DataArray>
      </Points>
      <Cells>
        <DataArray type="Int32" Name="connectivity" format="ascii">
0 1
1 2
2 3

        </DataArray>
        <DataArray type="Int32" Name="offsets" format="ascii">
2 4 6 
        </DataArray>
        <DataArray type="UInt8" Name="types" format="ascii">
3 3 3 
        </DataArray>
      </Cells>
      <PointData>
        <DataArray type="Float64" Name="rho">
          1.35082692e+00 1.29836444e+00 1.25939736e+00 1.22509690e+00 
        </DataArray>
        <DataArray type="Float64" Name="rhou">
          3.85491623e-01 -1.64621626e-02 -1.98258773e-01 -2.18915127e-01 
        </DataArray>
        <DataArray type="Float64" Name="rhov">
          -1.42523810e+00 -1.32062435e+00 -9.90480516e-01 -6.65011649e-01 
        </DataArray>
        <DataArray type="Float64" Name="E">
          3.12986582e+05 3.00162068e+05 2.90586868e+05 2.82184440e+05 
        </DataArray>
      </PointData>
    </Piece>
    <Piece NumberOfPoints="4" NumberOfCells="3">
      <Points>
        <DataArray type="Float64" NumberOfComponents="3" format="ascii">
          1.96009967e-02 2.32173651e-02 0.00000000e+00 
2.31348258e-02 2.50891000e-02 0.00000000e+00 
2.67372411e-02 2.68253610e-02 0.00000000e+00 
3.03938854e-02 2.84444261e-02 0.00000000e+00 

        </DataArray>
      </Points>
      <Cells>
        <DataArray type="Int32" Name="connectivity" format="ascii">
0 1
1 2
2 3

        </DataArray>
        <DataArray type="Int32" Name="offsets" format="ascii">
2 4 6 
        </DataArray>
        <DataArray type="UInt8" Name="types" format="ascii">
3 3 3 
        </DataArray>
      </Cells>
      <PointData>
        <DataArray type="Float64" Name="rho">
          1.22516069e+00 1.19604914e+00 1.17001497e+00 1.14643973e+00 
        </DataArray>
        <DataArray type="Float64" Name="rhou">
          -2.32048133e-01 -2.18643485e-01 -1.73465792e-01 -1.31256440e-01 
        </DataArray>
        <DataArray type="Float64" Name="rhov">
          -6.83267052e-01 -4.32148154e-01 -2.45486074e-01 -1.32690131e-01 
        </DataArray>
        <DataArray type="Float64" Name="E">
          2.82199371e+05 2.75087521e+05 2.68750391e+05 2.63028843e+05 
        </DataArray>
      </PointData>
    </Piece>
    <Piece NumberOfPoints="4" NumberOfCells="3">
      <Points>
        <DataArray type="Float64" NumberOfComponents="3" format="ascii">
          3.03938854e-02 2.84444261e-02 0.00000000e+00 
3.40943485e-02 2.99607720e-02 0.00000000e+00 
3.78307216e-02 3.13864015e-02 0.00000000e+00 
4.15969416e-02 3.27312648e-02 0.00000000e+00 

        </DataArray>
      </Points>
      <Cells>
        <DataArray type="Int32" Name="connectivity" format="ascii">
0 1
1 2
2 3

        </DataArray>
        <DataArray type="Int32" Name="offsets" format="ascii">
2 4 6 
        </DataArray>
        <DataArray type="UInt8" Name="types" format="ascii">
3 3 3 
        </DataArray>
      </Cells>
      <PointData>
        <DataArray type="Float64" Name="rho">
          1.14643800e+00 1.12510773e+00 1.10573455e+00 1.08807519e+00 
        </DataArray>
        <DataArray type="Float64" Name="rhou">
          -1.29463109e-01 -8.93254615e-02 -5.65347838e-02 -3.35581406e-02 
        </DataArray>
        <DataArray type="Float64" Name="rhov">
          -1.31238079e-01 -5.50076968e-02 -7.85630752e-03 1.75916020e-02 
        </DataArray>
        <DataArray type="Float64" Name="E">
          2.63028690e+05 2.57870640e+05 2.53197137e+05 2.48944869e+05 
        </DataArray>
      </PointData>
    </Piece>
    <Piece NumberOfPoints="4" NumberOfCells="3">
      <Points>
        <DataArray type="Float64" NumberOfComponents="3" format="ascii">
          4.15969416e-02 3.27312648e-02 0.00000000e+00 
4.53883260e-02 3.40034962e-02 0.00000000e+00 
4.92011942e-02 3.52098532e-02 0.00000000e+00 
5.30325845e-02 3.63560505e-02 0.00000000e+00 

        </DataArray>
      </Points>
      <Cells>
        <DataArray type="Int32" Name="connectivity" format="ascii">
0 1
1 2
2 3

        </DataArray>
        <DataArray type="Int32" Name="offsets" format="ascii">
2 4 6 
        </DataArray>
        <DataArray type="UInt8" Name="types" format="ascii">
3 3 3 
        </DataArray>
      </Cells>
      <PointData>
        <DataArray type="Float64" Name="rho">
          1.08807575e+00 1.07194072e+00 1.05714203e+00 1.04352088e+00 
        </DataArray>
        <DataArray type="Float64" Name="rhou">
          -3.24189305e-02 -1.29658815e-02 1.48807218e-03 1.08863549e-02 
        </DataArray>
        <DataArray type="Float64" Name="rhov">
          1.74969341e-02 3.12321596e-02 3.79287453e-02 3.91149126e-02 
        </DataArray>
        <DataArray type="Float64" Name="E">
          2.48945080e+05 2.45068392e+05 2.41518310e+05 2.38254851e+05 
        </DataArray>
      </PointData>
    </Piece>
    <Piece NumberOfPoints="4" NumberOfCells="3">
      <Points>
        <DataArray type="Float64" NumberOfComponents="3" format="ascii">
          5.30325845e-02 3.63560505e-02 0.00000000e+00 
5.68800643e-02 3.74470428e-02 0.00000000e+00 
6.07415959e-02 3.84872220e-02 0.00000000e+00 
6.46155030e-02 3.94803248e-02 0.00000000e+00 

        </DataArray>
      </Points>
      <Cells>
        <DataArray type="Int32" Name="connectivity" format="ascii">
0 1
1 2
2 3

        </DataArray>
        <DataArray type="Int32" Name="offsets" format="ascii">
2 4 6 
        </DataArray>
        <DataArray type="UInt8" Name="types" format="ascii">
3 3 3 
        </DataArray>
      </Cells>
      <PointData>
        <DataArray type="Float64" Name="rho">
          1.04352157e+00 1.03098946e+00 1.01941441e+00 1.00865569e+00 
        </DataArray>
        <DataArray type="Float64" Name="rhou">
          1.12038094e-02 1.82149680e-02 2.37693260e-02 2.76159493e-02 
        </DataArray>
        <DataArray type="Float64" Name="rhov">
          3.87881000e-02 3.71459271e-02 3.51097143e-02 3.18975214e-02 
        </DataArray>
        <DataArray type="Float64" Name="E">
          2.38255010e+05 2.35256691e+05 2.32490166e+05 2.29921284e+05 
        </DataArray>
      </PointData>
    </Piece>
    <Piece NumberOfPoints="4" NumberOfCells="3">
      <Points>
        <DataArray type="Float64" NumberOfComponents="3" format="ascii">
          6.46155030e-02 3.94803248e-02 0.00000000e+00 
6.85004294e-02 4.04294394e-02 0.00000000e+00 
7.23951608e-02 4.13374715e-02 0.00000000e+00 
7.62986317e-02 4.22072113e-02 0.00000000e+00 

        </DataArray>
      </Points>
      <Cells>
        <DataArray type="Int32" Name="connectivity" format="ascii">
0 1
1 2
2 3

        </DataArray>
        <DataArray type="Int32" Name="offsets" format="ascii">
2 4 6 
        </DataArray>
        <DataArray type="UInt8" Name="types" format="ascii">
3 3 3 
        </DataArray>
      </Cells>
      <PointData>
        <DataArray type="Float64" Name="rho">
          1.00865641e+00 9.98672449e-01 9.89373973e-01 9.80705397e-01 
        </DataArray>
        <DataArray type="Float64" Name="rhou">
          2.74358508e-02 2.93929799e-02 3.05019986e-02 3.06049560e-02 
        </DataArray>
        <DataArray type="Float64" Name="rhov">
          3.15988753e-02 2.77033073e-02 2.43350198e-02 2.10335921e-02 
        </DataArray>
        <DataArray type="Float64" Name="E">
          2.29921431e+05 2.27540140e+05 2.25324172e+05 2.23259597e+05 
        </DataArray>
      </PointData>
    </Piece>
    <Piece NumberOfPoints="4" NumberOfCells="3">
      <Points>
        <DataArray type="Float64" NumberOfComponents="3" format="ascii">
          7.62986317e-02 4.22072113e-02 0.00000000e+00 
8.02098960e-02 4.30411920e-02 0.00000000e+00 
8.41281936e-02 4.38414887e-02 0.00000000e+00 
8.80528912e-02 4.46097627e-02 0.00000000e+00 

        </DataArray>
      </Points>
      <Cells>
        <DataArray type="Int32" Name="connectivity" format="ascii">
0 1
1 2
2 3

        </DataArray>
        <DataArray type="Int32" Name="offsets" format="ascii">
2 4 6 
        </DataArray>
        <DataArray type="UInt8" Name="types" format="ascii">
3 3 3 
        </DataArray>
      </Cells>
      <PointData>
        <DataArray type="Float64" Name="rho">
          9.80704455e-01 9.72619426e-01 9.65023288e-01 9.57870195e-01 
        </DataArray>
        <DataArray type="Float64" Name="rhou">
          3.04581644e-02 3.04908959e-02 3.02245542e-02 2.91673318e-02 
        </DataArray>
        <DataArray type="Float64" Name="rhov">
          2.08702426e-02 1.83142559e-02 1.58085096e-02 1.31304039e-02 
        </DataArray>
        <DataArray type="Float64" Name="E">
          2.23259361e+05 2.21335258e+05 2.19528773e+05 2.17828796e+05 
        </DataArray>
      </PointData>
    </Piece>
    <Piece NumberOfPoints="4" NumberOfCells="3">
      <Points>
        <DataArray type="Float64" NumberOfComponents="3" format="ascii">
          8.80528912e-02 4.46097627e-02 0.00000000e+00 
9.19835642e-02 4.53475714e-02 0.00000000e+00 
9.59195644e-02 4.60564308e-02 0.00000000e+00 
9.98597518e-02 4.67394181e-02 0.00000000e+00 

        </DataArray>
      </Points>
      <Cells>
        <DataArray type="Int32" Name="connectivity" format="ascii">
0 1
1 2
2 3

        </DataArray>
        <DataArray type="Int32" Name="offsets" format="ascii">
2 4 6 
        </DataArray>
        <DataArray type="UInt8" Name="types" format="ascii">
3 3 3 
        </DataArray>
      </Cells>
      <PointData>
        <DataArray type="Float64" Name="rho">
          9.57870697e-01 9.51150657e-01 9.44850959e-01 9.38872070e-01 
        </DataArray>
        <DataArray type="Float64" Name="rhou">
          2.89737651e-02 2.75572861e-02 2.40901088e-02 2.86129669e-02 
        </DataArray>
        <DataArray type="Float64" Name="rhov">
          1.32933763e-02 1.07190662e-02 9.13771167e-03 8.63982585e-03 
        </DataArray>
        <DataArray type="Float64" Name="E">
          2.17828912e+05 2.16233068e+05 2.14737480e+05 2.13319084e+05 
        </DataArray>
      </PointData>
    </Piece>
    <Piece NumberOfPoints="4" NumberOfCells="3">
      <Points>
        <DataArray type="Float64" NumberOfComponents="3" format="ascii">
          9.98597518e-02 4.67394181e-02 0.00000000e+00 
1.10118888e-01 4.83862534e-02 0.00000000e+00 
1.20400399e-01 4.98730615e-02 0.00000000e+00 
1.30701363e-01 5.12186773e-02 0.00000000e+00 

        </DataArray>
      </Points>
      <Cells>
        <DataArray type="Int32" Name="connectivity" format="ascii">
0 1
1 2
2 3

        </DataArray>
        <DataArray type="Int32" Name="offsets" format="ascii">
2 4 6 
        </DataArray>
        <DataArray type="UInt8" Name="types" format="ascii">
3 3 3 
        </DataArray>
      </Cells>
      <PointData>
        <DataArray type="Float64" Name="rho">
          9.38799390e-01 9.24854395e-01 9.12824471e-01 9.02482991e-01 
        </DataArray>
        <DataArray type="Float64" Name="rhou">
          2.63426141e-02 1.81723719e-02 1.60466922e-02 1.25834235e-02 
        </DataArray>
        <DataArray type="Float64" Name="rhov">
          7.40399552e-03 4.17827470e-03 3.67186062e-03 3.00078429e-03 
        </DataArray>
        <DataArray type="Float64" Name="E">
          2.13302661e+05 2.09998341e+05 2.07151227e+05 2.04706290e+05 
        </DataArray>
      </PointData>
    </Piece>
    <Piece NumberOfPoints="4" NumberOfCells="3">
      <Points>
        <DataArray type="Float64" NumberOfComponents="3" format="ascii">
          1.30701363e-01 5.12186773e-02 0.00000000e+00 
1.41019106e-01 5.24347536e-02 0.00000000e+00 
1.51350453e-01 5.35292812e-02 0.00000000e+00 
1.61692888e-01 5.45137413e-02 0.00000000e+00 

        </DataArray>
      </Points>
      <Cells>
        <DataArray type="Int32" Name="connectivity" format="ascii">
0 1
1 2
2 3

        </DataArray>
        <DataArray type="Int32" Name="offsets" format="ascii">
2 4 6 
        </DataArray>
        <DataArray type="UInt8" Name="types" format="ascii">
3 3 3 
        </DataArray>
      </Cells>
      <PointData>
        <DataArray type="Float64" Name="rho">
          9.02479496e-01 8.93399742e-01 8.85557080e-01 8.78843069e-01 
        </DataArray>
        <DataArray type="Float64" Name="rhou">
          1.39655166e-02 1.20696238e-02 9.99527348e-03 8.72998061e-03 
        </DataArray>
        <DataArray type="Float64" Name="rhov">
          3.50029913e-03 2.57315809e-03 1.79454340e-03 1.61745782e-03 
        </DataArray>
        <DataArray type="Float64" Name="E">
          2.04705451e+05 2.02562125e+05 2.00713169e+05 1.99131920e+05 
        </DataArray>
      </PointData>
    </Piece>
    <Piece NumberOfPoints="4" NumberOfCells="3">
      <Points>
        <DataArray type="Float64" NumberOfComponents="3" format="ascii">
          1.61692888e-01 5.45137413e-02 0.00000000e+00 
1.72044471e-01 5.53969070e-02 0.00000000e+00 
1.82403773e-01 5.61845005e-02 0.00000000e+00 
1.92769483e-01 5.68825118e-02 0.00000000e+00 

        </DataArray>
      </Points>
      <Cells>
        <DataArray type="Int32" Name="connectivity" format="ascii">
0 1
1 2
2 3

        </DataArray>
        <DataArray type="Int32" Name="offsets" format="ascii">
2 4 6 
        </DataArray>
        <DataArray type="UInt8" Name="types" format="ascii">
3 3 3 
        </DataArray>
      </Cells>
      <PointData>
        <DataArray type="Float64" Name="rho">
          8.78840663e-01 8.73060251e-01 8.68122778e-01 8.63975563e-01 
        </DataArray>
        <DataArray type="Float64" Name="rhou">
          8.76671751e-03 7.63531491e-03 6.60055774e-03 5.69766802e-03 
        </DataArray>
        <DataArray type="Float64" Name="rhov">
          1.66908460e-03 1.30275167e-03 9.22637024e-04 6.92434427e-04 
        </DataArray>
        <DataArray type="Float64" Name="E">
          1.99131380e+05 1.97771853e+05 1.96612489e+05 1.95640319e+05 
        </DataArray>
      </PointData>
    </Piece>
    <Piece NumberOfPoints="4" NumberOfCells="3">
      <Points>
        <DataArray type="Float64" NumberOfComponents="3" format="ascii">
          1.92769483e-01 5.68825118e-02 0.00000000e+00 
2.03140482e-01 5.74972220e-02 0.00000000e+00 
2.13515818e-01 5.80338500e-02 0.00000000e+00 
2.23894730e-01 5.84962890e-02 0.00000000e+00 

        </DataArray>
      </Points>
      <Cells>
        <DataArray type="Int32" Name="connectivity" format="ascii">
0 1
1 2
2 3

        </DataArray>
        <DataArray type="Int32" Name="offsets" format="ascii">
2 4 6 
        </DataArray>
        <DataArray type="UInt8" Name="types" format="ascii">
3 3 3 
        </DataArray>
      </Cells>
      <PointData>
        <DataArray type="Float64" Name="rho">
          8.63974874e-01 8.60538164e-01 8.57727990e-01 8.55486080e-01 
        </DataArray>
        <DataArray type="Float64" Name="rhou">
          5.73442763e-03 5.01240864e-03 4.45565063e-03 3.99507124e-03 
        </DataArray>
        <DataArray type="Float64" Name="rhov">
          7.33846782e-04 6.42748157e-04 5.25741370e-04 4.01671195e-04 
        </DataArray>
        <DataArray type="Float64" Name="E">
          1.95640160e+05 1.94836057e+05 1.94180255e+05 1.93658876e+05 
        </DataArray>
      </PointData>
    </Piece>
    <Piece NumberOfPoints="4" NumberOfCells="3">
      <Points>
        <DataArray type="Float64" NumberOfComponents="3" format="ascii">
          2.23894730e-01 5.84962890e-02 0.00000000e+00 
2.34276548e-01 5.88882305e-02 0.00000000e+00 
2.44660646e-01 5.92139624e-02 0.00000000e+00 
2.55046517e-01 5.94772622e-02 0.00000000e+00 

        </DataArray>
      </Points>
      <Cells>
        <DataArray type="Int32" Name="connectivity" format="ascii">
0 1
1 2
2 3

        </DataArray>
        <DataArray type="Int32" Name="offsets" format="ascii">
2 4 6 
        </DataArray>
        <DataArray type="UInt8" Name="types" format="ascii">
3 3 3 
        </DataArray>
      </Cells>
      <PointData>
        <DataArray type="Float64" Name="rho">
          8.55486651e-01 8.53770784e-01 8.52536534e-01 8.51728610e-01 
        </DataArray>
        <DataArray type="Float64" Name="rhou">
          4.00270955e-03 3.48095294e-03 3.10248245e-03 2.87301077e-03 
        </DataArray>
        <DataArray type="Float64" Name="rhov">
          4.16051027e-04 3.36971934e-04 3.18675462e-04 3.16314530e-04 
        </DataArray>
        <DataArray type="Float64" Name="E">
          1.93659007e+05 1.93261859e+05 1.92978334e+05 1.92795393e+05 
        </DataArray>
      </PointData>
    </Piece>
    <Piece NumberOfPoints="4" NumberOfCells="3">
      <Points>
        <DataArray type="Float64" NumberOfComponents="3" format="ascii">
          2.55046517e-01 5.94772622e-02 0.00000000e+00 
2.65433758e-01 5.96804135e-02 0.00000000e+00 
2.75821954e-01 5.98256700e-02 0.00000000e+00 
2.86210775e-01 5.99167012e-02 0.00000000e+00 

        </DataArray>
      </Points>
      <Cells>
        <DataArray type="Int32" Name="connectivity" format="ascii">
0 1
1 2
2 3

        </DataArray>
        <DataArray type="Int32" Name="offsets" format="ascii">
2 4 6 
        </DataArray>
        <DataArray type="UInt8" Name="types" format="ascii">
3 3 3 
        </DataArray>
      </Cells>
      <PointData>
        <DataArray type="Float64" Name="rho">
          8.51728622e-01 8.51298852e-01 8.51222664e-01 8.51479810e-01 
        </DataArray>
        <DataArray type="Float64" Name="rhou">
          2.86721924e-03 2.58021274e-03 2.28608437e-03 2.02241943e-03 
        </DataArray>
        <DataArray type="Float64" Name="rhov">
          3.27615890e-04 2.31303332e-04 1.72190940e-04 2.05245600e-04 
        </DataArray>
        <DataArray type="Float64" Name="E">
          1.92795399e+05 1.92701705e+05 1.92691361e+05 1.92759378e+05 
        </DataArray>
      </PointData>
    </Piece>
    <Piece NumberOfPoints="4" NumberOfCells="3">
      <Points>
        <DataArray type="Float64" NumberOfComponents="3" format="ascii">
          2.86210775e-01 5.99167012e-02 0.00000000e+00 
2.96599895e-01 5.99572174e-02 0.00000000e+00 
3.06989133e-01 5.99487796e-02 0.00000000e+00 
3.17378193e-01 5.98919280e-02 0.00000000e+00 

        </DataArray>
      </Points>
      <Cells>
        <DataArray type="Int32" Name="connectivity" format="ascii">
0 1
1 2
2 3

        </DataArray>
        <DataArray type="Int32" Name="offsets" format="ascii">
2 4 6 
        </DataArray>
        <DataArray type="UInt8" Name="types" format="ascii">
3 3 3 
        </DataArray>
      </Cells>
      <PointData>
        <DataArray type="Float64" Name="rho">
          8.51478788e-01 8.52020341e-01 8.52799682e-01 8.53801919e-01 
        </DataArray>
        <DataArray type="Float64" Name="rhou">
          2.04124717e-03 1.92553217e-03 1.79891318e-03 1.61692595e-03 
        </DataArray>
        <DataArray type="Float64" Name="rhov">
          2.21607959e-04 2.48149164e-04 1.93212379e-04 1.18230724e-04 
        </DataArray>
        <DataArray type="Float64" Name="E">
          1.92759146e+05 1.92894029e+05 1.93084989e+05 1.93328443e+05 
        </DataArray>
      </PointData>
    </Piece>
    <Piece NumberOfPoints="4" NumberOfCells="3">
      <Points>
        <DataArray type="Float64" NumberOfComponents="3" format="ascii">
          3.17378193e-01 5.98919280e-02 0.00000000e+00 
3.27766895e-01 5.97884916e-02 0.00000000e+00 
3.38155061e-01 5.96415885e-02 0.00000000e+00 
3.48542601e-01 5.94538599e-02 0.00000000e+00 

        </DataArray>
      </Points>
      <Cells>
        <DataArray type="Int32" Name="connectivity" format="ascii">
0 1
1 2
2 3

        </DataArray>
        <DataArray type="Int32" Name="offsets" format="ascii">
2 4 6 
        </DataArray>
        <DataArray type="UInt8" Name="types" format="ascii">
3 3 3 
        </DataArray>
      </Cells>
      <PointData>
        <DataArray type="Float64" Name="rho">
          8.53802266e-01 8.55014872e-01 8.56417848e-01 8.57978540e-01 
        </DataArray>
        <DataArray type="Float64" Name="rhou">
          1.64638994e-03 1.44989748e-03 1.33268928e-03 1.28578795e-03 
        </DataArray>
        <DataArray type="Float64" Name="rhov">
          1.25887600e-04 1.14011521e-04 1.39207148e-04 1.59441121e-04 
        </DataArray>
        <DataArray type="Float64" Name="E">
          1.93328521e+05 1.93621398e+05 1.93958929e+05 1.94333490e+05 
        </DataArray>
      </PointData>
    </Piece>
    <Piece NumberOfPoints="4" NumberOfCells="3">
      <Points>
        <DataArray type="Float64" NumberOfComponents="3" format="ascii">
          3.48542601e-01 5.94538599e-02 0.00000000e+00 
3.58929336e-01 5.92265576e-02 0.00000000e+00 
3.69315147e-01 5.89610897e-02 0.00000000e+00 
3.79699975e-01 5.86590059e-02 0.00000000e+00 

        </DataArray>
      </Points>
      <Cells>
        <DataArray type="Int32" Name="connectivity" format="ascii">
0 1
1 2
2 3

        </DataArray>
        <DataArray type="Int32" Name="offsets" format="ascii">
2 4 6 
        </DataArray>
        <DataArray type="UInt8" Name="types" format="ascii">
3 3 3 
        </DataArray>
      </Cells>
      <PointData>
        <DataArray type="Float64" Name="rho">
          8.57978787e-01 8.59671913e-01 8.61487991e-01 8.63407327e-01 
        </DataArray>
        <DataArray type="Float64" Name="rhou">
          1.29815554e-03 1.17360450e-03 1.07930064e-03 1.03068916e-03 
        </DataArray>
        <DataArray type="Float64" Name="rhov">
          1.56350416e-04 1.19863630e-04 1.12045306e-04 1.10130000e-04 
        </DataArray>
        <DataArray type="Float64" Name="E">
          1.94333547e+05 1.94739229e+05 1.95173735e+05 1.95632461e+05 
        </DataArray>
      </PointData>
    </Piece>
    <Piece NumberOfPoints="4" NumberOfCells="3">
      <Points>
        <DataArray type="Float64" NumberOfComponents="3" format="ascii">
          3.79699975e-01 5.86590059e-02 0.00000000e+00 
3.90083700e-01 5.83211333e-02 0.00000000e+00 
4.00466233e-01 5.79482466e-02 0.00000000e+00 
4.10847515e-01 5.75418957e-02 0.00000000e+00 

        </DataArray>
      </Points>
      <Cells>
        <DataArray type="Int32" Name="connectivity" format="ascii">
0 1
1 2
2 3

        </DataArray>
        <DataArray type="Int32" Name="offsets" format="ascii">
2 4 6 
        </DataArray>
        <DataArray type="UInt8" Name="types" format="ascii">
3 3 3 
        </DataArray>
      </Cells>
      <PointData>
        <DataArray type="Float64" Name="rho">
          8.63407339e-01 8.65413246e-01 8.67495987e-01 8.69649186e-01 
        </DataArray>
        <DataArray type="Float64" Name="rhou">
          1.02298289e-03 9.58152696e-04 8.78831939e-04 8.02235476e-04 
        </DataArray>
        <DataArray type="Float64" Name="rhov">
          1.12571593e-04 8.18967680e-05 5.87464053e-05 6.38736342e-05 
        </DataArray>
        <DataArray type="Float64" Name="E">
          1.95632464e+05 1.96111511e+05 1.96608578e+05 1.97122113e+05 
        </DataArray>
      </PointData>
    </Piece>
    <Piece NumberOfPoints="4" NumberOfCells="3">
      <Points>
        <DataArray type="Float64" NumberOfComponents="3" format="ascii">
          4.10847515e-01 5.75418957e-02 0.00000000e+00 
4.21227485e-01 5.71038015e-02 0.00000000e+00 
4.31606144e-01 5.66351078e-02 0.00000000e+00 
4.41983402e-01 5.61364293e-02 0.00000000e+00 

        </DataArray>
      </Points>
      <Cells>
        <DataArray type="Int32" Name="connectivity" format="ascii">
0 1
1 2
2 3

        </DataArray>
        <DataArray type="Int32" Name="offsets" format="ascii">
2 4 6 
        </DataArray>
        <DataArray type="UInt8" Name="types" format="ascii">
3 3 3 
        </DataArray>
      </Cells>
      <PointData>
        <DataArray type="Float64" Name="rho">
          8.69648986e-01 8.71857206e-01 8.74108947e-01 8.76394682e-01 
        </DataArray>
        <DataArray type="Float64" Name="rhou">
          8.18855190e-04 7.66612281e-04 7.26968943e-04 6.89207878e-04 
        </DataArray>
        <DataArray type="Float64" Name="rhov">
          6.73062180e-05 6.72674681e-05 5.74786475e-05 3.62285352e-05 
        </DataArray>
        <DataArray type="Float64" Name="E">
          1.97122068e+05 1.97648469e+05 1.98185055e+05 1.98729599e+05 
        </DataArray>
      </PointData>
    </Piece>
    <Piece NumberOfPoints="4" NumberOfCells="3">
      <Points>
        <DataArray type="Float64" NumberOfComponents="3" format="ascii">
          4.41983402e-01 5.61364293e-02 0.00000000e+00 
4.52359200e-01 5.56085743e-02 0.00000000e+00 
4.62733537e-01 5.50529286e-02 0.00000000e+00 
4.73106444e-01 5.44707514e-02 0.00000000e+00 

        </DataArray>
      </Points>
      <Cells>
        <DataArray type="Int32" Name="connectivity" format="ascii">
0 1
1 2
2 3

        </DataArray>
        <DataArray type="Int32" Name="offsets" format="ascii">
2 4 6 
        </DataArray>
        <DataArray type="UInt8" Name="types" format="ascii">
3 3 3 
        </DataArray>
      </Cells>
      <PointData>
        <DataArray type="Float64" Name="rho">
          8.76394825e-01 8.78710268e-01 8.81049109e-01 8.83402979e-01 
        </DataArray>
        <DataArray type="Float64" Name="rhou">
          6.86224583e-04 6.29568013e-04 5.88905642e-04 5.64772554e-04 
        </DataArray>
        <DataArray type="Float64" Name="rhov">
          3.68715897e-05 2.93207243e-05 2.97273296e-05 2.98999076e-05 
        </DataArray>
        <DataArray type="Float64" Name="E">
          1.98729632e+05 1.99281101e+05 1.99838005e+05 2.00398392e+05 
        </DataArray>
      </PointData>
    </Piece>
    <Piece NumberOfPoints="4" NumberOfCells="3">
      <Points>
        <DataArray type="Float64" NumberOfComponents="3" format="ascii">
          4.73106444e-01 5.44707514e-02 0.00000000e+00 
4.83477861e-01 5.38627952e-02 0.00000000e+00 
4.93847787e-01 5.32294959e-02 0.00000000e+00 
5.04216135e-01 5.25716618e-02 0.00000000e+00 

        </DataArray>
      </Points>
      <Cells>
        <DataArray type="Int32" Name="connectivity" format="ascii">
0 1
1 2
2 3

        </DataArray>
        <DataArray type="Int32" Name="offsets" format="ascii">
2 4 6 
        </DataArray>
        <DataArray type="UInt8" Name="types" format="ascii">
3 3 3 
        </DataArray>
      </Cells>
      <PointData>
        <DataArray type="Float64" Name="rho">
          8.83402966e-01 8.85765122e-01 8.88130298e-01 8.90497496e-01 
        </DataArray>
        <DataArray type="Float64" Name="rhou">
          5.57162832e-04 5.35567474e-04 4.99736017e-04 4.57260915e-04 
        </DataArray>
        <DataArray type="Float64" Name="rhov">
          3.17170963e-05 2.02737143e-05 5.35039065e-06 2.73019393e-06 
        </DataArray>
        <DataArray type="Float64" Name="E">
          2.00398390e+05 2.00960690e+05 2.01523677e+05 2.02087090e+05 
        </DataArray>
      </PointData>
    </Piece>
    <Piece NumberOfPoints="4" NumberOfCells="3">
      <Points>
        <DataArray type="Float64" NumberOfComponents="3" format="ascii">
          5.04216135e-01 5.25716618e-02 0.00000000e+00 
5.14582992e-01 5.18903993e-02 0.00000000e+00 
5.24948359e-01 5.11864908e-02 0.00000000e+00 
5.35312176e-01 5.04603274e-02 0.00000000e+00 

        </DataArray>
      </Points>
      <Cells>
        <DataArray type="Int32" Name="connectivity" format="ascii">
0 1
1 2
2 3

        </DataArray>
        <DataArray type="Int32" Name="offsets" format="ascii">
2 4 6 
        </DataArray>
        <DataArray type="UInt8" Name="types" format="ascii">
3 3 3 
        </DataArray>
      </Cells>
      <PointData>
        <DataArray type="Float64" Name="rho">
          8.90497410e-01 8.92861306e-01 8.95217509e-01 8.97562610e-01 
        </DataArray>
        <DataArray type="Float64" Name="rhou">
          4.65865260e-04 4.39104378e-04 4.18798893e-04 3.98778633e-04 
        </DataArray>
        <DataArray type="Float64" Name="rhov">
          4.89641390e-06 4.58896525e-06 -7.97687205e-07 -1.26447986e-05 
        </DataArray>
        <DataArray type="Float64" Name="E">
          2.02087071e+05 2.02649672e+05 2.03210443e+05 2.03768591e+05 
        </DataArray>
      </PointData>
    </Piece>
    <Piece NumberOfPoints="4" NumberOfCells="3">
      <Points>
        <DataArray type="Float64" NumberOfComponents="3" format="ascii">
          5.35312176e-01 5.04603274e-02 0.00000000e+00 
5.45674443e-01 4.97124642e-02 0.00000000e+00 
5.56035221e-01 4.89437394e-02 0.00000000e+00 
5.66394389e-01 4.81546782e-02 0.00000000e+00 

        </DataArray>
      </Points>
      <Cells>
        <DataArray type="Int32" Name="connectivity" format="ascii">
0 1
1 2
2 3

        </DataArray>
        <DataArray type="Int32" Name="offsets" format="ascii">
2 4 6 
        </DataArray>
        <DataArray type="UInt8" Name="types" format="ascii">
3 3 3 
        </DataArray>
      </Cells>
      <PointData>
        <DataArray type="Float64" Name="rho">
          8.97562655e-01 8.99896066e-01 9.02214926e-01 9.04516408e-01 
        </DataArray>
        <DataArray type="Float64" Name="rhou">
          3.94510441e-04 3.67451736e-04 3.48476742e-04 3.36133929e-04 
        </DataArray>
        <DataArray type="Float64" Name="rhov">
          -1.23641763e-05 -1.30214157e-05 -1.36744603e-05 -1.78557629e-05 
        </DataArray>
        <DataArray type="Float64" Name="E">
          2.03768601e+05 2.04323976e+05 2.04875914e+05 2.05423763e+05 
        </DataArray>
      </PointData>
    </Piece>
    <Piece NumberOfPoints="4" NumberOfCells="3">
      <Points>
        <DataArray type="Float64" NumberOfComponents="3" format="ascii">
          5.66394389e-01 4.81546782e-02 0.00000000e+00 
5.76752067e-01 4.73455116e-02 0.00000000e+00 
5.87108195e-01 4.65166979e-02 0.00000000e+00 
5.97462773e-01 4.56690118e-02 0.00000000e+00 

        </DataArray>
      </Points>
      <Cells>
        <DataArray type="Int32" Name="connectivity" format="ascii">
0 1
1 2
2 3

        </DataArray>
        <DataArray type="Int32" Name="offsets" format="ascii">
2 4 6 
        </DataArray>
        <DataArray type="UInt8" Name="types" format="ascii">
3 3 3 
        </DataArray>
      </Cells>
      <PointData>
        <DataArray type="Float64" Name="rho">
          9.04516437e-01 9.06798905e-01 9.09062086e-01 9.11305111e-01 
        </DataArray>
        <DataArray type="Float64" Name="rhou">
          3.35473165e-04 3.14526661e-04 2.92903998e-04 2.76303741e-04 
        </DataArray>
        <DataArray type="Float64" Name="rhov">
          -1.75202444e-05 -2.61096951e-05 -2.95712693e-05 -2.82524305e-05 
        </DataArray>
        <DataArray type="Float64" Name="E">
          2.05423770e+05 2.05967150e+05 2.06505992e+05 2.07040091e+05 
        </DataArray>
      </PointData>
    </Piece>
    <Piece NumberOfPoints="4" NumberOfCells="3">
      <Points>
        <DataArray type="Float64" NumberOfComponents="3" format="ascii">
          5.97462773e-01 4.56690118e-02 0.00000000e+00 
6.07815862e-01 4.48031016e-02 0.00000000e+00 
6.18167400e-01 4.39192392e-02 0.00000000e+00 
6.28517449e-01 4.30175588e-02 0.00000000e+00 

        </DataArray>
      </Points>
      <Cells>
        <DataArray type="Int32" Name="connectivity" format="ascii">
0 1
1 2
2 3

        </DataArray>
        <DataArray type="Int32" Name="offsets" format="ascii">
2 4 6 
        </DataArray>
        <DataArray type="UInt8" Name="types" format="ascii">
3 3 3 
        </DataArray>
      </Cells>
      <PointData>
        <DataArray type="Float64" Name="rho">
          9.11305048e-01 9.13526049e-01 9.15723231e-01 9.17896769e-01 
        </DataArray>
        <DataArray type="Float64" Name="rhou">
          2.74369973e-04 2.65257154e-04 2.52831626e-04 2.35080516e-04 
        </DataArray>
        <DataArray type="Float64" Name="rhov">
          -2.73275361e-05 -2.76582734e-05 -3.31777935e-05 -3.84475055e-05 
        </DataArray>
        <DataArray type="Float64" Name="E">
          2.07040077e+05 2.07569002e+05 2.08092345e+05 2.08610142e+05 
        </DataArray>
      </PointData>
    </Piece>
    <Piece NumberOfPoints="4" NumberOfCells="3">
      <Points>
        <DataArray type="Float64" NumberOfComponents="3" format="ascii">
          6.28517449e-01 4.30175588e-02 0.00000000e+00 
6.38865948e-01 4.20984775e-02 0.00000000e+00 
6.49212897e-01 4.11624312e-02 0.00000000e+00 
6.59558356e-01 4.02097441e-02 0.00000000e+00 

        </DataArray>
      </Points>
      <Cells>
        <DataArray type="Int32" Name="connectivity" format="ascii">
0 1
1 2
2 3

        </DataArray>
        <DataArray type="Int32" Name="offsets" format="ascii">
2 4 6 
        </DataArray>
        <DataArray type="UInt8" Name="types" format="ascii">
3 3 3 
        </DataArray>
      </Cells>
      <PointData>
        <DataArray type="Float64" Name="rho">
          9.17896761e-01 9.20046480e-01 9.22171536e-01 9.24271606e-01 
        </DataArray>
        <DataArray type="Float64" Name="rhou">
          2.36071869e-04 2.22888165e-04 2.11572571e-04 1.99394990e-04 
        </DataArray>
        <DataArray type="Float64" Name="rhov">
          -3.74305339e-05 -3.79769247e-05 -3.96885990e-05 -4.17777634e-05 
        </DataArray>
        <DataArray type="Float64" Name="E">
          2.08610141e+05 2.09122351e+05 2.09628780e+05 2.10129354e+05 
        </DataArray>
      </PointData>
    </Piece>
    <Piece NumberOfPoints="4" NumberOfCells="3">
      <Points>
        <DataArray type="Float64" NumberOfComponents="3" format="ascii">
          6.59558356e-01 4.02097441e-02 0.00000000e+00 
6.69902325e-01 3.92407738e-02 0.00000000e+00 
6.80244744e-01 3.82556282e-02 0.00000000e+00 
6.90585554e-01 3.72543521e-02 0.00000000e+00 

        </DataArray>
      </Points>
      <Cells>
        <DataArray type="Int32" Name="connectivity" format="ascii">
0 1
1 2
2 3

        </DataArray>
        <DataArray type="Int32" Name="offsets" format="ascii">
2 4 6 
        </DataArray>
        <DataArray type="UInt8" Name="types" format="ascii">
3 3 3 
        </DataArray>
      </Cells>
      <PointData>
        <DataArray type="Float64" Name="rho">
          9.24271589e-01 9.26346665e-01 9.28395583e-01 9.30419123e-01 
        </DataArray>
        <DataArray type="Float64" Name="rhou">
          1.96170614e-04 1.90891514e-04 1.81987541e-04 1.67004515e-04 
        </DataArray>
        <DataArray type="Float64" Name="rhov">
          -4.07411933e-05 -4.05470182e-05 -4.48866760e-05 -4.83984483e-05 
        </DataArray>
        <DataArray type="Float64" Name="E">
          2.10129350e+05 2.10624067e+05 2.11112663e+05 2.11595316e+05 
        </DataArray>
      </PointData>
    </Piece>
    <Piece NumberOfPoints="4" NumberOfCells="3">
      <Points>
        <DataArray type="Float64" NumberOfComponents="3" format="ascii">
          6.90585554e-01 3.72543521e-02 0.00000000e+00 
7.00924933e-01 3.62373814e-02 0.00000000e+00 
7.11262703e-01 3.52048986e-02 0.00000000e+00 
7.21598923e-01 3.41568366e-02 0.00000000e+00 

        </DataArray>
      </Points>
      <Cells>
        <DataArray type="Int32" Name="connectivity" format="ascii">
0 1
1 2
2 3

        </DataArray>
        <DataArray type="Int32" Name="offsets" format="ascii">
2 4 6 
        </DataArray>
        <DataArray type="UInt8" Name="types" format="ascii">
3 3 3 
        </DataArray>
      </Cells>
      <PointData>
        <DataArray type="Float64" Name="rho">
          9.30419080e-01 9.32417631e-01 9.34389956e-01 9.36336671e-01 
        </DataArray>
        <DataArray type="Float64" Name="rhou">
          1.65616657e-04 1.60349630e-04 1.54918169e-04 1.41611072e-04 
        </DataArray>
        <DataArray type="Float64" Name="rhov">
          -4.72786551e-05 -4.45620411e-05 -4.77419643e-05 -5.23464725e-05 
        </DataArray>
        <DataArray type="Float64" Name="E">
          2.11595306e+05 2.12072103e+05 2.12542763e+05 2.13007428e+05 
        </DataArray>
      </PointData>
    </Piece>
    <Piece NumberOfPoints="4" NumberOfCells="3">
      <Points>
        <DataArray type="Float64" NumberOfComponents="3" format="ascii">
          7.21598923e-01 3.41568366e-02 0.00000000e+00 
7.31933594e-01 3.30936089e-02 0.00000000e+00 
7.42266715e-01 3.20154354e-02 0.00000000e+00 
7.52598286e-01 3.09220124e-02 0.00000000e+00 

        </DataArray>
      </Points>
      <Cells>
        <DataArray type="Int32" Name="connectivity" format="ascii">
0 1
1 2
2 3

        </DataArray>
        <DataArray type="Int32" Name="offsets" format="ascii">
2 4 6 
        </DataArray>
        <DataArray type="UInt8" Name="types" format="ascii">
3 3 3 
        </DataArray>
      </Cells>
      <PointData>
        <DataArray type="Float64" Name="rho">
          9.36336650e-01 9.38258759e-01 9.40154866e-01 9.42025455e-01 
        </DataArray>
        <DataArray type="Float64" Name="rhou">
          1.38949374e-04 1.34671586e-04 1.31651125e-04 1.21132939e-04 
        </DataArray>
        <DataArray type="Float64" Name="rhov">
          -5.13756223e-05 -4.66424096e-05 -4.87384574e-05 -5.36988707e-05 
        </DataArray>
        <DataArray type="Float64" Name="E">
          2.13007423e+05 2.13466319e+05 2.13919130e+05 2.14365965e+05 
        </DataArray>
      </PointData>
    </Piece>
    <Piece NumberOfPoints="4" NumberOfCells="3">
      <Points>
        <DataArray type="Float64" NumberOfComponents="3" format="ascii">
          7.52598286e-01 3.09220124e-02 0.00000000e+00 
7.62928188e-01 2.98135038e-02 0.00000000e+00 
7.73256481e-01 2.86899786e-02 0.00000000e+00 
7.83583105e-01 2.75512449e-02 0.00000000e+00 

        </DataArray>
      </Points>
      <Cells>
        <DataArray type="Int32" Name="connectivity" format="ascii">
0 1
1 2
2 3

        </DataArray>
        <DataArray type="Int32" Name="offsets" format="ascii">
2 4 6 
        </DataArray>
        <DataArray type="UInt8" Name="types" format="ascii">
3 3 3 
        </DataArray>
      </Cells>
      <PointData>
        <DataArray type="Float64" Name="rho">
          9.42025450e-01 9.43871637e-01 9.45692564e-01 9.47488890e-01 
        </DataArray>
        <DataArray type="Float64" Name="rhou">
          1.18551913e-04 1.14750727e-04 1.10825454e-04 1.01372207e-04 
        </DataArray>
        <DataArray type="Float64" Name="rhov">
          -5.27820955e-05 -5.02418495e-05 -5.22441214e-05 -5.52872639e-05 
        </DataArray>
        <DataArray type="Float64" Name="E">
          2.14365964e+05 2.14807075e+05 2.15242267e+05 2.15671686e+05 
        </DataArray>
      </PointData>
    </Piece>
    <Piece NumberOfPoints="4" NumberOfCells="3">
      <Points>
        <DataArray type="Float64" NumberOfComponents="3" format="ascii">
          7.83583105e-01 2.75512449e-02 0.00000000e+00 
7.93908060e-01 2.63975188e-02 0.00000000e+00 
8.04231405e-01 2.52291560e-02 0.00000000e+00 
8.14553022e-01 2.40457114e-02 0.00000000e+00 

        </DataArray>
      </Points>
      <Cells>
        <DataArray type="Int32" Name="connectivity" format="ascii">
0 1
1 2
2 3

        </DataArray>
        <DataArray type="Int32" Name="offsets" format="ascii">
2 4 6 
        </DataArray>
        <DataArray type="UInt8" Name="types" format="ascii">
3 3 3 
        </DataArray>
      </Cells>
      <PointData>
        <DataArray type="Float64" Name="rho">
          9.47488896e-01 9.49261344e-01 9.51009786e-01 9.52733529e-01 
        </DataArray>
        <DataArray type="Float64" Name="rhou">
          1.03961049e-04 9.33519793e-05 9.23946630e-05 9.34885898e-05 
        </DataArray>
        <DataArray type="Float64" Name="rhov">
          -5.56474102e-05 -5.17216959e-05 -5.02437378e-05 -5.65204506e-05 
        </DataArray>
        <DataArray type="Float64" Name="E">
          2.15671687e+05 2.16095494e+05 2.16513654e+05 2.16926004e+05 
        </DataArray>
      </PointData>
    </Piece>
    <Piece NumberOfPoints="4" NumberOfCells="3">
      <Points>
        <DataArray type="Float64" NumberOfComponents="3" format="ascii">
          8.14553022e-01 2.40457114e-02 0.00000000e+00 
8.24872792e-01 2.28467938e-02 0.00000000e+00 
8.35190892e-01 2.16327831e-02 0.00000000e+00 
8.45507145e-01 2.04038676e-02 0.00000000e+00 

        </DataArray>
      </Points>
      <Cells>
        <DataArray type="Int32" Name="connectivity" format="ascii">
0 1
1 2
2 3

        </DataArray>
        <DataArray type="Int32" Name="offsets" format="ascii">
2 4 6 
        </DataArray>
        <DataArray type="UInt8" Name="types" format="ascii">
3 3 3 
        </DataArray>
      </Cells>
      <PointData>
        <DataArray type="Float64" Name="rho">
          9.52733572e-01 9.54434239e-01 9.56112073e-01 9.57767172e-01 
        </DataArray>
        <DataArray type="Float64" Name="rhou">
          8.76102501e-05 7.95835223e-05 7.28828350e-05 7.37868392e-05 
        </DataArray>
        <DataArray type="Float64" Name="rhov">
          -5.67923774e-05 -5.64992551e-05 -5.34724979e-05 -4.93997792e-05 
        </DataArray>
        <DataArray type="Float64" Name="E">
          2.16926014e+05 2.17332915e+05 2.17734411e+05 2.18130511e+05 
        </DataArray>
      </PointData>
    </Piece>
    <Piece NumberOfPoints="4" NumberOfCells="3">
      <Points>
        <DataArray type="Float64" NumberOfComponents="3" format="ascii">
          8.45507145e-01 2.04038676e-02 0.00000000e+00 
8.55821550e-01 1.91591792e-02 0.00000000e+00 
8.66134048e-01 1.78987328e-02 0.00000000e+00 
8.76444638e-01 1.66228991e-02 0.00000000e+00 

        </DataArray>
      </Points>
      <Cells>
        <DataArray type="Int32" Name="connectivity" format="ascii">
0 1
1 2
2 3

        </DataArray>
        <DataArray type="Int32" Name="offsets" format="ascii">
2 4 6 
        </DataArray>
        <DataArray type="UInt8" Name="types" format="ascii">
3 3 3 
        </DataArray>
      </Cells>
      <PointData>
        <DataArray type="Float64" Name="rho">
          9.57767283e-01 9.59398264e-01 9.61008942e-01 9.62595833e-01 
        </DataArray>
        <DataArray type="Float64" Name="rhou">
          9.49657870e-05 6.41204817e-05 6.30272342e-05 7.94685614e-05 
        </DataArray>
        <DataArray type="Float64" Name="rhov">
          -5.30360445e-05 -6.02779719e-05 -5.75159242e-05 -7.48936035e-05 
        </DataArray>
        <DataArray type="Float64" Name="E">
          2.18130537e+05 2.18520912e+05 2.18906411e+05 2.19286220e+05 
        </DataArray>
      </PointData>
    </Piece>
    <Piece NumberOfPoints="4" NumberOfCells="3">
      <Points>
        <DataArray type="Float64" NumberOfComponents="3" format="ascii">
          8.76444638e-01 1.66228991e-02 0.00000000e+00 
8.86753201e-01 1.53310820e-02 0.00000000e+00 
8.97059798e-01 1.40233757e-02 0.00000000e+00 
9.07364249e-01 1.26988320e-02 0.00000000e+00 

        </DataArray>
      </Points>
      <Cells>
        <DataArray type="Int32" Name="connectivity" format="ascii">
0 1
1 2
2 3

        </DataArray>
        <DataArray type="Int32" Name="offsets" format="ascii">
2 4 6 
        </DataArray>
        <DataArray type="UInt8" Name="types" format="ascii">
3 3 3 
        </DataArray>
      </Cells>
      <PointData>
        <DataArray type="Float64" Name="rho">
          9.62595388e-01 9.64165059e-01 9.65710044e-01 9.67248884e-01 
        </DataArray>
        <DataArray type="Float64" Name="rhou">
          -1.19237502e-05 8.02035960e-05 2.59463412e-05 -2.59494928e-05 
        </DataArray>
        <DataArray type="Float64" Name="rhov">
          -6.70431542e-05 -7.03847223e-05 -8.93008535e-05 8.44728433e-06 
        </DataArray>
        <DataArray type="Float64" Name="E">
          2.19286119e+05 2.19661715e+05 2.20031379e+05 2.20399323e+05 
        </DataArray>
      </PointData>
    </Piece>
    <Piece NumberOfPoints="4" NumberOfCells="3">
      <Points>
        <DataArray type="Float64" NumberOfComponents="3" format="ascii">
          9.07364249e-01 1.26988320e-02 0.00000000e+00 
9.17666554e-01 1.13577880e-02 0.00000000e+00 
9.27966774e-01 1.00004105e-02 0.00000000e+00 
9.38264549e-01 8.62528384e-03 0.00000000e+00 

        </DataArray>
      </Points>
      <Cells>
        <DataArray type="Int32" Name="connectivity" format="ascii">
0 1
1 2
2 3

        </DataArray>
        <DataArray type="Int32" Name="offsets" format="ascii">
2 4 6 
        </DataArray>
        <DataArray type="UInt8" Name="types" format="ascii">
3 3 3 
        </DataArray>
      </Cells>
      <PointData>
        <DataArray type="Float64" Name="rho">
          9.67253706e-01 9.68744373e-01 9.70259212e-01 9.71628907e-01 
        </DataArray>
        <DataArray type="Float64" Name="rhou">
          7.77321537e-04 -2.21868032e-04 3.25106237e-04 7.46472056e-04 
        </DataArray>
        <DataArray type="Float64" Name="rhov">
          -6.04504102e-05 -1.13489250e-04 -4.41930881e-05 -1.45118602e-03 
        </DataArray>
        <DataArray type="Float64" Name="E">
          2.20400421e+05 2.20757074e+05 2.21118950e+05 2.21447538e+05 
        </DataArray>
      </PointData>
    </Piece>
    <Piece NumberOfPoints="4" NumberOfCells="3">
      <Points>
        <DataArray type="Float64" NumberOfComponents="3" format="ascii">
          9.38264549e-01 8.62528384e-03 0.00000000e+00 
9.48560059e-01 7.23283459e-03 0.00000000e+00 
9.58853185e-01 5.82307298e-03 0.00000000e+00 
9.69143867e-01 4.39538015e-03 0.00000000e+00 

        </DataArray>
      </Points>
      <Cells>
        <DataArray type="Int32" Name="connectivity" format="ascii">
0 1
1 2
2 3

        </DataArray>
        <DataArray type="Int32" Name="offsets" format="ascii">
2 4 6 
        </DataArray>
        <DataArray type="UInt8" Name="types" format="ascii">
3 3 3 
        </DataArray>
      </Cells>
      <PointData>
        <DataArray type="Float64" Name="rho">
          9.71581817e-01 9.73269061e-01 9.74547924e-01 9.77260600e-01 
        </DataArray>
        <DataArray type="Float64" Name="rhou">
          -6.64199416e-03 2.10797186e-03 -3.14717798e-03 -1.88598092e-02 
        </DataArray>
        <DataArray type="Float64" Name="rhov">
          -1.07781573e-03 1.27240319e-04 -1.12038646e-03 1.87693430e-02 
        </DataArray>
        <DataArray type="Float64" Name="E">
          2.21436806e+05 2.21837681e+05 2.22145651e+05 2.22780924e+05 
        </DataArray>
      </PointData>
    </Piece>
    <Piece NumberOfPoints="4" NumberOfCells="3">
      <Points>
        <DataArray type="Float64" NumberOfComponents="3" format="ascii">
          9.69143867e-01 4.39538015e-03 0.00000000e+00 
9.79435980e-01 2.94816052e-03 0.00000000e+00 
9.89725590e-01 1.48259092e-03 0.00000000e+00 
1.00000000e+00 0.00000000e+00 0.00000000e+00 

        </DataArray>
      </Points>
      <Cells>
        <DataArray type="Int32" Name="connectivity" format="ascii">
0 1
1 2
2 3

        </DataArray>
        <DataArray type="Int32" Name="offsets" format="ascii">
2 4 6 
        </DataArray>
        <DataArray type="UInt8" Name="types" format="ascii">
3 3 3 
        </DataArray>
      </Cells>
      <PointData>
        <DataArray type="Float64" Name="rho">
          9.77551917e-01 9.77209419e-01 9.81041581e-01 9.71279820e-01 
        </DataArray>
        <DataArray type="Float64" Name="rhou">
          -1.49063526e-03 -9.52046594e-03 -3.72654151e-02 4.92253574e-01 
        </DataArray>
        <DataArray type="Float64" Name="rhov">
          2.09358131e-02 1.06564102e-03 5.19272351e-02 -1.35531721e-01 
        </DataArray>
        <DataArray type="Float64" Name="E">
          2.22847363e+05 2.22787059e+05 2.23679770e+05 2.21475058e+05 
        </DataArray>
      </PointData>
    </Piece>
    <Piece NumberOfPoints="4" NumberOfCells="3">
      <Points>
        <DataArray type="Float64" NumberOfComponents="3" format="ascii">
          9.69029665e-01 -4.41133138e-03 0.00000000e+00 
9.79355037e-01 -2.95961346e-03 0.00000000e+00 
9.89677846e-01 -1.48943183e-03 0.00000000e+00 
1.00000000e+00 0.00000000e+00 0.00000000e+00 

        </DataArray>
      </Points>
      <Cells>
        <DataArray type="Int32" Name="connectivity" format="ascii">
0 1
1 2
2 3

        </DataArray>
        <DataArray type="Int32" Name="offsets" format="ascii">
2 4 6 
        </DataArray>
        <DataArray type="UInt8" Name="types" format="ascii">
3 3 3 
        </DataArray>
      </Cells>
      <PointData>
        <DataArray type="Float64" Name="rho">
          9.76474408e-01 9.76183699e-01 9.79974330e-01 9.71459164e-01 
        </DataArray>
        <DataArray type="Float64" Name="rhou">
          -9.05809587e-04 -7.47902706e-03 -3.53479768e-02 4.53592770e-01 
        </DataArray>
        <DataArray type="Float64" Name="rhov">
          -2.33595459e-02 2.09192713e-03 -4.84935881e-02 1.41936998e-01 
        </DataArray>
        <DataArray type="Float64" Name="E">
          2.22604853e+05 2.22554420e+05 2.23435575e+05 2.21515117e+05 
        </DataArray>
      </PointData>
    </Piece>
    <Piece NumberOfPoints="4" NumberOfCells="3">
      <Points>
        <DataArray type="Float64" NumberOfComponents="3" format="ascii">
          9.38035965e-01 -8.65600072e-03 0.00000000e+00 
9.48369622e-01 -7.25875143e-03 0.00000000e+00 
9.58700895e-01 -5.84406452e-03 0.00000000e+00 
9.69029665e-01 -4.41133138e-03 0.00000000e+00 

        </DataArray>
      </Points>
      <Cells>
        <DataArray type="Int32" Name="connectivity" format="ascii">
0 1
1 2
2 3

        </DataArray>
        <DataArray type="Int32" Name="offsets" format="ascii">
2 4 6 
        </DataArray>
        <DataArray type="UInt8" Name="types" format="ascii">
3 3 3 
        </DataArray>
      </Cells>
      <PointData>
        <DataArray type="Float64" Name="rho">
          9.70670791e-01 9.72313279e-01 9.73560240e-01 9.76186116e-01 
        </DataArray>
        <DataArray type="Float64" Name="rhou">
          -6.27309727e-03 2.27401401e-03 -2.59757109e-03 -1.69718038e-02 
        </DataArray>
        <DataArray type="Float64" Name="rhov">
          1.08362324e-03 -1.73784936e-04 1.32875243e-03 -1.73385225e-02 
        </DataArray>
        <DataArray type="Float64" Name="E">
          2.21236790e+05 2.21626309e+05 2.21925567e+05 2.22539198e+05 
        </DataArray>
      </PointData>
    </Piece>
    <Piece NumberOfPoints="4" NumberOfCells="3">
      <Points>
        <DataArray type="Float64" NumberOfComponents="3" format="ascii">
          9.07021165e-01 -1.27432076e-02 0.00000000e+00 
9.17361677e-01 -1.13977119e-02 0.00000000e+00 
9.27700043e-01 -1.00357840e-02 0.00000000e+00 
9.38035965e-01 -8.65600072e-03 0.00000000e+00 

        </DataArray>
      </Points>
      <Cells>
        <DataArray type="Int32" Name="connectivity" format="ascii">
0 1
1 2
2 3

        </DataArray>
        <DataArray type="Int32" Name="offsets" format="ascii">
2 4 6 
        </DataArray>
        <DataArray type="UInt8" Name="types" format="ascii">
3 3 3 
        </DataArray>
      </Cells>
      <PointData>
        <DataArray type="Float64" Name="rho">
          9.66488849e-01 9.67923504e-01 9.69388791e-01 9.70716854e-01 
        </DataArray>
        <DataArray type="Float64" Name="rhou">
          9.03070996e-04 -7.74934119e-05 4.81604927e-04 8.72504357e-04 
        </DataArray>
        <DataArray type="Float64" Name="rhov">
          4.38584929e-05 7.05126034e-05 -1.48154053e-05 1.36655062e-03 
        </DataArray>
        <DataArray type="Float64" Name="E">
          2.20236180e+05 2.20579302e+05 2.20929090e+05 2.21247281e+05 
        </DataArray>
      </PointData>
    </Piece>
    <Piece NumberOfPoints="4" NumberOfCells="3">
      <Points>
        <DataArray type="Float64" NumberOfComponents="3" format="ascii">
          8.75986874e-01 -1.66798849e-02 0.00000000e+00 
8.86333704e-01 -1.53839625e-02 0.00000000e+00 
8.96678507e-01 -1.40720531e-02 0.00000000e+00 
9.07021165e-01 -1.27432076e-02 0.00000000e+00 

        </DataArray>
      </Points>
      <Cells>
        <DataArray type="Int32" Name="connectivity" format="ascii">
0 1
1 2
2 3

        </DataArray>
        <DataArray type="Int32" Name="offsets" format="ascii">
2 4 6 
        </DataArray>
        <DataArray type="UInt8" Name="types" format="ascii">
3 3 3 
        </DataArray>
      </Cells>
      <PointData>
        <DataArray type="Float64" Name="rho">
          9.62068151e-01 9.63547519e-01 9.65014039e-01 9.66484012e-01 
        </DataArray>
        <DataArray type="Float64" Name="rhou">
          1.40479990e-04 2.20167115e-04 1.74062141e-04 1.23422228e-04 
        </DataArray>
        <DataArray type="Float64" Name="rhov">
          6.26653118e-05 5.40559654e-05 6.87804257e-05 -2.41484825e-05 
        </DataArray>
        <DataArray type="Float64" Name="E">
          2.19178792e+05 2.19532772e+05 2.19883644e+05 2.20235080e+05 
        </DataArray>
      </PointData>
    </Piece>
    <Piece NumberOfPoints="4" NumberOfCells="3">
      <Points>
        <DataArray type="Float64" NumberOfComponents="3" format="ascii">
          8.44934702e-01 -2.04724707e-02 0.00000000e+00 
8.55287313e-01 -1.92240477e-02 0.00000000e+00 
8.65638077e-01 -1.79597028e-02 0.00000000e+00 
8.75986874e-01 -1.66798849e-02 0.00000000e+00 

        </DataArray>
      </Points>
      <Cells>
        <DataArray type="Int32" Name="connectivity" format="ascii">
0 1
1 2
2 3

        </DataArray>
        <DataArray type="Int32" Name="offsets" format="ascii">
2 4 6 
        </DataArray>
        <DataArray type="UInt8" Name="types" format="ascii">
3 3 3 
        </DataArray>
      </Cells>
      <PointData>
        <DataArray type="Float64" Name="rho">
          9.57592778e-01 9.59091107e-01 9.60585454e-01 9.62068567e-01 
        </DataArray>
        <DataArray type="Float64" Name="rhou">
          2.70830337e-04 2.12764039e-04 2.01386893e-04 2.40092155e-04 
        </DataArray>
        <DataArray type="Float64" Name="rhov">
          3.84679156e-05 5.86082163e-05 4.78778483e-05 6.57813660e-05 
        </DataArray>
        <DataArray type="Float64" Name="E">
          2.18107598e+05 2.18466251e+05 2.18823906e+05 2.19178886e+05 
        </DataArray>
      </PointData>
    </Piece>
    <Piece NumberOfPoints="4" NumberOfCells="3">
      <Points>
        <DataArray type="Float64" NumberOfComponents="3" format="ascii">
          8.13865662e-01 -2.41250079e-02 0.00000000e+00 
8.24223816e-01 -2.29226518e-02 0.00000000e+00 
8.34580123e-01 -2.17050612e-02 0.00000000e+00 
8.44934702e-01 -2.04724707e-02 0.00000000e+00 

        </DataArray>
      </Points>
      <Cells>
        <DataArray type="Int32" Name="connectivity" format="ascii">
0 1
1 2
2 3

        </DataArray>
        <DataArray type="Int32" Name="offsets" format="ascii">
2 4 6 
        </DataArray>
        <DataArray type="UInt8" Name="types" format="ascii">
3 3 3 
        </DataArray>
      </Cells>
      <PointData>
        <DataArray type="Float64" Name="rho">
          9.53041635e-01 9.54565258e-01 9.56082489e-01 9.57592551e-01 
        </DataArray>
        <DataArray type="Float64" Name="rhou">
          2.45684754e-04 2.30864378e-04 2.16385097e-04 2.22353807e-04 
        </DataArray>
        <DataArray type="Float64" Name="rhov">
          5.08048917e-05 5.12282808e-05 4.34099986e-05 3.11129754e-05 
        </DataArray>
        <DataArray type="Float64" Name="E">
          2.17018504e+05 2.17383076e+05 2.17746154e+05 2.18107547e+05 
        </DataArray>
      </PointData>
    </Piece>
    <Piece NumberOfPoints="4" NumberOfCells="3">
      <Points>
        <DataArray type="Float64" NumberOfComponents="3" format="ascii">
          7.82780826e-01 -2.76402626e-02 0.00000000e+00 
7.93144107e-01 -2.64833923e-02 0.00000000e+00 
8.03505778e-01 -2.53117718e-02 0.00000000e+00 
8.13865662e-01 -2.41250079e-02 0.00000000e+00 

        </DataArray>
      </Points>
      <Cells>
        <DataArray type="Int32" Name="connectivity" format="ascii">
0 1
1 2
2 3

        </DataArray>
        <DataArray type="Int32" Name="offsets" format="ascii">
2 4 6 
        </DataArray>
        <DataArray type="UInt8" Name="types" format="ascii">
3 3 3 
        </DataArray>
      </Cells>
      <PointData>
        <DataArray type="Float64" Name="rho">
          9.48427894e-01 9.49972825e-01 9.51511655e-01 9.53041527e-01 
        </DataArray>
        <DataArray type="Float64" Name="rhou">
          2.65901834e-04 2.45258897e-04 2.45408767e-04 2.55177794e-04 
        </DataArray>
        <DataArray type="Float64" Name="rhov">
          4.86976043e-05 3.99640269e-05 3.51541533e-05 4.91280553e-05 
        </DataArray>
        <DataArray type="Float64" Name="E">
          2.15914919e+05 2.16284388e+05 2.16652460e+05 2.17018479e+05 
        </DataArray>
      </PointData>
    </Piece>
    <Piece NumberOfPoints="4" NumberOfCells="3">
      <Points>
        <DataArray type="Float64" NumberOfComponents="3" format="ascii">
          7.51680970e-01 -3.10197193e-02 0.00000000e+00 
7.62049198e-01 -2.99084149e-02 0.00000000e+00 
7.72415876e-01 -2.87819952e-02 0.00000000e+00 
7.82780826e-01 -2.76402626e-02 0.00000000e+00 

        </DataArray>
      </Points>
      <Cells>
        <DataArray type="Int32" Name="connectivity" format="ascii">
0 1
1 2
2 3

        </DataArray>
        <DataArray type="Int32" Name="offsets" format="ascii">
2 4 6 
        </DataArray>
        <DataArray type="UInt8" Name="types" format="ascii">
3 3 3 
        </DataArray>
      </Cells>
      <PointData>
        <DataArray type="Float64" Name="rho">
          9.43760060e-01 9.45322045e-01 9.46877898e-01 9.48427858e-01 
        </DataArray>
        <DataArray type="Float64" Name="rhou">
          2.78949349e-04 2.74961469e-04 2.69847223e-04 2.55868617e-04 
        </DataArray>
        <DataArray type="Float64" Name="rhov">
          4.25946639e-05 3.56712790e-05 3.92178885e-05 4.65414339e-05 
        </DataArray>
        <DataArray type="Float64" Name="E">
          2.14799048e+05 2.15172363e+05 2.15544301e+05 2.15914911e+05 
        </DataArray>
      </PointData>
    </Piece>
    <Piece NumberOfPoints="4" NumberOfCells="3">
      <Points>
        <DataArray type="Float64" NumberOfComponents="3" format="ascii">
          7.20566452e-01 -3.42622213e-02 0.00000000e+00 
7.30939507e-01 -3.31965312e-02 0.00000000e+00 
7.41311073e-01 -3.21157984e-02 0.00000000e+00 
7.51680970e-01 -3.10197193e-02 0.00000000e+00 

        </DataArray>
      </Points>
      <Cells>
        <DataArray type="Int32" Name="connectivity" format="ascii">
0 1
1 2
2 3

        </DataArray>
        <DataArray type="Int32" Name="offsets" format="ascii">
2 4 6 
        </DataArray>
        <DataArray type="UInt8" Name="types" format="ascii">
3 3 3 
        </DataArray>
      </Cells>
      <PointData>
        <DataArray type="Float64" Name="rho">
          9.39049704e-01 9.40624584e-01 9.42194903e-01 9.43760052e-01 
        </DataArray>
        <DataArray type="Float64" Name="rhou">
          3.04966149e-04 2.98167162e-04 2.95569563e-04 2.82544678e-04 
        </DataArray>
        <DataArray type="Float64" Name="rhov">
          4.00929528e-05 2.88998131e-05 3.13523961e-05 4.30508804e-05 
        </DataArray>
        <DataArray type="Float64" Name="E">
          2.13673737e+05 2.14049886e+05 2.14425037e+05 2.14799046e+05 
        </DataArray>
      </PointData>
    </Piece>
    <Piece NumberOfPoints="4" NumberOfCells="3">
      <Points>
        <DataArray type="Float64" NumberOfComponents="3" format="ascii">
          6.89437866e-01 -3.73662710e-02 0.00000000e+00 
6.99815631e-01 -3.63472365e-02 0.00000000e+00 
7.10191846e-01 -3.53125818e-02 0.00000000e+00 
7.20566452e-01 -3.42622213e-02 0.00000000e+00 

        </DataArray>
      </Points>
      <Cells>
        <DataArray type="Int32" Name="connectivity" format="ascii">
0 1
1 2
2 3

        </DataArray>
        <DataArray type="Int32" Name="offsets" format="ascii">
2 4 6 
        </DataArray>
        <DataArray type="UInt8" Name="types" format="ascii">
3 3 3 
        </DataArray>
      </Cells>
      <PointData>
        <DataArray type="Float64" Name="rho">
          9.34315727e-01 9.35895936e-01 9.37474045e-01 9.39049716e-01 
        </DataArray>
        <DataArray type="Float64" Name="rhou">
          3.38493997e-04 3.31168593e-04 3.24285715e-04 3.06330092e-04 
        </DataArray>
        <DataArray type="Float64" Name="rhov">
          3.29720239e-05 2.54446142e-05 2.98582037e-05 4.03141737e-05 
        </DataArray>
        <DataArray type="Float64" Name="E">
          2.12543478e+05 2.12920675e+05 2.13297456e+05 2.13673739e+05 
        </DataArray>
      </PointData>
    </Piece>
    <Piece NumberOfPoints="4" NumberOfCells="3">
      <Points>
        <DataArray type="Float64" NumberOfComponents="3" format="ascii">
          6.58295333e-01 -4.03269380e-02 0.00000000e+00 
6.68677747e-01 -3.93563360e-02 0.00000000e+00 
6.79058611e-01 -3.83694395e-02 0.00000000e+00 
6.89437866e-01 -3.73662710e-02 0.00000000e+00 

        </DataArray>
      </Points>
      <Cells>
        <DataArray type="Int32" Name="connectivity" format="ascii">
0 1
1 2
2 3

        </DataArray>
        <DataArray type="Int32" Name="offsets" format="ascii">
2 4 6 
        </DataArray>
        <DataArray type="UInt8" Name="types" format="ascii">
3 3 3 
        </DataArray>
      </Cells>
      <PointData>
        <DataArray type="Float64" Name="rho">
          9.29582021e-01 9.31159034e-01 9.32736931e-01 9.34315782e-01 
        </DataArray>
        <DataArray type="Float64" Name="rhou">
          3.76168886e-04 3.70417876e-04 3.57701228e-04 3.36914331e-04 
        </DataArray>
        <DataArray type="Float64" Name="rhov">
          2.25832957e-05 1.93218635e-05 2.57900592e-05 3.36913970e-05 
        </DataArray>
        <DataArray type="Float64" Name="E">
          2.11413925e+05 2.11790155e+05 2.12166674e+05 2.12543491e+05 
        </DataArray>
      </PointData>
    </Piece>
    <Piece NumberOfPoints="4" NumberOfCells="3">
      <Points>
        <DataArray type="Float64" NumberOfComponents="3" format="ascii">
          6.27138972e-01 -4.31386717e-02 0.00000000e+00 
6.37525976e-01 -4.22184542e-02 0.00000000e+00 
6.47911429e-01 -4.12811004e-02 0.00000000e+00 
6.58295333e-01 -4.03269380e-02 0.00000000e+00 

        </DataArray>
      </Points>
      <Cells>
        <DataArray type="Int32" Name="connectivity" format="ascii">
0 1
1 2
2 3

        </DataArray>
        <DataArray type="Int32" Name="offsets" format="ascii">
2 4 6 
        </DataArray>
        <DataArray type="UInt8" Name="types" format="ascii">
3 3 3 
        </DataArray>
      </Cells>
      <PointData>
        <DataArray type="Float64" Name="rho">
          9.24879716e-01 9.26441212e-01 9.28009243e-01 9.29582054e-01 
        </DataArray>
        <DataArray type="Float64" Name="rhou">
          4.28445932e-04 4.09493646e-04 3.92172063e-04 3.77382297e-04 
        </DataArray>
        <DataArray type="Float64" Name="rhov">
          1.96747959e-05 1.84243838e-05 1.96216429e-05 2.34085777e-05 
        </DataArray>
        <DataArray type="Float64" Name="E">
          2.10292400e+05 2.10664774e+05 2.11038756e+05 2.11413933e+05 
        </DataArray>
      </PointData>
    </Piece>
    <Piece NumberOfPoints="4" NumberOfCells="3">
      <Points>
        <DataArray type="Float64" NumberOfComponents="3" format="ascii">
          5.95968783e-01 -4.57924642e-02 0.00000000e+00 
6.06360376e-01 -4.49259281e-02 0.00000000e+00 
6.16750479e-01 -4.40412909e-02 0.00000000e+00 
6.27138972e-01 -4.31386717e-02 0.00000000e+00 

        </DataArray>
      </Points>
      <Cells>
        <DataArray type="Int32" Name="connectivity" format="ascii">
0 1
1 2
2 3

        </DataArray>
        <DataArray type="Int32" Name="offsets" format="ascii">
2 4 6 
        </DataArray>
        <DataArray type="UInt8" Name="types" format="ascii">
3 3 3 
        </DataArray>
      </Cells>
      <PointData>
        <DataArray type="Float64" Name="rho">
          9.20252730e-01 9.21784598e-01 9.23327317e-01 9.24879709e-01 
        </DataArray>
        <DataArray type="Float64" Name="rhou">
          4.74290705e-04 4.61974754e-04 4.44581830e-04 4.22221497e-04 
        </DataArray>
        <DataArray type="Float64" Name="rhov">
          8.13370346e-06 4.83716221e-06 1.11377231e-05 2.04127276e-05 
        </DataArray>
        <DataArray type="Float64" Name="E">
          2.09189207e+05 2.09554403e+05 2.09922227e+05 2.10292398e+05 
        </DataArray>
      </PointData>
    </Piece>
    <Piece NumberOfPoints="4" NumberOfCells="3">
      <Points>
        <DataArray type="Float64" NumberOfComponents="3" format="ascii">
          5.64784765e-01 -4.82786149e-02 0.00000000e+00 
5.75181007e-01 -4.74695377e-02 0.00000000e+00 
5.85575700e-01 -4.66405638e-02 0.00000000e+00 
5.95968783e-01 -4.57924642e-02 0.00000000e+00 

        </DataArray>
      </Points>
      <Cells>
        <DataArray type="Int32" Name="connectivity" format="ascii">
0 1
1 2
2 3

        </DataArray>
        <DataArray type="Int32" Name="offsets" format="ascii">
2 4 6 
        </DataArray>
        <DataArray type="UInt8" Name="types" format="ascii">
3 3 3 
        </DataArray>
      </Cells>
      <PointData>
        <DataArray type="Float64" Name="rho">
          9.15759465e-01 9.17237441e-01 9.18735828e-01 9.20252843e-01 
        </DataArray>
        <DataArray type="Float64" Name="rhou">
          5.51877870e-04 5.25296731e-04 4.92185186e-04 4.68325432e-04 
        </DataArray>
        <DataArray type="Float64" Name="rhov">
          -3.02849168e-06 8.17285155e-06 1.27417985e-05 8.97420580e-06 
        </DataArray>
        <DataArray type="Float64" Name="E">
          2.08118028e+05 2.08470378e+05 2.08827589e+05 2.09189233e+05 
        </DataArray>
      </PointData>
    </Piece>
    <Piece NumberOfPoints="4" NumberOfCells="3">
      <Points>
        <DataArray type="Float64" NumberOfComponents="3" format="ascii">
          5.33586800e-01 -5.05827516e-02 0.00000000e+00 
5.43987691e-01 -4.98356484e-02 0.00000000e+00 
5.54387033e-01 -4.90674041e-02 0.00000000e+00 
5.64784765e-01 -4.82786149e-02 0.00000000e+00 

        </DataArray>
      </Points>
      <Cells>
        <DataArray type="Int32" Name="connectivity" format="ascii">
0 1
1 2
2 3

        </DataArray>
        <DataArray type="Int32" Name="offsets" format="ascii">
2 4 6 
        </DataArray>
        <DataArray type="UInt8" Name="types" format="ascii">
3 3 3 
        </DataArray>
      </Cells>
      <PointData>
        <DataArray type="Float64" Name="rho">
          9.11471473e-01 9.12872091e-01 9.14303202e-01 9.15759424e-01 
        </DataArray>
        <DataArray type="Float64" Name="rhou">
          6.27577203e-04 5.87518898e-04 5.58485304e-04 5.46434091e-04 
        </DataArray>
        <DataArray type="Float64" Name="rhov">
          -1.59285428e-06 -1.74937532e-06 -5.01529310e-06 -2.75995925e-06 
        </DataArray>
        <DataArray type="Float64" Name="E">
          2.07095694e+05 2.07429664e+05 2.07770856e+05 2.08118019e+05 
        </DataArray>
      </PointData>
    </Piece>
    <Piece NumberOfPoints="4" NumberOfCells="3">
      <Points>
        <DataArray type="Float64" NumberOfComponents="3" format="ascii">
          5.02374947e-01 -5.26902266e-02 0.00000000e+00 
5.12780428e-01 -5.20105064e-02 0.00000000e+00 
5.23184419e-01 -5.13078682e-02 0.00000000e+00 
5.33586800e-01 -5.05827516e-02 0.00000000e+00 

        </DataArray>
      </Points>
      <Cells>
        <DataArray type="Int32" Name="connectivity" format="ascii">
0 1
1 2
2 3

        </DataArray>
        <DataArray type="Int32" Name="offsets" format="ascii">
2 4 6 
        </DataArray>
        <DataArray type="UInt8" Name="types" format="ascii">
3 3 3 
        </DataArray>
      </Cells>
      <PointData>
        <DataArray type="Float64" Name="rho">
          9.07486418e-01 9.08774952e-01 9.10105274e-01 9.11471377e-01 
        </DataArray>
        <DataArray type="Float64" Name="rhou">
          7.10570076e-04 6.73893503e-04 6.45965643e-04 6.24997297e-04 
        </DataArray>
        <DataArray type="Float64" Name="rhov">
          -1.07020015e-05 -1.72377929e-05 -1.59125853e-05 -2.14793754e-06 
        </DataArray>
        <DataArray type="Float64" Name="E">
          2.06145123e+05 2.06452553e+05 2.06769869e+05 2.07095672e+05 
        </DataArray>
      </PointData>
    </Piece>
    <Piece NumberOfPoints="4" NumberOfCells="3">
      <Points>
        <DataArray type="Float64" NumberOfComponents="3" format="ascii">
          4.71149325e-01 -5.45825884e-02 0.00000000e+00 
4.81559396e-01 -5.39771840e-02 0.00000000e+00 
4.91967946e-01 -5.33461571e-02 0.00000000e+00 
5.02374947e-01 -5.26902266e-02 0.00000000e+00 

        </DataArray>
      </Points>
      <Cells>
        <DataArray type="Int32" Name="connectivity" format="ascii">
0 1
1 2
2 3

        </DataArray>
        <DataArray type="Int32" Name="offsets" format="ascii">
2 4 6 
        </DataArray>
        <DataArray type="UInt8" Name="types" format="ascii">
3 3 3 
        </DataArray>
      </Cells>
      <PointData>
        <DataArray type="Float64" Name="rho">
          9.03932670e-01 9.05061623e-01 9.06246567e-01 9.07486507e-01 
        </DataArray>
        <DataArray type="Float64" Name="rhou">
          8.18964926e-04 7.95739481e-04 7.48474625e-04 6.90925632e-04 
        </DataArray>
        <DataArray type="Float64" Name="rhov">
          -3.50754247e-05 -2.88731358e-05 -1.16647098e-05 -7.98315024e-06 
        </DataArray>
        <DataArray type="Float64" Name="E">
          2.05296494e+05 2.05566214e+05 2.05849188e+05 2.06145144e+05 
        </DataArray>
      </PointData>
    </Piece>
    <Piece NumberOfPoints="4" NumberOfCells="3">
      <Points>
        <DataArray type="Float64" NumberOfComponents="3" format="ascii">
          4.39910263e-01 -5.62384278e-02 0.00000000e+00 
4.50324744e-01 -5.57143167e-02 0.00000000e+00 
4.60737765e-01 -5.51619194e-02 0.00000000e+00 
4.71149325e-01 -5.45825884e-02 0.00000000e+00 

        </DataArray>
      </Points>
      <Cells>
        <DataArray type="Int32" Name="connectivity" format="ascii">
0 1
1 2
2 3

        </DataArray>
        <DataArray type="Int32" Name="offsets" format="ascii">
2 4 6 
        </DataArray>
        <DataArray type="UInt8" Name="types" format="ascii">
3 3 3 
        </DataArray>
      </Cells>
      <PointData>
        <DataArray type="Float64" Name="rho">
          9.00965805e-01 9.01875317e-01 9.02867774e-01 9.03932745e-01 
        </DataArray>
        <DataArray type="Float64" Name="rhou">
          9.89119463e-04 9.11314864e-04 8.52373481e-04 8.24436544e-04 
        </DataArray>
        <DataArray type="Float64" Name="rhov">
          -2.77115006e-05 -1.86432304e-05 -2.52346149e-05 -3.26178870e-05 
        </DataArray>
        <DataArray type="Float64" Name="E">
          2.04586486e+05 2.04804416e+05 2.05041906e+05 2.05296511e+05 
        </DataArray>
      </PointData>
    </Piece>
    <Piece NumberOfPoints="4" NumberOfCells="3">
      <Points>
        <DataArray type="Float64" NumberOfComponents="3" format="ascii">
          4.08658355e-01 -5.76302819e-02 0.00000000e+00 
4.19077009e-01 -5.71971126e-02 0.00000000e+00 
4.29494321e-01 -5.67329265e-02 0.00000000e+00 
4.39910263e-01 -5.62384278e-02 0.00000000e+00 

        </DataArray>
      </Points>
      <Cells>
        <DataArray type="Int32" Name="connectivity" format="ascii">
0 1
1 2
2 3

        </DataArray>
        <DataArray type="Int32" Name="offsets" format="ascii">
2 4 6 
        </DataArray>
        <DataArray type="UInt8" Name="types" format="ascii">
3 3 3 
        </DataArray>
      </Cells>
      <PointData>
        <DataArray type="Float64" Name="rho">
          8.98792223e-01 8.99416205e-01 9.00144518e-01 9.00965573e-01 
        </DataArray>
        <DataArray type="Float64" Name="rhou">
          1.14635491e-03 1.07609101e-03 1.02394146e-03 9.83766245e-04 
        </DataArray>
        <DataArray type="Float64" Name="rhov">
          -3.61927468e-05 -4.86249585e-05 -4.78007833e-05 -2.76205527e-05 
        </DataArray>
        <DataArray type="Float64" Name="E">
          2.04063812e+05 2.04214280e+05 2.04389390e+05 2.04586433e+05 
        </DataArray>
      </PointData>
    </Piece>
    <Piece NumberOfPoints="4" NumberOfCells="3">
      <Points>
        <DataArray type="Float64" NumberOfComponents="3" format="ascii">
          3.77394795e-01 -5.87291755e-02 0.00000000e+00 
3.87817174e-01 -5.83979115e-02 0.00000000e+00 
3.98238391e-01 -5.80311492e-02 0.00000000e+00 
4.08658355e-01 -5.76302819e-02 0.00000000e+00 

        </DataArray>
      </Points>
      <Cells>
        <DataArray type="Int32" Name="connectivity" format="ascii">
0 1
1 2
2 3

        </DataArray>
        <DataArray type="Int32" Name="offsets" format="ascii">
2 4 6 
        </DataArray>
        <DataArray type="UInt8" Name="types" format="ascii">
3 3 3 
        </DataArray>
      </Cells>
      <PointData>
        <DataArray type="Float64" Name="rho">
          8.97672233e-01 8.97911297e-01 8.98285666e-01 8.98792435e-01 
        </DataArray>
        <DataArray type="Float64" Name="rhou">
          1.39735815e-03 1.32310605e-03 1.22088983e-03 1.11512888e-03 
        </DataArray>
        <DataArray type="Float64" Name="rhov">
          -7.99513545e-05 -5.19959496e-05 -2.41018600e-05 -3.13429511e-05 
        </DataArray>
        <DataArray type="Float64" Name="E">
          2.03789892e+05 2.03849471e+05 2.03941050e+05 2.04063861e+05 
        </DataArray>
      </PointData>
    </Piece>
    <Piece NumberOfPoints="4" NumberOfCells="3">
      <Points>
        <DataArray type="Float64" NumberOfComponents="3" format="ascii">
          3.46121490e-01 -5.95011823e-02 0.00000000e+00 
3.56546819e-01 -5.92821389e-02 0.00000000e+00 
3.66971314e-01 -5.90242445e-02 0.00000000e+00 
3.77394795e-01 -5.87291755e-02 0.00000000e+00 

        </DataArray>
      </Points>
      <Cells>
        <DataArray type="Int32" Name="connectivity" format="ascii">
0 1
1 2
2 3

        </DataArray>
        <DataArray type="Int32" Name="offsets" format="ascii">
2 4 6 
        </DataArray>
        <DataArray type="UInt8" Name="types" format="ascii">
3 3 3 
        </DataArray>
      </Cells>
      <PointData>
        <DataArray type="Float64" Name="rho">
          8.97893795e-01 8.97646162e-01 8.97578047e-01 8.97672325e-01 
        </DataArray>
        <DataArray type="Float64" Name="rhou">
          1.74202588e-03 1.59700886e-03 1.46750299e-03 1.40079874e-03 
        </DataArray>
        <DataArray type="Float64" Name="rhov">
          -1.15359206e-04 -7.31880176e-05 -6.56521947e-05 -7.53448946e-05 
        </DataArray>
        <DataArray type="Float64" Name="E">
          2.03833033e+05 2.03777603e+05 2.03764575e+05 2.03789912e+05 
        </DataArray>
      </PointData>
    </Piece>
    <Piece NumberOfPoints="4" NumberOfCells="3">
      <Points>
        <DataArray type="Float64" NumberOfComponents="3" format="ascii">
          3.14841360e-01 -5.99102043e-02 0.00000000e+00 
3.25268596e-01 -5.98174632e-02 0.00000000e+00 
3.35695356e-01 -5.96801341e-02 0.00000000e+00 
3.46121490e-01 -5.95011823e-02 0.00000000e+00 

        </DataArray>
      </Points>
      <Cells>
        <DataArray type="Int32" Name="connectivity" format="ascii">
0 1
1 2
2 3

        </DataArray>
        <DataArray type="Int32" Name="offsets" format="ascii">
2 4 6 
        </DataArray>
        <DataArray type="UInt8" Name="types" format="ascii">
3 3 3 
        </DataArray>
      </Cells>
      <PointData>
        <DataArray type="Float64" Name="rho">
          8.99858380e-01 8.98970306e-01 8.98324654e-01 8.97893504e-01 
        </DataArray>
        <DataArray type="Float64" Name="rhou">
          2.19391820e-03 1.94886459e-03 1.78331841e-03 1.70640883e-03 
        </DataArray>
        <DataArray type="Float64" Name="rhov">
          -5.33077910e-05 -2.95946380e-05 -6.15442955e-05 -1.14605371e-04 
        </DataArray>
        <DataArray type="Float64" Name="E">
          2.04288271e+05 2.04081426e+05 2.03931853e+05 2.03832966e+05 
        </DataArray>
      </PointData>
    </Piece>
    <Piece NumberOfPoints="4" NumberOfCells="3">
      <Points>
        <DataArray type="Float64" NumberOfComponents="3" format="ascii">
          2.83558637e-01 -5.98983802e-02 0.00000000e+00 
2.93986142e-01 -5.99516556e-02 0.00000000e+00 
3.04413795e-01 -5.99554181e-02 0.00000000e+00 
3.14841360e-01 -5.99102043e-02 0.00000000e+00 

        </DataArray>
      </Points>
      <Cells>
        <DataArray type="Int32" Name="connectivity" format="ascii">
0 1
1 2
2 3

        </DataArray>
        <DataArray type="Int32" Name="offsets" format="ascii">
2 4 6 
        </DataArray>
        <DataArray type="UInt8" Name="types" format="ascii">
3 3 3 
        </DataArray>
      </Cells>
      <PointData>
        <DataArray type="Float64" Name="rho">
          9.04077558e-01 9.02402238e-01 9.01001378e-01 8.99857667e-01 
        </DataArray>
        <DataArray type="Float64" Name="rhou">
          2.67286770e-03 2.50742631e-03 2.36937985e-03 2.18490538e-03 
        </DataArray>
        <DataArray type="Float64" Name="rhov">
          -1.11914959e-04 -1.78443449e-04 -1.42170063e-04 -4.66848809e-05 
        </DataArray>
        <DataArray type="Float64" Name="E">
          2.05277411e+05 2.04883860e+05 2.04555464e+05 2.04288108e+05 
        </DataArray>
      </PointData>
    </Piece>
    <Piece NumberOfPoints="4" NumberOfCells="3">
      <Points>
        <DataArray type="Float64" NumberOfComponents="3" format="ascii">
          2.52279758e-01 -5.94130717e-02 0.00000000e+00 
2.62705088e-01 -5.96327744e-02 0.00000000e+00 
2.73131490e-01 -5.97934239e-02 0.00000000e+00 
2.83558637e-01 -5.98983802e-02 0.00000000e+00 

        </DataArray>
      </Points>
      <Cells>
        <DataArray type="Int32" Name="connectivity" format="ascii">
0 1
1 2
2 3

        </DataArray>
        <DataArray type="Int32" Name="offsets" format="ascii">
2 4 6 
        </DataArray>
        <DataArray type="UInt8" Name="types" format="ascii">
3 3 3 
        </DataArray>
      </Cells>
      <PointData>
        <DataArray type="Float64" Name="rho">
          9.11168520e-01 9.08437755e-01 9.06077120e-01 9.04078480e-01 
        </DataArray>
        <DataArray type="Float64" Name="rhou">
          3.64707172e-03 3.34135661e-03 3.00526098e-03 2.65911829e-03 
        </DataArray>
        <DataArray type="Float64" Name="rhov">
          -2.62374843e-04 -1.69405852e-04 -8.14653751e-05 -9.26955220e-05 
        </DataArray>
        <DataArray type="Float64" Name="E">
          2.06947206e+05 2.06303464e+05 2.05747679e+05 2.05277623e+05 
        </DataArray>
      </PointData>
    </Piece>
    <Piece NumberOfPoints="4" NumberOfCells="3">
      <Points>
        <DataArray type="Float64" NumberOfComponents="3" format="ascii">
          2.21014455e-01 -5.83752058e-02 0.00000000e+00 
2.31433928e-01 -5.87876961e-02 0.00000000e+00 
2.41855890e-01 -5.91322705e-02 0.00000000e+00 
2.52279758e-01 -5.94130717e-02 0.00000000e+00 

        </DataArray>
      </Points>
      <Cells>
        <DataArray type="Int32" Name="connectivity" format="ascii">
0 1
1 2
2 3

        </DataArray>
        <DataArray type="Int32" Name="offsets" format="ascii">
2 4 6 
        </DataArray>
        <DataArray type="UInt8" Name="types" format="ascii">
3 3 3 
        </DataArray>
      </Cells>
      <PointData>
        <DataArray type="Float64" Name="rho">
          9.21912008e-01 9.17857642e-01 9.14292223e-01 9.11168702e-01 
        </DataArray>
        <DataArray type="Float64" Name="rhou">
          5.00173640e-03 4.41583698e-03 3.96903855e-03 3.68137126e-03 
        </DataArray>
        <DataArray type="Float64" Name="rhov">
          -3.70869368e-04 -2.65742714e-04 -2.32644826e-04 -2.45982060e-04 
        </DataArray>
        <DataArray type="Float64" Name="E">
          2.09484856e+05 2.08526504e+05 2.07684376e+05 2.06947244e+05 
        </DataArray>
      </PointData>
    </Piece>
    <Piece NumberOfPoints="4" NumberOfCells="3">
      <Points>
        <DataArray type="Float64" NumberOfComponents="3" format="ascii">
          1.89777538e-01 -5.66898957e-02 0.00000000e+00 
2.00185493e-01 -5.73302582e-02 0.00000000e+00 
2.10598081e-01 -5.78906052e-02 0.00000000e+00 
2.21014455e-01 -5.83752058e-02 0.00000000e+00 

        </DataArray>
      </Points>
      <Cells>
        <DataArray type="Int32" Name="connectivity" format="ascii">
0 1
1 2
2 3

        </DataArray>
        <DataArray type="Int32" Name="offsets" format="ascii">
2 4 6 
        </DataArray>
        <DataArray type="UInt8" Name="types" format="ascii">
3 3 3 
        </DataArray>
      </Cells>
      <PointData>
        <DataArray type="Float64" Name="rho">
          9.37394446e-01 9.31629741e-01 9.26488817e-01 9.21911248e-01 
        </DataArray>
        <DataArray type="Float64" Name="rhou">
          6.92572501e-03 6.12421566e-03 5.53811649e-03 5.06433909e-03 
        </DataArray>
        <DataArray type="Float64" Name="rhov">
          -6.55692374e-04 -5.83736405e-04 -4.82917243e-04 -3.58170463e-04 
        </DataArray>
        <DataArray type="Float64" Name="E">
          2.13150826e+05 2.11784832e+05 2.10567602e+05 2.09484681e+05 
        </DataArray>
      </PointData>
    </Piece>
    <Piece NumberOfPoints="4" NumberOfCells="3">
      <Points>
        <DataArray type="Float64" NumberOfComponents="3" format="ascii">
          1.58592433e-01 -5.42296544e-02 0.00000000e+00 
1.68979734e-01 -5.51457107e-02 0.00000000e+00 
1.79375216e-01 -5.59638515e-02 0.00000000e+00 
1.89777538e-01 -5.66898957e-02 0.00000000e+00 

        </DataArray>
      </Points>
      <Cells>
        <DataArray type="Int32" Name="connectivity" format="ascii">
0 1
1 2
2 3

        </DataArray>
        <DataArray type="Int32" Name="offsets" format="ascii">
2 4 6 
        </DataArray>
        <DataArray type="UInt8" Name="types" format="ascii">
3 3 3 
        </DataArray>
      </Cells>
      <PointData>
        <DataArray type="Float64" Name="rho">
          9.59182214e-01 9.51110985e-01 9.43865347e-01 9.37394865e-01 
        </DataArray>
        <DataArray type="Float64" Name="rhou">
          9.98650018e-03 8.91126684e-03 7.96075232e-03 6.99706091e-03 
        </DataArray>
        <DataArray type="Float64" Name="rhov">
          -1.41284911e-03 -1.21941090e-03 -8.86510717e-04 -6.15211817e-04 
        </DataArray>
        <DataArray type="Float64" Name="E">
          2.18321637e+05 2.16404565e+05 2.14685179e+05 2.13150926e+05 
        </DataArray>
      </PointData>
    </Piece>
    <Piece NumberOfPoints="4" NumberOfCells="3">
      <Points>
        <DataArray type="Float64" NumberOfComponents="3" format="ascii">
          1.27497971e-01 -5.08146733e-02 0.00000000e+00 
1.37849152e-01 -5.20747155e-02 0.00000000e+00 
1.48214847e-01 -5.32093942e-02 0.00000000e+00 
1.58592433e-01 -5.42296544e-02 0.00000000e+00 

        </DataArray>
      </Points>
      <Cells>
        <DataArray type="Int32" Name="connectivity" format="ascii">
0 1
1 2
2 3

        </DataArray>
        <DataArray type="Int32" Name="offsets" format="ascii">
2 4 6 
        </DataArray>
        <DataArray type="UInt8" Name="types" format="ascii">
3 3 3 
        </DataArray>
      </Cells>
      <PointData>
        <DataArray type="Float64" Name="rho">
          9.89703378e-01 9.78347387e-01 9.68194517e-01 9.59186266e-01 
        </DataArray>
        <DataArray type="Float64" Name="rhou">
          1.45194789e-02 1.33413475e-02 1.15354549e-02 1.00150441e-02 
        </DataArray>
        <DataArray type="Float64" Name="rhov">
          -2.29404751e-03 -2.04472740e-03 -1.42730159e-03 -1.34101366e-03 
        </DataArray>
        <DataArray type="Float64" Name="E">
          2.25582939e+05 2.22878838e+05 2.20463901e+05 2.18322566e+05 
        </DataArray>
      </PointData>
    </Piece>
    <Piece NumberOfPoints="4" NumberOfCells="3">
      <Points>
        <DataArray type="Float64" NumberOfComponents="3" format="ascii">
          9.65642184e-02 -4.61716652e-02 0.00000000e+00 
1.06852271e-01 -4.78802323e-02 0.00000000e+00 
1.17164567e-01 -4.94215861e-02 0.00000000e+00 
1.27497971e-01 -5.08146733e-02 0.00000000e+00 

        </DataArray>
      </Points>
      <Cells>
        <DataArray type="Int32" Name="connectivity" format="ascii">
0 1
1 2
2 3

        </DataArray>
        <DataArray type="Int32" Name="offsets" format="ascii">
2 4 6 
        </DataArray>
        <DataArray type="UInt8" Name="types" format="ascii">
3 3 3 
        </DataArray>
      </Cells>
      <PointData>
        <DataArray type="Float64" Name="rho">
          1.03307432e+00 1.01677812e+00 1.00235029e+00 9.89711737e-01 
        </DataArray>
        <DataArray type="Float64" Name="rhou">
          2.46957593e-02 1.81067888e-02 1.71949773e-02 1.28735478e-02 
        </DataArray>
        <DataArray type="Float64" Name="rhov">
          -9.36776958e-04 -7.45278603e-04 -1.57061888e-03 -1.61382427e-03 
        </DataArray>
        <DataArray type="Float64" Name="E">
          2.35935747e+05 2.32041169e+05 2.28598221e+05 2.25584954e+05 
        </DataArray>
      </PointData>
    </Piece>
  </UnstructuredGrid>
</VTKFile>
