<?xml version="1.0"?>
<VTKFile type="UnstructuredGrid" version="0.1" byte_order="LittleEndian">
  <UnstructuredGrid>
    <Piece NumberOfPoints="4" NumberOfCells="3">
      <Points>
        <DataArray type="Float64" NumberOfComponents="3" format="ascii">
          9.65642184e-02 -4.61716652e-02 0.00000000e+00 
9.26280916e-02 -4.54656407e-02 0.00000000e+00 
8.86965096e-02 -4.47326750e-02 0.00000000e+00 
8.47706869e-02 -4.39694971e-02 0.00000000e+00 

        </DataArray>
      </Points>
      <Cells>
        <DataArray type="Int32" Name="connectivity" format="ascii">
0 1
1 2
2 3

        </DataArray>
        <DataArray type="Int32" Name="offsets" format="ascii">
2 4 6 
        </DataArray>
        <DataArray type="UInt8" Name="types" format="ascii">
3 3 3 
        </DataArray>
      </Cells>
      <PointData>
        <DataArray type="Float64" Name="rho">
          1.14253788e+00 1.14849757e+00 1.15473504e+00 1.16136581e+00 
        </DataArray>
        <DataArray type="Float64" Name="rhou">
          2.83712710e-02 2.14050734e-02 2.40491784e-02 2.38882609e-02 
        </DataArray>
        <DataArray type="Float64" Name="rhov">
          -5.18962667e-03 -4.35777787e-03 -4.26994784e-03 -4.97462253e-03 
        </DataArray>
        <DataArray type="Float64" Name="E">
          2.67540531e+05 2.68974789e+05 2.70479098e+05 2.72080871e+05 
        </DataArray>
      </PointData>
    </Piece>
    <Piece NumberOfPoints="4" NumberOfCells="3">
      <Points>
        <DataArray type="Float64" NumberOfComponents="3" format="ascii">
          8.47706869e-02 -4.39694971e-02 0.00000000e+00 
8.08513016e-02 -4.31745499e-02 0.00000000e+00 
7.69388378e-02 -4.23462167e-02 0.00000000e+00 
7.30340332e-02 -4.14824970e-02 0.00000000e+00 

        </DataArray>
      </Points>
      <Cells>
        <DataArray type="Int32" Name="connectivity" format="ascii">
0 1
1 2
2 3

        </DataArray>
        <DataArray type="Int32" Name="offsets" format="ascii">
2 4 6 
        </DataArray>
        <DataArray type="UInt8" Name="types" format="ascii">
3 3 3 
        </DataArray>
      </Cells>
      <PointData>
        <DataArray type="Float64" Name="rho">
          1.16136505e+00 1.16837797e+00 1.17580577e+00 1.18371815e+00 
        </DataArray>
        <DataArray type="Float64" Name="rhou">
          2.40467932e-02 2.30218970e-02 2.13454937e-02 1.94875043e-02 
        </DataArray>
        <DataArray type="Float64" Name="rhov">
          -4.77821307e-03 -4.81018503e-03 -4.13057810e-03 -3.18805552e-03 
        </DataArray>
        <DataArray type="Float64" Name="E">
          2.72080692e+05 2.73778518e+05 2.75579967e+05 2.77502101e+05 
        </DataArray>
      </PointData>
    </Piece>
    <Piece NumberOfPoints="4" NumberOfCells="3">
      <Points>
        <DataArray type="Float64" NumberOfComponents="3" format="ascii">
          7.30340332e-02 -4.14824970e-02 0.00000000e+00 
6.91377968e-02 -4.05809283e-02 0.00000000e+00 
6.52511865e-02 -3.96387354e-02 0.00000000e+00 
6.13753870e-02 -3.86530459e-02 0.00000000e+00 

        </DataArray>
      </Points>
      <Cells>
        <DataArray type="Int32" Name="connectivity" format="ascii">
0 1
1 2
2 3

        </DataArray>
        <DataArray type="Int32" Name="offsets" format="ascii">
2 4 6 
        </DataArray>
        <DataArray type="UInt8" Name="types" format="ascii">
3 3 3 
        </DataArray>
      </Cells>
      <PointData>
        <DataArray type="Float64" Name="rho">
          1.18371860e+00 1.19219158e+00 1.20126261e+00 1.21099175e+00 
        </DataArray>
        <DataArray type="Float64" Name="rhou">
          1.95815187e-02 1.69193901e-02 1.24558405e-02 6.42901471e-03 
        </DataArray>
        <DataArray type="Float64" Name="rhov">
          -3.35572301e-03 -2.68005570e-03 -6.54660457e-04 2.48771636e-03 
        </DataArray>
        <DataArray type="Float64" Name="E">
          2.77502231e+05 2.79564564e+05 2.81775925e+05 2.84151632e+05 
        </DataArray>
      </PointData>
    </Piece>
    <Piece NumberOfPoints="4" NumberOfCells="3">
      <Points>
        <DataArray type="Float64" NumberOfComponents="3" format="ascii">
          6.13753870e-02 -3.86530459e-02 0.00000000e+00 
5.75117208e-02 -3.76208089e-02 0.00000000e+00 
5.36618084e-02 -3.65384258e-02 0.00000000e+00 
4.98276278e-02 -3.54015976e-02 0.00000000e+00 

        </DataArray>
      </Points>
      <Cells>
        <DataArray type="Int32" Name="connectivity" format="ascii">
0 1
1 2
2 3

        </DataArray>
        <DataArray type="Int32" Name="offsets" format="ascii">
2 4 6 
        </DataArray>
        <DataArray type="UInt8" Name="types" format="ascii">
3 3 3 
        </DataArray>
      </Cells>
      <PointData>
        <DataArray type="Float64" Name="rho">
          1.21099191e+00 1.22145499e+00 1.23274181e+00 1.24498224e+00 
        </DataArray>
        <DataArray type="Float64" Name="rhou">
          6.35797878e-03 -1.07979685e-03 -1.07367232e-02 -2.29180623e-02 
        </DataArray>
        <DataArray type="Float64" Name="rhov">
          2.25033166e-03 7.16521342e-03 1.55400367e-02 2.74078441e-02 
        </DataArray>
        <DataArray type="Float64" Name="E">
          2.84151675e+05 2.86711956e+05 2.89477936e+05 2.92482275e+05 
        </DataArray>
      </PointData>
    </Piece>
    <Piece NumberOfPoints="4" NumberOfCells="3">
      <Points>
        <DataArray type="Float64" NumberOfComponents="3" format="ascii">
          4.98276278e-02 -3.54015976e-02 0.00000000e+00 
4.60115410e-02 -3.42054628e-02 0.00000000e+00 
4.22164090e-02 -3.29444520e-02 0.00000000e+00 
3.84457745e-02 -3.16120051e-02 0.00000000e+00 

        </DataArray>
      </Points>
      <Cells>
        <DataArray type="Int32" Name="connectivity" format="ascii">
0 1
1 2
2 3

        </DataArray>
        <DataArray type="Int32" Name="offsets" format="ascii">
2 4 6 
        </DataArray>
        <DataArray type="UInt8" Name="types" format="ascii">
3 3 3 
        </DataArray>
      </Cells>
      <PointData>
        <DataArray type="Float64" Name="rho">
          1.24498198e+00 1.25826919e+00 1.27272385e+00 1.28853355e+00 
        </DataArray>
        <DataArray type="Float64" Name="rhou">
          -2.34219693e-02 -3.78979974e-02 -5.73551853e-02 -8.08056472e-02 
        </DataArray>
        <DataArray type="Float64" Name="rhov">
          2.71897753e-02 4.46007229e-02 7.33745720e-02 1.15462045e-01 
        </DataArray>
        <DataArray type="Float64" Name="E">
          2.92482183e+05 2.95750994e+05 2.99312824e+05 3.03215749e+05 
        </DataArray>
      </PointData>
    </Piece>
    <Piece NumberOfPoints="4" NumberOfCells="3">
      <Points>
        <DataArray type="Float64" NumberOfComponents="3" format="ascii">
          3.84457745e-02 -3.16120051e-02 0.00000000e+00 
3.47041376e-02 -3.02002355e-02 0.00000000e+00 
3.09973080e-02 -2.86995135e-02 0.00000000e+00 
2.73328498e-02 -2.70981900e-02 0.00000000e+00 

        </DataArray>
      </Points>
      <Cells>
        <DataArray type="Int32" Name="connectivity" format="ascii">
0 1
1 2
2 3

        </DataArray>
        <DataArray type="Int32" Name="offsets" format="ascii">
2 4 6 
        </DataArray>
        <DataArray type="UInt8" Name="types" format="ascii">
3 3 3 
        </DataArray>
      </Cells>
      <PointData>
        <DataArray type="Float64" Name="rho">
          1.28853341e+00 1.30588033e+00 1.32496721e+00 1.34615310e+00 
        </DataArray>
        <DataArray type="Float64" Name="rhou">
          -8.18406937e-02 -1.05935057e-01 -1.34714311e-01 -1.60386321e-01 
        </DataArray>
        <DataArray type="Float64" Name="rhov">
          1.15374129e-01 1.73187073e-01 2.62796082e-01 3.88642536e-01 
        </DataArray>
        <DataArray type="Float64" Name="E">
          3.03215587e+05 3.07510380e+05 3.12244997e+05 3.17512238e+05 
        </DataArray>
      </PointData>
    </Piece>
    <Piece NumberOfPoints="4" NumberOfCells="3">
      <Points>
        <DataArray type="Float64" NumberOfComponents="3" format="ascii">
          2.73328498e-02 -2.70981900e-02 0.00000000e+00 
2.37206947e-02 -2.53822580e-02 0.00000000e+00 
2.01744195e-02 -2.35341713e-02 0.00000000e+00 
1.67132635e-02 -2.15314496e-02 0.00000000e+00 

        </DataArray>
      </Points>
      <Cells>
        <DataArray type="Int32" Name="connectivity" format="ascii">
0 1
1 2
2 3

        </DataArray>
        <DataArray type="Int32" Name="offsets" format="ascii">
2 4 6 
        </DataArray>
        <DataArray type="UInt8" Name="types" format="ascii">
3 3 3 
        </DataArray>
      </Cells>
      <PointData>
        <DataArray type="Float64" Name="rho">
          1.34615832e+00 1.36978038e+00 1.39630666e+00 1.42700334e+00 
        </DataArray>
        <DataArray type="Float64" Name="rhou">
          -1.61001484e-01 -1.73382777e-01 -1.55956657e-01 -5.59798922e-02 
        </DataArray>
        <DataArray type="Float64" Name="rhov">
          3.89482228e-01 5.48227284e-01 7.70925444e-01 1.00548953e+00 
        </DataArray>
        <DataArray type="Float64" Name="E">
          3.17513242e+05 3.23408598e+05 3.30041449e+05 3.37728301e+05 
        </DataArray>
      </PointData>
    </Piece>
    <Piece NumberOfPoints="4" NumberOfCells="3">
      <Points>
        <DataArray type="Float64" NumberOfComponents="3" format="ascii">
          1.67132635e-02 -2.15314496e-02 0.00000000e+00 
1.33649679e-02 -1.93456318e-02 0.00000000e+00 
1.01706637e-02 -1.69409402e-02 0.00000000e+00 
7.19343964e-03 -1.42731192e-02 0.00000000e+00 

        </DataArray>
      </Points>
      <Cells>
        <DataArray type="Int32" Name="connectivity" format="ascii">
0 1
1 2
2 3

        </DataArray>
        <DataArray type="Int32" Name="offsets" format="ascii">
2 4 6 
        </DataArray>
        <DataArray type="UInt8" Name="types" format="ascii">
3 3 3 
        </DataArray>
      </Cells>
      <PointData>
        <DataArray type="Float64" Name="rho">
          1.42689228e+00 1.46456582e+00 1.50955156e+00 1.57226717e+00 
        </DataArray>
        <DataArray type="Float64" Name="rhou">
          -3.24230909e-02 1.23515479e-01 4.79610624e-01 9.24492149e-01 
        </DataArray>
        <DataArray type="Float64" Name="rhov">
          9.65730459e-01 1.18703858e+00 1.15125182e+00 6.06322479e-01 
        </DataArray>
        <DataArray type="Float64" Name="E">
          3.37702348e+05 3.47140244e+05 3.58403322e+05 3.73993216e+05 
        </DataArray>
      </PointData>
    </Piece>
    <Piece NumberOfPoints="4" NumberOfCells="3">
      <Points>
        <DataArray type="Float64" NumberOfComponents="3" format="ascii">
          7.19343964e-03 -1.42731192e-02 0.00000000e+00 
4.53082798e-03 -1.12927537e-02 0.00000000e+00 
2.33371323e-03 -7.95678515e-03 0.00000000e+00 
8.10639584e-04 -4.26717056e-03 0.00000000e+00 

        </DataArray>
      </Points>
      <Cells>
        <DataArray type="Int32" Name="connectivity" format="ascii">
0 1
1 2
2 3

        </DataArray>
        <DataArray type="Int32" Name="offsets" format="ascii">
2 4 6 
        </DataArray>
        <DataArray type="UInt8" Name="types" format="ascii">
3 3 3 
        </DataArray>
      </Cells>
      <PointData>
        <DataArray type="Float64" Name="rho">
          1.57279261e+00 1.64571798e+00 1.73434881e+00 1.80519094e+00 
        </DataArray>
        <DataArray type="Float64" Name="rhou">
          8.49290975e-01 1.00102045e+00 3.30889131e-01 -1.24811763e+00 
        </DataArray>
        <DataArray type="Float64" Name="rhov">
          7.02544011e-01 -4.54622595e-01 -1.74665655e+00 -1.92972668e+00 
        </DataArray>
        <DataArray type="Float64" Name="E">
          3.74124398e+05 3.92285178e+05 4.14236381e+05 4.31807955e+05 
        </DataArray>
      </PointData>
    </Piece>
    <Piece NumberOfPoints="4" NumberOfCells="3">
      <Points>
        <DataArray type="Float64" NumberOfComponents="3" format="ascii">
          8.10639584e-04 -4.26717056e-03 0.00000000e+00 
1.91366620e-04 -3.27450951e-04 0.00000000e+00 
6.40850572e-04 3.63462302e-03 0.00000000e+00 
2.03182548e-03 7.37539819e-03 0.00000000e+00 

        </DataArray>
      </Points>
      <Cells>
        <DataArray type="Int32" Name="connectivity" format="ascii">
0 1
1 2
2 3

        </DataArray>
        <DataArray type="Int32" Name="offsets" format="ascii">
2 4 6 
        </DataArray>
        <DataArray type="UInt8" Name="types" format="ascii">
3 3 3 
        </DataArray>
      </Cells>
      <PointData>
        <DataArray type="Float64" Name="rho">
          1.80360984e+00 1.83317825e+00 1.79014008e+00 1.70410568e+00 
        </DataArray>
        <DataArray type="Float64" Name="rhou">
          -1.11924286e+00 -1.95749001e+00 -9.58563112e-01 6.93835228e-01 
        </DataArray>
        <DataArray type="Float64" Name="rhov">
          -2.07399250e+00 2.48137660e-01 1.87649291e+00 1.63310815e+00 
        </DataArray>
        <DataArray type="Float64" Name="E">
          4.31417497e+05 4.38676256e+05 4.27942194e+05 4.06503301e+05 
        </DataArray>
      </PointData>
    </Piece>
    <Piece NumberOfPoints="4" NumberOfCells="3">
      <Points>
        <DataArray type="Float64" NumberOfComponents="3" format="ascii">
          2.03182548e-03 7.37539819e-03 0.00000000e+00 
4.13410179e-03 1.07714310e-02 0.00000000e+00 
6.73249783e-03 1.38076087e-02 0.00000000e+00 
9.66598373e-03 1.65232457e-02 0.00000000e+00 

        </DataArray>
      </Points>
      <Cells>
        <DataArray type="Int32" Name="connectivity" format="ascii">
0 1
1 2
2 3

        </DataArray>
        <DataArray type="Int32" Name="offsets" format="ascii">
2 4 6 
        </DataArray>
        <DataArray type="UInt8" Name="types" format="ascii">
3 3 3 
        </DataArray>
      </Cells>
      <PointData>
        <DataArray type="Float64" Name="rho">
          1.70455347e+00 1.60381996e+00 1.51905366e+00 1.45567717e+00 
        </DataArray>
        <DataArray type="Float64" Name="rhou">
          6.58058745e-01 1.17719098e+00 9.11032965e-01 4.47895814e-01 
        </DataArray>
        <DataArray type="Float64" Name="rhov">
          1.85380114e+00 1.76383021e-01 -1.01198517e+00 -1.39734680e+00 
        </DataArray>
        <DataArray type="Float64" Name="E">
          4.06617206e+05 3.81643185e+05 3.60586911e+05 3.44756638e+05 
        </DataArray>
      </PointData>
    </Piece>
    <Piece NumberOfPoints="4" NumberOfCells="3">
      <Points>
        <DataArray type="Float64" NumberOfComponents="3" format="ascii">
          9.66598373e-03 1.65232457e-02 0.00000000e+00 
1.28298048e-02 1.89677756e-02 0.00000000e+00 
1.61561389e-02 2.11867876e-02 0.00000000e+00 
1.96009967e-02 2.32173651e-02 0.00000000e+00 

        </DataArray>
      </Points>
      <Cells>
        <DataArray type="Int32" Name="connectivity" format="ascii">
0 1
1 2
2 3

        </DataArray>
        <DataArray type="Int32" Name="offsets" format="ascii">
2 4 6 
        </DataArray>
        <DataArray type="UInt8" Name="types" format="ascii">
3 3 3 
        </DataArray>
      </Cells>
      <PointData>
        <DataArray type="Float64" Name="rho">
          1.45546842e+00 1.40614383e+00 1.36977496e+00 1.33800079e+00 
        </DataArray>
        <DataArray type="Float64" Name="rhou">
          4.58481306e-01 3.82758471e-02 -1.67608674e-01 -2.05972285e-01 
        </DataArray>
        <DataArray type="Float64" Name="rhov">
          -1.41951417e+00 -1.34869432e+00 -1.03382363e+00 -7.11370816e-01 
        </DataArray>
        <DataArray type="Float64" Name="E">
          3.44702638e+05 3.32375625e+05 3.23233284e+05 3.15265537e+05 
        </DataArray>
      </PointData>
    </Piece>
    <Piece NumberOfPoints="4" NumberOfCells="3">
      <Points>
        <DataArray type="Float64" NumberOfComponents="3" format="ascii">
          1.96009967e-02 2.32173651e-02 0.00000000e+00 
2.31348258e-02 2.50891000e-02 0.00000000e+00 
2.67372411e-02 2.68253610e-02 0.00000000e+00 
3.03938854e-02 2.84444261e-02 0.00000000e+00 

        </DataArray>
      </Points>
      <Cells>
        <DataArray type="Int32" Name="connectivity" format="ascii">
0 1
1 2
2 3

        </DataArray>
        <DataArray type="Int32" Name="offsets" format="ascii">
2 4 6 
        </DataArray>
        <DataArray type="UInt8" Name="types" format="ascii">
3 3 3 
        </DataArray>
      </Cells>
      <PointData>
        <DataArray type="Float64" Name="rho">
          1.33806904e+00 1.31132616e+00 1.28755432e+00 1.26616165e+00 
        </DataArray>
        <DataArray type="Float64" Name="rhou">
          -2.19662954e-01 -2.19082828e-01 -1.81891550e-01 -1.44556932e-01 
        </DataArray>
        <DataArray type="Float64" Name="rhov">
          -7.30965229e-01 -4.75667612e-01 -2.82400448e-01 -1.63563905e-01 
        </DataArray>
        <DataArray type="Float64" Name="E">
          3.15281791e+05 3.08590641e+05 3.02661963e+05 2.97340369e+05 
        </DataArray>
      </PointData>
    </Piece>
    <Piece NumberOfPoints="4" NumberOfCells="3">
      <Points>
        <DataArray type="Float64" NumberOfComponents="3" format="ascii">
          3.03938854e-02 2.84444261e-02 0.00000000e+00 
3.40943485e-02 2.99607720e-02 0.00000000e+00 
3.78307216e-02 3.13864015e-02 0.00000000e+00 
4.15969416e-02 3.27312648e-02 0.00000000e+00 

        </DataArray>
      </Points>
      <Cells>
        <DataArray type="Int32" Name="connectivity" format="ascii">
0 1
1 2
2 3

        </DataArray>
        <DataArray type="Int32" Name="offsets" format="ascii">
2 4 6 
        </DataArray>
        <DataArray type="UInt8" Name="types" format="ascii">
3 3 3 
        </DataArray>
      </Cells>
      <PointData>
        <DataArray type="Float64" Name="rho">
          1.26615933e+00 1.24688122e+00 1.22947352e+00 1.21368586e+00 
        </DataArray>
        <DataArray type="Float64" Name="rhou">
          -1.42604358e-01 -1.03901288e-01 -7.16188088e-02 -4.82944798e-02 
        </DataArray>
        <DataArray type="Float64" Name="rhov">
          -1.62031716e-01 -7.93489429e-02 -2.67140158e-02 3.16855331e-03 
        </DataArray>
        <DataArray type="Float64" Name="E">
          2.97340064e+05 2.92561268e+05 2.88255340e+05 2.84356404e+05 
        </DataArray>
      </PointData>
    </Piece>
    <Piece NumberOfPoints="4" NumberOfCells="3">
      <Points>
        <DataArray type="Float64" NumberOfComponents="3" format="ascii">
          4.15969416e-02 3.27312648e-02 0.00000000e+00 
4.53883260e-02 3.40034962e-02 0.00000000e+00 
4.92011942e-02 3.52098532e-02 0.00000000e+00 
5.30325845e-02 3.63560505e-02 0.00000000e+00 

        </DataArray>
      </Points>
      <Cells>
        <DataArray type="Int32" Name="connectivity" format="ascii">
0 1
1 2
2 3

        </DataArray>
        <DataArray type="Int32" Name="offsets" format="ascii">
2 4 6 
        </DataArray>
        <DataArray type="UInt8" Name="types" format="ascii">
3 3 3 
        </DataArray>
      </Cells>
      <PointData>
        <DataArray type="Float64" Name="rho">
          1.21368662e+00 1.19931093e+00 1.18619266e+00 1.17417100e+00 
        </DataArray>
        <DataArray type="Float64" Name="rhou">
          -4.70551381e-02 -2.62705623e-02 -1.06260377e-02 6.73667428e-05 
        </DataArray>
        <DataArray type="Float64" Name="rhov">
          3.10349443e-03 2.05586912e-02 3.02590155e-02 3.38522974e-02 
        </DataArray>
        <DataArray type="Float64" Name="E">
          2.84356667e+05 2.80814082e+05 2.77585899e+05 2.74631047e+05 
        </DataArray>
      </PointData>
    </Piece>
    <Piece NumberOfPoints="4" NumberOfCells="3">
      <Points>
        <DataArray type="Float64" NumberOfComponents="3" format="ascii">
          5.30325845e-02 3.63560505e-02 0.00000000e+00 
5.68800643e-02 3.74470428e-02 0.00000000e+00 
6.07415959e-02 3.84872220e-02 0.00000000e+00 
6.46155030e-02 3.94803248e-02 0.00000000e+00 

        </DataArray>
      </Points>
      <Cells>
        <DataArray type="Int32" Name="connectivity" format="ascii">
0 1
1 2
2 3

        </DataArray>
        <DataArray type="Int32" Name="offsets" format="ascii">
2 4 6 
        </DataArray>
        <DataArray type="UInt8" Name="types" format="ascii">
3 3 3 
        </DataArray>
      </Cells>
      <PointData>
        <DataArray type="Float64" Name="rho">
          1.17417186e+00 1.16314229e+00 1.15299715e+00 1.14359580e+00 
        </DataArray>
        <DataArray type="Float64" Name="rhou">
          4.83993691e-04 8.95528515e-03 1.57387415e-02 2.08225149e-02 
        </DataArray>
        <DataArray type="Float64" Name="rhov">
          3.35561093e-02 3.37447902e-02 3.32279621e-02 3.12545358e-02 
        </DataArray>
        <DataArray type="Float64" Name="E">
          2.74631251e+05 2.71924168e+05 2.69436680e+05 2.67134025e+05 
        </DataArray>
      </PointData>
    </Piece>
    <Piece NumberOfPoints="4" NumberOfCells="3">
      <Points>
        <DataArray type="Float64" NumberOfComponents="3" format="ascii">
          6.46155030e-02 3.94803248e-02 0.00000000e+00 
6.85004294e-02 4.04294394e-02 0.00000000e+00 
7.23951608e-02 4.13374715e-02 0.00000000e+00 
7.62986317e-02 4.22072113e-02 0.00000000e+00 

        </DataArray>
      </Points>
      <Cells>
        <DataArray type="Int32" Name="connectivity" format="ascii">
0 1
1 2
2 3

        </DataArray>
        <DataArray type="Int32" Name="offsets" format="ascii">
2 4 6 
        </DataArray>
        <DataArray type="UInt8" Name="types" format="ascii">
3 3 3 
        </DataArray>
      </Cells>
      <PointData>
        <DataArray type="Float64" Name="rho">
          1.14359665e+00 1.13488734e+00 1.12679684e+00 1.11926636e+00 
        </DataArray>
        <DataArray type="Float64" Name="rhou">
          2.06779424e-02 2.37897612e-02 2.58393793e-02 2.68249853e-02 
        </DataArray>
        <DataArray type="Float64" Name="rhov">
          3.09558762e-02 2.78528375e-02 2.51615820e-02 2.24149484e-02 
        </DataArray>
        <DataArray type="Float64" Name="E">
          2.67134207e+05 2.65003774e+05 2.63026736e+05 2.61188197e+05 
        </DataArray>
      </PointData>
    </Piece>
    <Piece NumberOfPoints="4" NumberOfCells="3">
      <Points>
        <DataArray type="Float64" NumberOfComponents="3" format="ascii">
          7.62986317e-02 4.22072113e-02 0.00000000e+00 
8.02098960e-02 4.30411920e-02 0.00000000e+00 
8.41281936e-02 4.38414887e-02 0.00000000e+00 
8.80528912e-02 4.46097627e-02 0.00000000e+00 

        </DataArray>
      </Points>
      <Cells>
        <DataArray type="Int32" Name="connectivity" format="ascii">
0 1
1 2
2 3

        </DataArray>
        <DataArray type="Int32" Name="offsets" format="ascii">
2 4 6 
        </DataArray>
        <DataArray type="UInt8" Name="types" format="ascii">
3 3 3 
        </DataArray>
      </Cells>
      <PointData>
        <DataArray type="Float64" Name="rho">
          1.11926563e+00 1.11224285e+00 1.10564752e+00 1.09943056e+00 
        </DataArray>
        <DataArray type="Float64" Name="rhou">
          2.67247408e-02 2.74961389e-02 2.79344387e-02 2.74507717e-02 
        </DataArray>
        <DataArray type="Float64" Name="rhov">
          2.22541550e-02 1.99796102e-02 1.76893238e-02 1.51314545e-02 
        </DataArray>
        <DataArray type="Float64" Name="E">
          2.61188004e+05 2.59475393e+05 2.57868829e+05 2.56356233e+05 
        </DataArray>
      </PointData>
    </Piece>
    <Piece NumberOfPoints="4" NumberOfCells="3">
      <Points>
        <DataArray type="Float64" NumberOfComponents="3" format="ascii">
          8.80528912e-02 4.46097627e-02 0.00000000e+00 
9.19835642e-02 4.53475714e-02 0.00000000e+00 
9.59195644e-02 4.60564308e-02 0.00000000e+00 
9.98597518e-02 4.67394181e-02 0.00000000e+00 

        </DataArray>
      </Points>
      <Cells>
        <DataArray type="Int32" Name="connectivity" format="ascii">
0 1
1 2
2 3

        </DataArray>
        <DataArray type="Int32" Name="offsets" format="ascii">
2 4 6 
        </DataArray>
        <DataArray type="UInt8" Name="types" format="ascii">
3 3 3 
        </DataArray>
      </Cells>
      <PointData>
        <DataArray type="Float64" Name="rho">
          1.09943056e+00 1.09358317e+00 1.08808846e+00 1.08286310e+00 
        </DataArray>
        <DataArray type="Float64" Name="rhou">
          2.71730942e-02 2.64036759e-02 2.31139808e-02 2.84990863e-02 
        </DataArray>
        <DataArray type="Float64" Name="rhov">
          1.52966606e-02 1.26657923e-02 1.10666071e-02 1.05010656e-02 
        </DataArray>
        <DataArray type="Float64" Name="E">
          2.56356243e+05 2.54935424e+05 2.53601577e+05 2.52334777e+05 
        </DataArray>
      </PointData>
    </Piece>
    <Piece NumberOfPoints="4" NumberOfCells="3">
      <Points>
        <DataArray type="Float64" NumberOfComponents="3" format="ascii">
          9.98597518e-02 4.67394181e-02 0.00000000e+00 
1.10118888e-01 4.83862534e-02 0.00000000e+00 
1.20400399e-01 4.98730615e-02 0.00000000e+00 
1.30701363e-01 5.12186773e-02 0.00000000e+00 

        </DataArray>
      </Points>
      <Cells>
        <DataArray type="Int32" Name="connectivity" format="ascii">
0 1
1 2
2 3

        </DataArray>
        <DataArray type="Int32" Name="offsets" format="ascii">
2 4 6 
        </DataArray>
        <DataArray type="UInt8" Name="types" format="ascii">
3 3 3 
        </DataArray>
      </Cells>
      <PointData>
        <DataArray type="Float64" Name="rho">
          1.08278783e+00 1.07051086e+00 1.05975536e+00 1.05031259e+00 
        </DataArray>
        <DataArray type="Float64" Name="rhou">
          2.61782468e-02 1.83048447e-02 1.65746633e-02 1.32034635e-02 
        </DataArray>
        <DataArray type="Float64" Name="rhov">
          9.10217744e-03 5.78526781e-03 5.27664464e-03 4.44102733e-03 
        </DataArray>
        <DataArray type="Float64" Name="E">
          2.52317299e+05 2.49348700e+05 2.46756163e+05 2.44486080e+05 
        </DataArray>
      </PointData>
    </Piece>
    <Piece NumberOfPoints="4" NumberOfCells="3">
      <Points>
        <DataArray type="Float64" NumberOfComponents="3" format="ascii">
          1.30701363e-01 5.12186773e-02 0.00000000e+00 
1.41019106e-01 5.24347536e-02 0.00000000e+00 
1.51350453e-01 5.35292812e-02 0.00000000e+00 
1.61692888e-01 5.45137413e-02 0.00000000e+00 

        </DataArray>
      </Points>
      <Cells>
        <DataArray type="Int32" Name="connectivity" format="ascii">
0 1
1 2
2 3

        </DataArray>
        <DataArray type="Int32" Name="offsets" format="ascii">
2 4 6 
        </DataArray>
        <DataArray type="UInt8" Name="types" format="ascii">
3 3 3 
        </DataArray>
      </Cells>
      <PointData>
        <DataArray type="Float64" Name="rho">
          1.05030858e+00 1.04178612e+00 1.03418178e+00 1.02741421e+00 
        </DataArray>
        <DataArray type="Float64" Name="rhou">
          1.47193735e-02 1.29593143e-02 1.08906390e-02 9.61716676e-03 
        </DataArray>
        <DataArray type="Float64" Name="rhov">
          5.01264412e-03 3.77603749e-03 2.72340443e-03 2.36896241e-03 
        </DataArray>
        <DataArray type="Float64" Name="E">
          2.44485103e+05 2.42440356e+05 2.40616022e+05 2.38987821e+05 
        </DataArray>
      </PointData>
    </Piece>
    <Piece NumberOfPoints="4" NumberOfCells="3">
      <Points>
        <DataArray type="Float64" NumberOfComponents="3" format="ascii">
          1.61692888e-01 5.45137413e-02 0.00000000e+00 
1.72044471e-01 5.53969070e-02 0.00000000e+00 
1.82403773e-01 5.61845005e-02 0.00000000e+00 
1.92769483e-01 5.68825118e-02 0.00000000e+00 

        </DataArray>
      </Points>
      <Cells>
        <DataArray type="Int32" Name="connectivity" format="ascii">
0 1
1 2
2 3

        </DataArray>
        <DataArray type="Int32" Name="offsets" format="ascii">
2 4 6 
        </DataArray>
        <DataArray type="UInt8" Name="types" format="ascii">
3 3 3 
        </DataArray>
      </Cells>
      <PointData>
        <DataArray type="Float64" Name="rho">
          1.02741174e+00 1.02132244e+00 1.01585345e+00 1.01098378e+00 
        </DataArray>
        <DataArray type="Float64" Name="rhou">
          9.65567415e-03 8.49516926e-03 7.38972402e-03 6.39023346e-03 
        </DataArray>
        <DataArray type="Float64" Name="rhov">
          2.42627276e-03 1.84674879e-03 1.26547771e-03 8.82529605e-04 
        </DataArray>
        <DataArray type="Float64" Name="E">
          2.38987235e+05 2.37512911e+05 2.36174283e+05 2.34961981e+05 
        </DataArray>
      </PointData>
    </Piece>
    <Piece NumberOfPoints="4" NumberOfCells="3">
      <Points>
        <DataArray type="Float64" NumberOfComponents="3" format="ascii">
          1.92769483e-01 5.68825118e-02 0.00000000e+00 
2.03140482e-01 5.74972220e-02 0.00000000e+00 
2.13515818e-01 5.80338500e-02 0.00000000e+00 
2.23894730e-01 5.84962890e-02 0.00000000e+00 

        </DataArray>
      </Points>
      <Cells>
        <DataArray type="Int32" Name="connectivity" format="ascii">
0 1
1 2
2 3

        </DataArray>
        <DataArray type="Int32" Name="offsets" format="ascii">
2 4 6 
        </DataArray>
        <DataArray type="UInt8" Name="types" format="ascii">
3 3 3 
        </DataArray>
      </Cells>
      <PointData>
        <DataArray type="Float64" Name="rho">
          1.01098307e+00 1.00666161e+00 1.00283187e+00 9.99457679e-01 
        </DataArray>
        <DataArray type="Float64" Name="rhou">
          6.43826926e-03 5.62271195e-03 4.98537988e-03 4.45043968e-03 
        </DataArray>
        <DataArray type="Float64" Name="rhov">
          9.32000131e-04 7.28284377e-04 5.06539059e-04 2.91144525e-04 
        </DataArray>
        <DataArray type="Float64" Name="E">
          2.34961801e+05 2.33859844e+05 2.32852063e+05 2.31927959e+05 
        </DataArray>
      </PointData>
    </Piece>
    <Piece NumberOfPoints="4" NumberOfCells="3">
      <Points>
        <DataArray type="Float64" NumberOfComponents="3" format="ascii">
          2.23894730e-01 5.84962890e-02 0.00000000e+00 
2.34276548e-01 5.88882305e-02 0.00000000e+00 
2.44660646e-01 5.92139624e-02 0.00000000e+00 
2.55046517e-01 5.94772622e-02 0.00000000e+00 

        </DataArray>
      </Points>
      <Cells>
        <DataArray type="Int32" Name="connectivity" format="ascii">
0 1
1 2
2 3

        </DataArray>
        <DataArray type="Int32" Name="offsets" format="ascii">
2 4 6 
        </DataArray>
        <DataArray type="UInt8" Name="types" format="ascii">
3 3 3 
        </DataArray>
      </Cells>
      <PointData>
        <DataArray type="Float64" Name="rho">
          9.99458378e-01 9.96515959e-01 9.93975207e-01 9.91790333e-01 
        </DataArray>
        <DataArray type="Float64" Name="rhou">
          4.45940490e-03 3.84670508e-03 3.39699514e-03 3.12886189e-03 
        </DataArray>
        <DataArray type="Float64" Name="rhov">
          3.06603991e-04 1.65449660e-04 1.06083936e-04 7.14287172e-05 
        </DataArray>
        <DataArray type="Float64" Name="E">
          2.31928124e+05 2.31081082e+05 2.30304152e+05 2.29587692e+05 
        </DataArray>
      </PointData>
    </Piece>
    <Piece NumberOfPoints="4" NumberOfCells="3">
      <Points>
        <DataArray type="Float64" NumberOfComponents="3" format="ascii">
          2.55046517e-01 5.94772622e-02 0.00000000e+00 
2.65433758e-01 5.96804135e-02 0.00000000e+00 
2.75821954e-01 5.98256700e-02 0.00000000e+00 
2.86210775e-01 5.99167012e-02 0.00000000e+00 

        </DataArray>
      </Points>
      <Cells>
        <DataArray type="Int32" Name="connectivity" format="ascii">
0 1
1 2
2 3

        </DataArray>
        <DataArray type="Int32" Name="offsets" format="ascii">
2 4 6 
        </DataArray>
        <DataArray type="UInt8" Name="types" format="ascii">
3 3 3 
        </DataArray>
      </Cells>
      <PointData>
        <DataArray type="Float64" Name="rho">
          9.91790304e-01 9.89921015e-01 9.88348317e-01 9.87057270e-01 
        </DataArray>
        <DataArray type="Float64" Name="rhou">
          3.11543520e-03 2.78402377e-03 2.42972366e-03 2.10445540e-03 
        </DataArray>
        <DataArray type="Float64" Name="rhov">
          8.43249623e-05 -5.69251174e-05 -1.46395339e-04 -1.13465548e-04 
        </DataArray>
        <DataArray type="Float64" Name="E">
          2.29587699e+05 2.28924266e+05 2.28312198e+05 2.27751190e+05 
        </DataArray>
      </PointData>
    </Piece>
    <Piece NumberOfPoints="4" NumberOfCells="3">
      <Points>
        <DataArray type="Float64" NumberOfComponents="3" format="ascii">
          2.86210775e-01 5.99167012e-02 0.00000000e+00 
2.96599895e-01 5.99572174e-02 0.00000000e+00 
3.06989133e-01 5.99487796e-02 0.00000000e+00 
3.17378193e-01 5.98919280e-02 0.00000000e+00 

        </DataArray>
      </Points>
      <Cells>
        <DataArray type="Int32" Name="connectivity" format="ascii">
0 1
1 2
2 3

        </DataArray>
        <DataArray type="Int32" Name="offsets" format="ascii">
2 4 6 
        </DataArray>
        <DataArray type="UInt8" Name="types" format="ascii">
3 3 3 
        </DataArray>
      </Cells>
      <PointData>
        <DataArray type="Float64" Name="rho">
          9.87055896e-01 9.85998159e-01 9.85126320e-01 9.84430229e-01 
        </DataArray>
        <DataArray type="Float64" Name="rhou">
          2.12632302e-03 2.00491288e-03 1.86384587e-03 1.63257140e-03 
        </DataArray>
        <DataArray type="Float64" Name="rhov">
          -9.29037509e-05 -5.63221883e-05 -1.32984743e-04 -2.41480050e-04 
        </DataArray>
        <DataArray type="Float64" Name="E">
          2.27750878e+05 2.27233197e+05 2.26751648e+05 2.26307701e+05 
        </DataArray>
      </PointData>
    </Piece>
    <Piece NumberOfPoints="4" NumberOfCells="3">
      <Points>
        <DataArray type="Float64" NumberOfComponents="3" format="ascii">
          3.17378193e-01 5.98919280e-02 0.00000000e+00 
3.27766895e-01 5.97884916e-02 0.00000000e+00 
3.38155061e-01 5.96415885e-02 0.00000000e+00 
3.48542601e-01 5.94538599e-02 0.00000000e+00 

        </DataArray>
      </Points>
      <Cells>
        <DataArray type="Int32" Name="connectivity" format="ascii">
0 1
1 2
2 3

        </DataArray>
        <DataArray type="Int32" Name="offsets" format="ascii">
2 4 6 
        </DataArray>
        <DataArray type="UInt8" Name="types" format="ascii">
3 3 3 
        </DataArray>
      </Cells>
      <PointData>
        <DataArray type="Float64" Name="rho">
          9.84430718e-01 9.83903382e-01 9.83529488e-01 9.83276714e-01 
        </DataArray>
        <DataArray type="Float64" Name="rhou">
          1.67537812e-03 1.41915662e-03 1.26937522e-03 1.21041151e-03 
        </DataArray>
        <DataArray type="Float64" Name="rhov">
          -2.32570165e-04 -2.41919266e-04 -1.91159206e-04 -1.44736801e-04 
        </DataArray>
        <DataArray type="Float64" Name="E">
          2.26307819e+05 2.25903594e+05 2.25538988e+05 2.25209692e+05 
        </DataArray>
      </PointData>
    </Piece>
    <Piece NumberOfPoints="4" NumberOfCells="3">
      <Points>
        <DataArray type="Float64" NumberOfComponents="3" format="ascii">
          3.48542601e-01 5.94538599e-02 0.00000000e+00 
3.58929336e-01 5.92265576e-02 0.00000000e+00 
3.69315147e-01 5.89610897e-02 0.00000000e+00 
3.79699975e-01 5.86590059e-02 0.00000000e+00 

        </DataArray>
      </Points>
      <Cells>
        <DataArray type="Int32" Name="connectivity" format="ascii">
0 1
1 2
2 3

        </DataArray>
        <DataArray type="Int32" Name="offsets" format="ascii">
2 4 6 
        </DataArray>
        <DataArray type="UInt8" Name="types" format="ascii">
3 3 3 
        </DataArray>
      </Cells>
      <PointData>
        <DataArray type="Float64" Name="rho">
          9.83277097e-01 9.83121777e-01 9.83062422e-01 9.83081605e-01 
        </DataArray>
        <DataArray type="Float64" Name="rhou">
          1.23526216e-03 1.05250243e-03 9.11292999e-04 8.27808012e-04 
        </DataArray>
        <DataArray type="Float64" Name="rhov">
          -1.51265223e-04 -1.85382685e-04 -1.67171369e-04 -1.36811019e-04 
        </DataArray>
        <DataArray type="Float64" Name="E">
          2.25209782e+05 2.24913168e+05 2.24651247e+05 2.24421940e+05 
        </DataArray>
      </PointData>
    </Piece>
    <Piece NumberOfPoints="4" NumberOfCells="3">
      <Points>
        <DataArray type="Float64" NumberOfComponents="3" format="ascii">
          3.79699975e-01 5.86590059e-02 0.00000000e+00 
3.90083700e-01 5.83211333e-02 0.00000000e+00 
4.00466233e-01 5.79482466e-02 0.00000000e+00 
4.10847515e-01 5.75418957e-02 0.00000000e+00 

        </DataArray>
      </Points>
      <Cells>
        <DataArray type="Int32" Name="connectivity" format="ascii">
0 1
1 2
2 3

        </DataArray>
        <DataArray type="Int32" Name="offsets" format="ascii">
2 4 6 
        </DataArray>
        <DataArray type="UInt8" Name="types" format="ascii">
3 3 3 
        </DataArray>
      </Cells>
      <PointData>
        <DataArray type="Float64" Name="rho">
          9.83081642e-01 9.83166208e-01 9.83312894e-01 9.83521434e-01 
        </DataArray>
        <DataArray type="Float64" Name="rhou">
          8.19253870e-04 7.03754361e-04 5.59691155e-04 4.04886892e-04 
        </DataArray>
        <DataArray type="Float64" Name="rhov">
          -1.34786080e-04 -1.43895890e-04 -1.30376977e-04 -6.11758653e-05 
        </DataArray>
        <DataArray type="Float64" Name="E">
          2.24421948e+05 2.24223706e+05 2.24056734e+05 2.23921444e+05 
        </DataArray>
      </PointData>
    </Piece>
    <Piece NumberOfPoints="4" NumberOfCells="3">
      <Points>
        <DataArray type="Float64" NumberOfComponents="3" format="ascii">
          4.10847515e-01 5.75418957e-02 0.00000000e+00 
4.21227485e-01 5.71038015e-02 0.00000000e+00 
4.31606144e-01 5.66351078e-02 0.00000000e+00 
4.41983402e-01 5.61364293e-02 0.00000000e+00 

        </DataArray>
      </Points>
      <Cells>
        <DataArray type="Int32" Name="connectivity" format="ascii">
0 1
1 2
2 3

        </DataArray>
        <DataArray type="Int32" Name="offsets" format="ascii">
2 4 6 
        </DataArray>
        <DataArray type="UInt8" Name="types" format="ascii">
3 3 3 
        </DataArray>
      </Cells>
      <PointData>
        <DataArray type="Float64" Name="rho">
          9.83521133e-01 9.83776500e-01 9.84068654e-01 9.84388143e-01 
        </DataArray>
        <DataArray type="Float64" Name="rhou">
          4.39776960e-04 3.30915395e-04 2.48265239e-04 1.59194703e-04 
        </DataArray>
        <DataArray type="Float64" Name="rhov">
          -5.81886596e-05 1.34327109e-05 7.32070384e-05 1.12991816e-04 
        </DataArray>
        <DataArray type="Float64" Name="E">
          2.23921370e+05 2.23814332e+05 2.23732816e+05 2.23673887e+05 
        </DataArray>
      </PointData>
    </Piece>
    <Piece NumberOfPoints="4" NumberOfCells="3">
      <Points>
        <DataArray type="Float64" NumberOfComponents="3" format="ascii">
          4.41983402e-01 5.61364293e-02 0.00000000e+00 
4.52359200e-01 5.56085743e-02 0.00000000e+00 
4.62733537e-01 5.50529286e-02 0.00000000e+00 
4.73106444e-01 5.44707514e-02 0.00000000e+00 

        </DataArray>
      </Points>
      <Cells>
        <DataArray type="Int32" Name="connectivity" format="ascii">
0 1
1 2
2 3

        </DataArray>
        <DataArray type="Int32" Name="offsets" format="ascii">
2 4 6 
        </DataArray>
        <DataArray type="UInt8" Name="types" format="ascii">
3 3 3 
        </DataArray>
      </Cells>
      <PointData>
        <DataArray type="Float64" Name="rho">
          9.84388482e-01 9.84734898e-01 9.85103420e-01 9.85482458e-01 
        </DataArray>
        <DataArray type="Float64" Name="rhou">
          1.56147372e-04 3.62725266e-05 -4.49694405e-05 -9.14505723e-05 
        </DataArray>
        <DataArray type="Float64" Name="rhov">
          1.11079579e-04 1.80026976e-04 2.71548191e-04 3.61786729e-04 
        </DataArray>
        <DataArray type="Float64" Name="E">
          2.23673960e+05 2.23636428e+05 2.23617831e+05 2.23614003e+05 
        </DataArray>
      </PointData>
    </Piece>
    <Piece NumberOfPoints="4" NumberOfCells="3">
      <Points>
        <DataArray type="Float64" NumberOfComponents="3" format="ascii">
          4.73106444e-01 5.44707514e-02 0.00000000e+00 
4.83477861e-01 5.38627952e-02 0.00000000e+00 
4.93847787e-01 5.32294959e-02 0.00000000e+00 
5.04216135e-01 5.25716618e-02 0.00000000e+00 

        </DataArray>
      </Points>
      <Cells>
        <DataArray type="Int32" Name="connectivity" format="ascii">
0 1
1 2
2 3

        </DataArray>
        <DataArray type="Int32" Name="offsets" format="ascii">
2 4 6 
        </DataArray>
        <DataArray type="UInt8" Name="types" format="ascii">
3 3 3 
        </DataArray>
      </Cells>
      <PointData>
        <DataArray type="Float64" Name="rho">
          9.85482441e-01 9.85863259e-01 9.86239199e-01 9.86611501e-01 
        </DataArray>
        <DataArray type="Float64" Name="rhou">
          -1.08473638e-04 -1.35388145e-04 -1.93563742e-04 -2.66624607e-04 
        </DataArray>
        <DataArray type="Float64" Name="rhov">
          3.63945526e-04 4.21241346e-04 4.68277844e-04 5.39411846e-04 
        </DataArray>
        <DataArray type="Float64" Name="E">
          2.23613996e+05 2.23621319e+05 2.23636659e+05 2.23658686e+05 
        </DataArray>
      </PointData>
    </Piece>
    <Piece NumberOfPoints="4" NumberOfCells="3">
      <Points>
        <DataArray type="Float64" NumberOfComponents="3" format="ascii">
          5.04216135e-01 5.25716618e-02 0.00000000e+00 
5.14582992e-01 5.18903993e-02 0.00000000e+00 
5.24948359e-01 5.11864908e-02 0.00000000e+00 
5.35312176e-01 5.04603274e-02 0.00000000e+00 

        </DataArray>
      </Points>
      <Cells>
        <DataArray type="Int32" Name="connectivity" format="ascii">
0 1
1 2
2 3

        </DataArray>
        <DataArray type="Int32" Name="offsets" format="ascii">
2 4 6 
        </DataArray>
        <DataArray type="UInt8" Name="types" format="ascii">
3 3 3 
        </DataArray>
      </Cells>
      <PointData>
        <DataArray type="Float64" Name="rho">
          9.86611320e-01 9.86971660e-01 9.87312459e-01 9.87627917e-01 
        </DataArray>
        <DataArray type="Float64" Name="rhou">
          -2.46851833e-04 -2.63439228e-04 -2.62746013e-04 -2.61694256e-04 
        </DataArray>
        <DataArray type="Float64" Name="rhov">
          5.42655943e-04 6.11981796e-04 6.62131038e-04 6.87119377e-04 
        </DataArray>
        <DataArray type="Float64" Name="E">
          2.23658643e+05 2.23683917e+05 2.23709334e+05 2.23732340e+05 
        </DataArray>
      </PointData>
    </Piece>
    <Piece NumberOfPoints="4" NumberOfCells="3">
      <Points>
        <DataArray type="Float64" NumberOfComponents="3" format="ascii">
          5.35312176e-01 5.04603274e-02 0.00000000e+00 
5.45674443e-01 4.97124642e-02 0.00000000e+00 
5.56035221e-01 4.89437394e-02 0.00000000e+00 
5.66394389e-01 4.81546782e-02 0.00000000e+00 

        </DataArray>
      </Points>
      <Cells>
        <DataArray type="Int32" Name="connectivity" format="ascii">
0 1
1 2
2 3

        </DataArray>
        <DataArray type="Int32" Name="offsets" format="ascii">
2 4 6 
        </DataArray>
        <DataArray type="UInt8" Name="types" format="ascii">
3 3 3 
        </DataArray>
      </Cells>
      <PointData>
        <DataArray type="Float64" Name="rho">
          9.87628054e-01 9.87919445e-01 9.88181972e-01 9.88409767e-01 
        </DataArray>
        <DataArray type="Float64" Name="rhou">
          -2.75262088e-04 -2.80912452e-04 -2.63838833e-04 -2.25904097e-04 
        </DataArray>
        <DataArray type="Float64" Name="rhov">
          6.86025676e-04 7.29940227e-04 7.71390897e-04 7.96035101e-04 
        </DataArray>
        <DataArray type="Float64" Name="E">
          2.23732372e+05 2.23752165e+05 2.23766761e+05 2.23774096e+05 
        </DataArray>
      </PointData>
    </Piece>
    <Piece NumberOfPoints="4" NumberOfCells="3">
      <Points>
        <DataArray type="Float64" NumberOfComponents="3" format="ascii">
          5.66394389e-01 4.81546782e-02 0.00000000e+00 
5.76752067e-01 4.73455116e-02 0.00000000e+00 
5.87108195e-01 4.65166979e-02 0.00000000e+00 
5.97462773e-01 4.56690118e-02 0.00000000e+00 

        </DataArray>
      </Points>
      <Cells>
        <DataArray type="Int32" Name="connectivity" format="ascii">
0 1
1 2
2 3

        </DataArray>
        <DataArray type="Int32" Name="offsets" format="ascii">
2 4 6 
        </DataArray>
        <DataArray type="UInt8" Name="types" format="ascii">
3 3 3 
        </DataArray>
      </Cells>
      <PointData>
        <DataArray type="Float64" Name="rho">
          9.88409879e-01 9.88600539e-01 9.88756152e-01 9.88875812e-01 
        </DataArray>
        <DataArray type="Float64" Name="rhou">
          -2.28948299e-04 -2.17644248e-04 -2.12440010e-04 -1.92891808e-04 
        </DataArray>
        <DataArray type="Float64" Name="rhov">
          7.95682674e-04 7.92912473e-04 8.06688266e-04 8.33942035e-04 
        </DataArray>
        <DataArray type="Float64" Name="E">
          2.23774123e+05 2.23773074e+05 2.23763697e+05 2.23745478e+05 
        </DataArray>
      </PointData>
    </Piece>
    <Piece NumberOfPoints="4" NumberOfCells="3">
      <Points>
        <DataArray type="Float64" NumberOfComponents="3" format="ascii">
          5.97462773e-01 4.56690118e-02 0.00000000e+00 
6.07815862e-01 4.48031016e-02 0.00000000e+00 
6.18167400e-01 4.39192392e-02 0.00000000e+00 
6.28517449e-01 4.30175588e-02 0.00000000e+00 

        </DataArray>
      </Points>
      <Cells>
        <DataArray type="Int32" Name="connectivity" format="ascii">
0 1
1 2
2 3

        </DataArray>
        <DataArray type="Int32" Name="offsets" format="ascii">
2 4 6 
        </DataArray>
        <DataArray type="UInt8" Name="types" format="ascii">
3 3 3 
        </DataArray>
      </Cells>
      <PointData>
        <DataArray type="Float64" Name="rho">
          9.88875597e-01 9.88955447e-01 9.88991539e-01 9.88986420e-01 
        </DataArray>
        <DataArray type="Float64" Name="rhou">
          -2.01964555e-04 -1.56517920e-04 -1.35417738e-04 -1.45136679e-04 
        </DataArray>
        <DataArray type="Float64" Name="rhov">
          8.35308034e-04 8.48564736e-04 8.38078133e-04 8.24205160e-04 
        </DataArray>
        <DataArray type="Float64" Name="E">
          2.23745430e+05 2.23717292e+05 2.23678270e+05 2.23628950e+05 
        </DataArray>
      </PointData>
    </Piece>
    <Piece NumberOfPoints="4" NumberOfCells="3">
      <Points>
        <DataArray type="Float64" NumberOfComponents="3" format="ascii">
          6.28517449e-01 4.30175588e-02 0.00000000e+00 
6.38865948e-01 4.20984775e-02 0.00000000e+00 
6.49212897e-01 4.11624312e-02 0.00000000e+00 
6.59558356e-01 4.02097441e-02 0.00000000e+00 

        </DataArray>
      </Points>
      <Cells>
        <DataArray type="Int32" Name="connectivity" format="ascii">
0 1
1 2
2 3

        </DataArray>
        <DataArray type="Int32" Name="offsets" format="ascii">
2 4 6 
        </DataArray>
        <DataArray type="UInt8" Name="types" format="ascii">
3 3 3 
        </DataArray>
      </Cells>
      <PointData>
        <DataArray type="Float64" Name="rho">
          9.88986429e-01 9.88942629e-01 9.88859753e-01 9.88739024e-01 
        </DataArray>
        <DataArray type="Float64" Name="rhou">
          -1.44697649e-04 -1.43277977e-04 -1.47177586e-04 -1.65391290e-04 
        </DataArray>
        <DataArray type="Float64" Name="rhov">
          8.25760586e-04 8.24409709e-04 8.14663290e-04 7.98301969e-04 
        </DataArray>
        <DataArray type="Float64" Name="E">
          2.23628951e+05 2.23569978e+05 2.23501422e+05 2.23423781e+05 
        </DataArray>
      </PointData>
    </Piece>
    <Piece NumberOfPoints="4" NumberOfCells="3">
      <Points>
        <DataArray type="Float64" NumberOfComponents="3" format="ascii">
          6.59558356e-01 4.02097441e-02 0.00000000e+00 
6.69902325e-01 3.92407738e-02 0.00000000e+00 
6.80244744e-01 3.82556282e-02 0.00000000e+00 
6.90585554e-01 3.72543521e-02 0.00000000e+00 

        </DataArray>
      </Points>
      <Cells>
        <DataArray type="Int32" Name="connectivity" format="ascii">
0 1
1 2
2 3

        </DataArray>
        <DataArray type="Int32" Name="offsets" format="ascii">
2 4 6 
        </DataArray>
        <DataArray type="UInt8" Name="types" format="ascii">
3 3 3 
        </DataArray>
      </Cells>
      <PointData>
        <DataArray type="Float64" Name="rho">
          9.88738965e-01 9.88584612e-01 9.88395897e-01 9.88181629e-01 
        </DataArray>
        <DataArray type="Float64" Name="rhou">
          -1.85693865e-04 -1.80019699e-04 -2.11113327e-04 -2.84481214e-04 
        </DataArray>
        <DataArray type="Float64" Name="rhov">
          8.00979267e-04 7.85457016e-04 7.40823434e-04 6.94224458e-04 
        </DataArray>
        <DataArray type="Float64" Name="E">
          2.23423767e+05 2.23338273e+05 2.23245143e+05 2.23146821e+05 
        </DataArray>
      </PointData>
    </Piece>
    <Piece NumberOfPoints="4" NumberOfCells="3">
      <Points>
        <DataArray type="Float64" NumberOfComponents="3" format="ascii">
          6.90585554e-01 3.72543521e-02 0.00000000e+00 
7.00924933e-01 3.62373814e-02 0.00000000e+00 
7.11262703e-01 3.52048986e-02 0.00000000e+00 
7.21598923e-01 3.41568366e-02 0.00000000e+00 

        </DataArray>
      </Points>
      <Cells>
        <DataArray type="Int32" Name="connectivity" format="ascii">
0 1
1 2
2 3

        </DataArray>
        <DataArray type="Int32" Name="offsets" format="ascii">
2 4 6 
        </DataArray>
        <DataArray type="UInt8" Name="types" format="ascii">
3 3 3 
        </DataArray>
      </Cells>
      <PointData>
        <DataArray type="Float64" Name="rho">
          9.88181430e-01 9.87951330e-01 9.87706917e-01 9.87460980e-01 
        </DataArray>
        <DataArray type="Float64" Name="rhou">
          -3.00079861e-04 -3.30401972e-04 -3.88263512e-04 -5.15043754e-04 
        </DataArray>
        <DataArray type="Float64" Name="rhov">
          6.97927380e-04 6.78758922e-04 6.24417313e-04 5.63294133e-04 
        </DataArray>
        <DataArray type="Float64" Name="E">
          2.23146775e+05 2.23045978e+05 2.22943700e+05 2.22843585e+05 
        </DataArray>
      </PointData>
    </Piece>
    <Piece NumberOfPoints="4" NumberOfCells="3">
      <Points>
        <DataArray type="Float64" NumberOfComponents="3" format="ascii">
          7.21598923e-01 3.41568366e-02 0.00000000e+00 
7.31933594e-01 3.30936089e-02 0.00000000e+00 
7.42266715e-01 3.20154354e-02 0.00000000e+00 
7.52598286e-01 3.09220124e-02 0.00000000e+00 

        </DataArray>
      </Points>
      <Cells>
        <DataArray type="Int32" Name="connectivity" format="ascii">
0 1
1 2
2 3

        </DataArray>
        <DataArray type="Int32" Name="offsets" format="ascii">
2 4 6 
        </DataArray>
        <DataArray type="UInt8" Name="types" format="ascii">
3 3 3 
        </DataArray>
      </Cells>
      <PointData>
        <DataArray type="Float64" Name="rho">
          9.87460882e-01 9.87231303e-01 9.87022092e-01 9.86848702e-01 
        </DataArray>
        <DataArray type="Float64" Name="rhou">
          -5.37314478e-04 -6.28732896e-04 -7.48543509e-04 -9.57717364e-04 
        </DataArray>
        <DataArray type="Float64" Name="rhov">
          5.66870199e-04 5.71190721e-04 5.47693151e-04 5.25020169e-04 
        </DataArray>
        <DataArray type="Float64" Name="E">
          2.22843564e+05 2.22750472e+05 2.22666210e+05 2.22595209e+05 
        </DataArray>
      </PointData>
    </Piece>
    <Piece NumberOfPoints="4" NumberOfCells="3">
      <Points>
        <DataArray type="Float64" NumberOfComponents="3" format="ascii">
          7.52598286e-01 3.09220124e-02 0.00000000e+00 
7.62928188e-01 2.98135038e-02 0.00000000e+00 
7.73256481e-01 2.86899786e-02 0.00000000e+00 
7.83583105e-01 2.75512449e-02 0.00000000e+00 

        </DataArray>
      </Points>
      <Cells>
        <DataArray type="Int32" Name="connectivity" format="ascii">
0 1
1 2
2 3

        </DataArray>
        <DataArray type="Int32" Name="offsets" format="ascii">
2 4 6 
        </DataArray>
        <DataArray type="UInt8" Name="types" format="ascii">
3 3 3 
        </DataArray>
      </Cells>
      <PointData>
        <DataArray type="Float64" Name="rho">
          9.86848720e-01 9.86732361e-01 9.86679537e-01 9.86704244e-01 
        </DataArray>
        <DataArray type="Float64" Name="rhou">
          -9.75405021e-04 -1.16853076e-03 -1.38189535e-03 -1.66063322e-03 
        </DataArray>
        <DataArray type="Float64" Name="rhov">
          5.27574858e-04 5.86295268e-04 6.39215465e-04 7.12523421e-04 
        </DataArray>
        <DataArray type="Float64" Name="E">
          2.22595216e+05 2.22543142e+05 2.22512200e+05 2.22506073e+05 
        </DataArray>
      </PointData>
    </Piece>
    <Piece NumberOfPoints="4" NumberOfCells="3">
      <Points>
        <DataArray type="Float64" NumberOfComponents="3" format="ascii">
          7.83583105e-01 2.75512449e-02 0.00000000e+00 
7.93908060e-01 2.63975188e-02 0.00000000e+00 
8.04231405e-01 2.52291560e-02 0.00000000e+00 
8.14553022e-01 2.40457114e-02 0.00000000e+00 

        </DataArray>
      </Points>
      <Cells>
        <DataArray type="Int32" Name="connectivity" format="ascii">
0 1
1 2
2 3

        </DataArray>
        <DataArray type="Int32" Name="offsets" format="ascii">
2 4 6 
        </DataArray>
        <DataArray type="UInt8" Name="types" format="ascii">
3 3 3 
        </DataArray>
      </Cells>
      <PointData>
        <DataArray type="Float64" Name="rho">
          9.86704393e-01 9.86820737e-01 9.87031857e-01 9.87334281e-01 
        </DataArray>
        <DataArray type="Float64" Name="rhou">
          -1.63959801e-03 -1.89910241e-03 -2.03325181e-03 -2.09685182e-03 
        </DataArray>
        <DataArray type="Float64" Name="rhov">
          7.05604816e-04 8.54639820e-04 9.78253496e-04 1.02111840e-03 
        </DataArray>
        <DataArray type="Float64" Name="E">
          2.22506104e+05 2.22528191e+05 2.22579075e+05 2.22657513e+05 
        </DataArray>
      </PointData>
    </Piece>
    <Piece NumberOfPoints="4" NumberOfCells="3">
      <Points>
        <DataArray type="Float64" NumberOfComponents="3" format="ascii">
          8.14553022e-01 2.40457114e-02 0.00000000e+00 
8.24872792e-01 2.28467938e-02 0.00000000e+00 
8.35190892e-01 2.16327831e-02 0.00000000e+00 
8.45507145e-01 2.04038676e-02 0.00000000e+00 

        </DataArray>
      </Points>
      <Cells>
        <DataArray type="Int32" Name="connectivity" format="ascii">
0 1
1 2
2 3

        </DataArray>
        <DataArray type="Int32" Name="offsets" format="ascii">
2 4 6 
        </DataArray>
        <DataArray type="UInt8" Name="types" format="ascii">
3 3 3 
        </DataArray>
      </Cells>
      <PointData>
        <DataArray type="Float64" Name="rho">
          9.87334704e-01 9.87744853e-01 9.88265214e-01 9.88901636e-01 
        </DataArray>
        <DataArray type="Float64" Name="rhou">
          -2.16140995e-03 -2.15811017e-03 -2.02990716e-03 -1.66922314e-03 
        </DataArray>
        <DataArray type="Float64" Name="rhov">
          1.02044014e-03 1.08108990e-03 1.10999947e-03 1.09535493e-03 
        </DataArray>
        <DataArray type="Float64" Name="E">
          2.22657598e+05 2.22766539e+05 2.22905667e+05 2.23075430e+05 
        </DataArray>
      </PointData>
    </Piece>
    <Piece NumberOfPoints="4" NumberOfCells="3">
      <Points>
        <DataArray type="Float64" NumberOfComponents="3" format="ascii">
          8.45507145e-01 2.04038676e-02 0.00000000e+00 
8.55821550e-01 1.91591792e-02 0.00000000e+00 
8.66134048e-01 1.78987328e-02 0.00000000e+00 
8.76444638e-01 1.66228991e-02 0.00000000e+00 

        </DataArray>
      </Points>
      <Cells>
        <DataArray type="Int32" Name="connectivity" format="ascii">
0 1
1 2
2 3

        </DataArray>
        <DataArray type="Int32" Name="offsets" format="ascii">
2 4 6 
        </DataArray>
        <DataArray type="UInt8" Name="types" format="ascii">
3 3 3 
        </DataArray>
      </Cells>
      <PointData>
        <DataArray type="Float64" Name="rho">
          9.88902776e-01 9.89648356e-01 9.90553193e-01 9.91606641e-01 
        </DataArray>
        <DataArray type="Float64" Name="rhou">
          -1.48188330e-03 -1.27100328e-03 -6.83923381e-04 1.58399091e-04 
        </DataArray>
        <DataArray type="Float64" Name="rhov">
          1.07510810e-03 8.43944948e-04 6.92019679e-04 3.24862501e-04 
        </DataArray>
        <DataArray type="Float64" Name="E">
          2.23075674e+05 2.23273863e+05 2.23511597e+05 2.23786899e+05 
        </DataArray>
      </PointData>
    </Piece>
    <Piece NumberOfPoints="4" NumberOfCells="3">
      <Points>
        <DataArray type="Float64" NumberOfComponents="3" format="ascii">
          8.76444638e-01 1.66228991e-02 0.00000000e+00 
8.86753201e-01 1.53310820e-02 0.00000000e+00 
8.97059798e-01 1.40233757e-02 0.00000000e+00 
9.07364249e-01 1.26988320e-02 0.00000000e+00 

        </DataArray>
      </Points>
      <Cells>
        <DataArray type="Int32" Name="connectivity" format="ascii">
0 1
1 2
2 3

        </DataArray>
        <DataArray type="Int32" Name="offsets" format="ascii">
2 4 6 
        </DataArray>
        <DataArray type="UInt8" Name="types" format="ascii">
3 3 3 
        </DataArray>
      </Cells>
      <PointData>
        <DataArray type="Float64" Name="rho">
          9.91603253e-01 9.92881232e-01 9.94356126e-01 9.96184713e-01 
        </DataArray>
        <DataArray type="Float64" Name="rhou">
          -5.54224643e-04 8.26619968e-04 1.07403865e-03 1.36219521e-03 
        </DataArray>
        <DataArray type="Float64" Name="rhov">
          3.64178548e-04 1.93948581e-04 -1.27011821e-04 5.64044612e-04 
        </DataArray>
        <DataArray type="Float64" Name="E">
          2.23786140e+05 2.24117187e+05 2.24499510e+05 2.24970779e+05 
        </DataArray>
      </PointData>
    </Piece>
    <Piece NumberOfPoints="4" NumberOfCells="3">
      <Points>
        <DataArray type="Float64" NumberOfComponents="3" format="ascii">
          9.07364249e-01 1.26988320e-02 0.00000000e+00 
9.17666554e-01 1.13577880e-02 0.00000000e+00 
9.27966774e-01 1.00004105e-02 0.00000000e+00 
9.38264549e-01 8.62528384e-03 0.00000000e+00 

        </DataArray>
      </Points>
      <Cells>
        <DataArray type="Int32" Name="connectivity" format="ascii">
0 1
1 2
2 3

        </DataArray>
        <DataArray type="Int32" Name="offsets" format="ascii">
2 4 6 
        </DataArray>
        <DataArray type="UInt8" Name="types" format="ascii">
3 3 3 
        </DataArray>
      </Cells>
      <PointData>
        <DataArray type="Float64" Name="rho">
          9.96219732e-01 9.98150662e-01 1.00068083e+00 1.00267555e+00 
        </DataArray>
        <DataArray type="Float64" Name="rhou">
          6.95062266e-03 4.29050160e-05 4.28017723e-03 4.99450059e-03 
        </DataArray>
        <DataArray type="Float64" Name="rhov">
          2.69108775e-04 -1.70823599e-04 1.10446976e-03 -7.88451277e-03 
        </DataArray>
        <DataArray type="Float64" Name="E">
          2.24978672e+05 2.25484794e+05 2.26140190e+05 2.26691171e+05 
        </DataArray>
      </PointData>
    </Piece>
    <Piece NumberOfPoints="4" NumberOfCells="3">
      <Points>
        <DataArray type="Float64" NumberOfComponents="3" format="ascii">
          9.38264549e-01 8.62528384e-03 0.00000000e+00 
9.48560059e-01 7.23283459e-03 0.00000000e+00 
9.58853185e-01 5.82307298e-03 0.00000000e+00 
9.69143867e-01 4.39538015e-03 0.00000000e+00 

        </DataArray>
      </Points>
      <Cells>
        <DataArray type="Int32" Name="connectivity" format="ascii">
0 1
1 2
2 3

        </DataArray>
        <DataArray type="Int32" Name="offsets" format="ascii">
2 4 6 
        </DataArray>
        <DataArray type="UInt8" Name="types" format="ascii">
3 3 3 
        </DataArray>
      </Cells>
      <PointData>
        <DataArray type="Float64" Name="rho">
          1.00234989e+00 1.00680212e+00 1.00889197e+00 1.02023526e+00 
        </DataArray>
        <DataArray type="Float64" Name="rhou">
          -4.45641507e-02 1.67993662e-02 -2.02687974e-02 -9.90702394e-02 
        </DataArray>
        <DataArray type="Float64" Name="rhov">
          -7.19705400e-03 4.24557806e-03 -7.40553784e-03 1.16344664e-01 
        </DataArray>
        <DataArray type="Float64" Name="E">
          2.26617595e+05 2.27741444e+05 2.28353606e+05 2.31083948e+05 
        </DataArray>
      </PointData>
    </Piece>
    <Piece NumberOfPoints="4" NumberOfCells="3">
      <Points>
        <DataArray type="Float64" NumberOfComponents="3" format="ascii">
          9.69143867e-01 4.39538015e-03 0.00000000e+00 
9.79435980e-01 2.94816052e-03 0.00000000e+00 
9.89725590e-01 1.48259092e-03 0.00000000e+00 
1.00000000e+00 0.00000000e+00 0.00000000e+00 

        </DataArray>
      </Points>
      <Cells>
        <DataArray type="Int32" Name="connectivity" format="ascii">
0 1
1 2
2 3

        </DataArray>
        <DataArray type="Int32" Name="offsets" format="ascii">
2 4 6 
        </DataArray>
        <DataArray type="UInt8" Name="types" format="ascii">
3 3 3 
        </DataArray>
      </Cells>
      <PointData>
        <DataArray type="Float64" Name="rho">
          1.02228508e+00 1.01452866e+00 1.03364467e+00 9.73444486e-01 
        </DataArray>
        <DataArray type="Float64" Name="rhou">
          2.23095549e-02 -6.01672284e-02 -1.90057667e-01 3.00572307e+00 
        </DataArray>
        <DataArray type="Float64" Name="rhov">
          1.44795914e-01 -1.57814158e-02 2.88033033e-01 -8.80618558e-01 
        </DataArray>
        <DataArray type="Float64" Name="E">
          2.31541386e+05 2.30000429e+05 2.34615958e+05 2.21592211e+05 
        </DataArray>
      </PointData>
    </Piece>
    <Piece NumberOfPoints="4" NumberOfCells="3">
      <Points>
        <DataArray type="Float64" NumberOfComponents="3" format="ascii">
          9.69029665e-01 -4.41133138e-03 0.00000000e+00 
9.79355037e-01 -2.95961346e-03 0.00000000e+00 
9.89677846e-01 -1.48943183e-03 0.00000000e+00 
1.00000000e+00 0.00000000e+00 0.00000000e+00 

        </DataArray>
      </Points>
      <Cells>
        <DataArray type="Int32" Name="connectivity" format="ascii">
0 1
1 2
2 3

        </DataArray>
        <DataArray type="Int32" Name="offsets" format="ascii">
2 4 6 
        </DataArray>
        <DataArray type="UInt8" Name="types" format="ascii">
3 3 3 
        </DataArray>
      </Cells>
      <PointData>
        <DataArray type="Float64" Name="rho">
          1.01816150e+00 1.00972038e+00 1.02771326e+00 9.71572685e-01 
        </DataArray>
        <DataArray type="Float64" Name="rhou">
          2.19601921e-02 -5.77022845e-02 -1.80659201e-01 2.86275604e+00 
        </DataArray>
        <DataArray type="Float64" Name="rhov">
          -1.35445182e-01 2.03077184e-02 -2.64938619e-01 8.45548879e-01 
        </DataArray>
        <DataArray type="Float64" Name="E">
          2.31750266e+05 2.29960470e+05 2.34161712e+05 2.21386523e+05 
        </DataArray>
      </PointData>
    </Piece>
    <Piece NumberOfPoints="4" NumberOfCells="3">
      <Points>
        <DataArray type="Float64" NumberOfComponents="3" format="ascii">
          9.38035965e-01 -8.65600072e-03 0.00000000e+00 
9.48369622e-01 -7.25875143e-03 0.00000000e+00 
9.58700895e-01 -5.84406452e-03 0.00000000e+00 
9.69029665e-01 -4.41133138e-03 0.00000000e+00 

        </DataArray>
      </Points>
      <Cells>
        <DataArray type="Int32" Name="connectivity" format="ascii">
0 1
1 2
2 3

        </DataArray>
        <DataArray type="Int32" Name="offsets" format="ascii">
2 4 6 
        </DataArray>
        <DataArray type="UInt8" Name="types" format="ascii">
3 3 3 
        </DataArray>
      </Cells>
      <PointData>
        <DataArray type="Float64" Name="rho">
          1.00386881e+00 1.00637250e+00 1.00672681e+00 1.01620334e+00 
        </DataArray>
        <DataArray type="Float64" Name="rhou">
          -4.50761452e-02 1.48957755e-02 -2.13893577e-02 -9.28946615e-02 
        </DataArray>
        <DataArray type="Float64" Name="rhov">
          8.00938544e-03 -2.93783717e-03 9.02174035e-03 -1.07584281e-01 
        </DataArray>
        <DataArray type="Float64" Name="E">
          2.28148757e+05 2.28814343e+05 2.29014034e+05 2.31301108e+05 
        </DataArray>
      </PointData>
    </Piece>
    <Piece NumberOfPoints="4" NumberOfCells="3">
      <Points>
        <DataArray type="Float64" NumberOfComponents="3" format="ascii">
          9.07021165e-01 -1.27432076e-02 0.00000000e+00 
9.17361677e-01 -1.13977119e-02 0.00000000e+00 
9.27700043e-01 -1.00357840e-02 0.00000000e+00 
9.38035965e-01 -8.65600072e-03 0.00000000e+00 

        </DataArray>
      </Points>
      <Cells>
        <DataArray type="Int32" Name="connectivity" format="ascii">
0 1
1 2
2 3

        </DataArray>
        <DataArray type="Int32" Name="offsets" format="ascii">
2 4 6 
        </DataArray>
        <DataArray type="UInt8" Name="types" format="ascii">
3 3 3 
        </DataArray>
      </Cells>
      <PointData>
        <DataArray type="Float64" Name="rho">
          1.00355713e+00 1.00356087e+00 1.00412515e+00 1.00418893e+00 
        </DataArray>
        <DataArray type="Float64" Name="rhou">
          6.03554841e-03 -8.66279617e-04 3.16501279e-03 3.33717291e-03 
        </DataArray>
        <DataArray type="Float64" Name="rhov">
          2.78669474e-04 8.14980165e-04 -3.00509873e-04 8.55455515e-03 
        </DataArray>
        <DataArray type="Float64" Name="E">
          2.27912481e+05 2.27949609e+05 2.28131758e+05 2.28221286e+05 
        </DataArray>
      </PointData>
    </Piece>
    <Piece NumberOfPoints="4" NumberOfCells="3">
      <Points>
        <DataArray type="Float64" NumberOfComponents="3" format="ascii">
          8.75986874e-01 -1.66798849e-02 0.00000000e+00 
8.86333704e-01 -1.53839625e-02 0.00000000e+00 
8.96678507e-01 -1.40720531e-02 0.00000000e+00 
9.07021165e-01 -1.27432076e-02 0.00000000e+00 

        </DataArray>
      </Points>
      <Cells>
        <DataArray type="Int32" Name="connectivity" format="ascii">
0 1
1 2
2 3

        </DataArray>
        <DataArray type="Int32" Name="offsets" format="ascii">
2 4 6 
        </DataArray>
        <DataArray type="UInt8" Name="types" format="ascii">
3 3 3 
        </DataArray>
      </Cells>
      <PointData>
        <DataArray type="Float64" Name="rho">
          1.00437297e+00 1.00391549e+00 1.00357911e+00 1.00352254e+00 
        </DataArray>
        <DataArray type="Float64" Name="rhou">
          -9.98673454e-04 2.08298300e-04 3.43564646e-04 5.70641857e-04 
        </DataArray>
        <DataArray type="Float64" Name="rhov">
          -2.89331525e-05 1.83719857e-04 5.48976422e-04 -2.32276634e-05 
        </DataArray>
        <DataArray type="Float64" Name="E">
          2.28064292e+05 2.27962067e+05 2.27895914e+05 2.27904632e+05 
        </DataArray>
      </PointData>
    </Piece>
    <Piece NumberOfPoints="4" NumberOfCells="3">
      <Points>
        <DataArray type="Float64" NumberOfComponents="3" format="ascii">
          8.44934702e-01 -2.04724707e-02 0.00000000e+00 
8.55287313e-01 -1.92240477e-02 0.00000000e+00 
8.65638077e-01 -1.79597028e-02 0.00000000e+00 
8.75986874e-01 -1.66798849e-02 0.00000000e+00 

        </DataArray>
      </Points>
      <Cells>
        <DataArray type="Int32" Name="connectivity" format="ascii">
0 1
1 2
2 3

        </DataArray>
        <DataArray type="Int32" Name="offsets" format="ascii">
2 4 6 
        </DataArray>
        <DataArray type="UInt8" Name="types" format="ascii">
3 3 3 
        </DataArray>
      </Cells>
      <PointData>
        <DataArray type="Float64" Name="rho">
          1.00635956e+00 1.00563033e+00 1.00497269e+00 1.00437637e+00 
        </DataArray>
        <DataArray type="Float64" Name="rhou">
          -1.39887451e-03 -1.38483009e-03 -9.78415904e-04 -2.83847546e-04 
        </DataArray>
        <DataArray type="Float64" Name="rhov">
          -8.45428374e-04 -5.59367866e-04 -3.84287513e-04 2.03724946e-06 
        </DataArray>
        <DataArray type="Float64" Name="E">
          2.28544150e+05 2.28364391e+05 2.28205230e+05 2.28065057e+05 
        </DataArray>
      </PointData>
    </Piece>
    <Piece NumberOfPoints="4" NumberOfCells="3">
      <Points>
        <DataArray type="Float64" NumberOfComponents="3" format="ascii">
          8.13865662e-01 -2.41250079e-02 0.00000000e+00 
8.24223816e-01 -2.29226518e-02 0.00000000e+00 
8.34580123e-01 -2.17050612e-02 0.00000000e+00 
8.44934702e-01 -2.04724707e-02 0.00000000e+00 

        </DataArray>
      </Points>
      <Cells>
        <DataArray type="Int32" Name="connectivity" format="ascii">
0 1
1 2
2 3

        </DataArray>
        <DataArray type="Int32" Name="offsets" format="ascii">
2 4 6 
        </DataArray>
        <DataArray type="UInt8" Name="types" format="ascii">
3 3 3 
        </DataArray>
      </Cells>
      <PointData>
        <DataArray type="Float64" Name="rho">
          1.00866915e+00 1.00787583e+00 1.00710393e+00 1.00635834e+00 
        </DataArray>
        <DataArray type="Float64" Name="rhou">
          -1.64750442e-03 -1.77746650e-03 -1.78280589e-03 -1.57681979e-03 
        </DataArray>
        <DataArray type="Float64" Name="rhov">
          -8.74277312e-04 -8.85281182e-04 -8.81868187e-04 -8.51072953e-04 
        </DataArray>
        <DataArray type="Float64" Name="E">
          2.29137208e+05 2.28929515e+05 2.28731515e+05 2.28543883e+05 
        </DataArray>
      </PointData>
    </Piece>
    <Piece NumberOfPoints="4" NumberOfCells="3">
      <Points>
        <DataArray type="Float64" NumberOfComponents="3" format="ascii">
          7.82780826e-01 -2.76402626e-02 0.00000000e+00 
7.93144107e-01 -2.64833923e-02 0.00000000e+00 
8.03505778e-01 -2.53117718e-02 0.00000000e+00 
8.13865662e-01 -2.41250079e-02 0.00000000e+00 

        </DataArray>
      </Points>
      <Cells>
        <DataArray type="Int32" Name="connectivity" format="ascii">
0 1
1 2
2 3

        </DataArray>
        <DataArray type="Int32" Name="offsets" format="ascii">
2 4 6 
        </DataArray>
        <DataArray type="UInt8" Name="types" format="ascii">
3 3 3 
        </DataArray>
      </Cells>
      <PointData>
        <DataArray type="Float64" Name="rho">
          1.01111514e+00 1.01029268e+00 1.00947969e+00 1.00866874e+00 
        </DataArray>
        <DataArray type="Float64" Name="rhou">
          -9.30320389e-04 -1.24363786e-03 -1.42161803e-03 -1.54607250e-03 
        </DataArray>
        <DataArray type="Float64" Name="rhov">
          -6.76468456e-04 -7.75060257e-04 -8.59440268e-04 -8.59841682e-04 
        </DataArray>
        <DataArray type="Float64" Name="E">
          2.29807386e+05 2.29576894e+05 2.29354038e+05 2.29137120e+05 
        </DataArray>
      </PointData>
    </Piece>
    <Piece NumberOfPoints="4" NumberOfCells="3">
      <Points>
        <DataArray type="Float64" NumberOfComponents="3" format="ascii">
          7.51680970e-01 -3.10197193e-02 0.00000000e+00 
7.62049198e-01 -2.99084149e-02 0.00000000e+00 
7.72415876e-01 -2.87819952e-02 0.00000000e+00 
7.82780826e-01 -2.76402626e-02 0.00000000e+00 

        </DataArray>
      </Points>
      <Cells>
        <DataArray type="Int32" Name="connectivity" format="ascii">
0 1
1 2
2 3

        </DataArray>
        <DataArray type="Int32" Name="offsets" format="ascii">
2 4 6 
        </DataArray>
        <DataArray type="UInt8" Name="types" format="ascii">
3 3 3 
        </DataArray>
      </Cells>
      <PointData>
        <DataArray type="Float64" Name="rho">
          1.01357619e+00 1.01276728e+00 1.01194367e+00 1.01111496e+00 
        </DataArray>
        <DataArray type="Float64" Name="rhou">
          -2.97156546e-04 -4.73846108e-04 -6.66903502e-04 -9.38440280e-04 
        </DataArray>
        <DataArray type="Float64" Name="rhov">
          -6.13226777e-04 -6.34249558e-04 -6.46477205e-04 -6.72746157e-04 
        </DataArray>
        <DataArray type="Float64" Name="E">
          2.30526351e+05 2.30285118e+05 2.30044473e+05 2.29807343e+05 
        </DataArray>
      </PointData>
    </Piece>
    <Piece NumberOfPoints="4" NumberOfCells="3">
      <Points>
        <DataArray type="Float64" NumberOfComponents="3" format="ascii">
          7.20566452e-01 -3.42622213e-02 0.00000000e+00 
7.30939507e-01 -3.31965312e-02 0.00000000e+00 
7.41311073e-01 -3.21157984e-02 0.00000000e+00 
7.51680970e-01 -3.10197193e-02 0.00000000e+00 

        </DataArray>
      </Points>
      <Cells>
        <DataArray type="Int32" Name="connectivity" format="ascii">
0 1
1 2
2 3

        </DataArray>
        <DataArray type="Int32" Name="offsets" format="ascii">
2 4 6 
        </DataArray>
        <DataArray type="UInt8" Name="types" format="ascii">
3 3 3 
        </DataArray>
      </Cells>
      <PointData>
        <DataArray type="Float64" Name="rho">
          1.01584126e+00 1.01512588e+00 1.01436828e+00 1.01357617e+00 
        </DataArray>
        <DataArray type="Float64" Name="rhou">
          3.58549775e-05 -3.04521590e-05 -1.05997043e-04 -2.63907150e-04 
        </DataArray>
        <DataArray type="Float64" Name="rhov">
          -7.14731688e-04 -7.02605245e-04 -6.59315452e-04 -6.00027235e-04 
        </DataArray>
        <DataArray type="Float64" Name="E">
          2.31228153e+05 2.31001643e+05 2.30766829e+05 2.30526342e+05 
        </DataArray>
      </PointData>
    </Piece>
    <Piece NumberOfPoints="4" NumberOfCells="3">
      <Points>
        <DataArray type="Float64" NumberOfComponents="3" format="ascii">
          6.89437866e-01 -3.73662710e-02 0.00000000e+00 
6.99815631e-01 -3.63472365e-02 0.00000000e+00 
7.10191846e-01 -3.53125818e-02 0.00000000e+00 
7.20566452e-01 -3.42622213e-02 0.00000000e+00 

        </DataArray>
      </Points>
      <Cells>
        <DataArray type="Int32" Name="connectivity" format="ascii">
0 1
1 2
2 3

        </DataArray>
        <DataArray type="Int32" Name="offsets" format="ascii">
2 4 6 
        </DataArray>
        <DataArray type="UInt8" Name="types" format="ascii">
3 3 3 
        </DataArray>
      </Cells>
      <PointData>
        <DataArray type="Float64" Name="rho">
          1.01770013e+00 1.01713732e+00 1.01651610e+00 1.01584133e+00 
        </DataArray>
        <DataArray type="Float64" Name="rhou">
          1.56642124e-04 1.51140814e-04 1.35392842e-04 5.99719295e-05 
        </DataArray>
        <DataArray type="Float64" Name="rhov">
          -8.49366527e-04 -8.31417729e-04 -7.75278340e-04 -6.99150480e-04 
        </DataArray>
        <DataArray type="Float64" Name="E">
          2.31843105e+05 2.31651499e+05 2.31445974e+05 2.31228166e+05 
        </DataArray>
      </PointData>
    </Piece>
    <Piece NumberOfPoints="4" NumberOfCells="3">
      <Points>
        <DataArray type="Float64" NumberOfComponents="3" format="ascii">
          6.58295333e-01 -4.03269380e-02 0.00000000e+00 
6.68677747e-01 -3.93563360e-02 0.00000000e+00 
6.79058611e-01 -3.83694395e-02 0.00000000e+00 
6.89437866e-01 -3.73662710e-02 0.00000000e+00 

        </DataArray>
      </Points>
      <Cells>
        <DataArray type="Int32" Name="connectivity" format="ascii">
0 1
1 2
2 3

        </DataArray>
        <DataArray type="Int32" Name="offsets" format="ascii">
2 4 6 
        </DataArray>
        <DataArray type="UInt8" Name="types" format="ascii">
3 3 3 
        </DataArray>
      </Cells>
      <PointData>
        <DataArray type="Float64" Name="rho">
          1.01904663e+00 1.01865862e+00 1.01820908e+00 1.01770032e+00 
        </DataArray>
        <DataArray type="Float64" Name="rhou">
          1.70797700e-04 1.99093037e-04 2.03654545e-04 1.70750128e-04 
        </DataArray>
        <DataArray type="Float64" Name="rhov">
          -9.23959449e-04 -9.17020376e-04 -8.78933363e-04 -8.30586572e-04 
        </DataArray>
        <DataArray type="Float64" Name="E">
          2.32332913e+05 2.32184917e+05 2.32021421e+05 2.31843147e+05 
        </DataArray>
      </PointData>
    </Piece>
    <Piece NumberOfPoints="4" NumberOfCells="3">
      <Points>
        <DataArray type="Float64" NumberOfComponents="3" format="ascii">
          6.27138972e-01 -4.31386717e-02 0.00000000e+00 
6.37525976e-01 -4.22184542e-02 0.00000000e+00 
6.47911429e-01 -4.12811004e-02 0.00000000e+00 
6.58295333e-01 -4.03269380e-02 0.00000000e+00 

        </DataArray>
      </Points>
      <Cells>
        <DataArray type="Int32" Name="connectivity" format="ascii">
0 1
1 2
2 3

        </DataArray>
        <DataArray type="Int32" Name="offsets" format="ascii">
2 4 6 
        </DataArray>
        <DataArray type="UInt8" Name="types" format="ascii">
3 3 3 
        </DataArray>
      </Cells>
      <PointData>
        <DataArray type="Float64" Name="rho">
          1.01987868e+00 1.01965511e+00 1.01937898e+00 1.01904674e+00 
        </DataArray>
        <DataArray type="Float64" Name="rhou">
          1.33731943e-04 1.51491446e-04 1.74087049e-04 1.89998712e-04 
        </DataArray>
        <DataArray type="Float64" Name="rhov">
          -9.12918404e-04 -9.17329557e-04 -9.16165996e-04 -9.04983723e-04 
        </DataArray>
        <DataArray type="Float64" Name="E">
          2.32691538e+05 2.32585877e+05 2.32466621e+05 2.32332939e+05 
        </DataArray>
      </PointData>
    </Piece>
    <Piece NumberOfPoints="4" NumberOfCells="3">
      <Points>
        <DataArray type="Float64" NumberOfComponents="3" format="ascii">
          5.95968783e-01 -4.57924642e-02 0.00000000e+00 
6.06360376e-01 -4.49259281e-02 0.00000000e+00 
6.16750479e-01 -4.40412909e-02 0.00000000e+00 
6.27138972e-01 -4.31386717e-02 0.00000000e+00 

        </DataArray>
      </Points>
      <Cells>
        <DataArray type="Int32" Name="connectivity" format="ascii">
0 1
1 2
2 3

        </DataArray>
        <DataArray type="Int32" Name="offsets" format="ascii">
2 4 6 
        </DataArray>
        <DataArray type="UInt8" Name="types" format="ascii">
3 3 3 
        </DataArray>
      </Cells>
      <PointData>
        <DataArray type="Float64" Name="rho">
          1.02025802e+00 1.02017941e+00 1.02005350e+00 1.01987867e+00 
        </DataArray>
        <DataArray type="Float64" Name="rhou">
          1.59993083e-05 6.99595344e-05 1.14141203e-04 1.32674156e-04 
        </DataArray>
        <DataArray type="Float64" Name="rhov">
          -8.89183207e-04 -9.08666102e-04 -9.06417105e-04 -8.95598032e-04 
        </DataArray>
        <DataArray type="Float64" Name="E">
          2.32933323e+05 2.32864946e+05 2.32784530e+05 2.32691537e+05 
        </DataArray>
      </PointData>
    </Piece>
    <Piece NumberOfPoints="4" NumberOfCells="3">
      <Points>
        <DataArray type="Float64" NumberOfComponents="3" format="ascii">
          5.64784765e-01 -4.82786149e-02 0.00000000e+00 
5.75181007e-01 -4.74695377e-02 0.00000000e+00 
5.85575700e-01 -4.66405638e-02 0.00000000e+00 
5.95968783e-01 -4.57924642e-02 0.00000000e+00 

        </DataArray>
      </Points>
      <Cells>
        <DataArray type="Int32" Name="connectivity" format="ascii">
0 1
1 2
2 3

        </DataArray>
        <DataArray type="Int32" Name="offsets" format="ascii">
2 4 6 
        </DataArray>
        <DataArray type="UInt8" Name="types" format="ascii">
3 3 3 
        </DataArray>
      </Cells>
      <PointData>
        <DataArray type="Float64" Name="rho">
          1.02026846e+00 1.02029857e+00 1.02029584e+00 1.02025830e+00 
        </DataArray>
        <DataArray type="Float64" Name="rhou">
          -5.19052516e-05 -2.89376685e-05 -1.19538015e-05 1.75105889e-05 
        </DataArray>
        <DataArray type="Float64" Name="rhov">
          -8.31837740e-04 -8.27967220e-04 -8.41509574e-04 -8.72940206e-04 
        </DataArray>
        <DataArray type="Float64" Name="E">
          2.33082330e+05 2.33040737e+05 2.32991376e+05 2.32933386e+05 
        </DataArray>
      </PointData>
    </Piece>
    <Piece NumberOfPoints="4" NumberOfCells="3">
      <Points>
        <DataArray type="Float64" NumberOfComponents="3" format="ascii">
          5.33586800e-01 -5.05827516e-02 0.00000000e+00 
5.43987691e-01 -4.98356484e-02 0.00000000e+00 
5.54387033e-01 -4.90674041e-02 0.00000000e+00 
5.64784765e-01 -4.82786149e-02 0.00000000e+00 

        </DataArray>
      </Points>
      <Cells>
        <DataArray type="Int32" Name="connectivity" format="ascii">
0 1
1 2
2 3

        </DataArray>
        <DataArray type="Int32" Name="offsets" format="ascii">
2 4 6 
        </DataArray>
        <DataArray type="UInt8" Name="types" format="ascii">
3 3 3 
        </DataArray>
      </Cells>
      <PointData>
        <DataArray type="Float64" Name="rho">
          1.01999940e+00 1.02011285e+00 1.02020509e+00 1.02026841e+00 
        </DataArray>
        <DataArray type="Float64" Name="rhou">
          -1.07506959e-04 -1.18540000e-04 -9.76670502e-05 -4.68735543e-05 
        </DataArray>
        <DataArray type="Float64" Name="rhov">
          -7.08876470e-04 -7.45603416e-04 -7.89231237e-04 -8.18651466e-04 
        </DataArray>
        <DataArray type="Float64" Name="E">
          2.33170113e+05 2.33144964e+05 2.33116533e+05 2.33082316e+05 
        </DataArray>
      </PointData>
    </Piece>
    <Piece NumberOfPoints="4" NumberOfCells="3">
      <Points>
        <DataArray type="Float64" NumberOfComponents="3" format="ascii">
          5.02374947e-01 -5.26902266e-02 0.00000000e+00 
5.12780428e-01 -5.20105064e-02 0.00000000e+00 
5.23184419e-01 -5.13078682e-02 0.00000000e+00 
5.33586800e-01 -5.05827516e-02 0.00000000e+00 

        </DataArray>
      </Points>
      <Cells>
        <DataArray type="Int32" Name="connectivity" format="ascii">
0 1
1 2
2 3

        </DataArray>
        <DataArray type="Int32" Name="offsets" format="ascii">
2 4 6 
        </DataArray>
        <DataArray type="UInt8" Name="types" format="ascii">
3 3 3 
        </DataArray>
      </Cells>
      <PointData>
        <DataArray type="Float64" Name="rho">
          1.01956231e+00 1.01972034e+00 1.01986848e+00 1.01999924e+00 
        </DataArray>
        <DataArray type="Float64" Name="rhou">
          -9.20942140e-05 -1.13322548e-04 -1.08650571e-04 -9.53364257e-05 
        </DataArray>
        <DataArray type="Float64" Name="rhov">
          -5.53436565e-04 -6.22651666e-04 -6.75442985e-04 -7.00429717e-04 
        </DataArray>
        <DataArray type="Float64" Name="E">
          2.33242340e+05 2.33216834e+05 2.33193706e+05 2.33170075e+05 
        </DataArray>
      </PointData>
    </Piece>
    <Piece NumberOfPoints="4" NumberOfCells="3">
      <Points>
        <DataArray type="Float64" NumberOfComponents="3" format="ascii">
          4.71149325e-01 -5.45825884e-02 0.00000000e+00 
4.81559396e-01 -5.39771840e-02 0.00000000e+00 
4.91967946e-01 -5.33461571e-02 0.00000000e+00 
5.02374947e-01 -5.26902266e-02 0.00000000e+00 

        </DataArray>
      </Points>
      <Cells>
        <DataArray type="Int32" Name="connectivity" format="ascii">
0 1
1 2
2 3

        </DataArray>
        <DataArray type="Int32" Name="offsets" format="ascii">
2 4 6 
        </DataArray>
        <DataArray type="UInt8" Name="types" format="ascii">
3 3 3 
        </DataArray>
      </Cells>
      <PointData>
        <DataArray type="Float64" Name="rho">
          1.01909769e+00 1.01924798e+00 1.01940248e+00 1.01956247e+00 
        </DataArray>
        <DataArray type="Float64" Name="rhou">
          4.13291635e-05 1.87830135e-05 -3.49956692e-05 -1.10349290e-04 
        </DataArray>
        <DataArray type="Float64" Name="rhov">
          -3.75782266e-04 -4.37192796e-04 -4.80151784e-04 -5.42541146e-04 
        </DataArray>
        <DataArray type="Float64" Name="E">
          2.33362478e+05 2.33313003e+05 2.33273371e+05 2.33242377e+05 
        </DataArray>
      </PointData>
    </Piece>
    <Piece NumberOfPoints="4" NumberOfCells="3">
      <Points>
        <DataArray type="Float64" NumberOfComponents="3" format="ascii">
          4.39910263e-01 -5.62384278e-02 0.00000000e+00 
4.50324744e-01 -5.57143167e-02 0.00000000e+00 
4.60737765e-01 -5.51619194e-02 0.00000000e+00 
4.71149325e-01 -5.45825884e-02 0.00000000e+00 

        </DataArray>
      </Points>
      <Cells>
        <DataArray type="Int32" Name="connectivity" format="ascii">
0 1
1 2
2 3

        </DataArray>
        <DataArray type="Int32" Name="offsets" format="ascii">
2 4 6 
        </DataArray>
        <DataArray type="UInt8" Name="types" format="ascii">
3 3 3 
        </DataArray>
      </Cells>
      <PointData>
        <DataArray type="Float64" Name="rho">
          1.01876288e+00 1.01884470e+00 1.01896028e+00 1.01909782e+00 
        </DataArray>
        <DataArray type="Float64" Name="rhou">
          3.32898353e-04 2.02782382e-04 1.11016812e-04 6.44260008e-05 
        </DataArray>
        <DataArray type="Float64" Name="rhov">
          -1.26560866e-04 -1.86600533e-04 -2.77087197e-04 -3.69202177e-04 
        </DataArray>
        <DataArray type="Float64" Name="E">
          2.33605808e+05 2.33505012e+05 2.33425289e+05 2.33362509e+05 
        </DataArray>
      </PointData>
    </Piece>
    <Piece NumberOfPoints="4" NumberOfCells="3">
      <Points>
        <DataArray type="Float64" NumberOfComponents="3" format="ascii">
          4.08658355e-01 -5.76302819e-02 0.00000000e+00 
4.19077009e-01 -5.71971126e-02 0.00000000e+00 
4.29494321e-01 -5.67329265e-02 0.00000000e+00 
4.39910263e-01 -5.62384278e-02 0.00000000e+00 

        </DataArray>
      </Points>
      <Cells>
        <DataArray type="Int32" Name="connectivity" format="ascii">
0 1
1 2
2 3

        </DataArray>
        <DataArray type="Int32" Name="offsets" format="ascii">
2 4 6 
        </DataArray>
        <DataArray type="UInt8" Name="types" format="ascii">
3 3 3 
        </DataArray>
      </Cells>
      <PointData>
        <DataArray type="Float64" Name="rho">
          1.01875601e+00 1.01871164e+00 1.01871764e+00 1.01876249e+00 
        </DataArray>
        <DataArray type="Float64" Name="rhou">
          6.29924802e-04 5.07030755e-04 4.16091953e-04 3.33066415e-04 
        </DataArray>
        <DataArray type="Float64" Name="rhov">
          6.22804913e-05 -1.64666244e-05 -8.44785705e-05 -1.28010932e-04 
        </DataArray>
        <DataArray type="Float64" Name="E">
          2.34054196e+05 2.33877970e+05 2.33729594e+05 2.33605723e+05 
        </DataArray>
      </PointData>
    </Piece>
    <Piece NumberOfPoints="4" NumberOfCells="3">
      <Points>
        <DataArray type="Float64" NumberOfComponents="3" format="ascii">
          3.77394795e-01 -5.87291755e-02 0.00000000e+00 
3.87817174e-01 -5.83979115e-02 0.00000000e+00 
3.98238391e-01 -5.80311492e-02 0.00000000e+00 
4.08658355e-01 -5.76302819e-02 0.00000000e+00 

        </DataArray>
      </Points>
      <Cells>
        <DataArray type="Int32" Name="connectivity" format="ascii">
0 1
1 2
2 3

        </DataArray>
        <DataArray type="Int32" Name="offsets" format="ascii">
2 4 6 
        </DataArray>
        <DataArray type="UInt8" Name="types" format="ascii">
3 3 3 
        </DataArray>
      </Cells>
      <PointData>
        <DataArray type="Float64" Name="rho">
          1.01930244e+00 1.01904459e+00 1.01886231e+00 1.01875625e+00 
        </DataArray>
        <DataArray type="Float64" Name="rhou">
          1.03690838e-03 9.21747032e-04 7.65908279e-04 5.88534030e-04 
        </DataArray>
        <DataArray type="Float64" Name="rhov">
          1.30361160e-04 1.34684513e-04 1.28139849e-04 6.57929081e-05 
        </DataArray>
        <DataArray type="Float64" Name="E">
          2.34776877e+05 2.34502410e+05 2.34261297e+05 2.34054258e+05 
        </DataArray>
      </PointData>
    </Piece>
    <Piece NumberOfPoints="4" NumberOfCells="3">
      <Points>
        <DataArray type="Float64" NumberOfComponents="3" format="ascii">
          3.46121490e-01 -5.95011823e-02 0.00000000e+00 
3.56546819e-01 -5.92821389e-02 0.00000000e+00 
3.66971314e-01 -5.90242445e-02 0.00000000e+00 
3.77394795e-01 -5.87291755e-02 0.00000000e+00 

        </DataArray>
      </Points>
      <Cells>
        <DataArray type="Int32" Name="connectivity" format="ascii">
0 1
1 2
2 3

        </DataArray>
        <DataArray type="Int32" Name="offsets" format="ascii">
2 4 6 
        </DataArray>
        <DataArray type="UInt8" Name="types" format="ascii">
3 3 3 
        </DataArray>
      </Cells>
      <PointData>
        <DataArray type="Float64" Name="rho">
          1.02063491e+00 1.02008104e+00 1.01964249e+00 1.01930255e+00 
        </DataArray>
        <DataArray type="Float64" Name="rhou">
          1.50153495e-03 1.31898729e-03 1.14819676e-03 1.04303719e-03 
        </DataArray>
        <DataArray type="Float64" Name="rhov">
          1.38899219e-04 1.81400238e-04 1.71096646e-04 1.33680084e-04 
        </DataArray>
        <DataArray type="Float64" Name="E">
          2.35811586e+05 2.35429455e+05 2.35085164e+05 2.34776902e+05 
        </DataArray>
      </PointData>
    </Piece>
    <Piece NumberOfPoints="4" NumberOfCells="3">
      <Points>
        <DataArray type="Float64" NumberOfComponents="3" format="ascii">
          3.14841360e-01 -5.99102043e-02 0.00000000e+00 
3.25268596e-01 -5.98174632e-02 0.00000000e+00 
3.35695356e-01 -5.96801341e-02 0.00000000e+00 
3.46121490e-01 -5.95011823e-02 0.00000000e+00 

        </DataArray>
      </Points>
      <Cells>
        <DataArray type="Int32" Name="connectivity" format="ascii">
0 1
1 2
2 3

        </DataArray>
        <DataArray type="Int32" Name="offsets" format="ascii">
2 4 6 
        </DataArray>
        <DataArray type="UInt8" Name="types" format="ascii">
3 3 3 
        </DataArray>
      </Cells>
      <PointData>
        <DataArray type="Float64" Name="rho">
          1.02312790e+00 1.02212657e+00 1.02130553e+00 1.02063453e+00 
        </DataArray>
        <DataArray type="Float64" Name="rhou">
          2.02537454e-03 1.74658312e-03 1.55303486e-03 1.45594423e-03 
        </DataArray>
        <DataArray type="Float64" Name="rhov">
          2.15460471e-04 2.49398862e-04 2.08458476e-04 1.37674390e-04 
        </DataArray>
        <DataArray type="Float64" Name="E">
          2.37189976e+05 2.36687627e+05 2.36229367e+05 2.35811497e+05 
        </DataArray>
      </PointData>
    </Piece>
    <Piece NumberOfPoints="4" NumberOfCells="3">
      <Points>
        <DataArray type="Float64" NumberOfComponents="3" format="ascii">
          2.83558637e-01 -5.98983802e-02 0.00000000e+00 
2.93986142e-01 -5.99516556e-02 0.00000000e+00 
3.04413795e-01 -5.99554181e-02 0.00000000e+00 
3.14841360e-01 -5.99102043e-02 0.00000000e+00 

        </DataArray>
      </Points>
      <Cells>
        <DataArray type="Int32" Name="connectivity" format="ascii">
0 1
1 2
2 3

        </DataArray>
        <DataArray type="Int32" Name="offsets" format="ascii">
2 4 6 
        </DataArray>
        <DataArray type="UInt8" Name="types" format="ascii">
3 3 3 
        </DataArray>
      </Cells>
      <PointData>
        <DataArray type="Float64" Name="rho">
          1.02733849e+00 1.02572045e+00 1.02432380e+00 1.02312709e+00 
        </DataArray>
        <DataArray type="Float64" Name="rhou">
          2.53460463e-03 2.36276839e-03 2.22003467e-03 2.01436914e-03 
        </DataArray>
        <DataArray type="Float64" Name="rhov">
          1.03665110e-04 3.98260135e-05 9.55098777e-05 2.22787950e-04 
        </DataArray>
        <DataArray type="Float64" Name="E">
          2.38952925e+05 2.38323476e+05 2.37736092e+05 2.37189779e+05 
        </DataArray>
      </PointData>
    </Piece>
    <Piece NumberOfPoints="4" NumberOfCells="3">
      <Points>
        <DataArray type="Float64" NumberOfComponents="3" format="ascii">
          2.52279758e-01 -5.94130717e-02 0.00000000e+00 
2.62705088e-01 -5.96327744e-02 0.00000000e+00 
2.73131490e-01 -5.97934239e-02 0.00000000e+00 
2.83558637e-01 -5.98983802e-02 0.00000000e+00 

        </DataArray>
      </Points>
      <Cells>
        <DataArray type="Int32" Name="connectivity" format="ascii">
0 1
1 2
2 3

        </DataArray>
        <DataArray type="Int32" Name="offsets" format="ascii">
2 4 6 
        </DataArray>
        <DataArray type="UInt8" Name="types" format="ascii">
3 3 3 
        </DataArray>
      </Cells>
      <PointData>
        <DataArray type="Float64" Name="rho">
          1.03399234e+00 1.03144663e+00 1.02923319e+00 1.02733959e+00 
        </DataArray>
        <DataArray type="Float64" Name="rhou">
          3.59780827e-03 3.27443617e-03 2.90616079e-03 2.51862263e-03 
        </DataArray>
        <DataArray type="Float64" Name="rhov">
          -1.42387589e-04 -5.06989581e-06 1.19740819e-04 1.26783800e-04 
        </DataArray>
        <DataArray type="Float64" Name="E">
          2.41166250e+05 2.40371210e+05 2.39633411e+05 2.38953175e+05 
        </DataArray>
      </PointData>
    </Piece>
    <Piece NumberOfPoints="4" NumberOfCells="3">
      <Points>
        <DataArray type="Float64" NumberOfComponents="3" format="ascii">
          2.21014455e-01 -5.83752058e-02 0.00000000e+00 
2.31433928e-01 -5.87876961e-02 0.00000000e+00 
2.41855890e-01 -5.91322705e-02 0.00000000e+00 
2.52279758e-01 -5.94130717e-02 0.00000000e+00 

        </DataArray>
      </Points>
      <Cells>
        <DataArray type="Int32" Name="connectivity" format="ascii">
0 1
1 2
2 3

        </DataArray>
        <DataArray type="Int32" Name="offsets" format="ascii">
2 4 6 
        </DataArray>
        <DataArray type="UInt8" Name="types" format="ascii">
3 3 3 
        </DataArray>
      </Cells>
      <PointData>
        <DataArray type="Float64" Name="rho">
          1.04397189e+00 1.04020863e+00 1.03689699e+00 1.03399260e+00 
        </DataArray>
        <DataArray type="Float64" Name="rhou">
          5.10086105e-03 4.45744841e-03 3.95951306e-03 3.63941446e-03 
        </DataArray>
        <DataArray type="Float64" Name="rhov">
          -4.08760003e-04 -2.31577909e-04 -1.47314516e-04 -1.23087118e-04 
        </DataArray>
        <DataArray type="Float64" Name="E">
          2.43953845e+05 2.42947993e+05 2.42022012e+05 2.41166297e+05 
        </DataArray>
      </PointData>
    </Piece>
    <Piece NumberOfPoints="4" NumberOfCells="3">
      <Points>
        <DataArray type="Float64" NumberOfComponents="3" format="ascii">
          1.89777538e-01 -5.66898957e-02 0.00000000e+00 
2.00185493e-01 -5.73302582e-02 0.00000000e+00 
2.10598081e-01 -5.78906052e-02 0.00000000e+00 
2.21014455e-01 -5.83752058e-02 0.00000000e+00 

        </DataArray>
      </Points>
      <Cells>
        <DataArray type="Int32" Name="connectivity" format="ascii">
0 1
1 2
2 3

        </DataArray>
        <DataArray type="Int32" Name="offsets" format="ascii">
2 4 6 
        </DataArray>
        <DataArray type="UInt8" Name="types" format="ascii">
3 3 3 
        </DataArray>
      </Cells>
      <PointData>
        <DataArray type="Float64" Name="rho">
          1.05827171e+00 1.05296628e+00 1.04821413e+00 1.04397108e+00 
        </DataArray>
        <DataArray type="Float64" Name="rhou">
          7.21969136e-03 6.34289758e-03 5.69399707e-03 5.16488687e-03 
        </DataArray>
        <DataArray type="Float64" Name="rhov">
          -1.01501902e-03 -8.14778427e-04 -6.07386931e-04 -3.95181857e-04 
        </DataArray>
        <DataArray type="Float64" Name="E">
          2.47529302e+05 2.46233798e+05 2.45046210e+05 2.43953652e+05 
        </DataArray>
      </PointData>
    </Piece>
    <Piece NumberOfPoints="4" NumberOfCells="3">
      <Points>
        <DataArray type="Float64" NumberOfComponents="3" format="ascii">
          1.58592433e-01 -5.42296544e-02 0.00000000e+00 
1.68979734e-01 -5.51457107e-02 0.00000000e+00 
1.79375216e-01 -5.59638515e-02 0.00000000e+00 
1.89777538e-01 -5.66898957e-02 0.00000000e+00 

        </DataArray>
      </Points>
      <Cells>
        <DataArray type="Int32" Name="connectivity" format="ascii">
0 1
1 2
2 3

        </DataArray>
        <DataArray type="Int32" Name="offsets" format="ascii">
2 4 6 
        </DataArray>
        <DataArray type="UInt8" Name="types" format="ascii">
3 3 3 
        </DataArray>
      </Cells>
      <PointData>
        <DataArray type="Float64" Name="rho">
          1.07802773e+00 1.07076730e+00 1.06419002e+00 1.05827211e+00 
        </DataArray>
        <DataArray type="Float64" Name="rhou">
          1.04317660e-02 9.32368460e-03 8.32328056e-03 7.28299645e-03 
        </DataArray>
        <DataArray type="Float64" Name="rhov">
          -2.35936276e-03 -1.93472113e-03 -1.40007829e-03 -9.72518746e-04 
        </DataArray>
        <DataArray type="Float64" Name="E">
          2.52225265e+05 2.50512038e+05 2.48950266e+05 2.47529415e+05 
        </DataArray>
      </PointData>
    </Piece>
    <Piece NumberOfPoints="4" NumberOfCells="3">
      <Points>
        <DataArray type="Float64" NumberOfComponents="3" format="ascii">
          1.27497971e-01 -5.08146733e-02 0.00000000e+00 
1.37849152e-01 -5.20747155e-02 0.00000000e+00 
1.48214847e-01 -5.32093942e-02 0.00000000e+00 
1.58592433e-01 -5.42296544e-02 0.00000000e+00 

        </DataArray>
      </Points>
      <Cells>
        <DataArray type="Int32" Name="connectivity" format="ascii">
0 1
1 2
2 3

        </DataArray>
        <DataArray type="Int32" Name="offsets" format="ascii">
2 4 6 
        </DataArray>
        <DataArray type="UInt8" Name="types" format="ascii">
3 3 3 
        </DataArray>
      </Cells>
      <PointData>
        <DataArray type="Float64" Name="rho">
          1.10495347e+00 1.09501711e+00 1.08605547e+00 1.07803184e+00 
        </DataArray>
        <DataArray type="Float64" Name="rhou">
          1.48947719e-02 1.38095985e-02 1.20132393e-02 1.04536965e-02 
        </DataArray>
        <DataArray type="Float64" Name="rhov">
          -4.13440336e-03 -3.52288270e-03 -2.59557039e-03 -2.29634579e-03 
        </DataArray>
        <DataArray type="Float64" Name="E">
          2.58573380e+05 2.56225844e+05 2.54114902e+05 2.52226249e+05 
        </DataArray>
      </PointData>
    </Piece>
    <Piece NumberOfPoints="4" NumberOfCells="3">
      <Points>
        <DataArray type="Float64" NumberOfComponents="3" format="ascii">
          9.65642184e-02 -4.61716652e-02 0.00000000e+00 
1.06852271e-01 -4.78802323e-02 0.00000000e+00 
1.17164567e-01 -4.94215861e-02 0.00000000e+00 
1.27497971e-01 -5.08146733e-02 0.00000000e+00 

        </DataArray>
      </Points>
      <Cells>
        <DataArray type="Int32" Name="connectivity" format="ascii">
0 1
1 2
2 3

        </DataArray>
        <DataArray type="Int32" Name="offsets" format="ascii">
2 4 6 
        </DataArray>
        <DataArray type="UInt8" Name="types" format="ascii">
3 3 3 
        </DataArray>
      </Cells>
      <PointData>
        <DataArray type="Float64" Name="rho">
          1.14244842e+00 1.12840056e+00 1.11592945e+00 1.10496249e+00 
        </DataArray>
        <DataArray type="Float64" Name="rhou">
          2.46911492e-02 1.82015875e-02 1.75052558e-02 1.31403225e-02 
        </DataArray>
        <DataArray type="Float64" Name="rhov">
          -3.68899940e-03 -3.08600891e-03 -3.67284566e-03 -3.42299103e-03 
        </DataArray>
        <DataArray type="Float64" Name="E">
          2.67519745e+05 2.64151466e+05 2.61177488e+05 2.58575586e+05 
        </DataArray>
      </PointData>
    </Piece>
  </UnstructuredGrid>
</VTKFile>
