<?xml version="1.0"?>
<VTKFile type="UnstructuredGrid" version="0.1" byte_order="LittleEndian">
  <UnstructuredGrid>
    <Piece NumberOfPoints="4" NumberOfCells="3">
      <Points>
        <DataArray type="Float64" NumberOfComponents="3" format="ascii">
          9.65642184e-02 -4.61716652e-02 0.00000000e+00 
9.26280916e-02 -4.54656407e-02 0.00000000e+00 
8.86965096e-02 -4.47326750e-02 0.00000000e+00 
8.47706869e-02 -4.39694971e-02 0.00000000e+00 

        </DataArray>
      </Points>
      <Cells>
        <DataArray type="Int32" Name="connectivity" format="ascii">
0 1
1 2
2 3

        </DataArray>
        <DataArray type="Int32" Name="offsets" format="ascii">
2 4 6 
        </DataArray>
        <DataArray type="UInt8" Name="types" format="ascii">
3 3 3 
        </DataArray>
      </Cells>
      <PointData>
        <DataArray type="Float64" Name="rho">
          1.03071396e+00 1.03763509e+00 1.04487107e+00 1.05255439e+00 
        </DataArray>
        <DataArray type="Float64" Name="rhou">
          2.82584033e-02 2.17779452e-02 2.44259967e-02 2.46076211e-02 
        </DataArray>
        <DataArray type="Float64" Name="rhov">
          -2.22060239e-03 -1.01028864e-03 -6.03797487e-04 -9.20435641e-04 
        </DataArray>
        <DataArray type="Float64" Name="E">
          2.35278040e+05 2.36932526e+05 2.38663917e+05 2.40502685e+05 
        </DataArray>
      </PointData>
    </Piece>
    <Piece NumberOfPoints="4" NumberOfCells="3">
      <Points>
        <DataArray type="Float64" NumberOfComponents="3" format="ascii">
          8.47706869e-02 -4.39694971e-02 0.00000000e+00 
8.08513016e-02 -4.31745499e-02 0.00000000e+00 
7.69388378e-02 -4.23462167e-02 0.00000000e+00 
7.30340332e-02 -4.14824970e-02 0.00000000e+00 

        </DataArray>
      </Points>
      <Cells>
        <DataArray type="Int32" Name="connectivity" format="ascii">
0 1
1 2
2 3

        </DataArray>
        <DataArray type="Int32" Name="offsets" format="ascii">
2 4 6 
        </DataArray>
        <DataArray type="UInt8" Name="types" format="ascii">
3 3 3 
        </DataArray>
      </Cells>
      <PointData>
        <DataArray type="Float64" Name="rho">
          1.05255319e+00 1.06066499e+00 1.06924081e+00 1.07835037e+00 
        </DataArray>
        <DataArray type="Float64" Name="rhou">
          2.46983304e-02 2.38783831e-02 2.24748099e-02 2.09137619e-02 
        </DataArray>
        <DataArray type="Float64" Name="rhov">
          -7.25938811e-04 -5.22016194e-04 3.78371031e-04 1.56549852e-03 
        </DataArray>
        <DataArray type="Float64" Name="E">
          2.40502418e+05 2.42445692e+05 2.44501374e+05 2.46686198e+05 
        </DataArray>
      </PointData>
    </Piece>
    <Piece NumberOfPoints="4" NumberOfCells="3">
      <Points>
        <DataArray type="Float64" NumberOfComponents="3" format="ascii">
          7.30340332e-02 -4.14824970e-02 0.00000000e+00 
6.91377968e-02 -4.05809283e-02 0.00000000e+00 
6.52511865e-02 -3.96387354e-02 0.00000000e+00 
6.13753870e-02 -3.86530459e-02 0.00000000e+00 

        </DataArray>
      </Points>
      <Cells>
        <DataArray type="Int32" Name="connectivity" format="ascii">
0 1
1 2
2 3

        </DataArray>
        <DataArray type="Int32" Name="offsets" format="ascii">
2 4 6 
        </DataArray>
        <DataArray type="UInt8" Name="types" format="ascii">
3 3 3 
        </DataArray>
      </Cells>
      <PointData>
        <DataArray type="Float64" Name="rho">
          1.07835097e+00 1.08807803e+00 1.09845417e+00 1.10953892e+00 
        </DataArray>
        <DataArray type="Float64" Name="rhou">
          2.10318685e-02 1.86893387e-02 1.45992375e-02 9.11162529e-03 
        </DataArray>
        <DataArray type="Float64" Name="rhov">
          1.40022315e-03 2.13596996e-03 4.20530410e-03 7.38007757e-03 
        </DataArray>
        <DataArray type="Float64" Name="E">
          2.46686361e+05 2.49021484e+05 2.51514078e+05 2.54179131e+05 
        </DataArray>
      </PointData>
    </Piece>
    <Piece NumberOfPoints="4" NumberOfCells="3">
      <Points>
        <DataArray type="Float64" NumberOfComponents="3" format="ascii">
          6.13753870e-02 -3.86530459e-02 0.00000000e+00 
5.75117208e-02 -3.76208089e-02 0.00000000e+00 
5.36618084e-02 -3.65384258e-02 0.00000000e+00 
4.98276278e-02 -3.54015976e-02 0.00000000e+00 

        </DataArray>
      </Points>
      <Cells>
        <DataArray type="Int32" Name="connectivity" format="ascii">
0 1
1 2
2 3

        </DataArray>
        <DataArray type="Int32" Name="offsets" format="ascii">
2 4 6 
        </DataArray>
        <DataArray type="UInt8" Name="types" format="ascii">
3 3 3 
        </DataArray>
      </Cells>
      <PointData>
        <DataArray type="Float64" Name="rho">
          1.10953919e+00 1.12141547e+00 1.13416795e+00 1.14792798e+00 
        </DataArray>
        <DataArray type="Float64" Name="rhou">
          9.05575033e-03 2.01113961e-03 -7.18760565e-03 -1.86870002e-02 
        </DataArray>
        <DataArray type="Float64" Name="rhov">
          7.15244049e-03 1.18333679e-02 1.98804542e-02 3.13122927e-02 
        </DataArray>
        <DataArray type="Float64" Name="E">
          2.54179196e+05 2.57038498e+05 2.60111402e+05 2.63430405e+05 
        </DataArray>
      </PointData>
    </Piece>
    <Piece NumberOfPoints="4" NumberOfCells="3">
      <Points>
        <DataArray type="Float64" NumberOfComponents="3" format="ascii">
          4.98276278e-02 -3.54015976e-02 0.00000000e+00 
4.60115410e-02 -3.42054628e-02 0.00000000e+00 
4.22164090e-02 -3.29444520e-02 0.00000000e+00 
3.84457745e-02 -3.16120051e-02 0.00000000e+00 

        </DataArray>
      </Points>
      <Cells>
        <DataArray type="Int32" Name="connectivity" format="ascii">
0 1
1 2
2 3

        </DataArray>
        <DataArray type="Int32" Name="offsets" format="ascii">
2 4 6 
        </DataArray>
        <DataArray type="UInt8" Name="types" format="ascii">
3 3 3 
        </DataArray>
      </Cells>
      <PointData>
        <DataArray type="Float64" Name="rho">
          1.14792791e+00 1.16279554e+00 1.17888271e+00 1.19638087e+00 
        </DataArray>
        <DataArray type="Float64" Name="rhou">
          -1.91400810e-02 -3.32616058e-02 -5.22299331e-02 -7.49206507e-02 
        </DataArray>
        <DataArray type="Float64" Name="rhov">
          3.10978854e-02 4.77227819e-02 7.53041102e-02 1.15665097e-01 
        </DataArray>
        <DataArray type="Float64" Name="E">
          2.63430353e+05 2.67023031e+05 2.70915213e+05 2.75155132e+05 
        </DataArray>
      </PointData>
    </Piece>
    <Piece NumberOfPoints="4" NumberOfCells="3">
      <Points>
        <DataArray type="Float64" NumberOfComponents="3" format="ascii">
          3.84457745e-02 -3.16120051e-02 0.00000000e+00 
3.47041376e-02 -3.02002355e-02 0.00000000e+00 
3.09973080e-02 -2.86995135e-02 0.00000000e+00 
2.73328498e-02 -2.70981900e-02 0.00000000e+00 

        </DataArray>
      </Points>
      <Cells>
        <DataArray type="Int32" Name="connectivity" format="ascii">
0 1
1 2
2 3

        </DataArray>
        <DataArray type="Int32" Name="offsets" format="ascii">
2 4 6 
        </DataArray>
        <DataArray type="UInt8" Name="types" format="ascii">
3 3 3 
        </DataArray>
      </Cells>
      <PointData>
        <DataArray type="Float64" Name="rho">
          1.19638110e+00 1.21547974e+00 1.23637201e+00 1.25942931e+00 
        </DataArray>
        <DataArray type="Float64" Name="rhou">
          -7.58701243e-02 -1.00010761e-01 -1.28640728e-01 -1.54048911e-01 
        </DataArray>
        <DataArray type="Float64" Name="rhov">
          1.15584804e-01 1.71011887e-01 2.56754203e-01 3.76805497e-01 
        </DataArray>
        <DataArray type="Float64" Name="E">
          2.75155051e+05 2.79794573e+05 2.84878382e+05 2.90500554e+05 
        </DataArray>
      </PointData>
    </Piece>
    <Piece NumberOfPoints="4" NumberOfCells="3">
      <Points>
        <DataArray type="Float64" NumberOfComponents="3" format="ascii">
          2.73328498e-02 -2.70981900e-02 0.00000000e+00 
2.37206947e-02 -2.53822580e-02 0.00000000e+00 
2.01744195e-02 -2.35341713e-02 0.00000000e+00 
1.67132635e-02 -2.15314496e-02 0.00000000e+00 

        </DataArray>
      </Points>
      <Cells>
        <DataArray type="Int32" Name="connectivity" format="ascii">
0 1
1 2
2 3

        </DataArray>
        <DataArray type="Int32" Name="offsets" format="ascii">
2 4 6 
        </DataArray>
        <DataArray type="UInt8" Name="types" format="ascii">
3 3 3 
        </DataArray>
      </Cells>
      <PointData>
        <DataArray type="Float64" Name="rho">
          1.25943417e+00 1.28499631e+00 1.31351863e+00 1.34634744e+00 
        </DataArray>
        <DataArray type="Float64" Name="rhou">
          -1.54428537e-01 -1.68554420e-01 -1.52991118e-01 -5.72492992e-02 
        </DataArray>
        <DataArray type="Float64" Name="rhov">
          3.77479506e-01 5.29054812e-01 7.39384061e-01 9.57374609e-01 
        </DataArray>
        <DataArray type="Float64" Name="E">
          2.90501451e+05 2.96756522e+05 3.03748651e+05 3.11806478e+05 
        </DataArray>
      </PointData>
    </Piece>
    <Piece NumberOfPoints="4" NumberOfCells="3">
      <Points>
        <DataArray type="Float64" NumberOfComponents="3" format="ascii">
          1.67132635e-02 -2.15314496e-02 0.00000000e+00 
1.33649679e-02 -1.93456318e-02 0.00000000e+00 
1.01706637e-02 -1.69409402e-02 0.00000000e+00 
7.19343964e-03 -1.42731192e-02 0.00000000e+00 

        </DataArray>
      </Points>
      <Cells>
        <DataArray type="Int32" Name="connectivity" format="ascii">
0 1
1 2
2 3

        </DataArray>
        <DataArray type="Int32" Name="offsets" format="ascii">
2 4 6 
        </DataArray>
        <DataArray type="UInt8" Name="types" format="ascii">
3 3 3 
        </DataArray>
      </Cells>
      <PointData>
        <DataArray type="Float64" Name="rho">
          1.34624173e+00 1.38611136e+00 1.43335262e+00 1.49846134e+00 
        </DataArray>
        <DataArray type="Float64" Name="rhou">
          -3.47086875e-02 1.13346925e-01 4.54006775e-01 8.73681681e-01 
        </DataArray>
        <DataArray type="Float64" Name="rhov">
          9.19175088e-01 1.12187471e+00 1.06708255e+00 5.17763084e-01 
        </DataArray>
        <DataArray type="Float64" Name="E">
          3.11782320e+05 3.21571360e+05 3.33163179e+05 3.49024110e+05 
        </DataArray>
      </PointData>
    </Piece>
    <Piece NumberOfPoints="4" NumberOfCells="3">
      <Points>
        <DataArray type="Float64" NumberOfComponents="3" format="ascii">
          7.19343964e-03 -1.42731192e-02 0.00000000e+00 
4.53082798e-03 -1.12927537e-02 0.00000000e+00 
2.33371323e-03 -7.95678515e-03 0.00000000e+00 
8.10639584e-04 -4.26717056e-03 0.00000000e+00 

        </DataArray>
      </Points>
      <Cells>
        <DataArray type="Int32" Name="connectivity" format="ascii">
0 1
1 2
2 3

        </DataArray>
        <DataArray type="Int32" Name="offsets" format="ascii">
2 4 6 
        </DataArray>
        <DataArray type="UInt8" Name="types" format="ascii">
3 3 3 
        </DataArray>
      </Cells>
      <PointData>
        <DataArray type="Float64" Name="rho">
          1.49898037e+00 1.57341862e+00 1.66252234e+00 1.73124531e+00 
        </DataArray>
        <DataArray type="Float64" Name="rhou">
          7.98749875e-01 9.28514381e-01 2.57725032e-01 -1.27476542e+00 
        </DataArray>
        <DataArray type="Float64" Name="rhov">
          6.16415187e-01 -5.11059841e-01 -1.72769798e+00 -1.81541430e+00 
        </DataArray>
        <DataArray type="Float64" Name="E">
          3.49151275e+05 3.67320874e+05 3.88948042e+05 4.05651185e+05 
        </DataArray>
      </PointData>
    </Piece>
    <Piece NumberOfPoints="4" NumberOfCells="3">
      <Points>
        <DataArray type="Float64" NumberOfComponents="3" format="ascii">
          8.10639584e-04 -4.26717056e-03 0.00000000e+00 
1.91366620e-04 -3.27450951e-04 0.00000000e+00 
6.40850572e-04 3.63462302e-03 0.00000000e+00 
2.03182548e-03 7.37539819e-03 0.00000000e+00 

        </DataArray>
      </Points>
      <Cells>
        <DataArray type="Int32" Name="connectivity" format="ascii">
0 1
1 2
2 3

        </DataArray>
        <DataArray type="Int32" Name="offsets" format="ascii">
2 4 6 
        </DataArray>
        <DataArray type="UInt8" Name="types" format="ascii">
3 3 3 
        </DataArray>
      </Cells>
      <PointData>
        <DataArray type="Float64" Name="rho">
          1.72966989e+00 1.75462597e+00 1.70421070e+00 1.61175711e+00 
        </DataArray>
        <DataArray type="Float64" Name="rhou">
          -1.14925846e+00 -1.87736792e+00 -8.33980810e-01 7.51560575e-01 
        </DataArray>
        <DataArray type="Float64" Name="rhov">
          -1.97352690e+00 3.64493629e-01 1.88128746e+00 1.51339723e+00 
        </DataArray>
        <DataArray type="Float64" Name="E">
          4.05269768e+05 4.11243897e+05 3.98921137e+05 3.76343948e+05 
        </DataArray>
      </PointData>
    </Piece>
    <Piece NumberOfPoints="4" NumberOfCells="3">
      <Points>
        <DataArray type="Float64" NumberOfComponents="3" format="ascii">
          2.03182548e-03 7.37539819e-03 0.00000000e+00 
4.13410179e-03 1.07714310e-02 0.00000000e+00 
6.73249783e-03 1.38076087e-02 0.00000000e+00 
9.66598373e-03 1.65232457e-02 0.00000000e+00 

        </DataArray>
      </Points>
      <Cells>
        <DataArray type="Int32" Name="connectivity" format="ascii">
0 1
1 2
2 3

        </DataArray>
        <DataArray type="Int32" Name="offsets" format="ascii">
2 4 6 
        </DataArray>
        <DataArray type="UInt8" Name="types" format="ascii">
3 3 3 
        </DataArray>
      </Cells>
      <PointData>
        <DataArray type="Float64" Name="rho">
          1.61211959e+00 1.50499116e+00 1.41574987e+00 1.34879033e+00 
        </DataArray>
        <DataArray type="Float64" Name="rhou">
          7.23934641e-01 1.15382689e+00 8.38598730e-01 3.74295384e-01 
        </DataArray>
        <DataArray type="Float64" Name="rhov">
          1.74807185e+00 6.17376359e-02 -1.07434973e+00 -1.39839099e+00 
        </DataArray>
        <DataArray type="Float64" Name="E">
          3.76435136e+05 3.50431930e+05 3.28733608e+05 3.12371955e+05 
        </DataArray>
      </PointData>
    </Piece>
    <Piece NumberOfPoints="4" NumberOfCells="3">
      <Points>
        <DataArray type="Float64" NumberOfComponents="3" format="ascii">
          9.66598373e-03 1.65232457e-02 0.00000000e+00 
1.28298048e-02 1.89677756e-02 0.00000000e+00 
1.61561389e-02 2.11867876e-02 0.00000000e+00 
1.96009967e-02 2.32173651e-02 0.00000000e+00 

        </DataArray>
      </Points>
      <Cells>
        <DataArray type="Int32" Name="connectivity" format="ascii">
0 1
1 2
2 3

        </DataArray>
        <DataArray type="Int32" Name="offsets" format="ascii">
2 4 6 
        </DataArray>
        <DataArray type="UInt8" Name="types" format="ascii">
3 3 3 
        </DataArray>
      </Cells>
      <PointData>
        <DataArray type="Float64" Name="rho">
          1.34858501e+00 1.29611107e+00 1.25713168e+00 1.22281743e+00 
        </DataArray>
        <DataArray type="Float64" Name="rhou">
          3.83873684e-01 -1.72739320e-02 -1.98448461e-01 -2.18812775e-01 
        </DataArray>
        <DataArray type="Float64" Name="rhov">
          -1.42297504e+00 -1.31813185e+00 -9.88304642e-01 -6.63268074e-01 
        </DataArray>
        <DataArray type="Float64" Name="E">
          3.12319794e+05 2.99498629e+05 2.89925077e+05 2.81523437e+05 
        </DataArray>
      </PointData>
    </Piece>
    <Piece NumberOfPoints="4" NumberOfCells="3">
      <Points>
        <DataArray type="Float64" NumberOfComponents="3" format="ascii">
          1.96009967e-02 2.32173651e-02 0.00000000e+00 
2.31348258e-02 2.50891000e-02 0.00000000e+00 
2.67372411e-02 2.68253610e-02 0.00000000e+00 
3.03938854e-02 2.84444261e-02 0.00000000e+00 

        </DataArray>
      </Points>
      <Cells>
        <DataArray type="Int32" Name="connectivity" format="ascii">
0 1
1 2
2 3

        </DataArray>
        <DataArray type="Int32" Name="offsets" format="ascii">
2 4 6 
        </DataArray>
        <DataArray type="UInt8" Name="types" format="ascii">
3 3 3 
        </DataArray>
      </Cells>
      <PointData>
        <DataArray type="Float64" Name="rho">
          1.22288111e+00 1.19375480e+00 1.16770546e+00 1.14411451e+00 
        </DataArray>
        <DataArray type="Float64" Name="rhou">
          -2.31919285e-01 -2.18340293e-01 -1.73101780e-01 -1.30874696e-01 
        </DataArray>
        <DataArray type="Float64" Name="rhov">
          -6.81482039e-01 -4.30792245e-01 -2.44498877e-01 -1.31955604e-01 
        </DataArray>
        <DataArray type="Float64" Name="E">
          2.81538335e+05 2.74426428e+05 2.68088783e+05 2.62366321e+05 
        </DataArray>
      </PointData>
    </Piece>
    <Piece NumberOfPoints="4" NumberOfCells="3">
      <Points>
        <DataArray type="Float64" NumberOfComponents="3" format="ascii">
          3.03938854e-02 2.84444261e-02 0.00000000e+00 
3.40943485e-02 2.99607720e-02 0.00000000e+00 
3.78307216e-02 3.13864015e-02 0.00000000e+00 
4.15969416e-02 3.27312648e-02 0.00000000e+00 

        </DataArray>
      </Points>
      <Cells>
        <DataArray type="Int32" Name="connectivity" format="ascii">
0 1
1 2
2 3

        </DataArray>
        <DataArray type="Int32" Name="offsets" format="ascii">
2 4 6 
        </DataArray>
        <DataArray type="UInt8" Name="types" format="ascii">
3 3 3 
        </DataArray>
      </Cells>
      <PointData>
        <DataArray type="Float64" Name="rho">
          1.14411279e+00 1.12276721e+00 1.10337857e+00 1.08570375e+00 
        </DataArray>
        <DataArray type="Float64" Name="rhou">
          -1.29086537e-01 -8.89826104e-02 -5.62292659e-02 -3.32898955e-02 
        </DataArray>
        <DataArray type="Float64" Name="rhov">
          -1.30506385e-01 -5.44872858e-02 -7.48996787e-03 1.78507323e-02 
        </DataArray>
        <DataArray type="Float64" Name="E">
          2.62366170e+05 2.57207020e+05 2.52532153e+05 2.48278322e+05 
        </DataArray>
      </PointData>
    </Piece>
    <Piece NumberOfPoints="4" NumberOfCells="3">
      <Points>
        <DataArray type="Float64" NumberOfComponents="3" format="ascii">
          4.15969416e-02 3.27312648e-02 0.00000000e+00 
4.53883260e-02 3.40034962e-02 0.00000000e+00 
4.92011942e-02 3.52098532e-02 0.00000000e+00 
5.30325845e-02 3.63560505e-02 0.00000000e+00 

        </DataArray>
      </Points>
      <Cells>
        <DataArray type="Int32" Name="connectivity" format="ascii">
0 1
1 2
2 3

        </DataArray>
        <DataArray type="Int32" Name="offsets" format="ascii">
2 4 6 
        </DataArray>
        <DataArray type="UInt8" Name="types" format="ascii">
3 3 3 
        </DataArray>
      </Cells>
      <PointData>
        <DataArray type="Float64" Name="rho">
          1.08570431e+00 1.06955439e+00 1.05474084e+00 1.04110493e+00 
        </DataArray>
        <DataArray type="Float64" Name="rhou">
          -3.21547988e-02 -1.27497555e-02 1.66522579e-03 1.10292858e-02 
        </DataArray>
        <DataArray type="Float64" Name="rhov">
          1.77551027e-02 3.14081700e-02 3.80445054e-02 3.91870062e-02 
        </DataArray>
        <DataArray type="Float64" Name="E">
          2.48278531e+05 2.44400227e+05 2.40848374e+05 2.37583033e+05 
        </DataArray>
      </PointData>
    </Piece>
    <Piece NumberOfPoints="4" NumberOfCells="3">
      <Points>
        <DataArray type="Float64" NumberOfComponents="3" format="ascii">
          5.30325845e-02 3.63560505e-02 0.00000000e+00 
5.68800643e-02 3.74470428e-02 0.00000000e+00 
6.07415959e-02 3.84872220e-02 0.00000000e+00 
6.46155030e-02 3.94803248e-02 0.00000000e+00 

        </DataArray>
      </Points>
      <Cells>
        <DataArray type="Int32" Name="connectivity" format="ascii">
0 1
1 2
2 3

        </DataArray>
        <DataArray type="Int32" Name="offsets" format="ascii">
2 4 6 
        </DataArray>
        <DataArray type="UInt8" Name="types" format="ascii">
3 3 3 
        </DataArray>
      </Cells>
      <PointData>
        <DataArray type="Float64" Name="rho">
          1.04110562e+00 1.02855930e+00 1.01697015e+00 1.00619755e+00 
        </DataArray>
        <DataArray type="Float64" Name="rhou">
          1.13440947e-02 1.83227596e-02 2.38496453e-02 2.76706702e-02 
        </DataArray>
        <DataArray type="Float64" Name="rhov">
          3.88598563e-02 3.71865579e-02 3.51249176e-02 3.18930794e-02 
        </DataArray>
        <DataArray type="Float64" Name="E">
          2.37583190e+05 2.34582981e+05 2.31814477e+05 2.29243566e+05 
        </DataArray>
      </PointData>
    </Piece>
    <Piece NumberOfPoints="4" NumberOfCells="3">
      <Points>
        <DataArray type="Float64" NumberOfComponents="3" format="ascii">
          6.46155030e-02 3.94803248e-02 0.00000000e+00 
6.85004294e-02 4.04294394e-02 0.00000000e+00 
7.23951608e-02 4.13374715e-02 0.00000000e+00 
7.62986317e-02 4.22072113e-02 0.00000000e+00 

        </DataArray>
      </Points>
      <Cells>
        <DataArray type="Int32" Name="connectivity" format="ascii">
0 1
1 2
2 3

        </DataArray>
        <DataArray type="Int32" Name="offsets" format="ascii">
2 4 6 
        </DataArray>
        <DataArray type="UInt8" Name="types" format="ascii">
3 3 3 
        </DataArray>
      </Cells>
      <PointData>
        <DataArray type="Float64" Name="rho">
          1.00619826e+00 9.96200876e-01 9.86889143e-01 9.78207588e-01 
        </DataArray>
        <DataArray type="Float64" Name="rhou">
          2.74899677e-02 2.94268729e-02 3.05191733e-02 3.06073254e-02 
        </DataArray>
        <DataArray type="Float64" Name="rhov">
          3.15947602e-02 2.76877670e-02 2.43090252e-02 2.09990037e-02 
        </DataArray>
        <DataArray type="Float64" Name="E">
          2.29243712e+05 2.26860401e+05 2.24642370e+05 2.22575718e+05 
        </DataArray>
      </PointData>
    </Piece>
    <Piece NumberOfPoints="4" NumberOfCells="3">
      <Points>
        <DataArray type="Float64" NumberOfComponents="3" format="ascii">
          7.62986317e-02 4.22072113e-02 0.00000000e+00 
8.02098960e-02 4.30411920e-02 0.00000000e+00 
8.41281936e-02 4.38414887e-02 0.00000000e+00 
8.80528912e-02 4.46097627e-02 0.00000000e+00 

        </DataArray>
      </Points>
      <Cells>
        <DataArray type="Int32" Name="connectivity" format="ascii">
0 1
1 2
2 3

        </DataArray>
        <DataArray type="Int32" Name="offsets" format="ascii">
2 4 6 
        </DataArray>
        <DataArray type="UInt8" Name="types" format="ascii">
3 3 3 
        </DataArray>
      </Cells>
      <PointData>
        <DataArray type="Float64" Name="rho">
          9.78206643e-01 9.70109078e-01 9.62500618e-01 9.55335530e-01 
        </DataArray>
        <DataArray type="Float64" Name="rhou">
          3.04599133e-02 3.04817439e-02 3.02045760e-02 2.91395654e-02 
        </DataArray>
        <DataArray type="Float64" Name="rhov">
          2.08358479e-02 1.82751341e-02 1.57656098e-02 1.30858464e-02 
        </DataArray>
        <DataArray type="Float64" Name="E">
          2.22575481e+05 2.20649331e+05 2.18840788e+05 2.17138771e+05 
        </DataArray>
      </PointData>
    </Piece>
    <Piece NumberOfPoints="4" NumberOfCells="3">
      <Points>
        <DataArray type="Float64" NumberOfComponents="3" format="ascii">
          8.80528912e-02 4.46097627e-02 0.00000000e+00 
9.19835642e-02 4.53475714e-02 0.00000000e+00 
9.59195644e-02 4.60564308e-02 0.00000000e+00 
9.98597518e-02 4.67394181e-02 0.00000000e+00 

        </DataArray>
      </Points>
      <Cells>
        <DataArray type="Int32" Name="connectivity" format="ascii">
0 1
1 2
2 3

        </DataArray>
        <DataArray type="Int32" Name="offsets" format="ascii">
2 4 6 
        </DataArray>
        <DataArray type="UInt8" Name="types" format="ascii">
3 3 3 
        </DataArray>
      </Cells>
      <PointData>
        <DataArray type="Float64" Name="rho">
          9.55336040e-01 9.48604307e-01 9.42293312e-01 9.36303305e-01 
        </DataArray>
        <DataArray type="Float64" Name="rhou">
          2.89476164e-02 2.75237079e-02 2.40579478e-02 2.85623356e-02 
        </DataArray>
        <DataArray type="Float64" Name="rhov">
          1.32486277e-02 1.06756492e-02 9.09412201e-03 8.59626860e-03 
        </DataArray>
        <DataArray type="Float64" Name="E">
          2.17138890e+05 2.15541023e+05 2.14043450e+05 2.12623072e+05 
        </DataArray>
      </PointData>
    </Piece>
    <Piece NumberOfPoints="4" NumberOfCells="3">
      <Points>
        <DataArray type="Float64" NumberOfComponents="3" format="ascii">
          9.98597518e-02 4.67394181e-02 0.00000000e+00 
1.10118888e-01 4.83862534e-02 0.00000000e+00 
1.20400399e-01 4.98730615e-02 0.00000000e+00 
1.30701363e-01 5.12186773e-02 0.00000000e+00 

        </DataArray>
      </Points>
      <Cells>
        <DataArray type="Int32" Name="connectivity" format="ascii">
0 1
1 2
2 3

        </DataArray>
        <DataArray type="Int32" Name="offsets" format="ascii">
2 4 6 
        </DataArray>
        <DataArray type="UInt8" Name="types" format="ascii">
3 3 3 
        </DataArray>
      </Cells>
      <PointData>
        <DataArray type="Float64" Name="rho">
          9.36230745e-01 9.22258532e-01 9.10203817e-01 8.99840148e-01 
        </DataArray>
        <DataArray type="Float64" Name="rhou">
          2.62962236e-02 1.81344243e-02 1.60069995e-02 1.25481817e-02 
        </DataArray>
        <DataArray type="Float64" Name="rhov">
          7.36469802e-03 4.14143165e-03 3.63342545e-03 2.96415744e-03 
        </DataArray>
        <DataArray type="Float64" Name="E">
          2.12606686e+05 2.09297394e+05 2.06445625e+05 2.03996422e+05 
        </DataArray>
      </PointData>
    </Piece>
    <Piece NumberOfPoints="4" NumberOfCells="3">
      <Points>
        <DataArray type="Float64" NumberOfComponents="3" format="ascii">
          1.30701363e-01 5.12186773e-02 0.00000000e+00 
1.41019106e-01 5.24347536e-02 0.00000000e+00 
1.51350453e-01 5.35292812e-02 0.00000000e+00 
1.61692888e-01 5.45137413e-02 0.00000000e+00 

        </DataArray>
      </Points>
      <Cells>
        <DataArray type="Int32" Name="connectivity" format="ascii">
0 1
1 2
2 3

        </DataArray>
        <DataArray type="Int32" Name="offsets" format="ascii">
2 4 6 
        </DataArray>
        <DataArray type="UInt8" Name="types" format="ascii">
3 3 3 
        </DataArray>
      </Cells>
      <PointData>
        <DataArray type="Float64" Name="rho">
          8.99836665e-01 8.90737420e-01 8.82878121e-01 8.76150541e-01 
        </DataArray>
        <DataArray type="Float64" Name="rhou">
          1.39263262e-02 1.20319582e-02 9.96045116e-03 8.69675098e-03 
        </DataArray>
        <DataArray type="Float64" Name="rhov">
          3.46192660e-03 2.53947435e-03 1.76522812e-03 1.59041535e-03 
        </DataArray>
        <DataArray type="Float64" Name="E">
          2.03995586e+05 2.01848461e+05 1.99996212e+05 1.98412247e+05 
        </DataArray>
      </PointData>
    </Piece>
    <Piece NumberOfPoints="4" NumberOfCells="3">
      <Points>
        <DataArray type="Float64" NumberOfComponents="3" format="ascii">
          1.61692888e-01 5.45137413e-02 0.00000000e+00 
1.72044471e-01 5.53969070e-02 0.00000000e+00 
1.82403773e-01 5.61845005e-02 0.00000000e+00 
1.92769483e-01 5.68825118e-02 0.00000000e+00 

        </DataArray>
      </Points>
      <Cells>
        <DataArray type="Int32" Name="connectivity" format="ascii">
0 1
1 2
2 3

        </DataArray>
        <DataArray type="Int32" Name="offsets" format="ascii">
2 4 6 
        </DataArray>
        <DataArray type="UInt8" Name="types" format="ascii">
3 3 3 
        </DataArray>
      </Cells>
      <PointData>
        <DataArray type="Float64" Name="rho">
          8.76148140e-01 8.70357358e-01 8.65412843e-01 8.61262033e-01 
        </DataArray>
        <DataArray type="Float64" Name="rhou">
          8.73337194e-03 7.60359426e-03 6.57057068e-03 5.66926716e-03 
        </DataArray>
        <DataArray type="Float64" Name="rhov">
          1.64189239e-03 1.27904618e-03 9.02338876e-04 6.74562380e-04 
        </DataArray>
        <DataArray type="Float64" Name="E">
          1.98411709e+05 1.97050099e+05 1.95889333e+05 1.94916478e+05 
        </DataArray>
      </PointData>
    </Piece>
    <Piece NumberOfPoints="4" NumberOfCells="3">
      <Points>
        <DataArray type="Float64" NumberOfComponents="3" format="ascii">
          1.92769483e-01 5.68825118e-02 0.00000000e+00 
2.03140482e-01 5.74972220e-02 0.00000000e+00 
2.13515818e-01 5.80338500e-02 0.00000000e+00 
2.23894730e-01 5.84962890e-02 0.00000000e+00 

        </DataArray>
      </Points>
      <Cells>
        <DataArray type="Int32" Name="connectivity" format="ascii">
0 1
1 2
2 3

        </DataArray>
        <DataArray type="Int32" Name="offsets" format="ascii">
2 4 6 
        </DataArray>
        <DataArray type="UInt8" Name="types" format="ascii">
3 3 3 
        </DataArray>
      </Cells>
      <PointData>
        <DataArray type="Float64" Name="rho">
          8.61261345e-01 8.57824631e-01 8.55018089e-01 8.52783493e-01 
        </DataArray>
        <DataArray type="Float64" Name="rhou">
          5.70578697e-03 4.98527804e-03 4.42962580e-03 3.96977823e-03 
        </DataArray>
        <DataArray type="Float64" Name="rhov">
          7.15776986e-04 6.26832277e-04 5.11946219e-04 3.89667207e-04 
        </DataArray>
        <DataArray type="Float64" Name="E">
          1.94916320e+05 1.94112300e+05 1.93457374e+05 1.92937689e+05 
        </DataArray>
      </PointData>
    </Piece>
    <Piece NumberOfPoints="4" NumberOfCells="3">
      <Points>
        <DataArray type="Float64" NumberOfComponents="3" format="ascii">
          2.23894730e-01 5.84962890e-02 0.00000000e+00 
2.34276548e-01 5.88882305e-02 0.00000000e+00 
2.44660646e-01 5.92139624e-02 0.00000000e+00 
2.55046517e-01 5.94772622e-02 0.00000000e+00 

        </DataArray>
      </Points>
      <Cells>
        <DataArray type="Int32" Name="connectivity" format="ascii">
0 1
1 2
2 3

        </DataArray>
        <DataArray type="Int32" Name="offsets" format="ascii">
2 4 6 
        </DataArray>
        <DataArray type="UInt8" Name="types" format="ascii">
3 3 3 
        </DataArray>
      </Cells>
      <PointData>
        <DataArray type="Float64" Name="rho">
          8.52784062e-01 8.51079216e-01 8.49859674e-01 8.49070104e-01 
        </DataArray>
        <DataArray type="Float64" Name="rhou">
          3.97739086e-03 3.45694315e-03 3.07944889e-03 2.85032144e-03 
        </DataArray>
        <DataArray type="Float64" Name="rhov">
          4.03987140e-04 3.26531657e-04 3.09575551e-04 3.08291494e-04 
        </DataArray>
        <DataArray type="Float64" Name="E">
          1.92937819e+05 1.92543198e+05 1.92263039e+05 1.92084305e+05 
        </DataArray>
      </PointData>
    </Piece>
    <Piece NumberOfPoints="4" NumberOfCells="3">
      <Points>
        <DataArray type="Float64" NumberOfComponents="3" format="ascii">
          2.55046517e-01 5.94772622e-02 0.00000000e+00 
2.65433758e-01 5.96804135e-02 0.00000000e+00 
2.75821954e-01 5.98256700e-02 0.00000000e+00 
2.86210775e-01 5.99167012e-02 0.00000000e+00 

        </DataArray>
      </Points>
      <Cells>
        <DataArray type="Int32" Name="connectivity" format="ascii">
0 1
1 2
2 3

        </DataArray>
        <DataArray type="Int32" Name="offsets" format="ascii">
2 4 6 
        </DataArray>
        <DataArray type="UInt8" Name="types" format="ascii">
3 3 3 
        </DataArray>
      </Cells>
      <PointData>
        <DataArray type="Float64" Name="rho">
          8.49070115e-01 8.48662256e-01 8.48611432e-01 8.48897242e-01 
        </DataArray>
        <DataArray type="Float64" Name="rhou">
          2.84463782e-03 2.55843111e-03 2.26529889e-03 2.00250840e-03 
        </DataArray>
        <DataArray type="Float64" Name="rhov">
          3.19539861e-04 2.24657361e-04 1.66759108e-04 2.00471652e-04 
        </DataArray>
        <DataArray type="Float64" Name="E">
          1.92084311e+05 1.91995655e+05 1.91991162e+05 1.92065815e+05 
        </DataArray>
      </PointData>
    </Piece>
    <Piece NumberOfPoints="4" NumberOfCells="3">
      <Points>
        <DataArray type="Float64" NumberOfComponents="3" format="ascii">
          2.86210775e-01 5.99167012e-02 0.00000000e+00 
2.96599895e-01 5.99572174e-02 0.00000000e+00 
3.06989133e-01 5.99487796e-02 0.00000000e+00 
3.17378193e-01 5.98919280e-02 0.00000000e+00 

        </DataArray>
      </Points>
      <Cells>
        <DataArray type="Int32" Name="connectivity" format="ascii">
0 1
1 2
2 3

        </DataArray>
        <DataArray type="Int32" Name="offsets" format="ascii">
2 4 6 
        </DataArray>
        <DataArray type="UInt8" Name="types" format="ascii">
3 3 3 
        </DataArray>
      </Cells>
      <PointData>
        <DataArray type="Float64" Name="rho">
          8.48896224e-01 8.49469600e-01 8.50283764e-01 8.51323611e-01 
        </DataArray>
        <DataArray type="Float64" Name="rhou">
          2.02128766e-03 1.90606627e-03 1.77996832e-03 1.59876272e-03 
        </DataArray>
        <DataArray type="Float64" Name="rhov">
          2.16748052e-04 2.43931825e-04 1.90021481e-04 1.16088045e-04 
        </DataArray>
        <DataArray type="Float64" Name="E">
          1.92065583e+05 1.92207863e+05 1.92406952e+05 1.92659220e+05 
        </DataArray>
      </PointData>
    </Piece>
    <Piece NumberOfPoints="4" NumberOfCells="3">
      <Points>
        <DataArray type="Float64" NumberOfComponents="3" format="ascii">
          3.17378193e-01 5.98919280e-02 0.00000000e+00 
3.27766895e-01 5.97884916e-02 0.00000000e+00 
3.38155061e-01 5.96415885e-02 0.00000000e+00 
3.48542601e-01 5.94538599e-02 0.00000000e+00 

        </DataArray>
      </Points>
      <Cells>
        <DataArray type="Int32" Name="connectivity" format="ascii">
0 1
1 2
2 3

        </DataArray>
        <DataArray type="Int32" Name="offsets" format="ascii">
2 4 6 
        </DataArray>
        <DataArray type="UInt8" Name="types" format="ascii">
3 3 3 
        </DataArray>
      </Cells>
      <PointData>
        <DataArray type="Float64" Name="rho">
          8.51323956e-01 8.52576723e-01 8.54022165e-01 8.55627429e-01 
        </DataArray>
        <DataArray type="Float64" Name="rhou">
          1.62806441e-03 1.43275218e-03 1.31631600e-03 1.26973169e-03 
        </DataArray>
        <DataArray type="Float64" Name="rhov">
          1.23704299e-04 1.12482104e-04 1.38075905e-04 1.58637986e-04 
        </DataArray>
        <DataArray type="Float64" Name="E">
          1.92659298e+05 1.92961623e+05 1.93309182e+05 1.93694310e+05 
        </DataArray>
      </PointData>
    </Piece>
    <Piece NumberOfPoints="4" NumberOfCells="3">
      <Points>
        <DataArray type="Float64" NumberOfComponents="3" format="ascii">
          3.48542601e-01 5.94538599e-02 0.00000000e+00 
3.58929336e-01 5.92265576e-02 0.00000000e+00 
3.69315147e-01 5.89610897e-02 0.00000000e+00 
3.79699975e-01 5.86590059e-02 0.00000000e+00 

        </DataArray>
      </Points>
      <Cells>
        <DataArray type="Int32" Name="connectivity" format="ascii">
0 1
1 2
2 3

        </DataArray>
        <DataArray type="Int32" Name="offsets" format="ascii">
2 4 6 
        </DataArray>
        <DataArray type="UInt8" Name="types" format="ascii">
3 3 3 
        </DataArray>
      </Cells>
      <PointData>
        <DataArray type="Float64" Name="rho">
          8.55627674e-01 8.57367262e-01 8.59231420e-01 8.61200232e-01 
        </DataArray>
        <DataArray type="Float64" Name="rhou">
          1.28199751e-03 1.15844505e-03 1.06494786e-03 1.01680904e-03 
        </DataArray>
        <DataArray type="Float64" Name="rhov">
          1.55571810e-04 1.19740344e-04 1.12366941e-04 1.10812901e-04 
        </DataArray>
        <DataArray type="Float64" Name="E">
          1.93694366e+05 1.94111106e+05 1.94557098e+05 1.95027688e+05 
        </DataArray>
      </PointData>
    </Piece>
    <Piece NumberOfPoints="4" NumberOfCells="3">
      <Points>
        <DataArray type="Float64" NumberOfComponents="3" format="ascii">
          3.79699975e-01 5.86590059e-02 0.00000000e+00 
3.90083700e-01 5.83211333e-02 0.00000000e+00 
4.00466233e-01 5.79482466e-02 0.00000000e+00 
4.10847515e-01 5.75418957e-02 0.00000000e+00 

        </DataArray>
      </Points>
      <Cells>
        <DataArray type="Int32" Name="connectivity" format="ascii">
0 1
1 2
2 3

        </DataArray>
        <DataArray type="Int32" Name="offsets" format="ascii">
2 4 6 
        </DataArray>
        <DataArray type="UInt8" Name="types" format="ascii">
3 3 3 
        </DataArray>
      </Cells>
      <PointData>
        <DataArray type="Float64" Name="rho">
          8.61200244e-01 8.63256792e-01 8.65391085e-01 8.67596482e-01 
        </DataArray>
        <DataArray type="Float64" Name="rhou">
          1.00916277e-03 9.45070577e-04 8.66636627e-04 7.90953488e-04 
        </DataArray>
        <DataArray type="Float64" Name="rhov">
          1.13234355e-04 8.31102908e-05 6.04514202e-05 6.57889720e-05 
        </DataArray>
        <DataArray type="Float64" Name="E">
          1.95027691e+05 1.95518927e+05 1.96028447e+05 1.96554638e+05 
        </DataArray>
      </PointData>
    </Piece>
    <Piece NumberOfPoints="4" NumberOfCells="3">
      <Points>
        <DataArray type="Float64" NumberOfComponents="3" format="ascii">
          4.10847515e-01 5.75418957e-02 0.00000000e+00 
4.21227485e-01 5.71038015e-02 0.00000000e+00 
4.31606144e-01 5.66351078e-02 0.00000000e+00 
4.41983402e-01 5.61364293e-02 0.00000000e+00 

        </DataArray>
      </Points>
      <Cells>
        <DataArray type="Int32" Name="connectivity" format="ascii">
0 1
1 2
2 3

        </DataArray>
        <DataArray type="Int32" Name="offsets" format="ascii">
2 4 6 
        </DataArray>
        <DataArray type="UInt8" Name="types" format="ascii">
3 3 3 
        </DataArray>
      </Cells>
      <PointData>
        <DataArray type="Float64" Name="rho">
          8.67596282e-01 8.69857143e-01 8.72161764e-01 8.74500421e-01 
        </DataArray>
        <DataArray type="Float64" Name="rhou">
          8.07407207e-04 7.55965432e-04 7.16971410e-04 6.79893588e-04 
        </DataArray>
        <DataArray type="Float64" Name="rhov">
          6.91985292e-05 6.93230242e-05 5.98054392e-05 3.89486253e-05 
        </DataArray>
        <DataArray type="Float64" Name="E">
          1.96554592e+05 1.97093803e+05 1.97643303e+05 1.98200818e+05 
        </DataArray>
      </PointData>
    </Piece>
    <Piece NumberOfPoints="4" NumberOfCells="3">
      <Points>
        <DataArray type="Float64" NumberOfComponents="3" format="ascii">
          4.41983402e-01 5.61364293e-02 0.00000000e+00 
4.52359200e-01 5.56085743e-02 0.00000000e+00 
4.62733537e-01 5.50529286e-02 0.00000000e+00 
4.73106444e-01 5.44707514e-02 0.00000000e+00 

        </DataArray>
      </Points>
      <Cells>
        <DataArray type="Int32" Name="connectivity" format="ascii">
0 1
1 2
2 3

        </DataArray>
        <DataArray type="Int32" Name="offsets" format="ascii">
2 4 6 
        </DataArray>
        <DataArray type="UInt8" Name="types" format="ascii">
3 3 3 
        </DataArray>
      </Cells>
      <PointData>
        <DataArray type="Float64" Name="rho">
          8.74500562e-01 8.76868739e-01 8.79259921e-01 8.81665589e-01 
        </DataArray>
        <DataArray type="Float64" Name="rhou">
          6.76911815e-04 6.21263430e-04 5.81402506e-04 5.57907889e-04 
        </DataArray>
        <DataArray type="Float64" Name="rhov">
          3.95924648e-05 3.22477907e-05 3.27382553e-05 3.29777702e-05 
        </DataArray>
        <DataArray type="Float64" Name="E">
          1.98200851e+05 1.98765291e+05 1.99335116e+05 1.99908337e+05 
        </DataArray>
      </PointData>
    </Piece>
    <Piece NumberOfPoints="4" NumberOfCells="3">
      <Points>
        <DataArray type="Float64" NumberOfComponents="3" format="ascii">
          4.73106444e-01 5.44707514e-02 0.00000000e+00 
4.83477861e-01 5.38627952e-02 0.00000000e+00 
4.93847787e-01 5.32294959e-02 0.00000000e+00 
5.04216135e-01 5.25716618e-02 0.00000000e+00 

        </DataArray>
      </Points>
      <Cells>
        <DataArray type="Int32" Name="connectivity" format="ascii">
0 1
1 2
2 3

        </DataArray>
        <DataArray type="Int32" Name="offsets" format="ascii">
2 4 6 
        </DataArray>
        <DataArray type="UInt8" Name="types" format="ascii">
3 3 3 
        </DataArray>
      </Cells>
      <PointData>
        <DataArray type="Float64" Name="rho">
          8.81665576e-01 8.84078832e-01 8.86494260e-01 8.88910680e-01 
        </DataArray>
        <DataArray type="Float64" Name="rhou">
          5.50372966e-04 5.29423418e-04 4.94434985e-04 4.52966175e-04 
        </DataArray>
        <DataArray type="Float64" Name="rhov">
          3.47754986e-05 2.35220881e-05 8.85100943e-06 6.30023192e-06 
        </DataArray>
        <DataArray type="Float64" Name="E">
          1.99908335e+05 2.00483342e+05 2.01058869e+05 2.01634611e+05 
        </DataArray>
      </PointData>
    </Piece>
    <Piece NumberOfPoints="4" NumberOfCells="3">
      <Points>
        <DataArray type="Float64" NumberOfComponents="3" format="ascii">
          5.04216135e-01 5.25716618e-02 0.00000000e+00 
5.14582992e-01 5.18903993e-02 0.00000000e+00 
5.24948359e-01 5.11864908e-02 0.00000000e+00 
5.35312176e-01 5.04603274e-02 0.00000000e+00 

        </DataArray>
      </Points>
      <Cells>
        <DataArray type="Int32" Name="connectivity" format="ascii">
0 1
1 2
2 3

        </DataArray>
        <DataArray type="Int32" Name="offsets" format="ascii">
2 4 6 
        </DataArray>
        <DataArray type="UInt8" Name="types" format="ascii">
3 3 3 
        </DataArray>
      </Cells>
      <PointData>
        <DataArray type="Float64" Name="rho">
          8.88910595e-01 8.91322565e-01 8.93725594e-01 8.96116172e-01 
        </DataArray>
        <DataArray type="Float64" Name="rhou">
          4.61427278e-04 4.35465434e-04 4.15832922e-04 3.96548204e-04 
        </DataArray>
        <DataArray type="Float64" Name="rhov">
          8.44596818e-06 8.10390001e-06 2.77917622e-06 -8.88616727e-06 
        </DataArray>
        <DataArray type="Float64" Name="E">
          2.01634592e+05 2.02209279e+05 2.02781864e+05 2.03351528e+05 
        </DataArray>
      </PointData>
    </Piece>
    <Piece NumberOfPoints="4" NumberOfCells="3">
      <Points>
        <DataArray type="Float64" NumberOfComponents="3" format="ascii">
          5.35312176e-01 5.04603274e-02 0.00000000e+00 
5.45674443e-01 4.97124642e-02 0.00000000e+00 
5.56035221e-01 4.89437394e-02 0.00000000e+00 
5.66394389e-01 4.81546782e-02 0.00000000e+00 

        </DataArray>
      </Points>
      <Cells>
        <DataArray type="Int32" Name="connectivity" format="ascii">
0 1
1 2
2 3

        </DataArray>
        <DataArray type="Int32" Name="offsets" format="ascii">
2 4 6 
        </DataArray>
        <DataArray type="UInt8" Name="types" format="ascii">
3 3 3 
        </DataArray>
      </Cells>
      <PointData>
        <DataArray type="Float64" Name="rho">
          8.96116217e-01 8.98493630e-01 9.00854938e-01 9.03197261e-01 
        </DataArray>
        <DataArray type="Float64" Name="rhou">
          3.92330758e-04 3.66155711e-04 3.47893121e-04 3.36177775e-04 
        </DataArray>
        <DataArray type="Float64" Name="rhov">
          -8.60091397e-06 -9.30575963e-06 -1.00189754e-05 -1.41939596e-05 
        </DataArray>
        <DataArray type="Float64" Name="E">
          2.03351538e+05 2.03918096e+05 2.04480862e+05 2.05039165e+05 
        </DataArray>
      </PointData>
    </Piece>
    <Piece NumberOfPoints="4" NumberOfCells="3">
      <Points>
        <DataArray type="Float64" NumberOfComponents="3" format="ascii">
          5.66394389e-01 4.81546782e-02 0.00000000e+00 
5.76752067e-01 4.73455116e-02 0.00000000e+00 
5.87108195e-01 4.65166979e-02 0.00000000e+00 
5.97462773e-01 4.56690118e-02 0.00000000e+00 

        </DataArray>
      </Points>
      <Cells>
        <DataArray type="Int32" Name="connectivity" format="ascii">
0 1
1 2
2 3

        </DataArray>
        <DataArray type="Int32" Name="offsets" format="ascii">
2 4 6 
        </DataArray>
        <DataArray type="UInt8" Name="types" format="ascii">
3 3 3 
        </DataArray>
      </Cells>
      <PointData>
        <DataArray type="Float64" Name="rho">
          9.03197290e-01 9.05518928e-01 9.07819527e-01 9.10098171e-01 
        </DataArray>
        <DataArray type="Float64" Name="rhou">
          3.35499801e-04 3.15366549e-04 2.94563385e-04 2.78719828e-04 
        </DataArray>
        <DataArray type="Float64" Name="rhov">
          -1.38583991e-05 -2.23513330e-05 -2.58323060e-05 -2.46524807e-05 
        </DataArray>
        <DataArray type="Float64" Name="E">
          2.05039172e+05 2.05592614e+05 2.06141103e+05 2.06684416e+05 
        </DataArray>
      </PointData>
    </Piece>
    <Piece NumberOfPoints="4" NumberOfCells="3">
      <Points>
        <DataArray type="Float64" NumberOfComponents="3" format="ascii">
          5.97462773e-01 4.56690118e-02 0.00000000e+00 
6.07815862e-01 4.48031016e-02 0.00000000e+00 
6.18167400e-01 4.39192392e-02 0.00000000e+00 
6.28517449e-01 4.30175588e-02 0.00000000e+00 

        </DataArray>
      </Points>
      <Cells>
        <DataArray type="Int32" Name="connectivity" format="ascii">
0 1
1 2
2 3

        </DataArray>
        <DataArray type="Int32" Name="offsets" format="ascii">
2 4 6 
        </DataArray>
        <DataArray type="UInt8" Name="types" format="ascii">
3 3 3 
        </DataArray>
      </Cells>
      <PointData>
        <DataArray type="Float64" Name="rho">
          9.10098109e-01 9.12352909e-01 9.14582067e-01 9.16785724e-01 
        </DataArray>
        <DataArray type="Float64" Name="rhou">
          2.76819379e-04 2.68254348e-04 2.56445244e-04 2.39493724e-04 
        </DataArray>
        <DataArray type="Float64" Name="rhov">
          -2.37388836e-05 -2.42034023e-05 -2.97123784e-05 -3.49732919e-05 
        </DataArray>
        <DataArray type="Float64" Name="E">
          2.06684402e+05 2.07222102e+05 2.07753773e+05 2.08279439e+05 
        </DataArray>
      </PointData>
    </Piece>
    <Piece NumberOfPoints="4" NumberOfCells="3">
      <Points>
        <DataArray type="Float64" NumberOfComponents="3" format="ascii">
          6.28517449e-01 4.30175588e-02 0.00000000e+00 
6.38865948e-01 4.20984775e-02 0.00000000e+00 
6.49212897e-01 4.11624312e-02 0.00000000e+00 
6.59558356e-01 4.02097441e-02 0.00000000e+00 

        </DataArray>
      </Points>
      <Cells>
        <DataArray type="Int32" Name="connectivity" format="ascii">
0 1
1 2
2 3

        </DataArray>
        <DataArray type="Int32" Name="offsets" format="ascii">
2 4 6 
        </DataArray>
        <DataArray type="UInt8" Name="types" format="ascii">
3 3 3 
        </DataArray>
      </Cells>
      <PointData>
        <DataArray type="Float64" Name="rho">
          9.16785716e-01 9.18963670e-01 9.21115085e-01 9.23239643e-01 
        </DataArray>
        <DataArray type="Float64" Name="rhou">
          2.40452562e-04 2.27920183e-04 2.17194282e-04 2.05673855e-04 
        </DataArray>
        <DataArray type="Float64" Name="rhov">
          -3.39718497e-05 -3.46555554e-05 -3.64687609e-05 -3.86539771e-05 
        </DataArray>
        <DataArray type="Float64" Name="E">
          2.08279437e+05 2.08799048e+05 2.09312405e+05 2.09819434e+05 
        </DataArray>
      </PointData>
    </Piece>
    <Piece NumberOfPoints="4" NumberOfCells="3">
      <Points>
        <DataArray type="Float64" NumberOfComponents="3" format="ascii">
          6.59558356e-01 4.02097441e-02 0.00000000e+00 
6.69902325e-01 3.92407738e-02 0.00000000e+00 
6.80244744e-01 3.82556282e-02 0.00000000e+00 
6.90585554e-01 3.72543521e-02 0.00000000e+00 

        </DataArray>
      </Points>
      <Cells>
        <DataArray type="Int32" Name="connectivity" format="ascii">
0 1
1 2
2 3

        </DataArray>
        <DataArray type="Int32" Name="offsets" format="ascii">
2 4 6 
        </DataArray>
        <DataArray type="UInt8" Name="types" format="ascii">
3 3 3 
        </DataArray>
      </Cells>
      <PointData>
        <DataArray type="Float64" Name="rho">
          9.23239627e-01 9.25337321e-01 9.27407030e-01 9.29449533e-01 
        </DataArray>
        <DataArray type="Float64" Name="rhou">
          2.02533107e-04 1.97652440e-04 1.89244891e-04 1.74980111e-04 
        </DataArray>
        <DataArray type="Float64" Name="rhov">
          -3.76383235e-05 -3.76239235e-05 -4.19925169e-05 -4.55577881e-05 
        </DataArray>
        <DataArray type="Float64" Name="E">
          2.09819430e+05 2.10320124e+05 2.10814224e+05 2.11301905e+05 
        </DataArray>
      </PointData>
    </Piece>
    <Piece NumberOfPoints="4" NumberOfCells="3">
      <Points>
        <DataArray type="Float64" NumberOfComponents="3" format="ascii">
          6.90585554e-01 3.72543521e-02 0.00000000e+00 
7.00924933e-01 3.62373814e-02 0.00000000e+00 
7.11262703e-01 3.52048986e-02 0.00000000e+00 
7.21598923e-01 3.41568366e-02 0.00000000e+00 

        </DataArray>
      </Points>
      <Cells>
        <DataArray type="Int32" Name="connectivity" format="ascii">
0 1
1 2
2 3

        </DataArray>
        <DataArray type="Int32" Name="offsets" format="ascii">
2 4 6 
        </DataArray>
        <DataArray type="UInt8" Name="types" format="ascii">
3 3 3 
        </DataArray>
      </Cells>
      <PointData>
        <DataArray type="Float64" Name="rho">
          9.29449491e-01 9.31465184e-01 9.33452904e-01 9.35413284e-01 
        </DataArray>
        <DataArray type="Float64" Name="rhou">
          1.73643317e-04 1.68727170e-04 1.63634836e-04 1.50971023e-04 
        </DataArray>
        <DataArray type="Float64" Name="rhov">
          -4.44613726e-05 -4.20266996e-05 -4.52757289e-05 -4.98953284e-05 
        </DataArray>
        <DataArray type="Float64" Name="E">
          2.11301896e+05 2.11783243e+05 2.12257991e+05 2.12726279e+05 
        </DataArray>
      </PointData>
    </Piece>
    <Piece NumberOfPoints="4" NumberOfCells="3">
      <Points>
        <DataArray type="Float64" NumberOfComponents="3" format="ascii">
          7.21598923e-01 3.41568366e-02 0.00000000e+00 
7.31933594e-01 3.30936089e-02 0.00000000e+00 
7.42266715e-01 3.20154354e-02 0.00000000e+00 
7.52598286e-01 3.09220124e-02 0.00000000e+00 

        </DataArray>
      </Points>
      <Cells>
        <DataArray type="Int32" Name="connectivity" format="ascii">
0 1
1 2
2 3

        </DataArray>
        <DataArray type="Int32" Name="offsets" format="ascii">
2 4 6 
        </DataArray>
        <DataArray type="UInt8" Name="types" format="ascii">
3 3 3 
        </DataArray>
      </Cells>
      <PointData>
        <DataArray type="Float64" Name="rho">
          9.35413264e-01 9.37347313e-01 9.39253734e-01 9.41133047e-01 
        </DataArray>
        <DataArray type="Float64" Name="rhou">
          1.48412078e-04 1.44389690e-04 1.41561561e-04 1.31540471e-04 
        </DataArray>
        <DataArray type="Float64" Name="rhov">
          -4.89478702e-05 -4.45889981e-05 -4.67985123e-05 -5.17592832e-05 
        </DataArray>
        <DataArray type="Float64" Name="E">
          2.12726274e+05 2.13188329e+05 2.13643853e+05 2.14092961e+05 
        </DataArray>
      </PointData>
    </Piece>
    <Piece NumberOfPoints="4" NumberOfCells="3">
      <Points>
        <DataArray type="Float64" NumberOfComponents="3" format="ascii">
          7.52598286e-01 3.09220124e-02 0.00000000e+00 
7.62928188e-01 2.98135038e-02 0.00000000e+00 
7.73256481e-01 2.86899786e-02 0.00000000e+00 
7.83583105e-01 2.75512449e-02 0.00000000e+00 

        </DataArray>
      </Points>
      <Cells>
        <DataArray type="Int32" Name="connectivity" format="ascii">
0 1
1 2
2 3

        </DataArray>
        <DataArray type="Int32" Name="offsets" format="ascii">
2 4 6 
        </DataArray>
        <DataArray type="UInt8" Name="types" format="ascii">
3 3 3 
        </DataArray>
      </Cells>
      <PointData>
        <DataArray type="Float64" Name="rho">
          9.41133042e-01 9.42986374e-01 9.44812961e-01 9.46613499e-01 
        </DataArray>
        <DataArray type="Float64" Name="rhou">
          1.29063961e-04 1.25431131e-04 1.21661510e-04 1.12609307e-04 
        </DataArray>
        <DataArray type="Float64" Name="rhov">
          -5.08679188e-05 -4.86310240e-05 -5.07474068e-05 -5.38597710e-05 
        </DataArray>
        <DataArray type="Float64" Name="E">
          2.14092960e+05 2.14535907e+05 2.14972513e+05 2.15402932e+05 
        </DataArray>
      </PointData>
    </Piece>
    <Piece NumberOfPoints="4" NumberOfCells="3">
      <Points>
        <DataArray type="Float64" NumberOfComponents="3" format="ascii">
          7.83583105e-01 2.75512449e-02 0.00000000e+00 
7.93908060e-01 2.63975188e-02 0.00000000e+00 
8.04231405e-01 2.52291560e-02 0.00000000e+00 
8.14553022e-01 2.40457114e-02 0.00000000e+00 

        </DataArray>
      </Points>
      <Cells>
        <DataArray type="Int32" Name="connectivity" format="ascii">
0 1
1 2
2 3

        </DataArray>
        <DataArray type="Int32" Name="offsets" format="ascii">
2 4 6 
        </DataArray>
        <DataArray type="UInt8" Name="types" format="ascii">
3 3 3 
        </DataArray>
      </Cells>
      <PointData>
        <DataArray type="Float64" Name="rho">
          9.46613505e-01 9.48388749e-01 9.50138644e-01 9.51862596e-01 
        </DataArray>
        <DataArray type="Float64" Name="rhou">
          1.15094256e-04 1.04868596e-04 1.03856699e-04 1.04821655e-04 
        </DataArray>
        <DataArray type="Float64" Name="rhov">
          -5.41979233e-05 -5.06458142e-05 -4.94447342e-05 -5.56415854e-05 
        </DataArray>
        <DataArray type="Float64" Name="E">
          2.15402934e+05 2.15827334e+05 2.16245695e+05 2.16657877e+05 
        </DataArray>
      </PointData>
    </Piece>
    <Piece NumberOfPoints="4" NumberOfCells="3">
      <Points>
        <DataArray type="Float64" NumberOfComponents="3" format="ascii">
          8.14553022e-01 2.40457114e-02 0.00000000e+00 
8.24872792e-01 2.28467938e-02 0.00000000e+00 
8.35190892e-01 2.16327831e-02 0.00000000e+00 
8.45507145e-01 2.04038676e-02 0.00000000e+00 

        </DataArray>
      </Points>
      <Cells>
        <DataArray type="Int32" Name="connectivity" format="ascii">
0 1
1 2
2 3

        </DataArray>
        <DataArray type="Int32" Name="offsets" format="ascii">
2 4 6 
        </DataArray>
        <DataArray type="UInt8" Name="types" format="ascii">
3 3 3 
        </DataArray>
      </Cells>
      <PointData>
        <DataArray type="Float64" Name="rho">
          9.51862638e-01 9.53562266e-01 9.55237867e-01 9.56889603e-01 
        </DataArray>
        <DataArray type="Float64" Name="rhou">
          9.91923273e-05 9.13809479e-05 8.48277696e-05 8.55226709e-05 
        </DataArray>
        <DataArray type="Float64" Name="rhov">
          -5.59024226e-05 -5.58061555e-05 -5.31455295e-05 -4.95154105e-05 
        </DataArray>
        <DataArray type="Float64" Name="E">
          2.16657886e+05 2.17064248e+05 2.17464847e+05 2.17859709e+05 
        </DataArray>
      </PointData>
    </Piece>
    <Piece NumberOfPoints="4" NumberOfCells="3">
      <Points>
        <DataArray type="Float64" NumberOfComponents="3" format="ascii">
          8.45507145e-01 2.04038676e-02 0.00000000e+00 
8.55821550e-01 1.91591792e-02 0.00000000e+00 
8.66134048e-01 1.78987328e-02 0.00000000e+00 
8.76444638e-01 1.66228991e-02 0.00000000e+00 

        </DataArray>
      </Points>
      <Cells>
        <DataArray type="Int32" Name="connectivity" format="ascii">
0 1
1 2
2 3

        </DataArray>
        <DataArray type="Int32" Name="offsets" format="ascii">
2 4 6 
        </DataArray>
        <DataArray type="UInt8" Name="types" format="ascii">
3 3 3 
        </DataArray>
      </Cells>
      <PointData>
        <DataArray type="Float64" Name="rho">
          9.56889709e-01 9.58516328e-01 9.60121529e-01 9.61702031e-01 
        </DataArray>
        <DataArray type="Float64" Name="rhou">
          1.05715923e-04 7.60214287e-05 7.48366463e-05 9.02709075e-05 
        </DataArray>
        <DataArray type="Float64" Name="rhov">
          -5.29957067e-05 -6.00495958e-05 -5.77207915e-05 -7.47591703e-05 
        </DataArray>
        <DataArray type="Float64" Name="E">
          2.17859733e+05 2.18248562e+05 2.18632182e+05 2.19009834e+05 
        </DataArray>
      </PointData>
    </Piece>
    <Piece NumberOfPoints="4" NumberOfCells="3">
      <Points>
        <DataArray type="Float64" NumberOfComponents="3" format="ascii">
          8.76444638e-01 1.66228991e-02 0.00000000e+00 
8.86753201e-01 1.53310820e-02 0.00000000e+00 
8.97059798e-01 1.40233757e-02 0.00000000e+00 
9.07364249e-01 1.26988320e-02 0.00000000e+00 

        </DataArray>
      </Points>
      <Cells>
        <DataArray type="Int32" Name="connectivity" format="ascii">
0 1
1 2
2 3

        </DataArray>
        <DataArray type="Int32" Name="offsets" format="ascii">
2 4 6 
        </DataArray>
        <DataArray type="UInt8" Name="types" format="ascii">
3 3 3 
        </DataArray>
      </Cells>
      <PointData>
        <DataArray type="Float64" Name="rho">
          9.61701601e-01 9.63263800e-01 9.64800526e-01 9.66329825e-01 
        </DataArray>
        <DataArray type="Float64" Name="rhou">
          1.92732682e-06 9.10162875e-05 3.79911752e-05 -1.27240174e-05 
        </DataArray>
        <DataArray type="Float64" Name="rhov">
          -6.71029629e-05 -7.07950780e-05 -8.94366712e-05 5.00157895e-06 
        </DataArray>
        <DataArray type="Float64" Name="E">
          2.19009736e+05 2.19382862e+05 2.19749821e+05 2.20114721e+05 
        </DataArray>
      </PointData>
    </Piece>
    <Piece NumberOfPoints="4" NumberOfCells="3">
      <Points>
        <DataArray type="Float64" NumberOfComponents="3" format="ascii">
          9.07364249e-01 1.26988320e-02 0.00000000e+00 
9.17666554e-01 1.13577880e-02 0.00000000e+00 
9.27966774e-01 1.00004105e-02 0.00000000e+00 
9.38264549e-01 8.62528384e-03 0.00000000e+00 

        </DataArray>
      </Points>
      <Cells>
        <DataArray type="Int32" Name="connectivity" format="ascii">
0 1
1 2
2 3

        </DataArray>
        <DataArray type="Int32" Name="offsets" format="ascii">
2 4 6 
        </DataArray>
        <DataArray type="UInt8" Name="types" format="ascii">
3 3 3 
        </DataArray>
      </Cells>
      <PointData>
        <DataArray type="Float64" Name="rho">
          9.66334498e-01 9.67815600e-01 9.69318765e-01 9.70679775e-01 
        </DataArray>
        <DataArray type="Float64" Name="rhou">
          7.65629237e-04 -2.02839463e-04 3.25756637e-04 7.34306012e-04 
        </DataArray>
        <DataArray type="Float64" Name="rhov">
          -6.17629056e-05 -1.13644600e-04 -4.67525051e-05 -1.40925444e-03 
        </DataArray>
        <DataArray type="Float64" Name="E">
          2.20115785e+05 2.20469356e+05 2.20827645e+05 2.21153332e+05 
        </DataArray>
      </PointData>
    </Piece>
    <Piece NumberOfPoints="4" NumberOfCells="3">
      <Points>
        <DataArray type="Float64" NumberOfComponents="3" format="ascii">
          9.38264549e-01 8.62528384e-03 0.00000000e+00 
9.48560059e-01 7.23283459e-03 0.00000000e+00 
9.58853185e-01 5.82307298e-03 0.00000000e+00 
9.69143867e-01 4.39538015e-03 0.00000000e+00 

        </DataArray>
      </Points>
      <Cells>
        <DataArray type="Int32" Name="connectivity" format="ascii">
0 1
1 2
2 3

        </DataArray>
        <DataArray type="Int32" Name="offsets" format="ascii">
2 4 6 
        </DataArray>
        <DataArray type="UInt8" Name="types" format="ascii">
3 3 3 
        </DataArray>
      </Cells>
      <PointData>
        <DataArray type="Float64" Name="rho">
          9.70634127e-01 9.72301733e-01 9.73571617e-01 9.76230597e-01 
        </DataArray>
        <DataArray type="Float64" Name="rhou">
          -6.42290067e-03 2.04952643e-03 -3.04075648e-03 -1.82856908e-02 
        </DataArray>
        <DataArray type="Float64" Name="rhov">
          -1.04685266e-03 1.21045427e-04 -1.08366829e-03 1.81949612e-02 
        </DataArray>
        <DataArray type="Float64" Name="E">
          2.21142932e+05 2.21538394e+05 2.21843435e+05 2.22465513e+05 
        </DataArray>
      </PointData>
    </Piece>
    <Piece NumberOfPoints="4" NumberOfCells="3">
      <Points>
        <DataArray type="Float64" NumberOfComponents="3" format="ascii">
          9.69143867e-01 4.39538015e-03 0.00000000e+00 
9.79435980e-01 2.94816052e-03 0.00000000e+00 
9.89725590e-01 1.48259092e-03 0.00000000e+00 
1.00000000e+00 0.00000000e+00 0.00000000e+00 

        </DataArray>
      </Points>
      <Cells>
        <DataArray type="Int32" Name="connectivity" format="ascii">
0 1
1 2
2 3

        </DataArray>
        <DataArray type="Int32" Name="offsets" format="ascii">
2 4 6 
        </DataArray>
        <DataArray type="UInt8" Name="types" format="ascii">
3 3 3 
        </DataArray>
      </Cells>
      <PointData>
        <DataArray type="Float64" Name="rho">
          9.76513225e-01 9.76205455e-01 9.79944069e-01 9.70488971e-01 
        </DataArray>
        <DataArray type="Float64" Name="rhou">
          -1.46327739e-03 -9.21267491e-03 -3.61470335e-02 4.76848105e-01 
        </DataArray>
        <DataArray type="Float64" Name="rhov">
          2.03119477e-02 1.04441793e-03 5.03720390e-02 -1.31295711e-01 
        </DataArray>
        <DataArray type="Float64" Name="E">
          2.22529918e+05 2.22476926e+05 2.23347476e+05 2.21213709e+05 
        </DataArray>
      </PointData>
    </Piece>
    <Piece NumberOfPoints="4" NumberOfCells="3">
      <Points>
        <DataArray type="Float64" NumberOfComponents="3" format="ascii">
          9.69029665e-01 -4.41133138e-03 0.00000000e+00 
9.79355037e-01 -2.95961346e-03 0.00000000e+00 
9.89677846e-01 -1.48943183e-03 0.00000000e+00 
1.00000000e+00 0.00000000e+00 0.00000000e+00 

        </DataArray>
      </Points>
      <Cells>
        <DataArray type="Int32" Name="connectivity" format="ascii">
0 1
1 2
2 3

        </DataArray>
        <DataArray type="Int32" Name="offsets" format="ascii">
2 4 6 
        </DataArray>
        <DataArray type="UInt8" Name="types" format="ascii">
3 3 3 
        </DataArray>
      </Cells>
      <PointData>
        <DataArray type="Float64" Name="rho">
          9.75371061e-01 9.75131176e-01 9.78835220e-01 9.70637873e-01 
        </DataArray>
        <DataArray type="Float64" Name="rhou">
          -9.16390769e-04 -7.19308392e-03 -3.41525519e-02 4.38316722e-01 
        </DataArray>
        <DataArray type="Float64" Name="rhov">
          -2.25477891e-02 2.01401312e-03 -4.68256298e-02 1.37187063e-01 
        </DataArray>
        <DataArray type="Float64" Name="E">
          2.22279619e+05 2.22239182e+05 2.23098395e+05 2.21247906e+05 
        </DataArray>
      </PointData>
    </Piece>
    <Piece NumberOfPoints="4" NumberOfCells="3">
      <Points>
        <DataArray type="Float64" NumberOfComponents="3" format="ascii">
          9.38035965e-01 -8.65600072e-03 0.00000000e+00 
9.48369622e-01 -7.25875143e-03 0.00000000e+00 
9.58700895e-01 -5.84406452e-03 0.00000000e+00 
9.69029665e-01 -4.41133138e-03 0.00000000e+00 

        </DataArray>
      </Points>
      <Cells>
        <DataArray type="Int32" Name="connectivity" format="ascii">
0 1
1 2
2 3

        </DataArray>
        <DataArray type="Int32" Name="offsets" format="ascii">
2 4 6 
        </DataArray>
        <DataArray type="UInt8" Name="types" format="ascii">
3 3 3 
        </DataArray>
      </Cells>
      <PointData>
        <DataArray type="Float64" Name="rho">
          9.69636055e-01 9.71266084e-01 9.72513257e-01 9.75092886e-01 
        </DataArray>
        <DataArray type="Float64" Name="rhou">
          -6.03882904e-03 2.20872785e-03 -2.49326214e-03 -1.63840708e-02 
        </DataArray>
        <DataArray type="Float64" Name="rhov">
          1.05133041e-03 -1.61685984e-04 1.28605448e-03 -1.67399314e-02 
        </DataArray>
        <DataArray type="Float64" Name="E">
          2.20931063e+05 2.21316614e+05 2.21614680e+05 2.22216262e+05 
        </DataArray>
      </PointData>
    </Piece>
    <Piece NumberOfPoints="4" NumberOfCells="3">
      <Points>
        <DataArray type="Float64" NumberOfComponents="3" format="ascii">
          9.07021165e-01 -1.27432076e-02 0.00000000e+00 
9.17361677e-01 -1.13977119e-02 0.00000000e+00 
9.27700043e-01 -1.00357840e-02 0.00000000e+00 
9.38035965e-01 -8.65600072e-03 0.00000000e+00 

        </DataArray>
      </Points>
      <Cells>
        <DataArray type="Int32" Name="connectivity" format="ascii">
0 1
1 2
2 3

        </DataArray>
        <DataArray type="Int32" Name="offsets" format="ascii">
2 4 6 
        </DataArray>
        <DataArray type="UInt8" Name="types" format="ascii">
3 3 3 
        </DataArray>
      </Cells>
      <PointData>
        <DataArray type="Float64" Name="rho">
          9.65461488e-01 9.66893312e-01 9.68353688e-01 9.69680534e-01 
        </DataArray>
        <DataArray type="Float64" Name="rhou">
          8.89119972e-04 -5.77915033e-05 4.81065890e-04 8.58306976e-04 
        </DataArray>
        <DataArray type="Float64" Name="rhov">
          4.77147163e-05 7.32608068e-05 -8.50963445e-06 1.32514735e-03 
        </DataArray>
        <DataArray type="Float64" Name="E">
          2.19934876e+05 2.20276523e+05 2.20624277e+05 2.20941190e+05 
        </DataArray>
      </PointData>
    </Piece>
    <Piece NumberOfPoints="4" NumberOfCells="3">
      <Points>
        <DataArray type="Float64" NumberOfComponents="3" format="ascii">
          8.75986874e-01 -1.66798849e-02 0.00000000e+00 
8.86333704e-01 -1.53839625e-02 0.00000000e+00 
8.96678507e-01 -1.40720531e-02 0.00000000e+00 
9.07021165e-01 -1.27432076e-02 0.00000000e+00 

        </DataArray>
      </Points>
      <Cells>
        <DataArray type="Int32" Name="connectivity" format="ascii">
0 1
1 2
2 3

        </DataArray>
        <DataArray type="Int32" Name="offsets" format="ascii">
2 4 6 
        </DataArray>
        <DataArray type="UInt8" Name="types" format="ascii">
3 3 3 
        </DataArray>
      </Cells>
      <PointData>
        <DataArray type="Float64" Name="rho">
          9.61046139e-01 9.62524834e-01 9.63989785e-01 9.65456818e-01 
        </DataArray>
        <DataArray type="Float64" Name="rhou">
          1.54978390e-04 2.31190917e-04 1.86180905e-04 1.36522268e-04 
        </DataArray>
        <DataArray type="Float64" Name="rhov">
          6.44793951e-05 5.63183597e-05 7.08966018e-05 -1.80985453e-05 
        </DataArray>
        <DataArray type="Float64" Name="E">
          2.18880754e+05 2.19233970e+05 2.19583803e+05 2.19933814e+05 
        </DataArray>
      </PointData>
    </Piece>
    <Piece NumberOfPoints="4" NumberOfCells="3">
      <Points>
        <DataArray type="Float64" NumberOfComponents="3" format="ascii">
          8.44934702e-01 -2.04724707e-02 0.00000000e+00 
8.55287313e-01 -1.92240477e-02 0.00000000e+00 
8.65638077e-01 -1.79597028e-02 0.00000000e+00 
8.75986874e-01 -1.66798849e-02 0.00000000e+00 

        </DataArray>
      </Points>
      <Cells>
        <DataArray type="Int32" Name="connectivity" format="ascii">
0 1
1 2
2 3

        </DataArray>
        <DataArray type="Int32" Name="offsets" format="ascii">
2 4 6 
        </DataArray>
        <DataArray type="UInt8" Name="types" format="ascii">
3 3 3 
        </DataArray>
      </Cells>
      <PointData>
        <DataArray type="Float64" Name="rho">
          9.56565462e-01 9.58066819e-01 9.59562853e-01 9.61046540e-01 
        </DataArray>
        <DataArray type="Float64" Name="rhou">
          2.82467290e-04 2.25413097e-04 2.13659337e-04 2.51158268e-04 
        </DataArray>
        <DataArray type="Float64" Name="rhov">
          3.98386728e-05 5.98240219e-05 4.96375532e-05 6.73533230e-05 
        </DataArray>
        <DataArray type="Float64" Name="E">
          2.17809777e+05 2.18168713e+05 2.18526277e+05 2.18880845e+05 
        </DataArray>
      </PointData>
    </Piece>
    <Piece NumberOfPoints="4" NumberOfCells="3">
      <Points>
        <DataArray type="Float64" NumberOfComponents="3" format="ascii">
          8.13865662e-01 -2.41250079e-02 0.00000000e+00 
8.24223816e-01 -2.29226518e-02 0.00000000e+00 
8.34580123e-01 -2.17050612e-02 0.00000000e+00 
8.44934702e-01 -2.04724707e-02 0.00000000e+00 

        </DataArray>
      </Points>
      <Cells>
        <DataArray type="Int32" Name="connectivity" format="ascii">
0 1
1 2
2 3

        </DataArray>
        <DataArray type="Int32" Name="offsets" format="ascii">
2 4 6 
        </DataArray>
        <DataArray type="UInt8" Name="types" format="ascii">
3 3 3 
        </DataArray>
      </Cells>
      <PointData>
        <DataArray type="Float64" Name="rho">
          9.51997347e-01 9.53528051e-01 9.55050922e-01 9.56565240e-01 
        </DataArray>
        <DataArray type="Float64" Name="rhou">
          2.58547983e-04 2.43802669e-04 2.29218251e-04 2.34826542e-04 
        </DataArray>
        <DataArray type="Float64" Name="rhov">
          5.09311221e-05 5.16152703e-05 4.42733002e-05 3.26072690e-05 
        </DataArray>
        <DataArray type="Float64" Name="E">
          2.16717626e+05 2.17083611e+05 2.17447704e+05 2.17809727e+05 
        </DataArray>
      </PointData>
    </Piece>
    <Piece NumberOfPoints="4" NumberOfCells="3">
      <Points>
        <DataArray type="Float64" NumberOfComponents="3" format="ascii">
          7.82780826e-01 -2.76402626e-02 0.00000000e+00 
7.93144107e-01 -2.64833923e-02 0.00000000e+00 
8.03505778e-01 -2.53117718e-02 0.00000000e+00 
8.13865662e-01 -2.41250079e-02 0.00000000e+00 

        </DataArray>
      </Points>
      <Cells>
        <DataArray type="Int32" Name="connectivity" format="ascii">
0 1
1 2
2 3

        </DataArray>
        <DataArray type="Int32" Name="offsets" format="ascii">
2 4 6 
        </DataArray>
        <DataArray type="UInt8" Name="types" format="ascii">
3 3 3 
        </DataArray>
      </Cells>
      <PointData>
        <DataArray type="Float64" Name="rho">
          9.47353425e-01 9.48909945e-01 9.50458808e-01 9.51997240e-01 
        </DataArray>
        <DataArray type="Float64" Name="rhou">
          2.78522275e-04 2.58193939e-04 2.58068002e-04 2.67559768e-04 
        </DataArray>
        <DataArray type="Float64" Name="rhov">
          4.79044646e-05 3.96163626e-05 3.52180397e-05 4.92686375e-05 
        </DataArray>
        <DataArray type="Float64" Name="E">
          2.15607339e+05 2.15979462e+05 2.16349762e+05 2.16717602e+05 
        </DataArray>
      </PointData>
    </Piece>
    <Piece NumberOfPoints="4" NumberOfCells="3">
      <Points>
        <DataArray type="Float64" NumberOfComponents="3" format="ascii">
          7.51680970e-01 -3.10197193e-02 0.00000000e+00 
7.62049198e-01 -2.99084149e-02 0.00000000e+00 
7.72415876e-01 -2.87819952e-02 0.00000000e+00 
7.82780826e-01 -2.76402626e-02 0.00000000e+00 

        </DataArray>
      </Points>
      <Cells>
        <DataArray type="Int32" Name="connectivity" format="ascii">
0 1
1 2
2 3

        </DataArray>
        <DataArray type="Int32" Name="offsets" format="ascii">
2 4 6 
        </DataArray>
        <DataArray type="UInt8" Name="types" format="ascii">
3 3 3 
        </DataArray>
      </Cells>
      <PointData>
        <DataArray type="Float64" Name="rho">
          9.42641200e-01 9.44219599e-01 9.45790245e-01 9.47353389e-01 
        </DataArray>
        <DataArray type="Float64" Name="rhou">
          2.91092648e-04 2.87223359e-04 2.82074322e-04 2.68398467e-04 
        </DataArray>
        <DataArray type="Float64" Name="rhov">
          4.10023160e-05 3.44745268e-05 3.82651308e-05 4.57972212e-05 
        </DataArray>
        <DataArray type="Float64" Name="E">
          2.14480870e+05 2.14858160e+05 2.15233630e+05 2.15607331e+05 
        </DataArray>
      </PointData>
    </Piece>
    <Piece NumberOfPoints="4" NumberOfCells="3">
      <Points>
        <DataArray type="Float64" NumberOfComponents="3" format="ascii">
          7.20566452e-01 -3.42622213e-02 0.00000000e+00 
7.30939507e-01 -3.31965312e-02 0.00000000e+00 
7.41311073e-01 -3.21157984e-02 0.00000000e+00 
7.51680970e-01 -3.10197193e-02 0.00000000e+00 

        </DataArray>
      </Points>
      <Cells>
        <DataArray type="Int32" Name="connectivity" format="ascii">
0 1
1 2
2 3

        </DataArray>
        <DataArray type="Int32" Name="offsets" format="ascii">
2 4 6 
        </DataArray>
        <DataArray type="UInt8" Name="types" format="ascii">
3 3 3 
        </DataArray>
      </Cells>
      <PointData>
        <DataArray type="Float64" Name="rho">
          9.37871607e-01 9.39467892e-01 9.41057953e-01 9.42641191e-01 
        </DataArray>
        <DataArray type="Float64" Name="rhou">
          3.16075599e-04 3.09543093e-04 3.06983286e-04 2.94353607e-04 
        </DataArray>
        <DataArray type="Float64" Name="rhov">
          3.76979824e-05 2.69611303e-05 2.96659654e-05 4.14781381e-05 
        </DataArray>
        <DataArray type="Float64" Name="E">
          2.13340914e+05 2.13722396e+05 2.14102429e+05 2.14480868e+05 
        </DataArray>
      </PointData>
    </Piece>
    <Piece NumberOfPoints="4" NumberOfCells="3">
      <Points>
        <DataArray type="Float64" NumberOfComponents="3" format="ascii">
          6.89437866e-01 -3.73662710e-02 0.00000000e+00 
6.99815631e-01 -3.63472365e-02 0.00000000e+00 
7.10191846e-01 -3.53125818e-02 0.00000000e+00 
7.20566452e-01 -3.42622213e-02 0.00000000e+00 

        </DataArray>
      </Points>
      <Cells>
        <DataArray type="Int32" Name="connectivity" format="ascii">
0 1
1 2
2 3

        </DataArray>
        <DataArray type="Int32" Name="offsets" format="ascii">
2 4 6 
        </DataArray>
        <DataArray type="UInt8" Name="types" format="ascii">
3 3 3 
        </DataArray>
      </Cells>
      <PointData>
        <DataArray type="Float64" Name="rho">
          9.33063275e-01 9.34669935e-01 9.36272833e-01 9.37871618e-01 
        </DataArray>
        <DataArray type="Float64" Name="rhou">
          3.48167969e-04 3.41208868e-04 3.34546308e-04 3.17163432e-04 
        </DataArray>
        <DataArray type="Float64" Name="rhov">
          2.99218018e-05 2.27634883e-05 2.73793872e-05 3.79606937e-05 
        </DataArray>
        <DataArray type="Float64" Name="E">
          2.12191915e+05 2.12575808e+05 2.12958838e+05 2.13340916e+05 
        </DataArray>
      </PointData>
    </Piece>
    <Piece NumberOfPoints="4" NumberOfCells="3">
      <Points>
        <DataArray type="Float64" NumberOfComponents="3" format="ascii">
          6.58295333e-01 -4.03269380e-02 0.00000000e+00 
6.68677747e-01 -3.93563360e-02 0.00000000e+00 
6.79058611e-01 -3.83694395e-02 0.00000000e+00 
6.89437866e-01 -3.73662710e-02 0.00000000e+00 

        </DataArray>
      </Points>
      <Cells>
        <DataArray type="Int32" Name="connectivity" format="ascii">
0 1
1 2
2 3

        </DataArray>
        <DataArray type="Int32" Name="offsets" format="ascii">
2 4 6 
        </DataArray>
        <DataArray type="UInt8" Name="types" format="ascii">
3 3 3 
        </DataArray>
      </Cells>
      <PointData>
        <DataArray type="Float64" Name="rho">
          9.28240293e-01 9.29848678e-01 9.31456349e-01 9.33063329e-01 
        </DataArray>
        <DataArray type="Float64" Name="rhou">
          3.84137832e-04 3.78801709e-04 3.66489706e-04 3.46384148e-04 
        </DataArray>
        <DataArray type="Float64" Name="rhov">
          1.90166853e-05 1.60264764e-05 2.26428440e-05 3.06907394e-05 
        </DataArray>
        <DataArray type="Float64" Name="E">
          2.11039612e+05 2.11423857e+05 2.11807964e+05 2.12191927e+05 
        </DataArray>
      </PointData>
    </Piece>
    <Piece NumberOfPoints="4" NumberOfCells="3">
      <Points>
        <DataArray type="Float64" NumberOfComponents="3" format="ascii">
          6.27138972e-01 -4.31386717e-02 0.00000000e+00 
6.37525976e-01 -4.22184542e-02 0.00000000e+00 
6.47911429e-01 -4.12811004e-02 0.00000000e+00 
6.58295333e-01 -4.03269380e-02 0.00000000e+00 

        </DataArray>
      </Points>
      <Cells>
        <DataArray type="Int32" Name="connectivity" format="ascii">
0 1
1 2
2 3

        </DataArray>
        <DataArray type="Int32" Name="offsets" format="ascii">
2 4 6 
        </DataArray>
        <DataArray type="UInt8" Name="types" format="ascii">
3 3 3 
        </DataArray>
      </Cells>
      <PointData>
        <DataArray type="Float64" Name="rho">
          9.23434511e-01 9.25032013e-01 9.26634551e-01 9.28240325e-01 
        </DataArray>
        <DataArray type="Float64" Name="rhou">
          4.34370540e-04 4.16075973e-04 3.99290960e-04 3.85138613e-04 
        </DataArray>
        <DataArray type="Float64" Name="rhov">
          1.55641587e-05 1.45254409e-05 1.59269566e-05 1.99004338e-05 
        </DataArray>
        <DataArray type="Float64" Name="E">
          2.09891559e+05 2.10273176e+05 2.10656005e+05 2.11039620e+05 
        </DataArray>
      </PointData>
    </Piece>
    <Piece NumberOfPoints="4" NumberOfCells="3">
      <Points>
        <DataArray type="Float64" NumberOfComponents="3" format="ascii">
          5.95968783e-01 -4.57924642e-02 0.00000000e+00 
6.06360376e-01 -4.49259281e-02 0.00000000e+00 
6.16750479e-01 -4.40412909e-02 0.00000000e+00 
6.27138972e-01 -4.31386717e-02 0.00000000e+00 

        </DataArray>
      </Points>
      <Cells>
        <DataArray type="Int32" Name="connectivity" format="ascii">
0 1
1 2
2 3

        </DataArray>
        <DataArray type="Int32" Name="offsets" format="ascii">
2 4 6 
        </DataArray>
        <DataArray type="UInt8" Name="types" format="ascii">
3 3 3 
        </DataArray>
      </Cells>
      <PointData>
        <DataArray type="Float64" Name="rho">
          9.18691101e-01 9.20263100e-01 9.21844654e-01 9.23434504e-01 
        </DataArray>
        <DataArray type="Float64" Name="rhou">
          4.78196489e-04 4.66466324e-04 4.49653633e-04 4.28069921e-04 
        </DataArray>
        <DataArray type="Float64" Name="rhov">
          3.71144190e-06 6.26489147e-07 7.02553218e-06 1.63716308e-05 
        </DataArray>
        <DataArray type="Float64" Name="E">
          2.08758440e+05 2.09133956e+05 2.09511763e+05 2.09891558e+05 
        </DataArray>
      </PointData>
    </Piece>
    <Piece NumberOfPoints="4" NumberOfCells="3">
      <Points>
        <DataArray type="Float64" NumberOfComponents="3" format="ascii">
          5.64784765e-01 -4.82786149e-02 0.00000000e+00 
5.75181007e-01 -4.74695377e-02 0.00000000e+00 
5.85575700e-01 -4.66405638e-02 0.00000000e+00 
5.95968783e-01 -4.57924642e-02 0.00000000e+00 

        </DataArray>
      </Points>
      <Cells>
        <DataArray type="Int32" Name="connectivity" format="ascii">
0 1
1 2
2 3

        </DataArray>
        <DataArray type="Int32" Name="offsets" format="ascii">
2 4 6 
        </DataArray>
        <DataArray type="UInt8" Name="types" format="ascii">
3 3 3 
        </DataArray>
      </Cells>
      <PointData>
        <DataArray type="Float64" Name="rho">
          9.14070346e-01 9.15591913e-01 9.17132831e-01 9.18691213e-01 
        </DataArray>
        <DataArray type="Float64" Name="rhou">
          5.53357955e-04 5.27552552e-04 4.95241749e-04 4.72176349e-04 
        </DataArray>
        <DataArray type="Float64" Name="rhov">
          -7.64410381e-06 3.54028140e-06 8.19156360e-06 4.62555013e-06 
        </DataArray>
        <DataArray type="Float64" Name="E">
          2.07654478e+05 2.08018034e+05 2.08386183e+05 2.08758465e+05 
        </DataArray>
      </PointData>
    </Piece>
    <Piece NumberOfPoints="4" NumberOfCells="3">
      <Points>
        <DataArray type="Float64" NumberOfComponents="3" format="ascii">
          5.33586800e-01 -5.05827516e-02 0.00000000e+00 
5.43987691e-01 -4.98356484e-02 0.00000000e+00 
5.54387033e-01 -4.90674041e-02 0.00000000e+00 
5.64784765e-01 -4.82786149e-02 0.00000000e+00 

        </DataArray>
      </Points>
      <Cells>
        <DataArray type="Int32" Name="connectivity" format="ascii">
0 1
1 2
2 3

        </DataArray>
        <DataArray type="Int32" Name="offsets" format="ascii">
2 4 6 
        </DataArray>
        <DataArray type="UInt8" Name="types" format="ascii">
3 3 3 
        </DataArray>
      </Cells>
      <PointData>
        <DataArray type="Float64" Name="rho">
          9.09646387e-01 9.11093086e-01 9.12569555e-01 9.14070306e-01 
        </DataArray>
        <DataArray type="Float64" Name="rhou">
          6.26761914e-04 5.87592180e-04 5.59298242e-04 5.47890141e-04 
        </DataArray>
        <DataArray type="Float64" Name="rhov">
          -6.39570698e-06 -6.48264941e-06 -9.62654006e-06 -7.29694431e-06 
        </DataArray>
        <DataArray type="Float64" Name="E">
          2.06597223e+05 2.06943021e+05 2.07295863e+05 2.07654469e+05 
        </DataArray>
      </PointData>
    </Piece>
    <Piece NumberOfPoints="4" NumberOfCells="3">
      <Points>
        <DataArray type="Float64" NumberOfComponents="3" format="ascii">
          5.02374947e-01 -5.26902266e-02 0.00000000e+00 
5.12780428e-01 -5.20105064e-02 0.00000000e+00 
5.23184419e-01 -5.13078682e-02 0.00000000e+00 
5.33586800e-01 -5.05827516e-02 0.00000000e+00 

        </DataArray>
      </Points>
      <Cells>
        <DataArray type="Int32" Name="connectivity" format="ascii">
0 1
1 2
2 3

        </DataArray>
        <DataArray type="Int32" Name="offsets" format="ascii">
2 4 6 
        </DataArray>
        <DataArray type="UInt8" Name="types" format="ascii">
3 3 3 
        </DataArray>
      </Cells>
      <PointData>
        <DataArray type="Float64" Name="rho">
          9.05520138e-01 9.06856082e-01 9.08233513e-01 9.09646292e-01 
        </DataArray>
        <DataArray type="Float64" Name="rhou">
          7.07513017e-04 6.71633528e-04 6.44406180e-04 6.24156621e-04 
        </DataArray>
        <DataArray type="Float64" Name="rhov">
          -1.54103857e-05 -2.18639365e-05 -2.05277155e-05 -6.86522474e-06 
        </DataArray>
        <DataArray type="Float64" Name="E">
          2.05610473e+05 2.05930040e+05 2.06259428e+05 2.06597202e+05 
        </DataArray>
      </PointData>
    </Piece>
    <Piece NumberOfPoints="4" NumberOfCells="3">
      <Points>
        <DataArray type="Float64" NumberOfComponents="3" format="ascii">
          4.71149325e-01 -5.45825884e-02 0.00000000e+00 
4.81559396e-01 -5.39771840e-02 0.00000000e+00 
4.91967946e-01 -5.33461571e-02 0.00000000e+00 
5.02374947e-01 -5.26902266e-02 0.00000000e+00 

        </DataArray>
      </Points>
      <Cells>
        <DataArray type="Int32" Name="connectivity" format="ascii">
0 1
1 2
2 3

        </DataArray>
        <DataArray type="Int32" Name="offsets" format="ascii">
2 4 6 
        </DataArray>
        <DataArray type="UInt8" Name="types" format="ascii">
3 3 3 
        </DataArray>
      </Cells>
      <PointData>
        <DataArray type="Float64" Name="rho">
          9.01823877e-01 9.03000205e-01 9.04232719e-01 9.05520227e-01 
        </DataArray>
        <DataArray type="Float64" Name="rhou">
          8.13622550e-04 7.91019032e-04 7.44577932e-04 6.88005236e-04 
        </DataArray>
        <DataArray type="Float64" Name="rhov">
          -3.93483906e-05 -3.32546685e-05 -1.62443550e-05 -1.26407688e-05 
        </DataArray>
        <DataArray type="Float64" Name="E">
          2.04725430e+05 2.05007242e+05 2.05302371e+05 2.05610494e+05 
        </DataArray>
      </PointData>
    </Piece>
    <Piece NumberOfPoints="4" NumberOfCells="3">
      <Points>
        <DataArray type="Float64" NumberOfComponents="3" format="ascii">
          4.39910263e-01 -5.62384278e-02 0.00000000e+00 
4.50324744e-01 -5.57143167e-02 0.00000000e+00 
4.60737765e-01 -5.51619194e-02 0.00000000e+00 
4.71149325e-01 -5.45825884e-02 0.00000000e+00 

        </DataArray>
      </Points>
      <Cells>
        <DataArray type="Int32" Name="connectivity" format="ascii">
0 1
1 2
2 3

        </DataArray>
        <DataArray type="Int32" Name="offsets" format="ascii">
2 4 6 
        </DataArray>
        <DataArray type="UInt8" Name="types" format="ascii">
3 3 3 
        </DataArray>
      </Cells>
      <PointData>
        <DataArray type="Float64" Name="rho">
          8.98717734e-01 8.99673025e-01 9.00711965e-01 9.01823952e-01 
        </DataArray>
        <DataArray type="Float64" Name="rhou">
          9.81315922e-04 9.04448388e-04 8.46339799e-04 8.19044436e-04 
        </DataArray>
        <DataArray type="Float64" Name="rhov">
          -3.15768291e-05 -2.27217190e-05 -2.94036452e-05 -3.68518460e-05 
        </DataArray>
        <DataArray type="Float64" Name="E">
          2.03979938e+05 2.04209520e+05 2.04458852e+05 2.04725446e+05 
        </DataArray>
      </PointData>
    </Piece>
    <Piece NumberOfPoints="4" NumberOfCells="3">
      <Points>
        <DataArray type="Float64" NumberOfComponents="3" format="ascii">
          4.08658355e-01 -5.76302819e-02 0.00000000e+00 
4.19077009e-01 -5.71971126e-02 0.00000000e+00 
4.29494321e-01 -5.67329265e-02 0.00000000e+00 
4.39910263e-01 -5.62384278e-02 0.00000000e+00 

        </DataArray>
      </Points>
      <Cells>
        <DataArray type="Int32" Name="connectivity" format="ascii">
0 1
1 2
2 3

        </DataArray>
        <DataArray type="Int32" Name="offsets" format="ascii">
2 4 6 
        </DataArray>
        <DataArray type="UInt8" Name="types" format="ascii">
3 3 3 
        </DataArray>
      </Cells>
      <PointData>
        <DataArray type="Float64" Name="rho">
          8.96413055e-01 8.97079500e-01 8.97851574e-01 8.98717503e-01 
        </DataArray>
        <DataArray type="Float64" Name="rhou">
          1.13655751e-03 1.06705230e-03 1.01557256e-03 9.76016728e-04 
        </DataArray>
        <DataArray type="Float64" Name="rhov">
          -3.92533256e-05 -5.18467271e-05 -5.12686380e-05 -3.14409466e-05 
        </DataArray>
        <DataArray type="Float64" Name="E">
          2.03423946e+05 2.03585199e+05 2.03771431e+05 2.03979886e+05 
        </DataArray>
      </PointData>
    </Piece>
    <Piece NumberOfPoints="4" NumberOfCells="3">
      <Points>
        <DataArray type="Float64" NumberOfComponents="3" format="ascii">
          3.77394795e-01 -5.87291755e-02 0.00000000e+00 
3.87817174e-01 -5.83979115e-02 0.00000000e+00 
3.98238391e-01 -5.80311492e-02 0.00000000e+00 
4.08658355e-01 -5.76302819e-02 0.00000000e+00 

        </DataArray>
      </Points>
      <Cells>
        <DataArray type="Int32" Name="connectivity" format="ascii">
0 1
1 2
2 3

        </DataArray>
        <DataArray type="Int32" Name="offsets" format="ascii">
2 4 6 
        </DataArray>
        <DataArray type="UInt8" Name="types" format="ascii">
3 3 3 
        </DataArray>
      </Cells>
      <PointData>
        <DataArray type="Float64" Name="rho">
          8.95175320e-01 8.95451828e-01 8.95865514e-01 8.96413266e-01 
        </DataArray>
        <DataArray type="Float64" Name="rhou">
          1.38549802e-03 1.31184234e-03 1.21042920e-03 1.10551869e-03 
        </DataArray>
        <DataArray type="Float64" Name="rhov">
          -8.17095183e-05 -5.42579637e-05 -2.68690591e-05 -3.44011250e-05 
        </DataArray>
        <DataArray type="Float64" Name="E">
          2.03120137e+05 2.03189221e+05 2.03290780e+05 2.03423995e+05 
        </DataArray>
      </PointData>
    </Piece>
    <Piece NumberOfPoints="4" NumberOfCells="3">
      <Points>
        <DataArray type="Float64" NumberOfComponents="3" format="ascii">
          3.46121490e-01 -5.95011823e-02 0.00000000e+00 
3.56546819e-01 -5.92821389e-02 0.00000000e+00 
3.66971314e-01 -5.90242445e-02 0.00000000e+00 
3.77394795e-01 -5.87291755e-02 0.00000000e+00 

        </DataArray>
      </Points>
      <Cells>
        <DataArray type="Int32" Name="connectivity" format="ascii">
0 1
1 2
2 3

        </DataArray>
        <DataArray type="Int32" Name="offsets" format="ascii">
2 4 6 
        </DataArray>
        <DataArray type="UInt8" Name="types" format="ascii">
3 3 3 
        </DataArray>
      </Cells>
      <PointData>
        <DataArray type="Float64" Name="rho">
          8.95297576e-01 8.95080705e-01 8.95045746e-01 8.95175412e-01 
        </DataArray>
        <DataArray type="Float64" Name="rhou">
          1.72821344e-03 1.58392103e-03 1.45516010e-03 1.38891564e-03 
        </DataArray>
        <DataArray type="Float64" Name="rhov">
          -1.15584820e-04 -7.40625459e-05 -6.70311581e-05 -7.71184424e-05 
        </DataArray>
        <DataArray type="Float64" Name="E">
          2.03138028e+05 2.03090431e+05 2.03085833e+05 2.03120157e+05 
        </DataArray>
      </PointData>
    </Piece>
    <Piece NumberOfPoints="4" NumberOfCells="3">
      <Points>
        <DataArray type="Float64" NumberOfComponents="3" format="ascii">
          3.14841360e-01 -5.99102043e-02 0.00000000e+00 
3.25268596e-01 -5.98174632e-02 0.00000000e+00 
3.35695356e-01 -5.96801341e-02 0.00000000e+00 
3.46121490e-01 -5.95011823e-02 0.00000000e+00 

        </DataArray>
      </Points>
      <Cells>
        <DataArray type="Int32" Name="connectivity" format="ascii">
0 1
1 2
2 3

        </DataArray>
        <DataArray type="Int32" Name="offsets" format="ascii">
2 4 6 
        </DataArray>
        <DataArray type="UInt8" Name="types" format="ascii">
3 3 3 
        </DataArray>
      </Cells>
      <PointData>
        <DataArray type="Float64" Name="rho">
          8.97185783e-01 8.96320382e-01 8.95700232e-01 8.95297287e-01 
        </DataArray>
        <DataArray type="Float64" Name="rhou">
          2.17830885e-03 1.93412734e-03 1.76928205e-03 1.69271604e-03 
        </DataArray>
        <DataArray type="Float64" Name="rhov">
          -5.19789482e-05 -2.89789664e-05 -6.14209216e-05 -1.14828863e-04 
        </DataArray>
        <DataArray type="Float64" Name="E">
          2.03573684e+05 2.03372685e+05 2.03229648e+05 2.03137961e+05 
        </DataArray>
      </PointData>
    </Piece>
    <Piece NumberOfPoints="4" NumberOfCells="3">
      <Points>
        <DataArray type="Float64" NumberOfComponents="3" format="ascii">
          2.83558637e-01 -5.98983802e-02 0.00000000e+00 
2.93986142e-01 -5.99516556e-02 0.00000000e+00 
3.04413795e-01 -5.99554181e-02 0.00000000e+00 
3.14841360e-01 -5.99102043e-02 0.00000000e+00 

        </DataArray>
      </Points>
      <Cells>
        <DataArray type="Int32" Name="connectivity" format="ascii">
0 1
1 2
2 3

        </DataArray>
        <DataArray type="Int32" Name="offsets" format="ascii">
2 4 6 
        </DataArray>
        <DataArray type="UInt8" Name="types" format="ascii">
3 3 3 
        </DataArray>
      </Cells>
      <PointData>
        <DataArray type="Float64" Name="rho">
          9.01355013e-01 8.99693244e-01 8.98309061e-01 8.97185072e-01 
        </DataArray>
        <DataArray type="Float64" Name="rhou">
          2.65606638e-03 2.49109824e-03 2.35337851e-03 2.16932239e-03 
        </DataArray>
        <DataArray type="Float64" Name="rhov">
          -1.08019088e-04 -1.75186571e-04 -1.39846819e-04 -4.53912107e-05 
        </DataArray>
        <DataArray type="Float64" Name="E">
          2.04549662e+05 2.04159751e+05 2.03835748e+05 2.03573522e+05 
        </DataArray>
      </PointData>
    </Piece>
    <Piece NumberOfPoints="4" NumberOfCells="3">
      <Points>
        <DataArray type="Float64" NumberOfComponents="3" format="ascii">
          2.52279758e-01 -5.94130717e-02 0.00000000e+00 
2.62705088e-01 -5.96327744e-02 0.00000000e+00 
2.73131490e-01 -5.97934239e-02 0.00000000e+00 
2.83558637e-01 -5.98983802e-02 0.00000000e+00 

        </DataArray>
      </Points>
      <Cells>
        <DataArray type="Int32" Name="connectivity" format="ascii">
0 1
1 2
2 3

        </DataArray>
        <DataArray type="Int32" Name="offsets" format="ascii">
2 4 6 
        </DataArray>
        <DataArray type="UInt8" Name="types" format="ascii">
3 3 3 
        </DataArray>
      </Cells>
      <PointData>
        <DataArray type="Float64" Name="rho">
          9.08424705e-01 9.05697774e-01 9.03344234e-01 9.01355933e-01 
        </DataArray>
        <DataArray type="Float64" Name="rhou">
          3.62859577e-03 3.32329161e-03 2.98779958e-03 2.64233865e-03 
        </DataArray>
        <DataArray type="Float64" Name="rhov">
          -2.55190816e-04 -1.63572695e-04 -7.68666241e-05 -8.88734993e-05 
        </DataArray>
        <DataArray type="Float64" Name="E">
          2.06213133e+05 2.05570732e+05 2.05017055e+05 2.04549874e+05 
        </DataArray>
      </PointData>
    </Piece>
    <Piece NumberOfPoints="4" NumberOfCells="3">
      <Points>
        <DataArray type="Float64" NumberOfComponents="3" format="ascii">
          2.21014455e-01 -5.83752058e-02 0.00000000e+00 
2.31433928e-01 -5.87876961e-02 0.00000000e+00 
2.41855890e-01 -5.91322705e-02 0.00000000e+00 
2.52279758e-01 -5.94130717e-02 0.00000000e+00 

        </DataArray>
      </Points>
      <Cells>
        <DataArray type="Int32" Name="connectivity" format="ascii">
0 1
1 2
2 3

        </DataArray>
        <DataArray type="Int32" Name="offsets" format="ascii">
2 4 6 
        </DataArray>
        <DataArray type="UInt8" Name="types" format="ascii">
3 3 3 
        </DataArray>
      </Cells>
      <PointData>
        <DataArray type="Float64" Name="rho">
          9.19176138e-01 9.15115898e-01 9.11547820e-01 9.08424886e-01 
        </DataArray>
        <DataArray type="Float64" Name="rhou">
          4.98138167e-03 4.39628423e-03 3.95010559e-03 3.66267609e-03 
        </DataArray>
        <DataArray type="Float64" Name="rhov">
          -3.59684922e-04 -2.56194551e-04 -2.24447823e-04 -2.38817887e-04 
        </DataArray>
        <DataArray type="Float64" Name="E">
          2.08751264e+05 2.07792013e+05 2.06949720e+05 2.06213170e+05 
        </DataArray>
      </PointData>
    </Piece>
    <Piece NumberOfPoints="4" NumberOfCells="3">
      <Points>
        <DataArray type="Float64" NumberOfComponents="3" format="ascii">
          1.89777538e-01 -5.66898957e-02 0.00000000e+00 
2.00185493e-01 -5.73302582e-02 0.00000000e+00 
2.10598081e-01 -5.78906052e-02 0.00000000e+00 
2.21014455e-01 -5.83752058e-02 0.00000000e+00 

        </DataArray>
      </Points>
      <Cells>
        <DataArray type="Int32" Name="connectivity" format="ascii">
0 1
1 2
2 3

        </DataArray>
        <DataArray type="Int32" Name="offsets" format="ascii">
2 4 6 
        </DataArray>
        <DataArray type="UInt8" Name="types" format="ascii">
3 3 3 
        </DataArray>
      </Cells>
      <PointData>
        <DataArray type="Float64" Name="rho">
          9.34694713e-01 9.28914961e-01 9.23761966e-01 9.19175379e-01 
        </DataArray>
        <DataArray type="Float64" Name="rhou">
          6.90327868e-03 6.10275229e-03 5.51721560e-03 5.04376378e-03 
        </DataArray>
        <DataArray type="Float64" Name="rhov">
          -6.38794518e-04 -5.68888171e-04 -4.70011638e-04 -3.46920180e-04 
        </DataArray>
        <DataArray type="Float64" Name="E">
          2.12424069e+05 2.11055136e+05 2.09835618e+05 2.08751090e+05 
        </DataArray>
      </PointData>
    </Piece>
    <Piece NumberOfPoints="4" NumberOfCells="3">
      <Points>
        <DataArray type="Float64" NumberOfComponents="3" format="ascii">
          1.58592433e-01 -5.42296544e-02 0.00000000e+00 
1.68979734e-01 -5.51457107e-02 0.00000000e+00 
1.79375216e-01 -5.59638515e-02 0.00000000e+00 
1.89777538e-01 -5.66898957e-02 0.00000000e+00 

        </DataArray>
      </Points>
      <Cells>
        <DataArray type="Int32" Name="connectivity" format="ascii">
0 1
1 2
2 3

        </DataArray>
        <DataArray type="Int32" Name="offsets" format="ascii">
2 4 6 
        </DataArray>
        <DataArray type="UInt8" Name="types" format="ascii">
3 3 3 
        </DataArray>
      </Cells>
      <PointData>
        <DataArray type="Float64" Name="rho">
          9.56544461e-01 9.48449914e-01 9.41183575e-01 9.34695130e-01 
        </DataArray>
        <DataArray type="Float64" Name="rhou">
          9.96164518e-03 8.88713664e-03 7.93727263e-03 6.97454206e-03 
        </DataArray>
        <DataArray type="Float64" Name="rhov">
          -1.38781593e-03 -1.19726850e-03 -8.67297948e-04 -5.98245250e-04 
        </DataArray>
        <DataArray type="Float64" Name="E">
          2.17607246e+05 2.15685506e+05 2.13961986e+05 2.12424169e+05 
        </DataArray>
      </PointData>
    </Piece>
    <Piece NumberOfPoints="4" NumberOfCells="3">
      <Points>
        <DataArray type="Float64" NumberOfComponents="3" format="ascii">
          1.27497971e-01 -5.08146733e-02 0.00000000e+00 
1.37849152e-01 -5.20747155e-02 0.00000000e+00 
1.48214847e-01 -5.32093942e-02 0.00000000e+00 
1.58592433e-01 -5.42296544e-02 0.00000000e+00 

        </DataArray>
      </Points>
      <Cells>
        <DataArray type="Int32" Name="connectivity" format="ascii">
0 1
1 2
2 3

        </DataArray>
        <DataArray type="Int32" Name="offsets" format="ascii">
2 4 6 
        </DataArray>
        <DataArray type="UInt8" Name="types" format="ascii">
3 3 3 
        </DataArray>
      </Cells>
      <PointData>
        <DataArray type="Float64" Name="rho">
          9.87150254e-01 9.75763775e-01 9.65582618e-01 9.56548508e-01 
        </DataArray>
        <DataArray type="Float64" Name="rhou">
          1.44928566e-02 1.33141816e-02 1.15092746e-02 9.99015975e-03 
        </DataArray>
        <DataArray type="Float64" Name="rhov">
          -2.26054151e-03 -2.01431529e-03 -1.40027761e-03 -1.31572541e-03 
        </DataArray>
        <DataArray type="Float64" Name="E">
          2.24885327e+05 2.22175228e+05 2.19754677e+05 2.17608174e+05 
        </DataArray>
      </PointData>
    </Piece>
    <Piece NumberOfPoints="4" NumberOfCells="3">
      <Points>
        <DataArray type="Float64" NumberOfComponents="3" format="ascii">
          9.65642184e-02 -4.61716652e-02 0.00000000e+00 
1.06852271e-01 -4.78802323e-02 0.00000000e+00 
1.17164567e-01 -4.94215861e-02 0.00000000e+00 
1.27497971e-01 -5.08146733e-02 0.00000000e+00 

        </DataArray>
      </Points>
      <Cells>
        <DataArray type="Int32" Name="connectivity" format="ascii">
0 1
1 2
2 3

        </DataArray>
        <DataArray type="Int32" Name="offsets" format="ascii">
2 4 6 
        </DataArray>
        <DataArray type="UInt8" Name="types" format="ascii">
3 3 3 
        </DataArray>
      </Cells>
      <PointData>
        <DataArray type="Float64" Name="rho">
          1.03062522e+00 1.01429236e+00 9.99829790e-01 9.87158591e-01 
        </DataArray>
        <DataArray type="Float64" Name="rhou">
          2.46675138e-02 1.80828353e-02 1.71671397e-02 1.28510320e-02 
        </DataArray>
        <DataArray type="Float64" Name="rhov">
          -9.13197499e-04 -7.17334841e-04 -1.53842903e-03 -1.58163234e-03 
        </DataArray>
        <DataArray type="Float64" Name="E">
          2.35258014e+05 2.31356559e+05 2.27906963e+05 2.24887336e+05 
        </DataArray>
      </PointData>
    </Piece>
  </UnstructuredGrid>
</VTKFile>
