<?xml version="1.0"?>
<VTKFile type="UnstructuredGrid" version="0.1" byte_order="LittleEndian">
  <UnstructuredGrid>
    <Piece NumberOfPoints="4" NumberOfCells="3">
      <Points>
        <DataArray type="Float64" NumberOfComponents="3" format="ascii">
          9.65642184e-02 -4.61716652e-02 0.00000000e+00 
9.26280916e-02 -4.54656407e-02 0.00000000e+00 
8.86965096e-02 -4.47326750e-02 0.00000000e+00 
8.47706869e-02 -4.39694971e-02 0.00000000e+00 

        </DataArray>
      </Points>
      <Cells>
        <DataArray type="Int32" Name="connectivity" format="ascii">
0 1
1 2
2 3

        </DataArray>
        <DataArray type="Int32" Name="offsets" format="ascii">
2 4 6 
        </DataArray>
        <DataArray type="UInt8" Name="types" format="ascii">
3 3 3 
        </DataArray>
      </Cells>
      <PointData>
        <DataArray type="Float64" Name="rho">
          1.03089797e+00 1.03781607e+00 1.04504912e+00 1.05272959e+00 
        </DataArray>
        <DataArray type="Float64" Name="rhou">
          2.82465002e-02 2.17640373e-02 2.44104453e-02 2.45901463e-02 
        </DataArray>
        <DataArray type="Float64" Name="rhov">
          -2.22076291e-03 -1.00966103e-03 -6.01833844e-04 -9.17138268e-04 
        </DataArray>
        <DataArray type="Float64" Name="E">
          2.35331939e+05 2.36985464e+05 2.38715922e+05 2.40553779e+05 
        </DataArray>
      </PointData>
    </Piece>
    <Piece NumberOfPoints="4" NumberOfCells="3">
      <Points>
        <DataArray type="Float64" NumberOfComponents="3" format="ascii">
          8.47706869e-02 -4.39694971e-02 0.00000000e+00 
8.08513016e-02 -4.31745499e-02 0.00000000e+00 
7.69388378e-02 -4.23462167e-02 0.00000000e+00 
7.30340332e-02 -4.14824970e-02 0.00000000e+00 

        </DataArray>
      </Points>
      <Cells>
        <DataArray type="Int32" Name="connectivity" format="ascii">
0 1
1 2
2 3

        </DataArray>
        <DataArray type="Int32" Name="offsets" format="ascii">
2 4 6 
        </DataArray>
        <DataArray type="UInt8" Name="types" format="ascii">
3 3 3 
        </DataArray>
      </Cells>
      <PointData>
        <DataArray type="Float64" Name="rho">
          1.05272839e+00 1.06083741e+00 1.06941050e+00 1.07851738e+00 
        </DataArray>
        <DataArray type="Float64" Name="rhou">
          2.46810023e-02 2.38594638e-02 2.24541610e-02 2.08914946e-02 
        </DataArray>
        <DataArray type="Float64" Name="rhov">
          -7.22688675e-04 -5.16916144e-04 3.85646395e-04 1.57507175e-03 
        </DataArray>
        <DataArray type="Float64" Name="E">
          2.40553512e+05 2.42495896e+05 2.44550708e+05 2.46734682e+05 
        </DataArray>
      </PointData>
    </Piece>
    <Piece NumberOfPoints="4" NumberOfCells="3">
      <Points>
        <DataArray type="Float64" NumberOfComponents="3" format="ascii">
          7.30340332e-02 -4.14824970e-02 0.00000000e+00 
6.91377968e-02 -4.05809283e-02 0.00000000e+00 
6.52511865e-02 -3.96387354e-02 0.00000000e+00 
6.13753870e-02 -3.86530459e-02 0.00000000e+00 

        </DataArray>
      </Points>
      <Cells>
        <DataArray type="Int32" Name="connectivity" format="ascii">
0 1
1 2
2 3

        </DataArray>
        <DataArray type="Int32" Name="offsets" format="ascii">
2 4 6 
        </DataArray>
        <DataArray type="UInt8" Name="types" format="ascii">
3 3 3 
        </DataArray>
      </Cells>
      <PointData>
        <DataArray type="Float64" Name="rho">
          1.07851799e+00 1.08824239e+00 1.09861592e+00 1.10969807e+00 
        </DataArray>
        <DataArray type="Float64" Name="rhou">
          2.10095460e-02 1.86656131e-02 1.45740922e-02 9.08499914e-03 
        </DataArray>
        <DataArray type="Float64" Name="rhov">
          1.40978396e-03 2.14831665e-03 4.22082382e-03 7.39903866e-03 
        </DataArray>
        <DataArray type="Float64" Name="E">
          2.46734845e+05 2.49069129e+05 2.51560897e+05 2.54225137e+05 
        </DataArray>
      </PointData>
    </Piece>
    <Piece NumberOfPoints="4" NumberOfCells="3">
      <Points>
        <DataArray type="Float64" NumberOfComponents="3" format="ascii">
          6.13753870e-02 -3.86530459e-02 0.00000000e+00 
5.75117208e-02 -3.76208089e-02 0.00000000e+00 
5.36618084e-02 -3.65384258e-02 0.00000000e+00 
4.98276278e-02 -3.54015976e-02 0.00000000e+00 

        </DataArray>
      </Points>
      <Cells>
        <DataArray type="Int32" Name="connectivity" format="ascii">
0 1
1 2
2 3

        </DataArray>
        <DataArray type="Int32" Name="offsets" format="ascii">
2 4 6 
        </DataArray>
        <DataArray type="UInt8" Name="types" format="ascii">
3 3 3 
        </DataArray>
      </Cells>
      <PointData>
        <DataArray type="Float64" Name="rho">
          1.10969834e+00 1.12157201e+00 1.13432187e+00 1.14807926e+00 
        </DataArray>
        <DataArray type="Float64" Name="rhou">
          9.02908419e-03 1.98384685e-03 -7.21527636e-03 -1.87149196e-02 
        </DataArray>
        <DataArray type="Float64" Name="rhov">
          7.17138920e-03 1.18561101e-02 1.99073992e-02 3.13437522e-02 
        </DataArray>
        <DataArray type="Float64" Name="E">
          2.54225202e+05 2.57083693e+05 2.60155792e+05 2.63473989e+05 
        </DataArray>
      </PointData>
    </Piece>
    <Piece NumberOfPoints="4" NumberOfCells="3">
      <Points>
        <DataArray type="Float64" NumberOfComponents="3" format="ascii">
          4.98276278e-02 -3.54015976e-02 0.00000000e+00 
4.60115410e-02 -3.42054628e-02 0.00000000e+00 
4.22164090e-02 -3.29444520e-02 0.00000000e+00 
3.84457745e-02 -3.16120051e-02 0.00000000e+00 

        </DataArray>
      </Points>
      <Cells>
        <DataArray type="Int32" Name="connectivity" format="ascii">
0 1
1 2
2 3

        </DataArray>
        <DataArray type="Int32" Name="offsets" format="ascii">
2 4 6 
        </DataArray>
        <DataArray type="UInt8" Name="types" format="ascii">
3 3 3 
        </DataArray>
      </Cells>
      <PointData>
        <DataArray type="Float64" Name="rho">
          1.14807918e+00 1.16294409e+00 1.17902847e+00 1.19652374e+00 
        </DataArray>
        <DataArray type="Float64" Name="rhou">
          -1.91680756e-02 -3.32881184e-02 -5.22538582e-02 -7.49405678e-02 
        </DataArray>
        <DataArray type="Float64" Name="rhov">
          3.11293799e-02 4.77584516e-02 7.53439310e-02 1.15708464e-01 
        </DataArray>
        <DataArray type="Float64" Name="E">
          2.63473937e+05 2.67065799e+05 2.70957157e+05 2.75196234e+05 
        </DataArray>
      </PointData>
    </Piece>
    <Piece NumberOfPoints="4" NumberOfCells="3">
      <Points>
        <DataArray type="Float64" NumberOfComponents="3" format="ascii">
          3.84457745e-02 -3.16120051e-02 0.00000000e+00 
3.47041376e-02 -3.02002355e-02 0.00000000e+00 
3.09973080e-02 -2.86995135e-02 0.00000000e+00 
2.73328498e-02 -2.70981900e-02 0.00000000e+00 

        </DataArray>
      </Points>
      <Cells>
        <DataArray type="Int32" Name="connectivity" format="ascii">
0 1
1 2
2 3

        </DataArray>
        <DataArray type="Int32" Name="offsets" format="ascii">
2 4 6 
        </DataArray>
        <DataArray type="UInt8" Name="types" format="ascii">
3 3 3 
        </DataArray>
      </Cells>
      <PointData>
        <DataArray type="Float64" Name="rho">
          1.19652396e+00 1.21561957e+00 1.23650864e+00 1.25956255e+00 
        </DataArray>
        <DataArray type="Float64" Name="rhou">
          -7.58898610e-02 -1.00022944e-01 -1.28641536e-01 -1.54034389e-01 
        </DataArray>
        <DataArray type="Float64" Name="rhov">
          1.15627957e-01 1.71055671e-01 2.56794644e-01 3.76835894e-01 
        </DataArray>
        <DataArray type="Float64" Name="E">
          2.75196153e+05 2.79834806e+05 2.84917716e+05 2.90538952e+05 
        </DataArray>
      </PointData>
    </Piece>
    <Piece NumberOfPoints="4" NumberOfCells="3">
      <Points>
        <DataArray type="Float64" NumberOfComponents="3" format="ascii">
          2.73328498e-02 -2.70981900e-02 0.00000000e+00 
2.37206947e-02 -2.53822580e-02 0.00000000e+00 
2.01744195e-02 -2.35341713e-02 0.00000000e+00 
1.67132635e-02 -2.15314496e-02 0.00000000e+00 

        </DataArray>
      </Points>
      <Cells>
        <DataArray type="Int32" Name="connectivity" format="ascii">
0 1
1 2
2 3

        </DataArray>
        <DataArray type="Int32" Name="offsets" format="ascii">
2 4 6 
        </DataArray>
        <DataArray type="UInt8" Name="types" format="ascii">
3 3 3 
        </DataArray>
      </Cells>
      <PointData>
        <DataArray type="Float64" Name="rho">
          1.25956741e+00 1.28512587e+00 1.31364429e+00 1.34646864e+00 
        </DataArray>
        <DataArray type="Float64" Name="rhou">
          -1.54414151e-01 -1.68517432e-01 -1.52927928e-01 -5.71620603e-02 
        </DataArray>
        <DataArray type="Float64" Name="rhov">
          3.77509693e-01 5.29061589e-01 7.39347727e-01 9.57272902e-01 
        </DataArray>
        <DataArray type="Float64" Name="E">
          2.90539849e+05 2.96793922e+05 3.03785006e+05 3.11841670e+05 
        </DataArray>
      </PointData>
    </Piece>
    <Piece NumberOfPoints="4" NumberOfCells="3">
      <Points>
        <DataArray type="Float64" NumberOfComponents="3" format="ascii">
          1.67132635e-02 -2.15314496e-02 0.00000000e+00 
1.33649679e-02 -1.93456318e-02 0.00000000e+00 
1.01706637e-02 -1.69409402e-02 0.00000000e+00 
7.19343964e-03 -1.42731192e-02 0.00000000e+00 

        </DataArray>
      </Points>
      <Cells>
        <DataArray type="Int32" Name="connectivity" format="ascii">
0 1
1 2
2 3

        </DataArray>
        <DataArray type="Int32" Name="offsets" format="ascii">
2 4 6 
        </DataArray>
        <DataArray type="UInt8" Name="types" format="ascii">
3 3 3 
        </DataArray>
      </Cells>
      <PointData>
        <DataArray type="Float64" Name="rho">
          1.34636293e+00 1.38622724e+00 1.43346238e+00 1.49856136e+00 
        </DataArray>
        <DataArray type="Float64" Name="rhou">
          -3.46241001e-02 1.13449984e-01 4.54074679e-01 8.73631090e-01 
        </DataArray>
        <DataArray type="Float64" Name="rhov">
          9.19074478e-01 1.12167205e+00 1.06675260e+00 5.17352913e-01 
        </DataArray>
        <DataArray type="Float64" Name="E">
          3.11817511e+05 3.21605201e+05 3.33195495e+05 3.49054108e+05 
        </DataArray>
      </PointData>
    </Piece>
    <Piece NumberOfPoints="4" NumberOfCells="3">
      <Points>
        <DataArray type="Float64" NumberOfComponents="3" format="ascii">
          7.19343964e-03 -1.42731192e-02 0.00000000e+00 
4.53082798e-03 -1.12927537e-02 0.00000000e+00 
2.33371323e-03 -7.95678515e-03 0.00000000e+00 
8.10639584e-04 -4.26717056e-03 0.00000000e+00 

        </DataArray>
      </Points>
      <Cells>
        <DataArray type="Int32" Name="connectivity" format="ascii">
0 1
1 2
2 3

        </DataArray>
        <DataArray type="Int32" Name="offsets" format="ascii">
2 4 6 
        </DataArray>
        <DataArray type="UInt8" Name="types" format="ascii">
3 3 3 
        </DataArray>
      </Cells>
      <PointData>
        <DataArray type="Float64" Name="rho">
          1.49908035e+00 1.57350483e+00 1.66258820e+00 1.73128610e+00 
        </DataArray>
        <DataArray type="Float64" Name="rhou">
          7.98702538e-01 9.28297891e-01 2.57354582e-01 -1.27507893e+00 
        </DataArray>
        <DataArray type="Float64" Name="rhov">
          6.16015161e-01 -5.11398531e-01 -1.72773868e+00 -1.81501675e+00 
        </DataArray>
        <DataArray type="Float64" Name="E">
          3.49181262e+05 3.67347571e+05 3.88969896e+05 4.05666939e+05 
        </DataArray>
      </PointData>
    </Piece>
    <Piece NumberOfPoints="4" NumberOfCells="3">
      <Points>
        <DataArray type="Float64" NumberOfComponents="3" format="ascii">
          8.10639584e-04 -4.26717056e-03 0.00000000e+00 
1.91366620e-04 -3.27450951e-04 0.00000000e+00 
6.40850572e-04 3.63462302e-03 0.00000000e+00 
2.03182548e-03 7.37539819e-03 0.00000000e+00 

        </DataArray>
      </Points>
      <Cells>
        <DataArray type="Int32" Name="connectivity" format="ascii">
0 1
1 2
2 3

        </DataArray>
        <DataArray type="Int32" Name="offsets" format="ascii">
2 4 6 
        </DataArray>
        <DataArray type="UInt8" Name="types" format="ascii">
3 3 3 
        </DataArray>
      </Cells>
      <PointData>
        <DataArray type="Float64" Name="rho">
          1.72971065e+00 1.75463978e+00 1.70419961e+00 1.61173619e+00 
        </DataArray>
        <DataArray type="Float64" Name="rhou">
          -1.14958944e+00 -1.87726717e+00 -8.33583628e-01 7.51848301e-01 
        </DataArray>
        <DataArray type="Float64" Name="rhov">
          -1.97319702e+00 3.65059505e-01 1.88142822e+00 1.51300467e+00 
        </DataArray>
        <DataArray type="Float64" Name="E">
          4.05285514e+05 4.11252940e+05 3.98923866e+05 3.76343974e+05 
        </DataArray>
      </PointData>
    </Piece>
    <Piece NumberOfPoints="4" NumberOfCells="3">
      <Points>
        <DataArray type="Float64" NumberOfComponents="3" format="ascii">
          2.03182548e-03 7.37539819e-03 0.00000000e+00 
4.13410179e-03 1.07714310e-02 0.00000000e+00 
6.73249783e-03 1.38076087e-02 0.00000000e+00 
9.66598373e-03 1.65232457e-02 0.00000000e+00 

        </DataArray>
      </Points>
      <Cells>
        <DataArray type="Int32" Name="connectivity" format="ascii">
0 1
1 2
2 3

        </DataArray>
        <DataArray type="Int32" Name="offsets" format="ascii">
2 4 6 
        </DataArray>
        <DataArray type="UInt8" Name="types" format="ascii">
3 3 3 
        </DataArray>
      </Cells>
      <PointData>
        <DataArray type="Float64" Name="rho">
          1.61209829e+00 1.50496691e+00 1.41572945e+00 1.34877433e+00 
        </DataArray>
        <DataArray type="Float64" Name="rhou">
          7.24253043e-01 1.15390088e+00 8.38537359e-01 3.74210223e-01 
        </DataArray>
        <DataArray type="Float64" Name="rhov">
          1.74773982e+00 6.13283677e-02 -1.07462347e+00 -1.39848797e+00 
        </DataArray>
        <DataArray type="Float64" Name="E">
          3.76435066e+05 3.50430889e+05 3.28733304e+05 3.12372632e+05 
        </DataArray>
      </PointData>
    </Piece>
    <Piece NumberOfPoints="4" NumberOfCells="3">
      <Points>
        <DataArray type="Float64" NumberOfComponents="3" format="ascii">
          9.66598373e-03 1.65232457e-02 0.00000000e+00 
1.28298048e-02 1.89677756e-02 0.00000000e+00 
1.61561389e-02 2.11867876e-02 0.00000000e+00 
1.96009967e-02 2.32173651e-02 0.00000000e+00 

        </DataArray>
      </Points>
      <Cells>
        <DataArray type="Int32" Name="connectivity" format="ascii">
0 1
1 2
2 3

        </DataArray>
        <DataArray type="Int32" Name="offsets" format="ascii">
2 4 6 
        </DataArray>
        <DataArray type="UInt8" Name="types" format="ascii">
3 3 3 
        </DataArray>
      </Cells>
      <PointData>
        <DataArray type="Float64" Name="rho">
          1.34856907e+00 1.29610026e+00 1.25712506e+00 1.22281464e+00 
        </DataArray>
        <DataArray type="Float64" Name="rhou">
          3.83780156e-01 -1.73447856e-02 -1.98486390e-01 -2.18831404e-01 
        </DataArray>
        <DataArray type="Float64" Name="rhov">
          -1.42308985e+00 -1.31812968e+00 -9.88240308e-01 -6.63187477e-01 
        </DataArray>
        <DataArray type="Float64" Name="E">
          3.12320484e+05 2.99500531e+05 2.89928028e+05 2.81527374e+05 
        </DataArray>
      </PointData>
    </Piece>
    <Piece NumberOfPoints="4" NumberOfCells="3">
      <Points>
        <DataArray type="Float64" NumberOfComponents="3" format="ascii">
          1.96009967e-02 2.32173651e-02 0.00000000e+00 
2.31348258e-02 2.50891000e-02 0.00000000e+00 
2.67372411e-02 2.68253610e-02 0.00000000e+00 
3.03938854e-02 2.84444261e-02 0.00000000e+00 

        </DataArray>
      </Points>
      <Cells>
        <DataArray type="Int32" Name="connectivity" format="ascii">
0 1
1 2
2 3

        </DataArray>
        <DataArray type="Int32" Name="offsets" format="ascii">
2 4 6 
        </DataArray>
        <DataArray type="UInt8" Name="types" format="ascii">
3 3 3 
        </DataArray>
      </Cells>
      <PointData>
        <DataArray type="Float64" Name="rho">
          1.22287831e+00 1.19375555e+00 1.16770950e+00 1.14412181e+00 
        </DataArray>
        <DataArray type="Float64" Name="rhou">
          -2.31936612e-01 -2.18341780e-01 -1.73096316e-01 -1.30868676e-01 
        </DataArray>
        <DataArray type="Float64" Name="rhov">
          -6.81398528e-01 -4.30707538e-01 -2.44423219e-01 -1.31891482e-01 
        </DataArray>
        <DataArray type="Float64" Name="E">
          2.81542271e+05 2.74431304e+05 2.68094555e+05 2.62372990e+05 
        </DataArray>
      </PointData>
    </Piece>
    <Piece NumberOfPoints="4" NumberOfCells="3">
      <Points>
        <DataArray type="Float64" NumberOfComponents="3" format="ascii">
          3.03938854e-02 2.84444261e-02 0.00000000e+00 
3.40943485e-02 2.99607720e-02 0.00000000e+00 
3.78307216e-02 3.13864015e-02 0.00000000e+00 
4.15969416e-02 3.27312648e-02 0.00000000e+00 

        </DataArray>
      </Points>
      <Cells>
        <DataArray type="Int32" Name="connectivity" format="ascii">
0 1
1 2
2 3

        </DataArray>
        <DataArray type="Int32" Name="offsets" format="ascii">
2 4 6 
        </DataArray>
        <DataArray type="UInt8" Name="types" format="ascii">
3 3 3 
        </DataArray>
      </Cells>
      <PointData>
        <DataArray type="Float64" Name="rho">
          1.14412009e+00 1.12277774e+00 1.10339230e+00 1.08572071e+00 
        </DataArray>
        <DataArray type="Float64" Name="rhou">
          -1.29080178e-01 -8.89764443e-02 -5.62252104e-02 -3.32890086e-02 
        </DataArray>
        <DataArray type="Float64" Name="rhov">
          -1.30442060e-01 -5.44345076e-02 -7.44727606e-03 1.78855445e-02 
        </DataArray>
        <DataArray type="Float64" Name="E">
          2.62372839e+05 2.57214588e+05 2.52540624e+05 2.48287712e+05 
        </DataArray>
      </PointData>
    </Piece>
    <Piece NumberOfPoints="4" NumberOfCells="3">
      <Points>
        <DataArray type="Float64" NumberOfComponents="3" format="ascii">
          4.15969416e-02 3.27312648e-02 0.00000000e+00 
4.53883260e-02 3.40034962e-02 0.00000000e+00 
4.92011942e-02 3.52098532e-02 0.00000000e+00 
5.30325845e-02 3.63560505e-02 0.00000000e+00 

        </DataArray>
      </Points>
      <Cells>
        <DataArray type="Int32" Name="connectivity" format="ascii">
0 1
1 2
2 3

        </DataArray>
        <DataArray type="Int32" Name="offsets" format="ascii">
2 4 6 
        </DataArray>
        <DataArray type="UInt8" Name="types" format="ascii">
3 3 3 
        </DataArray>
      </Cells>
      <PointData>
        <DataArray type="Float64" Name="rho">
          1.08572127e+00 1.06957461e+00 1.05476437e+00 1.04113183e+00 
        </DataArray>
        <DataArray type="Float64" Name="rhou">
          -3.21539034e-02 -1.27511971e-02 1.66124070e-03 1.10227724e-02 
        </DataArray>
        <DataArray type="Float64" Name="rhov">
          1.77898919e-02 3.14363008e-02 3.80675122e-02 3.92063537e-02 
        </DataArray>
        <DataArray type="Float64" Name="E">
          2.48287921e+05 2.44410551e+05 2.40859650e+05 2.37595287e+05 
        </DataArray>
      </PointData>
    </Piece>
    <Piece NumberOfPoints="4" NumberOfCells="3">
      <Points>
        <DataArray type="Float64" NumberOfComponents="3" format="ascii">
          5.30325845e-02 3.63560505e-02 0.00000000e+00 
5.68800643e-02 3.74470428e-02 0.00000000e+00 
6.07415959e-02 3.84872220e-02 0.00000000e+00 
6.46155030e-02 3.94803248e-02 0.00000000e+00 

        </DataArray>
      </Points>
      <Cells>
        <DataArray type="Int32" Name="connectivity" format="ascii">
0 1
1 2
2 3

        </DataArray>
        <DataArray type="Int32" Name="offsets" format="ascii">
2 4 6 
        </DataArray>
        <DataArray type="UInt8" Name="types" format="ascii">
3 3 3 
        </DataArray>
      </Cells>
      <PointData>
        <DataArray type="Float64" Name="rho">
          1.04113252e+00 1.02858964e+00 1.01700401e+00 1.00623503e+00 
        </DataArray>
        <DataArray type="Float64" Name="rhou">
          1.13375379e-02 1.83145508e-02 2.38397801e-02 2.76592715e-02 
        </DataArray>
        <DataArray type="Float64" Name="rhov">
          3.88791878e-02 3.72027784e-02 3.51388230e-02 3.19054385e-02 
        </DataArray>
        <DataArray type="Float64" Name="E">
          2.37595444e+05 2.34596233e+05 2.31828756e+05 2.29258905e+05 
        </DataArray>
      </PointData>
    </Piece>
    <Piece NumberOfPoints="4" NumberOfCells="3">
      <Points>
        <DataArray type="Float64" NumberOfComponents="3" format="ascii">
          6.46155030e-02 3.94803248e-02 0.00000000e+00 
6.85004294e-02 4.04294394e-02 0.00000000e+00 
7.23951608e-02 4.13374715e-02 0.00000000e+00 
7.62986317e-02 4.22072113e-02 0.00000000e+00 

        </DataArray>
      </Points>
      <Cells>
        <DataArray type="Int32" Name="connectivity" format="ascii">
0 1
1 2
2 3

        </DataArray>
        <DataArray type="Int32" Name="offsets" format="ascii">
2 4 6 
        </DataArray>
        <DataArray type="UInt8" Name="types" format="ascii">
3 3 3 
        </DataArray>
      </Cells>
      <PointData>
        <DataArray type="Float64" Name="rho">
          1.00623574e+00 9.96242077e-01 9.86934186e-01 9.78256606e-01 
        </DataArray>
        <DataArray type="Float64" Name="rhou">
          2.74785437e-02 2.94146195e-02 3.05061939e-02 3.05937652e-02 
        </DataArray>
        <DataArray type="Float64" Name="rhov">
          3.16071149e-02 2.76986116e-02 2.43188328e-02 2.10081374e-02 
        </DataArray>
        <DataArray type="Float64" Name="E">
          2.29259050e+05 2.26876829e+05 2.24659925e+05 2.22594439e+05 
        </DataArray>
      </PointData>
    </Piece>
    <Piece NumberOfPoints="4" NumberOfCells="3">
      <Points>
        <DataArray type="Float64" NumberOfComponents="3" format="ascii">
          7.62986317e-02 4.22072113e-02 0.00000000e+00 
8.02098960e-02 4.30411920e-02 0.00000000e+00 
8.41281936e-02 4.38414887e-02 0.00000000e+00 
8.80528912e-02 4.46097627e-02 0.00000000e+00 

        </DataArray>
      </Points>
      <Cells>
        <DataArray type="Int32" Name="connectivity" format="ascii">
0 1
1 2
2 3

        </DataArray>
        <DataArray type="Int32" Name="offsets" format="ascii">
2 4 6 
        </DataArray>
        <DataArray type="UInt8" Name="types" format="ascii">
3 3 3 
        </DataArray>
      </Cells>
      <PointData>
        <DataArray type="Float64" Name="rho">
          9.78255661e-01 9.70162199e-01 9.62558002e-01 9.55397346e-01 
        </DataArray>
        <DataArray type="Float64" Name="rhou">
          3.04463387e-02 3.04679698e-02 3.01907622e-02 2.91259610e-02 
        </DataArray>
        <DataArray type="Float64" Name="rhov">
          2.08449717e-02 1.82833191e-02 1.57731928e-02 1.30930548e-02 
        </DataArray>
        <DataArray type="Float64" Name="E">
          2.22594202e+05 2.20669255e+05 2.18861961e+05 2.17161242e+05 
        </DataArray>
      </PointData>
    </Piece>
    <Piece NumberOfPoints="4" NumberOfCells="3">
      <Points>
        <DataArray type="Float64" NumberOfComponents="3" format="ascii">
          8.80528912e-02 4.46097627e-02 0.00000000e+00 
9.19835642e-02 4.53475714e-02 0.00000000e+00 
9.59195644e-02 4.60564308e-02 0.00000000e+00 
9.98597518e-02 4.67394181e-02 0.00000000e+00 

        </DataArray>
      </Points>
      <Cells>
        <DataArray type="Int32" Name="connectivity" format="ascii">
0 1
1 2
2 3

        </DataArray>
        <DataArray type="Int32" Name="offsets" format="ascii">
2 4 6 
        </DataArray>
        <DataArray type="UInt8" Name="types" format="ascii">
3 3 3 
        </DataArray>
      </Cells>
      <PointData>
        <DataArray type="Float64" Name="rho">
          9.55397855e-01 9.48670715e-01 9.42364495e-01 9.36379453e-01 
        </DataArray>
        <DataArray type="Float64" Name="rhou">
          2.89340699e-02 2.75104513e-02 2.40456484e-02 2.85502975e-02 
        </DataArray>
        <DataArray type="Float64" Name="rhov">
          1.32558235e-02 1.06820844e-02 9.10012690e-03 8.60134593e-03 
        </DataArray>
        <DataArray type="Float64" Name="E">
          2.17161360e+05 2.15564835e+05 2.14068655e+05 2.12649722e+05 
        </DataArray>
      </PointData>
    </Piece>
    <Piece NumberOfPoints="4" NumberOfCells="3">
      <Points>
        <DataArray type="Float64" NumberOfComponents="3" format="ascii">
          9.98597518e-02 4.67394181e-02 0.00000000e+00 
1.10118888e-01 4.83862534e-02 0.00000000e+00 
1.20400399e-01 4.98730615e-02 0.00000000e+00 
1.30701363e-01 5.12186773e-02 0.00000000e+00 

        </DataArray>
      </Points>
      <Cells>
        <DataArray type="Int32" Name="connectivity" format="ascii">
0 1
1 2
2 3

        </DataArray>
        <DataArray type="Int32" Name="offsets" format="ascii">
2 4 6 
        </DataArray>
        <DataArray type="UInt8" Name="types" format="ascii">
3 3 3 
        </DataArray>
      </Cells>
      <PointData>
        <DataArray type="Float64" Name="rho">
          9.36306903e-01 9.22348576e-01 9.10309177e-01 8.99962323e-01 
        </DataArray>
        <DataArray type="Float64" Name="rhou">
          2.62843543e-02 1.81239409e-02 1.59969899e-02 1.25385352e-02 
        </DataArray>
        <DataArray type="Float64" Name="rhov">
          7.36987743e-03 4.14692640e-03 3.63925912e-03 2.97021784e-03 
        </DataArray>
        <DataArray type="Float64" Name="E">
          2.12633337e+05 2.09328070e+05 2.06480717e+05 2.04036337e+05 
        </DataArray>
      </PointData>
    </Piece>
    <Piece NumberOfPoints="4" NumberOfCells="3">
      <Points>
        <DataArray type="Float64" NumberOfComponents="3" format="ascii">
          1.30701363e-01 5.12186773e-02 0.00000000e+00 
1.41019106e-01 5.24347536e-02 0.00000000e+00 
1.51350453e-01 5.35292812e-02 0.00000000e+00 
1.61692888e-01 5.45137413e-02 0.00000000e+00 

        </DataArray>
      </Points>
      <Cells>
        <DataArray type="Int32" Name="connectivity" format="ascii">
0 1
1 2
2 3

        </DataArray>
        <DataArray type="Int32" Name="offsets" format="ascii">
2 4 6 
        </DataArray>
        <DataArray type="UInt8" Name="types" format="ascii">
3 3 3 
        </DataArray>
      </Cells>
      <PointData>
        <DataArray type="Float64" Name="rho">
          8.99958839e-01 8.90878020e-01 8.83038728e-01 8.76332697e-01 
        </DataArray>
        <DataArray type="Float64" Name="rhou">
          1.39165117e-02 1.20226681e-02 9.95185222e-03 8.68853118e-03 
        </DataArray>
        <DataArray type="Float64" Name="rhov">
          3.46794145e-03 2.54550471e-03 1.77147407e-03 1.59683906e-03 
        </DataArray>
        <DataArray type="Float64" Name="E">
          2.04035500e+05 2.01893629e+05 2.00047060e+05 1.98469190e+05 
        </DataArray>
      </PointData>
    </Piece>
    <Piece NumberOfPoints="4" NumberOfCells="3">
      <Points>
        <DataArray type="Float64" NumberOfComponents="3" format="ascii">
          1.61692888e-01 5.45137413e-02 0.00000000e+00 
1.72044471e-01 5.53969070e-02 0.00000000e+00 
1.82403773e-01 5.61845005e-02 0.00000000e+00 
1.92769483e-01 5.68825118e-02 0.00000000e+00 

        </DataArray>
      </Points>
      <Cells>
        <DataArray type="Int32" Name="connectivity" format="ascii">
0 1
1 2
2 3

        </DataArray>
        <DataArray type="Int32" Name="offsets" format="ascii">
2 4 6 
        </DataArray>
        <DataArray type="UInt8" Name="types" format="ascii">
3 3 3 
        </DataArray>
      </Cells>
      <PointData>
        <DataArray type="Float64" Name="rho">
          8.76330296e-01 8.70562585e-01 8.65642590e-01 8.61517614e-01 
        </DataArray>
        <DataArray type="Float64" Name="rhou">
          8.72516593e-03 7.59596374e-03 6.56360139e-03 5.66289122e-03 
        </DataArray>
        <DataArray type="Float64" Name="rhov">
          1.64829658e-03 1.28535647e-03 9.08771721e-04 6.81175364e-04 
        </DataArray>
        <DataArray type="Float64" Name="E">
          1.98468652e+05 1.97113548e+05 1.95959678e+05 1.94994079e+05 
        </DataArray>
      </PointData>
    </Piece>
    <Piece NumberOfPoints="4" NumberOfCells="3">
      <Points>
        <DataArray type="Float64" NumberOfComponents="3" format="ascii">
          1.92769483e-01 5.68825118e-02 0.00000000e+00 
2.03140482e-01 5.74972220e-02 0.00000000e+00 
2.13515818e-01 5.80338500e-02 0.00000000e+00 
2.23894730e-01 5.84962890e-02 0.00000000e+00 

        </DataArray>
      </Points>
      <Cells>
        <DataArray type="Int32" Name="connectivity" format="ascii">
0 1
1 2
2 3

        </DataArray>
        <DataArray type="Int32" Name="offsets" format="ascii">
2 4 6 
        </DataArray>
        <DataArray type="UInt8" Name="types" format="ascii">
3 3 3 
        </DataArray>
      </Cells>
      <PointData>
        <DataArray type="Float64" Name="rho">
          8.61516926e-01 8.58107205e-01 8.55328683e-01 8.53122955e-01 
        </DataArray>
        <DataArray type="Float64" Name="rhou">
          5.69946650e-03 4.97962491e-03 4.42461213e-03 3.96536486e-03 
        </DataArray>
        <DataArray type="Float64" Name="rhov">
          7.22396126e-04 6.33282277e-04 5.18376718e-04 3.96182353e-04 
        </DataArray>
        <DataArray type="Float64" Name="E">
          1.94993920e+05 1.94197475e+05 1.93550409e+05 1.93038824e+05 
        </DataArray>
      </PointData>
    </Piece>
    <Piece NumberOfPoints="4" NumberOfCells="3">
      <Points>
        <DataArray type="Float64" NumberOfComponents="3" format="ascii">
          2.23894730e-01 5.84962890e-02 0.00000000e+00 
2.34276548e-01 5.88882305e-02 0.00000000e+00 
2.44660646e-01 5.92139624e-02 0.00000000e+00 
2.55046517e-01 5.94772622e-02 0.00000000e+00 

        </DataArray>
      </Points>
      <Cells>
        <DataArray type="Int32" Name="connectivity" format="ascii">
0 1
1 2
2 3

        </DataArray>
        <DataArray type="Int32" Name="offsets" format="ascii">
2 4 6 
        </DataArray>
        <DataArray type="UInt8" Name="types" format="ascii">
3 3 3 
        </DataArray>
      </Cells>
      <PointData>
        <DataArray type="Float64" Name="rho">
          8.53123523e-01 8.51448174e-01 8.50258545e-01 8.49499111e-01 
        </DataArray>
        <DataArray type="Float64" Name="rhou">
          3.97300265e-03 3.45336609e-03 3.07654662e-03 2.84794309e-03 
        </DataArray>
        <DataArray type="Float64" Name="rhov">
          4.10508384e-04 3.32920038e-04 3.15824173e-04 3.14435421e-04 
        </DataArray>
        <DataArray type="Float64" Name="E">
          1.93038954e+05 1.92652618e+05 1.92380875e+05 1.92210640e+05 
        </DataArray>
      </PointData>
    </Piece>
    <Piece NumberOfPoints="4" NumberOfCells="3">
      <Points>
        <DataArray type="Float64" NumberOfComponents="3" format="ascii">
          2.55046517e-01 5.94772622e-02 0.00000000e+00 
2.65433758e-01 5.96804135e-02 0.00000000e+00 
2.75821954e-01 5.98256700e-02 0.00000000e+00 
2.86210775e-01 5.99167012e-02 0.00000000e+00 

        </DataArray>
      </Points>
      <Cells>
        <DataArray type="Int32" Name="connectivity" format="ascii">
0 1
1 2
2 3

        </DataArray>
        <DataArray type="Int32" Name="offsets" format="ascii">
2 4 6 
        </DataArray>
        <DataArray type="UInt8" Name="types" format="ascii">
3 3 3 
        </DataArray>
      </Cells>
      <PointData>
        <DataArray type="Float64" Name="rho">
          8.49499123e-01 8.49121425e-01 8.49100548e-01 8.49415855e-01 
        </DataArray>
        <DataArray type="Float64" Name="rhou">
          2.84225798e-03 2.55676050e-03 2.26434693e-03 2.00226742e-03 
        </DataArray>
        <DataArray type="Float64" Name="rhov">
          3.25680119e-04 2.30681399e-04 1.72665460e-04 2.06156604e-04 
        </DataArray>
        <DataArray type="Float64" Name="E">
          1.92210646e+05 1.92130518e+05 1.92134524e+05 1.92217584e+05 
        </DataArray>
      </PointData>
    </Piece>
    <Piece NumberOfPoints="4" NumberOfCells="3">
      <Points>
        <DataArray type="Float64" NumberOfComponents="3" format="ascii">
          2.86210775e-01 5.99167012e-02 0.00000000e+00 
2.96599895e-01 5.99572174e-02 0.00000000e+00 
3.06989133e-01 5.99487796e-02 0.00000000e+00 
3.17378193e-01 5.98919280e-02 0.00000000e+00 

        </DataArray>
      </Points>
      <Cells>
        <DataArray type="Int32" Name="connectivity" format="ascii">
0 1
1 2
2 3

        </DataArray>
        <DataArray type="Int32" Name="offsets" format="ascii">
2 4 6 
        </DataArray>
        <DataArray type="UInt8" Name="types" format="ascii">
3 3 3 
        </DataArray>
      </Cells>
      <PointData>
        <DataArray type="Float64" Name="rho">
          8.49414839e-01 8.50017099e-01 8.50859414e-01 8.51926481e-01 
        </DataArray>
        <DataArray type="Float64" Name="rhou">
          2.02102300e-03 1.90618810e-03 1.78052341e-03 1.59995351e-03 
        </DataArray>
        <DataArray type="Float64" Name="rhov">
          2.22429466e-04 2.49215729e-04 1.95129161e-04 1.21139043e-04 
        </DataArray>
        <DataArray type="Float64" Name="E">
          1.92217353e+05 1.92367905e+05 1.92575096e+05 1.92835245e+05 
        </DataArray>
      </PointData>
    </Piece>
    <Piece NumberOfPoints="4" NumberOfCells="3">
      <Points>
        <DataArray type="Float64" NumberOfComponents="3" format="ascii">
          3.17378193e-01 5.98919280e-02 0.00000000e+00 
3.27766895e-01 5.97884916e-02 0.00000000e+00 
3.38155061e-01 5.96415885e-02 0.00000000e+00 
3.48542601e-01 5.94538599e-02 0.00000000e+00 

        </DataArray>
      </Points>
      <Cells>
        <DataArray type="Int32" Name="connectivity" format="ascii">
0 1
1 2
2 3

        </DataArray>
        <DataArray type="Int32" Name="offsets" format="ascii">
2 4 6 
        </DataArray>
        <DataArray type="UInt8" Name="types" format="ascii">
3 3 3 
        </DataArray>
      </Cells>
      <PointData>
        <DataArray type="Float64" Name="rho">
          8.51926825e-01 8.53205682e-01 8.54675939e-01 8.56304669e-01 
        </DataArray>
        <DataArray type="Float64" Name="rhou">
          1.62918699e-03 1.43452324e-03 1.31849090e-03 1.27219516e-03 
        </DataArray>
        <DataArray type="Float64" Name="rhov">
          1.28762803e-04 1.17263237e-04 1.42473882e-04 1.62686083e-04 
        </DataArray>
        <DataArray type="Float64" Name="E">
          1.92835323e+05 1.93145256e+05 1.93500109e+05 1.93892193e+05 
        </DataArray>
      </PointData>
    </Piece>
    <Piece NumberOfPoints="4" NumberOfCells="3">
      <Points>
        <DataArray type="Float64" NumberOfComponents="3" format="ascii">
          3.48542601e-01 5.94538599e-02 0.00000000e+00 
3.58929336e-01 5.92265576e-02 0.00000000e+00 
3.69315147e-01 5.89610897e-02 0.00000000e+00 
3.79699975e-01 5.86590059e-02 0.00000000e+00 

        </DataArray>
      </Points>
      <Cells>
        <DataArray type="Int32" Name="connectivity" format="ascii">
0 1
1 2
2 3

        </DataArray>
        <DataArray type="Int32" Name="offsets" format="ascii">
2 4 6 
        </DataArray>
        <DataArray type="UInt8" Name="types" format="ascii">
3 3 3 
        </DataArray>
      </Cells>
      <PointData>
        <DataArray type="Float64" Name="rho">
          8.56304913e-01 8.58066551e-01 8.59951225e-01 8.61938975e-01 
        </DataArray>
        <DataArray type="Float64" Name="rhou">
          1.28436601e-03 1.16130246e-03 1.06815484e-03 1.02027688e-03 
        </DataArray>
        <DataArray type="Float64" Name="rhov">
          1.59631761e-04 1.23593817e-04 1.15925053e-04 1.14098232e-04 
        </DataArray>
        <DataArray type="Float64" Name="E">
          1.93892249e+05 1.94315585e+05 1.94767780e+05 1.95244163e+05 
        </DataArray>
      </PointData>
    </Piece>
    <Piece NumberOfPoints="4" NumberOfCells="3">
      <Points>
        <DataArray type="Float64" NumberOfComponents="3" format="ascii">
          3.79699975e-01 5.86590059e-02 0.00000000e+00 
3.90083700e-01 5.83211333e-02 0.00000000e+00 
4.00466233e-01 5.79482466e-02 0.00000000e+00 
4.10847515e-01 5.75418957e-02 0.00000000e+00 

        </DataArray>
      </Points>
      <Cells>
        <DataArray type="Int32" Name="connectivity" format="ascii">
0 1
1 2
2 3

        </DataArray>
        <DataArray type="Int32" Name="offsets" format="ascii">
2 4 6 
        </DataArray>
        <DataArray type="UInt8" Name="types" format="ascii">
3 3 3 
        </DataArray>
      </Cells>
      <PointData>
        <DataArray type="Float64" Name="rho">
          8.61938986e-01 8.64012858e-01 8.66162806e-01 8.68382146e-01 
        </DataArray>
        <DataArray type="Float64" Name="rhou">
          1.01262436e-03 9.48817033e-04 8.70698975e-04 7.95375754e-04 
        </DataArray>
        <DataArray type="Float64" Name="rhov">
          1.16524733e-04 8.62066169e-05 6.33396571e-05 6.83974882e-05 
        </DataArray>
        <DataArray type="Float64" Name="E">
          1.95244166e+05 1.95740770e+05 1.96255215e+05 1.96785872e+05 
        </DataArray>
      </PointData>
    </Piece>
    <Piece NumberOfPoints="4" NumberOfCells="3">
      <Points>
        <DataArray type="Float64" NumberOfComponents="3" format="ascii">
          4.10847515e-01 5.75418957e-02 0.00000000e+00 
4.21227485e-01 5.71038015e-02 0.00000000e+00 
4.31606144e-01 5.66351078e-02 0.00000000e+00 
4.41983402e-01 5.61364293e-02 0.00000000e+00 

        </DataArray>
      </Points>
      <Cells>
        <DataArray type="Int32" Name="connectivity" format="ascii">
0 1
1 2
2 3

        </DataArray>
        <DataArray type="Int32" Name="offsets" format="ascii">
2 4 6 
        </DataArray>
        <DataArray type="UInt8" Name="types" format="ascii">
3 3 3 
        </DataArray>
      </Cells>
      <PointData>
        <DataArray type="Float64" Name="rho">
          8.68381948e-01 8.70655055e-01 8.72970242e-01 8.75317803e-01 
        </DataArray>
        <DataArray type="Float64" Name="rhou">
          8.11748676e-04 7.60511352e-04 7.21673328e-04 6.84808815e-04 
        </DataArray>
        <DataArray type="Float64" Name="rhov">
          7.18094653e-05 7.16522092e-05 6.19073886e-05 4.09068330e-05 
        </DataArray>
        <DataArray type="Float64" Name="E">
          1.96785827e+05 1.97329042e+05 1.97882083e+05 1.98442675e+05 
        </DataArray>
      </PointData>
    </Piece>
    <Piece NumberOfPoints="4" NumberOfCells="3">
      <Points>
        <DataArray type="Float64" NumberOfComponents="3" format="ascii">
          4.41983402e-01 5.61364293e-02 0.00000000e+00 
4.52359200e-01 5.56085743e-02 0.00000000e+00 
4.62733537e-01 5.50529286e-02 0.00000000e+00 
4.73106444e-01 5.44707514e-02 0.00000000e+00 

        </DataArray>
      </Points>
      <Cells>
        <DataArray type="Int32" Name="connectivity" format="ascii">
0 1
1 2
2 3

        </DataArray>
        <DataArray type="Int32" Name="offsets" format="ascii">
2 4 6 
        </DataArray>
        <DataArray type="UInt8" Name="types" format="ascii">
3 3 3 
        </DataArray>
      </Cells>
      <PointData>
        <DataArray type="Float64" Name="rho">
          8.75317944e-01 8.77693368e-01 8.80090166e-01 8.82499872e-01 
        </DataArray>
        <DataArray type="Float64" Name="rhou">
          6.81827091e-04 6.26419845e-04 5.86725353e-04 5.63371788e-04 
        </DataArray>
        <DataArray type="Float64" Name="rhov">
          4.15603898e-05 3.40171216e-05 3.42759870e-05 3.43122682e-05 
        </DataArray>
        <DataArray type="Float64" Name="E">
          1.98442707e+05 1.99009756e+05 1.99581723e+05 2.00156627e+05 
        </DataArray>
      </PointData>
    </Piece>
    <Piece NumberOfPoints="4" NumberOfCells="3">
      <Points>
        <DataArray type="Float64" NumberOfComponents="3" format="ascii">
          4.73106444e-01 5.44707514e-02 0.00000000e+00 
4.83477861e-01 5.38627952e-02 0.00000000e+00 
4.93847787e-01 5.32294959e-02 0.00000000e+00 
5.04216135e-01 5.25716618e-02 0.00000000e+00 

        </DataArray>
      </Points>
      <Cells>
        <DataArray type="Int32" Name="connectivity" format="ascii">
0 1
1 2
2 3

        </DataArray>
        <DataArray type="Int32" Name="offsets" format="ascii">
2 4 6 
        </DataArray>
        <DataArray type="UInt8" Name="types" format="ascii">
3 3 3 
        </DataArray>
      </Cells>
      <PointData>
        <DataArray type="Float64" Name="rho">
          8.82499859e-01 8.84915627e-01 8.87332086e-01 8.89748090e-01 
        </DataArray>
        <DataArray type="Float64" Name="rhou">
          5.55855538e-04 5.35000166e-04 5.00178144e-04 4.58941395e-04 
        </DataArray>
        <DataArray type="Float64" Name="rhov">
          3.61126007e-05 2.47194570e-05 9.93228722e-06 7.22801654e-06 
        </DataArray>
        <DataArray type="Float64" Name="E">
          2.00156624e+05 2.00732862e+05 2.01309175e+05 2.01885262e+05 
        </DataArray>
      </PointData>
    </Piece>
    <Piece NumberOfPoints="4" NumberOfCells="3">
      <Points>
        <DataArray type="Float64" NumberOfComponents="3" format="ascii">
          5.04216135e-01 5.25716618e-02 0.00000000e+00 
5.14582992e-01 5.18903993e-02 0.00000000e+00 
5.24948359e-01 5.11864908e-02 0.00000000e+00 
5.35312176e-01 5.04603274e-02 0.00000000e+00 

        </DataArray>
      </Points>
      <Cells>
        <DataArray type="Int32" Name="connectivity" format="ascii">
0 1
1 2
2 3

        </DataArray>
        <DataArray type="Int32" Name="offsets" format="ascii">
2 4 6 
        </DataArray>
        <DataArray type="UInt8" Name="types" format="ascii">
3 3 3 
        </DataArray>
      </Cells>
      <PointData>
        <DataArray type="Float64" Name="rho">
          8.89748006e-01 8.92158176e-01 8.94558079e-01 8.96944268e-01 
        </DataArray>
        <DataArray type="Float64" Name="rhou">
          4.67360068e-04 4.41508919e-04 4.21973960e-04 4.02824966e-04 
        </DataArray>
        <DataArray type="Float64" Name="rhov">
          9.37453560e-06 8.87534581e-06 3.42655692e-06 -8.31450410e-06 
        </DataArray>
        <DataArray type="Float64" Name="E">
          2.01885243e+05 2.02459846e+05 2.03031928e+05 2.03600683e+05 
        </DataArray>
      </PointData>
    </Piece>
    <Piece NumberOfPoints="4" NumberOfCells="3">
      <Points>
        <DataArray type="Float64" NumberOfComponents="3" format="ascii">
          5.35312176e-01 5.04603274e-02 0.00000000e+00 
5.45674443e-01 4.97124642e-02 0.00000000e+00 
5.56035221e-01 4.89437394e-02 0.00000000e+00 
5.66394389e-01 4.81546782e-02 0.00000000e+00 

        </DataArray>
      </Points>
      <Cells>
        <DataArray type="Int32" Name="connectivity" format="ascii">
0 1
1 2
2 3

        </DataArray>
        <DataArray type="Int32" Name="offsets" format="ascii">
2 4 6 
        </DataArray>
        <DataArray type="UInt8" Name="types" format="ascii">
3 3 3 
        </DataArray>
      </Cells>
      <PointData>
        <DataArray type="Float64" Name="rho">
          8.96944312e-01 8.99316114e-01 9.01670648e-01 9.04005097e-01 
        </DataArray>
        <DataArray type="Float64" Name="rhou">
          3.98629550e-04 3.72575082e-04 3.54410456e-04 3.42793482e-04 
        </DataArray>
        <DataArray type="Float64" Name="rhov">
          -8.02280254e-06 -8.84702434e-06 -9.67587598e-06 -1.39365358e-05 
        </DataArray>
        <DataArray type="Float64" Name="E">
          2.03600693e+05 2.04165944e+05 2.04727016e+05 2.05283254e+05 
        </DataArray>
      </PointData>
    </Piece>
    <Piece NumberOfPoints="4" NumberOfCells="3">
      <Points>
        <DataArray type="Float64" NumberOfComponents="3" format="ascii">
          5.66394389e-01 4.81546782e-02 0.00000000e+00 
5.76752067e-01 4.73455116e-02 0.00000000e+00 
5.87108195e-01 4.65166979e-02 0.00000000e+00 
5.97462773e-01 4.56690118e-02 0.00000000e+00 

        </DataArray>
      </Points>
      <Cells>
        <DataArray type="Int32" Name="connectivity" format="ascii">
0 1
1 2
2 3

        </DataArray>
        <DataArray type="Int32" Name="offsets" format="ascii">
2 4 6 
        </DataArray>
        <DataArray type="UInt8" Name="types" format="ascii">
3 3 3 
        </DataArray>
      </Cells>
      <PointData>
        <DataArray type="Float64" Name="rho">
          9.04005125e-01 9.06317839e-01 9.08608510e-01 9.10876270e-01 
        </DataArray>
        <DataArray type="Float64" Name="rhou">
          3.42118622e-04 3.22088893e-04 3.01401415e-04 2.85671221e-04 
        </DataArray>
        <DataArray type="Float64" Name="rhov">
          -1.35960172e-05 -2.21450593e-05 -2.57058187e-05 -2.46174037e-05 
        </DataArray>
        <DataArray type="Float64" Name="E">
          2.05283261e+05 2.05834277e+05 2.06379989e+05 2.06920189e+05 
        </DataArray>
      </PointData>
    </Piece>
    <Piece NumberOfPoints="4" NumberOfCells="3">
      <Points>
        <DataArray type="Float64" NumberOfComponents="3" format="ascii">
          5.97462773e-01 4.56690118e-02 0.00000000e+00 
6.07815862e-01 4.48031016e-02 0.00000000e+00 
6.18167400e-01 4.39192392e-02 0.00000000e+00 
6.28517449e-01 4.30175588e-02 0.00000000e+00 

        </DataArray>
      </Points>
      <Cells>
        <DataArray type="Int32" Name="connectivity" format="ascii">
0 1
1 2
2 3

        </DataArray>
        <DataArray type="Int32" Name="offsets" format="ascii">
2 4 6 
        </DataArray>
        <DataArray type="UInt8" Name="types" format="ascii">
3 3 3 
        </DataArray>
      </Cells>
      <PointData>
        <DataArray type="Float64" Name="rho">
          9.10876208e-01 9.13119224e-01 9.15335744e-01 9.17525948e-01 
        </DataArray>
        <DataArray type="Float64" Name="rhou">
          2.83779246e-04 2.75259357e-04 2.63529350e-04 2.46697835e-04 
        </DataArray>
        <DataArray type="Float64" Name="rhov">
          -2.37022945e-05 -2.42357748e-05 -2.97931618e-05 -3.50998571e-05 
        </DataArray>
        <DataArray type="Float64" Name="E">
          2.06920175e+05 2.07454436e+05 2.07982357e+05 2.08503974e+05 
        </DataArray>
      </PointData>
    </Piece>
    <Piece NumberOfPoints="4" NumberOfCells="3">
      <Points>
        <DataArray type="Float64" NumberOfComponents="3" format="ascii">
          6.28517449e-01 4.30175588e-02 0.00000000e+00 
6.38865948e-01 4.20984775e-02 0.00000000e+00 
6.49212897e-01 4.11624312e-02 0.00000000e+00 
6.59558356e-01 4.02097441e-02 0.00000000e+00 

        </DataArray>
      </Points>
      <Cells>
        <DataArray type="Int32" Name="connectivity" format="ascii">
0 1
1 2
2 3

        </DataArray>
        <DataArray type="Int32" Name="offsets" format="ascii">
2 4 6 
        </DataArray>
        <DataArray type="UInt8" Name="types" format="ascii">
3 3 3 
        </DataArray>
      </Cells>
      <PointData>
        <DataArray type="Float64" Name="rho">
          9.17525940e-01 9.19689667e-01 9.21826118e-01 9.23935012e-01 
        </DataArray>
        <DataArray type="Float64" Name="rhou">
          2.47654427e-04 2.35179546e-04 2.24520323e-04 2.13085346e-04 
        </DataArray>
        <DataArray type="Float64" Name="rhov">
          -3.40977868e-05 -3.48359543e-05 -3.67006644e-05 -3.89311934e-05 
        </DataArray>
        <DataArray type="Float64" Name="E">
          2.08503972e+05 2.09019244e+05 2.09527989e+05 2.10030140e+05 
        </DataArray>
      </PointData>
    </Piece>
    <Piece NumberOfPoints="4" NumberOfCells="3">
      <Points>
        <DataArray type="Float64" NumberOfComponents="3" format="ascii">
          6.59558356e-01 4.02097441e-02 0.00000000e+00 
6.69902325e-01 3.92407738e-02 0.00000000e+00 
6.80244744e-01 3.82556282e-02 0.00000000e+00 
6.90585554e-01 3.72543521e-02 0.00000000e+00 

        </DataArray>
      </Points>
      <Cells>
        <DataArray type="Int32" Name="connectivity" format="ascii">
0 1
1 2
2 3

        </DataArray>
        <DataArray type="Int32" Name="offsets" format="ascii">
2 4 6 
        </DataArray>
        <DataArray type="UInt8" Name="types" format="ascii">
3 3 3 
        </DataArray>
      </Cells>
      <PointData>
        <DataArray type="Float64" Name="rho">
          9.23934995e-01 9.26016357e-01 9.28069098e-01 9.30094022e-01 
        </DataArray>
        <DataArray type="Float64" Name="rhou">
          2.09954380e-04 2.05101470e-04 1.96747984e-04 1.82564149e-04 
        </DataArray>
        <DataArray type="Float64" Name="rhov">
          -3.79150232e-05 -3.79408218e-05 -4.23448165e-05 -4.59479381e-05 
        </DataArray>
        <DataArray type="Float64" Name="E">
          2.10030136e+05 2.10525699e+05 2.11014430e+05 2.11496511e+05 
        </DataArray>
      </PointData>
    </Piece>
    <Piece NumberOfPoints="4" NumberOfCells="3">
      <Points>
        <DataArray type="Float64" NumberOfComponents="3" format="ascii">
          6.90585554e-01 3.72543521e-02 0.00000000e+00 
7.00924933e-01 3.62373814e-02 0.00000000e+00 
7.11262703e-01 3.52048986e-02 0.00000000e+00 
7.21598923e-01 3.41568366e-02 0.00000000e+00 

        </DataArray>
      </Points>
      <Cells>
        <DataArray type="Int32" Name="connectivity" format="ascii">
0 1
1 2
2 3

        </DataArray>
        <DataArray type="Int32" Name="offsets" format="ascii">
2 4 6 
        </DataArray>
        <DataArray type="UInt8" Name="types" format="ascii">
3 3 3 
        </DataArray>
      </Cells>
      <PointData>
        <DataArray type="Float64" Name="rho">
          9.30093981e-01 9.32091512e-01 9.34060510e-01 9.36001633e-01 
        </DataArray>
        <DataArray type="Float64" Name="rhou">
          1.81226030e-04 1.76325566e-04 1.71268237e-04 1.58656470e-04 
        </DataArray>
        <DataArray type="Float64" Name="rhov">
          -4.48516348e-05 -4.24516618e-05 -4.57365915e-05 -5.03932822e-05 
        </DataArray>
        <DataArray type="Float64" Name="E">
          2.11496501e+05 2.11972031e+05 2.12440752e+05 2.12902818e+05 
        </DataArray>
      </PointData>
    </Piece>
    <Piece NumberOfPoints="4" NumberOfCells="3">
      <Points>
        <DataArray type="Float64" NumberOfComponents="3" format="ascii">
          7.21598923e-01 3.41568366e-02 0.00000000e+00 
7.31933594e-01 3.30936089e-02 0.00000000e+00 
7.42266715e-01 3.20154354e-02 0.00000000e+00 
7.52598286e-01 3.09220124e-02 0.00000000e+00 

        </DataArray>
      </Points>
      <Cells>
        <DataArray type="Int32" Name="connectivity" format="ascii">
0 1
1 2
2 3

        </DataArray>
        <DataArray type="Int32" Name="offsets" format="ascii">
2 4 6 
        </DataArray>
        <DataArray type="UInt8" Name="types" format="ascii">
3 3 3 
        </DataArray>
      </Cells>
      <PointData>
        <DataArray type="Float64" Name="rho">
          9.36001613e-01 9.37915889e-01 9.39802041e-01 9.41660608e-01 
        </DataArray>
        <DataArray type="Float64" Name="rhou">
          1.56093229e-04 1.52070007e-04 1.49261813e-04 1.39265458e-04 
        </DataArray>
        <DataArray type="Float64" Name="rhov">
          -4.94447207e-05 -4.51084338e-05 -4.73519585e-05 -5.23531655e-05 
        </DataArray>
        <DataArray type="Float64" Name="E">
          2.12902814e+05 2.13358460e+05 2.13807400e+05 2.14249758e+05 
        </DataArray>
      </PointData>
    </Piece>
    <Piece NumberOfPoints="4" NumberOfCells="3">
      <Points>
        <DataArray type="Float64" NumberOfComponents="3" format="ascii">
          7.52598286e-01 3.09220124e-02 0.00000000e+00 
7.62928188e-01 2.98135038e-02 0.00000000e+00 
7.73256481e-01 2.86899786e-02 0.00000000e+00 
7.83583105e-01 2.75512449e-02 0.00000000e+00 

        </DataArray>
      </Points>
      <Cells>
        <DataArray type="Int32" Name="connectivity" format="ascii">
0 1
1 2
2 3

        </DataArray>
        <DataArray type="Int32" Name="offsets" format="ascii">
2 4 6 
        </DataArray>
        <DataArray type="UInt8" Name="types" format="ascii">
3 3 3 
        </DataArray>
      </Cells>
      <PointData>
        <DataArray type="Float64" Name="rho">
          9.41660603e-01 9.43492732e-01 9.45297673e-01 9.47076142e-01 
        </DataArray>
        <DataArray type="Float64" Name="rhou">
          1.36779784e-04 1.33130328e-04 1.29358870e-04 1.20292620e-04 
        </DataArray>
        <DataArray type="Float64" Name="rhov">
          -5.14590956e-05 -4.92404193e-05 -5.13988840e-05 -5.45606129e-05 
        </DataArray>
        <DataArray type="Float64" Name="E">
          2.14249757e+05 2.14685797e+05 2.15115351e+05 2.15538582e+05 
        </DataArray>
      </PointData>
    </Piece>
    <Piece NumberOfPoints="4" NumberOfCells="3">
      <Points>
        <DataArray type="Float64" NumberOfComponents="3" format="ascii">
          7.83583105e-01 2.75512449e-02 0.00000000e+00 
7.93908060e-01 2.63975188e-02 0.00000000e+00 
8.04231405e-01 2.52291560e-02 0.00000000e+00 
8.14553022e-01 2.40457114e-02 0.00000000e+00 

        </DataArray>
      </Points>
      <Cells>
        <DataArray type="Int32" Name="connectivity" format="ascii">
0 1
1 2
2 3

        </DataArray>
        <DataArray type="Int32" Name="offsets" format="ascii">
2 4 6 
        </DataArray>
        <DataArray type="UInt8" Name="types" format="ascii">
3 3 3 
        </DataArray>
      </Cells>
      <PointData>
        <DataArray type="Float64" Name="rho">
          9.47076148e-01 9.48828920e-01 9.50555955e-01 9.52256674e-01 
        </DataArray>
        <DataArray type="Float64" Name="rhou">
          1.22786162e-04 1.12477338e-04 1.11452495e-04 1.12424726e-04 
        </DataArray>
        <DataArray type="Float64" Name="rhov">
          -5.48980880e-05 -5.13505238e-05 -5.01701462e-05 -5.64441030e-05 
        </DataArray>
        <DataArray type="Float64" Name="E">
          2.15538583e+05 2.15955668e+05 2.16366596e+05 2.16771233e+05 
        </DataArray>
      </PointData>
    </Piece>
    <Piece NumberOfPoints="4" NumberOfCells="3">
      <Points>
        <DataArray type="Float64" NumberOfComponents="3" format="ascii">
          8.14553022e-01 2.40457114e-02 0.00000000e+00 
8.24872792e-01 2.28467938e-02 0.00000000e+00 
8.35190892e-01 2.16327831e-02 0.00000000e+00 
8.45507145e-01 2.04038676e-02 0.00000000e+00 

        </DataArray>
      </Points>
      <Cells>
        <DataArray type="Int32" Name="connectivity" format="ascii">
0 1
1 2
2 3

        </DataArray>
        <DataArray type="Int32" Name="offsets" format="ascii">
2 4 6 
        </DataArray>
        <DataArray type="UInt8" Name="types" format="ascii">
3 3 3 
        </DataArray>
      </Cells>
      <PointData>
        <DataArray type="Float64" Name="rho">
          9.52256716e-01 9.53932763e-01 9.55584457e-01 9.57211981e-01 
        </DataArray>
        <DataArray type="Float64" Name="rhou">
          1.06748854e-04 9.88433973e-05 9.21703936e-05 9.28205524e-05 
        </DataArray>
        <DataArray type="Float64" Name="rhov">
          -5.66966566e-05 -5.66429148e-05 -5.39867759e-05 -5.03104800e-05 
        </DataArray>
        <DataArray type="Float64" Name="E">
          2.16771243e+05 2.17169961e+05 2.17562826e+05 2.17949872e+05 
        </DataArray>
      </PointData>
    </Piece>
    <Piece NumberOfPoints="4" NumberOfCells="3">
      <Points>
        <DataArray type="Float64" NumberOfComponents="3" format="ascii">
          8.45507145e-01 2.04038676e-02 0.00000000e+00 
8.55821550e-01 1.91591792e-02 0.00000000e+00 
8.66134048e-01 1.78987328e-02 0.00000000e+00 
8.76444638e-01 1.66228991e-02 0.00000000e+00 

        </DataArray>
      </Points>
      <Cells>
        <DataArray type="Int32" Name="connectivity" format="ascii">
0 1
1 2
2 3

        </DataArray>
        <DataArray type="Int32" Name="offsets" format="ascii">
2 4 6 
        </DataArray>
        <DataArray type="UInt8" Name="types" format="ascii">
3 3 3 
        </DataArray>
      </Cells>
      <PointData>
        <DataArray type="Float64" Name="rho">
          9.57212089e-01 9.58814186e-01 9.60394628e-01 9.61950093e-01 
        </DataArray>
        <DataArray type="Float64" Name="rhou">
          1.13390019e-04 8.31417766e-05 8.19052944e-05 9.74988021e-05 
        </DataArray>
        <DataArray type="Float64" Name="rhov">
          -5.38274674e-05 -6.10212401e-05 -5.86664632e-05 -7.60544873e-05 
        </DataArray>
        <DataArray type="Float64" Name="E">
          2.17949896e+05 2.18330828e+05 2.18706492e+05 2.19076118e+05 
        </DataArray>
      </PointData>
    </Piece>
    <Piece NumberOfPoints="4" NumberOfCells="3">
      <Points>
        <DataArray type="Float64" NumberOfComponents="3" format="ascii">
          8.76444638e-01 1.66228991e-02 0.00000000e+00 
8.86753201e-01 1.53310820e-02 0.00000000e+00 
8.97059798e-01 1.40233757e-02 0.00000000e+00 
9.07364249e-01 1.26988320e-02 0.00000000e+00 

        </DataArray>
      </Points>
      <Cells>
        <DataArray type="Int32" Name="connectivity" format="ascii">
0 1
1 2
2 3

        </DataArray>
        <DataArray type="Int32" Name="offsets" format="ascii">
2 4 6 
        </DataArray>
        <DataArray type="UInt8" Name="types" format="ascii">
3 3 3 
        </DataArray>
      </Cells>
      <PointData>
        <DataArray type="Float64" Name="rho">
          9.61949652e-01 9.63486680e-01 9.64997947e-01 9.66501907e-01 
        </DataArray>
        <DataArray type="Float64" Name="rhou">
          7.22845436e-06 9.82446434e-05 4.38681615e-05 -8.18454598e-06 
        </DataArray>
        <DataArray type="Float64" Name="rhov">
          -6.81997803e-05 -7.18741347e-05 -9.07588741e-05 6.21045926e-06 
        </DataArray>
        <DataArray type="Float64" Name="E">
          2.19076018e+05 2.19441086e+05 2.19799921e+05 2.20156727e+05 
        </DataArray>
      </PointData>
    </Piece>
    <Piece NumberOfPoints="4" NumberOfCells="3">
      <Points>
        <DataArray type="Float64" NumberOfComponents="3" format="ascii">
          9.07364249e-01 1.26988320e-02 0.00000000e+00 
9.17666554e-01 1.13577880e-02 0.00000000e+00 
9.27966774e-01 1.00004105e-02 0.00000000e+00 
9.38264549e-01 8.62528384e-03 0.00000000e+00 

        </DataArray>
      </Points>
      <Cells>
        <DataArray type="Int32" Name="connectivity" format="ascii">
0 1
1 2
2 3

        </DataArray>
        <DataArray type="Int32" Name="offsets" format="ascii">
2 4 6 
        </DataArray>
        <DataArray type="UInt8" Name="types" format="ascii">
3 3 3 
        </DataArray>
      </Cells>
      <PointData>
        <DataArray type="Float64" Name="rho">
          9.66506691e-01 9.67961621e-01 9.69439358e-01 9.70771787e-01 
        </DataArray>
        <DataArray type="Float64" Name="rhou">
          7.88260214e-04 -2.02949906e-04 3.37958700e-04 7.56592090e-04 
        </DataArray>
        <DataArray type="Float64" Name="rhov">
          -6.20868236e-05 -1.14560375e-04 -4.51341640e-05 -1.43837208e-03 
        </DataArray>
        <DataArray type="Float64" Name="E">
          2.20157815e+05 2.20503106e+05 2.20853291e+05 2.21170168e+05 
        </DataArray>
      </PointData>
    </Piece>
    <Piece NumberOfPoints="4" NumberOfCells="3">
      <Points>
        <DataArray type="Float64" NumberOfComponents="3" format="ascii">
          9.38264549e-01 8.62528384e-03 0.00000000e+00 
9.48560059e-01 7.23283459e-03 0.00000000e+00 
9.58853185e-01 5.82307298e-03 0.00000000e+00 
9.69143867e-01 4.39538015e-03 0.00000000e+00 

        </DataArray>
      </Points>
      <Cells>
        <DataArray type="Int32" Name="connectivity" format="ascii">
0 1
1 2
2 3

        </DataArray>
        <DataArray type="Int32" Name="offsets" format="ascii">
2 4 6 
        </DataArray>
        <DataArray type="UInt8" Name="types" format="ascii">
3 3 3 
        </DataArray>
      </Cells>
      <PointData>
        <DataArray type="Float64" Name="rho">
          9.70725054e-01 9.72371213e-01 9.73610230e-01 9.76270098e-01 
        </DataArray>
        <DataArray type="Float64" Name="rhou">
          -6.56591809e-03 2.10293650e-03 -3.10122337e-03 -1.86942097e-02 
        </DataArray>
        <DataArray type="Float64" Name="rhov">
          -1.06903906e-03 1.28901122e-04 -1.10674469e-03 1.86158165e-02 
        </DataArray>
        <DataArray type="Float64" Name="E">
          2.21159522e+05 2.21547816e+05 2.21843577e+05 2.22463645e+05 
        </DataArray>
      </PointData>
    </Piece>
    <Piece NumberOfPoints="4" NumberOfCells="3">
      <Points>
        <DataArray type="Float64" NumberOfComponents="3" format="ascii">
          9.69143867e-01 4.39538015e-03 0.00000000e+00 
9.79435980e-01 2.94816052e-03 0.00000000e+00 
9.89725590e-01 1.48259092e-03 0.00000000e+00 
1.00000000e+00 0.00000000e+00 0.00000000e+00 

        </DataArray>
      </Points>
      <Cells>
        <DataArray type="Int32" Name="connectivity" format="ascii">
0 1
1 2
2 3

        </DataArray>
        <DataArray type="Int32" Name="offsets" format="ascii">
2 4 6 
        </DataArray>
        <DataArray type="UInt8" Name="types" format="ascii">
3 3 3 
        </DataArray>
      </Cells>
      <PointData>
        <DataArray type="Float64" Name="rho">
          9.76559588e-01 9.76182936e-01 9.79946677e-01 9.70214341e-01 
        </DataArray>
        <DataArray type="Float64" Name="rhou">
          -1.49886415e-03 -9.38698243e-03 -3.69424159e-02 4.87954290e-01 
        </DataArray>
        <DataArray type="Float64" Name="rhov">
          2.08375951e-02 1.02300562e-03 5.14888394e-02 -1.34719181e-01 
        </DataArray>
        <DataArray type="Float64" Name="E">
          2.22529601e+05 2.22458814e+05 2.23333057e+05 2.21134549e+05 
        </DataArray>
      </PointData>
    </Piece>
    <Piece NumberOfPoints="4" NumberOfCells="3">
      <Points>
        <DataArray type="Float64" NumberOfComponents="3" format="ascii">
          9.69029665e-01 -4.41133138e-03 0.00000000e+00 
9.79355037e-01 -2.95961346e-03 0.00000000e+00 
9.89677846e-01 -1.48943183e-03 0.00000000e+00 
1.00000000e+00 0.00000000e+00 0.00000000e+00 

        </DataArray>
      </Points>
      <Cells>
        <DataArray type="Int32" Name="connectivity" format="ascii">
0 1
1 2
2 3

        </DataArray>
        <DataArray type="Int32" Name="offsets" format="ascii">
2 4 6 
        </DataArray>
        <DataArray type="UInt8" Name="types" format="ascii">
3 3 3 
        </DataArray>
      </Cells>
      <PointData>
        <DataArray type="Float64" Name="rho">
          9.75408546e-01 9.75099319e-01 9.78825751e-01 9.70358283e-01 
        </DataArray>
        <DataArray type="Float64" Name="rhou">
          -9.34143732e-04 -7.35554099e-03 -3.49049609e-02 4.48969586e-01 
        </DataArray>
        <DataArray type="Float64" Name="rhov">
          -2.30262518e-02 2.04742816e-03 -4.78663378e-02 1.40367250e-01 
        </DataArray>
        <DataArray type="Float64" Name="E">
          2.22276781e+05 2.22218553e+05 2.23080963e+05 2.21167553e+05 
        </DataArray>
      </PointData>
    </Piece>
    <Piece NumberOfPoints="4" NumberOfCells="3">
      <Points>
        <DataArray type="Float64" NumberOfComponents="3" format="ascii">
          9.38035965e-01 -8.65600072e-03 0.00000000e+00 
9.48369622e-01 -7.25875143e-03 0.00000000e+00 
9.58700895e-01 -5.84406452e-03 0.00000000e+00 
9.69029665e-01 -4.41133138e-03 0.00000000e+00 

        </DataArray>
      </Points>
      <Cells>
        <DataArray type="Int32" Name="connectivity" format="ascii">
0 1
1 2
2 3

        </DataArray>
        <DataArray type="Int32" Name="offsets" format="ascii">
2 4 6 
        </DataArray>
        <DataArray type="UInt8" Name="types" format="ascii">
3 3 3 
        </DataArray>
      </Cells>
      <PointData>
        <DataArray type="Float64" Name="rho">
          9.69725326e-01 9.71331753e-01 9.72546049e-01 9.75123664e-01 
        </DataArray>
        <DataArray type="Float64" Name="rhou">
          -6.18106690e-03 2.26181336e-03 -2.55156459e-03 -1.67583137e-02 
        </DataArray>
        <DataArray type="Float64" Name="rhov">
          1.07567653e-03 -1.66989283e-04 1.31442500e-03 -1.71332297e-02 
        </DataArray>
        <DataArray type="Float64" Name="E">
          2.20946609e+05 2.21324540e+05 2.21612925e+05 2.22211911e+05 
        </DataArray>
      </PointData>
    </Piece>
    <Piece NumberOfPoints="4" NumberOfCells="3">
      <Points>
        <DataArray type="Float64" NumberOfComponents="3" format="ascii">
          9.07021165e-01 -1.27432076e-02 0.00000000e+00 
9.17361677e-01 -1.13977119e-02 0.00000000e+00 
9.27700043e-01 -1.00357840e-02 0.00000000e+00 
9.38035965e-01 -8.65600072e-03 0.00000000e+00 

        </DataArray>
      </Points>
      <Cells>
        <DataArray type="Int32" Name="connectivity" format="ascii">
0 1
1 2
2 3

        </DataArray>
        <DataArray type="Int32" Name="offsets" format="ascii">
2 4 6 
        </DataArray>
        <DataArray type="UInt8" Name="types" format="ascii">
3 3 3 
        </DataArray>
      </Cells>
      <PointData>
        <DataArray type="Float64" Name="rho">
          9.65637459e-01 9.67041394e-01 9.68474503e-01 9.69770877e-01 
        </DataArray>
        <DataArray type="Float64" Name="rhou">
          9.11295214e-04 -5.82409692e-05 4.92831473e-04 8.78578844e-04 
        </DataArray>
        <DataArray type="Float64" Name="rhov">
          4.97074227e-05 7.60107414e-05 -8.36391717e-06 1.35565012e-03 
        </DataArray>
        <DataArray type="Float64" Name="E">
          2.19977028e+05 2.20310025e+05 2.20649278e+05 2.20956979e+05 
        </DataArray>
      </PointData>
    </Piece>
    <Piece NumberOfPoints="4" NumberOfCells="3">
      <Points>
        <DataArray type="Float64" NumberOfComponents="3" format="ascii">
          8.75986874e-01 -1.66798849e-02 0.00000000e+00 
8.86333704e-01 -1.53839625e-02 0.00000000e+00 
8.96678507e-01 -1.40720531e-02 0.00000000e+00 
9.07021165e-01 -1.27432076e-02 0.00000000e+00 

        </DataArray>
      </Points>
      <Cells>
        <DataArray type="Int32" Name="connectivity" format="ascii">
0 1
1 2
2 3

        </DataArray>
        <DataArray type="Int32" Name="offsets" format="ascii">
2 4 6 
        </DataArray>
        <DataArray type="UInt8" Name="types" format="ascii">
3 3 3 
        </DataArray>
      </Cells>
      <PointData>
        <DataArray type="Float64" Name="rho">
          9.61302524e-01 9.62754636e-01 9.64192612e-01 9.65632678e-01 
        </DataArray>
        <DataArray type="Float64" Name="rhou">
          1.60134253e-04 2.38143719e-04 1.91661634e-04 1.40776044e-04 
        </DataArray>
        <DataArray type="Float64" Name="rhov">
          6.72157403e-05 5.90003991e-05 7.38405656e-05 -1.76118293e-05 
        </DataArray>
        <DataArray type="Float64" Name="E">
          2.18948096e+05 2.19292976e+05 2.19634371e+05 2.19975941e+05 
        </DataArray>
      </PointData>
    </Piece>
    <Piece NumberOfPoints="4" NumberOfCells="3">
      <Points>
        <DataArray type="Float64" NumberOfComponents="3" format="ascii">
          8.44934702e-01 -2.04724707e-02 0.00000000e+00 
8.55287313e-01 -1.92240477e-02 0.00000000e+00 
8.65638077e-01 -1.79597028e-02 0.00000000e+00 
8.75986874e-01 -1.66798849e-02 0.00000000e+00 

        </DataArray>
      </Points>
      <Cells>
        <DataArray type="Int32" Name="connectivity" format="ascii">
0 1
1 2
2 3

        </DataArray>
        <DataArray type="Int32" Name="offsets" format="ascii">
2 4 6 
        </DataArray>
        <DataArray type="UInt8" Name="types" format="ascii">
3 3 3 
        </DataArray>
      </Cells>
      <PointData>
        <DataArray type="Float64" Name="rho">
          9.56899780e-01 9.58375524e-01 9.59845596e-01 9.61302936e-01 
        </DataArray>
        <DataArray type="Float64" Name="rhou">
          2.90245079e-04 2.32525149e-04 2.20534402e-04 2.58108480e-04 
        </DataArray>
        <DataArray type="Float64" Name="rhov">
          4.21475797e-05 6.23138871e-05 5.21113977e-05 7.02068790e-05 
        </DataArray>
        <DataArray type="Float64" Name="E">
          2.17901593e+05 2.18252479e+05 2.18601888e+05 2.18948190e+05 
        </DataArray>
      </PointData>
    </Piece>
    <Piece NumberOfPoints="4" NumberOfCells="3">
      <Points>
        <DataArray type="Float64" NumberOfComponents="3" format="ascii">
          8.13865662e-01 -2.41250079e-02 0.00000000e+00 
8.24223816e-01 -2.29226518e-02 0.00000000e+00 
8.34580123e-01 -2.17050612e-02 0.00000000e+00 
8.44934702e-01 -2.04724707e-02 0.00000000e+00 

        </DataArray>
      </Points>
      <Cells>
        <DataArray type="Int32" Name="connectivity" format="ascii">
0 1
1 2
2 3

        </DataArray>
        <DataArray type="Int32" Name="offsets" format="ascii">
2 4 6 
        </DataArray>
        <DataArray type="UInt8" Name="types" format="ascii">
3 3 3 
        </DataArray>
      </Cells>
      <PointData>
        <DataArray type="Float64" Name="rho">
          9.52405871e-01 9.53912296e-01 9.55410418e-01 9.56899555e-01 
        </DataArray>
        <DataArray type="Float64" Name="rhou">
          2.66387446e-04 2.51474838e-04 2.36602385e-04 2.42075704e-04 
        </DataArray>
        <DataArray type="Float64" Name="rhov">
          5.30511479e-05 5.38085707e-05 4.65038724e-05 3.48288853e-05 
        </DataArray>
        <DataArray type="Float64" Name="E">
          2.16832784e+05 2.17191131e+05 2.17547439e+05 2.17901542e+05 
        </DataArray>
      </PointData>
    </Piece>
    <Piece NumberOfPoints="4" NumberOfCells="3">
      <Points>
        <DataArray type="Float64" NumberOfComponents="3" format="ascii">
          7.82780826e-01 -2.76402626e-02 0.00000000e+00 
7.93144107e-01 -2.64833923e-02 0.00000000e+00 
8.03505778e-01 -2.53117718e-02 0.00000000e+00 
8.13865662e-01 -2.41250079e-02 0.00000000e+00 

        </DataArray>
      </Points>
      <Cells>
        <DataArray type="Int32" Name="connectivity" format="ascii">
0 1
1 2
2 3

        </DataArray>
        <DataArray type="Int32" Name="offsets" format="ascii">
2 4 6 
        </DataArray>
        <DataArray type="UInt8" Name="types" format="ascii">
3 3 3 
        </DataArray>
      </Cells>
      <PointData>
        <DataArray type="Float64" Name="rho">
          9.47831644e-01 9.49365492e-01 9.50891114e-01 9.52405765e-01 
        </DataArray>
        <DataArray type="Float64" Name="rhou">
          2.86657578e-04 2.66177526e-04 2.65895718e-04 2.75329206e-04 
        </DataArray>
        <DataArray type="Float64" Name="rhov">
          4.97463584e-05 4.14944167e-05 3.71557575e-05 5.13525088e-05 
        </DataArray>
        <DataArray type="Float64" Name="E">
          2.15744411e+05 2.16109408e+05 2.16472400e+05 2.16832760e+05 
        </DataArray>
      </PointData>
    </Piece>
    <Piece NumberOfPoints="4" NumberOfCells="3">
      <Points>
        <DataArray type="Float64" NumberOfComponents="3" format="ascii">
          7.51680970e-01 -3.10197193e-02 0.00000000e+00 
7.62049198e-01 -2.99084149e-02 0.00000000e+00 
7.72415876e-01 -2.87819952e-02 0.00000000e+00 
7.82780826e-01 -2.76402626e-02 0.00000000e+00 

        </DataArray>
      </Points>
      <Cells>
        <DataArray type="Int32" Name="connectivity" format="ascii">
0 1
1 2
2 3

        </DataArray>
        <DataArray type="Int32" Name="offsets" format="ascii">
2 4 6 
        </DataArray>
        <DataArray type="UInt8" Name="types" format="ascii">
3 3 3 
        </DataArray>
      </Cells>
      <PointData>
        <DataArray type="Float64" Name="rho">
          9.43183708e-01 9.44741334e-01 9.46290539e-01 9.47831608e-01 
        </DataArray>
        <DataArray type="Float64" Name="rhou">
          2.99350199e-04 2.95421557e-04 2.90142763e-04 2.76389216e-04 
        </DataArray>
        <DataArray type="Float64" Name="rhov">
          4.25384838e-05 3.60644019e-05 3.99479491e-05 4.76016381e-05 
        </DataArray>
        <DataArray type="Float64" Name="E">
          2.14638114e+05 2.15008893e+05 2.15377635e+05 2.15744403e+05 
        </DataArray>
      </PointData>
    </Piece>
    <Piece NumberOfPoints="4" NumberOfCells="3">
      <Points>
        <DataArray type="Float64" NumberOfComponents="3" format="ascii">
          7.20566452e-01 -3.42622213e-02 0.00000000e+00 
7.30939507e-01 -3.31965312e-02 0.00000000e+00 
7.41311073e-01 -3.21157984e-02 0.00000000e+00 
7.51680970e-01 -3.10197193e-02 0.00000000e+00 

        </DataArray>
      </Points>
      <Cells>
        <DataArray type="Int32" Name="connectivity" format="ascii">
0 1
1 2
2 3

        </DataArray>
        <DataArray type="Int32" Name="offsets" format="ascii">
2 4 6 
        </DataArray>
        <DataArray type="UInt8" Name="types" format="ascii">
3 3 3 
        </DataArray>
      </Cells>
      <PointData>
        <DataArray type="Float64" Name="rho">
          9.38472124e-01 9.40049825e-01 9.41620539e-01 9.43183700e-01 
        </DataArray>
        <DataArray type="Float64" Name="rhou">
          3.24360695e-04 3.17796176e-04 3.15145116e-04 3.02493434e-04 
        </DataArray>
        <DataArray type="Float64" Name="rhov">
          3.89381125e-05 2.82633289e-05 3.10579295e-05 4.29878591e-05 
        </DataArray>
        <DataArray type="Float64" Name="E">
          2.13516291e+05 2.13891974e+05 2.14265959e+05 2.14638113e+05 
        </DataArray>
      </PointData>
    </Piece>
    <Piece NumberOfPoints="4" NumberOfCells="3">
      <Points>
        <DataArray type="Float64" NumberOfComponents="3" format="ascii">
          6.89437866e-01 -3.73662710e-02 0.00000000e+00 
6.99815631e-01 -3.63472365e-02 0.00000000e+00 
7.10191846e-01 -3.53125818e-02 0.00000000e+00 
7.20566452e-01 -3.42622213e-02 0.00000000e+00 

        </DataArray>
      </Points>
      <Cells>
        <DataArray type="Int32" Name="connectivity" format="ascii">
0 1
1 2
2 3

        </DataArray>
        <DataArray type="Int32" Name="offsets" format="ascii">
2 4 6 
        </DataArray>
        <DataArray type="UInt8" Name="types" format="ascii">
3 3 3 
        </DataArray>
      </Cells>
      <PointData>
        <DataArray type="Float64" Name="rho">
          9.33714653e-01 9.35305206e-01 9.36891141e-01 9.38472135e-01 
        </DataArray>
        <DataArray type="Float64" Name="rhou">
          3.56373182e-04 3.49413977e-04 3.42690182e-04 3.25324048e-04 
        </DataArray>
        <DataArray type="Float64" Name="rhov">
          3.08484957e-05 2.37698352e-05 2.84835138e-05 3.91796733e-05 
        </DataArray>
        <DataArray type="Float64" Name="E">
          2.12383100e+05 2.12761999e+05 2.13139756e+05 2.13516293e+05 
        </DataArray>
      </PointData>
    </Piece>
    <Piece NumberOfPoints="4" NumberOfCells="3">
      <Points>
        <DataArray type="Float64" NumberOfComponents="3" format="ascii">
          6.58295333e-01 -4.03269380e-02 0.00000000e+00 
6.68677747e-01 -3.93563360e-02 0.00000000e+00 
6.79058611e-01 -3.83694395e-02 0.00000000e+00 
6.89437866e-01 -3.73662710e-02 0.00000000e+00 

        </DataArray>
      </Points>
      <Cells>
        <DataArray type="Int32" Name="connectivity" format="ascii">
0 1
1 2
2 3

        </DataArray>
        <DataArray type="Int32" Name="offsets" format="ascii">
2 4 6 
        </DataArray>
        <DataArray type="UInt8" Name="types" format="ascii">
3 3 3 
        </DataArray>
      </Cells>
      <PointData>
        <DataArray type="Float64" Name="rho">
          9.28934530e-01 9.30529569e-01 9.32122943e-01 9.33714706e-01 
        </DataArray>
        <DataArray type="Float64" Name="rhou">
          3.92162190e-04 3.86851757e-04 3.74512962e-04 3.54466158e-04 
        </DataArray>
        <DataArray type="Float64" Name="rhov">
          1.96226437e-05 1.67221007e-05 2.34396581e-05 3.16023450e-05 
        </DataArray>
        <DataArray type="Float64" Name="E">
          2.11244015e+05 2.11624156e+05 2.12003854e+05 2.12383112e+05 
        </DataArray>
      </PointData>
    </Piece>
    <Piece NumberOfPoints="4" NumberOfCells="3">
      <Points>
        <DataArray type="Float64" NumberOfComponents="3" format="ascii">
          6.27138972e-01 -4.31386717e-02 0.00000000e+00 
6.37525976e-01 -4.22184542e-02 0.00000000e+00 
6.47911429e-01 -4.12811004e-02 0.00000000e+00 
6.58295333e-01 -4.03269380e-02 0.00000000e+00 

        </DataArray>
      </Points>
      <Cells>
        <DataArray type="Int32" Name="connectivity" format="ascii">
0 1
1 2
2 3

        </DataArray>
        <DataArray type="Int32" Name="offsets" format="ascii">
2 4 6 
        </DataArray>
        <DataArray type="UInt8" Name="types" format="ascii">
3 3 3 
        </DataArray>
      </Cells>
      <PointData>
        <DataArray type="Float64" Name="rho">
          9.24162793e-01 9.25749976e-01 9.27341156e-01 9.28934563e-01 
        </DataArray>
        <DataArray type="Float64" Name="rhou">
          4.42123791e-04 4.23893826e-04 4.07111054e-04 3.93037055e-04 
        </DataArray>
        <DataArray type="Float64" Name="rhov">
          1.58164830e-05 1.48831527e-05 1.64029683e-05 2.04983291e-05 
        </DataArray>
        <DataArray type="Float64" Name="E">
          2.10106354e+05 2.10484835e+05 2.10864197e+05 2.11244022e+05 
        </DataArray>
      </PointData>
    </Piece>
    <Piece NumberOfPoints="4" NumberOfCells="3">
      <Points>
        <DataArray type="Float64" NumberOfComponents="3" format="ascii">
          5.95968783e-01 -4.57924642e-02 0.00000000e+00 
6.06360376e-01 -4.49259281e-02 0.00000000e+00 
6.16750479e-01 -4.40412909e-02 0.00000000e+00 
6.27138972e-01 -4.31386717e-02 0.00000000e+00 

        </DataArray>
      </Points>
      <Cells>
        <DataArray type="Int32" Name="connectivity" format="ascii">
0 1
1 2
2 3

        </DataArray>
        <DataArray type="Int32" Name="offsets" format="ascii">
2 4 6 
        </DataArray>
        <DataArray type="UInt8" Name="types" format="ascii">
3 3 3 
        </DataArray>
      </Cells>
      <PointData>
        <DataArray type="Float64" Name="rho">
          9.19443843e-01 9.21008794e-01 9.22582188e-01 9.24162786e-01 
        </DataArray>
        <DataArray type="Float64" Name="rhou">
          4.85616022e-04 4.73955261e-04 4.57174197e-04 4.35712285e-04 
        </DataArray>
        <DataArray type="Float64" Name="rhov">
          3.60132567e-06 6.38367220e-07 7.15640558e-06 1.66231321e-05 
        </DataArray>
        <DataArray type="Float64" Name="E">
          2.08980595e+05 2.09354005e+05 2.09729357e+05 2.10106352e+05 
        </DataArray>
      </PointData>
    </Piece>
    <Piece NumberOfPoints="4" NumberOfCells="3">
      <Points>
        <DataArray type="Float64" NumberOfComponents="3" format="ascii">
          5.64784765e-01 -4.82786149e-02 0.00000000e+00 
5.75181007e-01 -4.74695377e-02 0.00000000e+00 
5.85575700e-01 -4.66405638e-02 0.00000000e+00 
5.95968783e-01 -4.57924642e-02 0.00000000e+00 

        </DataArray>
      </Points>
      <Cells>
        <DataArray type="Int32" Name="connectivity" format="ascii">
0 1
1 2
2 3

        </DataArray>
        <DataArray type="Int32" Name="offsets" format="ascii">
2 4 6 
        </DataArray>
        <DataArray type="UInt8" Name="types" format="ascii">
3 3 3 
        </DataArray>
      </Cells>
      <PointData>
        <DataArray type="Float64" Name="rho">
          9.14837289e-01 9.16355302e-01 9.17891481e-01 9.19443955e-01 
        </DataArray>
        <DataArray type="Float64" Name="rhou">
          5.60325575e-04 5.34648211e-04 5.02422457e-04 4.79496221e-04 
        </DataArray>
        <DataArray type="Float64" Name="rhov">
          -8.15761846e-06 3.13548402e-06 7.92723954e-06 4.52133250e-06 
        </DataArray>
        <DataArray type="Float64" Name="E">
          2.07880800e+05 2.08243331e+05 2.08610089e+05 2.08980620e+05 
        </DataArray>
      </PointData>
    </Piece>
    <Piece NumberOfPoints="4" NumberOfCells="3">
      <Points>
        <DataArray type="Float64" NumberOfComponents="3" format="ascii">
          5.33586800e-01 -5.05827516e-02 0.00000000e+00 
5.43987691e-01 -4.98356484e-02 0.00000000e+00 
5.54387033e-01 -4.90674041e-02 0.00000000e+00 
5.64784765e-01 -4.82786149e-02 0.00000000e+00 

        </DataArray>
      </Points>
      <Cells>
        <DataArray type="Int32" Name="connectivity" format="ascii">
0 1
1 2
2 3

        </DataArray>
        <DataArray type="Int32" Name="offsets" format="ascii">
2 4 6 
        </DataArray>
        <DataArray type="UInt8" Name="types" format="ascii">
3 3 3 
        </DataArray>
      </Cells>
      <PointData>
        <DataArray type="Float64" Name="rho">
          9.10416756e-01 9.11863537e-01 9.13338858e-01 9.14837249e-01 
        </DataArray>
        <DataArray type="Float64" Name="rhou">
          6.33248862e-04 5.94242612e-04 5.66041276e-04 5.54767311e-04 
        </DataArray>
        <DataArray type="Float64" Name="rhov">
          -7.37285671e-06 -7.30876655e-06 -1.02811960e-05 -7.79621586e-06 
        </DataArray>
        <DataArray type="Float64" Name="E">
          2.06824417e+05 2.07170295e+05 2.07522845e+05 2.07880791e+05 
        </DataArray>
      </PointData>
    </Piece>
    <Piece NumberOfPoints="4" NumberOfCells="3">
      <Points>
        <DataArray type="Float64" NumberOfComponents="3" format="ascii">
          5.02374947e-01 -5.26902266e-02 0.00000000e+00 
5.12780428e-01 -5.20105064e-02 0.00000000e+00 
5.23184419e-01 -5.13078682e-02 0.00000000e+00 
5.33586800e-01 -5.05827516e-02 0.00000000e+00 

        </DataArray>
      </Points>
      <Cells>
        <DataArray type="Int32" Name="connectivity" format="ascii">
0 1
1 2
2 3

        </DataArray>
        <DataArray type="Int32" Name="offsets" format="ascii">
2 4 6 
        </DataArray>
        <DataArray type="UInt8" Name="types" format="ascii">
3 3 3 
        </DataArray>
      </Cells>
      <PointData>
        <DataArray type="Float64" Name="rho">
          9.06282850e-01 9.07622583e-01 9.09002565e-01 9.10416662e-01 
        </DataArray>
        <DataArray type="Float64" Name="rhou">
          7.13463307e-04 6.77743703e-04 6.50625752e-04 6.30554161e-04 
        </DataArray>
        <DataArray type="Float64" Name="rhov">
          -1.68675649e-05 -2.31334099e-05 -2.16216600e-05 -7.81975047e-06 
        </DataArray>
        <DataArray type="Float64" Name="E">
          2.05835208e+05 2.06155963e+05 2.06486170e+05 2.06824395e+05 
        </DataArray>
      </PointData>
    </Piece>
    <Piece NumberOfPoints="4" NumberOfCells="3">
      <Points>
        <DataArray type="Float64" NumberOfComponents="3" format="ascii">
          4.71149325e-01 -5.45825884e-02 0.00000000e+00 
4.81559396e-01 -5.39771840e-02 0.00000000e+00 
4.91967946e-01 -5.33461571e-02 0.00000000e+00 
5.02374947e-01 -5.26902266e-02 0.00000000e+00 

        </DataArray>
      </Points>
      <Cells>
        <DataArray type="Int32" Name="connectivity" format="ascii">
0 1
1 2
2 3

        </DataArray>
        <DataArray type="Int32" Name="offsets" format="ascii">
2 4 6 
        </DataArray>
        <DataArray type="UInt8" Name="types" format="ascii">
3 3 3 
        </DataArray>
      </Cells>
      <PointData>
        <DataArray type="Float64" Name="rho">
          9.02567820e-01 9.03751621e-01 9.04990401e-01 9.06282938e-01 
        </DataArray>
        <DataArray type="Float64" Name="rhou">
          8.18927326e-04 7.96476108e-04 7.50216604e-04 6.93919895e-04 
        </DataArray>
        <DataArray type="Float64" Name="rhov">
          -4.12762938e-05 -3.50128693e-05 -1.78521603e-05 -1.40747315e-05 
        </DataArray>
        <DataArray type="Float64" Name="E">
          2.04944431e+05 2.05228510e+05 2.05525554e+05 2.05835229e+05 
        </DataArray>
      </PointData>
    </Piece>
    <Piece NumberOfPoints="4" NumberOfCells="3">
      <Points>
        <DataArray type="Float64" NumberOfComponents="3" format="ascii">
          4.39910263e-01 -5.62384278e-02 0.00000000e+00 
4.50324744e-01 -5.57143167e-02 0.00000000e+00 
4.60737765e-01 -5.51619194e-02 0.00000000e+00 
4.71149325e-01 -5.45825884e-02 0.00000000e+00 

        </DataArray>
      </Points>
      <Cells>
        <DataArray type="Int32" Name="connectivity" format="ascii">
0 1
1 2
2 3

        </DataArray>
        <DataArray type="Int32" Name="offsets" format="ascii">
2 4 6 
        </DataArray>
        <DataArray type="UInt8" Name="types" format="ascii">
3 3 3 
        </DataArray>
      </Cells>
      <PointData>
        <DataArray type="Float64" Name="rho">
          8.99432177e-01 9.00398463e-01 9.01447242e-01 9.02567894e-01 
        </DataArray>
        <DataArray type="Float64" Name="rhou">
          9.85842338e-04 9.09261501e-04 8.51362800e-04 8.24279044e-04 
        </DataArray>
        <DataArray type="Float64" Name="rhov">
          -3.40749176e-05 -2.50474775e-05 -3.15112245e-05 -3.87528580e-05 
        </DataArray>
        <DataArray type="Float64" Name="E">
          2.04190096e+05 2.04422959e+05 2.04675241e+05 2.04944448e+05 
        </DataArray>
      </PointData>
    </Piece>
    <Piece NumberOfPoints="4" NumberOfCells="3">
      <Points>
        <DataArray type="Float64" NumberOfComponents="3" format="ascii">
          4.08658355e-01 -5.76302819e-02 0.00000000e+00 
4.19077009e-01 -5.71971126e-02 0.00000000e+00 
4.29494321e-01 -5.67329265e-02 0.00000000e+00 
4.39910263e-01 -5.62384278e-02 0.00000000e+00 

        </DataArray>
      </Points>
      <Cells>
        <DataArray type="Int32" Name="connectivity" format="ascii">
0 1
1 2
2 3

        </DataArray>
        <DataArray type="Int32" Name="offsets" format="ascii">
2 4 6 
        </DataArray>
        <DataArray type="UInt8" Name="types" format="ascii">
3 3 3 
        </DataArray>
      </Cells>
      <PointData>
        <DataArray type="Float64" Name="rho">
          8.97088077e-01 8.97768686e-01 8.98553916e-01 8.99431948e-01 
        </DataArray>
        <DataArray type="Float64" Name="rhou">
          1.14033130e-03 1.07107455e-03 1.01980169e-03 9.80506210e-04 
        </DataArray>
        <DataArray type="Float64" Name="rhov">
          -4.23012403e-05 -5.46597780e-05 -5.38772121e-05 -3.39044620e-05 
        </DataArray>
        <DataArray type="Float64" Name="E">
          2.03622434e+05 2.03787866e+05 2.03977993e+05 2.04190044e+05 
        </DataArray>
      </PointData>
    </Piece>
    <Piece NumberOfPoints="4" NumberOfCells="3">
      <Points>
        <DataArray type="Float64" NumberOfComponents="3" format="ascii">
          3.77394795e-01 -5.87291755e-02 0.00000000e+00 
3.87817174e-01 -5.83979115e-02 0.00000000e+00 
3.98238391e-01 -5.80311492e-02 0.00000000e+00 
4.08658355e-01 -5.76302819e-02 0.00000000e+00 

        </DataArray>
      </Points>
      <Cells>
        <DataArray type="Int32" Name="connectivity" format="ascii">
0 1
1 2
2 3

        </DataArray>
        <DataArray type="Int32" Name="offsets" format="ascii">
2 4 6 
        </DataArray>
        <DataArray type="UInt8" Name="types" format="ascii">
3 3 3 
        </DataArray>
      </Cells>
      <PointData>
        <DataArray type="Float64" Name="rho">
          8.95802325e-01 8.96095686e-01 8.96525409e-01 8.97088288e-01 
        </DataArray>
        <DataArray type="Float64" Name="rhou">
          1.38830487e-03 1.31493007e-03 1.21384032e-03 1.10931232e-03 
        </DataArray>
        <DataArray type="Float64" Name="rhov">
          -8.52223313e-05 -5.76129268e-05 -3.00773839e-05 -3.74202603e-05 
        </DataArray>
        <DataArray type="Float64" Name="E">
          2.03304542e+05 2.03378556e+05 2.03484818e+05 2.03622482e+05 
        </DataArray>
      </PointData>
    </Piece>
    <Piece NumberOfPoints="4" NumberOfCells="3">
      <Points>
        <DataArray type="Float64" NumberOfComponents="3" format="ascii">
          3.46121490e-01 -5.95011823e-02 0.00000000e+00 
3.56546819e-01 -5.92821389e-02 0.00000000e+00 
3.66971314e-01 -5.90242445e-02 0.00000000e+00 
3.77394795e-01 -5.87291755e-02 0.00000000e+00 

        </DataArray>
      </Points>
      <Cells>
        <DataArray type="Int32" Name="connectivity" format="ascii">
0 1
1 2
2 3

        </DataArray>
        <DataArray type="Int32" Name="offsets" format="ascii">
2 4 6 
        </DataArray>
        <DataArray type="UInt8" Name="types" format="ascii">
3 3 3 
        </DataArray>
      </Cells>
      <PointData>
        <DataArray type="Float64" Name="rho">
          8.95869921e-01 8.95671878e-01 8.95655165e-01 8.95802416e-01 
        </DataArray>
        <DataArray type="Float64" Name="rhou">
          1.72997447e-03 1.58606912e-03 1.45765375e-03 1.39170140e-03 
        </DataArray>
        <DataArray type="Float64" Name="rhov">
          -1.19574873e-04 -7.79119367e-05 -7.06983239e-05 -8.06070844e-05 
        </DataArray>
        <DataArray type="Float64" Name="E">
          2.03306504e+05 2.03264385e+05 2.03265103e+05 2.03304561e+05 
        </DataArray>
      </PointData>
    </Piece>
    <Piece NumberOfPoints="4" NumberOfCells="3">
      <Points>
        <DataArray type="Float64" NumberOfComponents="3" format="ascii">
          3.14841360e-01 -5.99102043e-02 0.00000000e+00 
3.25268596e-01 -5.98174632e-02 0.00000000e+00 
3.35695356e-01 -5.96801341e-02 0.00000000e+00 
3.46121490e-01 -5.95011823e-02 0.00000000e+00 

        </DataArray>
      </Points>
      <Cells>
        <DataArray type="Int32" Name="connectivity" format="ascii">
0 1
1 2
2 3

        </DataArray>
        <DataArray type="Int32" Name="offsets" format="ascii">
2 4 6 
        </DataArray>
        <DataArray type="UInt8" Name="types" format="ascii">
3 3 3 
        </DataArray>
      </Cells>
      <PointData>
        <DataArray type="Float64" Name="rho">
          8.97699138e-01 8.96853746e-01 8.96253286e-01 8.95869631e-01 
        </DataArray>
        <DataArray type="Float64" Name="rhou">
          2.17901148e-03 1.93529925e-03 1.77081716e-03 1.69453888e-03 
        </DataArray>
        <DataArray type="Float64" Name="rhov">
          -5.65412997e-05 -3.33920151e-05 -6.56201262e-05 -1.18804336e-04 
        </DataArray>
        <DataArray type="Float64" Name="E">
          2.03725042e+05 2.03529843e+05 2.03392519e+05 2.03306438e+05 
        </DataArray>
      </PointData>
    </Piece>
    <Piece NumberOfPoints="4" NumberOfCells="3">
      <Points>
        <DataArray type="Float64" NumberOfComponents="3" format="ascii">
          2.83558637e-01 -5.98983802e-02 0.00000000e+00 
2.93986142e-01 -5.99516556e-02 0.00000000e+00 
3.04413795e-01 -5.99554181e-02 0.00000000e+00 
3.14841360e-01 -5.99102043e-02 0.00000000e+00 

        </DataArray>
      </Points>
      <Cells>
        <DataArray type="Int32" Name="connectivity" format="ascii">
0 1
1 2
2 3

        </DataArray>
        <DataArray type="Int32" Name="offsets" format="ascii">
2 4 6 
        </DataArray>
        <DataArray type="UInt8" Name="types" format="ascii">
3 3 3 
        </DataArray>
      </Cells>
      <PointData>
        <DataArray type="Float64" Name="rho">
          9.01807679e-01 9.00166122e-01 8.98802205e-01 8.97698428e-01 
        </DataArray>
        <DataArray type="Float64" Name="rhou">
          2.65580955e-03 2.49110406e-03 2.35367788e-03 2.17001666e-03 
        </DataArray>
        <DataArray type="Float64" Name="rhov">
          -1.12989958e-04 -1.79883088e-04 -1.44410216e-04 -4.99439411e-05 
        </DataArray>
        <DataArray type="Float64" Name="E">
          2.04683438e+05 2.04299385e+05 2.03981252e+05 2.03724880e+05 
        </DataArray>
      </PointData>
    </Piece>
    <Piece NumberOfPoints="4" NumberOfCells="3">
      <Points>
        <DataArray type="Float64" NumberOfComponents="3" format="ascii">
          2.52279758e-01 -5.94130717e-02 0.00000000e+00 
2.62705088e-01 -5.96327744e-02 0.00000000e+00 
2.73131490e-01 -5.97934239e-02 0.00000000e+00 
2.83558637e-01 -5.98983802e-02 0.00000000e+00 

        </DataArray>
      </Points>
      <Cells>
        <DataArray type="Int32" Name="connectivity" format="ascii">
0 1
1 2
2 3

        </DataArray>
        <DataArray type="Int32" Name="offsets" format="ascii">
2 4 6 
        </DataArray>
        <DataArray type="UInt8" Name="types" format="ascii">
3 3 3 
        </DataArray>
      </Cells>
      <PointData>
        <DataArray type="Float64" Name="rho">
          9.08817826e-01 9.06110449e-01 9.03776799e-01 9.01808598e-01 
        </DataArray>
        <DataArray type="Float64" Name="rhou">
          3.62707647e-03 3.32214907e-03 2.98707935e-03 2.64206297e-03 
        </DataArray>
        <DataArray type="Float64" Name="rhov">
          -2.60451560e-04 -1.68704143e-04 -8.19279790e-05 -9.38560520e-05 
        </DataArray>
        <DataArray type="Float64" Name="E">
          2.06329632e+05 2.05692912e+05 2.05145004e+05 2.04683650e+05 
        </DataArray>
      </PointData>
    </Piece>
    <Piece NumberOfPoints="4" NumberOfCells="3">
      <Points>
        <DataArray type="Float64" NumberOfComponents="3" format="ascii">
          2.21014455e-01 -5.83752058e-02 0.00000000e+00 
2.31433928e-01 -5.87876961e-02 0.00000000e+00 
2.41855890e-01 -5.91322705e-02 0.00000000e+00 
2.52279758e-01 -5.94130717e-02 0.00000000e+00 

        </DataArray>
      </Points>
      <Cells>
        <DataArray type="Int32" Name="connectivity" format="ascii">
0 1
1 2
2 3

        </DataArray>
        <DataArray type="Int32" Name="offsets" format="ascii">
2 4 6 
        </DataArray>
        <DataArray type="UInt8" Name="types" format="ascii">
3 3 3 
        </DataArray>
      </Cells>
      <PointData>
        <DataArray type="Float64" Name="rho">
          9.19513540e-01 9.15471308e-01 9.11921826e-01 9.08818007e-01 
        </DataArray>
        <DataArray type="Float64" Name="rhou">
          4.97876112e-03 4.39409689e-03 3.94828464e-03 3.66113179e-03 
        </DataArray>
        <DataArray type="Float64" Name="rhov">
          -3.65297692e-04 -2.61677657e-04 -2.29819195e-04 -2.44118262e-04 
        </DataArray>
        <DataArray type="Float64" Name="E">
          2.08851506e+05 2.07897523e+05 2.07060655e+05 2.06329669e+05 
        </DataArray>
      </PointData>
    </Piece>
    <Piece NumberOfPoints="4" NumberOfCells="3">
      <Points>
        <DataArray type="Float64" NumberOfComponents="3" format="ascii">
          1.89777538e-01 -5.66898957e-02 0.00000000e+00 
2.00185493e-01 -5.73302582e-02 0.00000000e+00 
2.10598081e-01 -5.78906052e-02 0.00000000e+00 
2.21014455e-01 -5.83752058e-02 0.00000000e+00 

        </DataArray>
      </Points>
      <Cells>
        <DataArray type="Int32" Name="connectivity" format="ascii">
0 1
1 2
2 3

        </DataArray>
        <DataArray type="Int32" Name="offsets" format="ascii">
2 4 6 
        </DataArray>
        <DataArray type="UInt8" Name="types" format="ascii">
3 3 3 
        </DataArray>
      </Cells>
      <PointData>
        <DataArray type="Float64" Name="rho">
          9.34982406e-01 9.29218444e-01 9.24082034e-01 9.19512782e-01 
        </DataArray>
        <DataArray type="Float64" Name="rhou">
          6.89961252e-03 6.09947872e-03 5.51426549e-03 5.04109071e-03 
        </DataArray>
        <DataArray type="Float64" Name="rhov">
          -6.44714280e-04 -5.74648520e-04 -4.75685092e-04 -3.52596359e-04 
        </DataArray>
        <DataArray type="Float64" Name="E">
          2.12509659e+05 2.11145402e+05 2.09930773e+05 2.08851332e+05 
        </DataArray>
      </PointData>
    </Piece>
    <Piece NumberOfPoints="4" NumberOfCells="3">
      <Points>
        <DataArray type="Float64" NumberOfComponents="3" format="ascii">
          1.58592433e-01 -5.42296544e-02 0.00000000e+00 
1.68979734e-01 -5.51457107e-02 0.00000000e+00 
1.79375216e-01 -5.59638515e-02 0.00000000e+00 
1.89777538e-01 -5.66898957e-02 0.00000000e+00 

        </DataArray>
      </Points>
      <Cells>
        <DataArray type="Int32" Name="connectivity" format="ascii">
0 1
1 2
2 3

        </DataArray>
        <DataArray type="Int32" Name="offsets" format="ascii">
2 4 6 
        </DataArray>
        <DataArray type="UInt8" Name="types" format="ascii">
3 3 3 
        </DataArray>
      </Cells>
      <PointData>
        <DataArray type="Float64" Name="rho">
          9.56789879e-01 9.48708536e-01 9.41456298e-01 9.34982824e-01 
        </DataArray>
        <DataArray type="Float64" Name="rhou">
          9.95667152e-03 8.88264769e-03 7.93317937e-03 6.97078224e-03 
        </DataArray>
        <DataArray type="Float64" Name="rhov">
          -1.39379065e-03 -1.20317871e-03 -8.73225368e-04 -6.04257046e-04 
        </DataArray>
        <DataArray type="Float64" Name="E">
          2.17680173e+05 2.15762415e+05 2.14043119e+05 2.12509759e+05 
        </DataArray>
      </PointData>
    </Piece>
    <Piece NumberOfPoints="4" NumberOfCells="3">
      <Points>
        <DataArray type="Float64" NumberOfComponents="3" format="ascii">
          1.27497971e-01 -5.08146733e-02 0.00000000e+00 
1.37849152e-01 -5.20747155e-02 0.00000000e+00 
1.48214847e-01 -5.32093942e-02 0.00000000e+00 
1.58592433e-01 -5.42296544e-02 0.00000000e+00 

        </DataArray>
      </Points>
      <Cells>
        <DataArray type="Int32" Name="connectivity" format="ascii">
0 1
1 2
2 3

        </DataArray>
        <DataArray type="Int32" Name="offsets" format="ascii">
2 4 6 
        </DataArray>
        <DataArray type="UInt8" Name="types" format="ascii">
3 3 3 
        </DataArray>
      </Cells>
      <PointData>
        <DataArray type="Float64" Name="rho">
          9.87361314e-01 9.75985420e-01 9.65815720e-01 9.56793925e-01 
        </DataArray>
        <DataArray type="Float64" Name="rhou">
          1.44858584e-02 1.33080072e-02 1.15037699e-02 9.98510176e-03 
        </DataArray>
        <DataArray type="Float64" Name="rhov">
          -2.26571746e-03 -2.01982027e-03 -1.40612133e-03 -1.32184432e-03 
        </DataArray>
        <DataArray type="Float64" Name="E">
          2.24947730e+05 2.22240903e+05 2.19823860e+05 2.17681100e+05 
        </DataArray>
      </PointData>
    </Piece>
    <Piece NumberOfPoints="4" NumberOfCells="3">
      <Points>
        <DataArray type="Float64" NumberOfComponents="3" format="ascii">
          9.65642184e-02 -4.61716652e-02 0.00000000e+00 
1.06852271e-01 -4.78802323e-02 0.00000000e+00 
1.17164567e-01 -4.94215861e-02 0.00000000e+00 
1.27497971e-01 -5.08146733e-02 0.00000000e+00 

        </DataArray>
      </Points>
      <Cells>
        <DataArray type="Int32" Name="connectivity" format="ascii">
0 1
1 2
2 3

        </DataArray>
        <DataArray type="Int32" Name="offsets" format="ascii">
2 4 6 
        </DataArray>
        <DataArray type="UInt8" Name="types" format="ascii">
3 3 3 
        </DataArray>
      </Cells>
      <PointData>
        <DataArray type="Float64" Name="rho">
          1.03080924e+00 1.01448468e+00 1.00003111e+00 9.87369652e-01 
        </DataArray>
        <DataArray type="Float64" Name="rhou">
          2.46560120e-02 1.80735098e-02 1.71591478e-02 1.28438423e-02 
        </DataArray>
        <DataArray type="Float64" Name="rhov">
          -9.13488082e-04 -7.20066852e-04 -1.54277830e-03 -1.58693448e-03 
        </DataArray>
        <DataArray type="Float64" Name="E">
          2.35311913e+05 2.31413089e+05 2.27966326e+05 2.24949739e+05 
        </DataArray>
      </PointData>
    </Piece>
  </UnstructuredGrid>
</VTKFile>
