<?xml version="1.0"?>
<VTKFile type="UnstructuredGrid" version="0.1" byte_order="LittleEndian">
  <UnstructuredGrid>
    <Piece NumberOfPoints="4" NumberOfCells="3">
      <Points>
        <DataArray type="Float64" NumberOfComponents="3" format="ascii">
          9.65642184e-02 -4.61716652e-02 0.00000000e+00 
9.26280916e-02 -4.54656407e-02 0.00000000e+00 
8.86965096e-02 -4.47326750e-02 0.00000000e+00 
8.47706869e-02 -4.39694971e-02 0.00000000e+00 

        </DataArray>
      </Points>
      <Cells>
        <DataArray type="Int32" Name="connectivity" format="ascii">
0 1
1 2
2 3

        </DataArray>
        <DataArray type="Int32" Name="offsets" format="ascii">
2 4 6 
        </DataArray>
        <DataArray type="UInt8" Name="types" format="ascii">
3 3 3 
        </DataArray>
      </Cells>
      <PointData>
        <DataArray type="Float64" Name="rho">
          1.03180171e+00 1.03871623e+00 1.04594557e+00 1.05362209e+00 
        </DataArray>
        <DataArray type="Float64" Name="rhou">
          2.82758409e-02 2.17877296e-02 2.44363228e-02 2.46144727e-02 
        </DataArray>
        <DataArray type="Float64" Name="rhov">
          -2.23316410e-03 -1.02208576e-03 -6.14548632e-04 -9.30452746e-04 
        </DataArray>
        <DataArray type="Float64" Name="E">
          2.35574778e+05 2.37228170e+05 2.38958471e+05 2.40796133e+05 
        </DataArray>
      </PointData>
    </Piece>
    <Piece NumberOfPoints="4" NumberOfCells="3">
      <Points>
        <DataArray type="Float64" NumberOfComponents="3" format="ascii">
          8.47706869e-02 -4.39694971e-02 0.00000000e+00 
8.08513016e-02 -4.31745499e-02 0.00000000e+00 
7.69388378e-02 -4.23462167e-02 0.00000000e+00 
7.30340332e-02 -4.14824970e-02 0.00000000e+00 

        </DataArray>
      </Points>
      <Cells>
        <DataArray type="Int32" Name="connectivity" format="ascii">
0 1
1 2
2 3

        </DataArray>
        <DataArray type="Int32" Name="offsets" format="ascii">
2 4 6 
        </DataArray>
        <DataArray type="UInt8" Name="types" format="ascii">
3 3 3 
        </DataArray>
      </Cells>
      <PointData>
        <DataArray type="Float64" Name="rho">
          1.05362089e+00 1.06172579e+00 1.07029460e+00 1.07939705e+00 
        </DataArray>
        <DataArray type="Float64" Name="rhou">
          2.47059261e-02 2.38828672e-02 2.24751543e-02 2.09100594e-02 
        </DataArray>
        <DataArray type="Float64" Name="rhov">
          -7.35917253e-04 -5.29834260e-04 3.73909552e-04 1.56483052e-03 
        </DataArray>
        <DataArray type="Float64" Name="E">
          2.40795867e+05 2.42738034e+05 2.44792603e+05 2.46976321e+05 
        </DataArray>
      </PointData>
    </Piece>
    <Piece NumberOfPoints="4" NumberOfCells="3">
      <Points>
        <DataArray type="Float64" NumberOfComponents="3" format="ascii">
          7.30340332e-02 -4.14824970e-02 0.00000000e+00 
6.91377968e-02 -4.05809283e-02 0.00000000e+00 
6.52511865e-02 -3.96387354e-02 0.00000000e+00 
6.13753870e-02 -3.86530459e-02 0.00000000e+00 

        </DataArray>
      </Points>
      <Cells>
        <DataArray type="Int32" Name="connectivity" format="ascii">
0 1
1 2
2 3

        </DataArray>
        <DataArray type="Int32" Name="offsets" format="ascii">
2 4 6 
        </DataArray>
        <DataArray type="UInt8" Name="types" format="ascii">
3 3 3 
        </DataArray>
      </Cells>
      <PointData>
        <DataArray type="Float64" Name="rho">
          1.07939765e+00 1.08911746e+00 1.09948628e+00 1.11056365e+00 
        </DataArray>
        <DataArray type="Float64" Name="rhou">
          2.10279386e-02 1.86801926e-02 1.45836331e-02 9.08778538e-03 
        </DataArray>
        <DataArray type="Float64" Name="rhov">
          1.39945388e-03 2.14024448e-03 4.21627386e-03 7.39915559e-03 
        </DataArray>
        <DataArray type="Float64" Name="E">
          2.46976483e+05 2.49310497e+05 2.51801994e+05 2.54465974e+05 
        </DataArray>
      </PointData>
    </Piece>
    <Piece NumberOfPoints="4" NumberOfCells="3">
      <Points>
        <DataArray type="Float64" NumberOfComponents="3" format="ascii">
          6.13753870e-02 -3.86530459e-02 0.00000000e+00 
5.75117208e-02 -3.76208089e-02 0.00000000e+00 
5.36618084e-02 -3.65384258e-02 0.00000000e+00 
4.98276278e-02 -3.54015976e-02 0.00000000e+00 

        </DataArray>
      </Points>
      <Cells>
        <DataArray type="Int32" Name="connectivity" format="ascii">
0 1
1 2
2 3

        </DataArray>
        <DataArray type="Int32" Name="offsets" format="ascii">
2 4 6 
        </DataArray>
        <DataArray type="UInt8" Name="types" format="ascii">
3 3 3 
        </DataArray>
      </Cells>
      <PointData>
        <DataArray type="Float64" Name="rho">
          1.11056392e+00 1.12243271e+00 1.13517766e+00 1.14893014e+00 
        </DataArray>
        <DataArray type="Float64" Name="rhou">
          9.03161768e-03 1.97882833e-03 -7.22945485e-03 -1.87409396e-02 
        </DataArray>
        <DataArray type="Float64" Name="rhov">
          7.17134389e-03 1.18630947e-02 1.99247752e-02 3.13750468e-02 
        </DataArray>
        <DataArray type="Float64" Name="E">
          2.54466038e+05 2.57324279e+05 2.60396155e+05 2.63714175e+05 
        </DataArray>
      </PointData>
    </Piece>
    <Piece NumberOfPoints="4" NumberOfCells="3">
      <Points>
        <DataArray type="Float64" NumberOfComponents="3" format="ascii">
          4.98276278e-02 -3.54015976e-02 0.00000000e+00 
4.60115410e-02 -3.42054628e-02 0.00000000e+00 
4.22164090e-02 -3.29444520e-02 0.00000000e+00 
3.84457745e-02 -3.16120051e-02 0.00000000e+00 

        </DataArray>
      </Points>
      <Cells>
        <DataArray type="Int32" Name="connectivity" format="ascii">
0 1
1 2
2 3

        </DataArray>
        <DataArray type="Int32" Name="offsets" format="ascii">
2 4 6 
        </DataArray>
        <DataArray type="UInt8" Name="types" format="ascii">
3 3 3 
        </DataArray>
      </Cells>
      <PointData>
        <DataArray type="Float64" Name="rho">
          1.14893006e+00 1.16379006e+00 1.17986962e+00 1.19736021e+00 
        </DataArray>
        <DataArray type="Float64" Name="rhou">
          -1.91948656e-02 -3.33269316e-02 -5.23081931e-02 -7.50143893e-02 
        </DataArray>
        <DataArray type="Float64" Name="rhov">
          3.11605688e-02 4.78087100e-02 7.54238936e-02 1.15830685e-01 
        </DataArray>
        <DataArray type="Float64" Name="E">
          2.63714122e+05 2.67305854e+05 2.71197157e+05 2.75436275e+05 
        </DataArray>
      </PointData>
    </Piece>
    <Piece NumberOfPoints="4" NumberOfCells="3">
      <Points>
        <DataArray type="Float64" NumberOfComponents="3" format="ascii">
          3.84457745e-02 -3.16120051e-02 0.00000000e+00 
3.47041376e-02 -3.02002355e-02 0.00000000e+00 
3.09973080e-02 -2.86995135e-02 0.00000000e+00 
2.73328498e-02 -2.70981900e-02 0.00000000e+00 

        </DataArray>
      </Points>
      <Cells>
        <DataArray type="Int32" Name="connectivity" format="ascii">
0 1
1 2
2 3

        </DataArray>
        <DataArray type="Int32" Name="offsets" format="ascii">
2 4 6 
        </DataArray>
        <DataArray type="UInt8" Name="types" format="ascii">
3 3 3 
        </DataArray>
      </Cells>
      <PointData>
        <DataArray type="Float64" Name="rho">
          1.19736044e+00 1.21645153e+00 1.23733636e+00 1.26038638e+00 
        </DataArray>
        <DataArray type="Float64" Name="rhou">
          -7.59649937e-02 -1.00113789e-01 -1.28751685e-01 -1.54162220e-01 
        </DataArray>
        <DataArray type="Float64" Name="rhov">
          1.15750165e-01 1.71233289e-01 2.57058839e-01 3.77222165e-01 
        </DataArray>
        <DataArray type="Float64" Name="E">
          2.75436193e+05 2.80075001e+05 2.85158213e+05 2.90779932e+05 
        </DataArray>
      </PointData>
    </Piece>
    <Piece NumberOfPoints="4" NumberOfCells="3">
      <Points>
        <DataArray type="Float64" NumberOfComponents="3" format="ascii">
          2.73328498e-02 -2.70981900e-02 0.00000000e+00 
2.37206947e-02 -2.53822580e-02 0.00000000e+00 
2.01744195e-02 -2.35341713e-02 0.00000000e+00 
1.67132635e-02 -2.15314496e-02 0.00000000e+00 

        </DataArray>
      </Points>
      <Cells>
        <DataArray type="Int32" Name="connectivity" format="ascii">
0 1
1 2
2 3

        </DataArray>
        <DataArray type="Int32" Name="offsets" format="ascii">
2 4 6 
        </DataArray>
        <DataArray type="UInt8" Name="types" format="ascii">
3 3 3 
        </DataArray>
      </Cells>
      <PointData>
        <DataArray type="Float64" Name="rho">
          1.26039125e+00 1.28594637e+00 1.31446211e+00 1.34728450e+00 
        </DataArray>
        <DataArray type="Float64" Name="rhou">
          -1.54543351e-01 -1.68645370e-01 -1.53034280e-01 -5.71836451e-02 
        </DataArray>
        <DataArray type="Float64" Name="rhov">
          3.77896654e-01 5.29598689e-01 7.40109975e-01 9.58299288e-01 
        </DataArray>
        <DataArray type="Float64" Name="E">
          2.90780830e+05 2.97035642e+05 3.04027763e+05 3.12085838e+05 
        </DataArray>
      </PointData>
    </Piece>
    <Piece NumberOfPoints="4" NumberOfCells="3">
      <Points>
        <DataArray type="Float64" NumberOfComponents="3" format="ascii">
          1.67132635e-02 -2.15314496e-02 0.00000000e+00 
1.33649679e-02 -1.93456318e-02 0.00000000e+00 
1.01706637e-02 -1.69409402e-02 0.00000000e+00 
7.19343964e-03 -1.42731192e-02 0.00000000e+00 

        </DataArray>
      </Points>
      <Cells>
        <DataArray type="Int32" Name="connectivity" format="ascii">
0 1
1 2
2 3

        </DataArray>
        <DataArray type="Int32" Name="offsets" format="ascii">
2 4 6 
        </DataArray>
        <DataArray type="UInt8" Name="types" format="ascii">
3 3 3 
        </DataArray>
      </Cells>
      <PointData>
        <DataArray type="Float64" Name="rho">
          1.34717872e+00 1.38704326e+00 1.43428146e+00 1.49938976e+00 
        </DataArray>
        <DataArray type="Float64" Name="rhou">
          -3.46278633e-02 1.13600890e-01 4.54549966e-01 8.74560471e-01 
        </DataArray>
        <DataArray type="Float64" Name="rhov">
          9.20070991e-01 1.12293288e+00 1.06813020e+00 5.18434412e-01 
        </DataArray>
        <DataArray type="Float64" Name="E">
          3.12061660e+05 3.21851623e+05 3.33445209e+05 3.49309398e+05 
        </DataArray>
      </PointData>
    </Piece>
    <Piece NumberOfPoints="4" NumberOfCells="3">
      <Points>
        <DataArray type="Float64" NumberOfComponents="3" format="ascii">
          7.19343964e-03 -1.42731192e-02 0.00000000e+00 
4.53082798e-03 -1.12927537e-02 0.00000000e+00 
2.33371323e-03 -7.95678515e-03 0.00000000e+00 
8.10639584e-04 -4.26717056e-03 0.00000000e+00 

        </DataArray>
      </Points>
      <Cells>
        <DataArray type="Int32" Name="connectivity" format="ascii">
0 1
1 2
2 3

        </DataArray>
        <DataArray type="Int32" Name="offsets" format="ascii">
2 4 6 
        </DataArray>
        <DataArray type="UInt8" Name="types" format="ascii">
3 3 3 
        </DataArray>
      </Cells>
      <PointData>
        <DataArray type="Float64" Name="rho">
          1.49990907e+00 1.57435454e+00 1.66347336e+00 1.73221967e+00 
        </DataArray>
        <DataArray type="Float64" Name="rhou">
          7.99588990e-01 9.29442357e-01 2.58143952e-01 -1.27551745e+00 
        </DataArray>
        <DataArray type="Float64" Name="rhov">
          6.17131297e-01 -5.11195895e-01 -1.72890300e+00 -1.81703198e+00 
        </DataArray>
        <DataArray type="Float64" Name="E">
          3.49436654e+05 3.67611810e+05 3.89247132e+05 4.05959475e+05 
        </DataArray>
      </PointData>
    </Piece>
    <Piece NumberOfPoints="4" NumberOfCells="3">
      <Points>
        <DataArray type="Float64" NumberOfComponents="3" format="ascii">
          8.10639584e-04 -4.26717056e-03 0.00000000e+00 
1.91366620e-04 -3.27450951e-04 0.00000000e+00 
6.40850572e-04 3.63462302e-03 0.00000000e+00 
2.03182548e-03 7.37539819e-03 0.00000000e+00 

        </DataArray>
      </Points>
      <Cells>
        <DataArray type="Int32" Name="connectivity" format="ascii">
0 1
1 2
2 3

        </DataArray>
        <DataArray type="Int32" Name="offsets" format="ascii">
2 4 6 
        </DataArray>
        <DataArray type="UInt8" Name="types" format="ascii">
3 3 3 
        </DataArray>
      </Cells>
      <PointData>
        <DataArray type="Float64" Name="rho">
          1.73064353e+00 1.75562485e+00 1.70523254e+00 1.61278740e+00 
        </DataArray>
        <DataArray type="Float64" Name="rhou">
          -1.14992131e+00 -1.87897339e+00 -8.35114123e-01 7.51809316e-01 
        </DataArray>
        <DataArray type="Float64" Name="rhov">
          -1.97513485e+00 3.64196995e-01 1.88241462e+00 1.51495121e+00 
        </DataArray>
        <DataArray type="Float64" Name="E">
          4.05577811e+05 4.11559525e+05 3.99240094e+05 3.76660595e+05 
        </DataArray>
      </PointData>
    </Piece>
    <Piece NumberOfPoints="4" NumberOfCells="3">
      <Points>
        <DataArray type="Float64" NumberOfComponents="3" format="ascii">
          2.03182548e-03 7.37539819e-03 0.00000000e+00 
4.13410179e-03 1.07714310e-02 0.00000000e+00 
6.73249783e-03 1.38076087e-02 0.00000000e+00 
9.66598373e-03 1.65232457e-02 0.00000000e+00 

        </DataArray>
      </Points>
      <Cells>
        <DataArray type="Int32" Name="connectivity" format="ascii">
0 1
1 2
2 3

        </DataArray>
        <DataArray type="Int32" Name="offsets" format="ascii">
2 4 6 
        </DataArray>
        <DataArray type="UInt8" Name="types" format="ascii">
3 3 3 
        </DataArray>
      </Cells>
      <PointData>
        <DataArray type="Float64" Name="rho">
          1.61315048e+00 1.50602949e+00 1.41679050e+00 1.34983485e+00 
        </DataArray>
        <DataArray type="Float64" Name="rhou">
          7.24124739e-01 1.15477858e+00 8.39651367e-01 3.75050781e-01 
        </DataArray>
        <DataArray type="Float64" Name="rhov">
          1.74968180e+00 6.23448783e-02 -1.07474424e+00 -1.39936284e+00 
        </DataArray>
        <DataArray type="Float64" Name="E">
          3.76751944e+05 3.50745320e+05 3.29043139e+05 3.12679025e+05 
        </DataArray>
      </PointData>
    </Piece>
    <Piece NumberOfPoints="4" NumberOfCells="3">
      <Points>
        <DataArray type="Float64" NumberOfComponents="3" format="ascii">
          9.66598373e-03 1.65232457e-02 0.00000000e+00 
1.28298048e-02 1.89677756e-02 0.00000000e+00 
1.61561389e-02 2.11867876e-02 0.00000000e+00 
1.96009967e-02 2.32173651e-02 0.00000000e+00 

        </DataArray>
      </Points>
      <Cells>
        <DataArray type="Int32" Name="connectivity" format="ascii">
0 1
1 2
2 3

        </DataArray>
        <DataArray type="Int32" Name="offsets" format="ascii">
2 4 6 
        </DataArray>
        <DataArray type="UInt8" Name="types" format="ascii">
3 3 3 
        </DataArray>
      </Cells>
      <PointData>
        <DataArray type="Float64" Name="rho">
          1.34962943e+00 1.29716167e+00 1.25818894e+00 1.22388219e+00 
        </DataArray>
        <DataArray type="Float64" Name="rhou">
          3.84637003e-01 -1.68787456e-02 -1.98345267e-01 -2.18850515e-01 
        </DataArray>
        <DataArray type="Float64" Name="rhov">
          -1.42394783e+00 -1.31924270e+00 -9.89293464e-01 -6.64069416e-01 
        </DataArray>
        <DataArray type="Float64" Name="E">
          3.12626827e+05 2.99804439e+05 2.90230433e+05 2.81828754e+05 
        </DataArray>
      </PointData>
    </Piece>
    <Piece NumberOfPoints="4" NumberOfCells="3">
      <Points>
        <DataArray type="Float64" NumberOfComponents="3" format="ascii">
          1.96009967e-02 2.32173651e-02 0.00000000e+00 
2.31348258e-02 2.50891000e-02 0.00000000e+00 
2.67372411e-02 2.68253610e-02 0.00000000e+00 
3.03938854e-02 2.84444261e-02 0.00000000e+00 

        </DataArray>
      </Points>
      <Cells>
        <DataArray type="Int32" Name="connectivity" format="ascii">
0 1
1 2
2 3

        </DataArray>
        <DataArray type="Int32" Name="offsets" format="ascii">
2 4 6 
        </DataArray>
        <DataArray type="UInt8" Name="types" format="ascii">
3 3 3 
        </DataArray>
      </Cells>
      <PointData>
        <DataArray type="Float64" Name="rho">
          1.22394592e+00 1.19482766e+00 1.16878666e+00 1.14520439e+00 
        </DataArray>
        <DataArray type="Float64" Name="rhou">
          -2.31969288e-01 -2.18476089e-01 -1.73269557e-01 -1.31053127e-01 
        </DataArray>
        <DataArray type="Float64" Name="rhov">
          -6.82302945e-01 -4.31421163e-01 -2.44959753e-01 -1.32299547e-01 
        </DataArray>
        <DataArray type="Float64" Name="E">
          2.81843667e+05 2.74732117e+05 2.68395051e+05 2.62673362e+05 
        </DataArray>
      </PointData>
    </Piece>
    <Piece NumberOfPoints="4" NumberOfCells="3">
      <Points>
        <DataArray type="Float64" NumberOfComponents="3" format="ascii">
          3.03938854e-02 2.84444261e-02 0.00000000e+00 
3.40943485e-02 2.99607720e-02 0.00000000e+00 
3.78307216e-02 3.13864015e-02 0.00000000e+00 
4.15969416e-02 3.27312648e-02 0.00000000e+00 

        </DataArray>
      </Points>
      <Cells>
        <DataArray type="Int32" Name="connectivity" format="ascii">
0 1
1 2
2 3

        </DataArray>
        <DataArray type="Int32" Name="offsets" format="ascii">
2 4 6 
        </DataArray>
        <DataArray type="UInt8" Name="types" format="ascii">
3 3 3 
        </DataArray>
      </Cells>
      <PointData>
        <DataArray type="Float64" Name="rho">
          1.14520266e+00 1.12386563e+00 1.10448568e+00 1.08681960e+00 
        </DataArray>
        <DataArray type="Float64" Name="rhou">
          -1.29262661e-01 -8.91445928e-02 -5.63748602e-02 -3.34186678e-02 
        </DataArray>
        <DataArray type="Float64" Name="rhov">
          -1.30849041e-01 -5.47312673e-02 -7.66137469e-03 1.77304143e-02 
        </DataArray>
        <DataArray type="Float64" Name="E">
          2.62673211e+05 2.57514925e+05 2.52841052e+05 2.48588314e+05 
        </DataArray>
      </PointData>
    </Piece>
    <Piece NumberOfPoints="4" NumberOfCells="3">
      <Points>
        <DataArray type="Float64" NumberOfComponents="3" format="ascii">
          4.15969416e-02 3.27312648e-02 0.00000000e+00 
4.53883260e-02 3.40034962e-02 0.00000000e+00 
4.92011942e-02 3.52098532e-02 0.00000000e+00 
5.30325845e-02 3.63560505e-02 0.00000000e+00 

        </DataArray>
      </Points>
      <Cells>
        <DataArray type="Int32" Name="connectivity" format="ascii">
0 1
1 2
2 3

        </DataArray>
        <DataArray type="Int32" Name="offsets" format="ascii">
2 4 6 
        </DataArray>
        <DataArray type="UInt8" Name="types" format="ascii">
3 3 3 
        </DataArray>
      </Cells>
      <PointData>
        <DataArray type="Float64" Name="rho">
          1.08682016e+00 1.07067876e+00 1.05587378e+00 1.04224644e+00 
        </DataArray>
        <DataArray type="Float64" Name="rhou">
          -3.22817105e-02 -1.28545602e-02 1.57843201e-03 1.09584324e-02 
        </DataArray>
        <DataArray type="Float64" Name="rhov">
          1.76352399e-02 3.13275700e-02 3.79928979e-02 3.91566669e-02 
        </DataArray>
        <DataArray type="Float64" Name="E">
          2.48588524e+05 2.44711342e+05 2.41160690e+05 2.37896608e+05 
        </DataArray>
      </PointData>
    </Piece>
    <Piece NumberOfPoints="4" NumberOfCells="3">
      <Points>
        <DataArray type="Float64" NumberOfComponents="3" format="ascii">
          5.30325845e-02 3.63560505e-02 0.00000000e+00 
5.68800643e-02 3.74470428e-02 0.00000000e+00 
6.07415959e-02 3.84872220e-02 0.00000000e+00 
6.46155030e-02 3.94803248e-02 0.00000000e+00 

        </DataArray>
      </Points>
      <Cells>
        <DataArray type="Int32" Name="connectivity" format="ascii">
0 1
1 2
2 3

        </DataArray>
        <DataArray type="Int32" Name="offsets" format="ascii">
2 4 6 
        </DataArray>
        <DataArray type="UInt8" Name="types" format="ascii">
3 3 3 
        </DataArray>
      </Cells>
      <PointData>
        <DataArray type="Float64" Name="rho">
          1.04224714e+00 1.02970917e+00 1.01812838e+00 1.00736406e+00 
        </DataArray>
        <DataArray type="Float64" Name="rhou">
          1.12744572e-02 1.82684157e-02 2.38081839e-02 2.76412548e-02 
        </DataArray>
        <DataArray type="Float64" Name="rhov">
          3.88296871e-02 3.71715368e-02 3.51222478e-02 3.19000411e-02 
        </DataArray>
        <DataArray type="Float64" Name="E">
          2.37896766e+05 2.34897823e+05 2.32130631e+05 2.29561061e+05 
        </DataArray>
      </PointData>
    </Piece>
    <Piece NumberOfPoints="4" NumberOfCells="3">
      <Points>
        <DataArray type="Float64" NumberOfComponents="3" format="ascii">
          6.46155030e-02 3.94803248e-02 0.00000000e+00 
6.85004294e-02 4.04294394e-02 0.00000000e+00 
7.23951608e-02 4.13374715e-02 0.00000000e+00 
7.62986317e-02 4.22072113e-02 0.00000000e+00 

        </DataArray>
      </Points>
      <Cells>
        <DataArray type="Int32" Name="connectivity" format="ascii">
0 1
1 2
2 3

        </DataArray>
        <DataArray type="Int32" Name="offsets" format="ascii">
2 4 6 
        </DataArray>
        <DataArray type="UInt8" Name="types" format="ascii">
3 3 3 
        </DataArray>
      </Cells>
      <PointData>
        <DataArray type="Float64" Name="rho">
          1.00736478e+00 9.97375499e-01 9.88071827e-01 9.79398230e-01 
        </DataArray>
        <DataArray type="Float64" Name="rhou">
          2.74608506e-02 2.94074183e-02 3.05076928e-02 3.06029667e-02 
        </DataArray>
        <DataArray type="Float64" Name="rhov">
          3.16015867e-02 2.77001456e-02 2.43264163e-02 2.10205048e-02 
        </DataArray>
        <DataArray type="Float64" Name="E">
          2.29561207e+05 2.27179234e+05 2.24962565e+05 2.22897282e+05 
        </DataArray>
      </PointData>
    </Piece>
    <Piece NumberOfPoints="4" NumberOfCells="3">
      <Points>
        <DataArray type="Float64" NumberOfComponents="3" format="ascii">
          7.62986317e-02 4.22072113e-02 0.00000000e+00 
8.02098960e-02 4.30411920e-02 0.00000000e+00 
8.41281936e-02 4.38414887e-02 0.00000000e+00 
8.80528912e-02 4.46097627e-02 0.00000000e+00 

        </DataArray>
      </Points>
      <Cells>
        <DataArray type="Int32" Name="connectivity" format="ascii">
0 1
1 2
2 3

        </DataArray>
        <DataArray type="Int32" Name="offsets" format="ascii">
2 4 6 
        </DataArray>
        <DataArray type="UInt8" Name="types" format="ascii">
3 3 3 
        </DataArray>
      </Cells>
      <PointData>
        <DataArray type="Float64" Name="rho">
          9.79397287e-01 9.71307491e-01 9.63706721e-01 9.56549187e-01 
        </DataArray>
        <DataArray type="Float64" Name="rhou">
          3.04558508e-02 3.04829632e-02 3.02109780e-02 2.91498019e-02 
        </DataArray>
        <DataArray type="Float64" Name="rhov">
          2.08572665e-02 1.82985805e-02 1.57906036e-02 1.31114145e-02 
        </DataArray>
        <DataArray type="Float64" Name="E">
          2.22897046e+05 2.20972250e+05 2.19165068e+05 2.17464402e+05 
        </DataArray>
      </PointData>
    </Piece>
    <Piece NumberOfPoints="4" NumberOfCells="3">
      <Points>
        <DataArray type="Float64" NumberOfComponents="3" format="ascii">
          8.80528912e-02 4.46097627e-02 0.00000000e+00 
9.19835642e-02 4.53475714e-02 0.00000000e+00 
9.59195644e-02 4.60564308e-02 0.00000000e+00 
9.98597518e-02 4.67394181e-02 0.00000000e+00 

        </DataArray>
      </Points>
      <Cells>
        <DataArray type="Int32" Name="connectivity" format="ascii">
0 1
1 2
2 3

        </DataArray>
        <DataArray type="Int32" Name="offsets" format="ascii">
2 4 6 
        </DataArray>
        <DataArray type="UInt8" Name="types" format="ascii">
3 3 3 
        </DataArray>
      </Cells>
      <PointData>
        <DataArray type="Float64" Name="rho">
          9.56549693e-01 9.49825379e-01 9.43521622e-01 9.37538768e-01 
        </DataArray>
        <DataArray type="Float64" Name="rhou">
          2.89571551e-02 2.75368532e-02 2.40707717e-02 2.85833567e-02 
        </DataArray>
        <DataArray type="Float64" Name="rhov">
          1.32742894e-02 1.07002870e-02 9.11841705e-03 8.61988201e-03 
        </DataArray>
        <DataArray type="Float64" Name="E">
          2.17464520e+05 2.15867994e+05 2.14371739e+05 2.12952675e+05 
        </DataArray>
      </PointData>
    </Piece>
    <Piece NumberOfPoints="4" NumberOfCells="3">
      <Points>
        <DataArray type="Float64" NumberOfComponents="3" format="ascii">
          9.98597518e-02 4.67394181e-02 0.00000000e+00 
1.10118888e-01 4.83862534e-02 0.00000000e+00 
1.20400399e-01 4.98730615e-02 0.00000000e+00 
1.30701363e-01 5.12186773e-02 0.00000000e+00 

        </DataArray>
      </Points>
      <Cells>
        <DataArray type="Int32" Name="connectivity" format="ascii">
0 1
1 2
2 3

        </DataArray>
        <DataArray type="Int32" Name="offsets" format="ascii">
2 4 6 
        </DataArray>
        <DataArray type="UInt8" Name="types" format="ascii">
3 3 3 
        </DataArray>
      </Cells>
      <PointData>
        <DataArray type="Float64" Name="rho">
          9.37466158e-01 9.23511748e-01 9.11473584e-01 9.01125034e-01 
        </DataArray>
        <DataArray type="Float64" Name="rhou">
          2.63153673e-02 1.81505194e-02 1.60242662e-02 1.25638601e-02 
        </DataArray>
        <DataArray type="Float64" Name="rhov">
          7.38630543e-03 4.16149174e-03 3.65389305e-03 2.98349719e-03 
        </DataArray>
        <DataArray type="Float64" Name="E">
          2.12936274e+05 2.09630290e+05 2.06781624e+05 2.04335262e+05 
        </DataArray>
      </PointData>
    </Piece>
    <Piece NumberOfPoints="4" NumberOfCells="3">
      <Points>
        <DataArray type="Float64" NumberOfComponents="3" format="ascii">
          1.30701363e-01 5.12186773e-02 0.00000000e+00 
1.41019106e-01 5.24347536e-02 0.00000000e+00 
1.51350453e-01 5.35292812e-02 0.00000000e+00 
1.61692888e-01 5.45137413e-02 0.00000000e+00 

        </DataArray>
      </Points>
      <Cells>
        <DataArray type="Int32" Name="connectivity" format="ascii">
0 1
1 2
2 3

        </DataArray>
        <DataArray type="Int32" Name="offsets" format="ascii">
2 4 6 
        </DataArray>
        <DataArray type="UInt8" Name="types" format="ascii">
3 3 3 
        </DataArray>
      </Cells>
      <PointData>
        <DataArray type="Float64" Name="rho">
          9.01121546e-01 8.92035877e-01 8.84188432e-01 8.77470796e-01 
        </DataArray>
        <DataArray type="Float64" Name="rhou">
          1.39437330e-02 1.20490333e-02 9.97657637e-03 8.71243587e-03 
        </DataArray>
        <DataArray type="Float64" Name="rhov">
          3.48207554e-03 2.55712244e-03 1.78055787e-03 1.60442617e-03 
        </DataArray>
        <DataArray type="Float64" Name="E">
          2.04334425e+05 2.02189828e+05 2.00339750e+05 1.98757546e+05 
        </DataArray>
      </PointData>
    </Piece>
    <Piece NumberOfPoints="4" NumberOfCells="3">
      <Points>
        <DataArray type="Float64" NumberOfComponents="3" format="ascii">
          1.61692888e-01 5.45137413e-02 0.00000000e+00 
1.72044471e-01 5.53969070e-02 0.00000000e+00 
1.82403773e-01 5.61845005e-02 0.00000000e+00 
1.92769483e-01 5.68825118e-02 0.00000000e+00 

        </DataArray>
      </Points>
      <Cells>
        <DataArray type="Int32" Name="connectivity" format="ascii">
0 1
1 2
2 3

        </DataArray>
        <DataArray type="Int32" Name="offsets" format="ascii">
2 4 6 
        </DataArray>
        <DataArray type="UInt8" Name="types" format="ascii">
3 3 3 
        </DataArray>
      </Cells>
      <PointData>
        <DataArray type="Float64" Name="rho">
          8.77468393e-01 8.71685517e-01 8.66746742e-01 8.62599387e-01 
        </DataArray>
        <DataArray type="Float64" Name="rhou">
          8.74909578e-03 7.61881112e-03 6.58518175e-03 5.68334630e-03 
        </DataArray>
        <DataArray type="Float64" Name="rhov">
          1.65597487e-03 1.29121639e-03 9.12662855e-04 6.83526432e-04 
        </DataArray>
        <DataArray type="Float64" Name="E">
          1.98757008e+05 1.97396708e+05 1.96236761e+05 1.95264207e+05 
        </DataArray>
      </PointData>
    </Piece>
    <Piece NumberOfPoints="4" NumberOfCells="3">
      <Points>
        <DataArray type="Float64" NumberOfComponents="3" format="ascii">
          1.92769483e-01 5.68825118e-02 0.00000000e+00 
2.03140482e-01 5.74972220e-02 0.00000000e+00 
2.13515818e-01 5.80338500e-02 0.00000000e+00 
2.23894730e-01 5.84962890e-02 0.00000000e+00 

        </DataArray>
      </Points>
      <Cells>
        <DataArray type="Int32" Name="connectivity" format="ascii">
0 1
1 2
2 3

        </DataArray>
        <DataArray type="Int32" Name="offsets" format="ascii">
2 4 6 
        </DataArray>
        <DataArray type="UInt8" Name="types" format="ascii">
3 3 3 
        </DataArray>
      </Cells>
      <PointData>
        <DataArray type="Float64" Name="rho">
          8.62598699e-01 8.59163044e-01 8.56355112e-01 8.54116636e-01 
        </DataArray>
        <DataArray type="Float64" Name="rhou">
          5.71995848e-03 4.99885602e-03 4.44273923e-03 3.98261238e-03 
        </DataArray>
        <DataArray type="Float64" Name="rhov">
          7.24835777e-04 6.34635309e-04 5.18521271e-04 3.95192713e-04 
        </DataArray>
        <DataArray type="Float64" Name="E">
          1.95264048e+05 1.94459776e+05 1.93804028e+05 1.93282937e+05 
        </DataArray>
      </PointData>
    </Piece>
    <Piece NumberOfPoints="4" NumberOfCells="3">
      <Points>
        <DataArray type="Float64" NumberOfComponents="3" format="ascii">
          2.23894730e-01 5.84962890e-02 0.00000000e+00 
2.34276548e-01 5.88882305e-02 0.00000000e+00 
2.44660646e-01 5.92139624e-02 0.00000000e+00 
2.55046517e-01 5.94772622e-02 0.00000000e+00 

        </DataArray>
      </Points>
      <Cells>
        <DataArray type="Int32" Name="connectivity" format="ascii">
0 1
1 2
2 3

        </DataArray>
        <DataArray type="Int32" Name="offsets" format="ascii">
2 4 6 
        </DataArray>
        <DataArray type="UInt8" Name="types" format="ascii">
3 3 3 
        </DataArray>
      </Cells>
      <PointData>
        <DataArray type="Float64" Name="rho">
          8.54117207e-01 8.52405973e-01 8.51177549e-01 8.50376641e-01 
        </DataArray>
        <DataArray type="Float64" Name="rhou">
          3.99021597e-03 3.46915264e-03 3.09114280e-03 2.86179856e-03 
        </DataArray>
        <DataArray type="Float64" Name="rhov">
          4.09541635e-04 3.31126925e-04 3.13345494e-04 3.11375797e-04 
        </DataArray>
        <DataArray type="Float64" Name="E">
          1.93283067e+05 1.92886449e+05 1.92603704e+05 1.92421802e+05 
        </DataArray>
      </PointData>
    </Piece>
    <Piece NumberOfPoints="4" NumberOfCells="3">
      <Points>
        <DataArray type="Float64" NumberOfComponents="3" format="ascii">
          2.55046517e-01 5.94772622e-02 0.00000000e+00 
2.65433758e-01 5.96804135e-02 0.00000000e+00 
2.75821954e-01 5.98256700e-02 0.00000000e+00 
2.86210775e-01 5.99167012e-02 0.00000000e+00 

        </DataArray>
      </Points>
      <Cells>
        <DataArray type="Int32" Name="connectivity" format="ascii">
0 1
1 2
2 3

        </DataArray>
        <DataArray type="Int32" Name="offsets" format="ascii">
2 4 6 
        </DataArray>
        <DataArray type="UInt8" Name="types" format="ascii">
3 3 3 
        </DataArray>
      </Cells>
      <PointData>
        <DataArray type="Float64" Name="rho">
          8.50376653e-01 8.49955072e-01 8.49888228e-01 8.50155837e-01 
        </DataArray>
        <DataArray type="Float64" Name="rhou">
          2.85604469e-03 2.56936941e-03 2.27563948e-03 2.01230382e-03 
        </DataArray>
        <DataArray type="Float64" Name="rhov">
          3.22649261e-04 2.26949026e-04 1.68334012e-04 2.01606704e-04 
        </DataArray>
        <DataArray type="Float64" Name="E">
          1.92421808e+05 1.92329417e+05 1.92320642e+05 1.92390494e+05 
        </DataArray>
      </PointData>
    </Piece>
    <Piece NumberOfPoints="4" NumberOfCells="3">
      <Points>
        <DataArray type="Float64" NumberOfComponents="3" format="ascii">
          2.86210775e-01 5.99167012e-02 0.00000000e+00 
2.96599895e-01 5.99572174e-02 0.00000000e+00 
3.06989133e-01 5.99487796e-02 0.00000000e+00 
3.17378193e-01 5.98919280e-02 0.00000000e+00 

        </DataArray>
      </Points>
      <Cells>
        <DataArray type="Int32" Name="connectivity" format="ascii">
0 1
1 2
2 3

        </DataArray>
        <DataArray type="Int32" Name="offsets" format="ascii">
2 4 6 
        </DataArray>
        <DataArray type="UInt8" Name="types" format="ascii">
3 3 3 
        </DataArray>
      </Cells>
      <PointData>
        <DataArray type="Float64" Name="rho">
          8.50154817e-01 8.50707933e-01 8.51499904e-01 8.52515786e-01 
        </DataArray>
        <DataArray type="Float64" Name="rhou">
          2.03108863e-03 1.91549062e-03 1.78899553e-03 1.60725761e-03 
        </DataArray>
        <DataArray type="Float64" Name="rhov">
          2.17922689e-04 2.44727634e-04 1.90251290e-04 1.15740063e-04 
        </DataArray>
        <DataArray type="Float64" Name="E">
          1.92390262e+05 1.92527251e+05 1.92720588e+05 1.92966683e+05 
        </DataArray>
      </PointData>
    </Piece>
    <Piece NumberOfPoints="4" NumberOfCells="3">
      <Points>
        <DataArray type="Float64" NumberOfComponents="3" format="ascii">
          3.17378193e-01 5.98919280e-02 0.00000000e+00 
3.27766895e-01 5.97884916e-02 0.00000000e+00 
3.38155061e-01 5.96415885e-02 0.00000000e+00 
3.48542601e-01 5.94538599e-02 0.00000000e+00 

        </DataArray>
      </Points>
      <Cells>
        <DataArray type="Int32" Name="connectivity" format="ascii">
0 1
1 2
2 3

        </DataArray>
        <DataArray type="Int32" Name="offsets" format="ascii">
2 4 6 
        </DataArray>
        <DataArray type="UInt8" Name="types" format="ascii">
3 3 3 
        </DataArray>
      </Cells>
      <PointData>
        <DataArray type="Float64" Name="rho">
          8.52516132e-01 8.53743338e-01 8.55161801e-01 8.56738821e-01 
        </DataArray>
        <DataArray type="Float64" Name="rhou">
          1.63663609e-03 1.44058117e-03 1.32361177e-03 1.27671623e-03 
        </DataArray>
        <DataArray type="Float64" Name="rhov">
          1.23375281e-04 1.11805370e-04 1.37194859e-04 1.57595410e-04 
        </DataArray>
        <DataArray type="Float64" Name="E">
          1.92966761e+05 1.93262537e+05 1.93603213e+05 1.93981163e+05 
        </DataArray>
      </PointData>
    </Piece>
    <Piece NumberOfPoints="4" NumberOfCells="3">
      <Points>
        <DataArray type="Float64" NumberOfComponents="3" format="ascii">
          3.48542601e-01 5.94538599e-02 0.00000000e+00 
3.58929336e-01 5.92265576e-02 0.00000000e+00 
3.69315147e-01 5.89610897e-02 0.00000000e+00 
3.79699975e-01 5.86590059e-02 0.00000000e+00 

        </DataArray>
      </Points>
      <Cells>
        <DataArray type="Int32" Name="connectivity" format="ascii">
0 1
1 2
2 3

        </DataArray>
        <DataArray type="Int32" Name="offsets" format="ascii">
2 4 6 
        </DataArray>
        <DataArray type="UInt8" Name="types" format="ascii">
3 3 3 
        </DataArray>
      </Cells>
      <PointData>
        <DataArray type="Float64" Name="rho">
          8.56739067e-01 8.58449302e-01 8.60283185e-01 8.62220957e-01 
        </DataArray>
        <DataArray type="Float64" Name="rhou">
          1.28904718e-03 1.16485019e-03 1.07081982e-03 1.02231121e-03 
        </DataArray>
        <DataArray type="Float64" Name="rhov">
          1.54518210e-04 1.18380408e-04 1.10820908e-04 1.09124139e-04 
        </DataArray>
        <DataArray type="Float64" Name="E">
          1.93981219e+05 1.94390524e+05 1.94828870e+05 1.95291644e+05 
        </DataArray>
      </PointData>
    </Piece>
    <Piece NumberOfPoints="4" NumberOfCells="3">
      <Points>
        <DataArray type="Float64" NumberOfComponents="3" format="ascii">
          3.79699975e-01 5.86590059e-02 0.00000000e+00 
3.90083700e-01 5.83211333e-02 0.00000000e+00 
4.00466233e-01 5.79482466e-02 0.00000000e+00 
4.10847515e-01 5.75418957e-02 0.00000000e+00 

        </DataArray>
      </Points>
      <Cells>
        <DataArray type="Int32" Name="connectivity" format="ascii">
0 1
1 2
2 3

        </DataArray>
        <DataArray type="Int32" Name="offsets" format="ascii">
2 4 6 
        </DataArray>
        <DataArray type="UInt8" Name="types" format="ascii">
3 3 3 
        </DataArray>
      </Cells>
      <PointData>
        <DataArray type="Float64" Name="rho">
          8.62220969e-01 8.64245866e-01 8.66348067e-01 8.68521099e-01 
        </DataArray>
        <DataArray type="Float64" Name="rhou">
          1.01464379e-03 9.50068660e-04 8.71082165e-04 7.94818534e-04 
        </DataArray>
        <DataArray type="Float64" Name="rhov">
          1.11555705e-04 8.12059094e-05 5.83565158e-05 6.36521247e-05 
        </DataArray>
        <DataArray type="Float64" Name="E">
          1.95291648e+05 1.95774935e+05 1.96276416e+05 1.96794519e+05 
        </DataArray>
      </PointData>
    </Piece>
    <Piece NumberOfPoints="4" NumberOfCells="3">
      <Points>
        <DataArray type="Float64" NumberOfComponents="3" format="ascii">
          4.10847515e-01 5.75418957e-02 0.00000000e+00 
4.21227485e-01 5.71038015e-02 0.00000000e+00 
4.31606144e-01 5.66351078e-02 0.00000000e+00 
4.41983402e-01 5.61364293e-02 0.00000000e+00 

        </DataArray>
      </Points>
      <Cells>
        <DataArray type="Int32" Name="connectivity" format="ascii">
0 1
1 2
2 3

        </DataArray>
        <DataArray type="Int32" Name="offsets" format="ascii">
2 4 6 
        </DataArray>
        <DataArray type="UInt8" Name="types" format="ascii">
3 3 3 
        </DataArray>
      </Cells>
      <PointData>
        <DataArray type="Float64" Name="rho">
          8.68520899e-01 8.70749252e-01 8.73021353e-01 8.75327596e-01 
        </DataArray>
        <DataArray type="Float64" Name="rhou">
          8.11370183e-04 7.59441797e-04 7.20052455e-04 6.82547785e-04 
        </DataArray>
        <DataArray type="Float64" Name="rhov">
          6.70725117e-05 6.71937112e-05 5.76166608e-05 3.66281897e-05 
        </DataArray>
        <DataArray type="Float64" Name="E">
          1.96794474e+05 1.97325581e+05 1.97866994e+05 1.98416469e+05 
        </DataArray>
      </PointData>
    </Piece>
    <Piece NumberOfPoints="4" NumberOfCells="3">
      <Points>
        <DataArray type="Float64" NumberOfComponents="3" format="ascii">
          4.41983402e-01 5.61364293e-02 0.00000000e+00 
4.52359200e-01 5.56085743e-02 0.00000000e+00 
4.62733537e-01 5.50529286e-02 0.00000000e+00 
4.73106444e-01 5.44707514e-02 0.00000000e+00 

        </DataArray>
      </Points>
      <Cells>
        <DataArray type="Int32" Name="connectivity" format="ascii">
0 1
1 2
2 3

        </DataArray>
        <DataArray type="Int32" Name="offsets" format="ascii">
2 4 6 
        </DataArray>
        <DataArray type="UInt8" Name="types" format="ascii">
3 3 3 
        </DataArray>
      </Cells>
      <PointData>
        <DataArray type="Float64" Name="rho">
          8.75327738e-01 8.77663748e-01 8.80023132e-01 8.82397460e-01 
        </DataArray>
        <DataArray type="Float64" Name="rhou">
          6.79573096e-04 6.23352228e-04 5.83039969e-04 5.59172611e-04 
        </DataArray>
        <DataArray type="Float64" Name="rhov">
          3.72701266e-05 2.99004837e-05 3.04338889e-05 3.07190753e-05 
        </DataArray>
        <DataArray type="Float64" Name="E">
          1.98416501e+05 1.98972980e+05 1.99534952e+05 2.00100452e+05 
        </DataArray>
      </PointData>
    </Piece>
    <Piece NumberOfPoints="4" NumberOfCells="3">
      <Points>
        <DataArray type="Float64" NumberOfComponents="3" format="ascii">
          4.73106444e-01 5.44707514e-02 0.00000000e+00 
4.83477861e-01 5.38627952e-02 0.00000000e+00 
4.93847787e-01 5.32294959e-02 0.00000000e+00 
5.04216135e-01 5.25716618e-02 0.00000000e+00 

        </DataArray>
      </Points>
      <Cells>
        <DataArray type="Int32" Name="connectivity" format="ascii">
0 1
1 2
2 3

        </DataArray>
        <DataArray type="Int32" Name="offsets" format="ascii">
2 4 6 
        </DataArray>
        <DataArray type="UInt8" Name="types" format="ascii">
3 3 3 
        </DataArray>
      </Cells>
      <PointData>
        <DataArray type="Float64" Name="rho">
          8.82397447e-01 8.84779911e-01 8.87165185e-01 8.89552191e-01 
        </DataArray>
        <DataArray type="Float64" Name="rhou">
          5.51604888e-04 5.30303793e-04 4.94863560e-04 4.52849061e-04 
        </DataArray>
        <DataArray type="Float64" Name="rhov">
          3.25252815e-05 2.12509151e-05 6.52491878e-06 4.01229693e-06 
        </DataArray>
        <DataArray type="Float64" Name="E">
          2.00100449e+05 2.00667886e+05 2.01236015e+05 2.01804555e+05 
        </DataArray>
      </PointData>
    </Piece>
    <Piece NumberOfPoints="4" NumberOfCells="3">
      <Points>
        <DataArray type="Float64" NumberOfComponents="3" format="ascii">
          5.04216135e-01 5.25716618e-02 0.00000000e+00 
5.14582992e-01 5.18903993e-02 0.00000000e+00 
5.24948359e-01 5.11864908e-02 0.00000000e+00 
5.35312176e-01 5.04603274e-02 0.00000000e+00 

        </DataArray>
      </Points>
      <Cells>
        <DataArray type="Int32" Name="connectivity" format="ascii">
0 1
1 2
2 3

        </DataArray>
        <DataArray type="Int32" Name="offsets" format="ascii">
2 4 6 
        </DataArray>
        <DataArray type="UInt8" Name="types" format="ascii">
3 3 3 
        </DataArray>
      </Cells>
      <PointData>
        <DataArray type="Float64" Name="rho">
          8.89552106e-01 8.91935473e-01 8.94310768e-01 8.96674538e-01 
        </DataArray>
        <DataArray type="Float64" Name="rhou">
          4.61390577e-04 4.35018238e-04 4.15045745e-04 3.95381595e-04 
        </DataArray>
        <DataArray type="Float64" Name="rhov">
          6.16669805e-06 5.91624952e-06 6.30035263e-07 -1.10671362e-05 
        </DataArray>
        <DataArray type="Float64" Name="E">
          2.01804536e+05 2.02372232e+05 2.02938050e+05 2.03501183e+05 
        </DataArray>
      </PointData>
    </Piece>
    <Piece NumberOfPoints="4" NumberOfCells="3">
      <Points>
        <DataArray type="Float64" NumberOfComponents="3" format="ascii">
          5.35312176e-01 5.04603274e-02 0.00000000e+00 
5.45674443e-01 4.97124642e-02 0.00000000e+00 
5.56035221e-01 4.89437394e-02 0.00000000e+00 
5.66394389e-01 4.81546782e-02 0.00000000e+00 

        </DataArray>
      </Points>
      <Cells>
        <DataArray type="Int32" Name="connectivity" format="ascii">
0 1
1 2
2 3

        </DataArray>
        <DataArray type="Int32" Name="offsets" format="ascii">
2 4 6 
        </DataArray>
        <DataArray type="UInt8" Name="types" format="ascii">
3 3 3 
        </DataArray>
      </Cells>
      <PointData>
        <DataArray type="Float64" Name="rho">
          8.96674583e-01 8.99026188e-01 9.01362734e-01 9.03681372e-01 
        </DataArray>
        <DataArray type="Float64" Name="rhou">
          3.91138322e-04 3.64525589e-04 3.45918201e-04 3.33898436e-04 
        </DataArray>
        <DataArray type="Float64" Name="rhov">
          -1.07861052e-05 -1.14024901e-05 -1.20214230e-05 -1.61425943e-05 
        </DataArray>
        <DataArray type="Float64" Name="E">
          2.03501193e+05 2.04061472e+05 2.04618219e+05 2.05170770e+05 
        </DataArray>
      </PointData>
    </Piece>
    <Piece NumberOfPoints="4" NumberOfCells="3">
      <Points>
        <DataArray type="Float64" NumberOfComponents="3" format="ascii">
          5.66394389e-01 4.81546782e-02 0.00000000e+00 
5.76752067e-01 4.73455116e-02 0.00000000e+00 
5.87108195e-01 4.65166979e-02 0.00000000e+00 
5.97462773e-01 4.56690118e-02 0.00000000e+00 

        </DataArray>
      </Points>
      <Cells>
        <DataArray type="Int32" Name="connectivity" format="ascii">
0 1
1 2
2 3

        </DataArray>
        <DataArray type="Int32" Name="offsets" format="ascii">
2 4 6 
        </DataArray>
        <DataArray type="UInt8" Name="types" format="ascii">
3 3 3 
        </DataArray>
      </Cells>
      <PointData>
        <DataArray type="Float64" Name="rho">
          9.03681401e-01 9.05980467e-01 9.08259656e-01 9.10518076e-01 
        </DataArray>
        <DataArray type="Float64" Name="rhou">
          3.33231058e-04 3.12711449e-04 2.91520419e-04 2.75319707e-04 
        </DataArray>
        <DataArray type="Float64" Name="rhov">
          -1.58086800e-05 -2.42984331e-05 -2.77143745e-05 -2.64100172e-05 
        </DataArray>
        <DataArray type="Float64" Name="E">
          2.05170777e+05 2.05718741e+05 2.06262033e+05 2.06800437e+05 
        </DataArray>
      </PointData>
    </Piece>
    <Piece NumberOfPoints="4" NumberOfCells="3">
      <Points>
        <DataArray type="Float64" NumberOfComponents="3" format="ascii">
          5.97462773e-01 4.56690118e-02 0.00000000e+00 
6.07815862e-01 4.48031016e-02 0.00000000e+00 
6.18167400e-01 4.39192392e-02 0.00000000e+00 
6.28517449e-01 4.30175588e-02 0.00000000e+00 

        </DataArray>
      </Points>
      <Cells>
        <DataArray type="Int32" Name="connectivity" format="ascii">
0 1
1 2
2 3

        </DataArray>
        <DataArray type="Int32" Name="offsets" format="ascii">
2 4 6 
        </DataArray>
        <DataArray type="UInt8" Name="types" format="ascii">
3 3 3 
        </DataArray>
      </Cells>
      <PointData>
        <DataArray type="Float64" Name="rho">
          9.10518014e-01 9.12753789e-01 9.14965122e-01 9.17152169e-01 
        </DataArray>
        <DataArray type="Float64" Name="rhou">
          2.73402747e-04 2.64604851e-04 2.52525874e-04 2.35206729e-04 
        </DataArray>
        <DataArray type="Float64" Name="rhov">
          -2.54919103e-05 -2.58393694e-05 -3.13054735e-05 -3.65240547e-05 
        </DataArray>
        <DataArray type="Float64" Name="E">
          2.06800423e+05 2.07333500e+05 2.07860835e+05 2.08382454e+05 
        </DataArray>
      </PointData>
    </Piece>
    <Piece NumberOfPoints="4" NumberOfCells="3">
      <Points>
        <DataArray type="Float64" NumberOfComponents="3" format="ascii">
          6.28517449e-01 4.30175588e-02 0.00000000e+00 
6.38865948e-01 4.20984775e-02 0.00000000e+00 
6.49212897e-01 4.11624312e-02 0.00000000e+00 
6.59558356e-01 4.02097441e-02 0.00000000e+00 

        </DataArray>
      </Points>
      <Cells>
        <DataArray type="Int32" Name="connectivity" format="ascii">
0 1
1 2
2 3

        </DataArray>
        <DataArray type="Int32" Name="offsets" format="ascii">
2 4 6 
        </DataArray>
        <DataArray type="UInt8" Name="types" format="ascii">
3 3 3 
        </DataArray>
      </Cells>
      <PointData>
        <DataArray type="Float64" Name="rho">
          9.17152161e-01 9.19314734e-01 9.21451986e-01 9.23563593e-01 
        </DataArray>
        <DataArray type="Float64" Name="rhou">
          2.36182841e-04 2.23374757e-04 2.12403826e-04 2.00601844e-04 
        </DataArray>
        <DataArray type="Float64" Name="rhov">
          -3.55156674e-05 -3.60845256e-05 -3.77999617e-05 -3.98916440e-05 
        </DataArray>
        <DataArray type="Float64" Name="E">
          2.08382452e+05 2.08898305e+05 2.09408193e+05 2.09912037e+05 
        </DataArray>
      </PointData>
    </Piece>
    <Piece NumberOfPoints="4" NumberOfCells="3">
      <Points>
        <DataArray type="Float64" NumberOfComponents="3" format="ascii">
          6.59558356e-01 4.02097441e-02 0.00000000e+00 
6.69902325e-01 3.92407738e-02 0.00000000e+00 
6.80244744e-01 3.82556282e-02 0.00000000e+00 
6.90585554e-01 3.72543521e-02 0.00000000e+00 

        </DataArray>
      </Points>
      <Cells>
        <DataArray type="Int32" Name="connectivity" format="ascii">
0 1
1 2
2 3

        </DataArray>
        <DataArray type="Int32" Name="offsets" format="ascii">
2 4 6 
        </DataArray>
        <DataArray type="UInt8" Name="types" format="ascii">
3 3 3 
        </DataArray>
      </Cells>
      <PointData>
        <DataArray type="Float64" Name="rho">
          9.23563576e-01 9.25649521e-01 9.27708653e-01 9.29741741e-01 
        </DataArray>
        <DataArray type="Float64" Name="rhou">
          1.97418908e-04 1.92401001e-04 1.83804464e-04 1.69237218e-04 
        </DataArray>
        <DataArray type="Float64" Name="rhov">
          -3.88662753e-05 -3.87193086e-05 -4.30297305e-05 -4.65246215e-05 
        </DataArray>
        <DataArray type="Float64" Name="E">
          2.09912033e+05 2.10409824e+05 2.10901296e+05 2.11386622e+05 
        </DataArray>
      </PointData>
    </Piece>
    <Piece NumberOfPoints="4" NumberOfCells="3">
      <Points>
        <DataArray type="Float64" NumberOfComponents="3" format="ascii">
          6.90585554e-01 3.72543521e-02 0.00000000e+00 
7.00924933e-01 3.62373814e-02 0.00000000e+00 
7.11262703e-01 3.52048986e-02 0.00000000e+00 
7.21598923e-01 3.41568366e-02 0.00000000e+00 

        </DataArray>
      </Points>
      <Cells>
        <DataArray type="Int32" Name="connectivity" format="ascii">
0 1
1 2
2 3

        </DataArray>
        <DataArray type="Int32" Name="offsets" format="ascii">
2 4 6 
        </DataArray>
        <DataArray type="UInt8" Name="types" format="ascii">
3 3 3 
        </DataArray>
      </Cells>
      <PointData>
        <DataArray type="Float64" Name="rho">
          9.29741698e-01 9.31749123e-01 9.33729671e-01 9.35683952e-01 
        </DataArray>
        <DataArray type="Float64" Name="rhou">
          1.67875020e-04 1.62853501e-04 1.57658649e-04 1.44739738e-04 
        </DataArray>
        <DataArray type="Float64" Name="rhov">
          -4.54172706e-05 -4.28014663e-05 -4.59738811e-05 -5.05442291e-05 
        </DataArray>
        <DataArray type="Float64" Name="E">
          2.11386612e+05 2.11865874e+05 2.12338794e+05 2.12805509e+05 
        </DataArray>
      </PointData>
    </Piece>
    <Piece NumberOfPoints="4" NumberOfCells="3">
      <Points>
        <DataArray type="Float64" NumberOfComponents="3" format="ascii">
          7.21598923e-01 3.41568366e-02 0.00000000e+00 
7.31933594e-01 3.30936089e-02 0.00000000e+00 
7.42266715e-01 3.20154354e-02 0.00000000e+00 
7.52598286e-01 3.09220124e-02 0.00000000e+00 

        </DataArray>
      </Points>
      <Cells>
        <DataArray type="Int32" Name="connectivity" format="ascii">
0 1
1 2
2 3

        </DataArray>
        <DataArray type="Int32" Name="offsets" format="ascii">
2 4 6 
        </DataArray>
        <DataArray type="UInt8" Name="types" format="ascii">
3 3 3 
        </DataArray>
      </Cells>
      <PointData>
        <DataArray type="Float64" Name="rho">
          9.35683932e-01 9.37612939e-01 9.39515309e-01 9.41391527e-01 
        </DataArray>
        <DataArray type="Float64" Name="rhou">
          1.42129379e-04 1.38055070e-04 1.35201940e-04 1.25005012e-04 
        </DataArray>
        <DataArray type="Float64" Name="rhov">
          -4.95859366e-05 -4.50042561e-05 -4.71182508e-05 -5.20400747e-05 
        </DataArray>
        <DataArray type="Float64" Name="E">
          2.12805505e+05 2.13266237e+05 2.13720675e+05 2.14168929e+05 
        </DataArray>
      </PointData>
    </Piece>
    <Piece NumberOfPoints="4" NumberOfCells="3">
      <Points>
        <DataArray type="Float64" NumberOfComponents="3" format="ascii">
          7.52598286e-01 3.09220124e-02 0.00000000e+00 
7.62928188e-01 2.98135038e-02 0.00000000e+00 
7.73256481e-01 2.86899786e-02 0.00000000e+00 
7.83583105e-01 2.75512449e-02 0.00000000e+00 

        </DataArray>
      </Points>
      <Cells>
        <DataArray type="Int32" Name="connectivity" format="ascii">
0 1
1 2
2 3

        </DataArray>
        <DataArray type="Int32" Name="offsets" format="ascii">
2 4 6 
        </DataArray>
        <DataArray type="UInt8" Name="types" format="ascii">
3 3 3 
        </DataArray>
      </Cells>
      <PointData>
        <DataArray type="Float64" Name="rho">
          9.41391522e-01 9.43242694e-01 9.45067992e-01 9.46868076e-01 
        </DataArray>
        <DataArray type="Float64" Name="rhou">
          1.22476435e-04 1.18836674e-04 1.15062138e-04 1.05885867e-04 
        </DataArray>
        <DataArray type="Float64" Name="rhov">
          -5.11371953e-05 -4.87175693e-05 -5.07418375e-05 -5.37857392e-05 
        </DataArray>
        <DataArray type="Float64" Name="E">
          2.14168927e+05 2.14611244e+05 2.15047435e+05 2.15477644e+05 
        </DataArray>
      </PointData>
    </Piece>
    <Piece NumberOfPoints="4" NumberOfCells="3">
      <Points>
        <DataArray type="Float64" NumberOfComponents="3" format="ascii">
          7.83583105e-01 2.75512449e-02 0.00000000e+00 
7.93908060e-01 2.63975188e-02 0.00000000e+00 
8.04231405e-01 2.52291560e-02 0.00000000e+00 
8.14553022e-01 2.40457114e-02 0.00000000e+00 

        </DataArray>
      </Points>
      <Cells>
        <DataArray type="Int32" Name="connectivity" format="ascii">
0 1
1 2
2 3

        </DataArray>
        <DataArray type="Int32" Name="offsets" format="ascii">
2 4 6 
        </DataArray>
        <DataArray type="UInt8" Name="types" format="ascii">
3 3 3 
        </DataArray>
      </Cells>
      <PointData>
        <DataArray type="Float64" Name="rho">
          9.46868082e-01 9.48643675e-01 9.50394670e-01 9.52120406e-01 
        </DataArray>
        <DataArray type="Float64" Name="rhou">
          1.08418312e-04 9.80838242e-05 9.71671272e-05 9.82616143e-05 
        </DataArray>
        <DataArray type="Float64" Name="rhov">
          -5.41353927e-05 -5.03738477e-05 -4.90094650e-05 -5.52165312e-05 
        </DataArray>
        <DataArray type="Float64" Name="E">
          2.15477646e+05 2.15902036e+05 2.16320576e+05 2.16733112e+05 
        </DataArray>
      </PointData>
    </Piece>
    <Piece NumberOfPoints="4" NumberOfCells="3">
      <Points>
        <DataArray type="Float64" NumberOfComponents="3" format="ascii">
          8.14553022e-01 2.40457114e-02 0.00000000e+00 
8.24872792e-01 2.28467938e-02 0.00000000e+00 
8.35190892e-01 2.16327831e-02 0.00000000e+00 
8.45507145e-01 2.04038676e-02 0.00000000e+00 

        </DataArray>
      </Points>
      <Cells>
        <DataArray type="Int32" Name="connectivity" format="ascii">
0 1
1 2
2 3

        </DataArray>
        <DataArray type="Int32" Name="offsets" format="ascii">
2 4 6 
        </DataArray>
        <DataArray type="UInt8" Name="types" format="ascii">
3 3 3 
        </DataArray>
      </Cells>
      <PointData>
        <DataArray type="Float64" Name="rho">
          9.52120449e-01 9.53822532e-01 9.55501216e-01 9.57156614e-01 
        </DataArray>
        <DataArray type="Float64" Name="rhou">
          9.25110000e-05 8.46665668e-05 7.81090918e-05 7.89668629e-05 
        </DataArray>
        <DataArray type="Float64" Name="rhov">
          -5.54840343e-05 -5.52703241e-05 -5.24128033e-05 -4.85560661e-05 
        </DataArray>
        <DataArray type="Float64" Name="E">
          2.16733122e+05 2.17140010e+05 2.17541300e+05 2.17937005e+05 
        </DataArray>
      </PointData>
    </Piece>
    <Piece NumberOfPoints="4" NumberOfCells="3">
      <Points>
        <DataArray type="Float64" NumberOfComponents="3" format="ascii">
          8.45507145e-01 2.04038676e-02 0.00000000e+00 
8.55821550e-01 1.91591792e-02 0.00000000e+00 
8.66134048e-01 1.78987328e-02 0.00000000e+00 
8.76444638e-01 1.66228991e-02 0.00000000e+00 

        </DataArray>
      </Points>
      <Cells>
        <DataArray type="Int32" Name="connectivity" format="ascii">
0 1
1 2
2 3

        </DataArray>
        <DataArray type="Int32" Name="offsets" format="ascii">
2 4 6 
        </DataArray>
        <DataArray type="UInt8" Name="types" format="ascii">
3 3 3 
        </DataArray>
      </Cells>
      <PointData>
        <DataArray type="Float64" Name="rho">
          9.57156722e-01 9.58787503e-01 9.60397403e-01 9.61983025e-01 
        </DataArray>
        <DataArray type="Float64" Name="rhou">
          9.96111129e-05 6.94470147e-05 6.83553011e-05 8.43096778e-05 
        </DataArray>
        <DataArray type="Float64" Name="rhov">
          -5.21102061e-05 -5.92381191e-05 -5.66920460e-05 -7.38677394e-05 
        </DataArray>
        <DataArray type="Float64" Name="E">
          2.17937030e+05 2.18326837e+05 2.18711581e+05 2.19090474e+05 
        </DataArray>
      </PointData>
    </Piece>
    <Piece NumberOfPoints="4" NumberOfCells="3">
      <Points>
        <DataArray type="Float64" NumberOfComponents="3" format="ascii">
          8.76444638e-01 1.66228991e-02 0.00000000e+00 
8.86753201e-01 1.53310820e-02 0.00000000e+00 
8.97059798e-01 1.40233757e-02 0.00000000e+00 
9.07364249e-01 1.26988320e-02 0.00000000e+00 

        </DataArray>
      </Points>
      <Cells>
        <DataArray type="Int32" Name="connectivity" format="ascii">
0 1
1 2
2 3

        </DataArray>
        <DataArray type="Int32" Name="offsets" format="ascii">
2 4 6 
        </DataArray>
        <DataArray type="UInt8" Name="types" format="ascii">
3 3 3 
        </DataArray>
      </Cells>
      <PointData>
        <DataArray type="Float64" Name="rho">
          9.61982588e-01 9.63550385e-01 9.65093030e-01 9.66628760e-01 
        </DataArray>
        <DataArray type="Float64" Name="rhou">
          -5.39138499e-06 8.50805763e-05 3.15694061e-05 -1.96151919e-05 
        </DataArray>
        <DataArray type="Float64" Name="rhov">
          -6.61299673e-05 -6.96535918e-05 -8.84093481e-05 7.47146580e-06 
        </DataArray>
        <DataArray type="Float64" Name="E">
          2.19090374e+05 2.19464872e+05 2.19833297e+05 2.20199803e+05 
        </DataArray>
      </PointData>
    </Piece>
    <Piece NumberOfPoints="4" NumberOfCells="3">
      <Points>
        <DataArray type="Float64" NumberOfComponents="3" format="ascii">
          9.07364249e-01 1.26988320e-02 0.00000000e+00 
9.17666554e-01 1.13577880e-02 0.00000000e+00 
9.27966774e-01 1.00004105e-02 0.00000000e+00 
9.38264549e-01 8.62528384e-03 0.00000000e+00 

        </DataArray>
      </Points>
      <Cells>
        <DataArray type="Int32" Name="connectivity" format="ascii">
0 1
1 2
2 3

        </DataArray>
        <DataArray type="Int32" Name="offsets" format="ascii">
2 4 6 
        </DataArray>
        <DataArray type="UInt8" Name="types" format="ascii">
3 3 3 
        </DataArray>
      </Cells>
      <PointData>
        <DataArray type="Float64" Name="rho">
          9.66633498e-01 9.68120958e-01 9.69631292e-01 9.70997987e-01 
        </DataArray>
        <DataArray type="Float64" Name="rhou">
          7.69615207e-04 -2.12234146e-04 3.24436933e-04 7.38563182e-04 
        </DataArray>
        <DataArray type="Float64" Name="rhov">
          -6.02285561e-05 -1.12618624e-04 -4.47015974e-05 -1.42669404e-03 
        </DataArray>
        <DataArray type="Float64" Name="E">
          2.20200881e+05 2.20556062e+05 2.20916172e+05 2.21243364e+05 
        </DataArray>
      </PointData>
    </Piece>
    <Piece NumberOfPoints="4" NumberOfCells="3">
      <Points>
        <DataArray type="Float64" NumberOfComponents="3" format="ascii">
          9.38264549e-01 8.62528384e-03 0.00000000e+00 
9.48560059e-01 7.23283459e-03 0.00000000e+00 
9.58853185e-01 5.82307298e-03 0.00000000e+00 
9.69143867e-01 4.39538015e-03 0.00000000e+00 

        </DataArray>
      </Points>
      <Cells>
        <DataArray type="Int32" Name="connectivity" format="ascii">
0 1
1 2
2 3

        </DataArray>
        <DataArray type="Int32" Name="offsets" format="ascii">
2 4 6 
        </DataArray>
        <DataArray type="UInt8" Name="types" format="ascii">
3 3 3 
        </DataArray>
      </Cells>
      <PointData>
        <DataArray type="Float64" Name="rho">
          9.70951709e-01 9.72629626e-01 9.73904846e-01 9.76588492e-01 
        </DataArray>
        <DataArray type="Float64" Name="rhou">
          -6.51931856e-03 2.07398838e-03 -3.08783959e-03 -1.85350649e-02 
        </DataArray>
        <DataArray type="Float64" Name="rhov">
          -1.05959348e-03 1.24535170e-04 -1.09933646e-03 1.84444131e-02 
        </DataArray>
        <DataArray type="Float64" Name="E">
          2.21232820e+05 2.21630878e+05 2.21937413e+05 2.22565465e+05 
        </DataArray>
      </PointData>
    </Piece>
    <Piece NumberOfPoints="4" NumberOfCells="3">
      <Points>
        <DataArray type="Float64" NumberOfComponents="3" format="ascii">
          9.69143867e-01 4.39538015e-03 0.00000000e+00 
9.79435980e-01 2.94816052e-03 0.00000000e+00 
9.89725590e-01 1.48259092e-03 0.00000000e+00 
1.00000000e+00 0.00000000e+00 0.00000000e+00 

        </DataArray>
      </Points>
      <Cells>
        <DataArray type="Int32" Name="connectivity" format="ascii">
0 1
1 2
2 3

        </DataArray>
        <DataArray type="Int32" Name="offsets" format="ascii">
2 4 6 
        </DataArray>
        <DataArray type="UInt8" Name="types" format="ascii">
3 3 3 
        </DataArray>
      </Cells>
      <PointData>
        <DataArray type="Float64" Name="rho">
          9.76874992e-01 9.76552468e-01 9.80332196e-01 9.70742240e-01 
        </DataArray>
        <DataArray type="Float64" Name="rhou">
          -1.47203387e-03 -9.34691399e-03 -3.66333807e-02 4.83446175e-01 
        </DataArray>
        <DataArray type="Float64" Name="rhov">
          2.05919919e-02 1.04864906e-03 5.10493212e-02 -1.33146441e-01 
        </DataArray>
        <DataArray type="Float64" Name="E">
          2.22630756e+05 2.22574772e+05 2.23455223e+05 2.21291200e+05 
        </DataArray>
      </PointData>
    </Piece>
    <Piece NumberOfPoints="4" NumberOfCells="3">
      <Points>
        <DataArray type="Float64" NumberOfComponents="3" format="ascii">
          9.69029665e-01 -4.41133138e-03 0.00000000e+00 
9.79355037e-01 -2.95961346e-03 0.00000000e+00 
9.89677846e-01 -1.48943183e-03 0.00000000e+00 
1.00000000e+00 0.00000000e+00 0.00000000e+00 

        </DataArray>
      </Points>
      <Cells>
        <DataArray type="Int32" Name="connectivity" format="ascii">
0 1
1 2
2 3

        </DataArray>
        <DataArray type="Int32" Name="offsets" format="ascii">
2 4 6 
        </DataArray>
        <DataArray type="UInt8" Name="types" format="ascii">
3 3 3 
        </DataArray>
      </Cells>
      <PointData>
        <DataArray type="Float64" Name="rho">
          9.75745049e-01 9.75485983e-01 9.79230725e-01 9.70899180e-01 
        </DataArray>
        <DataArray type="Float64" Name="rhou">
          -9.06988632e-04 -7.32061906e-03 -3.46615701e-02 4.44874359e-01 
        </DataArray>
        <DataArray type="Float64" Name="rhov">
          -2.28866428e-02 2.04110698e-03 -4.75402672e-02 1.39190818e-01 
        </DataArray>
        <DataArray type="Float64" Name="E">
          2.22383857e+05 2.22339327e+05 2.23208204e+05 2.21327322e+05 
        </DataArray>
      </PointData>
    </Piece>
    <Piece NumberOfPoints="4" NumberOfCells="3">
      <Points>
        <DataArray type="Float64" NumberOfComponents="3" format="ascii">
          9.38035965e-01 -8.65600072e-03 0.00000000e+00 
9.48369622e-01 -7.25875143e-03 0.00000000e+00 
9.58700895e-01 -5.84406452e-03 0.00000000e+00 
9.69029665e-01 -4.41133138e-03 0.00000000e+00 

        </DataArray>
      </Points>
      <Cells>
        <DataArray type="Int32" Name="connectivity" format="ascii">
0 1
1 2
2 3

        </DataArray>
        <DataArray type="Int32" Name="offsets" format="ascii">
2 4 6 
        </DataArray>
        <DataArray type="UInt8" Name="types" format="ascii">
3 3 3 
        </DataArray>
      </Cells>
      <PointData>
        <DataArray type="Float64" Name="rho">
          9.69973656e-01 9.71611162e-01 9.72860459e-01 9.75462596e-01 
        </DataArray>
        <DataArray type="Float64" Name="rhou">
          -6.14025888e-03 2.23629526e-03 -2.53923124e-03 -1.66359822e-02 
        </DataArray>
        <DataArray type="Float64" Name="rhov">
          1.06455987e-03 -1.67191048e-04 1.30375579e-03 -1.69974632e-02 
        </DataArray>
        <DataArray type="Float64" Name="E">
          2.21026196e+05 2.21413696e+05 2.21712504e+05 2.22319518e+05 
        </DataArray>
      </PointData>
    </Piece>
    <Piece NumberOfPoints="4" NumberOfCells="3">
      <Points>
        <DataArray type="Float64" NumberOfComponents="3" format="ascii">
          9.07021165e-01 -1.27432076e-02 0.00000000e+00 
9.17361677e-01 -1.13977119e-02 0.00000000e+00 
9.27700043e-01 -1.00357840e-02 0.00000000e+00 
9.38035965e-01 -8.65600072e-03 0.00000000e+00 

        </DataArray>
      </Points>
      <Cells>
        <DataArray type="Int32" Name="connectivity" format="ascii">
0 1
1 2
2 3

        </DataArray>
        <DataArray type="Int32" Name="offsets" format="ascii">
2 4 6 
        </DataArray>
        <DataArray type="UInt8" Name="types" format="ascii">
3 3 3 
        </DataArray>
      </Cells>
      <PointData>
        <DataArray type="Float64" Name="rho">
          9.65790028e-01 9.67225001e-01 9.68689453e-01 9.70018816e-01 
        </DataArray>
        <DataArray type="Float64" Name="rhou">
          8.94878807e-04 -6.65513085e-05 4.80967476e-04 8.63895464e-04 
        </DataArray>
        <DataArray type="Float64" Name="rhov">
          4.53406554e-05 7.14584270e-05 -1.17418798e-05 1.34248649e-03 
        </DataArray>
        <DataArray type="Float64" Name="E">
          2.20027305e+05 2.20369871e+05 2.20718767e+05 2.21036479e+05 
        </DataArray>
      </PointData>
    </Piece>
    <Piece NumberOfPoints="4" NumberOfCells="3">
      <Points>
        <DataArray type="Float64" NumberOfComponents="3" format="ascii">
          8.75986874e-01 -1.66798849e-02 0.00000000e+00 
8.86333704e-01 -1.53839625e-02 0.00000000e+00 
8.96678507e-01 -1.40720531e-02 0.00000000e+00 
9.07021165e-01 -1.27432076e-02 0.00000000e+00 

        </DataArray>
      </Points>
      <Cells>
        <DataArray type="Int32" Name="connectivity" format="ascii">
0 1
1 2
2 3

        </DataArray>
        <DataArray type="Int32" Name="offsets" format="ascii">
2 4 6 
        </DataArray>
        <DataArray type="UInt8" Name="types" format="ascii">
3 3 3 
        </DataArray>
      </Cells>
      <PointData>
        <DataArray type="Float64" Name="rho">
          9.61366590e-01 9.62847507e-01 9.64315059e-01 9.65785286e-01 
        </DataArray>
        <DataArray type="Float64" Name="rhou">
          1.48456842e-04 2.26190462e-04 1.80706315e-04 1.30635798e-04 
        </DataArray>
        <DataArray type="Float64" Name="rhov">
          6.28197384e-05 5.45249881e-05 6.92238489e-05 -2.14056124e-05 
        </DataArray>
        <DataArray type="Float64" Name="E">
          2.18970812e+05 2.19324698e+05 2.19675300e+05 2.20026227e+05 
        </DataArray>
      </PointData>
    </Piece>
    <Piece NumberOfPoints="4" NumberOfCells="3">
      <Points>
        <DataArray type="Float64" NumberOfComponents="3" format="ascii">
          8.44934702e-01 -2.04724707e-02 0.00000000e+00 
8.55287313e-01 -1.92240477e-02 0.00000000e+00 
8.65638077e-01 -1.79597028e-02 0.00000000e+00 
8.75986874e-01 -1.66798849e-02 0.00000000e+00 

        </DataArray>
      </Points>
      <Cells>
        <DataArray type="Int32" Name="connectivity" format="ascii">
0 1
1 2
2 3

        </DataArray>
        <DataArray type="Int32" Name="offsets" format="ascii">
2 4 6 
        </DataArray>
        <DataArray type="UInt8" Name="types" format="ascii">
3 3 3 
        </DataArray>
      </Cells>
      <PointData>
        <DataArray type="Float64" Name="rho">
          9.56882384e-01 9.58384374e-01 9.59881621e-01 9.61366998e-01 
        </DataArray>
        <DataArray type="Float64" Name="rhou">
          2.77050832e-04 2.19625117e-04 2.08079307e-04 2.46115324e-04 
        </DataArray>
        <DataArray type="Float64" Name="rhov">
          3.82889874e-05 5.83636895e-05 4.79831748e-05 6.58185933e-05 
        </DataArray>
        <DataArray type="Float64" Name="E">
          2.17898604e+05 2.18257816e+05 2.18615799e+05 2.18970905e+05 
        </DataArray>
      </PointData>
    </Piece>
    <Piece NumberOfPoints="4" NumberOfCells="3">
      <Points>
        <DataArray type="Float64" NumberOfComponents="3" format="ascii">
          8.13865662e-01 -2.41250079e-02 0.00000000e+00 
8.24223816e-01 -2.29226518e-02 0.00000000e+00 
8.34580123e-01 -2.17050612e-02 0.00000000e+00 
8.44934702e-01 -2.04724707e-02 0.00000000e+00 

        </DataArray>
      </Points>
      <Cells>
        <DataArray type="Int32" Name="connectivity" format="ascii">
0 1
1 2
2 3

        </DataArray>
        <DataArray type="Int32" Name="offsets" format="ascii">
2 4 6 
        </DataArray>
        <DataArray type="UInt8" Name="types" format="ascii">
3 3 3 
        </DataArray>
      </Cells>
      <PointData>
        <DataArray type="Float64" Name="rho">
          9.52315857e-01 9.53845394e-01 9.55367746e-01 9.56882159e-01 
        </DataArray>
        <DataArray type="Float64" Name="rhou">
          2.52423882e-04 2.37720561e-04 2.23253439e-04 2.29076683e-04 
        </DataArray>
        <DataArray type="Float64" Name="rhov">
          4.98828503e-05 5.04666118e-05 4.29380506e-05 3.10258948e-05 
        </DataArray>
        <DataArray type="Float64" Name="E">
          2.16806482e+05 2.17172302e+05 2.17536387e+05 2.17898553e+05 
        </DataArray>
      </PointData>
    </Piece>
    <Piece NumberOfPoints="4" NumberOfCells="3">
      <Points>
        <DataArray type="Float64" NumberOfComponents="3" format="ascii">
          7.82780826e-01 -2.76402626e-02 0.00000000e+00 
7.93144107e-01 -2.64833923e-02 0.00000000e+00 
8.03505778e-01 -2.53117718e-02 0.00000000e+00 
8.13865662e-01 -2.41250079e-02 0.00000000e+00 

        </DataArray>
      </Points>
      <Cells>
        <DataArray type="Int32" Name="connectivity" format="ascii">
0 1
1 2
2 3

        </DataArray>
        <DataArray type="Int32" Name="offsets" format="ascii">
2 4 6 
        </DataArray>
        <DataArray type="UInt8" Name="types" format="ascii">
3 3 3 
        </DataArray>
      </Cells>
      <PointData>
        <DataArray type="Float64" Name="rho">
          9.47679586e-01 9.49232835e-01 9.50779164e-01 9.52315750e-01 
        </DataArray>
        <DataArray type="Float64" Name="rhou">
          2.72254872e-04 2.51882460e-04 2.51962946e-04 2.61653456e-04 
        </DataArray>
        <DataArray type="Float64" Name="rhov">
          4.72776715e-05 3.87950790e-05 3.42183404e-05 4.82341932e-05 
        </DataArray>
        <DataArray type="Float64" Name="E">
          2.15697701e+05 2.16069147e+05 2.16438949e+05 2.16806458e+05 
        </DataArray>
      </PointData>
    </Piece>
    <Piece NumberOfPoints="4" NumberOfCells="3">
      <Points>
        <DataArray type="Float64" NumberOfComponents="3" format="ascii">
          7.51680970e-01 -3.10197193e-02 0.00000000e+00 
7.62049198e-01 -2.99084149e-02 0.00000000e+00 
7.72415876e-01 -2.87819952e-02 0.00000000e+00 
7.82780826e-01 -2.76402626e-02 0.00000000e+00 

        </DataArray>
      </Points>
      <Cells>
        <DataArray type="Int32" Name="connectivity" format="ascii">
0 1
1 2
2 3

        </DataArray>
        <DataArray type="Int32" Name="offsets" format="ascii">
2 4 6 
        </DataArray>
        <DataArray type="UInt8" Name="types" format="ascii">
3 3 3 
        </DataArray>
      </Cells>
      <PointData>
        <DataArray type="Float64" Name="rho">
          9.42981868e-01 9.44554628e-01 9.46120445e-01 9.47679550e-01 
        </DataArray>
        <DataArray type="Float64" Name="rhou">
          2.84754706e-04 2.80930560e-04 2.75898221e-04 2.62187665e-04 
        </DataArray>
        <DataArray type="Float64" Name="rhov">
          4.07969813e-05 3.40788615e-05 3.77442019e-05 4.51687354e-05 
        </DataArray>
        <DataArray type="Float64" Name="E">
          2.14574405e+05 2.14950441e+05 2.15324856e+05 2.15697693e+05 
        </DataArray>
      </PointData>
    </Piece>
    <Piece NumberOfPoints="4" NumberOfCells="3">
      <Points>
        <DataArray type="Float64" NumberOfComponents="3" format="ascii">
          7.20566452e-01 -3.42622213e-02 0.00000000e+00 
7.30939507e-01 -3.31965312e-02 0.00000000e+00 
7.41311073e-01 -3.21157984e-02 0.00000000e+00 
7.51680970e-01 -3.10197193e-02 0.00000000e+00 

        </DataArray>
      </Points>
      <Cells>
        <DataArray type="Int32" Name="connectivity" format="ascii">
0 1
1 2
2 3

        </DataArray>
        <DataArray type="Int32" Name="offsets" format="ascii">
2 4 6 
        </DataArray>
        <DataArray type="UInt8" Name="types" format="ascii">
3 3 3 
        </DataArray>
      </Cells>
      <PointData>
        <DataArray type="Float64" Name="rho">
          9.38234324e-01 9.39822392e-01 9.41405110e-01 9.42981860e-01 
        </DataArray>
        <DataArray type="Float64" Name="rhou">
          3.09899295e-04 3.03350434e-04 3.00881609e-04 2.88178854e-04 
        </DataArray>
        <DataArray type="Float64" Name="rhov">
          3.79571743e-05 2.69889147e-05 2.95506999e-05 4.12814378e-05 
        </DataArray>
        <DataArray type="Float64" Name="E">
          2.13439461e+05 2.13819060e+05 2.14197424e+05 2.14574403e+05 
        </DataArray>
      </PointData>
    </Piece>
    <Piece NumberOfPoints="4" NumberOfCells="3">
      <Points>
        <DataArray type="Float64" NumberOfComponents="3" format="ascii">
          6.89437866e-01 -3.73662710e-02 0.00000000e+00 
6.99815631e-01 -3.63472365e-02 0.00000000e+00 
7.10191846e-01 -3.53125818e-02 0.00000000e+00 
7.20566452e-01 -3.42622213e-02 0.00000000e+00 

        </DataArray>
      </Points>
      <Cells>
        <DataArray type="Int32" Name="connectivity" format="ascii">
0 1
1 2
2 3

        </DataArray>
        <DataArray type="Int32" Name="offsets" format="ascii">
2 4 6 
        </DataArray>
        <DataArray type="UInt8" Name="types" format="ascii">
3 3 3 
        </DataArray>
      </Cells>
      <PointData>
        <DataArray type="Float64" Name="rho">
          9.33456112e-01 9.35051816e-01 9.36644678e-01 9.38234335e-01 
        </DataArray>
        <DataArray type="Float64" Name="rhou">
          3.42343801e-04 3.35319410e-04 3.28667256e-04 3.11129433e-04 
        </DataArray>
        <DataArray type="Float64" Name="rhov">
          3.06185351e-05 2.32534308e-05 2.77348560e-05 3.82165311e-05 
        </DataArray>
        <DataArray type="Float64" Name="E">
          2.12297459e+05 2.12678793e+05 2.13059492e+05 2.13439464e+05 
        </DataArray>
      </PointData>
    </Piece>
    <Piece NumberOfPoints="4" NumberOfCells="3">
      <Points>
        <DataArray type="Float64" NumberOfComponents="3" format="ascii">
          6.58295333e-01 -4.03269380e-02 0.00000000e+00 
6.68677747e-01 -3.93563360e-02 0.00000000e+00 
6.79058611e-01 -3.83694395e-02 0.00000000e+00 
6.89437866e-01 -3.73662710e-02 0.00000000e+00 

        </DataArray>
      </Points>
      <Cells>
        <DataArray type="Int32" Name="connectivity" format="ascii">
0 1
1 2
2 3

        </DataArray>
        <DataArray type="Int32" Name="offsets" format="ascii">
2 4 6 
        </DataArray>
        <DataArray type="UInt8" Name="types" format="ascii">
3 3 3 
        </DataArray>
      </Cells>
      <PointData>
        <DataArray type="Float64" Name="rho">
          9.28671616e-01 9.30266241e-01 9.31861080e-01 9.33456166e-01 
        </DataArray>
        <DataArray type="Float64" Name="rhou">
          3.78818443e-04 3.73384877e-04 3.60993902e-04 3.40673782e-04 
        </DataArray>
        <DataArray type="Float64" Name="rhov">
          2.01181726e-05 1.69540454e-05 2.34494898e-05 3.13773375e-05 
        </DataArray>
        <DataArray type="Float64" Name="E">
          2.11154232e+05 2.11535218e+05 2.11916299e+05 2.12297471e+05 
        </DataArray>
      </PointData>
    </Piece>
    <Piece NumberOfPoints="4" NumberOfCells="3">
      <Points>
        <DataArray type="Float64" NumberOfComponents="3" format="ascii">
          6.27138972e-01 -4.31386717e-02 0.00000000e+00 
6.37525976e-01 -4.22184542e-02 0.00000000e+00 
6.47911429e-01 -4.12811004e-02 0.00000000e+00 
6.58295333e-01 -4.03269380e-02 0.00000000e+00 

        </DataArray>
      </Points>
      <Cells>
        <DataArray type="Int32" Name="connectivity" format="ascii">
0 1
1 2
2 3

        </DataArray>
        <DataArray type="Int32" Name="offsets" format="ascii">
2 4 6 
        </DataArray>
        <DataArray type="UInt8" Name="types" format="ascii">
3 3 3 
        </DataArray>
      </Cells>
      <PointData>
        <DataArray type="Float64" Name="rho">
          9.23912697e-01 9.25493658e-01 9.27080572e-01 9.28671649e-01 
        </DataArray>
        <DataArray type="Float64" Name="rhou">
          4.29755113e-04 4.11237824e-04 3.94302211e-04 3.79940077e-04 
        </DataArray>
        <DataArray type="Float64" Name="rhov">
          1.71077139e-05 1.59121069e-05 1.71577508e-05 2.09841676e-05 
        </DataArray>
        <DataArray type="Float64" Name="E">
          2.10017365e+05 2.10395020e+05 2.10774119e+05 2.11154239e+05 
        </DataArray>
      </PointData>
    </Piece>
    <Piece NumberOfPoints="4" NumberOfCells="3">
      <Points>
        <DataArray type="Float64" NumberOfComponents="3" format="ascii">
          5.95968783e-01 -4.57924642e-02 0.00000000e+00 
6.06360376e-01 -4.49259281e-02 0.00000000e+00 
6.16750479e-01 -4.40412909e-02 0.00000000e+00 
6.27138972e-01 -4.31386717e-02 0.00000000e+00 

        </DataArray>
      </Points>
      <Cells>
        <DataArray type="Int32" Name="connectivity" format="ascii">
0 1
1 2
2 3

        </DataArray>
        <DataArray type="Int32" Name="offsets" format="ascii">
2 4 6 
        </DataArray>
        <DataArray type="UInt8" Name="types" format="ascii">
3 3 3 
        </DataArray>
      </Cells>
      <PointData>
        <DataArray type="Float64" Name="rho">
          9.19224218e-01 9.20777049e-01 9.22340283e-01 9.23912690e-01 
        </DataArray>
        <DataArray type="Float64" Name="rhou">
          4.74333369e-04 4.62395389e-04 4.45393822e-04 4.23515289e-04 
        </DataArray>
        <DataArray type="Float64" Name="rhov">
          5.60795471e-06 2.35915092e-06 8.64410820e-06 1.78885807e-05 
        </DataArray>
        <DataArray type="Float64" Name="E">
          2.08897502e+05 2.09268377e+05 2.09641763e+05 2.10017364e+05 
        </DataArray>
      </PointData>
    </Piece>
    <Piece NumberOfPoints="4" NumberOfCells="3">
      <Points>
        <DataArray type="Float64" NumberOfComponents="3" format="ascii">
          5.64784765e-01 -4.82786149e-02 0.00000000e+00 
5.75181007e-01 -4.74695377e-02 0.00000000e+00 
5.85575700e-01 -4.66405638e-02 0.00000000e+00 
5.95968783e-01 -4.57924642e-02 0.00000000e+00 

        </DataArray>
      </Points>
      <Cells>
        <DataArray type="Int32" Name="connectivity" format="ascii">
0 1
1 2
2 3

        </DataArray>
        <DataArray type="Int32" Name="offsets" format="ascii">
2 4 6 
        </DataArray>
        <DataArray type="UInt8" Name="types" format="ascii">
3 3 3 
        </DataArray>
      </Cells>
      <PointData>
        <DataArray type="Float64" Name="rho">
          9.14665786e-01 9.16165811e-01 9.17685940e-01 9.19224331e-01 
        </DataArray>
        <DataArray type="Float64" Name="rhou">
          5.50507313e-04 5.24379536e-04 4.91754790e-04 4.68364294e-04 
        </DataArray>
        <DataArray type="Float64" Name="rhov">
          -5.43412491e-06 5.68791760e-06 1.02255176e-05 6.48964910e-06 
        </DataArray>
        <DataArray type="Float64" Name="E">
          2.07808731e+05 2.08167020e+05 2.08530101e+05 2.08897527e+05 
        </DataArray>
      </PointData>
    </Piece>
    <Piece NumberOfPoints="4" NumberOfCells="3">
      <Points>
        <DataArray type="Float64" NumberOfComponents="3" format="ascii">
          5.33586800e-01 -5.05827516e-02 0.00000000e+00 
5.43987691e-01 -4.98356484e-02 0.00000000e+00 
5.54387033e-01 -4.90674041e-02 0.00000000e+00 
5.64784765e-01 -4.82786149e-02 0.00000000e+00 

        </DataArray>
      </Points>
      <Cells>
        <DataArray type="Int32" Name="connectivity" format="ascii">
0 1
1 2
2 3

        </DataArray>
        <DataArray type="Int32" Name="offsets" format="ascii">
2 4 6 
        </DataArray>
        <DataArray type="UInt8" Name="types" format="ascii">
3 3 3 
        </DataArray>
      </Cells>
      <PointData>
        <DataArray type="Float64" Name="rho">
          9.10310433e-01 9.11733648e-01 9.13187232e-01 9.14665745e-01 
        </DataArray>
        <DataArray type="Float64" Name="rhou">
          6.24936292e-04 5.85366375e-04 5.56763313e-04 5.45075580e-04 
        </DataArray>
        <DataArray type="Float64" Name="rhov">
          -3.86556209e-06 -4.06093970e-06 -7.34210494e-06 -5.12559910e-06 
        </DataArray>
        <DataArray type="Float64" Name="E">
          2.06768362e+05 2.07108362e+05 2.07455571e+05 2.07808722e+05 
        </DataArray>
      </PointData>
    </Piece>
    <Piece NumberOfPoints="4" NumberOfCells="3">
      <Points>
        <DataArray type="Float64" NumberOfComponents="3" format="ascii">
          5.02374947e-01 -5.26902266e-02 0.00000000e+00 
5.12780428e-01 -5.20105064e-02 0.00000000e+00 
5.23184419e-01 -5.13078682e-02 0.00000000e+00 
5.33586800e-01 -5.05827516e-02 0.00000000e+00 

        </DataArray>
      </Points>
      <Cells>
        <DataArray type="Int32" Name="connectivity" format="ascii">
0 1
1 2
2 3

        </DataArray>
        <DataArray type="Int32" Name="offsets" format="ascii">
2 4 6 
        </DataArray>
        <DataArray type="UInt8" Name="types" format="ascii">
3 3 3 
        </DataArray>
      </Cells>
      <PointData>
        <DataArray type="Float64" Name="rho">
          9.06257554e-01 9.07568627e-01 9.08921580e-01 9.10310338e-01 
        </DataArray>
        <DataArray type="Float64" Name="rhou">
          7.06768680e-04 6.70507504e-04 6.42962339e-04 6.22367763e-04 
        </DataArray>
        <DataArray type="Float64" Name="rhov">
          -1.26912926e-05 -1.92631348e-05 -1.80132403e-05 -4.38040989e-06 
        </DataArray>
        <DataArray type="Float64" Name="E">
          2.05799839e+05 2.06113208e+05 2.06436515e+05 2.06768340e+05 
        </DataArray>
      </PointData>
    </Piece>
    <Piece NumberOfPoints="4" NumberOfCells="3">
      <Points>
        <DataArray type="Float64" NumberOfComponents="3" format="ascii">
          4.71149325e-01 -5.45825884e-02 0.00000000e+00 
4.81559396e-01 -5.39771840e-02 0.00000000e+00 
4.91967946e-01 -5.33461571e-02 0.00000000e+00 
5.02374947e-01 -5.26902266e-02 0.00000000e+00 

        </DataArray>
      </Points>
      <Cells>
        <DataArray type="Int32" Name="connectivity" format="ascii">
0 1
1 2
2 3

        </DataArray>
        <DataArray type="Int32" Name="offsets" format="ascii">
2 4 6 
        </DataArray>
        <DataArray type="UInt8" Name="types" format="ascii">
3 3 3 
        </DataArray>
      </Cells>
      <PointData>
        <DataArray type="Float64" Name="rho">
          9.02637474e-01 9.03788238e-01 9.04995323e-01 9.06257642e-01 
        </DataArray>
        <DataArray type="Float64" Name="rhou">
          8.14069513e-04 7.91140200e-04 7.44289004e-04 6.87215205e-04 
        </DataArray>
        <DataArray type="Float64" Name="rhov">
          -3.66111311e-05 -3.05418140e-05 -1.35148745e-05 -9.95357167e-06 
        </DataArray>
        <DataArray type="Float64" Name="E">
          2.04933903e+05 2.05209283e+05 2.05498035e+05 2.05799860e+05 
        </DataArray>
      </PointData>
    </Piece>
    <Piece NumberOfPoints="4" NumberOfCells="3">
      <Points>
        <DataArray type="Float64" NumberOfComponents="3" format="ascii">
          4.39910263e-01 -5.62384278e-02 0.00000000e+00 
4.50324744e-01 -5.57143167e-02 0.00000000e+00 
4.60737765e-01 -5.51619194e-02 0.00000000e+00 
4.71149325e-01 -5.45825884e-02 0.00000000e+00 

        </DataArray>
      </Points>
      <Cells>
        <DataArray type="Int32" Name="connectivity" format="ascii">
0 1
1 2
2 3

        </DataArray>
        <DataArray type="Int32" Name="offsets" format="ascii">
2 4 6 
        </DataArray>
        <DataArray type="UInt8" Name="types" format="ascii">
3 3 3 
        </DataArray>
      </Cells>
      <PointData>
        <DataArray type="Float64" Name="rho">
          8.99607932e-01 9.00537797e-01 9.01551172e-01 9.02637549e-01 
        </DataArray>
        <DataArray type="Float64" Name="rhou">
          9.83122945e-04 9.05742891e-04 8.47191457e-04 8.19532620e-04 
        </DataArray>
        <DataArray type="Float64" Name="rhov">
          -2.88166018e-05 -1.99311541e-05 -2.66486748e-05 -3.41427954e-05 
        </DataArray>
        <DataArray type="Float64" Name="E">
          2.04207816e+05 2.04430935e+05 2.04673790e+05 2.04933919e+05 
        </DataArray>
      </PointData>
    </Piece>
    <Piece NumberOfPoints="4" NumberOfCells="3">
      <Points>
        <DataArray type="Float64" NumberOfComponents="3" format="ascii">
          4.08658355e-01 -5.76302819e-02 0.00000000e+00 
4.19077009e-01 -5.71971126e-02 0.00000000e+00 
4.29494321e-01 -5.67329265e-02 0.00000000e+00 
4.39910263e-01 -5.62384278e-02 0.00000000e+00 

        </DataArray>
      </Points>
      <Cells>
        <DataArray type="Int32" Name="connectivity" format="ascii">
0 1
1 2
2 3

        </DataArray>
        <DataArray type="Int32" Name="offsets" format="ascii">
2 4 6 
        </DataArray>
        <DataArray type="UInt8" Name="types" format="ascii">
3 3 3 
        </DataArray>
      </Cells>
      <PointData>
        <DataArray type="Float64" Name="rho">
          8.97377559e-01 8.98019675e-01 8.98766945e-01 8.99607700e-01 
        </DataArray>
        <DataArray type="Float64" Name="rhou">
          1.13956972e-03 1.06961976e-03 1.01774944e-03 9.77810996e-04 
        </DataArray>
        <DataArray type="Float64" Name="rhov">
          -3.66863232e-05 -4.92721843e-05 -4.86459775e-05 -2.87129562e-05 
        </DataArray>
        <DataArray type="Float64" Name="E">
          2.03670858e+05 2.03825853e+05 2.04005731e+05 2.04207763e+05 
        </DataArray>
      </PointData>
    </Piece>
    <Piece NumberOfPoints="4" NumberOfCells="3">
      <Points>
        <DataArray type="Float64" NumberOfComponents="3" format="ascii">
          3.77394795e-01 -5.87291755e-02 0.00000000e+00 
3.87817174e-01 -5.83979115e-02 0.00000000e+00 
3.98238391e-01 -5.80311492e-02 0.00000000e+00 
4.08658355e-01 -5.76302819e-02 0.00000000e+00 

        </DataArray>
      </Points>
      <Cells>
        <DataArray type="Int32" Name="connectivity" format="ascii">
0 1
1 2
2 3

        </DataArray>
        <DataArray type="Int32" Name="offsets" format="ascii">
2 4 6 
        </DataArray>
        <DataArray type="UInt8" Name="types" format="ascii">
3 3 3 
        </DataArray>
      </Cells>
      <PointData>
        <DataArray type="Float64" Name="rho">
          8.96208873e-01 8.96463138e-01 8.96853766e-01 8.97377771e-01 
        </DataArray>
        <DataArray type="Float64" Name="rhou">
          1.38982825e-03 1.31578124e-03 1.21388100e-03 1.10844856e-03 
        </DataArray>
        <DataArray type="Float64" Name="rhov">
          -7.96162916e-05 -5.19765082e-05 -2.43986917e-05 -3.18460229e-05 
        </DataArray>
        <DataArray type="Float64" Name="E">
          2.03384978e+05 2.03448255e+05 2.03543828e+05 2.03670907e+05 
        </DataArray>
      </PointData>
    </Piece>
    <Piece NumberOfPoints="4" NumberOfCells="3">
      <Points>
        <DataArray type="Float64" NumberOfComponents="3" format="ascii">
          3.46121490e-01 -5.95011823e-02 0.00000000e+00 
3.56546819e-01 -5.92821389e-02 0.00000000e+00 
3.66971314e-01 -5.90242445e-02 0.00000000e+00 
3.77394795e-01 -5.87291755e-02 0.00000000e+00 

        </DataArray>
      </Points>
      <Cells>
        <DataArray type="Int32" Name="connectivity" format="ascii">
0 1
1 2
2 3

        </DataArray>
        <DataArray type="Int32" Name="offsets" format="ascii">
2 4 6 
        </DataArray>
        <DataArray type="UInt8" Name="types" format="ascii">
3 3 3 
        </DataArray>
      </Cells>
      <PointData>
        <DataArray type="Float64" Name="rho">
          8.96391865e-01 8.96155852e-01 8.96100614e-01 8.96208965e-01 
        </DataArray>
        <DataArray type="Float64" Name="rhou">
          1.73384926e-03 1.58908391e-03 1.45984805e-03 1.39326203e-03 
        </DataArray>
        <DataArray type="Float64" Name="rhov">
          -1.14114469e-04 -7.23195567e-05 -6.50889771e-05 -7.50267431e-05 
        </DataArray>
        <DataArray type="Float64" Name="E">
          2.03418934e+05 2.03366234e+05 2.03356272e+05 2.03384998e+05 
        </DataArray>
      </PointData>
    </Piece>
    <Piece NumberOfPoints="4" NumberOfCells="3">
      <Points>
        <DataArray type="Float64" NumberOfComponents="3" format="ascii">
          3.14841360e-01 -5.99102043e-02 0.00000000e+00 
3.25268596e-01 -5.98174632e-02 0.00000000e+00 
3.35695356e-01 -5.96801341e-02 0.00000000e+00 
3.46121490e-01 -5.95011823e-02 0.00000000e+00 

        </DataArray>
      </Points>
      <Cells>
        <DataArray type="Int32" Name="connectivity" format="ascii">
0 1
1 2
2 3

        </DataArray>
        <DataArray type="Int32" Name="offsets" format="ascii">
2 4 6 
        </DataArray>
        <DataArray type="UInt8" Name="types" format="ascii">
3 3 3 
        </DataArray>
      </Cells>
      <PointData>
        <DataArray type="Float64" Name="rho">
          8.98329666e-01 8.97449126e-01 8.96812416e-01 8.96391575e-01 
        </DataArray>
        <DataArray type="Float64" Name="rhou">
          2.18518550e-03 1.94045585e-03 1.77514934e-03 1.69829117e-03 
        </DataArray>
        <DataArray type="Float64" Name="rhov">
          -5.11840159e-05 -2.78655976e-05 -6.00978776e-05 -1.13363805e-04 
        </DataArray>
        <DataArray type="Float64" Name="E">
          2.03868090e+05 2.03662914e+05 2.03515370e+05 2.03418867e+05 
        </DataArray>
      </PointData>
    </Piece>
    <Piece NumberOfPoints="4" NumberOfCells="3">
      <Points>
        <DataArray type="Float64" NumberOfComponents="3" format="ascii">
          2.83558637e-01 -5.98983802e-02 0.00000000e+00 
2.93986142e-01 -5.99516556e-02 0.00000000e+00 
3.04413795e-01 -5.99554181e-02 0.00000000e+00 
3.14841360e-01 -5.99102043e-02 0.00000000e+00 

        </DataArray>
      </Points>
      <Cells>
        <DataArray type="Int32" Name="connectivity" format="ascii">
0 1
1 2
2 3

        </DataArray>
        <DataArray type="Int32" Name="offsets" format="ascii">
2 4 6 
        </DataArray>
        <DataArray type="UInt8" Name="types" format="ascii">
3 3 3 
        </DataArray>
      </Cells>
      <PointData>
        <DataArray type="Float64" Name="rho">
          9.02534995e-01 9.00862814e-01 8.99466577e-01 8.98328954e-01 
        </DataArray>
        <DataArray type="Float64" Name="rhou">
          2.66386979e-03 2.49856966e-03 2.36057557e-03 2.17619268e-03 
        </DataArray>
        <DataArray type="Float64" Name="rhov">
          -1.08422356e-04 -1.75306228e-04 -1.39531933e-04 -4.45817333e-05 
        </DataArray>
        <DataArray type="Float64" Name="E">
          2.04854427e+05 2.04461443e+05 2.04133981e+05 2.03867928e+05 
        </DataArray>
      </PointData>
    </Piece>
    <Piece NumberOfPoints="4" NumberOfCells="3">
      <Points>
        <DataArray type="Float64" NumberOfComponents="3" format="ascii">
          2.52279758e-01 -5.94130717e-02 0.00000000e+00 
2.62705088e-01 -5.96327744e-02 0.00000000e+00 
2.73131490e-01 -5.97934239e-02 0.00000000e+00 
2.83558637e-01 -5.98983802e-02 0.00000000e+00 

        </DataArray>
      </Points>
      <Cells>
        <DataArray type="Int32" Name="connectivity" format="ascii">
0 1
1 2
2 3

        </DataArray>
        <DataArray type="Int32" Name="offsets" format="ascii">
2 4 6 
        </DataArray>
        <DataArray type="UInt8" Name="types" format="ascii">
3 3 3 
        </DataArray>
      </Cells>
      <PointData>
        <DataArray type="Float64" Name="rho">
          9.09625620e-01 9.06893459e-01 9.04532933e-01 9.02535916e-01 
        </DataArray>
        <DataArray type="Float64" Name="rhou">
          3.63751948e-03 3.33192052e-03 2.99603475e-03 2.65014454e-03 
        </DataArray>
        <DataArray type="Float64" Name="rhov">
          -2.57169257e-04 -1.64920456e-04 -7.76224788e-05 -8.92403253e-05 
        </DataArray>
        <DataArray type="Float64" Name="E">
          2.06524714e+05 2.05880449e+05 2.05324498e+05 2.04854640e+05 
        </DataArray>
      </PointData>
    </Piece>
    <Piece NumberOfPoints="4" NumberOfCells="3">
      <Points>
        <DataArray type="Float64" NumberOfComponents="3" format="ascii">
          2.21014455e-01 -5.83752058e-02 0.00000000e+00 
2.31433928e-01 -5.87876961e-02 0.00000000e+00 
2.41855890e-01 -5.91322705e-02 0.00000000e+00 
2.52279758e-01 -5.94130717e-02 0.00000000e+00 

        </DataArray>
      </Points>
      <Cells>
        <DataArray type="Int32" Name="connectivity" format="ascii">
0 1
1 2
2 3

        </DataArray>
        <DataArray type="Int32" Name="offsets" format="ascii">
2 4 6 
        </DataArray>
        <DataArray type="UInt8" Name="types" format="ascii">
3 3 3 
        </DataArray>
      </Cells>
      <PointData>
        <DataArray type="Float64" Name="rho">
          9.20382157e-01 9.16321978e-01 9.12752202e-01 9.09625801e-01 
        </DataArray>
        <DataArray type="Float64" Name="rhou">
          4.99141222e-03 4.40586966e-03 3.95932475e-03 3.67171009e-03 
        </DataArray>
        <DataArray type="Float64" Name="rhov">
          -3.63568558e-04 -2.59314298e-04 -2.26920305e-04 -2.40777959e-04 
        </DataArray>
        <DataArray type="Float64" Name="E">
          2.09065980e+05 2.08106091e+05 2.07262755e+05 2.06524752e+05 
        </DataArray>
      </PointData>
    </Piece>
    <Piece NumberOfPoints="4" NumberOfCells="3">
      <Points>
        <DataArray type="Float64" NumberOfComponents="3" format="ascii">
          1.89777538e-01 -5.66898957e-02 0.00000000e+00 
2.00185493e-01 -5.73302582e-02 0.00000000e+00 
2.10598081e-01 -5.78906052e-02 0.00000000e+00 
2.21014455e-01 -5.83752058e-02 0.00000000e+00 

        </DataArray>
      </Points>
      <Cells>
        <DataArray type="Int32" Name="connectivity" format="ascii">
0 1
1 2
2 3

        </DataArray>
        <DataArray type="Int32" Name="offsets" format="ascii">
2 4 6 
        </DataArray>
        <DataArray type="UInt8" Name="types" format="ascii">
3 3 3 
        </DataArray>
      </Cells>
      <PointData>
        <DataArray type="Float64" Name="rho">
          9.35890367e-01 9.30115722e-01 9.24966197e-01 9.20381397e-01 
        </DataArray>
        <DataArray type="Float64" Name="rhou">
          6.91441869e-03 6.11339438e-03 5.52755168e-03 5.05390990e-03 
        </DataArray>
        <DataArray type="Float64" Name="rhov">
          -6.45350141e-04 -5.74497278e-04 -4.74706562e-04 -3.50818455e-04 
        </DataArray>
        <DataArray type="Float64" Name="E">
          2.12738372e+05 2.11369951e+05 2.10150576e+05 2.09065805e+05 
        </DataArray>
      </PointData>
    </Piece>
    <Piece NumberOfPoints="4" NumberOfCells="3">
      <Points>
        <DataArray type="Float64" NumberOfComponents="3" format="ascii">
          1.58592433e-01 -5.42296544e-02 0.00000000e+00 
1.68979734e-01 -5.51457107e-02 0.00000000e+00 
1.79375216e-01 -5.59638515e-02 0.00000000e+00 
1.89777538e-01 -5.66898957e-02 0.00000000e+00 

        </DataArray>
      </Points>
      <Cells>
        <DataArray type="Int32" Name="connectivity" format="ascii">
0 1
1 2
2 3

        </DataArray>
        <DataArray type="Int32" Name="offsets" format="ascii">
2 4 6 
        </DataArray>
        <DataArray type="UInt8" Name="types" format="ascii">
3 3 3 
        </DataArray>
      </Cells>
      <PointData>
        <DataArray type="Float64" Name="rho">
          9.57715580e-01 9.49630662e-01 9.42372527e-01 9.35890785e-01 
        </DataArray>
        <DataArray type="Float64" Name="rhou">
          9.97400789e-03 8.89910909e-03 7.94891433e-03 6.98573749e-03 
        </DataArray>
        <DataArray type="Float64" Name="rhov">
          -1.39813173e-03 -1.20625391e-03 -8.74924391e-04 -6.04812443e-04 
        </DataArray>
        <DataArray type="Float64" Name="E">
          2.17917981e+05 2.15997745e+05 2.14275421e+05 2.12738472e+05 
        </DataArray>
      </PointData>
    </Piece>
    <Piece NumberOfPoints="4" NumberOfCells="3">
      <Points>
        <DataArray type="Float64" NumberOfComponents="3" format="ascii">
          1.27497971e-01 -5.08146733e-02 0.00000000e+00 
1.37849152e-01 -5.20747155e-02 0.00000000e+00 
1.48214847e-01 -5.32093942e-02 0.00000000e+00 
1.58592433e-01 -5.42296544e-02 0.00000000e+00 

        </DataArray>
      </Points>
      <Cells>
        <DataArray type="Int32" Name="connectivity" format="ascii">
0 1
1 2
2 3

        </DataArray>
        <DataArray type="Int32" Name="offsets" format="ascii">
2 4 6 
        </DataArray>
        <DataArray type="UInt8" Name="types" format="ascii">
3 3 3 
        </DataArray>
      </Cells>
      <PointData>
        <DataArray type="Float64" Name="rho">
          9.88284648e-01 9.76911613e-01 9.66742742e-01 9.57719629e-01 
        </DataArray>
        <DataArray type="Float64" Name="rhou">
          1.45063033e-02 1.33277081e-02 1.15222822e-02 1.00025617e-02 
        </DataArray>
        <DataArray type="Float64" Name="rhov">
          -2.27487358e-03 -2.02717027e-03 -1.41153240e-03 -1.32613143e-03 
        </DataArray>
        <DataArray type="Float64" Name="E">
          2.25189949e+05 2.22482123e+05 2.20063621e+05 2.17918910e+05 
        </DataArray>
      </PointData>
    </Piece>
    <Piece NumberOfPoints="4" NumberOfCells="3">
      <Points>
        <DataArray type="Float64" NumberOfComponents="3" format="ascii">
          9.65642184e-02 -4.61716652e-02 0.00000000e+00 
1.06852271e-01 -4.78802323e-02 0.00000000e+00 
1.17164567e-01 -4.94215861e-02 0.00000000e+00 
1.27497971e-01 -5.08146733e-02 0.00000000e+00 

        </DataArray>
      </Points>
      <Cells>
        <DataArray type="Int32" Name="connectivity" format="ascii">
0 1
1 2
2 3

        </DataArray>
        <DataArray type="Int32" Name="offsets" format="ascii">
2 4 6 
        </DataArray>
        <DataArray type="UInt8" Name="types" format="ascii">
3 3 3 
        </DataArray>
      </Cells>
      <PointData>
        <DataArray type="Float64" Name="rho">
          1.03171292e+00 1.01539661e+00 1.00094964e+00 9.88292994e-01 
        </DataArray>
        <DataArray type="Float64" Name="rhou">
          2.46825916e-02 1.80955456e-02 1.71813012e-02 1.28626925e-02 
        </DataArray>
        <DataArray type="Float64" Name="rhov">
          -9.24029757e-04 -7.29638023e-04 -1.55233175e-03 -1.59535327e-03 
        </DataArray>
        <DataArray type="Float64" Name="E">
          2.35554737e+05 2.31656059e+05 2.28209109e+05 2.25191960e+05 
        </DataArray>
      </PointData>
    </Piece>
  </UnstructuredGrid>
</VTKFile>
