<?xml version="1.0"?>
<VTKFile type="UnstructuredGrid" version="0.1" byte_order="LittleEndian">
  <UnstructuredGrid>
    <Piece NumberOfPoints="4" NumberOfCells="3">
      <Points>
        <DataArray type="Float64" NumberOfComponents="3" format="ascii">
          9.65642184e-02 -4.61716652e-02 0.00000000e+00 
9.26280916e-02 -4.54656407e-02 0.00000000e+00 
8.86965096e-02 -4.47326750e-02 0.00000000e+00 
8.47706869e-02 -4.39694971e-02 0.00000000e+00 

        </DataArray>
      </Points>
      <Cells>
        <DataArray type="Int32" Name="connectivity" format="ascii">
0 1
1 2
2 3

        </DataArray>
        <DataArray type="Int32" Name="offsets" format="ascii">
2 4 6 
        </DataArray>
        <DataArray type="UInt8" Name="types" format="ascii">
3 3 3 
        </DataArray>
      </Cells>
      <PointData>
        <DataArray type="Float64" Name="rho">
          1.03165204e+00 1.03856538e+00 1.04579360e+00 1.05346905e+00 
        </DataArray>
        <DataArray type="Float64" Name="rhou">
          2.82612188e-02 2.17742298e-02 2.44213741e-02 2.45990874e-02 
        </DataArray>
        <DataArray type="Float64" Name="rhov">
          -2.23108862e-03 -1.02002632e-03 -6.12107582e-04 -9.27512622e-04 
        </DataArray>
        <DataArray type="Float64" Name="E">
          2.35535873e+05 2.37188743e+05 2.38918532e+05 2.40755693e+05 
        </DataArray>
      </PointData>
    </Piece>
    <Piece NumberOfPoints="4" NumberOfCells="3">
      <Points>
        <DataArray type="Float64" NumberOfComponents="3" format="ascii">
          8.47706869e-02 -4.39694971e-02 0.00000000e+00 
8.08513016e-02 -4.31745499e-02 0.00000000e+00 
7.69388378e-02 -4.23462167e-02 0.00000000e+00 
7.30340332e-02 -4.14824970e-02 0.00000000e+00 

        </DataArray>
      </Points>
      <Cells>
        <DataArray type="Int32" Name="connectivity" format="ascii">
0 1
1 2
2 3

        </DataArray>
        <DataArray type="Int32" Name="offsets" format="ascii">
2 4 6 
        </DataArray>
        <DataArray type="UInt8" Name="types" format="ascii">
3 3 3 
        </DataArray>
      </Cells>
      <PointData>
        <DataArray type="Float64" Name="rho">
          1.05346785e+00 1.06157174e+00 1.07013958e+00 1.07924110e+00 
        </DataArray>
        <DataArray type="Float64" Name="rhou">
          2.46904230e-02 2.38670858e-02 2.24593410e-02 2.08942554e-02 
        </DataArray>
        <DataArray type="Float64" Name="rhov">
          -7.33022308e-04 -5.26424378e-04 3.77683947e-04 1.56894208e-03 
        </DataArray>
        <DataArray type="Float64" Name="E">
          2.40755427e+05 2.42697100e+05 2.44751182e+05 2.46934418e+05 
        </DataArray>
      </PointData>
    </Piece>
    <Piece NumberOfPoints="4" NumberOfCells="3">
      <Points>
        <DataArray type="Float64" NumberOfComponents="3" format="ascii">
          7.30340332e-02 -4.14824970e-02 0.00000000e+00 
6.91377968e-02 -4.05809283e-02 0.00000000e+00 
6.52511865e-02 -3.96387354e-02 0.00000000e+00 
6.13753870e-02 -3.86530459e-02 0.00000000e+00 

        </DataArray>
      </Points>
      <Cells>
        <DataArray type="Int32" Name="connectivity" format="ascii">
0 1
1 2
2 3

        </DataArray>
        <DataArray type="Int32" Name="offsets" format="ascii">
2 4 6 
        </DataArray>
        <DataArray type="UInt8" Name="types" format="ascii">
3 3 3 
        </DataArray>
      </Cells>
      <PointData>
        <DataArray type="Float64" Name="rho">
          1.07924171e+00 1.08896061e+00 1.09932854e+00 1.11040502e+00 
        </DataArray>
        <DataArray type="Float64" Name="rhou">
          2.10121476e-02 1.86648627e-02 1.45692328e-02 9.07482121e-03 
        </DataArray>
        <DataArray type="Float64" Name="rhov">
          1.40360205e-03 2.14485521e-03 4.22109349e-03 7.40394730e-03 
        </DataArray>
        <DataArray type="Float64" Name="E">
          2.46934580e+05 2.49268112e+05 2.51759125e+05 2.54422614e+05 
        </DataArray>
      </PointData>
    </Piece>
    <Piece NumberOfPoints="4" NumberOfCells="3">
      <Points>
        <DataArray type="Float64" NumberOfComponents="3" format="ascii">
          6.13753870e-02 -3.86530459e-02 0.00000000e+00 
5.75117208e-02 -3.76208089e-02 0.00000000e+00 
5.36618084e-02 -3.65384258e-02 0.00000000e+00 
4.98276278e-02 -3.54015976e-02 0.00000000e+00 

        </DataArray>
      </Points>
      <Cells>
        <DataArray type="Int32" Name="connectivity" format="ascii">
0 1
1 2
2 3

        </DataArray>
        <DataArray type="Int32" Name="offsets" format="ascii">
2 4 6 
        </DataArray>
        <DataArray type="UInt8" Name="types" format="ascii">
3 3 3 
        </DataArray>
      </Cells>
      <PointData>
        <DataArray type="Float64" Name="rho">
          1.11040529e+00 1.12227319e+00 1.13501721e+00 1.14876872e+00 
        </DataArray>
        <DataArray type="Float64" Name="rhou">
          9.01871693e-03 1.96802197e-03 -7.23744798e-03 -1.87451825e-02 
        </DataArray>
        <DataArray type="Float64" Name="rhov">
          7.17619561e-03 1.18674493e-02 1.99277107e-02 3.13755676e-02 
        </DataArray>
        <DataArray type="Float64" Name="E">
          2.54422679e+05 2.57280419e+05 2.60351780e+05 2.63669264e+05 
        </DataArray>
      </PointData>
    </Piece>
    <Piece NumberOfPoints="4" NumberOfCells="3">
      <Points>
        <DataArray type="Float64" NumberOfComponents="3" format="ascii">
          4.98276278e-02 -3.54015976e-02 0.00000000e+00 
4.60115410e-02 -3.42054628e-02 0.00000000e+00 
4.22164090e-02 -3.29444520e-02 0.00000000e+00 
3.84457745e-02 -3.16120051e-02 0.00000000e+00 

        </DataArray>
      </Points>
      <Cells>
        <DataArray type="Int32" Name="connectivity" format="ascii">
0 1
1 2
2 3

        </DataArray>
        <DataArray type="Int32" Name="offsets" format="ascii">
2 4 6 
        </DataArray>
        <DataArray type="UInt8" Name="types" format="ascii">
3 3 3 
        </DataArray>
      </Cells>
      <PointData>
        <DataArray type="Float64" Name="rho">
          1.14876864e+00 1.16362761e+00 1.17970605e+00 1.19719539e+00 
        </DataArray>
        <DataArray type="Float64" Name="rhou">
          -1.91988786e-02 -3.33262329e-02 -5.23009606e-02 -7.49985903e-02 
        </DataArray>
        <DataArray type="Float64" Name="rhov">
          3.11611454e-02 4.78051716e-02 7.54127169e-02 1.15807450e-01 
        </DataArray>
        <DataArray type="Float64" Name="E">
          2.63669212e+05 2.67260379e+05 2.71151084e+05 2.75389560e+05 
        </DataArray>
      </PointData>
    </Piece>
    <Piece NumberOfPoints="4" NumberOfCells="3">
      <Points>
        <DataArray type="Float64" NumberOfComponents="3" format="ascii">
          3.84457745e-02 -3.16120051e-02 0.00000000e+00 
3.47041376e-02 -3.02002355e-02 0.00000000e+00 
3.09973080e-02 -2.86995135e-02 0.00000000e+00 
2.73328498e-02 -2.70981900e-02 0.00000000e+00 

        </DataArray>
      </Points>
      <Cells>
        <DataArray type="Int32" Name="connectivity" format="ascii">
0 1
1 2
2 3

        </DataArray>
        <DataArray type="Int32" Name="offsets" format="ascii">
2 4 6 
        </DataArray>
        <DataArray type="UInt8" Name="types" format="ascii">
3 3 3 
        </DataArray>
      </Cells>
      <PointData>
        <DataArray type="Float64" Name="rho">
          1.19719561e+00 1.21628530e+00 1.23716853e+00 1.26021672e+00 
        </DataArray>
        <DataArray type="Float64" Name="rhou">
          -7.59486605e-02 -1.00088171e-01 -1.28713581e-01 -1.54110156e-01 
        </DataArray>
        <DataArray type="Float64" Name="rhov">
          1.15726836e-01 1.71192397e-01 2.56988351e-01 3.77107464e-01 
        </DataArray>
        <DataArray type="Float64" Name="E">
          2.75389479e+05 2.80027588e+05 2.85110035e+05 2.90730908e+05 
        </DataArray>
      </PointData>
    </Piece>
    <Piece NumberOfPoints="4" NumberOfCells="3">
      <Points>
        <DataArray type="Float64" NumberOfComponents="3" format="ascii">
          2.73328498e-02 -2.70981900e-02 0.00000000e+00 
2.37206947e-02 -2.53822580e-02 0.00000000e+00 
2.01744195e-02 -2.35341713e-02 0.00000000e+00 
1.67132635e-02 -2.15314496e-02 0.00000000e+00 

        </DataArray>
      </Points>
      <Cells>
        <DataArray type="Int32" Name="connectivity" format="ascii">
0 1
1 2
2 3

        </DataArray>
        <DataArray type="Int32" Name="offsets" format="ascii">
2 4 6 
        </DataArray>
        <DataArray type="UInt8" Name="types" format="ascii">
3 3 3 
        </DataArray>
      </Cells>
      <PointData>
        <DataArray type="Float64" Name="rho">
          1.26022158e+00 1.28577451e+00 1.31428772e+00 1.34710700e+00 
        </DataArray>
        <DataArray type="Float64" Name="rhou">
          -1.54491000e-01 -1.68581089e-01 -1.52963176e-01 -5.71272787e-02 
        </DataArray>
        <DataArray type="Float64" Name="rhov">
          3.77781740e-01 5.29424028e-01 7.39842595e-01 9.57916692e-01 
        </DataArray>
        <DataArray type="Float64" Name="E">
          2.90731806e+05 2.96985654e+05 3.03976693e+05 3.12033498e+05 
        </DataArray>
      </PointData>
    </Piece>
    <Piece NumberOfPoints="4" NumberOfCells="3">
      <Points>
        <DataArray type="Float64" NumberOfComponents="3" format="ascii">
          1.67132635e-02 -2.15314496e-02 0.00000000e+00 
1.33649679e-02 -1.93456318e-02 0.00000000e+00 
1.01706637e-02 -1.69409402e-02 0.00000000e+00 
7.19343964e-03 -1.42731192e-02 0.00000000e+00 

        </DataArray>
      </Points>
      <Cells>
        <DataArray type="Int32" Name="connectivity" format="ascii">
0 1
1 2
2 3

        </DataArray>
        <DataArray type="Int32" Name="offsets" format="ascii">
2 4 6 
        </DataArray>
        <DataArray type="UInt8" Name="types" format="ascii">
3 3 3 
        </DataArray>
      </Cells>
      <PointData>
        <DataArray type="Float64" Name="rho">
          1.34700125e+00 1.38686151e+00 1.43409407e+00 1.49919272e+00 
        </DataArray>
        <DataArray type="Float64" Name="rhou">
          -3.45782895e-02 1.13609862e-01 4.54437127e-01 8.74244929e-01 
        </DataArray>
        <DataArray type="Float64" Name="rhov">
          9.19698287e-01 1.12242787e+00 1.06753128e+00 5.17899849e-01 
        </DataArray>
        <DataArray type="Float64" Name="E">
          3.12009325e+05 3.21797653e+05 3.33389190e+05 3.49250197e+05 
        </DataArray>
      </PointData>
    </Piece>
    <Piece NumberOfPoints="4" NumberOfCells="3">
      <Points>
        <DataArray type="Float64" NumberOfComponents="3" format="ascii">
          7.19343964e-03 -1.42731192e-02 0.00000000e+00 
4.53082798e-03 -1.12927537e-02 0.00000000e+00 
2.33371323e-03 -7.95678515e-03 0.00000000e+00 
8.10639584e-04 -4.26717056e-03 0.00000000e+00 

        </DataArray>
      </Points>
      <Cells>
        <DataArray type="Int32" Name="connectivity" format="ascii">
0 1
1 2
2 3

        </DataArray>
        <DataArray type="Int32" Name="offsets" format="ascii">
2 4 6 
        </DataArray>
        <DataArray type="UInt8" Name="types" format="ascii">
3 3 3 
        </DataArray>
      </Cells>
      <PointData>
        <DataArray type="Float64" Name="rho">
          1.49971190e+00 1.57414226e+00 1.66323836e+00 1.73195652e+00 
        </DataArray>
        <DataArray type="Float64" Name="rhou">
          7.99289591e-01 9.28980785e-01 2.57726562e-01 -1.27550858e+00 
        </DataArray>
        <DataArray type="Float64" Name="rhov">
          6.16588731e-01 -5.11411168e-01 -1.72853993e+00 -1.81620365e+00 
        </DataArray>
        <DataArray type="Float64" Name="E">
          3.49377415e+05 3.67547947e+05 3.89176647e+05 4.05881221e+05 
        </DataArray>
      </PointData>
    </Piece>
    <Piece NumberOfPoints="4" NumberOfCells="3">
      <Points>
        <DataArray type="Float64" NumberOfComponents="3" format="ascii">
          8.10639584e-04 -4.26717056e-03 0.00000000e+00 
1.91366620e-04 -3.27450951e-04 0.00000000e+00 
6.40850572e-04 3.63462302e-03 0.00000000e+00 
2.03182548e-03 7.37539819e-03 0.00000000e+00 

        </DataArray>
      </Points>
      <Cells>
        <DataArray type="Int32" Name="connectivity" format="ascii">
0 1
1 2
2 3

        </DataArray>
        <DataArray type="Int32" Name="offsets" format="ascii">
2 4 6 
        </DataArray>
        <DataArray type="UInt8" Name="types" format="ascii">
3 3 3 
        </DataArray>
      </Cells>
      <PointData>
        <DataArray type="Float64" Name="rho">
          1.73038062e+00 1.75533299e+00 1.70491604e+00 1.61246343e+00 
        </DataArray>
        <DataArray type="Float64" Name="rhou">
          -1.14995557e+00 -1.87837629e+00 -8.34452480e-01 7.51940810e-01 
        </DataArray>
        <DataArray type="Float64" Name="rhov">
          -1.97435821e+00 3.64709157e-01 1.88214069e+00 1.51414726e+00 
        </DataArray>
        <DataArray type="Float64" Name="E">
          4.05499634e+05 4.11473832e+05 3.99148846e+05 3.76568486e+05 
        </DataArray>
      </PointData>
    </Piece>
    <Piece NumberOfPoints="4" NumberOfCells="3">
      <Points>
        <DataArray type="Float64" NumberOfComponents="3" format="ascii">
          2.03182548e-03 7.37539819e-03 0.00000000e+00 
4.13410179e-03 1.07714310e-02 0.00000000e+00 
6.73249783e-03 1.38076087e-02 0.00000000e+00 
9.66598373e-03 1.65232457e-02 0.00000000e+00 

        </DataArray>
      </Points>
      <Cells>
        <DataArray type="Int32" Name="connectivity" format="ascii">
0 1
1 2
2 3

        </DataArray>
        <DataArray type="Int32" Name="offsets" format="ascii">
2 4 6 
        </DataArray>
        <DataArray type="UInt8" Name="types" format="ascii">
3 3 3 
        </DataArray>
      </Cells>
      <PointData>
        <DataArray type="Float64" Name="rho">
          1.61282603e+00 1.50570388e+00 1.41647031e+00 1.34951967e+00 
        </DataArray>
        <DataArray type="Float64" Name="rhou">
          7.24298142e-01 1.15453004e+00 8.39278066e-01 3.74758955e-01 
        </DataArray>
        <DataArray type="Float64" Name="rhov">
          1.74890128e+00 6.18458556e-02 -1.07481173e+00 -1.39911303e+00 
        </DataArray>
        <DataArray type="Float64" Name="E">
          3.76659712e+05 3.50654027e+05 3.28954213e+05 3.12592170e+05 
        </DataArray>
      </PointData>
    </Piece>
    <Piece NumberOfPoints="4" NumberOfCells="3">
      <Points>
        <DataArray type="Float64" NumberOfComponents="3" format="ascii">
          9.66598373e-03 1.65232457e-02 0.00000000e+00 
1.28298048e-02 1.89677756e-02 0.00000000e+00 
1.61561389e-02 2.11867876e-02 0.00000000e+00 
1.96009967e-02 2.32173651e-02 0.00000000e+00 

        </DataArray>
      </Points>
      <Cells>
        <DataArray type="Int32" Name="connectivity" format="ascii">
0 1
1 2
2 3

        </DataArray>
        <DataArray type="Int32" Name="offsets" format="ascii">
2 4 6 
        </DataArray>
        <DataArray type="UInt8" Name="types" format="ascii">
3 3 3 
        </DataArray>
      </Cells>
      <PointData>
        <DataArray type="Float64" Name="rho">
          1.34931432e+00 1.29685130e+00 1.25788210e+00 1.22357835e+00 
        </DataArray>
        <DataArray type="Float64" Name="rhou">
          3.84335695e-01 -1.70449465e-02 -1.98396413e-01 -2.18846759e-01 
        </DataArray>
        <DataArray type="Float64" Name="rhov">
          -1.42371194e+00 -1.31887520e+00 -9.88920783e-01 -6.63747078e-01 
        </DataArray>
        <DataArray type="Float64" Name="E">
          3.12539994e+05 2.99719467e+05 2.90146904e+05 2.81746497e+05 
        </DataArray>
      </PointData>
    </Piece>
    <Piece NumberOfPoints="4" NumberOfCells="3">
      <Points>
        <DataArray type="Float64" NumberOfComponents="3" format="ascii">
          1.96009967e-02 2.32173651e-02 0.00000000e+00 
2.31348258e-02 2.50891000e-02 0.00000000e+00 
2.67372411e-02 2.68253610e-02 0.00000000e+00 
3.03938854e-02 2.84444261e-02 0.00000000e+00 

        </DataArray>
      </Points>
      <Cells>
        <DataArray type="Int32" Name="connectivity" format="ascii">
0 1
1 2
2 3

        </DataArray>
        <DataArray type="Int32" Name="offsets" format="ascii">
2 4 6 
        </DataArray>
        <DataArray type="UInt8" Name="types" format="ascii">
3 3 3 
        </DataArray>
      </Cells>
      <PointData>
        <DataArray type="Float64" Name="rho">
          1.22364206e+00 1.19452637e+00 1.16848764e+00 1.14490751e+00 
        </DataArray>
        <DataArray type="Float64" Name="rhou">
          -2.31960533e-01 -2.18431280e-01 -1.73212180e-01 -1.30994440e-01 
        </DataArray>
        <DataArray type="Float64" Name="rhov">
          -6.81972184e-01 -4.31151558e-01 -2.44751063e-01 -1.32136937e-01 
        </DataArray>
        <DataArray type="Float64" Name="E">
          2.81761405e+05 2.74650963e+05 2.68314901e+05 2.62594161e+05 
        </DataArray>
      </PointData>
    </Piece>
    <Piece NumberOfPoints="4" NumberOfCells="3">
      <Points>
        <DataArray type="Float64" NumberOfComponents="3" format="ascii">
          3.03938854e-02 2.84444261e-02 0.00000000e+00 
3.40943485e-02 2.99607720e-02 0.00000000e+00 
3.78307216e-02 3.13864015e-02 0.00000000e+00 
4.15969416e-02 3.27312648e-02 0.00000000e+00 

        </DataArray>
      </Points>
      <Cells>
        <DataArray type="Int32" Name="connectivity" format="ascii">
0 1
1 2
2 3

        </DataArray>
        <DataArray type="Int32" Name="offsets" format="ascii">
2 4 6 
        </DataArray>
        <DataArray type="UInt8" Name="types" format="ascii">
3 3 3 
        </DataArray>
      </Cells>
      <PointData>
        <DataArray type="Float64" Name="rho">
          1.14490578e+00 1.12357091e+00 1.10419305e+00 1.08652908e+00 
        </DataArray>
        <DataArray type="Float64" Name="rhou">
          -1.29204385e-01 -8.90920888e-02 -5.63300761e-02 -3.33822150e-02 
        </DataArray>
        <DataArray type="Float64" Name="rhov">
          -1.30686614e-01 -5.46087593e-02 -7.56923213e-03 1.78009287e-02 
        </DataArray>
        <DataArray type="Float64" Name="E">
          2.62594009e+05 2.57436643e+05 2.52763655e+05 2.48511785e+05 
        </DataArray>
      </PointData>
    </Piece>
    <Piece NumberOfPoints="4" NumberOfCells="3">
      <Points>
        <DataArray type="Float64" NumberOfComponents="3" format="ascii">
          4.15969416e-02 3.27312648e-02 0.00000000e+00 
4.53883260e-02 3.40034962e-02 0.00000000e+00 
4.92011942e-02 3.52098532e-02 0.00000000e+00 
5.30325845e-02 3.63560505e-02 0.00000000e+00 

        </DataArray>
      </Points>
      <Cells>
        <DataArray type="Int32" Name="connectivity" format="ascii">
0 1
1 2
2 3

        </DataArray>
        <DataArray type="Int32" Name="offsets" format="ascii">
2 4 6 
        </DataArray>
        <DataArray type="UInt8" Name="types" format="ascii">
3 3 3 
        </DataArray>
      </Cells>
      <PointData>
        <DataArray type="Float64" Name="rho">
          1.08652964e+00 1.07039044e+00 1.05558767e+00 1.04196260e+00 
        </DataArray>
        <DataArray type="Float64" Name="rhou">
          -3.22458411e-02 -1.28275298e-02 1.59776454e-03 1.09709019e-02 
        </DataArray>
        <DataArray type="Float64" Name="rhov">
          1.77056096e-02 3.13807543e-02 3.80333788e-02 3.91881415e-02 
        </DataArray>
        <DataArray type="Float64" Name="E">
          2.48511995e+05 2.44635681e+05 2.41085888e+05 2.37822666e+05 
        </DataArray>
      </PointData>
    </Piece>
    <Piece NumberOfPoints="4" NumberOfCells="3">
      <Points>
        <DataArray type="Float64" NumberOfComponents="3" format="ascii">
          5.30325845e-02 3.63560505e-02 0.00000000e+00 
5.68800643e-02 3.74470428e-02 0.00000000e+00 
6.07415959e-02 3.84872220e-02 0.00000000e+00 
6.46155030e-02 3.94803248e-02 0.00000000e+00 

        </DataArray>
      </Points>
      <Cells>
        <DataArray type="Int32" Name="connectivity" format="ascii">
0 1
1 2
2 3

        </DataArray>
        <DataArray type="Int32" Name="offsets" format="ascii">
2 4 6 
        </DataArray>
        <DataArray type="UInt8" Name="types" format="ascii">
3 3 3 
        </DataArray>
      </Cells>
      <PointData>
        <DataArray type="Float64" Name="rho">
          1.04196329e+00 1.02942770e+00 1.01784934e+00 1.00708757e+00 
        </DataArray>
        <DataArray type="Float64" Name="rhou">
          1.12865168e-02 1.82746929e-02 2.38093319e-02 2.76377181e-02 
        </DataArray>
        <DataArray type="Float64" Name="rhov">
          3.88611122e-02 3.71959902e-02 3.51412068e-02 3.19150240e-02 
        </DataArray>
        <DataArray type="Float64" Name="E">
          2.37822823e+05 2.34824752e+05 2.32058437e+05 2.29489759e+05 
        </DataArray>
      </PointData>
    </Piece>
    <Piece NumberOfPoints="4" NumberOfCells="3">
      <Points>
        <DataArray type="Float64" NumberOfComponents="3" format="ascii">
          6.46155030e-02 3.94803248e-02 0.00000000e+00 
6.85004294e-02 4.04294394e-02 0.00000000e+00 
7.23951608e-02 4.13374715e-02 0.00000000e+00 
7.62986317e-02 4.22072113e-02 0.00000000e+00 

        </DataArray>
      </Points>
      <Cells>
        <DataArray type="Int32" Name="connectivity" format="ascii">
0 1
1 2
2 3

        </DataArray>
        <DataArray type="Int32" Name="offsets" format="ascii">
2 4 6 
        </DataArray>
        <DataArray type="UInt8" Name="types" format="ascii">
3 3 3 
        </DataArray>
      </Cells>
      <PointData>
        <DataArray type="Float64" Name="rho">
          1.00708828e+00 9.97101653e-01 9.87800732e-01 9.79130006e-01 
        </DataArray>
        <DataArray type="Float64" Name="rhou">
          2.74572208e-02 2.94004862e-02 3.04979805e-02 3.05909112e-02 
        </DataArray>
        <DataArray type="Float64" Name="rhov">
          3.16166249e-02 2.77122043e-02 2.43360185e-02 2.10282413e-02 
        </DataArray>
        <DataArray type="Float64" Name="E">
          2.29489905e+05 2.27108843e+05 2.24893102e+05 2.22828770e+05 
        </DataArray>
      </PointData>
    </Piece>
    <Piece NumberOfPoints="4" NumberOfCells="3">
      <Points>
        <DataArray type="Float64" NumberOfComponents="3" format="ascii">
          7.62986317e-02 4.22072113e-02 0.00000000e+00 
8.02098960e-02 4.30411920e-02 0.00000000e+00 
8.41281936e-02 4.38414887e-02 0.00000000e+00 
8.80528912e-02 4.46097627e-02 0.00000000e+00 

        </DataArray>
      </Points>
      <Cells>
        <DataArray type="Int32" Name="connectivity" format="ascii">
0 1
1 2
2 3

        </DataArray>
        <DataArray type="Int32" Name="offsets" format="ascii">
2 4 6 
        </DataArray>
        <DataArray type="UInt8" Name="types" format="ascii">
3 3 3 
        </DataArray>
      </Cells>
      <PointData>
        <DataArray type="Float64" Name="rho">
          9.79129062e-01 9.71042269e-01 9.63444633e-01 9.56290384e-01 
        </DataArray>
        <DataArray type="Float64" Name="rhou">
          3.04437129e-02 3.04692875e-02 3.01958705e-02 2.91339245e-02 
        </DataArray>
        <DataArray type="Float64" Name="rhov">
          2.08650324e-02 1.83046080e-02 1.57952970e-02 1.31152941e-02 
        </DataArray>
        <DataArray type="Float64" Name="E">
          2.22828534e+05 2.20904715e+05 2.19098536e+05 2.17398907e+05 
        </DataArray>
      </PointData>
    </Piece>
    <Piece NumberOfPoints="4" NumberOfCells="3">
      <Points>
        <DataArray type="Float64" NumberOfComponents="3" format="ascii">
          8.80528912e-02 4.46097627e-02 0.00000000e+00 
9.19835642e-02 4.53475714e-02 0.00000000e+00 
9.59195644e-02 4.60564308e-02 0.00000000e+00 
9.98597518e-02 4.67394181e-02 0.00000000e+00 

        </DataArray>
      </Points>
      <Cells>
        <DataArray type="Int32" Name="connectivity" format="ascii">
0 1
1 2
2 3

        </DataArray>
        <DataArray type="Int32" Name="offsets" format="ascii">
2 4 6 
        </DataArray>
        <DataArray type="UInt8" Name="types" format="ascii">
3 3 3 
        </DataArray>
      </Cells>
      <PointData>
        <DataArray type="Float64" Name="rho">
          9.56290891e-01 9.49569997e-01 9.43269820e-01 9.37290685e-01 
        </DataArray>
        <DataArray type="Float64" Name="rhou">
          2.89415662e-02 2.75206040e-02 2.40556376e-02 2.85656578e-02 
        </DataArray>
        <DataArray type="Float64" Name="rhov">
          1.32781388e-02 1.07032899e-02 9.12063627e-03 8.62081836e-03 
        </DataArray>
        <DataArray type="Float64" Name="E">
          2.17399025e+05 2.15803563e+05 2.14308408e+05 2.12890473e+05 
        </DataArray>
      </PointData>
    </Piece>
    <Piece NumberOfPoints="4" NumberOfCells="3">
      <Points>
        <DataArray type="Float64" NumberOfComponents="3" format="ascii">
          9.98597518e-02 4.67394181e-02 0.00000000e+00 
1.10118888e-01 4.83862534e-02 0.00000000e+00 
1.20400399e-01 4.98730615e-02 0.00000000e+00 
1.30701363e-01 5.12186773e-02 0.00000000e+00 

        </DataArray>
      </Points>
      <Cells>
        <DataArray type="Int32" Name="connectivity" format="ascii">
0 1
1 2
2 3

        </DataArray>
        <DataArray type="Int32" Name="offsets" format="ascii">
2 4 6 
        </DataArray>
        <DataArray type="UInt8" Name="types" format="ascii">
3 3 3 
        </DataArray>
      </Cells>
      <PointData>
        <DataArray type="Float64" Name="rho">
          9.37218105e-01 9.23274182e-01 9.11247630e-01 9.00911823e-01 
        </DataArray>
        <DataArray type="Float64" Name="rhou">
          2.62984521e-02 1.81365017e-02 1.60107214e-02 1.25516232e-02 
        </DataArray>
        <DataArray type="Float64" Name="rhov">
          7.38785036e-03 4.16315580e-03 3.65529471e-03 2.98508306e-03 
        </DataArray>
        <DataArray type="Float64" Name="E">
          2.12874078e+05 2.09571215e+05 2.06725926e+05 2.04283200e+05 
        </DataArray>
      </PointData>
    </Piece>
    <Piece NumberOfPoints="4" NumberOfCells="3">
      <Points>
        <DataArray type="Float64" NumberOfComponents="3" format="ascii">
          1.30701363e-01 5.12186773e-02 0.00000000e+00 
1.41019106e-01 5.24347536e-02 0.00000000e+00 
1.51350453e-01 5.35292812e-02 0.00000000e+00 
1.61692888e-01 5.45137413e-02 0.00000000e+00 

        </DataArray>
      </Points>
      <Cells>
        <DataArray type="Int32" Name="connectivity" format="ascii">
0 1
1 2
2 3

        </DataArray>
        <DataArray type="Int32" Name="offsets" format="ascii">
2 4 6 
        </DataArray>
        <DataArray type="UInt8" Name="types" format="ascii">
3 3 3 
        </DataArray>
      </Cells>
      <PointData>
        <DataArray type="Float64" Name="rho">
          9.00908335e-01 8.91836591e-01 8.84004166e-01 8.77302572e-01 
        </DataArray>
        <DataArray type="Float64" Name="rhou">
          1.39307807e-02 1.20370635e-02 9.96588931e-03 8.70258217e-03 
        </DataArray>
        <DataArray type="Float64" Name="rhov">
          3.48340401e-03 2.55885017e-03 1.78283487e-03 1.60698558e-03 
        </DataArray>
        <DataArray type="Float64" Name="E">
          2.04282362e+05 2.02141675e+05 2.00295761e+05 1.98717957e+05 
        </DataArray>
      </PointData>
    </Piece>
    <Piece NumberOfPoints="4" NumberOfCells="3">
      <Points>
        <DataArray type="Float64" NumberOfComponents="3" format="ascii">
          1.61692888e-01 5.45137413e-02 0.00000000e+00 
1.72044471e-01 5.53969070e-02 0.00000000e+00 
1.82403773e-01 5.61845005e-02 0.00000000e+00 
1.92769483e-01 5.68825118e-02 0.00000000e+00 

        </DataArray>
      </Points>
      <Cells>
        <DataArray type="Int32" Name="connectivity" format="ascii">
0 1
1 2
2 3

        </DataArray>
        <DataArray type="Int32" Name="offsets" format="ascii">
2 4 6 
        </DataArray>
        <DataArray type="UInt8" Name="types" format="ascii">
3 3 3 
        </DataArray>
      </Cells>
      <PointData>
        <DataArray type="Float64" Name="rho">
          8.77300170e-01 8.71534302e-01 8.66613398e-01 8.62484631e-01 
        </DataArray>
        <DataArray type="Float64" Name="rhou">
          8.73923754e-03 7.60991326e-03 6.57729274e-03 5.67640355e-03 
        </DataArray>
        <DataArray type="Float64" Name="rhov">
          1.65850734e-03 1.29397180e-03 9.15806398e-04 6.86998512e-04 
        </DataArray>
        <DataArray type="Float64" Name="E">
          1.98717419e+05 1.97361742e+05 1.96206618e+05 1.95239047e+05 
        </DataArray>
      </PointData>
    </Piece>
    <Piece NumberOfPoints="4" NumberOfCells="3">
      <Points>
        <DataArray type="Float64" NumberOfComponents="3" format="ascii">
          1.92769483e-01 5.68825118e-02 0.00000000e+00 
2.03140482e-01 5.74972220e-02 0.00000000e+00 
2.13515818e-01 5.80338500e-02 0.00000000e+00 
2.23894730e-01 5.84962890e-02 0.00000000e+00 

        </DataArray>
      </Points>
      <Cells>
        <DataArray type="Int32" Name="connectivity" format="ascii">
0 1
1 2
2 3

        </DataArray>
        <DataArray type="Int32" Name="offsets" format="ascii">
2 4 6 
        </DataArray>
        <DataArray type="UInt8" Name="types" format="ascii">
3 3 3 
        </DataArray>
      </Cells>
      <PointData>
        <DataArray type="Float64" Name="rho">
          8.62483943e-01 8.59067442e-01 8.56279095e-01 8.54060472e-01 
        </DataArray>
        <DataArray type="Float64" Name="rhou">
          5.71302193e-03 4.99284141e-03 4.43753866e-03 3.97816770e-03 
        </DataArray>
        <DataArray type="Float64" Name="rhov">
          7.28293878e-04 6.38112618e-04 5.22119825e-04 3.98963927e-04 
        </DataArray>
        <DataArray type="Float64" Name="E">
          1.95238889e+05 1.94439726e+05 1.93789177e+05 1.93273336e+05 
        </DataArray>
      </PointData>
    </Piece>
    <Piece NumberOfPoints="4" NumberOfCells="3">
      <Points>
        <DataArray type="Float64" NumberOfComponents="3" format="ascii">
          2.23894730e-01 5.84962890e-02 0.00000000e+00 
2.34276548e-01 5.88882305e-02 0.00000000e+00 
2.44660646e-01 5.92139624e-02 0.00000000e+00 
2.55046517e-01 5.94772622e-02 0.00000000e+00 

        </DataArray>
      </Points>
      <Cells>
        <DataArray type="Int32" Name="connectivity" format="ascii">
0 1
1 2
2 3

        </DataArray>
        <DataArray type="Int32" Name="offsets" format="ascii">
2 4 6 
        </DataArray>
        <DataArray type="UInt8" Name="types" format="ascii">
3 3 3 
        </DataArray>
      </Cells>
      <PointData>
        <DataArray type="Float64" Name="rho">
          8.54061042e-01 8.52369740e-01 8.51161147e-01 8.50379813e-01 
        </DataArray>
        <DataArray type="Float64" Name="rhou">
          3.98577958e-03 3.46563226e-03 3.08836157e-03 2.85959109e-03 
        </DataArray>
        <DataArray type="Float64" Name="rhov">
          4.13314882e-04 3.34891585e-04 3.17051064e-04 3.15027972e-04 
        </DataArray>
        <DataArray type="Float64" Name="E">
          1.93273466e+05 1.92882101e+05 1.92604567e+05 1.92427793e+05 
        </DataArray>
      </PointData>
    </Piece>
    <Piece NumberOfPoints="4" NumberOfCells="3">
      <Points>
        <DataArray type="Float64" NumberOfComponents="3" format="ascii">
          2.55046517e-01 5.94772622e-02 0.00000000e+00 
2.65433758e-01 5.96804135e-02 0.00000000e+00 
2.75821954e-01 5.98256700e-02 0.00000000e+00 
2.86210775e-01 5.99167012e-02 0.00000000e+00 

        </DataArray>
      </Points>
      <Cells>
        <DataArray type="Int32" Name="connectivity" format="ascii">
0 1
1 2
2 3

        </DataArray>
        <DataArray type="Int32" Name="offsets" format="ascii">
2 4 6 
        </DataArray>
        <DataArray type="UInt8" Name="types" format="ascii">
3 3 3 
        </DataArray>
      </Cells>
      <PointData>
        <DataArray type="Float64" Name="rho">
          8.50379825e-01 8.49977402e-01 8.49929116e-01 8.50214511e-01 
        </DataArray>
        <DataArray type="Float64" Name="rhou">
          2.85383731e-03 2.56786949e-03 2.27483920e-03 2.01219206e-03 
        </DataArray>
        <DataArray type="Float64" Name="rhov">
          3.26296566e-04 2.30583152e-04 1.71910257e-04 2.05001903e-04 
        </DataArray>
        <DataArray type="Float64" Name="E">
          1.92427799e+05 1.92340413e+05 1.92336474e+05 1.92410948e+05 
        </DataArray>
      </PointData>
    </Piece>
    <Piece NumberOfPoints="4" NumberOfCells="3">
      <Points>
        <DataArray type="Float64" NumberOfComponents="3" format="ascii">
          2.86210775e-01 5.99167012e-02 0.00000000e+00 
2.96599895e-01 5.99572174e-02 0.00000000e+00 
3.06989133e-01 5.99487796e-02 0.00000000e+00 
3.17378193e-01 5.98919280e-02 0.00000000e+00 

        </DataArray>
      </Points>
      <Cells>
        <DataArray type="Int32" Name="connectivity" format="ascii">
0 1
1 2
2 3

        </DataArray>
        <DataArray type="Int32" Name="offsets" format="ascii">
2 4 6 
        </DataArray>
        <DataArray type="UInt8" Name="types" format="ascii">
3 3 3 
        </DataArray>
      </Cells>
      <PointData>
        <DataArray type="Float64" Name="rho">
          8.50213493e-01 8.50783507e-01 8.51591399e-01 8.52622092e-01 
        </DataArray>
        <DataArray type="Float64" Name="rhou">
          2.03093621e-03 1.91572636e-03 1.78964110e-03 1.60848486e-03 
        </DataArray>
        <DataArray type="Float64" Name="rhov">
          2.21306673e-04 2.47844409e-04 1.93267886e-04 1.18731507e-04 
        </DataArray>
        <DataArray type="Float64" Name="E">
          1.92410717e+05 1.92552085e+05 1.92749533e+05 1.92999437e+05 
        </DataArray>
      </PointData>
    </Piece>
    <Piece NumberOfPoints="4" NumberOfCells="3">
      <Points>
        <DataArray type="Float64" NumberOfComponents="3" format="ascii">
          3.17378193e-01 5.98919280e-02 0.00000000e+00 
3.27766895e-01 5.97884916e-02 0.00000000e+00 
3.38155061e-01 5.96415885e-02 0.00000000e+00 
3.48542601e-01 5.94538599e-02 0.00000000e+00 

        </DataArray>
      </Points>
      <Cells>
        <DataArray type="Int32" Name="connectivity" format="ascii">
0 1
1 2
2 3

        </DataArray>
        <DataArray type="Int32" Name="offsets" format="ascii">
2 4 6 
        </DataArray>
        <DataArray type="UInt8" Name="types" format="ascii">
3 3 3 
        </DataArray>
      </Cells>
      <PointData>
        <DataArray type="Float64" Name="rho">
          8.52622437e-01 8.53863213e-01 8.55293915e-01 8.56881803e-01 
        </DataArray>
        <DataArray type="Float64" Name="rhou">
          1.63779409e-03 1.44229542e-03 1.32568074e-03 1.27904528e-03 
        </DataArray>
        <DataArray type="Float64" Name="rhov">
          1.26368071e-04 1.14601067e-04 1.39708141e-04 1.59854783e-04 
        </DataArray>
        <DataArray type="Float64" Name="E">
          1.92999515e+05 1.93298764e+05 1.93642554e+05 1.94023245e+05 
        </DataArray>
      </PointData>
    </Piece>
    <Piece NumberOfPoints="4" NumberOfCells="3">
      <Points>
        <DataArray type="Float64" NumberOfComponents="3" format="ascii">
          3.48542601e-01 5.94538599e-02 0.00000000e+00 
3.58929336e-01 5.92265576e-02 0.00000000e+00 
3.69315147e-01 5.89610897e-02 0.00000000e+00 
3.79699975e-01 5.86590059e-02 0.00000000e+00 

        </DataArray>
      </Points>
      <Cells>
        <DataArray type="Int32" Name="connectivity" format="ascii">
0 1
1 2
2 3

        </DataArray>
        <DataArray type="Int32" Name="offsets" format="ascii">
2 4 6 
        </DataArray>
        <DataArray type="UInt8" Name="types" format="ascii">
3 3 3 
        </DataArray>
      </Cells>
      <PointData>
        <DataArray type="Float64" Name="rho">
          8.56882048e-01 8.58601745e-01 8.60443621e-01 8.62387902e-01 
        </DataArray>
        <DataArray type="Float64" Name="rhou">
          1.29131519e-03 1.16751195e-03 1.07377294e-03 1.02549440e-03 
        </DataArray>
        <DataArray type="Float64" Name="rhov">
          1.56789960e-04 1.20515646e-04 1.12752558e-04 1.10864258e-04 
        </DataArray>
        <DataArray type="Float64" Name="E">
          1.94023302e+05 1.94434965e+05 1.94875272e+05 1.95339600e+05 
        </DataArray>
      </PointData>
    </Piece>
    <Piece NumberOfPoints="4" NumberOfCells="3">
      <Points>
        <DataArray type="Float64" NumberOfComponents="3" format="ascii">
          3.79699975e-01 5.86590059e-02 0.00000000e+00 
3.90083700e-01 5.83211333e-02 0.00000000e+00 
4.00466233e-01 5.79482466e-02 0.00000000e+00 
4.10847515e-01 5.75418957e-02 0.00000000e+00 

        </DataArray>
      </Points>
      <Cells>
        <DataArray type="Int32" Name="connectivity" format="ascii">
0 1
1 2
2 3

        </DataArray>
        <DataArray type="Int32" Name="offsets" format="ascii">
2 4 6 
        </DataArray>
        <DataArray type="UInt8" Name="types" format="ascii">
3 3 3 
        </DataArray>
      </Cells>
      <PointData>
        <DataArray type="Float64" Name="rho">
          8.62387913e-01 8.64417827e-01 8.66523534e-01 8.68698557e-01 
        </DataArray>
        <DataArray type="Float64" Name="rhou">
          1.01782250e-03 9.53474372e-04 8.74727870e-04 7.98730810e-04 
        </DataArray>
        <DataArray type="Float64" Name="rhov">
          1.13298946e-04 8.28188211e-05 5.98187472e-05 6.49144686e-05 
        </DataArray>
        <DataArray type="Float64" Name="E">
          1.95339604e+05 1.95824038e+05 1.96326251e+05 1.96844671e+05 
        </DataArray>
      </PointData>
    </Piece>
    <Piece NumberOfPoints="4" NumberOfCells="3">
      <Points>
        <DataArray type="Float64" NumberOfComponents="3" format="ascii">
          4.10847515e-01 5.75418957e-02 0.00000000e+00 
4.21227485e-01 5.71038015e-02 0.00000000e+00 
4.31606144e-01 5.66351078e-02 0.00000000e+00 
4.41983402e-01 5.61364293e-02 0.00000000e+00 

        </DataArray>
      </Points>
      <Cells>
        <DataArray type="Int32" Name="connectivity" format="ascii">
0 1
1 2
2 3

        </DataArray>
        <DataArray type="Int32" Name="offsets" format="ascii">
2 4 6 
        </DataArray>
        <DataArray type="UInt8" Name="types" format="ascii">
3 3 3 
        </DataArray>
      </Cells>
      <PointData>
        <DataArray type="Float64" Name="rho">
          8.68698358e-01 8.70927215e-01 8.73198357e-01 8.75502216e-01 
        </DataArray>
        <DataArray type="Float64" Name="rhou">
          8.15225807e-04 7.63443891e-04 7.24169574e-04 6.86814884e-04 
        </DataArray>
        <DataArray type="Float64" Name="rhov">
          6.83351240e-05 6.82713497e-05 5.85378451e-05 3.74372367e-05 
        </DataArray>
        <DataArray type="Float64" Name="E">
          1.96844625e+05 1.97375638e+05 1.97916550e+05 1.98465126e+05 
        </DataArray>
      </PointData>
    </Piece>
    <Piece NumberOfPoints="4" NumberOfCells="3">
      <Points>
        <DataArray type="Float64" NumberOfComponents="3" format="ascii">
          4.41983402e-01 5.61364293e-02 0.00000000e+00 
4.52359200e-01 5.56085743e-02 0.00000000e+00 
4.62733537e-01 5.50529286e-02 0.00000000e+00 
4.73106444e-01 5.44707514e-02 0.00000000e+00 

        </DataArray>
      </Points>
      <Cells>
        <DataArray type="Int32" Name="connectivity" format="ascii">
0 1
1 2
2 3

        </DataArray>
        <DataArray type="Int32" Name="offsets" format="ascii">
2 4 6 
        </DataArray>
        <DataArray type="UInt8" Name="types" format="ascii">
3 3 3 
        </DataArray>
      </Cells>
      <PointData>
        <DataArray type="Float64" Name="rho">
          8.75502358e-01 8.77834583e-01 8.80188819e-01 8.82556691e-01 
        </DataArray>
        <DataArray type="Float64" Name="rhou">
          6.83839462e-04 6.27751842e-04 5.87528023e-04 5.63735782e-04 
        </DataArray>
        <DataArray type="Float64" Name="rhov">
          3.80849333e-05 3.05741451e-05 3.09501093e-05 3.10954629e-05 
        </DataArray>
        <DataArray type="Float64" Name="E">
          1.98465159e+05 1.99020347e+05 1.99580646e+05 2.00144101e+05 
        </DataArray>
      </PointData>
    </Piece>
    <Piece NumberOfPoints="4" NumberOfCells="3">
      <Points>
        <DataArray type="Float64" NumberOfComponents="3" format="ascii">
          4.73106444e-01 5.44707514e-02 0.00000000e+00 
4.83477861e-01 5.38627952e-02 0.00000000e+00 
4.93847787e-01 5.32294959e-02 0.00000000e+00 
5.04216135e-01 5.25716618e-02 0.00000000e+00 

        </DataArray>
      </Points>
      <Cells>
        <DataArray type="Int32" Name="connectivity" format="ascii">
0 1
1 2
2 3

        </DataArray>
        <DataArray type="Int32" Name="offsets" format="ascii">
2 4 6 
        </DataArray>
        <DataArray type="UInt8" Name="types" format="ascii">
3 3 3 
        </DataArray>
      </Cells>
      <PointData>
        <DataArray type="Float64" Name="rho">
          8.82556678e-01 8.84931430e-01 8.87307787e-01 8.89684718e-01 
        </DataArray>
        <DataArray type="Float64" Name="rhou">
          5.56177872e-04 5.34907532e-04 4.99526089e-04 4.57595560e-04 
        </DataArray>
        <DataArray type="Float64" Name="rhov">
          3.29036694e-05 2.15261685e-05 6.70067770e-06 4.07137557e-06 
        </DataArray>
        <DataArray type="Float64" Name="E">
          2.00144099e+05 2.00709133e+05 2.01274516e+05 2.01839976e+05 
        </DataArray>
      </PointData>
    </Piece>
    <Piece NumberOfPoints="4" NumberOfCells="3">
      <Points>
        <DataArray type="Float64" NumberOfComponents="3" format="ascii">
          5.04216135e-01 5.25716618e-02 0.00000000e+00 
5.14582992e-01 5.18903993e-02 0.00000000e+00 
5.24948359e-01 5.11864908e-02 0.00000000e+00 
5.35312176e-01 5.04603274e-02 0.00000000e+00 

        </DataArray>
      </Points>
      <Cells>
        <DataArray type="Int32" Name="connectivity" format="ascii">
0 1
1 2
2 3

        </DataArray>
        <DataArray type="Int32" Name="offsets" format="ascii">
2 4 6 
        </DataArray>
        <DataArray type="UInt8" Name="types" format="ascii">
3 3 3 
        </DataArray>
      </Cells>
      <PointData>
        <DataArray type="Float64" Name="rho">
          8.89684633e-01 8.92056828e-01 8.94419911e-01 8.96770490e-01 
        </DataArray>
        <DataArray type="Float64" Name="rhou">
          4.66114951e-04 4.39743994e-04 4.19767315e-04 4.00110711e-04 
        </DataArray>
        <DataArray type="Float64" Name="rhov">
          6.22564094e-06 5.86903463e-06 4.84850821e-07 -1.12966095e-05 
        </DataArray>
        <DataArray type="Float64" Name="E">
          2.01839957e+05 2.02404254e+05 2.02966370e+05 2.03525512e+05 
        </DataArray>
      </PointData>
    </Piece>
    <Piece NumberOfPoints="4" NumberOfCells="3">
      <Points>
        <DataArray type="Float64" NumberOfComponents="3" format="ascii">
          5.35312176e-01 5.04603274e-02 0.00000000e+00 
5.45674443e-01 4.97124642e-02 0.00000000e+00 
5.56035221e-01 4.89437394e-02 0.00000000e+00 
5.66394389e-01 4.81546782e-02 0.00000000e+00 

        </DataArray>
      </Points>
      <Cells>
        <DataArray type="Int32" Name="connectivity" format="ascii">
0 1
1 2
2 3

        </DataArray>
        <DataArray type="Int32" Name="offsets" format="ascii">
2 4 6 
        </DataArray>
        <DataArray type="UInt8" Name="types" format="ascii">
3 3 3 
        </DataArray>
      </Cells>
      <PointData>
        <DataArray type="Float64" Name="rho">
          8.96770534e-01 8.99108023e-01 9.01429586e-01 9.03732436e-01 
        </DataArray>
        <DataArray type="Float64" Name="rhou">
          3.95874515e-04 3.69224707e-04 3.50572589e-04 3.38508864e-04 
        </DataArray>
        <DataArray type="Float64" Name="rhov">
          -1.10127893e-05 -1.17213140e-05 -1.24309360e-05 -1.66351769e-05 
        </DataArray>
        <DataArray type="Float64" Name="E">
          2.03525523e+05 2.04081537e+05 2.04633761e+05 2.05181546e+05 
        </DataArray>
      </PointData>
    </Piece>
    <Piece NumberOfPoints="4" NumberOfCells="3">
      <Points>
        <DataArray type="Float64" NumberOfComponents="3" format="ascii">
          5.66394389e-01 4.81546782e-02 0.00000000e+00 
5.76752067e-01 4.73455116e-02 0.00000000e+00 
5.87108195e-01 4.65166979e-02 0.00000000e+00 
5.97462773e-01 4.56690118e-02 0.00000000e+00 

        </DataArray>
      </Points>
      <Cells>
        <DataArray type="Int32" Name="connectivity" format="ascii">
0 1
1 2
2 3

        </DataArray>
        <DataArray type="Int32" Name="offsets" format="ascii">
2 4 6 
        </DataArray>
        <DataArray type="UInt8" Name="types" format="ascii">
3 3 3 
        </DataArray>
      </Cells>
      <PointData>
        <DataArray type="Float64" Name="rho">
          9.03732465e-01 9.06014995e-01 9.08276954e-01 9.10517511e-01 
        </DataArray>
        <DataArray type="Float64" Name="rhou">
          3.37845420e-04 3.17243917e-04 2.95965193e-04 2.79670460e-04 
        </DataArray>
        <DataArray type="Float64" Name="rhov">
          -1.62987846e-05 -2.48666940e-05 -2.83669924e-05 -2.71436212e-05 
        </DataArray>
        <DataArray type="Float64" Name="E">
          2.05181553e+05 2.05724524e+05 2.06262610e+05 2.06795612e+05 
        </DataArray>
      </PointData>
    </Piece>
    <Piece NumberOfPoints="4" NumberOfCells="3">
      <Points>
        <DataArray type="Float64" NumberOfComponents="3" format="ascii">
          5.97462773e-01 4.56690118e-02 0.00000000e+00 
6.07815862e-01 4.48031016e-02 0.00000000e+00 
6.18167400e-01 4.39192392e-02 0.00000000e+00 
6.28517449e-01 4.30175588e-02 0.00000000e+00 

        </DataArray>
      </Points>
      <Cells>
        <DataArray type="Int32" Name="connectivity" format="ascii">
0 1
1 2
2 3

        </DataArray>
        <DataArray type="Int32" Name="offsets" format="ascii">
2 4 6 
        </DataArray>
        <DataArray type="UInt8" Name="types" format="ascii">
3 3 3 
        </DataArray>
      </Cells>
      <PointData>
        <DataArray type="Float64" Name="rho">
          9.10517448e-01 9.12734781e-01 9.14927147e-01 9.17094757e-01 
        </DataArray>
        <DataArray type="Float64" Name="rhou">
          2.77751227e-04 2.68823904e-04 2.56614500e-04 2.39153131e-04 
        </DataArray>
        <DataArray type="Float64" Name="rhov">
          -2.62245476e-05 -2.66366967e-05 -3.21796448e-05 -3.74781269e-05 
        </DataArray>
        <DataArray type="Float64" Name="E">
          2.06795598e+05 2.07323093e+05 2.07844680e+05 2.08360401e+05 
        </DataArray>
      </PointData>
    </Piece>
    <Piece NumberOfPoints="4" NumberOfCells="3">
      <Points>
        <DataArray type="Float64" NumberOfComponents="3" format="ascii">
          6.28517449e-01 4.30175588e-02 0.00000000e+00 
6.38865948e-01 4.20984775e-02 0.00000000e+00 
6.49212897e-01 4.11624312e-02 0.00000000e+00 
6.59558356e-01 4.02097441e-02 0.00000000e+00 

        </DataArray>
      </Points>
      <Cells>
        <DataArray type="Int32" Name="connectivity" format="ascii">
0 1
1 2
2 3

        </DataArray>
        <DataArray type="Int32" Name="offsets" format="ascii">
2 4 6 
        </DataArray>
        <DataArray type="UInt8" Name="types" format="ascii">
3 3 3 
        </DataArray>
      </Cells>
      <PointData>
        <DataArray type="Float64" Name="rho">
          9.17094749e-01 9.19237466e-01 9.21354495e-01 9.23445562e-01 
        </DataArray>
        <DataArray type="Float64" Name="rhou">
          2.40128028e-04 2.27136434e-04 2.15980307e-04 2.03977427e-04 
        </DataArray>
        <DataArray type="Float64" Name="rhov">
          -3.64686076e-05 -3.71021970e-05 -3.88902934e-05 -4.10539773e-05 
        </DataArray>
        <DataArray type="Float64" Name="E">
          2.08360399e+05 2.08870219e+05 2.09373954e+05 2.09871538e+05 
        </DataArray>
      </PointData>
    </Piece>
    <Piece NumberOfPoints="4" NumberOfCells="3">
      <Points>
        <DataArray type="Float64" NumberOfComponents="3" format="ascii">
          6.59558356e-01 4.02097441e-02 0.00000000e+00 
6.69902325e-01 3.92407738e-02 0.00000000e+00 
6.80244744e-01 3.82556282e-02 0.00000000e+00 
6.90585554e-01 3.72543521e-02 0.00000000e+00 

        </DataArray>
      </Points>
      <Cells>
        <DataArray type="Int32" Name="connectivity" format="ascii">
0 1
1 2
2 3

        </DataArray>
        <DataArray type="Int32" Name="offsets" format="ascii">
2 4 6 
        </DataArray>
        <DataArray type="UInt8" Name="types" format="ascii">
3 3 3 
        </DataArray>
      </Cells>
      <PointData>
        <DataArray type="Float64" Name="rho">
          9.23445545e-01 9.25510681e-01 9.27548781e-01 9.29560660e-01 
        </DataArray>
        <DataArray type="Float64" Name="rhou">
          2.00786242e-04 1.95553048e-04 1.86725493e-04 1.71888777e-04 
        </DataArray>
        <DataArray type="Float64" Name="rhov">
          -4.00261234e-05 -3.99329726e-05 -4.43239773e-05 -4.78994386e-05 
        </DataArray>
        <DataArray type="Float64" Name="E">
          2.09871534e+05 2.10362975e+05 2.10848020e+05 2.11326856e+05 
        </DataArray>
      </PointData>
    </Piece>
    <Piece NumberOfPoints="4" NumberOfCells="3">
      <Points>
        <DataArray type="Float64" NumberOfComponents="3" format="ascii">
          6.90585554e-01 3.72543521e-02 0.00000000e+00 
7.00924933e-01 3.62373814e-02 0.00000000e+00 
7.11262703e-01 3.52048986e-02 0.00000000e+00 
7.21598923e-01 3.41568366e-02 0.00000000e+00 

        </DataArray>
      </Points>
      <Cells>
        <DataArray type="Int32" Name="connectivity" format="ascii">
0 1
1 2
2 3

        </DataArray>
        <DataArray type="Int32" Name="offsets" format="ascii">
2 4 6 
        </DataArray>
        <DataArray type="UInt8" Name="types" format="ascii">
3 3 3 
        </DataArray>
      </Cells>
      <PointData>
        <DataArray type="Float64" Name="rho">
          9.29560617e-01 9.31546705e-01 9.33505823e-01 9.35438627e-01 
        </DataArray>
        <DataArray type="Float64" Name="rhou">
          1.70513792e-04 1.65224526e-04 1.59757989e-04 1.46501825e-04 
        </DataArray>
        <DataArray type="Float64" Name="rhov">
          -4.67896183e-05 -4.42101934e-05 -4.74616235e-05 -5.21223034e-05 
        </DataArray>
        <DataArray type="Float64" Name="E">
          2.11326846e+05 2.11799570e+05 2.12265915e+05 2.12726032e+05 
        </DataArray>
      </PointData>
    </Piece>
    <Piece NumberOfPoints="4" NumberOfCells="3">
      <Points>
        <DataArray type="Float64" NumberOfComponents="3" format="ascii">
          7.21598923e-01 3.41568366e-02 0.00000000e+00 
7.31933594e-01 3.30936089e-02 0.00000000e+00 
7.42266715e-01 3.20154354e-02 0.00000000e+00 
7.52598286e-01 3.09220124e-02 0.00000000e+00 

        </DataArray>
      </Points>
      <Cells>
        <DataArray type="Int32" Name="connectivity" format="ascii">
0 1
1 2
2 3

        </DataArray>
        <DataArray type="Int32" Name="offsets" format="ascii">
2 4 6 
        </DataArray>
        <DataArray type="UInt8" Name="types" format="ascii">
3 3 3 
        </DataArray>
      </Cells>
      <PointData>
        <DataArray type="Float64" Name="rho">
          9.35438606e-01 9.37346134e-01 9.39227051e-01 9.41081882e-01 
        </DataArray>
        <DataArray type="Float64" Name="rhou">
          1.43868147e-04 1.39478285e-04 1.36314764e-04 1.25727921e-04 
        </DataArray>
        <DataArray type="Float64" Name="rhov">
          -5.11598999e-05 -4.65895101e-05 -4.87737930e-05 -5.37902739e-05 
        </DataArray>
        <DataArray type="Float64" Name="E">
          2.12726027e+05 2.13180153e+05 2.13627986e+05 2.14069648e+05 
        </DataArray>
      </PointData>
    </Piece>
    <Piece NumberOfPoints="4" NumberOfCells="3">
      <Points>
        <DataArray type="Float64" NumberOfComponents="3" format="ascii">
          7.52598286e-01 3.09220124e-02 0.00000000e+00 
7.62928188e-01 2.98135038e-02 0.00000000e+00 
7.73256481e-01 2.86899786e-02 0.00000000e+00 
7.83583105e-01 2.75512449e-02 0.00000000e+00 

        </DataArray>
      </Points>
      <Cells>
        <DataArray type="Int32" Name="connectivity" format="ascii">
0 1
1 2
2 3

        </DataArray>
        <DataArray type="Int32" Name="offsets" format="ascii">
2 4 6 
        </DataArray>
        <DataArray type="UInt8" Name="types" format="ascii">
3 3 3 
        </DataArray>
      </Cells>
      <PointData>
        <DataArray type="Float64" Name="rho">
          9.41081877e-01 9.42911771e-01 9.44715925e-01 9.46495037e-01 
        </DataArray>
        <DataArray type="Float64" Name="rhou">
          1.23174536e-04 1.19170363e-04 1.15023310e-04 1.05389215e-04 
        </DataArray>
        <DataArray type="Float64" Name="rhov">
          -5.28813759e-05 -5.04801785e-05 -5.25775562e-05 -5.57056002e-05 
        </DataArray>
        <DataArray type="Float64" Name="E">
          2.14069647e+05 2.14505401e+05 2.14935064e+05 2.15358795e+05 
        </DataArray>
      </PointData>
    </Piece>
    <Piece NumberOfPoints="4" NumberOfCells="3">
      <Points>
        <DataArray type="Float64" NumberOfComponents="3" format="ascii">
          7.83583105e-01 2.75512449e-02 0.00000000e+00 
7.93908060e-01 2.63975188e-02 0.00000000e+00 
8.04231405e-01 2.52291560e-02 0.00000000e+00 
8.14553022e-01 2.40457114e-02 0.00000000e+00 

        </DataArray>
      </Points>
      <Cells>
        <DataArray type="Int32" Name="connectivity" format="ascii">
0 1
1 2
2 3

        </DataArray>
        <DataArray type="Int32" Name="offsets" format="ascii">
2 4 6 
        </DataArray>
        <DataArray type="UInt8" Name="types" format="ascii">
3 3 3 
        </DataArray>
      </Cells>
      <PointData>
        <DataArray type="Float64" Name="rho">
          9.46495043e-01 9.48249874e-01 9.49980341e-01 9.51685802e-01 
        </DataArray>
        <DataArray type="Float64" Name="rhou">
          1.07948256e-04 9.71127629e-05 9.58047828e-05 9.65012585e-05 
        </DataArray>
        <DataArray type="Float64" Name="rhov">
          -5.60583377e-05 -5.22860730e-05 -5.09409093e-05 -5.72717004e-05 
        </DataArray>
        <DataArray type="Float64" Name="E">
          2.15358796e+05 2.15776768e+05 2.16188961e+05 2.16595224e+05 
        </DataArray>
      </PointData>
    </Piece>
    <Piece NumberOfPoints="4" NumberOfCells="3">
      <Points>
        <DataArray type="Float64" NumberOfComponents="3" format="ascii">
          8.14553022e-01 2.40457114e-02 0.00000000e+00 
8.24872792e-01 2.28467938e-02 0.00000000e+00 
8.35190892e-01 2.16327831e-02 0.00000000e+00 
8.45507145e-01 2.04038676e-02 0.00000000e+00 

        </DataArray>
      </Points>
      <Cells>
        <DataArray type="Int32" Name="connectivity" format="ascii">
0 1
1 2
2 3

        </DataArray>
        <DataArray type="Int32" Name="offsets" format="ascii">
2 4 6 
        </DataArray>
        <DataArray type="UInt8" Name="types" format="ascii">
3 3 3 
        </DataArray>
      </Cells>
      <PointData>
        <DataArray type="Float64" Name="rho">
          9.51685845e-01 9.53367947e-01 9.55026974e-01 9.56663060e-01 
        </DataArray>
        <DataArray type="Float64" Name="rhou">
          9.06763297e-05 8.23057635e-05 7.51978111e-05 7.55897168e-05 
        </DataArray>
        <DataArray type="Float64" Name="rhov">
          -5.75344916e-05 -5.73608006e-05 -5.44831174e-05 -5.05546005e-05 
        </DataArray>
        <DataArray type="Float64" Name="E">
          2.16595234e+05 2.16995941e+05 2.17391146e+05 2.17780875e+05 
        </DataArray>
      </PointData>
    </Piece>
    <Piece NumberOfPoints="4" NumberOfCells="3">
      <Points>
        <DataArray type="Float64" NumberOfComponents="3" format="ascii">
          8.45507145e-01 2.04038676e-02 0.00000000e+00 
8.55821550e-01 1.91591792e-02 0.00000000e+00 
8.66134048e-01 1.78987328e-02 0.00000000e+00 
8.76444638e-01 1.66228991e-02 0.00000000e+00 

        </DataArray>
      </Points>
      <Cells>
        <DataArray type="Int32" Name="connectivity" format="ascii">
0 1
1 2
2 3

        </DataArray>
        <DataArray type="Int32" Name="offsets" format="ascii">
2 4 6 
        </DataArray>
        <DataArray type="UInt8" Name="types" format="ascii">
3 3 3 
        </DataArray>
      </Cells>
      <PointData>
        <DataArray type="Float64" Name="rho">
          9.56663171e-01 9.58274971e-01 9.59866310e-01 9.61433732e-01 
        </DataArray>
        <DataArray type="Float64" Name="rhou">
          9.66793560e-05 6.54631263e-05 6.38661573e-05 7.95876928e-05 
        </DataArray>
        <DataArray type="Float64" Name="rhov">
          -5.41618636e-05 -6.14603683e-05 -5.88524877e-05 -7.63524018e-05 
        </DataArray>
        <DataArray type="Float64" Name="E">
          2.17780900e+05 2.18164837e+05 2.18543840e+05 2.18917110e+05 
        </DataArray>
      </PointData>
    </Piece>
    <Piece NumberOfPoints="4" NumberOfCells="3">
      <Points>
        <DataArray type="Float64" NumberOfComponents="3" format="ascii">
          8.76444638e-01 1.66228991e-02 0.00000000e+00 
8.86753201e-01 1.53310820e-02 0.00000000e+00 
8.97059798e-01 1.40233757e-02 0.00000000e+00 
9.07364249e-01 1.26988320e-02 0.00000000e+00 

        </DataArray>
      </Points>
      <Cells>
        <DataArray type="Int32" Name="connectivity" format="ascii">
0 1
1 2
2 3

        </DataArray>
        <DataArray type="Int32" Name="offsets" format="ascii">
2 4 6 
        </DataArray>
        <DataArray type="UInt8" Name="types" format="ascii">
3 3 3 
        </DataArray>
      </Cells>
      <PointData>
        <DataArray type="Float64" Name="rho">
          9.61433286e-01 9.62983382e-01 9.64508663e-01 9.66027736e-01 
        </DataArray>
        <DataArray type="Float64" Name="rhou">
          -1.19065945e-05 7.98554027e-05 2.47342495e-05 -2.80550931e-05 
        </DataArray>
        <DataArray type="Float64" Name="rhov">
          -6.84462187e-05 -7.19338871e-05 -9.09296543e-05 7.09302479e-06 
        </DataArray>
        <DataArray type="Float64" Name="E">
          2.18917009e+05 2.19286037e+05 2.19649114e+05 2.20010479e+05 
        </DataArray>
      </PointData>
    </Piece>
    <Piece NumberOfPoints="4" NumberOfCells="3">
      <Points>
        <DataArray type="Float64" NumberOfComponents="3" format="ascii">
          9.07364249e-01 1.26988320e-02 0.00000000e+00 
9.17666554e-01 1.13577880e-02 0.00000000e+00 
9.27966774e-01 1.00004105e-02 0.00000000e+00 
9.38264549e-01 8.62528384e-03 0.00000000e+00 

        </DataArray>
      </Points>
      <Cells>
        <DataArray type="Int32" Name="connectivity" format="ascii">
0 1
1 2
2 3

        </DataArray>
        <DataArray type="Int32" Name="offsets" format="ascii">
2 4 6 
        </DataArray>
        <DataArray type="UInt8" Name="types" format="ascii">
3 3 3 
        </DataArray>
      </Cells>
      <PointData>
        <DataArray type="Float64" Name="rho">
          9.66032570e-01 9.67503196e-01 9.68997950e-01 9.70346763e-01 
        </DataArray>
        <DataArray type="Float64" Name="rhou">
          7.76957541e-04 -2.25171340e-04 3.21833032e-04 7.43840882e-04 
        </DataArray>
        <DataArray type="Float64" Name="rhov">
          -6.19825107e-05 -1.14995041e-04 -4.52106600e-05 -1.45454498e-03 
        </DataArray>
        <DataArray type="Float64" Name="E">
          2.20011579e+05 2.20361634e+05 2.20716959e+05 2.21038920e+05 
        </DataArray>
      </PointData>
    </Piece>
    <Piece NumberOfPoints="4" NumberOfCells="3">
      <Points>
        <DataArray type="Float64" NumberOfComponents="3" format="ascii">
          9.38264549e-01 8.62528384e-03 0.00000000e+00 
9.48560059e-01 7.23283459e-03 0.00000000e+00 
9.58853185e-01 5.82307298e-03 0.00000000e+00 
9.69143867e-01 4.39538015e-03 0.00000000e+00 

        </DataArray>
      </Points>
      <Cells>
        <DataArray type="Int32" Name="connectivity" format="ascii">
0 1
1 2
2 3

        </DataArray>
        <DataArray type="Int32" Name="offsets" format="ascii">
2 4 6 
        </DataArray>
        <DataArray type="UInt8" Name="types" format="ascii">
3 3 3 
        </DataArray>
      </Cells>
      <PointData>
        <DataArray type="Float64" Name="rho">
          9.70299562e-01 9.71966618e-01 9.73223150e-01 9.75916875e-01 
        </DataArray>
        <DataArray type="Float64" Name="rhou">
          -6.65535989e-03 2.10542468e-03 -3.15294021e-03 -1.88898137e-02 
        </DataArray>
        <DataArray type="Float64" Name="rhov">
          -1.08197614e-03 1.27954581e-04 -1.12598331e-03 1.87900343e-02 
        </DataArray>
        <DataArray type="Float64" Name="E">
          2.21028169e+05 2.21422655e+05 2.21723959e+05 2.22353368e+05 
        </DataArray>
      </PointData>
    </Piece>
    <Piece NumberOfPoints="4" NumberOfCells="3">
      <Points>
        <DataArray type="Float64" NumberOfComponents="3" format="ascii">
          9.69143867e-01 4.39538015e-03 0.00000000e+00 
9.79435980e-01 2.94816052e-03 0.00000000e+00 
9.89725590e-01 1.48259092e-03 0.00000000e+00 
1.00000000e+00 0.00000000e+00 0.00000000e+00 

        </DataArray>
      </Points>
      <Cells>
        <DataArray type="Int32" Name="connectivity" format="ascii">
0 1
1 2
2 3

        </DataArray>
        <DataArray type="Int32" Name="offsets" format="ascii">
2 4 6 
        </DataArray>
        <DataArray type="UInt8" Name="types" format="ascii">
3 3 3 
        </DataArray>
      </Cells>
      <PointData>
        <DataArray type="Float64" Name="rho">
          9.76209377e-01 9.75836378e-01 9.79650062e-01 9.69850249e-01 
        </DataArray>
        <DataArray type="Float64" Name="rhou">
          -1.47297552e-03 -9.51374363e-03 -3.73241693e-02 4.91887572e-01 
        </DataArray>
        <DataArray type="Float64" Name="rhov">
          2.11049945e-02 9.82348570e-04 5.20121053e-02 -1.36071804e-01 
        </DataArray>
        <DataArray type="Float64" Name="E">
          2.22419998e+05 2.22351927e+05 2.23239473e+05 2.21028315e+05 
        </DataArray>
      </PointData>
    </Piece>
    <Piece NumberOfPoints="4" NumberOfCells="3">
      <Points>
        <DataArray type="Float64" NumberOfComponents="3" format="ascii">
          9.69029665e-01 -4.41133138e-03 0.00000000e+00 
9.79355037e-01 -2.95961346e-03 0.00000000e+00 
9.89677846e-01 -1.48943183e-03 0.00000000e+00 
1.00000000e+00 0.00000000e+00 0.00000000e+00 

        </DataArray>
      </Points>
      <Cells>
        <DataArray type="Int32" Name="connectivity" format="ascii">
0 1
1 2
2 3

        </DataArray>
        <DataArray type="Int32" Name="offsets" format="ascii">
2 4 6 
        </DataArray>
        <DataArray type="UInt8" Name="types" format="ascii">
3 3 3 
        </DataArray>
      </Cells>
      <PointData>
        <DataArray type="Float64" Name="rho">
          9.75037982e-01 9.74737090e-01 9.78509343e-01 9.69972151e-01 
        </DataArray>
        <DataArray type="Float64" Name="rhou">
          -8.91056981e-04 -7.48439204e-03 -3.51674453e-02 4.52641915e-01 
        </DataArray>
        <DataArray type="Float64" Name="rhov">
          -2.31383478e-02 2.01689598e-03 -4.82587504e-02 1.41202474e-01 
        </DataArray>
        <DataArray type="Float64" Name="E">
          2.22165136e+05 2.22110325e+05 2.22984576e+05 2.21056695e+05 
        </DataArray>
      </PointData>
    </Piece>
    <Piece NumberOfPoints="4" NumberOfCells="3">
      <Points>
        <DataArray type="Float64" NumberOfComponents="3" format="ascii">
          9.38035965e-01 -8.65600072e-03 0.00000000e+00 
9.48369622e-01 -7.25875143e-03 0.00000000e+00 
9.58700895e-01 -5.84406452e-03 0.00000000e+00 
9.69029665e-01 -4.41133138e-03 0.00000000e+00 

        </DataArray>
      </Points>
      <Cells>
        <DataArray type="Int32" Name="connectivity" format="ascii">
0 1
1 2
2 3

        </DataArray>
        <DataArray type="Int32" Name="offsets" format="ascii">
2 4 6 
        </DataArray>
        <DataArray type="UInt8" Name="types" format="ascii">
3 3 3 
        </DataArray>
      </Cells>
      <PointData>
        <DataArray type="Float64" Name="rho">
          9.69281400e-01 9.70908326e-01 9.72140932e-01 9.74750904e-01 
        </DataArray>
        <DataArray type="Float64" Name="rhou">
          -6.26147442e-03 2.26058078e-03 -2.60151030e-03 -1.69057554e-02 
        </DataArray>
        <DataArray type="Float64" Name="rhov">
          1.08227177e-03 -1.69294267e-04 1.32328389e-03 -1.72800889e-02 
        </DataArray>
        <DataArray type="Float64" Name="E">
          2.20813993e+05 2.21197974e+05 2.21491968e+05 2.22099757e+05 
        </DataArray>
      </PointData>
    </Piece>
    <Piece NumberOfPoints="4" NumberOfCells="3">
      <Points>
        <DataArray type="Float64" NumberOfComponents="3" format="ascii">
          9.07021165e-01 -1.27432076e-02 0.00000000e+00 
9.17361677e-01 -1.13977119e-02 0.00000000e+00 
9.27700043e-01 -1.00357840e-02 0.00000000e+00 
9.38035965e-01 -8.65600072e-03 0.00000000e+00 

        </DataArray>
      </Points>
      <Cells>
        <DataArray type="Int32" Name="connectivity" format="ascii">
0 1
1 2
2 3

        </DataArray>
        <DataArray type="Int32" Name="offsets" format="ascii">
2 4 6 
        </DataArray>
        <DataArray type="UInt8" Name="types" format="ascii">
3 3 3 
        </DataArray>
      </Cells>
      <PointData>
        <DataArray type="Float64" Name="rho">
          9.65146293e-01 9.66565078e-01 9.68014587e-01 9.69327335e-01 
        </DataArray>
        <DataArray type="Float64" Name="rhou">
          8.98643130e-04 -8.00235847e-05 4.76261795e-04 8.63130722e-04 
        </DataArray>
        <DataArray type="Float64" Name="rhov">
          4.82458762e-05 7.48821137e-05 -1.02209995e-05 1.36591939e-03 
        </DataArray>
        <DataArray type="Float64" Name="E">
          2.19829810e+05 2.20167411e+05 2.20511679e+05 2.20824450e+05 
        </DataArray>
      </PointData>
    </Piece>
    <Piece NumberOfPoints="4" NumberOfCells="3">
      <Points>
        <DataArray type="Float64" NumberOfComponents="3" format="ascii">
          8.75986874e-01 -1.66798849e-02 0.00000000e+00 
8.86333704e-01 -1.53839625e-02 0.00000000e+00 
8.96678507e-01 -1.40720531e-02 0.00000000e+00 
9.07021165e-01 -1.27432076e-02 0.00000000e+00 

        </DataArray>
      </Points>
      <Cells>
        <DataArray type="Int32" Name="connectivity" format="ascii">
0 1
1 2
2 3

        </DataArray>
        <DataArray type="Int32" Name="offsets" format="ascii">
2 4 6 
        </DataArray>
        <DataArray type="UInt8" Name="types" format="ascii">
3 3 3 
        </DataArray>
      </Cells>
      <PointData>
        <DataArray type="Float64" Name="rho">
          9.60773498e-01 9.62236950e-01 9.63687490e-01 9.65141469e-01 
        </DataArray>
        <DataArray type="Float64" Name="rhou">
          1.41188526e-04 2.19781359e-04 1.72857703e-04 1.21419032e-04 
        </DataArray>
        <DataArray type="Float64" Name="rhov">
          6.64389902e-05 5.80238229e-05 7.28567162e-05 -1.96445963e-05 
        </DataArray>
        <DataArray type="Float64" Name="E">
          2.18788977e+05 2.19137466e+05 2.19482817e+05 2.19828713e+05 
        </DataArray>
      </PointData>
    </Piece>
    <Piece NumberOfPoints="4" NumberOfCells="3">
      <Points>
        <DataArray type="Float64" NumberOfComponents="3" format="ascii">
          8.44934702e-01 -2.04724707e-02 0.00000000e+00 
8.55287313e-01 -1.92240477e-02 0.00000000e+00 
8.65638077e-01 -1.79597028e-02 0.00000000e+00 
8.75986874e-01 -1.66798849e-02 0.00000000e+00 

        </DataArray>
      </Points>
      <Cells>
        <DataArray type="Int32" Name="connectivity" format="ascii">
0 1
1 2
2 3

        </DataArray>
        <DataArray type="Int32" Name="offsets" format="ascii">
2 4 6 
        </DataArray>
        <DataArray type="UInt8" Name="types" format="ascii">
3 3 3 
        </DataArray>
      </Cells>
      <PointData>
        <DataArray type="Float64" Name="rho">
          9.56344760e-01 9.57827796e-01 9.59306569e-01 9.60773914e-01 
        </DataArray>
        <DataArray type="Float64" Name="rhou">
          2.73416050e-04 2.14887874e-04 2.02762461e-04 2.40436018e-04 
        </DataArray>
        <DataArray type="Float64" Name="rhov">
          4.17141487e-05 6.19389773e-05 5.14415974e-05 6.94746178e-05 
        </DataArray>
        <DataArray type="Float64" Name="E">
          2.17733887e+05 2.18087253e+05 2.18439532e+05 2.18789072e+05 
        </DataArray>
      </PointData>
    </Piece>
    <Piece NumberOfPoints="4" NumberOfCells="3">
      <Points>
        <DataArray type="Float64" NumberOfComponents="3" format="ascii">
          8.13865662e-01 -2.41250079e-02 0.00000000e+00 
8.24223816e-01 -2.29226518e-02 0.00000000e+00 
8.34580123e-01 -2.17050612e-02 0.00000000e+00 
8.44934702e-01 -2.04724707e-02 0.00000000e+00 

        </DataArray>
      </Points>
      <Cells>
        <DataArray type="Int32" Name="connectivity" format="ascii">
0 1
1 2
2 3

        </DataArray>
        <DataArray type="Int32" Name="offsets" format="ascii">
2 4 6 
        </DataArray>
        <DataArray type="UInt8" Name="types" format="ascii">
3 3 3 
        </DataArray>
      </Cells>
      <PointData>
        <DataArray type="Float64" Name="rho">
          9.51837347e-01 9.53346819e-01 9.54849453e-01 9.56344533e-01 
        </DataArray>
        <DataArray type="Float64" Name="rhou">
          2.50249107e-04 2.34929417e-04 2.19840083e-04 2.25093451e-04 
        </DataArray>
        <DataArray type="Float64" Name="rhov">
          5.33335986e-05 5.39421127e-05 4.63633987e-05 3.43306147e-05 
        </DataArray>
        <DataArray type="Float64" Name="E">
          2.16659980e+05 2.17019622e+05 2.17377631e+05 2.17733835e+05 
        </DataArray>
      </PointData>
    </Piece>
    <Piece NumberOfPoints="4" NumberOfCells="3">
      <Points>
        <DataArray type="Float64" NumberOfComponents="3" format="ascii">
          7.82780826e-01 -2.76402626e-02 0.00000000e+00 
7.93144107e-01 -2.64833923e-02 0.00000000e+00 
8.03505778e-01 -2.53117718e-02 0.00000000e+00 
8.13865662e-01 -2.41250079e-02 0.00000000e+00 

        </DataArray>
      </Points>
      <Cells>
        <DataArray type="Int32" Name="connectivity" format="ascii">
0 1
1 2
2 3

        </DataArray>
        <DataArray type="Int32" Name="offsets" format="ascii">
2 4 6 
        </DataArray>
        <DataArray type="UInt8" Name="types" format="ascii">
3 3 3 
        </DataArray>
      </Cells>
      <PointData>
        <DataArray type="Float64" Name="rho">
          9.47262897e-01 9.48795312e-01 9.50321023e-01 9.51837240e-01 
        </DataArray>
        <DataArray type="Float64" Name="rhou">
          2.71757989e-04 2.50793569e-04 2.50397327e-04 2.59596298e-04 
        </DataArray>
        <DataArray type="Float64" Name="rhov">
          5.05740604e-05 4.20769994e-05 3.74971959e-05 5.16134966e-05 
        </DataArray>
        <DataArray type="Float64" Name="E">
          2.15570206e+05 2.15935251e+05 2.16298714e+05 2.16659956e+05 
        </DataArray>
      </PointData>
    </Piece>
    <Piece NumberOfPoints="4" NumberOfCells="3">
      <Points>
        <DataArray type="Float64" NumberOfComponents="3" format="ascii">
          7.51680970e-01 -3.10197193e-02 0.00000000e+00 
7.62049198e-01 -2.99084149e-02 0.00000000e+00 
7.72415876e-01 -2.87819952e-02 0.00000000e+00 
7.82780826e-01 -2.76402626e-02 0.00000000e+00 

        </DataArray>
      </Points>
      <Cells>
        <DataArray type="Int32" Name="connectivity" format="ascii">
0 1
1 2
2 3

        </DataArray>
        <DataArray type="Int32" Name="offsets" format="ascii">
2 4 6 
        </DataArray>
        <DataArray type="UInt8" Name="types" format="ascii">
3 3 3 
        </DataArray>
      </Cells>
      <PointData>
        <DataArray type="Float64" Name="rho">
          9.42628533e-01 9.44180086e-01 9.45724768e-01 9.47262861e-01 
        </DataArray>
        <DataArray type="Float64" Name="rhou">
          2.85695409e-04 2.81427495e-04 2.75932754e-04 2.61673191e-04 
        </DataArray>
        <DataArray type="Float64" Name="rhov">
          4.38519193e-05 3.71516454e-05 4.08841836e-05 4.83912139e-05 
        </DataArray>
        <DataArray type="Float64" Name="E">
          2.14466344e+05 2.14835880e+05 2.15203811e+05 2.15570198e+05 
        </DataArray>
      </PointData>
    </Piece>
    <Piece NumberOfPoints="4" NumberOfCells="3">
      <Points>
        <DataArray type="Float64" NumberOfComponents="3" format="ascii">
          7.20566452e-01 -3.42622213e-02 0.00000000e+00 
7.30939507e-01 -3.31965312e-02 0.00000000e+00 
7.41311073e-01 -3.21157984e-02 0.00000000e+00 
7.51680970e-01 -3.10197193e-02 0.00000000e+00 

        </DataArray>
      </Points>
      <Cells>
        <DataArray type="Int32" Name="connectivity" format="ascii">
0 1
1 2
2 3

        </DataArray>
        <DataArray type="Int32" Name="offsets" format="ascii">
2 4 6 
        </DataArray>
        <DataArray type="UInt8" Name="types" format="ascii">
3 3 3 
        </DataArray>
      </Cells>
      <PointData>
        <DataArray type="Float64" Name="rho">
          9.37944583e-01 9.39511514e-01 9.41073017e-01 9.42628525e-01 
        </DataArray>
        <DataArray type="Float64" Name="rhou">
          3.12117718e-04 3.05178074e-04 3.02308671e-04 2.89140609e-04 
        </DataArray>
        <DataArray type="Float64" Name="rhov">
          4.07431244e-05 2.97962575e-05 3.24335831e-05 4.42781218e-05 
        </DataArray>
        <DataArray type="Float64" Name="E">
          2.13350868e+05 2.13724001e+05 2.14095870e+05 2.14466342e+05 
        </DataArray>
      </PointData>
    </Piece>
    <Piece NumberOfPoints="4" NumberOfCells="3">
      <Points>
        <DataArray type="Float64" NumberOfComponents="3" format="ascii">
          6.89437866e-01 -3.73662710e-02 0.00000000e+00 
6.99815631e-01 -3.63472365e-02 0.00000000e+00 
7.10191846e-01 -3.53125818e-02 0.00000000e+00 
7.20566452e-01 -3.42622213e-02 0.00000000e+00 

        </DataArray>
      </Points>
      <Cells>
        <DataArray type="Int32" Name="connectivity" format="ascii">
0 1
1 2
2 3

        </DataArray>
        <DataArray type="Int32" Name="offsets" format="ascii">
2 4 6 
        </DataArray>
        <DataArray type="UInt8" Name="types" format="ascii">
3 3 3 
        </DataArray>
      </Cells>
      <PointData>
        <DataArray type="Float64" Name="rho">
          9.33228837e-01 9.34803935e-01 9.36375956e-01 9.37944594e-01 
        </DataArray>
        <DataArray type="Float64" Name="rhou">
          3.45644993e-04 3.38293454e-04 3.31281235e-04 3.13339113e-04 
        </DataArray>
        <DataArray type="Float64" Name="rhov">
          3.30783607e-05 2.57673827e-05 3.03465382e-05 4.09492185e-05 
        </DataArray>
        <DataArray type="Float64" Name="E">
          2.12227956e+05 2.12602996e+05 2.12977326e+05 2.13350871e+05 
        </DataArray>
      </PointData>
    </Piece>
    <Piece NumberOfPoints="4" NumberOfCells="3">
      <Points>
        <DataArray type="Float64" NumberOfComponents="3" format="ascii">
          6.58295333e-01 -4.03269380e-02 0.00000000e+00 
6.68677747e-01 -3.93563360e-02 0.00000000e+00 
6.79058611e-01 -3.83694395e-02 0.00000000e+00 
6.89437866e-01 -3.73662710e-02 0.00000000e+00 

        </DataArray>
      </Points>
      <Cells>
        <DataArray type="Int32" Name="connectivity" format="ascii">
0 1
1 2
2 3

        </DataArray>
        <DataArray type="Int32" Name="offsets" format="ascii">
2 4 6 
        </DataArray>
        <DataArray type="UInt8" Name="types" format="ascii">
3 3 3 
        </DataArray>
      </Cells>
      <PointData>
        <DataArray type="Float64" Name="rho">
          9.28504254e-01 9.30079283e-01 9.31654132e-01 9.33228891e-01 
        </DataArray>
        <DataArray type="Float64" Name="rhou">
          3.82984004e-04 3.77291449e-04 3.64587123e-04 3.43940758e-04 
        </DataArray>
        <DataArray type="Float64" Name="rhov">
          2.22179167e-05 1.91330280e-05 2.57407499e-05 3.37912799e-05 
        </DataArray>
        <DataArray type="Float64" Name="E">
          2.11103020e+05 2.11478024e+05 2.11853003e+05 2.12227968e+05 
        </DataArray>
      </PointData>
    </Piece>
    <Piece NumberOfPoints="4" NumberOfCells="3">
      <Points>
        <DataArray type="Float64" NumberOfComponents="3" format="ascii">
          6.27138972e-01 -4.31386717e-02 0.00000000e+00 
6.37525976e-01 -4.22184542e-02 0.00000000e+00 
6.47911429e-01 -4.12811004e-02 0.00000000e+00 
6.58295333e-01 -4.03269380e-02 0.00000000e+00 

        </DataArray>
      </Points>
      <Cells>
        <DataArray type="Int32" Name="connectivity" format="ascii">
0 1
1 2
2 3

        </DataArray>
        <DataArray type="Int32" Name="offsets" format="ascii">
2 4 6 
        </DataArray>
        <DataArray type="UInt8" Name="types" format="ascii">
3 3 3 
        </DataArray>
      </Cells>
      <PointData>
        <DataArray type="Float64" Name="rho">
          9.23801256e-01 9.25364108e-01 9.26932364e-01 9.28504286e-01 
        </DataArray>
        <DataArray type="Float64" Name="rhou">
          4.34587474e-04 4.15856404e-04 3.98661179e-04 3.84057469e-04 
        </DataArray>
        <DataArray type="Float64" Name="rhov">
          1.88355839e-05 1.77390667e-05 1.90987623e-05 2.30468055e-05 
        </DataArray>
        <DataArray type="Float64" Name="E">
          2.09983227e+05 2.10355351e+05 2.10728754e+05 2.11103027e+05 
        </DataArray>
      </PointData>
    </Piece>
    <Piece NumberOfPoints="4" NumberOfCells="3">
      <Points>
        <DataArray type="Float64" NumberOfComponents="3" format="ascii">
          5.95968783e-01 -4.57924642e-02 0.00000000e+00 
6.06360376e-01 -4.49259281e-02 0.00000000e+00 
6.16750479e-01 -4.40412909e-02 0.00000000e+00 
6.27138972e-01 -4.31386717e-02 0.00000000e+00 

        </DataArray>
      </Points>
      <Cells>
        <DataArray type="Int32" Name="connectivity" format="ascii">
0 1
1 2
2 3

        </DataArray>
        <DataArray type="Int32" Name="offsets" format="ascii">
2 4 6 
        </DataArray>
        <DataArray type="UInt8" Name="types" format="ascii">
3 3 3 
        </DataArray>
      </Cells>
      <PointData>
        <DataArray type="Float64" Name="rho">
          9.19163309e-01 9.20699980e-01 9.22246354e-01 9.23801249e-01 
        </DataArray>
        <DataArray type="Float64" Name="rhou">
          4.79606015e-04 4.67524875e-04 4.50331078e-04 4.28282451e-04 
        </DataArray>
        <DataArray type="Float64" Name="rhov">
          6.93966712e-06 3.79488699e-06 1.02062092e-05 1.95871019e-05 
        </DataArray>
        <DataArray type="Float64" Name="E">
          2.08878819e+05 2.09244746e+05 2.09612976e+05 2.09983225e+05 
        </DataArray>
      </PointData>
    </Piece>
    <Piece NumberOfPoints="4" NumberOfCells="3">
      <Points>
        <DataArray type="Float64" NumberOfComponents="3" format="ascii">
          5.64784765e-01 -4.82786149e-02 0.00000000e+00 
5.75181007e-01 -4.74695377e-02 0.00000000e+00 
5.85575700e-01 -4.66405638e-02 0.00000000e+00 
5.95968783e-01 -4.57924642e-02 0.00000000e+00 

        </DataArray>
      </Points>
      <Cells>
        <DataArray type="Int32" Name="connectivity" format="ascii">
0 1
1 2
2 3

        </DataArray>
        <DataArray type="Int32" Name="offsets" format="ascii">
2 4 6 
        </DataArray>
        <DataArray type="UInt8" Name="types" format="ascii">
3 3 3 
        </DataArray>
      </Cells>
      <PointData>
        <DataArray type="Float64" Name="rho">
          9.14648703e-01 9.16134941e-01 9.17640447e-01 9.19163421e-01 
        </DataArray>
        <DataArray type="Float64" Name="rhou">
          5.56038748e-04 5.29827702e-04 4.97066589e-04 4.73571238e-04 
        </DataArray>
        <DataArray type="Float64" Name="rhov">
          -4.52508698e-06 6.71931355e-06 1.13957486e-05 7.80036754e-06 
        </DataArray>
        <DataArray type="Float64" Name="E">
          2.07803518e+05 2.08157559e+05 2.08516147e+05 2.08878845e+05 
        </DataArray>
      </PointData>
    </Piece>
    <Piece NumberOfPoints="4" NumberOfCells="3">
      <Points>
        <DataArray type="Float64" NumberOfComponents="3" format="ascii">
          5.33586800e-01 -5.05827516e-02 0.00000000e+00 
5.43987691e-01 -4.98356484e-02 0.00000000e+00 
5.54387033e-01 -4.90674041e-02 0.00000000e+00 
5.64784765e-01 -4.82786149e-02 0.00000000e+00 

        </DataArray>
      </Points>
      <Cells>
        <DataArray type="Int32" Name="connectivity" format="ascii">
0 1
1 2
2 3

        </DataArray>
        <DataArray type="Int32" Name="offsets" format="ascii">
2 4 6 
        </DataArray>
        <DataArray type="UInt8" Name="types" format="ascii">
3 3 3 
        </DataArray>
      </Cells>
      <PointData>
        <DataArray type="Float64" Name="rho">
          9.10329305e-01 9.11741475e-01 9.13183061e-01 9.14648663e-01 
        </DataArray>
        <DataArray type="Float64" Name="rhou">
          6.30530726e-04 5.90937867e-04 5.62260753e-04 5.50536067e-04 
        </DataArray>
        <DataArray type="Float64" Name="rhov">
          -3.39105389e-06 -3.45413994e-06 -6.58980992e-06 -4.22791640e-06 
        </DataArray>
        <DataArray type="Float64" Name="E">
          2.06774308e+05 2.07110862e+05 2.07454348e+05 2.07803509e+05 
        </DataArray>
      </PointData>
    </Piece>
    <Piece NumberOfPoints="4" NumberOfCells="3">
      <Points>
        <DataArray type="Float64" NumberOfComponents="3" format="ascii">
          5.02374947e-01 -5.26902266e-02 0.00000000e+00 
5.12780428e-01 -5.20105064e-02 0.00000000e+00 
5.23184419e-01 -5.13078682e-02 0.00000000e+00 
5.33586800e-01 -5.05827516e-02 0.00000000e+00 

        </DataArray>
      </Points>
      <Cells>
        <DataArray type="Int32" Name="connectivity" format="ascii">
0 1
1 2
2 3

        </DataArray>
        <DataArray type="Int32" Name="offsets" format="ascii">
2 4 6 
        </DataArray>
        <DataArray type="UInt8" Name="types" format="ascii">
3 3 3 
        </DataArray>
      </Cells>
      <PointData>
        <DataArray type="Float64" Name="rho">
          9.06303560e-01 9.07606616e-01 9.08950515e-01 9.10329210e-01 
        </DataArray>
        <DataArray type="Float64" Name="rhou">
          7.12252408e-04 6.76020775e-04 6.48460893e-04 6.27894722e-04 
        </DataArray>
        <DataArray type="Float64" Name="rhov">
          -1.26622269e-05 -1.90901557e-05 -1.76885161e-05 -3.90898638e-06 
        </DataArray>
        <DataArray type="Float64" Name="E">
          2.05814377e+05 2.06125180e+05 2.06445620e+05 2.06774286e+05 
        </DataArray>
      </PointData>
    </Piece>
    <Piece NumberOfPoints="4" NumberOfCells="3">
      <Points>
        <DataArray type="Float64" NumberOfComponents="3" format="ascii">
          4.71149325e-01 -5.45825884e-02 0.00000000e+00 
4.81559396e-01 -5.39771840e-02 0.00000000e+00 
4.91967946e-01 -5.33461571e-02 0.00000000e+00 
5.02374947e-01 -5.26902266e-02 0.00000000e+00 

        </DataArray>
      </Points>
      <Cells>
        <DataArray type="Int32" Name="connectivity" format="ascii">
0 1
1 2
2 3

        </DataArray>
        <DataArray type="Int32" Name="offsets" format="ascii">
2 4 6 
        </DataArray>
        <DataArray type="UInt8" Name="types" format="ascii">
3 3 3 
        </DataArray>
      </Cells>
      <PointData>
        <DataArray type="Float64" Name="rho">
          9.02701133e-01 9.03847092e-01 9.05048291e-01 9.06303648e-01 
        </DataArray>
        <DataArray type="Float64" Name="rhou">
          8.19265589e-04 7.96408964e-04 7.49617419e-04 6.92658102e-04 
        </DataArray>
        <DataArray type="Float64" Name="rhov">
          -3.70235970e-05 -3.08166709e-05 -1.36442246e-05 -9.92341699e-06 
        </DataArray>
        <DataArray type="Float64" Name="E">
          2.04954291e+05 2.05228032e+05 2.05514834e+05 2.05814398e+05 
        </DataArray>
      </PointData>
    </Piece>
    <Piece NumberOfPoints="4" NumberOfCells="3">
      <Points>
        <DataArray type="Float64" NumberOfComponents="3" format="ascii">
          4.39910263e-01 -5.62384278e-02 0.00000000e+00 
4.50324744e-01 -5.57143167e-02 0.00000000e+00 
4.60737765e-01 -5.51619194e-02 0.00000000e+00 
4.71149325e-01 -5.45825884e-02 0.00000000e+00 

        </DataArray>
      </Points>
      <Cells>
        <DataArray type="Int32" Name="connectivity" format="ascii">
0 1
1 2
2 3

        </DataArray>
        <DataArray type="Int32" Name="offsets" format="ascii">
2 4 6 
        </DataArray>
        <DataArray type="UInt8" Name="types" format="ascii">
3 3 3 
        </DataArray>
      </Cells>
      <PointData>
        <DataArray type="Float64" Name="rho">
          8.99679480e-01 9.00607804e-01 9.01618550e-01 9.02701208e-01 
        </DataArray>
        <DataArray type="Float64" Name="rhou">
          9.87844865e-04 9.10637522e-04 8.52201079e-04 8.24673132e-04 
        </DataArray>
        <DataArray type="Float64" Name="rhov">
          -2.97082309e-05 -2.06797118e-05 -2.72229609e-05 -3.45474899e-05 
        </DataArray>
        <DataArray type="Float64" Name="E">
          2.04231241e+05 2.04453661e+05 2.04695504e+05 2.04954307e+05 
        </DataArray>
      </PointData>
    </Piece>
    <Piece NumberOfPoints="4" NumberOfCells="3">
      <Points>
        <DataArray type="Float64" NumberOfComponents="3" format="ascii">
          4.08658355e-01 -5.76302819e-02 0.00000000e+00 
4.19077009e-01 -5.71971126e-02 0.00000000e+00 
4.29494321e-01 -5.67329265e-02 0.00000000e+00 
4.39910263e-01 -5.62384278e-02 0.00000000e+00 

        </DataArray>
      </Points>
      <Cells>
        <DataArray type="Int32" Name="connectivity" format="ascii">
0 1
1 2
2 3

        </DataArray>
        <DataArray type="Int32" Name="offsets" format="ascii">
2 4 6 
        </DataArray>
        <DataArray type="UInt8" Name="types" format="ascii">
3 3 3 
        </DataArray>
      </Cells>
      <PointData>
        <DataArray type="Float64" Name="rho">
          8.97447385e-01 8.98091110e-01 8.98838962e-01 8.99679249e-01 
        </DataArray>
        <DataArray type="Float64" Name="rhou">
          1.14370774e-03 1.07395209e-03 1.02223719e-03 9.82496713e-04 
        </DataArray>
        <DataArray type="Float64" Name="rhov">
          -3.80253971e-05 -5.04437705e-05 -4.96563595e-05 -2.95893519e-05 
        </DataArray>
        <DataArray type="Float64" Name="E">
          2.03694555e+05 2.03849758e+05 2.04029547e+05 2.04231188e+05 
        </DataArray>
      </PointData>
    </Piece>
    <Piece NumberOfPoints="4" NumberOfCells="3">
      <Points>
        <DataArray type="Float64" NumberOfComponents="3" format="ascii">
          3.77394795e-01 -5.87291755e-02 0.00000000e+00 
3.87817174e-01 -5.83979115e-02 0.00000000e+00 
3.98238391e-01 -5.80311492e-02 0.00000000e+00 
4.08658355e-01 -5.76302819e-02 0.00000000e+00 

        </DataArray>
      </Points>
      <Cells>
        <DataArray type="Int32" Name="connectivity" format="ascii">
0 1
1 2
2 3

        </DataArray>
        <DataArray type="Int32" Name="offsets" format="ascii">
2 4 6 
        </DataArray>
        <DataArray type="UInt8" Name="types" format="ascii">
3 3 3 
        </DataArray>
      </Cells>
      <PointData>
        <DataArray type="Float64" Name="rho">
          8.96268019e-01 8.96526776e-01 8.96920982e-01 8.97447596e-01 
        </DataArray>
        <DataArray type="Float64" Name="rhou">
          1.39316492e-03 1.31936294e-03 1.21772195e-03 1.11259572e-03 
        </DataArray>
        <DataArray type="Float64" Name="rhov">
          -8.13330035e-05 -5.35837030e-05 -2.58831275e-05 -3.31726794e-05 
        </DataArray>
        <DataArray type="Float64" Name="E">
          2.03406362e+05 2.03470681e+05 2.03567029e+05 2.03694604e+05 
        </DataArray>
      </PointData>
    </Piece>
    <Piece NumberOfPoints="4" NumberOfCells="3">
      <Points>
        <DataArray type="Float64" NumberOfComponents="3" format="ascii">
          3.46121490e-01 -5.95011823e-02 0.00000000e+00 
3.56546819e-01 -5.92821389e-02 0.00000000e+00 
3.66971314e-01 -5.90242445e-02 0.00000000e+00 
3.77394795e-01 -5.87291755e-02 0.00000000e+00 

        </DataArray>
      </Points>
      <Cells>
        <DataArray type="Int32" Name="connectivity" format="ascii">
0 1
1 2
2 3

        </DataArray>
        <DataArray type="Int32" Name="offsets" format="ascii">
2 4 6 
        </DataArray>
        <DataArray type="UInt8" Name="types" format="ascii">
3 3 3 
        </DataArray>
      </Cells>
      <PointData>
        <DataArray type="Float64" Name="rho">
          8.96432601e-01 8.96203492e-01 8.96154409e-01 8.96268110e-01 
        </DataArray>
        <DataArray type="Float64" Name="rhou">
          1.73623356e-03 1.59181071e-03 1.46288531e-03 1.39657977e-03 
        </DataArray>
        <DataArray type="Float64" Name="rhov">
          -1.16174121e-04 -7.42923165e-05 -6.69306522e-05 -7.67311216e-05 
        </DataArray>
        <DataArray type="Float64" Name="E">
          2.03435750e+05 2.03384799e+05 2.03376365e+05 2.03406382e+05 
        </DataArray>
      </PointData>
    </Piece>
    <Piece NumberOfPoints="4" NumberOfCells="3">
      <Points>
        <DataArray type="Float64" NumberOfComponents="3" format="ascii">
          3.14841360e-01 -5.99102043e-02 0.00000000e+00 
3.25268596e-01 -5.98174632e-02 0.00000000e+00 
3.35695356e-01 -5.96801341e-02 0.00000000e+00 
3.46121490e-01 -5.95011823e-02 0.00000000e+00 

        </DataArray>
      </Points>
      <Cells>
        <DataArray type="Int32" Name="connectivity" format="ascii">
0 1
1 2
2 3

        </DataArray>
        <DataArray type="Int32" Name="offsets" format="ascii">
2 4 6 
        </DataArray>
        <DataArray type="UInt8" Name="types" format="ascii">
3 3 3 
        </DataArray>
      </Cells>
      <PointData>
        <DataArray type="Float64" Name="rho">
          8.98345936e-01 8.97474116e-01 8.96845584e-01 8.96432311e-01 
        </DataArray>
        <DataArray type="Float64" Name="rhou">
          2.18651140e-03 1.94222502e-03 1.77727293e-03 1.70071152e-03 
        </DataArray>
        <DataArray type="Float64" Name="rhov">
          -5.36411273e-05 -3.02339275e-05 -6.23116885e-05 -1.15411703e-04 
        </DataArray>
        <DataArray type="Float64" Name="E">
          2.03878529e+05 2.03675651e+05 2.03530238e+05 2.03435683e+05 
        </DataArray>
      </PointData>
    </Piece>
    <Piece NumberOfPoints="4" NumberOfCells="3">
      <Points>
        <DataArray type="Float64" NumberOfComponents="3" format="ascii">
          2.83558637e-01 -5.98983802e-02 0.00000000e+00 
2.93986142e-01 -5.99516556e-02 0.00000000e+00 
3.04413795e-01 -5.99554181e-02 0.00000000e+00 
3.14841360e-01 -5.99102043e-02 0.00000000e+00 

        </DataArray>
      </Points>
      <Cells>
        <DataArray type="Int32" Name="connectivity" format="ascii">
0 1
1 2
2 3

        </DataArray>
        <DataArray type="Int32" Name="offsets" format="ascii">
2 4 6 
        </DataArray>
        <DataArray type="UInt8" Name="types" format="ascii">
3 3 3 
        </DataArray>
      </Cells>
      <PointData>
        <DataArray type="Float64" Name="rho">
          9.02522796e-01 9.00860390e-01 8.99473673e-01 8.98345225e-01 
        </DataArray>
        <DataArray type="Float64" Name="rhou">
          2.66413012e-03 2.49915330e-03 2.36148733e-03 2.17752072e-03 
        </DataArray>
        <DataArray type="Float64" Name="rhov">
          -1.11063439e-04 -1.77790243e-04 -1.41961051e-04 -4.70338769e-05 
        </DataArray>
        <DataArray type="Float64" Name="E">
          2.04857223e+05 2.04466885e+05 2.04141979e+05 2.03878367e+05 
        </DataArray>
      </PointData>
    </Piece>
    <Piece NumberOfPoints="4" NumberOfCells="3">
      <Points>
        <DataArray type="Float64" NumberOfComponents="3" format="ascii">
          2.52279758e-01 -5.94130717e-02 0.00000000e+00 
2.62705088e-01 -5.96327744e-02 0.00000000e+00 
2.73131490e-01 -5.97934239e-02 0.00000000e+00 
2.83558637e-01 -5.98983802e-02 0.00000000e+00 

        </DataArray>
      </Points>
      <Cells>
        <DataArray type="Int32" Name="connectivity" format="ascii">
0 1
1 2
2 3

        </DataArray>
        <DataArray type="Int32" Name="offsets" format="ascii">
2 4 6 
        </DataArray>
        <DataArray type="UInt8" Name="types" format="ascii">
3 3 3 
        </DataArray>
      </Cells>
      <PointData>
        <DataArray type="Float64" Name="rho">
          9.09583296e-01 9.06861217e-01 9.04510767e-01 9.02523717e-01 
        </DataArray>
        <DataArray type="Float64" Name="rhou">
          3.63636949e-03 3.33120439e-03 2.99579519e-03 2.65041151e-03 
        </DataArray>
        <DataArray type="Float64" Name="rhov">
          -2.59839068e-04 -1.67599778e-04 -8.03173628e-05 -9.18944486e-05 
        </DataArray>
        <DataArray type="Float64" Name="E">
          2.06519219e+05 2.05877752e+05 2.05324573e+05 2.04857435e+05 
        </DataArray>
      </PointData>
    </Piece>
    <Piece NumberOfPoints="4" NumberOfCells="3">
      <Points>
        <DataArray type="Float64" NumberOfComponents="3" format="ascii">
          2.21014455e-01 -5.83752058e-02 0.00000000e+00 
2.31433928e-01 -5.87876961e-02 0.00000000e+00 
2.41855890e-01 -5.91322705e-02 0.00000000e+00 
2.52279758e-01 -5.94130717e-02 0.00000000e+00 

        </DataArray>
      </Points>
      <Cells>
        <DataArray type="Int32" Name="connectivity" format="ascii">
0 1
1 2
2 3

        </DataArray>
        <DataArray type="Int32" Name="offsets" format="ascii">
2 4 6 
        </DataArray>
        <DataArray type="UInt8" Name="types" format="ascii">
3 3 3 
        </DataArray>
      </Cells>
      <PointData>
        <DataArray type="Float64" Name="rho">
          9.20310400e-01 9.16259822e-01 9.12699881e-01 9.09583477e-01 
        </DataArray>
        <DataArray type="Float64" Name="rhou">
          4.98880296e-03 4.40382023e-03 3.95776032e-03 3.67053283e-03 
        </DataArray>
        <DataArray type="Float64" Name="rhov">
          -3.66206518e-04 -2.61995290e-04 -2.29610644e-04 -2.43471889e-04 
        </DataArray>
        <DataArray type="Float64" Name="E">
          2.09052159e+05 2.08095015e+05 2.07254459e+05 2.06519256e+05 
        </DataArray>
      </PointData>
    </Piece>
    <Piece NumberOfPoints="4" NumberOfCells="3">
      <Points>
        <DataArray type="Float64" NumberOfComponents="3" format="ascii">
          1.89777538e-01 -5.66898957e-02 0.00000000e+00 
2.00185493e-01 -5.73302582e-02 0.00000000e+00 
2.10598081e-01 -5.78906052e-02 0.00000000e+00 
2.21014455e-01 -5.83752058e-02 0.00000000e+00 

        </DataArray>
      </Points>
      <Cells>
        <DataArray type="Int32" Name="connectivity" format="ascii">
0 1
1 2
2 3

        </DataArray>
        <DataArray type="Int32" Name="offsets" format="ascii">
2 4 6 
        </DataArray>
        <DataArray type="UInt8" Name="types" format="ascii">
3 3 3 
        </DataArray>
      </Cells>
      <PointData>
        <DataArray type="Float64" Name="rho">
          9.35791952e-01 9.30025772e-01 9.24885151e-01 9.20309641e-01 
        </DataArray>
        <DataArray type="Float64" Name="rhou">
          6.91022494e-03 6.10979927e-03 5.52445136e-03 5.05124987e-03 
        </DataArray>
        <DataArray type="Float64" Name="rhov">
          -6.47713655e-04 -5.76928188e-04 -4.77238397e-04 -3.53487724e-04 
        </DataArray>
        <DataArray type="Float64" Name="E">
          2.12716736e+05 2.11350834e+05 2.10134069e+05 2.09051985e+05 
        </DataArray>
      </PointData>
    </Piece>
    <Piece NumberOfPoints="4" NumberOfCells="3">
      <Points>
        <DataArray type="Float64" NumberOfComponents="3" format="ascii">
          1.58592433e-01 -5.42296544e-02 0.00000000e+00 
1.68979734e-01 -5.51457107e-02 0.00000000e+00 
1.79375216e-01 -5.59638515e-02 0.00000000e+00 
1.89777538e-01 -5.66898957e-02 0.00000000e+00 

        </DataArray>
      </Points>
      <Cells>
        <DataArray type="Int32" Name="connectivity" format="ascii">
0 1
1 2
2 3

        </DataArray>
        <DataArray type="Int32" Name="offsets" format="ascii">
2 4 6 
        </DataArray>
        <DataArray type="UInt8" Name="types" format="ascii">
3 3 3 
        </DataArray>
      </Cells>
      <PointData>
        <DataArray type="Float64" Name="rho">
          9.57594856e-01 9.49516815e-01 9.42266130e-01 9.35792370e-01 
        </DataArray>
        <DataArray type="Float64" Name="rhou">
          9.96783640e-03 8.89362309e-03 7.94404182e-03 6.98147916e-03 
        </DataArray>
        <DataArray type="Float64" Name="rhov">
          -1.39974600e-03 -1.20809505e-03 -8.77065145e-04 -6.07230698e-04 
        </DataArray>
        <DataArray type="Float64" Name="E">
          2.17889450e+05 2.15971391e+05 2.14251369e+05 2.12716836e+05 
        </DataArray>
      </PointData>
    </Piece>
    <Piece NumberOfPoints="4" NumberOfCells="3">
      <Points>
        <DataArray type="Float64" NumberOfComponents="3" format="ascii">
          1.27497971e-01 -5.08146733e-02 0.00000000e+00 
1.37849152e-01 -5.20747155e-02 0.00000000e+00 
1.48214847e-01 -5.32093942e-02 0.00000000e+00 
1.58592433e-01 -5.42296544e-02 0.00000000e+00 

        </DataArray>
      </Points>
      <Cells>
        <DataArray type="Int32" Name="connectivity" format="ascii">
0 1
1 2
2 3

        </DataArray>
        <DataArray type="Int32" Name="offsets" format="ascii">
2 4 6 
        </DataArray>
        <DataArray type="UInt8" Name="types" format="ascii">
3 3 3 
        </DataArray>
      </Cells>
      <PointData>
        <DataArray type="Float64" Name="rho">
          9.88146839e-01 9.76778900e-01 9.66615731e-01 9.57598903e-01 
        </DataArray>
        <DataArray type="Float64" Name="rhou">
          1.44975489e-02 1.33197632e-02 1.15152698e-02 9.99633787e-03 
        </DataArray>
        <DataArray type="Float64" Name="rhov">
          -2.27515147e-03 -2.02794395e-03 -1.41288557e-03 -1.32782349e-03 
        </DataArray>
        <DataArray type="Float64" Name="E">
          2.25155667e+05 2.22449627e+05 2.20033043e+05 2.17890378e+05 
        </DataArray>
      </PointData>
    </Piece>
    <Piece NumberOfPoints="4" NumberOfCells="3">
      <Points>
        <DataArray type="Float64" NumberOfComponents="3" format="ascii">
          9.65642184e-02 -4.61716652e-02 0.00000000e+00 
1.06852271e-01 -4.78802323e-02 0.00000000e+00 
1.17164567e-01 -4.94215861e-02 0.00000000e+00 
1.27497971e-01 -5.08146733e-02 0.00000000e+00 

        </DataArray>
      </Points>
      <Cells>
        <DataArray type="Int32" Name="connectivity" format="ascii">
0 1
1 2
2 3

        </DataArray>
        <DataArray type="Int32" Name="offsets" format="ascii">
2 4 6 
        </DataArray>
        <DataArray type="UInt8" Name="types" format="ascii">
3 3 3 
        </DataArray>
      </Cells>
      <PointData>
        <DataArray type="Float64" Name="rho">
          1.03156328e+00 1.01525037e+00 1.00080734e+00 9.88155183e-01 
        </DataArray>
        <DataArray type="Float64" Name="rhou">
          2.46690988e-02 1.80847877e-02 1.71713011e-02 1.28544010e-02 
        </DataArray>
        <DataArray type="Float64" Name="rhov">
          -9.22537735e-04 -7.29162008e-04 -1.55232456e-03 -1.59592006e-03 
        </DataArray>
        <DataArray type="Float64" Name="E">
          2.35515838e+05 2.31618587e+05 2.28173175e+05 2.25157678e+05 
        </DataArray>
      </PointData>
    </Piece>
  </UnstructuredGrid>
</VTKFile>
