<?xml version="1.0"?>
<VTKFile type="UnstructuredGrid" version="0.1" byte_order="LittleEndian">
  <UnstructuredGrid>
    <Piece NumberOfPoints="4" NumberOfCells="3">
      <Points>
        <DataArray type="Float64" NumberOfComponents="3" format="ascii">
          9.65642184e-02 -4.61716652e-02 0.00000000e+00 
9.26280916e-02 -4.54656407e-02 0.00000000e+00 
8.86965096e-02 -4.47326750e-02 0.00000000e+00 
8.47706869e-02 -4.39694971e-02 0.00000000e+00 

        </DataArray>
      </Points>
      <Cells>
        <DataArray type="Int32" Name="connectivity" format="ascii">
0 1
1 2
2 3

        </DataArray>
        <DataArray type="Int32" Name="offsets" format="ascii">
2 4 6 
        </DataArray>
        <DataArray type="UInt8" Name="types" format="ascii">
3 3 3 
        </DataArray>
      </Cells>
      <PointData>
        <DataArray type="Float64" Name="rho">
          1.03142244e+00 1.03833661e+00 1.04556571e+00 1.05324213e+00 
        </DataArray>
        <DataArray type="Float64" Name="rhou">
          2.82586385e-02 2.17728844e-02 2.44206258e-02 2.45996248e-02 
        </DataArray>
        <DataArray type="Float64" Name="rhov">
          -2.23367880e-03 -1.02378043e-03 -6.17174196e-04 -9.34192999e-04 
        </DataArray>
        <DataArray type="Float64" Name="E">
          2.35489404e+05 2.37142274e+05 2.38872078e+05 2.40709274e+05 
        </DataArray>
      </PointData>
    </Piece>
    <Piece NumberOfPoints="4" NumberOfCells="3">
      <Points>
        <DataArray type="Float64" NumberOfComponents="3" format="ascii">
          8.47706869e-02 -4.39694971e-02 0.00000000e+00 
8.08513016e-02 -4.31745499e-02 0.00000000e+00 
7.69388378e-02 -4.23462167e-02 0.00000000e+00 
7.30340332e-02 -4.14824970e-02 0.00000000e+00 

        </DataArray>
      </Points>
      <Cells>
        <DataArray type="Int32" Name="connectivity" format="ascii">
0 1
1 2
2 3

        </DataArray>
        <DataArray type="Int32" Name="offsets" format="ascii">
2 4 6 
        </DataArray>
        <DataArray type="UInt8" Name="types" format="ascii">
3 3 3 
        </DataArray>
      </Cells>
      <PointData>
        <DataArray type="Float64" Name="rho">
          1.05324093e+00 1.06134583e+00 1.06991475e+00 1.07901740e+00 
        </DataArray>
        <DataArray type="Float64" Name="rhou">
          2.46908437e-02 2.38689136e-02 2.24627031e-02 2.08990884e-02 
        </DataArray>
        <DataArray type="Float64" Name="rhov">
          -7.39698656e-04 -5.34992821e-04 3.66761862e-04 1.55525504e-03 
        </DataArray>
        <DataArray type="Float64" Name="E">
          2.40709007e+05 2.42650729e+05 2.44704878e+05 2.46888193e+05 
        </DataArray>
      </PointData>
    </Piece>
    <Piece NumberOfPoints="4" NumberOfCells="3">
      <Points>
        <DataArray type="Float64" NumberOfComponents="3" format="ascii">
          7.30340332e-02 -4.14824970e-02 0.00000000e+00 
6.91377968e-02 -4.05809283e-02 0.00000000e+00 
6.52511865e-02 -3.96387354e-02 0.00000000e+00 
6.13753870e-02 -3.86530459e-02 0.00000000e+00 

        </DataArray>
      </Points>
      <Cells>
        <DataArray type="Int32" Name="connectivity" format="ascii">
0 1
1 2
2 3

        </DataArray>
        <DataArray type="Int32" Name="offsets" format="ascii">
2 4 6 
        </DataArray>
        <DataArray type="UInt8" Name="types" format="ascii">
3 3 3 
        </DataArray>
      </Cells>
      <PointData>
        <DataArray type="Float64" Name="rho">
          1.07901801e+00 1.08873811e+00 1.09910730e+00 1.11018509e+00 
        </DataArray>
        <DataArray type="Float64" Name="rhou">
          2.10170616e-02 1.86717515e-02 1.45780321e-02 9.08560593e-03 
        </DataArray>
        <DataArray type="Float64" Name="rhov">
          1.38989133e-03 2.12801587e-03 4.20047655e-03 7.37889358e-03 
        </DataArray>
        <DataArray type="Float64" Name="E">
          2.46888356e+05 2.49221985e+05 2.51713111e+05 2.54376727e+05 
        </DataArray>
      </PointData>
    </Piece>
    <Piece NumberOfPoints="4" NumberOfCells="3">
      <Points>
        <DataArray type="Float64" NumberOfComponents="3" format="ascii">
          6.13753870e-02 -3.86530459e-02 0.00000000e+00 
5.75117208e-02 -3.76208089e-02 0.00000000e+00 
5.36618084e-02 -3.65384258e-02 0.00000000e+00 
4.98276278e-02 -3.54015976e-02 0.00000000e+00 

        </DataArray>
      </Points>
      <Cells>
        <DataArray type="Int32" Name="connectivity" format="ascii">
0 1
1 2
2 3

        </DataArray>
        <DataArray type="Int32" Name="offsets" format="ascii">
2 4 6 
        </DataArray>
        <DataArray type="UInt8" Name="types" format="ascii">
3 3 3 
        </DataArray>
      </Cells>
      <PointData>
        <DataArray type="Float64" Name="rho">
          1.11018535e+00 1.12205463e+00 1.13480010e+00 1.14855313e+00 
        </DataArray>
        <DataArray type="Float64" Name="rhou">
          9.02956245e-03 1.98091141e-03 -7.22288545e-03 -1.87291929e-02 
        </DataArray>
        <DataArray type="Float64" Name="rhov">
          7.15111527e-03 1.18374936e-02 1.98918591e-02 3.13328634e-02 
        </DataArray>
        <DataArray type="Float64" Name="E">
          2.54376792e+05 2.57234676e+05 2.60306199e+05 2.63623861e+05 
        </DataArray>
      </PointData>
    </Piece>
    <Piece NumberOfPoints="4" NumberOfCells="3">
      <Points>
        <DataArray type="Float64" NumberOfComponents="3" format="ascii">
          4.98276278e-02 -3.54015976e-02 0.00000000e+00 
4.60115410e-02 -3.42054628e-02 0.00000000e+00 
4.22164090e-02 -3.29444520e-02 0.00000000e+00 
3.84457745e-02 -3.16120051e-02 0.00000000e+00 

        </DataArray>
      </Points>
      <Cells>
        <DataArray type="Int32" Name="connectivity" format="ascii">
0 1
1 2
2 3

        </DataArray>
        <DataArray type="Int32" Name="offsets" format="ascii">
2 4 6 
        </DataArray>
        <DataArray type="UInt8" Name="types" format="ascii">
3 3 3 
        </DataArray>
      </Cells>
      <PointData>
        <DataArray type="Float64" Name="rho">
          1.14855305e+00 1.16341362e+00 1.17949374e+00 1.19698486e+00 
        </DataArray>
        <DataArray type="Float64" Name="rhou">
          -1.91828380e-02 -3.33093962e-02 -5.22847074e-02 -7.49846641e-02 
        </DataArray>
        <DataArray type="Float64" Name="rhov">
          3.11184038e-02 4.77553000e-02 7.53543962e-02 1.15740027e-01 
        </DataArray>
        <DataArray type="Float64" Name="E">
          2.63623809e+05 2.67215178e+05 2.71106105e+05 2.75344827e+05 
        </DataArray>
      </PointData>
    </Piece>
    <Piece NumberOfPoints="4" NumberOfCells="3">
      <Points>
        <DataArray type="Float64" NumberOfComponents="3" format="ascii">
          3.84457745e-02 -3.16120051e-02 0.00000000e+00 
3.47041376e-02 -3.02002355e-02 0.00000000e+00 
3.09973080e-02 -2.86995135e-02 0.00000000e+00 
2.73328498e-02 -2.70981900e-02 0.00000000e+00 

        </DataArray>
      </Points>
      <Cells>
        <DataArray type="Int32" Name="connectivity" format="ascii">
0 1
1 2
2 3

        </DataArray>
        <DataArray type="Int32" Name="offsets" format="ascii">
2 4 6 
        </DataArray>
        <DataArray type="UInt8" Name="types" format="ascii">
3 3 3 
        </DataArray>
      </Cells>
      <PointData>
        <DataArray type="Float64" Name="rho">
          1.19698508e+00 1.21607666e+00 1.23696192e+00 1.26001222e+00 
        </DataArray>
        <DataArray type="Float64" Name="rhou">
          -7.59349655e-02 -1.00079403e-01 -1.28714652e-01 -1.54126870e-01 
        </DataArray>
        <DataArray type="Float64" Name="rhov">
          1.15659599e-01 1.71117366e-01 2.56906720e-01 3.77023624e-01 
        </DataArray>
        <DataArray type="Float64" Name="E">
          2.75344746e+05 2.79983129e+05 2.85065884e+05 2.90687093e+05 
        </DataArray>
      </PointData>
    </Piece>
    <Piece NumberOfPoints="4" NumberOfCells="3">
      <Points>
        <DataArray type="Float64" NumberOfComponents="3" format="ascii">
          2.73328498e-02 -2.70981900e-02 0.00000000e+00 
2.37206947e-02 -2.53822580e-02 0.00000000e+00 
2.01744195e-02 -2.35341713e-02 0.00000000e+00 
1.67132635e-02 -2.15314496e-02 0.00000000e+00 

        </DataArray>
      </Points>
      <Cells>
        <DataArray type="Int32" Name="connectivity" format="ascii">
0 1
1 2
2 3

        </DataArray>
        <DataArray type="Int32" Name="offsets" format="ascii">
2 4 6 
        </DataArray>
        <DataArray type="UInt8" Name="types" format="ascii">
3 3 3 
        </DataArray>
      </Cells>
      <PointData>
        <DataArray type="Float64" Name="rho">
          1.26001708e+00 1.28557230e+00 1.31408786e+00 1.34690974e+00 
        </DataArray>
        <DataArray type="Float64" Name="rhou">
          -1.54507750e-01 -1.68621293e-01 -1.53035858e-01 -5.72391537e-02 
        </DataArray>
        <DataArray type="Float64" Name="rhov">
          3.77698183e-01 5.29349930e-01 7.39795226e-01 9.57922933e-01 
        </DataArray>
        <DataArray type="Float64" Name="E">
          2.90687991e+05 2.96942220e+05 3.03933665e+05 3.11990947e+05 
        </DataArray>
      </PointData>
    </Piece>
    <Piece NumberOfPoints="4" NumberOfCells="3">
      <Points>
        <DataArray type="Float64" NumberOfComponents="3" format="ascii">
          1.67132635e-02 -2.15314496e-02 0.00000000e+00 
1.33649679e-02 -1.93456318e-02 0.00000000e+00 
1.01706637e-02 -1.69409402e-02 0.00000000e+00 
7.19343964e-03 -1.42731192e-02 0.00000000e+00 

        </DataArray>
      </Points>
      <Cells>
        <DataArray type="Int32" Name="connectivity" format="ascii">
0 1
1 2
2 3

        </DataArray>
        <DataArray type="Int32" Name="offsets" format="ascii">
2 4 6 
        </DataArray>
        <DataArray type="UInt8" Name="types" format="ascii">
3 3 3 
        </DataArray>
      </Cells>
      <PointData>
        <DataArray type="Float64" Name="rho">
          1.34680399e+00 1.38666719e+00 1.43390290e+00 1.49900731e+00 
        </DataArray>
        <DataArray type="Float64" Name="rhou">
          -3.46892621e-02 1.13463665e-01 4.54296771e-01 8.74195458e-01 
        </DataArray>
        <DataArray type="Float64" Name="rhov">
          9.19706429e-01 1.12253513e+00 1.06779308e+00 5.18313025e-01 
        </DataArray>
        <DataArray type="Float64" Name="E">
          3.11966776e+05 3.21755687e+05 3.33347888e+05 3.49210227e+05 
        </DataArray>
      </PointData>
    </Piece>
    <Piece NumberOfPoints="4" NumberOfCells="3">
      <Points>
        <DataArray type="Float64" NumberOfComponents="3" format="ascii">
          7.19343964e-03 -1.42731192e-02 0.00000000e+00 
4.53082798e-03 -1.12927537e-02 0.00000000e+00 
2.33371323e-03 -7.95678515e-03 0.00000000e+00 
8.10639584e-04 -4.26717056e-03 0.00000000e+00 

        </DataArray>
      </Points>
      <Cells>
        <DataArray type="Int32" Name="connectivity" format="ascii">
0 1
1 2
2 3

        </DataArray>
        <DataArray type="Int32" Name="offsets" format="ascii">
2 4 6 
        </DataArray>
        <DataArray type="UInt8" Name="types" format="ascii">
3 3 3 
        </DataArray>
      </Cells>
      <PointData>
        <DataArray type="Float64" Name="rho">
          1.49952649e+00 1.57396622e+00 1.66307786e+00 1.73181869e+00 
        </DataArray>
        <DataArray type="Float64" Name="rhou">
          7.99243648e-01 9.29114124e-01 2.58101321e-01 -1.27504844e+00 
        </DataArray>
        <DataArray type="Float64" Name="rhov">
          6.16981184e-01 -5.10963572e-01 -1.72829475e+00 -1.81644672e+00 
        </DataArray>
        <DataArray type="Float64" Name="E">
          3.49337447e+05 3.67510233e+05 3.89142742e+05 4.05852869e+05 
        </DataArray>
      </PointData>
    </Piece>
    <Piece NumberOfPoints="4" NumberOfCells="3">
      <Points>
        <DataArray type="Float64" NumberOfComponents="3" format="ascii">
          8.10639584e-04 -4.26717056e-03 0.00000000e+00 
1.91366620e-04 -3.27450951e-04 0.00000000e+00 
6.40850572e-04 3.63462302e-03 0.00000000e+00 
2.03182548e-03 7.37539819e-03 0.00000000e+00 

        </DataArray>
      </Points>
      <Cells>
        <DataArray type="Int32" Name="connectivity" format="ascii">
0 1
1 2
2 3

        </DataArray>
        <DataArray type="Int32" Name="offsets" format="ascii">
2 4 6 
        </DataArray>
        <DataArray type="UInt8" Name="types" format="ascii">
3 3 3 
        </DataArray>
      </Cells>
      <PointData>
        <DataArray type="Float64" Name="rho">
          1.73024292e+00 1.75522303e+00 1.70483627e+00 1.61240034e+00 
        </DataArray>
        <DataArray type="Float64" Name="rhou">
          -1.14949023e+00 -1.87831512e+00 -8.34806501e-01 7.51552995e-01 
        </DataArray>
        <DataArray type="Float64" Name="rhov">
          -1.97451574e+00 3.64080899e-01 1.88182622e+00 1.51444525e+00 
        </DataArray>
        <DataArray type="Float64" Name="E">
          4.05471306e+05 4.11452263e+05 3.99134419e+05 3.76557851e+05 
        </DataArray>
      </PointData>
    </Piece>
    <Piece NumberOfPoints="4" NumberOfCells="3">
      <Points>
        <DataArray type="Float64" NumberOfComponents="3" format="ascii">
          2.03182548e-03 7.37539819e-03 0.00000000e+00 
4.13410179e-03 1.07714310e-02 0.00000000e+00 
6.73249783e-03 1.38076087e-02 0.00000000e+00 
9.66598373e-03 1.65232457e-02 0.00000000e+00 

        </DataArray>
      </Points>
      <Cells>
        <DataArray type="Int32" Name="connectivity" format="ascii">
0 1
1 2
2 3

        </DataArray>
        <DataArray type="Int32" Name="offsets" format="ascii">
2 4 6 
        </DataArray>
        <DataArray type="UInt8" Name="types" format="ascii">
3 3 3 
        </DataArray>
      </Cells>
      <PointData>
        <DataArray type="Float64" Name="rho">
          1.61276332e+00 1.50565080e+00 1.41641763e+00 1.34946464e+00 
        </DataArray>
        <DataArray type="Float64" Name="rhou">
          7.23879301e-01 1.15433901e+00 8.39263598e-01 3.74814547e-01 
        </DataArray>
        <DataArray type="Float64" Name="rhov">
          1.74911465e+00 6.23043383e-02 -1.07439720e+00 -1.39886494e+00 
        </DataArray>
        <DataArray type="Float64" Name="E">
          3.76649172e+05 3.50645494e+05 3.28945541e+05 3.12582759e+05 
        </DataArray>
      </PointData>
    </Piece>
    <Piece NumberOfPoints="4" NumberOfCells="3">
      <Points>
        <DataArray type="Float64" NumberOfComponents="3" format="ascii">
          9.66598373e-03 1.65232457e-02 0.00000000e+00 
1.28298048e-02 1.89677756e-02 0.00000000e+00 
1.61561389e-02 2.11867876e-02 0.00000000e+00 
1.96009967e-02 2.32173651e-02 0.00000000e+00 

        </DataArray>
      </Points>
      <Cells>
        <DataArray type="Int32" Name="connectivity" format="ascii">
0 1
1 2
2 3

        </DataArray>
        <DataArray type="Int32" Name="offsets" format="ascii">
2 4 6 
        </DataArray>
        <DataArray type="UInt8" Name="types" format="ascii">
3 3 3 
        </DataArray>
      </Cells>
      <PointData>
        <DataArray type="Float64" Name="rho">
          1.34925926e+00 1.29679172e+00 1.25781789e+00 1.22350935e+00 
        </DataArray>
        <DataArray type="Float64" Name="rhou">
          3.84399837e-01 -1.69703490e-02 -1.98341458e-01 -2.18809908e-01 
        </DataArray>
        <DataArray type="Float64" Name="rhov">
          -1.42344219e+00 -1.31874910e+00 -9.88898156e-01 -6.63777182e-01 
        </DataArray>
        <DataArray type="Float64" Name="E">
          3.12530574e+05 2.99708833e+05 2.90135061e+05 2.81733425e+05 
        </DataArray>
      </PointData>
    </Piece>
    <Piece NumberOfPoints="4" NumberOfCells="3">
      <Points>
        <DataArray type="Float64" NumberOfComponents="3" format="ascii">
          1.96009967e-02 2.32173651e-02 0.00000000e+00 
2.31348258e-02 2.50891000e-02 0.00000000e+00 
2.67372411e-02 2.68253610e-02 0.00000000e+00 
3.03938854e-02 2.84444261e-02 0.00000000e+00 

        </DataArray>
      </Points>
      <Cells>
        <DataArray type="Int32" Name="connectivity" format="ascii">
0 1
1 2
2 3

        </DataArray>
        <DataArray type="Int32" Name="offsets" format="ascii">
2 4 6 
        </DataArray>
        <DataArray type="UInt8" Name="types" format="ascii">
3 3 3 
        </DataArray>
      </Cells>
      <PointData>
        <DataArray type="Float64" Name="rho">
          1.22357306e+00 1.19445242e+00 1.16840871e+00 1.14482342e+00 
        </DataArray>
        <DataArray type="Float64" Name="rhou">
          -2.31923933e-01 -2.18413331e-01 -1.73205977e-01 -1.30992748e-01 
        </DataArray>
        <DataArray type="Float64" Name="rhov">
          -6.82003850e-01 -4.31212580e-01 -2.44823092e-01 -1.32209729e-01 
        </DataArray>
        <DataArray type="Float64" Name="E">
          2.81748332e+05 2.74636639e+05 2.68299331e+05 2.62577312e+05 
        </DataArray>
      </PointData>
    </Piece>
    <Piece NumberOfPoints="4" NumberOfCells="3">
      <Points>
        <DataArray type="Float64" NumberOfComponents="3" format="ascii">
          3.03938854e-02 2.84444261e-02 0.00000000e+00 
3.40943485e-02 2.99607720e-02 0.00000000e+00 
3.78307216e-02 3.13864015e-02 0.00000000e+00 
4.15969416e-02 3.27312648e-02 0.00000000e+00 

        </DataArray>
      </Points>
      <Cells>
        <DataArray type="Int32" Name="connectivity" format="ascii">
0 1
1 2
2 3

        </DataArray>
        <DataArray type="Int32" Name="offsets" format="ascii">
2 4 6 
        </DataArray>
        <DataArray type="UInt8" Name="types" format="ascii">
3 3 3 
        </DataArray>
      </Cells>
      <PointData>
        <DataArray type="Float64" Name="rho">
          1.14482169e+00 1.12348150e+00 1.10409818e+00 1.08642859e+00 
        </DataArray>
        <DataArray type="Float64" Name="rhou">
          -1.29203158e-01 -8.90947414e-02 -5.63338273e-02 -3.33850923e-02 
        </DataArray>
        <DataArray type="Float64" Name="rhov">
          -1.30759796e-01 -5.46782435e-02 -7.63341172e-03 1.77418125e-02 
        </DataArray>
        <DataArray type="Float64" Name="E">
          2.62577161e+05 2.57418490e+05 2.52744174e+05 2.48490946e+05 
        </DataArray>
      </PointData>
    </Piece>
    <Piece NumberOfPoints="4" NumberOfCells="3">
      <Points>
        <DataArray type="Float64" NumberOfComponents="3" format="ascii">
          4.15969416e-02 3.27312648e-02 0.00000000e+00 
4.53883260e-02 3.40034962e-02 0.00000000e+00 
4.92011942e-02 3.52098532e-02 0.00000000e+00 
5.30325845e-02 3.63560505e-02 0.00000000e+00 

        </DataArray>
      </Points>
      <Cells>
        <DataArray type="Int32" Name="connectivity" format="ascii">
0 1
1 2
2 3

        </DataArray>
        <DataArray type="Int32" Name="offsets" format="ascii">
2 4 6 
        </DataArray>
        <DataArray type="UInt8" Name="types" format="ascii">
3 3 3 
        </DataArray>
      </Cells>
      <PointData>
        <DataArray type="Float64" Name="rho">
          1.08642916e+00 1.07028421e+00 1.05547557e+00 1.04184451e+00 
        </DataArray>
        <DataArray type="Float64" Name="rhou">
          -3.22488123e-02 -1.28301659e-02 1.59614778e-03 1.09705330e-02 
        </DataArray>
        <DataArray type="Float64" Name="rhov">
          1.76464733e-02 3.13273477e-02 3.79847415e-02 3.91430191e-02 
        </DataArray>
        <DataArray type="Float64" Name="E">
          2.48491156e+05 2.44613463e+05 2.41062269e+05 2.37797623e+05 
        </DataArray>
      </PointData>
    </Piece>
    <Piece NumberOfPoints="4" NumberOfCells="3">
      <Points>
        <DataArray type="Float64" NumberOfComponents="3" format="ascii">
          5.30325845e-02 3.63560505e-02 0.00000000e+00 
5.68800643e-02 3.74470428e-02 0.00000000e+00 
6.07415959e-02 3.84872220e-02 0.00000000e+00 
6.46155030e-02 3.94803248e-02 0.00000000e+00 

        </DataArray>
      </Points>
      <Cells>
        <DataArray type="Int32" Name="connectivity" format="ascii">
0 1
1 2
2 3

        </DataArray>
        <DataArray type="Int32" Name="offsets" format="ascii">
2 4 6 
        </DataArray>
        <DataArray type="UInt8" Name="types" format="ascii">
3 3 3 
        </DataArray>
      </Cells>
      <PointData>
        <DataArray type="Float64" Name="rho">
          1.04184520e+00 1.02930354e+00 1.01771901e+00 1.00695096e+00 
        </DataArray>
        <DataArray type="Float64" Name="rhou">
          1.12861822e-02 1.82750120e-02 2.38105742e-02 2.76397723e-02 
        </DataArray>
        <DataArray type="Float64" Name="rhov">
          3.88160149e-02 3.71547384e-02 3.51030670e-02 3.18791410e-02 
        </DataArray>
        <DataArray type="Float64" Name="E">
          2.37797781e+05 2.34798272e+05 2.32030504e+05 2.29460355e+05 
        </DataArray>
      </PointData>
    </Piece>
    <Piece NumberOfPoints="4" NumberOfCells="3">
      <Points>
        <DataArray type="Float64" NumberOfComponents="3" format="ascii">
          6.46155030e-02 3.94803248e-02 0.00000000e+00 
6.85004294e-02 4.04294394e-02 0.00000000e+00 
7.23951608e-02 4.13374715e-02 0.00000000e+00 
7.62986317e-02 4.22072113e-02 0.00000000e+00 

        </DataArray>
      </Points>
      <Cells>
        <DataArray type="Int32" Name="connectivity" format="ascii">
0 1
1 2
2 3

        </DataArray>
        <DataArray type="Int32" Name="offsets" format="ascii">
2 4 6 
        </DataArray>
        <DataArray type="UInt8" Name="types" format="ascii">
3 3 3 
        </DataArray>
      </Cells>
      <PointData>
        <DataArray type="Float64" Name="rho">
          1.00695168e+00 9.96958723e-01 9.87651407e-01 9.78974227e-01 
        </DataArray>
        <DataArray type="Float64" Name="rhou">
          2.74592712e-02 2.94028876e-02 3.05008370e-02 3.05940230e-02 
        </DataArray>
        <DataArray type="Float64" Name="rhov">
          3.15807314e-02 2.76790340e-02 2.43051111e-02 2.09991106e-02 
        </DataArray>
        <DataArray type="Float64" Name="E">
          2.29460501e+05 2.27077961e+05 2.24860730e+05 2.22794900e+05 
        </DataArray>
      </PointData>
    </Piece>
    <Piece NumberOfPoints="4" NumberOfCells="3">
      <Points>
        <DataArray type="Float64" NumberOfComponents="3" format="ascii">
          7.62986317e-02 4.22072113e-02 0.00000000e+00 
8.02098960e-02 4.30411920e-02 0.00000000e+00 
8.41281936e-02 4.38414887e-02 0.00000000e+00 
8.80528912e-02 4.46097627e-02 0.00000000e+00 

        </DataArray>
      </Points>
      <Cells>
        <DataArray type="Int32" Name="connectivity" format="ascii">
0 1
1 2
2 3

        </DataArray>
        <DataArray type="Int32" Name="offsets" format="ascii">
2 4 6 
        </DataArray>
        <DataArray type="UInt8" Name="types" format="ascii">
3 3 3 
        </DataArray>
      </Cells>
      <PointData>
        <DataArray type="Float64" Name="rho">
          9.78973283e-01 9.70880003e-01 9.63275833e-01 9.56115005e-01 
        </DataArray>
        <DataArray type="Float64" Name="rhou">
          3.04468221e-02 3.04725589e-02 3.01993660e-02 2.91373941e-02 
        </DataArray>
        <DataArray type="Float64" Name="rhov">
          2.08358941e-02 1.82779045e-02 1.57707580e-02 1.30925761e-02 
        </DataArray>
        <DataArray type="Float64" Name="E">
          2.22794664e+05 2.20869344e+05 2.19061658e+05 2.17360517e+05 
        </DataArray>
      </PointData>
    </Piece>
    <Piece NumberOfPoints="4" NumberOfCells="3">
      <Points>
        <DataArray type="Float64" NumberOfComponents="3" format="ascii">
          8.80528912e-02 4.46097627e-02 0.00000000e+00 
9.19835642e-02 4.53475714e-02 0.00000000e+00 
9.59195644e-02 4.60564308e-02 0.00000000e+00 
9.98597518e-02 4.67394181e-02 0.00000000e+00 

        </DataArray>
      </Points>
      <Cells>
        <DataArray type="Int32" Name="connectivity" format="ascii">
0 1
1 2
2 3

        </DataArray>
        <DataArray type="Int32" Name="offsets" format="ascii">
2 4 6 
        </DataArray>
        <DataArray type="UInt8" Name="types" format="ascii">
3 3 3 
        </DataArray>
      </Cells>
      <PointData>
        <DataArray type="Float64" Name="rho">
          9.56115512e-01 9.49388024e-01 9.43081246e-01 9.37095503e-01 
        </DataArray>
        <DataArray type="Float64" Name="rhou">
          2.89449206e-02 2.75239934e-02 2.40585934e-02 2.85694983e-02 
        </DataArray>
        <DataArray type="Float64" Name="rhov">
          1.32553896e-02 1.06829491e-02 9.10242825e-03 8.60534378e-03 
        </DataArray>
        <DataArray type="Float64" Name="E">
          2.17360635e+05 2.15763663e+05 2.14267002e+05 2.12847566e+05 
        </DataArray>
      </PointData>
    </Piece>
    <Piece NumberOfPoints="4" NumberOfCells="3">
      <Points>
        <DataArray type="Float64" NumberOfComponents="3" format="ascii">
          9.98597518e-02 4.67394181e-02 0.00000000e+00 
1.10118888e-01 4.83862534e-02 0.00000000e+00 
1.20400399e-01 4.98730615e-02 0.00000000e+00 
1.30701363e-01 5.12186773e-02 0.00000000e+00 

        </DataArray>
      </Points>
      <Cells>
        <DataArray type="Int32" Name="connectivity" format="ascii">
0 1
1 2
2 3

        </DataArray>
        <DataArray type="Int32" Name="offsets" format="ascii">
2 4 6 
        </DataArray>
        <DataArray type="UInt8" Name="types" format="ascii">
3 3 3 
        </DataArray>
      </Cells>
      <PointData>
        <DataArray type="Float64" Name="rho">
          9.37022910e-01 9.23061768e-01 9.11018232e-01 9.00665927e-01 
        </DataArray>
        <DataArray type="Float64" Name="rhou">
          2.63022787e-02 1.81388046e-02 1.60122309e-02 1.25520600e-02 
        </DataArray>
        <DataArray type="Float64" Name="rhov">
          7.37270130e-03 4.15037625e-03 3.64388045e-03 2.97471790e-03 
        </DataArray>
        <DataArray type="Float64" Name="E">
          2.12831169e+05 2.09524420e+05 2.06675345e+05 2.04228996e+05 
        </DataArray>
      </PointData>
    </Piece>
    <Piece NumberOfPoints="4" NumberOfCells="3">
      <Points>
        <DataArray type="Float64" NumberOfComponents="3" format="ascii">
          1.30701363e-01 5.12186773e-02 0.00000000e+00 
1.41019106e-01 5.24347536e-02 0.00000000e+00 
1.51350453e-01 5.35292812e-02 0.00000000e+00 
1.61692888e-01 5.45137413e-02 0.00000000e+00 

        </DataArray>
      </Points>
      <Cells>
        <DataArray type="Int32" Name="connectivity" format="ascii">
0 1
1 2
2 3

        </DataArray>
        <DataArray type="Int32" Name="offsets" format="ascii">
2 4 6 
        </DataArray>
        <DataArray type="UInt8" Name="types" format="ascii">
3 3 3 
        </DataArray>
      </Cells>
      <PointData>
        <DataArray type="Float64" Name="rho">
          9.00662440e-01 8.91574865e-01 8.83727599e-01 8.77012448e-01 
        </DataArray>
        <DataArray type="Float64" Name="rhou">
          1.39313540e-02 1.20365750e-02 9.96423193e-03 8.69988892e-03 
        </DataArray>
        <DataArray type="Float64" Name="rhov">
          3.47296248e-03 2.54951320e-03 1.77438339e-03 1.59920660e-03 
        </DataArray>
        <DataArray type="Float64" Name="E">
          2.04228159e+05 2.02084060e+05 2.00235026e+05 1.98654468e+05 
        </DataArray>
      </PointData>
    </Piece>
    <Piece NumberOfPoints="4" NumberOfCells="3">
      <Points>
        <DataArray type="Float64" NumberOfComponents="3" format="ascii">
          1.61692888e-01 5.45137413e-02 0.00000000e+00 
1.72044471e-01 5.53969070e-02 0.00000000e+00 
1.82403773e-01 5.61845005e-02 0.00000000e+00 
1.92769483e-01 5.68825118e-02 0.00000000e+00 

        </DataArray>
      </Points>
      <Cells>
        <DataArray type="Int32" Name="connectivity" format="ascii">
0 1
1 2
2 3

        </DataArray>
        <DataArray type="Int32" Name="offsets" format="ascii">
2 4 6 
        </DataArray>
        <DataArray type="UInt8" Name="types" format="ascii">
3 3 3 
        </DataArray>
      </Cells>
      <PointData>
        <DataArray type="Float64" Name="rho">
          8.77010045e-01 8.71232151e-01 8.66301024e-01 8.62164113e-01 
        </DataArray>
        <DataArray type="Float64" Name="rhou">
          8.73653212e-03 7.60623967e-03 6.57269963e-03 5.67083995e-03 
        </DataArray>
        <DataArray type="Float64" Name="rhov">
          1.65070122e-03 1.28701232e-03 9.09578961e-04 6.81357295e-04 
        </DataArray>
        <DataArray type="Float64" Name="E">
          1.98653929e+05 1.97295926e+05 1.96138972e+05 1.95170138e+05 
        </DataArray>
      </PointData>
    </Piece>
    <Piece NumberOfPoints="4" NumberOfCells="3">
      <Points>
        <DataArray type="Float64" NumberOfComponents="3" format="ascii">
          1.92769483e-01 5.68825118e-02 0.00000000e+00 
2.03140482e-01 5.74972220e-02 0.00000000e+00 
2.13515818e-01 5.80338500e-02 0.00000000e+00 
2.23894730e-01 5.84962890e-02 0.00000000e+00 

        </DataArray>
      </Points>
      <Cells>
        <DataArray type="Int32" Name="connectivity" format="ascii">
0 1
1 2
2 3

        </DataArray>
        <DataArray type="Int32" Name="offsets" format="ascii">
2 4 6 
        </DataArray>
        <DataArray type="UInt8" Name="types" format="ascii">
3 3 3 
        </DataArray>
      </Cells>
      <PointData>
        <DataArray type="Float64" Name="rho">
          8.62163424e-01 8.58741107e-01 8.55949474e-01 8.53730278e-01 
        </DataArray>
        <DataArray type="Float64" Name="rhou">
          5.70745943e-03 4.98657705e-03 4.43069780e-03 3.97067311e-03 
        </DataArray>
        <DataArray type="Float64" Name="rhov">
          7.22620698e-04 6.33181850e-04 5.17907403e-04 3.95365887e-04 
        </DataArray>
        <DataArray type="Float64" Name="E">
          1.95169980e+05 1.94370180e+05 1.93719674e+05 1.93204598e+05 
        </DataArray>
      </PointData>
    </Piece>
    <Piece NumberOfPoints="4" NumberOfCells="3">
      <Points>
        <DataArray type="Float64" NumberOfComponents="3" format="ascii">
          2.23894730e-01 5.84962890e-02 0.00000000e+00 
2.34276548e-01 5.88882305e-02 0.00000000e+00 
2.44660646e-01 5.92139624e-02 0.00000000e+00 
2.55046517e-01 5.94772622e-02 0.00000000e+00 

        </DataArray>
      </Points>
      <Cells>
        <DataArray type="Int32" Name="connectivity" format="ascii">
0 1
1 2
2 3

        </DataArray>
        <DataArray type="Int32" Name="offsets" format="ascii">
2 4 6 
        </DataArray>
        <DataArray type="UInt8" Name="types" format="ascii">
3 3 3 
        </DataArray>
      </Cells>
      <PointData>
        <DataArray type="Float64" Name="rho">
          8.53730847e-01 8.52041844e-01 8.50838541e-01 8.50065555e-01 
        </DataArray>
        <DataArray type="Float64" Name="rhou">
          3.97832019e-03 3.45776729e-03 3.08025680e-03 2.85118813e-03 
        </DataArray>
        <DataArray type="Float64" Name="rhov">
          4.09697693e-04 3.31940163e-04 3.14793394e-04 3.13398115e-04 
        </DataArray>
        <DataArray type="Float64" Name="E">
          1.93204728e+05 1.92814889e+05 1.92539670e+05 1.92366016e+05 
        </DataArray>
      </PointData>
    </Piece>
    <Piece NumberOfPoints="4" NumberOfCells="3">
      <Points>
        <DataArray type="Float64" NumberOfComponents="3" format="ascii">
          2.55046517e-01 5.94772622e-02 0.00000000e+00 
2.65433758e-01 5.96804135e-02 0.00000000e+00 
2.75821954e-01 5.98256700e-02 0.00000000e+00 
2.86210775e-01 5.99167012e-02 0.00000000e+00 

        </DataArray>
      </Points>
      <Cells>
        <DataArray type="Int32" Name="connectivity" format="ascii">
0 1
1 2
2 3

        </DataArray>
        <DataArray type="Int32" Name="offsets" format="ascii">
2 4 6 
        </DataArray>
        <DataArray type="UInt8" Name="types" format="ascii">
3 3 3 
        </DataArray>
      </Cells>
      <PointData>
        <DataArray type="Float64" Name="rho">
          8.50065567e-01 8.49674582e-01 8.49640833e-01 8.49943824e-01 
        </DataArray>
        <DataArray type="Float64" Name="rhou">
          2.84549801e-03 2.55944263e-03 2.26647515e-03 2.00386406e-03 
        </DataArray>
        <DataArray type="Float64" Name="rhov">
          3.24654586e-04 2.29547742e-04 1.71522124e-04 2.05196128e-04 
        </DataArray>
        <DataArray type="Float64" Name="E">
          1.92366022e+05 1.92282566e+05 1.92283367e+05 1.92363377e+05 
        </DataArray>
      </PointData>
    </Piece>
    <Piece NumberOfPoints="4" NumberOfCells="3">
      <Points>
        <DataArray type="Float64" NumberOfComponents="3" format="ascii">
          2.86210775e-01 5.99167012e-02 0.00000000e+00 
2.96599895e-01 5.99572174e-02 0.00000000e+00 
3.06989133e-01 5.99487796e-02 0.00000000e+00 
3.17378193e-01 5.98919280e-02 0.00000000e+00 

        </DataArray>
      </Points>
      <Cells>
        <DataArray type="Int32" Name="connectivity" format="ascii">
0 1
1 2
2 3

        </DataArray>
        <DataArray type="Int32" Name="offsets" format="ascii">
2 4 6 
        </DataArray>
        <DataArray type="UInt8" Name="types" format="ascii">
3 3 3 
        </DataArray>
      </Cells>
      <PointData>
        <DataArray type="Float64" Name="rho">
          8.49942806e-01 8.50533393e-01 8.51364746e-01 8.52421658e-01 
        </DataArray>
        <DataArray type="Float64" Name="rhou">
          2.02268263e-03 1.90767202e-03 1.78184063e-03 1.60093475e-03 
        </DataArray>
        <DataArray type="Float64" Name="rhov">
          2.21495005e-04 2.48497271e-04 1.94455500e-04 1.20459206e-04 
        </DataArray>
        <DataArray type="Float64" Name="E">
          1.92363146e+05 1.92510822e+05 1.92715325e+05 1.92972993e+05 
        </DataArray>
      </PointData>
    </Piece>
    <Piece NumberOfPoints="4" NumberOfCells="3">
      <Points>
        <DataArray type="Float64" NumberOfComponents="3" format="ascii">
          3.17378193e-01 5.98919280e-02 0.00000000e+00 
3.27766895e-01 5.97884916e-02 0.00000000e+00 
3.38155061e-01 5.96415885e-02 0.00000000e+00 
3.48542601e-01 5.94538599e-02 0.00000000e+00 

        </DataArray>
      </Points>
      <Cells>
        <DataArray type="Int32" Name="connectivity" format="ascii">
0 1
1 2
2 3

        </DataArray>
        <DataArray type="Int32" Name="offsets" format="ascii">
2 4 6 
        </DataArray>
        <DataArray type="UInt8" Name="types" format="ascii">
3 3 3 
        </DataArray>
      </Cells>
      <PointData>
        <DataArray type="Float64" Name="rho">
          8.52422003e-01 8.53691595e-01 8.55153530e-01 8.56774889e-01 
        </DataArray>
        <DataArray type="Float64" Name="rhou">
          1.63026355e-03 1.43528053e-03 1.31915735e-03 1.27291878e-03 
        </DataArray>
        <DataArray type="Float64" Name="rhov">
          1.28091179e-04 1.16755697e-04 1.42231568e-04 1.62694622e-04 
        </DataArray>
        <DataArray type="Float64" Name="E">
          1.92973071e+05 1.93280749e+05 1.93633583e+05 1.94023883e+05 
        </DataArray>
      </PointData>
    </Piece>
    <Piece NumberOfPoints="4" NumberOfCells="3">
      <Points>
        <DataArray type="Float64" NumberOfComponents="3" format="ascii">
          3.48542601e-01 5.94538599e-02 0.00000000e+00 
3.58929336e-01 5.92265576e-02 0.00000000e+00 
3.69315147e-01 5.89610897e-02 0.00000000e+00 
3.79699975e-01 5.86590059e-02 0.00000000e+00 

        </DataArray>
      </Points>
      <Cells>
        <DataArray type="Int32" Name="connectivity" format="ascii">
0 1
1 2
2 3

        </DataArray>
        <DataArray type="Int32" Name="offsets" format="ascii">
2 4 6 
        </DataArray>
        <DataArray type="UInt8" Name="types" format="ascii">
3 3 3 
        </DataArray>
      </Cells>
      <PointData>
        <DataArray type="Float64" Name="rho">
          8.56775135e-01 8.58530354e-01 8.60409582e-01 8.62392839e-01 
        </DataArray>
        <DataArray type="Float64" Name="rhou">
          1.28514972e-03 1.16197393e-03 1.06882313e-03 1.02104638e-03 
        </DataArray>
        <DataArray type="Float64" Name="rhov">
          1.59626568e-04 1.23682395e-04 1.16181951e-04 1.14527468e-04 
        </DataArray>
        <DataArray type="Float64" Name="E">
          1.94023940e+05 1.94445726e+05 1.94896608e+05 1.95371910e+05 
        </DataArray>
      </PointData>
    </Piece>
    <Piece NumberOfPoints="4" NumberOfCells="3">
      <Points>
        <DataArray type="Float64" NumberOfComponents="3" format="ascii">
          3.79699975e-01 5.86590059e-02 0.00000000e+00 
3.90083700e-01 5.83211333e-02 0.00000000e+00 
4.00466233e-01 5.79482466e-02 0.00000000e+00 
4.10847515e-01 5.75418957e-02 0.00000000e+00 

        </DataArray>
      </Points>
      <Cells>
        <DataArray type="Int32" Name="connectivity" format="ascii">
0 1
1 2
2 3

        </DataArray>
        <DataArray type="Int32" Name="offsets" format="ascii">
2 4 6 
        </DataArray>
        <DataArray type="UInt8" Name="types" format="ascii">
3 3 3 
        </DataArray>
      </Cells>
      <PointData>
        <DataArray type="Float64" Name="rho">
          8.62392851e-01 8.64463157e-01 8.66610447e-01 8.68828008e-01 
        </DataArray>
        <DataArray type="Float64" Name="rhou">
          1.01338960e-03 9.49657853e-04 8.71591192e-04 7.96314919e-04 
        </DataArray>
        <DataArray type="Float64" Name="rhov">
          1.16956249e-04 8.67156552e-05 6.39465371e-05 6.91750040e-05 
        </DataArray>
        <DataArray type="Float64" Name="E">
          1.95371913e+05 1.95867659e+05 1.96381462e+05 1.96911687e+05 
        </DataArray>
      </PointData>
    </Piece>
    <Piece NumberOfPoints="4" NumberOfCells="3">
      <Points>
        <DataArray type="Float64" NumberOfComponents="3" format="ascii">
          4.10847515e-01 5.75418957e-02 0.00000000e+00 
4.21227485e-01 5.71038015e-02 0.00000000e+00 
4.31606144e-01 5.66351078e-02 0.00000000e+00 
4.41983402e-01 5.61364293e-02 0.00000000e+00 

        </DataArray>
      </Points>
      <Cells>
        <DataArray type="Int32" Name="connectivity" format="ascii">
0 1
1 2
2 3

        </DataArray>
        <DataArray type="Int32" Name="offsets" format="ascii">
2 4 6 
        </DataArray>
        <DataArray type="UInt8" Name="types" format="ascii">
3 3 3 
        </DataArray>
      </Cells>
      <PointData>
        <DataArray type="Float64" Name="rho">
          8.68827809e-01 8.71099956e-01 8.73414946e-01 8.75763013e-01 
        </DataArray>
        <DataArray type="Float64" Name="rhou">
          8.12750102e-04 7.61645793e-04 7.22984622e-04 6.86291508e-04 
        </DataArray>
        <DataArray type="Float64" Name="rhov">
          7.25921876e-05 7.25740554e-05 6.29283176e-05 4.19812506e-05 
        </DataArray>
        <DataArray type="Float64" Name="E">
          1.96911642e+05 1.97454621e+05 1.98007607e+05 1.98568312e+05 
        </DataArray>
      </PointData>
    </Piece>
    <Piece NumberOfPoints="4" NumberOfCells="3">
      <Points>
        <DataArray type="Float64" NumberOfComponents="3" format="ascii">
          4.41983402e-01 5.61364293e-02 0.00000000e+00 
4.52359200e-01 5.56085743e-02 0.00000000e+00 
4.62733537e-01 5.50529286e-02 0.00000000e+00 
4.73106444e-01 5.44707514e-02 0.00000000e+00 

        </DataArray>
      </Points>
      <Cells>
        <DataArray type="Int32" Name="connectivity" format="ascii">
0 1
1 2
2 3

        </DataArray>
        <DataArray type="Int32" Name="offsets" format="ascii">
2 4 6 
        </DataArray>
        <DataArray type="UInt8" Name="types" format="ascii">
3 3 3 
        </DataArray>
      </Cells>
      <PointData>
        <DataArray type="Float64" Name="rho">
          8.75763154e-01 8.78139733e-01 8.80538274e-01 8.82950236e-01 
        </DataArray>
        <DataArray type="Float64" Name="rhou">
          6.83304923e-04 6.28010935e-04 5.88484058e-04 5.65352991e-04 
        </DataArray>
        <DataArray type="Float64" Name="rhov">
          4.26320386e-05 3.51651592e-05 3.55193468e-05 3.56408024e-05 
        </DataArray>
        <DataArray type="Float64" Name="E">
          1.98568344e+05 1.99135660e+05 1.99708035e+05 2.00283471e+05 
        </DataArray>
      </PointData>
    </Piece>
    <Piece NumberOfPoints="4" NumberOfCells="3">
      <Points>
        <DataArray type="Float64" NumberOfComponents="3" format="ascii">
          4.73106444e-01 5.44707514e-02 0.00000000e+00 
4.83477861e-01 5.38627952e-02 0.00000000e+00 
4.93847787e-01 5.32294959e-02 0.00000000e+00 
5.04216135e-01 5.25716618e-02 0.00000000e+00 

        </DataArray>
      </Points>
      <Cells>
        <DataArray type="Int32" Name="connectivity" format="ascii">
0 1
1 2
2 3

        </DataArray>
        <DataArray type="Int32" Name="offsets" format="ascii">
2 4 6 
        </DataArray>
        <DataArray type="UInt8" Name="types" format="ascii">
3 3 3 
        </DataArray>
      </Cells>
      <PointData>
        <DataArray type="Float64" Name="rho">
          8.82950223e-01 8.85368690e-01 8.87788225e-01 8.90207623e-01 
        </DataArray>
        <DataArray type="Float64" Name="rhou">
          5.57808624e-04 5.37168708e-04 5.02510339e-04 4.61419584e-04 
        </DataArray>
        <DataArray type="Float64" Name="rhov">
          3.74437781e-05 2.60760032e-05 1.12948409e-05 8.63112240e-06 
        </DataArray>
        <DataArray type="Float64" Name="E">
          2.00283469e+05 2.00860347e+05 2.01437396e+05 2.02014301e+05 
        </DataArray>
      </PointData>
    </Piece>
    <Piece NumberOfPoints="4" NumberOfCells="3">
      <Points>
        <DataArray type="Float64" NumberOfComponents="3" format="ascii">
          5.04216135e-01 5.25716618e-02 0.00000000e+00 
5.14582992e-01 5.18903993e-02 0.00000000e+00 
5.24948359e-01 5.11864908e-02 0.00000000e+00 
5.35312176e-01 5.04603274e-02 0.00000000e+00 

        </DataArray>
      </Points>
      <Cells>
        <DataArray type="Int32" Name="connectivity" format="ascii">
0 1
1 2
2 3

        </DataArray>
        <DataArray type="Int32" Name="offsets" format="ascii">
2 4 6 
        </DataArray>
        <DataArray type="UInt8" Name="types" format="ascii">
3 3 3 
        </DataArray>
      </Cells>
      <PointData>
        <DataArray type="Float64" Name="rho">
          8.90207538e-01 8.92621350e-01 8.95025079e-01 8.97415216e-01 
        </DataArray>
        <DataArray type="Float64" Name="rhou">
          4.69862756e-04 4.44193286e-04 4.24856316e-04 4.05912388e-04 
        </DataArray>
        <DataArray type="Float64" Name="rhov">
          1.07821505e-05 1.03161878e-05 4.87355147e-06 -6.89049338e-06 
        </DataArray>
        <DataArray type="Float64" Name="E">
          2.02014282e+05 2.02589769e+05 2.03162791e+05 2.03732524e+05 
        </DataArray>
      </PointData>
    </Piece>
    <Piece NumberOfPoints="4" NumberOfCells="3">
      <Points>
        <DataArray type="Float64" NumberOfComponents="3" format="ascii">
          5.35312176e-01 5.04603274e-02 0.00000000e+00 
5.45674443e-01 4.97124642e-02 0.00000000e+00 
5.56035221e-01 4.89437394e-02 0.00000000e+00 
5.66394389e-01 4.81546782e-02 0.00000000e+00 

        </DataArray>
      </Points>
      <Cells>
        <DataArray type="Int32" Name="connectivity" format="ascii">
0 1
1 2
2 3

        </DataArray>
        <DataArray type="Int32" Name="offsets" format="ascii">
2 4 6 
        </DataArray>
        <DataArray type="UInt8" Name="types" format="ascii">
3 3 3 
        </DataArray>
      </Cells>
      <PointData>
        <DataArray type="Float64" Name="rho">
          8.97415260e-01 8.99791080e-01 9.02149648e-01 9.04488092e-01 
        </DataArray>
        <DataArray type="Float64" Name="rhou">
          4.01693293e-04 3.75793331e-04 3.57806040e-04 3.46401596e-04 
        </DataArray>
        <DataArray type="Float64" Name="rhov">
          -6.60043429e-06 -7.42255926e-06 -8.25546135e-06 -1.25379996e-05 
        </DataArray>
        <DataArray type="Float64" Name="E">
          2.03732535e+05 2.04298795e+05 2.04860896e+05 2.05418171e+05 
        </DataArray>
      </PointData>
    </Piece>
    <Piece NumberOfPoints="4" NumberOfCells="3">
      <Points>
        <DataArray type="Float64" NumberOfComponents="3" format="ascii">
          5.66394389e-01 4.81546782e-02 0.00000000e+00 
5.76752067e-01 4.73455116e-02 0.00000000e+00 
5.87108195e-01 4.65166979e-02 0.00000000e+00 
5.97462773e-01 4.56690118e-02 0.00000000e+00 

        </DataArray>
      </Points>
      <Cells>
        <DataArray type="Int32" Name="connectivity" format="ascii">
0 1
1 2
2 3

        </DataArray>
        <DataArray type="Int32" Name="offsets" format="ascii">
2 4 6 
        </DataArray>
        <DataArray type="UInt8" Name="types" format="ascii">
3 3 3 
        </DataArray>
      </Cells>
      <PointData>
        <DataArray type="Float64" Name="rho">
          9.04488120e-01 9.06804748e-01 9.09099214e-01 9.11370615e-01 
        </DataArray>
        <DataArray type="Float64" Name="rhou">
          3.45713983e-04 3.25832022e-04 3.05280803e-04 2.89716642e-04 
        </DataArray>
        <DataArray type="Float64" Name="rhov">
          -1.21977676e-05 -2.08003952e-05 -2.44003701e-05 -2.33354236e-05 
        </DataArray>
        <DataArray type="Float64" Name="E">
          2.05418177e+05 2.05970229e+05 2.06516968e+05 2.07058178e+05 
        </DataArray>
      </PointData>
    </Piece>
    <Piece NumberOfPoints="4" NumberOfCells="3">
      <Points>
        <DataArray type="Float64" NumberOfComponents="3" format="ascii">
          5.97462773e-01 4.56690118e-02 0.00000000e+00 
6.07815862e-01 4.48031016e-02 0.00000000e+00 
6.18167400e-01 4.39192392e-02 0.00000000e+00 
6.28517449e-01 4.30175588e-02 0.00000000e+00 

        </DataArray>
      </Points>
      <Cells>
        <DataArray type="Int32" Name="connectivity" format="ascii">
0 1
1 2
2 3

        </DataArray>
        <DataArray type="Int32" Name="offsets" format="ascii">
2 4 6 
        </DataArray>
        <DataArray type="UInt8" Name="types" format="ascii">
3 3 3 
        </DataArray>
      </Cells>
      <PointData>
        <DataArray type="Float64" Name="rho">
          9.11370553e-01 9.13617021e-01 9.15836776e-01 9.18029977e-01 
        </DataArray>
        <DataArray type="Float64" Name="rhou">
          2.87805563e-04 2.79450551e-04 2.67862037e-04 2.51156590e-04 
        </DataArray>
        <DataArray type="Float64" Name="rhov">
          -2.24174506e-05 -2.29901537e-05 -2.86162848e-05 -3.39954414e-05 
        </DataArray>
        <DataArray type="Float64" Name="E">
          2.07058164e+05 2.07593412e+05 2.08122290e+05 2.08644828e+05 
        </DataArray>
      </PointData>
    </Piece>
    <Piece NumberOfPoints="4" NumberOfCells="3">
      <Points>
        <DataArray type="Float64" NumberOfComponents="3" format="ascii">
          6.28517449e-01 4.30175588e-02 0.00000000e+00 
6.38865948e-01 4.20984775e-02 0.00000000e+00 
6.49212897e-01 4.11624312e-02 0.00000000e+00 
6.59558356e-01 4.02097441e-02 0.00000000e+00 

        </DataArray>
      </Points>
      <Cells>
        <DataArray type="Int32" Name="connectivity" format="ascii">
0 1
1 2
2 3

        </DataArray>
        <DataArray type="Int32" Name="offsets" format="ascii">
2 4 6 
        </DataArray>
        <DataArray type="UInt8" Name="types" format="ascii">
3 3 3 
        </DataArray>
      </Cells>
      <PointData>
        <DataArray type="Float64" Name="rho">
          9.18029969e-01 9.20196441e-01 9.22335371e-01 9.24446469e-01 
        </DataArray>
        <DataArray type="Float64" Name="rhou">
          2.52106882e-04 2.39742766e-04 2.29193683e-04 2.17871383e-04 
        </DataArray>
        <DataArray type="Float64" Name="rhov">
          -3.29894548e-05 -3.37860995e-05 -3.57202877e-05 -3.80252296e-05 
        </DataArray>
        <DataArray type="Float64" Name="E">
          2.08644826e+05 2.09160981e+05 2.09670565e+05 2.10173510e+05 
        </DataArray>
      </PointData>
    </Piece>
    <Piece NumberOfPoints="4" NumberOfCells="3">
      <Points>
        <DataArray type="Float64" NumberOfComponents="3" format="ascii">
          6.59558356e-01 4.02097441e-02 0.00000000e+00 
6.69902325e-01 3.92407738e-02 0.00000000e+00 
6.80244744e-01 3.82556282e-02 0.00000000e+00 
6.90585554e-01 3.72543521e-02 0.00000000e+00 

        </DataArray>
      </Points>
      <Cells>
        <DataArray type="Int32" Name="connectivity" format="ascii">
0 1
1 2
2 3

        </DataArray>
        <DataArray type="Int32" Name="offsets" format="ascii">
2 4 6 
        </DataArray>
        <DataArray type="UInt8" Name="types" format="ascii">
3 3 3 
        </DataArray>
      </Cells>
      <PointData>
        <DataArray type="Float64" Name="rho">
          9.24446453e-01 9.26529742e-01 9.28584130e-01 9.30610428e-01 
        </DataArray>
        <DataArray type="Float64" Name="rhou">
          2.14713282e-04 2.09972465e-04 2.01703043e-04 1.87575565e-04 
        </DataArray>
        <DataArray type="Float64" Name="rhov">
          -3.70039993e-05 -3.70974248e-05 -4.15994399e-05 -4.53003405e-05 
        </DataArray>
        <DataArray type="Float64" Name="E">
          2.10173506e+05 2.10669816e+05 2.11159242e+05 2.11641969e+05 
        </DataArray>
      </PointData>
    </Piece>
    <Piece NumberOfPoints="4" NumberOfCells="3">
      <Points>
        <DataArray type="Float64" NumberOfComponents="3" format="ascii">
          6.90585554e-01 3.72543521e-02 0.00000000e+00 
7.00924933e-01 3.62373814e-02 0.00000000e+00 
7.11262703e-01 3.52048986e-02 0.00000000e+00 
7.21598923e-01 3.41568366e-02 0.00000000e+00 

        </DataArray>
      </Points>
      <Cells>
        <DataArray type="Int32" Name="connectivity" format="ascii">
0 1
1 2
2 3

        </DataArray>
        <DataArray type="Int32" Name="offsets" format="ascii">
2 4 6 
        </DataArray>
        <DataArray type="UInt8" Name="types" format="ascii">
3 3 3 
        </DataArray>
      </Cells>
      <PointData>
        <DataArray type="Float64" Name="rho">
          9.30610386e-01 9.32609028e-01 9.34578879e-01 9.36520611e-01 
        </DataArray>
        <DataArray type="Float64" Name="rhou">
          1.86218050e-04 1.81389776e-04 1.76396438e-04 1.63803083e-04 
        </DataArray>
        <DataArray type="Float64" Name="rhov">
          -4.41979508e-05 -4.18608564e-05 -4.52502039e-05 -5.00242103e-05 
        </DataArray>
        <DataArray type="Float64" Name="E">
          2.11641959e+05 2.12118084e+05 2.12587351e+05 2.13049911e+05 
        </DataArray>
      </PointData>
    </Piece>
    <Piece NumberOfPoints="4" NumberOfCells="3">
      <Points>
        <DataArray type="Float64" NumberOfComponents="3" format="ascii">
          7.21598923e-01 3.41568366e-02 0.00000000e+00 
7.31933594e-01 3.30936089e-02 0.00000000e+00 
7.42266715e-01 3.20154354e-02 0.00000000e+00 
7.52598286e-01 3.09220124e-02 0.00000000e+00 

        </DataArray>
      </Points>
      <Cells>
        <DataArray type="Int32" Name="connectivity" format="ascii">
0 1
1 2
2 3

        </DataArray>
        <DataArray type="Int32" Name="offsets" format="ascii">
2 4 6 
        </DataArray>
        <DataArray type="UInt8" Name="types" format="ascii">
3 3 3 
        </DataArray>
      </Cells>
      <PointData>
        <DataArray type="Float64" Name="rho">
          9.36520591e-01 9.38435255e-01 9.40321584e-01 9.42180135e-01 
        </DataArray>
        <DataArray type="Float64" Name="rhou">
          1.61211810e-04 1.57225031e-04 1.54456000e-04 1.44448558e-04 
        </DataArray>
        <DataArray type="Float64" Name="rhov">
          -4.90694838e-05 -4.47877216e-05 -4.71372869e-05 -5.22677276e-05 
        </DataArray>
        <DataArray type="Float64" Name="E">
          2.13049906e+05 2.13505999e+05 2.13955338e+05 2.14398049e+05 
        </DataArray>
      </PointData>
    </Piece>
    <Piece NumberOfPoints="4" NumberOfCells="3">
      <Points>
        <DataArray type="Float64" NumberOfComponents="3" format="ascii">
          7.52598286e-01 3.09220124e-02 0.00000000e+00 
7.62928188e-01 2.98135038e-02 0.00000000e+00 
7.73256481e-01 2.86899786e-02 0.00000000e+00 
7.83583105e-01 2.75512449e-02 0.00000000e+00 

        </DataArray>
      </Points>
      <Cells>
        <DataArray type="Int32" Name="connectivity" format="ascii">
0 1
1 2
2 3

        </DataArray>
        <DataArray type="Int32" Name="offsets" format="ascii">
2 4 6 
        </DataArray>
        <DataArray type="UInt8" Name="types" format="ascii">
3 3 3 
        </DataArray>
      </Cells>
      <PointData>
        <DataArray type="Float64" Name="rho">
          9.42180130e-01 9.44012078e-01 9.45816690e-01 9.47594704e-01 
        </DataArray>
        <DataArray type="Float64" Name="rhou">
          1.41933987e-04 1.38283327e-04 1.34503142e-04 1.25382433e-04 
        </DataArray>
        <DataArray type="Float64" Name="rhov">
          -5.13664868e-05 -4.92198979e-05 -5.14917706e-05 -5.47764800e-05 
        </DataArray>
        <DataArray type="Float64" Name="E">
          2.14398048e+05 2.14834400e+05 2.15264225e+05 2.15687689e+05 
        </DataArray>
      </PointData>
    </Piece>
    <Piece NumberOfPoints="4" NumberOfCells="3">
      <Points>
        <DataArray type="Float64" NumberOfComponents="3" format="ascii">
          7.83583105e-01 2.75512449e-02 0.00000000e+00 
7.93908060e-01 2.63975188e-02 0.00000000e+00 
8.04231405e-01 2.52291560e-02 0.00000000e+00 
8.14553022e-01 2.40457114e-02 0.00000000e+00 

        </DataArray>
      </Points>
      <Cells>
        <DataArray type="Int32" Name="connectivity" format="ascii">
0 1
1 2
2 3

        </DataArray>
        <DataArray type="Int32" Name="offsets" format="ascii">
2 4 6 
        </DataArray>
        <DataArray type="UInt8" Name="types" format="ascii">
3 3 3 
        </DataArray>
      </Cells>
      <PointData>
        <DataArray type="Float64" Name="rho">
          9.47594710e-01 9.49346930e-01 9.51073336e-01 9.52773361e-01 
        </DataArray>
        <DataArray type="Float64" Name="rhou">
          1.27891863e-04 1.17475136e-04 1.16425804e-04 1.17392116e-04 
        </DataArray>
        <DataArray type="Float64" Name="rhov">
          -5.51161799e-05 -5.16266933e-05 -5.05274578e-05 -5.69557562e-05 
        </DataArray>
        <DataArray type="Float64" Name="E">
          2.15687690e+05 2.16104975e+05 2.16516072e+05 2.16920851e+05 
        </DataArray>
      </PointData>
    </Piece>
    <Piece NumberOfPoints="4" NumberOfCells="3">
      <Points>
        <DataArray type="Float64" NumberOfComponents="3" format="ascii">
          8.14553022e-01 2.40457114e-02 0.00000000e+00 
8.24872792e-01 2.28467938e-02 0.00000000e+00 
8.35190892e-01 2.16327831e-02 0.00000000e+00 
8.45507145e-01 2.04038676e-02 0.00000000e+00 

        </DataArray>
      </Points>
      <Cells>
        <DataArray type="Int32" Name="connectivity" format="ascii">
0 1
1 2
2 3

        </DataArray>
        <DataArray type="Int32" Name="offsets" format="ascii">
2 4 6 
        </DataArray>
        <DataArray type="UInt8" Name="types" format="ascii">
3 3 3 
        </DataArray>
      </Cells>
      <PointData>
        <DataArray type="Float64" Name="rho">
          9.52773403e-01 9.54448727e-01 9.56099688e-01 9.57726492e-01 
        </DataArray>
        <DataArray type="Float64" Name="rhou">
          1.11657055e-04 1.03619993e-04 9.68131889e-05 9.74075594e-05 
        </DataArray>
        <DataArray type="Float64" Name="rhov">
          -5.72073589e-05 -5.72480293e-05 -5.46496493e-05 -5.10015301e-05 
        </DataArray>
        <DataArray type="Float64" Name="E">
          2.16920860e+05 2.17319696e+05 2.17712659e+05 2.18099788e+05 
        </DataArray>
      </PointData>
    </Piece>
    <Piece NumberOfPoints="4" NumberOfCells="3">
      <Points>
        <DataArray type="Float64" NumberOfComponents="3" format="ascii">
          8.45507145e-01 2.04038676e-02 0.00000000e+00 
8.55821550e-01 1.91591792e-02 0.00000000e+00 
8.66134048e-01 1.78987328e-02 0.00000000e+00 
8.76444638e-01 1.66228991e-02 0.00000000e+00 

        </DataArray>
      </Points>
      <Cells>
        <DataArray type="Int32" Name="connectivity" format="ascii">
0 1
1 2
2 3

        </DataArray>
        <DataArray type="Int32" Name="offsets" format="ascii">
2 4 6 
        </DataArray>
        <DataArray type="UInt8" Name="types" format="ascii">
3 3 3 
        </DataArray>
      </Cells>
      <PointData>
        <DataArray type="Float64" Name="rho">
          9.57726601e-01 9.59327987e-01 9.60907787e-01 9.62462655e-01 
        </DataArray>
        <DataArray type="Float64" Name="rhou">
          1.18223751e-04 8.75373945e-05 8.61682003e-05 1.01845172e-04 
        </DataArray>
        <DataArray type="Float64" Name="rhov">
          -5.45522753e-05 -6.19192301e-05 -5.95884973e-05 -7.71944994e-05 
        </DataArray>
        <DataArray type="Float64" Name="E">
          2.18099812e+05 2.18480810e+05 2.18856534e+05 2.19226211e+05 
        </DataArray>
      </PointData>
    </Piece>
    <Piece NumberOfPoints="4" NumberOfCells="3">
      <Points>
        <DataArray type="Float64" NumberOfComponents="3" format="ascii">
          8.76444638e-01 1.66228991e-02 0.00000000e+00 
8.86753201e-01 1.53310820e-02 0.00000000e+00 
8.97059798e-01 1.40233757e-02 0.00000000e+00 
9.07364249e-01 1.26988320e-02 0.00000000e+00 

        </DataArray>
      </Points>
      <Cells>
        <DataArray type="Int32" Name="connectivity" format="ascii">
0 1
1 2
2 3

        </DataArray>
        <DataArray type="Int32" Name="offsets" format="ascii">
2 4 6 
        </DataArray>
        <DataArray type="UInt8" Name="types" format="ascii">
3 3 3 
        </DataArray>
      </Cells>
      <PointData>
        <DataArray type="Float64" Name="rho">
          9.62462210e-01 9.63998759e-01 9.65509604e-01 9.67013360e-01 
        </DataArray>
        <DataArray type="Float64" Name="rhou">
          1.07199022e-05 1.02389561e-04 4.74159282e-05 -5.23909954e-06 
        </DataArray>
        <DataArray type="Float64" Name="rhov">
          -6.92783271e-05 -7.29577501e-05 -9.20118853e-05 5.87994301e-06 
        </DataArray>
        <DataArray type="Float64" Name="E">
          2.19226110e+05 2.19591234e+05 2.19950115e+05 2.20306994e+05 
        </DataArray>
      </PointData>
    </Piece>
    <Piece NumberOfPoints="4" NumberOfCells="3">
      <Points>
        <DataArray type="Float64" NumberOfComponents="3" format="ascii">
          9.07364249e-01 1.26988320e-02 0.00000000e+00 
9.17666554e-01 1.13577880e-02 0.00000000e+00 
9.27966774e-01 1.00004105e-02 0.00000000e+00 
9.38264549e-01 8.62528384e-03 0.00000000e+00 

        </DataArray>
      </Points>
      <Cells>
        <DataArray type="Int32" Name="connectivity" format="ascii">
0 1
1 2
2 3

        </DataArray>
        <DataArray type="Int32" Name="offsets" format="ascii">
2 4 6 
        </DataArray>
        <DataArray type="UInt8" Name="types" format="ascii">
3 3 3 
        </DataArray>
      </Cells>
      <PointData>
        <DataArray type="Float64" Name="rho">
          9.67018188e-01 9.68472789e-01 9.69950677e-01 9.71282275e-01 
        </DataArray>
        <DataArray type="Float64" Name="rhou">
          7.98547891e-04 -2.01989845e-04 3.44059160e-04 7.66446881e-04 
        </DataArray>
        <DataArray type="Float64" Name="rhov">
          -6.30296202e-05 -1.15848825e-04 -4.56164158e-05 -1.45184720e-03 
        </DataArray>
        <DataArray type="Float64" Name="E">
          2.20308092e+05 2.20653402e+05 2.21003692e+05 2.21320419e+05 
        </DataArray>
      </PointData>
    </Piece>
    <Piece NumberOfPoints="4" NumberOfCells="3">
      <Points>
        <DataArray type="Float64" NumberOfComponents="3" format="ascii">
          9.38264549e-01 8.62528384e-03 0.00000000e+00 
9.48560059e-01 7.23283459e-03 0.00000000e+00 
9.58853185e-01 5.82307298e-03 0.00000000e+00 
9.69143867e-01 4.39538015e-03 0.00000000e+00 

        </DataArray>
      </Points>
      <Cells>
        <DataArray type="Int32" Name="connectivity" format="ascii">
0 1
1 2
2 3

        </DataArray>
        <DataArray type="Int32" Name="offsets" format="ascii">
2 4 6 
        </DataArray>
        <DataArray type="UInt8" Name="types" format="ascii">
3 3 3 
        </DataArray>
      </Cells>
      <PointData>
        <DataArray type="Float64" Name="rho">
          9.71235108e-01 9.72883469e-01 9.74121449e-01 9.76793156e-01 
        </DataArray>
        <DataArray type="Float64" Name="rhou">
          -6.62487814e-03 2.12626796e-03 -3.12712459e-03 -1.88627779e-02 
        </DataArray>
        <DataArray type="Float64" Name="rhov">
          -1.07934058e-03 1.29985885e-04 -1.11795462e-03 1.87889505e-02 
        </DataArray>
        <DataArray type="Float64" Name="E">
          2.21309673e+05 2.21698491e+05 2.21993993e+05 2.22616755e+05 
        </DataArray>
      </PointData>
    </Piece>
    <Piece NumberOfPoints="4" NumberOfCells="3">
      <Points>
        <DataArray type="Float64" NumberOfComponents="3" format="ascii">
          9.69143867e-01 4.39538015e-03 0.00000000e+00 
9.79435980e-01 2.94816052e-03 0.00000000e+00 
9.89725590e-01 1.48259092e-03 0.00000000e+00 
1.00000000e+00 0.00000000e+00 0.00000000e+00 

        </DataArray>
      </Points>
      <Cells>
        <DataArray type="Int32" Name="connectivity" format="ascii">
0 1
1 2
2 3

        </DataArray>
        <DataArray type="Int32" Name="offsets" format="ascii">
2 4 6 
        </DataArray>
        <DataArray type="UInt8" Name="types" format="ascii">
3 3 3 
        </DataArray>
      </Cells>
      <PointData>
        <DataArray type="Float64" Name="rho">
          9.77085254e-01 9.76694268e-01 9.80480974e-01 9.70649501e-01 
        </DataArray>
        <DataArray type="Float64" Name="rhou">
          -1.51567474e-03 -9.46944743e-03 -3.72730528e-02 4.92820776e-01 
        </DataArray>
        <DataArray type="Float64" Name="rhov">
          2.10163947e-02 1.03338207e-03 5.19495007e-02 -1.36034453e-01 
        </DataArray>
        <DataArray type="Float64" Name="E">
          2.22683323e+05 2.22609109e+05 2.23488524e+05 2.21266649e+05 
        </DataArray>
      </PointData>
    </Piece>
    <Piece NumberOfPoints="4" NumberOfCells="3">
      <Points>
        <DataArray type="Float64" NumberOfComponents="3" format="ascii">
          9.69029665e-01 -4.41133138e-03 0.00000000e+00 
9.79355037e-01 -2.95961346e-03 0.00000000e+00 
9.89677846e-01 -1.48943183e-03 0.00000000e+00 
1.00000000e+00 0.00000000e+00 0.00000000e+00 

        </DataArray>
      </Points>
      <Cells>
        <DataArray type="Int32" Name="connectivity" format="ascii">
0 1
1 2
2 3

        </DataArray>
        <DataArray type="Int32" Name="offsets" format="ascii">
2 4 6 
        </DataArray>
        <DataArray type="UInt8" Name="types" format="ascii">
3 3 3 
        </DataArray>
      </Cells>
      <PointData>
        <DataArray type="Float64" Name="rho">
          9.75957443e-01 9.75627619e-01 9.79376213e-01 9.70807177e-01 
        </DataArray>
        <DataArray type="Float64" Name="rhou">
          -9.42350171e-04 -7.43302829e-03 -3.52903994e-02 4.53856682e-01 
        </DataArray>
        <DataArray type="Float64" Name="rhov">
          -2.32933302e-02 2.08334782e-03 -4.83909511e-02 1.41931612e-01 
        </DataArray>
        <DataArray type="Float64" Name="E">
          2.22433711e+05 2.22370921e+05 2.23238714e+05 2.21302452e+05 
        </DataArray>
      </PointData>
    </Piece>
    <Piece NumberOfPoints="4" NumberOfCells="3">
      <Points>
        <DataArray type="Float64" NumberOfComponents="3" format="ascii">
          9.38035965e-01 -8.65600072e-03 0.00000000e+00 
9.48369622e-01 -7.25875143e-03 0.00000000e+00 
9.58700895e-01 -5.84406452e-03 0.00000000e+00 
9.69029665e-01 -4.41133138e-03 0.00000000e+00 

        </DataArray>
      </Points>
      <Cells>
        <DataArray type="Int32" Name="connectivity" format="ascii">
0 1
1 2
2 3

        </DataArray>
        <DataArray type="Int32" Name="offsets" format="ascii">
2 4 6 
        </DataArray>
        <DataArray type="UInt8" Name="types" format="ascii">
3 3 3 
        </DataArray>
      </Cells>
      <PointData>
        <DataArray type="Float64" Name="rho">
          9.70267296e-01 9.71872786e-01 9.73082236e-01 9.75669332e-01 
        </DataArray>
        <DataArray type="Float64" Name="rhou">
          -6.24870502e-03 2.28701469e-03 -2.57877907e-03 -1.69434393e-02 
        </DataArray>
        <DataArray type="Float64" Name="rhov">
          1.08837564e-03 -1.68641997e-04 1.33054196e-03 -1.73197807e-02 
        </DataArray>
        <DataArray type="Float64" Name="E">
          2.21101576e+05 2.21479405e+05 2.21766792e+05 2.22368107e+05 
        </DataArray>
      </PointData>
    </Piece>
    <Piece NumberOfPoints="4" NumberOfCells="3">
      <Points>
        <DataArray type="Float64" NumberOfComponents="3" format="ascii">
          9.07021165e-01 -1.27432076e-02 0.00000000e+00 
9.17361677e-01 -1.13977119e-02 0.00000000e+00 
9.27700043e-01 -1.00357840e-02 0.00000000e+00 
9.38035965e-01 -8.65600072e-03 0.00000000e+00 

        </DataArray>
      </Points>
      <Cells>
        <DataArray type="Int32" Name="connectivity" format="ascii">
0 1
1 2
2 3

        </DataArray>
        <DataArray type="Int32" Name="offsets" format="ascii">
2 4 6 
        </DataArray>
        <DataArray type="UInt8" Name="types" format="ascii">
3 3 3 
        </DataArray>
      </Cells>
      <PointData>
        <DataArray type="Float64" Name="rho">
          9.66191311e-01 9.67591466e-01 9.69021359e-01 9.70313348e-01 
        </DataArray>
        <DataArray type="Float64" Name="rhou">
          9.21668467e-04 -5.86712037e-05 4.98288595e-04 8.88415022e-04 
        </DataArray>
        <DataArray type="Float64" Name="rhov">
          5.06453576e-05 7.73526156e-05 -8.11467576e-06 1.37088500e-03 
        </DataArray>
        <DataArray type="Float64" Name="E">
          2.20134393e+05 2.20466635e+05 2.20805260e+05 2.21112062e+05 
        </DataArray>
      </PointData>
    </Piece>
    <Piece NumberOfPoints="4" NumberOfCells="3">
      <Points>
        <DataArray type="Float64" NumberOfComponents="3" format="ascii">
          8.75986874e-01 -1.66798849e-02 0.00000000e+00 
8.86333704e-01 -1.53839625e-02 0.00000000e+00 
8.96678507e-01 -1.40720531e-02 0.00000000e+00 
9.07021165e-01 -1.27432076e-02 0.00000000e+00 

        </DataArray>
      </Points>
      <Cells>
        <DataArray type="Int32" Name="connectivity" format="ascii">
0 1
1 2
2 3

        </DataArray>
        <DataArray type="Int32" Name="offsets" format="ascii">
2 4 6 
        </DataArray>
        <DataArray type="UInt8" Name="types" format="ascii">
3 3 3 
        </DataArray>
      </Cells>
      <PointData>
        <DataArray type="Float64" Name="rho">
          9.61867833e-01 9.63315967e-01 9.64750045e-01 9.66186477e-01 
        </DataArray>
        <DataArray type="Float64" Name="rhou">
          1.62479825e-04 2.41298155e-04 1.94115614e-04 1.42604685e-04 
        </DataArray>
        <DataArray type="Float64" Name="rhov">
          6.84235530e-05 6.01834132e-05 7.51785088e-05 -1.73977587e-05 
        </DataArray>
        <DataArray type="Float64" Name="E">
          2.19107745e+05 2.19451827e+05 2.19792444e+05 2.20133294e+05 
        </DataArray>
      </PointData>
    </Piece>
    <Piece NumberOfPoints="4" NumberOfCells="3">
      <Points>
        <DataArray type="Float64" NumberOfComponents="3" format="ascii">
          8.44934702e-01 -2.04724707e-02 0.00000000e+00 
8.55287313e-01 -1.92240477e-02 0.00000000e+00 
8.65638077e-01 -1.79597028e-02 0.00000000e+00 
8.75986874e-01 -1.66798849e-02 0.00000000e+00 

        </DataArray>
      </Points>
      <Cells>
        <DataArray type="Int32" Name="connectivity" format="ascii">
0 1
1 2
2 3

        </DataArray>
        <DataArray type="Int32" Name="offsets" format="ascii">
2 4 6 
        </DataArray>
        <DataArray type="UInt8" Name="types" format="ascii">
3 3 3 
        </DataArray>
      </Cells>
      <PointData>
        <DataArray type="Float64" Name="rho">
          9.57477693e-01 9.58949155e-01 9.60415034e-01 9.61868250e-01 
        </DataArray>
        <DataArray type="Float64" Name="rhou">
          2.94039901e-04 2.35859540e-04 2.23702327e-04 2.61374823e-04 
        </DataArray>
        <DataArray type="Float64" Name="rhov">
          4.30496853e-05 6.33705389e-05 5.31577067e-05 7.14601384e-05 
        </DataArray>
        <DataArray type="Float64" Name="E">
          2.18063792e+05 2.18413807e+05 2.18762368e+05 2.19107840e+05 
        </DataArray>
      </PointData>
    </Piece>
    <Piece NumberOfPoints="4" NumberOfCells="3">
      <Points>
        <DataArray type="Float64" NumberOfComponents="3" format="ascii">
          8.13865662e-01 -2.41250079e-02 0.00000000e+00 
8.24223816e-01 -2.29226518e-02 0.00000000e+00 
8.34580123e-01 -2.17050612e-02 0.00000000e+00 
8.44934702e-01 -2.04724707e-02 0.00000000e+00 

        </DataArray>
      </Points>
      <Cells>
        <DataArray type="Int32" Name="connectivity" format="ascii">
0 1
1 2
2 3

        </DataArray>
        <DataArray type="Int32" Name="offsets" format="ascii">
2 4 6 
        </DataArray>
        <DataArray type="UInt8" Name="types" format="ascii">
3 3 3 
        </DataArray>
      </Cells>
      <PointData>
        <DataArray type="Float64" Name="rho">
          9.52996802e-01 9.54498868e-01 9.55992644e-01 9.57477467e-01 
        </DataArray>
        <DataArray type="Float64" Name="rhou">
          2.70235343e-04 2.55182073e-04 2.40125623e-04 2.45533902e-04 
        </DataArray>
        <DataArray type="Float64" Name="rhov">
          5.38161797e-05 5.46387032e-05 4.73589898e-05 3.56761038e-05 
        </DataArray>
        <DataArray type="Float64" Name="E">
          2.16997659e+05 2.17355105e+05 2.17710519e+05 2.18063741e+05 
        </DataArray>
      </PointData>
    </Piece>
    <Piece NumberOfPoints="4" NumberOfCells="3">
      <Points>
        <DataArray type="Float64" NumberOfComponents="3" format="ascii">
          7.82780826e-01 -2.76402626e-02 0.00000000e+00 
7.93144107e-01 -2.64833923e-02 0.00000000e+00 
8.03505778e-01 -2.53117718e-02 0.00000000e+00 
8.13865662e-01 -2.41250079e-02 0.00000000e+00 

        </DataArray>
      </Points>
      <Cells>
        <DataArray type="Int32" Name="connectivity" format="ascii">
0 1
1 2
2 3

        </DataArray>
        <DataArray type="Int32" Name="offsets" format="ascii">
2 4 6 
        </DataArray>
        <DataArray type="UInt8" Name="types" format="ascii">
3 3 3 
        </DataArray>
      </Cells>
      <PointData>
        <DataArray type="Float64" Name="rho">
          9.48435491e-01 9.49965082e-01 9.51486395e-01 9.52996695e-01 
        </DataArray>
        <DataArray type="Float64" Name="rhou">
          2.90740596e-04 2.70122706e-04 2.69762493e-04 2.79179419e-04 
        </DataArray>
        <DataArray type="Float64" Name="rhov">
          5.02799946e-05 4.20568614e-05 3.77674869e-05 5.21014467e-05 
        </DataArray>
        <DataArray type="Float64" Name="E">
          2.15911995e+05 2.16276092e+05 2.16638181e+05 2.16997635e+05 
        </DataArray>
      </PointData>
    </Piece>
    <Piece NumberOfPoints="4" NumberOfCells="3">
      <Points>
        <DataArray type="Float64" NumberOfComponents="3" format="ascii">
          7.51680970e-01 -3.10197193e-02 0.00000000e+00 
7.62049198e-01 -2.99084149e-02 0.00000000e+00 
7.72415876e-01 -2.87819952e-02 0.00000000e+00 
7.82780826e-01 -2.76402626e-02 0.00000000e+00 

        </DataArray>
      </Points>
      <Cells>
        <DataArray type="Int32" Name="connectivity" format="ascii">
0 1
1 2
2 3

        </DataArray>
        <DataArray type="Int32" Name="offsets" format="ascii">
2 4 6 
        </DataArray>
        <DataArray type="UInt8" Name="types" format="ascii">
3 3 3 
        </DataArray>
      </Cells>
      <PointData>
        <DataArray type="Float64" Name="rho">
          9.43799807e-01 9.45353459e-01 9.46898572e-01 9.48435454e-01 
        </DataArray>
        <DataArray type="Float64" Name="rhou">
          3.03528376e-04 2.99567510e-04 2.94218835e-04 2.80382264e-04 
        </DataArray>
        <DataArray type="Float64" Name="rhov">
          4.28095737e-05 3.63806333e-05 4.03549524e-05 4.81198097e-05 
        </DataArray>
        <DataArray type="Float64" Name="E">
          2.14808331e+05 2.15178247e+05 2.15546110e+05 2.15911986e+05 
        </DataArray>
      </PointData>
    </Piece>
    <Piece NumberOfPoints="4" NumberOfCells="3">
      <Points>
        <DataArray type="Float64" NumberOfComponents="3" format="ascii">
          7.20566452e-01 -3.42622213e-02 0.00000000e+00 
7.30939507e-01 -3.31965312e-02 0.00000000e+00 
7.41311073e-01 -3.21157984e-02 0.00000000e+00 
7.51680970e-01 -3.10197193e-02 0.00000000e+00 

        </DataArray>
      </Points>
      <Cells>
        <DataArray type="Int32" Name="connectivity" format="ascii">
0 1
1 2
2 3

        </DataArray>
        <DataArray type="Int32" Name="offsets" format="ascii">
2 4 6 
        </DataArray>
        <DataArray type="UInt8" Name="types" format="ascii">
3 3 3 
        </DataArray>
      </Cells>
      <PointData>
        <DataArray type="Float64" Name="rho">
          9.39099288e-01 9.40673465e-01 9.42240486e-01 9.43799799e-01 
        </DataArray>
        <DataArray type="Float64" Name="rhou">
          3.28577170e-04 3.22004175e-04 3.19327540e-04 3.06637292e-04 
        </DataArray>
        <DataArray type="Float64" Name="rhov">
          3.89613067e-05 2.83204537e-05 3.12018652e-05 4.32589157e-05 
        </DataArray>
        <DataArray type="Float64" Name="E">
          2.13688959e+05 2.14063852e+05 2.14437018e+05 2.14808329e+05 
        </DataArray>
      </PointData>
    </Piece>
    <Piece NumberOfPoints="4" NumberOfCells="3">
      <Points>
        <DataArray type="Float64" NumberOfComponents="3" format="ascii">
          6.89437866e-01 -3.73662710e-02 0.00000000e+00 
6.99815631e-01 -3.63472365e-02 0.00000000e+00 
7.10191846e-01 -3.53125818e-02 0.00000000e+00 
7.20566452e-01 -3.42622213e-02 0.00000000e+00 

        </DataArray>
      </Points>
      <Cells>
        <DataArray type="Int32" Name="connectivity" format="ascii">
0 1
1 2
2 3

        </DataArray>
        <DataArray type="Int32" Name="offsets" format="ascii">
2 4 6 
        </DataArray>
        <DataArray type="UInt8" Name="types" format="ascii">
3 3 3 
        </DataArray>
      </Cells>
      <PointData>
        <DataArray type="Float64" Name="rho">
          9.34351258e-01 9.35938870e-01 9.37521654e-01 9.39099299e-01 
        </DataArray>
        <DataArray type="Float64" Name="rhou">
          3.60540111e-04 3.53606467e-04 3.46878839e-04 3.29497164e-04 
        </DataArray>
        <DataArray type="Float64" Name="rhov">
          3.06166726e-05 2.35861308e-05 2.83914665e-05 3.92059609e-05 
        </DataArray>
        <DataArray type="Float64" Name="E">
          2.12557944e+05 2.12936154e+05 2.13313185e+05 2.13688961e+05 
        </DataArray>
      </PointData>
    </Piece>
    <Piece NumberOfPoints="4" NumberOfCells="3">
      <Points>
        <DataArray type="Float64" NumberOfComponents="3" format="ascii">
          6.58295333e-01 -4.03269380e-02 0.00000000e+00 
6.68677747e-01 -3.93563360e-02 0.00000000e+00 
6.79058611e-01 -3.83694395e-02 0.00000000e+00 
6.89437866e-01 -3.73662710e-02 0.00000000e+00 

        </DataArray>
      </Points>
      <Cells>
        <DataArray type="Int32" Name="connectivity" format="ascii">
0 1
1 2
2 3

        </DataArray>
        <DataArray type="Int32" Name="offsets" format="ascii">
2 4 6 
        </DataArray>
        <DataArray type="UInt8" Name="types" format="ascii">
3 3 3 
        </DataArray>
      </Cells>
      <PointData>
        <DataArray type="Float64" Name="rho">
          9.29578621e-01 9.31171398e-01 9.32762275e-01 9.34351311e-01 
        </DataArray>
        <DataArray type="Float64" Name="rhou">
          3.96179185e-04 3.90934064e-04 3.78612141e-04 3.58583114e-04 
        </DataArray>
        <DataArray type="Float64" Name="rhov">
          1.91452107e-05 1.63029111e-05 2.31125300e-05 3.13791535e-05 
        </DataArray>
        <DataArray type="Float64" Name="E">
          2.11420682e+05 2.11800260e+05 2.12179349e+05 2.12557956e+05 
        </DataArray>
      </PointData>
    </Piece>
    <Piece NumberOfPoints="4" NumberOfCells="3">
      <Points>
        <DataArray type="Float64" NumberOfComponents="3" format="ascii">
          6.27138972e-01 -4.31386717e-02 0.00000000e+00 
6.37525976e-01 -4.22184542e-02 0.00000000e+00 
6.47911429e-01 -4.12811004e-02 0.00000000e+00 
6.58295333e-01 -4.03269380e-02 0.00000000e+00 

        </DataArray>
      </Points>
      <Cells>
        <DataArray type="Int32" Name="connectivity" format="ascii">
0 1
1 2
2 3

        </DataArray>
        <DataArray type="Int32" Name="offsets" format="ascii">
2 4 6 
        </DataArray>
        <DataArray type="UInt8" Name="types" format="ascii">
3 3 3 
        </DataArray>
      </Cells>
      <PointData>
        <DataArray type="Float64" Name="rho">
          9.24812219e-01 9.26397868e-01 9.27987269e-01 9.29578653e-01 
        </DataArray>
        <DataArray type="Float64" Name="rhou">
          4.45921402e-04 4.27756961e-04 4.11017010e-04 3.97015313e-04 
        </DataArray>
        <DataArray type="Float64" Name="rhov">
          1.51405634e-05 1.42654092e-05 1.58553271e-05 2.00333826e-05 
        </DataArray>
        <DataArray type="Float64" Name="E">
          2.10284433e+05 2.10662491e+05 2.11041382e+05 2.11420690e+05 
        </DataArray>
      </PointData>
    </Piece>
    <Piece NumberOfPoints="4" NumberOfCells="3">
      <Points>
        <DataArray type="Float64" NumberOfComponents="3" format="ascii">
          5.95968783e-01 -4.57924642e-02 0.00000000e+00 
6.06360376e-01 -4.49259281e-02 0.00000000e+00 
6.16750479e-01 -4.40412909e-02 0.00000000e+00 
6.27138972e-01 -4.31386717e-02 0.00000000e+00 

        </DataArray>
      </Points>
      <Cells>
        <DataArray type="Int32" Name="connectivity" format="ascii">
0 1
1 2
2 3

        </DataArray>
        <DataArray type="Int32" Name="offsets" format="ascii">
2 4 6 
        </DataArray>
        <DataArray type="UInt8" Name="types" format="ascii">
3 3 3 
        </DataArray>
      </Cells>
      <PointData>
        <DataArray type="Float64" Name="rho">
          9.20096421e-01 9.21660562e-01 9.23232906e-01 9.24812212e-01 
        </DataArray>
        <DataArray type="Float64" Name="rhou">
          4.89077963e-04 4.77530594e-04 4.60829919e-04 4.39457272e-04 
        </DataArray>
        <DataArray type="Float64" Name="rhov">
          2.73970428e-06 -1.79454844e-07 6.41023127e-06 1.59619932e-05 
        </DataArray>
        <DataArray type="Float64" Name="E">
          2.09159648e+05 2.09532783e+05 2.09907810e+05 2.10284432e+05 
        </DataArray>
      </PointData>
    </Piece>
    <Piece NumberOfPoints="4" NumberOfCells="3">
      <Points>
        <DataArray type="Float64" NumberOfComponents="3" format="ascii">
          5.64784765e-01 -4.82786149e-02 0.00000000e+00 
5.75181007e-01 -4.74695377e-02 0.00000000e+00 
5.85575700e-01 -4.66405638e-02 0.00000000e+00 
5.95968783e-01 -4.57924642e-02 0.00000000e+00 

        </DataArray>
      </Points>
      <Cells>
        <DataArray type="Int32" Name="connectivity" format="ascii">
0 1
1 2
2 3

        </DataArray>
        <DataArray type="Int32" Name="offsets" format="ascii">
2 4 6 
        </DataArray>
        <DataArray type="UInt8" Name="types" format="ascii">
3 3 3 
        </DataArray>
      </Cells>
      <PointData>
        <DataArray type="Float64" Name="rho">
          9.15490951e-01 9.17008818e-01 9.18544639e-01 9.20096532e-01 
        </DataArray>
        <DataArray type="Float64" Name="rhou">
          5.63428345e-04 5.37866049e-04 5.05722396e-04 4.82914459e-04 
        </DataArray>
        <DataArray type="Float64" Name="rhov">
          -9.16447292e-06 2.19177137e-06 7.03896179e-06 3.67653689e-06 
        </DataArray>
        <DataArray type="Float64" Name="E">
          2.08060390e+05 2.08422789e+05 2.08789368e+05 2.09159673e+05 
        </DataArray>
      </PointData>
    </Piece>
    <Piece NumberOfPoints="4" NumberOfCells="3">
      <Points>
        <DataArray type="Float64" NumberOfComponents="3" format="ascii">
          5.33586800e-01 -5.05827516e-02 0.00000000e+00 
5.43987691e-01 -4.98356484e-02 0.00000000e+00 
5.54387033e-01 -4.90674041e-02 0.00000000e+00 
5.64784765e-01 -4.82786149e-02 0.00000000e+00 

        </DataArray>
      </Points>
      <Cells>
        <DataArray type="Int32" Name="connectivity" format="ascii">
0 1
1 2
2 3

        </DataArray>
        <DataArray type="Int32" Name="offsets" format="ascii">
2 4 6 
        </DataArray>
        <DataArray type="UInt8" Name="types" format="ascii">
3 3 3 
        </DataArray>
      </Cells>
      <PointData>
        <DataArray type="Float64" Name="rho">
          9.11069692e-01 9.12516895e-01 9.13992464e-01 9.15490911e-01 
        </DataArray>
        <DataArray type="Float64" Name="rhou">
          6.35912777e-04 5.97022150e-04 5.68941993e-04 5.57836146e-04 
        </DataArray>
        <DataArray type="Float64" Name="rhov">
          -8.45959276e-06 -8.36709066e-06 -1.13123337e-05 -8.78656815e-06 
        </DataArray>
        <DataArray type="Float64" Name="E">
          2.07004137e+05 2.07350013e+05 2.07702520e+05 2.08060380e+05 
        </DataArray>
      </PointData>
    </Piece>
    <Piece NumberOfPoints="4" NumberOfCells="3">
      <Points>
        <DataArray type="Float64" NumberOfComponents="3" format="ascii">
          5.02374947e-01 -5.26902266e-02 0.00000000e+00 
5.12780428e-01 -5.20105064e-02 0.00000000e+00 
5.23184419e-01 -5.13078682e-02 0.00000000e+00 
5.33586800e-01 -5.05827516e-02 0.00000000e+00 

        </DataArray>
      </Points>
      <Cells>
        <DataArray type="Int32" Name="connectivity" format="ascii">
0 1
1 2
2 3

        </DataArray>
        <DataArray type="Int32" Name="offsets" format="ascii">
2 4 6 
        </DataArray>
        <DataArray type="UInt8" Name="types" format="ascii">
3 3 3 
        </DataArray>
      </Cells>
      <PointData>
        <DataArray type="Float64" Name="rho">
          9.06933611e-01 9.08274204e-01 9.09654917e-01 9.11069597e-01 
        </DataArray>
        <DataArray type="Float64" Name="rhou">
          7.15642174e-04 6.80064590e-04 6.53094992e-04 6.33194280e-04 
        </DataArray>
        <DataArray type="Float64" Name="rhov">
          -1.80084651e-05 -2.42698812e-05 -2.27376087e-05 -8.89222545e-06 
        </DataArray>
        <DataArray type="Float64" Name="E">
          2.06014713e+05 2.06335573e+05 2.06665854e+05 2.07004115e+05 
        </DataArray>
      </PointData>
    </Piece>
    <Piece NumberOfPoints="4" NumberOfCells="3">
      <Points>
        <DataArray type="Float64" NumberOfComponents="3" format="ascii">
          4.71149325e-01 -5.45825884e-02 0.00000000e+00 
4.81559396e-01 -5.39771840e-02 0.00000000e+00 
4.91967946e-01 -5.33461571e-02 0.00000000e+00 
5.02374947e-01 -5.26902266e-02 0.00000000e+00 

        </DataArray>
      </Points>
      <Cells>
        <DataArray type="Int32" Name="connectivity" format="ascii">
0 1
1 2
2 3

        </DataArray>
        <DataArray type="Int32" Name="offsets" format="ascii">
2 4 6 
        </DataArray>
        <DataArray type="UInt8" Name="types" format="ascii">
3 3 3 
        </DataArray>
      </Cells>
      <PointData>
        <DataArray type="Float64" Name="rho">
          9.03215386e-01 9.04400339e-01 9.05640188e-01 9.06933699e-01 
        </DataArray>
        <DataArray type="Float64" Name="rhou">
          8.20618551e-04 7.98344861e-04 7.52223885e-04 6.96054716e-04 
        </DataArray>
        <DataArray type="Float64" Name="rhov">
          -4.24494195e-05 -3.61737119e-05 -1.89846170e-05 -1.51962793e-05 
        </DataArray>
        <DataArray type="Float64" Name="E">
          2.05123455e+05 2.05407718e+05 2.05704923e+05 2.06014733e+05 
        </DataArray>
      </PointData>
    </Piece>
    <Piece NumberOfPoints="4" NumberOfCells="3">
      <Points>
        <DataArray type="Float64" NumberOfComponents="3" format="ascii">
          4.39910263e-01 -5.62384278e-02 0.00000000e+00 
4.50324744e-01 -5.57143167e-02 0.00000000e+00 
4.60737765e-01 -5.51619194e-02 0.00000000e+00 
4.71149325e-01 -5.45825884e-02 0.00000000e+00 

        </DataArray>
      </Points>
      <Cells>
        <DataArray type="Int32" Name="connectivity" format="ascii">
0 1
1 2
2 3

        </DataArray>
        <DataArray type="Int32" Name="offsets" format="ascii">
2 4 6 
        </DataArray>
        <DataArray type="UInt8" Name="types" format="ascii">
3 3 3 
        </DataArray>
      </Cells>
      <PointData>
        <DataArray type="Float64" Name="rho">
          9.00075951e-01 9.01043541e-01 9.02093590e-01 9.03215460e-01 
        </DataArray>
        <DataArray type="Float64" Name="rhou">
          9.87110909e-04 9.10641569e-04 8.52877204e-04 8.25973713e-04 
        </DataArray>
        <DataArray type="Float64" Name="rhov">
          -3.51905296e-05 -2.61620602e-05 -3.26464028e-05 -3.99092273e-05 
        </DataArray>
        <DataArray type="Float64" Name="E">
          2.04368464e+05 2.04601559e+05 2.04854061e+05 2.05123471e+05 
        </DataArray>
      </PointData>
    </Piece>
    <Piece NumberOfPoints="4" NumberOfCells="3">
      <Points>
        <DataArray type="Float64" NumberOfComponents="3" format="ascii">
          4.08658355e-01 -5.76302819e-02 0.00000000e+00 
4.19077009e-01 -5.71971126e-02 0.00000000e+00 
4.29494321e-01 -5.67329265e-02 0.00000000e+00 
4.39910263e-01 -5.62384278e-02 0.00000000e+00 

        </DataArray>
      </Points>
      <Cells>
        <DataArray type="Int32" Name="connectivity" format="ascii">
0 1
1 2
2 3

        </DataArray>
        <DataArray type="Int32" Name="offsets" format="ascii">
2 4 6 
        </DataArray>
        <DataArray type="UInt8" Name="types" format="ascii">
3 3 3 
        </DataArray>
      </Cells>
      <PointData>
        <DataArray type="Float64" Name="rho">
          8.97727818e-01 8.98409782e-01 8.99196359e-01 9.00075721e-01 
        </DataArray>
        <DataArray type="Float64" Name="rhou">
          1.14116263e-03 1.07202523e-03 1.02089935e-03 9.81764322e-04 
        </DataArray>
        <DataArray type="Float64" Name="rhov">
          -4.33553369e-05 -5.57476366e-05 -5.49852013e-05 -3.50104115e-05 
        </DataArray>
        <DataArray type="Float64" Name="E">
          2.03800058e+05 2.03965744e+05 2.04156119e+05 2.04368412e+05 
        </DataArray>
      </PointData>
    </Piece>
    <Piece NumberOfPoints="4" NumberOfCells="3">
      <Points>
        <DataArray type="Float64" NumberOfComponents="3" format="ascii">
          3.77394795e-01 -5.87291755e-02 0.00000000e+00 
3.87817174e-01 -5.83979115e-02 0.00000000e+00 
3.98238391e-01 -5.80311492e-02 0.00000000e+00 
4.08658355e-01 -5.76302819e-02 0.00000000e+00 

        </DataArray>
      </Points>
      <Cells>
        <DataArray type="Int32" Name="connectivity" format="ascii">
0 1
1 2
2 3

        </DataArray>
        <DataArray type="Int32" Name="offsets" format="ascii">
2 4 6 
        </DataArray>
        <DataArray type="UInt8" Name="types" format="ascii">
3 3 3 
        </DataArray>
      </Cells>
      <PointData>
        <DataArray type="Float64" Name="rho">
          8.96438000e-01 8.96732716e-01 8.97163793e-01 8.97728029e-01 
        </DataArray>
        <DataArray type="Float64" Name="rhou">
          1.38882171e-03 1.31556153e-03 1.21455801e-03 1.11010176e-03 
        </DataArray>
        <DataArray type="Float64" Name="rhov">
          -8.62379485e-05 -5.86141388e-05 -3.10758083e-05 -3.84606879e-05 
        </DataArray>
        <DataArray type="Float64" Name="E">
          2.03481398e+05 2.03555668e+05 2.03662186e+05 2.03800106e+05 
        </DataArray>
      </PointData>
    </Piece>
    <Piece NumberOfPoints="4" NumberOfCells="3">
      <Points>
        <DataArray type="Float64" NumberOfComponents="3" format="ascii">
          3.46121490e-01 -5.95011823e-02 0.00000000e+00 
3.56546819e-01 -5.92821389e-02 0.00000000e+00 
3.66971314e-01 -5.90242445e-02 0.00000000e+00 
3.77394795e-01 -5.87291755e-02 0.00000000e+00 

        </DataArray>
      </Points>
      <Cells>
        <DataArray type="Int32" Name="connectivity" format="ascii">
0 1
1 2
2 3

        </DataArray>
        <DataArray type="Int32" Name="offsets" format="ascii">
2 4 6 
        </DataArray>
        <DataArray type="UInt8" Name="types" format="ascii">
3 3 3 
        </DataArray>
      </Cells>
      <PointData>
        <DataArray type="Float64" Name="rho">
          8.96501484e-01 8.96304827e-01 8.96289482e-01 8.96438092e-01 
        </DataArray>
        <DataArray type="Float64" Name="rhou">
          1.73031510e-03 1.58644425e-03 1.45807535e-03 1.39222490e-03 
        </DataArray>
        <DataArray type="Float64" Name="rhov">
          -1.20547514e-04 -7.88584195e-05 -7.16627729e-05 -8.16124205e-05 
        </DataArray>
        <DataArray type="Float64" Name="E">
          2.03482592e+05 2.03440729e+05 2.03441703e+05 2.03481418e+05 
        </DataArray>
      </PointData>
    </Piece>
    <Piece NumberOfPoints="4" NumberOfCells="3">
      <Points>
        <DataArray type="Float64" NumberOfComponents="3" format="ascii">
          3.14841360e-01 -5.99102043e-02 0.00000000e+00 
3.25268596e-01 -5.98174632e-02 0.00000000e+00 
3.35695356e-01 -5.96801341e-02 0.00000000e+00 
3.46121490e-01 -5.95011823e-02 0.00000000e+00 

        </DataArray>
      </Points>
      <Cells>
        <DataArray type="Int32" Name="connectivity" format="ascii">
0 1
1 2
2 3

        </DataArray>
        <DataArray type="Int32" Name="offsets" format="ascii">
2 4 6 
        </DataArray>
        <DataArray type="UInt8" Name="types" format="ascii">
3 3 3 
        </DataArray>
      </Cells>
      <PointData>
        <DataArray type="Float64" Name="rho">
          8.98326275e-01 8.97482419e-01 8.96883429e-01 8.96501194e-01 
        </DataArray>
        <DataArray type="Float64" Name="rhou">
          2.17932837e-03 1.93554590e-03 1.77105849e-03 1.69484944e-03 
        </DataArray>
        <DataArray type="Float64" Name="rhov">
          -5.74132210e-05 -3.42413218e-05 -6.65167852e-05 -1.19778021e-04 
        </DataArray>
        <DataArray type="Float64" Name="E">
          2.03900331e+05 2.03705405e+05 2.03568346e+05 2.03482525e+05 
        </DataArray>
      </PointData>
    </Piece>
    <Piece NumberOfPoints="4" NumberOfCells="3">
      <Points>
        <DataArray type="Float64" NumberOfComponents="3" format="ascii">
          2.83558637e-01 -5.98983802e-02 0.00000000e+00 
2.93986142e-01 -5.99516556e-02 0.00000000e+00 
3.04413795e-01 -5.99554181e-02 0.00000000e+00 
3.14841360e-01 -5.99102043e-02 0.00000000e+00 

        </DataArray>
      </Points>
      <Cells>
        <DataArray type="Int32" Name="connectivity" format="ascii">
0 1
1 2
2 3

        </DataArray>
        <DataArray type="Int32" Name="offsets" format="ascii">
2 4 6 
        </DataArray>
        <DataArray type="UInt8" Name="types" format="ascii">
3 3 3 
        </DataArray>
      </Cells>
      <PointData>
        <DataArray type="Float64" Name="rho">
          9.02429548e-01 9.00789886e-01 8.99427715e-01 8.98325565e-01 
        </DataArray>
        <DataArray type="Float64" Name="rhou">
          2.65618234e-03 2.49144275e-03 2.35402128e-03 2.17031502e-03 
        </DataArray>
        <DataArray type="Float64" Name="rhov">
          -1.14005417e-04 -1.80900758e-04 -1.45367619e-04 -5.08113970e-05 
        </DataArray>
        <DataArray type="Float64" Name="E">
          2.04857816e+05 2.04474088e+05 2.04156257e+05 2.03900169e+05 
        </DataArray>
      </PointData>
    </Piece>
    <Piece NumberOfPoints="4" NumberOfCells="3">
      <Points>
        <DataArray type="Float64" NumberOfComponents="3" format="ascii">
          2.52279758e-01 -5.94130717e-02 0.00000000e+00 
2.62705088e-01 -5.96327744e-02 0.00000000e+00 
2.73131490e-01 -5.97934239e-02 0.00000000e+00 
2.83558637e-01 -5.98983802e-02 0.00000000e+00 

        </DataArray>
      </Points>
      <Cells>
        <DataArray type="Int32" Name="connectivity" format="ascii">
0 1
1 2
2 3

        </DataArray>
        <DataArray type="Int32" Name="offsets" format="ascii">
2 4 6 
        </DataArray>
        <DataArray type="UInt8" Name="types" format="ascii">
3 3 3 
        </DataArray>
      </Cells>
      <PointData>
        <DataArray type="Float64" Name="rho">
          9.09432778e-01 9.06727945e-01 9.04396589e-01 9.02430468e-01 
        </DataArray>
        <DataArray type="Float64" Name="rhou">
          3.62788213e-03 3.32284468e-03 2.98761654e-03 2.64240278e-03 
        </DataArray>
        <DataArray type="Float64" Name="rhov">
          -2.61811577e-04 -1.69870170e-04 -8.29536237e-05 -9.48568346e-05 
        </DataArray>
        <DataArray type="Float64" Name="E">
          2.06502832e+05 2.05866544e+05 2.05319027e+05 2.04858028e+05 
        </DataArray>
      </PointData>
    </Piece>
    <Piece NumberOfPoints="4" NumberOfCells="3">
      <Points>
        <DataArray type="Float64" NumberOfComponents="3" format="ascii">
          2.21014455e-01 -5.83752058e-02 0.00000000e+00 
2.31433928e-01 -5.87876961e-02 0.00000000e+00 
2.41855890e-01 -5.91322705e-02 0.00000000e+00 
2.52279758e-01 -5.94130717e-02 0.00000000e+00 

        </DataArray>
      </Points>
      <Cells>
        <DataArray type="Int32" Name="connectivity" format="ascii">
0 1
1 2
2 3

        </DataArray>
        <DataArray type="Int32" Name="offsets" format="ascii">
2 4 6 
        </DataArray>
        <DataArray type="UInt8" Name="types" format="ascii">
3 3 3 
        </DataArray>
      </Cells>
      <PointData>
        <DataArray type="Float64" Name="rho">
          9.20118985e-01 9.16080273e-01 9.12533947e-01 9.09432959e-01 
        </DataArray>
        <DataArray type="Float64" Name="rhou">
          4.98028981e-03 4.39532823e-03 3.94926905e-03 3.66196259e-03 
        </DataArray>
        <DataArray type="Float64" Name="rhov">
          -3.67248339e-04 -2.63335141e-04 -2.31288280e-04 -2.45475789e-04 
        </DataArray>
        <DataArray type="Float64" Name="E">
          2.09023079e+05 2.08069700e+05 2.07233372e+05 2.06502869e+05 
        </DataArray>
      </PointData>
    </Piece>
    <Piece NumberOfPoints="4" NumberOfCells="3">
      <Points>
        <DataArray type="Float64" NumberOfComponents="3" format="ascii">
          1.89777538e-01 -5.66898957e-02 0.00000000e+00 
2.00185493e-01 -5.73302582e-02 0.00000000e+00 
2.10598081e-01 -5.78906052e-02 0.00000000e+00 
2.21014455e-01 -5.83752058e-02 0.00000000e+00 

        </DataArray>
      </Points>
      <Cells>
        <DataArray type="Int32" Name="connectivity" format="ascii">
0 1
1 2
2 3

        </DataArray>
        <DataArray type="Int32" Name="offsets" format="ascii">
2 4 6 
        </DataArray>
        <DataArray type="UInt8" Name="types" format="ascii">
3 3 3 
        </DataArray>
      </Cells>
      <PointData>
        <DataArray type="Float64" Name="rho">
          9.35574765e-01 9.29815619e-01 9.24683560e-01 9.20118226e-01 
        </DataArray>
        <DataArray type="Float64" Name="rhou">
          6.90218358e-03 6.10162180e-03 5.51608312e-03 5.04264209e-03 
        </DataArray>
        <DataArray type="Float64" Name="rhov">
          -6.47851280e-04 -5.77327252e-04 -4.77972055e-04 -3.54561962e-04 
        </DataArray>
        <DataArray type="Float64" Name="E">
          2.12678957e+05 2.11315541e+05 2.10101668e+05 2.09022904e+05 
        </DataArray>
      </PointData>
    </Piece>
    <Piece NumberOfPoints="4" NumberOfCells="3">
      <Points>
        <DataArray type="Float64" NumberOfComponents="3" format="ascii">
          1.58592433e-01 -5.42296544e-02 0.00000000e+00 
1.68979734e-01 -5.51457107e-02 0.00000000e+00 
1.79375216e-01 -5.59638515e-02 0.00000000e+00 
1.89777538e-01 -5.66898957e-02 0.00000000e+00 

        </DataArray>
      </Points>
      <Cells>
        <DataArray type="Int32" Name="connectivity" format="ascii">
0 1
1 2
2 3

        </DataArray>
        <DataArray type="Int32" Name="offsets" format="ascii">
2 4 6 
        </DataArray>
        <DataArray type="UInt8" Name="types" format="ascii">
3 3 3 
        </DataArray>
      </Cells>
      <PointData>
        <DataArray type="Float64" Name="rho">
          9.57364704e-01 9.49289740e-01 9.42043339e-01 9.35575183e-01 
        </DataArray>
        <DataArray type="Float64" Name="rhou">
          9.96078437e-03 8.88624279e-03 7.93628364e-03 6.97333967e-03 
        </DataArray>
        <DataArray type="Float64" Name="rhov">
          -1.39914605e-03 -1.20768257e-03 -8.76949070e-04 -6.07402129e-04 
        </DataArray>
        <DataArray type="Float64" Name="E">
          2.17846389e+05 2.15929756e+05 2.14211485e+05 2.12679057e+05 
        </DataArray>
      </PointData>
    </Piece>
    <Piece NumberOfPoints="4" NumberOfCells="3">
      <Points>
        <DataArray type="Float64" NumberOfComponents="3" format="ascii">
          1.27497971e-01 -5.08146733e-02 0.00000000e+00 
1.37849152e-01 -5.20747155e-02 0.00000000e+00 
1.48214847e-01 -5.32093942e-02 0.00000000e+00 
1.58592433e-01 -5.42296544e-02 0.00000000e+00 

        </DataArray>
      </Points>
      <Cells>
        <DataArray type="Int32" Name="connectivity" format="ascii">
0 1
1 2
2 3

        </DataArray>
        <DataArray type="Int32" Name="offsets" format="ascii">
2 4 6 
        </DataArray>
        <DataArray type="UInt8" Name="types" format="ascii">
3 3 3 
        </DataArray>
      </Cells>
      <PointData>
        <DataArray type="Float64" Name="rho">
          9.87913560e-01 9.76545769e-01 9.66383598e-01 9.57368751e-01 
        </DataArray>
        <DataArray type="Float64" Name="rhou">
          1.44921482e-02 1.33137768e-02 1.15086837e-02 9.98918381e-03 
        </DataArray>
        <DataArray type="Float64" Name="rhov">
          -2.27451350e-03 -2.02721549e-03 -1.41223688e-03 -1.32724380e-03 
        </DataArray>
        <DataArray type="Float64" Name="E">
          2.25109976e+05 2.22404569e+05 2.19988851e+05 2.17847317e+05 
        </DataArray>
      </PointData>
    </Piece>
    <Piece NumberOfPoints="4" NumberOfCells="3">
      <Points>
        <DataArray type="Float64" NumberOfComponents="3" format="ascii">
          9.65642184e-02 -4.61716652e-02 0.00000000e+00 
1.06852271e-01 -4.78802323e-02 0.00000000e+00 
1.17164567e-01 -4.94215861e-02 0.00000000e+00 
1.27497971e-01 -5.08146733e-02 0.00000000e+00 

        </DataArray>
      </Points>
      <Cells>
        <DataArray type="Int32" Name="connectivity" format="ascii">
0 1
1 2
2 3

        </DataArray>
        <DataArray type="Int32" Name="offsets" format="ascii">
2 4 6 
        </DataArray>
        <DataArray type="UInt8" Name="types" format="ascii">
3 3 3 
        </DataArray>
      </Cells>
      <PointData>
        <DataArray type="Float64" Name="rho">
          1.03133367e+00 1.01501895e+00 1.00057467e+00 9.87921903e-01 
        </DataArray>
        <DataArray type="Float64" Name="rhou">
          2.46666167e-02 1.80812996e-02 1.71666953e-02 1.28491197e-02 
        </DataArray>
        <DataArray type="Float64" Name="rhov">
          -9.25177399e-04 -7.30132601e-04 -1.55229878e-03 -1.59539756e-03 
        </DataArray>
        <DataArray type="Float64" Name="E">
          2.35469369e+05 2.31572216e+05 2.28127054e+05 2.25111987e+05 
        </DataArray>
      </PointData>
    </Piece>
  </UnstructuredGrid>
</VTKFile>
