<?xml version="1.0"?>
<VTKFile type="UnstructuredGrid" version="0.1" byte_order="LittleEndian">
  <UnstructuredGrid>
    <Piece NumberOfPoints="4" NumberOfCells="3">
      <Points>
        <DataArray type="Float64" NumberOfComponents="3" format="ascii">
          9.65642184e-02 -4.61716652e-02 0.00000000e+00 
9.26280916e-02 -4.54656407e-02 0.00000000e+00 
8.86965096e-02 -4.47326750e-02 0.00000000e+00 
8.47706869e-02 -4.39694971e-02 0.00000000e+00 

        </DataArray>
      </Points>
      <Cells>
        <DataArray type="Int32" Name="connectivity" format="ascii">
0 1
1 2
2 3

        </DataArray>
        <DataArray type="Int32" Name="offsets" format="ascii">
2 4 6 
        </DataArray>
        <DataArray type="UInt8" Name="types" format="ascii">
3 3 3 
        </DataArray>
      </Cells>
      <PointData>
        <DataArray type="Float64" Name="rho">
          1.03695446e+00 1.04386558e+00 1.05109045e+00 1.05876070e+00 
        </DataArray>
        <DataArray type="Float64" Name="rhou">
          2.84144889e-02 2.18809733e-02 2.45388227e-02 2.47003694e-02 
        </DataArray>
        <DataArray type="Float64" Name="rhov">
          -2.24216922e-03 -1.01855347e-03 -6.01962571e-04 -9.10547097e-04 
        </DataArray>
        <DataArray type="Float64" Name="E">
          2.37089474e+05 2.38744488e+05 2.40476257e+05 2.42315106e+05 
        </DataArray>
      </PointData>
    </Piece>
    <Piece NumberOfPoints="4" NumberOfCells="3">
      <Points>
        <DataArray type="Float64" NumberOfComponents="3" format="ascii">
          8.47706869e-02 -4.39694971e-02 0.00000000e+00 
8.08513016e-02 -4.31745499e-02 0.00000000e+00 
7.69388378e-02 -4.23462167e-02 0.00000000e+00 
7.30340332e-02 -4.14824970e-02 0.00000000e+00 

        </DataArray>
      </Points>
      <Cells>
        <DataArray type="Int32" Name="connectivity" format="ascii">
0 1
1 2
2 3

        </DataArray>
        <DataArray type="Int32" Name="offsets" format="ascii">
2 4 6 
        </DataArray>
        <DataArray type="UInt8" Name="types" format="ascii">
3 3 3 
        </DataArray>
      </Cells>
      <PointData>
        <DataArray type="Float64" Name="rho">
          1.05875952e+00 1.06685674e+00 1.07541615e+00 1.08450767e+00 
        </DataArray>
        <DataArray type="Float64" Name="rhou">
          2.47964304e-02 2.39597582e-02 2.25325421e-02 2.09489447e-02 
        </DataArray>
        <DataArray type="Float64" Name="rhov">
          -7.15783037e-04 -4.98693604e-04 4.21866579e-04 1.63124207e-03 
        </DataArray>
        <DataArray type="Float64" Name="E">
          2.42314844e+05 2.44258000e+05 2.46313301e+05 2.48497553e+05 
        </DataArray>
      </PointData>
    </Piece>
    <Piece NumberOfPoints="4" NumberOfCells="3">
      <Points>
        <DataArray type="Float64" NumberOfComponents="3" format="ascii">
          7.30340332e-02 -4.14824970e-02 0.00000000e+00 
6.91377968e-02 -4.05809283e-02 0.00000000e+00 
6.52511865e-02 -3.96387354e-02 0.00000000e+00 
6.13753870e-02 -3.86530459e-02 0.00000000e+00 

        </DataArray>
      </Points>
      <Cells>
        <DataArray type="Int32" Name="connectivity" format="ascii">
0 1
1 2
2 3

        </DataArray>
        <DataArray type="Int32" Name="offsets" format="ascii">
2 4 6 
        </DataArray>
        <DataArray type="UInt8" Name="types" format="ascii">
3 3 3 
        </DataArray>
      </Cells>
      <PointData>
        <DataArray type="Float64" Name="rho">
          1.08450826e+00 1.09421532e+00 1.10456977e+00 1.11563122e+00 
        </DataArray>
        <DataArray type="Float64" Name="rhou">
          2.10655488e-02 1.86928384e-02 1.45640955e-02 9.02648702e-03 
        </DataArray>
        <DataArray type="Float64" Name="rhov">
          1.46532584e-03 2.22632450e-03 4.33068867e-03 7.54862592e-03 
        </DataArray>
        <DataArray type="Float64" Name="E">
          2.48497713e+05 2.50832032e+05 2.53323652e+05 2.55987606e+05 
        </DataArray>
      </PointData>
    </Piece>
    <Piece NumberOfPoints="4" NumberOfCells="3">
      <Points>
        <DataArray type="Float64" NumberOfComponents="3" format="ascii">
          6.13753870e-02 -3.86530459e-02 0.00000000e+00 
5.75117208e-02 -3.76208089e-02 0.00000000e+00 
5.36618084e-02 -3.65384258e-02 0.00000000e+00 
4.98276278e-02 -3.54015976e-02 0.00000000e+00 

        </DataArray>
      </Points>
      <Cells>
        <DataArray type="Int32" Name="connectivity" format="ascii">
0 1
1 2
2 3

        </DataArray>
        <DataArray type="Int32" Name="offsets" format="ascii">
2 4 6 
        </DataArray>
        <DataArray type="UInt8" Name="types" format="ascii">
3 3 3 
        </DataArray>
      </Cells>
      <PointData>
        <DataArray type="Float64" Name="rho">
          1.11563148e+00 1.12748252e+00 1.14020810e+00 1.15393972e+00 
        </DataArray>
        <DataArray type="Float64" Name="rhou">
          8.96876307e-03 1.87268064e-03 -7.38586724e-03 -1.89612416e-02 
        </DataArray>
        <DataArray type="Float64" Name="rhov">
          7.31974960e-03 1.20574021e-02 2.01841785e-02 3.17182279e-02 
        </DataArray>
        <DataArray type="Float64" Name="E">
          2.55987670e+05 2.58845705e+05 2.61917265e+05 2.65234927e+05 
        </DataArray>
      </PointData>
    </Piece>
    <Piece NumberOfPoints="4" NumberOfCells="3">
      <Points>
        <DataArray type="Float64" NumberOfComponents="3" format="ascii">
          4.98276278e-02 -3.54015976e-02 0.00000000e+00 
4.60115410e-02 -3.42054628e-02 0.00000000e+00 
4.22164090e-02 -3.29444520e-02 0.00000000e+00 
3.84457745e-02 -3.16120051e-02 0.00000000e+00 

        </DataArray>
      </Points>
      <Cells>
        <DataArray type="Int32" Name="connectivity" format="ascii">
0 1
1 2
2 3

        </DataArray>
        <DataArray type="Int32" Name="offsets" format="ascii">
2 4 6 
        </DataArray>
        <DataArray type="UInt8" Name="types" format="ascii">
3 3 3 
        </DataArray>
      </Cells>
      <PointData>
        <DataArray type="Float64" Name="rho">
          1.15393963e+00 1.16877697e+00 1.18483247e+00 1.20229766e+00 
        </DataArray>
        <DataArray type="Float64" Name="rhou">
          -1.94199082e-02 -3.36111135e-02 -5.26652158e-02 -7.54595657e-02 
        </DataArray>
        <DataArray type="Float64" Name="rhov">
          3.15033150e-02 4.82584858e-02 7.60371436e-02 1.16670747e-01 
        </DataArray>
        <DataArray type="Float64" Name="E">
          2.65234872e+05 2.68826175e+05 2.72717092e+05 2.76955947e+05 
        </DataArray>
      </PointData>
    </Piece>
    <Piece NumberOfPoints="4" NumberOfCells="3">
      <Points>
        <DataArray type="Float64" NumberOfComponents="3" format="ascii">
          3.84457745e-02 -3.16120051e-02 0.00000000e+00 
3.47041376e-02 -3.02002355e-02 0.00000000e+00 
3.09973080e-02 -2.86995135e-02 0.00000000e+00 
2.73328498e-02 -2.70981900e-02 0.00000000e+00 

        </DataArray>
      </Points>
      <Cells>
        <DataArray type="Int32" Name="connectivity" format="ascii">
0 1
1 2
2 3

        </DataArray>
        <DataArray type="Int32" Name="offsets" format="ascii">
2 4 6 
        </DataArray>
        <DataArray type="UInt8" Name="types" format="ascii">
3 3 3 
        </DataArray>
      </Cells>
      <PointData>
        <DataArray type="Float64" Name="rho">
          1.20229787e+00 1.22136212e+00 1.24221909e+00 1.26524029e+00 
        </DataArray>
        <DataArray type="Float64" Name="rhou">
          -7.64167972e-02 -1.00619889e-01 -1.29315687e-01 -1.54761513e-01 
        </DataArray>
        <DataArray type="Float64" Name="rhov">
          1.16589001e-01 1.72354205e-01 2.58611635e-01 3.79369194e-01 
        </DataArray>
        <DataArray type="Float64" Name="E">
          2.76955862e+05 2.81594589e+05 2.86678031e+05 2.92300441e+05 
        </DataArray>
      </PointData>
    </Piece>
    <Piece NumberOfPoints="4" NumberOfCells="3">
      <Points>
        <DataArray type="Float64" NumberOfComponents="3" format="ascii">
          2.73328498e-02 -2.70981900e-02 0.00000000e+00 
2.37206947e-02 -2.53822580e-02 0.00000000e+00 
2.01744195e-02 -2.35341713e-02 0.00000000e+00 
1.67132635e-02 -2.15314496e-02 0.00000000e+00 

        </DataArray>
      </Points>
      <Cells>
        <DataArray type="Int32" Name="connectivity" format="ascii">
0 1
1 2
2 3

        </DataArray>
        <DataArray type="Int32" Name="offsets" format="ascii">
2 4 6 
        </DataArray>
        <DataArray type="UInt8" Name="types" format="ascii">
3 3 3 
        </DataArray>
      </Cells>
      <PointData>
        <DataArray type="Float64" Name="rho">
          1.26524518e+00 1.29077112e+00 1.31925801e+00 1.35205031e+00 
        </DataArray>
        <DataArray type="Float64" Name="rhou">
          -1.55151362e-01 -1.69157847e-01 -1.53332281e-01 -5.69446316e-02 
        </DataArray>
        <DataArray type="Float64" Name="rhov">
          3.80046919e-01 5.32438963e-01 7.43967824e-01 9.63307111e-01 
        </DataArray>
        <DataArray type="Float64" Name="E">
          2.92301346e+05 2.98557607e+05 3.05552191e+05 3.13613843e+05 
        </DataArray>
      </PointData>
    </Piece>
    <Piece NumberOfPoints="4" NumberOfCells="3">
      <Points>
        <DataArray type="Float64" NumberOfComponents="3" format="ascii">
          1.67132635e-02 -2.15314496e-02 0.00000000e+00 
1.33649679e-02 -1.93456318e-02 0.00000000e+00 
1.01706637e-02 -1.69409402e-02 0.00000000e+00 
7.19343964e-03 -1.42731192e-02 0.00000000e+00 

        </DataArray>
      </Points>
      <Cells>
        <DataArray type="Int32" Name="connectivity" format="ascii">
0 1
1 2
2 3

        </DataArray>
        <DataArray type="Int32" Name="offsets" format="ascii">
2 4 6 
        </DataArray>
        <DataArray type="UInt8" Name="types" format="ascii">
3 3 3 
        </DataArray>
      </Cells>
      <PointData>
        <DataArray type="Float64" Name="rho">
          1.35194416e+00 1.39178360e+00 1.43900519e+00 1.50411057e+00 
        </DataArray>
        <DataArray type="Float64" Name="rhou">
          -3.43039890e-02 1.14815031e-01 4.57342166e-01 8.79293521e-01 
        </DataArray>
        <DataArray type="Float64" Name="rhov">
          9.24922757e-01 1.12880339e+00 1.07415408e+00 5.22614596e-01 
        </DataArray>
        <DataArray type="Float64" Name="E">
          3.13589547e+05 3.23386623e+05 3.34991707e+05 3.50876389e+05 
        </DataArray>
      </PointData>
    </Piece>
    <Piece NumberOfPoints="4" NumberOfCells="3">
      <Points>
        <DataArray type="Float64" NumberOfComponents="3" format="ascii">
          7.19343964e-03 -1.42731192e-02 0.00000000e+00 
4.53082798e-03 -1.12927537e-02 0.00000000e+00 
2.33371323e-03 -7.95678515e-03 0.00000000e+00 
8.10639584e-04 -4.26717056e-03 0.00000000e+00 

        </DataArray>
      </Points>
      <Cells>
        <DataArray type="Int32" Name="connectivity" format="ascii">
0 1
1 2
2 3

        </DataArray>
        <DataArray type="Int32" Name="offsets" format="ascii">
2 4 6 
        </DataArray>
        <DataArray type="UInt8" Name="types" format="ascii">
3 3 3 
        </DataArray>
      </Cells>
      <PointData>
        <DataArray type="Float64" Name="rho">
          1.50463135e+00 1.57911839e+00 1.66832853e+00 1.73722428e+00 
        </DataArray>
        <DataArray type="Float64" Name="rhou">
          8.04108253e-01 9.34675959e-01 2.60865939e-01 -1.27920121e+00 
        </DataArray>
        <DataArray type="Float64" Name="rhov">
          6.21525991e-01 -5.11383704e-01 -1.73524629e+00 -1.82628256e+00 
        </DataArray>
        <DataArray type="Float64" Name="E">
          3.51004162e+05 3.69213578e+05 3.90899789e+05 4.07670736e+05 
        </DataArray>
      </PointData>
    </Piece>
    <Piece NumberOfPoints="4" NumberOfCells="3">
      <Points>
        <DataArray type="Float64" NumberOfComponents="3" format="ascii">
          8.10639584e-04 -4.26717056e-03 0.00000000e+00 
1.91366620e-04 -3.27450951e-04 0.00000000e+00 
6.40850572e-04 3.63462302e-03 0.00000000e+00 
2.03182548e-03 7.37539819e-03 0.00000000e+00 

        </DataArray>
      </Points>
      <Cells>
        <DataArray type="Int32" Name="connectivity" format="ascii">
0 1
1 2
2 3

        </DataArray>
        <DataArray type="Int32" Name="offsets" format="ascii">
2 4 6 
        </DataArray>
        <DataArray type="UInt8" Name="types" format="ascii">
3 3 3 
        </DataArray>
      </Cells>
      <PointData>
        <DataArray type="Float64" Name="rho">
          1.73564439e+00 1.76079554e+00 1.71056547e+00 1.61817884e+00 
        </DataArray>
        <DataArray type="Float64" Name="rhou">
          -1.15310326e+00 -1.88793524e+00 -8.41946870e-01 7.52759743e-01 
        </DataArray>
        <DataArray type="Float64" Name="rhov">
          -1.98420661e+00 3.61876291e-01 1.88853554e+00 1.52437393e+00 
        </DataArray>
        <DataArray type="Float64" Name="E">
          4.07287671e+05 4.13319081e+05 4.01022876e+05 3.78427551e+05 
        </DataArray>
      </PointData>
    </Piece>
    <Piece NumberOfPoints="4" NumberOfCells="3">
      <Points>
        <DataArray type="Float64" NumberOfComponents="3" format="ascii">
          2.03182548e-03 7.37539819e-03 0.00000000e+00 
4.13410179e-03 1.07714310e-02 0.00000000e+00 
6.73249783e-03 1.38076087e-02 0.00000000e+00 
9.66598373e-03 1.65232457e-02 0.00000000e+00 

        </DataArray>
      </Points>
      <Cells>
        <DataArray type="Int32" Name="connectivity" format="ascii">
0 1
1 2
2 3

        </DataArray>
        <DataArray type="Int32" Name="offsets" format="ascii">
2 4 6 
        </DataArray>
        <DataArray type="UInt8" Name="types" format="ascii">
3 3 3 
        </DataArray>
      </Cells>
      <PointData>
        <DataArray type="Float64" Name="rho">
          1.61854569e+00 1.51145732e+00 1.42219762e+00 1.35521699e+00 
        </DataArray>
        <DataArray type="Float64" Name="rhou">
          7.24695637e-01 1.15995759e+00 8.45616764e-01 3.79445396e-01 
        </DataArray>
        <DataArray type="Float64" Name="rhov">
          1.75931858e+00 6.65893614e-02 -1.07633261e+00 -1.40454530e+00 
        </DataArray>
        <DataArray type="Float64" Name="E">
          3.78519934e+05 3.52485779e+05 3.30748802e+05 3.14355754e+05 
        </DataArray>
      </PointData>
    </Piece>
    <Piece NumberOfPoints="4" NumberOfCells="3">
      <Points>
        <DataArray type="Float64" NumberOfComponents="3" format="ascii">
          9.66598373e-03 1.65232457e-02 0.00000000e+00 
1.28298048e-02 1.89677756e-02 0.00000000e+00 
1.61561389e-02 2.11867876e-02 0.00000000e+00 
1.96009967e-02 2.32173651e-02 0.00000000e+00 

        </DataArray>
      </Points>
      <Cells>
        <DataArray type="Int32" Name="connectivity" format="ascii">
0 1
1 2
2 3

        </DataArray>
        <DataArray type="Int32" Name="offsets" format="ascii">
2 4 6 
        </DataArray>
        <DataArray type="UInt8" Name="types" format="ascii">
3 3 3 
        </DataArray>
      </Cells>
      <PointData>
        <DataArray type="Float64" Name="rho">
          1.35501087e+00 1.30252029e+00 1.26352332e+00 1.22919179e+00 
        </DataArray>
        <DataArray type="Float64" Name="rhou">
          3.89096969e-01 -1.45202549e-02 -1.97655260e-01 -2.18944572e-01 
        </DataArray>
        <DataArray type="Float64" Name="rhov">
          -1.42909124e+00 -1.32548062e+00 -9.95050322e-01 -6.68874459e-01 
        </DataArray>
        <DataArray type="Float64" Name="E">
          3.14303312e+05 3.01457219e+05 2.91863510e+05 2.83443476e+05 
        </DataArray>
      </PointData>
    </Piece>
    <Piece NumberOfPoints="4" NumberOfCells="3">
      <Points>
        <DataArray type="Float64" NumberOfComponents="3" format="ascii">
          1.96009967e-02 2.32173651e-02 0.00000000e+00 
2.31348258e-02 2.50891000e-02 0.00000000e+00 
2.67372411e-02 2.68253610e-02 0.00000000e+00 
3.03938854e-02 2.84444261e-02 0.00000000e+00 

        </DataArray>
      </Points>
      <Cells>
        <DataArray type="Int32" Name="connectivity" format="ascii">
0 1
1 2
2 3

        </DataArray>
        <DataArray type="Int32" Name="offsets" format="ascii">
2 4 6 
        </DataArray>
        <DataArray type="UInt8" Name="types" format="ascii">
3 3 3 
        </DataArray>
      </Cells>
      <PointData>
        <DataArray type="Float64" Name="rho">
          1.22925577e+00 1.20011146e+00 1.17404254e+00 1.15042952e+00 
        </DataArray>
        <DataArray type="Float64" Name="rhou">
          -2.32132089e-01 -2.19132709e-01 -1.74094034e-01 -1.31900052e-01 
        </DataArray>
        <DataArray type="Float64" Name="rhov">
          -6.87218780e-01 -4.35322087e-01 -2.47939010e-01 -1.34629743e-01 
        </DataArray>
        <DataArray type="Float64" Name="E">
          2.83458465e+05 2.76330062e+05 2.69976735e+05 2.64238920e+05 
        </DataArray>
      </PointData>
    </Piece>
    <Piece NumberOfPoints="4" NumberOfCells="3">
      <Points>
        <DataArray type="Float64" NumberOfComponents="3" format="ascii">
          3.03938854e-02 2.84444261e-02 0.00000000e+00 
3.40943485e-02 2.99607720e-02 0.00000000e+00 
3.78307216e-02 3.13864015e-02 0.00000000e+00 
4.15969416e-02 3.27312648e-02 0.00000000e+00 

        </DataArray>
      </Points>
      <Cells>
        <DataArray type="Int32" Name="connectivity" format="ascii">
0 1
1 2
2 3

        </DataArray>
        <DataArray type="Int32" Name="offsets" format="ascii">
2 4 6 
        </DataArray>
        <DataArray type="UInt8" Name="types" format="ascii">
3 3 3 
        </DataArray>
      </Cells>
      <PointData>
        <DataArray type="Float64" Name="rho">
          1.15042777e+00 1.12905571e+00 1.10963778e+00 1.09193015e+00 
        </DataArray>
        <DataArray type="Float64" Name="rhou">
          -1.30098690e-01 -8.98905349e-02 -5.70081395e-02 -3.39299146e-02 
        </DataArray>
        <DataArray type="Float64" Name="rhov">
          -1.33174524e-01 -5.65030288e-02 -9.02163660e-03 1.66538526e-02 
        </DataArray>
        <DataArray type="Float64" Name="E">
          2.64238763e+05 2.59064172e+05 2.54373962e+05 2.50104613e+05 
        </DataArray>
      </PointData>
    </Piece>
    <Piece NumberOfPoints="4" NumberOfCells="3">
      <Points>
        <DataArray type="Float64" NumberOfComponents="3" format="ascii">
          4.15969416e-02 3.27312648e-02 0.00000000e+00 
4.53883260e-02 3.40034962e-02 0.00000000e+00 
4.92011942e-02 3.52098532e-02 0.00000000e+00 
5.30325845e-02 3.63560505e-02 0.00000000e+00 

        </DataArray>
      </Points>
      <Cells>
        <DataArray type="Int32" Name="connectivity" format="ascii">
0 1
1 2
2 3

        </DataArray>
        <DataArray type="Int32" Name="offsets" format="ascii">
2 4 6 
        </DataArray>
        <DataArray type="UInt8" Name="types" format="ascii">
3 3 3 
        </DataArray>
      </Cells>
      <PointData>
        <DataArray type="Float64" Name="rho">
          1.09193072e+00 1.07574333e+00 1.06088916e+00 1.04720911e+00 
        </DataArray>
        <DataArray type="Float64" Name="rhou">
          -3.27826367e-02 -1.32229206e-02 1.32534566e-03 1.08101339e-02 
        </DataArray>
        <DataArray type="Float64" Name="rhov">
          1.65607901e-02 3.04788878e-02 3.73096389e-02 3.85870798e-02 
        </DataArray>
        <DataArray type="Float64" Name="E">
          2.50104827e+05 2.46210556e+05 2.42642516e+05 2.39360617e+05 
        </DataArray>
      </PointData>
    </Piece>
    <Piece NumberOfPoints="4" NumberOfCells="3">
      <Points>
        <DataArray type="Float64" NumberOfComponents="3" format="ascii">
          5.30325845e-02 3.63560505e-02 0.00000000e+00 
5.68800643e-02 3.74470428e-02 0.00000000e+00 
6.07415959e-02 3.84872220e-02 0.00000000e+00 
6.46155030e-02 3.94803248e-02 0.00000000e+00 

        </DataArray>
      </Points>
      <Cells>
        <DataArray type="Int32" Name="connectivity" format="ascii">
0 1
1 2
2 3

        </DataArray>
        <DataArray type="Int32" Name="offsets" format="ascii">
2 4 6 
        </DataArray>
        <DataArray type="UInt8" Name="types" format="ascii">
3 3 3 
        </DataArray>
      </Cells>
      <PointData>
        <DataArray type="Float64" Name="rho">
          1.04720982e+00 1.03461514e+00 1.02297451e+00 1.01214693e+00 
        </DataArray>
        <DataArray type="Float64" Name="rhou">
          1.11331243e-02 1.82136301e-02 2.38323589e-02 2.77397530e-02 
        </DataArray>
        <DataArray type="Float64" Name="rhov">
          3.82608898e-02 3.66923837e-02 3.47159148e-02 3.15457169e-02 
        </DataArray>
        <DataArray type="Float64" Name="E">
          2.39360779e+05 2.36343485e+05 2.33557541e+05 2.30968692e+05 
        </DataArray>
      </PointData>
    </Piece>
    <Piece NumberOfPoints="4" NumberOfCells="3">
      <Points>
        <DataArray type="Float64" NumberOfComponents="3" format="ascii">
          6.46155030e-02 3.94803248e-02 0.00000000e+00 
6.85004294e-02 4.04294394e-02 0.00000000e+00 
7.23951608e-02 4.13374715e-02 0.00000000e+00 
7.62986317e-02 4.22072113e-02 0.00000000e+00 

        </DataArray>
      </Points>
      <Cells>
        <DataArray type="Int32" Name="connectivity" format="ascii">
0 1
1 2
2 3

        </DataArray>
        <DataArray type="Int32" Name="offsets" format="ascii">
2 4 6 
        </DataArray>
        <DataArray type="UInt8" Name="types" format="ascii">
3 3 3 
        </DataArray>
      </Cells>
      <PointData>
        <DataArray type="Float64" Name="rho">
          1.01214765e+00 1.00209157e+00 9.92718080e-01 9.83971527e-01 
        </DataArray>
        <DataArray type="Float64" Name="rhou">
          2.75605397e-02 2.95568716e-02 3.07002520e-02 3.08324205e-02 
        </DataArray>
        <DataArray type="Float64" Name="rhov">
          3.12462029e-02 2.73860286e-02 2.40487839e-02 2.07719527e-02 
        </DataArray>
        <DataArray type="Float64" Name="E">
          2.30968841e+05 2.28567061e+05 2.26330118e+05 2.24244049e+05 
        </DataArray>
      </PointData>
    </Piece>
    <Piece NumberOfPoints="4" NumberOfCells="3">
      <Points>
        <DataArray type="Float64" NumberOfComponents="3" format="ascii">
          7.62986317e-02 4.22072113e-02 0.00000000e+00 
8.02098960e-02 4.30411920e-02 0.00000000e+00 
8.41281936e-02 4.38414887e-02 0.00000000e+00 
8.80528912e-02 4.46097627e-02 0.00000000e+00 

        </DataArray>
      </Points>
      <Cells>
        <DataArray type="Int32" Name="connectivity" format="ascii">
0 1
1 2
2 3

        </DataArray>
        <DataArray type="Int32" Name="offsets" format="ascii">
2 4 6 
        </DataArray>
        <DataArray type="UInt8" Name="types" format="ascii">
3 3 3 
        </DataArray>
      </Cells>
      <PointData>
        <DataArray type="Float64" Name="rho">
          9.83970595e-01 9.75804670e-01 9.68124861e-01 9.60885158e-01 
        </DataArray>
        <DataArray type="Float64" Name="rhou">
          3.06868814e-02 3.07370812e-02 3.04892661e-02 2.94408946e-02 
        </DataArray>
        <DataArray type="Float64" Name="rhov">
          2.06082769e-02 1.80819429e-02 1.56015296e-02 1.29417922e-02 
        </DataArray>
        <DataArray type="Float64" Name="E">
          2.24243815e+05 2.22297722e+05 2.20468740e+05 2.18745709e+05 
        </DataArray>
      </PointData>
    </Piece>
    <Piece NumberOfPoints="4" NumberOfCells="3">
      <Points>
        <DataArray type="Float64" NumberOfComponents="3" format="ascii">
          8.80528912e-02 4.46097627e-02 0.00000000e+00 
9.19835642e-02 4.53475714e-02 0.00000000e+00 
9.59195644e-02 4.60564308e-02 0.00000000e+00 
9.98597518e-02 4.67394181e-02 0.00000000e+00 

        </DataArray>
      </Points>
      <Cells>
        <DataArray type="Int32" Name="connectivity" format="ascii">
0 1
1 2
2 3

        </DataArray>
        <DataArray type="Int32" Name="offsets" format="ascii">
2 4 6 
        </DataArray>
        <DataArray type="UInt8" Name="types" format="ascii">
3 3 3 
        </DataArray>
      </Cells>
      <PointData>
        <DataArray type="Float64" Name="rho">
          9.60885646e-01 9.54076568e-01 9.47685147e-01 9.41612395e-01 
        </DataArray>
        <DataArray type="Float64" Name="rhou">
          2.92419442e-02 2.78338574e-02 2.43458537e-02 2.89144216e-02 
        </DataArray>
        <DataArray type="Float64" Name="rhov">
          1.31050606e-02 1.05545969e-02 8.99640095e-03 8.53452196e-03 
        </DataArray>
        <DataArray type="Float64" Name="E">
          2.18745821e+05 2.17126505e+05 2.15606941e+05 2.14164186e+05 
        </DataArray>
      </PointData>
    </Piece>
    <Piece NumberOfPoints="4" NumberOfCells="3">
      <Points>
        <DataArray type="Float64" NumberOfComponents="3" format="ascii">
          9.98597518e-02 4.67394181e-02 0.00000000e+00 
1.10118888e-01 4.83862534e-02 0.00000000e+00 
1.20400399e-01 4.98730615e-02 0.00000000e+00 
1.30701363e-01 5.12186773e-02 0.00000000e+00 

        </DataArray>
      </Points>
      <Cells>
        <DataArray type="Int32" Name="connectivity" format="ascii">
0 1
1 2
2 3

        </DataArray>
        <DataArray type="Int32" Name="offsets" format="ascii">
2 4 6 
        </DataArray>
        <DataArray type="UInt8" Name="types" format="ascii">
3 3 3 
        </DataArray>
      </Cells>
      <PointData>
        <DataArray type="Float64" Name="rho">
          9.41539209e-01 9.27337599e-01 9.15036877e-01 9.04412932e-01 
        </DataArray>
        <DataArray type="Float64" Name="rhou">
          2.66321652e-02 1.84083539e-02 1.62722376e-02 1.27840978e-02 
        </DataArray>
        <DataArray type="Float64" Name="rhov">
          7.29148199e-03 4.07717438e-03 3.58446187e-03 2.91976291e-03 
        </DataArray>
        <DataArray type="Float64" Name="E">
          2.14147640e+05 2.10777570e+05 2.07862077e+05 2.05346686e+05 
        </DataArray>
      </PointData>
    </Piece>
    <Piece NumberOfPoints="4" NumberOfCells="3">
      <Points>
        <DataArray type="Float64" NumberOfComponents="3" format="ascii">
          1.30701363e-01 5.12186773e-02 0.00000000e+00 
1.41019106e-01 5.24347536e-02 0.00000000e+00 
1.51350453e-01 5.35292812e-02 0.00000000e+00 
1.61692888e-01 5.45137413e-02 0.00000000e+00 

        </DataArray>
      </Points>
      <Cells>
        <DataArray type="Int32" Name="connectivity" format="ascii">
0 1
1 2
2 3

        </DataArray>
        <DataArray type="Int32" Name="offsets" format="ascii">
2 4 6 
        </DataArray>
        <DataArray type="UInt8" Name="types" format="ascii">
3 3 3 
        </DataArray>
      </Cells>
      <PointData>
        <DataArray type="Float64" Name="rho">
          9.04409428e-01 8.95036733e-01 8.86894217e-01 8.79876421e-01 
        </DataArray>
        <DataArray type="Float64" Name="rhou">
          1.41787056e-02 1.22637883e-02 1.01668223e-02 8.88654345e-03 
        </DataArray>
        <DataArray type="Float64" Name="rhov">
          3.42293584e-03 2.49977735e-03 1.72195411e-03 1.54855043e-03 
        </DataArray>
        <DataArray type="Float64" Name="E">
          2.05345842e+05 2.03130182e+05 2.01207841e+05 1.99552841e+05 
        </DataArray>
      </PointData>
    </Piece>
    <Piece NumberOfPoints="4" NumberOfCells="3">
      <Points>
        <DataArray type="Float64" NumberOfComponents="3" format="ascii">
          1.61692888e-01 5.45137413e-02 0.00000000e+00 
1.72044471e-01 5.53969070e-02 0.00000000e+00 
1.82403773e-01 5.61845005e-02 0.00000000e+00 
1.92769483e-01 5.68825118e-02 0.00000000e+00 

        </DataArray>
      </Points>
      <Cells>
        <DataArray type="Int32" Name="connectivity" format="ascii">
0 1
1 2
2 3

        </DataArray>
        <DataArray type="Int32" Name="offsets" format="ascii">
2 4 6 
        </DataArray>
        <DataArray type="UInt8" Name="types" format="ascii">
3 3 3 
        </DataArray>
      </Cells>
      <PointData>
        <DataArray type="Float64" Name="rho">
          8.79873996e-01 8.73788063e-01 8.68546085e-01 8.64098470e-01 
        </DataArray>
        <DataArray type="Float64" Name="rhou">
          8.92386641e-03 7.77611472e-03 6.72567007e-03 5.80799665e-03 
        </DataArray>
        <DataArray type="Float64" Name="rhov">
          1.60055887e-03 1.23921481e-03 8.60661022e-04 6.32049075e-04 
        </DataArray>
        <DataArray type="Float64" Name="E">
          1.99552296e+05 1.98119136e+05 1.96886887e+05 1.95843299e+05 
        </DataArray>
      </PointData>
    </Piece>
    <Piece NumberOfPoints="4" NumberOfCells="3">
      <Points>
        <DataArray type="Float64" NumberOfComponents="3" format="ascii">
          1.92769483e-01 5.68825118e-02 0.00000000e+00 
2.03140482e-01 5.74972220e-02 0.00000000e+00 
2.13515818e-01 5.80338500e-02 0.00000000e+00 
2.23894730e-01 5.84962890e-02 0.00000000e+00 

        </DataArray>
      </Points>
      <Cells>
        <DataArray type="Int32" Name="connectivity" format="ascii">
0 1
1 2
2 3

        </DataArray>
        <DataArray type="Int32" Name="offsets" format="ascii">
2 4 6 
        </DataArray>
        <DataArray type="UInt8" Name="types" format="ascii">
3 3 3 
        </DataArray>
      </Cells>
      <PointData>
        <DataArray type="Float64" Name="rho">
          8.64097777e-01 8.60367544e-01 8.57272878e-01 8.54757761e-01 
        </DataArray>
        <DataArray type="Float64" Name="rhou">
          5.84526113e-03 5.11013239e-03 4.54322056e-03 4.07327574e-03 
        </DataArray>
        <DataArray type="Float64" Name="rhov">
          6.73685914e-04 5.88803994e-04 4.75901740e-04 3.54656095e-04 
        </DataArray>
        <DataArray type="Float64" Name="E">
          1.95843139e+05 1.94969720e+05 1.94247192e+05 1.93662194e+05 
        </DataArray>
      </PointData>
    </Piece>
    <Piece NumberOfPoints="4" NumberOfCells="3">
      <Points>
        <DataArray type="Float64" NumberOfComponents="3" format="ascii">
          2.23894730e-01 5.84962890e-02 0.00000000e+00 
2.34276548e-01 5.88882305e-02 0.00000000e+00 
2.44660646e-01 5.92139624e-02 0.00000000e+00 
2.55046517e-01 5.94772622e-02 0.00000000e+00 

        </DataArray>
      </Points>
      <Cells>
        <DataArray type="Int32" Name="connectivity" format="ascii">
0 1
1 2
2 3

        </DataArray>
        <DataArray type="Int32" Name="offsets" format="ascii">
2 4 6 
        </DataArray>
        <DataArray type="UInt8" Name="types" format="ascii">
3 3 3 
        </DataArray>
      </Cells>
      <PointData>
        <DataArray type="Float64" Name="rho">
          8.54758344e-01 8.52782861e-01 8.51304432e-01 8.50269004e-01 
        </DataArray>
        <DataArray type="Float64" Name="rhou">
          4.08134606e-03 3.54883477e-03 3.16330185e-03 2.92909498e-03 
        </DataArray>
        <DataArray type="Float64" Name="rhov">
          3.69076986e-04 2.95059657e-04 2.82039499e-04 2.84505827e-04 
        </DataArray>
        <DataArray type="Float64" Name="E">
          1.93662327e+05 1.93205193e+05 1.92865732e+05 1.92631176e+05 
        </DataArray>
      </PointData>
    </Piece>
    <Piece NumberOfPoints="4" NumberOfCells="3">
      <Points>
        <DataArray type="Float64" NumberOfComponents="3" format="ascii">
          2.55046517e-01 5.94772622e-02 0.00000000e+00 
2.65433758e-01 5.96804135e-02 0.00000000e+00 
2.75821954e-01 5.98256700e-02 0.00000000e+00 
2.86210775e-01 5.99167012e-02 0.00000000e+00 

        </DataArray>
      </Points>
      <Cells>
        <DataArray type="Int32" Name="connectivity" format="ascii">
0 1
1 2
2 3

        </DataArray>
        <DataArray type="Int32" Name="offsets" format="ascii">
2 4 6 
        </DataArray>
        <DataArray type="UInt8" Name="types" format="ascii">
3 3 3 
        </DataArray>
      </Cells>
      <PointData>
        <DataArray type="Float64" Name="rho">
          8.50269016e-01 8.49629433e-01 8.49362280e-01 8.49448110e-01 
        </DataArray>
        <DataArray type="Float64" Name="rhou">
          2.92380849e-03 2.63037313e-03 2.33089565e-03 2.06240055e-03 
        </DataArray>
        <DataArray type="Float64" Name="rhov">
          2.95944752e-04 2.03357494e-04 1.48232251e-04 1.86538183e-04 
        </DataArray>
        <DataArray type="Float64" Name="E">
          1.92631183e+05 1.92490418e+05 1.92437802e+05 1.92468514e+05 
        </DataArray>
      </PointData>
    </Piece>
    <Piece NumberOfPoints="4" NumberOfCells="3">
      <Points>
        <DataArray type="Float64" NumberOfComponents="3" format="ascii">
          2.86210775e-01 5.99167012e-02 0.00000000e+00 
2.96599895e-01 5.99572174e-02 0.00000000e+00 
3.06989133e-01 5.99487796e-02 0.00000000e+00 
3.17378193e-01 5.98919280e-02 0.00000000e+00 

        </DataArray>
      </Points>
      <Cells>
        <DataArray type="Int32" Name="connectivity" format="ascii">
0 1
1 2
2 3

        </DataArray>
        <DataArray type="Int32" Name="offsets" format="ascii">
2 4 6 
        </DataArray>
        <DataArray type="UInt8" Name="types" format="ascii">
3 3 3 
        </DataArray>
      </Cells>
      <PointData>
        <DataArray type="Float64" Name="rho">
          8.49447068e-01 8.49836812e-01 8.50483422e-01 8.51371980e-01 
        </DataArray>
        <DataArray type="Float64" Name="rhou">
          2.08214315e-03 1.96489242e-03 1.83669420e-03 1.65138901e-03 
        </DataArray>
        <DataArray type="Float64" Name="rhov">
          2.03137011e-04 2.34968418e-04 1.83086599e-04 1.10297045e-04 
        </DataArray>
        <DataArray type="Float64" Name="E">
          1.92468277e+05 1.92570767e+05 1.92734130e+05 1.92954758e+05 
        </DataArray>
      </PointData>
    </Piece>
    <Piece NumberOfPoints="4" NumberOfCells="3">
      <Points>
        <DataArray type="Float64" NumberOfComponents="3" format="ascii">
          3.17378193e-01 5.98919280e-02 0.00000000e+00 
3.27766895e-01 5.97884916e-02 0.00000000e+00 
3.38155061e-01 5.96415885e-02 0.00000000e+00 
3.48542601e-01 5.94538599e-02 0.00000000e+00 

        </DataArray>
      </Points>
      <Cells>
        <DataArray type="Int32" Name="connectivity" format="ascii">
0 1
1 2
2 3

        </DataArray>
        <DataArray type="Int32" Name="offsets" format="ascii">
2 4 6 
        </DataArray>
        <DataArray type="UInt8" Name="types" format="ascii">
3 3 3 
        </DataArray>
      </Cells>
      <PointData>
        <DataArray type="Float64" Name="rho">
          8.51372335e-01 8.52490103e-01 8.53816416e-01 8.55317427e-01 
        </DataArray>
        <DataArray type="Float64" Name="rhou">
          1.68174647e-03 1.48208721e-03 1.36392917e-03 1.31718678e-03 
        </DataArray>
        <DataArray type="Float64" Name="rhov">
          1.18033231e-04 1.09675024e-04 1.38751867e-04 1.62336389e-04 
        </DataArray>
        <DataArray type="Float64" Name="E">
          1.92954838e+05 1.93229597e+05 1.93553540e+05 1.93918747e+05 
        </DataArray>
      </PointData>
    </Piece>
    <Piece NumberOfPoints="4" NumberOfCells="3">
      <Points>
        <DataArray type="Float64" NumberOfComponents="3" format="ascii">
          3.48542601e-01 5.94538599e-02 0.00000000e+00 
3.58929336e-01 5.92265576e-02 0.00000000e+00 
3.69315147e-01 5.89610897e-02 0.00000000e+00 
3.79699975e-01 5.86590059e-02 0.00000000e+00 

        </DataArray>
      </Points>
      <Cells>
        <DataArray type="Int32" Name="connectivity" format="ascii">
0 1
1 2
2 3

        </DataArray>
        <DataArray type="Int32" Name="offsets" format="ascii">
2 4 6 
        </DataArray>
        <DataArray type="UInt8" Name="types" format="ascii">
3 3 3 
        </DataArray>
      </Cells>
      <PointData>
        <DataArray type="Float64" Name="rho">
          8.55317678e-01 8.56966914e-01 8.58753959e-01 8.60657801e-01 
        </DataArray>
        <DataArray type="Float64" Name="rhou">
          1.33001803e-03 1.20361353e-03 1.10833925e-03 1.05950824e-03 
        </DataArray>
        <DataArray type="Float64" Name="rhov">
          1.59174351e-04 1.24469390e-04 1.18671182e-04 1.18582058e-04 
        </DataArray>
        <DataArray type="Float64" Name="E">
          1.93918805e+05 1.94319070e+05 1.94751861e+05 1.95212250e+05 
        </DataArray>
      </PointData>
    </Piece>
    <Piece NumberOfPoints="4" NumberOfCells="3">
      <Points>
        <DataArray type="Float64" NumberOfComponents="3" format="ascii">
          3.79699975e-01 5.86590059e-02 0.00000000e+00 
3.90083700e-01 5.83211333e-02 0.00000000e+00 
4.00466233e-01 5.79482466e-02 0.00000000e+00 
4.10847515e-01 5.75418957e-02 0.00000000e+00 

        </DataArray>
      </Points>
      <Cells>
        <DataArray type="Int32" Name="connectivity" format="ascii">
0 1
1 2
2 3

        </DataArray>
        <DataArray type="Int32" Name="offsets" format="ascii">
2 4 6 
        </DataArray>
        <DataArray type="UInt8" Name="types" format="ascii">
3 3 3 
        </DataArray>
      </Cells>
      <PointData>
        <DataArray type="Float64" Name="rho">
          8.60657813e-01 8.62660465e-01 8.64751004e-01 8.66921848e-01 
        </DataArray>
        <DataArray type="Float64" Name="rhou">
          1.05175851e-03 9.85899834e-04 9.05398301e-04 8.27777808e-04 
        </DataArray>
        <DataArray type="Float64" Name="rhov">
          1.21028831e-04 9.13151712e-05 6.90636792e-05 7.54022052e-05 
        </DataArray>
        <DataArray type="Float64" Name="E">
          1.95212254e+05 1.95696022e+05 1.96200575e+05 1.96724066e+05 
        </DataArray>
      </PointData>
    </Piece>
    <Piece NumberOfPoints="4" NumberOfCells="3">
      <Points>
        <DataArray type="Float64" NumberOfComponents="3" format="ascii">
          4.10847515e-01 5.75418957e-02 0.00000000e+00 
4.21227485e-01 5.71038015e-02 0.00000000e+00 
4.31606144e-01 5.66351078e-02 0.00000000e+00 
4.41983402e-01 5.61364293e-02 0.00000000e+00 

        </DataArray>
      </Points>
      <Cells>
        <DataArray type="Int32" Name="connectivity" format="ascii">
0 1
1 2
2 3

        </DataArray>
        <DataArray type="Int32" Name="offsets" format="ascii">
2 4 6 
        </DataArray>
        <DataArray type="UInt8" Name="types" format="ascii">
3 3 3 
        </DataArray>
      </Cells>
      <PointData>
        <DataArray type="Float64" Name="rho">
          8.66921645e-01 8.69155993e-01 8.71441090e-01 8.73766193e-01 
        </DataArray>
        <DataArray type="Float64" Name="rhou">
          8.44652189e-04 7.91477624e-04 7.50949783e-04 7.12410487e-04 
        </DataArray>
        <DataArray type="Float64" Name="rhov">
          7.88519094e-05 7.95502854e-05 7.00987891e-05 4.88616632e-05 
        </DataArray>
        <DataArray type="Float64" Name="E">
          1.96724020e+05 1.97262511e+05 1.97813013e+05 1.98373004e+05 
        </DataArray>
      </PointData>
    </Piece>
    <Piece NumberOfPoints="4" NumberOfCells="3">
      <Points>
        <DataArray type="Float64" NumberOfComponents="3" format="ascii">
          4.41983402e-01 5.61364293e-02 0.00000000e+00 
4.52359200e-01 5.56085743e-02 0.00000000e+00 
4.62733537e-01 5.50529286e-02 0.00000000e+00 
4.73106444e-01 5.44707514e-02 0.00000000e+00 

        </DataArray>
      </Points>
      <Cells>
        <DataArray type="Int32" Name="connectivity" format="ascii">
0 1
1 2
2 3

        </DataArray>
        <DataArray type="Int32" Name="offsets" format="ascii">
2 4 6 
        </DataArray>
        <DataArray type="UInt8" Name="types" format="ascii">
3 3 3 
        </DataArray>
      </Cells>
      <PointData>
        <DataArray type="Float64" Name="rho">
          8.73766339e-01 8.76126141e-01 8.78513310e-01 8.80918472e-01 
        </DataArray>
        <DataArray type="Float64" Name="rhou">
          7.09196707e-04 6.51162118e-04 6.09283173e-04 5.84400750e-04 
        </DataArray>
        <DataArray type="Float64" Name="rhov">
          4.94639587e-05 4.19042547e-05 4.22367791e-05 4.21814834e-05 
        </DataArray>
        <DataArray type="Float64" Name="E">
          1.98373037e+05 1.98941230e+05 1.99515885e+05 2.00094805e+05 
        </DataArray>
      </PointData>
    </Piece>
    <Piece NumberOfPoints="4" NumberOfCells="3">
      <Points>
        <DataArray type="Float64" NumberOfComponents="3" format="ascii">
          4.73106444e-01 5.44707514e-02 0.00000000e+00 
4.83477861e-01 5.38627952e-02 0.00000000e+00 
4.93847787e-01 5.32294959e-02 0.00000000e+00 
5.04216135e-01 5.25716618e-02 0.00000000e+00 

        </DataArray>
      </Points>
      <Cells>
        <DataArray type="Int32" Name="connectivity" format="ascii">
0 1
1 2
2 3

        </DataArray>
        <DataArray type="Int32" Name="offsets" format="ascii">
2 4 6 
        </DataArray>
        <DataArray type="UInt8" Name="types" format="ascii">
3 3 3 
        </DataArray>
      </Cells>
      <PointData>
        <DataArray type="Float64" Name="rho">
          8.80918459e-01 8.83334031e-01 8.85754001e-01 8.88176746e-01 
        </DataArray>
        <DataArray type="Float64" Name="rhou">
          5.76459977e-04 5.53697613e-04 5.16429276e-04 4.72740465e-04 
        </DataArray>
        <DataArray type="Float64" Name="rhov">
          4.39672273e-05 3.19399019e-05 1.62936613e-05 1.30230582e-05 
        </DataArray>
        <DataArray type="Float64" Name="E">
          2.00094803e+05 2.00676209e+05 2.01258693e+05 2.01841841e+05 
        </DataArray>
      </PointData>
    </Piece>
    <Piece NumberOfPoints="4" NumberOfCells="3">
      <Points>
        <DataArray type="Float64" NumberOfComponents="3" format="ascii">
          5.04216135e-01 5.25716618e-02 0.00000000e+00 
5.14582992e-01 5.18903993e-02 0.00000000e+00 
5.24948359e-01 5.11864908e-02 0.00000000e+00 
5.35312176e-01 5.04603274e-02 0.00000000e+00 

        </DataArray>
      </Points>
      <Cells>
        <DataArray type="Int32" Name="connectivity" format="ascii">
0 1
1 2
2 3

        </DataArray>
        <DataArray type="Int32" Name="offsets" format="ascii">
2 4 6 
        </DataArray>
        <DataArray type="UInt8" Name="types" format="ascii">
3 3 3 
        </DataArray>
      </Cells>
      <PointData>
        <DataArray type="Float64" Name="rho">
          8.88176661e-01 8.90596312e-01 8.93008017e-01 8.95407987e-01 
        </DataArray>
        <DataArray type="Float64" Name="rhou">
          4.81220636e-04 4.53156386e-04 4.31523177e-04 4.10425862e-04 
        </DataArray>
        <DataArray type="Float64" Name="rhov">
          1.51755529e-05 1.41005675e-05 7.82687552e-06 -5.00793872e-06 
        </DataArray>
        <DataArray type="Float64" Name="E">
          2.01841822e+05 2.02424259e+05 2.03004853e+05 2.03582717e+05 
        </DataArray>
      </PointData>
    </Piece>
    <Piece NumberOfPoints="4" NumberOfCells="3">
      <Points>
        <DataArray type="Float64" NumberOfComponents="3" format="ascii">
          5.35312176e-01 5.04603274e-02 0.00000000e+00 
5.45674443e-01 4.97124642e-02 0.00000000e+00 
5.56035221e-01 4.89437394e-02 0.00000000e+00 
5.66394389e-01 4.81546782e-02 0.00000000e+00 

        </DataArray>
      </Points>
      <Cells>
        <DataArray type="Int32" Name="connectivity" format="ascii">
0 1
1 2
2 3

        </DataArray>
        <DataArray type="Int32" Name="offsets" format="ascii">
2 4 6 
        </DataArray>
        <DataArray type="UInt8" Name="types" format="ascii">
3 3 3 
        </DataArray>
      </Cells>
      <PointData>
        <DataArray type="Float64" Name="rho">
          8.95408033e-01 8.97795456e-01 9.00167270e-01 9.02520518e-01 
        </DataArray>
        <DataArray type="Float64" Name="rhou">
          4.05903499e-04 3.77541781e-04 3.57296713e-04 3.43945490e-04 
        </DataArray>
        <DataArray type="Float64" Name="rhov">
          -4.74634187e-06 -6.33591055e-06 -7.93001744e-06 -1.30663080e-05 
        </DataArray>
        <DataArray type="Float64" Name="E">
          2.03582728e+05 2.04157654e+05 2.04728926e+05 2.05295857e+05 
        </DataArray>
      </PointData>
    </Piece>
    <Piece NumberOfPoints="4" NumberOfCells="3">
      <Points>
        <DataArray type="Float64" NumberOfComponents="3" format="ascii">
          5.66394389e-01 4.81546782e-02 0.00000000e+00 
5.76752067e-01 4.73455116e-02 0.00000000e+00 
5.87108195e-01 4.65166979e-02 0.00000000e+00 
5.97462773e-01 4.56690118e-02 0.00000000e+00 

        </DataArray>
      </Points>
      <Cells>
        <DataArray type="Int32" Name="connectivity" format="ascii">
0 1
1 2
2 3

        </DataArray>
        <DataArray type="Int32" Name="offsets" format="ascii">
2 4 6 
        </DataArray>
        <DataArray type="UInt8" Name="types" format="ascii">
3 3 3 
        </DataArray>
      </Cells>
      <PointData>
        <DataArray type="Float64" Name="rho">
          9.02520548e-01 9.04853550e-01 9.07166042e-01 9.09457211e-01 
        </DataArray>
        <DataArray type="Float64" Name="rhou">
          3.43143902e-04 3.21075608e-04 2.98324959e-04 2.80779210e-04 
        </DataArray>
        <DataArray type="Float64" Name="rhov">
          -1.27241943e-05 -2.23161645e-05 -2.66834470e-05 -2.61468235e-05 
        </DataArray>
        <DataArray type="Float64" Name="E">
          2.05295864e+05 2.05858059e+05 2.06415446e+05 2.06967827e+05 
        </DataArray>
      </PointData>
    </Piece>
    <Piece NumberOfPoints="4" NumberOfCells="3">
      <Points>
        <DataArray type="Float64" NumberOfComponents="3" format="ascii">
          5.97462773e-01 4.56690118e-02 0.00000000e+00 
6.07815862e-01 4.48031016e-02 0.00000000e+00 
6.18167400e-01 4.39192392e-02 0.00000000e+00 
6.28517449e-01 4.30175588e-02 0.00000000e+00 

        </DataArray>
      </Points>
      <Cells>
        <DataArray type="Int32" Name="connectivity" format="ascii">
0 1
1 2
2 3

        </DataArray>
        <DataArray type="Int32" Name="offsets" format="ascii">
2 4 6 
        </DataArray>
        <DataArray type="UInt8" Name="types" format="ascii">
3 3 3 
        </DataArray>
      </Cells>
      <PointData>
        <DataArray type="Float64" Name="rho">
          9.09457147e-01 9.11725197e-01 9.13968423e-01 9.16187146e-01 
        </DataArray>
        <DataArray type="Float64" Name="rhou">
          2.78781532e-04 2.68932007e-04 2.55786279e-04 2.37343303e-04 
        </DataArray>
        <DataArray type="Float64" Name="rhov">
          -2.51875037e-05 -2.62625613e-05 -3.25015043e-05 -3.83782608e-05 
        </DataArray>
        <DataArray type="Float64" Name="E">
          2.06967813e+05 2.07514770e+05 2.08055907e+05 2.08591289e+05 
        </DataArray>
      </PointData>
    </Piece>
    <Piece NumberOfPoints="4" NumberOfCells="3">
      <Points>
        <DataArray type="Float64" NumberOfComponents="3" format="ascii">
          6.28517449e-01 4.30175588e-02 0.00000000e+00 
6.38865948e-01 4.20984775e-02 0.00000000e+00 
6.49212897e-01 4.11624312e-02 0.00000000e+00 
6.59558356e-01 4.02097441e-02 0.00000000e+00 

        </DataArray>
      </Points>
      <Cells>
        <DataArray type="Int32" Name="connectivity" format="ascii">
0 1
1 2
2 3

        </DataArray>
        <DataArray type="Int32" Name="offsets" format="ascii">
2 4 6 
        </DataArray>
        <DataArray type="UInt8" Name="types" format="ascii">
3 3 3 
        </DataArray>
      </Cells>
      <PointData>
        <DataArray type="Float64" Name="rho">
          9.16187137e-01 9.18381318e-01 9.20550245e-01 9.22693751e-01 
        </DataArray>
        <DataArray type="Float64" Name="rhou">
          2.38376613e-04 2.24786695e-04 2.13209060e-04 2.00839994e-04 
        </DataArray>
        <DataArray type="Float64" Name="rhov">
          -3.73172354e-05 -3.83370162e-05 -4.04308310e-05 -4.27820214e-05 
        </DataArray>
        <DataArray type="Float64" Name="E">
          2.08591287e+05 2.09120895e+05 2.09644557e+05 2.10162224e+05 
        </DataArray>
      </PointData>
    </Piece>
    <Piece NumberOfPoints="4" NumberOfCells="3">
      <Points>
        <DataArray type="Float64" NumberOfComponents="3" format="ascii">
          6.59558356e-01 4.02097441e-02 0.00000000e+00 
6.69902325e-01 3.92407738e-02 0.00000000e+00 
6.80244744e-01 3.82556282e-02 0.00000000e+00 
6.90585554e-01 3.72543521e-02 0.00000000e+00 

        </DataArray>
      </Points>
      <Cells>
        <DataArray type="Int32" Name="connectivity" format="ascii">
0 1
1 2
2 3

        </DataArray>
        <DataArray type="Int32" Name="offsets" format="ascii">
2 4 6 
        </DataArray>
        <DataArray type="UInt8" Name="types" format="ascii">
3 3 3 
        </DataArray>
      </Cells>
      <PointData>
        <DataArray type="Float64" Name="rho">
          9.22693733e-01 9.24811936e-01 9.26903783e-01 9.28970190e-01 
        </DataArray>
        <DataArray type="Float64" Name="rhou">
          1.97637435e-04 1.92553770e-04 1.83964362e-04 1.69301626e-04 
        </DataArray>
        <DataArray type="Float64" Name="rhov">
          -4.16994933e-05 -4.16491328e-05 -4.61005064e-05 -4.96092127e-05 
        </DataArray>
        <DataArray type="Float64" Name="E">
          2.10162220e+05 2.10673908e+05 2.11179366e+05 2.11678788e+05 
        </DataArray>
      </PointData>
    </Piece>
    <Piece NumberOfPoints="4" NumberOfCells="3">
      <Points>
        <DataArray type="Float64" NumberOfComponents="3" format="ascii">
          6.90585554e-01 3.72543521e-02 0.00000000e+00 
7.00924933e-01 3.62373814e-02 0.00000000e+00 
7.11262703e-01 3.52048986e-02 0.00000000e+00 
7.21598923e-01 3.41568366e-02 0.00000000e+00 

        </DataArray>
      </Points>
      <Cells>
        <DataArray type="Int32" Name="connectivity" format="ascii">
0 1
1 2
2 3

        </DataArray>
        <DataArray type="Int32" Name="offsets" format="ascii">
2 4 6 
        </DataArray>
        <DataArray type="UInt8" Name="types" format="ascii">
3 3 3 
        </DataArray>
      </Cells>
      <PointData>
        <DataArray type="Float64" Name="rho">
          9.28970147e-01 9.31011607e-01 9.33026952e-01 9.35016891e-01 
        </DataArray>
        <DataArray type="Float64" Name="rhou">
          1.67969293e-04 1.63462480e-04 1.58995889e-04 1.46647761e-04 
        </DataArray>
        <DataArray type="Float64" Name="rhov">
          -4.84484088e-05 -4.55519598e-05 -4.85742025e-05 -5.29816565e-05 
        </DataArray>
        <DataArray type="Float64" Name="E">
          2.11678779e+05 2.12172262e+05 2.12659524e+05 2.13140707e+05 
        </DataArray>
      </PointData>
    </Piece>
    <Piece NumberOfPoints="4" NumberOfCells="3">
      <Points>
        <DataArray type="Float64" NumberOfComponents="3" format="ascii">
          7.21598923e-01 3.41568366e-02 0.00000000e+00 
7.31933594e-01 3.30936089e-02 0.00000000e+00 
7.42266715e-01 3.20154354e-02 0.00000000e+00 
7.52598286e-01 3.09220124e-02 0.00000000e+00 

        </DataArray>
      </Points>
      <Cells>
        <DataArray type="Int32" Name="connectivity" format="ascii">
0 1
1 2
2 3

        </DataArray>
        <DataArray type="Int32" Name="offsets" format="ascii">
2 4 6 
        </DataArray>
        <DataArray type="UInt8" Name="types" format="ascii">
3 3 3 
        </DataArray>
      </Cells>
      <PointData>
        <DataArray type="Float64" Name="rho">
          9.35016870e-01 9.36982481e-01 9.38922400e-01 9.40837159e-01 
        </DataArray>
        <DataArray type="Float64" Name="rhou">
          1.43999326e-04 1.41076071e-04 1.39653037e-04 1.30746694e-04 
        </DataArray>
        <DataArray type="Float64" Name="rhov">
          -5.19830981e-05 -4.68319479e-05 -4.85938372e-05 -5.32566326e-05 
        </DataArray>
        <DataArray type="Float64" Name="E">
          2.13140703e+05 2.13616033e+05 2.14085178e+05 2.14548236e+05 
        </DataArray>
      </PointData>
    </Piece>
    <Piece NumberOfPoints="4" NumberOfCells="3">
      <Points>
        <DataArray type="Float64" NumberOfComponents="3" format="ascii">
          7.52598286e-01 3.09220124e-02 0.00000000e+00 
7.62928188e-01 2.98135038e-02 0.00000000e+00 
7.73256481e-01 2.86899786e-02 0.00000000e+00 
7.83583105e-01 2.75512449e-02 0.00000000e+00 

        </DataArray>
      </Points>
      <Cells>
        <DataArray type="Int32" Name="connectivity" format="ascii">
0 1
1 2
2 3

        </DataArray>
        <DataArray type="Int32" Name="offsets" format="ascii">
2 4 6 
        </DataArray>
        <DataArray type="UInt8" Name="types" format="ascii">
3 3 3 
        </DataArray>
      </Cells>
      <PointData>
        <DataArray type="Float64" Name="rho">
          9.40837154e-01 9.42727928e-01 9.44593873e-01 9.46435691e-01 
        </DataArray>
        <DataArray type="Float64" Name="rhou">
          1.28140914e-04 1.26252674e-04 1.24430044e-04 1.17130814e-04 
        </DataArray>
        <DataArray type="Float64" Name="rhov">
          -5.23198415e-05 -4.93156653e-05 -5.09440842e-05 -5.36565669e-05 
        </DataArray>
        <DataArray type="Float64" Name="E">
          2.14548235e+05 2.15005449e+05 2.15456597e+05 2.15901810e+05 
        </DataArray>
      </PointData>
    </Piece>
    <Piece NumberOfPoints="4" NumberOfCells="3">
      <Points>
        <DataArray type="Float64" NumberOfComponents="3" format="ascii">
          7.83583105e-01 2.75512449e-02 0.00000000e+00 
7.93908060e-01 2.63975188e-02 0.00000000e+00 
8.04231405e-01 2.52291560e-02 0.00000000e+00 
8.14553022e-01 2.40457114e-02 0.00000000e+00 

        </DataArray>
      </Points>
      <Cells>
        <DataArray type="Int32" Name="connectivity" format="ascii">
0 1
1 2
2 3

        </DataArray>
        <DataArray type="Int32" Name="offsets" format="ascii">
2 4 6 
        </DataArray>
        <DataArray type="UInt8" Name="types" format="ascii">
3 3 3 
        </DataArray>
      </Cells>
      <PointData>
        <DataArray type="Float64" Name="rho">
          9.46435697e-01 9.48254156e-01 9.50049165e-01 9.51820047e-01 
        </DataArray>
        <DataArray type="Float64" Name="rhou">
          1.19802074e-04 1.11355855e-04 1.12985149e-04 1.16920422e-04 
        </DataArray>
        <DataArray type="Float64" Name="rhov">
          -5.40352309e-05 -4.96336474e-05 -4.77504326e-05 -5.38842270e-05 
        </DataArray>
        <DataArray type="Float64" Name="E">
          2.15901812e+05 2.16341232e+05 2.16774802e+05 2.17202328e+05 
        </DataArray>
      </PointData>
    </Piece>
    <Piece NumberOfPoints="4" NumberOfCells="3">
      <Points>
        <DataArray type="Float64" NumberOfComponents="3" format="ascii">
          8.14553022e-01 2.40457114e-02 0.00000000e+00 
8.24872792e-01 2.28467938e-02 0.00000000e+00 
8.35190892e-01 2.16327831e-02 0.00000000e+00 
8.45507145e-01 2.04038676e-02 0.00000000e+00 

        </DataArray>
      </Points>
      <Cells>
        <DataArray type="Int32" Name="connectivity" format="ascii">
0 1
1 2
2 3

        </DataArray>
        <DataArray type="Int32" Name="offsets" format="ascii">
2 4 6 
        </DataArray>
        <DataArray type="UInt8" Name="types" format="ascii">
3 3 3 
        </DataArray>
      </Cells>
      <PointData>
        <DataArray type="Float64" Name="rho">
          9.51820091e-01 9.53568563e-01 9.55294949e-01 9.56999437e-01 
        </DataArray>
        <DataArray type="Float64" Name="rhou">
          1.10832248e-04 1.05376031e-04 1.01321490e-04 1.05277845e-04 
        </DataArray>
        <DataArray type="Float64" Name="rhov">
          -5.41693918e-05 -5.36303837e-05 -5.02950496e-05 -4.58767514e-05 
        </DataArray>
        <DataArray type="Float64" Name="E">
          2.17202338e+05 2.17624169e+05 2.18040327e+05 2.18450802e+05 
        </DataArray>
      </PointData>
    </Piece>
    <Piece NumberOfPoints="4" NumberOfCells="3">
      <Points>
        <DataArray type="Float64" NumberOfComponents="3" format="ascii">
          8.45507145e-01 2.04038676e-02 0.00000000e+00 
8.55821550e-01 1.91591792e-02 0.00000000e+00 
8.66134048e-01 1.78987328e-02 0.00000000e+00 
8.76444638e-01 1.66228991e-02 0.00000000e+00 

        </DataArray>
      </Points>
      <Cells>
        <DataArray type="Int32" Name="connectivity" format="ascii">
0 1
1 2
2 3

        </DataArray>
        <DataArray type="Int32" Name="offsets" format="ascii">
2 4 6 
        </DataArray>
        <DataArray type="UInt8" Name="types" format="ascii">
3 3 3 
        </DataArray>
      </Cells>
      <PointData>
        <DataArray type="Float64" Name="rho">
          9.56999552e-01 9.58680807e-01 9.60342937e-01 9.61982474e-01 
        </DataArray>
        <DataArray type="Float64" Name="rhou">
          1.27357877e-04 9.81487907e-05 1.00110128e-04 1.20368790e-04 
        </DataArray>
        <DataArray type="Float64" Name="rhov">
          -4.96591598e-05 -5.70747449e-05 -5.41354164e-05 -7.24049594e-05 
        </DataArray>
        <DataArray type="Float64" Name="E">
          2.18450828e+05 2.18855254e+05 2.19254493e+05 2.19647675e+05 
        </DataArray>
      </PointData>
    </Piece>
    <Piece NumberOfPoints="4" NumberOfCells="3">
      <Points>
        <DataArray type="Float64" NumberOfComponents="3" format="ascii">
          8.76444638e-01 1.66228991e-02 0.00000000e+00 
8.86753201e-01 1.53310820e-02 0.00000000e+00 
8.97059798e-01 1.40233757e-02 0.00000000e+00 
9.07364249e-01 1.26988320e-02 0.00000000e+00 

        </DataArray>
      </Points>
      <Cells>
        <DataArray type="Int32" Name="connectivity" format="ascii">
0 1
1 2
2 3

        </DataArray>
        <DataArray type="Int32" Name="offsets" format="ascii">
2 4 6 
        </DataArray>
        <DataArray type="UInt8" Name="types" format="ascii">
3 3 3 
        </DataArray>
      </Cells>
      <PointData>
        <DataArray type="Float64" Name="rho">
          9.61982002e-01 9.63606069e-01 9.65207082e-01 9.66804947e-01 
        </DataArray>
        <DataArray type="Float64" Name="rhou">
          2.39263250e-05 1.24312450e-04 6.98624127e-05 1.85369352e-05 
        </DataArray>
        <DataArray type="Float64" Name="rhov">
          -6.41461611e-05 -6.75208585e-05 -8.74329912e-05 1.63724718e-05 
        </DataArray>
        <DataArray type="Float64" Name="E">
          2.19647568e+05 2.20036229e+05 2.20418534e+05 2.20798919e+05 
        </DataArray>
      </PointData>
    </Piece>
    <Piece NumberOfPoints="4" NumberOfCells="3">
      <Points>
        <DataArray type="Float64" NumberOfComponents="3" format="ascii">
          9.07364249e-01 1.26988320e-02 0.00000000e+00 
9.17666554e-01 1.13577880e-02 0.00000000e+00 
9.27966774e-01 1.00004105e-02 0.00000000e+00 
9.38264549e-01 8.62528384e-03 0.00000000e+00 

        </DataArray>
      </Points>
      <Cells>
        <DataArray type="Int32" Name="connectivity" format="ascii">
0 1
1 2
2 3

        </DataArray>
        <DataArray type="Int32" Name="offsets" format="ascii">
2 4 6 
        </DataArray>
        <DataArray type="UInt8" Name="types" format="ascii">
3 3 3 
        </DataArray>
      </Cells>
      <PointData>
        <DataArray type="Float64" Name="rho">
          9.66810051e-01 9.68360816e-01 9.69941503e-01 9.71373945e-01 
        </DataArray>
        <DataArray type="Float64" Name="rhou">
          8.69302730e-04 -1.86366597e-04 3.97212190e-04 8.42615838e-04 
        </DataArray>
        <DataArray type="Float64" Name="rhov">
          -5.63419207e-05 -1.12705521e-04 -3.84525346e-05 -1.52795401e-03 
        </DataArray>
        <DataArray type="Float64" Name="E">
          2.20800084e+05 2.21168390e+05 2.21542083e+05 2.21880349e+05 
        </DataArray>
      </PointData>
    </Piece>
    <Piece NumberOfPoints="4" NumberOfCells="3">
      <Points>
        <DataArray type="Float64" NumberOfComponents="3" format="ascii">
          9.38264549e-01 8.62528384e-03 0.00000000e+00 
9.48560059e-01 7.23283459e-03 0.00000000e+00 
9.58853185e-01 5.82307298e-03 0.00000000e+00 
9.69143867e-01 4.39538015e-03 0.00000000e+00 

        </DataArray>
      </Points>
      <Cells>
        <DataArray type="Int32" Name="connectivity" format="ascii">
0 1
1 2
2 3

        </DataArray>
        <DataArray type="Int32" Name="offsets" format="ascii">
2 4 6 
        </DataArray>
        <DataArray type="UInt8" Name="types" format="ascii">
3 3 3 
        </DataArray>
      </Cells>
      <PointData>
        <DataArray type="Float64" Name="rho">
          9.71324042e-01 9.73098398e-01 9.74449159e-01 9.77328781e-01 
        </DataArray>
        <DataArray type="Float64" Name="rhou">
          -6.99902577e-03 2.29935297e-03 -3.29446467e-03 -1.98926402e-02 
        </DataArray>
        <DataArray type="Float64" Name="rhov">
          -1.12780490e-03 1.43372412e-04 -1.16347095e-03 1.99362313e-02 
        </DataArray>
        <DataArray type="Float64" Name="E">
          2.21868950e+05 2.22283629e+05 2.22599749e+05 2.23263155e+05 
        </DataArray>
      </PointData>
    </Piece>
    <Piece NumberOfPoints="4" NumberOfCells="3">
      <Points>
        <DataArray type="Float64" NumberOfComponents="3" format="ascii">
          9.69143867e-01 4.39538015e-03 0.00000000e+00 
9.79435980e-01 2.94816052e-03 0.00000000e+00 
9.89725590e-01 1.48259092e-03 0.00000000e+00 
1.00000000e+00 0.00000000e+00 0.00000000e+00 

        </DataArray>
      </Points>
      <Cells>
        <DataArray type="Int32" Name="connectivity" format="ascii">
0 1
1 2
2 3

        </DataArray>
        <DataArray type="Int32" Name="offsets" format="ascii">
2 4 6 
        </DataArray>
        <DataArray type="UInt8" Name="types" format="ascii">
3 3 3 
        </DataArray>
      </Cells>
      <PointData>
        <DataArray type="Float64" Name="rho">
          9.77633760e-01 9.77297050e-01 9.81392888e-01 9.71034079e-01 
        </DataArray>
        <DataArray type="Float64" Name="rhou">
          -1.54942346e-03 -1.01200000e-02 -3.92184341e-02 5.27070832e-01 
        </DataArray>
        <DataArray type="Float64" Name="rhov">
          2.15549582e-02 1.48043202e-03 5.48211526e-02 -1.42681772e-01 
        </DataArray>
        <DataArray type="Float64" Name="E">
          2.23333423e+05 2.23258791e+05 2.24193734e+05 2.21808612e+05 
        </DataArray>
      </PointData>
    </Piece>
    <Piece NumberOfPoints="4" NumberOfCells="3">
      <Points>
        <DataArray type="Float64" NumberOfComponents="3" format="ascii">
          9.69029665e-01 -4.41133138e-03 0.00000000e+00 
9.79355037e-01 -2.95961346e-03 0.00000000e+00 
9.89677846e-01 -1.48943183e-03 0.00000000e+00 
1.00000000e+00 0.00000000e+00 0.00000000e+00 

        </DataArray>
      </Points>
      <Cells>
        <DataArray type="Int32" Name="connectivity" format="ascii">
0 1
1 2
2 3

        </DataArray>
        <DataArray type="Int32" Name="offsets" format="ascii">
2 4 6 
        </DataArray>
        <DataArray type="UInt8" Name="types" format="ascii">
3 3 3 
        </DataArray>
      </Cells>
      <PointData>
        <DataArray type="Float64" Name="rho">
          9.77444000e-01 9.76970677e-01 9.80911405e-01 9.71575327e-01 
        </DataArray>
        <DataArray type="Float64" Name="rhou">
          -8.94499251e-04 -7.92393493e-03 -3.83774543e-02 4.88905213e-01 
        </DataArray>
        <DataArray type="Float64" Name="rhov">
          -2.59765035e-02 2.68775938e-03 -5.26889010e-02 1.55336668e-01 
        </DataArray>
        <DataArray type="Float64" Name="E">
          2.23139884e+05 2.23055968e+05 2.23985107e+05 2.21908102e+05 
        </DataArray>
      </PointData>
    </Piece>
    <Piece NumberOfPoints="4" NumberOfCells="3">
      <Points>
        <DataArray type="Float64" NumberOfComponents="3" format="ascii">
          9.38035965e-01 -8.65600072e-03 0.00000000e+00 
9.48369622e-01 -7.25875143e-03 0.00000000e+00 
9.58700895e-01 -5.84406452e-03 0.00000000e+00 
9.69029665e-01 -4.41133138e-03 0.00000000e+00 

        </DataArray>
      </Points>
      <Cells>
        <DataArray type="Int32" Name="connectivity" format="ascii">
0 1
1 2
2 3

        </DataArray>
        <DataArray type="Int32" Name="offsets" format="ascii">
2 4 6 
        </DataArray>
        <DataArray type="UInt8" Name="types" format="ascii">
3 3 3 
        </DataArray>
      </Cells>
      <PointData>
        <DataArray type="Float64" Name="rho">
          9.71551989e-01 9.73205145e-01 9.74423295e-01 9.77126605e-01 
        </DataArray>
        <DataArray type="Float64" Name="rhou">
          -6.75775003e-03 2.52160198e-03 -2.74153252e-03 -1.83552361e-02 
        </DataArray>
        <DataArray type="Float64" Name="rhov">
          1.17626082e-03 -2.05082671e-04 1.46364350e-03 -1.87843144e-02 
        </DataArray>
        <DataArray type="Float64" Name="E">
          2.21741199e+05 2.22135482e+05 2.22431441e+05 2.23068120e+05 
        </DataArray>
      </PointData>
    </Piece>
    <Piece NumberOfPoints="4" NumberOfCells="3">
      <Points>
        <DataArray type="Float64" NumberOfComponents="3" format="ascii">
          9.07021165e-01 -1.27432076e-02 0.00000000e+00 
9.17361677e-01 -1.13977119e-02 0.00000000e+00 
9.27700043e-01 -1.00357840e-02 0.00000000e+00 
9.38035965e-01 -8.65600072e-03 0.00000000e+00 

        </DataArray>
      </Points>
      <Cells>
        <DataArray type="Int32" Name="connectivity" format="ascii">
0 1
1 2
2 3

        </DataArray>
        <DataArray type="Int32" Name="offsets" format="ascii">
2 4 6 
        </DataArray>
        <DataArray type="UInt8" Name="types" format="ascii">
3 3 3 
        </DataArray>
      </Cells>
      <PointData>
        <DataArray type="Float64" Name="rho">
          9.67385787e-01 9.68820083e-01 9.70286591e-01 9.71602066e-01 
        </DataArray>
        <DataArray type="Float64" Name="rhou">
          1.01547557e-03 -4.77173705e-05 5.62922648e-04 9.94881299e-04 
        </DataArray>
        <DataArray type="Float64" Name="rhov">
          3.18806999e-05 6.21037591e-05 -3.21468531e-05 1.47193272e-03 
        </DataArray>
        <DataArray type="Float64" Name="E">
          2.20740067e+05 2.21084267e+05 2.21435665e+05 2.21752617e+05 
        </DataArray>
      </PointData>
    </Piece>
    <Piece NumberOfPoints="4" NumberOfCells="3">
      <Points>
        <DataArray type="Float64" NumberOfComponents="3" format="ascii">
          8.75986874e-01 -1.66798849e-02 0.00000000e+00 
8.86333704e-01 -1.53839625e-02 0.00000000e+00 
8.96678507e-01 -1.40720531e-02 0.00000000e+00 
9.07021165e-01 -1.27432076e-02 0.00000000e+00 

        </DataArray>
      </Points>
      <Cells>
        <DataArray type="Int32" Name="connectivity" format="ascii">
0 1
1 2
2 3

        </DataArray>
        <DataArray type="Int32" Name="offsets" format="ascii">
2 4 6 
        </DataArray>
        <DataArray type="UInt8" Name="types" format="ascii">
3 3 3 
        </DataArray>
      </Cells>
      <PointData>
        <DataArray type="Float64" Name="rho">
          9.62954723e-01 9.64437835e-01 9.65907302e-01 9.67380525e-01 
        </DataArray>
        <DataArray type="Float64" Name="rhou">
          1.74898553e-04 2.65443309e-04 2.17942903e-04 1.66860509e-04 
        </DataArray>
        <DataArray type="Float64" Name="rhov">
          5.34292804e-05 4.44102508e-05 6.04395758e-05 -4.14102797e-05 
        </DataArray>
        <DataArray type="Float64" Name="E">
          2.19676771e+05 2.20032857e+05 2.20385563e+05 2.20738869e+05 
        </DataArray>
      </PointData>
    </Piece>
    <Piece NumberOfPoints="4" NumberOfCells="3">
      <Points>
        <DataArray type="Float64" NumberOfComponents="3" format="ascii">
          8.44934702e-01 -2.04724707e-02 0.00000000e+00 
8.55287313e-01 -1.92240477e-02 0.00000000e+00 
8.65638077e-01 -1.79597028e-02 0.00000000e+00 
8.75986874e-01 -1.66798849e-02 0.00000000e+00 

        </DataArray>
      </Points>
      <Cells>
        <DataArray type="Int32" Name="connectivity" format="ascii">
0 1
1 2
2 3

        </DataArray>
        <DataArray type="Int32" Name="offsets" format="ascii">
2 4 6 
        </DataArray>
        <DataArray type="UInt8" Name="types" format="ascii">
3 3 3 
        </DataArray>
      </Cells>
      <PointData>
        <DataArray type="Float64" Name="rho">
          9.58468602e-01 9.59970351e-01 9.61468486e-01 9.62955178e-01 
        </DataArray>
        <DataArray type="Float64" Name="rhou">
          3.04118182e-04 2.46199107e-04 2.37676507e-04 2.82009124e-04 
        </DataArray>
        <DataArray type="Float64" Name="rhov">
          2.78489894e-05 4.90175911e-05 3.77957412e-05 5.72683965e-05 
        </DataArray>
        <DataArray type="Float64" Name="E">
          2.18598600e+05 2.18959683e+05 2.19319709e+05 2.19676875e+05 
        </DataArray>
      </PointData>
    </Piece>
    <Piece NumberOfPoints="4" NumberOfCells="3">
      <Points>
        <DataArray type="Float64" NumberOfComponents="3" format="ascii">
          8.13865662e-01 -2.41250079e-02 0.00000000e+00 
8.24223816e-01 -2.29226518e-02 0.00000000e+00 
8.34580123e-01 -2.17050612e-02 0.00000000e+00 
8.44934702e-01 -2.04724707e-02 0.00000000e+00 

        </DataArray>
      </Points>
      <Cells>
        <DataArray type="Int32" Name="connectivity" format="ascii">
0 1
1 2
2 3

        </DataArray>
        <DataArray type="Int32" Name="offsets" format="ascii">
2 4 6 
        </DataArray>
        <DataArray type="UInt8" Name="types" format="ascii">
3 3 3 
        </DataArray>
      </Cells>
      <PointData>
        <DataArray type="Float64" Name="rho">
          9.53908976e-01 9.55434871e-01 9.56954976e-01 9.58468361e-01 
        </DataArray>
        <DataArray type="Float64" Name="rhou">
          2.66741656e-04 2.54661244e-04 2.42772801e-04 2.52596218e-04 
        </DataArray>
        <DataArray type="Float64" Name="rhov">
          4.15746424e-05 4.17873827e-05 3.34195337e-05 2.03776238e-05 
        </DataArray>
        <DataArray type="Float64" Name="E">
          2.17501767e+05 2.17868929e+05 2.18234599e+05 2.18598546e+05 
        </DataArray>
      </PointData>
    </Piece>
    <Piece NumberOfPoints="4" NumberOfCells="3">
      <Points>
        <DataArray type="Float64" NumberOfComponents="3" format="ascii">
          7.82780826e-01 -2.76402626e-02 0.00000000e+00 
7.93144107e-01 -2.64833923e-02 0.00000000e+00 
8.03505778e-01 -2.53117718e-02 0.00000000e+00 
8.13865662e-01 -2.41250079e-02 0.00000000e+00 

        </DataArray>
      </Points>
      <Cells>
        <DataArray type="Int32" Name="connectivity" format="ascii">
0 1
1 2
2 3

        </DataArray>
        <DataArray type="Int32" Name="offsets" format="ascii">
2 4 6 
        </DataArray>
        <DataArray type="UInt8" Name="types" format="ascii">
3 3 3 
        </DataArray>
      </Cells>
      <PointData>
        <DataArray type="Float64" Name="rho">
          9.49293004e-01 9.50837788e-01 9.52377443e-01 9.53908863e-01 
        </DataArray>
        <DataArray type="Float64" Name="rhou">
          2.78125615e-04 2.59665700e-04 2.62990259e-04 2.76549700e-04 
        </DataArray>
        <DataArray type="Float64" Name="rhov">
          4.08922052e-05 3.13020218e-05 2.58305569e-05 4.00689016e-05 
        </DataArray>
        <DataArray type="Float64" Name="E">
          2.16390750e+05 2.16762599e+05 2.17133172e+05 2.17501741e+05 
        </DataArray>
      </PointData>
    </Piece>
    <Piece NumberOfPoints="4" NumberOfCells="3">
      <Points>
        <DataArray type="Float64" NumberOfComponents="3" format="ascii">
          7.51680970e-01 -3.10197193e-02 0.00000000e+00 
7.62049198e-01 -2.99084149e-02 0.00000000e+00 
7.72415876e-01 -2.87819952e-02 0.00000000e+00 
7.82780826e-01 -2.76402626e-02 0.00000000e+00 

        </DataArray>
      </Points>
      <Cells>
        <DataArray type="Int32" Name="connectivity" format="ascii">
0 1
1 2
2 3

        </DataArray>
        <DataArray type="Int32" Name="offsets" format="ascii">
2 4 6 
        </DataArray>
        <DataArray type="UInt8" Name="types" format="ascii">
3 3 3 
        </DataArray>
      </Cells>
      <PointData>
        <DataArray type="Float64" Name="rho">
          9.44632742e-01 9.46190914e-01 9.47744281e-01 9.49292966e-01 
        </DataArray>
        <DataArray type="Float64" Name="rhou">
          2.83299603e-04 2.81754412e-04 2.79243000e-04 2.67652899e-04 
        </DataArray>
        <DataArray type="Float64" Name="rhov">
          3.65773923e-05 2.87455539e-05 3.17944843e-05 3.88329530e-05 
        </DataArray>
        <DataArray type="Float64" Name="E">
          2.15268882e+05 2.15643969e+05 2.16017920e+05 2.16390742e+05 
        </DataArray>
      </PointData>
    </Piece>
    <Piece NumberOfPoints="4" NumberOfCells="3">
      <Points>
        <DataArray type="Float64" NumberOfComponents="3" format="ascii">
          7.20566452e-01 -3.42622213e-02 0.00000000e+00 
7.30939507e-01 -3.31965312e-02 0.00000000e+00 
7.41311073e-01 -3.21157984e-02 0.00000000e+00 
7.51680970e-01 -3.10197193e-02 0.00000000e+00 

        </DataArray>
      </Points>
      <Cells>
        <DataArray type="Int32" Name="connectivity" format="ascii">
0 1
1 2
2 3

        </DataArray>
        <DataArray type="Int32" Name="offsets" format="ascii">
2 4 6 
        </DataArray>
        <DataArray type="UInt8" Name="types" format="ascii">
3 3 3 
        </DataArray>
      </Cells>
      <PointData>
        <DataArray type="Float64" Name="rho">
          9.39943280e-01 9.41509541e-01 9.43072936e-01 9.44632733e-01 
        </DataArray>
        <DataArray type="Float64" Name="rhou">
          3.03633575e-04 2.98616855e-04 2.98241959e-04 2.87124084e-04 
        </DataArray>
        <DataArray type="Float64" Name="rhov">
          3.62702043e-05 2.39668823e-05 2.57688529e-05 3.71892274e-05 
        </DataArray>
        <DataArray type="Float64" Name="E">
          2.14140182e+05 2.14517109e+05 2.14893404e+05 2.15268880e+05 
        </DataArray>
      </PointData>
    </Piece>
    <Piece NumberOfPoints="4" NumberOfCells="3">
      <Points>
        <DataArray type="Float64" NumberOfComponents="3" format="ascii">
          6.89437866e-01 -3.73662710e-02 0.00000000e+00 
6.99815631e-01 -3.63472365e-02 0.00000000e+00 
7.10191846e-01 -3.53125818e-02 0.00000000e+00 
7.20566452e-01 -3.42622213e-02 0.00000000e+00 

        </DataArray>
      </Points>
      <Cells>
        <DataArray type="Int32" Name="connectivity" format="ascii">
0 1
1 2
2 3

        </DataArray>
        <DataArray type="Int32" Name="offsets" format="ascii">
2 4 6 
        </DataArray>
        <DataArray type="UInt8" Name="types" format="ascii">
3 3 3 
        </DataArray>
      </Cells>
      <PointData>
        <DataArray type="Float64" Name="rho">
          9.35246671e-01 9.36812462e-01 9.38378137e-01 9.39943291e-01 
        </DataArray>
        <DataArray type="Float64" Name="rhou">
          3.33605162e-04 3.27429046e-04 3.22041064e-04 3.05204426e-04 
        </DataArray>
        <DataArray type="Float64" Name="rhov">
          3.11503755e-05 2.27020005e-05 2.65284900e-05 3.65868068e-05 
        </DataArray>
        <DataArray type="Float64" Name="E">
          2.13010237e+05 2.13386866e+05 2.13763553e+05 2.14140185e+05 
        </DataArray>
      </PointData>
    </Piece>
    <Piece NumberOfPoints="4" NumberOfCells="3">
      <Points>
        <DataArray type="Float64" NumberOfComponents="3" format="ascii">
          6.58295333e-01 -4.03269380e-02 0.00000000e+00 
6.68677747e-01 -3.93563360e-02 0.00000000e+00 
6.79058611e-01 -3.83694395e-02 0.00000000e+00 
6.89437866e-01 -3.73662710e-02 0.00000000e+00 

        </DataArray>
      </Points>
      <Cells>
        <DataArray type="Int32" Name="connectivity" format="ascii">
0 1
1 2
2 3

        </DataArray>
        <DataArray type="Int32" Name="offsets" format="ascii">
2 4 6 
        </DataArray>
        <DataArray type="UInt8" Name="types" format="ascii">
3 3 3 
        </DataArray>
      </Cells>
      <PointData>
        <DataArray type="Float64" Name="rho">
          9.30568959e-01 9.32125184e-01 9.33684415e-01 9.35246727e-01 
        </DataArray>
        <DataArray type="Float64" Name="rhou">
          3.69736421e-04 3.64570895e-04 3.52554116e-04 3.32174232e-04 
        </DataArray>
        <DataArray type="Float64" Name="rhov">
          2.23240459e-05 1.84300876e-05 2.44722022e-05 3.19362304e-05 
        </DataArray>
        <DataArray type="Float64" Name="E">
          2.11885533e+05 2.12259610e+05 2.12634516e+05 2.13010249e+05 
        </DataArray>
      </PointData>
    </Piece>
    <Piece NumberOfPoints="4" NumberOfCells="3">
      <Points>
        <DataArray type="Float64" NumberOfComponents="3" format="ascii">
          6.27138972e-01 -4.31386717e-02 0.00000000e+00 
6.37525976e-01 -4.22184542e-02 0.00000000e+00 
6.47911429e-01 -4.12811004e-02 0.00000000e+00 
6.58295333e-01 -4.03269380e-02 0.00000000e+00 

        </DataArray>
      </Points>
      <Cells>
        <DataArray type="Int32" Name="connectivity" format="ascii">
0 1
1 2
2 3

        </DataArray>
        <DataArray type="Int32" Name="offsets" format="ascii">
2 4 6 
        </DataArray>
        <DataArray type="UInt8" Name="types" format="ascii">
3 3 3 
        </DataArray>
      </Cells>
      <PointData>
        <DataArray type="Float64" Name="rho">
          9.25942000e-01 9.27476243e-01 9.29019150e-01 9.30568993e-01 
        </DataArray>
        <DataArray type="Float64" Name="rhou">
          4.22595284e-04 4.03294744e-04 3.85977635e-04 3.71193599e-04 
        </DataArray>
        <DataArray type="Float64" Name="rhov">
          2.06489668e-05 1.90415208e-05 1.98275018e-05 2.31860116e-05 
        </DataArray>
        <DataArray type="Float64" Name="E">
          2.10773847e+05 2.11142375e+05 2.11513077e+05 2.11885540e+05 
        </DataArray>
      </PointData>
    </Piece>
    <Piece NumberOfPoints="4" NumberOfCells="3">
      <Points>
        <DataArray type="Float64" NumberOfComponents="3" format="ascii">
          5.95968783e-01 -4.57924642e-02 0.00000000e+00 
6.06360376e-01 -4.49259281e-02 0.00000000e+00 
6.16750479e-01 -4.40412909e-02 0.00000000e+00 
6.27138972e-01 -4.31386717e-02 0.00000000e+00 

        </DataArray>
      </Points>
      <Cells>
        <DataArray type="Int32" Name="connectivity" format="ascii">
0 1
1 2
2 3

        </DataArray>
        <DataArray type="Int32" Name="offsets" format="ascii">
2 4 6 
        </DataArray>
        <DataArray type="UInt8" Name="types" format="ascii">
3 3 3 
        </DataArray>
      </Cells>
      <PointData>
        <DataArray type="Float64" Name="rho">
          9.21408911e-01 9.22907559e-01 9.24418942e-01 9.25941992e-01 
        </DataArray>
        <DataArray type="Float64" Name="rhou">
          4.70233375e-04 4.57343871e-04 4.39474718e-04 4.16402498e-04 
        </DataArray>
        <DataArray type="Float64" Name="rhov">
          9.37637174e-06 5.90148135e-06 1.21679649e-05 2.13936241e-05 
        </DataArray>
        <DataArray type="Float64" Name="E">
          2.09685515e+05 2.10045222e+05 2.10408085e+05 2.10773845e+05 
        </DataArray>
      </PointData>
    </Piece>
    <Piece NumberOfPoints="4" NumberOfCells="3">
      <Points>
        <DataArray type="Float64" NumberOfComponents="3" format="ascii">
          5.64784765e-01 -4.82786149e-02 0.00000000e+00 
5.75181007e-01 -4.74695377e-02 0.00000000e+00 
5.85575700e-01 -4.66405638e-02 0.00000000e+00 
5.95968783e-01 -4.57924642e-02 0.00000000e+00 

        </DataArray>
      </Points>
      <Cells>
        <DataArray type="Int32" Name="connectivity" format="ascii">
0 1
1 2
2 3

        </DataArray>
        <DataArray type="Int32" Name="offsets" format="ascii">
2 4 6 
        </DataArray>
        <DataArray type="UInt8" Name="types" format="ascii">
3 3 3 
        </DataArray>
      </Cells>
      <PointData>
        <DataArray type="Float64" Name="rho">
          9.17025830e-01 9.18465438e-01 9.19927049e-01 9.21409026e-01 
        </DataArray>
        <DataArray type="Float64" Name="rhou">
          5.51375691e-04 5.23569589e-04 4.89244747e-04 4.64309438e-04 
        </DataArray>
        <DataArray type="Float64" Name="rhov">
          -2.23051718e-06 9.40208639e-06 1.41292030e-05 1.02157284e-05 
        </DataArray>
        <DataArray type="Float64" Name="E">
          2.08633829e+05 2.08979201e+05 2.09329904e+05 2.09685541e+05 
        </DataArray>
      </PointData>
    </Piece>
    <Piece NumberOfPoints="4" NumberOfCells="3">
      <Points>
        <DataArray type="Float64" NumberOfComponents="3" format="ascii">
          5.33586800e-01 -5.05827516e-02 0.00000000e+00 
5.43987691e-01 -4.98356484e-02 0.00000000e+00 
5.54387033e-01 -4.90674041e-02 0.00000000e+00 
5.64784765e-01 -4.82786149e-02 0.00000000e+00 

        </DataArray>
      </Points>
      <Cells>
        <DataArray type="Int32" Name="connectivity" format="ascii">
0 1
1 2
2 3

        </DataArray>
        <DataArray type="Int32" Name="offsets" format="ascii">
2 4 6 
        </DataArray>
        <DataArray type="UInt8" Name="types" format="ascii">
3 3 3 
        </DataArray>
      </Cells>
      <PointData>
        <DataArray type="Float64" Name="rho">
          9.12860992e-01 9.14219325e-01 9.15609354e-01 9.17025788e-01 
        </DataArray>
        <DataArray type="Float64" Name="rhou">
          6.30936364e-04 5.89290698e-04 5.58988390e-04 5.45973055e-04 
        </DataArray>
        <DataArray type="Float64" Name="rhov">
          -1.55026713e-06 -1.36982094e-06 -4.45818055e-06 -1.97541921e-06 
        </DataArray>
        <DataArray type="Float64" Name="E">
          2.07634905e+05 2.07960684e+05 2.08294065e+05 2.08633819e+05 
        </DataArray>
      </PointData>
    </Piece>
    <Piece NumberOfPoints="4" NumberOfCells="3">
      <Points>
        <DataArray type="Float64" NumberOfComponents="3" format="ascii">
          5.02374947e-01 -5.26902266e-02 0.00000000e+00 
5.12780428e-01 -5.20105064e-02 0.00000000e+00 
5.23184419e-01 -5.13078682e-02 0.00000000e+00 
5.33586800e-01 -5.05827516e-02 0.00000000e+00 

        </DataArray>
      </Points>
      <Cells>
        <DataArray type="Int32" Name="connectivity" format="ascii">
0 1
1 2
2 3

        </DataArray>
        <DataArray type="Int32" Name="offsets" format="ascii">
2 4 6 
        </DataArray>
        <DataArray type="UInt8" Name="types" format="ascii">
3 3 3 
        </DataArray>
      </Cells>
      <PointData>
        <DataArray type="Float64" Name="rho">
          9.09008676e-01 9.10252100e-01 9.11538152e-01 9.12860894e-01 
        </DataArray>
        <DataArray type="Float64" Name="rhou">
          7.17859437e-04 6.79774639e-04 6.50601337e-04 6.28449024e-04 
        </DataArray>
        <DataArray type="Float64" Name="rhov">
          -1.19512252e-05 -1.82272640e-05 -1.65135998e-05 -2.13710971e-06 
        </DataArray>
        <DataArray type="Float64" Name="E">
          2.06710870e+05 2.07009156e+05 2.07317621e+05 2.07634883e+05 
        </DataArray>
      </PointData>
    </Piece>
    <Piece NumberOfPoints="4" NumberOfCells="3">
      <Points>
        <DataArray type="Float64" NumberOfComponents="3" format="ascii">
          4.71149325e-01 -5.45825884e-02 0.00000000e+00 
4.81559396e-01 -5.39771840e-02 0.00000000e+00 
4.91967946e-01 -5.33461571e-02 0.00000000e+00 
5.02374947e-01 -5.26902266e-02 0.00000000e+00 

        </DataArray>
      </Points>
      <Cells>
        <DataArray type="Int32" Name="connectivity" format="ascii">
0 1
1 2
2 3

        </DataArray>
        <DataArray type="Int32" Name="offsets" format="ascii">
2 4 6 
        </DataArray>
        <DataArray type="UInt8" Name="types" format="ascii">
3 3 3 
        </DataArray>
      </Cells>
      <PointData>
        <DataArray type="Float64" Name="rho">
          9.05594730e-01 9.06676416e-01 9.07814725e-01 9.09008766e-01 
        </DataArray>
        <DataArray type="Float64" Name="rhou">
          8.30155648e-04 8.05953705e-04 7.57221905e-04 6.97981357e-04 
        </DataArray>
        <DataArray type="Float64" Name="rhov">
          -3.78874513e-05 -3.12167363e-05 -1.33340196e-05 -9.19822754e-06 
        </DataArray>
        <DataArray type="Float64" Name="E">
          2.05891273e+05 2.06151068e+05 2.06424357e+05 2.06710891e+05 
        </DataArray>
      </PointData>
    </Piece>
    <Piece NumberOfPoints="4" NumberOfCells="3">
      <Points>
        <DataArray type="Float64" NumberOfComponents="3" format="ascii">
          4.39910263e-01 -5.62384278e-02 0.00000000e+00 
4.50324744e-01 -5.57143167e-02 0.00000000e+00 
4.60737765e-01 -5.51619194e-02 0.00000000e+00 
4.71149325e-01 -5.45825884e-02 0.00000000e+00 

        </DataArray>
      </Points>
      <Cells>
        <DataArray type="Int32" Name="connectivity" format="ascii">
0 1
1 2
2 3

        </DataArray>
        <DataArray type="Int32" Name="offsets" format="ascii">
2 4 6 
        </DataArray>
        <DataArray type="UInt8" Name="types" format="ascii">
3 3 3 
        </DataArray>
      </Cells>
      <PointData>
        <DataArray type="Float64" Name="rho">
          9.02773700e-01 9.03633868e-01 9.04577745e-01 9.05594807e-01 
        </DataArray>
        <DataArray type="Float64" Name="rhou">
          1.00422605e-03 9.24862430e-04 8.64591454e-04 8.35813915e-04 
        </DataArray>
        <DataArray type="Float64" Name="rhov">
          -3.11226586e-05 -2.17073572e-05 -2.81712045e-05 -3.53904682e-05 
        </DataArray>
        <DataArray type="Float64" Name="E">
          2.05212503e+05 2.05419762e+05 2.05646846e+05 2.05891290e+05 
        </DataArray>
      </PointData>
    </Piece>
    <Piece NumberOfPoints="4" NumberOfCells="3">
      <Points>
        <DataArray type="Float64" NumberOfComponents="3" format="ascii">
          4.08658355e-01 -5.76302819e-02 0.00000000e+00 
4.19077009e-01 -5.71971126e-02 0.00000000e+00 
4.29494321e-01 -5.67329265e-02 0.00000000e+00 
4.39910263e-01 -5.62384278e-02 0.00000000e+00 

        </DataArray>
      </Points>
      <Cells>
        <DataArray type="Int32" Name="connectivity" format="ascii">
0 1
1 2
2 3

        </DataArray>
        <DataArray type="Int32" Name="offsets" format="ascii">
2 4 6 
        </DataArray>
        <DataArray type="UInt8" Name="types" format="ascii">
3 3 3 
        </DataArray>
      </Cells>
      <PointData>
        <DataArray type="Float64" Name="rho">
          9.00753076e-01 9.01325165e-01 9.02002540e-01 9.02773464e-01 
        </DataArray>
        <DataArray type="Float64" Name="rhou">
          1.16398593e-03 1.09273484e-03 1.03974736e-03 9.98839461e-04 
        </DataArray>
        <DataArray type="Float64" Name="rhov">
          -3.97941411e-05 -5.24869831e-05 -5.16231843e-05 -3.10363750e-05 
        </DataArray>
        <DataArray type="Float64" Name="E">
          2.04723499e+05 2.04862447e+05 2.05026345e+05 2.05212449e+05 
        </DataArray>
      </PointData>
    </Piece>
    <Piece NumberOfPoints="4" NumberOfCells="3">
      <Points>
        <DataArray type="Float64" NumberOfComponents="3" format="ascii">
          3.77394795e-01 -5.87291755e-02 0.00000000e+00 
3.87817174e-01 -5.83979115e-02 0.00000000e+00 
3.98238391e-01 -5.80311492e-02 0.00000000e+00 
4.08658355e-01 -5.76302819e-02 0.00000000e+00 

        </DataArray>
      </Points>
      <Cells>
        <DataArray type="Int32" Name="connectivity" format="ascii">
0 1
1 2
2 3

        </DataArray>
        <DataArray type="Int32" Name="offsets" format="ascii">
2 4 6 
        </DataArray>
        <DataArray type="UInt8" Name="types" format="ascii">
3 3 3 
        </DataArray>
      </Cells>
      <PointData>
        <DataArray type="Float64" Name="rho">
          8.99795941e-01 8.99979412e-01 9.00299514e-01 9.00753290e-01 
        </DataArray>
        <DataArray type="Float64" Name="rhou">
          1.41769645e-03 1.34273333e-03 1.23935624e-03 1.13232570e-03 
        </DataArray>
        <DataArray type="Float64" Name="rhov">
          -8.33653660e-05 -5.53806233e-05 -2.73685030e-05 -3.48871493e-05 
        </DataArray>
        <DataArray type="Float64" Name="E">
          2.04486339e+05 2.04533270e+05 2.04612601e+05 2.04723548e+05 
        </DataArray>
      </PointData>
    </Piece>
    <Piece NumberOfPoints="4" NumberOfCells="3">
      <Points>
        <DataArray type="Float64" NumberOfComponents="3" format="ascii">
          3.46121490e-01 -5.95011823e-02 0.00000000e+00 
3.56546819e-01 -5.92821389e-02 0.00000000e+00 
3.66971314e-01 -5.90242445e-02 0.00000000e+00 
3.77394795e-01 -5.87291755e-02 0.00000000e+00 

        </DataArray>
      </Points>
      <Cells>
        <DataArray type="Int32" Name="connectivity" format="ascii">
0 1
1 2
2 3

        </DataArray>
        <DataArray type="Int32" Name="offsets" format="ascii">
2 4 6 
        </DataArray>
        <DataArray type="UInt8" Name="types" format="ascii">
3 3 3 
        </DataArray>
      </Cells>
      <PointData>
        <DataArray type="Float64" Name="rho">
          9.00193458e-01 8.99885490e-01 8.99758774e-01 8.99796034e-01 
        </DataArray>
        <DataArray type="Float64" Name="rhou">
          1.76500983e-03 1.61876971e-03 1.48821317e-03 1.42115971e-03 
        </DataArray>
        <DataArray type="Float64" Name="rhov">
          -1.17468330e-04 -7.54982472e-05 -6.84427851e-05 -7.87081986e-05 
        </DataArray>
        <DataArray type="Float64" Name="E">
          2.04570124e+05 2.04500656e+05 2.04474094e+05 2.04486359e+05 
        </DataArray>
      </PointData>
    </Piece>
    <Piece NumberOfPoints="4" NumberOfCells="3">
      <Points>
        <DataArray type="Float64" NumberOfComponents="3" format="ascii">
          3.14841360e-01 -5.99102043e-02 0.00000000e+00 
3.25268596e-01 -5.98174632e-02 0.00000000e+00 
3.35695356e-01 -5.96801341e-02 0.00000000e+00 
3.46121490e-01 -5.95011823e-02 0.00000000e+00 

        </DataArray>
      </Points>
      <Cells>
        <DataArray type="Int32" Name="connectivity" format="ascii">
0 1
1 2
2 3

        </DataArray>
        <DataArray type="Int32" Name="offsets" format="ascii">
2 4 6 
        </DataArray>
        <DataArray type="UInt8" Name="types" format="ascii">
3 3 3 
        </DataArray>
      </Cells>
      <PointData>
        <DataArray type="Float64" Name="rho">
          9.02350042e-01 9.01395984e-01 9.00686370e-01 9.00193164e-01 
        </DataArray>
        <DataArray type="Float64" Name="rhou">
          2.21966714e-03 1.97258755e-03 1.80596954e-03 1.72890939e-03 
        </DataArray>
        <DataArray type="Float64" Name="rhov">
          -5.19350188e-05 -2.89854363e-05 -6.22284107e-05 -1.16725982e-04 
        </DataArray>
        <DataArray type="Float64" Name="E">
          2.05070679e+05 2.04848152e+05 2.04683484e+05 2.04570056e+05 
        </DataArray>
      </PointData>
    </Piece>
    <Piece NumberOfPoints="4" NumberOfCells="3">
      <Points>
        <DataArray type="Float64" NumberOfComponents="3" format="ascii">
          2.83558637e-01 -5.98983802e-02 0.00000000e+00 
2.93986142e-01 -5.99516556e-02 0.00000000e+00 
3.04413795e-01 -5.99554181e-02 0.00000000e+00 
3.14841360e-01 -5.99102043e-02 0.00000000e+00 

        </DataArray>
      </Points>
      <Cells>
        <DataArray type="Int32" Name="connectivity" format="ascii">
0 1
1 2
2 3

        </DataArray>
        <DataArray type="Int32" Name="offsets" format="ascii">
2 4 6 
        </DataArray>
        <DataArray type="UInt8" Name="types" format="ascii">
3 3 3 
        </DataArray>
      </Cells>
      <PointData>
        <DataArray type="Float64" Name="rho">
          9.06778042e-01 9.05031488e-01 9.03560965e-01 9.02349322e-01 
        </DataArray>
        <DataArray type="Float64" Name="rhou">
          2.70106266e-03 2.53481046e-03 2.39623614e-03 2.21047313e-03 
        </DataArray>
        <DataArray type="Float64" Name="rhov">
          -1.08063459e-04 -1.76495122e-04 -1.40857262e-04 -4.52736265e-05 
        </DataArray>
        <DataArray type="Float64" Name="E">
          2.06110146e+05 2.05699314e+05 2.05354131e+05 2.05070515e+05 
        </DataArray>
      </PointData>
    </Piece>
    <Piece NumberOfPoints="4" NumberOfCells="3">
      <Points>
        <DataArray type="Float64" NumberOfComponents="3" format="ascii">
          2.52279758e-01 -5.94130717e-02 0.00000000e+00 
2.62705088e-01 -5.96327744e-02 0.00000000e+00 
2.73131490e-01 -5.97934239e-02 0.00000000e+00 
2.83558637e-01 -5.98983802e-02 0.00000000e+00 

        </DataArray>
      </Points>
      <Cells>
        <DataArray type="Int32" Name="connectivity" format="ascii">
0 1
1 2
2 3

        </DataArray>
        <DataArray type="Int32" Name="offsets" format="ascii">
2 4 6 
        </DataArray>
        <DataArray type="UInt8" Name="types" format="ascii">
3 3 3 
        </DataArray>
      </Cells>
      <PointData>
        <DataArray type="Float64" Name="rho">
          9.14091061e-01 9.11285179e-01 9.08850387e-01 9.06778972e-01 
        </DataArray>
        <DataArray type="Float64" Name="rhou">
          3.68190980e-03 3.37414466e-03 3.03577137e-03 2.68703240e-03 
        </DataArray>
        <DataArray type="Float64" Name="rhov">
          -2.56359499e-04 -1.63752408e-04 -7.61681501e-05 -8.86590826e-05 
        </DataArray>
        <DataArray type="Float64" Name="E">
          2.07834624e+05 2.07172243e+05 2.06598199e+05 2.06110361e+05 
        </DataArray>
      </PointData>
    </Piece>
    <Piece NumberOfPoints="4" NumberOfCells="3">
      <Points>
        <DataArray type="Float64" NumberOfComponents="3" format="ascii">
          2.21014455e-01 -5.83752058e-02 0.00000000e+00 
2.31433928e-01 -5.87876961e-02 0.00000000e+00 
2.41855890e-01 -5.91322705e-02 0.00000000e+00 
2.52279758e-01 -5.94130717e-02 0.00000000e+00 

        </DataArray>
      </Points>
      <Cells>
        <DataArray type="Int32" Name="connectivity" format="ascii">
0 1
1 2
2 3

        </DataArray>
        <DataArray type="Int32" Name="offsets" format="ascii">
2 4 6 
        </DataArray>
        <DataArray type="UInt8" Name="types" format="ascii">
3 3 3 
        </DataArray>
      </Cells>
      <PointData>
        <DataArray type="Float64" Name="rho">
          9.25061506e-01 9.20931635e-01 9.17290417e-01 9.14091244e-01 
        </DataArray>
        <DataArray type="Float64" Name="rhou">
          5.04529439e-03 4.45538017e-03 4.00577832e-03 3.71647443e-03 
        </DataArray>
        <DataArray type="Float64" Name="rhov">
          -3.62469719e-04 -2.57673719e-04 -2.25379362e-04 -2.39783277e-04 
        </DataArray>
        <DataArray type="Float64" Name="E">
          2.10429589e+05 2.09451984e+05 2.08590721e+05 2.07834662e+05 
        </DataArray>
      </PointData>
    </Piece>
    <Piece NumberOfPoints="4" NumberOfCells="3">
      <Points>
        <DataArray type="Float64" NumberOfComponents="3" format="ascii">
          1.89777538e-01 -5.66898957e-02 0.00000000e+00 
2.00185493e-01 -5.73302582e-02 0.00000000e+00 
2.10598081e-01 -5.78906052e-02 0.00000000e+00 
2.21014455e-01 -5.83752058e-02 0.00000000e+00 

        </DataArray>
      </Points>
      <Cells>
        <DataArray type="Int32" Name="connectivity" format="ascii">
0 1
1 2
2 3

        </DataArray>
        <DataArray type="Int32" Name="offsets" format="ascii">
2 4 6 
        </DataArray>
        <DataArray type="UInt8" Name="types" format="ascii">
3 3 3 
        </DataArray>
      </Cells>
      <PointData>
        <DataArray type="Float64" Name="rho">
          9.40762551e-01 9.34926927e-01 9.29712928e-01 9.25060739e-01 
        </DataArray>
        <DataArray type="Float64" Name="rhou">
          6.98054650e-03 6.17421853e-03 5.58489238e-03 5.10837629e-03 
        </DataArray>
        <DataArray type="Float64" Name="rhov">
          -6.47255908e-04 -5.75637551e-04 -4.74733394e-04 -3.49609393e-04 
        </DataArray>
        <DataArray type="Float64" Name="E">
          2.14152681e+05 2.12767890e+05 2.11531575e+05 2.10429413e+05 
        </DataArray>
      </PointData>
    </Piece>
    <Piece NumberOfPoints="4" NumberOfCells="3">
      <Points>
        <DataArray type="Float64" NumberOfComponents="3" format="ascii">
          1.58592433e-01 -5.42296544e-02 0.00000000e+00 
1.68979734e-01 -5.51457107e-02 0.00000000e+00 
1.79375216e-01 -5.59638515e-02 0.00000000e+00 
1.89777538e-01 -5.66898957e-02 0.00000000e+00 

        </DataArray>
      </Points>
      <Cells>
        <DataArray type="Int32" Name="connectivity" format="ascii">
0 1
1 2
2 3

        </DataArray>
        <DataArray type="Int32" Name="offsets" format="ascii">
2 4 6 
        </DataArray>
        <DataArray type="UInt8" Name="types" format="ascii">
3 3 3 
        </DataArray>
      </Cells>
      <PointData>
        <DataArray type="Float64" Name="rho">
          9.62743286e-01 9.54611803e-01 9.47301571e-01 9.40762971e-01 
        </DataArray>
        <DataArray type="Float64" Name="rhou">
          1.00562844e-02 8.97614074e-03 8.02124286e-03 7.05230319e-03 
        </DataArray>
        <DataArray type="Float64" Name="rhov">
          -1.40904473e-03 -1.21453560e-03 -8.79416628e-04 -6.06331462e-04 
        </DataArray>
        <DataArray type="Float64" Name="E">
          2.19376713e+05 2.17442599e+05 2.15705412e+05 2.14152781e+05 
        </DataArray>
      </PointData>
    </Piece>
    <Piece NumberOfPoints="4" NumberOfCells="3">
      <Points>
        <DataArray type="Float64" NumberOfComponents="3" format="ascii">
          1.27497971e-01 -5.08146733e-02 0.00000000e+00 
1.37849152e-01 -5.20747155e-02 0.00000000e+00 
1.48214847e-01 -5.32093942e-02 0.00000000e+00 
1.58592433e-01 -5.42296544e-02 0.00000000e+00 

        </DataArray>
      </Points>
      <Cells>
        <DataArray type="Int32" Name="connectivity" format="ascii">
0 1
1 2
2 3

        </DataArray>
        <DataArray type="Int32" Name="offsets" format="ascii">
2 4 6 
        </DataArray>
        <DataArray type="UInt8" Name="types" format="ascii">
3 3 3 
        </DataArray>
      </Cells>
      <PointData>
        <DataArray type="Float64" Name="rho">
          9.93412143e-01 9.82013151e-01 9.71810786e-01 9.62747358e-01 
        </DataArray>
        <DataArray type="Float64" Name="rhou">
          1.46056395e-02 1.34244949e-02 1.16119595e-02 1.00850138e-02 
        </DataArray>
        <DataArray type="Float64" Name="rhov">
          -2.29747784e-03 -2.04544171e-03 -1.42382428e-03 -1.33655070e-03 
        </DataArray>
        <DataArray type="Float64" Name="E">
          2.26683221e+05 2.23965182e+05 2.21535117e+05 2.19377649e+05 
        </DataArray>
      </PointData>
    </Piece>
    <Piece NumberOfPoints="4" NumberOfCells="3">
      <Points>
        <DataArray type="Float64" NumberOfComponents="3" format="ascii">
          9.65642184e-02 -4.61716652e-02 0.00000000e+00 
1.06852271e-01 -4.78802323e-02 0.00000000e+00 
1.17164567e-01 -4.94215861e-02 0.00000000e+00 
1.27497971e-01 -5.08146733e-02 0.00000000e+00 

        </DataArray>
      </Points>
      <Cells>
        <DataArray type="Int32" Name="connectivity" format="ascii">
0 1
1 2
2 3

        </DataArray>
        <DataArray type="Int32" Name="offsets" format="ascii">
2 4 6 
        </DataArray>
        <DataArray type="UInt8" Name="types" format="ascii">
3 3 3 
        </DataArray>
      </Cells>
      <PointData>
        <DataArray type="Float64" Name="rho">
          1.03686533e+00 1.02055016e+00 1.00609462e+00 9.93420546e-01 
        </DataArray>
        <DataArray type="Float64" Name="rhou">
          2.48061908e-02 1.81978282e-02 1.72889125e-02 1.29508146e-02 
        </DataArray>
        <DataArray type="Float64" Name="rhov">
          -9.24264756e-04 -7.38255757e-04 -1.56969180e-03 -1.61287446e-03 
        </DataArray>
        <DataArray type="Float64" Name="E">
          2.37069329e+05 2.33165161e+05 2.29711047e+05 2.26685249e+05 
        </DataArray>
      </PointData>
    </Piece>
  </UnstructuredGrid>
</VTKFile>
