<?xml version="1.0"?>
<VTKFile type="UnstructuredGrid" version="0.1" byte_order="LittleEndian">
  <UnstructuredGrid>
    <Piece NumberOfPoints="4" NumberOfCells="3">
      <Points>
        <DataArray type="Float64" NumberOfComponents="3" format="ascii">
          9.65642184e-02 -4.61716652e-02 0.00000000e+00 
9.26280916e-02 -4.54656407e-02 0.00000000e+00 
8.86965096e-02 -4.47326750e-02 0.00000000e+00 
8.47706869e-02 -4.39694971e-02 0.00000000e+00 

        </DataArray>
      </Points>
      <Cells>
        <DataArray type="Int32" Name="connectivity" format="ascii">
0 1
1 2
2 3

        </DataArray>
        <DataArray type="Int32" Name="offsets" format="ascii">
2 4 6 
        </DataArray>
        <DataArray type="UInt8" Name="types" format="ascii">
3 3 3 
        </DataArray>
      </Cells>
      <PointData>
        <DataArray type="Float64" Name="rho">
          1.03099481e+00 1.03791455e+00 1.04514917e+00 1.05283113e+00 
        </DataArray>
        <DataArray type="Float64" Name="rhou">
          2.82638277e-02 2.17815426e-02 2.44296367e-02 2.46103669e-02 
        </DataArray>
        <DataArray type="Float64" Name="rhov">
          -2.22253489e-03 -1.01173353e-03 -6.04644935e-04 -9.20667624e-04 
        </DataArray>
        <DataArray type="Float64" Name="E">
          2.35346492e+05 2.37000740e+05 2.38731899e+05 2.40570437e+05 
        </DataArray>
      </PointData>
    </Piece>
    <Piece NumberOfPoints="4" NumberOfCells="3">
      <Points>
        <DataArray type="Float64" NumberOfComponents="3" format="ascii">
          8.47706869e-02 -4.39694971e-02 0.00000000e+00 
8.08513016e-02 -4.31745499e-02 0.00000000e+00 
7.69388378e-02 -4.23462167e-02 0.00000000e+00 
7.30340332e-02 -4.14824970e-02 0.00000000e+00 

        </DataArray>
      </Points>
      <Cells>
        <DataArray type="Int32" Name="connectivity" format="ascii">
0 1
1 2
2 3

        </DataArray>
        <DataArray type="Int32" Name="offsets" format="ascii">
2 4 6 
        </DataArray>
        <DataArray type="UInt8" Name="types" format="ascii">
3 3 3 
        </DataArray>
      </Cells>
      <PointData>
        <DataArray type="Float64" Name="rho">
          1.05282992e+00 1.06094037e+00 1.06951483e+00 1.07862305e+00 
        </DataArray>
        <DataArray type="Float64" Name="rhou">
          2.47012455e-02 2.38803482e-02 2.24755665e-02 2.09133438e-02 
        </DataArray>
        <DataArray type="Float64" Name="rhov">
          -7.26161110e-04 -5.21238005e-04 3.80554129e-04 1.56931277e-03 
        </DataArray>
        <DataArray type="Float64" Name="E">
          2.40570170e+05 2.42513217e+05 2.44568677e+05 2.46753285e+05 
        </DataArray>
      </PointData>
    </Piece>
    <Piece NumberOfPoints="4" NumberOfCells="3">
      <Points>
        <DataArray type="Float64" NumberOfComponents="3" format="ascii">
          7.30340332e-02 -4.14824970e-02 0.00000000e+00 
6.91377968e-02 -4.05809283e-02 0.00000000e+00 
6.52511865e-02 -3.96387354e-02 0.00000000e+00 
6.13753870e-02 -3.86530459e-02 0.00000000e+00 

        </DataArray>
      </Points>
      <Cells>
        <DataArray type="Int32" Name="connectivity" format="ascii">
0 1
1 2
2 3

        </DataArray>
        <DataArray type="Int32" Name="offsets" format="ascii">
2 4 6 
        </DataArray>
        <DataArray type="UInt8" Name="types" format="ascii">
3 3 3 
        </DataArray>
      </Cells>
      <PointData>
        <DataArray type="Float64" Name="rho">
          1.07862366e+00 1.08834938e+00 1.09872422e+00 1.10980769e+00 
        </DataArray>
        <DataArray type="Float64" Name="rhou">
          2.10313926e-02 1.86872500e-02 1.45952361e-02 9.10530076e-03 
        </DataArray>
        <DataArray type="Float64" Name="rhov">
          1.40401674e-03 2.14176554e-03 4.21368442e-03 7.39157900e-03 
        </DataArray>
        <DataArray type="Float64" Name="E">
          2.46753448e+05 2.49088360e+05 2.51580752e+05 2.54245615e+05 
        </DataArray>
      </PointData>
    </Piece>
    <Piece NumberOfPoints="4" NumberOfCells="3">
      <Points>
        <DataArray type="Float64" NumberOfComponents="3" format="ascii">
          6.13753870e-02 -3.86530459e-02 0.00000000e+00 
5.75117208e-02 -3.76208089e-02 0.00000000e+00 
5.36618084e-02 -3.65384258e-02 0.00000000e+00 
4.98276278e-02 -3.54015976e-02 0.00000000e+00 

        </DataArray>
      </Points>
      <Cells>
        <DataArray type="Int32" Name="connectivity" format="ascii">
0 1
1 2
2 3

        </DataArray>
        <DataArray type="Int32" Name="offsets" format="ascii">
2 4 6 
        </DataArray>
        <DataArray type="UInt8" Name="types" format="ascii">
3 3 3 
        </DataArray>
      </Cells>
      <PointData>
        <DataArray type="Float64" Name="rho">
          1.10980795e+00 1.12168298e+00 1.13443424e+00 1.14819309e+00 
        </DataArray>
        <DataArray type="Float64" Name="rhou">
          9.04934675e-03 2.00227438e-03 -7.19923230e-03 -1.87019292e-02 
        </DataArray>
        <DataArray type="Float64" Name="rhov">
          7.16390771e-03 1.18487069e-02 1.99008934e-02 3.13390853e-02 
        </DataArray>
        <DataArray type="Float64" Name="E">
          2.54245680e+05 2.57104800e+05 2.60177536e+05 2.63496388e+05 
        </DataArray>
      </PointData>
    </Piece>
    <Piece NumberOfPoints="4" NumberOfCells="3">
      <Points>
        <DataArray type="Float64" NumberOfComponents="3" format="ascii">
          4.98276278e-02 -3.54015976e-02 0.00000000e+00 
4.60115410e-02 -3.42054628e-02 0.00000000e+00 
4.22164090e-02 -3.29444520e-02 0.00000000e+00 
3.84457745e-02 -3.16120051e-02 0.00000000e+00 

        </DataArray>
      </Points>
      <Cells>
        <DataArray type="Int32" Name="connectivity" format="ascii">
0 1
1 2
2 3

        </DataArray>
        <DataArray type="Int32" Name="offsets" format="ascii">
2 4 6 
        </DataArray>
        <DataArray type="UInt8" Name="types" format="ascii">
3 3 3 
        </DataArray>
      </Cells>
      <PointData>
        <DataArray type="Float64" Name="rho">
          1.14819301e+00 1.16305951e+00 1.17914560e+00 1.19664274e+00 
        </DataArray>
        <DataArray type="Float64" Name="rhou">
          -1.91552131e-02 -3.32797632e-02 -5.22514732e-02 -7.49457933e-02 
        </DataArray>
        <DataArray type="Float64" Name="rhov">
          3.11246677e-02 4.77572159e-02 7.53492400e-02 1.15724165e-01 
        </DataArray>
        <DataArray type="Float64" Name="E">
          2.63496336e+05 2.67088877e+05 2.70980944e+05 2.75220771e+05 
        </DataArray>
      </PointData>
    </Piece>
    <Piece NumberOfPoints="4" NumberOfCells="3">
      <Points>
        <DataArray type="Float64" NumberOfComponents="3" format="ascii">
          3.84457745e-02 -3.16120051e-02 0.00000000e+00 
3.47041376e-02 -3.02002355e-02 0.00000000e+00 
3.09973080e-02 -2.86995135e-02 0.00000000e+00 
2.73328498e-02 -2.70981900e-02 0.00000000e+00 

        </DataArray>
      </Points>
      <Cells>
        <DataArray type="Int32" Name="connectivity" format="ascii">
0 1
1 2
2 3

        </DataArray>
        <DataArray type="Int32" Name="offsets" format="ascii">
2 4 6 
        </DataArray>
        <DataArray type="UInt8" Name="types" format="ascii">
3 3 3 
        </DataArray>
      </Cells>
      <PointData>
        <DataArray type="Float64" Name="rho">
          1.19664296e+00 1.21574066e+00 1.23663207e+00 1.25968864e+00 
        </DataArray>
        <DataArray type="Float64" Name="rhou">
          -7.58954694e-02 -1.00037767e-01 -1.28668227e-01 -1.54074020e-01 
        </DataArray>
        <DataArray type="Float64" Name="rhov">
          1.15643779e-01 1.71087191e-01 2.56852408e-01 3.76932674e-01 
        </DataArray>
        <DataArray type="Float64" Name="E">
          2.75220691e+05 2.79860147e+05 2.84943922e+05 2.90566102e+05 
        </DataArray>
      </PointData>
    </Piece>
    <Piece NumberOfPoints="4" NumberOfCells="3">
      <Points>
        <DataArray type="Float64" NumberOfComponents="3" format="ascii">
          2.73328498e-02 -2.70981900e-02 0.00000000e+00 
2.37206947e-02 -2.53822580e-02 0.00000000e+00 
2.01744195e-02 -2.35341713e-02 0.00000000e+00 
1.67132635e-02 -2.15314496e-02 0.00000000e+00 

        </DataArray>
      </Points>
      <Cells>
        <DataArray type="Int32" Name="connectivity" format="ascii">
0 1
1 2
2 3

        </DataArray>
        <DataArray type="Int32" Name="offsets" format="ascii">
2 4 6 
        </DataArray>
        <DataArray type="UInt8" Name="types" format="ascii">
3 3 3 
        </DataArray>
      </Cells>
      <PointData>
        <DataArray type="Float64" Name="rho">
          1.25969350e+00 1.28525506e+00 1.31377702e+00 1.34660565e+00 
        </DataArray>
        <DataArray type="Float64" Name="rhou">
          -1.54453869e-01 -1.68569786e-01 -1.52987661e-01 -5.72094970e-02 
        </DataArray>
        <DataArray type="Float64" Name="rhov">
          3.77606617e-01 5.29211991e-01 7.39579753e-01 9.57604694e-01 
        </DataArray>
        <DataArray type="Float64" Name="E">
          2.90566999e+05 2.96822128e+05 3.03814383e+05 3.11872405e+05 
        </DataArray>
      </PointData>
    </Piece>
    <Piece NumberOfPoints="4" NumberOfCells="3">
      <Points>
        <DataArray type="Float64" NumberOfComponents="3" format="ascii">
          1.67132635e-02 -2.15314496e-02 0.00000000e+00 
1.33649679e-02 -1.93456318e-02 0.00000000e+00 
1.01706637e-02 -1.69409402e-02 0.00000000e+00 
7.19343964e-03 -1.42731192e-02 0.00000000e+00 

        </DataArray>
      </Points>
      <Cells>
        <DataArray type="Int32" Name="connectivity" format="ascii">
0 1
1 2
2 3

        </DataArray>
        <DataArray type="Int32" Name="offsets" format="ascii">
2 4 6 
        </DataArray>
        <DataArray type="UInt8" Name="types" format="ascii">
3 3 3 
        </DataArray>
      </Cells>
      <PointData>
        <DataArray type="Float64" Name="rho">
          1.34649993e+00 1.38636987e+00 1.43361215e+00 1.49872249e+00 
        </DataArray>
        <DataArray type="Float64" Name="rhou">
          -3.46654757e-02 1.13441821e-01 4.54173197e-01 8.73907823e-01 
        </DataArray>
        <DataArray type="Float64" Name="rhov">
          9.19397650e-01 1.12210988e+00 1.06726727e+00 5.17801662e-01 
        </DataArray>
        <DataArray type="Float64" Name="E">
          3.11848243e+05 3.21637629e+05 3.33230000e+05 3.49091710e+05 
        </DataArray>
      </PointData>
    </Piece>
    <Piece NumberOfPoints="4" NumberOfCells="3">
      <Points>
        <DataArray type="Float64" NumberOfComponents="3" format="ascii">
          7.19343964e-03 -1.42731192e-02 0.00000000e+00 
4.53082798e-03 -1.12927537e-02 0.00000000e+00 
2.33371323e-03 -7.95678515e-03 0.00000000e+00 
8.10639584e-04 -4.26717056e-03 0.00000000e+00 

        </DataArray>
      </Points>
      <Cells>
        <DataArray type="Int32" Name="connectivity" format="ascii">
0 1
1 2
2 3

        </DataArray>
        <DataArray type="Int32" Name="offsets" format="ascii">
2 4 6 
        </DataArray>
        <DataArray type="UInt8" Name="types" format="ascii">
3 3 3 
        </DataArray>
      </Cells>
      <PointData>
        <DataArray type="Float64" Name="rho">
          1.49924161e+00 1.57368229e+00 1.66278869e+00 1.73151275e+00 
        </DataArray>
        <DataArray type="Float64" Name="rhou">
          7.98963764e-01 9.28699884e-01 2.57710974e-01 -1.27510301e+00 
        </DataArray>
        <DataArray type="Float64" Name="rhov">
          6.16473409e-01 -5.11239319e-01 -1.72808623e+00 -1.81574297e+00 
        </DataArray>
        <DataArray type="Float64" Name="E">
          3.49218896e+05 3.67389511e+05 3.89017813e+05 4.05721600e+05 
        </DataArray>
      </PointData>
    </Piece>
    <Piece NumberOfPoints="4" NumberOfCells="3">
      <Points>
        <DataArray type="Float64" NumberOfComponents="3" format="ascii">
          8.10639584e-04 -4.26717056e-03 0.00000000e+00 
1.91366620e-04 -3.27450951e-04 0.00000000e+00 
6.40850572e-04 3.63462302e-03 0.00000000e+00 
2.03182548e-03 7.37539819e-03 0.00000000e+00 

        </DataArray>
      </Points>
      <Cells>
        <DataArray type="Int32" Name="connectivity" format="ascii">
0 1
1 2
2 3

        </DataArray>
        <DataArray type="Int32" Name="offsets" format="ascii">
2 4 6 
        </DataArray>
        <DataArray type="UInt8" Name="types" format="ascii">
3 3 3 
        </DataArray>
      </Cells>
      <PointData>
        <DataArray type="Float64" Name="rho">
          1.72993707e+00 1.75489098e+00 1.70446880e+00 1.61200749e+00 
        </DataArray>
        <DataArray type="Float64" Name="rhou">
          -1.14957368e+00 -1.87778152e+00 -8.34129187e-01 7.51764471e-01 
        </DataArray>
        <DataArray type="Float64" Name="rhov">
          -1.97388664e+00 3.64644287e-01 1.88169247e+00 1.51368200e+00 
        </DataArray>
        <DataArray type="Float64" Name="E">
          4.05340113e+05 4.11313871e+05 3.98989236e+05 3.76409757e+05 
        </DataArray>
      </PointData>
    </Piece>
    <Piece NumberOfPoints="4" NumberOfCells="3">
      <Points>
        <DataArray type="Float64" NumberOfComponents="3" format="ascii">
          2.03182548e-03 7.37539819e-03 0.00000000e+00 
4.13410179e-03 1.07714310e-02 0.00000000e+00 
6.73249783e-03 1.38076087e-02 0.00000000e+00 
9.66598373e-03 1.65232457e-02 0.00000000e+00 

        </DataArray>
      </Points>
      <Cells>
        <DataArray type="Int32" Name="connectivity" format="ascii">
0 1
1 2
2 3

        </DataArray>
        <DataArray type="Int32" Name="offsets" format="ascii">
2 4 6 
        </DataArray>
        <DataArray type="UInt8" Name="types" format="ascii">
3 3 3 
        </DataArray>
      </Cells>
      <PointData>
        <DataArray type="Float64" Name="rho">
          1.61236999e+00 1.50523496e+00 1.41598958e+00 1.34902812e+00 
        </DataArray>
        <DataArray type="Float64" Name="rhou">
          7.24135046e-01 1.15412241e+00 8.38843127e-01 3.74437369e-01 
        </DataArray>
        <DataArray type="Float64" Name="rhov">
          1.74840463e+00 6.17169105e-02 -1.07460710e+00 -1.39872565e+00 
        </DataArray>
        <DataArray type="Float64" Name="E">
          3.76500950e+05 3.50495655e+05 3.28795913e+05 3.12433458e+05 
        </DataArray>
      </PointData>
    </Piece>
    <Piece NumberOfPoints="4" NumberOfCells="3">
      <Points>
        <DataArray type="Float64" NumberOfComponents="3" format="ascii">
          9.66598373e-03 1.65232457e-02 0.00000000e+00 
1.28298048e-02 1.89677756e-02 0.00000000e+00 
1.61561389e-02 2.11867876e-02 0.00000000e+00 
1.96009967e-02 2.32173651e-02 0.00000000e+00 

        </DataArray>
      </Points>
      <Cells>
        <DataArray type="Int32" Name="connectivity" format="ascii">
0 1
1 2
2 3

        </DataArray>
        <DataArray type="Int32" Name="offsets" format="ascii">
2 4 6 
        </DataArray>
        <DataArray type="UInt8" Name="types" format="ascii">
3 3 3 
        </DataArray>
      </Cells>
      <PointData>
        <DataArray type="Float64" Name="rho">
          1.34882278e+00 1.29634864e+00 1.25736988e+00 1.22305669e+00 
        </DataArray>
        <DataArray type="Float64" Name="rhou">
          3.84015342e-01 -1.72240678e-02 -1.98456793e-01 -2.18842238e-01 
        </DataArray>
        <DataArray type="Float64" Name="rhov">
          -1.42331664e+00 -1.31845185e+00 -9.88553296e-01 -6.63448039e-01 
        </DataArray>
        <DataArray type="Float64" Name="E">
          3.12381291e+05 2.99559802e+05 2.89986190e+05 2.81584615e+05 
        </DataArray>
      </PointData>
    </Piece>
    <Piece NumberOfPoints="4" NumberOfCells="3">
      <Points>
        <DataArray type="Float64" NumberOfComponents="3" format="ascii">
          1.96009967e-02 2.32173651e-02 0.00000000e+00 
2.31348258e-02 2.50891000e-02 0.00000000e+00 
2.67372411e-02 2.68253610e-02 0.00000000e+00 
3.03938854e-02 2.84444261e-02 0.00000000e+00 

        </DataArray>
      </Points>
      <Cells>
        <DataArray type="Int32" Name="connectivity" format="ascii">
0 1
1 2
2 3

        </DataArray>
        <DataArray type="Int32" Name="offsets" format="ascii">
2 4 6 
        </DataArray>
        <DataArray type="UInt8" Name="types" format="ascii">
3 3 3 
        </DataArray>
      </Cells>
      <PointData>
        <DataArray type="Float64" Name="rho">
          1.22312038e+00 1.19399555e+00 1.16794792e+00 1.14435894e+00 
        </DataArray>
        <DataArray type="Float64" Name="rhou">
          -2.31951734e-01 -2.18382016e-01 -1.73143206e-01 -1.30914123e-01 
        </DataArray>
        <DataArray type="Float64" Name="rhov">
          -6.81666142e-01 -4.30917915e-01 -2.44579351e-01 -1.32007382e-01 
        </DataArray>
        <DataArray type="Float64" Name="E">
          2.81599517e+05 2.74487802e+05 2.68150421e+05 2.62428293e+05 
        </DataArray>
      </PointData>
    </Piece>
    <Piece NumberOfPoints="4" NumberOfCells="3">
      <Points>
        <DataArray type="Float64" NumberOfComponents="3" format="ascii">
          3.03938854e-02 2.84444261e-02 0.00000000e+00 
3.40943485e-02 2.99607720e-02 0.00000000e+00 
3.78307216e-02 3.13864015e-02 0.00000000e+00 
4.15969416e-02 3.27312648e-02 0.00000000e+00 

        </DataArray>
      </Points>
      <Cells>
        <DataArray type="Int32" Name="connectivity" format="ascii">
0 1
1 2
2 3

        </DataArray>
        <DataArray type="Int32" Name="offsets" format="ascii">
2 4 6 
        </DataArray>
        <DataArray type="UInt8" Name="types" format="ascii">
3 3 3 
        </DataArray>
      </Cells>
      <PointData>
        <DataArray type="Float64" Name="rho">
          1.14435721e+00 1.12301376e+00 1.10362741e+00 1.08595505e+00 
        </DataArray>
        <DataArray type="Float64" Name="rhou">
          -1.29125349e-01 -8.90153363e-02 -5.62567420e-02 -3.33132057e-02 
        </DataArray>
        <DataArray type="Float64" Name="rhov">
          -1.30557770e-01 -5.45167071e-02 -7.50445531e-03 1.78459820e-02 
        </DataArray>
        <DataArray type="Float64" Name="E">
          2.62428142e+05 2.57269375e+05 2.52594943e+05 2.48341592e+05 
        </DataArray>
      </PointData>
    </Piece>
    <Piece NumberOfPoints="4" NumberOfCells="3">
      <Points>
        <DataArray type="Float64" NumberOfComponents="3" format="ascii">
          4.15969416e-02 3.27312648e-02 0.00000000e+00 
4.53883260e-02 3.40034962e-02 0.00000000e+00 
4.92011942e-02 3.52098532e-02 0.00000000e+00 
5.30325845e-02 3.63560505e-02 0.00000000e+00 

        </DataArray>
      </Points>
      <Cells>
        <DataArray type="Int32" Name="connectivity" format="ascii">
0 1
1 2
2 3

        </DataArray>
        <DataArray type="Int32" Name="offsets" format="ascii">
2 4 6 
        </DataArray>
        <DataArray type="UInt8" Name="types" format="ascii">
3 3 3 
        </DataArray>
      </Cells>
      <PointData>
        <DataArray type="Float64" Name="rho">
          1.08595561e+00 1.06980824e+00 1.05499737e+00 1.04136425e+00 
        </DataArray>
        <DataArray type="Float64" Name="rhou">
          -3.21776698e-02 -1.27676129e-02 1.65114111e-03 1.10182408e-02 
        </DataArray>
        <DataArray type="Float64" Name="rhov">
          1.77504560e-02 3.14102015e-02 3.80511190e-02 3.91968115e-02 
        </DataArray>
        <DataArray type="Float64" Name="E">
          2.48341801e+05 2.44464006e+05 2.40912700e+05 2.37647938e+05 
        </DataArray>
      </PointData>
    </Piece>
    <Piece NumberOfPoints="4" NumberOfCells="3">
      <Points>
        <DataArray type="Float64" NumberOfComponents="3" format="ascii">
          5.30325845e-02 3.63560505e-02 0.00000000e+00 
5.68800643e-02 3.74470428e-02 0.00000000e+00 
6.07415959e-02 3.84872220e-02 0.00000000e+00 
6.46155030e-02 3.94803248e-02 0.00000000e+00 

        </DataArray>
      </Points>
      <Cells>
        <DataArray type="Int32" Name="connectivity" format="ascii">
0 1
1 2
2 3

        </DataArray>
        <DataArray type="Int32" Name="offsets" format="ascii">
2 4 6 
        </DataArray>
        <DataArray type="UInt8" Name="types" format="ascii">
3 3 3 
        </DataArray>
      </Cells>
      <PointData>
        <DataArray type="Float64" Name="rho">
          1.04136494e+00 1.02882148e+00 1.01723529e+00 1.00646571e+00 
        </DataArray>
        <DataArray type="Float64" Name="rhou">
          1.13332851e-02 1.83148750e-02 2.38440701e-02 2.76671769e-02 
        </DataArray>
        <DataArray type="Float64" Name="rhov">
          3.88696758e-02 3.71981392e-02 3.51378729e-02 3.19070807e-02 
        </DataArray>
        <DataArray type="Float64" Name="E">
          2.37648095e+05 2.34648483e+05 2.31880602e+05 2.29310337e+05 
        </DataArray>
      </PointData>
    </Piece>
    <Piece NumberOfPoints="4" NumberOfCells="3">
      <Points>
        <DataArray type="Float64" NumberOfComponents="3" format="ascii">
          6.46155030e-02 3.94803248e-02 0.00000000e+00 
6.85004294e-02 4.04294394e-02 0.00000000e+00 
7.23951608e-02 4.13374715e-02 0.00000000e+00 
7.62986317e-02 4.22072113e-02 0.00000000e+00 

        </DataArray>
      </Points>
      <Cells>
        <DataArray type="Int32" Name="connectivity" format="ascii">
0 1
1 2
2 3

        </DataArray>
        <DataArray type="Int32" Name="offsets" format="ascii">
2 4 6 
        </DataArray>
        <DataArray type="UInt8" Name="types" format="ascii">
3 3 3 
        </DataArray>
      </Cells>
      <PointData>
        <DataArray type="Float64" Name="rho">
          1.00646642e+00 9.96472105e-01 9.87163509e-01 9.78485141e-01 
        </DataArray>
        <DataArray type="Float64" Name="rhou">
          2.74865315e-02 2.94250968e-02 3.05186913e-02 3.06080058e-02 
        </DataArray>
        <DataArray type="Float64" Name="rhov">
          3.16087308e-02 2.77018277e-02 2.43232125e-02 2.10132865e-02 
        </DataArray>
        <DataArray type="Float64" Name="E">
          2.29310482e+05 2.26927830e+05 2.24710476e+05 2.22644515e+05 
        </DataArray>
      </PointData>
    </Piece>
    <Piece NumberOfPoints="4" NumberOfCells="3">
      <Points>
        <DataArray type="Float64" NumberOfComponents="3" format="ascii">
          7.62986317e-02 4.22072113e-02 0.00000000e+00 
8.02098960e-02 4.30411920e-02 0.00000000e+00 
8.41281936e-02 4.38414887e-02 0.00000000e+00 
8.80528912e-02 4.46097627e-02 0.00000000e+00 

        </DataArray>
      </Points>
      <Cells>
        <DataArray type="Int32" Name="connectivity" format="ascii">
0 1
1 2
2 3

        </DataArray>
        <DataArray type="Int32" Name="offsets" format="ascii">
2 4 6 
        </DataArray>
        <DataArray type="UInt8" Name="types" format="ascii">
3 3 3 
        </DataArray>
      </Cells>
      <PointData>
        <DataArray type="Float64" Name="rho">
          9.78484196e-01 9.70389841e-01 9.62784636e-01 9.55622834e-01 
        </DataArray>
        <DataArray type="Float64" Name="rhou">
          3.04606391e-02 3.04832646e-02 3.02068476e-02 2.91424050e-02 
        </DataArray>
        <DataArray type="Float64" Name="rhov">
          2.08501109e-02 1.82888949e-02 1.57788613e-02 1.30985057e-02 
        </DataArray>
        <DataArray type="Float64" Name="E">
          2.22644278e+05 2.20718826e+05 2.18910993e+05 2.17209695e+05 
        </DataArray>
      </PointData>
    </Piece>
    <Piece NumberOfPoints="4" NumberOfCells="3">
      <Points>
        <DataArray type="Float64" NumberOfComponents="3" format="ascii">
          8.80528912e-02 4.46097627e-02 0.00000000e+00 
9.19835642e-02 4.53475714e-02 0.00000000e+00 
9.59195644e-02 4.60564308e-02 0.00000000e+00 
9.98597518e-02 4.67394181e-02 0.00000000e+00 

        </DataArray>
      </Points>
      <Cells>
        <DataArray type="Int32" Name="connectivity" format="ascii">
0 1
1 2
2 3

        </DataArray>
        <DataArray type="Int32" Name="offsets" format="ascii">
2 4 6 
        </DataArray>
        <DataArray type="UInt8" Name="types" format="ascii">
3 3 3 
        </DataArray>
      </Cells>
      <PointData>
        <DataArray type="Float64" Name="rho">
          9.55623344e-01 9.48894918e-01 9.42587240e-01 9.36600573e-01 
        </DataArray>
        <DataArray type="Float64" Name="rhou">
          2.89503722e-02 2.75269019e-02 2.40610440e-02 2.85665583e-02 
        </DataArray>
        <DataArray type="Float64" Name="rhov">
          1.32613179e-02 1.06872663e-02 9.10489503e-03 8.60594646e-03 
        </DataArray>
        <DataArray type="Float64" Name="E">
          2.17209813e+05 2.15612670e+05 2.14115824e+05 2.12696179e+05 
        </DataArray>
      </PointData>
    </Piece>
    <Piece NumberOfPoints="4" NumberOfCells="3">
      <Points>
        <DataArray type="Float64" NumberOfComponents="3" format="ascii">
          9.98597518e-02 4.67394181e-02 0.00000000e+00 
1.10118888e-01 4.83862534e-02 0.00000000e+00 
1.20400399e-01 4.98730615e-02 0.00000000e+00 
1.30701363e-01 5.12186773e-02 0.00000000e+00 

        </DataArray>
      </Points>
      <Cells>
        <DataArray type="Int32" Name="connectivity" format="ascii">
0 1
1 2
2 3

        </DataArray>
        <DataArray type="Int32" Name="offsets" format="ascii">
2 4 6 
        </DataArray>
        <DataArray type="UInt8" Name="types" format="ascii">
3 3 3 
        </DataArray>
      </Cells>
      <PointData>
        <DataArray type="Float64" Name="rho">
          9.36528006e-01 9.22564524e-01 9.10518466e-01 9.00163257e-01 
        </DataArray>
        <DataArray type="Float64" Name="rhou">
          2.63000059e-02 1.81376557e-02 1.60104082e-02 1.25513762e-02 
        </DataArray>
        <DataArray type="Float64" Name="rhov">
          7.37387658e-03 4.14944518e-03 3.64101944e-03 2.97115178e-03 
        </DataArray>
        <DataArray type="Float64" Name="E">
          2.12679791e+05 2.09372415e+05 2.06522543e+05 2.04075184e+05 
        </DataArray>
      </PointData>
    </Piece>
    <Piece NumberOfPoints="4" NumberOfCells="3">
      <Points>
        <DataArray type="Float64" NumberOfComponents="3" format="ascii">
          1.30701363e-01 5.12186773e-02 0.00000000e+00 
1.41019106e-01 5.24347536e-02 0.00000000e+00 
1.51350453e-01 5.35292812e-02 0.00000000e+00 
1.61692888e-01 5.45137413e-02 0.00000000e+00 

        </DataArray>
      </Points>
      <Cells>
        <DataArray type="Int32" Name="connectivity" format="ascii">
0 1
1 2
2 3

        </DataArray>
        <DataArray type="Int32" Name="offsets" format="ascii">
2 4 6 
        </DataArray>
        <DataArray type="UInt8" Name="types" format="ascii">
3 3 3 
        </DataArray>
      </Cells>
      <PointData>
        <DataArray type="Float64" Name="rho">
          9.00159773e-01 8.91068704e-01 8.83217149e-01 8.76496748e-01 
        </DataArray>
        <DataArray type="Float64" Name="rhou">
          1.39298051e-02 1.20354985e-02 9.96402890e-03 8.70044457e-03 
        </DataArray>
        <DataArray type="Float64" Name="rhov">
          3.46910129e-03 2.54580092e-03 1.77082292e-03 1.59553859e-03 
        </DataArray>
        <DataArray type="Float64" Name="E">
          2.04074347e+05 2.01928989e+05 2.00078394e+05 1.98495934e+05 
        </DataArray>
      </PointData>
    </Piece>
    <Piece NumberOfPoints="4" NumberOfCells="3">
      <Points>
        <DataArray type="Float64" NumberOfComponents="3" format="ascii">
          1.61692888e-01 5.45137413e-02 0.00000000e+00 
1.72044471e-01 5.53969070e-02 0.00000000e+00 
1.82403773e-01 5.61845005e-02 0.00000000e+00 
1.92769483e-01 5.68825118e-02 0.00000000e+00 

        </DataArray>
      </Points>
      <Cells>
        <DataArray type="Int32" Name="connectivity" format="ascii">
0 1
1 2
2 3

        </DataArray>
        <DataArray type="Int32" Name="offsets" format="ascii">
2 4 6 
        </DataArray>
        <DataArray type="UInt8" Name="types" format="ascii">
3 3 3 
        </DataArray>
      </Cells>
      <PointData>
        <DataArray type="Float64" Name="rho">
          8.76494347e-01 8.70710065e-01 8.65771254e-01 8.61625231e-01 
        </DataArray>
        <DataArray type="Float64" Name="rhou">
          8.73707543e-03 7.60740007e-03 6.57447943e-03 5.67332549e-03 
        </DataArray>
        <DataArray type="Float64" Name="rhov">
          1.64703796e-03 1.28355585e-03 9.06281955e-04 6.78082897e-04 
        </DataArray>
        <DataArray type="Float64" Name="E">
          1.98495396e+05 1.97135116e+05 1.95975472e+05 1.95003503e+05 
        </DataArray>
      </PointData>
    </Piece>
    <Piece NumberOfPoints="4" NumberOfCells="3">
      <Points>
        <DataArray type="Float64" NumberOfComponents="3" format="ascii">
          1.92769483e-01 5.68825118e-02 0.00000000e+00 
2.03140482e-01 5.74972220e-02 0.00000000e+00 
2.13515818e-01 5.80338500e-02 0.00000000e+00 
2.23894730e-01 5.84962890e-02 0.00000000e+00 

        </DataArray>
      </Points>
      <Cells>
        <DataArray type="Int32" Name="connectivity" format="ascii">
0 1
1 2
2 3

        </DataArray>
        <DataArray type="Int32" Name="offsets" format="ascii">
2 4 6 
        </DataArray>
        <DataArray type="UInt8" Name="types" format="ascii">
3 3 3 
        </DataArray>
      </Cells>
      <PointData>
        <DataArray type="Float64" Name="rho">
          8.61624543e-01 8.58191586e-01 8.55387687e-01 8.53154539e-01 
        </DataArray>
        <DataArray type="Float64" Name="rhou">
          5.70986428e-03 4.98942612e-03 4.43384217e-03 3.97412781e-03 
        </DataArray>
        <DataArray type="Float64" Name="rhov">
          7.19326651e-04 6.29917516e-04 5.14593819e-04 3.91951494e-04 
        </DataArray>
        <DataArray type="Float64" Name="E">
          1.95003345e+05 1.94199946e+05 1.93545355e+05 1.93025698e+05 
        </DataArray>
      </PointData>
    </Piece>
    <Piece NumberOfPoints="4" NumberOfCells="3">
      <Points>
        <DataArray type="Float64" NumberOfComponents="3" format="ascii">
          2.23894730e-01 5.84962890e-02 0.00000000e+00 
2.34276548e-01 5.88882305e-02 0.00000000e+00 
2.44660646e-01 5.92139624e-02 0.00000000e+00 
2.55046517e-01 5.94772622e-02 0.00000000e+00 

        </DataArray>
      </Points>
      <Cells>
        <DataArray type="Int32" Name="connectivity" format="ascii">
0 1
1 2
2 3

        </DataArray>
        <DataArray type="Int32" Name="offsets" format="ascii">
2 4 6 
        </DataArray>
        <DataArray type="UInt8" Name="types" format="ascii">
3 3 3 
        </DataArray>
      </Cells>
      <PointData>
        <DataArray type="Float64" Name="rho">
          8.53155109e-01 8.51450447e-01 8.50229773e-01 8.49437723e-01 
        </DataArray>
        <DataArray type="Float64" Name="rhou">
          3.98172942e-03 3.46130581e-03 3.08380246e-03 2.85473089e-03 
        </DataArray>
        <DataArray type="Float64" Name="rhov">
          4.06284303e-04 3.28459878e-04 3.11150725e-04 3.09561907e-04 
        </DataArray>
        <DataArray type="Float64" Name="E">
          1.93025828e+05 1.92630912e+05 1.92350121e+05 1.92170412e+05 
        </DataArray>
      </PointData>
    </Piece>
    <Piece NumberOfPoints="4" NumberOfCells="3">
      <Points>
        <DataArray type="Float64" NumberOfComponents="3" format="ascii">
          2.55046517e-01 5.94772622e-02 0.00000000e+00 
2.65433758e-01 5.96804135e-02 0.00000000e+00 
2.75821954e-01 5.98256700e-02 0.00000000e+00 
2.86210775e-01 5.99167012e-02 0.00000000e+00 

        </DataArray>
      </Points>
      <Cells>
        <DataArray type="Int32" Name="connectivity" format="ascii">
0 1
1 2
2 3

        </DataArray>
        <DataArray type="Int32" Name="offsets" format="ascii">
2 4 6 
        </DataArray>
        <DataArray type="UInt8" Name="types" format="ascii">
3 3 3 
        </DataArray>
      </Cells>
      <PointData>
        <DataArray type="Float64" Name="rho">
          8.49437735e-01 8.49026036e-01 8.48970001e-01 8.49249243e-01 
        </DataArray>
        <DataArray type="Float64" Name="rhou">
          2.84901647e-03 2.56278179e-03 2.26956330e-03 2.00670882e-03 
        </DataArray>
        <DataArray type="Float64" Name="rhov">
          3.20819073e-04 2.25622360e-04 1.67416037e-04 2.00880894e-04 
        </DataArray>
        <DataArray type="Float64" Name="E">
          1.92170418e+05 1.92080439e+05 1.92074276e+05 1.92146912e+05 
        </DataArray>
      </PointData>
    </Piece>
    <Piece NumberOfPoints="4" NumberOfCells="3">
      <Points>
        <DataArray type="Float64" NumberOfComponents="3" format="ascii">
          2.86210775e-01 5.99167012e-02 0.00000000e+00 
2.96599895e-01 5.99572174e-02 0.00000000e+00 
3.06989133e-01 5.99487796e-02 0.00000000e+00 
3.17378193e-01 5.98919280e-02 0.00000000e+00 

        </DataArray>
      </Points>
      <Cells>
        <DataArray type="Int32" Name="connectivity" format="ascii">
0 1
1 2
2 3

        </DataArray>
        <DataArray type="Int32" Name="offsets" format="ascii">
2 4 6 
        </DataArray>
        <DataArray type="UInt8" Name="types" format="ascii">
3 3 3 
        </DataArray>
      </Cells>
      <PointData>
        <DataArray type="Float64" Name="rho">
          8.49248225e-01 8.49813706e-01 8.50618684e-01 8.51648101e-01 
        </DataArray>
        <DataArray type="Float64" Name="rhou">
          2.02546595e-03 1.91014409e-03 1.78393714e-03 1.60262060e-03 
        </DataArray>
        <DataArray type="Float64" Name="rhov">
          2.17166541e-04 2.44139878e-04 1.89983254e-04 1.15809700e-04 
        </DataArray>
        <DataArray type="Float64" Name="E">
          1.92146681e+05 1.92286607e+05 1.92483015e+05 1.92732288e+05 
        </DataArray>
      </PointData>
    </Piece>
    <Piece NumberOfPoints="4" NumberOfCells="3">
      <Points>
        <DataArray type="Float64" NumberOfComponents="3" format="ascii">
          3.17378193e-01 5.98919280e-02 0.00000000e+00 
3.27766895e-01 5.97884916e-02 0.00000000e+00 
3.38155061e-01 5.96415885e-02 0.00000000e+00 
3.48542601e-01 5.94538599e-02 0.00000000e+00 

        </DataArray>
      </Points>
      <Cells>
        <DataArray type="Int32" Name="connectivity" format="ascii">
0 1
1 2
2 3

        </DataArray>
        <DataArray type="Int32" Name="offsets" format="ascii">
2 4 6 
        </DataArray>
        <DataArray type="UInt8" Name="types" format="ascii">
3 3 3 
        </DataArray>
      </Cells>
      <PointData>
        <DataArray type="Float64" Name="rho">
          8.51648447e-01 8.52889600e-01 8.54322312e-01 8.55913800e-01 
        </DataArray>
        <DataArray type="Float64" Name="rhou">
          1.63192620e-03 1.43639646e-03 1.31977374e-03 1.27306511e-03 
        </DataArray>
        <DataArray type="Float64" Name="rhov">
          1.23432165e-04 1.12028087e-04 1.37475444e-04 1.57916840e-04 
        </DataArray>
        <DataArray type="Float64" Name="E">
          1.92732366e+05 1.93031397e+05 1.93375381e+05 1.93756670e+05 
        </DataArray>
      </PointData>
    </Piece>
    <Piece NumberOfPoints="4" NumberOfCells="3">
      <Points>
        <DataArray type="Float64" NumberOfComponents="3" format="ascii">
          3.48542601e-01 5.94538599e-02 0.00000000e+00 
3.58929336e-01 5.92265576e-02 0.00000000e+00 
3.69315147e-01 5.89610897e-02 0.00000000e+00 
3.79699975e-01 5.86590059e-02 0.00000000e+00 

        </DataArray>
      </Points>
      <Cells>
        <DataArray type="Int32" Name="connectivity" format="ascii">
0 1
1 2
2 3

        </DataArray>
        <DataArray type="Int32" Name="offsets" format="ascii">
2 4 6 
        </DataArray>
        <DataArray type="UInt8" Name="types" format="ascii">
3 3 3 
        </DataArray>
      </Cells>
      <PointData>
        <DataArray type="Float64" Name="rho">
          8.55914046e-01 8.57638881e-01 8.59487393e-01 8.61439742e-01 
        </DataArray>
        <DataArray type="Float64" Name="rhou">
          1.28534871e-03 1.16156741e-03 1.06786759e-03 1.01957860e-03 
        </DataArray>
        <DataArray type="Float64" Name="rhov">
          1.54851500e-04 1.18882201e-04 1.11405150e-04 1.09765310e-04 
        </DataArray>
        <DataArray type="Float64" Name="E">
          1.93756727e+05 1.94169384e+05 1.94611070e+05 1.95077152e+05 
        </DataArray>
      </PointData>
    </Piece>
    <Piece NumberOfPoints="4" NumberOfCells="3">
      <Points>
        <DataArray type="Float64" NumberOfComponents="3" format="ascii">
          3.79699975e-01 5.86590059e-02 0.00000000e+00 
3.90083700e-01 5.83211333e-02 0.00000000e+00 
4.00466233e-01 5.79482466e-02 0.00000000e+00 
4.10847515e-01 5.75418957e-02 0.00000000e+00 

        </DataArray>
      </Points>
      <Cells>
        <DataArray type="Int32" Name="connectivity" format="ascii">
0 1
1 2
2 3

        </DataArray>
        <DataArray type="Int32" Name="offsets" format="ascii">
2 4 6 
        </DataArray>
        <DataArray type="UInt8" Name="types" format="ascii">
3 3 3 
        </DataArray>
      </Cells>
      <PointData>
        <DataArray type="Float64" Name="rho">
          8.61439754e-01 8.63479102e-01 8.65595539e-01 8.67782512e-01 
        </DataArray>
        <DataArray type="Float64" Name="rhou">
          1.01192508e-03 9.47634790e-04 8.68977980e-04 7.93062870e-04 
        </DataArray>
        <DataArray type="Float64" Name="rhov">
          1.12191288e-04 8.19701372e-05 5.92206163e-05 6.45176496e-05 
        </DataArray>
        <DataArray type="Float64" Name="E">
          1.95077156e+05 1.95563703e+05 1.96068374e+05 1.96589578e+05 
        </DataArray>
      </PointData>
    </Piece>
    <Piece NumberOfPoints="4" NumberOfCells="3">
      <Points>
        <DataArray type="Float64" NumberOfComponents="3" format="ascii">
          4.10847515e-01 5.75418957e-02 0.00000000e+00 
4.21227485e-01 5.71038015e-02 0.00000000e+00 
4.31606144e-01 5.66351078e-02 0.00000000e+00 
4.41983402e-01 5.61364293e-02 0.00000000e+00 

        </DataArray>
      </Points>
      <Cells>
        <DataArray type="Int32" Name="connectivity" format="ascii">
0 1
1 2
2 3

        </DataArray>
        <DataArray type="Int32" Name="offsets" format="ascii">
2 4 6 
        </DataArray>
        <DataArray type="UInt8" Name="types" format="ascii">
3 3 3 
        </DataArray>
      </Cells>
      <PointData>
        <DataArray type="Float64" Name="rho">
          8.67782312e-01 8.70024255e-01 8.72309536e-01 8.74628500e-01 
        </DataArray>
        <DataArray type="Float64" Name="rhou">
          8.09546230e-04 7.57891629e-04 7.18720631e-04 6.81455419e-04 
        </DataArray>
        <DataArray type="Float64" Name="rhov">
          6.79307189e-05 6.80463239e-05 5.84998512e-05 3.75865016e-05 
        </DataArray>
        <DataArray type="Float64" Name="E">
          1.96589533e+05 1.97123639e+05 1.97667937e+05 1.98220169e+05 
        </DataArray>
      </PointData>
    </Piece>
    <Piece NumberOfPoints="4" NumberOfCells="3">
      <Points>
        <DataArray type="Float64" NumberOfComponents="3" format="ascii">
          4.41983402e-01 5.61364293e-02 0.00000000e+00 
4.52359200e-01 5.56085743e-02 0.00000000e+00 
4.62733537e-01 5.50529286e-02 0.00000000e+00 
4.73106444e-01 5.44707514e-02 0.00000000e+00 

        </DataArray>
      </Points>
      <Cells>
        <DataArray type="Int32" Name="connectivity" format="ascii">
0 1
1 2
2 3

        </DataArray>
        <DataArray type="Int32" Name="offsets" format="ascii">
2 4 6 
        </DataArray>
        <DataArray type="UInt8" Name="types" format="ascii">
3 3 3 
        </DataArray>
      </Cells>
      <PointData>
        <DataArray type="Float64" Name="rho">
          8.74628642e-01 8.76976852e-01 8.79347864e-01 8.81733217e-01 
        </DataArray>
        <DataArray type="Float64" Name="rhou">
          6.78478365e-04 6.22575365e-04 5.82507792e-04 5.58835891e-04 
        </DataArray>
        <DataArray type="Float64" Name="rhov">
          3.82301597e-05 3.08740114e-05 3.13820425e-05 3.16419716e-05 
        </DataArray>
        <DataArray type="Float64" Name="E">
          1.98220201e+05 1.98779298e+05 1.99343737e+05 1.99911546e+05 
        </DataArray>
      </PointData>
    </Piece>
    <Piece NumberOfPoints="4" NumberOfCells="3">
      <Points>
        <DataArray type="Float64" NumberOfComponents="3" format="ascii">
          4.73106444e-01 5.44707514e-02 0.00000000e+00 
4.83477861e-01 5.38627952e-02 0.00000000e+00 
4.93847787e-01 5.32294959e-02 0.00000000e+00 
5.04216135e-01 5.25716618e-02 0.00000000e+00 

        </DataArray>
      </Points>
      <Cells>
        <DataArray type="Int32" Name="connectivity" format="ascii">
0 1
1 2
2 3

        </DataArray>
        <DataArray type="Int32" Name="offsets" format="ascii">
2 4 6 
        </DataArray>
        <DataArray type="UInt8" Name="types" format="ascii">
3 3 3 
        </DataArray>
      </Cells>
      <PointData>
        <DataArray type="Float64" Name="rho">
          8.81733204e-01 8.84126057e-01 8.86521052e-01 8.88917070e-01 
        </DataArray>
        <DataArray type="Float64" Name="rhou">
          5.51291201e-04 5.30170090e-04 4.94968934e-04 4.53244129e-04 
        </DataArray>
        <DataArray type="Float64" Name="rhov">
          3.34433291e-05 2.21888788e-05 7.49909897e-06 4.96739660e-06 
        </DataArray>
        <DataArray type="Float64" Name="E">
          1.99911544e+05 2.00481125e+05 2.01051230e+05 2.01621566e+05 
        </DataArray>
      </PointData>
    </Piece>
    <Piece NumberOfPoints="4" NumberOfCells="3">
      <Points>
        <DataArray type="Float64" NumberOfComponents="3" format="ascii">
          5.04216135e-01 5.25716618e-02 0.00000000e+00 
5.14582992e-01 5.18903993e-02 0.00000000e+00 
5.24948359e-01 5.11864908e-02 0.00000000e+00 
5.35312176e-01 5.04603274e-02 0.00000000e+00 

        </DataArray>
      </Points>
      <Cells>
        <DataArray type="Int32" Name="connectivity" format="ascii">
0 1
1 2
2 3

        </DataArray>
        <DataArray type="Int32" Name="offsets" format="ascii">
2 4 6 
        </DataArray>
        <DataArray type="UInt8" Name="types" format="ascii">
3 3 3 
        </DataArray>
      </Cells>
      <PointData>
        <DataArray type="Float64" Name="rho">
          8.88916986e-01 8.91308638e-01 8.93691473e-01 8.96062027e-01 
        </DataArray>
        <DataArray type="Float64" Name="rhou">
          4.61738622e-04 4.35571423e-04 4.15765870e-04 3.96286732e-04 
        </DataArray>
        <DataArray type="Float64" Name="rhov">
          7.11583774e-06 6.82315204e-06 1.52215008e-06 -1.01553115e-05 
        </DataArray>
        <DataArray type="Float64" Name="E">
          2.01621547e+05 2.02190858e+05 2.02758108e+05 2.03322486e+05 
        </DataArray>
      </PointData>
    </Piece>
    <Piece NumberOfPoints="4" NumberOfCells="3">
      <Points>
        <DataArray type="Float64" NumberOfComponents="3" format="ascii">
          5.35312176e-01 5.04603274e-02 0.00000000e+00 
5.45674443e-01 4.97124642e-02 0.00000000e+00 
5.56035221e-01 4.89437394e-02 0.00000000e+00 
5.66394389e-01 4.81546782e-02 0.00000000e+00 

        </DataArray>
      </Points>
      <Cells>
        <DataArray type="Int32" Name="connectivity" format="ascii">
0 1
1 2
2 3

        </DataArray>
        <DataArray type="Int32" Name="offsets" format="ascii">
2 4 6 
        </DataArray>
        <DataArray type="UInt8" Name="types" format="ascii">
3 3 3 
        </DataArray>
      </Cells>
      <PointData>
        <DataArray type="Float64" Name="rho">
          8.96062071e-01 8.98419680e-01 9.00761442e-01 9.03084508e-01 
        </DataArray>
        <DataArray type="Float64" Name="rhou">
          3.92058107e-04 3.65651473e-04 3.47199996e-04 3.35312276e-04 
        </DataArray>
        <DataArray type="Float64" Name="rhov">
          -9.87228572e-06 -1.05319700e-05 -1.11968355e-05 -1.53452823e-05 
        </DataArray>
        <DataArray type="Float64" Name="E">
          2.03322497e+05 2.03883832e+05 2.04441446e+05 2.04994676e+05 
        </DataArray>
      </PointData>
    </Piece>
    <Piece NumberOfPoints="4" NumberOfCells="3">
      <Points>
        <DataArray type="Float64" NumberOfComponents="3" format="ascii">
          5.66394389e-01 4.81546782e-02 0.00000000e+00 
5.76752067e-01 4.73455116e-02 0.00000000e+00 
5.87108195e-01 4.65166979e-02 0.00000000e+00 
5.97462773e-01 4.56690118e-02 0.00000000e+00 

        </DataArray>
      </Points>
      <Cells>
        <DataArray type="Int32" Name="connectivity" format="ascii">
0 1
1 2
2 3

        </DataArray>
        <DataArray type="Int32" Name="offsets" format="ascii">
2 4 6 
        </DataArray>
        <DataArray type="UInt8" Name="types" format="ascii">
3 3 3 
        </DataArray>
      </Cells>
      <PointData>
        <DataArray type="Float64" Name="rho">
          9.03084537e-01 9.05387241e-01 9.07669273e-01 9.09929744e-01 
        </DataArray>
        <DataArray type="Float64" Name="rhou">
          3.34641877e-04 3.14285826e-04 2.93254442e-04 2.77192496e-04 
        </DataArray>
        <DataArray type="Float64" Name="rhov">
          -1.50107273e-05 -2.35049505e-05 -2.69577125e-05 -2.57205658e-05 
        </DataArray>
        <DataArray type="Float64" Name="E">
          2.04994683e+05 2.05543138e+05 2.06086734e+05 2.06625255e+05 
        </DataArray>
      </PointData>
    </Piece>
    <Piece NumberOfPoints="4" NumberOfCells="3">
      <Points>
        <DataArray type="Float64" NumberOfComponents="3" format="ascii">
          5.97462773e-01 4.56690118e-02 0.00000000e+00 
6.07815862e-01 4.48031016e-02 0.00000000e+00 
6.18167400e-01 4.39192392e-02 0.00000000e+00 
6.28517449e-01 4.30175588e-02 0.00000000e+00 

        </DataArray>
      </Points>
      <Cells>
        <DataArray type="Int32" Name="connectivity" format="ascii">
0 1
1 2
2 3

        </DataArray>
        <DataArray type="Int32" Name="offsets" format="ascii">
2 4 6 
        </DataArray>
        <DataArray type="UInt8" Name="types" format="ascii">
3 3 3 
        </DataArray>
      </Cells>
      <PointData>
        <DataArray type="Float64" Name="rho">
          9.09929682e-01 9.12166730e-01 9.14378574e-01 9.16565382e-01 
        </DataArray>
        <DataArray type="Float64" Name="rhou">
          2.75282057e-04 2.66555388e-04 2.54560324e-04 2.37364056e-04 
        </DataArray>
        <DataArray type="Float64" Name="rhov">
          -2.48055310e-05 -2.52139051e-05 -3.07105913e-05 -3.59632471e-05 
        </DataArray>
        <DataArray type="Float64" Name="E">
          2.06625241e+05 2.07158254e+05 2.07685347e+05 2.08206550e+05 
        </DataArray>
      </PointData>
    </Piece>
    <Piece NumberOfPoints="4" NumberOfCells="3">
      <Points>
        <DataArray type="Float64" NumberOfComponents="3" format="ascii">
          6.28517449e-01 4.30175588e-02 0.00000000e+00 
6.38865948e-01 4.20984775e-02 0.00000000e+00 
6.49212897e-01 4.11624312e-02 0.00000000e+00 
6.59558356e-01 4.02097441e-02 0.00000000e+00 

        </DataArray>
      </Points>
      <Cells>
        <DataArray type="Int32" Name="connectivity" format="ascii">
0 1
1 2
2 3

        </DataArray>
        <DataArray type="Int32" Name="offsets" format="ascii">
2 4 6 
        </DataArray>
        <DataArray type="UInt8" Name="types" format="ascii">
3 3 3 
        </DataArray>
      </Cells>
      <PointData>
        <DataArray type="Float64" Name="rho">
          9.16565374e-01 9.18726972e-01 9.20862538e-01 9.22971771e-01 
        </DataArray>
        <DataArray type="Float64" Name="rhou">
          2.38330020e-04 2.25589357e-04 2.14665202e-04 2.02917342e-04 
        </DataArray>
        <DataArray type="Float64" Name="rhov">
          -3.49590409e-05 -3.55946066e-05 -3.73722015e-05 -3.95262573e-05 
        </DataArray>
        <DataArray type="Float64" Name="E">
          2.08206548e+05 2.08721814e+05 2.09230950e+05 2.09733882e+05 
        </DataArray>
      </PointData>
    </Piece>
    <Piece NumberOfPoints="4" NumberOfCells="3">
      <Points>
        <DataArray type="Float64" NumberOfComponents="3" format="ascii">
          6.59558356e-01 4.02097441e-02 0.00000000e+00 
6.69902325e-01 3.92407738e-02 0.00000000e+00 
6.80244744e-01 3.82556282e-02 0.00000000e+00 
6.90585554e-01 3.72543521e-02 0.00000000e+00 

        </DataArray>
      </Points>
      <Cells>
        <DataArray type="Int32" Name="connectivity" format="ascii">
0 1
1 2
2 3

        </DataArray>
        <DataArray type="Int32" Name="offsets" format="ascii">
2 4 6 
        </DataArray>
        <DataArray type="UInt8" Name="types" format="ascii">
3 3 3 
        </DataArray>
      </Cells>
      <PointData>
        <DataArray type="Float64" Name="rho">
          9.22971755e-01 9.25054665e-01 9.27110135e-01 9.29138962e-01 
        </DataArray>
        <DataArray type="Float64" Name="rhou">
          1.99750785e-04 1.94714987e-04 1.86113858e-04 1.71578001e-04 
        </DataArray>
        <DataArray type="Float64" Name="rhov">
          -3.85058198e-05 -3.84365405e-05 -4.27994453e-05 -4.63548584e-05 
        </DataArray>
        <DataArray type="Float64" Name="E">
          2.09733878e+05 2.10230603e+05 2.10720863e+05 2.11204835e+05 
        </DataArray>
      </PointData>
    </Piece>
    <Piece NumberOfPoints="4" NumberOfCells="3">
      <Points>
        <DataArray type="Float64" NumberOfComponents="3" format="ascii">
          6.90585554e-01 3.72543521e-02 0.00000000e+00 
7.00924933e-01 3.62373814e-02 0.00000000e+00 
7.11262703e-01 3.52048986e-02 0.00000000e+00 
7.21598923e-01 3.41568366e-02 0.00000000e+00 

        </DataArray>
      </Points>
      <Cells>
        <DataArray type="Int32" Name="connectivity" format="ascii">
0 1
1 2
2 3

        </DataArray>
        <DataArray type="Int32" Name="offsets" format="ascii">
2 4 6 
        </DataArray>
        <DataArray type="UInt8" Name="types" format="ascii">
3 3 3 
        </DataArray>
      </Cells>
      <PointData>
        <DataArray type="Float64" Name="rho">
          9.29138920e-01 9.31141515e-01 9.33116706e-01 9.35065138e-01 
        </DataArray>
        <DataArray type="Float64" Name="rhou">
          1.70221771e-04 1.65139408e-04 1.59874105e-04 1.46928846e-04 
        </DataArray>
        <DataArray type="Float64" Name="rhov">
          -4.52530548e-05 -4.27378340e-05 -4.59769506e-05 -5.06070264e-05 
        </DataArray>
        <DataArray type="Float64" Name="E">
          2.11204826e+05 2.11682600e+05 2.12153906e+05 2.12618889e+05 
        </DataArray>
      </PointData>
    </Piece>
    <Piece NumberOfPoints="4" NumberOfCells="3">
      <Points>
        <DataArray type="Float64" NumberOfComponents="3" format="ascii">
          7.21598923e-01 3.41568366e-02 0.00000000e+00 
7.31933594e-01 3.30936089e-02 0.00000000e+00 
7.42266715e-01 3.20154354e-02 0.00000000e+00 
7.52598286e-01 3.09220124e-02 0.00000000e+00 

        </DataArray>
      </Points>
      <Cells>
        <DataArray type="Int32" Name="connectivity" format="ascii">
0 1
1 2
2 3

        </DataArray>
        <DataArray type="Int32" Name="offsets" format="ascii">
2 4 6 
        </DataArray>
        <DataArray type="UInt8" Name="types" format="ascii">
3 3 3 
        </DataArray>
      </Cells>
      <PointData>
        <DataArray type="Float64" Name="rho">
          9.35065118e-01 9.36987815e-01 9.38883461e-01 9.40752578e-01 
        </DataArray>
        <DataArray type="Float64" Name="rhou">
          1.44332962e-04 1.40144117e-04 1.37157798e-04 1.26864854e-04 
        </DataArray>
        <DataArray type="Float64" Name="rhov">
          -4.96534713e-05 -4.51885962e-05 -4.73803924e-05 -5.23633737e-05 
        </DataArray>
        <DataArray type="Float64" Name="E">
          2.12618884e+05 2.13077772e+05 2.13530263e+05 2.13976475e+05 
        </DataArray>
      </PointData>
    </Piece>
    <Piece NumberOfPoints="4" NumberOfCells="3">
      <Points>
        <DataArray type="Float64" NumberOfComponents="3" format="ascii">
          7.52598286e-01 3.09220124e-02 0.00000000e+00 
7.62928188e-01 2.98135038e-02 0.00000000e+00 
7.73256481e-01 2.86899786e-02 0.00000000e+00 
7.83583105e-01 2.75512449e-02 0.00000000e+00 

        </DataArray>
      </Points>
      <Cells>
        <DataArray type="Int32" Name="connectivity" format="ascii">
0 1
1 2
2 3

        </DataArray>
        <DataArray type="Int32" Name="offsets" format="ascii">
2 4 6 
        </DataArray>
        <DataArray type="UInt8" Name="types" format="ascii">
3 3 3 
        </DataArray>
      </Cells>
      <PointData>
        <DataArray type="Float64" Name="rho">
          9.40752573e-01 9.42596302e-01 9.44413857e-01 9.46205936e-01 
        </DataArray>
        <DataArray type="Float64" Name="rhou">
          1.24350995e-04 1.20544742e-04 1.16591982e-04 1.07256286e-04 
        </DataArray>
        <DataArray type="Float64" Name="rhov">
          -5.14647709e-05 -4.91498534e-05 -5.12556492e-05 -5.43751392e-05 
        </DataArray>
        <DataArray type="Float64" Name="E">
          2.13976474e+05 2.14416663e+05 2.14850647e+05 2.15278582e+05 
        </DataArray>
      </PointData>
    </Piece>
    <Piece NumberOfPoints="4" NumberOfCells="3">
      <Points>
        <DataArray type="Float64" NumberOfComponents="3" format="ascii">
          7.83583105e-01 2.75512449e-02 0.00000000e+00 
7.93908060e-01 2.63975188e-02 0.00000000e+00 
8.04231405e-01 2.52291560e-02 0.00000000e+00 
8.14553022e-01 2.40457114e-02 0.00000000e+00 

        </DataArray>
      </Points>
      <Cells>
        <DataArray type="Int32" Name="connectivity" format="ascii">
0 1
1 2
2 3

        </DataArray>
        <DataArray type="Int32" Name="offsets" format="ascii">
2 4 6 
        </DataArray>
        <DataArray type="UInt8" Name="types" format="ascii">
3 3 3 
        </DataArray>
      </Cells>
      <PointData>
        <DataArray type="Float64" Name="rho">
          9.46205943e-01 9.47973303e-01 9.49715877e-01 9.51433043e-01 
        </DataArray>
        <DataArray type="Float64" Name="rhou">
          1.09774424e-04 9.92592385e-05 9.80953650e-05 9.89152842e-05 
        </DataArray>
        <DataArray type="Float64" Name="rhov">
          -5.47209877e-05 -5.10703190e-05 -4.98052484e-05 -5.60679221e-05 
        </DataArray>
        <DataArray type="Float64" Name="E">
          2.15278583e+05 2.15700636e+05 2.16116787e+05 2.16526891e+05 
        </DataArray>
      </PointData>
    </Piece>
    <Piece NumberOfPoints="4" NumberOfCells="3">
      <Points>
        <DataArray type="Float64" NumberOfComponents="3" format="ascii">
          8.14553022e-01 2.40457114e-02 0.00000000e+00 
8.24872792e-01 2.28467938e-02 0.00000000e+00 
8.35190892e-01 2.16327831e-02 0.00000000e+00 
8.45507145e-01 2.04038676e-02 0.00000000e+00 

        </DataArray>
      </Points>
      <Cells>
        <DataArray type="Int32" Name="connectivity" format="ascii">
0 1
1 2
2 3

        </DataArray>
        <DataArray type="Int32" Name="offsets" format="ascii">
2 4 6 
        </DataArray>
        <DataArray type="UInt8" Name="types" format="ascii">
3 3 3 
        </DataArray>
      </Cells>
      <PointData>
        <DataArray type="Float64" Name="rho">
          9.51433085e-01 9.53126476e-01 9.54796377e-01 9.56442936e-01 
        </DataArray>
        <DataArray type="Float64" Name="rhou">
          9.31944066e-05 8.51105254e-05 7.82803757e-05 7.88067122e-05 
        </DataArray>
        <DataArray type="Float64" Name="rhov">
          -5.63307092e-05 -5.62054557e-05 -5.34518444e-05 -4.96944535e-05 
        </DataArray>
        <DataArray type="Float64" Name="E">
          2.16526901e+05 2.16931322e+05 2.17330116e+05 2.17723308e+05 
        </DataArray>
      </PointData>
    </Piece>
    <Piece NumberOfPoints="4" NumberOfCells="3">
      <Points>
        <DataArray type="Float64" NumberOfComponents="3" format="ascii">
          8.45507145e-01 2.04038676e-02 0.00000000e+00 
8.55821550e-01 1.91591792e-02 0.00000000e+00 
8.66134048e-01 1.78987328e-02 0.00000000e+00 
8.76444638e-01 1.66228991e-02 0.00000000e+00 

        </DataArray>
      </Points>
      <Cells>
        <DataArray type="Int32" Name="connectivity" format="ascii">
0 1
1 2
2 3

        </DataArray>
        <DataArray type="Int32" Name="offsets" format="ascii">
2 4 6 
        </DataArray>
        <DataArray type="UInt8" Name="types" format="ascii">
3 3 3 
        </DataArray>
      </Cells>
      <PointData>
        <DataArray type="Float64" Name="rho">
          9.56443044e-01 9.58064960e-01 9.59665985e-01 9.61242753e-01 
        </DataArray>
        <DataArray type="Float64" Name="rhou">
          9.94033592e-05 6.89950657e-05 6.75900392e-05 8.31122998e-05 
        </DataArray>
        <DataArray type="Float64" Name="rhov">
          -5.32337647e-05 -6.04090271e-05 -5.79661859e-05 -7.52249730e-05 
        </DataArray>
        <DataArray type="Float64" Name="E">
          2.17723332e+05 2.18110616e+05 2.18492833e+05 2.18869204e+05 
        </DataArray>
      </PointData>
    </Piece>
    <Piece NumberOfPoints="4" NumberOfCells="3">
      <Points>
        <DataArray type="Float64" NumberOfComponents="3" format="ascii">
          8.76444638e-01 1.66228991e-02 0.00000000e+00 
8.86753201e-01 1.53310820e-02 0.00000000e+00 
8.97059798e-01 1.40233757e-02 0.00000000e+00 
9.07364249e-01 1.26988320e-02 0.00000000e+00 

        </DataArray>
      </Points>
      <Cells>
        <DataArray type="Int32" Name="connectivity" format="ascii">
0 1
1 2
2 3

        </DataArray>
        <DataArray type="Int32" Name="offsets" format="ascii">
2 4 6 
        </DataArray>
        <DataArray type="UInt8" Name="types" format="ascii">
3 3 3 
        </DataArray>
      </Cells>
      <PointData>
        <DataArray type="Float64" Name="rho">
          9.61242315e-01 9.62801302e-01 9.64335185e-01 9.65862257e-01 
        </DataArray>
        <DataArray type="Float64" Name="rhou">
          -6.63711168e-06 8.36081603e-05 2.96114841e-05 -2.20489082e-05 
        </DataArray>
        <DataArray type="Float64" Name="rhov">
          -6.74578703e-05 -7.10836600e-05 -8.99106987e-05 6.06537937e-06 
        </DataArray>
        <DataArray type="Float64" Name="E">
          2.18869105e+05 2.19241095e+05 2.19607032e+05 2.19971085e+05 
        </DataArray>
      </PointData>
    </Piece>
    <Piece NumberOfPoints="4" NumberOfCells="3">
      <Points>
        <DataArray type="Float64" NumberOfComponents="3" format="ascii">
          9.07364249e-01 1.26988320e-02 0.00000000e+00 
9.17666554e-01 1.13577880e-02 0.00000000e+00 
9.27966774e-01 1.00004105e-02 0.00000000e+00 
9.38264549e-01 8.62528384e-03 0.00000000e+00 

        </DataArray>
      </Points>
      <Cells>
        <DataArray type="Int32" Name="connectivity" format="ascii">
0 1
1 2
2 3

        </DataArray>
        <DataArray type="Int32" Name="offsets" format="ascii">
2 4 6 
        </DataArray>
        <DataArray type="UInt8" Name="types" format="ascii">
3 3 3 
        </DataArray>
      </Cells>
      <PointData>
        <DataArray type="Float64" Name="rho">
          9.65867000e-01 9.67345816e-01 9.68847675e-01 9.70205715e-01 
        </DataArray>
        <DataArray type="Float64" Name="rhou">
          7.68033728e-04 -2.15287844e-04 3.21338631e-04 7.35680312e-04 
        </DataArray>
        <DataArray type="Float64" Name="rhov">
          -6.17298248e-05 -1.14187993e-04 -4.61636946e-05 -1.42945790e-03 
        </DataArray>
        <DataArray type="Float64" Name="E">
          2.19972164e+05 2.20324914e+05 2.20682651e+05 2.21007467e+05 
        </DataArray>
      </PointData>
    </Piece>
    <Piece NumberOfPoints="4" NumberOfCells="3">
      <Points>
        <DataArray type="Float64" NumberOfComponents="3" format="ascii">
          9.38264549e-01 8.62528384e-03 0.00000000e+00 
9.48560059e-01 7.23283459e-03 0.00000000e+00 
9.58853185e-01 5.82307298e-03 0.00000000e+00 
9.69143867e-01 4.39538015e-03 0.00000000e+00 

        </DataArray>
      </Points>
      <Cells>
        <DataArray type="Int32" Name="connectivity" format="ascii">
0 1
1 2
2 3

        </DataArray>
        <DataArray type="Int32" Name="offsets" format="ascii">
2 4 6 
        </DataArray>
        <DataArray type="UInt8" Name="types" format="ascii">
3 3 3 
        </DataArray>
      </Cells>
      <PointData>
        <DataArray type="Float64" Name="rho">
          9.70159390e-01 9.71829291e-01 9.73095779e-01 9.75772810e-01 
        </DataArray>
        <DataArray type="Float64" Name="rhou">
          -6.52689118e-03 2.07093233e-03 -3.09199312e-03 -1.85490516e-02 
        </DataArray>
        <DataArray type="Float64" Name="rhov">
          -1.06279612e-03 1.23456002e-04 -1.10401876e-03 1.84498077e-02 
        </DataArray>
        <DataArray type="Float64" Name="E">
          2.20996915e+05 2.21392760e+05 2.21696987e+05 2.22323186e+05 
        </DataArray>
      </PointData>
    </Piece>
    <Piece NumberOfPoints="4" NumberOfCells="3">
      <Points>
        <DataArray type="Float64" NumberOfComponents="3" format="ascii">
          9.69143867e-01 4.39538015e-03 0.00000000e+00 
9.79435980e-01 2.94816052e-03 0.00000000e+00 
9.89725590e-01 1.48259092e-03 0.00000000e+00 
1.00000000e+00 0.00000000e+00 0.00000000e+00 

        </DataArray>
      </Points>
      <Cells>
        <DataArray type="Int32" Name="connectivity" format="ascii">
0 1
1 2
2 3

        </DataArray>
        <DataArray type="Int32" Name="offsets" format="ascii">
2 4 6 
        </DataArray>
        <DataArray type="UInt8" Name="types" format="ascii">
3 3 3 
        </DataArray>
      </Cells>
      <PointData>
        <DataArray type="Float64" Name="rho">
          9.76059812e-01 9.75725775e-01 9.79500727e-01 9.69902818e-01 
        </DataArray>
        <DataArray type="Float64" Name="rhou">
          -1.45703908e-03 -9.34651845e-03 -3.66625222e-02 4.83038195e-01 
        </DataArray>
        <DataArray type="Float64" Name="rhov">
          2.06811587e-02 1.00038475e-03 5.10897090e-02 -1.33379697e-01 
        </DataArray>
        <DataArray type="Float64" Name="E">
          2.22388568e+05 2.22329866e+05 2.23208980e+05 2.21043933e+05 
        </DataArray>
      </PointData>
    </Piece>
    <Piece NumberOfPoints="4" NumberOfCells="3">
      <Points>
        <DataArray type="Float64" NumberOfComponents="3" format="ascii">
          9.69029665e-01 -4.41133138e-03 0.00000000e+00 
9.79355037e-01 -2.95961346e-03 0.00000000e+00 
9.89677846e-01 -1.48943183e-03 0.00000000e+00 
1.00000000e+00 0.00000000e+00 0.00000000e+00 

        </DataArray>
      </Points>
      <Cells>
        <DataArray type="Int32" Name="connectivity" format="ascii">
0 1
1 2
2 3

        </DataArray>
        <DataArray type="Int32" Name="offsets" format="ascii">
2 4 6 
        </DataArray>
        <DataArray type="UInt8" Name="types" format="ascii">
3 3 3 
        </DataArray>
      </Cells>
      <PointData>
        <DataArray type="Float64" Name="rho">
          9.74890474e-01 9.74629692e-01 9.78365899e-01 9.70028427e-01 
        </DataArray>
        <DataArray type="Float64" Name="rhou">
          -8.93766180e-04 -7.32498260e-03 -3.45415896e-02 4.44082074e-01 
        </DataArray>
        <DataArray type="Float64" Name="rhov">
          -2.27487813e-02 1.99597692e-03 -4.73868466e-02 1.38685578e-01 
        </DataArray>
        <DataArray type="Float64" Name="E">
          2.22134141e+05 2.22088959e+05 2.22955390e+05 2.21073150e+05 
        </DataArray>
      </PointData>
    </Piece>
    <Piece NumberOfPoints="4" NumberOfCells="3">
      <Points>
        <DataArray type="Float64" NumberOfComponents="3" format="ascii">
          9.38035965e-01 -8.65600072e-03 0.00000000e+00 
9.48369622e-01 -7.25875143e-03 0.00000000e+00 
9.58700895e-01 -5.84406452e-03 0.00000000e+00 
9.69029665e-01 -4.41133138e-03 0.00000000e+00 

        </DataArray>
      </Points>
      <Cells>
        <DataArray type="Int32" Name="connectivity" format="ascii">
0 1
1 2
2 3

        </DataArray>
        <DataArray type="Int32" Name="offsets" format="ascii">
2 4 6 
        </DataArray>
        <DataArray type="UInt8" Name="types" format="ascii">
3 3 3 
        </DataArray>
      </Cells>
      <PointData>
        <DataArray type="Float64" Name="rho">
          9.69136649e-01 9.70768452e-01 9.72012974e-01 9.74608820e-01 
        </DataArray>
        <DataArray type="Float64" Name="rhou">
          -6.13320641e-03 2.22591993e-03 -2.54233726e-03 -1.65904909e-02 
        </DataArray>
        <DataArray type="Float64" Name="rhov">
          1.06316359e-03 -1.64651842e-04 1.30001673e-03 -1.69560459e-02 
        </DataArray>
        <DataArray type="Float64" Name="E">
          2.20781627e+05 2.21167450e+05 2.21464826e+05 2.22069994e+05 
        </DataArray>
      </PointData>
    </Piece>
    <Piece NumberOfPoints="4" NumberOfCells="3">
      <Points>
        <DataArray type="Float64" NumberOfComponents="3" format="ascii">
          9.07021165e-01 -1.27432076e-02 0.00000000e+00 
9.17361677e-01 -1.13977119e-02 0.00000000e+00 
9.27700043e-01 -1.00357840e-02 0.00000000e+00 
9.38035965e-01 -8.65600072e-03 0.00000000e+00 

        </DataArray>
      </Points>
      <Cells>
        <DataArray type="Int32" Name="connectivity" format="ascii">
0 1
1 2
2 3

        </DataArray>
        <DataArray type="Int32" Name="offsets" format="ascii">
2 4 6 
        </DataArray>
        <DataArray type="UInt8" Name="types" format="ascii">
3 3 3 
        </DataArray>
      </Cells>
      <PointData>
        <DataArray type="Float64" Name="rho">
          9.64970564e-01 9.66399383e-01 9.67857869e-01 9.69181712e-01 
        </DataArray>
        <DataArray type="Float64" Name="rhou">
          8.89612437e-04 -7.02307339e-05 4.75670595e-04 8.56059570e-04 
        </DataArray>
        <DataArray type="Float64" Name="rhov">
          4.77917161e-05 7.38024588e-05 -9.27946711e-06 1.34140579e-03 
        </DataArray>
        <DataArray type="Float64" Name="E">
          2.19787908e+05 2.20128663e+05 2.20475805e+05 2.20791886e+05 
        </DataArray>
      </PointData>
    </Piece>
    <Piece NumberOfPoints="4" NumberOfCells="3">
      <Points>
        <DataArray type="Float64" NumberOfComponents="3" format="ascii">
          8.75986874e-01 -1.66798849e-02 0.00000000e+00 
8.86333704e-01 -1.53839625e-02 0.00000000e+00 
8.96678507e-01 -1.40720531e-02 0.00000000e+00 
9.07021165e-01 -1.27432076e-02 0.00000000e+00 

        </DataArray>
      </Points>
      <Cells>
        <DataArray type="Int32" Name="connectivity" format="ascii">
0 1
1 2
2 3

        </DataArray>
        <DataArray type="Int32" Name="offsets" format="ascii">
2 4 6 
        </DataArray>
        <DataArray type="UInt8" Name="types" format="ascii">
3 3 3 
        </DataArray>
      </Cells>
      <PointData>
        <DataArray type="Float64" Name="rho">
          9.60566918e-01 9.62041068e-01 9.63502023e-01 9.64965831e-01 
        </DataArray>
        <DataArray type="Float64" Name="rhou">
          1.46241744e-04 2.23361455e-04 1.77547824e-04 1.27123557e-04 
        </DataArray>
        <DataArray type="Float64" Name="rhov">
          6.51371047e-05 5.68674810e-05 7.15509781e-05 -1.88579248e-05 
        </DataArray>
        <DataArray type="Float64" Name="E">
          2.18737235e+05 2.19089129e+05 2.19437791e+05 2.19786832e+05 
        </DataArray>
      </PointData>
    </Piece>
    <Piece NumberOfPoints="4" NumberOfCells="3">
      <Points>
        <DataArray type="Float64" NumberOfComponents="3" format="ascii">
          8.44934702e-01 -2.04724707e-02 0.00000000e+00 
8.55287313e-01 -1.92240477e-02 0.00000000e+00 
8.65638077e-01 -1.79597028e-02 0.00000000e+00 
8.75986874e-01 -1.66798849e-02 0.00000000e+00 

        </DataArray>
      </Points>
      <Cells>
        <DataArray type="Int32" Name="connectivity" format="ascii">
0 1
1 2
2 3

        </DataArray>
        <DataArray type="Int32" Name="offsets" format="ascii">
2 4 6 
        </DataArray>
        <DataArray type="UInt8" Name="types" format="ascii">
3 3 3 
        </DataArray>
      </Cells>
      <PointData>
        <DataArray type="Float64" Name="rho">
          9.56103686e-01 9.57598603e-01 9.59088846e-01 9.60567325e-01 
        </DataArray>
        <DataArray type="Float64" Name="rhou">
          2.75898778e-04 2.18152041e-04 2.06211520e-04 2.43738769e-04 
        </DataArray>
        <DataArray type="Float64" Name="rhov">
          4.04797106e-05 6.05747380e-05 5.02426155e-05 6.80747157e-05 
        </DataArray>
        <DataArray type="Float64" Name="E">
          2.17671231e+05 2.18028344e+05 2.18384256e+05 2.18737327e+05 
        </DataArray>
      </PointData>
    </Piece>
    <Piece NumberOfPoints="4" NumberOfCells="3">
      <Points>
        <DataArray type="Float64" NumberOfComponents="3" format="ascii">
          8.13865662e-01 -2.41250079e-02 0.00000000e+00 
8.24223816e-01 -2.29226518e-02 0.00000000e+00 
8.34580123e-01 -2.17050612e-02 0.00000000e+00 
8.44934702e-01 -2.04724707e-02 0.00000000e+00 

        </DataArray>
      </Points>
      <Cells>
        <DataArray type="Int32" Name="connectivity" format="ascii">
0 1
1 2
2 3

        </DataArray>
        <DataArray type="Int32" Name="offsets" format="ascii">
2 4 6 
        </DataArray>
        <DataArray type="UInt8" Name="types" format="ascii">
3 3 3 
        </DataArray>
      </Cells>
      <PointData>
        <DataArray type="Float64" Name="rho">
          9.51558470e-01 9.53080925e-01 9.54596161e-01 9.56103462e-01 
        </DataArray>
        <DataArray type="Float64" Name="rhou">
          2.52458516e-04 2.37416324e-04 2.22591026e-04 2.28000545e-04 
        </DataArray>
        <DataArray type="Float64" Name="rhov">
          5.18378312e-05 5.24849237e-05 4.50272180e-05 3.31836251e-05 
        </DataArray>
        <DataArray type="Float64" Name="E">
          2.16585491e+05 2.16949178e+05 2.17311134e+05 2.17671180e+05 
        </DataArray>
      </PointData>
    </Piece>
    <Piece NumberOfPoints="4" NumberOfCells="3">
      <Points>
        <DataArray type="Float64" NumberOfComponents="3" format="ascii">
          7.82780826e-01 -2.76402626e-02 0.00000000e+00 
7.93144107e-01 -2.64833923e-02 0.00000000e+00 
8.03505778e-01 -2.53117718e-02 0.00000000e+00 
8.13865662e-01 -2.41250079e-02 0.00000000e+00 

        </DataArray>
      </Points>
      <Cells>
        <DataArray type="Int32" Name="connectivity" format="ascii">
0 1
1 2
2 3

        </DataArray>
        <DataArray type="Int32" Name="offsets" format="ascii">
2 4 6 
        </DataArray>
        <DataArray type="UInt8" Name="types" format="ascii">
3 3 3 
        </DataArray>
      </Cells>
      <PointData>
        <DataArray type="Float64" Name="rho">
          9.46942880e-01 9.48489367e-01 9.50028788e-01 9.51558363e-01 
        </DataArray>
        <DataArray type="Float64" Name="rhou">
          2.73251243e-04 2.52600914e-04 2.52341284e-04 2.61663194e-04 
        </DataArray>
        <DataArray type="Float64" Name="rhov">
          4.89606774e-05 4.05718004e-05 3.60811289e-05 5.01514021e-05 
        </DataArray>
        <DataArray type="Float64" Name="E">
          2.15483028e+05 2.15852390e+05 2.16220083e+05 2.16585467e+05 
        </DataArray>
      </PointData>
    </Piece>
    <Piece NumberOfPoints="4" NumberOfCells="3">
      <Points>
        <DataArray type="Float64" NumberOfComponents="3" format="ascii">
          7.51680970e-01 -3.10197193e-02 0.00000000e+00 
7.62049198e-01 -2.99084149e-02 0.00000000e+00 
7.72415876e-01 -2.87819952e-02 0.00000000e+00 
7.82780826e-01 -2.76402626e-02 0.00000000e+00 

        </DataArray>
      </Points>
      <Cells>
        <DataArray type="Int32" Name="connectivity" format="ascii">
0 1
1 2
2 3

        </DataArray>
        <DataArray type="Int32" Name="offsets" format="ascii">
2 4 6 
        </DataArray>
        <DataArray type="UInt8" Name="types" format="ascii">
3 3 3 
        </DataArray>
      </Cells>
      <PointData>
        <DataArray type="Float64" Name="rho">
          9.42264207e-01 9.43830863e-01 9.45390319e-01 9.46942844e-01 
        </DataArray>
        <DataArray type="Float64" Name="rhou">
          2.86557726e-04 2.82479854e-04 2.77161736e-04 2.63180418e-04 
        </DataArray>
        <DataArray type="Float64" Name="rhov">
          4.21738287e-05 3.55585833e-05 3.93129420e-05 4.68209611e-05 
        </DataArray>
        <DataArray type="Float64" Name="E">
          2.14365733e+05 2.14739820e+05 2.15112231e+05 2.15483020e+05 
        </DataArray>
      </PointData>
    </Piece>
    <Piece NumberOfPoints="4" NumberOfCells="3">
      <Points>
        <DataArray type="Float64" NumberOfComponents="3" format="ascii">
          7.20566452e-01 -3.42622213e-02 0.00000000e+00 
7.30939507e-01 -3.31965312e-02 0.00000000e+00 
7.41311073e-01 -3.21157984e-02 0.00000000e+00 
7.51680970e-01 -3.10197193e-02 0.00000000e+00 

        </DataArray>
      </Points>
      <Cells>
        <DataArray type="Int32" Name="connectivity" format="ascii">
0 1
1 2
2 3

        </DataArray>
        <DataArray type="Int32" Name="offsets" format="ascii">
2 4 6 
        </DataArray>
        <DataArray type="UInt8" Name="types" format="ascii">
3 3 3 
        </DataArray>
      </Cells>
      <PointData>
        <DataArray type="Float64" Name="rho">
          9.37533070e-01 9.39116021e-01 9.40693258e-01 9.42264198e-01 
        </DataArray>
        <DataArray type="Float64" Name="rhou">
          3.12305326e-04 3.05562733e-04 3.02852272e-04 2.89939281e-04 
        </DataArray>
        <DataArray type="Float64" Name="rhov">
          3.89983473e-05 2.81516595e-05 3.08133968e-05 4.26286202e-05 
        </DataArray>
        <DataArray type="Float64" Name="E">
          2.13236217e+05 2.13614086e+05 2.13990637e+05 2.14365731e+05 
        </DataArray>
      </PointData>
    </Piece>
    <Piece NumberOfPoints="4" NumberOfCells="3">
      <Points>
        <DataArray type="Float64" NumberOfComponents="3" format="ascii">
          6.89437866e-01 -3.73662710e-02 0.00000000e+00 
6.99815631e-01 -3.63472365e-02 0.00000000e+00 
7.10191846e-01 -3.53125818e-02 0.00000000e+00 
7.20566452e-01 -3.42622213e-02 0.00000000e+00 

        </DataArray>
      </Points>
      <Cells>
        <DataArray type="Int32" Name="connectivity" format="ascii">
0 1
1 2
2 3

        </DataArray>
        <DataArray type="Int32" Name="offsets" format="ascii">
2 4 6 
        </DataArray>
        <DataArray type="UInt8" Name="types" format="ascii">
3 3 3 
        </DataArray>
      </Cells>
      <PointData>
        <DataArray type="Float64" Name="rho">
          9.32767683e-01 9.34359563e-01 9.35948139e-01 9.37533081e-01 
        </DataArray>
        <DataArray type="Float64" Name="rhou">
          3.45158357e-04 3.37997100e-04 3.31164481e-04 3.13488679e-04 
        </DataArray>
        <DataArray type="Float64" Name="rhov">
          3.13196738e-05 2.40749082e-05 2.86592525e-05 3.92360080e-05 
        </DataArray>
        <DataArray type="Float64" Name="E">
          2.12098818e+05 2.12478724e+05 2.12857886e+05 2.13236219e+05 
        </DataArray>
      </PointData>
    </Piece>
    <Piece NumberOfPoints="4" NumberOfCells="3">
      <Points>
        <DataArray type="Float64" NumberOfComponents="3" format="ascii">
          6.58295333e-01 -4.03269380e-02 0.00000000e+00 
6.68677747e-01 -3.93563360e-02 0.00000000e+00 
6.79058611e-01 -3.83694395e-02 0.00000000e+00 
6.89437866e-01 -3.73662710e-02 0.00000000e+00 

        </DataArray>
      </Points>
      <Cells>
        <DataArray type="Int32" Name="connectivity" format="ascii">
0 1
1 2
2 3

        </DataArray>
        <DataArray type="Int32" Name="offsets" format="ascii">
2 4 6 
        </DataArray>
        <DataArray type="UInt8" Name="types" format="ascii">
3 3 3 
        </DataArray>
      </Cells>
      <PointData>
        <DataArray type="Float64" Name="rho">
          9.27991604e-01 9.29583957e-01 9.31175983e-01 9.32767737e-01 
        </DataArray>
        <DataArray type="Float64" Name="rhou">
          3.81856525e-04 3.76336215e-04 3.63831944e-04 3.43442007e-04 
        </DataArray>
        <DataArray type="Float64" Name="rhov">
          2.04889558e-05 1.74367189e-05 2.40319381e-05 3.20629027e-05 
        </DataArray>
        <DataArray type="Float64" Name="E">
          2.10959141e+05 2.11339073e+05 2.11718969e+05 2.12098830e+05 
        </DataArray>
      </PointData>
    </Piece>
    <Piece NumberOfPoints="4" NumberOfCells="3">
      <Points>
        <DataArray type="Float64" NumberOfComponents="3" format="ascii">
          6.27138972e-01 -4.31386717e-02 0.00000000e+00 
6.37525976e-01 -4.22184542e-02 0.00000000e+00 
6.47911429e-01 -4.12811004e-02 0.00000000e+00 
6.58295333e-01 -4.03269380e-02 0.00000000e+00 

        </DataArray>
      </Points>
      <Cells>
        <DataArray type="Int32" Name="connectivity" format="ascii">
0 1
1 2
2 3

        </DataArray>
        <DataArray type="Int32" Name="offsets" format="ascii">
2 4 6 
        </DataArray>
        <DataArray type="UInt8" Name="types" format="ascii">
3 3 3 
        </DataArray>
      </Cells>
      <PointData>
        <DataArray type="Float64" Name="rho">
          9.23236036e-01 9.24816476e-01 9.26402267e-01 9.27991637e-01 
        </DataArray>
        <DataArray type="Float64" Name="rhou">
          4.32819792e-04 4.14299119e-04 3.97311959e-04 3.82920142e-04 
        </DataArray>
        <DataArray type="Float64" Name="rhov">
          1.71368772e-05 1.60494180e-05 1.74079734e-05 2.13465586e-05 
        </DataArray>
        <DataArray type="Float64" Name="E">
          2.09824579e+05 2.10201614e+05 2.10579943e+05 2.10959148e+05 
        </DataArray>
      </PointData>
    </Piece>
    <Piece NumberOfPoints="4" NumberOfCells="3">
      <Points>
        <DataArray type="Float64" NumberOfComponents="3" format="ascii">
          5.95968783e-01 -4.57924642e-02 0.00000000e+00 
6.06360376e-01 -4.49259281e-02 0.00000000e+00 
6.16750479e-01 -4.40412909e-02 0.00000000e+00 
6.27138972e-01 -4.31386717e-02 0.00000000e+00 

        </DataArray>
      </Points>
      <Cells>
        <DataArray type="Int32" Name="connectivity" format="ascii">
0 1
1 2
2 3

        </DataArray>
        <DataArray type="Int32" Name="offsets" format="ascii">
2 4 6 
        </DataArray>
        <DataArray type="UInt8" Name="types" format="ascii">
3 3 3 
        </DataArray>
      </Cells>
      <PointData>
        <DataArray type="Float64" Name="rho">
          9.18545398e-01 9.20099578e-01 9.21663530e-01 9.23236029e-01 
        </DataArray>
        <DataArray type="Float64" Name="rhou">
          4.77290652e-04 4.65377932e-04 4.48374889e-04 4.26541839e-04 
        </DataArray>
        <DataArray type="Float64" Name="rhov">
          5.33914869e-06 2.19882488e-06 8.57825723e-06 1.79163007e-05 
        </DataArray>
        <DataArray type="Float64" Name="E">
          2.08705625e+05 2.09076358e+05 2.09449440e+05 2.09824577e+05 
        </DataArray>
      </PointData>
    </Piece>
    <Piece NumberOfPoints="4" NumberOfCells="3">
      <Points>
        <DataArray type="Float64" NumberOfComponents="3" format="ascii">
          5.64784765e-01 -4.82786149e-02 0.00000000e+00 
5.75181007e-01 -4.74695377e-02 0.00000000e+00 
5.85575700e-01 -4.66405638e-02 0.00000000e+00 
5.95968783e-01 -4.57924642e-02 0.00000000e+00 

        </DataArray>
      </Points>
      <Cells>
        <DataArray type="Int32" Name="connectivity" format="ascii">
0 1
1 2
2 3

        </DataArray>
        <DataArray type="Int32" Name="offsets" format="ascii">
2 4 6 
        </DataArray>
        <DataArray type="UInt8" Name="types" format="ascii">
3 3 3 
        </DataArray>
      </Cells>
      <PointData>
        <DataArray type="Float64" Name="rho">
          9.13979102e-01 9.15482384e-01 9.17005137e-01 9.18545510e-01 
        </DataArray>
        <DataArray type="Float64" Name="rhou">
          5.53149706e-04 5.27126160e-04 4.94584568e-04 4.71285696e-04 
        </DataArray>
        <DataArray type="Float64" Name="rhov">
          -5.98098425e-06 5.20590752e-06 9.83841626e-06 6.22516982e-06 
        </DataArray>
        <DataArray type="Float64" Name="E">
          2.07616281e+05 2.07974929e+05 2.08338201e+05 2.08705650e+05 
        </DataArray>
      </PointData>
    </Piece>
    <Piece NumberOfPoints="4" NumberOfCells="3">
      <Points>
        <DataArray type="Float64" NumberOfComponents="3" format="ascii">
          5.33586800e-01 -5.05827516e-02 0.00000000e+00 
5.43987691e-01 -4.98356484e-02 0.00000000e+00 
5.54387033e-01 -4.90674041e-02 0.00000000e+00 
5.64784765e-01 -4.82786149e-02 0.00000000e+00 

        </DataArray>
      </Points>
      <Cells>
        <DataArray type="Int32" Name="connectivity" format="ascii">
0 1
1 2
2 3

        </DataArray>
        <DataArray type="Int32" Name="offsets" format="ascii">
2 4 6 
        </DataArray>
        <DataArray type="UInt8" Name="types" format="ascii">
3 3 3 
        </DataArray>
      </Cells>
      <PointData>
        <DataArray type="Float64" Name="rho">
          9.09610286e-01 9.11038593e-01 9.12496669e-01 9.13979062e-01 
        </DataArray>
        <DataArray type="Float64" Name="rhou">
          6.27162903e-04 5.87763032e-04 5.59269949e-04 5.47683927e-04 
        </DataArray>
        <DataArray type="Float64" Name="rhov">
          -4.68364389e-06 -4.79379126e-06 -7.97179586e-06 -5.66161853e-06 
        </DataArray>
        <DataArray type="Float64" Name="E">
          2.06573842e+05 2.06914696e+05 2.07262596e+05 2.07616272e+05 
        </DataArray>
      </PointData>
    </Piece>
    <Piece NumberOfPoints="4" NumberOfCells="3">
      <Points>
        <DataArray type="Float64" NumberOfComponents="3" format="ascii">
          5.02374947e-01 -5.26902266e-02 0.00000000e+00 
5.12780428e-01 -5.20105064e-02 0.00000000e+00 
5.23184419e-01 -5.13078682e-02 0.00000000e+00 
5.33586800e-01 -5.05827516e-02 0.00000000e+00 

        </DataArray>
      </Points>
      <Cells>
        <DataArray type="Int32" Name="connectivity" format="ascii">
0 1
1 2
2 3

        </DataArray>
        <DataArray type="Int32" Name="offsets" format="ascii">
2 4 6 
        </DataArray>
        <DataArray type="UInt8" Name="types" format="ascii">
3 3 3 
        </DataArray>
      </Cells>
      <PointData>
        <DataArray type="Float64" Name="rho">
          9.05538765e-01 9.06856587e-01 9.08215762e-01 9.09610192e-01 
        </DataArray>
        <DataArray type="Float64" Name="rhou">
          7.08477421e-04 6.72402485e-04 6.44996748e-04 6.24561933e-04 
        </DataArray>
        <DataArray type="Float64" Name="rhov">
          -1.37080528e-05 -2.01923756e-05 -1.88657901e-05 -5.18170086e-06 
        </DataArray>
        <DataArray type="Float64" Name="E">
          2.05601819e+05 2.05916506e+05 2.06240981e+05 2.06573820e+05 
        </DataArray>
      </PointData>
    </Piece>
    <Piece NumberOfPoints="4" NumberOfCells="3">
      <Points>
        <DataArray type="Float64" NumberOfComponents="3" format="ascii">
          4.71149325e-01 -5.45825884e-02 0.00000000e+00 
4.81559396e-01 -5.39771840e-02 0.00000000e+00 
4.91967946e-01 -5.33461571e-02 0.00000000e+00 
5.02374947e-01 -5.26902266e-02 0.00000000e+00 

        </DataArray>
      </Points>
      <Cells>
        <DataArray type="Int32" Name="connectivity" format="ascii">
0 1
1 2
2 3

        </DataArray>
        <DataArray type="Int32" Name="offsets" format="ascii">
2 4 6 
        </DataArray>
        <DataArray type="UInt8" Name="types" format="ascii">
3 3 3 
        </DataArray>
      </Cells>
      <PointData>
        <DataArray type="Float64" Name="rho">
          9.01895620e-01 9.03054501e-01 9.04269291e-01 9.05538853e-01 
        </DataArray>
        <DataArray type="Float64" Name="rhou">
          8.15140834e-04 7.92386091e-04 7.45745307e-04 6.88940590e-04 
        </DataArray>
        <DataArray type="Float64" Name="rhov">
          -3.77308754e-05 -3.16269509e-05 -1.45789300e-05 -1.09598651e-05 
        </DataArray>
        <DataArray type="Float64" Name="E">
          2.04731105e+05 2.05008206e+05 2.05298554e+05 2.05601839e+05 
        </DataArray>
      </PointData>
    </Piece>
    <Piece NumberOfPoints="4" NumberOfCells="3">
      <Points>
        <DataArray type="Float64" NumberOfComponents="3" format="ascii">
          4.39910263e-01 -5.62384278e-02 0.00000000e+00 
4.50324744e-01 -5.57143167e-02 0.00000000e+00 
4.60737765e-01 -5.51619194e-02 0.00000000e+00 
4.71149325e-01 -5.45825884e-02 0.00000000e+00 

        </DataArray>
      </Points>
      <Cells>
        <DataArray type="Int32" Name="connectivity" format="ascii">
0 1
1 2
2 3

        </DataArray>
        <DataArray type="Int32" Name="offsets" format="ascii">
2 4 6 
        </DataArray>
        <DataArray type="UInt8" Name="types" format="ascii">
3 3 3 
        </DataArray>
      </Cells>
      <PointData>
        <DataArray type="Float64" Name="rho">
          8.98839711e-01 8.99778653e-01 9.00800833e-01 9.01895695e-01 
        </DataArray>
        <DataArray type="Float64" Name="rhou">
          9.83399384e-04 9.06319664e-04 8.48017074e-04 8.20568318e-04 
        </DataArray>
        <DataArray type="Float64" Name="rhov">
          -3.00414321e-05 -2.11491814e-05 -2.78154021e-05 -3.52513053e-05 
        </DataArray>
        <DataArray type="Float64" Name="E">
          2.03999217e+05 2.04224365e+05 2.04469158e+05 2.04731122e+05 
        </DataArray>
      </PointData>
    </Piece>
    <Piece NumberOfPoints="4" NumberOfCells="3">
      <Points>
        <DataArray type="Float64" NumberOfComponents="3" format="ascii">
          4.08658355e-01 -5.76302819e-02 0.00000000e+00 
4.19077009e-01 -5.71971126e-02 0.00000000e+00 
4.29494321e-01 -5.67329265e-02 0.00000000e+00 
4.39910263e-01 -5.62384278e-02 0.00000000e+00 

        </DataArray>
      </Points>
      <Cells>
        <DataArray type="Int32" Name="connectivity" format="ascii">
0 1
1 2
2 3

        </DataArray>
        <DataArray type="Int32" Name="offsets" format="ascii">
2 4 6 
        </DataArray>
        <DataArray type="UInt8" Name="types" format="ascii">
3 3 3 
        </DataArray>
      </Cells>
      <PointData>
        <DataArray type="Float64" Name="rho">
          8.96581119e-01 8.97232742e-01 8.97989440e-01 8.98839480e-01 
        </DataArray>
        <DataArray type="Float64" Name="rhou">
          1.13908428e-03 1.06941450e-03 1.01778150e-03 9.78085398e-04 
        </DataArray>
        <DataArray type="Float64" Name="rhov">
          -3.78787913e-05 -5.04469765e-05 -4.98215087e-05 -2.99216550e-05 
        </DataArray>
        <DataArray type="Float64" Name="E">
          2.03455772e+05 2.03612980e+05 2.03795026e+05 2.03999164e+05 
        </DataArray>
      </PointData>
    </Piece>
    <Piece NumberOfPoints="4" NumberOfCells="3">
      <Points>
        <DataArray type="Float64" NumberOfComponents="3" format="ascii">
          3.77394795e-01 -5.87291755e-02 0.00000000e+00 
3.87817174e-01 -5.83979115e-02 0.00000000e+00 
3.98238391e-01 -5.80311492e-02 0.00000000e+00 
4.08658355e-01 -5.76302819e-02 0.00000000e+00 

        </DataArray>
      </Points>
      <Cells>
        <DataArray type="Int32" Name="connectivity" format="ascii">
0 1
1 2
2 3

        </DataArray>
        <DataArray type="Int32" Name="offsets" format="ascii">
2 4 6 
        </DataArray>
        <DataArray type="UInt8" Name="types" format="ascii">
3 3 3 
        </DataArray>
      </Cells>
      <PointData>
        <DataArray type="Float64" Name="rho">
          8.95384116e-01 8.95647712e-01 8.96047806e-01 8.96581330e-01 
        </DataArray>
        <DataArray type="Float64" Name="rhou">
          1.38846023e-03 1.31467634e-03 1.21309437e-03 1.10801416e-03 
        </DataArray>
        <DataArray type="Float64" Name="rhov">
          -8.05964073e-05 -5.30590575e-05 -2.55705526e-05 -3.30346045e-05 
        </DataArray>
        <DataArray type="Float64" Name="E">
          2.03163144e+05 2.03228671e+05 2.03326500e+05 2.03455821e+05 
        </DataArray>
      </PointData>
    </Piece>
    <Piece NumberOfPoints="4" NumberOfCells="3">
      <Points>
        <DataArray type="Float64" NumberOfComponents="3" format="ascii">
          3.46121490e-01 -5.95011823e-02 0.00000000e+00 
3.56546819e-01 -5.92821389e-02 0.00000000e+00 
3.66971314e-01 -5.90242445e-02 0.00000000e+00 
3.77394795e-01 -5.87291755e-02 0.00000000e+00 

        </DataArray>
      </Points>
      <Cells>
        <DataArray type="Int32" Name="connectivity" format="ascii">
0 1
1 2
2 3

        </DataArray>
        <DataArray type="Int32" Name="offsets" format="ascii">
2 4 6 
        </DataArray>
        <DataArray type="UInt8" Name="types" format="ascii">
3 3 3 
        </DataArray>
      </Cells>
      <PointData>
        <DataArray type="Float64" Name="rho">
          8.95540684e-01 8.95313142e-01 8.95266737e-01 8.95384208e-01 
        </DataArray>
        <DataArray type="Float64" Name="rhou">
          1.73154699e-03 1.58711708e-03 1.45821334e-03 1.39187888e-03 
        </DataArray>
        <DataArray type="Float64" Name="rhov">
          -1.14770512e-04 -7.31365901e-05 -6.60059040e-05 -7.60071894e-05 
        </DataArray>
        <DataArray type="Float64" Name="E">
          2.03190572e+05 2.03139993e+05 2.03132212e+05 2.03163163e+05 
        </DataArray>
      </PointData>
    </Piece>
    <Piece NumberOfPoints="4" NumberOfCells="3">
      <Points>
        <DataArray type="Float64" NumberOfComponents="3" format="ascii">
          3.14841360e-01 -5.99102043e-02 0.00000000e+00 
3.25268596e-01 -5.98174632e-02 0.00000000e+00 
3.35695356e-01 -5.96801341e-02 0.00000000e+00 
3.46121490e-01 -5.95011823e-02 0.00000000e+00 

        </DataArray>
      </Points>
      <Cells>
        <DataArray type="Int32" Name="connectivity" format="ascii">
0 1
1 2
2 3

        </DataArray>
        <DataArray type="Int32" Name="offsets" format="ascii">
2 4 6 
        </DataArray>
        <DataArray type="UInt8" Name="types" format="ascii">
3 3 3 
        </DataArray>
      </Cells>
      <PointData>
        <DataArray type="Float64" Name="rho">
          8.97456010e-01 8.96582400e-01 8.95953205e-01 8.95540394e-01 
        </DataArray>
        <DataArray type="Float64" Name="rhou">
          2.18193635e-03 1.93762064e-03 1.77265642e-03 1.69602883e-03 
        </DataArray>
        <DataArray type="Float64" Name="rhov">
          -5.14897414e-05 -2.83619973e-05 -6.06946477e-05 -1.14013924e-04 
        </DataArray>
        <DataArray type="Float64" Name="E">
          2.03633926e+05 2.03430575e+05 2.03284970e+05 2.03190506e+05 
        </DataArray>
      </PointData>
    </Piece>
    <Piece NumberOfPoints="4" NumberOfCells="3">
      <Points>
        <DataArray type="Float64" NumberOfComponents="3" format="ascii">
          2.83558637e-01 -5.98983802e-02 0.00000000e+00 
2.93986142e-01 -5.99516556e-02 0.00000000e+00 
3.04413795e-01 -5.99554181e-02 0.00000000e+00 
3.14841360e-01 -5.99102043e-02 0.00000000e+00 

        </DataArray>
      </Points>
      <Cells>
        <DataArray type="Int32" Name="connectivity" format="ascii">
0 1
1 2
2 3

        </DataArray>
        <DataArray type="Int32" Name="offsets" format="ascii">
2 4 6 
        </DataArray>
        <DataArray type="UInt8" Name="types" format="ascii">
3 3 3 
        </DataArray>
      </Cells>
      <PointData>
        <DataArray type="Float64" Name="rho">
          9.01644768e-01 8.99977340e-01 8.98586648e-01 8.97455299e-01 
        </DataArray>
        <DataArray type="Float64" Name="rhou">
          2.65984385e-03 2.49481275e-03 2.35704775e-03 2.17295285e-03 
        </DataArray>
        <DataArray type="Float64" Name="rhov">
          -1.07972387e-04 -1.75025385e-04 -1.39526297e-04 -4.48955082e-05 
        </DataArray>
        <DataArray type="Float64" Name="E">
          2.04615660e+05 2.04224048e+05 2.03898127e+05 2.03633764e+05 
        </DataArray>
      </PointData>
    </Piece>
    <Piece NumberOfPoints="4" NumberOfCells="3">
      <Points>
        <DataArray type="Float64" NumberOfComponents="3" format="ascii">
          2.52279758e-01 -5.94130717e-02 0.00000000e+00 
2.62705088e-01 -5.96327744e-02 0.00000000e+00 
2.73131490e-01 -5.97934239e-02 0.00000000e+00 
2.83558637e-01 -5.98983802e-02 0.00000000e+00 

        </DataArray>
      </Points>
      <Cells>
        <DataArray type="Int32" Name="connectivity" format="ascii">
0 1
1 2
2 3

        </DataArray>
        <DataArray type="Int32" Name="offsets" format="ascii">
2 4 6 
        </DataArray>
        <DataArray type="UInt8" Name="types" format="ascii">
3 3 3 
        </DataArray>
      </Cells>
      <PointData>
        <DataArray type="Float64" Name="rho">
          9.08726440e-01 9.05996331e-01 9.03638804e-01 9.01645688e-01 
        </DataArray>
        <DataArray type="Float64" Name="rhou">
          3.63250988e-03 3.32717322e-03 2.99163260e-03 2.64613068e-03 
        </DataArray>
        <DataArray type="Float64" Name="rhov">
          -2.55664131e-04 -1.63858256e-04 -7.69583370e-05 -8.88153329e-05 
        </DataArray>
        <DataArray type="Float64" Name="E">
          2.06282956e+05 2.05639489e+05 2.05084538e+05 2.04615872e+05 
        </DataArray>
      </PointData>
    </Piece>
    <Piece NumberOfPoints="4" NumberOfCells="3">
      <Points>
        <DataArray type="Float64" NumberOfComponents="3" format="ascii">
          2.21014455e-01 -5.83752058e-02 0.00000000e+00 
2.31433928e-01 -5.87876961e-02 0.00000000e+00 
2.41855890e-01 -5.91322705e-02 0.00000000e+00 
2.52279758e-01 -5.94130717e-02 0.00000000e+00 

        </DataArray>
      </Points>
      <Cells>
        <DataArray type="Int32" Name="connectivity" format="ascii">
0 1
1 2
2 3

        </DataArray>
        <DataArray type="Int32" Name="offsets" format="ascii">
2 4 6 
        </DataArray>
        <DataArray type="UInt8" Name="types" format="ascii">
3 3 3 
        </DataArray>
      </Cells>
      <PointData>
        <DataArray type="Float64" Name="rho">
          9.19482857e-01 9.15421681e-01 9.11851953e-01 9.08726621e-01 
        </DataArray>
        <DataArray type="Float64" Name="rhou">
          4.98538907e-03 4.40023943e-03 3.95403390e-03 3.66662813e-03 
        </DataArray>
        <DataArray type="Float64" Name="rhov">
          -3.60728933e-04 -2.57027679e-04 -2.25080959e-04 -2.39282885e-04 
        </DataArray>
        <DataArray type="Float64" Name="E">
          2.08823125e+05 2.07863380e+05 2.07020410e+05 2.06282993e+05 
        </DataArray>
      </PointData>
    </Piece>
    <Piece NumberOfPoints="4" NumberOfCells="3">
      <Points>
        <DataArray type="Float64" NumberOfComponents="3" format="ascii">
          1.89777538e-01 -5.66898957e-02 0.00000000e+00 
2.00185493e-01 -5.73302582e-02 0.00000000e+00 
2.10598081e-01 -5.78906052e-02 0.00000000e+00 
2.21014455e-01 -5.83752058e-02 0.00000000e+00 

        </DataArray>
      </Points>
      <Cells>
        <DataArray type="Int32" Name="connectivity" format="ascii">
0 1
1 2
2 3

        </DataArray>
        <DataArray type="Int32" Name="offsets" format="ascii">
2 4 6 
        </DataArray>
        <DataArray type="UInt8" Name="types" format="ascii">
3 3 3 
        </DataArray>
      </Cells>
      <PointData>
        <DataArray type="Float64" Name="rho">
          9.35000422e-01 9.29221594e-01 9.24068952e-01 9.19482098e-01 
        </DataArray>
        <DataArray type="Float64" Name="rhou">
          6.90737677e-03 6.10677778e-03 5.52123152e-03 5.04781133e-03 
        </DataArray>
        <DataArray type="Float64" Name="rhov">
          -6.40541830e-04 -5.70392247e-04 -4.71268789e-04 -3.47962860e-04 
        </DataArray>
        <DataArray type="Float64" Name="E">
          2.12496440e+05 2.11127486e+05 2.09907803e+05 2.08822950e+05 
        </DataArray>
      </PointData>
    </Piece>
    <Piece NumberOfPoints="4" NumberOfCells="3">
      <Points>
        <DataArray type="Float64" NumberOfComponents="3" format="ascii">
          1.58592433e-01 -5.42296544e-02 0.00000000e+00 
1.68979734e-01 -5.51457107e-02 0.00000000e+00 
1.79375216e-01 -5.59638515e-02 0.00000000e+00 
1.89777538e-01 -5.66898957e-02 0.00000000e+00 

        </DataArray>
      </Points>
      <Cells>
        <DataArray type="Int32" Name="connectivity" format="ascii">
0 1
1 2
2 3

        </DataArray>
        <DataArray type="Int32" Name="offsets" format="ascii">
2 4 6 
        </DataArray>
        <DataArray type="UInt8" Name="types" format="ascii">
3 3 3 
        </DataArray>
      </Cells>
      <PointData>
        <DataArray type="Float64" Name="rho">
          9.56844507e-01 9.48752269e-01 9.41487837e-01 9.35000839e-01 
        </DataArray>
        <DataArray type="Float64" Name="rhou">
          9.96589196e-03 8.89130852e-03 7.94142346e-03 6.97866886e-03 
        </DataArray>
        <DataArray type="Float64" Name="rhov">
          -1.39043207e-03 -1.19958345e-03 -8.69293064e-04 -5.99991556e-04 
        </DataArray>
        <DataArray type="Float64" Name="E">
          2.17678948e+05 2.15757537e+05 2.14034245e+05 2.12496540e+05 
        </DataArray>
      </PointData>
    </Piece>
    <Piece NumberOfPoints="4" NumberOfCells="3">
      <Points>
        <DataArray type="Float64" NumberOfComponents="3" format="ascii">
          1.27497971e-01 -5.08146733e-02 0.00000000e+00 
1.37849152e-01 -5.20747155e-02 0.00000000e+00 
1.48214847e-01 -5.32093942e-02 0.00000000e+00 
1.58592433e-01 -5.42296544e-02 0.00000000e+00 

        </DataArray>
      </Points>
      <Cells>
        <DataArray type="Int32" Name="connectivity" format="ascii">
0 1
1 2
2 3

        </DataArray>
        <DataArray type="Int32" Name="offsets" format="ascii">
2 4 6 
        </DataArray>
        <DataArray type="UInt8" Name="types" format="ascii">
3 3 3 
        </DataArray>
      </Cells>
      <PointData>
        <DataArray type="Float64" Name="rho">
          9.87441505e-01 9.76058206e-01 9.65880005e-01 9.56848554e-01 
        </DataArray>
        <DataArray type="Float64" Name="rhou">
          1.44973072e-02 1.33186183e-02 1.15136329e-02 9.99444103e-03 
        </DataArray>
        <DataArray type="Float64" Name="rhov">
          -2.26388122e-03 -2.01741429e-03 -1.40307060e-03 -1.31836172e-03 
        </DataArray>
        <DataArray type="Float64" Name="E">
          2.24955584e+05 2.22246027e+05 2.19825963e+05 2.17679876e+05 
        </DataArray>
      </PointData>
    </Piece>
    <Piece NumberOfPoints="4" NumberOfCells="3">
      <Points>
        <DataArray type="Float64" NumberOfComponents="3" format="ascii">
          9.65642184e-02 -4.61716652e-02 0.00000000e+00 
1.06852271e-01 -4.78802323e-02 0.00000000e+00 
1.17164567e-01 -4.94215861e-02 0.00000000e+00 
1.27497971e-01 -5.08146733e-02 0.00000000e+00 

        </DataArray>
      </Points>
      <Cells>
        <DataArray type="Int32" Name="connectivity" format="ascii">
0 1
1 2
2 3

        </DataArray>
        <DataArray type="Int32" Name="offsets" format="ascii">
2 4 6 
        </DataArray>
        <DataArray type="UInt8" Name="types" format="ascii">
3 3 3 
        </DataArray>
      </Cells>
      <PointData>
        <DataArray type="Float64" Name="rho">
          1.03090606e+00 1.01457676e+00 1.00011768e+00 9.87449844e-01 
        </DataArray>
        <DataArray type="Float64" Name="rhou">
          2.46723355e-02 1.80870813e-02 1.71717454e-02 1.28550894e-02 
        </DataArray>
        <DataArray type="Float64" Name="rhov">
          -9.14760884e-04 -7.19721273e-04 -1.54147868e-03 -1.58482316e-03 
        </DataArray>
        <DataArray type="Float64" Name="E">
          2.35326463e+05 2.31425626e+05 2.27976639e+05 2.24957594e+05 
        </DataArray>
      </PointData>
    </Piece>
  </UnstructuredGrid>
</VTKFile>
