<?xml version="1.0"?>
<VTKFile type="UnstructuredGrid" version="0.1" byte_order="LittleEndian">
  <UnstructuredGrid>
    <Piece NumberOfPoints="4" NumberOfCells="3">
      <Points>
        <DataArray type="Float64" NumberOfComponents="3" format="ascii">
          9.65642184e-02 -4.61716652e-02 0.00000000e+00 
9.26280916e-02 -4.54656407e-02 0.00000000e+00 
8.86965096e-02 -4.47326750e-02 0.00000000e+00 
8.47706869e-02 -4.39694971e-02 0.00000000e+00 

        </DataArray>
      </Points>
      <Cells>
        <DataArray type="Int32" Name="connectivity" format="ascii">
0 1
1 2
2 3

        </DataArray>
        <DataArray type="Int32" Name="offsets" format="ascii">
2 4 6 
        </DataArray>
        <DataArray type="UInt8" Name="types" format="ascii">
3 3 3 
        </DataArray>
      </Cells>
      <PointData>
        <DataArray type="Float64" Name="rho">
          1.11238570e+00 1.11849074e+00 1.12488405e+00 1.13168477e+00 
        </DataArray>
        <DataArray type="Float64" Name="rhou">
          2.76428676e-02 2.08180457e-02 2.34330270e-02 2.33430150e-02 
        </DataArray>
        <DataArray type="Float64" Name="rhov">
          -3.84655539e-03 -2.86161614e-03 -2.64314791e-03 -3.19340526e-03 
        </DataArray>
        <DataArray type="Float64" Name="E">
          2.57608073e+05 2.59099531e+05 2.60662066e+05 2.62323553e+05 
        </DataArray>
      </PointData>
    </Piece>
    <Piece NumberOfPoints="4" NumberOfCells="3">
      <Points>
        <DataArray type="Float64" NumberOfComponents="3" format="ascii">
          8.47706869e-02 -4.39694971e-02 0.00000000e+00 
8.08513016e-02 -4.31745499e-02 0.00000000e+00 
7.69388378e-02 -4.23462167e-02 0.00000000e+00 
7.30340332e-02 -4.14824970e-02 0.00000000e+00 

        </DataArray>
      </Points>
      <Cells>
        <DataArray type="Int32" Name="connectivity" format="ascii">
0 1
1 2
2 3

        </DataArray>
        <DataArray type="Int32" Name="offsets" format="ascii">
2 4 6 
        </DataArray>
        <DataArray type="UInt8" Name="types" format="ascii">
3 3 3 
        </DataArray>
      </Cells>
      <PointData>
        <DataArray type="Float64" Name="rho">
          1.13168391e+00 1.13887863e+00 1.14650020e+00 1.15461785e+00 
        </DataArray>
        <DataArray type="Float64" Name="rhou">
          2.34847492e-02 2.25167166e-02 2.09283242e-02 1.91758381e-02 
        </DataArray>
        <DataArray type="Float64" Name="rhov">
          -3.00001767e-03 -2.93885777e-03 -2.17764131e-03 -1.15337764e-03 
        </DataArray>
        <DataArray type="Float64" Name="E">
          2.62323356e+05 2.64081953e+05 2.65945124e+05 2.67929677e+05 
        </DataArray>
      </PointData>
    </Piece>
    <Piece NumberOfPoints="4" NumberOfCells="3">
      <Points>
        <DataArray type="Float64" NumberOfComponents="3" format="ascii">
          7.30340332e-02 -4.14824970e-02 0.00000000e+00 
6.91377968e-02 -4.05809283e-02 0.00000000e+00 
6.52511865e-02 -3.96387354e-02 0.00000000e+00 
6.13753870e-02 -3.86530459e-02 0.00000000e+00 

        </DataArray>
      </Points>
      <Cells>
        <DataArray type="Int32" Name="connectivity" format="ascii">
0 1
1 2
2 3

        </DataArray>
        <DataArray type="Int32" Name="offsets" format="ascii">
2 4 6 
        </DataArray>
        <DataArray type="UInt8" Name="types" format="ascii">
3 3 3 
        </DataArray>
      </Cells>
      <PointData>
        <DataArray type="Float64" Name="rho">
          1.15461834e+00 1.16330913e+00 1.17260824e+00 1.18257470e+00 
        </DataArray>
        <DataArray type="Float64" Name="rhou">
          1.92738565e-02 1.67395379e-02 1.24467980e-02 6.66067843e-03 
        </DataArray>
        <DataArray type="Float64" Name="rhov">
          -1.31794471e-03 -6.33042642e-04 1.37954376e-03 4.48525206e-03 
        </DataArray>
        <DataArray type="Float64" Name="E">
          2.67929814e+05 2.70055430e+05 2.72330287e+05 2.74769385e+05 
        </DataArray>
      </PointData>
    </Piece>
    <Piece NumberOfPoints="4" NumberOfCells="3">
      <Points>
        <DataArray type="Float64" NumberOfComponents="3" format="ascii">
          6.13753870e-02 -3.86530459e-02 0.00000000e+00 
5.75117208e-02 -3.76208089e-02 0.00000000e+00 
5.36618084e-02 -3.65384258e-02 0.00000000e+00 
4.98276278e-02 -3.54015976e-02 0.00000000e+00 

        </DataArray>
      </Points>
      <Cells>
        <DataArray type="Int32" Name="connectivity" format="ascii">
0 1
1 2
2 3

        </DataArray>
        <DataArray type="Int32" Name="offsets" format="ascii">
2 4 6 
        </DataArray>
        <DataArray type="UInt8" Name="types" format="ascii">
3 3 3 
        </DataArray>
      </Cells>
      <PointData>
        <DataArray type="Float64" Name="rho">
          1.18257491e+00 1.19328532e+00 1.20482688e+00 1.21732843e+00 
        </DataArray>
        <DataArray type="Float64" Name="rhou">
          6.59553605e-03 -6.11781987e-04 -9.97170738e-03 -2.17465027e-02 
        </DataArray>
        <DataArray type="Float64" Name="rhov">
          4.25324555e-03 9.00906018e-03 1.71420302e-02 2.86676339e-02 
        </DataArray>
        <DataArray type="Float64" Name="E">
          2.74769438e+05 2.77393130e+05 2.80221722e+05 2.83287429e+05 
        </DataArray>
      </PointData>
    </Piece>
    <Piece NumberOfPoints="4" NumberOfCells="3">
      <Points>
        <DataArray type="Float64" NumberOfComponents="3" format="ascii">
          4.98276278e-02 -3.54015976e-02 0.00000000e+00 
4.60115410e-02 -3.42054628e-02 0.00000000e+00 
4.22164090e-02 -3.29444520e-02 0.00000000e+00 
3.84457745e-02 -3.16120051e-02 0.00000000e+00 

        </DataArray>
      </Points>
      <Cells>
        <DataArray type="Int32" Name="connectivity" format="ascii">
0 1
1 2
2 3

        </DataArray>
        <DataArray type="Int32" Name="offsets" format="ascii">
2 4 6 
        </DataArray>
        <DataArray type="UInt8" Name="types" format="ascii">
3 3 3 
        </DataArray>
      </Cells>
      <PointData>
        <DataArray type="Float64" Name="rho">
          1.21732824e+00 1.23088328e+00 1.24560837e+00 1.26169018e+00 
        </DataArray>
        <DataArray type="Float64" Name="rhou">
          -2.22273177e-02 -3.63445523e-02 -5.53025798e-02 -7.80871736e-02 
        </DataArray>
        <DataArray type="Float64" Name="rhov">
          2.84529430e-02 4.53162575e-02 7.32438262e-02 1.14097516e-01 
        </DataArray>
        <DataArray type="Float64" Name="E">
          2.83287355e+05 2.86616267e+05 2.90235733e+05 2.94193291e+05 
        </DataArray>
      </PointData>
    </Piece>
    <Piece NumberOfPoints="4" NumberOfCells="3">
      <Points>
        <DataArray type="Float64" NumberOfComponents="3" format="ascii">
          3.84457745e-02 -3.16120051e-02 0.00000000e+00 
3.47041376e-02 -3.02002355e-02 0.00000000e+00 
3.09973080e-02 -2.86995135e-02 0.00000000e+00 
2.73328498e-02 -2.70981900e-02 0.00000000e+00 

        </DataArray>
      </Points>
      <Cells>
        <DataArray type="Int32" Name="connectivity" format="ascii">
0 1
1 2
2 3

        </DataArray>
        <DataArray type="Int32" Name="offsets" format="ascii">
2 4 6 
        </DataArray>
        <DataArray type="UInt8" Name="types" format="ascii">
3 3 3 
        </DataArray>
      </Cells>
      <PointData>
        <DataArray type="Float64" Name="rho">
          1.26169018e+00 1.27931057e+00 1.29866722e+00 1.32011883e+00 
        </DataArray>
        <DataArray type="Float64" Name="rhou">
          -7.90792190e-02 -1.02694027e-01 -1.30812414e-01 -1.55787313e-01 
        </DataArray>
        <DataArray type="Float64" Name="rhov">
          1.14008705e-01 1.70127310e-01 2.57078651e-01 3.79104136e-01 
        </DataArray>
        <DataArray type="Float64" Name="E">
          2.94193161e+05 2.98539153e+05 3.03319991e+05 3.08627661e+05 
        </DataArray>
      </PointData>
    </Piece>
    <Piece NumberOfPoints="4" NumberOfCells="3">
      <Points>
        <DataArray type="Float64" NumberOfComponents="3" format="ascii">
          2.73328498e-02 -2.70981900e-02 0.00000000e+00 
2.37206947e-02 -2.53822580e-02 0.00000000e+00 
2.01744195e-02 -2.35341713e-02 0.00000000e+00 
1.67132635e-02 -2.15314496e-02 0.00000000e+00 

        </DataArray>
      </Points>
      <Cells>
        <DataArray type="Int32" Name="connectivity" format="ascii">
0 1
1 2
2 3

        </DataArray>
        <DataArray type="Int32" Name="offsets" format="ascii">
2 4 6 
        </DataArray>
        <DataArray type="UInt8" Name="types" format="ascii">
3 3 3 
        </DataArray>
      </Cells>
      <PointData>
        <DataArray type="Float64" Name="rho">
          1.32012397e+00 1.34400248e+00 1.37077180e+00 1.40170084e+00 
        </DataArray>
        <DataArray type="Float64" Name="rhou">
          -1.56344273e-01 -1.68694596e-01 -1.51695939e-01 -5.39575679e-02 
        </DataArray>
        <DataArray type="Float64" Name="rhov">
          3.79912134e-01 5.33816738e-01 7.49080662e-01 9.74551641e-01 
        </DataArray>
        <DataArray type="Float64" Name="E">
          3.08628641e+05 3.14556512e+05 3.21212193e+05 3.28910021e+05 
        </DataArray>
      </PointData>
    </Piece>
    <Piece NumberOfPoints="4" NumberOfCells="3">
      <Points>
        <DataArray type="Float64" NumberOfComponents="3" format="ascii">
          1.67132635e-02 -2.15314496e-02 0.00000000e+00 
1.33649679e-02 -1.93456318e-02 0.00000000e+00 
1.01706637e-02 -1.69409402e-02 0.00000000e+00 
7.19343964e-03 -1.42731192e-02 0.00000000e+00 

        </DataArray>
      </Points>
      <Cells>
        <DataArray type="Int32" Name="connectivity" format="ascii">
0 1
1 2
2 3

        </DataArray>
        <DataArray type="Int32" Name="offsets" format="ascii">
2 4 6 
        </DataArray>
        <DataArray type="UInt8" Name="types" format="ascii">
3 3 3 
        </DataArray>
      </Cells>
      <PointData>
        <DataArray type="Float64" Name="rho">
          1.40159178e+00 1.43944919e+00 1.48455172e+00 1.54723320e+00 
        </DataArray>
        <DataArray type="Float64" Name="rhou">
          -3.09403870e-02 1.20457673e-01 4.66586826e-01 8.96451767e-01 
        </DataArray>
        <DataArray type="Float64" Name="rhov">
          9.35659531e-01 1.14730693e+00 1.10497255e+00 5.65449526e-01 
        </DataArray>
        <DataArray type="Float64" Name="E">
          3.28884755e+05 3.38306441e+05 3.49521313e+05 3.64989433e+05 
        </DataArray>
      </PointData>
    </Piece>
    <Piece NumberOfPoints="4" NumberOfCells="3">
      <Points>
        <DataArray type="Float64" NumberOfComponents="3" format="ascii">
          7.19343964e-03 -1.42731192e-02 0.00000000e+00 
4.53082798e-03 -1.12927537e-02 0.00000000e+00 
2.33371323e-03 -7.95678515e-03 0.00000000e+00 
8.10639584e-04 -4.26717056e-03 0.00000000e+00 

        </DataArray>
      </Points>
      <Cells>
        <DataArray type="Int32" Name="connectivity" format="ascii">
0 1
1 2
2 3

        </DataArray>
        <DataArray type="Int32" Name="offsets" format="ascii">
2 4 6 
        </DataArray>
        <DataArray type="UInt8" Name="types" format="ascii">
3 3 3 
        </DataArray>
      </Cells>
      <PointData>
        <DataArray type="Float64" Name="rho">
          1.54775058e+00 1.62026069e+00 1.70800101e+00 1.77728755e+00 
        </DataArray>
        <DataArray type="Float64" Name="rhou">
          8.22250697e-01 9.63278888e-01 2.98970219e-01 -1.24576768e+00 
        </DataArray>
        <DataArray type="Float64" Name="rhov">
          6.61344458e-01 -4.71093449e-01 -1.71970488e+00 -1.86472941e+00 
        </DataArray>
        <DataArray type="Float64" Name="E">
          3.65117615e+05 3.83040972e+05 4.04604681e+05 4.21656444e+05 
        </DataArray>
      </PointData>
    </Piece>
    <Piece NumberOfPoints="4" NumberOfCells="3">
      <Points>
        <DataArray type="Float64" NumberOfComponents="3" format="ascii">
          8.10639584e-04 -4.26717056e-03 0.00000000e+00 
1.91366620e-04 -3.27450951e-04 0.00000000e+00 
6.40850572e-04 3.63462302e-03 0.00000000e+00 
2.03182548e-03 7.37539819e-03 0.00000000e+00 

        </DataArray>
      </Points>
      <Cells>
        <DataArray type="Int32" Name="connectivity" format="ascii">
0 1
1 2
2 3

        </DataArray>
        <DataArray type="Int32" Name="offsets" format="ascii">
2 4 6 
        </DataArray>
        <DataArray type="UInt8" Name="types" format="ascii">
3 3 3 
        </DataArray>
      </Cells>
      <PointData>
        <DataArray type="Float64" Name="rho">
          1.77573079e+00 1.80335014e+00 1.75825159e+00 1.67092266e+00 
        </DataArray>
        <DataArray type="Float64" Name="rhou">
          -1.11985552e+00 -1.90866700e+00 -9.05450714e-01 7.06089695e-01 
        </DataArray>
        <DataArray type="Float64" Name="rhov">
          -2.01118756e+00 2.85366614e-01 1.85582205e+00 1.57409508e+00 
        </DataArray>
        <DataArray type="Float64" Name="E">
          4.21275027e+05 4.27992555e+05 4.16833875e+05 3.95243522e+05 
        </DataArray>
      </PointData>
    </Piece>
    <Piece NumberOfPoints="4" NumberOfCells="3">
      <Points>
        <DataArray type="Float64" NumberOfComponents="3" format="ascii">
          2.03182548e-03 7.37539819e-03 0.00000000e+00 
4.13410179e-03 1.07714310e-02 0.00000000e+00 
6.73249783e-03 1.38076087e-02 0.00000000e+00 
9.66598373e-03 1.65232457e-02 0.00000000e+00 

        </DataArray>
      </Points>
      <Cells>
        <DataArray type="Int32" Name="connectivity" format="ascii">
0 1
1 2
2 3

        </DataArray>
        <DataArray type="Int32" Name="offsets" format="ascii">
2 4 6 
        </DataArray>
        <DataArray type="UInt8" Name="types" format="ascii">
3 3 3 
        </DataArray>
      </Cells>
      <PointData>
        <DataArray type="Float64" Name="rho">
          1.67133803e+00 1.56953538e+00 1.48422084e+00 1.42038470e+00 
        </DataArray>
        <DataArray type="Float64" Name="rhou">
          6.73497564e-01 1.15762453e+00 8.78723283e-01 4.20767301e-01 
        </DataArray>
        <DataArray type="Float64" Name="rhov">
          1.79636929e+00 1.36368477e-01 -1.02005475e+00 -1.38035637e+00 
        </DataArray>
        <DataArray type="Float64" Name="E">
          3.95348585e+05 3.70313216e+05 3.49290090e+05 3.33472088e+05 
        </DataArray>
      </PointData>
    </Piece>
    <Piece NumberOfPoints="4" NumberOfCells="3">
      <Points>
        <DataArray type="Float64" NumberOfComponents="3" format="ascii">
          9.66598373e-03 1.65232457e-02 0.00000000e+00 
1.28298048e-02 1.89677756e-02 0.00000000e+00 
1.61561389e-02 2.11867876e-02 0.00000000e+00 
1.96009967e-02 2.32173651e-02 0.00000000e+00 

        </DataArray>
      </Points>
      <Cells>
        <DataArray type="Int32" Name="connectivity" format="ascii">
0 1
1 2
2 3

        </DataArray>
        <DataArray type="Int32" Name="offsets" format="ascii">
2 4 6 
        </DataArray>
        <DataArray type="UInt8" Name="types" format="ascii">
3 3 3 
        </DataArray>
      </Cells>
      <PointData>
        <DataArray type="Float64" Name="rho">
          1.42018040e+00 1.37042671e+00 1.33365380e+00 1.30145149e+00 
        </DataArray>
        <DataArray type="Float64" Name="rhou">
          4.30764512e-01 2.11626882e-02 -1.74692502e-01 -2.07275250e-01 
        </DataArray>
        <DataArray type="Float64" Name="rhov">
          -1.40338395e+00 -1.32187346e+00 -1.00584906e+00 -6.86654487e-01 
        </DataArray>
        <DataArray type="Float64" Name="E">
          3.33419606e+05 3.21083590e+05 3.11911547e+05 3.03899215e+05 
        </DataArray>
      </PointData>
    </Piece>
    <Piece NumberOfPoints="4" NumberOfCells="3">
      <Points>
        <DataArray type="Float64" NumberOfComponents="3" format="ascii">
          1.96009967e-02 2.32173651e-02 0.00000000e+00 
2.31348258e-02 2.50891000e-02 0.00000000e+00 
2.67372411e-02 2.68253610e-02 0.00000000e+00 
3.03938854e-02 2.84444261e-02 0.00000000e+00 

        </DataArray>
      </Points>
      <Cells>
        <DataArray type="Int32" Name="connectivity" format="ascii">
0 1
1 2
2 3

        </DataArray>
        <DataArray type="Int32" Name="offsets" format="ascii">
2 4 6 
        </DataArray>
        <DataArray type="UInt8" Name="types" format="ascii">
3 3 3 
        </DataArray>
      </Cells>
      <PointData>
        <DataArray type="Float64" Name="rho">
          1.30151763e+00 1.27434620e+00 1.25014498e+00 1.22832455e+00 
        </DataArray>
        <DataArray type="Float64" Name="rhou">
          -2.20597442e-01 -2.16170426e-01 -1.77082920e-01 -1.38830968e-01 
        </DataArray>
        <DataArray type="Float64" Name="rhov">
          -7.05572380e-01 -4.54960583e-01 -2.66436349e-01 -1.51243655e-01 
        </DataArray>
        <DataArray type="Float64" Name="E">
          3.03914853e+05 2.97168228e+05 2.91177617e+05 2.85789405e+05 
        </DataArray>
      </PointData>
    </Piece>
    <Piece NumberOfPoints="4" NumberOfCells="3">
      <Points>
        <DataArray type="Float64" NumberOfComponents="3" format="ascii">
          3.03938854e-02 2.84444261e-02 0.00000000e+00 
3.40943485e-02 2.99607720e-02 0.00000000e+00 
3.78307216e-02 3.13864015e-02 0.00000000e+00 
4.15969416e-02 3.27312648e-02 0.00000000e+00 

        </DataArray>
      </Points>
      <Cells>
        <DataArray type="Int32" Name="connectivity" format="ascii">
0 1
1 2
2 3

        </DataArray>
        <DataArray type="Int32" Name="offsets" format="ascii">
2 4 6 
        </DataArray>
        <DataArray type="UInt8" Name="types" format="ascii">
3 3 3 
        </DataArray>
      </Cells>
      <PointData>
        <DataArray type="Float64" Name="rho">
          1.22832233e+00 1.20863306e+00 1.19082249e+00 1.17464410e+00 
        </DataArray>
        <DataArray type="Float64" Name="rhou">
          -1.36935200e-01 -9.83440971e-02 -6.63636112e-02 -4.34611401e-02 
        </DataArray>
        <DataArray type="Float64" Name="rhov">
          -1.49739016e-01 -7.03510809e-02 -2.02800523e-02 7.70092323e-03 
        </DataArray>
        <DataArray type="Float64" Name="E">
          2.85789127e+05 2.80942772e+05 2.76566998e+05 2.72597269e+05 
        </DataArray>
      </PointData>
    </Piece>
    <Piece NumberOfPoints="4" NumberOfCells="3">
      <Points>
        <DataArray type="Float64" NumberOfComponents="3" format="ascii">
          4.15969416e-02 3.27312648e-02 0.00000000e+00 
4.53883260e-02 3.40034962e-02 0.00000000e+00 
4.92011942e-02 3.52098532e-02 0.00000000e+00 
5.30325845e-02 3.63560505e-02 0.00000000e+00 

        </DataArray>
      </Points>
      <Cells>
        <DataArray type="Int32" Name="connectivity" format="ascii">
0 1
1 2
2 3

        </DataArray>
        <DataArray type="Int32" Name="offsets" format="ascii">
2 4 6 
        </DataArray>
        <DataArray type="UInt8" Name="types" format="ascii">
3 3 3 
        </DataArray>
      </Cells>
      <PointData>
        <DataArray type="Float64" Name="rho">
          1.17464476e+00 1.15989741e+00 1.14641912e+00 1.13405069e+00 
        </DataArray>
        <DataArray type="Float64" Name="rhou">
          -4.22670687e-02 -2.21675819e-02 -7.08784990e-03 3.08975894e-03 
        </DataArray>
        <DataArray type="Float64" Name="rhov">
          7.62599245e-03 2.35735267e-02 3.21252830e-02 3.48532926e-02 
        </DataArray>
        <DataArray type="Float64" Name="E">
          2.72597505e+05 2.68985101e+05 2.65686644e+05 2.62661705e+05 
        </DataArray>
      </PointData>
    </Piece>
    <Piece NumberOfPoints="4" NumberOfCells="3">
      <Points>
        <DataArray type="Float64" NumberOfComponents="3" format="ascii">
          5.30325845e-02 3.63560505e-02 0.00000000e+00 
5.68800643e-02 3.74470428e-02 0.00000000e+00 
6.07415959e-02 3.84872220e-02 0.00000000e+00 
6.46155030e-02 3.94803248e-02 0.00000000e+00 

        </DataArray>
      </Points>
      <Cells>
        <DataArray type="Int32" Name="connectivity" format="ascii">
0 1
1 2
2 3

        </DataArray>
        <DataArray type="Int32" Name="offsets" format="ascii">
2 4 6 
        </DataArray>
        <DataArray type="UInt8" Name="types" format="ascii">
3 3 3 
        </DataArray>
      </Cells>
      <PointData>
        <DataArray type="Float64" Name="rho">
          1.13405148e+00 1.12269410e+00 1.11223471e+00 1.10253347e+00 
        </DataArray>
        <DataArray type="Float64" Name="rhou">
          3.47115084e-03 1.13920394e-02 1.77273185e-02 2.23965806e-02 
        </DataArray>
        <DataArray type="Float64" Name="rhov">
          3.45510627e-02 3.41097361e-02 3.30921021e-02 3.07320992e-02 
        </DataArray>
        <DataArray type="Float64" Name="E">
          2.62661890e+05 2.59886403e+05 2.57331093e+05 2.54961644e+05 
        </DataArray>
      </PointData>
    </Piece>
    <Piece NumberOfPoints="4" NumberOfCells="3">
      <Points>
        <DataArray type="Float64" NumberOfComponents="3" format="ascii">
          6.46155030e-02 3.94803248e-02 0.00000000e+00 
6.85004294e-02 4.04294394e-02 0.00000000e+00 
7.23951608e-02 4.13374715e-02 0.00000000e+00 
7.62986317e-02 4.22072113e-02 0.00000000e+00 

        </DataArray>
      </Points>
      <Cells>
        <DataArray type="Int32" Name="connectivity" format="ascii">
0 1
1 2
2 3

        </DataArray>
        <DataArray type="Int32" Name="offsets" format="ascii">
2 4 6 
        </DataArray>
        <DataArray type="UInt8" Name="types" format="ascii">
3 3 3 
        </DataArray>
      </Cells>
      <PointData>
        <DataArray type="Float64" Name="rho">
          1.10253427e+00 1.09354302e+00 1.08518504e+00 1.07740298e+00 
        </DataArray>
        <DataArray type="Float64" Name="rhou">
          2.22416687e-02 2.49736548e-02 2.67230265e-02 2.74420077e-02 
        </DataArray>
        <DataArray type="Float64" Name="rhov">
          3.04365110e-02 2.71075339e-02 2.42309539e-02 2.13416822e-02 
        </DataArray>
        <DataArray type="Float64" Name="E">
          2.54961812e+05 2.52766536e+05 2.50725879e+05 2.48825371e+05 
        </DataArray>
      </PointData>
    </Piece>
    <Piece NumberOfPoints="4" NumberOfCells="3">
      <Points>
        <DataArray type="Float64" NumberOfComponents="3" format="ascii">
          7.62986317e-02 4.22072113e-02 0.00000000e+00 
8.02098960e-02 4.30411920e-02 0.00000000e+00 
8.41281936e-02 4.38414887e-02 0.00000000e+00 
8.80528912e-02 4.46097627e-02 0.00000000e+00 

        </DataArray>
      </Points>
      <Cells>
        <DataArray type="Int32" Name="connectivity" format="ascii">
0 1
1 2
2 3

        </DataArray>
        <DataArray type="Int32" Name="offsets" format="ascii">
2 4 6 
        </DataArray>
        <DataArray type="UInt8" Name="types" format="ascii">
3 3 3 
        </DataArray>
      </Cells>
      <PointData>
        <DataArray type="Float64" Name="rho">
          1.07740219e+00 1.07014583e+00 1.06333166e+00 1.05691162e+00 
        </DataArray>
        <DataArray type="Float64" Name="rhou">
          2.73308672e-02 2.78791593e-02 2.81145811e-02 2.74769869e-02 
        </DataArray>
        <DataArray type="Float64" Name="rhov">
          2.11823959e-02 1.88604888e-02 1.65437704e-02 1.39904266e-02 
        </DataArray>
        <DataArray type="Float64" Name="E">
          2.48825168e+05 2.47052855e+05 2.45388226e+05 2.43819537e+05 
        </DataArray>
      </PointData>
    </Piece>
    <Piece NumberOfPoints="4" NumberOfCells="3">
      <Points>
        <DataArray type="Float64" NumberOfComponents="3" format="ascii">
          8.80528912e-02 4.46097627e-02 0.00000000e+00 
9.19835642e-02 4.53475714e-02 0.00000000e+00 
9.59195644e-02 4.60564308e-02 0.00000000e+00 
9.98597518e-02 4.67394181e-02 0.00000000e+00 

        </DataArray>
      </Points>
      <Cells>
        <DataArray type="Int32" Name="connectivity" format="ascii">
0 1
1 2
2 3

        </DataArray>
        <DataArray type="Int32" Name="offsets" format="ascii">
2 4 6 
        </DataArray>
        <DataArray type="UInt8" Name="types" format="ascii">
3 3 3 
        </DataArray>
      </Cells>
      <PointData>
        <DataArray type="Float64" Name="rho">
          1.05691177e+00 1.05087710e+00 1.04521227e+00 1.03982990e+00 
        </DataArray>
        <DataArray type="Float64" Name="rhou">
          2.72237601e-02 2.62859670e-02 2.29670472e-02 2.81033707e-02 
        </DataArray>
        <DataArray type="Float64" Name="rhov">
          1.41541257e-02 1.15897764e-02 1.00407220e-02 9.54569985e-03 
        </DataArray>
        <DataArray type="Float64" Name="E">
          2.43819576e+05 2.42344703e+05 2.40959154e+05 2.39642346e+05 
        </DataArray>
      </PointData>
    </Piece>
    <Piece NumberOfPoints="4" NumberOfCells="3">
      <Points>
        <DataArray type="Float64" NumberOfComponents="3" format="ascii">
          9.98597518e-02 4.67394181e-02 0.00000000e+00 
1.10118888e-01 4.83862534e-02 0.00000000e+00 
1.20400399e-01 4.98730615e-02 0.00000000e+00 
1.30701363e-01 5.12186773e-02 0.00000000e+00 

        </DataArray>
      </Points>
      <Cells>
        <DataArray type="Int32" Name="connectivity" format="ascii">
0 1
1 2
2 3

        </DataArray>
        <DataArray type="Int32" Name="offsets" format="ascii">
2 4 6 
        </DataArray>
        <DataArray type="UInt8" Name="types" format="ascii">
3 3 3 
        </DataArray>
      </Cells>
      <PointData>
        <DataArray type="Float64" Name="rho">
          1.03975546e+00 1.02714147e+00 1.01614515e+00 1.00654650e+00 
        </DataArray>
        <DataArray type="Float64" Name="rhou">
          2.58234573e-02 1.79435546e-02 1.61426765e-02 1.27922738e-02 
        </DataArray>
        <DataArray type="Float64" Name="rhov">
          8.21163923e-03 4.99340345e-03 4.53546479e-03 3.80010860e-03 
        </DataArray>
        <DataArray type="Float64" Name="E">
          2.39625262e+05 2.36536700e+05 2.33839200e+05 2.31478859e+05 
        </DataArray>
      </PointData>
    </Piece>
    <Piece NumberOfPoints="4" NumberOfCells="3">
      <Points>
        <DataArray type="Float64" NumberOfComponents="3" format="ascii">
          1.30701363e-01 5.12186773e-02 0.00000000e+00 
1.41019106e-01 5.24347536e-02 0.00000000e+00 
1.51350453e-01 5.35292812e-02 0.00000000e+00 
1.61692888e-01 5.45137413e-02 0.00000000e+00 

        </DataArray>
      </Points>
      <Cells>
        <DataArray type="Int32" Name="connectivity" format="ascii">
0 1
1 2
2 3

        </DataArray>
        <DataArray type="Int32" Name="offsets" format="ascii">
2 4 6 
        </DataArray>
        <DataArray type="UInt8" Name="types" format="ascii">
3 3 3 
        </DataArray>
      </Cells>
      <PointData>
        <DataArray type="Float64" Name="rho">
          1.00654265e+00 9.97929286e-01 9.90281090e-01 9.83494371e-01 
        </DataArray>
        <DataArray type="Float64" Name="rhou">
          1.42682291e-02 1.25197841e-02 1.05032504e-02 9.28909740e-03 
        </DataArray>
        <DataArray type="Float64" Name="rhov">
          4.34706187e-03 3.25243252e-03 2.32779549e-03 2.06733606e-03 
        </DataArray>
        <DataArray type="Float64" Name="E">
          2.31477929e+05 2.29356484e+05 2.27468000e+05 2.25786927e+05 
        </DataArray>
      </PointData>
    </Piece>
    <Piece NumberOfPoints="4" NumberOfCells="3">
      <Points>
        <DataArray type="Float64" NumberOfComponents="3" format="ascii">
          1.61692888e-01 5.45137413e-02 0.00000000e+00 
1.72044471e-01 5.53969070e-02 0.00000000e+00 
1.82403773e-01 5.61845005e-02 0.00000000e+00 
1.92769483e-01 5.68825118e-02 0.00000000e+00 

        </DataArray>
      </Points>
      <Cells>
        <DataArray type="Int32" Name="connectivity" format="ascii">
0 1
1 2
2 3

        </DataArray>
        <DataArray type="Int32" Name="offsets" format="ascii">
2 4 6 
        </DataArray>
        <DataArray type="UInt8" Name="types" format="ascii">
3 3 3 
        </DataArray>
      </Cells>
      <PointData>
        <DataArray type="Float64" Name="rho">
          9.83491876e-01 9.77382326e-01 9.71867949e-01 9.66905710e-01 
        </DataArray>
        <DataArray type="Float64" Name="rhou">
          9.32593456e-03 8.23495678e-03 7.20684047e-03 6.29265933e-03 
        </DataArray>
        <DataArray type="Float64" Name="rhov">
          2.12205455e-03 1.64475781e-03 1.15266321e-03 8.37645976e-04 
        </DataArray>
        <DataArray type="Float64" Name="E">
          2.25786359e+05 2.24268953e+05 2.22895711e+05 2.21656085e+05 
        </DataArray>
      </PointData>
    </Piece>
    <Piece NumberOfPoints="4" NumberOfCells="3">
      <Points>
        <DataArray type="Float64" NumberOfComponents="3" format="ascii">
          1.92769483e-01 5.68825118e-02 0.00000000e+00 
2.03140482e-01 5.74972220e-02 0.00000000e+00 
2.13515818e-01 5.80338500e-02 0.00000000e+00 
2.23894730e-01 5.84962890e-02 0.00000000e+00 

        </DataArray>
      </Points>
      <Cells>
        <DataArray type="Int32" Name="connectivity" format="ascii">
0 1
1 2
2 3

        </DataArray>
        <DataArray type="Int32" Name="offsets" format="ascii">
2 4 6 
        </DataArray>
        <DataArray type="UInt8" Name="types" format="ascii">
3 3 3 
        </DataArray>
      </Cells>
      <PointData>
        <DataArray type="Float64" Name="rho">
          9.66904983e-01 9.62425031e-01 9.58355348e-01 9.54649627e-01 
        </DataArray>
        <DataArray type="Float64" Name="rhou">
          6.33549779e-03 5.59798679e-03 5.02749516e-03 4.55368558e-03 
        </DataArray>
        <DataArray type="Float64" Name="rhov">
          8.84308296e-04 7.33590451e-04 5.53914794e-04 3.71778544e-04 
        </DataArray>
        <DataArray type="Float64" Name="E">
          2.21655916e+05 2.20533199e+05 2.19510442e+05 2.18576668e+05 
        </DataArray>
      </PointData>
    </Piece>
    <Piece NumberOfPoints="4" NumberOfCells="3">
      <Points>
        <DataArray type="Float64" NumberOfComponents="3" format="ascii">
          2.23894730e-01 5.84962890e-02 0.00000000e+00 
2.34276548e-01 5.88882305e-02 0.00000000e+00 
2.44660646e-01 5.92139624e-02 0.00000000e+00 
2.55046517e-01 5.94772622e-02 0.00000000e+00 

        </DataArray>
      </Points>
      <Cells>
        <DataArray type="Int32" Name="connectivity" format="ascii">
0 1
1 2
2 3

        </DataArray>
        <DataArray type="Int32" Name="offsets" format="ascii">
2 4 6 
        </DataArray>
        <DataArray type="UInt8" Name="types" format="ascii">
3 3 3 
        </DataArray>
      </Cells>
      <PointData>
        <DataArray type="Float64" Name="rho">
          9.54650315e-01 9.51279445e-01 9.48212770e-01 9.45407985e-01 
        </DataArray>
        <DataArray type="Float64" Name="rhou">
          4.56260054e-03 4.00294728e-03 3.59582766e-03 3.35723861e-03 
        </DataArray>
        <DataArray type="Float64" Name="rhov">
          3.87149524e-04 2.69038386e-04 2.22222103e-04 1.96647263e-04 
        </DataArray>
        <DataArray type="Float64" Name="E">
          2.18576828e+05 2.17725046e+05 2.16947903e+05 2.16235362e+05 
        </DataArray>
      </PointData>
    </Piece>
    <Piece NumberOfPoints="4" NumberOfCells="3">
      <Points>
        <DataArray type="Float64" NumberOfComponents="3" format="ascii">
          2.55046517e-01 5.94772622e-02 0.00000000e+00 
2.65433758e-01 5.96804135e-02 0.00000000e+00 
2.75821954e-01 5.98256700e-02 0.00000000e+00 
2.86210775e-01 5.99167012e-02 0.00000000e+00 

        </DataArray>
      </Points>
      <Cells>
        <DataArray type="Int32" Name="connectivity" format="ascii">
0 1
1 2
2 3

        </DataArray>
        <DataArray type="Int32" Name="offsets" format="ascii">
2 4 6 
        </DataArray>
        <DataArray type="UInt8" Name="types" format="ascii">
3 3 3 
        </DataArray>
      </Cells>
      <PointData>
        <DataArray type="Float64" Name="rho">
          9.45408004e-01 9.42831048e-01 9.40472695e-01 9.38329052e-01 
        </DataArray>
        <DataArray type="Float64" Name="rhou">
          3.34841427e-03 3.03586314e-03 2.70332789e-03 2.39874692e-03 
        </DataArray>
        <DataArray type="Float64" Name="rhov">
          2.09497883e-04 8.05294347e-05 -3.30628773e-06 2.80943345e-05 
        </DataArray>
        <DataArray type="Float64" Name="E">
          2.16235371e+05 2.15579338e+05 2.14977394e+05 2.14428183e+05 
        </DataArray>
      </PointData>
    </Piece>
    <Piece NumberOfPoints="4" NumberOfCells="3">
      <Points>
        <DataArray type="Float64" NumberOfComponents="3" format="ascii">
          2.86210775e-01 5.99167012e-02 0.00000000e+00 
2.96599895e-01 5.99572174e-02 0.00000000e+00 
3.06989133e-01 5.99487796e-02 0.00000000e+00 
3.17378193e-01 5.98919280e-02 0.00000000e+00 

        </DataArray>
      </Points>
      <Cells>
        <DataArray type="Int32" Name="connectivity" format="ascii">
0 1
1 2
2 3

        </DataArray>
        <DataArray type="Int32" Name="offsets" format="ascii">
2 4 6 
        </DataArray>
        <DataArray type="UInt8" Name="types" format="ascii">
3 3 3 
        </DataArray>
      </Cells>
      <PointData>
        <DataArray type="Float64" Name="rho">
          9.38327800e-01 9.36362981e-01 9.34542125e-01 9.32866568e-01 
        </DataArray>
        <DataArray type="Float64" Name="rhou">
          2.42145822e-03 2.29875284e-03 2.16033419e-03 1.94313749e-03 
        </DataArray>
        <DataArray type="Float64" Name="rhov">
          4.73816596e-05 8.17670010e-05 9.40771614e-06 -9.14769640e-05 
        </DataArray>
        <DataArray type="Float64" Name="E">
          2.14427894e+05 2.13922624e+05 2.13452826e+05 2.13018271e+05 
        </DataArray>
      </PointData>
    </Piece>
    <Piece NumberOfPoints="4" NumberOfCells="3">
      <Points>
        <DataArray type="Float64" NumberOfComponents="3" format="ascii">
          3.17378193e-01 5.98919280e-02 0.00000000e+00 
3.27766895e-01 5.97884916e-02 0.00000000e+00 
3.38155061e-01 5.96415885e-02 0.00000000e+00 
3.48542601e-01 5.94538599e-02 0.00000000e+00 

        </DataArray>
      </Points>
      <Cells>
        <DataArray type="Int32" Name="connectivity" format="ascii">
0 1
1 2
2 3

        </DataArray>
        <DataArray type="Int32" Name="offsets" format="ascii">
2 4 6 
        </DataArray>
        <DataArray type="UInt8" Name="types" format="ascii">
3 3 3 
        </DataArray>
      </Cells>
      <PointData>
        <DataArray type="Float64" Name="rho">
          9.32867058e-01 9.31341408e-01 9.29960943e-01 9.28703701e-01 
        </DataArray>
        <DataArray type="Float64" Name="rhou">
          1.98247939e-03 1.73865099e-03 1.59881651e-03 1.55011555e-03 
        </DataArray>
        <DataArray type="Float64" Name="rhov">
          -8.31565495e-05 -9.47567435e-05 -5.53217334e-05 -2.18802753e-05 
        </DataArray>
        <DataArray type="Float64" Name="E">
          2.13018381e+05 2.12619496e+05 2.12254444e+05 2.11917418e+05 
        </DataArray>
      </PointData>
    </Piece>
    <Piece NumberOfPoints="4" NumberOfCells="3">
      <Points>
        <DataArray type="Float64" NumberOfComponents="3" format="ascii">
          3.48542601e-01 5.94538599e-02 0.00000000e+00 
3.58929336e-01 5.92265576e-02 0.00000000e+00 
3.69315147e-01 5.89610897e-02 0.00000000e+00 
3.79699975e-01 5.86590059e-02 0.00000000e+00 

        </DataArray>
      </Points>
      <Cells>
        <DataArray type="Int32" Name="connectivity" format="ascii">
0 1
1 2
2 3

        </DataArray>
        <DataArray type="Int32" Name="offsets" format="ascii">
2 4 6 
        </DataArray>
        <DataArray type="UInt8" Name="types" format="ascii">
3 3 3 
        </DataArray>
      </Cells>
      <PointData>
        <DataArray type="Float64" Name="rho">
          9.28704054e-01 9.27555794e-01 9.26522169e-01 9.25593583e-01 
        </DataArray>
        <DataArray type="Float64" Name="rhou">
          1.57063980e-03 1.41091768e-03 1.29345413e-03 1.23798416e-03 
        </DataArray>
        <DataArray type="Float64" Name="rhov">
          -2.70474154e-05 -7.00903036e-05 -7.30064836e-05 -6.98196854e-05 
        </DataArray>
        <DataArray type="Float64" Name="E">
          2.11917498e+05 2.11604480e+05 2.11316011e+05 2.11049177e+05 
        </DataArray>
      </PointData>
    </Piece>
    <Piece NumberOfPoints="4" NumberOfCells="3">
      <Points>
        <DataArray type="Float64" NumberOfComponents="3" format="ascii">
          3.79699975e-01 5.86590059e-02 0.00000000e+00 
3.90083700e-01 5.83211333e-02 0.00000000e+00 
4.00466233e-01 5.79482466e-02 0.00000000e+00 
4.10847515e-01 5.75418957e-02 0.00000000e+00 

        </DataArray>
      </Points>
      <Cells>
        <DataArray type="Int32" Name="connectivity" format="ascii">
0 1
1 2
2 3

        </DataArray>
        <DataArray type="Int32" Name="offsets" format="ascii">
2 4 6 
        </DataArray>
        <DataArray type="UInt8" Name="types" format="ascii">
3 3 3 
        </DataArray>
      </Cells>
      <PointData>
        <DataArray type="Float64" Name="rho">
          9.25593604e-01 9.24763790e-01 9.24034817e-01 9.23412052e-01 
        </DataArray>
        <DataArray type="Float64" Name="rhou">
          1.22742148e-03 1.14493582e-03 1.03839240e-03 9.31107358e-04 
        </DataArray>
        <DataArray type="Float64" Name="rhov">
          -6.71663504e-05 -1.04735982e-04 -1.31974489e-04 -1.17459823e-04 
        </DataArray>
        <DataArray type="Float64" Name="E">
          2.11049182e+05 2.10801892e+05 2.10574054e+05 2.10366380e+05 
        </DataArray>
      </PointData>
    </Piece>
    <Piece NumberOfPoints="4" NumberOfCells="3">
      <Points>
        <DataArray type="Float64" NumberOfComponents="3" format="ascii">
          4.10847515e-01 5.75418957e-02 0.00000000e+00 
4.21227485e-01 5.71038015e-02 0.00000000e+00 
4.31606144e-01 5.66351078e-02 0.00000000e+00 
4.41983402e-01 5.61364293e-02 0.00000000e+00 

        </DataArray>
      </Points>
      <Cells>
        <DataArray type="Int32" Name="connectivity" format="ascii">
0 1
1 2
2 3

        </DataArray>
        <DataArray type="Int32" Name="offsets" format="ascii">
2 4 6 
        </DataArray>
        <DataArray type="UInt8" Name="types" format="ascii">
3 3 3 
        </DataArray>
      </Cells>
      <PointData>
        <DataArray type="Float64" Name="rho">
          9.23411760e-01 9.22886655e-01 9.22454430e-01 9.22111659e-01 
        </DataArray>
        <DataArray type="Float64" Name="rhou">
          9.57553576e-04 8.86907655e-04 8.35087568e-04 7.80400040e-04 
        </DataArray>
        <DataArray type="Float64" Name="rhov">
          -1.13632559e-04 -1.02851684e-04 -1.09466346e-04 -1.37590164e-04 
        </DataArray>
        <DataArray type="Float64" Name="E">
          2.10366312e+05 2.10176421e+05 2.10002939e+05 2.09844922e+05 
        </DataArray>
      </PointData>
    </Piece>
    <Piece NumberOfPoints="4" NumberOfCells="3">
      <Points>
        <DataArray type="Float64" NumberOfComponents="3" format="ascii">
          4.41983402e-01 5.61364293e-02 0.00000000e+00 
4.52359200e-01 5.56085743e-02 0.00000000e+00 
4.62733537e-01 5.50529286e-02 0.00000000e+00 
4.73106444e-01 5.44707514e-02 0.00000000e+00 

        </DataArray>
      </Points>
      <Cells>
        <DataArray type="Int32" Name="connectivity" format="ascii">
0 1
1 2
2 3

        </DataArray>
        <DataArray type="Int32" Name="offsets" format="ascii">
2 4 6 
        </DataArray>
        <DataArray type="UInt8" Name="types" format="ascii">
3 3 3 
        </DataArray>
      </Cells>
      <PointData>
        <DataArray type="Float64" Name="rho">
          9.22111910e-01 9.21862673e-01 9.21706671e-01 9.21638171e-01 
        </DataArray>
        <DataArray type="Float64" Name="rhou">
          7.76240595e-04 6.86937858e-04 6.24662763e-04 5.87768152e-04 
        </DataArray>
        <DataArray type="Float64" Name="rhov">
          -1.37879772e-04 -1.41986103e-04 -1.31197684e-04 -1.22137529e-04 
        </DataArray>
        <DataArray type="Float64" Name="E">
          2.09844980e+05 2.09703310e+05 2.09577986e+05 2.09467872e+05 
        </DataArray>
      </PointData>
    </Piece>
    <Piece NumberOfPoints="4" NumberOfCells="3">
      <Points>
        <DataArray type="Float64" NumberOfComponents="3" format="ascii">
          4.73106444e-01 5.44707514e-02 0.00000000e+00 
4.83477861e-01 5.38627952e-02 0.00000000e+00 
4.93847787e-01 5.32294959e-02 0.00000000e+00 
5.04216135e-01 5.25716618e-02 0.00000000e+00 

        </DataArray>
      </Points>
      <Cells>
        <DataArray type="Int32" Name="connectivity" format="ascii">
0 1
1 2
2 3

        </DataArray>
        <DataArray type="Int32" Name="offsets" format="ascii">
2 4 6 
        </DataArray>
        <DataArray type="UInt8" Name="types" format="ascii">
3 3 3 
        </DataArray>
      </Cells>
      <PointData>
        <DataArray type="Float64" Name="rho">
          9.21638144e-01 9.21653331e-01 9.21749949e-01 9.21931912e-01 
        </DataArray>
        <DataArray type="Float64" Name="rhou">
          5.74813283e-04 5.40462237e-04 4.78282673e-04 4.00258211e-04 
        </DataArray>
        <DataArray type="Float64" Name="rhov">
          -1.19894060e-04 -1.31211094e-04 -1.49606758e-04 -1.46293520e-04 
        </DataArray>
        <DataArray type="Float64" Name="E">
          2.09467867e+05 2.09372368e+05 2.09291363e+05 2.09226195e+05 
        </DataArray>
      </PointData>
    </Piece>
    <Piece NumberOfPoints="4" NumberOfCells="3">
      <Points>
        <DataArray type="Float64" NumberOfComponents="3" format="ascii">
          5.04216135e-01 5.25716618e-02 0.00000000e+00 
5.14582992e-01 5.18903993e-02 0.00000000e+00 
5.24948359e-01 5.11864908e-02 0.00000000e+00 
5.35312176e-01 5.04603274e-02 0.00000000e+00 

        </DataArray>
      </Points>
      <Cells>
        <DataArray type="Int32" Name="connectivity" format="ascii">
0 1
1 2
2 3

        </DataArray>
        <DataArray type="Int32" Name="offsets" format="ascii">
2 4 6 
        </DataArray>
        <DataArray type="UInt8" Name="types" format="ascii">
3 3 3 
        </DataArray>
      </Cells>
      <PointData>
        <DataArray type="Float64" Name="rho">
          9.21931766e-01 9.22194974e-01 9.22535603e-01 9.22950839e-01 
        </DataArray>
        <DataArray type="Float64" Name="rhou">
          4.16204444e-04 3.68694123e-04 3.33050944e-04 2.94024387e-04 
        </DataArray>
        <DataArray type="Float64" Name="rhov">
          -1.43604464e-04 -1.32951502e-04 -1.33568574e-04 -1.49055692e-04 
        </DataArray>
        <DataArray type="Float64" Name="E">
          2.09226162e+05 2.09176410e+05 2.09141780e+05 2.09122245e+05 
        </DataArray>
      </PointData>
    </Piece>
    <Piece NumberOfPoints="4" NumberOfCells="3">
      <Points>
        <DataArray type="Float64" NumberOfComponents="3" format="ascii">
          5.35312176e-01 5.04603274e-02 0.00000000e+00 
5.45674443e-01 4.97124642e-02 0.00000000e+00 
5.56035221e-01 4.89437394e-02 0.00000000e+00 
5.66394389e-01 4.81546782e-02 0.00000000e+00 

        </DataArray>
      </Points>
      <Cells>
        <DataArray type="Int32" Name="connectivity" format="ascii">
0 1
1 2
2 3

        </DataArray>
        <DataArray type="Int32" Name="offsets" format="ascii">
2 4 6 
        </DataArray>
        <DataArray type="UInt8" Name="types" format="ascii">
3 3 3 
        </DataArray>
      </Cells>
      <PointData>
        <DataArray type="Float64" Name="rho">
          9.22950942e-01 9.23443532e-01 9.24011024e-01 9.24650069e-01 
        </DataArray>
        <DataArray type="Float64" Name="rhou">
          2.84907961e-04 2.32403897e-04 1.97151522e-04 1.74724574e-04 
        </DataArray>
        <DataArray type="Float64" Name="rhov">
          -1.49609442e-04 -1.41278908e-04 -1.32447094e-04 -1.32353361e-04 
        </DataArray>
        <DataArray type="Float64" Name="E">
          2.09122270e+05 2.09119097e+05 2.09132386e+05 2.09162039e+05 
        </DataArray>
      </PointData>
    </Piece>
    <Piece NumberOfPoints="4" NumberOfCells="3">
      <Points>
        <DataArray type="Float64" NumberOfComponents="3" format="ascii">
          5.66394389e-01 4.81546782e-02 0.00000000e+00 
5.76752067e-01 4.73455116e-02 0.00000000e+00 
5.87108195e-01 4.65166979e-02 0.00000000e+00 
5.97462773e-01 4.56690118e-02 0.00000000e+00 

        </DataArray>
      </Points>
      <Cells>
        <DataArray type="Int32" Name="connectivity" format="ascii">
0 1
1 2
2 3

        </DataArray>
        <DataArray type="Int32" Name="offsets" format="ascii">
2 4 6 
        </DataArray>
        <DataArray type="UInt8" Name="types" format="ascii">
3 3 3 
        </DataArray>
      </Cells>
      <PointData>
        <DataArray type="Float64" Name="rho">
          9.24650150e-01 9.25359940e-01 9.26142620e-01 9.26998199e-01 
        </DataArray>
        <DataArray type="Float64" Name="rhou">
          1.73460012e-04 1.30939580e-04 8.73023400e-05 5.43947222e-05 
        </DataArray>
        <DataArray type="Float64" Name="rhov">
          -1.32389934e-04 -1.42933070e-04 -1.41169209e-04 -1.28213912e-04 
        </DataArray>
        <DataArray type="Float64" Name="E">
          2.09162058e+05 2.09208559e+05 2.09273052e+05 2.09356177e+05 
        </DataArray>
      </PointData>
    </Piece>
    <Piece NumberOfPoints="4" NumberOfCells="3">
      <Points>
        <DataArray type="Float64" NumberOfComponents="3" format="ascii">
          5.97462773e-01 4.56690118e-02 0.00000000e+00 
6.07815862e-01 4.48031016e-02 0.00000000e+00 
6.18167400e-01 4.39192392e-02 0.00000000e+00 
6.28517449e-01 4.30175588e-02 0.00000000e+00 

        </DataArray>
      </Points>
      <Cells>
        <DataArray type="Int32" Name="connectivity" format="ascii">
0 1
1 2
2 3

        </DataArray>
        <DataArray type="Int32" Name="offsets" format="ascii">
2 4 6 
        </DataArray>
        <DataArray type="UInt8" Name="types" format="ascii">
3 3 3 
        </DataArray>
      </Cells>
      <PointData>
        <DataArray type="Float64" Name="rho">
          9.26998056e-01 9.27924310e-01 9.28918709e-01 9.29983300e-01 
        </DataArray>
        <DataArray type="Float64" Name="rhou">
          4.91146550e-05 3.68981778e-05 1.52472875e-05 -2.21650458e-05 
        </DataArray>
        <DataArray type="Float64" Name="rhov">
          -1.26844803e-04 -1.16859013e-04 -1.21200017e-04 -1.25649943e-04 
        </DataArray>
        <DataArray type="Float64" Name="E">
          2.09356144e+05 2.09458012e+05 2.09578647e+05 2.09719083e+05 
        </DataArray>
      </PointData>
    </Piece>
    <Piece NumberOfPoints="4" NumberOfCells="3">
      <Points>
        <DataArray type="Float64" NumberOfComponents="3" format="ascii">
          6.28517449e-01 4.30175588e-02 0.00000000e+00 
6.38865948e-01 4.20984775e-02 0.00000000e+00 
6.49212897e-01 4.11624312e-02 0.00000000e+00 
6.59558356e-01 4.02097441e-02 0.00000000e+00 

        </DataArray>
      </Points>
      <Cells>
        <DataArray type="Int32" Name="connectivity" format="ascii">
0 1
1 2
2 3

        </DataArray>
        <DataArray type="Int32" Name="offsets" format="ascii">
2 4 6 
        </DataArray>
        <DataArray type="UInt8" Name="types" format="ascii">
3 3 3 
        </DataArray>
      </Cells>
      <PointData>
        <DataArray type="Float64" Name="rho">
          9.29983298e-01 9.31119587e-01 9.32326823e-01 9.33605368e-01 
        </DataArray>
        <DataArray type="Float64" Name="rhou">
          -2.04660221e-05 -4.31127982e-05 -6.10721322e-05 -8.32244679e-05 
        </DataArray>
        <DataArray type="Float64" Name="rhov">
          -1.23844666e-04 -1.14876225e-04 -1.09559757e-04 -1.05445606e-04 
        </DataArray>
        <DataArray type="Float64" Name="E">
          2.09719082e+05 2.09880199e+05 2.10062336e+05 2.10266051e+05 
        </DataArray>
      </PointData>
    </Piece>
    <Piece NumberOfPoints="4" NumberOfCells="3">
      <Points>
        <DataArray type="Float64" NumberOfComponents="3" format="ascii">
          6.59558356e-01 4.02097441e-02 0.00000000e+00 
6.69902325e-01 3.92407738e-02 0.00000000e+00 
6.80244744e-01 3.82556282e-02 0.00000000e+00 
6.90585554e-01 3.72543521e-02 0.00000000e+00 

        </DataArray>
      </Points>
      <Cells>
        <DataArray type="Int32" Name="connectivity" format="ascii">
0 1
1 2
2 3

        </DataArray>
        <DataArray type="Int32" Name="offsets" format="ascii">
2 4 6 
        </DataArray>
        <DataArray type="UInt8" Name="types" format="ascii">
3 3 3 
        </DataArray>
      </Cells>
      <PointData>
        <DataArray type="Float64" Name="rho">
          9.33605329e-01 9.34956545e-01 9.36378193e-01 9.37873471e-01 
        </DataArray>
        <DataArray type="Float64" Name="rhou">
          -9.28516669e-05 -9.14469279e-05 -1.01524481e-04 -1.31379941e-04 
        </DataArray>
        <DataArray type="Float64" Name="rhov">
          -1.03070090e-04 -9.20515151e-05 -9.55593227e-05 -9.68329918e-05 
        </DataArray>
        <DataArray type="Float64" Name="E">
          2.10266042e+05 2.10492083e+05 2.10740357e+05 2.11011960e+05 
        </DataArray>
      </PointData>
    </Piece>
    <Piece NumberOfPoints="4" NumberOfCells="3">
      <Points>
        <DataArray type="Float64" NumberOfComponents="3" format="ascii">
          6.90585554e-01 3.72543521e-02 0.00000000e+00 
7.00924933e-01 3.62373814e-02 0.00000000e+00 
7.11262703e-01 3.52048986e-02 0.00000000e+00 
7.21598923e-01 3.41568366e-02 0.00000000e+00 

        </DataArray>
      </Points>
      <Cells>
        <DataArray type="Int32" Name="connectivity" format="ascii">
0 1
1 2
2 3

        </DataArray>
        <DataArray type="Int32" Name="offsets" format="ascii">
2 4 6 
        </DataArray>
        <DataArray type="UInt8" Name="types" format="ascii">
3 3 3 
        </DataArray>
      </Cells>
      <PointData>
        <DataArray type="Float64" Name="rho">
          9.37873351e-01 9.39444615e-01 9.41088519e-01 9.42807517e-01 
        </DataArray>
        <DataArray type="Float64" Name="rhou">
          -1.36949223e-04 -1.31934002e-04 -1.28368848e-04 -1.53079116e-04 
        </DataArray>
        <DataArray type="Float64" Name="rhov">
          -9.40539888e-05 -7.46501914e-05 -7.55573035e-05 -8.12847492e-05 
        </DataArray>
        <DataArray type="Float64" Name="E">
          2.11011932e+05 2.11307732e+05 2.11627277e+05 2.11971384e+05 
        </DataArray>
      </PointData>
    </Piece>
    <Piece NumberOfPoints="4" NumberOfCells="3">
      <Points>
        <DataArray type="Float64" NumberOfComponents="3" format="ascii">
          7.21598923e-01 3.41568366e-02 0.00000000e+00 
7.31933594e-01 3.30936089e-02 0.00000000e+00 
7.42266715e-01 3.20154354e-02 0.00000000e+00 
7.52598286e-01 3.09220124e-02 0.00000000e+00 

        </DataArray>
      </Points>
      <Cells>
        <DataArray type="Int32" Name="connectivity" format="ascii">
0 1
1 2
2 3

        </DataArray>
        <DataArray type="Int32" Name="offsets" format="ascii">
2 4 6 
        </DataArray>
        <DataArray type="UInt8" Name="types" format="ascii">
3 3 3 
        </DataArray>
      </Cells>
      <PointData>
        <DataArray type="Float64" Name="rho">
          9.42807458e-01 9.44605565e-01 9.46478007e-01 9.48426445e-01 
        </DataArray>
        <DataArray type="Float64" Name="rhou">
          -1.63373757e-04 -1.51632484e-04 -1.37200423e-04 -1.52419126e-04 
        </DataArray>
        <DataArray type="Float64" Name="rhov">
          -7.84868644e-05 -5.12895995e-05 -4.89031671e-05 -5.62275328e-05 
        </DataArray>
        <DataArray type="Float64" Name="E">
          2.11971371e+05 2.12341163e+05 2.12735743e+05 2.13155618e+05 
        </DataArray>
      </PointData>
    </Piece>
    <Piece NumberOfPoints="4" NumberOfCells="3">
      <Points>
        <DataArray type="Float64" NumberOfComponents="3" format="ascii">
          7.52598286e-01 3.09220124e-02 0.00000000e+00 
7.62928188e-01 2.98135038e-02 0.00000000e+00 
7.73256481e-01 2.86899786e-02 0.00000000e+00 
7.83583105e-01 2.75512449e-02 0.00000000e+00 

        </DataArray>
      </Points>
      <Cells>
        <DataArray type="Int32" Name="connectivity" format="ascii">
0 1
1 2
2 3

        </DataArray>
        <DataArray type="Int32" Name="offsets" format="ascii">
2 4 6 
        </DataArray>
        <DataArray type="UInt8" Name="types" format="ascii">
3 3 3 
        </DataArray>
      </Cells>
      <PointData>
        <DataArray type="Float64" Name="rho">
          9.48426437e-01 9.50454931e-01 9.52559747e-01 9.54742661e-01 
        </DataArray>
        <DataArray type="Float64" Name="rhou">
          -1.62834582e-04 -1.48578288e-04 -1.36506729e-04 -1.49541367e-04 
        </DataArray>
        <DataArray type="Float64" Name="rhov">
          -5.31244037e-05 -3.15111432e-05 -2.72735047e-05 -2.47184168e-05 
        </DataArray>
        <DataArray type="Float64" Name="E">
          2.13155616e+05 2.13601780e+05 2.14073422e+05 2.14570914e+05 
        </DataArray>
      </PointData>
    </Piece>
    <Piece NumberOfPoints="4" NumberOfCells="3">
      <Points>
        <DataArray type="Float64" NumberOfComponents="3" format="ascii">
          7.83583105e-01 2.75512449e-02 0.00000000e+00 
7.93908060e-01 2.63975188e-02 0.00000000e+00 
8.04231405e-01 2.52291560e-02 0.00000000e+00 
8.14553022e-01 2.40457114e-02 0.00000000e+00 

        </DataArray>
      </Points>
      <Cells>
        <DataArray type="Int32" Name="connectivity" format="ascii">
0 1
1 2
2 3

        </DataArray>
        <DataArray type="Int32" Name="offsets" format="ascii">
2 4 6 
        </DataArray>
        <DataArray type="UInt8" Name="types" format="ascii">
3 3 3 
        </DataArray>
      </Cells>
      <PointData>
        <DataArray type="Float64" Name="rho">
          9.54742707e-01 9.57005657e-01 9.59346553e-01 9.61760772e-01 
        </DataArray>
        <DataArray type="Float64" Name="rhou">
          -1.40150960e-04 -1.53443418e-04 -1.29489338e-04 -1.03054592e-04 
        </DataArray>
        <DataArray type="Float64" Name="rhov">
          -2.59935038e-05 6.32866640e-06 2.97186808e-05 2.34081851e-05 
        </DataArray>
        <DataArray type="Float64" Name="E">
          2.14570924e+05 2.15094615e+05 2.15643884e+05 2.16217489e+05 
        </DataArray>
      </PointData>
    </Piece>
    <Piece NumberOfPoints="4" NumberOfCells="3">
      <Points>
        <DataArray type="Float64" NumberOfComponents="3" format="ascii">
          8.14553022e-01 2.40457114e-02 0.00000000e+00 
8.24872792e-01 2.28467938e-02 0.00000000e+00 
8.35190892e-01 2.16327831e-02 0.00000000e+00 
8.45507145e-01 2.04038676e-02 0.00000000e+00 

        </DataArray>
      </Points>
      <Cells>
        <DataArray type="Int32" Name="connectivity" format="ascii">
0 1
1 2
2 3

        </DataArray>
        <DataArray type="Int32" Name="offsets" format="ascii">
2 4 6 
        </DataArray>
        <DataArray type="UInt8" Name="types" format="ascii">
3 3 3 
        </DataArray>
      </Cells>
      <PointData>
        <DataArray type="Float64" Name="rho">
          9.61760976e-01 9.64253221e-01 9.66822176e-01 9.69465253e-01 
        </DataArray>
        <DataArray type="Float64" Name="rhou">
          -1.28434917e-04 -1.37704246e-04 -1.44372125e-04 -1.19269819e-04 
        </DataArray>
        <DataArray type="Float64" Name="rhov">
          2.30244182e-05 4.57523731e-05 8.42002317e-05 1.35346301e-04 
        </DataArray>
        <DataArray type="Float64" Name="E">
          2.16217534e+05 2.16816261e+05 2.17439474e+05 2.18086200e+05 
        </DataArray>
      </PointData>
    </Piece>
    <Piece NumberOfPoints="4" NumberOfCells="3">
      <Points>
        <DataArray type="Float64" NumberOfComponents="3" format="ascii">
          8.45507145e-01 2.04038676e-02 0.00000000e+00 
8.55821550e-01 1.91591792e-02 0.00000000e+00 
8.66134048e-01 1.78987328e-02 0.00000000e+00 
8.76444638e-01 1.66228991e-02 0.00000000e+00 

        </DataArray>
      </Points>
      <Cells>
        <DataArray type="Int32" Name="connectivity" format="ascii">
0 1
1 2
2 3

        </DataArray>
        <DataArray type="Int32" Name="offsets" format="ascii">
2 4 6 
        </DataArray>
        <DataArray type="UInt8" Name="types" format="ascii">
3 3 3 
        </DataArray>
      </Cells>
      <PointData>
        <DataArray type="Float64" Name="rho">
          9.69465787e-01 9.72172566e-01 9.74957008e-01 9.77799190e-01 
        </DataArray>
        <DataArray type="Float64" Name="rhou">
          -2.27657985e-05 -1.43487585e-04 -1.36327628e-04 -4.92367839e-05 
        </DataArray>
        <DataArray type="Float64" Name="rhov">
          1.21358348e-04 1.14459363e-04 1.69180489e-04 1.46866859e-04 
        </DataArray>
        <DataArray type="Float64" Name="E">
          2.18086319e+05 2.18753763e+05 2.19444545e+05 2.20153629e+05 
        </DataArray>
      </PointData>
    </Piece>
    <Piece NumberOfPoints="4" NumberOfCells="3">
      <Points>
        <DataArray type="Float64" NumberOfComponents="3" format="ascii">
          8.76444638e-01 1.66228991e-02 0.00000000e+00 
8.86753201e-01 1.53310820e-02 0.00000000e+00 
8.97059798e-01 1.40233757e-02 0.00000000e+00 
9.07364249e-01 1.26988320e-02 0.00000000e+00 

        </DataArray>
      </Points>
      <Cells>
        <DataArray type="Int32" Name="connectivity" format="ascii">
0 1
1 2
2 3

        </DataArray>
        <DataArray type="Int32" Name="offsets" format="ascii">
2 4 6 
        </DataArray>
        <DataArray type="UInt8" Name="types" format="ascii">
3 3 3 
        </DataArray>
      </Cells>
      <PointData>
        <DataArray type="Float64" Name="rho">
          9.77797629e-01 9.80717549e-01 9.83681507e-01 9.86745167e-01 
        </DataArray>
        <DataArray type="Float64" Name="rhou">
          -3.85224131e-04 -5.66663652e-05 -2.30451974e-04 -3.70327005e-04 
        </DataArray>
        <DataArray type="Float64" Name="rhov">
          1.66680231e-04 2.30744135e-04 2.20415658e-04 6.52024322e-04 
        </DataArray>
        <DataArray type="Float64" Name="E">
          2.20153277e+05 2.20884569e+05 2.21629891e+05 2.22401208e+05 
        </DataArray>
      </PointData>
    </Piece>
    <Piece NumberOfPoints="4" NumberOfCells="3">
      <Points>
        <DataArray type="Float64" NumberOfComponents="3" format="ascii">
          9.07364249e-01 1.26988320e-02 0.00000000e+00 
9.17666554e-01 1.13577880e-02 0.00000000e+00 
9.27966774e-01 1.00004105e-02 0.00000000e+00 
9.38264549e-01 8.62528384e-03 0.00000000e+00 

        </DataArray>
      </Points>
      <Cells>
        <DataArray type="Int32" Name="connectivity" format="ascii">
0 1
1 2
2 3

        </DataArray>
        <DataArray type="Int32" Name="offsets" format="ascii">
2 4 6 
        </DataArray>
        <DataArray type="UInt8" Name="types" format="ascii">
3 3 3 
        </DataArray>
      </Cells>
      <PointData>
        <DataArray type="Float64" Name="rho">
          9.86762308e-01 9.89776169e-01 9.92971707e-01 9.95753320e-01 
        </DataArray>
        <DataArray type="Float64" Name="rhou">
          2.41127522e-03 -1.09491566e-03 9.42594863e-04 2.04085190e-03 
        </DataArray>
        <DataArray type="Float64" Name="rhov">
          4.49681893e-04 3.18368938e-04 7.60060292e-04 -4.07250290e-03 
        </DataArray>
        <DataArray type="Float64" Name="E">
          2.22405060e+05 2.23168194e+05 2.23974997e+05 2.24691357e+05 
        </DataArray>
      </PointData>
    </Piece>
    <Piece NumberOfPoints="4" NumberOfCells="3">
      <Points>
        <DataArray type="Float64" NumberOfComponents="3" format="ascii">
          9.38264549e-01 8.62528384e-03 0.00000000e+00 
9.48560059e-01 7.23283459e-03 0.00000000e+00 
9.58853185e-01 5.82307298e-03 0.00000000e+00 
9.69143867e-01 4.39538015e-03 0.00000000e+00 

        </DataArray>
      </Points>
      <Cells>
        <DataArray type="Int32" Name="connectivity" format="ascii">
0 1
1 2
2 3

        </DataArray>
        <DataArray type="Int32" Name="offsets" format="ascii">
2 4 6 
        </DataArray>
        <DataArray type="UInt8" Name="types" format="ascii">
3 3 3 
        </DataArray>
      </Cells>
      <PointData>
        <DataArray type="Float64" Name="rho">
          9.95589622e-01 9.99498969e-01 1.00206233e+00 1.00941646e+00 
        </DataArray>
        <DataArray type="Float64" Name="rhou">
          -2.34443204e-02 7.65700784e-03 -1.06160138e-02 -5.72730865e-02 
        </DataArray>
        <DataArray type="Float64" Name="rhov">
          -3.17790169e-03 1.47030023e-03 -4.02182073e-03 6.15131860e-02 
        </DataArray>
        <DataArray type="Float64" Name="E">
          2.24654400e+05 2.25628710e+05 2.26306197e+05 2.28077144e+05 
        </DataArray>
      </PointData>
    </Piece>
    <Piece NumberOfPoints="4" NumberOfCells="3">
      <Points>
        <DataArray type="Float64" NumberOfComponents="3" format="ascii">
          9.69143867e-01 4.39538015e-03 0.00000000e+00 
9.79435980e-01 2.94816052e-03 0.00000000e+00 
9.89725590e-01 1.48259092e-03 0.00000000e+00 
1.00000000e+00 0.00000000e+00 0.00000000e+00 

        </DataArray>
      </Points>
      <Cells>
        <DataArray type="Int32" Name="connectivity" format="ascii">
0 1
1 2
2 3

        </DataArray>
        <DataArray type="Int32" Name="offsets" format="ascii">
2 4 6 
        </DataArray>
        <DataArray type="UInt8" Name="types" format="ascii">
3 3 3 
        </DataArray>
      </Cells>
      <PointData>
        <DataArray type="Float64" Name="rho">
          1.01043613e+00 1.00765239e+00 1.01891928e+00 9.85078702e-01 
        </DataArray>
        <DataArray type="Float64" Name="rhou">
          2.85804426e-03 -3.16763991e-02 -1.11146637e-01 1.66804961e+00 
        </DataArray>
        <DataArray type="Float64" Name="rhov">
          6.61817399e-02 -1.10991150e-03 1.60168758e-01 -4.49341169e-01 
        </DataArray>
        <DataArray type="Float64" Name="E">
          2.28303243e+05 2.27815096e+05 2.30545307e+05 2.23268410e+05 
        </DataArray>
      </PointData>
    </Piece>
    <Piece NumberOfPoints="4" NumberOfCells="3">
      <Points>
        <DataArray type="Float64" NumberOfComponents="3" format="ascii">
          9.69029665e-01 -4.41133138e-03 0.00000000e+00 
9.79355037e-01 -2.95961346e-03 0.00000000e+00 
9.89677846e-01 -1.48943183e-03 0.00000000e+00 
1.00000000e+00 0.00000000e+00 0.00000000e+00 

        </DataArray>
      </Points>
      <Cells>
        <DataArray type="Int32" Name="connectivity" format="ascii">
0 1
1 2
2 3

        </DataArray>
        <DataArray type="Int32" Name="offsets" format="ascii">
2 4 6 
        </DataArray>
        <DataArray type="UInt8" Name="types" format="ascii">
3 3 3 
        </DataArray>
      </Cells>
      <PointData>
        <DataArray type="Float64" Name="rho">
          1.00998427e+00 1.00633789e+00 1.01797725e+00 9.87358062e-01 
        </DataArray>
        <DataArray type="Float64" Name="rhou">
          5.08595859e-03 -2.86941639e-02 -1.19787547e-01 1.63939687e+00 
        </DataArray>
        <DataArray type="Float64" Name="rhov">
          -8.93858664e-02 1.25590210e-02 -1.71496754e-01 5.17947272e-01 
        </DataArray>
        <DataArray type="Float64" Name="E">
          2.29238347e+05 2.28426078e+05 2.31047183e+05 2.23953166e+05 
        </DataArray>
      </PointData>
    </Piece>
    <Piece NumberOfPoints="4" NumberOfCells="3">
      <Points>
        <DataArray type="Float64" NumberOfComponents="3" format="ascii">
          9.38035965e-01 -8.65600072e-03 0.00000000e+00 
9.48369622e-01 -7.25875143e-03 0.00000000e+00 
9.58700895e-01 -5.84406452e-03 0.00000000e+00 
9.69029665e-01 -4.41133138e-03 0.00000000e+00 

        </DataArray>
      </Points>
      <Cells>
        <DataArray type="Int32" Name="connectivity" format="ascii">
0 1
1 2
2 3

        </DataArray>
        <DataArray type="Int32" Name="offsets" format="ascii">
2 4 6 
        </DataArray>
        <DataArray type="UInt8" Name="types" format="ascii">
3 3 3 
        </DataArray>
      </Cells>
      <PointData>
        <DataArray type="Float64" Name="rho">
          9.97224829e-01 1.00033012e+00 1.00204745e+00 1.00888321e+00 
        </DataArray>
        <DataArray type="Float64" Name="rhou">
          -2.48899983e-02 8.13696458e-03 -1.04842181e-02 -5.90702692e-02 
        </DataArray>
        <DataArray type="Float64" Name="rhov">
          3.44741131e-03 -2.00477362e-03 4.59882169e-03 -6.38610086e-02 
        </DataArray>
        <DataArray type="Float64" Name="E">
          2.26175696e+05 2.26944644e+05 2.27391325e+05 2.28985036e+05 
        </DataArray>
      </PointData>
    </Piece>
    <Piece NumberOfPoints="4" NumberOfCells="3">
      <Points>
        <DataArray type="Float64" NumberOfComponents="3" format="ascii">
          9.07021165e-01 -1.27432076e-02 0.00000000e+00 
9.17361677e-01 -1.13977119e-02 0.00000000e+00 
9.27700043e-01 -1.00357840e-02 0.00000000e+00 
9.38035965e-01 -8.65600072e-03 0.00000000e+00 

        </DataArray>
      </Points>
      <Cells>
        <DataArray type="Int32" Name="connectivity" format="ascii">
0 1
1 2
2 3

        </DataArray>
        <DataArray type="Int32" Name="offsets" format="ascii">
2 4 6 
        </DataArray>
        <DataArray type="UInt8" Name="types" format="ascii">
3 3 3 
        </DataArray>
      </Cells>
      <PointData>
        <DataArray type="Float64" Name="rho">
          9.91166900e-01 9.93247487e-01 9.95535995e-01 9.97401611e-01 
        </DataArray>
        <DataArray type="Float64" Name="rhou">
          2.57341078e-03 -1.22310074e-03 9.89849376e-04 2.14436855e-03 
        </DataArray>
        <DataArray type="Float64" Name="rhov">
          -6.31127284e-04 -5.06230019e-04 -1.03669680e-03 4.11607964e-03 
        </DataArray>
        <DataArray type="Float64" Name="E">
          2.24596515e+05 2.25136107e+05 2.25724168e+05 2.26215742e+05 
        </DataArray>
      </PointData>
    </Piece>
    <Piece NumberOfPoints="4" NumberOfCells="3">
      <Points>
        <DataArray type="Float64" NumberOfComponents="3" format="ascii">
          8.75986874e-01 -1.66798849e-02 0.00000000e+00 
8.86333704e-01 -1.53839625e-02 0.00000000e+00 
8.96678507e-01 -1.40720531e-02 0.00000000e+00 
9.07021165e-01 -1.27432076e-02 0.00000000e+00 

        </DataArray>
      </Points>
      <Cells>
        <DataArray type="Int32" Name="connectivity" format="ascii">
0 1
1 2
2 3

        </DataArray>
        <DataArray type="Int32" Name="offsets" format="ascii">
2 4 6 
        </DataArray>
        <DataArray type="UInt8" Name="types" format="ascii">
3 3 3 
        </DataArray>
      </Cells>
      <PointData>
        <DataArray type="Float64" Name="rho">
          9.85040664e-01 9.87006851e-01 9.89022623e-01 9.91148239e-01 
        </DataArray>
        <DataArray type="Float64" Name="rhou">
          -4.72794685e-04 -1.22821859e-04 -2.94574766e-04 -4.20865956e-04 
        </DataArray>
        <DataArray type="Float64" Name="rhov">
          -2.78134686e-04 -3.61265305e-04 -3.63165728e-04 -8.34894534e-04 
        </DataArray>
        <DataArray type="Float64" Name="E">
          2.23025392e+05 2.23527368e+05 2.24045403e+05 2.24592285e+05 
        </DataArray>
      </PointData>
    </Piece>
    <Piece NumberOfPoints="4" NumberOfCells="3">
      <Points>
        <DataArray type="Float64" NumberOfComponents="3" format="ascii">
          8.44934702e-01 -2.04724707e-02 0.00000000e+00 
8.55287313e-01 -1.92240477e-02 0.00000000e+00 
8.65638077e-01 -1.79597028e-02 0.00000000e+00 
8.75986874e-01 -1.66798849e-02 0.00000000e+00 

        </DataArray>
      </Points>
      <Cells>
        <DataArray type="Int32" Name="connectivity" format="ascii">
0 1
1 2
2 3

        </DataArray>
        <DataArray type="Int32" Name="offsets" format="ascii">
2 4 6 
        </DataArray>
        <DataArray type="UInt8" Name="types" format="ascii">
3 3 3 
        </DataArray>
      </Cells>
      <PointData>
        <DataArray type="Float64" Name="rho">
          9.79597932e-01 9.81337480e-01 9.83159514e-01 9.85042421e-01 
        </DataArray>
        <DataArray type="Float64" Name="rhou">
          -7.99031238e-05 -2.24366041e-04 -2.18441631e-04 -1.06025165e-04 
        </DataArray>
        <DataArray type="Float64" Name="rhov">
          -1.96752539e-04 -1.87540524e-04 -2.63283960e-04 -2.54106433e-04 
        </DataArray>
        <DataArray type="Float64" Name="E">
          2.21658201e+05 2.22090531e+05 2.22548198e+05 2.23025787e+05 
        </DataArray>
      </PointData>
    </Piece>
    <Piece NumberOfPoints="4" NumberOfCells="3">
      <Points>
        <DataArray type="Float64" NumberOfComponents="3" format="ascii">
          8.13865662e-01 -2.41250079e-02 0.00000000e+00 
8.24223816e-01 -2.29226518e-02 0.00000000e+00 
8.34580123e-01 -2.17050612e-02 0.00000000e+00 
8.44934702e-01 -2.04724707e-02 0.00000000e+00 

        </DataArray>
      </Points>
      <Cells>
        <DataArray type="Int32" Name="connectivity" format="ascii">
0 1
1 2
2 3

        </DataArray>
        <DataArray type="Int32" Name="offsets" format="ascii">
2 4 6 
        </DataArray>
        <DataArray type="UInt8" Name="types" format="ascii">
3 3 3 
        </DataArray>
      </Cells>
      <PointData>
        <DataArray type="Float64" Name="rho">
          9.74795042e-01 9.76319423e-01 9.77920650e-01 9.79597293e-01 
        </DataArray>
        <DataArray type="Float64" Name="rhou">
          -1.98108057e-04 -2.17024313e-04 -2.28676589e-04 -1.99200300e-04 
        </DataArray>
        <DataArray type="Float64" Name="rhov">
          -4.77409680e-05 -7.82371774e-05 -1.34101053e-04 -2.09302843e-04 
        </DataArray>
        <DataArray type="Float64" Name="E">
          2.20499570e+05 2.20860720e+05 2.21247098e+05 2.21658057e+05 
        </DataArray>
      </PointData>
    </Piece>
    <Piece NumberOfPoints="4" NumberOfCells="3">
      <Points>
        <DataArray type="Float64" NumberOfComponents="3" format="ascii">
          7.82780826e-01 -2.76402626e-02 0.00000000e+00 
7.93144107e-01 -2.64833923e-02 0.00000000e+00 
8.03505778e-01 -2.53117718e-02 0.00000000e+00 
8.13865662e-01 -2.41250079e-02 0.00000000e+00 

        </DataArray>
      </Points>
      <Cells>
        <DataArray type="Int32" Name="connectivity" format="ascii">
0 1
1 2
2 3

        </DataArray>
        <DataArray type="Int32" Name="offsets" format="ascii">
2 4 6 
        </DataArray>
        <DataArray type="UInt8" Name="types" format="ascii">
3 3 3 
        </DataArray>
      </Cells>
      <PointData>
        <DataArray type="Float64" Name="rho">
          9.70663944e-01 9.71968083e-01 9.73346727e-01 9.74794810e-01 
        </DataArray>
        <DataArray type="Float64" Name="rhou">
          -1.83323389e-04 -2.16421954e-04 -1.94851380e-04 -1.63242390e-04 
        </DataArray>
        <DataArray type="Float64" Name="rhov">
          3.39816647e-05 -8.73572234e-06 -4.77278378e-05 -4.83064453e-05 
        </DataArray>
        <DataArray type="Float64" Name="E">
          2.19565460e+05 2.19851962e+05 2.20163737e+05 2.20499518e+05 
        </DataArray>
      </PointData>
    </Piece>
    <Piece NumberOfPoints="4" NumberOfCells="3">
      <Points>
        <DataArray type="Float64" NumberOfComponents="3" format="ascii">
          7.51680970e-01 -3.10197193e-02 0.00000000e+00 
7.62049198e-01 -2.99084149e-02 0.00000000e+00 
7.72415876e-01 -2.87819952e-02 0.00000000e+00 
7.82780826e-01 -2.76402626e-02 0.00000000e+00 

        </DataArray>
      </Points>
      <Cells>
        <DataArray type="Int32" Name="connectivity" format="ascii">
0 1
1 2
2 3

        </DataArray>
        <DataArray type="Int32" Name="offsets" format="ascii">
2 4 6 
        </DataArray>
        <DataArray type="UInt8" Name="types" format="ascii">
3 3 3 
        </DataArray>
      </Cells>
      <PointData>
        <DataArray type="Float64" Name="rho">
          9.67186951e-01 9.68276457e-01 9.69434517e-01 9.70663857e-01 
        </DataArray>
        <DataArray type="Float64" Name="rhou">
          -1.77726194e-04 -1.76329421e-04 -1.70620937e-04 -1.93811728e-04 
        </DataArray>
        <DataArray type="Float64" Name="rhov">
          8.26540362e-05 5.16296612e-05 3.86461478e-05 3.01067051e-05 
        </DataArray>
        <DataArray type="Float64" Name="E">
          2.18855333e+05 2.19067872e+05 2.19304349e+05 2.19565441e+05 
        </DataArray>
      </PointData>
    </Piece>
    <Piece NumberOfPoints="4" NumberOfCells="3">
      <Points>
        <DataArray type="Float64" NumberOfComponents="3" format="ascii">
          7.20566452e-01 -3.42622213e-02 0.00000000e+00 
7.30939507e-01 -3.31965312e-02 0.00000000e+00 
7.41311073e-01 -3.21157984e-02 0.00000000e+00 
7.51680970e-01 -3.10197193e-02 0.00000000e+00 

        </DataArray>
      </Points>
      <Cells>
        <DataArray type="Int32" Name="connectivity" format="ascii">
0 1
1 2
2 3

        </DataArray>
        <DataArray type="Int32" Name="offsets" format="ascii">
2 4 6 
        </DataArray>
        <DataArray type="UInt8" Name="types" format="ascii">
3 3 3 
        </DataArray>
      </Cells>
      <PointData>
        <DataArray type="Float64" Name="rho">
          9.64328853e-01 9.65217149e-01 9.66169352e-01 9.67186934e-01 
        </DataArray>
        <DataArray type="Float64" Name="rhou">
          -1.37180681e-04 -1.43416371e-04 -1.35287150e-04 -1.58147953e-04 
        </DataArray>
        <DataArray type="Float64" Name="rhov">
          1.22236478e-04 8.68492076e-05 7.63495003e-05 8.30574533e-05 
        </DataArray>
        <DataArray type="Float64" Name="E">
          2.18359713e+05 2.18502356e+05 2.18667376e+05 2.18855329e+05 
        </DataArray>
      </PointData>
    </Piece>
    <Piece NumberOfPoints="4" NumberOfCells="3">
      <Points>
        <DataArray type="Float64" NumberOfComponents="3" format="ascii">
          6.89437866e-01 -3.73662710e-02 0.00000000e+00 
6.99815631e-01 -3.63472365e-02 0.00000000e+00 
7.10191846e-01 -3.53125818e-02 0.00000000e+00 
7.20566452e-01 -3.42622213e-02 0.00000000e+00 

        </DataArray>
      </Points>
      <Cells>
        <DataArray type="Int32" Name="connectivity" format="ascii">
0 1
1 2
2 3

        </DataArray>
        <DataArray type="Int32" Name="offsets" format="ascii">
2 4 6 
        </DataArray>
        <DataArray type="UInt8" Name="types" format="ascii">
3 3 3 
        </DataArray>
      </Cells>
      <PointData>
        <DataArray type="Float64" Name="rho">
          9.62053477e-01 9.62751163e-01 9.63508860e-01 9.64328874e-01 
        </DataArray>
        <DataArray type="Float64" Name="rhou">
          -7.37262953e-05 -8.38419748e-05 -8.78779447e-05 -1.22501864e-04 
        </DataArray>
        <DataArray type="Float64" Name="rhov">
          1.43587893e-04 1.18536498e-04 1.14567496e-04 1.21117379e-04 
        </DataArray>
        <DataArray type="Float64" Name="E">
          2.18064531e+05 2.18142075e+05 2.18240177e+05 2.18359718e+05 
        </DataArray>
      </PointData>
    </Piece>
    <Piece NumberOfPoints="4" NumberOfCells="3">
      <Points>
        <DataArray type="Float64" NumberOfComponents="3" format="ascii">
          6.58295333e-01 -4.03269380e-02 0.00000000e+00 
6.68677747e-01 -3.93563360e-02 0.00000000e+00 
6.79058611e-01 -3.83694395e-02 0.00000000e+00 
6.89437866e-01 -3.73662710e-02 0.00000000e+00 

        </DataArray>
      </Points>
      <Cells>
        <DataArray type="Int32" Name="connectivity" format="ascii">
0 1
1 2
2 3

        </DataArray>
        <DataArray type="Int32" Name="offsets" format="ascii">
2 4 6 
        </DataArray>
        <DataArray type="UInt8" Name="types" format="ascii">
3 3 3 
        </DataArray>
      </Cells>
      <PointData>
        <DataArray type="Float64" Name="rho">
          9.60325869e-01 9.60844313e-01 9.61419160e-01 9.62053573e-01 
        </DataArray>
        <DataArray type="Float64" Name="rhou">
          3.25924850e-06 -6.35098399e-06 -2.44317612e-05 -6.51895138e-05 
        </DataArray>
        <DataArray type="Float64" Name="rhov">
          1.52674510e-04 1.37821900e-04 1.39333889e-04 1.42622215e-04 
        </DataArray>
        <DataArray type="Float64" Name="E">
          2.17952326e+05 2.17970899e+05 2.18007911e+05 2.18064553e+05 
        </DataArray>
      </PointData>
    </Piece>
    <Piece NumberOfPoints="4" NumberOfCells="3">
      <Points>
        <DataArray type="Float64" NumberOfComponents="3" format="ascii">
          6.27138972e-01 -4.31386717e-02 0.00000000e+00 
6.37525976e-01 -4.22184542e-02 0.00000000e+00 
6.47911429e-01 -4.12811004e-02 0.00000000e+00 
6.58295333e-01 -4.03269380e-02 0.00000000e+00 

        </DataArray>
      </Points>
      <Cells>
        <DataArray type="Int32" Name="connectivity" format="ascii">
0 1
1 2
2 3

        </DataArray>
        <DataArray type="Int32" Name="offsets" format="ascii">
2 4 6 
        </DataArray>
        <DataArray type="UInt8" Name="types" format="ascii">
3 3 3 
        </DataArray>
      </Cells>
      <PointData>
        <DataArray type="Float64" Name="rho">
          9.59118884e-01 9.59464125e-01 9.59866474e-01 9.60325923e-01 
        </DataArray>
        <DataArray type="Float64" Name="rhou">
          1.08711507e-04 7.38200147e-05 4.60060179e-05 1.59601964e-05 
        </DataArray>
        <DataArray type="Float64" Name="rhov">
          1.71902632e-04 1.62097098e-04 1.54875079e-04 1.51444746e-04 
        </DataArray>
        <DataArray type="Float64" Name="E">
          2.18004305e+05 2.17969800e+05 2.17952289e+05 2.17952338e+05 
        </DataArray>
      </PointData>
    </Piece>
    <Piece NumberOfPoints="4" NumberOfCells="3">
      <Points>
        <DataArray type="Float64" NumberOfComponents="3" format="ascii">
          5.95968783e-01 -4.57924642e-02 0.00000000e+00 
6.06360376e-01 -4.49259281e-02 0.00000000e+00 
6.16750479e-01 -4.40412909e-02 0.00000000e+00 
6.27138972e-01 -4.31386717e-02 0.00000000e+00 

        </DataArray>
      </Points>
      <Cells>
        <DataArray type="Int32" Name="connectivity" format="ascii">
0 1
1 2
2 3

        </DataArray>
        <DataArray type="Int32" Name="offsets" format="ascii">
2 4 6 
        </DataArray>
        <DataArray type="UInt8" Name="types" format="ascii">
3 3 3 
        </DataArray>
      </Cells>
      <PointData>
        <DataArray type="Float64" Name="rho">
          9.58424881e-01 9.58600838e-01 9.58831789e-01 9.59118860e-01 
        </DataArray>
        <DataArray type="Float64" Name="rhou">
          2.04930513e-04 1.81309370e-04 1.51923133e-04 1.07520057e-04 
        </DataArray>
        <DataArray type="Float64" Name="rhov">
          1.71191020e-04 1.58953780e-04 1.62161237e-04 1.69988499e-04 
        </DataArray>
        <DataArray type="Float64" Name="E">
          2.18203459e+05 2.18122135e+05 2.18055445e+05 2.18004300e+05 
        </DataArray>
      </PointData>
    </Piece>
    <Piece NumberOfPoints="4" NumberOfCells="3">
      <Points>
        <DataArray type="Float64" NumberOfComponents="3" format="ascii">
          5.64784765e-01 -4.82786149e-02 0.00000000e+00 
5.75181007e-01 -4.74695377e-02 0.00000000e+00 
5.85575700e-01 -4.66405638e-02 0.00000000e+00 
5.95968783e-01 -4.57924642e-02 0.00000000e+00 

        </DataArray>
      </Points>
      <Cells>
        <DataArray type="Int32" Name="connectivity" format="ascii">
0 1
1 2
2 3

        </DataArray>
        <DataArray type="Int32" Name="offsets" format="ascii">
2 4 6 
        </DataArray>
        <DataArray type="UInt8" Name="types" format="ascii">
3 3 3 
        </DataArray>
      </Cells>
      <PointData>
        <DataArray type="Float64" Name="rho">
          9.58255293e-01 9.58250860e-01 9.58307349e-01 9.58425057e-01 
        </DataArray>
        <DataArray type="Float64" Name="rhou">
          3.55156900e-04 3.06267525e-04 2.49868999e-04 2.03593011e-04 
        </DataArray>
        <DataArray type="Float64" Name="rhov">
          1.67396478e-04 1.80787913e-04 1.82130417e-04 1.69222842e-04 
        </DataArray>
        <DataArray type="Float64" Name="E">
          2.18534867e+05 2.18410239e+05 2.18299524e+05 2.18203500e+05 
        </DataArray>
      </PointData>
    </Piece>
    <Piece NumberOfPoints="4" NumberOfCells="3">
      <Points>
        <DataArray type="Float64" NumberOfComponents="3" format="ascii">
          5.33586800e-01 -5.05827516e-02 0.00000000e+00 
5.43987691e-01 -4.98356484e-02 0.00000000e+00 
5.54387033e-01 -4.90674041e-02 0.00000000e+00 
5.64784765e-01 -4.82786149e-02 0.00000000e+00 

        </DataArray>
      </Points>
      <Cells>
        <DataArray type="Int32" Name="connectivity" format="ascii">
0 1
1 2
2 3

        </DataArray>
        <DataArray type="Int32" Name="offsets" format="ascii">
2 4 6 
        </DataArray>
        <DataArray type="UInt8" Name="types" format="ascii">
3 3 3 
        </DataArray>
      </Cells>
      <PointData>
        <DataArray type="Float64" Name="rho">
          9.58636236e-01 9.58444684e-01 9.58319223e-01 9.58255221e-01 
        </DataArray>
        <DataArray type="Float64" Name="rhou">
          4.98878528e-04 4.30598823e-04 3.81095068e-04 3.53452305e-04 
        </DataArray>
        <DataArray type="Float64" Name="rhov">
          1.79047051e-04 1.75383407e-04 1.65795080e-04 1.64555547e-04 
        </DataArray>
        <DataArray type="Float64" Name="E">
          2.18985483e+05 2.18822454e+05 2.18672359e+05 2.18534849e+05 
        </DataArray>
      </PointData>
    </Piece>
    <Piece NumberOfPoints="4" NumberOfCells="3">
      <Points>
        <DataArray type="Float64" NumberOfComponents="3" format="ascii">
          5.02374947e-01 -5.26902266e-02 0.00000000e+00 
5.12780428e-01 -5.20105064e-02 0.00000000e+00 
5.23184419e-01 -5.13078682e-02 0.00000000e+00 
5.33586800e-01 -5.05827516e-02 0.00000000e+00 

        </DataArray>
      </Points>
      <Cells>
        <DataArray type="Int32" Name="connectivity" format="ascii">
0 1
1 2
2 3

        </DataArray>
        <DataArray type="Int32" Name="offsets" format="ascii">
2 4 6 
        </DataArray>
        <DataArray type="UInt8" Name="types" format="ascii">
3 3 3 
        </DataArray>
      </Cells>
      <PointData>
        <DataArray type="Float64" Name="rho">
          9.59619243e-01 9.59222105e-01 9.58895882e-01 9.58636086e-01 
        </DataArray>
        <DataArray type="Float64" Name="rhou">
          6.49645610e-04 5.89511409e-04 5.42542822e-04 5.00621943e-04 
        </DataArray>
        <DataArray type="Float64" Name="rhov">
          1.70520934e-04 1.58226009e-04 1.57280270e-04 1.74859187e-04 
        </DataArray>
        <DataArray type="Float64" Name="E">
          2.19548012e+05 2.19348595e+05 2.19161204e+05 2.18985447e+05 
        </DataArray>
      </PointData>
    </Piece>
    <Piece NumberOfPoints="4" NumberOfCells="3">
      <Points>
        <DataArray type="Float64" NumberOfComponents="3" format="ascii">
          4.71149325e-01 -5.45825884e-02 0.00000000e+00 
4.81559396e-01 -5.39771840e-02 0.00000000e+00 
4.91967946e-01 -5.33461571e-02 0.00000000e+00 
5.02374947e-01 -5.26902266e-02 0.00000000e+00 

        </DataArray>
      </Points>
      <Cells>
        <DataArray type="Int32" Name="connectivity" format="ascii">
0 1
1 2
2 3

        </DataArray>
        <DataArray type="Int32" Name="offsets" format="ascii">
2 4 6 
        </DataArray>
        <DataArray type="UInt8" Name="types" format="ascii">
3 3 3 
        </DataArray>
      </Cells>
      <PointData>
        <DataArray type="Float64" Name="rho">
          9.61274902e-01 9.60645568e-01 9.60092514e-01 9.59619355e-01 
        </DataArray>
        <DataArray type="Float64" Name="rhou">
          8.26629596e-04 7.89408301e-04 7.17573444e-04 6.26345710e-04 
        </DataArray>
        <DataArray type="Float64" Name="rhov">
          1.34887885e-04 1.43047627e-04 1.66441477e-04 1.71081019e-04 
        </DataArray>
        <DataArray type="Float64" Name="E">
          2.20221830e+05 2.19985088e+05 2.19760067e+05 2.19548038e+05 
        </DataArray>
      </PointData>
    </Piece>
    <Piece NumberOfPoints="4" NumberOfCells="3">
      <Points>
        <DataArray type="Float64" NumberOfComponents="3" format="ascii">
          4.39910263e-01 -5.62384278e-02 0.00000000e+00 
4.50324744e-01 -5.57143167e-02 0.00000000e+00 
4.60737765e-01 -5.51619194e-02 0.00000000e+00 
4.71149325e-01 -5.45825884e-02 0.00000000e+00 

        </DataArray>
      </Points>
      <Cells>
        <DataArray type="Int32" Name="connectivity" format="ascii">
0 1
1 2
2 3

        </DataArray>
        <DataArray type="Int32" Name="offsets" format="ascii">
2 4 6 
        </DataArray>
        <DataArray type="UInt8" Name="types" format="ascii">
3 3 3 
        </DataArray>
      </Cells>
      <PointData>
        <DataArray type="Float64" Name="rho">
          9.63671105e-01 9.62781975e-01 9.61985492e-01 9.61275005e-01 
        </DataArray>
        <DataArray type="Float64" Name="rhou">
          1.06579508e-03 9.61646561e-04 8.80756786e-04 8.37330910e-04 
        </DataArray>
        <DataArray type="Float64" Name="rhov">
          1.39276414e-04 1.52736348e-04 1.44608503e-04 1.35568711e-04 
        </DataArray>
        <DataArray type="Float64" Name="E">
          2.21011002e+05 2.20733645e+05 2.20471069e+05 2.20221852e+05 
        </DataArray>
      </PointData>
    </Piece>
    <Piece NumberOfPoints="4" NumberOfCells="3">
      <Points>
        <DataArray type="Float64" NumberOfComponents="3" format="ascii">
          4.08658355e-01 -5.76302819e-02 0.00000000e+00 
4.19077009e-01 -5.71971126e-02 0.00000000e+00 
4.29494321e-01 -5.67329265e-02 0.00000000e+00 
4.39910263e-01 -5.62384278e-02 0.00000000e+00 

        </DataArray>
      </Points>
      <Cells>
        <DataArray type="Int32" Name="connectivity" format="ascii">
0 1
1 2
2 3

        </DataArray>
        <DataArray type="Int32" Name="offsets" format="ascii">
2 4 6 
        </DataArray>
        <DataArray type="UInt8" Name="types" format="ascii">
3 3 3 
        </DataArray>
      </Cells>
      <PointData>
        <DataArray type="Float64" Name="rho">
          9.66889599e-01 9.65723138e-01 9.64652127e-01 9.63670794e-01 
        </DataArray>
        <DataArray type="Float64" Name="rhou">
          1.26106388e-03 1.17681856e-03 1.11342324e-03 1.06070345e-03 
        </DataArray>
        <DataArray type="Float64" Name="rhov">
          1.18698675e-04 1.04145017e-04 1.07516031e-04 1.36970356e-04 
        </DataArray>
        <DataArray type="Float64" Name="E">
          2.21931381e+05 2.21609258e+05 2.21302973e+05 2.21010929e+05 
        </DataArray>
      </PointData>
    </Piece>
    <Piece NumberOfPoints="4" NumberOfCells="3">
      <Points>
        <DataArray type="Float64" NumberOfComponents="3" format="ascii">
          3.77394795e-01 -5.87291755e-02 0.00000000e+00 
3.87817174e-01 -5.83979115e-02 0.00000000e+00 
3.98238391e-01 -5.80311492e-02 0.00000000e+00 
4.08658355e-01 -5.76302819e-02 0.00000000e+00 

        </DataArray>
      </Points>
      <Cells>
        <DataArray type="Int32" Name="connectivity" format="ascii">
0 1
1 2
2 3

        </DataArray>
        <DataArray type="Int32" Name="offsets" format="ascii">
2 4 6 
        </DataArray>
        <DataArray type="UInt8" Name="types" format="ascii">
3 3 3 
        </DataArray>
      </Cells>
      <PointData>
        <DataArray type="Float64" Name="rho">
          9.71019482e-01 9.69536889e-01 9.68158259e-01 9.66889844e-01 
        </DataArray>
        <DataArray type="Float64" Name="rhou">
          1.54869464e-03 1.46884699e-03 1.35072739e-03 1.22336193e-03 
        </DataArray>
        <DataArray type="Float64" Name="rhov">
          5.24338951e-05 8.95371263e-05 1.27601816e-04 1.22781488e-04 
        </DataArray>
        <DataArray type="Float64" Name="E">
          2.23010866e+05 2.22631375e+05 2.22271303e+05 2.21931439e+05 
        </DataArray>
      </PointData>
    </Piece>
    <Piece NumberOfPoints="4" NumberOfCells="3">
      <Points>
        <DataArray type="Float64" NumberOfComponents="3" format="ascii">
          3.46121490e-01 -5.95011823e-02 0.00000000e+00 
3.56546819e-01 -5.92821389e-02 0.00000000e+00 
3.66971314e-01 -5.90242445e-02 0.00000000e+00 
3.77394795e-01 -5.87291755e-02 0.00000000e+00 

        </DataArray>
      </Points>
      <Cells>
        <DataArray type="Int32" Name="connectivity" format="ascii">
0 1
1 2
2 3

        </DataArray>
        <DataArray type="Int32" Name="offsets" format="ascii">
2 4 6 
        </DataArray>
        <DataArray type="UInt8" Name="types" format="ascii">
3 3 3 
        </DataArray>
      </Cells>
      <PointData>
        <DataArray type="Float64" Name="rho">
          9.76133829e-01 9.74308941e-01 9.72607119e-01 9.71019586e-01 
        </DataArray>
        <DataArray type="Float64" Name="rhou">
          1.92313011e-03 1.76637604e-03 1.62438481e-03 1.55439306e-03 
        </DataArray>
        <DataArray type="Float64" Name="rhov">
          -1.42277002e-06 5.13541835e-05 6.38282322e-05 5.68996107e-05 
        </DataArray>
        <DataArray type="Float64" Name="E">
          2.24283275e+05 2.23833893e+05 2.23410732e+05 2.23010890e+05 
        </DataArray>
      </PointData>
    </Piece>
    <Piece NumberOfPoints="4" NumberOfCells="3">
      <Points>
        <DataArray type="Float64" NumberOfComponents="3" format="ascii">
          3.14841360e-01 -5.99102043e-02 0.00000000e+00 
3.25268596e-01 -5.98174632e-02 0.00000000e+00 
3.35695356e-01 -5.96801341e-02 0.00000000e+00 
3.46121490e-01 -5.95011823e-02 0.00000000e+00 

        </DataArray>
      </Points>
      <Cells>
        <DataArray type="Int32" Name="connectivity" format="ascii">
0 1
1 2
2 3

        </DataArray>
        <DataArray type="Int32" Name="offsets" format="ascii">
2 4 6 
        </DataArray>
        <DataArray type="UInt8" Name="types" format="ascii">
3 3 3 
        </DataArray>
      </Cells>
      <PointData>
        <DataArray type="Float64" Name="rho">
          9.82400373e-01 9.80158076e-01 9.78075651e-01 9.76133472e-01 
        </DataArray>
        <DataArray type="Float64" Name="rhou">
          2.39794056e-03 2.13476916e-03 1.95821606e-03 1.88139833e-03 
        </DataArray>
        <DataArray type="Float64" Name="rhov">
          5.30643194e-05 8.65678137e-05 5.51333590e-05 -1.42042984e-06 
        </DataArray>
        <DataArray type="Float64" Name="E">
          2.25810188e+05 2.25265548e+05 2.24758370e+05 2.24283194e+05 
        </DataArray>
      </PointData>
    </Piece>
    <Piece NumberOfPoints="4" NumberOfCells="3">
      <Points>
        <DataArray type="Float64" NumberOfComponents="3" format="ascii">
          2.83558637e-01 -5.98983802e-02 0.00000000e+00 
2.93986142e-01 -5.99516556e-02 0.00000000e+00 
3.04413795e-01 -5.99554181e-02 0.00000000e+00 
3.14841360e-01 -5.99102043e-02 0.00000000e+00 

        </DataArray>
      </Points>
      <Cells>
        <DataArray type="Int32" Name="connectivity" format="ascii">
0 1
1 2
2 3

        </DataArray>
        <DataArray type="Int32" Name="offsets" format="ascii">
2 4 6 
        </DataArray>
        <DataArray type="UInt8" Name="types" format="ascii">
3 3 3 
        </DataArray>
      </Cells>
      <PointData>
        <DataArray type="Float64" Name="rho">
          9.90095448e-01 9.87367862e-01 9.84805623e-01 9.82399557e-01 
        </DataArray>
        <DataArray type="Float64" Name="rhou">
          2.87467363e-03 2.71014900e-03 2.57638520e-03 2.38710354e-03 
        </DataArray>
        <DataArray type="Float64" Name="rhov">
          -4.68572576e-05 -1.10708769e-04 -5.88732829e-05 6.02013832e-05 
        </DataArray>
        <DataArray type="Float64" Name="E">
          2.27679084e+05 2.27016000e+05 2.26393889e+05 2.25810001e+05 
        </DataArray>
      </PointData>
    </Piece>
    <Piece NumberOfPoints="4" NumberOfCells="3">
      <Points>
        <DataArray type="Float64" NumberOfComponents="3" format="ascii">
          2.52279758e-01 -5.94130717e-02 0.00000000e+00 
2.62705088e-01 -5.96327744e-02 0.00000000e+00 
2.73131490e-01 -5.97934239e-02 0.00000000e+00 
2.83558637e-01 -5.98983802e-02 0.00000000e+00 

        </DataArray>
      </Points>
      <Cells>
        <DataArray type="Int32" Name="connectivity" format="ascii">
0 1
1 2
2 3

        </DataArray>
        <DataArray type="Int32" Name="offsets" format="ascii">
2 4 6 
        </DataArray>
        <DataArray type="UInt8" Name="types" format="ascii">
3 3 3 
        </DataArray>
      </Cells>
      <PointData>
        <DataArray type="Float64" Name="rho">
          9.99614304e-01 9.96202909e-01 9.93030633e-01 9.90096452e-01 
        </DataArray>
        <DataArray type="Float64" Name="rhou">
          3.86018389e-03 3.56074005e-03 3.21920374e-03 2.85861949e-03 
        </DataArray>
        <DataArray type="Float64" Name="rhov">
          -2.64838943e-04 -1.42256642e-04 -2.75271621e-05 -2.52604071e-05 
        </DataArray>
        <DataArray type="Float64" Name="E">
          2.29999724e+05 2.29166713e+05 2.28393498e+05 2.27679320e+05 
        </DataArray>
      </PointData>
    </Piece>
    <Piece NumberOfPoints="4" NumberOfCells="3">
      <Points>
        <DataArray type="Float64" NumberOfComponents="3" format="ascii">
          2.21014455e-01 -5.83752058e-02 0.00000000e+00 
2.31433928e-01 -5.87876961e-02 0.00000000e+00 
2.41855890e-01 -5.91322705e-02 0.00000000e+00 
2.52279758e-01 -5.94130717e-02 0.00000000e+00 

        </DataArray>
      </Points>
      <Cells>
        <DataArray type="Int32" Name="connectivity" format="ascii">
0 1
1 2
2 3

        </DataArray>
        <DataArray type="Int32" Name="offsets" format="ascii">
2 4 6 
        </DataArray>
        <DataArray type="UInt8" Name="types" format="ascii">
3 3 3 
        </DataArray>
      </Cells>
      <PointData>
        <DataArray type="Float64" Name="rho">
          1.01155153e+00 1.00724678e+00 1.00328154e+00 9.99614505e-01 
        </DataArray>
        <DataArray type="Float64" Name="rhou">
          5.21026433e-03 4.62620189e-03 4.17958091e-03 3.89884611e-03 
        </DataArray>
        <DataArray type="Float64" Name="rhov">
          -4.68947127e-04 -3.21990147e-04 -2.57136120e-04 -2.46778247e-04 
        </DataArray>
        <DataArray type="Float64" Name="E">
          2.32922991e+05 2.31867826e+05 2.30896727e+05 2.29999766e+05 
        </DataArray>
      </PointData>
    </Piece>
    <Piece NumberOfPoints="4" NumberOfCells="3">
      <Points>
        <DataArray type="Float64" NumberOfComponents="3" format="ascii">
          1.89777538e-01 -5.66898957e-02 0.00000000e+00 
2.00185493e-01 -5.73302582e-02 0.00000000e+00 
2.10598081e-01 -5.78906052e-02 0.00000000e+00 
2.21014455e-01 -5.83752058e-02 0.00000000e+00 

        </DataArray>
      </Points>
      <Cells>
        <DataArray type="Int32" Name="connectivity" format="ascii">
0 1
1 2
2 3

        </DataArray>
        <DataArray type="Int32" Name="offsets" format="ascii">
2 4 6 
        </DataArray>
        <DataArray type="UInt8" Name="types" format="ascii">
3 3 3 
        </DataArray>
      </Cells>
      <PointData>
        <DataArray type="Float64" Name="rho">
          1.02683944e+00 1.02130191e+00 1.01622415e+00 1.01155072e+00 
        </DataArray>
        <DataArray type="Float64" Name="rhou">
          7.09311465e-03 6.30529404e-03 5.73379921e-03 5.27474801e-03 
        </DataArray>
        <DataArray type="Float64" Name="rhov">
          -9.22980594e-04 -7.86655034e-04 -6.29344731e-04 -4.56390726e-04 
        </DataArray>
        <DataArray type="Float64" Name="E">
          2.36674204e+05 2.35315199e+05 2.34069134e+05 2.32922802e+05 
        </DataArray>
      </PointData>
    </Piece>
    <Piece NumberOfPoints="4" NumberOfCells="3">
      <Points>
        <DataArray type="Float64" NumberOfComponents="3" format="ascii">
          1.58592433e-01 -5.42296544e-02 0.00000000e+00 
1.68979734e-01 -5.51457107e-02 0.00000000e+00 
1.79375216e-01 -5.59638515e-02 0.00000000e+00 
1.89777538e-01 -5.66898957e-02 0.00000000e+00 

        </DataArray>
      </Points>
      <Cells>
        <DataArray type="Int32" Name="connectivity" format="ascii">
0 1
1 2
2 3

        </DataArray>
        <DataArray type="Int32" Name="offsets" format="ascii">
2 4 6 
        </DataArray>
        <DataArray type="UInt8" Name="types" format="ascii">
3 3 3 
        </DataArray>
      </Cells>
      <PointData>
        <DataArray type="Float64" Name="rho">
          1.04691280e+00 1.03958839e+00 1.03291304e+00 1.02683988e+00 
        </DataArray>
        <DataArray type="Float64" Name="rhou">
          1.00420576e-02 9.01897670e-03 8.10493060e-03 7.15985589e-03 
        </DataArray>
        <DataArray type="Float64" Name="rhov">
          -1.97208827e-03 -1.66404144e-03 -1.23006440e-03 -8.82162589e-04 
        </DataArray>
        <DataArray type="Float64" Name="E">
          2.41596787e+05 2.39801254e+05 2.38164267e+05 2.36674310e+05 
        </DataArray>
      </PointData>
    </Piece>
    <Piece NumberOfPoints="4" NumberOfCells="3">
      <Points>
        <DataArray type="Float64" NumberOfComponents="3" format="ascii">
          1.27497971e-01 -5.08146733e-02 0.00000000e+00 
1.37849152e-01 -5.20747155e-02 0.00000000e+00 
1.48214847e-01 -5.32093942e-02 0.00000000e+00 
1.58592433e-01 -5.42296544e-02 0.00000000e+00 

        </DataArray>
      </Points>
      <Cells>
        <DataArray type="Int32" Name="connectivity" format="ascii">
0 1
1 2
2 3

        </DataArray>
        <DataArray type="Int32" Name="offsets" format="ascii">
2 4 6 
        </DataArray>
        <DataArray type="UInt8" Name="types" format="ascii">
3 3 3 
        </DataArray>
      </Cells>
      <PointData>
        <DataArray type="Float64" Name="rho">
          1.07407529e+00 1.06402909e+00 1.05499577e+00 1.04691693e+00 
        </DataArray>
        <DataArray type="Float64" Name="rhou">
          1.43298211e-02 1.32766209e-02 1.15423365e-02 1.00626677e-02 
        </DataArray>
        <DataArray type="Float64" Name="rhov">
          -3.31660644e-03 -2.86877160e-03 -2.09084789e-03 -1.90617910e-03 
        </DataArray>
        <DataArray type="Float64" Name="E">
          2.48245216e+05 2.45787690e+05 2.43576962e+05 2.41597748e+05 
        </DataArray>
      </PointData>
    </Piece>
    <Piece NumberOfPoints="4" NumberOfCells="3">
      <Points>
        <DataArray type="Float64" NumberOfComponents="3" format="ascii">
          9.65642184e-02 -4.61716652e-02 0.00000000e+00 
1.06852271e-01 -4.78802323e-02 0.00000000e+00 
1.17164567e-01 -4.94215861e-02 0.00000000e+00 
1.27497971e-01 -5.08146733e-02 0.00000000e+00 

        </DataArray>
      </Points>
      <Cells>
        <DataArray type="Int32" Name="connectivity" format="ascii">
0 1
1 2
2 3

        </DataArray>
        <DataArray type="Int32" Name="offsets" format="ascii">
2 4 6 
        </DataArray>
        <DataArray type="UInt8" Name="types" format="ascii">
3 3 3 
        </DataArray>
      </Cells>
      <PointData>
        <DataArray type="Float64" Name="rho">
          1.11229683e+00 1.09792870e+00 1.08521757e+00 1.07408412e+00 
        </DataArray>
        <DataArray type="Float64" Name="rhou">
          2.40369535e-02 1.76145247e-02 1.68966312e-02 1.26041249e-02 
        </DataArray>
        <DataArray type="Float64" Name="rhov">
          -2.43086581e-03 -2.02038342e-03 -2.72485698e-03 -2.61370306e-03 
        </DataArray>
        <DataArray type="Float64" Name="E">
          2.57587671e+05 2.54076485e+05 2.50970307e+05 2.48247358e+05 
        </DataArray>
      </PointData>
    </Piece>
  </UnstructuredGrid>
</VTKFile>
