<?xml version="1.0"?>
<VTKFile type="UnstructuredGrid" version="0.1" byte_order="LittleEndian">
  <UnstructuredGrid>
    <Piece NumberOfPoints="4" NumberOfCells="3">
      <Points>
        <DataArray type="Float64" NumberOfComponents="3" format="ascii">
          9.65642184e-02 -4.61716652e-02 0.00000000e+00 
9.26280916e-02 -4.54656407e-02 0.00000000e+00 
8.86965096e-02 -4.47326750e-02 0.00000000e+00 
8.47706869e-02 -4.39694971e-02 0.00000000e+00 

        </DataArray>
      </Points>
      <Cells>
        <DataArray type="Int32" Name="connectivity" format="ascii">
0 1
1 2
2 3

        </DataArray>
        <DataArray type="Int32" Name="offsets" format="ascii">
2 4 6 
        </DataArray>
        <DataArray type="UInt8" Name="types" format="ascii">
3 3 3 
        </DataArray>
      </Cells>
      <PointData>
        <DataArray type="Float64" Name="rho">
          1.03436992e+00 1.04127547e+00 1.04849552e+00 1.05616208e+00 
        </DataArray>
        <DataArray type="Float64" Name="rhou">
          2.82973931e-02 2.17854921e-02 2.44329772e-02 2.45985120e-02 
        </DataArray>
        <DataArray type="Float64" Name="rhov">
          -2.22513296e-03 -1.00490136e-03 -5.88151548e-04 -8.94825986e-04 
        </DataArray>
        <DataArray type="Float64" Name="E">
          2.36301023e+05 2.37953599e+05 2.39683054e+05 2.41519776e+05 
        </DataArray>
      </PointData>
    </Piece>
    <Piece NumberOfPoints="4" NumberOfCells="3">
      <Points>
        <DataArray type="Float64" NumberOfComponents="3" format="ascii">
          8.47706869e-02 -4.39694971e-02 0.00000000e+00 
8.08513016e-02 -4.31745499e-02 0.00000000e+00 
7.69388378e-02 -4.23462167e-02 0.00000000e+00 
7.30340332e-02 -4.14824970e-02 0.00000000e+00 

        </DataArray>
      </Points>
      <Cells>
        <DataArray type="Int32" Name="connectivity" format="ascii">
0 1
1 2
2 3

        </DataArray>
        <DataArray type="Int32" Name="offsets" format="ascii">
2 4 6 
        </DataArray>
        <DataArray type="UInt8" Name="types" format="ascii">
3 3 3 
        </DataArray>
      </Cells>
      <PointData>
        <DataArray type="Float64" Name="rho">
          1.05616089e+00 1.06425534e+00 1.07281307e+00 1.08190392e+00 
        </DataArray>
        <DataArray type="Float64" Name="rhou">
          2.46921657e-02 2.38582941e-02 2.24369333e-02 2.08587756e-02 
        </DataArray>
        <DataArray type="Float64" Name="rhov">
          -7.00326764e-04 -4.82161435e-04 4.37629329e-04 1.64644818e-03 
        </DataArray>
        <DataArray type="Float64" Name="E">
          2.41519512e+05 2.43460683e+05 2.45514174e+05 2.47696763e+05 
        </DataArray>
      </PointData>
    </Piece>
    <Piece NumberOfPoints="4" NumberOfCells="3">
      <Points>
        <DataArray type="Float64" NumberOfComponents="3" format="ascii">
          7.30340332e-02 -4.14824970e-02 0.00000000e+00 
6.91377968e-02 -4.05809283e-02 0.00000000e+00 
6.52511865e-02 -3.96387354e-02 0.00000000e+00 
6.13753870e-02 -3.86530459e-02 0.00000000e+00 

        </DataArray>
      </Points>
      <Cells>
        <DataArray type="Int32" Name="connectivity" format="ascii">
0 1
1 2
2 3

        </DataArray>
        <DataArray type="Int32" Name="offsets" format="ascii">
2 4 6 
        </DataArray>
        <DataArray type="UInt8" Name="types" format="ascii">
3 3 3 
        </DataArray>
      </Cells>
      <PointData>
        <DataArray type="Float64" Name="rho">
          1.08190452e+00 1.09161200e+00 1.10196788e+00 1.11303175e+00 
        </DataArray>
        <DataArray type="Float64" Name="rhou">
          2.09759262e-02 1.86126000e-02 1.44976495e-02 8.97953897e-03 
        </DataArray>
        <DataArray type="Float64" Name="rhov">
          1.48085905e-03 2.24176573e-03 4.34335513e-03 7.55646097e-03 
        </DataArray>
        <DataArray type="Float64" Name="E">
          2.47696924e+05 2.50029728e+05 2.52519960e+05 2.55182637e+05 
        </DataArray>
      </PointData>
    </Piece>
    <Piece NumberOfPoints="4" NumberOfCells="3">
      <Points>
        <DataArray type="Float64" NumberOfComponents="3" format="ascii">
          6.13753870e-02 -3.86530459e-02 0.00000000e+00 
5.75117208e-02 -3.76208089e-02 0.00000000e+00 
5.36618084e-02 -3.65384258e-02 0.00000000e+00 
4.98276278e-02 -3.54015976e-02 0.00000000e+00 

        </DataArray>
      </Points>
      <Cells>
        <DataArray type="Int32" Name="connectivity" format="ascii">
0 1
1 2
2 3

        </DataArray>
        <DataArray type="Int32" Name="offsets" format="ascii">
2 4 6 
        </DataArray>
        <DataArray type="UInt8" Name="types" format="ascii">
3 3 3 
        </DataArray>
      </Cells>
      <PointData>
        <DataArray type="Float64" Name="rho">
          1.11303201e+00 1.12488653e+00 1.13761653e+00 1.15135344e+00 
        </DataArray>
        <DataArray type="Float64" Name="rhou">
          8.92256204e-03 1.84869336e-03 -7.38221902e-03 -1.89205956e-02 
        </DataArray>
        <DataArray type="Float64" Name="rhov">
          7.32826558e-03 1.20557784e-02 2.01636631e-02 3.16700319e-02 
        </DataArray>
        <DataArray type="Float64" Name="E">
          2.55182702e+05 2.58039570e+05 2.61110037e+05 2.64426635e+05 
        </DataArray>
      </PointData>
    </Piece>
    <Piece NumberOfPoints="4" NumberOfCells="3">
      <Points>
        <DataArray type="Float64" NumberOfComponents="3" format="ascii">
          4.98276278e-02 -3.54015976e-02 0.00000000e+00 
4.60115410e-02 -3.42054628e-02 0.00000000e+00 
4.22164090e-02 -3.29444520e-02 0.00000000e+00 
3.84457745e-02 -3.16120051e-02 0.00000000e+00 

        </DataArray>
      </Points>
      <Cells>
        <DataArray type="Int32" Name="connectivity" format="ascii">
0 1
1 2
2 3

        </DataArray>
        <DataArray type="Int32" Name="offsets" format="ascii">
2 4 6 
        </DataArray>
        <DataArray type="UInt8" Name="types" format="ascii">
3 3 3 
        </DataArray>
      </Cells>
      <PointData>
        <DataArray type="Float64" Name="rho">
          1.15135336e+00 1.16619690e+00 1.18225929e+00 1.19973198e+00 
        </DataArray>
        <DataArray type="Float64" Name="rhou">
          -1.93765488e-02 -3.35291141e-02 -5.25310814e-02 -7.52570174e-02 
        </DataArray>
        <DataArray type="Float64" Name="rhov">
          3.14555338e-02 4.81682161e-02 7.58719162e-02 1.16391031e-01 
        </DataArray>
        <DataArray type="Float64" Name="E">
          2.64426582e+05 2.68016840e+05 2.71906666e+05 2.76144326e+05 
        </DataArray>
      </PointData>
    </Piece>
    <Piece NumberOfPoints="4" NumberOfCells="3">
      <Points>
        <DataArray type="Float64" NumberOfComponents="3" format="ascii">
          3.84457745e-02 -3.16120051e-02 0.00000000e+00 
3.47041376e-02 -3.02002355e-02 0.00000000e+00 
3.09973080e-02 -2.86995135e-02 0.00000000e+00 
2.73328498e-02 -2.70981900e-02 0.00000000e+00 

        </DataArray>
      </Points>
      <Cells>
        <DataArray type="Int32" Name="connectivity" format="ascii">
0 1
1 2
2 3

        </DataArray>
        <DataArray type="Int32" Name="offsets" format="ascii">
2 4 6 
        </DataArray>
        <DataArray type="UInt8" Name="types" format="ascii">
3 3 3 
        </DataArray>
      </Cells>
      <PointData>
        <DataArray type="Float64" Name="rho">
          1.19973220e+00 1.21880448e+00 1.23966969e+00 1.26269936e+00 
        </DataArray>
        <DataArray type="Float64" Name="rhou">
          -7.62092011e-02 -1.00353388e-01 -1.28969887e-01 -1.54329796e-01 
        </DataArray>
        <DataArray type="Float64" Name="rhov">
          1.16309260e-01 1.71916166e-01 2.57909900e-01 3.78277091e-01 
        </DataArray>
        <DataArray type="Float64" Name="E">
          2.76144243e+05 2.80781603e+05 2.85863416e+05 2.91483854e+05 
        </DataArray>
      </PointData>
    </Piece>
    <Piece NumberOfPoints="4" NumberOfCells="3">
      <Points>
        <DataArray type="Float64" NumberOfComponents="3" format="ascii">
          2.73328498e-02 -2.70981900e-02 0.00000000e+00 
2.37206947e-02 -2.53822580e-02 0.00000000e+00 
2.01744195e-02 -2.35341713e-02 0.00000000e+00 
1.67132635e-02 -2.15314496e-02 0.00000000e+00 

        </DataArray>
      </Points>
      <Cells>
        <DataArray type="Int32" Name="connectivity" format="ascii">
0 1
1 2
2 3

        </DataArray>
        <DataArray type="Int32" Name="offsets" format="ascii">
2 4 6 
        </DataArray>
        <DataArray type="UInt8" Name="types" format="ascii">
3 3 3 
        </DataArray>
      </Cells>
      <PointData>
        <DataArray type="Float64" Name="rho">
          1.26270423e+00 1.28823815e+00 1.31673236e+00 1.34953154e+00 
        </DataArray>
        <DataArray type="Float64" Name="rhou">
          -1.54713840e-01 -1.68688072e-01 -1.52876781e-01 -5.66964270e-02 
        </DataArray>
        <DataArray type="Float64" Name="rhov">
          3.78951280e-01 5.30839659e-01 7.41575646e-01 9.59928705e-01 
        </DataArray>
        <DataArray type="Float64" Name="E">
          2.91484756e+05 2.97738438e+05 3.04729740e+05 3.12787176e+05 
        </DataArray>
      </PointData>
    </Piece>
    <Piece NumberOfPoints="4" NumberOfCells="3">
      <Points>
        <DataArray type="Float64" NumberOfComponents="3" format="ascii">
          1.67132635e-02 -2.15314496e-02 0.00000000e+00 
1.33649679e-02 -1.93456318e-02 0.00000000e+00 
1.01706637e-02 -1.69409402e-02 0.00000000e+00 
7.19343964e-03 -1.42731192e-02 0.00000000e+00 

        </DataArray>
      </Points>
      <Cells>
        <DataArray type="Int32" Name="connectivity" format="ascii">
0 1
1 2
2 3

        </DataArray>
        <DataArray type="Int32" Name="offsets" format="ascii">
2 4 6 
        </DataArray>
        <DataArray type="UInt8" Name="types" format="ascii">
3 3 3 
        </DataArray>
      </Cells>
      <PointData>
        <DataArray type="Float64" Name="rho">
          1.34942562e+00 1.38926641e+00 1.43648205e+00 1.50155992e+00 
        </DataArray>
        <DataArray type="Float64" Name="rhou">
          -3.41179543e-02 1.14548618e-01 4.55990130e-01 8.76269730e-01 
        </DataArray>
        <DataArray type="Float64" Name="rhov">
          9.21643163e-01 1.12444261e+00 1.06908215e+00 5.18199167e-01 
        </DataArray>
        <DataArray type="Float64" Name="E">
          3.12762952e+05 3.22553109e+05 3.34148125e+05 3.50014272e+05 
        </DataArray>
      </PointData>
    </Piece>
    <Piece NumberOfPoints="4" NumberOfCells="3">
      <Points>
        <DataArray type="Float64" NumberOfComponents="3" format="ascii">
          7.19343964e-03 -1.42731192e-02 0.00000000e+00 
4.53082798e-03 -1.12927537e-02 0.00000000e+00 
2.33371323e-03 -7.95678515e-03 0.00000000e+00 
8.10639584e-04 -4.26717056e-03 0.00000000e+00 

        </DataArray>
      </Points>
      <Cells>
        <DataArray type="Int32" Name="connectivity" format="ascii">
0 1
1 2
2 3

        </DataArray>
        <DataArray type="Int32" Name="offsets" format="ascii">
2 4 6 
        </DataArray>
        <DataArray type="UInt8" Name="types" format="ascii">
3 3 3 
        </DataArray>
      </Cells>
      <PointData>
        <DataArray type="Float64" Name="rho">
          1.50207965e+00 1.57649370e+00 1.66557088e+00 1.73426929e+00 
        </DataArray>
        <DataArray type="Float64" Name="rhou">
          8.01218033e-01 9.30593174e-01 2.57552757e-01 -1.27846772e+00 
        </DataArray>
        <DataArray type="Float64" Name="rhov">
          6.17045228e-01 -5.12951473e-01 -1.73181804e+00 -1.81899290e+00 
        </DataArray>
        <DataArray type="Float64" Name="E">
          3.50141692e+05 3.68319750e+05 3.89957352e+05 4.06667532e+05 
        </DataArray>
      </PointData>
    </Piece>
    <Piece NumberOfPoints="4" NumberOfCells="3">
      <Points>
        <DataArray type="Float64" NumberOfComponents="3" format="ascii">
          8.10639584e-04 -4.26717056e-03 0.00000000e+00 
1.91366620e-04 -3.27450951e-04 0.00000000e+00 
6.40850572e-04 3.63462302e-03 0.00000000e+00 
2.03182548e-03 7.37539819e-03 0.00000000e+00 

        </DataArray>
      </Points>
      <Cells>
        <DataArray type="Int32" Name="connectivity" format="ascii">
0 1
1 2
2 3

        </DataArray>
        <DataArray type="Int32" Name="offsets" format="ascii">
2 4 6 
        </DataArray>
        <DataArray type="UInt8" Name="types" format="ascii">
3 3 3 
        </DataArray>
      </Cells>
      <PointData>
        <DataArray type="Float64" Name="rho">
          1.73269157e+00 1.75761734e+00 1.70716785e+00 1.61469299e+00 
        </DataArray>
        <DataArray type="Float64" Name="rhou">
          -1.15273774e+00 -1.88205514e+00 -8.35914458e-01 7.53577670e-01 
        </DataArray>
        <DataArray type="Float64" Name="rhov">
          -1.97736842e+00 3.65895599e-01 1.88551476e+00 1.51671002e+00 
        </DataArray>
        <DataArray type="Float64" Name="E">
          4.06285293e+05 4.12256921e+05 3.99916940e+05 3.77317787e+05 
        </DataArray>
      </PointData>
    </Piece>
    <Piece NumberOfPoints="4" NumberOfCells="3">
      <Points>
        <DataArray type="Float64" NumberOfComponents="3" format="ascii">
          2.03182548e-03 7.37539819e-03 0.00000000e+00 
4.13410179e-03 1.07714310e-02 0.00000000e+00 
6.73249783e-03 1.38076087e-02 0.00000000e+00 
9.66598373e-03 1.65232457e-02 0.00000000e+00 

        </DataArray>
      </Points>
      <Cells>
        <DataArray type="Int32" Name="connectivity" format="ascii">
0 1
1 2
2 3

        </DataArray>
        <DataArray type="Int32" Name="offsets" format="ascii">
2 4 6 
        </DataArray>
        <DataArray type="UInt8" Name="types" format="ascii">
3 3 3 
        </DataArray>
      </Cells>
      <PointData>
        <DataArray type="Float64" Name="rho">
          1.61505574e+00 1.50792924e+00 1.41870329e+00 1.35176833e+00 
        </DataArray>
        <DataArray type="Float64" Name="rhou">
          7.25894806e-01 1.15713688e+00 8.41603838e-01 3.76240543e-01 
        </DataArray>
        <DataArray type="Float64" Name="rhov">
          1.75183104e+00 6.18952120e-02 -1.07682681e+00 -1.40192446e+00 
        </DataArray>
        <DataArray type="Float64" Name="E">
          3.77409102e+05 3.51386720e+05 3.29675543e+05 3.13307205e+05 
        </DataArray>
      </PointData>
    </Piece>
    <Piece NumberOfPoints="4" NumberOfCells="3">
      <Points>
        <DataArray type="Float64" NumberOfComponents="3" format="ascii">
          9.66598373e-03 1.65232457e-02 0.00000000e+00 
1.28298048e-02 1.89677756e-02 0.00000000e+00 
1.61561389e-02 2.11867876e-02 0.00000000e+00 
1.96009967e-02 2.32173651e-02 0.00000000e+00 

        </DataArray>
      </Points>
      <Cells>
        <DataArray type="Int32" Name="connectivity" format="ascii">
0 1
1 2
2 3

        </DataArray>
        <DataArray type="Int32" Name="offsets" format="ascii">
2 4 6 
        </DataArray>
        <DataArray type="UInt8" Name="types" format="ascii">
3 3 3 
        </DataArray>
      </Cells>
      <PointData>
        <DataArray type="Float64" Name="rho">
          1.35156288e+00 1.29912413e+00 1.26017877e+00 1.22589973e+00 
        </DataArray>
        <DataArray type="Float64" Name="rhou">
          3.85811665e-01 -1.63993688e-02 -1.98330103e-01 -2.19029743e-01 
        </DataArray>
        <DataArray type="Float64" Name="rhov">
          -1.42658399e+00 -1.32165792e+00 -9.91155740e-01 -6.65432504e-01 
        </DataArray>
        <DataArray type="Float64" Name="E">
          3.13254970e+05 3.00432306e+05 2.90859473e+05 2.82459671e+05 
        </DataArray>
      </PointData>
    </Piece>
    <Piece NumberOfPoints="4" NumberOfCells="3">
      <Points>
        <DataArray type="Float64" NumberOfComponents="3" format="ascii">
          1.96009967e-02 2.32173651e-02 0.00000000e+00 
2.31348258e-02 2.50891000e-02 0.00000000e+00 
2.67372411e-02 2.68253610e-02 0.00000000e+00 
3.03938854e-02 2.84444261e-02 0.00000000e+00 

        </DataArray>
      </Points>
      <Cells>
        <DataArray type="Int32" Name="connectivity" format="ascii">
0 1
1 2
2 3

        </DataArray>
        <DataArray type="Int32" Name="offsets" format="ascii">
2 4 6 
        </DataArray>
        <DataArray type="UInt8" Name="types" format="ascii">
3 3 3 
        </DataArray>
      </Cells>
      <PointData>
        <DataArray type="Float64" Name="rho">
          1.22596356e+00 1.19687300e+00 1.17085917e+00 1.14730414e+00 
        </DataArray>
        <DataArray type="Float64" Name="rhou">
          -2.32169570e-01 -2.18771600e-01 -1.73584987e-01 -1.31371933e-01 
        </DataArray>
        <DataArray type="Float64" Name="rhov">
          -6.83695587e-01 -4.32381773e-01 -2.45588915e-01 -1.32721490e-01 
        </DataArray>
        <DataArray type="Float64" Name="E">
          2.82474614e+05 2.75365660e+05 2.69031476e+05 2.63313004e+05 
        </DataArray>
      </PointData>
    </Piece>
    <Piece NumberOfPoints="4" NumberOfCells="3">
      <Points>
        <DataArray type="Float64" NumberOfComponents="3" format="ascii">
          3.03938854e-02 2.84444261e-02 0.00000000e+00 
3.40943485e-02 2.99607720e-02 0.00000000e+00 
3.78307216e-02 3.13864015e-02 0.00000000e+00 
4.15969416e-02 3.27312648e-02 0.00000000e+00 

        </DataArray>
      </Points>
      <Cells>
        <DataArray type="Int32" Name="connectivity" format="ascii">
0 1
1 2
2 3

        </DataArray>
        <DataArray type="Int32" Name="offsets" format="ascii">
2 4 6 
        </DataArray>
        <DataArray type="UInt8" Name="types" format="ascii">
3 3 3 
        </DataArray>
      </Cells>
      <PointData>
        <DataArray type="Float64" Name="rho">
          1.14730240e+00 1.12599189e+00 1.10663816e+00 1.08899796e+00 
        </DataArray>
        <DataArray type="Float64" Name="rhou">
          -1.29575560e-01 -8.94188748e-02 -5.66147692e-02 -3.36288507e-02 
        </DataArray>
        <DataArray type="Float64" Name="rhov">
          -1.31267525e-01 -5.49875819e-02 -7.80668048e-03 1.76581647e-02 
        </DataArray>
        <DataArray type="Float64" Name="E">
          2.63312851e+05 2.58157914e+05 2.53487575e+05 2.49238507e+05 
        </DataArray>
      </PointData>
    </Piece>
    <Piece NumberOfPoints="4" NumberOfCells="3">
      <Points>
        <DataArray type="Float64" NumberOfComponents="3" format="ascii">
          4.15969416e-02 3.27312648e-02 0.00000000e+00 
4.53883260e-02 3.40034962e-02 0.00000000e+00 
4.92011942e-02 3.52098532e-02 0.00000000e+00 
5.30325845e-02 3.63560505e-02 0.00000000e+00 

        </DataArray>
      </Points>
      <Cells>
        <DataArray type="Int32" Name="connectivity" format="ascii">
0 1
1 2
2 3

        </DataArray>
        <DataArray type="Int32" Name="offsets" format="ascii">
2 4 6 
        </DataArray>
        <DataArray type="UInt8" Name="types" format="ascii">
3 3 3 
        </DataArray>
      </Cells>
      <PointData>
        <DataArray type="Float64" Name="rho">
          1.08899853e+00 1.07288212e+00 1.05810171e+00 1.04449843e+00 
        </DataArray>
        <DataArray type="Float64" Name="rhou">
          -3.24880512e-02 -1.30207462e-02 1.44321566e-03 1.08498087e-02 
        </DataArray>
        <DataArray type="Float64" Name="rhov">
          1.75638147e-02 3.13075343e-02 3.80088087e-02 3.91978699e-02 
        </DataArray>
        <DataArray type="Float64" Name="E">
          2.49238719e+05 2.45365198e+05 2.41818276e+05 2.38557953e+05 
        </DataArray>
      </PointData>
    </Piece>
    <Piece NumberOfPoints="4" NumberOfCells="3">
      <Points>
        <DataArray type="Float64" NumberOfComponents="3" format="ascii">
          5.30325845e-02 3.63560505e-02 0.00000000e+00 
5.68800643e-02 3.74470428e-02 0.00000000e+00 
6.07415959e-02 3.84872220e-02 0.00000000e+00 
6.46155030e-02 3.94803248e-02 0.00000000e+00 

        </DataArray>
      </Points>
      <Cells>
        <DataArray type="Int32" Name="connectivity" format="ascii">
0 1
1 2
2 3

        </DataArray>
        <DataArray type="Int32" Name="offsets" format="ascii">
2 4 6 
        </DataArray>
        <DataArray type="UInt8" Name="types" format="ascii">
3 3 3 
        </DataArray>
      </Cells>
      <PointData>
        <DataArray type="Float64" Name="rho">
          1.04449913e+00 1.03198430e+00 1.02042608e+00 1.00968372e+00 
        </DataArray>
        <DataArray type="Float64" Name="rhou">
          1.11680779e-02 1.81881845e-02 2.37494667e-02 2.76027854e-02 
        </DataArray>
        <DataArray type="Float64" Name="rhov">
          3.88711131e-02 3.72275512e-02 3.51902534e-02 3.19772539e-02 
        </DataArray>
        <DataArray type="Float64" Name="E">
          2.38558112e+05 2.35562851e+05 2.32799330e+05 2.30233381e+05 
        </DataArray>
      </PointData>
    </Piece>
    <Piece NumberOfPoints="4" NumberOfCells="3">
      <Points>
        <DataArray type="Float64" NumberOfComponents="3" format="ascii">
          6.46155030e-02 3.94803248e-02 0.00000000e+00 
6.85004294e-02 4.04294394e-02 0.00000000e+00 
7.23951608e-02 4.13374715e-02 0.00000000e+00 
7.62986317e-02 4.22072113e-02 0.00000000e+00 

        </DataArray>
      </Points>
      <Cells>
        <DataArray type="Int32" Name="connectivity" format="ascii">
0 1
1 2
2 3

        </DataArray>
        <DataArray type="Int32" Name="offsets" format="ascii">
2 4 6 
        </DataArray>
        <DataArray type="UInt8" Name="types" format="ascii">
3 3 3 
        </DataArray>
      </Cells>
      <PointData>
        <DataArray type="Float64" Name="rho">
          1.00968443e+00 9.99716220e-01 9.90432972e-01 9.81779065e-01 
        </DataArray>
        <DataArray type="Float64" Name="rhou">
          2.74228270e-02 2.93857344e-02 3.04989790e-02 3.06057680e-02 
        </DataArray>
        <DataArray type="Float64" Name="rhov">
          3.16784908e-02 2.77787600e-02 2.44071100e-02 2.11029191e-02 
        </DataArray>
        <DataArray type="Float64" Name="E">
          2.30233528e+05 2.27855066e+05 2.25641841e+05 2.23579907e+05 
        </DataArray>
      </PointData>
    </Piece>
    <Piece NumberOfPoints="4" NumberOfCells="3">
      <Points>
        <DataArray type="Float64" NumberOfComponents="3" format="ascii">
          7.62986317e-02 4.22072113e-02 0.00000000e+00 
8.02098960e-02 4.30411920e-02 0.00000000e+00 
8.41281936e-02 4.38414887e-02 0.00000000e+00 
8.80528912e-02 4.46097627e-02 0.00000000e+00 

        </DataArray>
      </Points>
      <Cells>
        <DataArray type="Int32" Name="connectivity" format="ascii">
0 1
1 2
2 3

        </DataArray>
        <DataArray type="Int32" Name="offsets" format="ascii">
2 4 6 
        </DataArray>
        <DataArray type="UInt8" Name="types" format="ascii">
3 3 3 
        </DataArray>
      </Cells>
      <PointData>
        <DataArray type="Float64" Name="rho">
          9.81778124e-01 9.73707113e-01 9.66124434e-01 9.58984199e-01 
        </DataArray>
        <DataArray type="Float64" Name="rhou">
          3.04592488e-02 3.04949237e-02 3.02312230e-02 2.91757127e-02 
        </DataArray>
        <DataArray type="Float64" Name="rhov">
          2.09395414e-02 1.83787790e-02 1.58685094e-02 1.31859814e-02 
        </DataArray>
        <DataArray type="Float64" Name="E">
          2.23579672e+05 2.21658083e+05 2.19854002e+05 2.18156304e+05 
        </DataArray>
      </PointData>
    </Piece>
    <Piece NumberOfPoints="4" NumberOfCells="3">
      <Points>
        <DataArray type="Float64" NumberOfComponents="3" format="ascii">
          8.80528912e-02 4.46097627e-02 0.00000000e+00 
9.19835642e-02 4.53475714e-02 0.00000000e+00 
9.59195644e-02 4.60564308e-02 0.00000000e+00 
9.98597518e-02 4.67394181e-02 0.00000000e+00 

        </DataArray>
      </Points>
      <Cells>
        <DataArray type="Int32" Name="connectivity" format="ascii">
0 1
1 2
2 3

        </DataArray>
        <DataArray type="Int32" Name="offsets" format="ascii">
2 4 6 
        </DataArray>
        <DataArray type="UInt8" Name="types" format="ascii">
3 3 3 
        </DataArray>
      </Cells>
      <PointData>
        <DataArray type="Float64" Name="rho">
          9.58984698e-01 9.52276901e-01 9.45988753e-01 9.40020851e-01 
        </DataArray>
        <DataArray type="Float64" Name="rhou">
          2.89815125e-02 2.75674858e-02 2.40989483e-02 2.86269274e-02 
        </DataArray>
        <DataArray type="Float64" Name="rhov">
          1.33490678e-02 1.07688612e-02 9.18262050e-03 8.67966290e-03 
        </DataArray>
        <DataArray type="Float64" Name="E">
          2.18156420e+05 2.16562727e+05 2.15069144e+05 2.13652628e+05 
        </DataArray>
      </PointData>
    </Piece>
    <Piece NumberOfPoints="4" NumberOfCells="3">
      <Points>
        <DataArray type="Float64" NumberOfComponents="3" format="ascii">
          9.98597518e-02 4.67394181e-02 0.00000000e+00 
1.10118888e-01 4.83862534e-02 0.00000000e+00 
1.20400399e-01 4.98730615e-02 0.00000000e+00 
1.30701363e-01 5.12186773e-02 0.00000000e+00 

        </DataArray>
      </Points>
      <Cells>
        <DataArray type="Int32" Name="connectivity" format="ascii">
0 1
1 2
2 3

        </DataArray>
        <DataArray type="Int32" Name="offsets" format="ascii">
2 4 6 
        </DataArray>
        <DataArray type="UInt8" Name="types" format="ascii">
3 3 3 
        </DataArray>
      </Cells>
      <PointData>
        <DataArray type="Float64" Name="rho">
          9.39948143e-01 9.26028583e-01 9.14019431e-01 9.03693830e-01 
        </DataArray>
        <DataArray type="Float64" Name="rhou">
          2.63553949e-02 1.81836786e-02 1.60594196e-02 1.25956329e-02 
        </DataArray>
        <DataArray type="Float64" Name="rhov">
          7.44151956e-03 4.20771821e-03 3.69725726e-03 3.02205695e-03 
        </DataArray>
        <DataArray type="Float64" Name="E">
          2.13636193e+05 2.10336080e+05 2.07492128e+05 2.05049241e+05 
        </DataArray>
      </PointData>
    </Piece>
    <Piece NumberOfPoints="4" NumberOfCells="3">
      <Points>
        <DataArray type="Float64" NumberOfComponents="3" format="ascii">
          1.30701363e-01 5.12186773e-02 0.00000000e+00 
1.41019106e-01 5.24347536e-02 0.00000000e+00 
1.51350453e-01 5.35292812e-02 0.00000000e+00 
1.61692888e-01 5.45137413e-02 0.00000000e+00 

        </DataArray>
      </Points>
      <Cells>
        <DataArray type="Int32" Name="connectivity" format="ascii">
0 1
1 2
2 3

        </DataArray>
        <DataArray type="Int32" Name="offsets" format="ascii">
2 4 6 
        </DataArray>
        <DataArray type="UInt8" Name="types" format="ascii">
3 3 3 
        </DataArray>
      </Cells>
      <PointData>
        <DataArray type="Float64" Name="rho">
          9.03690331e-01 8.94621488e-01 8.86784655e-01 8.80071361e-01 
        </DataArray>
        <DataArray type="Float64" Name="rhou">
          1.39790456e-02 1.20835093e-02 1.00084365e-02 8.74284378e-03 
        </DataArray>
        <DataArray type="Float64" Name="rhov">
          3.52234127e-03 2.59032401e-03 1.80748219e-03 1.62756790e-03 
        </DataArray>
        <DataArray type="Float64" Name="E">
          2.05048401e+05 2.02905974e+05 2.01056745e+05 1.99474048e+05 
        </DataArray>
      </PointData>
    </Piece>
    <Piece NumberOfPoints="4" NumberOfCells="3">
      <Points>
        <DataArray type="Float64" NumberOfComponents="3" format="ascii">
          1.61692888e-01 5.45137413e-02 0.00000000e+00 
1.72044471e-01 5.53969070e-02 0.00000000e+00 
1.82403773e-01 5.61845005e-02 0.00000000e+00 
1.92769483e-01 5.68825118e-02 0.00000000e+00 

        </DataArray>
      </Points>
      <Cells>
        <DataArray type="Int32" Name="connectivity" format="ascii">
0 1
1 2
2 3

        </DataArray>
        <DataArray type="Int32" Name="offsets" format="ascii">
2 4 6 
        </DataArray>
        <DataArray type="UInt8" Name="types" format="ascii">
3 3 3 
        </DataArray>
      </Cells>
      <PointData>
        <DataArray type="Float64" Name="rho">
          8.80068954e-01 8.74284233e-01 8.69337570e-01 8.65176513e-01 
        </DataArray>
        <DataArray type="Float64" Name="rhou">
          8.77950823e-03 7.64758781e-03 6.61182201e-03 5.70787849e-03 
        </DataArray>
        <DataArray type="Float64" Name="rhov">
          1.67924562e-03 1.30983841e-03 9.26826310e-04 6.94306613e-04 
        </DataArray>
        <DataArray type="Float64" Name="E">
          1.99473508e+05 1.98111375e+05 1.96948286e+05 1.95971337e+05 
        </DataArray>
      </PointData>
    </Piece>
    <Piece NumberOfPoints="4" NumberOfCells="3">
      <Points>
        <DataArray type="Float64" NumberOfComponents="3" format="ascii">
          1.92769483e-01 5.68825118e-02 0.00000000e+00 
2.03140482e-01 5.74972220e-02 0.00000000e+00 
2.13515818e-01 5.80338500e-02 0.00000000e+00 
2.23894730e-01 5.84962890e-02 0.00000000e+00 

        </DataArray>
      </Points>
      <Cells>
        <DataArray type="Int32" Name="connectivity" format="ascii">
0 1
1 2
2 3

        </DataArray>
        <DataArray type="Int32" Name="offsets" format="ascii">
2 4 6 
        </DataArray>
        <DataArray type="UInt8" Name="types" format="ascii">
3 3 3 
        </DataArray>
      </Cells>
      <PointData>
        <DataArray type="Float64" Name="rho">
          8.65175824e-01 8.61720929e-01 8.58888604e-01 8.56621013e-01 
        </DataArray>
        <DataArray type="Float64" Name="rhou">
          5.74459612e-03 5.02133946e-03 4.46332269e-03 4.00158241e-03 
        </DataArray>
        <DataArray type="Float64" Name="rhov">
          7.35766785e-04 6.42840510e-04 5.24091982e-04 3.98436704e-04 
        </DataArray>
        <DataArray type="Float64" Name="E">
          1.95971178e+05 1.95161323e+05 1.94498894e+05 1.93970129e+05 
        </DataArray>
      </PointData>
    </Piece>
    <Piece NumberOfPoints="4" NumberOfCells="3">
      <Points>
        <DataArray type="Float64" NumberOfComponents="3" format="ascii">
          2.23894730e-01 5.84962890e-02 0.00000000e+00 
2.34276548e-01 5.88882305e-02 0.00000000e+00 
2.44660646e-01 5.92139624e-02 0.00000000e+00 
2.55046517e-01 5.94772622e-02 0.00000000e+00 

        </DataArray>
      </Points>
      <Cells>
        <DataArray type="Int32" Name="connectivity" format="ascii">
0 1
1 2
2 3

        </DataArray>
        <DataArray type="Int32" Name="offsets" format="ascii">
2 4 6 
        </DataArray>
        <DataArray type="UInt8" Name="types" format="ascii">
3 3 3 
        </DataArray>
      </Cells>
      <PointData>
        <DataArray type="Float64" Name="rho">
          8.56621587e-01 8.54877026e-01 8.53611624e-01 8.52770637e-01 
        </DataArray>
        <DataArray type="Float64" Name="rhou">
          4.00914432e-03 3.48573916e-03 3.10578724e-03 2.87518083e-03 
        </DataArray>
        <DataArray type="Float64" Name="rhov">
          4.12802730e-04 3.32523523e-04 3.13336324e-04 3.10243101e-04 
        </DataArray>
        <DataArray type="Float64" Name="E">
          1.93970260e+05 1.93565101e+05 1.93273086e+05 1.93081317e+05 
        </DataArray>
      </PointData>
    </Piece>
    <Piece NumberOfPoints="4" NumberOfCells="3">
      <Points>
        <DataArray type="Float64" NumberOfComponents="3" format="ascii">
          2.55046517e-01 5.94772622e-02 0.00000000e+00 
2.65433758e-01 5.96804135e-02 0.00000000e+00 
2.75821954e-01 5.98256700e-02 0.00000000e+00 
2.86210775e-01 5.99167012e-02 0.00000000e+00 

        </DataArray>
      </Points>
      <Cells>
        <DataArray type="Int32" Name="connectivity" format="ascii">
0 1
1 2
2 3

        </DataArray>
        <DataArray type="Int32" Name="offsets" format="ascii">
2 4 6 
        </DataArray>
        <DataArray type="UInt8" Name="types" format="ascii">
3 3 3 
        </DataArray>
      </Cells>
      <PointData>
        <DataArray type="Float64" Name="rho">
          8.52770649e-01 8.52306493e-01 8.52195215e-01 8.52417192e-01 
        </DataArray>
        <DataArray type="Float64" Name="rhou">
          2.86931191e-03 2.58091512e-03 2.28526230e-03 2.02001542e-03 
        </DataArray>
        <DataArray type="Float64" Name="rhov">
          3.21550190e-04 2.24461733e-04 1.64826934e-04 1.97789820e-04 
        </DataArray>
        <DataArray type="Float64" Name="E">
          1.93081323e+05 1.92978615e+05 1.92959233e+05 1.93018348e+05 
        </DataArray>
      </PointData>
    </Piece>
    <Piece NumberOfPoints="4" NumberOfCells="3">
      <Points>
        <DataArray type="Float64" NumberOfComponents="3" format="ascii">
          2.86210775e-01 5.99167012e-02 0.00000000e+00 
2.96599895e-01 5.99572174e-02 0.00000000e+00 
3.06989133e-01 5.99487796e-02 0.00000000e+00 
3.17378193e-01 5.98919280e-02 0.00000000e+00 

        </DataArray>
      </Points>
      <Cells>
        <DataArray type="Int32" Name="connectivity" format="ascii">
0 1
1 2
2 3

        </DataArray>
        <DataArray type="Int32" Name="offsets" format="ascii">
2 4 6 
        </DataArray>
        <DataArray type="UInt8" Name="types" format="ascii">
3 3 3 
        </DataArray>
      </Cells>
      <PointData>
        <DataArray type="Float64" Name="rho">
          8.52416166e-01 8.52923002e-01 8.53668554e-01 8.54638469e-01 
        </DataArray>
        <DataArray type="Float64" Name="rhou">
          2.03893170e-03 1.92238415e-03 1.79493004e-03 1.61165772e-03 
        </DataArray>
        <DataArray type="Float64" Name="rhov">
          2.14189337e-04 2.40922357e-04 1.85890692e-04 1.10729726e-04 
        </DataArray>
        <DataArray type="Float64" Name="E">
          1.93018115e+05 1.93144369e+05 1.93327097e+05 1.93562852e+05 
        </DataArray>
      </PointData>
    </Piece>
    <Piece NumberOfPoints="4" NumberOfCells="3">
      <Points>
        <DataArray type="Float64" NumberOfComponents="3" format="ascii">
          3.17378193e-01 5.98919280e-02 0.00000000e+00 
3.27766895e-01 5.97884916e-02 0.00000000e+00 
3.38155061e-01 5.96415885e-02 0.00000000e+00 
3.48542601e-01 5.94538599e-02 0.00000000e+00 

        </DataArray>
      </Points>
      <Cells>
        <DataArray type="Int32" Name="connectivity" format="ascii">
0 1
1 2
2 3

        </DataArray>
        <DataArray type="Int32" Name="offsets" format="ascii">
2 4 6 
        </DataArray>
        <DataArray type="UInt8" Name="types" format="ascii">
3 3 3 
        </DataArray>
      </Cells>
      <PointData>
        <DataArray type="Float64" Name="rho">
          8.54638818e-01 8.55821077e-01 8.57196102e-01 8.58731541e-01 
        </DataArray>
        <DataArray type="Float64" Name="rhou">
          1.64134111e-03 1.44366919e-03 1.32581345e-03 1.27848514e-03 
        </DataArray>
        <DataArray type="Float64" Name="rhov">
          1.18396354e-04 1.06855209e-04 1.32696266e-04 1.53589289e-04 
        </DataArray>
        <DataArray type="Float64" Name="E">
          1.93562931e+05 1.93848773e+05 1.94180039e+05 1.94549180e+05 
        </DataArray>
      </PointData>
    </Piece>
    <Piece NumberOfPoints="4" NumberOfCells="3">
      <Points>
        <DataArray type="Float64" NumberOfComponents="3" format="ascii">
          3.48542601e-01 5.94538599e-02 0.00000000e+00 
3.58929336e-01 5.92265576e-02 0.00000000e+00 
3.69315147e-01 5.89610897e-02 0.00000000e+00 
3.79699975e-01 5.86590059e-02 0.00000000e+00 

        </DataArray>
      </Points>
      <Cells>
        <DataArray type="Int32" Name="connectivity" format="ascii">
0 1
1 2
2 3

        </DataArray>
        <DataArray type="Int32" Name="offsets" format="ascii">
2 4 6 
        </DataArray>
        <DataArray type="UInt8" Name="types" format="ascii">
3 3 3 
        </DataArray>
      </Cells>
      <PointData>
        <DataArray type="Float64" Name="rho">
          8.58731789e-01 8.60402607e-01 8.62199599e-01 8.64103220e-01 
        </DataArray>
        <DataArray type="Float64" Name="rhou">
          1.29105979e-03 1.16587753e-03 1.07125656e-03 1.02245526e-03 
        </DataArray>
        <DataArray type="Float64" Name="rhov">
          1.50474949e-04 1.14420258e-04 1.07269423e-04 1.06056926e-04 
        </DataArray>
        <DataArray type="Float64" Name="E">
          1.94549237e+05 1.94950407e+05 1.95381375e+05 1.95837572e+05 
        </DataArray>
      </PointData>
    </Piece>
    <Piece NumberOfPoints="4" NumberOfCells="3">
      <Points>
        <DataArray type="Float64" NumberOfComponents="3" format="ascii">
          3.79699975e-01 5.86590059e-02 0.00000000e+00 
3.90083700e-01 5.83211333e-02 0.00000000e+00 
4.00466233e-01 5.79482466e-02 0.00000000e+00 
4.10847515e-01 5.75418957e-02 0.00000000e+00 

        </DataArray>
      </Points>
      <Cells>
        <DataArray type="Int32" Name="connectivity" format="ascii">
0 1
1 2
2 3

        </DataArray>
        <DataArray type="Int32" Name="offsets" format="ascii">
2 4 6 
        </DataArray>
        <DataArray type="UInt8" Name="types" format="ascii">
3 3 3 
        </DataArray>
      </Cells>
      <PointData>
        <DataArray type="Float64" Name="rho">
          8.64103232e-01 8.66096890e-01 8.68170927e-01 8.70318998e-01 
        </DataArray>
        <DataArray type="Float64" Name="rhou">
          1.01482716e-03 9.49950444e-04 8.70622729e-04 7.93932525e-04 
        </DataArray>
        <DataArray type="Float64" Name="rhov">
          1.08509361e-04 7.84182310e-05 5.59537138e-05 6.19423238e-05 
        </DataArray>
        <DataArray type="Float64" Name="E">
          1.95837575e+05 1.96315123e+05 1.96811735e+05 1.97325861e+05 
        </DataArray>
      </PointData>
    </Piece>
    <Piece NumberOfPoints="4" NumberOfCells="3">
      <Points>
        <DataArray type="Float64" NumberOfComponents="3" format="ascii">
          4.10847515e-01 5.75418957e-02 0.00000000e+00 
4.21227485e-01 5.71038015e-02 0.00000000e+00 
4.31606144e-01 5.66351078e-02 0.00000000e+00 
4.41983402e-01 5.61364293e-02 0.00000000e+00 

        </DataArray>
      </Points>
      <Cells>
        <DataArray type="Int32" Name="connectivity" format="ascii">
0 1
1 2
2 3

        </DataArray>
        <DataArray type="Int32" Name="offsets" format="ascii">
2 4 6 
        </DataArray>
        <DataArray type="UInt8" Name="types" format="ascii">
3 3 3 
        </DataArray>
      </Cells>
      <PointData>
        <DataArray type="Float64" Name="rho">
          8.70318796e-01 8.72525376e-01 8.74778865e-01 8.77069590e-01 
        </DataArray>
        <DataArray type="Float64" Name="rhou">
          8.10773607e-04 7.58840358e-04 7.19679679e-04 6.82336359e-04 
        </DataArray>
        <DataArray type="Float64" Name="rhov">
          6.53905285e-05 6.61809717e-05 5.71704488e-05 3.66131802e-05 
        </DataArray>
        <DataArray type="Float64" Name="E">
          1.97325815e+05 1.97853826e+05 1.98393007e+05 1.98941089e+05 
        </DataArray>
      </PointData>
    </Piece>
    <Piece NumberOfPoints="4" NumberOfCells="3">
      <Points>
        <DataArray type="Float64" NumberOfComponents="3" format="ascii">
          4.41983402e-01 5.61364293e-02 0.00000000e+00 
4.52359200e-01 5.56085743e-02 0.00000000e+00 
4.62733537e-01 5.50529286e-02 0.00000000e+00 
4.73106444e-01 5.44707514e-02 0.00000000e+00 

        </DataArray>
      </Points>
      <Cells>
        <DataArray type="Int32" Name="connectivity" format="ascii">
0 1
1 2
2 3

        </DataArray>
        <DataArray type="Int32" Name="offsets" format="ascii">
2 4 6 
        </DataArray>
        <DataArray type="UInt8" Name="types" format="ascii">
3 3 3 
        </DataArray>
      </Cells>
      <PointData>
        <DataArray type="Float64" Name="rho">
          8.77069734e-01 8.79393251e-01 8.81743046e-01 8.84110504e-01 
        </DataArray>
        <DataArray type="Float64" Name="rhou">
          6.79408124e-04 6.23267667e-04 5.83313019e-04 5.59981330e-04 
        </DataArray>
        <DataArray type="Float64" Name="rhov">
          3.72498452e-05 3.04523510e-05 3.16491132e-05 3.25694850e-05 
        </DataArray>
        <DataArray type="Float64" Name="E">
          1.98941122e+05 1.99497022e+05 2.00059191e+05 2.00625608e+05 
        </DataArray>
      </PointData>
    </Piece>
    <Piece NumberOfPoints="4" NumberOfCells="3">
      <Points>
        <DataArray type="Float64" NumberOfComponents="3" format="ascii">
          4.73106444e-01 5.44707514e-02 0.00000000e+00 
4.83477861e-01 5.38627952e-02 0.00000000e+00 
4.93847787e-01 5.32294959e-02 0.00000000e+00 
5.04216135e-01 5.25716618e-02 0.00000000e+00 

        </DataArray>
      </Points>
      <Cells>
        <DataArray type="Int32" Name="connectivity" format="ascii">
0 1
1 2
2 3

        </DataArray>
        <DataArray type="Int32" Name="offsets" format="ascii">
2 4 6 
        </DataArray>
        <DataArray type="UInt8" Name="types" format="ascii">
3 3 3 
        </DataArray>
      </Cells>
      <PointData>
        <DataArray type="Float64" Name="rho">
          8.84110491e-01 8.86488608e-01 8.88871858e-01 8.91258968e-01 
        </DataArray>
        <DataArray type="Float64" Name="rhou">
          5.52363215e-04 5.31687135e-04 4.96773485e-04 4.55240461e-04 
        </DataArray>
        <DataArray type="Float64" Name="rhov">
          3.43836255e-05 2.35595702e-05 9.23072899e-06 7.23164737e-06 
        </DataArray>
        <DataArray type="Float64" Name="E">
          2.00625605e+05 2.01194625e+05 2.01764946e+05 2.02336232e+05 
        </DataArray>
      </PointData>
    </Piece>
    <Piece NumberOfPoints="4" NumberOfCells="3">
      <Points>
        <DataArray type="Float64" NumberOfComponents="3" format="ascii">
          5.04216135e-01 5.25716618e-02 0.00000000e+00 
5.14582992e-01 5.18903993e-02 0.00000000e+00 
5.24948359e-01 5.11864908e-02 0.00000000e+00 
5.35312176e-01 5.04603274e-02 0.00000000e+00 

        </DataArray>
      </Points>
      <Cells>
        <DataArray type="Int32" Name="connectivity" format="ascii">
0 1
1 2
2 3

        </DataArray>
        <DataArray type="Int32" Name="offsets" format="ascii">
2 4 6 
        </DataArray>
        <DataArray type="UInt8" Name="types" format="ascii">
3 3 3 
        </DataArray>
      </Cells>
      <PointData>
        <DataArray type="Float64" Name="rho">
          8.91258882e-01 8.93644240e-01 8.96023169e-01 8.98391970e-01 
        </DataArray>
        <DataArray type="Float64" Name="rhou">
          4.63894314e-04 4.38230887e-04 4.19092690e-04 4.00320944e-04 
        </DataArray>
        <DataArray type="Float64" Name="rhov">
          9.39623736e-06 9.63367569e-06 4.74472004e-06 -6.66381664e-06 
        </DataArray>
        <DataArray type="Float64" Name="E">
          2.02336213e+05 2.02907143e+05 2.03476620e+05 2.04043768e+05 
        </DataArray>
      </PointData>
    </Piece>
    <Piece NumberOfPoints="4" NumberOfCells="3">
      <Points>
        <DataArray type="Float64" NumberOfComponents="3" format="ascii">
          5.35312176e-01 5.04603274e-02 0.00000000e+00 
5.45674443e-01 4.97124642e-02 0.00000000e+00 
5.56035221e-01 4.89437394e-02 0.00000000e+00 
5.66394389e-01 4.81546782e-02 0.00000000e+00 

        </DataArray>
      </Points>
      <Cells>
        <DataArray type="Int32" Name="connectivity" format="ascii">
0 1
1 2
2 3

        </DataArray>
        <DataArray type="Int32" Name="offsets" format="ascii">
2 4 6 
        </DataArray>
        <DataArray type="UInt8" Name="types" format="ascii">
3 3 3 
        </DataArray>
      </Cells>
      <PointData>
        <DataArray type="Float64" Name="rho">
          8.98392016e-01 9.00749830e-01 9.03093522e-01 9.05419999e-01 
        </DataArray>
        <DataArray type="Float64" Name="rhou">
          3.96008600e-04 3.70213397e-04 3.52558423e-04 3.41651952e-04 
        </DataArray>
        <DataArray type="Float64" Name="rhov">
          -6.39488129e-06 -6.64842235e-06 -6.93185014e-06 -1.07920394e-05 
        </DataArray>
        <DataArray type="Float64" Name="E">
          2.04043778e+05 2.04608372e+05 2.05169670e+05 2.05726946e+05 
        </DataArray>
      </PointData>
    </Piece>
    <Piece NumberOfPoints="4" NumberOfCells="3">
      <Points>
        <DataArray type="Float64" NumberOfComponents="3" format="ascii">
          5.66394389e-01 4.81546782e-02 0.00000000e+00 
5.76752067e-01 4.73455116e-02 0.00000000e+00 
5.87108195e-01 4.65166979e-02 0.00000000e+00 
5.97462773e-01 4.56690118e-02 0.00000000e+00 

        </DataArray>
      </Points>
      <Cells>
        <DataArray type="Int32" Name="connectivity" format="ascii">
0 1
1 2
2 3

        </DataArray>
        <DataArray type="Int32" Name="offsets" format="ascii">
2 4 6 
        </DataArray>
        <DataArray type="UInt8" Name="types" format="ascii">
3 3 3 
        </DataArray>
      </Cells>
      <PointData>
        <DataArray type="Float64" Name="rho">
          9.05420029e-01 9.07727406e-01 9.10015174e-01 9.12282234e-01 
        </DataArray>
        <DataArray type="Float64" Name="rhou">
          3.40939723e-04 3.21399316e-04 3.01206081e-04 2.86155697e-04 
        </DataArray>
        <DataArray type="Float64" Name="rhov">
          -1.04657663e-05 -1.88069137e-05 -2.20351249e-05 -2.05137624e-05 
        </DataArray>
        <DataArray type="Float64" Name="E">
          2.05726953e+05 2.06279758e+05 2.06827956e+05 2.07371276e+05 
        </DataArray>
      </PointData>
    </Piece>
    <Piece NumberOfPoints="4" NumberOfCells="3">
      <Points>
        <DataArray type="Float64" NumberOfComponents="3" format="ascii">
          5.97462773e-01 4.56690118e-02 0.00000000e+00 
6.07815862e-01 4.48031016e-02 0.00000000e+00 
6.18167400e-01 4.39192392e-02 0.00000000e+00 
6.28517449e-01 4.30175588e-02 0.00000000e+00 

        </DataArray>
      </Points>
      <Cells>
        <DataArray type="Int32" Name="connectivity" format="ascii">
0 1
1 2
2 3

        </DataArray>
        <DataArray type="Int32" Name="offsets" format="ascii">
2 4 6 
        </DataArray>
        <DataArray type="UInt8" Name="types" format="ascii">
3 3 3 
        </DataArray>
      </Cells>
      <PointData>
        <DataArray type="Float64" Name="rho">
          9.12282170e-01 9.14526446e-01 9.16745945e-01 9.18940659e-01 
        </DataArray>
        <DataArray type="Float64" Name="rhou">
          2.84173282e-04 2.76567578e-04 2.65652897e-04 2.49517520e-04 
        </DataArray>
        <DataArray type="Float64" Name="rhov">
          -1.95916031e-05 -1.97970379e-05 -2.52091147e-05 -3.03982069e-05 
        </DataArray>
        <DataArray type="Float64" Name="E">
          2.07371262e+05 2.07909216e+05 2.08441340e+05 2.08967619e+05 
        </DataArray>
      </PointData>
    </Piece>
    <Piece NumberOfPoints="4" NumberOfCells="3">
      <Points>
        <DataArray type="Float64" NumberOfComponents="3" format="ascii">
          6.28517449e-01 4.30175588e-02 0.00000000e+00 
6.38865948e-01 4.20984775e-02 0.00000000e+00 
6.49212897e-01 4.11624312e-02 0.00000000e+00 
6.59558356e-01 4.02097441e-02 0.00000000e+00 

        </DataArray>
      </Points>
      <Cells>
        <DataArray type="Int32" Name="connectivity" format="ascii">
0 1
1 2
2 3

        </DataArray>
        <DataArray type="Int32" Name="offsets" format="ascii">
2 4 6 
        </DataArray>
        <DataArray type="UInt8" Name="types" format="ascii">
3 3 3 
        </DataArray>
      </Cells>
      <PointData>
        <DataArray type="Float64" Name="rho">
          9.18940651e-01 9.21110238e-01 9.23253701e-01 9.25370578e-01 
        </DataArray>
        <DataArray type="Float64" Name="rhou">
          2.50463742e-04 2.38827868e-04 2.29060601e-04 2.18535010e-04 
        </DataArray>
        <DataArray type="Float64" Name="rhov">
          -2.93810359e-05 -2.99068143e-05 -3.16134196e-05 -3.37257171e-05 
        </DataArray>
        <DataArray type="Float64" Name="E">
          2.08967617e+05 2.09487961e+05 2.10002135e+05 2.10510024e+05 
        </DataArray>
      </PointData>
    </Piece>
    <Piece NumberOfPoints="4" NumberOfCells="3">
      <Points>
        <DataArray type="Float64" NumberOfComponents="3" format="ascii">
          6.59558356e-01 4.02097441e-02 0.00000000e+00 
6.69902325e-01 3.92407738e-02 0.00000000e+00 
6.80244744e-01 3.82556282e-02 0.00000000e+00 
6.90585554e-01 3.72543521e-02 0.00000000e+00 

        </DataArray>
      </Points>
      <Cells>
        <DataArray type="Int32" Name="connectivity" format="ascii">
0 1
1 2
2 3

        </DataArray>
        <DataArray type="Int32" Name="offsets" format="ascii">
2 4 6 
        </DataArray>
        <DataArray type="UInt8" Name="types" format="ascii">
3 3 3 
        </DataArray>
      </Cells>
      <PointData>
        <DataArray type="Float64" Name="rho">
          9.25370561e-01 9.27460718e-01 9.29522883e-01 9.31557734e-01 
        </DataArray>
        <DataArray type="Float64" Name="rhou">
          2.15260546e-04 2.11522150e-04 2.04153964e-04 1.90804198e-04 
        </DataArray>
        <DataArray type="Float64" Name="rhov">
          -3.26876221e-05 -3.25702829e-05 -3.69955642e-05 -4.06210027e-05 
        </DataArray>
        <DataArray type="Float64" Name="E">
          2.10510021e+05 2.11011588e+05 2.11506539e+05 2.11995022e+05 
        </DataArray>
      </PointData>
    </Piece>
    <Piece NumberOfPoints="4" NumberOfCells="3">
      <Points>
        <DataArray type="Float64" NumberOfComponents="3" format="ascii">
          6.90585554e-01 3.72543521e-02 0.00000000e+00 
7.00924933e-01 3.62373814e-02 0.00000000e+00 
7.11262703e-01 3.52048986e-02 0.00000000e+00 
7.21598923e-01 3.41568366e-02 0.00000000e+00 

        </DataArray>
      </Points>
      <Cells>
        <DataArray type="Int32" Name="connectivity" format="ascii">
0 1
1 2
2 3

        </DataArray>
        <DataArray type="Int32" Name="offsets" format="ascii">
2 4 6 
        </DataArray>
        <DataArray type="UInt8" Name="types" format="ascii">
3 3 3 
        </DataArray>
      </Cells>
      <PointData>
        <DataArray type="Float64" Name="rho">
          9.31557691e-01 9.33565534e-01 9.35545061e-01 9.37496826e-01 
        </DataArray>
        <DataArray type="Float64" Name="rhou">
          1.89371715e-04 1.85590709e-04 1.81633071e-04 1.69891171e-04 
        </DataArray>
        <DataArray type="Float64" Name="rhov">
          -3.94972345e-05 -3.69464552e-05 -4.03002357e-05 -4.51058412e-05 
        </DataArray>
        <DataArray type="Float64" Name="E">
          2.11995012e+05 2.12477091e+05 2.12952465e+05 2.13421256e+05 
        </DataArray>
      </PointData>
    </Piece>
    <Piece NumberOfPoints="4" NumberOfCells="3">
      <Points>
        <DataArray type="Float64" NumberOfComponents="3" format="ascii">
          7.21598923e-01 3.41568366e-02 0.00000000e+00 
7.31933594e-01 3.30936089e-02 0.00000000e+00 
7.42266715e-01 3.20154354e-02 0.00000000e+00 
7.52598286e-01 3.09220124e-02 0.00000000e+00 

        </DataArray>
      </Points>
      <Cells>
        <DataArray type="Int32" Name="connectivity" format="ascii">
0 1
1 2
2 3

        </DataArray>
        <DataArray type="Int32" Name="offsets" format="ascii">
2 4 6 
        </DataArray>
        <DataArray type="UInt8" Name="types" format="ascii">
3 3 3 
        </DataArray>
      </Cells>
      <PointData>
        <DataArray type="Float64" Name="rho">
          9.37496806e-01 9.39421766e-01 9.41318493e-01 9.43187446e-01 
        </DataArray>
        <DataArray type="Float64" Name="rhou">
          1.67183302e-04 1.64285874e-04 1.62630259e-04 1.53553945e-04 
        </DataArray>
        <DataArray type="Float64" Name="rhov">
          -4.41309123e-05 -3.96429086e-05 -4.19975733e-05 -4.72453207e-05 
        </DataArray>
        <DataArray type="Float64" Name="E">
          2.13421252e+05 2.13883675e+05 2.14339402e+05 2.14788534e+05 
        </DataArray>
      </PointData>
    </Piece>
    <Piece NumberOfPoints="4" NumberOfCells="3">
      <Points>
        <DataArray type="Float64" NumberOfComponents="3" format="ascii">
          7.52598286e-01 3.09220124e-02 0.00000000e+00 
7.62928188e-01 2.98135038e-02 0.00000000e+00 
7.73256481e-01 2.86899786e-02 0.00000000e+00 
7.83583105e-01 2.75512449e-02 0.00000000e+00 

        </DataArray>
      </Points>
      <Cells>
        <DataArray type="Int32" Name="connectivity" format="ascii">
0 1
1 2
2 3

        </DataArray>
        <DataArray type="Int32" Name="offsets" format="ascii">
2 4 6 
        </DataArray>
        <DataArray type="UInt8" Name="types" format="ascii">
3 3 3 
        </DataArray>
      </Cells>
      <PointData>
        <DataArray type="Float64" Name="rho">
          9.43187440e-01 9.45029723e-01 9.46844480e-01 9.48632382e-01 
        </DataArray>
        <DataArray type="Float64" Name="rhou">
          1.50919433e-04 1.48352746e-04 1.45635346e-04 1.37442031e-04 
        </DataArray>
        <DataArray type="Float64" Name="rhov">
          -4.63222655e-05 -4.40995385e-05 -4.64477711e-05 -4.98669326e-05 
        </DataArray>
        <DataArray type="Float64" Name="E">
          2.14788533e+05 2.15231319e+05 2.15667560e+05 2.16097403e+05 
        </DataArray>
      </PointData>
    </Piece>
    <Piece NumberOfPoints="4" NumberOfCells="3">
      <Points>
        <DataArray type="Float64" NumberOfComponents="3" format="ascii">
          7.83583105e-01 2.75512449e-02 0.00000000e+00 
7.93908060e-01 2.63975188e-02 0.00000000e+00 
8.04231405e-01 2.52291560e-02 0.00000000e+00 
8.14553022e-01 2.40457114e-02 0.00000000e+00 

        </DataArray>
      </Points>
      <Cells>
        <DataArray type="Int32" Name="connectivity" format="ascii">
0 1
1 2
2 3

        </DataArray>
        <DataArray type="Int32" Name="offsets" format="ascii">
2 4 6 
        </DataArray>
        <DataArray type="UInt8" Name="types" format="ascii">
3 3 3 
        </DataArray>
      </Cells>
      <PointData>
        <DataArray type="Float64" Name="rho">
          9.48632389e-01 9.50394187e-01 9.52129795e-01 9.53838567e-01 
        </DataArray>
        <DataArray type="Float64" Name="rhou">
          1.39994804e-04 1.30383468e-04 1.30435248e-04 1.32606258e-04 
        </DataArray>
        <DataArray type="Float64" Name="rhov">
          -5.02224484e-05 -4.66765538e-05 -4.56063663e-05 -5.23485752e-05 
        </DataArray>
        <DataArray type="Float64" Name="E">
          2.16097405e+05 2.16521014e+05 2.16938363e+05 2.17349293e+05 
        </DataArray>
      </PointData>
    </Piece>
    <Piece NumberOfPoints="4" NumberOfCells="3">
      <Points>
        <DataArray type="Float64" NumberOfComponents="3" format="ascii">
          8.14553022e-01 2.40457114e-02 0.00000000e+00 
8.24872792e-01 2.28467938e-02 0.00000000e+00 
8.35190892e-01 2.16327831e-02 0.00000000e+00 
8.45507145e-01 2.04038676e-02 0.00000000e+00 

        </DataArray>
      </Points>
      <Cells>
        <DataArray type="Int32" Name="connectivity" format="ascii">
0 1
1 2
2 3

        </DataArray>
        <DataArray type="Int32" Name="offsets" format="ascii">
2 4 6 
        </DataArray>
        <DataArray type="UInt8" Name="types" format="ascii">
3 3 3 
        </DataArray>
      </Cells>
      <PointData>
        <DataArray type="Float64" Name="rho">
          9.53838610e-01 9.55522242e-01 9.57181064e-01 9.58815279e-01 
        </DataArray>
        <DataArray type="Float64" Name="rhou">
          1.26640770e-04 1.19390985e-04 1.13378737e-04 1.15066257e-04 
        </DataArray>
        <DataArray type="Float64" Name="rhov">
          -5.26078692e-05 -5.27865994e-05 -5.02179347e-05 -4.65508742e-05 
        </DataArray>
        <DataArray type="Float64" Name="E">
          2.17349303e+05 2.17754188e+05 2.18153083e+05 2.18546014e+05 
        </DataArray>
      </PointData>
    </Piece>
    <Piece NumberOfPoints="4" NumberOfCells="3">
      <Points>
        <DataArray type="Float64" NumberOfComponents="3" format="ascii">
          8.45507145e-01 2.04038676e-02 0.00000000e+00 
8.55821550e-01 1.91591792e-02 0.00000000e+00 
8.66134048e-01 1.78987328e-02 0.00000000e+00 
8.76444638e-01 1.66228991e-02 0.00000000e+00 

        </DataArray>
      </Points>
      <Cells>
        <DataArray type="Int32" Name="connectivity" format="ascii">
0 1
1 2
2 3

        </DataArray>
        <DataArray type="Int32" Name="offsets" format="ascii">
2 4 6 
        </DataArray>
        <DataArray type="UInt8" Name="types" format="ascii">
3 3 3 
        </DataArray>
      </Cells>
      <PointData>
        <DataArray type="Float64" Name="rho">
          9.58815392e-01 9.60423711e-01 9.62010143e-01 9.63571307e-01 
        </DataArray>
        <DataArray type="Float64" Name="rhou">
          1.36597792e-04 1.05785968e-04 1.05217178e-04 1.22420914e-04 
        </DataArray>
        <DataArray type="Float64" Name="rhov">
          -5.02176560e-05 -5.80510438e-05 -5.57318613e-05 -7.39609252e-05 
        </DataArray>
        <DataArray type="Float64" Name="E">
          2.18546040e+05 2.18932686e+05 2.19313923e+05 2.19688942e+05 
        </DataArray>
      </PointData>
    </Piece>
    <Piece NumberOfPoints="4" NumberOfCells="3">
      <Points>
        <DataArray type="Float64" NumberOfComponents="3" format="ascii">
          8.76444638e-01 1.66228991e-02 0.00000000e+00 
8.86753201e-01 1.53310820e-02 0.00000000e+00 
8.97059798e-01 1.40233757e-02 0.00000000e+00 
9.07364249e-01 1.26988320e-02 0.00000000e+00 

        </DataArray>
      </Points>
      <Cells>
        <DataArray type="Int32" Name="connectivity" format="ascii">
0 1
1 2
2 3

        </DataArray>
        <DataArray type="Int32" Name="offsets" format="ascii">
2 4 6 
        </DataArray>
        <DataArray type="UInt8" Name="types" format="ascii">
3 3 3 
        </DataArray>
      </Cells>
      <PointData>
        <DataArray type="Float64" Name="rho">
          9.63570849e-01 9.65113640e-01 9.66630629e-01 9.68141052e-01 
        </DataArray>
        <DataArray type="Float64" Name="rhou">
          2.87609162e-05 1.23506970e-04 6.79944285e-05 1.49078472e-05 
        </DataArray>
        <DataArray type="Float64" Name="rhov">
          -6.58906926e-05 -6.95979540e-05 -8.92119858e-05 1.12641037e-05 
        </DataArray>
        <DataArray type="Float64" Name="E">
          2.19688838e+05 2.20059163e+05 2.20423050e+05 2.20784829e+05 
        </DataArray>
      </PointData>
    </Piece>
    <Piece NumberOfPoints="4" NumberOfCells="3">
      <Points>
        <DataArray type="Float64" NumberOfComponents="3" format="ascii">
          9.07364249e-01 1.26988320e-02 0.00000000e+00 
9.17666554e-01 1.13577880e-02 0.00000000e+00 
9.27966774e-01 1.00004105e-02 0.00000000e+00 
9.38264549e-01 8.62528384e-03 0.00000000e+00 

        </DataArray>
      </Points>
      <Cells>
        <DataArray type="Int32" Name="connectivity" format="ascii">
0 1
1 2
2 3

        </DataArray>
        <DataArray type="Int32" Name="offsets" format="ascii">
2 4 6 
        </DataArray>
        <DataArray type="UInt8" Name="types" format="ascii">
3 3 3 
        </DataArray>
      </Cells>
      <PointData>
        <DataArray type="Float64" Name="rho">
          9.68146008e-01 9.69607052e-01 9.71093205e-01 9.72431104e-01 
        </DataArray>
        <DataArray type="Float64" Name="rhou">
          8.40072628e-04 -1.86478668e-04 3.75918396e-04 8.09809852e-04 
        </DataArray>
        <DataArray type="Float64" Name="rhov">
          -5.93856764e-05 -1.13525078e-04 -4.11747765e-05 -1.48562680e-03 
        </DataArray>
        <DataArray type="Float64" Name="E">
          2.20785959e+05 2.21135819e+05 2.21490710e+05 2.21811083e+05 
        </DataArray>
      </PointData>
    </Piece>
    <Piece NumberOfPoints="4" NumberOfCells="3">
      <Points>
        <DataArray type="Float64" NumberOfComponents="3" format="ascii">
          9.38264549e-01 8.62528384e-03 0.00000000e+00 
9.48560059e-01 7.23283459e-03 0.00000000e+00 
9.58853185e-01 5.82307298e-03 0.00000000e+00 
9.69143867e-01 4.39538015e-03 0.00000000e+00 

        </DataArray>
      </Points>
      <Cells>
        <DataArray type="Int32" Name="connectivity" format="ascii">
0 1
1 2
2 3

        </DataArray>
        <DataArray type="Int32" Name="offsets" format="ascii">
2 4 6 
        </DataArray>
        <DataArray type="UInt8" Name="types" format="ascii">
3 3 3 
        </DataArray>
      </Cells>
      <PointData>
        <DataArray type="Float64" Name="rho">
          9.72382673e-01 9.74047425e-01 9.75294600e-01 9.78016064e-01 
        </DataArray>
        <DataArray type="Float64" Name="rhou">
          -6.78490817e-03 2.21170035e-03 -3.18972071e-03 -1.93376845e-02 
        </DataArray>
        <DataArray type="Float64" Name="rhov">
          -1.10274970e-03 1.38045576e-04 -1.14309417e-03 1.93079125e-02 
        </DataArray>
        <DataArray type="Float64" Name="E">
          2.21800036e+05 2.22194286e+05 2.22492723e+05 2.23127065e+05 
        </DataArray>
      </PointData>
    </Piece>
    <Piece NumberOfPoints="4" NumberOfCells="3">
      <Points>
        <DataArray type="Float64" NumberOfComponents="3" format="ascii">
          9.69143867e-01 4.39538015e-03 0.00000000e+00 
9.79435980e-01 2.94816052e-03 0.00000000e+00 
9.89725590e-01 1.48259092e-03 0.00000000e+00 
1.00000000e+00 0.00000000e+00 0.00000000e+00 

        </DataArray>
      </Points>
      <Cells>
        <DataArray type="Int32" Name="connectivity" format="ascii">
0 1
1 2
2 3

        </DataArray>
        <DataArray type="Int32" Name="offsets" format="ascii">
2 4 6 
        </DataArray>
        <DataArray type="UInt8" Name="types" format="ascii">
3 3 3 
        </DataArray>
      </Cells>
      <PointData>
        <DataArray type="Float64" Name="rho">
          9.78314757e-01 9.77903005e-01 9.81782088e-01 9.71687360e-01 
        </DataArray>
        <DataArray type="Float64" Name="rhou">
          -1.56359828e-03 -9.71138336e-03 -3.82061726e-02 5.08028860e-01 
        </DataArray>
        <DataArray type="Float64" Name="rhov">
          2.14258344e-02 1.13640308e-03 5.32816641e-02 -1.39629560e-01 
        </DataArray>
        <DataArray type="Float64" Name="E">
          2.23195400e+05 2.23114384e+05 2.24012152e+05 2.21717485e+05 
        </DataArray>
      </PointData>
    </Piece>
    <Piece NumberOfPoints="4" NumberOfCells="3">
      <Points>
        <DataArray type="Float64" NumberOfComponents="3" format="ascii">
          9.69029665e-01 -4.41133138e-03 0.00000000e+00 
9.79355037e-01 -2.95961346e-03 0.00000000e+00 
9.89677846e-01 -1.48943183e-03 0.00000000e+00 
1.00000000e+00 0.00000000e+00 0.00000000e+00 

        </DataArray>
      </Points>
      <Cells>
        <DataArray type="Int32" Name="connectivity" format="ascii">
0 1
1 2
2 3

        </DataArray>
        <DataArray type="Int32" Name="offsets" format="ascii">
2 4 6 
        </DataArray>
        <DataArray type="UInt8" Name="types" format="ascii">
3 3 3 
        </DataArray>
      </Cells>
      <PointData>
        <DataArray type="Float64" Name="rho">
          9.77476040e-01 9.77069343e-01 9.80876973e-01 9.71957195e-01 
        </DataArray>
        <DataArray type="Float64" Name="rhou">
          -9.51164610e-04 -7.64181539e-03 -3.65704774e-02 4.69468753e-01 
        </DataArray>
        <DataArray type="Float64" Name="rhov">
          -2.42931758e-02 2.26461264e-03 -5.01584785e-02 1.47350524e-01 
        </DataArray>
        <DataArray type="Float64" Name="E">
          2.22964163e+05 2.22888441e+05 2.23776500e+05 2.21771422e+05 
        </DataArray>
      </PointData>
    </Piece>
    <Piece NumberOfPoints="4" NumberOfCells="3">
      <Points>
        <DataArray type="Float64" NumberOfComponents="3" format="ascii">
          9.38035965e-01 -8.65600072e-03 0.00000000e+00 
9.48369622e-01 -7.25875143e-03 0.00000000e+00 
9.58700895e-01 -5.84406452e-03 0.00000000e+00 
9.69029665e-01 -4.41133138e-03 0.00000000e+00 

        </DataArray>
      </Points>
      <Cells>
        <DataArray type="Int32" Name="connectivity" format="ascii">
0 1
1 2
2 3

        </DataArray>
        <DataArray type="Int32" Name="offsets" format="ascii">
2 4 6 
        </DataArray>
        <DataArray type="UInt8" Name="types" format="ascii">
3 3 3 
        </DataArray>
      </Cells>
      <PointData>
        <DataArray type="Float64" Name="rho">
          9.71760343e-01 9.73366697e-01 9.74560969e-01 9.77176295e-01 
        </DataArray>
        <DataArray type="Float64" Name="rhou">
          -6.44868304e-03 2.39315685e-03 -2.64113581e-03 -1.75360477e-02 
        </DataArray>
        <DataArray type="Float64" Name="rhov">
          1.12649871e-03 -1.79748176e-04 1.38362394e-03 -1.79359590e-02 
        </DataArray>
        <DataArray type="Float64" Name="E">
          2.21616865e+05 2.21997518e+05 2.22284430e+05 2.22896047e+05 
        </DataArray>
      </PointData>
    </Piece>
    <Piece NumberOfPoints="4" NumberOfCells="3">
      <Points>
        <DataArray type="Float64" NumberOfComponents="3" format="ascii">
          9.07021165e-01 -1.27432076e-02 0.00000000e+00 
9.17361677e-01 -1.13977119e-02 0.00000000e+00 
9.27700043e-01 -1.00357840e-02 0.00000000e+00 
9.38035965e-01 -8.65600072e-03 0.00000000e+00 

        </DataArray>
      </Points>
      <Cells>
        <DataArray type="Int32" Name="connectivity" format="ascii">
0 1
1 2
2 3

        </DataArray>
        <DataArray type="Int32" Name="offsets" format="ascii">
2 4 6 
        </DataArray>
        <DataArray type="UInt8" Name="types" format="ascii">
3 3 3 
        </DataArray>
      </Cells>
      <PointData>
        <DataArray type="Float64" Name="rho">
          9.67698652e-01 9.69096512e-01 9.70524219e-01 9.71808057e-01 
        </DataArray>
        <DataArray type="Float64" Name="rhou">
          9.74557924e-04 -4.06422571e-05 5.36693862e-04 9.43308270e-04 
        </DataArray>
        <DataArray type="Float64" Name="rhov">
          4.64873970e-05 7.49254895e-05 -1.38429406e-05 1.41595318e-03 
        </DataArray>
        <DataArray type="Float64" Name="E">
          2.20646493e+05 2.20980229e+05 2.21320495e+05 2.21627737e+05 
        </DataArray>
      </PointData>
    </Piece>
    <Piece NumberOfPoints="4" NumberOfCells="3">
      <Points>
        <DataArray type="Float64" NumberOfComponents="3" format="ascii">
          8.75986874e-01 -1.66798849e-02 0.00000000e+00 
8.86333704e-01 -1.53839625e-02 0.00000000e+00 
8.96678507e-01 -1.40720531e-02 0.00000000e+00 
9.07021165e-01 -1.27432076e-02 0.00000000e+00 

        </DataArray>
      </Points>
      <Cells>
        <DataArray type="Int32" Name="connectivity" format="ascii">
0 1
1 2
2 3

        </DataArray>
        <DataArray type="Int32" Name="offsets" format="ascii">
2 4 6 
        </DataArray>
        <DataArray type="UInt8" Name="types" format="ascii">
3 3 3 
        </DataArray>
      </Cells>
      <PointData>
        <DataArray type="Float64" Name="rho">
          9.63374061e-01 9.64823258e-01 9.66257500e-01 9.67693645e-01 
        </DataArray>
        <DataArray type="Float64" Name="rhou">
          1.85125487e-04 2.67772920e-04 2.19232364e-04 1.66821005e-04 
        </DataArray>
        <DataArray type="Float64" Name="rhov">
          6.44954875e-05 5.64047562e-05 7.22079889e-05 -2.37790117e-05 
        </DataArray>
        <DataArray type="Float64" Name="E">
          2.19613796e+05 2.19960037e+05 2.20302613e+05 2.20645353e+05 
        </DataArray>
      </PointData>
    </Piece>
    <Piece NumberOfPoints="4" NumberOfCells="3">
      <Points>
        <DataArray type="Float64" NumberOfComponents="3" format="ascii">
          8.44934702e-01 -2.04724707e-02 0.00000000e+00 
8.55287313e-01 -1.92240477e-02 0.00000000e+00 
8.65638077e-01 -1.79597028e-02 0.00000000e+00 
8.75986874e-01 -1.66798849e-02 0.00000000e+00 

        </DataArray>
      </Points>
      <Cells>
        <DataArray type="Int32" Name="connectivity" format="ascii">
0 1
1 2
2 3

        </DataArray>
        <DataArray type="Int32" Name="offsets" format="ascii">
2 4 6 
        </DataArray>
        <DataArray type="UInt8" Name="types" format="ascii">
3 3 3 
        </DataArray>
      </Cells>
      <PointData>
        <DataArray type="Float64" Name="rho">
          9.58977404e-01 9.60451564e-01 9.61919693e-01 9.63374494e-01 
        </DataArray>
        <DataArray type="Float64" Name="rhou">
          3.17655150e-04 2.59158336e-04 2.47561614e-04 2.86883869e-04 
        </DataArray>
        <DataArray type="Float64" Name="rhov">
          3.76512863e-05 5.86544777e-05 4.85994037e-05 6.78495137e-05 
        </DataArray>
        <DataArray type="Float64" Name="E">
          2.18562491e+05 2.18915109e+05 2.19266135e+05 2.19613895e+05 
        </DataArray>
      </PointData>
    </Piece>
    <Piece NumberOfPoints="4" NumberOfCells="3">
      <Points>
        <DataArray type="Float64" NumberOfComponents="3" format="ascii">
          8.13865662e-01 -2.41250079e-02 0.00000000e+00 
8.24223816e-01 -2.29226518e-02 0.00000000e+00 
8.34580123e-01 -2.17050612e-02 0.00000000e+00 
8.44934702e-01 -2.04724707e-02 0.00000000e+00 

        </DataArray>
      </Points>
      <Cells>
        <DataArray type="Int32" Name="connectivity" format="ascii">
0 1
1 2
2 3

        </DataArray>
        <DataArray type="Int32" Name="offsets" format="ascii">
2 4 6 
        </DataArray>
        <DataArray type="UInt8" Name="types" format="ascii">
3 3 3 
        </DataArray>
      </Cells>
      <PointData>
        <DataArray type="Float64" Name="rho">
          9.54485671e-01 9.55991711e-01 9.57489121e-01 9.58977173e-01 
        </DataArray>
        <DataArray type="Float64" Name="rhou">
          2.89911576e-04 2.75700735e-04 2.61268703e-04 2.67845801e-04 
        </DataArray>
        <DataArray type="Float64" Name="rhov">
          4.78672429e-05 4.89586916e-05 4.18435563e-05 3.02676573e-05 
        </DataArray>
        <DataArray type="Float64" Name="E">
          2.17487654e+05 2.17848131e+05 2.18206451e+05 2.18562439e+05 
        </DataArray>
      </PointData>
    </Piece>
    <Piece NumberOfPoints="4" NumberOfCells="3">
      <Points>
        <DataArray type="Float64" NumberOfComponents="3" format="ascii">
          7.82780826e-01 -2.76402626e-02 0.00000000e+00 
7.93144107e-01 -2.64833923e-02 0.00000000e+00 
8.03505778e-01 -2.53117718e-02 0.00000000e+00 
8.13865662e-01 -2.41250079e-02 0.00000000e+00 

        </DataArray>
      </Points>
      <Cells>
        <DataArray type="Int32" Name="connectivity" format="ascii">
0 1
1 2
2 3

        </DataArray>
        <DataArray type="Int32" Name="offsets" format="ascii">
2 4 6 
        </DataArray>
        <DataArray type="UInt8" Name="types" format="ascii">
3 3 3 
        </DataArray>
      </Cells>
      <PointData>
        <DataArray type="Float64" Name="rho">
          9.49910868e-01 9.51445160e-01 9.52971005e-01 9.54485562e-01 
        </DataArray>
        <DataArray type="Float64" Name="rhou">
          3.07061189e-04 2.87304000e-04 2.88005342e-04 2.98793380e-04 
        </DataArray>
        <DataArray type="Float64" Name="rhov">
          4.37982015e-05 3.56061594e-05 3.14467434e-05 4.62735304e-05 
        </DataArray>
        <DataArray type="Float64" Name="E">
          2.16392229e+05 2.16759677e+05 2.17125028e+05 2.17487629e+05 
        </DataArray>
      </PointData>
    </Piece>
    <Piece NumberOfPoints="4" NumberOfCells="3">
      <Points>
        <DataArray type="Float64" NumberOfComponents="3" format="ascii">
          7.51680970e-01 -3.10197193e-02 0.00000000e+00 
7.62049198e-01 -2.99084149e-02 0.00000000e+00 
7.72415876e-01 -2.87819952e-02 0.00000000e+00 
7.82780826e-01 -2.76402626e-02 0.00000000e+00 

        </DataArray>
      </Points>
      <Cells>
        <DataArray type="Int32" Name="connectivity" format="ascii">
0 1
1 2
2 3

        </DataArray>
        <DataArray type="Int32" Name="offsets" format="ascii">
2 4 6 
        </DataArray>
        <DataArray type="UInt8" Name="types" format="ascii">
3 3 3 
        </DataArray>
      </Cells>
      <PointData>
        <DataArray type="Float64" Name="rho">
          9.45260773e-01 9.46819217e-01 9.48369159e-01 9.49910831e-01 
        </DataArray>
        <DataArray type="Float64" Name="rhou">
          3.16105718e-04 3.13356159e-04 3.09108248e-04 2.96361172e-04 
        </DataArray>
        <DataArray type="Float64" Name="rhov">
          3.60269997e-05 2.95757640e-05 3.37137878e-05 4.17518663e-05 
        </DataArray>
        <DataArray type="Float64" Name="E">
          2.15278158e+05 2.15651585e+05 2.16022924e+05 2.16392220e+05 
        </DataArray>
      </PointData>
    </Piece>
    <Piece NumberOfPoints="4" NumberOfCells="3">
      <Points>
        <DataArray type="Float64" NumberOfComponents="3" format="ascii">
          7.20566452e-01 -3.42622213e-02 0.00000000e+00 
7.30939507e-01 -3.31965312e-02 0.00000000e+00 
7.41311073e-01 -3.21157984e-02 0.00000000e+00 
7.51680970e-01 -3.10197193e-02 0.00000000e+00 

        </DataArray>
      </Points>
      <Cells>
        <DataArray type="Int32" Name="connectivity" format="ascii">
0 1
1 2
2 3

        </DataArray>
        <DataArray type="Int32" Name="offsets" format="ascii">
2 4 6 
        </DataArray>
        <DataArray type="UInt8" Name="types" format="ascii">
3 3 3 
        </DataArray>
      </Cells>
      <PointData>
        <DataArray type="Float64" Name="rho">
          9.40547053e-01 9.42125359e-01 9.43696813e-01 9.45260765e-01 
        </DataArray>
        <DataArray type="Float64" Name="rhou">
          3.37504090e-04 3.32138885e-04 3.30684561e-04 3.19152990e-04 
        </DataArray>
        <DataArray type="Float64" Name="rhov">
          3.22374438e-05 2.14197291e-05 2.43449585e-05 3.66317131e-05 
        </DataArray>
        <DataArray type="Float64" Name="E">
          2.14148297e+05 2.14526657e+05 2.14903329e+05 2.15278156e+05 
        </DataArray>
      </PointData>
    </Piece>
    <Piece NumberOfPoints="4" NumberOfCells="3">
      <Points>
        <DataArray type="Float64" NumberOfComponents="3" format="ascii">
          6.89437866e-01 -3.73662710e-02 0.00000000e+00 
6.99815631e-01 -3.63472365e-02 0.00000000e+00 
7.10191846e-01 -3.53125818e-02 0.00000000e+00 
7.20566452e-01 -3.42622213e-02 0.00000000e+00 

        </DataArray>
      </Points>
      <Cells>
        <DataArray type="Int32" Name="connectivity" format="ascii">
0 1
1 2
2 3

        </DataArray>
        <DataArray type="Int32" Name="offsets" format="ascii">
2 4 6 
        </DataArray>
        <DataArray type="UInt8" Name="types" format="ascii">
3 3 3 
        </DataArray>
      </Cells>
      <PointData>
        <DataArray type="Float64" Name="rho">
          9.35789621e-01 9.37379780e-01 9.38965734e-01 9.40547065e-01 
        </DataArray>
        <DataArray type="Float64" Name="rhou">
          3.65955146e-04 3.60210067e-04 3.54674890e-04 3.38385038e-04 
        </DataArray>
        <DataArray type="Float64" Name="rhov">
          2.41946282e-05 1.69484672e-05 2.17194715e-05 3.26257075e-05 
        </DataArray>
        <DataArray type="Float64" Name="E">
          2.13007430e+05 2.13388806e+05 2.13769132e+05 2.14148300e+05 
        </DataArray>
      </PointData>
    </Piece>
    <Piece NumberOfPoints="4" NumberOfCells="3">
      <Points>
        <DataArray type="Float64" NumberOfComponents="3" format="ascii">
          6.58295333e-01 -4.03269380e-02 0.00000000e+00 
6.68677747e-01 -3.93563360e-02 0.00000000e+00 
6.79058611e-01 -3.83694395e-02 0.00000000e+00 
6.89437866e-01 -3.73662710e-02 0.00000000e+00 

        </DataArray>
      </Points>
      <Cells>
        <DataArray type="Int32" Name="connectivity" format="ascii">
0 1
1 2
2 3

        </DataArray>
        <DataArray type="Int32" Name="offsets" format="ascii">
2 4 6 
        </DataArray>
        <DataArray type="UInt8" Name="types" format="ascii">
3 3 3 
        </DataArray>
      </Cells>
      <PointData>
        <DataArray type="Float64" Name="rho">
          9.31014329e-01 9.32607058e-01 9.34198856e-01 9.35789675e-01 
        </DataArray>
        <DataArray type="Float64" Name="rhou">
          3.98312688e-04 3.94220672e-04 3.82991696e-04 3.63973237e-04 
        </DataArray>
        <DataArray type="Float64" Name="rhov">
          1.32636881e-05 1.01789648e-05 1.68828851e-05 2.50946559e-05 
        </DataArray>
        <DataArray type="Float64" Name="E">
          2.11861791e+05 2.12243944e+05 2.12625836e+05 2.13007443e+05 
        </DataArray>
      </PointData>
    </Piece>
    <Piece NumberOfPoints="4" NumberOfCells="3">
      <Points>
        <DataArray type="Float64" NumberOfComponents="3" format="ascii">
          6.27138972e-01 -4.31386717e-02 0.00000000e+00 
6.37525976e-01 -4.22184542e-02 0.00000000e+00 
6.47911429e-01 -4.12811004e-02 0.00000000e+00 
6.58295333e-01 -4.03269380e-02 0.00000000e+00 

        </DataArray>
      </Points>
      <Cells>
        <DataArray type="Int32" Name="connectivity" format="ascii">
0 1
1 2
2 3

        </DataArray>
        <DataArray type="Int32" Name="offsets" format="ascii">
2 4 6 
        </DataArray>
        <DataArray type="UInt8" Name="types" format="ascii">
3 3 3 
        </DataArray>
      </Cells>
      <PointData>
        <DataArray type="Float64" Name="rho">
          9.26255204e-01 9.27837119e-01 9.29424138e-01 9.31014362e-01 
        </DataArray>
        <DataArray type="Float64" Name="rhou">
          4.45255821e-04 4.27967877e-04 4.12203772e-04 3.99215273e-04 
        </DataArray>
        <DataArray type="Float64" Name="rhov">
          1.01785188e-05 8.99909399e-06 1.03117783e-05 1.42722544e-05 
        </DataArray>
        <DataArray type="Float64" Name="E">
          2.10719563e+05 2.11099288e+05 2.11480184e+05 2.11861799e+05 
        </DataArray>
      </PointData>
    </Piece>
    <Piece NumberOfPoints="4" NumberOfCells="3">
      <Points>
        <DataArray type="Float64" NumberOfComponents="3" format="ascii">
          5.95968783e-01 -4.57924642e-02 0.00000000e+00 
6.06360376e-01 -4.49259281e-02 0.00000000e+00 
6.16750479e-01 -4.40412909e-02 0.00000000e+00 
6.27138972e-01 -4.31386717e-02 0.00000000e+00 

        </DataArray>
      </Points>
      <Cells>
        <DataArray type="Int32" Name="connectivity" format="ascii">
0 1
1 2
2 3

        </DataArray>
        <DataArray type="Int32" Name="offsets" format="ascii">
2 4 6 
        </DataArray>
        <DataArray type="UInt8" Name="types" format="ascii">
3 3 3 
        </DataArray>
      </Cells>
      <PointData>
        <DataArray type="Float64" Name="rho">
          9.21559907e-01 9.23115557e-01 9.24681105e-01 9.26255198e-01 
        </DataArray>
        <DataArray type="Float64" Name="rhou">
          4.85936144e-04 4.75230314e-04 4.59398976e-04 4.38797244e-04 
        </DataArray>
        <DataArray type="Float64" Name="rhov">
          -1.19669407e-06 -4.52392891e-06 1.77628925e-06 1.10948619e-05 
        </DataArray>
        <DataArray type="Float64" Name="E">
          2.09592165e+05 2.09965740e+05 2.10341649e+05 2.10719561e+05 
        </DataArray>
      </PointData>
    </Piece>
    <Piece NumberOfPoints="4" NumberOfCells="3">
      <Points>
        <DataArray type="Float64" NumberOfComponents="3" format="ascii">
          5.64784765e-01 -4.82786149e-02 0.00000000e+00 
5.75181007e-01 -4.74695377e-02 0.00000000e+00 
5.85575700e-01 -4.66405638e-02 0.00000000e+00 
5.95968783e-01 -4.57924642e-02 0.00000000e+00 

        </DataArray>
      </Points>
      <Cells>
        <DataArray type="Int32" Name="connectivity" format="ascii">
0 1
1 2
2 3

        </DataArray>
        <DataArray type="Int32" Name="offsets" format="ascii">
2 4 6 
        </DataArray>
        <DataArray type="UInt8" Name="types" format="ascii">
3 3 3 
        </DataArray>
      </Cells>
      <PointData>
        <DataArray type="Float64" Name="rho">
          9.16991304e-01 9.18494873e-01 9.20018437e-01 9.21560020e-01 
        </DataArray>
        <DataArray type="Float64" Name="rhou">
          5.58709069e-04 5.33628089e-04 5.02013493e-04 4.79813185e-04 
        </DataArray>
        <DataArray type="Float64" Name="rhov">
          -1.18581370e-05 -7.85277357e-07 3.66620232e-06 -1.89918299e-07 
        </DataArray>
        <DataArray type="Float64" Name="E">
          2.08494607e+05 2.08855902e+05 2.09221925e+05 2.09592190e+05 
        </DataArray>
      </PointData>
    </Piece>
    <Piece NumberOfPoints="4" NumberOfCells="3">
      <Points>
        <DataArray type="Float64" NumberOfComponents="3" format="ascii">
          5.33586800e-01 -5.05827516e-02 0.00000000e+00 
5.43987691e-01 -4.98356484e-02 0.00000000e+00 
5.54387033e-01 -4.90674041e-02 0.00000000e+00 
5.64784765e-01 -4.82786149e-02 0.00000000e+00 

        </DataArray>
      </Points>
      <Cells>
        <DataArray type="Int32" Name="connectivity" format="ascii">
0 1
1 2
2 3

        </DataArray>
        <DataArray type="Int32" Name="offsets" format="ascii">
2 4 6 
        </DataArray>
        <DataArray type="UInt8" Name="types" format="ascii">
3 3 3 
        </DataArray>
      </Cells>
      <PointData>
        <DataArray type="Float64" Name="rho">
          9.12625941e-01 9.14052252e-01 9.15509220e-01 9.16991263e-01 
        </DataArray>
        <DataArray type="Float64" Name="rhou">
          6.30111830e-04 5.91375262e-04 5.63723532e-04 5.53187337e-04 
        </DataArray>
        <DataArray type="Float64" Name="rhov">
          -9.61641926e-06 -1.00078435e-05 -1.35019951e-05 -1.14454789e-05 
        </DataArray>
        <DataArray type="Float64" Name="E">
          2.07445210e+05 2.07788181e+05 2.08138413e+05 2.08494598e+05 
        </DataArray>
      </PointData>
    </Piece>
    <Piece NumberOfPoints="4" NumberOfCells="3">
      <Points>
        <DataArray type="Float64" NumberOfComponents="3" format="ascii">
          5.02374947e-01 -5.26902266e-02 0.00000000e+00 
5.12780428e-01 -5.20105064e-02 0.00000000e+00 
5.23184419e-01 -5.13078682e-02 0.00000000e+00 
5.33586800e-01 -5.05827516e-02 0.00000000e+00 

        </DataArray>
      </Points>
      <Cells>
        <DataArray type="Int32" Name="connectivity" format="ascii">
0 1
1 2
2 3

        </DataArray>
        <DataArray type="Int32" Name="offsets" format="ascii">
2 4 6 
        </DataArray>
        <DataArray type="UInt8" Name="types" format="ascii">
3 3 3 
        </DataArray>
      </Cells>
      <PointData>
        <DataArray type="Float64" Name="rho">
          9.08566739e-01 9.09879303e-01 9.11234406e-01 9.12625845e-01 
        </DataArray>
        <DataArray type="Float64" Name="rhou">
          7.09427932e-04 6.73878090e-04 6.47168357e-04 6.27503070e-04 
        </DataArray>
        <DataArray type="Float64" Name="rhov">
          -1.76641259e-05 -2.45295878e-05 -2.35266372e-05 -1.00539131e-05 
        </DataArray>
        <DataArray type="Float64" Name="E">
          2.06468462e+05 2.06784420e+05 2.07110482e+05 2.07445188e+05 
        </DataArray>
      </PointData>
    </Piece>
    <Piece NumberOfPoints="4" NumberOfCells="3">
      <Points>
        <DataArray type="Float64" NumberOfComponents="3" format="ascii">
          4.71149325e-01 -5.45825884e-02 0.00000000e+00 
4.81559396e-01 -5.39771840e-02 0.00000000e+00 
4.91967946e-01 -5.33461571e-02 0.00000000e+00 
5.02374947e-01 -5.26902266e-02 0.00000000e+00 

        </DataArray>
      </Points>
      <Cells>
        <DataArray type="Int32" Name="connectivity" format="ascii">
0 1
1 2
2 3

        </DataArray>
        <DataArray type="Int32" Name="offsets" format="ascii">
2 4 6 
        </DataArray>
        <DataArray type="UInt8" Name="types" format="ascii">
3 3 3 
        </DataArray>
      </Cells>
      <PointData>
        <DataArray type="Float64" Name="rho">
          9.04947270e-01 9.06096886e-01 9.07303795e-01 9.08566828e-01 
        </DataArray>
        <DataArray type="Float64" Name="rhou">
          8.14886695e-04 7.92592300e-04 7.46303264e-04 6.89741124e-04 
        </DataArray>
        <DataArray type="Float64" Name="rhov">
          -4.07706827e-05 -3.49443808e-05 -1.81182065e-05 -1.48439661e-05 
        </DataArray>
        <DataArray type="Float64" Name="E">
          2.05596103e+05 2.05873367e+05 2.06164269e+05 2.06468482e+05 
        </DataArray>
      </PointData>
    </Piece>
    <Piece NumberOfPoints="4" NumberOfCells="3">
      <Points>
        <DataArray type="Float64" NumberOfComponents="3" format="ascii">
          4.39910263e-01 -5.62384278e-02 0.00000000e+00 
4.50324744e-01 -5.57143167e-02 0.00000000e+00 
4.60737765e-01 -5.51619194e-02 0.00000000e+00 
4.71149325e-01 -5.45825884e-02 0.00000000e+00 

        </DataArray>
      </Points>
      <Cells>
        <DataArray type="Int32" Name="connectivity" format="ascii">
0 1
1 2
2 3

        </DataArray>
        <DataArray type="Int32" Name="offsets" format="ascii">
2 4 6 
        </DataArray>
        <DataArray type="UInt8" Name="types" format="ascii">
3 3 3 
        </DataArray>
      </Cells>
      <PointData>
        <DataArray type="Float64" Name="rho">
          9.01927863e-01 9.02853158e-01 9.03863180e-01 9.04947346e-01 
        </DataArray>
        <DataArray type="Float64" Name="rhou">
          9.83000509e-04 9.05753156e-04 8.47538668e-04 8.20409934e-04 
        </DataArray>
        <DataArray type="Float64" Name="rhov">
          -3.18615934e-05 -2.32439431e-05 -3.03528180e-05 -3.82431787e-05 
        </DataArray>
        <DataArray type="Float64" Name="E">
          2.04866258e+05 2.05090286e+05 2.05334404e+05 2.05596120e+05 
        </DataArray>
      </PointData>
    </Piece>
    <Piece NumberOfPoints="4" NumberOfCells="3">
      <Points>
        <DataArray type="Float64" NumberOfComponents="3" format="ascii">
          4.08658355e-01 -5.76302819e-02 0.00000000e+00 
4.19077009e-01 -5.71971126e-02 0.00000000e+00 
4.29494321e-01 -5.67329265e-02 0.00000000e+00 
4.39910263e-01 -5.62384278e-02 0.00000000e+00 

        </DataArray>
      </Points>
      <Cells>
        <DataArray type="Int32" Name="connectivity" format="ascii">
0 1
1 2
2 3

        </DataArray>
        <DataArray type="Int32" Name="offsets" format="ascii">
2 4 6 
        </DataArray>
        <DataArray type="UInt8" Name="types" format="ascii">
3 3 3 
        </DataArray>
      </Cells>
      <PointData>
        <DataArray type="Float64" Name="rho">
          8.99718787e-01 9.00352520e-01 9.01092698e-01 9.01927631e-01 
        </DataArray>
        <DataArray type="Float64" Name="rhou">
          1.13896027e-03 1.06902840e-03 1.01737022e-03 9.77675660e-04 
        </DataArray>
        <DataArray type="Float64" Name="rhov">
          -3.87423645e-05 -5.17206942e-05 -5.14344931e-05 -3.17374046e-05 
        </DataArray>
        <DataArray type="Float64" Name="E">
          2.04328844e+05 2.04483600e+05 2.04663634e+05 2.04866205e+05 
        </DataArray>
      </PointData>
    </Piece>
    <Piece NumberOfPoints="4" NumberOfCells="3">
      <Points>
        <DataArray type="Float64" NumberOfComponents="3" format="ascii">
          3.77394795e-01 -5.87291755e-02 0.00000000e+00 
3.87817174e-01 -5.83979115e-02 0.00000000e+00 
3.98238391e-01 -5.80311492e-02 0.00000000e+00 
4.08658355e-01 -5.76302819e-02 0.00000000e+00 

        </DataArray>
      </Points>
      <Cells>
        <DataArray type="Int32" Name="connectivity" format="ascii">
0 1
1 2
2 3

        </DataArray>
        <DataArray type="Int32" Name="offsets" format="ascii">
2 4 6 
        </DataArray>
        <DataArray type="UInt8" Name="types" format="ascii">
3 3 3 
        </DataArray>
      </Cells>
      <PointData>
        <DataArray type="Float64" Name="rho">
          8.98582882e-01 8.98824987e-01 8.99204666e-01 8.99719000e-01 
        </DataArray>
        <DataArray type="Float64" Name="rhou">
          1.38973207e-03 1.31553922e-03 1.21340229e-03 1.10765093e-03 
        </DataArray>
        <DataArray type="Float64" Name="rhov">
          -8.09740895e-05 -5.34322302e-05 -2.60216765e-05 -3.38649853e-05 
        </DataArray>
        <DataArray type="Float64" Name="E">
          2.04046119e+05 2.04107940e+05 2.04202458e+05 2.04328893e+05 
        </DataArray>
      </PointData>
    </Piece>
    <Piece NumberOfPoints="4" NumberOfCells="3">
      <Points>
        <DataArray type="Float64" NumberOfComponents="3" format="ascii">
          3.46121490e-01 -5.95011823e-02 0.00000000e+00 
3.56546819e-01 -5.92821389e-02 0.00000000e+00 
3.66971314e-01 -5.90242445e-02 0.00000000e+00 
3.77394795e-01 -5.87291755e-02 0.00000000e+00 

        </DataArray>
      </Points>
      <Cells>
        <DataArray type="Int32" Name="connectivity" format="ascii">
0 1
1 2
2 3

        </DataArray>
        <DataArray type="Int32" Name="offsets" format="ascii">
2 4 6 
        </DataArray>
        <DataArray type="UInt8" Name="types" format="ascii">
3 3 3 
        </DataArray>
      </Cells>
      <PointData>
        <DataArray type="Float64" Name="rho">
          8.98808810e-01 8.98557498e-01 8.98487914e-01 8.98582974e-01 
        </DataArray>
        <DataArray type="Float64" Name="rhou">
          1.73512167e-03 1.58974556e-03 1.46000930e-03 1.39319564e-03 
        </DataArray>
        <DataArray type="Float64" Name="rhov">
          -1.14921638e-04 -7.31133899e-05 -6.60979342e-05 -7.63595308e-05 
        </DataArray>
        <DataArray type="Float64" Name="E">
          2.04086721e+05 2.04031441e+05 2.04019257e+05 2.04046139e+05 
        </DataArray>
      </PointData>
    </Piece>
    <Piece NumberOfPoints="4" NumberOfCells="3">
      <Points>
        <DataArray type="Float64" NumberOfComponents="3" format="ascii">
          3.14841360e-01 -5.99102043e-02 0.00000000e+00 
3.25268596e-01 -5.98174632e-02 0.00000000e+00 
3.35695356e-01 -5.96801341e-02 0.00000000e+00 
3.46121490e-01 -5.95011823e-02 0.00000000e+00 

        </DataArray>
      </Points>
      <Cells>
        <DataArray type="Int32" Name="connectivity" format="ascii">
0 1
1 2
2 3

        </DataArray>
        <DataArray type="Int32" Name="offsets" format="ascii">
2 4 6 
        </DataArray>
        <DataArray type="UInt8" Name="types" format="ascii">
3 3 3 
        </DataArray>
      </Cells>
      <PointData>
        <DataArray type="Float64" Name="rho">
          9.00796807e-01 8.99898948e-01 8.99245459e-01 8.98808518e-01 
        </DataArray>
        <DataArray type="Float64" Name="rhou">
          2.18854460e-03 1.94267440e-03 1.77661685e-03 1.69938837e-03 
        </DataArray>
        <DataArray type="Float64" Name="rhov">
          -5.12024738e-05 -2.78769365e-05 -6.04497557e-05 -1.14188204e-04 
        </DataArray>
        <DataArray type="Float64" Name="E">
          2.04545486e+05 2.04336821e+05 2.04186064e+05 2.04086654e+05 
        </DataArray>
      </PointData>
    </Piece>
    <Piece NumberOfPoints="4" NumberOfCells="3">
      <Points>
        <DataArray type="Float64" NumberOfComponents="3" format="ascii">
          2.83558637e-01 -5.98983802e-02 0.00000000e+00 
2.93986142e-01 -5.99516556e-02 0.00000000e+00 
3.04413795e-01 -5.99554181e-02 0.00000000e+00 
3.14841360e-01 -5.99102043e-02 0.00000000e+00 

        </DataArray>
      </Points>
      <Cells>
        <DataArray type="Int32" Name="connectivity" format="ascii">
0 1
1 2
2 3

        </DataArray>
        <DataArray type="Int32" Name="offsets" format="ascii">
2 4 6 
        </DataArray>
        <DataArray type="UInt8" Name="types" format="ascii">
3 3 3 
        </DataArray>
      </Cells>
      <PointData>
        <DataArray type="Float64" Name="rho">
          9.05055209e-01 9.03365377e-01 9.01951373e-01 9.00796092e-01 
        </DataArray>
        <DataArray type="Float64" Name="rhou">
          2.66943233e-03 2.50338711e-03 2.36478931e-03 2.17947517e-03 
        </DataArray>
        <DataArray type="Float64" Name="rhov">
          -1.08909872e-04 -1.75991740e-04 -1.39989591e-04 -4.45857535e-05 
        </DataArray>
        <DataArray type="Float64" Name="E">
          2.05543464e+05 2.05146456e+05 2.04815097e+05 2.04545323e+05 
        </DataArray>
      </PointData>
    </Piece>
    <Piece NumberOfPoints="4" NumberOfCells="3">
      <Points>
        <DataArray type="Float64" NumberOfComponents="3" format="ascii">
          2.52279758e-01 -5.94130717e-02 0.00000000e+00 
2.62705088e-01 -5.96327744e-02 0.00000000e+00 
2.73131490e-01 -5.97934239e-02 0.00000000e+00 
2.83558637e-01 -5.98983802e-02 0.00000000e+00 

        </DataArray>
      </Points>
      <Cells>
        <DataArray type="Int32" Name="connectivity" format="ascii">
0 1
1 2
2 3

        </DataArray>
        <DataArray type="Int32" Name="offsets" format="ascii">
2 4 6 
        </DataArray>
        <DataArray type="UInt8" Name="types" format="ascii">
3 3 3 
        </DataArray>
      </Cells>
      <PointData>
        <DataArray type="Float64" Name="rho">
          9.12196004e-01 9.09447819e-01 9.07070484e-01 9.05056133e-01 
        </DataArray>
        <DataArray type="Float64" Name="rhou">
          3.64686160e-03 3.34021759e-03 3.00301016e-03 2.65558032e-03 
        </DataArray>
        <DataArray type="Float64" Name="rhov">
          -2.58984888e-04 -1.65993615e-04 -7.81012038e-05 -8.96509323e-05 
        </DataArray>
        <DataArray type="Float64" Name="E">
          2.07226114e+05 2.06577734e+05 2.06017641e+05 2.05543677e+05 
        </DataArray>
      </PointData>
    </Piece>
    <Piece NumberOfPoints="4" NumberOfCells="3">
      <Points>
        <DataArray type="Float64" NumberOfComponents="3" format="ascii">
          2.21014455e-01 -5.83752058e-02 0.00000000e+00 
2.31433928e-01 -5.87876961e-02 0.00000000e+00 
2.41855890e-01 -5.91322705e-02 0.00000000e+00 
2.52279758e-01 -5.94130717e-02 0.00000000e+00 

        </DataArray>
      </Points>
      <Cells>
        <DataArray type="Int32" Name="connectivity" format="ascii">
0 1
1 2
2 3

        </DataArray>
        <DataArray type="Int32" Name="offsets" format="ascii">
2 4 6 
        </DataArray>
        <DataArray type="UInt8" Name="types" format="ascii">
3 3 3 
        </DataArray>
      </Cells>
      <PointData>
        <DataArray type="Float64" Name="rho">
          9.22993469e-01 9.18921072e-01 9.15337580e-01 9.12196186e-01 
        </DataArray>
        <DataArray type="Float64" Name="rhou">
          5.00500918e-03 4.41779069e-03 3.96981597e-03 3.68121858e-03 
        </DataArray>
        <DataArray type="Float64" Name="rhov">
          -3.67310050e-04 -2.62090568e-04 -2.29075547e-04 -2.42554278e-04 
        </DataArray>
        <DataArray type="Float64" Name="E">
          2.09778986e+05 2.08815405e+05 2.07968182e+05 2.07226151e+05 
        </DataArray>
      </PointData>
    </Piece>
    <Piece NumberOfPoints="4" NumberOfCells="3">
      <Points>
        <DataArray type="Float64" NumberOfComponents="3" format="ascii">
          1.89777538e-01 -5.66898957e-02 0.00000000e+00 
2.00185493e-01 -5.73302582e-02 0.00000000e+00 
2.10598081e-01 -5.78906052e-02 0.00000000e+00 
2.21014455e-01 -5.83752058e-02 0.00000000e+00 

        </DataArray>
      </Points>
      <Cells>
        <DataArray type="Int32" Name="connectivity" format="ascii">
0 1
1 2
2 3

        </DataArray>
        <DataArray type="Int32" Name="offsets" format="ascii">
2 4 6 
        </DataArray>
        <DataArray type="UInt8" Name="types" format="ascii">
3 3 3 
        </DataArray>
      </Cells>
      <PointData>
        <DataArray type="Float64" Name="rho">
          9.38527036e-01 9.32746037e-01 9.27587992e-01 9.22992707e-01 
        </DataArray>
        <DataArray type="Float64" Name="rhou">
          6.93227525e-03 6.12960019e-03 5.54248648e-03 5.06771355e-03 
        </DataArray>
        <DataArray type="Float64" Name="rhov">
          -6.52557110e-04 -5.80599610e-04 -4.79632713e-04 -3.54586409e-04 
        </DataArray>
        <DataArray type="Float64" Name="E">
          2.13460751e+05 2.12089540e+05 2.10867025e+05 2.09778811e+05 
        </DataArray>
      </PointData>
    </Piece>
    <Piece NumberOfPoints="4" NumberOfCells="3">
      <Points>
        <DataArray type="Float64" NumberOfComponents="3" format="ascii">
          1.58592433e-01 -5.42296544e-02 0.00000000e+00 
1.68979734e-01 -5.51457107e-02 0.00000000e+00 
1.79375216e-01 -5.59638515e-02 0.00000000e+00 
1.89777538e-01 -5.66898957e-02 0.00000000e+00 

        </DataArray>
      </Points>
      <Cells>
        <DataArray type="Int32" Name="connectivity" format="ascii">
0 1
1 2
2 3

        </DataArray>
        <DataArray type="Int32" Name="offsets" format="ascii">
2 4 6 
        </DataArray>
        <DataArray type="UInt8" Name="types" format="ascii">
3 3 3 
        </DataArray>
      </Cells>
      <PointData>
        <DataArray type="Float64" Name="rho">
          9.60356382e-01 9.52272740e-01 9.45013168e-01 9.38527455e-01 
        </DataArray>
        <DataArray type="Float64" Name="rhou">
          9.99558318e-03 8.91988878e-03 7.96859437e-03 7.00366263e-03 
        </DataArray>
        <DataArray type="Float64" Name="rhov">
          -1.41049481e-03 -1.21712669e-03 -8.83786630e-04 -6.11981130e-04 
        </DataArray>
        <DataArray type="Float64" Name="E">
          2.18646217e+05 2.16724484e+05 2.15000195e+05 2.13460851e+05 
        </DataArray>
      </PointData>
    </Piece>
    <Piece NumberOfPoints="4" NumberOfCells="3">
      <Points>
        <DataArray type="Float64" NumberOfComponents="3" format="ascii">
          1.27497971e-01 -5.08146733e-02 0.00000000e+00 
1.37849152e-01 -5.20747155e-02 0.00000000e+00 
1.48214847e-01 -5.32093942e-02 0.00000000e+00 
1.58592433e-01 -5.42296544e-02 0.00000000e+00 

        </DataArray>
      </Points>
      <Cells>
        <DataArray type="Int32" Name="connectivity" format="ascii">
0 1
1 2
2 3

        </DataArray>
        <DataArray type="Int32" Name="offsets" format="ascii">
2 4 6 
        </DataArray>
        <DataArray type="UInt8" Name="types" format="ascii">
3 3 3 
        </DataArray>
      </Cells>
      <PointData>
        <DataArray type="Float64" Name="rho">
          9.90903823e-01 9.79541060e-01 9.69379383e-01 9.60360439e-01 
        </DataArray>
        <DataArray type="Float64" Name="rhou">
          1.45283367e-02 1.33515230e-02 1.15452627e-02 1.00240721e-02 
        </DataArray>
        <DataArray type="Float64" Name="rhov">
          -2.29006811e-03 -2.04173141e-03 -1.42437382e-03 -1.33851247e-03 
        </DataArray>
        <DataArray type="Float64" Name="E">
          2.25919614e+05 2.23211833e+05 2.20792851e+05 2.18647148e+05 
        </DataArray>
      </PointData>
    </Piece>
    <Piece NumberOfPoints="4" NumberOfCells="3">
      <Points>
        <DataArray type="Float64" NumberOfComponents="3" format="ascii">
          9.65642184e-02 -4.61716652e-02 0.00000000e+00 
1.06852271e-01 -4.78802323e-02 0.00000000e+00 
1.17164567e-01 -4.94215861e-02 0.00000000e+00 
1.27497971e-01 -5.08146733e-02 0.00000000e+00 

        </DataArray>
      </Points>
      <Cells>
        <DataArray type="Int32" Name="connectivity" format="ascii">
0 1
1 2
2 3

        </DataArray>
        <DataArray type="Int32" Name="offsets" format="ascii">
2 4 6 
        </DataArray>
        <DataArray type="UInt8" Name="types" format="ascii">
3 3 3 
        </DataArray>
      </Cells>
      <PointData>
        <DataArray type="Float64" Name="rho">
          1.03428101e+00 1.01798522e+00 1.00355525e+00 9.90912194e-01 
        </DataArray>
        <DataArray type="Float64" Name="rhou">
          2.46993673e-02 1.81108211e-02 1.72031460e-02 1.28797142e-02 
        </DataArray>
        <DataArray type="Float64" Name="rhov">
          -9.13149078e-04 -7.31025629e-04 -1.56256655e-03 -1.60864584e-03 
        </DataArray>
        <DataArray type="Float64" Name="E">
          2.36280942e+05 2.32383965e+05 2.28938164e+05 2.25921633e+05 
        </DataArray>
      </PointData>
    </Piece>
  </UnstructuredGrid>
</VTKFile>
