<?xml version="1.0"?>
<VTKFile type="UnstructuredGrid" version="0.1" byte_order="LittleEndian">
  <UnstructuredGrid>
    <Piece NumberOfPoints="4" NumberOfCells="3">
      <Points>
        <DataArray type="Float64" NumberOfComponents="3" format="ascii">
          9.65642184e-02 -4.61716652e-02 0.00000000e+00 
9.26280916e-02 -4.54656407e-02 0.00000000e+00 
8.86965096e-02 -4.47326750e-02 0.00000000e+00 
8.47706869e-02 -4.39694971e-02 0.00000000e+00 

        </DataArray>
      </Points>
      <Cells>
        <DataArray type="Int32" Name="connectivity" format="ascii">
0 1
1 2
2 3

        </DataArray>
        <DataArray type="Int32" Name="offsets" format="ascii">
2 4 6 
        </DataArray>
        <DataArray type="UInt8" Name="types" format="ascii">
3 3 3 
        </DataArray>
      </Cells>
      <PointData>
        <DataArray type="Float64" Name="rho">
          1.09157552e+00 1.09790714e+00 1.10453163e+00 1.11157113e+00 
        </DataArray>
        <DataArray type="Float64" Name="rhou">
          2.76127170e-02 2.08475902e-02 2.34531547e-02 2.34069099e-02 
        </DataArray>
        <DataArray type="Float64" Name="rhov">
          -3.20086783e-03 -2.11562192e-03 -1.80948056e-03 -2.25695659e-03 
        </DataArray>
        <DataArray type="Float64" Name="E">
          2.51721796e+05 2.53260670e+05 2.54871556e+05 2.56582892e+05 
        </DataArray>
      </PointData>
    </Piece>
    <Piece NumberOfPoints="4" NumberOfCells="3">
      <Points>
        <DataArray type="Float64" NumberOfComponents="3" format="ascii">
          8.47706869e-02 -4.39694971e-02 0.00000000e+00 
8.08513016e-02 -4.31745499e-02 0.00000000e+00 
7.69388378e-02 -4.23462167e-02 0.00000000e+00 
7.30340332e-02 -4.14824970e-02 0.00000000e+00 

        </DataArray>
      </Points>
      <Cells>
        <DataArray type="Int32" Name="connectivity" format="ascii">
0 1
1 2
2 3

        </DataArray>
        <DataArray type="Int32" Name="offsets" format="ascii">
2 4 6 
        </DataArray>
        <DataArray type="UInt8" Name="types" format="ascii">
3 3 3 
        </DataArray>
      </Cells>
      <PointData>
        <DataArray type="Float64" Name="rho">
          1.11157019e+00 1.11900995e+00 1.12688324e+00 1.13525943e+00 
        </DataArray>
        <DataArray type="Float64" Name="rhou">
          2.35377715e-02 2.25909788e-02 2.10347914e-02 1.93216128e-02 
        </DataArray>
        <DataArray type="Float64" Name="rhov">
          -2.06404064e-03 -1.92871112e-03 -1.09190540e-03 1.49031704e-05 
        </DataArray>
        <DataArray type="Float64" Name="E">
          2.56582680e+05 2.58392393e+05 2.60307995e+05 2.62346282e+05 
        </DataArray>
      </PointData>
    </Piece>
    <Piece NumberOfPoints="4" NumberOfCells="3">
      <Points>
        <DataArray type="Float64" NumberOfComponents="3" format="ascii">
          7.30340332e-02 -4.14824970e-02 0.00000000e+00 
6.91377968e-02 -4.05809283e-02 0.00000000e+00 
6.52511865e-02 -3.96387354e-02 0.00000000e+00 
6.13753870e-02 -3.86530459e-02 0.00000000e+00 

        </DataArray>
      </Points>
      <Cells>
        <DataArray type="Int32" Name="connectivity" format="ascii">
0 1
1 2
2 3

        </DataArray>
        <DataArray type="Int32" Name="offsets" format="ascii">
2 4 6 
        </DataArray>
        <DataArray type="UInt8" Name="types" format="ascii">
3 3 3 
        </DataArray>
      </Cells>
      <PointData>
        <DataArray type="Float64" Name="rho">
          1.13525994e+00 1.14421751e+00 1.15379055e+00 1.16403806e+00 
        </DataArray>
        <DataArray type="Float64" Name="rhou">
          1.94234767e-02 1.69346078e-02 1.26972717e-02 6.99903185e-03 
        </DataArray>
        <DataArray type="Float64" Name="rhov">
          -1.49306401e-04 5.80009881e-04 2.63889326e-03 5.79277223e-03 
        </DataArray>
        <DataArray type="Float64" Name="E">
          2.62346425e+05 2.64527402e+05 2.66858948e+05 2.69356027e+05 
        </DataArray>
      </PointData>
    </Piece>
    <Piece NumberOfPoints="4" NumberOfCells="3">
      <Points>
        <DataArray type="Float64" NumberOfComponents="3" format="ascii">
          6.13753870e-02 -3.86530459e-02 0.00000000e+00 
5.75117208e-02 -3.76208089e-02 0.00000000e+00 
5.36618084e-02 -3.65384258e-02 0.00000000e+00 
4.98276278e-02 -3.54015976e-02 0.00000000e+00 

        </DataArray>
      </Points>
      <Cells>
        <DataArray type="Int32" Name="connectivity" format="ascii">
0 1
1 2
2 3

        </DataArray>
        <DataArray type="Int32" Name="offsets" format="ascii">
2 4 6 
        </DataArray>
        <DataArray type="UInt8" Name="types" format="ascii">
3 3 3 
        </DataArray>
      </Cells>
      <PointData>
        <DataArray type="Float64" Name="rho">
          1.16403830e+00 1.17503813e+00 1.18687657e+00 1.19968279e+00 
        </DataArray>
        <DataArray type="Float64" Name="rhou">
          6.93600770e-03 -2.05538782e-04 -9.48350626e-03 -2.11299845e-02 
        </DataArray>
        <DataArray type="Float64" Name="rhov">
          5.56251824e-03 1.03124513e-02 1.84282944e-02 2.99209876e-02 
        </DataArray>
        <DataArray type="Float64" Name="E">
          2.69356085e+05 2.72039345e+05 2.74928776e+05 2.78056589e+05 
        </DataArray>
      </PointData>
    </Piece>
    <Piece NumberOfPoints="4" NumberOfCells="3">
      <Points>
        <DataArray type="Float64" NumberOfComponents="3" format="ascii">
          4.98276278e-02 -3.54015976e-02 0.00000000e+00 
4.60115410e-02 -3.42054628e-02 0.00000000e+00 
4.22164090e-02 -3.29444520e-02 0.00000000e+00 
3.84457745e-02 -3.16120051e-02 0.00000000e+00 

        </DataArray>
      </Points>
      <Cells>
        <DataArray type="Int32" Name="connectivity" format="ascii">
0 1
1 2
2 3

        </DataArray>
        <DataArray type="Int32" Name="offsets" format="ascii">
2 4 6 
        </DataArray>
        <DataArray type="UInt8" Name="types" format="ascii">
3 3 3 
        </DataArray>
      </Cells>
      <PointData>
        <DataArray type="Float64" Name="rho">
          1.19968264e+00 1.21355128e+00 1.22859729e+00 1.24500802e+00 
        </DataArray>
        <DataArray type="Float64" Name="rhou">
          -2.16023303e-02 -3.56429563e-02 -5.44893438e-02 -7.70956098e-02 
        </DataArray>
        <DataArray type="Float64" Name="rhov">
          2.97073895e-02 4.64633806e-02 7.42147689e-02 1.14793301e-01 
        </DataArray>
        <DataArray type="Float64" Name="E">
          2.78056522e+05 2.81449067e+05 2.85133190e+05 2.89156464e+05 
        </DataArray>
      </PointData>
    </Piece>
    <Piece NumberOfPoints="4" NumberOfCells="3">
      <Points>
        <DataArray type="Float64" NumberOfComponents="3" format="ascii">
          3.84457745e-02 -3.16120051e-02 0.00000000e+00 
3.47041376e-02 -3.02002355e-02 0.00000000e+00 
3.09973080e-02 -2.86995135e-02 0.00000000e+00 
2.73328498e-02 -2.70981900e-02 0.00000000e+00 

        </DataArray>
      </Points>
      <Cells>
        <DataArray type="Int32" Name="connectivity" format="ascii">
0 1
1 2
2 3

        </DataArray>
        <DataArray type="Int32" Name="offsets" format="ascii">
2 4 6 
        </DataArray>
        <DataArray type="UInt8" Name="types" format="ascii">
3 3 3 
        </DataArray>
      </Cells>
      <PointData>
        <DataArray type="Float64" Name="rho">
          1.24500808e+00 1.26296674e+00 1.28266904e+00 1.30447611e+00 
        </DataArray>
        <DataArray type="Float64" Name="rhou">
          -7.80698999e-02 -1.01637855e-01 -1.29638400e-01 -1.54433610e-01 
        </DataArray>
        <DataArray type="Float64" Name="rhov">
          1.14704131e-01 1.70398597e-01 2.56632166e-01 3.77536871e-01 
        </DataArray>
        <DataArray type="Float64" Name="E">
          2.89156349e+05 2.93569338e+05 2.98417800e+05 3.03794017e+05 
        </DataArray>
      </PointData>
    </Piece>
    <Piece NumberOfPoints="4" NumberOfCells="3">
      <Points>
        <DataArray type="Float64" NumberOfComponents="3" format="ascii">
          2.73328498e-02 -2.70981900e-02 0.00000000e+00 
2.37206947e-02 -2.53822580e-02 0.00000000e+00 
2.01744195e-02 -2.35341713e-02 0.00000000e+00 
1.67132635e-02 -2.15314496e-02 0.00000000e+00 

        </DataArray>
      </Points>
      <Cells>
        <DataArray type="Int32" Name="connectivity" format="ascii">
0 1
1 2
2 3

        </DataArray>
        <DataArray type="Int32" Name="offsets" format="ascii">
2 4 6 
        </DataArray>
        <DataArray type="UInt8" Name="types" format="ascii">
3 3 3 
        </DataArray>
      </Cells>
      <PointData>
        <DataArray type="Float64" Name="rho">
          1.30448119e+00 1.32872505e+00 1.35586760e+00 1.38719138e+00 
        </DataArray>
        <DataArray type="Float64" Name="rhou">
          -1.54945718e-01 -1.67451835e-01 -1.50574716e-01 -5.33690580e-02 
        </DataArray>
        <DataArray type="Float64" Name="rhov">
          3.78311993e-01 5.30743139e-01 7.43428166e-01 9.65332311e-01 
        </DataArray>
        <DataArray type="Float64" Name="E">
          3.03794980e+05 3.09792080e+05 3.16516782e+05 3.24285496e+05 
        </DataArray>
      </PointData>
    </Piece>
    <Piece NumberOfPoints="4" NumberOfCells="3">
      <Points>
        <DataArray type="Float64" NumberOfComponents="3" format="ascii">
          1.67132635e-02 -2.15314496e-02 0.00000000e+00 
1.33649679e-02 -1.93456318e-02 0.00000000e+00 
1.01706637e-02 -1.69409402e-02 0.00000000e+00 
7.19343964e-03 -1.42731192e-02 0.00000000e+00 

        </DataArray>
      </Points>
      <Cells>
        <DataArray type="Int32" Name="connectivity" format="ascii">
0 1
1 2
2 3

        </DataArray>
        <DataArray type="Int32" Name="offsets" format="ascii">
2 4 6 
        </DataArray>
        <DataArray type="UInt8" Name="types" format="ascii">
3 3 3 
        </DataArray>
      </Cells>
      <PointData>
        <DataArray type="Float64" Name="rho">
          1.38708330e+00 1.42534308e+00 1.47085344e+00 1.53394558e+00 
        </DataArray>
        <DataArray type="Float64" Name="rhou">
          -3.05449162e-02 1.19543915e-01 4.62660131e-01 8.87125668e-01 
        </DataArray>
        <DataArray type="Float64" Name="rhov">
          9.26719441e-01 1.13412030e+00 1.08713024e+00 5.45802498e-01 
        </DataArray>
        <DataArray type="Float64" Name="E">
          3.24260555e+05 3.33749186e+05 3.45026313e+05 3.60542152e+05 
        </DataArray>
      </PointData>
    </Piece>
    <Piece NumberOfPoints="4" NumberOfCells="3">
      <Points>
        <DataArray type="Float64" NumberOfComponents="3" format="ascii">
          7.19343964e-03 -1.42731192e-02 0.00000000e+00 
4.53082798e-03 -1.12927537e-02 0.00000000e+00 
2.33371323e-03 -7.95678515e-03 0.00000000e+00 
8.10639584e-04 -4.26717056e-03 0.00000000e+00 

        </DataArray>
      </Points>
      <Cells>
        <DataArray type="Int32" Name="connectivity" format="ascii">
0 1
1 2
2 3

        </DataArray>
        <DataArray type="Int32" Name="offsets" format="ascii">
2 4 6 
        </DataArray>
        <DataArray type="UInt8" Name="types" format="ascii">
3 3 3 
        </DataArray>
      </Cells>
      <PointData>
        <DataArray type="Float64" Name="rho">
          1.53446177e+00 1.60718958e+00 1.69490979e+00 1.76363766e+00 
        </DataArray>
        <DataArray type="Float64" Name="rhou">
          8.12945889e-01 9.48663304e-01 2.82654281e-01 -1.25380048e+00 
        </DataArray>
        <DataArray type="Float64" Name="rhov">
          6.42302359e-01 -4.84930282e-01 -1.71807231e+00 -1.84171090e+00 
        </DataArray>
        <DataArray type="Float64" Name="E">
          3.60669619e+05 3.78585804e+05 4.00071094e+05 4.16928312e+05 
        </DataArray>
      </PointData>
    </Piece>
    <Piece NumberOfPoints="4" NumberOfCells="3">
      <Points>
        <DataArray type="Float64" NumberOfComponents="3" format="ascii">
          8.10639584e-04 -4.26717056e-03 0.00000000e+00 
1.91366620e-04 -3.27450951e-04 0.00000000e+00 
6.40850572e-04 3.63462302e-03 0.00000000e+00 
2.03182548e-03 7.37539819e-03 0.00000000e+00 

        </DataArray>
      </Points>
      <Cells>
        <DataArray type="Int32" Name="connectivity" format="ascii">
0 1
1 2
2 3

        </DataArray>
        <DataArray type="Int32" Name="offsets" format="ascii">
2 4 6 
        </DataArray>
        <DataArray type="UInt8" Name="types" format="ascii">
3 3 3 
        </DataArray>
      </Cells>
      <PointData>
        <DataArray type="Float64" Name="rho">
          1.76208276e+00 1.78864800e+00 1.74197953e+00 1.65332891e+00 
        </DataArray>
        <DataArray type="Float64" Name="rhou">
          -1.12853341e+00 -1.89402065e+00 -8.79813042e-01 7.19692242e-01 
        </DataArray>
        <DataArray type="Float64" Name="rhov">
          -1.99105832e+00 3.10758242e-01 1.85849405e+00 1.55001222e+00 
        </DataArray>
        <DataArray type="Float64" Name="E">
          4.16548659e+05 4.22983511e+05 4.11480141e+05 3.89642981e+05 
        </DataArray>
      </PointData>
    </Piece>
    <Piece NumberOfPoints="4" NumberOfCells="3">
      <Points>
        <DataArray type="Float64" NumberOfComponents="3" format="ascii">
          2.03182548e-03 7.37539819e-03 0.00000000e+00 
4.13410179e-03 1.07714310e-02 0.00000000e+00 
6.73249783e-03 1.38076087e-02 0.00000000e+00 
9.66598373e-03 1.65232457e-02 0.00000000e+00 

        </DataArray>
      </Points>
      <Cells>
        <DataArray type="Int32" Name="connectivity" format="ascii">
0 1
1 2
2 3

        </DataArray>
        <DataArray type="Int32" Name="offsets" format="ascii">
2 4 6 
        </DataArray>
        <DataArray type="UInt8" Name="types" format="ascii">
3 3 3 
        </DataArray>
      </Cells>
      <PointData>
        <DataArray type="Float64" Name="rho">
          1.65372630e+00 1.55064464e+00 1.46446109e+00 1.39993355e+00 
        </DataArray>
        <DataArray type="Float64" Name="rhou">
          6.88816246e-01 1.15479429e+00 8.65446515e-01 4.06678366e-01 
        </DataArray>
        <DataArray type="Float64" Name="rhov">
          1.77536772e+00 1.11801558e-01 -1.03474436e+00 -1.38259128e+00 
        </DataArray>
        <DataArray type="Float64" Name="E">
          3.89743327e+05 3.64489725e+05 3.43334238e+05 3.27408802e+05 
        </DataArray>
      </PointData>
    </Piece>
    <Piece NumberOfPoints="4" NumberOfCells="3">
      <Points>
        <DataArray type="Float64" NumberOfComponents="3" format="ascii">
          9.66598373e-03 1.65232457e-02 0.00000000e+00 
1.28298048e-02 1.89677756e-02 0.00000000e+00 
1.61561389e-02 2.11867876e-02 0.00000000e+00 
1.96009967e-02 2.32173651e-02 0.00000000e+00 

        </DataArray>
      </Points>
      <Cells>
        <DataArray type="Int32" Name="connectivity" format="ascii">
0 1
1 2
2 3

        </DataArray>
        <DataArray type="Int32" Name="offsets" format="ascii">
2 4 6 
        </DataArray>
        <DataArray type="UInt8" Name="types" format="ascii">
3 3 3 
        </DataArray>
      </Cells>
      <PointData>
        <DataArray type="Float64" Name="rho">
          1.39973015e+00 1.34937535e+00 1.31209935e+00 1.27940364e+00 
        </DataArray>
        <DataArray type="Float64" Name="rhou">
          4.16439618e-01 1.02473414e-02 -1.80908186e-01 -2.09976763e-01 
        </DataArray>
        <DataArray type="Float64" Name="rhov">
          -1.40620560e+00 -1.31739142e+00 -9.97825781e-01 -6.77747403e-01 
        </DataArray>
        <DataArray type="Float64" Name="E">
          3.27356710e+05 3.14923456e+05 3.05666332e+05 2.97567816e+05 
        </DataArray>
      </PointData>
    </Piece>
    <Piece NumberOfPoints="4" NumberOfCells="3">
      <Points>
        <DataArray type="Float64" NumberOfComponents="3" format="ascii">
          1.96009967e-02 2.32173651e-02 0.00000000e+00 
2.31348258e-02 2.50891000e-02 0.00000000e+00 
2.67372411e-02 2.68253610e-02 0.00000000e+00 
3.03938854e-02 2.84444261e-02 0.00000000e+00 

        </DataArray>
      </Points>
      <Cells>
        <DataArray type="Int32" Name="connectivity" format="ascii">
0 1
1 2
2 3

        </DataArray>
        <DataArray type="Int32" Name="offsets" format="ascii">
2 4 6 
        </DataArray>
        <DataArray type="UInt8" Name="types" format="ascii">
3 3 3 
        </DataArray>
      </Cells>
      <PointData>
        <DataArray type="Float64" Name="rho">
          1.27946883e+00 1.25183132e+00 1.22718079e+00 1.20492348e+00 
        </DataArray>
        <DataArray type="Float64" Name="rhou">
          -2.23190497e-01 -2.16191522e-01 -1.75486538e-01 -1.36247556e-01 
        </DataArray>
        <DataArray type="Float64" Name="rhov">
          -6.96402534e-01 -4.46426846e-01 -2.59107971e-01 -1.45078838e-01 
        </DataArray>
        <DataArray type="Float64" Name="E">
          2.97583189e+05 2.90752718e+05 2.84679922e+05 2.79210612e+05 
        </DataArray>
      </PointData>
    </Piece>
    <Piece NumberOfPoints="4" NumberOfCells="3">
      <Points>
        <DataArray type="Float64" NumberOfComponents="3" format="ascii">
          3.03938854e-02 2.84444261e-02 0.00000000e+00 
3.40943485e-02 2.99607720e-02 0.00000000e+00 
3.78307216e-02 3.13864015e-02 0.00000000e+00 
4.15969416e-02 3.27312648e-02 0.00000000e+00 

        </DataArray>
      </Points>
      <Cells>
        <DataArray type="Int32" Name="connectivity" format="ascii">
0 1
1 2
2 3

        </DataArray>
        <DataArray type="Int32" Name="offsets" format="ascii">
2 4 6 
        </DataArray>
        <DataArray type="UInt8" Name="types" format="ascii">
3 3 3 
        </DataArray>
      </Cells>
      <PointData>
        <DataArray type="Float64" Name="rho">
          1.20492137e+00 1.18481735e+00 1.16660562e+00 1.15004094e+00 
        </DataArray>
        <DataArray type="Float64" Name="rhou">
          -1.34378749e-01 -9.54756698e-02 -6.33732095e-02 -4.05216783e-02 
        </DataArray>
        <DataArray type="Float64" Name="rhov">
          -1.43588025e-01 -6.54683184e-02 -1.64900297e-02 1.05968232e-02 
        </DataArray>
        <DataArray type="Float64" Name="E">
          2.79210362e+05 2.74286376e+05 2.69834658e+05 2.65791161e+05 
        </DataArray>
      </PointData>
    </Piece>
    <Piece NumberOfPoints="4" NumberOfCells="3">
      <Points>
        <DataArray type="Float64" NumberOfComponents="3" format="ascii">
          4.15969416e-02 3.27312648e-02 0.00000000e+00 
4.53883260e-02 3.40034962e-02 0.00000000e+00 
4.92011942e-02 3.52098532e-02 0.00000000e+00 
5.30325845e-02 3.63560505e-02 0.00000000e+00 

        </DataArray>
      </Points>
      <Cells>
        <DataArray type="Int32" Name="connectivity" format="ascii">
0 1
1 2
2 3

        </DataArray>
        <DataArray type="Int32" Name="offsets" format="ascii">
2 4 6 
        </DataArray>
        <DataArray type="UInt8" Name="types" format="ascii">
3 3 3 
        </DataArray>
      </Cells>
      <PointData>
        <DataArray type="Float64" Name="rho">
          1.15004157e+00 1.13492617e+00 1.12109154e+00 1.10837865e+00 
        </DataArray>
        <DataArray type="Float64" Name="rhou">
          -3.93447193e-02 -1.94915249e-02 -4.63167371e-03 5.30570745e-03 
        </DataArray>
        <DataArray type="Float64" Name="rhov">
          1.05162741e-02 2.57090884e-02 3.36482288e-02 3.58820756e-02 
        </DataArray>
        <DataArray type="Float64" Name="E">
          2.65791387e+05 2.62108319e+05 2.58740925e+05 2.55648944e+05 
        </DataArray>
      </PointData>
    </Piece>
    <Piece NumberOfPoints="4" NumberOfCells="3">
      <Points>
        <DataArray type="Float64" NumberOfComponents="3" format="ascii">
          5.30325845e-02 3.63560505e-02 0.00000000e+00 
5.68800643e-02 3.74470428e-02 0.00000000e+00 
6.07415959e-02 3.84872220e-02 0.00000000e+00 
6.46155030e-02 3.94803248e-02 0.00000000e+00 

        </DataArray>
      </Points>
      <Cells>
        <DataArray type="Int32" Name="connectivity" format="ascii">
0 1
1 2
2 3

        </DataArray>
        <DataArray type="Int32" Name="offsets" format="ascii">
2 4 6 
        </DataArray>
        <DataArray type="UInt8" Name="types" format="ascii">
3 3 3 
        </DataArray>
      </Cells>
      <PointData>
        <DataArray type="Float64" Name="rho">
          1.10837942e+00 1.09669248e+00 1.08591364e+00 1.07590285e+00 
        </DataArray>
        <DataArray type="Float64" Name="rhou">
          5.66897805e-03 1.33116638e-02 1.94169896e-02 2.38566274e-02 
        </DataArray>
        <DataArray type="Float64" Name="rhov">
          3.55738680e-02 3.47545638e-02 3.34247136e-02 3.08097574e-02 
        </DataArray>
        <DataArray type="Float64" Name="E">
          2.55649122e+05 2.52809276e+05 2.50191270e+05 2.47760852e+05 
        </DataArray>
      </PointData>
    </Piece>
    <Piece NumberOfPoints="4" NumberOfCells="3">
      <Points>
        <DataArray type="Float64" NumberOfComponents="3" format="ascii">
          6.46155030e-02 3.94803248e-02 0.00000000e+00 
6.85004294e-02 4.04294394e-02 0.00000000e+00 
7.23951608e-02 4.13374715e-02 0.00000000e+00 
7.62986317e-02 4.22072113e-02 0.00000000e+00 

        </DataArray>
      </Points>
      <Cells>
        <DataArray type="Int32" Name="connectivity" format="ascii">
0 1
1 2
2 3

        </DataArray>
        <DataArray type="Int32" Name="offsets" format="ascii">
2 4 6 
        </DataArray>
        <DataArray type="UInt8" Name="types" format="ascii">
3 3 3 
        </DataArray>
      </Cells>
      <PointData>
        <DataArray type="Float64" Name="rho">
          1.07590362e+00 1.06661467e+00 1.05796763e+00 1.04990574e+00 
        </DataArray>
        <DataArray type="Float64" Name="rhou">
          2.36945303e-02 2.62067597e-02 2.77793444e-02 2.83323488e-02 
        </DataArray>
        <DataArray type="Float64" Name="rhov">
          3.05138109e-02 2.70207726e-02 2.40053826e-02 2.10035204e-02 
        </DataArray>
        <DataArray type="Float64" Name="E">
          2.47761013e+05 2.45507008e+05 2.43409162e+05 2.41453183e+05 
        </DataArray>
      </PointData>
    </Piece>
    <Piece NumberOfPoints="4" NumberOfCells="3">
      <Points>
        <DataArray type="Float64" NumberOfComponents="3" format="ascii">
          7.62986317e-02 4.22072113e-02 0.00000000e+00 
8.02098960e-02 4.30411920e-02 0.00000000e+00 
8.41281936e-02 4.38414887e-02 0.00000000e+00 
8.80528912e-02 4.46097627e-02 0.00000000e+00 

        </DataArray>
      </Points>
      <Cells>
        <DataArray type="Int32" Name="connectivity" format="ascii">
0 1
1 2
2 3

        </DataArray>
        <DataArray type="Int32" Name="offsets" format="ascii">
2 4 6 
        </DataArray>
        <DataArray type="UInt8" Name="types" format="ascii">
3 3 3 
        </DataArray>
      </Cells>
      <PointData>
        <DataArray type="Float64" Name="rho">
          1.04990491e+00 1.04237907e+00 1.03530284e+00 1.02862869e+00 
        </DataArray>
        <DataArray type="Float64" Name="rhou">
          2.82125978e-02 2.86212279e-02 2.87246283e-02 2.79772011e-02 
        </DataArray>
        <DataArray type="Float64" Name="rhov">
          2.08437747e-02 1.84695172e-02 1.61133571e-02 1.35393344e-02 
        </DataArray>
        <DataArray type="Float64" Name="E">
          2.41452972e+05 2.39627230e+05 2.37910584e+05 2.36291449e+05 
        </DataArray>
      </PointData>
    </Piece>
    <Piece NumberOfPoints="4" NumberOfCells="3">
      <Points>
        <DataArray type="Float64" NumberOfComponents="3" format="ascii">
          8.80528912e-02 4.46097627e-02 0.00000000e+00 
9.19835642e-02 4.53475714e-02 0.00000000e+00 
9.59195644e-02 4.60564308e-02 0.00000000e+00 
9.98597518e-02 4.67394181e-02 0.00000000e+00 

        </DataArray>
      </Points>
      <Cells>
        <DataArray type="Int32" Name="connectivity" format="ascii">
0 1
1 2
2 3

        </DataArray>
        <DataArray type="Int32" Name="offsets" format="ascii">
2 4 6 
        </DataArray>
        <DataArray type="UInt8" Name="types" format="ascii">
3 3 3 
        </DataArray>
      </Cells>
      <PointData>
        <DataArray type="Float64" Name="rho">
          1.02862893e+00 1.02234810e+00 1.01644563e+00 1.01083130e+00 
        </DataArray>
        <DataArray type="Float64" Name="rhou">
          2.77379579e-02 2.66781841e-02 2.33143170e-02 2.83003760e-02 
        </DataArray>
        <DataArray type="Float64" Name="rhov">
          1.37029254e-02 1.11575729e-02 9.61955319e-03 9.15421556e-03 
        </DataArray>
        <DataArray type="Float64" Name="E">
          2.36291508e+05 2.34767790e+05 2.33335099e+05 2.31972304e+05 
        </DataArray>
      </PointData>
    </Piece>
    <Piece NumberOfPoints="4" NumberOfCells="3">
      <Points>
        <DataArray type="Float64" NumberOfComponents="3" format="ascii">
          9.98597518e-02 4.67394181e-02 0.00000000e+00 
1.10118888e-01 4.83862534e-02 0.00000000e+00 
1.20400399e-01 4.98730615e-02 0.00000000e+00 
1.30701363e-01 5.12186773e-02 0.00000000e+00 

        </DataArray>
      </Points>
      <Cells>
        <DataArray type="Int32" Name="connectivity" format="ascii">
0 1
1 2
2 3

        </DataArray>
        <DataArray type="Int32" Name="offsets" format="ascii">
2 4 6 
        </DataArray>
        <DataArray type="UInt8" Name="types" format="ascii">
3 3 3 
        </DataArray>
      </Cells>
      <PointData>
        <DataArray type="Float64" Name="rho">
          1.01075710e+00 9.97574580e-01 9.86057731e-01 9.75985969e-01 
        </DataArray>
        <DataArray type="Float64" Name="rhou">
          2.60263852e-02 1.80767954e-02 1.62039600e-02 1.28339347e-02 
        </DataArray>
        <DataArray type="Float64" Name="rhov">
          7.84763754e-03 4.64048546e-03 4.17968886e-03 3.47219386e-03 
        </DataArray>
        <DataArray type="Float64" Name="E">
          2.31955363e+05 2.28754241e+05 2.25954149e+05 2.23501104e+05 
        </DataArray>
      </PointData>
    </Piece>
    <Piece NumberOfPoints="4" NumberOfCells="3">
      <Points>
        <DataArray type="Float64" NumberOfComponents="3" format="ascii">
          1.30701363e-01 5.12186773e-02 0.00000000e+00 
1.41019106e-01 5.24347536e-02 0.00000000e+00 
1.51350453e-01 5.35292812e-02 0.00000000e+00 
1.61692888e-01 5.45137413e-02 0.00000000e+00 

        </DataArray>
      </Points>
      <Cells>
        <DataArray type="Int32" Name="connectivity" format="ascii">
0 1
1 2
2 3

        </DataArray>
        <DataArray type="Int32" Name="offsets" format="ascii">
2 4 6 
        </DataArray>
        <DataArray type="UInt8" Name="types" format="ascii">
3 3 3 
        </DataArray>
      </Cells>
      <PointData>
        <DataArray type="Float64" Name="rho">
          9.75982232e-01 9.66939128e-01 9.58905864e-01 9.51779585e-01 
        </DataArray>
        <DataArray type="Float64" Name="rhou">
          1.42893772e-02 1.25090943e-02 1.04783819e-02 9.25451641e-03 
        </DataArray>
        <DataArray type="Float64" Name="rhov">
          4.00681333e-03 2.96702874e-03 2.08627567e-03 1.85226773e-03 
        </DataArray>
        <DataArray type="Float64" Name="E">
          2.23500202e+05 2.21295234e+05 2.19332532e+05 2.17586644e+05 
        </DataArray>
      </PointData>
    </Piece>
    <Piece NumberOfPoints="4" NumberOfCells="3">
      <Points>
        <DataArray type="Float64" NumberOfComponents="3" format="ascii">
          1.61692888e-01 5.45137413e-02 0.00000000e+00 
1.72044471e-01 5.53969070e-02 0.00000000e+00 
1.82403773e-01 5.61845005e-02 0.00000000e+00 
1.92769483e-01 5.68825118e-02 0.00000000e+00 

        </DataArray>
      </Points>
      <Cells>
        <DataArray type="Int32" Name="connectivity" format="ascii">
0 1
1 2
2 3

        </DataArray>
        <DataArray type="Int32" Name="offsets" format="ascii">
2 4 6 
        </DataArray>
        <DataArray type="UInt8" Name="types" format="ascii">
3 3 3 
        </DataArray>
      </Cells>
      <PointData>
        <DataArray type="Float64" Name="rho">
          9.51777106e-01 9.45372132e-01 9.39606551e-01 9.34437910e-01 
        </DataArray>
        <DataArray type="Float64" Name="rhou">
          9.29152235e-03 8.18961221e-03 7.15615213e-03 6.24061817e-03 
        </DataArray>
        <DataArray type="Float64" Name="rhov">
          1.90625550e-03 1.46508084e-03 1.00389417e-03 7.10527222e-04 
        </DataArray>
        <DataArray type="Float64" Name="E">
          2.17586082e+05 2.16012929e+05 2.14592908e+05 2.13315458e+05 
        </DataArray>
      </PointData>
    </Piece>
    <Piece NumberOfPoints="4" NumberOfCells="3">
      <Points>
        <DataArray type="Float64" NumberOfComponents="3" format="ascii">
          1.92769483e-01 5.68825118e-02 0.00000000e+00 
2.03140482e-01 5.74972220e-02 0.00000000e+00 
2.13515818e-01 5.80338500e-02 0.00000000e+00 
2.23894730e-01 5.84962890e-02 0.00000000e+00 

        </DataArray>
      </Points>
      <Cells>
        <DataArray type="Int32" Name="connectivity" format="ascii">
0 1
1 2
2 3

        </DataArray>
        <DataArray type="Int32" Name="offsets" format="ascii">
2 4 6 
        </DataArray>
        <DataArray type="UInt8" Name="types" format="ascii">
3 3 3 
        </DataArray>
      </Cells>
      <PointData>
        <DataArray type="Float64" Name="rho">
          9.34437200e-01 9.29796374e-01 9.25610998e-01 9.21834925e-01 
        </DataArray>
        <DataArray type="Float64" Name="rhou">
          6.28117710e-03 5.54165247e-03 4.96843749e-03 4.49174717e-03 
        </DataArray>
        <DataArray type="Float64" Name="rhov">
          7.55500466e-04 6.24685632e-04 4.62362988e-04 2.94079081e-04 
        </DataArray>
        <DataArray type="Float64" Name="E">
          2.13315292e+05 2.12163755e+05 2.11121017e+05 2.10176060e+05 
        </DataArray>
      </PointData>
    </Piece>
    <Piece NumberOfPoints="4" NumberOfCells="3">
      <Points>
        <DataArray type="Float64" NumberOfComponents="3" format="ascii">
          2.23894730e-01 5.84962890e-02 0.00000000e+00 
2.34276548e-01 5.88882305e-02 0.00000000e+00 
2.44660646e-01 5.92139624e-02 0.00000000e+00 
2.55046517e-01 5.94772622e-02 0.00000000e+00 

        </DataArray>
      </Points>
      <Cells>
        <DataArray type="Int32" Name="connectivity" format="ascii">
0 1
1 2
2 3

        </DataArray>
        <DataArray type="Int32" Name="offsets" format="ascii">
2 4 6 
        </DataArray>
        <DataArray type="UInt8" Name="types" format="ascii">
3 3 3 
        </DataArray>
      </Cells>
      <PointData>
        <DataArray type="Float64" Name="rho">
          9.21835606e-01 9.18440300e-01 9.15395225e-01 9.12657725e-01 
        </DataArray>
        <DataArray type="Float64" Name="rhou">
          4.49986393e-03 3.93919038e-03 3.53067321e-03 3.28812497e-03 
        </DataArray>
        <DataArray type="Float64" Name="rhov">
          3.08905776e-04 2.02538790e-04 1.64801751e-04 1.46327488e-04 
        </DataArray>
        <DataArray type="Float64" Name="E">
          2.10176217e+05 2.09322124e+05 2.08551577e+05 2.07854545e+05 
        </DataArray>
      </PointData>
    </Piece>
    <Piece NumberOfPoints="4" NumberOfCells="3">
      <Points>
        <DataArray type="Float64" NumberOfComponents="3" format="ascii">
          2.55046517e-01 5.94772622e-02 0.00000000e+00 
2.65433758e-01 5.96804135e-02 0.00000000e+00 
2.75821954e-01 5.98256700e-02 0.00000000e+00 
2.86210775e-01 5.99167012e-02 0.00000000e+00 

        </DataArray>
      </Points>
      <Cells>
        <DataArray type="Int32" Name="connectivity" format="ascii">
0 1
1 2
2 3

        </DataArray>
        <DataArray type="Int32" Name="offsets" format="ascii">
2 4 6 
        </DataArray>
        <DataArray type="UInt8" Name="types" format="ascii">
3 3 3 
        </DataArray>
      </Cells>
      <PointData>
        <DataArray type="Float64" Name="rho">
          9.12657748e-01 9.10193215e-01 9.07992060e-01 9.06049458e-01 
        </DataArray>
        <DataArray type="Float64" Name="rhou">
          3.27997967e-03 2.96338393e-03 2.62983120e-03 2.32539094e-03 
        </DataArray>
        <DataArray type="Float64" Name="rhov">
          1.58705857e-04 3.89749238e-05 -3.74376682e-05 -2.65280165e-06 
        </DataArray>
        <DataArray type="Float64" Name="E">
          2.07854555e+05 2.07222964e+05 2.06654535e+05 2.06148004e+05 
        </DataArray>
      </PointData>
    </Piece>
    <Piece NumberOfPoints="4" NumberOfCells="3">
      <Points>
        <DataArray type="Float64" NumberOfComponents="3" format="ascii">
          2.86210775e-01 5.99167012e-02 0.00000000e+00 
2.96599895e-01 5.99572174e-02 0.00000000e+00 
3.06989133e-01 5.99487796e-02 0.00000000e+00 
3.17378193e-01 5.98919280e-02 0.00000000e+00 

        </DataArray>
      </Points>
      <Cells>
        <DataArray type="Int32" Name="connectivity" format="ascii">
0 1
1 2
2 3

        </DataArray>
        <DataArray type="Int32" Name="offsets" format="ascii">
2 4 6 
        </DataArray>
        <DataArray type="UInt8" Name="types" format="ascii">
3 3 3 
        </DataArray>
      </Cells>
      <PointData>
        <DataArray type="Float64" Name="rho">
          9.06048233e-01 9.04326830e-01 9.02789766e-01 9.01436310e-01 
        </DataArray>
        <DataArray type="Float64" Name="rhou">
          2.34731204e-03 2.22077163e-03 2.07856617e-03 1.86078138e-03 
        </DataArray>
        <DataArray type="Float64" Name="rhov">
          1.58447216e-05 5.37905267e-05 -1.17384424e-05 -1.05039879e-04 
        </DataArray>
        <DataArray type="Float64" Name="E">
          2.06147723e+05 2.05694392e+05 2.05285871e+05 2.04922040e+05 
        </DataArray>
      </PointData>
    </Piece>
    <Piece NumberOfPoints="4" NumberOfCells="3">
      <Points>
        <DataArray type="Float64" NumberOfComponents="3" format="ascii">
          3.17378193e-01 5.98919280e-02 0.00000000e+00 
3.27766895e-01 5.97884916e-02 0.00000000e+00 
3.38155061e-01 5.96415885e-02 0.00000000e+00 
3.48542601e-01 5.94538599e-02 0.00000000e+00 

        </DataArray>
      </Points>
      <Cells>
        <DataArray type="Int32" Name="connectivity" format="ascii">
0 1
1 2
2 3

        </DataArray>
        <DataArray type="Int32" Name="offsets" format="ascii">
2 4 6 
        </DataArray>
        <DataArray type="UInt8" Name="types" format="ascii">
3 3 3 
        </DataArray>
      </Cells>
      <PointData>
        <DataArray type="Float64" Name="rho">
          9.01436779e-01 9.00269253e-01 8.99280049e-01 8.98444244e-01 
        </DataArray>
        <DataArray type="Float64" Name="rhou">
          1.89832597e-03 1.65687031e-03 1.51734833e-03 1.46585052e-03 
        </DataArray>
        <DataArray type="Float64" Name="rhov">
          -9.71038643e-05 -1.04226500e-04 -6.19687177e-05 -2.54589132e-05 
        </DataArray>
        <DataArray type="Float64" Name="E">
          2.04922146e+05 2.04603565e+05 2.04328481e+05 2.04091211e+05 
        </DataArray>
      </PointData>
    </Piece>
    <Piece NumberOfPoints="4" NumberOfCells="3">
      <Points>
        <DataArray type="Float64" NumberOfComponents="3" format="ascii">
          3.48542601e-01 5.94538599e-02 0.00000000e+00 
3.58929336e-01 5.92265576e-02 0.00000000e+00 
3.69315147e-01 5.89610897e-02 0.00000000e+00 
3.79699975e-01 5.86590059e-02 0.00000000e+00 

        </DataArray>
      </Points>
      <Cells>
        <DataArray type="Int32" Name="connectivity" format="ascii">
0 1
1 2
2 3

        </DataArray>
        <DataArray type="Int32" Name="offsets" format="ascii">
2 4 6 
        </DataArray>
        <DataArray type="UInt8" Name="types" format="ascii">
3 3 3 
        </DataArray>
      </Cells>
      <PointData>
        <DataArray type="Float64" Name="rho">
          8.98444575e-01 8.97744764e-01 8.97183229e-01 8.96747182e-01 
        </DataArray>
        <DataArray type="Float64" Name="rhou">
          1.48555929e-03 1.32850200e-03 1.21363146e-03 1.15836127e-03 
        </DataArray>
        <DataArray type="Float64" Name="rhov">
          -3.02648364e-05 -6.67993971e-05 -6.43988954e-05 -5.56152932e-05 
        </DataArray>
        <DataArray type="Float64" Name="E">
          2.04091288e+05 2.03887907e+05 2.03718978e+05 2.03581630e+05 
        </DataArray>
      </PointData>
    </Piece>
    <Piece NumberOfPoints="4" NumberOfCells="3">
      <Points>
        <DataArray type="Float64" NumberOfComponents="3" format="ascii">
          3.79699975e-01 5.86590059e-02 0.00000000e+00 
3.90083700e-01 5.83211333e-02 0.00000000e+00 
4.00466233e-01 5.79482466e-02 0.00000000e+00 
4.10847515e-01 5.75418957e-02 0.00000000e+00 

        </DataArray>
      </Points>
      <Cells>
        <DataArray type="Int32" Name="connectivity" format="ascii">
0 1
1 2
2 3

        </DataArray>
        <DataArray type="Int32" Name="offsets" format="ascii">
2 4 6 
        </DataArray>
        <DataArray type="UInt8" Name="types" format="ascii">
3 3 3 
        </DataArray>
      </Cells>
      <PointData>
        <DataArray type="Float64" Name="rho">
          8.96747200e-01 8.96427085e-01 8.96221755e-01 8.96133375e-01 
        </DataArray>
        <DataArray type="Float64" Name="rhou">
          1.14893107e-03 1.06949926e-03 9.69725718e-04 8.70545166e-04 
        </DataArray>
        <DataArray type="Float64" Name="rhov">
          -5.30755566e-05 -8.24091736e-05 -1.01415002e-04 -8.07467784e-05 
        </DataArray>
        <DataArray type="Float64" Name="E">
          2.03581636e+05 2.03473747e+05 2.03395105e+05 2.03346207e+05 
        </DataArray>
      </PointData>
    </Piece>
    <Piece NumberOfPoints="4" NumberOfCells="3">
      <Points>
        <DataArray type="Float64" NumberOfComponents="3" format="ascii">
          4.10847515e-01 5.75418957e-02 0.00000000e+00 
4.21227485e-01 5.71038015e-02 0.00000000e+00 
4.31606144e-01 5.66351078e-02 0.00000000e+00 
4.41983402e-01 5.61364293e-02 0.00000000e+00 

        </DataArray>
      </Points>
      <Cells>
        <DataArray type="Int32" Name="connectivity" format="ascii">
0 1
1 2
2 3

        </DataArray>
        <DataArray type="Int32" Name="offsets" format="ascii">
2 4 6 
        </DataArray>
        <DataArray type="UInt8" Name="types" format="ascii">
3 3 3 
        </DataArray>
      </Cells>
      <PointData>
        <DataArray type="Float64" Name="rho">
          8.96133097e-01 8.96150481e-01 8.96266583e-01 8.96476015e-01 
        </DataArray>
        <DataArray type="Float64" Name="rhou">
          8.95873607e-04 8.33234303e-04 7.89885028e-04 7.45120415e-04 
        </DataArray>
        <DataArray type="Float64" Name="rhov">
          -7.69860892e-05 -6.03420357e-05 -5.94980656e-05 -7.80967452e-05 
        </DataArray>
        <DataArray type="Float64" Name="E">
          2.03346143e+05 2.03324415e+05 2.03328226e+05 2.03356302e+05 
        </DataArray>
      </PointData>
    </Piece>
    <Piece NumberOfPoints="4" NumberOfCells="3">
      <Points>
        <DataArray type="Float64" NumberOfComponents="3" format="ascii">
          4.41983402e-01 5.61364293e-02 0.00000000e+00 
4.52359200e-01 5.56085743e-02 0.00000000e+00 
4.62733537e-01 5.50529286e-02 0.00000000e+00 
4.73106444e-01 5.44707514e-02 0.00000000e+00 

        </DataArray>
      </Points>
      <Cells>
        <DataArray type="Int32" Name="connectivity" format="ascii">
0 1
1 2
2 3

        </DataArray>
        <DataArray type="Int32" Name="offsets" format="ascii">
2 4 6 
        </DataArray>
        <DataArray type="UInt8" Name="types" format="ascii">
3 3 3 
        </DataArray>
      </Cells>
      <PointData>
        <DataArray type="Float64" Name="rho">
          8.96476248e-01 8.96780992e-01 8.97179311e-01 8.97664816e-01 
        </DataArray>
        <DataArray type="Float64" Name="rhou">
          7.41696816e-04 6.67610124e-04 6.19983804e-04 5.96350914e-04 
        </DataArray>
        <DataArray type="Float64" Name="rhov">
          -7.81577377e-05 -7.51520288e-05 -5.90328748e-05 -4.45738754e-05 
        </DataArray>
        <DataArray type="Float64" Name="E">
          2.03356356e+05 2.03409070e+05 2.03485905e+05 2.03585261e+05 
        </DataArray>
      </PointData>
    </Piece>
    <Piece NumberOfPoints="4" NumberOfCells="3">
      <Points>
        <DataArray type="Float64" NumberOfComponents="3" format="ascii">
          4.73106444e-01 5.44707514e-02 0.00000000e+00 
4.83477861e-01 5.38627952e-02 0.00000000e+00 
4.93847787e-01 5.32294959e-02 0.00000000e+00 
5.04216135e-01 5.25716618e-02 0.00000000e+00 

        </DataArray>
      </Points>
      <Cells>
        <DataArray type="Int32" Name="connectivity" format="ascii">
0 1
1 2
2 3

        </DataArray>
        <DataArray type="Int32" Name="offsets" format="ascii">
2 4 6 
        </DataArray>
        <DataArray type="UInt8" Name="types" format="ascii">
3 3 3 
        </DataArray>
      </Cells>
      <PointData>
        <DataArray type="Float64" Name="rho">
          8.97664797e-01 8.98233135e-01 8.98881840e-01 8.99614371e-01 
        </DataArray>
        <DataArray type="Float64" Name="rhou">
          5.85147885e-04 5.65009753e-04 5.21281024e-04 4.64273769e-04 
        </DataArray>
        <DataArray type="Float64" Name="rhov">
          -4.23973472e-05 -4.71483673e-05 -5.85506324e-05 -5.06647121e-05 
        </DataArray>
        <DataArray type="Float64" Name="E">
          2.03585257e+05 2.03705976e+05 2.03847316e+05 2.04009843e+05 
        </DataArray>
      </PointData>
    </Piece>
    <Piece NumberOfPoints="4" NumberOfCells="3">
      <Points>
        <DataArray type="Float64" NumberOfComponents="3" format="ascii">
          5.04216135e-01 5.25716618e-02 0.00000000e+00 
5.14582992e-01 5.18903993e-02 0.00000000e+00 
5.24948359e-01 5.11864908e-02 0.00000000e+00 
5.35312176e-01 5.04603274e-02 0.00000000e+00 

        </DataArray>
      </Points>
      <Cells>
        <DataArray type="Int32" Name="connectivity" format="ascii">
0 1
1 2
2 3

        </DataArray>
        <DataArray type="Int32" Name="offsets" format="ascii">
2 4 6 
        </DataArray>
        <DataArray type="UInt8" Name="types" format="ascii">
3 3 3 
        </DataArray>
      </Cells>
      <PointData>
        <DataArray type="Float64" Name="rho">
          8.99614242e-01 9.00426804e-01 9.01316196e-01 9.02280210e-01 
        </DataArray>
        <DataArray type="Float64" Name="rhou">
          4.78904885e-04 4.49168311e-04 4.30284447e-04 4.08855454e-04 
        </DataArray>
        <DataArray type="Float64" Name="rhov">
          -4.80194644e-05 -3.51123752e-05 -3.23770064e-05 -4.24991493e-05 
        </DataArray>
        <DataArray type="Float64" Name="E">
          2.04009814e+05 2.04192418e+05 2.04394119e+05 2.04614148e+05 
        </DataArray>
      </PointData>
    </Piece>
    <Piece NumberOfPoints="4" NumberOfCells="3">
      <Points>
        <DataArray type="Float64" NumberOfComponents="3" format="ascii">
          5.35312176e-01 5.04603274e-02 0.00000000e+00 
5.45674443e-01 4.97124642e-02 0.00000000e+00 
5.56035221e-01 4.89437394e-02 0.00000000e+00 
5.66394389e-01 4.81546782e-02 0.00000000e+00 

        </DataArray>
      </Points>
      <Cells>
        <DataArray type="Int32" Name="connectivity" format="ascii">
0 1
1 2
2 3

        </DataArray>
        <DataArray type="Int32" Name="offsets" format="ascii">
2 4 6 
        </DataArray>
        <DataArray type="UInt8" Name="types" format="ascii">
3 3 3 
        </DataArray>
      </Cells>
      <PointData>
        <DataArray type="Float64" Name="rho">
          9.02280301e-01 9.03321598e-01 9.04438246e-01 9.05627528e-01 
        </DataArray>
        <DataArray type="Float64" Name="rhou">
          4.01280194e-04 3.67703643e-04 3.48890171e-04 3.40772340e-04 
        </DataArray>
        <DataArray type="Float64" Name="rhov">
          -4.27345440e-05 -3.31766261e-05 -2.37734007e-05 -2.17572896e-05 
        </DataArray>
        <DataArray type="Float64" Name="E">
          2.04614168e+05 2.04852848e+05 2.05109455e+05 2.05383087e+05 
        </DataArray>
      </PointData>
    </Piece>
    <Piece NumberOfPoints="4" NumberOfCells="3">
      <Points>
        <DataArray type="Float64" NumberOfComponents="3" format="ascii">
          5.66394389e-01 4.81546782e-02 0.00000000e+00 
5.76752067e-01 4.73455116e-02 0.00000000e+00 
5.87108195e-01 4.65166979e-02 0.00000000e+00 
5.97462773e-01 4.56690118e-02 0.00000000e+00 

        </DataArray>
      </Points>
      <Cells>
        <DataArray type="Int32" Name="connectivity" format="ascii">
0 1
1 2
2 3

        </DataArray>
        <DataArray type="Int32" Name="offsets" format="ascii">
2 4 6 
        </DataArray>
        <DataArray type="UInt8" Name="types" format="ascii">
3 3 3 
        </DataArray>
      </Cells>
      <PointData>
        <DataArray type="Float64" Name="rho">
          9.05627596e-01 9.06888797e-01 9.08223523e-01 9.09631433e-01 
        </DataArray>
        <DataArray type="Float64" Name="rhou">
          3.39890235e-04 3.14275727e-04 2.87712299e-04 2.70019306e-04 
        </DataArray>
        <DataArray type="Float64" Name="rhov">
          -2.16131175e-05 -2.90314062e-05 -2.67051184e-05 -1.52488867e-05 
        </DataArray>
        <DataArray type="Float64" Name="E">
          2.05383102e+05 2.05673318e+05 2.05980210e+05 2.06303435e+05 
        </DataArray>
      </PointData>
    </Piece>
    <Piece NumberOfPoints="4" NumberOfCells="3">
      <Points>
        <DataArray type="Float64" NumberOfComponents="3" format="ascii">
          5.97462773e-01 4.56690118e-02 0.00000000e+00 
6.07815862e-01 4.48031016e-02 0.00000000e+00 
6.18167400e-01 4.39192392e-02 0.00000000e+00 
6.28517449e-01 4.30175588e-02 0.00000000e+00 

        </DataArray>
      </Points>
      <Cells>
        <DataArray type="Int32" Name="connectivity" format="ascii">
0 1
1 2
2 3

        </DataArray>
        <DataArray type="Int32" Name="offsets" format="ascii">
2 4 6 
        </DataArray>
        <DataArray type="UInt8" Name="types" format="ascii">
3 3 3 
        </DataArray>
      </Cells>
      <PointData>
        <DataArray type="Float64" Name="rho">
          9.09631315e-01 9.11109920e-01 9.12656322e-01 9.14271145e-01 
        </DataArray>
        <DataArray type="Float64" Name="rhou">
          2.65971278e-04 2.63784976e-04 2.54170266e-04 2.32374006e-04 
        </DataArray>
        <DataArray type="Float64" Name="rhov">
          -1.39258751e-05 -5.89013250e-06 -9.52856609e-06 -1.31531134e-05 
        </DataArray>
        <DataArray type="Float64" Name="E">
          2.06303408e+05 2.06642146e+05 2.06995517e+05 2.07363454e+05 
        </DataArray>
      </PointData>
    </Piece>
    <Piece NumberOfPoints="4" NumberOfCells="3">
      <Points>
        <DataArray type="Float64" NumberOfComponents="3" format="ascii">
          6.28517449e-01 4.30175588e-02 0.00000000e+00 
6.38865948e-01 4.20984775e-02 0.00000000e+00 
6.49212897e-01 4.11624312e-02 0.00000000e+00 
6.59558356e-01 4.02097441e-02 0.00000000e+00 

        </DataArray>
      </Points>
      <Cells>
        <DataArray type="Int32" Name="connectivity" format="ascii">
0 1
1 2
2 3

        </DataArray>
        <DataArray type="Int32" Name="offsets" format="ascii">
2 4 6 
        </DataArray>
        <DataArray type="UInt8" Name="types" format="ascii">
3 3 3 
        </DataArray>
      </Cells>
      <PointData>
        <DataArray type="Float64" Name="rho">
          9.14271140e-01 9.15954241e-01 9.17703500e-01 9.19517477e-01 
        </DataArray>
        <DataArray type="Float64" Name="rhou">
          2.33922627e-04 2.22481246e-04 2.14825745e-04 2.04503652e-04 
        </DataArray>
        <DataArray type="Float64" Name="rhov">
          -1.15122534e-05 -5.33328448e-06 -2.28078089e-06 -2.22244150e-07 
        </DataArray>
        <DataArray type="Float64" Name="E">
          2.07363453e+05 2.07745737e+05 2.08141725e+05 2.08550953e+05 
        </DataArray>
      </PointData>
    </Piece>
    <Piece NumberOfPoints="4" NumberOfCells="3">
      <Points>
        <DataArray type="Float64" NumberOfComponents="3" format="ascii">
          6.59558356e-01 4.02097441e-02 0.00000000e+00 
6.69902325e-01 3.92407738e-02 0.00000000e+00 
6.80244744e-01 3.82556282e-02 0.00000000e+00 
6.90585554e-01 3.72543521e-02 0.00000000e+00 

        </DataArray>
      </Points>
      <Cells>
        <DataArray type="Int32" Name="connectivity" format="ascii">
0 1
1 2
2 3

        </DataArray>
        <DataArray type="Int32" Name="offsets" format="ascii">
2 4 6 
        </DataArray>
        <DataArray type="UInt8" Name="types" format="ascii">
3 3 3 
        </DataArray>
      </Cells>
      <PointData>
        <DataArray type="Float64" Name="rho">
          9.19517445e-01 9.21395255e-01 9.23333056e-01 9.25331017e-01 
        </DataArray>
        <DataArray type="Float64" Name="rhou">
          1.97092385e-04 2.03148032e-04 2.00749919e-04 1.84266905e-04 
        </DataArray>
        <DataArray type="Float64" Name="rhov">
          1.73827932e-06 8.40704270e-06 4.00952741e-06 1.31219362e-06 
        </DataArray>
        <DataArray type="Float64" Name="E">
          2.08550946e+05 2.08973096e+05 2.09407213e+05 2.09853269e+05 
        </DataArray>
      </PointData>
    </Piece>
    <Piece NumberOfPoints="4" NumberOfCells="3">
      <Points>
        <DataArray type="Float64" NumberOfComponents="3" format="ascii">
          6.90585554e-01 3.72543521e-02 0.00000000e+00 
7.00924933e-01 3.62373814e-02 0.00000000e+00 
7.11262703e-01 3.52048986e-02 0.00000000e+00 
7.21598923e-01 3.41568366e-02 0.00000000e+00 

        </DataArray>
      </Points>
      <Cells>
        <DataArray type="Int32" Name="connectivity" format="ascii">
0 1
1 2
2 3

        </DataArray>
        <DataArray type="Int32" Name="offsets" format="ascii">
2 4 6 
        </DataArray>
        <DataArray type="UInt8" Name="types" format="ascii">
3 3 3 
        </DataArray>
      </Cells>
      <PointData>
        <DataArray type="Float64" Name="rho">
          9.25330924e-01 9.27388351e-01 9.29500237e-01 9.31665756e-01 
        </DataArray>
        <DataArray type="Float64" Name="rhou">
          1.80186926e-04 1.87870698e-04 1.94984284e-04 1.82928116e-04 
        </DataArray>
        <DataArray type="Float64" Name="rhov">
          3.54193159e-06 1.53783466e-05 1.22833858e-05 5.55138265e-06 
        </DataArray>
        <DataArray type="Float64" Name="E">
          2.09853249e+05 2.10311038e+05 2.10779404e+05 2.11258152e+05 
        </DataArray>
      </PointData>
    </Piece>
    <Piece NumberOfPoints="4" NumberOfCells="3">
      <Points>
        <DataArray type="Float64" NumberOfComponents="3" format="ascii">
          7.21598923e-01 3.41568366e-02 0.00000000e+00 
7.31933594e-01 3.30936089e-02 0.00000000e+00 
7.42266715e-01 3.20154354e-02 0.00000000e+00 
7.52598286e-01 3.09220124e-02 0.00000000e+00 

        </DataArray>
      </Points>
      <Cells>
        <DataArray type="Int32" Name="connectivity" format="ascii">
0 1
1 2
2 3

        </DataArray>
        <DataArray type="Int32" Name="offsets" format="ascii">
2 4 6 
        </DataArray>
        <DataArray type="UInt8" Name="types" format="ascii">
3 3 3 
        </DataArray>
      </Cells>
      <PointData>
        <DataArray type="Float64" Name="rho">
          9.31665710e-01 9.33885039e-01 9.36152022e-01 9.38465075e-01 
        </DataArray>
        <DataArray type="Float64" Name="rhou">
          1.75431143e-04 1.87772175e-04 2.02893617e-04 1.99131439e-04 
        </DataArray>
        <DataArray type="Float64" Name="rhov">
          7.67625352e-06 2.37356320e-05 2.18758032e-05 1.25836600e-05 
        </DataArray>
        <DataArray type="Float64" Name="E">
          2.11258142e+05 2.11747318e+05 2.12245550e+05 2.12752515e+05 
        </DataArray>
      </PointData>
    </Piece>
    <Piece NumberOfPoints="4" NumberOfCells="3">
      <Points>
        <DataArray type="Float64" NumberOfComponents="3" format="ascii">
          7.52598286e-01 3.09220124e-02 0.00000000e+00 
7.62928188e-01 2.98135038e-02 0.00000000e+00 
7.73256481e-01 2.86899786e-02 0.00000000e+00 
7.83583105e-01 2.75512449e-02 0.00000000e+00 

        </DataArray>
      </Points>
      <Cells>
        <DataArray type="Int32" Name="connectivity" format="ascii">
0 1
1 2
2 3

        </DataArray>
        <DataArray type="Int32" Name="offsets" format="ascii">
2 4 6 
        </DataArray>
        <DataArray type="UInt8" Name="types" format="ascii">
3 3 3 
        </DataArray>
      </Cells>
      <PointData>
        <DataArray type="Float64" Name="rho">
          9.38465067e-01 9.40824293e-01 9.43224432e-01 9.45664108e-01 
        </DataArray>
        <DataArray type="Float64" Name="rhou">
          1.91548037e-04 2.06754453e-04 2.21399881e-04 2.21534050e-04 
        </DataArray>
        <DataArray type="Float64" Name="rhov">
          1.47782879e-05 2.43603864e-05 2.10869036e-05 1.50221543e-05 
        </DataArray>
        <DataArray type="Float64" Name="E">
          2.12752514e+05 2.13268279e+05 2.13791709e+05 2.14322553e+05 
        </DataArray>
      </PointData>
    </Piece>
    <Piece NumberOfPoints="4" NumberOfCells="3">
      <Points>
        <DataArray type="Float64" NumberOfComponents="3" format="ascii">
          7.83583105e-01 2.75512449e-02 0.00000000e+00 
7.93908060e-01 2.63975188e-02 0.00000000e+00 
8.04231405e-01 2.52291560e-02 0.00000000e+00 
8.14553022e-01 2.40457114e-02 0.00000000e+00 

        </DataArray>
      </Points>
      <Cells>
        <DataArray type="Int32" Name="connectivity" format="ascii">
0 1
1 2
2 3

        </DataArray>
        <DataArray type="Int32" Name="offsets" format="ascii">
2 4 6 
        </DataArray>
        <DataArray type="UInt8" Name="types" format="ascii">
3 3 3 
        </DataArray>
      </Cells>
      <PointData>
        <DataArray type="Float64" Name="rho">
          9.45664133e-01 9.48142274e-01 9.50655262e-01 9.53197979e-01 
        </DataArray>
        <DataArray type="Float64" Name="rhou">
          2.27225302e-04 2.25383425e-04 2.49364587e-04 2.78546492e-04 
        </DataArray>
        <DataArray type="Float64" Name="rhov">
          1.40923883e-05 2.61470887e-05 3.06498891e-05 1.30444192e-05 
        </DataArray>
        <DataArray type="Float64" Name="E">
          2.14322558e+05 2.14860641e+05 2.15405219e+05 2.15955210e+05 
        </DataArray>
      </PointData>
    </Piece>
    <Piece NumberOfPoints="4" NumberOfCells="3">
      <Points>
        <DataArray type="Float64" NumberOfComponents="3" format="ascii">
          8.14553022e-01 2.40457114e-02 0.00000000e+00 
8.24872792e-01 2.28467938e-02 0.00000000e+00 
8.35190892e-01 2.16327831e-02 0.00000000e+00 
8.45507145e-01 2.04038676e-02 0.00000000e+00 

        </DataArray>
      </Points>
      <Cells>
        <DataArray type="Int32" Name="connectivity" format="ascii">
0 1
1 2
2 3

        </DataArray>
        <DataArray type="Int32" Name="offsets" format="ascii">
2 4 6 
        </DataArray>
        <DataArray type="UInt8" Name="types" format="ascii">
3 3 3 
        </DataArray>
      </Cells>
      <PointData>
        <DataArray type="Float64" Name="rho">
          9.53198109e-01 9.55771943e-01 9.58374515e-01 9.61002825e-01 
        </DataArray>
        <DataArray type="Float64" Name="rhou">
          2.61258645e-04 2.64434608e-04 2.70911600e-04 3.00439911e-04 
        </DataArray>
        <DataArray type="Float64" Name="rhov">
          1.25549977e-05 1.19044014e-05 1.91968024e-05 3.05047738e-05 
        </DataArray>
        <DataArray type="Float64" Name="E">
          2.15955239e+05 2.16511044e+05 2.17072213e+05 2.17638162e+05 
        </DataArray>
      </PointData>
    </Piece>
    <Piece NumberOfPoints="4" NumberOfCells="3">
      <Points>
        <DataArray type="Float64" NumberOfComponents="3" format="ascii">
          8.45507145e-01 2.04038676e-02 0.00000000e+00 
8.55821550e-01 1.91591792e-02 0.00000000e+00 
8.66134048e-01 1.78987328e-02 0.00000000e+00 
8.76444638e-01 1.66228991e-02 0.00000000e+00 

        </DataArray>
      </Points>
      <Cells>
        <DataArray type="Int32" Name="connectivity" format="ascii">
0 1
1 2
2 3

        </DataArray>
        <DataArray type="Int32" Name="offsets" format="ascii">
2 4 6 
        </DataArray>
        <DataArray type="UInt8" Name="types" format="ascii">
3 3 3 
        </DataArray>
      </Cells>
      <PointData>
        <DataArray type="Float64" Name="rho">
          9.61003143e-01 9.63649924e-01 9.66323044e-01 9.69009781e-01 
        </DataArray>
        <DataArray type="Float64" Name="rhou">
          3.58652265e-04 2.96885782e-04 3.13399435e-04 3.84388585e-04 
        </DataArray>
        <DataArray type="Float64" Name="rhov">
          2.13172277e-05 -4.90832960e-06 3.78150605e-06 -3.70353257e-05 
        </DataArray>
        <DataArray type="Float64" Name="E">
          2.17638234e+05 2.18207418e+05 2.18781739e+05 2.19358457e+05 
        </DataArray>
      </PointData>
    </Piece>
    <Piece NumberOfPoints="4" NumberOfCells="3">
      <Points>
        <DataArray type="Float64" NumberOfComponents="3" format="ascii">
          8.76444638e-01 1.66228991e-02 0.00000000e+00 
8.86753201e-01 1.53310820e-02 0.00000000e+00 
8.97059798e-01 1.40233757e-02 0.00000000e+00 
9.07364249e-01 1.26988320e-02 0.00000000e+00 

        </DataArray>
      </Points>
      <Cells>
        <DataArray type="Int32" Name="connectivity" format="ascii">
0 1
1 2
2 3

        </DataArray>
        <DataArray type="Int32" Name="offsets" format="ascii">
2 4 6 
        </DataArray>
        <DataArray type="UInt8" Name="types" format="ascii">
3 3 3 
        </DataArray>
      </Cells>
      <PointData>
        <DataArray type="Float64" Name="rho">
          9.69008852e-01 9.71721139e-01 9.74438259e-01 9.77193857e-01 
        </DataArray>
        <DataArray type="Float64" Name="rhou">
          1.79841579e-04 3.91521597e-04 3.04323181e-04 2.29131042e-04 
        </DataArray>
        <DataArray type="Float64" Name="rhov">
          -2.38235546e-05 -1.86383539e-05 -5.60656686e-05 1.63007243e-04 
        </DataArray>
        <DataArray type="Float64" Name="E">
          2.19358245e+05 2.19940237e+05 2.20523073e+05 2.21114736e+05 
        </DataArray>
      </PointData>
    </Piece>
    <Piece NumberOfPoints="4" NumberOfCells="3">
      <Points>
        <DataArray type="Float64" NumberOfComponents="3" format="ascii">
          9.07364249e-01 1.26988320e-02 0.00000000e+00 
9.17666554e-01 1.13577880e-02 0.00000000e+00 
9.27966774e-01 1.00004105e-02 0.00000000e+00 
9.38264549e-01 8.62528384e-03 0.00000000e+00 

        </DataArray>
      </Points>
      <Cells>
        <DataArray type="Int32" Name="connectivity" format="ascii">
0 1
1 2
2 3

        </DataArray>
        <DataArray type="Int32" Name="offsets" format="ascii">
2 4 6 
        </DataArray>
        <DataArray type="UInt8" Name="types" format="ascii">
3 3 3 
        </DataArray>
      </Cells>
      <PointData>
        <DataArray type="Float64" Name="rho">
          9.77204267e-01 9.79906054e-01 9.82695024e-01 9.85203634e-01 
        </DataArray>
        <DataArray type="Float64" Name="rhou">
          1.92548781e-03 -1.76928200e-04 1.07088219e-03 1.86811763e-03 
        </DataArray>
        <DataArray type="Float64" Name="rhov">
          2.81267336e-05 -7.45530193e-05 1.16625644e-04 -2.87696289e-03 
        </DataArray>
        <DataArray type="Float64" Name="E">
          2.21117078e+05 2.21697252e+05 2.22298734e+05 2.22839872e+05 
        </DataArray>
      </PointData>
    </Piece>
    <Piece NumberOfPoints="4" NumberOfCells="3">
      <Points>
        <DataArray type="Float64" NumberOfComponents="3" format="ascii">
          9.38264549e-01 8.62528384e-03 0.00000000e+00 
9.48560059e-01 7.23283459e-03 0.00000000e+00 
9.58853185e-01 5.82307298e-03 0.00000000e+00 
9.69143867e-01 4.39538015e-03 0.00000000e+00 

        </DataArray>
      </Points>
      <Cells>
        <DataArray type="Int32" Name="connectivity" format="ascii">
0 1
1 2
2 3

        </DataArray>
        <DataArray type="Int32" Name="offsets" format="ascii">
2 4 6 
        </DataArray>
        <DataArray type="UInt8" Name="types" format="ascii">
3 3 3 
        </DataArray>
      </Cells>
      <PointData>
        <DataArray type="Float64" Name="rho">
          9.85103075e-01 9.88286666e-01 9.90611573e-01 9.95921577e-01 
        </DataArray>
        <DataArray type="Float64" Name="rhou">
          -1.38794130e-02 5.16188935e-03 -6.17978291e-03 -3.67301430e-02 
        </DataArray>
        <DataArray type="Float64" Name="rhov">
          -2.15428063e-03 4.31191813e-04 -2.48747328e-03 3.88486308e-02 
        </DataArray>
        <DataArray type="Float64" Name="E">
          2.22817158e+05 2.23516172e+05 2.24030534e+05 2.25235029e+05 
        </DataArray>
      </PointData>
    </Piece>
    <Piece NumberOfPoints="4" NumberOfCells="3">
      <Points>
        <DataArray type="Float64" NumberOfComponents="3" format="ascii">
          9.69143867e-01 4.39538015e-03 0.00000000e+00 
9.79435980e-01 2.94816052e-03 0.00000000e+00 
9.89725590e-01 1.48259092e-03 0.00000000e+00 
1.00000000e+00 0.00000000e+00 0.00000000e+00 

        </DataArray>
      </Points>
      <Cells>
        <DataArray type="Int32" Name="connectivity" format="ascii">
0 1
1 2
2 3

        </DataArray>
        <DataArray type="Int32" Name="offsets" format="ascii">
2 4 6 
        </DataArray>
        <DataArray type="UInt8" Name="types" format="ascii">
3 3 3 
        </DataArray>
      </Cells>
      <PointData>
        <DataArray type="Float64" Name="rho">
          9.96546725e-01 9.95428419e-01 1.00297149e+00 9.80564607e-01 
        </DataArray>
        <DataArray type="Float64" Name="rhou">
          -1.58477112e-04 -2.00854988e-02 -7.16004589e-02 1.07330341e+00 
        </DataArray>
        <DataArray type="Float64" Name="rhov">
          3.73527713e-02 3.33055678e-03 1.02879747e-01 -2.74621034e-01 
        </DataArray>
        <DataArray type="Float64" Name="E">
          2.25372388e+05 2.25154993e+05 2.26936096e+05 2.22100815e+05 
        </DataArray>
      </PointData>
    </Piece>
    <Piece NumberOfPoints="4" NumberOfCells="3">
      <Points>
        <DataArray type="Float64" NumberOfComponents="3" format="ascii">
          9.69029665e-01 -4.41133138e-03 0.00000000e+00 
9.79355037e-01 -2.95961346e-03 0.00000000e+00 
9.89677846e-01 -1.48943183e-03 0.00000000e+00 
1.00000000e+00 0.00000000e+00 0.00000000e+00 

        </DataArray>
      </Points>
      <Cells>
        <DataArray type="Int32" Name="connectivity" format="ascii">
0 1
1 2
2 3

        </DataArray>
        <DataArray type="Int32" Name="offsets" format="ascii">
2 4 6 
        </DataArray>
        <DataArray type="UInt8" Name="types" format="ascii">
3 3 3 
        </DataArray>
      </Cells>
      <PointData>
        <DataArray type="Float64" Name="rho">
          9.95533319e-01 9.93747540e-01 1.00206695e+00 9.83101363e-01 
        </DataArray>
        <DataArray type="Float64" Name="rhou">
          9.90828124e-04 -1.74089983e-02 -8.31615329e-02 1.05661323e+00 
        </DataArray>
        <DataArray type="Float64" Name="rhov">
          -6.20528416e-02 9.58904987e-03 -1.16261158e-01 3.49556335e-01 
        </DataArray>
        <DataArray type="Float64" Name="E">
          2.26068843e+05 2.25574066e+05 2.27347669e+05 2.22820424e+05 
        </DataArray>
      </PointData>
    </Piece>
    <Piece NumberOfPoints="4" NumberOfCells="3">
      <Points>
        <DataArray type="Float64" NumberOfComponents="3" format="ascii">
          9.38035965e-01 -8.65600072e-03 0.00000000e+00 
9.48369622e-01 -7.25875143e-03 0.00000000e+00 
9.58700895e-01 -5.84406452e-03 0.00000000e+00 
9.69029665e-01 -4.41133138e-03 0.00000000e+00 

        </DataArray>
      </Points>
      <Cells>
        <DataArray type="Int32" Name="connectivity" format="ascii">
0 1
1 2
2 3

        </DataArray>
        <DataArray type="Int32" Name="offsets" format="ascii">
2 4 6 
        </DataArray>
        <DataArray type="UInt8" Name="types" format="ascii">
3 3 3 
        </DataArray>
      </Cells>
      <PointData>
        <DataArray type="Float64" Name="rho">
          9.85426680e-01 9.88031078e-01 9.89732435e-01 9.94820025e-01 
        </DataArray>
        <DataArray type="Float64" Name="rhou">
          -1.53545195e-02 5.71606444e-03 -6.07880076e-03 -3.98205693e-02 
        </DataArray>
        <DataArray type="Float64" Name="rhov">
          2.63185687e-03 -7.33872553e-04 3.48373388e-03 -4.15041297e-02 
        </DataArray>
        <DataArray type="Float64" Name="E">
          2.23943155e+05 2.24486101e+05 2.24816320e+05 2.25903969e+05 
        </DataArray>
      </PointData>
    </Piece>
    <Piece NumberOfPoints="4" NumberOfCells="3">
      <Points>
        <DataArray type="Float64" NumberOfComponents="3" format="ascii">
          9.07021165e-01 -1.27432076e-02 0.00000000e+00 
9.17361677e-01 -1.13977119e-02 0.00000000e+00 
9.27700043e-01 -1.00357840e-02 0.00000000e+00 
9.38035965e-01 -8.65600072e-03 0.00000000e+00 

        </DataArray>
      </Points>
      <Cells>
        <DataArray type="Int32" Name="connectivity" format="ascii">
0 1
1 2
2 3

        </DataArray>
        <DataArray type="Int32" Name="offsets" format="ascii">
2 4 6 
        </DataArray>
        <DataArray type="UInt8" Name="types" format="ascii">
3 3 3 
        </DataArray>
      </Cells>
      <PointData>
        <DataArray type="Float64" Name="rho">
          9.79733988e-01 9.81679586e-01 9.83751674e-01 9.85540672e-01 
        </DataArray>
        <DataArray type="Float64" Name="rhou">
          2.18239657e-03 -2.39754673e-04 1.16900945e-03 2.08373111e-03 
        </DataArray>
        <DataArray type="Float64" Name="rhov">
          -1.15890373e-04 -2.04398895e-05 -2.83082214e-04 3.12876209e-03 
        </DataArray>
        <DataArray type="Float64" Name="E">
          2.22771293e+05 2.23175487e+05 2.23606118e+05 2.23968997e+05 
        </DataArray>
      </PointData>
    </Piece>
    <Piece NumberOfPoints="4" NumberOfCells="3">
      <Points>
        <DataArray type="Float64" NumberOfComponents="3" format="ascii">
          8.75986874e-01 -1.66798849e-02 0.00000000e+00 
8.86333704e-01 -1.53839625e-02 0.00000000e+00 
8.96678507e-01 -1.40720531e-02 0.00000000e+00 
9.07021165e-01 -1.27432076e-02 0.00000000e+00 

        </DataArray>
      </Points>
      <Cells>
        <DataArray type="Int32" Name="connectivity" format="ascii">
0 1
1 2
2 3

        </DataArray>
        <DataArray type="Int32" Name="offsets" format="ascii">
2 4 6 
        </DataArray>
        <DataArray type="UInt8" Name="types" format="ascii">
3 3 3 
        </DataArray>
      </Cells>
      <PointData>
        <DataArray type="Float64" Name="rho">
          9.73903680e-01 9.75810611e-01 9.77736739e-01 9.79721998e-01 
        </DataArray>
        <DataArray type="Float64" Name="rhou">
          2.10602508e-04 4.39313981e-04 3.34487408e-04 2.46338660e-04 
        </DataArray>
        <DataArray type="Float64" Name="rhov">
          -2.05020898e-05 -4.11104683e-05 -9.25107950e-06 -2.66669263e-04 
        </DataArray>
        <DataArray type="Float64" Name="E">
          2.21552510e+05 2.21951423e+05 2.22353833e+05 2.22768569e+05 
        </DataArray>
      </PointData>
    </Piece>
    <Piece NumberOfPoints="4" NumberOfCells="3">
      <Points>
        <DataArray type="Float64" NumberOfComponents="3" format="ascii">
          8.44934702e-01 -2.04724707e-02 0.00000000e+00 
8.55287313e-01 -1.92240477e-02 0.00000000e+00 
8.65638077e-01 -1.79597028e-02 0.00000000e+00 
8.75986874e-01 -1.66798849e-02 0.00000000e+00 

        </DataArray>
      </Points>
      <Cells>
        <DataArray type="Int32" Name="connectivity" format="ascii">
0 1
1 2
2 3

        </DataArray>
        <DataArray type="Int32" Name="offsets" format="ascii">
2 4 6 
        </DataArray>
        <DataArray type="UInt8" Name="types" format="ascii">
3 3 3 
        </DataArray>
      </Cells>
      <PointData>
        <DataArray type="Float64" Name="rho">
          9.68402993e-01 9.70200167e-01 9.72039320e-01 9.73904784e-01 
        </DataArray>
        <DataArray type="Float64" Name="rhou">
          4.45191906e-04 3.51638757e-04 3.54608597e-04 4.44075072e-04 
        </DataArray>
        <DataArray type="Float64" Name="rhov">
          -5.89986689e-05 -2.39820743e-05 -4.59397335e-05 -7.32029231e-06 
        </DataArray>
        <DataArray type="Float64" Name="E">
          2.20401441e+05 2.20777572e+05 2.21162529e+05 2.21552758e+05 
        </DataArray>
      </PointData>
    </Piece>
    <Piece NumberOfPoints="4" NumberOfCells="3">
      <Points>
        <DataArray type="Float64" NumberOfComponents="3" format="ascii">
          8.13865662e-01 -2.41250079e-02 0.00000000e+00 
8.24223816e-01 -2.29226518e-02 0.00000000e+00 
8.34580123e-01 -2.17050612e-02 0.00000000e+00 
8.44934702e-01 -2.04724707e-02 0.00000000e+00 

        </DataArray>
      </Points>
      <Cells>
        <DataArray type="Int32" Name="connectivity" format="ascii">
0 1
1 2
2 3

        </DataArray>
        <DataArray type="Int32" Name="offsets" format="ascii">
2 4 6 
        </DataArray>
        <DataArray type="UInt8" Name="types" format="ascii">
3 3 3 
        </DataArray>
      </Cells>
      <PointData>
        <DataArray type="Float64" Name="rho">
          9.63218313e-01 9.64905491e-01 9.66634486e-01 9.68402551e-01 
        </DataArray>
        <DataArray type="Float64" Name="rhou">
          3.34850575e-04 3.28851380e-04 3.23254187e-04 3.53658454e-04 
        </DataArray>
        <DataArray type="Float64" Name="rhov">
          -2.63631706e-05 -2.78051743e-05 -4.41243263e-05 -6.97403425e-05 
        </DataArray>
        <DataArray type="Float64" Name="E">
          2.19315183e+05 2.19668826e+05 2.20031060e+05 2.20401340e+05 
        </DataArray>
      </PointData>
    </Piece>
    <Piece NumberOfPoints="4" NumberOfCells="3">
      <Points>
        <DataArray type="Float64" NumberOfComponents="3" format="ascii">
          7.82780826e-01 -2.76402626e-02 0.00000000e+00 
7.93144107e-01 -2.64833923e-02 0.00000000e+00 
8.03505778e-01 -2.53117718e-02 0.00000000e+00 
8.13865662e-01 -2.41250079e-02 0.00000000e+00 

        </DataArray>
      </Points>
      <Cells>
        <DataArray type="Int32" Name="connectivity" format="ascii">
0 1
1 2
2 3

        </DataArray>
        <DataArray type="Int32" Name="offsets" format="ascii">
2 4 6 
        </DataArray>
        <DataArray type="UInt8" Name="types" format="ascii">
3 3 3 
        </DataArray>
      </Cells>
      <PointData>
        <DataArray type="Float64" Name="rho">
          9.58413992e-01 9.59971008e-01 9.61574461e-01 9.63218138e-01 
        </DataArray>
        <DataArray type="Float64" Name="rhou">
          3.13118118e-04 2.97351518e-04 3.18385303e-04 3.53595050e-04 
        </DataArray>
        <DataArray type="Float64" Name="rhov">
          -1.69075338e-05 -3.53888346e-05 -4.74057742e-05 -2.67900942e-05 
        </DataArray>
        <DataArray type="Float64" Name="E">
          2.18306328e+05 2.18633674e+05 2.18970386e+05 2.19315142e+05 
        </DataArray>
      </PointData>
    </Piece>
    <Piece NumberOfPoints="4" NumberOfCells="3">
      <Points>
        <DataArray type="Float64" NumberOfComponents="3" format="ascii">
          7.51680970e-01 -3.10197193e-02 0.00000000e+00 
7.62049198e-01 -2.99084149e-02 0.00000000e+00 
7.72415876e-01 -2.87819952e-02 0.00000000e+00 
7.82780826e-01 -2.76402626e-02 0.00000000e+00 

        </DataArray>
      </Points>
      <Cells>
        <DataArray type="Int32" Name="connectivity" format="ascii">
0 1
1 2
2 3

        </DataArray>
        <DataArray type="Int32" Name="offsets" format="ascii">
2 4 6 
        </DataArray>
        <DataArray type="UInt8" Name="types" format="ascii">
3 3 3 
        </DataArray>
      </Cells>
      <PointData>
        <DataArray type="Float64" Name="rho">
          9.54039049e-01 9.55447801e-01 9.56906312e-01 9.58413932e-01 
        </DataArray>
        <DataArray type="Float64" Name="rhou">
          2.82044524e-04 2.93263128e-04 3.04199442e-04 2.98389234e-04 
        </DataArray>
        <DataArray type="Float64" Name="rhov">
          -1.08103931e-05 -2.68790483e-05 -2.59455957e-05 -1.86759497e-05 
        </DataArray>
        <DataArray type="Float64" Name="E">
          2.17383598e+05 2.17681325e+05 2.17988919e+05 2.18306315e+05 
        </DataArray>
      </PointData>
    </Piece>
    <Piece NumberOfPoints="4" NumberOfCells="3">
      <Points>
        <DataArray type="Float64" NumberOfComponents="3" format="ascii">
          7.20566452e-01 -3.42622213e-02 0.00000000e+00 
7.30939507e-01 -3.31965312e-02 0.00000000e+00 
7.41311073e-01 -3.21157984e-02 0.00000000e+00 
7.51680970e-01 -3.10197193e-02 0.00000000e+00 

        </DataArray>
      </Points>
      <Cells>
        <DataArray type="Int32" Name="connectivity" format="ascii">
0 1
1 2
2 3

        </DataArray>
        <DataArray type="Int32" Name="offsets" format="ascii">
2 4 6 
        </DataArray>
        <DataArray type="UInt8" Name="types" format="ascii">
3 3 3 
        </DataArray>
      </Cells>
      <PointData>
        <DataArray type="Float64" Name="rho">
          9.50138999e-01 9.51385126e-01 9.52685669e-01 9.54039040e-01 
        </DataArray>
        <DataArray type="Float64" Name="rhou">
          2.77929761e-04 2.82855314e-04 2.96547241e-04 2.90884203e-04 
        </DataArray>
        <DataArray type="Float64" Name="rhov">
          3.73309833e-06 -2.00877664e-05 -2.20811092e-05 -8.65424659e-06 
        </DataArray>
        <DataArray type="Float64" Name="E">
          2.16555240e+05 2.16820721e+05 2.17096943e+05 2.17383595e+05 
        </DataArray>
      </PointData>
    </Piece>
    <Piece NumberOfPoints="4" NumberOfCells="3">
      <Points>
        <DataArray type="Float64" NumberOfComponents="3" format="ascii">
          6.89437866e-01 -3.73662710e-02 0.00000000e+00 
6.99815631e-01 -3.63472365e-02 0.00000000e+00 
7.10191846e-01 -3.53125818e-02 0.00000000e+00 
7.20566452e-01 -3.42622213e-02 0.00000000e+00 

        </DataArray>
      </Points>
      <Cells>
        <DataArray type="Int32" Name="connectivity" format="ascii">
0 1
1 2
2 3

        </DataArray>
        <DataArray type="Int32" Name="offsets" format="ascii">
2 4 6 
        </DataArray>
        <DataArray type="UInt8" Name="types" format="ascii">
3 3 3 
        </DataArray>
      </Cells>
      <PointData>
        <DataArray type="Float64" Name="rho">
          9.46758337e-01 9.47826560e-01 9.48953634e-01 9.50139020e-01 
        </DataArray>
        <DataArray type="Float64" Name="rhou">
          2.93748798e-04 2.95044195e-04 2.99355203e-04 2.83538197e-04 
        </DataArray>
        <DataArray type="Float64" Name="rhov">
          1.29134635e-05 -5.26884570e-06 -4.97612221e-06 5.00733031e-06 
        </DataArray>
        <DataArray type="Float64" Name="E">
          2.15830063e+05 2.16060142e+05 2.16301907e+05 2.16555245e+05 
        </DataArray>
      </PointData>
    </Piece>
    <Piece NumberOfPoints="4" NumberOfCells="3">
      <Points>
        <DataArray type="Float64" NumberOfComponents="3" format="ascii">
          6.58295333e-01 -4.03269380e-02 0.00000000e+00 
6.68677747e-01 -3.93563360e-02 0.00000000e+00 
6.79058611e-01 -3.83694395e-02 0.00000000e+00 
6.89437866e-01 -3.73662710e-02 0.00000000e+00 

        </DataArray>
      </Points>
      <Cells>
        <DataArray type="Int32" Name="connectivity" format="ascii">
0 1
1 2
2 3

        </DataArray>
        <DataArray type="Int32" Name="offsets" format="ascii">
2 4 6 
        </DataArray>
        <DataArray type="UInt8" Name="types" format="ascii">
3 3 3 
        </DataArray>
      </Cells>
      <PointData>
        <DataArray type="Float64" Name="rho">
          9.43932579e-01 9.44812400e-01 9.45754064e-01 9.46758422e-01 
        </DataArray>
        <DataArray type="Float64" Name="rhou">
          3.23062608e-04 3.24355272e-04 3.17119094e-04 2.94964315e-04 
        </DataArray>
        <DataArray type="Float64" Name="rhov">
          1.75469899e-05 6.10167053e-06 9.16860531e-06 1.44327914e-05 
        </DataArray>
        <DataArray type="Float64" Name="E">
          2.15216054e+05 2.15408216e+05 2.15612845e+05 2.15830083e+05 
        </DataArray>
      </PointData>
    </Piece>
    <Piece NumberOfPoints="4" NumberOfCells="3">
      <Points>
        <DataArray type="Float64" NumberOfComponents="3" format="ascii">
          6.27138972e-01 -4.31386717e-02 0.00000000e+00 
6.37525976e-01 -4.22184542e-02 0.00000000e+00 
6.47911429e-01 -4.12811004e-02 0.00000000e+00 
6.58295333e-01 -4.03269380e-02 0.00000000e+00 

        </DataArray>
      </Points>
      <Cells>
        <DataArray type="Int32" Name="connectivity" format="ascii">
0 1
1 2
2 3

        </DataArray>
        <DataArray type="Int32" Name="offsets" format="ascii">
2 4 6 
        </DataArray>
        <DataArray type="UInt8" Name="types" format="ascii">
3 3 3 
        </DataArray>
      </Cells>
      <PointData>
        <DataArray type="Float64" Name="rho">
          9.41686754e-01 9.42369501e-01 9.43118465e-01 9.43932629e-01 
        </DataArray>
        <DataArray type="Float64" Name="rhou">
          3.78384132e-04 3.58188276e-04 3.42746718e-04 3.28575966e-04 
        </DataArray>
        <DataArray type="Float64" Name="rhov">
          3.45467774e-05 2.60033568e-05 2.04681696e-05 1.87981636e-05 
        </DataArray>
        <DataArray type="Float64" Name="E">
          2.14720373e+05 2.14871961e+05 2.15037310e+05 2.15216065e+05 
        </DataArray>
      </PointData>
    </Piece>
    <Piece NumberOfPoints="4" NumberOfCells="3">
      <Points>
        <DataArray type="Float64" NumberOfComponents="3" format="ascii">
          5.95968783e-01 -4.57924642e-02 0.00000000e+00 
6.06360376e-01 -4.49259281e-02 0.00000000e+00 
6.16750479e-01 -4.40412909e-02 0.00000000e+00 
6.27138972e-01 -4.31386717e-02 0.00000000e+00 

        </DataArray>
      </Points>
      <Cells>
        <DataArray type="Int32" Name="connectivity" format="ascii">
0 1
1 2
2 3

        </DataArray>
        <DataArray type="Int32" Name="offsets" format="ascii">
2 4 6 
        </DataArray>
        <DataArray type="UInt8" Name="types" format="ascii">
3 3 3 
        </DataArray>
      </Cells>
      <PointData>
        <DataArray type="Float64" Name="rho">
          9.40040687e-01 9.40523490e-01 9.41071893e-01 9.41686739e-01 
        </DataArray>
        <DataArray type="Float64" Name="rhou">
          4.25817620e-04 4.15674486e-04 3.99472462e-04 3.72772927e-04 
        </DataArray>
        <DataArray type="Float64" Name="rhov">
          3.83809934e-05 2.65369821e-05 2.86130219e-05 3.51496322e-05 
        </DataArray>
        <DataArray type="Float64" Name="E">
          2.14350866e+05 2.14459906e+05 2.14583073e+05 2.14720370e+05 
        </DataArray>
      </PointData>
    </Piece>
    <Piece NumberOfPoints="4" NumberOfCells="3">
      <Points>
        <DataArray type="Float64" NumberOfComponents="3" format="ascii">
          5.64784765e-01 -4.82786149e-02 0.00000000e+00 
5.75181007e-01 -4.74695377e-02 0.00000000e+00 
5.85575700e-01 -4.66405638e-02 0.00000000e+00 
5.95968783e-01 -4.57924642e-02 0.00000000e+00 

        </DataArray>
      </Points>
      <Cells>
        <DataArray type="Int32" Name="connectivity" format="ascii">
0 1
1 2
2 3

        </DataArray>
        <DataArray type="Int32" Name="offsets" format="ascii">
2 4 6 
        </DataArray>
        <DataArray type="UInt8" Name="types" format="ascii">
3 3 3 
        </DataArray>
      </Cells>
      <PointData>
        <DataArray type="Float64" Name="rho">
          9.39008093e-01 9.39282453e-01 9.39626390e-01 9.40040847e-01 
        </DataArray>
        <DataArray type="Float64" Name="rhou">
          5.18596119e-04 4.87492357e-04 4.48800826e-04 4.20679523e-04 
        </DataArray>
        <DataArray type="Float64" Name="rhov">
          4.33201779e-05 5.25925457e-05 5.17131009e-05 3.87440387e-05 
        </DataArray>
        <DataArray type="Float64" Name="E">
          2.14115787e+05 2.14178439e+05 2.14256823e+05 2.14350903e+05 
        </DataArray>
      </PointData>
    </Piece>
    <Piece NumberOfPoints="4" NumberOfCells="3">
      <Points>
        <DataArray type="Float64" NumberOfComponents="3" format="ascii">
          5.33586800e-01 -5.05827516e-02 0.00000000e+00 
5.43987691e-01 -4.98356484e-02 0.00000000e+00 
5.54387033e-01 -4.90674041e-02 0.00000000e+00 
5.64784765e-01 -4.82786149e-02 0.00000000e+00 

        </DataArray>
      </Points>
      <Cells>
        <DataArray type="Int32" Name="connectivity" format="ascii">
0 1
1 2
2 3

        </DataArray>
        <DataArray type="Int32" Name="offsets" format="ascii">
2 4 6 
        </DataArray>
        <DataArray type="UInt8" Name="types" format="ascii">
3 3 3 
        </DataArray>
      </Cells>
      <PointData>
        <DataArray type="Float64" Name="rho">
          9.38594473e-01 9.38662258e-01 9.38801126e-01 9.39008030e-01 
        </DataArray>
        <DataArray type="Float64" Name="rhou">
          6.03430840e-04 5.55779191e-04 5.24571188e-04 5.13994760e-04 
        </DataArray>
        <DataArray type="Float64" Name="rhov">
          6.60910883e-05 5.88234556e-05 4.67399671e-05 4.26026355e-05 
        </DataArray>
        <DataArray type="Float64" Name="E">
          2.14022985e+05 2.14037372e+05 2.14068623e+05 2.14115773e+05 
        </DataArray>
      </PointData>
    </Piece>
    <Piece NumberOfPoints="4" NumberOfCells="3">
      <Points>
        <DataArray type="Float64" NumberOfComponents="3" format="ascii">
          5.02374947e-01 -5.26902266e-02 0.00000000e+00 
5.12780428e-01 -5.20105064e-02 0.00000000e+00 
5.23184419e-01 -5.13078682e-02 0.00000000e+00 
5.33586800e-01 -5.05827516e-02 0.00000000e+00 

        </DataArray>
      </Points>
      <Cells>
        <DataArray type="Int32" Name="connectivity" format="ascii">
0 1
1 2
2 3

        </DataArray>
        <DataArray type="Int32" Name="offsets" format="ascii">
2 4 6 
        </DataArray>
        <DataArray type="UInt8" Name="types" format="ascii">
3 3 3 
        </DataArray>
      </Cells>
      <PointData>
        <DataArray type="Float64" Name="rho">
          9.38815137e-01 9.38670925e-01 9.38598300e-01 9.38594336e-01 
        </DataArray>
        <DataArray type="Float64" Name="rhou">
          6.94020114e-04 6.53572278e-04 6.25397350e-04 6.02806008e-04 
        </DataArray>
        <DataArray type="Float64" Name="rhov">
          7.51330466e-05 5.83630404e-05 5.24261243e-05 6.38643984e-05 
        </DataArray>
        <DataArray type="Float64" Name="E">
          2.14083157e+05 2.14045619e+05 2.14025859e+05 2.14022954e+05 
        </DataArray>
      </PointData>
    </Piece>
    <Piece NumberOfPoints="4" NumberOfCells="3">
      <Points>
        <DataArray type="Float64" NumberOfComponents="3" format="ascii">
          4.71149325e-01 -5.45825884e-02 0.00000000e+00 
4.81559396e-01 -5.39771840e-02 0.00000000e+00 
4.91967946e-01 -5.33461571e-02 0.00000000e+00 
5.02374947e-01 -5.26902266e-02 0.00000000e+00 

        </DataArray>
      </Points>
      <Cells>
        <DataArray type="Int32" Name="connectivity" format="ascii">
0 1
1 2
2 3

        </DataArray>
        <DataArray type="Int32" Name="offsets" format="ascii">
2 4 6 
        </DataArray>
        <DataArray type="UInt8" Name="types" format="ascii">
3 3 3 
        </DataArray>
      </Cells>
      <PointData>
        <DataArray type="Float64" Name="rho">
          9.39702912e-01 9.39331925e-01 9.39034628e-01 9.38815242e-01 
        </DataArray>
        <DataArray type="Float64" Name="rhou">
          8.14722222e-04 7.93105144e-04 7.40337704e-04 6.70781970e-04 
        </DataArray>
        <DataArray type="Float64" Name="rhov">
          6.41090266e-05 6.44497524e-05 7.92933883e-05 7.69306317e-05 
        </DataArray>
        <DataArray type="Float64" Name="E">
          2.14310730e+05 2.14215668e+05 2.14139567e+05 2.14083181e+05 
        </DataArray>
      </PointData>
    </Piece>
    <Piece NumberOfPoints="4" NumberOfCells="3">
      <Points>
        <DataArray type="Float64" NumberOfComponents="3" format="ascii">
          4.39910263e-01 -5.62384278e-02 0.00000000e+00 
4.50324744e-01 -5.57143167e-02 0.00000000e+00 
4.60737765e-01 -5.51619194e-02 0.00000000e+00 
4.71149325e-01 -5.45825884e-02 0.00000000e+00 

        </DataArray>
      </Points>
      <Cells>
        <DataArray type="Int32" Name="connectivity" format="ascii">
0 1
1 2
2 3

        </DataArray>
        <DataArray type="Int32" Name="offsets" format="ascii">
2 4 6 
        </DataArray>
        <DataArray type="UInt8" Name="types" format="ascii">
3 3 3 
        </DataArray>
      </Cells>
      <PointData>
        <DataArray type="Float64" Name="rho">
          9.41304226e-01 9.40683340e-01 9.40151874e-01 9.39703005e-01 
        </DataArray>
        <DataArray type="Float64" Name="rhou">
          1.00833868e-03 9.18203081e-04 8.52610813e-04 8.23893911e-04 
        </DataArray>
        <DataArray type="Float64" Name="rhov">
          9.46528849e-05 9.87231870e-05 8.24264486e-05 6.55657805e-05 
        </DataArray>
        <DataArray type="Float64" Name="E">
          2.14721975e+05 2.14562414e+05 2.14425910e+05 2.14310751e+05 
        </DataArray>
      </PointData>
    </Piece>
    <Piece NumberOfPoints="4" NumberOfCells="3">
      <Points>
        <DataArray type="Float64" NumberOfComponents="3" format="ascii">
          4.08658355e-01 -5.76302819e-02 0.00000000e+00 
4.19077009e-01 -5.71971126e-02 0.00000000e+00 
4.29494321e-01 -5.67329265e-02 0.00000000e+00 
4.39910263e-01 -5.62384278e-02 0.00000000e+00 

        </DataArray>
      </Points>
      <Cells>
        <DataArray type="Int32" Name="connectivity" format="ascii">
0 1
1 2
2 3

        </DataArray>
        <DataArray type="Int32" Name="offsets" format="ascii">
2 4 6 
        </DataArray>
        <DataArray type="UInt8" Name="types" format="ascii">
3 3 3 
        </DataArray>
      </Cells>
      <PointData>
        <DataArray type="Float64" Name="rho">
          9.43708654e-01 9.42813686e-01 9.42014546e-01 9.41303928e-01 
        </DataArray>
        <DataArray type="Float64" Name="rhou">
          1.18009438e-03 1.10229261e-03 1.04692922e-03 1.00312689e-03 
        </DataArray>
        <DataArray type="Float64" Name="rhov">
          1.02177537e-04 7.96883615e-05 7.39307147e-05 9.29073540e-05 
        </DataArray>
        <DataArray type="Float64" Name="E">
          2.15341220e+05 2.15110582e+05 2.14904718e+05 2.14721906e+05 
        </DataArray>
      </PointData>
    </Piece>
    <Piece NumberOfPoints="4" NumberOfCells="3">
      <Points>
        <DataArray type="Float64" NumberOfComponents="3" format="ascii">
          3.77394795e-01 -5.87291755e-02 0.00000000e+00 
3.87817174e-01 -5.83979115e-02 0.00000000e+00 
3.98238391e-01 -5.80311492e-02 0.00000000e+00 
4.08658355e-01 -5.76302819e-02 0.00000000e+00 

        </DataArray>
      </Points>
      <Cells>
        <DataArray type="Int32" Name="connectivity" format="ascii">
0 1
1 2
2 3

        </DataArray>
        <DataArray type="Int32" Name="offsets" format="ascii">
2 4 6 
        </DataArray>
        <DataArray type="UInt8" Name="types" format="ascii">
3 3 3 
        </DataArray>
      </Cells>
      <PointData>
        <DataArray type="Float64" Name="rho">
          9.47047630e-01 9.45822223e-01 9.44708111e-01 9.43708896e-01 
        </DataArray>
        <DataArray type="Float64" Name="rhou">
          1.46134241e-03 1.38085139e-03 1.26585884e-03 1.14340303e-03 
        </DataArray>
        <DataArray type="Float64" Name="rhov">
          6.14012577e-05 9.03965415e-05 1.19379622e-04 1.06237627e-04 
        </DataArray>
        <DataArray type="Float64" Name="E">
          2.16200249e+05 2.15885255e+05 2.15598657e+05 2.15341277e+05 
        </DataArray>
      </PointData>
    </Piece>
    <Piece NumberOfPoints="4" NumberOfCells="3">
      <Points>
        <DataArray type="Float64" NumberOfComponents="3" format="ascii">
          3.46121490e-01 -5.95011823e-02 0.00000000e+00 
3.56546819e-01 -5.92821389e-02 0.00000000e+00 
3.66971314e-01 -5.90242445e-02 0.00000000e+00 
3.77394795e-01 -5.87291755e-02 0.00000000e+00 

        </DataArray>
      </Points>
      <Cells>
        <DataArray type="Int32" Name="connectivity" format="ascii">
0 1
1 2
2 3

        </DataArray>
        <DataArray type="Int32" Name="offsets" format="ascii">
2 4 6 
        </DataArray>
        <DataArray type="UInt8" Name="types" format="ascii">
3 3 3 
        </DataArray>
      </Cells>
      <PointData>
        <DataArray type="Float64" Name="rho">
          9.51462906e-01 9.49855935e-01 9.48388142e-01 9.47047736e-01 
        </DataArray>
        <DataArray type="Float64" Name="rhou">
          1.84289512e-03 1.68268458e-03 1.53904571e-03 1.46651161e-03 
        </DataArray>
        <DataArray type="Float64" Name="rhov">
          2.50988856e-05 7.20038675e-05 7.85936381e-05 6.55863410e-05 
        </DataArray>
        <DataArray type="Float64" Name="E">
          2.17331494e+05 2.16920642e+05 2.16544460e+05 2.16200272e+05 
        </DataArray>
      </PointData>
    </Piece>
    <Piece NumberOfPoints="4" NumberOfCells="3">
      <Points>
        <DataArray type="Float64" NumberOfComponents="3" format="ascii">
          3.14841360e-01 -5.99102043e-02 0.00000000e+00 
3.25268596e-01 -5.98174632e-02 0.00000000e+00 
3.35695356e-01 -5.96801341e-02 0.00000000e+00 
3.46121490e-01 -5.95011823e-02 0.00000000e+00 

        </DataArray>
      </Points>
      <Cells>
        <DataArray type="Int32" Name="connectivity" format="ascii">
0 1
1 2
2 3

        </DataArray>
        <DataArray type="Int32" Name="offsets" format="ascii">
2 4 6 
        </DataArray>
        <DataArray type="UInt8" Name="types" format="ascii">
3 3 3 
        </DataArray>
      </Cells>
      <PointData>
        <DataArray type="Float64" Name="rho">
          9.57201548e-01 9.55111282e-01 9.53205774e-01 9.51462563e-01 
        </DataArray>
        <DataArray type="Float64" Name="rhou">
          2.33303390e-03 2.06515039e-03 1.88419474e-03 1.80185475e-03 
        </DataArray>
        <DataArray type="Float64" Name="rhov">
          8.95028159e-05 1.19166031e-04 8.45201785e-05 2.50165965e-05 
        </DataArray>
        <DataArray type="Float64" Name="E">
          2.18790832e+05 2.18260979e+05 2.17776235e+05 2.17331415e+05 
        </DataArray>
      </PointData>
    </Piece>
    <Piece NumberOfPoints="4" NumberOfCells="3">
      <Points>
        <DataArray type="Float64" NumberOfComponents="3" format="ascii">
          2.83558637e-01 -5.98983802e-02 0.00000000e+00 
2.93986142e-01 -5.99516556e-02 0.00000000e+00 
3.04413795e-01 -5.99554181e-02 0.00000000e+00 
3.14841360e-01 -5.99102043e-02 0.00000000e+00 

        </DataArray>
      </Points>
      <Cells>
        <DataArray type="Int32" Name="connectivity" format="ascii">
0 1
1 2
2 3

        </DataArray>
        <DataArray type="Int32" Name="offsets" format="ascii">
2 4 6 
        </DataArray>
        <DataArray type="UInt8" Name="types" format="ascii">
3 3 3 
        </DataArray>
      </Cells>
      <PointData>
        <DataArray type="Float64" Name="rho">
          9.64611218e-01 9.61948613e-01 9.59482091e-01 9.57200745e-01 
        </DataArray>
        <DataArray type="Float64" Name="rhou">
          2.83140733e-03 2.66068389e-03 2.51920237e-03 2.32290015e-03 
        </DataArray>
        <DataArray type="Float64" Name="rhov">
          -3.12671915e-08 -6.62961043e-05 -1.82739579e-05 9.63074677e-05 
        </DataArray>
        <DataArray type="Float64" Name="E">
          2.20658078e+05 2.19988748e+05 2.19367094e+05 2.18790647e+05 
        </DataArray>
      </PointData>
    </Piece>
    <Piece NumberOfPoints="4" NumberOfCells="3">
      <Points>
        <DataArray type="Float64" NumberOfComponents="3" format="ascii">
          2.52279758e-01 -5.94130717e-02 0.00000000e+00 
2.62705088e-01 -5.96327744e-02 0.00000000e+00 
2.73131490e-01 -5.97934239e-02 0.00000000e+00 
2.83558637e-01 -5.98983802e-02 0.00000000e+00 

        </DataArray>
      </Points>
      <Cells>
        <DataArray type="Int32" Name="connectivity" format="ascii">
0 1
1 2
2 3

        </DataArray>
        <DataArray type="Int32" Name="offsets" format="ascii">
2 4 6 
        </DataArray>
        <DataArray type="UInt8" Name="types" format="ascii">
3 3 3 
        </DataArray>
      </Cells>
      <PointData>
        <DataArray type="Float64" Name="rho">
          9.74135170e-01 9.70687993e-01 9.67514154e-01 9.64612215e-01 
        </DataArray>
        <DataArray type="Float64" Name="rhou">
          3.83601491e-03 3.52934248e-03 3.18169472e-03 2.81625195e-03 
        </DataArray>
        <DataArray type="Float64" Name="rhov">
          -2.06513380e-04 -8.94602187e-05 2.08371046e-05 2.10803145e-05 
        </DataArray>
        <DataArray type="Float64" Name="E">
          2.23035734e+05 2.22177584e+05 2.21385279e+05 2.20658310e+05 
        </DataArray>
      </PointData>
    </Piece>
    <Piece NumberOfPoints="4" NumberOfCells="3">
      <Points>
        <DataArray type="Float64" NumberOfComponents="3" format="ascii">
          2.21014455e-01 -5.83752058e-02 0.00000000e+00 
2.31433928e-01 -5.87876961e-02 0.00000000e+00 
2.41855890e-01 -5.91322705e-02 0.00000000e+00 
2.52279758e-01 -5.94130717e-02 0.00000000e+00 

        </DataArray>
      </Points>
      <Cells>
        <DataArray type="Int32" Name="connectivity" format="ascii">
0 1
1 2
2 3

        </DataArray>
        <DataArray type="Int32" Name="offsets" format="ascii">
2 4 6 
        </DataArray>
        <DataArray type="UInt8" Name="types" format="ascii">
3 3 3 
        </DataArray>
      </Cells>
      <PointData>
        <DataArray type="Float64" Name="rho">
          9.86386909e-01 9.81942567e-01 9.77872523e-01 9.74135365e-01 
        </DataArray>
        <DataArray type="Float64" Name="rhou">
          5.19710457e-03 4.60979062e-03 4.15965962e-03 3.87425841e-03 
        </DataArray>
        <DataArray type="Float64" Name="rhov">
          -3.92195053e-04 -2.54003520e-04 -1.95234435e-04 -1.88540479e-04 
        </DataArray>
        <DataArray type="Float64" Name="E">
          2.26068914e+05 2.24971449e+05 2.23963688e+05 2.23035774e+05 
        </DataArray>
      </PointData>
    </Piece>
    <Piece NumberOfPoints="4" NumberOfCells="3">
      <Points>
        <DataArray type="Float64" NumberOfComponents="3" format="ascii">
          1.89777538e-01 -5.66898957e-02 0.00000000e+00 
2.00185493e-01 -5.73302582e-02 0.00000000e+00 
2.10598081e-01 -5.78906052e-02 0.00000000e+00 
2.21014455e-01 -5.83752058e-02 0.00000000e+00 

        </DataArray>
      </Points>
      <Cells>
        <DataArray type="Int32" Name="connectivity" format="ascii">
0 1
1 2
2 3

        </DataArray>
        <DataArray type="Int32" Name="offsets" format="ascii">
2 4 6 
        </DataArray>
        <DataArray type="UInt8" Name="types" format="ascii">
3 3 3 
        </DataArray>
      </Cells>
      <PointData>
        <DataArray type="Float64" Name="rho">
          1.00229807e+00 9.96519013e-01 9.91233501e-01 9.86386097e-01 
        </DataArray>
        <DataArray type="Float64" Name="rhou">
          7.08268774e-03 6.29578601e-03 5.72326169e-03 5.26220717e-03 
        </DataArray>
        <DataArray type="Float64" Name="rhov">
          -8.04616675e-04 -6.86367441e-04 -5.42791484e-04 -3.79256158e-04 
        </DataArray>
        <DataArray type="Float64" Name="E">
          2.29980049e+05 2.28562238e+05 2.27262892e+05 2.26068726e+05 
        </DataArray>
      </PointData>
    </Piece>
    <Piece NumberOfPoints="4" NumberOfCells="3">
      <Points>
        <DataArray type="Float64" NumberOfComponents="3" format="ascii">
          1.58592433e-01 -5.42296544e-02 0.00000000e+00 
1.68979734e-01 -5.51457107e-02 0.00000000e+00 
1.79375216e-01 -5.59638515e-02 0.00000000e+00 
1.89777538e-01 -5.66898957e-02 0.00000000e+00 

        </DataArray>
      </Points>
      <Cells>
        <DataArray type="Int32" Name="connectivity" format="ascii">
0 1
1 2
2 3

        </DataArray>
        <DataArray type="Int32" Name="offsets" format="ascii">
2 4 6 
        </DataArray>
        <DataArray type="UInt8" Name="types" format="ascii">
3 3 3 
        </DataArray>
      </Cells>
      <PointData>
        <DataArray type="Float64" Name="rho">
          1.02329885e+00 1.01563189e+00 1.00864734e+00 1.00229850e+00 
        </DataArray>
        <DataArray type="Float64" Name="rhou">
          1.00274913e-02 9.00614816e-03 8.09366370e-03 7.15178655e-03 
        </DataArray>
        <DataArray type="Float64" Name="rhov">
          -1.76582567e-03 -1.49576932e-03 -1.09143931e-03 -7.63461025e-04 
        </DataArray>
        <DataArray type="Float64" Name="E">
          2.35113454e+05 2.33241847e+05 2.31534633e+05 2.29980152e+05 
        </DataArray>
      </PointData>
    </Piece>
    <Piece NumberOfPoints="4" NumberOfCells="3">
      <Points>
        <DataArray type="Float64" NumberOfComponents="3" format="ascii">
          1.27497971e-01 -5.08146733e-02 0.00000000e+00 
1.37849152e-01 -5.20747155e-02 0.00000000e+00 
1.48214847e-01 -5.32093942e-02 0.00000000e+00 
1.58592433e-01 -5.42296544e-02 0.00000000e+00 

        </DataArray>
      </Points>
      <Cells>
        <DataArray type="Int32" Name="connectivity" format="ascii">
0 1
1 2
2 3

        </DataArray>
        <DataArray type="Int32" Name="offsets" format="ascii">
2 4 6 
        </DataArray>
        <DataArray type="UInt8" Name="types" format="ascii">
3 3 3 
        </DataArray>
      </Cells>
      <PointData>
        <DataArray type="Float64" Name="rho">
          1.05169787e+00 1.04120428e+00 1.03175857e+00 1.02330298e+00 
        </DataArray>
        <DataArray type="Float64" Name="rhou">
          1.43096837e-02 1.32530182e-02 1.15220072e-02 1.00501773e-02 
        </DataArray>
        <DataArray type="Float64" Name="rhov">
          -2.94543397e-03 -2.56971798e-03 -1.84728519e-03 -1.69748264e-03 
        </DataArray>
        <DataArray type="Float64" Name="E">
          2.42028417e+05 2.39475435e+05 2.37175881e+05 2.35114409e+05 
        </DataArray>
      </PointData>
    </Piece>
    <Piece NumberOfPoints="4" NumberOfCells="3">
      <Points>
        <DataArray type="Float64" NumberOfComponents="3" format="ascii">
          9.65642184e-02 -4.61716652e-02 0.00000000e+00 
1.06852271e-01 -4.78802323e-02 0.00000000e+00 
1.17164567e-01 -4.94215861e-02 0.00000000e+00 
1.27497971e-01 -5.08146733e-02 0.00000000e+00 

        </DataArray>
      </Points>
      <Cells>
        <DataArray type="Int32" Name="connectivity" format="ascii">
0 1
1 2
2 3

        </DataArray>
        <DataArray type="Int32" Name="offsets" format="ascii">
2 4 6 
        </DataArray>
        <DataArray type="UInt8" Name="types" format="ascii">
3 3 3 
        </DataArray>
      </Cells>
      <PointData>
        <DataArray type="Float64" Name="rho">
          1.09148662e+00 1.07655693e+00 1.06332304e+00 1.05170659e+00 
        </DataArray>
        <DataArray type="Float64" Name="rhou">
          2.40209854e-02 1.76044610e-02 1.68718151e-02 1.26018973e-02 
        </DataArray>
        <DataArray type="Float64" Name="rhov">
          -1.82184958e-03 -1.52295050e-03 -2.29209164e-03 -2.24672639e-03 
        </DataArray>
        <DataArray type="Float64" Name="E">
          2.51701490e+05 2.48072314e+05 2.44855920e+05 2.42030527e+05 
        </DataArray>
      </PointData>
    </Piece>
  </UnstructuredGrid>
</VTKFile>
