<?xml version="1.0"?>
<VTKFile type="UnstructuredGrid" version="0.1" byte_order="LittleEndian">
  <UnstructuredGrid>
    <Piece NumberOfPoints="4" NumberOfCells="3">
      <Points>
        <DataArray type="Float64" NumberOfComponents="3" format="ascii">
          9.65642184e-02 -4.61716652e-02 0.00000000e+00 
9.26280916e-02 -4.54656407e-02 0.00000000e+00 
8.86965096e-02 -4.47326750e-02 0.00000000e+00 
8.47706869e-02 -4.39694971e-02 0.00000000e+00 

        </DataArray>
      </Points>
      <Cells>
        <DataArray type="Int32" Name="connectivity" format="ascii">
0 1
1 2
2 3

        </DataArray>
        <DataArray type="Int32" Name="offsets" format="ascii">
2 4 6 
        </DataArray>
        <DataArray type="UInt8" Name="types" format="ascii">
3 3 3 
        </DataArray>
      </Cells>
      <PointData>
        <DataArray type="Float64" Name="rho">
          1.03251645e+00 1.03942373e+00 1.04664585e+00 1.05431504e+00 
        </DataArray>
        <DataArray type="Float64" Name="rhou">
          2.82696691e-02 2.17757773e-02 2.44237820e-02 2.45988100e-02 
        </DataArray>
        <DataArray type="Float64" Name="rhov">
          -2.24532947e-03 -1.03468944e-03 -6.27058849e-04 -9.43428495e-04 
        </DataArray>
        <DataArray type="Float64" Name="E">
          2.35799520e+05 2.37451189e+05 2.39179783e+05 2.41015738e+05 
        </DataArray>
      </PointData>
    </Piece>
    <Piece NumberOfPoints="4" NumberOfCells="3">
      <Points>
        <DataArray type="Float64" NumberOfComponents="3" format="ascii">
          8.47706869e-02 -4.39694971e-02 0.00000000e+00 
8.08513016e-02 -4.31745499e-02 0.00000000e+00 
7.69388378e-02 -4.23462167e-02 0.00000000e+00 
7.30340332e-02 -4.14824970e-02 0.00000000e+00 

        </DataArray>
      </Points>
      <Cells>
        <DataArray type="Int32" Name="connectivity" format="ascii">
0 1
1 2
2 3

        </DataArray>
        <DataArray type="Int32" Name="offsets" format="ascii">
2 4 6 
        </DataArray>
        <DataArray type="UInt8" Name="types" format="ascii">
3 3 3 
        </DataArray>
      </Cells>
      <PointData>
        <DataArray type="Float64" Name="rho">
          1.05431384e+00 1.06241137e+00 1.07097270e+00 1.08006762e+00 
        </DataArray>
        <DataArray type="Float64" Name="rhou">
          2.46908410e-02 2.38656851e-02 2.24551838e-02 2.08873629e-02 
        </DataArray>
        <DataArray type="Float64" Name="rhov">
          -7.48915734e-04 -5.42143120e-04 3.62827122e-04 1.55490307e-03 
        </DataArray>
        <DataArray type="Float64" Name="E">
          2.41015473e+05 2.42955938e+05 2.45008808e+05 2.47190835e+05 
        </DataArray>
      </PointData>
    </Piece>
    <Piece NumberOfPoints="4" NumberOfCells="3">
      <Points>
        <DataArray type="Float64" NumberOfComponents="3" format="ascii">
          7.30340332e-02 -4.14824970e-02 0.00000000e+00 
6.91377968e-02 -4.05809283e-02 0.00000000e+00 
6.52511865e-02 -3.96387354e-02 0.00000000e+00 
6.13753870e-02 -3.86530459e-02 0.00000000e+00 

        </DataArray>
      </Points>
      <Cells>
        <DataArray type="Int32" Name="connectivity" format="ascii">
0 1
1 2
2 3

        </DataArray>
        <DataArray type="Int32" Name="offsets" format="ascii">
2 4 6 
        </DataArray>
        <DataArray type="UInt8" Name="types" format="ascii">
3 3 3 
        </DataArray>
      </Cells>
      <PointData>
        <DataArray type="Float64" Name="rho">
          1.08006822e+00 1.08978035e+00 1.10014140e+00 1.11121090e+00 
        </DataArray>
        <DataArray type="Float64" Name="rhou">
          2.10050866e-02 1.86546762e-02 1.45546357e-02 9.05408588e-03 
        </DataArray>
        <DataArray type="Float64" Name="rhov">
          1.38943925e-03 2.13240231e-03 4.21127372e-03 7.39741819e-03 
        </DataArray>
        <DataArray type="Float64" Name="E">
          2.47190997e+05 2.49523316e+05 2.52013125e+05 2.54675428e+05 
        </DataArray>
      </PointData>
    </Piece>
    <Piece NumberOfPoints="4" NumberOfCells="3">
      <Points>
        <DataArray type="Float64" NumberOfComponents="3" format="ascii">
          6.13753870e-02 -3.86530459e-02 0.00000000e+00 
5.75117208e-02 -3.76208089e-02 0.00000000e+00 
5.36618084e-02 -3.65384258e-02 0.00000000e+00 
4.98276278e-02 -3.54015976e-02 0.00000000e+00 

        </DataArray>
      </Points>
      <Cells>
        <DataArray type="Int32" Name="connectivity" format="ascii">
0 1
1 2
2 3

        </DataArray>
        <DataArray type="Int32" Name="offsets" format="ascii">
2 4 6 
        </DataArray>
        <DataArray type="UInt8" Name="types" format="ascii">
3 3 3 
        </DataArray>
      </Cells>
      <PointData>
        <DataArray type="Float64" Name="rho">
          1.11121116e+00 1.12307193e+00 1.13580874e+00 1.14955296e+00 
        </DataArray>
        <DataArray type="Float64" Name="rhou">
          8.99775323e-03 1.94146838e-03 -7.27118480e-03 -1.87888414e-02 
        </DataArray>
        <DataArray type="Float64" Name="rhov">
          7.16946028e-03 1.18662344e-02 1.99345051e-02 3.13929513e-02 
        </DataArray>
        <DataArray type="Float64" Name="E">
          2.54675492e+05 2.57532054e+05 2.60602265e+05 2.63918636e+05 
        </DataArray>
      </PointData>
    </Piece>
    <Piece NumberOfPoints="4" NumberOfCells="3">
      <Points>
        <DataArray type="Float64" NumberOfComponents="3" format="ascii">
          4.98276278e-02 -3.54015976e-02 0.00000000e+00 
4.60115410e-02 -3.42054628e-02 0.00000000e+00 
4.22164090e-02 -3.29444520e-02 0.00000000e+00 
3.84457745e-02 -3.16120051e-02 0.00000000e+00 

        </DataArray>
      </Points>
      <Cells>
        <DataArray type="Int32" Name="connectivity" format="ascii">
0 1
1 2
2 3

        </DataArray>
        <DataArray type="Int32" Name="offsets" format="ascii">
2 4 6 
        </DataArray>
        <DataArray type="UInt8" Name="types" format="ascii">
3 3 3 
        </DataArray>
      </Cells>
      <PointData>
        <DataArray type="Float64" Name="rho">
          1.14955288e+00 1.16440444e+00 1.18047544e+00 1.19795733e+00 
        </DataArray>
        <DataArray type="Float64" Name="rhou">
          -1.92433296e-02 -3.33790440e-02 -5.23655303e-02 -7.50788811e-02 
        </DataArray>
        <DataArray type="Float64" Name="rhov">
          3.11784348e-02 4.78372144e-02 7.54679533e-02 1.15896157e-01 
        </DataArray>
        <DataArray type="Float64" Name="E">
          2.63918584e+05 2.67508672e+05 2.71398360e+05 2.75635892e+05 
        </DataArray>
      </PointData>
    </Piece>
    <Piece NumberOfPoints="4" NumberOfCells="3">
      <Points>
        <DataArray type="Float64" NumberOfComponents="3" format="ascii">
          3.84457745e-02 -3.16120051e-02 0.00000000e+00 
3.47041376e-02 -3.02002355e-02 0.00000000e+00 
3.09973080e-02 -2.86995135e-02 0.00000000e+00 
2.73328498e-02 -2.70981900e-02 0.00000000e+00 

        </DataArray>
      </Points>
      <Cells>
        <DataArray type="Int32" Name="connectivity" format="ascii">
0 1
1 2
2 3

        </DataArray>
        <DataArray type="Int32" Name="offsets" format="ascii">
2 4 6 
        </DataArray>
        <DataArray type="UInt8" Name="types" format="ascii">
3 3 3 
        </DataArray>
      </Cells>
      <PointData>
        <DataArray type="Float64" Name="rho">
          1.19795755e+00 1.21703975e+00 1.23791556e+00 1.26095638e+00 
        </DataArray>
        <DataArray type="Float64" Name="rhou">
          -7.60302488e-02 -1.00179825e-01 -1.28819360e-01 -1.54230242e-01 
        </DataArray>
        <DataArray type="Float64" Name="rhov">
          1.15815454e-01 1.71324645e-01 2.57189875e-01 3.77408350e-01 
        </DataArray>
        <DataArray type="Float64" Name="E">
          2.75635810e+05 2.80273059e+05 2.85354764e+05 2.90975030e+05 
        </DataArray>
      </PointData>
    </Piece>
    <Piece NumberOfPoints="4" NumberOfCells="3">
      <Points>
        <DataArray type="Float64" NumberOfComponents="3" format="ascii">
          2.73328498e-02 -2.70981900e-02 0.00000000e+00 
2.37206947e-02 -2.53822580e-02 0.00000000e+00 
2.01744195e-02 -2.35341713e-02 0.00000000e+00 
1.67132635e-02 -2.15314496e-02 0.00000000e+00 

        </DataArray>
      </Points>
      <Cells>
        <DataArray type="Int32" Name="connectivity" format="ascii">
0 1
1 2
2 3

        </DataArray>
        <DataArray type="Int32" Name="offsets" format="ascii">
2 4 6 
        </DataArray>
        <DataArray type="UInt8" Name="types" format="ascii">
3 3 3 
        </DataArray>
      </Cells>
      <PointData>
        <DataArray type="Float64" Name="rho">
          1.26096125e+00 1.28650699e+00 1.31501328e+00 1.34782565e+00 
        </DataArray>
        <DataArray type="Float64" Name="rhou">
          -1.54612756e-01 -1.68697829e-01 -1.53062159e-01 -5.71599489e-02 
        </DataArray>
        <DataArray type="Float64" Name="rhov">
          3.78083458e-01 5.29847640e-01 7.40454479e-01 9.58757525e-01 
        </DataArray>
        <DataArray type="Float64" Name="E">
          2.90975929e+05 2.97229363e+05 3.04220225e+05 3.12277111e+05 
        </DataArray>
      </PointData>
    </Piece>
    <Piece NumberOfPoints="4" NumberOfCells="3">
      <Points>
        <DataArray type="Float64" NumberOfComponents="3" format="ascii">
          1.67132635e-02 -2.15314496e-02 0.00000000e+00 
1.33649679e-02 -1.93456318e-02 0.00000000e+00 
1.01706637e-02 -1.69409402e-02 0.00000000e+00 
7.19343964e-03 -1.42731192e-02 0.00000000e+00 

        </DataArray>
      </Points>
      <Cells>
        <DataArray type="Int32" Name="connectivity" format="ascii">
0 1
1 2
2 3

        </DataArray>
        <DataArray type="Int32" Name="offsets" format="ascii">
2 4 6 
        </DataArray>
        <DataArray type="UInt8" Name="types" format="ascii">
3 3 3 
        </DataArray>
      </Cells>
      <PointData>
        <DataArray type="Float64" Name="rho">
          1.34771984e+00 1.38757428e+00 1.43480265e+00 1.49990072e+00 
        </DataArray>
        <DataArray type="Float64" Name="rhou">
          -3.45963083e-02 1.13721758e-01 4.54815886e-01 8.75003944e-01 
        </DataArray>
        <DataArray type="Float64" Name="rhov">
          9.20514179e-01 1.12347902e+00 1.06871382e+00 5.18884878e-01 
        </DataArray>
        <DataArray type="Float64" Name="E">
          3.12252918e+05 3.22042019e+05 3.33635153e+05 3.49499666e+05 
        </DataArray>
      </PointData>
    </Piece>
    <Piece NumberOfPoints="4" NumberOfCells="3">
      <Points>
        <DataArray type="Float64" NumberOfComponents="3" format="ascii">
          7.19343964e-03 -1.42731192e-02 0.00000000e+00 
4.53082798e-03 -1.12927537e-02 0.00000000e+00 
2.33371323e-03 -7.95678515e-03 0.00000000e+00 
8.10639584e-04 -4.26717056e-03 0.00000000e+00 

        </DataArray>
      </Points>
      <Cells>
        <DataArray type="Int32" Name="connectivity" format="ascii">
0 1
1 2
2 3

        </DataArray>
        <DataArray type="Int32" Name="offsets" format="ascii">
2 4 6 
        </DataArray>
        <DataArray type="UInt8" Name="types" format="ascii">
3 3 3 
        </DataArray>
      </Cells>
      <PointData>
        <DataArray type="Float64" Name="rho">
          1.50042013e+00 1.57486000e+00 1.66397791e+00 1.73273383e+00 
        </DataArray>
        <DataArray type="Float64" Name="rhou">
          8.00017273e-01 9.29943143e-01 2.58437762e-01 -1.27578199e+00 
        </DataArray>
        <DataArray type="Float64" Name="rhov">
          6.17593467e-01 -5.11118636e-01 -1.72939092e+00 -1.81787791e+00 
        </DataArray>
        <DataArray type="Float64" Name="E">
          3.49626971e+05 3.67804008e+05 3.89443055e+05 4.06160741e+05 
        </DataArray>
      </PointData>
    </Piece>
    <Piece NumberOfPoints="4" NumberOfCells="3">
      <Points>
        <DataArray type="Float64" NumberOfComponents="3" format="ascii">
          8.10639584e-04 -4.26717056e-03 0.00000000e+00 
1.91366620e-04 -3.27450951e-04 0.00000000e+00 
6.40850572e-04 3.63462302e-03 0.00000000e+00 
2.03182548e-03 7.37539819e-03 0.00000000e+00 

        </DataArray>
      </Points>
      <Cells>
        <DataArray type="Int32" Name="connectivity" format="ascii">
0 1
1 2
2 3

        </DataArray>
        <DataArray type="Int32" Name="offsets" format="ascii">
2 4 6 
        </DataArray>
        <DataArray type="UInt8" Name="types" format="ascii">
3 3 3 
        </DataArray>
      </Cells>
      <PointData>
        <DataArray type="Float64" Name="rho">
          1.73115743e+00 1.75615667e+00 1.70579103e+00 1.61336632e+00 
        </DataArray>
        <DataArray type="Float64" Name="rhou">
          -1.15014580e+00 -1.87979605e+00 -8.35824208e-01 7.51808480e-01 
        </DataArray>
        <DataArray type="Float64" Name="rhov">
          -1.97593993e+00 3.63867986e-01 1.88287688e+00 1.51585503e+00 
        </DataArray>
        <DataArray type="Float64" Name="E">
          4.05778943e+05 4.11766044e+05 3.99450602e+05 3.76871651e+05 
        </DataArray>
      </PointData>
    </Piece>
    <Piece NumberOfPoints="4" NumberOfCells="3">
      <Points>
        <DataArray type="Float64" NumberOfComponents="3" format="ascii">
          2.03182548e-03 7.37539819e-03 0.00000000e+00 
4.13410179e-03 1.07714310e-02 0.00000000e+00 
6.73249783e-03 1.38076087e-02 0.00000000e+00 
9.66598373e-03 1.65232457e-02 0.00000000e+00 

        </DataArray>
      </Points>
      <Cells>
        <DataArray type="Int32" Name="connectivity" format="ascii">
0 1
1 2
2 3

        </DataArray>
        <DataArray type="Int32" Name="offsets" format="ascii">
2 4 6 
        </DataArray>
        <DataArray type="UInt8" Name="types" format="ascii">
3 3 3 
        </DataArray>
      </Cells>
      <PointData>
        <DataArray type="Float64" Name="rho">
          1.61372981e+00 1.50662920e+00 1.41740278e+00 1.35045685e+00 
        </DataArray>
        <DataArray type="Float64" Name="rhou">
          7.24082560e-01 1.15523932e+00 8.40259453e-01 3.75536425e-01 
        </DataArray>
        <DataArray type="Float64" Name="rhov">
          1.75057730e+00 6.28477767e-02 -1.07476920e+00 -1.39976714e+00 
        </DataArray>
        <DataArray type="Float64" Name="E">
          3.76963114e+05 3.50956280e+05 3.29252886e+05 3.12887937e+05 
        </DataArray>
      </PointData>
    </Piece>
    <Piece NumberOfPoints="4" NumberOfCells="3">
      <Points>
        <DataArray type="Float64" NumberOfComponents="3" format="ascii">
          9.66598373e-03 1.65232457e-02 0.00000000e+00 
1.28298048e-02 1.89677756e-02 0.00000000e+00 
1.61561389e-02 2.11867876e-02 0.00000000e+00 
1.96009967e-02 2.32173651e-02 0.00000000e+00 

        </DataArray>
      </Points>
      <Cells>
        <DataArray type="Int32" Name="connectivity" format="ascii">
0 1
1 2
2 3

        </DataArray>
        <DataArray type="Int32" Name="offsets" format="ascii">
2 4 6 
        </DataArray>
        <DataArray type="UInt8" Name="types" format="ascii">
3 3 3 
        </DataArray>
      </Cells>
      <PointData>
        <DataArray type="Float64" Name="rho">
          1.35025138e+00 1.29779240e+00 1.25882664e+00 1.22452659e+00 
        </DataArray>
        <DataArray type="Float64" Name="rhou">
          3.85127835e-01 -1.65856858e-02 -1.98232656e-01 -2.18837087e-01 
        </DataArray>
        <DataArray type="Float64" Name="rhov">
          -1.42434715e+00 -1.31978031e+00 -9.89817452e-01 -6.64526251e-01 
        </DataArray>
        <DataArray type="Float64" Name="E">
          3.12835719e+05 3.00012978e+05 2.90438850e+05 2.82037209e+05 
        </DataArray>
      </PointData>
    </Piece>
    <Piece NumberOfPoints="4" NumberOfCells="3">
      <Points>
        <DataArray type="Float64" NumberOfComponents="3" format="ascii">
          1.96009967e-02 2.32173651e-02 0.00000000e+00 
2.31348258e-02 2.50891000e-02 0.00000000e+00 
2.67372411e-02 2.68253610e-02 0.00000000e+00 
3.03938854e-02 2.84444261e-02 0.00000000e+00 

        </DataArray>
      </Points>
      <Cells>
        <DataArray type="Int32" Name="connectivity" format="ascii">
0 1
1 2
2 3

        </DataArray>
        <DataArray type="Int32" Name="offsets" format="ascii">
2 4 6 
        </DataArray>
        <DataArray type="UInt8" Name="types" format="ascii">
3 3 3 
        </DataArray>
      </Cells>
      <PointData>
        <DataArray type="Float64" Name="rho">
          1.22459035e+00 1.19547833e+00 1.16944326e+00 1.14586669e+00 
        </DataArray>
        <DataArray type="Float64" Name="rhou">
          -2.31962353e-01 -2.18535419e-01 -1.73360917e-01 -1.31159864e-01 
        </DataArray>
        <DataArray type="Float64" Name="rhov">
          -6.82770960e-01 -4.31803229e-01 -2.45258969e-01 -1.32538028e-01 
        </DataArray>
        <DataArray type="Float64" Name="E">
          2.82052131e+05 2.74940770e+05 2.68603971e+05 2.62882615e+05 
        </DataArray>
      </PointData>
    </Piece>
    <Piece NumberOfPoints="4" NumberOfCells="3">
      <Points>
        <DataArray type="Float64" NumberOfComponents="3" format="ascii">
          3.03938854e-02 2.84444261e-02 0.00000000e+00 
3.40943485e-02 2.99607720e-02 0.00000000e+00 
3.78307216e-02 3.13864015e-02 0.00000000e+00 
4.15969416e-02 3.27312648e-02 0.00000000e+00 

        </DataArray>
      </Points>
      <Cells>
        <DataArray type="Int32" Name="connectivity" format="ascii">
0 1
1 2
2 3

        </DataArray>
        <DataArray type="Int32" Name="offsets" format="ascii">
2 4 6 
        </DataArray>
        <DataArray type="UInt8" Name="types" format="ascii">
3 3 3 
        </DataArray>
      </Cells>
      <PointData>
        <DataArray type="Float64" Name="rho">
          1.14586496e+00 1.12453314e+00 1.10515813e+00 1.08749670e+00 
        </DataArray>
        <DataArray type="Float64" Name="rhou">
          -1.29367996e-01 -8.92474621e-02 -5.64719227e-02 -3.35075942e-02 
        </DataArray>
        <DataArray type="Float64" Name="rhov">
          -1.31086857e-01 -5.49138240e-02 -7.80147278e-03 1.76213924e-02 
        </DataArray>
        <DataArray type="Float64" Name="E">
          2.62882462e+05 2.57724507e+05 2.53051001e+05 2.48798645e+05 
        </DataArray>
      </PointData>
    </Piece>
    <Piece NumberOfPoints="4" NumberOfCells="3">
      <Points>
        <DataArray type="Float64" NumberOfComponents="3" format="ascii">
          4.15969416e-02 3.27312648e-02 0.00000000e+00 
4.53883260e-02 3.40034962e-02 0.00000000e+00 
4.92011942e-02 3.52098532e-02 0.00000000e+00 
5.30325845e-02 3.63560505e-02 0.00000000e+00 

        </DataArray>
      </Points>
      <Cells>
        <DataArray type="Int32" Name="connectivity" format="ascii">
0 1
1 2
2 3

        </DataArray>
        <DataArray type="Int32" Name="offsets" format="ascii">
2 4 6 
        </DataArray>
        <DataArray type="UInt8" Name="types" format="ascii">
3 3 3 
        </DataArray>
      </Cells>
      <PointData>
        <DataArray type="Float64" Name="rho">
          1.08749727e+00 1.07136009e+00 1.05655909e+00 1.04293550e+00 
        </DataArray>
        <DataArray type="Float64" Name="rhou">
          -3.23695299e-02 -1.29300417e-02 1.51339366e-03 1.09031523e-02 
        </DataArray>
        <DataArray type="Float64" Name="rhov">
          1.75264803e-02 3.12442179e-02 3.79289337e-02 3.91072409e-02 
        </DataArray>
        <DataArray type="Float64" Name="E">
          2.48798855e+05 2.44922032e+05 2.41371751e+05 2.38108043e+05 
        </DataArray>
      </PointData>
    </Piece>
    <Piece NumberOfPoints="4" NumberOfCells="3">
      <Points>
        <DataArray type="Float64" NumberOfComponents="3" format="ascii">
          5.30325845e-02 3.63560505e-02 0.00000000e+00 
5.68800643e-02 3.74470428e-02 0.00000000e+00 
6.07415959e-02 3.84872220e-02 0.00000000e+00 
6.46155030e-02 3.94803248e-02 0.00000000e+00 

        </DataArray>
      </Points>
      <Cells>
        <DataArray type="Int32" Name="connectivity" format="ascii">
0 1
1 2
2 3

        </DataArray>
        <DataArray type="Int32" Name="offsets" format="ascii">
2 4 6 
        </DataArray>
        <DataArray type="UInt8" Name="types" format="ascii">
3 3 3 
        </DataArray>
      </Cells>
      <PointData>
        <DataArray type="Float64" Name="rho">
          1.04293619e+00 1.03040162e+00 1.01882401e+00 1.00806269e+00 
        </DataArray>
        <DataArray type="Float64" Name="rhou">
          1.12199858e-02 1.82235007e-02 2.37715441e-02 2.76125042e-02 
        </DataArray>
        <DataArray type="Float64" Name="rhov">
          3.87804108e-02 3.71335245e-02 3.50936415e-02 3.18788693e-02 
        </DataArray>
        <DataArray type="Float64" Name="E">
          2.38108201e+05 2.35109607e+05 2.32342768e+05 2.29773546e+05 
        </DataArray>
      </PointData>
    </Piece>
    <Piece NumberOfPoints="4" NumberOfCells="3">
      <Points>
        <DataArray type="Float64" NumberOfComponents="3" format="ascii">
          6.46155030e-02 3.94803248e-02 0.00000000e+00 
6.85004294e-02 4.04294394e-02 0.00000000e+00 
7.23951608e-02 4.13374715e-02 0.00000000e+00 
7.62986317e-02 4.22072113e-02 0.00000000e+00 

        </DataArray>
      </Points>
      <Cells>
        <DataArray type="Int32" Name="connectivity" format="ascii">
0 1
1 2
2 3

        </DataArray>
        <DataArray type="Int32" Name="offsets" format="ascii">
2 4 6 
        </DataArray>
        <DataArray type="UInt8" Name="types" format="ascii">
3 3 3 
        </DataArray>
      </Cells>
      <PointData>
        <DataArray type="Float64" Name="rho">
          1.00806340e+00 9.98076844e-01 9.88775736e-01 9.80104526e-01 
        </DataArray>
        <DataArray type="Float64" Name="rhou">
          2.74322801e-02 2.93852532e-02 3.04909298e-02 3.05909881e-02 
        </DataArray>
        <DataArray type="Float64" Name="rhov">
          3.15803258e-02 2.76840198e-02 2.43149598e-02 2.10129301e-02 
        </DataArray>
        <DataArray type="Float64" Name="E">
          2.29773692e+05 2.27392047e+05 2.25175706e+05 2.23110745e+05 
        </DataArray>
      </PointData>
    </Piece>
    <Piece NumberOfPoints="4" NumberOfCells="3">
      <Points>
        <DataArray type="Float64" NumberOfComponents="3" format="ascii">
          7.62986317e-02 4.22072113e-02 0.00000000e+00 
8.02098960e-02 4.30411920e-02 0.00000000e+00 
8.41281936e-02 4.38414887e-02 0.00000000e+00 
8.80528912e-02 4.46097627e-02 0.00000000e+00 

        </DataArray>
      </Points>
      <Cells>
        <DataArray type="Int32" Name="connectivity" format="ascii">
0 1
1 2
2 3

        </DataArray>
        <DataArray type="Int32" Name="offsets" format="ascii">
2 4 6 
        </DataArray>
        <DataArray type="UInt8" Name="types" format="ascii">
3 3 3 
        </DataArray>
      </Cells>
      <PointData>
        <DataArray type="Float64" Name="rho">
          9.80103583e-01 9.72015963e-01 9.64417247e-01 9.57261618e-01 
        </DataArray>
        <DataArray type="Float64" Name="rhou">
          3.04440951e-02 3.04749202e-02 3.02067459e-02 2.91483729e-02 
        </DataArray>
        <DataArray type="Float64" Name="rhov">
          2.08496411e-02 1.82938599e-02 1.57884331e-02 1.31109940e-02 
        </DataArray>
        <DataArray type="Float64" Name="E">
          2.23110509e+05 2.21186019e+05 2.19379142e+05 2.17678774e+05 
        </DataArray>
      </PointData>
    </Piece>
    <Piece NumberOfPoints="4" NumberOfCells="3">
      <Points>
        <DataArray type="Float64" NumberOfComponents="3" format="ascii">
          8.80528912e-02 4.46097627e-02 0.00000000e+00 
9.19835642e-02 4.53475714e-02 0.00000000e+00 
9.59195644e-02 4.60564308e-02 0.00000000e+00 
9.98597518e-02 4.67394181e-02 0.00000000e+00 

        </DataArray>
      </Points>
      <Cells>
        <DataArray type="Int32" Name="connectivity" format="ascii">
0 1
1 2
2 3

        </DataArray>
        <DataArray type="Int32" Name="offsets" format="ascii">
2 4 6 
        </DataArray>
        <DataArray type="UInt8" Name="types" format="ascii">
3 3 3 
        </DataArray>
      </Cells>
      <PointData>
        <DataArray type="Float64" Name="rho">
          9.57262121e-01 9.50539590e-01 9.44237479e-01 9.38256224e-01 
        </DataArray>
        <DataArray type="Float64" Name="rhou">
          2.89551242e-02 2.75377843e-02 2.40716916e-02 2.85910016e-02 
        </DataArray>
        <DataArray type="Float64" Name="rhov">
          1.32738884e-02 1.07008938e-02 9.12043461e-03 8.62342290e-03 
        </DataArray>
        <DataArray type="Float64" Name="E">
          2.17678891e+05 2.16082660e+05 2.14586695e+05 2.13167930e+05 
        </DataArray>
      </PointData>
    </Piece>
    <Piece NumberOfPoints="4" NumberOfCells="3">
      <Points>
        <DataArray type="Float64" NumberOfComponents="3" format="ascii">
          9.98597518e-02 4.67394181e-02 0.00000000e+00 
1.10118888e-01 4.83862534e-02 0.00000000e+00 
1.20400399e-01 4.98730615e-02 0.00000000e+00 
1.30701363e-01 5.12186773e-02 0.00000000e+00 

        </DataArray>
      </Points>
      <Cells>
        <DataArray type="Int32" Name="connectivity" format="ascii">
0 1
1 2
2 3

        </DataArray>
        <DataArray type="Int32" Name="offsets" format="ascii">
2 4 6 
        </DataArray>
        <DataArray type="UInt8" Name="types" format="ascii">
3 3 3 
        </DataArray>
      </Cells>
      <PointData>
        <DataArray type="Float64" Name="rho">
          9.38183577e-01 9.24232826e-01 9.12197901e-01 9.01852380e-01 
        </DataArray>
        <DataArray type="Float64" Name="rhou">
          2.63220141e-02 1.81550400e-02 1.60293795e-02 1.25672602e-02 
        </DataArray>
        <DataArray type="Float64" Name="rhov">
          7.38887175e-03 4.16525825e-03 3.65926163e-03 2.98909499e-03 
        </DataArray>
        <DataArray type="Float64" Name="E">
          2.13151516e+05 2.09846304e+05 2.06998453e+05 2.04552992e+05 
        </DataArray>
      </PointData>
    </Piece>
    <Piece NumberOfPoints="4" NumberOfCells="3">
      <Points>
        <DataArray type="Float64" NumberOfComponents="3" format="ascii">
          1.30701363e-01 5.12186773e-02 0.00000000e+00 
1.41019106e-01 5.24347536e-02 0.00000000e+00 
1.51350453e-01 5.35292812e-02 0.00000000e+00 
1.61692888e-01 5.45137413e-02 0.00000000e+00 

        </DataArray>
      </Points>
      <Cells>
        <DataArray type="Int32" Name="connectivity" format="ascii">
0 1
1 2
2 3

        </DataArray>
        <DataArray type="Int32" Name="offsets" format="ascii">
2 4 6 
        </DataArray>
        <DataArray type="UInt8" Name="types" format="ascii">
3 3 3 
        </DataArray>
      </Cells>
      <PointData>
        <DataArray type="Float64" Name="rho">
          9.01848888e-01 8.92766271e-01 8.84922138e-01 8.78208278e-01 
        </DataArray>
        <DataArray type="Float64" Name="rhou">
          1.39483381e-02 1.20528624e-02 9.97906780e-03 8.71383599e-03 
        </DataArray>
        <DataArray type="Float64" Name="rhov">
          3.48812502e-03 2.56239408e-03 1.78514479e-03 1.60882676e-03 
        </DataArray>
        <DataArray type="Float64" Name="E">
          2.04552154e+05 2.02408583e+05 2.00559715e+05 1.98978953e+05 
        </DataArray>
      </PointData>
    </Piece>
    <Piece NumberOfPoints="4" NumberOfCells="3">
      <Points>
        <DataArray type="Float64" NumberOfComponents="3" format="ascii">
          1.61692888e-01 5.45137413e-02 0.00000000e+00 
1.72044471e-01 5.53969070e-02 0.00000000e+00 
1.82403773e-01 5.61845005e-02 0.00000000e+00 
1.92769483e-01 5.68825118e-02 0.00000000e+00 

        </DataArray>
      </Points>
      <Cells>
        <DataArray type="Int32" Name="connectivity" format="ascii">
0 1
1 2
2 3

        </DataArray>
        <DataArray type="Int32" Name="offsets" format="ascii">
2 4 6 
        </DataArray>
        <DataArray type="UInt8" Name="types" format="ascii">
3 3 3 
        </DataArray>
      </Cells>
      <PointData>
        <DataArray type="Float64" Name="rho">
          8.78205874e-01 8.72427462e-01 8.67494051e-01 8.63353156e-01 
        </DataArray>
        <DataArray type="Float64" Name="rhou">
          8.75050548e-03 7.61929959e-03 6.58471952e-03 5.68184518e-03 
        </DataArray>
        <DataArray type="Float64" Name="rhov">
          1.66038078e-03 1.29509235e-03 9.16083478e-04 6.86722256e-04 
        </DataArray>
        <DataArray type="Float64" Name="E">
          1.98978414e+05 1.97619834e+05 1.96461934e+05 1.95491797e+05 
        </DataArray>
      </PointData>
    </Piece>
    <Piece NumberOfPoints="4" NumberOfCells="3">
      <Points>
        <DataArray type="Float64" NumberOfComponents="3" format="ascii">
          1.92769483e-01 5.68825118e-02 0.00000000e+00 
2.03140482e-01 5.74972220e-02 0.00000000e+00 
2.13515818e-01 5.80338500e-02 0.00000000e+00 
2.23894730e-01 5.84962890e-02 0.00000000e+00 

        </DataArray>
      </Points>
      <Cells>
        <DataArray type="Int32" Name="connectivity" format="ascii">
0 1
1 2
2 3

        </DataArray>
        <DataArray type="Int32" Name="offsets" format="ascii">
2 4 6 
        </DataArray>
        <DataArray type="UInt8" Name="types" format="ascii">
3 3 3 
        </DataArray>
      </Cells>
      <PointData>
        <DataArray type="Float64" Name="rho">
          8.63352466e-01 8.59924525e-01 8.57125725e-01 8.54897921e-01 
        </DataArray>
        <DataArray type="Float64" Name="rhou">
          5.71855247e-03 4.99674104e-03 4.44012274e-03 3.97950124e-03 
        </DataArray>
        <DataArray type="Float64" Name="rhov">
          7.28063491e-04 6.37734985e-04 5.21589305e-04 3.98299364e-04 
        </DataArray>
        <DataArray type="Float64" Name="E">
          1.95491639e+05 1.94690190e+05 1.94037706e+05 1.93520343e+05 
        </DataArray>
      </PointData>
    </Piece>
    <Piece NumberOfPoints="4" NumberOfCells="3">
      <Points>
        <DataArray type="Float64" NumberOfComponents="3" format="ascii">
          2.23894730e-01 5.84962890e-02 0.00000000e+00 
2.34276548e-01 5.88882305e-02 0.00000000e+00 
2.44660646e-01 5.92139624e-02 0.00000000e+00 
2.55046517e-01 5.94772622e-02 0.00000000e+00 

        </DataArray>
      </Points>
      <Cells>
        <DataArray type="Int32" Name="connectivity" format="ascii">
0 1
1 2
2 3

        </DataArray>
        <DataArray type="Int32" Name="offsets" format="ascii">
2 4 6 
        </DataArray>
        <DataArray type="UInt8" Name="types" format="ascii">
3 3 3 
        </DataArray>
      </Cells>
      <PointData>
        <DataArray type="Float64" Name="rho">
          8.54898492e-01 8.53199557e-01 8.51985121e-01 8.51199924e-01 
        </DataArray>
        <DataArray type="Float64" Name="rhou">
          3.98715976e-03 3.46578179e-03 3.08766010e-03 2.85828456e-03 
        </DataArray>
        <DataArray type="Float64" Name="rhov">
          4.12648788e-04 3.34300044e-04 3.16734866e-04 3.15032719e-04 
        </DataArray>
        <DataArray type="Float64" Name="E">
          1.93520473e+05 1.93128063e+05 1.92850014e+05 1.92673296e+05 
        </DataArray>
      </PointData>
    </Piece>
    <Piece NumberOfPoints="4" NumberOfCells="3">
      <Points>
        <DataArray type="Float64" NumberOfComponents="3" format="ascii">
          2.55046517e-01 5.94772622e-02 0.00000000e+00 
2.65433758e-01 5.96804135e-02 0.00000000e+00 
2.75821954e-01 5.98256700e-02 0.00000000e+00 
2.86210775e-01 5.99167012e-02 0.00000000e+00 

        </DataArray>
      </Points>
      <Cells>
        <DataArray type="Int32" Name="connectivity" format="ascii">
0 1
1 2
2 3

        </DataArray>
        <DataArray type="Int32" Name="offsets" format="ascii">
2 4 6 
        </DataArray>
        <DataArray type="UInt8" Name="types" format="ascii">
3 3 3 
        </DataArray>
      </Cells>
      <PointData>
        <DataArray type="Float64" Name="rho">
          8.51199936e-01 8.50795790e-01 8.50748065e-01 8.51036410e-01 
        </DataArray>
        <DataArray type="Float64" Name="rhou">
          2.85256085e-03 2.56604569e-03 2.27256081e-03 2.00947117e-03 
        </DataArray>
        <DataArray type="Float64" Name="rhov">
          3.26309924e-04 2.30741141e-04 1.72388129e-04 2.06016317e-04 
        </DataArray>
        <DataArray type="Float64" Name="E">
          1.92673302e+05 1.92586574e+05 1.92583925e+05 1.92660340e+05 
        </DataArray>
      </PointData>
    </Piece>
    <Piece NumberOfPoints="4" NumberOfCells="3">
      <Points>
        <DataArray type="Float64" NumberOfComponents="3" format="ascii">
          2.86210775e-01 5.99167012e-02 0.00000000e+00 
2.96599895e-01 5.99572174e-02 0.00000000e+00 
3.06989133e-01 5.99487796e-02 0.00000000e+00 
3.17378193e-01 5.98919280e-02 0.00000000e+00 

        </DataArray>
      </Points>
      <Cells>
        <DataArray type="Int32" Name="connectivity" format="ascii">
0 1
1 2
2 3

        </DataArray>
        <DataArray type="Int32" Name="offsets" format="ascii">
2 4 6 
        </DataArray>
        <DataArray type="UInt8" Name="types" format="ascii">
3 3 3 
        </DataArray>
      </Cells>
      <PointData>
        <DataArray type="Float64" Name="rho">
          8.51035390e-01 8.51610764e-01 8.52426431e-01 8.53467311e-01 
        </DataArray>
        <DataArray type="Float64" Name="rhou">
          2.02834566e-03 1.91321208e-03 1.78726522e-03 1.60606409e-03 
        </DataArray>
        <DataArray type="Float64" Name="rhov">
          2.22354926e-04 2.49343848e-04 1.95081763e-04 1.20828643e-04 
        </DataArray>
        <DataArray type="Float64" Name="E">
          1.92660108e+05 1.92804063e+05 1.93004738e+05 1.93258500e+05 
        </DataArray>
      </PointData>
    </Piece>
    <Piece NumberOfPoints="4" NumberOfCells="3">
      <Points>
        <DataArray type="Float64" NumberOfComponents="3" format="ascii">
          3.17378193e-01 5.98919280e-02 0.00000000e+00 
3.27766895e-01 5.97884916e-02 0.00000000e+00 
3.38155061e-01 5.96415885e-02 0.00000000e+00 
3.48542601e-01 5.94538599e-02 0.00000000e+00 

        </DataArray>
      </Points>
      <Cells>
        <DataArray type="Int32" Name="connectivity" format="ascii">
0 1
1 2
2 3

        </DataArray>
        <DataArray type="Int32" Name="offsets" format="ascii">
2 4 6 
        </DataArray>
        <DataArray type="UInt8" Name="types" format="ascii">
3 3 3 
        </DataArray>
      </Cells>
      <PointData>
        <DataArray type="Float64" Name="rho">
          8.53467657e-01 8.54720984e-01 8.56166524e-01 8.57771414e-01 
        </DataArray>
        <DataArray type="Float64" Name="rhou">
          1.63550450e-03 1.44013983e-03 1.32390331e-03 1.27777871e-03 
        </DataArray>
        <DataArray type="Float64" Name="rhov">
          1.28476665e-04 1.17102104e-04 1.42682285e-04 1.63264086e-04 
        </DataArray>
        <DataArray type="Float64" Name="E">
          1.93258578e+05 1.93562298e+05 1.93911144e+05 1.94297438e+05 
        </DataArray>
      </PointData>
    </Piece>
    <Piece NumberOfPoints="4" NumberOfCells="3">
      <Points>
        <DataArray type="Float64" NumberOfComponents="3" format="ascii">
          3.48542601e-01 5.94538599e-02 0.00000000e+00 
3.58929336e-01 5.92265576e-02 0.00000000e+00 
3.69315147e-01 5.89610897e-02 0.00000000e+00 
3.79699975e-01 5.86590059e-02 0.00000000e+00 

        </DataArray>
      </Points>
      <Cells>
        <DataArray type="Int32" Name="connectivity" format="ascii">
0 1
1 2
2 3

        </DataArray>
        <DataArray type="Int32" Name="offsets" format="ascii">
2 4 6 
        </DataArray>
        <DataArray type="UInt8" Name="types" format="ascii">
3 3 3 
        </DataArray>
      </Cells>
      <PointData>
        <DataArray type="Float64" Name="rho">
          8.57771660e-01 8.59510386e-01 8.61373177e-01 8.63340089e-01 
        </DataArray>
        <DataArray type="Float64" Name="rhou">
          1.29008317e-03 1.16673245e-03 1.07353840e-03 1.02588586e-03 
        </DataArray>
        <DataArray type="Float64" Name="rhov">
          1.60180220e-04 1.24156034e-04 1.16685250e-04 1.15087752e-04 
        </DataArray>
        <DataArray type="Float64" Name="E">
          1.94297494e+05 1.94715267e+05 1.95162147e+05 1.95633465e+05 
        </DataArray>
      </PointData>
    </Piece>
    <Piece NumberOfPoints="4" NumberOfCells="3">
      <Points>
        <DataArray type="Float64" NumberOfComponents="3" format="ascii">
          3.79699975e-01 5.86590059e-02 0.00000000e+00 
3.90083700e-01 5.83211333e-02 0.00000000e+00 
4.00466233e-01 5.79482466e-02 0.00000000e+00 
4.10847515e-01 5.75418957e-02 0.00000000e+00 

        </DataArray>
      </Points>
      <Cells>
        <DataArray type="Int32" Name="connectivity" format="ascii">
0 1
1 2
2 3

        </DataArray>
        <DataArray type="Int32" Name="offsets" format="ascii">
2 4 6 
        </DataArray>
        <DataArray type="UInt8" Name="types" format="ascii">
3 3 3 
        </DataArray>
      </Cells>
      <PointData>
        <DataArray type="Float64" Name="rho">
          8.63340101e-01 8.65394187e-01 8.67525421e-01 8.69727131e-01 
        </DataArray>
        <DataArray type="Float64" Name="rhou">
          1.01821241e-03 9.54518586e-04 8.76434853e-04 8.01134334e-04 
        </DataArray>
        <DataArray type="Float64" Name="rhov">
          1.17524475e-04 8.72184066e-05 6.44119745e-05 6.97317197e-05 
        </DataArray>
        <DataArray type="Float64" Name="E">
          1.95633469e+05 1.96125259e+05 1.96635145e+05 1.97161501e+05 
        </DataArray>
      </PointData>
    </Piece>
    <Piece NumberOfPoints="4" NumberOfCells="3">
      <Points>
        <DataArray type="Float64" NumberOfComponents="3" format="ascii">
          4.10847515e-01 5.75418957e-02 0.00000000e+00 
4.21227485e-01 5.71038015e-02 0.00000000e+00 
4.31606144e-01 5.66351078e-02 0.00000000e+00 
4.41983402e-01 5.61364293e-02 0.00000000e+00 

        </DataArray>
      </Points>
      <Cells>
        <DataArray type="Int32" Name="connectivity" format="ascii">
0 1
1 2
2 3

        </DataArray>
        <DataArray type="Int32" Name="offsets" format="ascii">
2 4 6 
        </DataArray>
        <DataArray type="UInt8" Name="types" format="ascii">
3 3 3 
        </DataArray>
      </Cells>
      <PointData>
        <DataArray type="Float64" Name="rho">
          8.69726931e-01 8.71983433e-01 8.74282984e-01 8.76615815e-01 
        </DataArray>
        <DataArray type="Float64" Name="rhou">
          8.17661289e-04 7.66618160e-04 7.28094594e-04 6.91531786e-04 
        </DataArray>
        <DataArray type="Float64" Name="rhov">
          7.31597728e-05 7.32198041e-05 6.35910952e-05 4.25941279e-05 
        </DataArray>
        <DataArray type="Float64" Name="E">
          1.97161456e+05 1.97700614e+05 1.98249831e+05 1.98806816e+05 
        </DataArray>
      </PointData>
    </Piece>
    <Piece NumberOfPoints="4" NumberOfCells="3">
      <Points>
        <DataArray type="Float64" NumberOfComponents="3" format="ascii">
          4.41983402e-01 5.61364293e-02 0.00000000e+00 
4.52359200e-01 5.56085743e-02 0.00000000e+00 
4.62733537e-01 5.50529286e-02 0.00000000e+00 
4.73106444e-01 5.44707514e-02 0.00000000e+00 

        </DataArray>
      </Points>
      <Cells>
        <DataArray type="Int32" Name="connectivity" format="ascii">
0 1
1 2
2 3

        </DataArray>
        <DataArray type="Int32" Name="offsets" format="ascii">
2 4 6 
        </DataArray>
        <DataArray type="UInt8" Name="types" format="ascii">
3 3 3 
        </DataArray>
      </Cells>
      <PointData>
        <DataArray type="Float64" Name="rho">
          8.76615957e-01 8.78977518e-01 8.81361260e-01 8.83758623e-01 
        </DataArray>
        <DataArray type="Float64" Name="rhou">
          6.88542792e-04 6.33232183e-04 5.93785836e-04 5.70826307e-04 
        </DataArray>
        <DataArray type="Float64" Name="rhov">
          4.32435395e-05 3.57878756e-05 3.61973910e-05 3.63712046e-05 
        </DataArray>
        <DataArray type="Float64" Name="E">
          1.98806849e+05 1.99370502e+05 1.99939272e+05 2.00511156e+05 
        </DataArray>
      </PointData>
    </Piece>
    <Piece NumberOfPoints="4" NumberOfCells="3">
      <Points>
        <DataArray type="Float64" NumberOfComponents="3" format="ascii">
          4.73106444e-01 5.44707514e-02 0.00000000e+00 
4.83477861e-01 5.38627952e-02 0.00000000e+00 
4.93847787e-01 5.32294959e-02 0.00000000e+00 
5.04216135e-01 5.25716618e-02 0.00000000e+00 

        </DataArray>
      </Points>
      <Cells>
        <DataArray type="Int32" Name="connectivity" format="ascii">
0 1
1 2
2 3

        </DataArray>
        <DataArray type="Int32" Name="offsets" format="ascii">
2 4 6 
        </DataArray>
        <DataArray type="UInt8" Name="types" format="ascii">
3 3 3 
        </DataArray>
      </Cells>
      <PointData>
        <DataArray type="Float64" Name="rho">
          8.83758609e-01 8.86162659e-01 8.88567949e-01 8.90973279e-01 
        </DataArray>
        <DataArray type="Float64" Name="rhou">
          5.63239977e-04 5.42746090e-04 5.08139249e-04 4.67046354e-04 
        </DataArray>
        <DataArray type="Float64" Name="rhov">
          3.81823605e-05 2.67830861e-05 1.19326137e-05 9.27428166e-06 
        </DataArray>
        <DataArray type="Float64" Name="E">
          2.00511153e+05 2.01084530e+05 2.01658127e+05 2.02231630e+05 
        </DataArray>
      </PointData>
    </Piece>
    <Piece NumberOfPoints="4" NumberOfCells="3">
      <Points>
        <DataArray type="Float64" NumberOfComponents="3" format="ascii">
          5.04216135e-01 5.25716618e-02 0.00000000e+00 
5.14582992e-01 5.18903993e-02 0.00000000e+00 
5.24948359e-01 5.11864908e-02 0.00000000e+00 
5.35312176e-01 5.04603274e-02 0.00000000e+00 

        </DataArray>
      </Points>
      <Cells>
        <DataArray type="Int32" Name="connectivity" format="ascii">
0 1
1 2
2 3

        </DataArray>
        <DataArray type="Int32" Name="offsets" format="ascii">
2 4 6 
        </DataArray>
        <DataArray type="UInt8" Name="types" format="ascii">
3 3 3 
        </DataArray>
      </Cells>
      <PointData>
        <DataArray type="Float64" Name="rho">
          8.90973194e-01 8.93373101e-01 8.95763070e-01 8.98139579e-01 
        </DataArray>
        <DataArray type="Float64" Name="rhou">
          4.75545251e-04 4.49932462e-04 4.30698601e-04 4.11851315e-04 
        </DataArray>
        <DataArray type="Float64" Name="rhov">
          1.14348380e-05 1.09943468e-05 5.52392591e-06 -6.32669617e-06 
        </DataArray>
        <DataArray type="Float64" Name="E">
          2.02231611e+05 2.02803745e+05 2.03373455e+05 2.03939918e+05 
        </DataArray>
      </PointData>
    </Piece>
    <Piece NumberOfPoints="4" NumberOfCells="3">
      <Points>
        <DataArray type="Float64" NumberOfComponents="3" format="ascii">
          5.35312176e-01 5.04603274e-02 0.00000000e+00 
5.45674443e-01 4.97124642e-02 0.00000000e+00 
5.56035221e-01 4.89437394e-02 0.00000000e+00 
5.66394389e-01 4.81546782e-02 0.00000000e+00 

        </DataArray>
      </Points>
      <Cells>
        <DataArray type="Int32" Name="connectivity" format="ascii">
0 1
1 2
2 3

        </DataArray>
        <DataArray type="Int32" Name="offsets" format="ascii">
2 4 6 
        </DataArray>
        <DataArray type="UInt8" Name="types" format="ascii">
3 3 3 
        </DataArray>
      </Cells>
      <PointData>
        <DataArray type="Float64" Name="rho">
          8.98139624e-01 9.00501958e-01 9.02847175e-01 9.05172392e-01 
        </DataArray>
        <DataArray type="Float64" Name="rhou">
          4.07596605e-04 3.81681872e-04 3.63743016e-04 3.52443991e-04 
        </DataArray>
        <DataArray type="Float64" Name="rhov">
          -6.03869930e-06 -6.86745505e-06 -7.71253729e-06 -1.20420103e-05 
        </DataArray>
        <DataArray type="Float64" Name="E">
          2.03939929e+05 2.04502959e+05 2.05061870e+05 2.05615988e+05 
        </DataArray>
      </PointData>
    </Piece>
    <Piece NumberOfPoints="4" NumberOfCells="3">
      <Points>
        <DataArray type="Float64" NumberOfComponents="3" format="ascii">
          5.66394389e-01 4.81546782e-02 0.00000000e+00 
5.76752067e-01 4.73455116e-02 0.00000000e+00 
5.87108195e-01 4.65166979e-02 0.00000000e+00 
5.97462773e-01 4.56690118e-02 0.00000000e+00 

        </DataArray>
      </Points>
      <Cells>
        <DataArray type="Int32" Name="connectivity" format="ascii">
0 1
1 2
2 3

        </DataArray>
        <DataArray type="Int32" Name="offsets" format="ascii">
2 4 6 
        </DataArray>
        <DataArray type="UInt8" Name="types" format="ascii">
3 3 3 
        </DataArray>
      </Cells>
      <PointData>
        <DataArray type="Float64" Name="rho">
          9.05172421e-01 9.07475946e-01 9.09757447e-01 9.12016027e-01 
        </DataArray>
        <DataArray type="Float64" Name="rhou">
          3.51748102e-04 3.31835881e-04 3.11237535e-04 2.95670292e-04 
        </DataArray>
        <DataArray type="Float64" Name="rhov">
          -1.17012829e-05 -2.04059496e-05 -2.40679227e-05 -2.30184891e-05 
        </DataArray>
        <DataArray type="Float64" Name="E">
          2.05615995e+05 2.06164923e+05 2.06708574e+05 2.07246729e+05 
        </DataArray>
      </PointData>
    </Piece>
    <Piece NumberOfPoints="4" NumberOfCells="3">
      <Points>
        <DataArray type="Float64" NumberOfComponents="3" format="ascii">
          5.97462773e-01 4.56690118e-02 0.00000000e+00 
6.07815862e-01 4.48031016e-02 0.00000000e+00 
6.18167400e-01 4.39192392e-02 0.00000000e+00 
6.28517449e-01 4.30175588e-02 0.00000000e+00 

        </DataArray>
      </Points>
      <Cells>
        <DataArray type="Int32" Name="connectivity" format="ascii">
0 1
1 2
2 3

        </DataArray>
        <DataArray type="Int32" Name="offsets" format="ascii">
2 4 6 
        </DataArray>
        <DataArray type="UInt8" Name="types" format="ascii">
3 3 3 
        </DataArray>
      </Cells>
      <PointData>
        <DataArray type="Float64" Name="rho">
          9.12015964e-01 9.14249754e-01 9.16456973e-01 9.18637796e-01 
        </DataArray>
        <DataArray type="Float64" Name="rhou">
          2.93729296e-04 2.85401110e-04 2.73794570e-04 2.57004761e-04 
        </DataArray>
        <DataArray type="Float64" Name="rhov">
          -2.20942949e-05 -2.26959646e-05 -2.84229413e-05 -3.39071940e-05 
        </DataArray>
        <DataArray type="Float64" Name="E">
          2.07246715e+05 2.07778940e+05 2.08304823e+05 2.08824397e+05 
        </DataArray>
      </PointData>
    </Piece>
    <Piece NumberOfPoints="4" NumberOfCells="3">
      <Points>
        <DataArray type="Float64" NumberOfComponents="3" format="ascii">
          6.28517449e-01 4.30175588e-02 0.00000000e+00 
6.38865948e-01 4.20984775e-02 0.00000000e+00 
6.49212897e-01 4.11624312e-02 0.00000000e+00 
6.59558356e-01 4.02097441e-02 0.00000000e+00 

        </DataArray>
      </Points>
      <Cells>
        <DataArray type="Int32" Name="connectivity" format="ascii">
0 1
1 2
2 3

        </DataArray>
        <DataArray type="Int32" Name="offsets" format="ascii">
2 4 6 
        </DataArray>
        <DataArray type="UInt8" Name="types" format="ascii">
3 3 3 
        </DataArray>
      </Cells>
      <PointData>
        <DataArray type="Float64" Name="rho">
          9.18637788e-01 9.20792055e-01 9.22918961e-01 9.25018227e-01 
        </DataArray>
        <DataArray type="Float64" Name="rhou">
          2.57954795e-04 2.45504497e-04 2.34879663e-04 2.23461021e-04 
        </DataArray>
        <DataArray type="Float64" Name="rhov">
          -3.28926350e-05 -3.37387723e-05 -3.57462756e-05 -3.81303747e-05 
        </DataArray>
        <DataArray type="Float64" Name="E">
          2.08824396e+05 2.09337619e+05 2.09844304e+05 2.10344382e+05 
        </DataArray>
      </PointData>
    </Piece>
    <Piece NumberOfPoints="4" NumberOfCells="3">
      <Points>
        <DataArray type="Float64" NumberOfComponents="3" format="ascii">
          6.59558356e-01 4.02097441e-02 0.00000000e+00 
6.69902325e-01 3.92407738e-02 0.00000000e+00 
6.80244744e-01 3.82556282e-02 0.00000000e+00 
6.90585554e-01 3.72543521e-02 0.00000000e+00 

        </DataArray>
      </Points>
      <Cells>
        <DataArray type="Int32" Name="connectivity" format="ascii">
0 1
1 2
2 3

        </DataArray>
        <DataArray type="Int32" Name="offsets" format="ascii">
2 4 6 
        </DataArray>
        <DataArray type="UInt8" Name="types" format="ascii">
3 3 3 
        </DataArray>
      </Cells>
      <PointData>
        <DataArray type="Float64" Name="rho">
          9.25018210e-01 9.27089874e-01 9.29132845e-01 9.31147954e-01 
        </DataArray>
        <DataArray type="Float64" Name="rhou">
          2.20250571e-04 2.15461409e-04 2.07081060e-04 1.92745623e-04 
        </DataArray>
        <DataArray type="Float64" Name="rhov">
          -3.70976374e-05 -3.72367736e-05 -4.18620409e-05 -4.56791673e-05 
        </DataArray>
        <DataArray type="Float64" Name="E">
          2.10344378e+05 2.10837855e+05 2.11324482e+05 2.11804447e+05 
        </DataArray>
      </PointData>
    </Piece>
    <Piece NumberOfPoints="4" NumberOfCells="3">
      <Points>
        <DataArray type="Float64" NumberOfComponents="3" format="ascii">
          6.90585554e-01 3.72543521e-02 0.00000000e+00 
7.00924933e-01 3.62373814e-02 0.00000000e+00 
7.11262703e-01 3.52048986e-02 0.00000000e+00 
7.21598923e-01 3.41568366e-02 0.00000000e+00 

        </DataArray>
      </Points>
      <Cells>
        <DataArray type="Int32" Name="connectivity" format="ascii">
0 1
1 2
2 3

        </DataArray>
        <DataArray type="Int32" Name="offsets" format="ascii">
2 4 6 
        </DataArray>
        <DataArray type="UInt8" Name="types" format="ascii">
3 3 3 
        </DataArray>
      </Cells>
      <PointData>
        <DataArray type="Float64" Name="rho">
          9.31147912e-01 9.33135615e-01 9.35094768e-01 9.37026063e-01 
        </DataArray>
        <DataArray type="Float64" Name="rhou">
          1.91350159e-04 1.86409706e-04 1.81291179e-04 1.68428119e-04 
        </DataArray>
        <DataArray type="Float64" Name="rhov">
          -4.45636877e-05 -4.22373434e-05 -4.57464692e-05 -5.06698079e-05 
        </DataArray>
        <DataArray type="Float64" Name="E">
          2.11804437e+05 2.12277842e+05 2.12744426e+05 2.13204348e+05 
        </DataArray>
      </PointData>
    </Piece>
    <Piece NumberOfPoints="4" NumberOfCells="3">
      <Points>
        <DataArray type="Float64" NumberOfComponents="3" format="ascii">
          7.21598923e-01 3.41568366e-02 0.00000000e+00 
7.31933594e-01 3.30936089e-02 0.00000000e+00 
7.42266715e-01 3.20154354e-02 0.00000000e+00 
7.52598286e-01 3.09220124e-02 0.00000000e+00 

        </DataArray>
      </Points>
      <Cells>
        <DataArray type="Int32" Name="connectivity" format="ascii">
0 1
1 2
2 3

        </DataArray>
        <DataArray type="Int32" Name="offsets" format="ascii">
2 4 6 
        </DataArray>
        <DataArray type="UInt8" Name="types" format="ascii">
3 3 3 
        </DataArray>
      </Cells>
      <PointData>
        <DataArray type="Float64" Name="rho">
          9.37026042e-01 9.38930557e-01 9.40807007e-01 9.42655963e-01 
        </DataArray>
        <DataArray type="Float64" Name="rhou">
          1.65773888e-04 1.61625331e-04 1.58706151e-04 1.48393814e-04 
        </DataArray>
        <DataArray type="Float64" Name="rhov">
          -4.97014780e-05 -4.53931213e-05 -4.78524259e-05 -5.31518215e-05 
        </DataArray>
        <DataArray type="Float64" Name="E">
          2.13204343e+05 2.13657848e+05 2.14104645e+05 2.14544865e+05 
        </DataArray>
      </PointData>
    </Piece>
    <Piece NumberOfPoints="4" NumberOfCells="3">
      <Points>
        <DataArray type="Float64" NumberOfComponents="3" format="ascii">
          7.52598286e-01 3.09220124e-02 0.00000000e+00 
7.62928188e-01 2.98135038e-02 0.00000000e+00 
7.73256481e-01 2.86899786e-02 0.00000000e+00 
7.83583105e-01 2.75512449e-02 0.00000000e+00 

        </DataArray>
      </Points>
      <Cells>
        <DataArray type="Int32" Name="connectivity" format="ascii">
0 1
1 2
2 3

        </DataArray>
        <DataArray type="Int32" Name="offsets" format="ascii">
2 4 6 
        </DataArray>
        <DataArray type="UInt8" Name="types" format="ascii">
3 3 3 
        </DataArray>
      </Cells>
      <PointData>
        <DataArray type="Float64" Name="rho">
          9.42655958e-01 9.44478623e-01 9.46274251e-01 9.48043596e-01 
        </DataArray>
        <DataArray type="Float64" Name="rhou">
          1.45814490e-04 1.41942872e-04 1.37925006e-04 1.28427701e-04 
        </DataArray>
        <DataArray type="Float64" Name="rhov">
          -5.22350836e-05 -5.01026854e-05 -5.24963172e-05 -5.59282799e-05 
        </DataArray>
        <DataArray type="Float64" Name="E">
          2.14544864e+05 2.14978784e+05 2.15406233e+05 2.15827385e+05 
        </DataArray>
      </PointData>
    </Piece>
    <Piece NumberOfPoints="4" NumberOfCells="3">
      <Points>
        <DataArray type="Float64" NumberOfComponents="3" format="ascii">
          7.83583105e-01 2.75512449e-02 0.00000000e+00 
7.93908060e-01 2.63975188e-02 0.00000000e+00 
8.04231405e-01 2.52291560e-02 0.00000000e+00 
8.14553022e-01 2.40457114e-02 0.00000000e+00 

        </DataArray>
      </Points>
      <Cells>
        <DataArray type="Int32" Name="connectivity" format="ascii">
0 1
1 2
2 3

        </DataArray>
        <DataArray type="Int32" Name="offsets" format="ascii">
2 4 6 
        </DataArray>
        <DataArray type="UInt8" Name="types" format="ascii">
3 3 3 
        </DataArray>
      </Cells>
      <PointData>
        <DataArray type="Float64" Name="rho">
          9.48043602e-01 9.49787487e-01 9.51505892e-01 9.53198234e-01 
        </DataArray>
        <DataArray type="Float64" Name="rhou">
          1.30983640e-04 1.20111642e-04 1.18820190e-04 1.19569880e-04 
        </DataArray>
        <DataArray type="Float64" Name="rhov">
          -5.62763100e-05 -5.27659843e-05 -5.17054124e-05 -5.83684549e-05 
        </DataArray>
        <DataArray type="Float64" Name="E">
          2.15827386e+05 2.16242427e+05 2.16651353e+05 2.17054028e+05 
        </DataArray>
      </PointData>
    </Piece>
    <Piece NumberOfPoints="4" NumberOfCells="3">
      <Points>
        <DataArray type="Float64" NumberOfComponents="3" format="ascii">
          8.14553022e-01 2.40457114e-02 0.00000000e+00 
8.24872792e-01 2.28467938e-02 0.00000000e+00 
8.35190892e-01 2.16327831e-02 0.00000000e+00 
8.45507145e-01 2.04038676e-02 0.00000000e+00 

        </DataArray>
      </Points>
      <Cells>
        <DataArray type="Int32" Name="connectivity" format="ascii">
0 1
1 2
2 3

        </DataArray>
        <DataArray type="Int32" Name="offsets" format="ascii">
2 4 6 
        </DataArray>
        <DataArray type="UInt8" Name="types" format="ascii">
3 3 3 
        </DataArray>
      </Cells>
      <PointData>
        <DataArray type="Float64" Name="rho">
          9.53198277e-01 9.54866275e-01 9.56510278e-01 9.58130497e-01 
        </DataArray>
        <DataArray type="Float64" Name="rhou">
          1.13687348e-04 1.05166838e-04 9.78669593e-05 9.81489085e-05 
        </DataArray>
        <DataArray type="Float64" Name="rhov">
          -5.86199450e-05 -5.87427088e-05 -5.61325983e-05 -5.24092078e-05 
        </DataArray>
        <DataArray type="Float64" Name="E">
          2.17054038e+05 2.17450853e+05 2.17841879e+05 2.18227159e+05 
        </DataArray>
      </PointData>
    </Piece>
    <Piece NumberOfPoints="4" NumberOfCells="3">
      <Points>
        <DataArray type="Float64" NumberOfComponents="3" format="ascii">
          8.45507145e-01 2.04038676e-02 0.00000000e+00 
8.55821550e-01 1.91591792e-02 0.00000000e+00 
8.66134048e-01 1.78987328e-02 0.00000000e+00 
8.76444638e-01 1.66228991e-02 0.00000000e+00 

        </DataArray>
      </Points>
      <Cells>
        <DataArray type="Int32" Name="connectivity" format="ascii">
0 1
1 2
2 3

        </DataArray>
        <DataArray type="Int32" Name="offsets" format="ascii">
2 4 6 
        </DataArray>
        <DataArray type="UInt8" Name="types" format="ascii">
3 3 3 
        </DataArray>
      </Cells>
      <PointData>
        <DataArray type="Float64" Name="rho">
          9.58130610e-01 9.59725741e-01 9.61299730e-01 9.62849136e-01 
        </DataArray>
        <DataArray type="Float64" Name="rhou">
          1.19603322e-04 8.76712934e-05 8.58426077e-05 1.01567892e-04 
        </DataArray>
        <DataArray type="Float64" Name="rhov">
          -5.60493884e-05 -6.37215030e-05 -6.13222617e-05 -7.93842324e-05 
        </DataArray>
        <DataArray type="Float64" Name="E">
          2.18227185e+05 2.18606414e+05 2.18980477e+05 2.19348580e+05 
        </DataArray>
      </PointData>
    </Piece>
    <Piece NumberOfPoints="4" NumberOfCells="3">
      <Points>
        <DataArray type="Float64" NumberOfComponents="3" format="ascii">
          8.76444638e-01 1.66228991e-02 0.00000000e+00 
8.86753201e-01 1.53310820e-02 0.00000000e+00 
8.97059798e-01 1.40233757e-02 0.00000000e+00 
9.07364249e-01 1.26988320e-02 0.00000000e+00 

        </DataArray>
      </Points>
      <Cells>
        <DataArray type="Int32" Name="connectivity" format="ascii">
0 1
1 2
2 3

        </DataArray>
        <DataArray type="Int32" Name="offsets" format="ascii">
2 4 6 
        </DataArray>
        <DataArray type="UInt8" Name="types" format="ascii">
3 3 3 
        </DataArray>
      </Cells>
      <PointData>
        <DataArray type="Float64" Name="rho">
          9.62848679e-01 9.64380282e-01 9.65886510e-01 9.67386403e-01 
        </DataArray>
        <DataArray type="Float64" Name="rhou">
          8.16487800e-06 1.01538596e-04 4.48263001e-05 -9.56286082e-06 
        </DataArray>
        <DataArray type="Float64" Name="rhov">
          -7.12927212e-05 -7.49165021e-05 -9.43296326e-05 6.10029326e-06 
        </DataArray>
        <DataArray type="Float64" Name="E">
          2.19348476e+05 2.19712150e+05 2.20069662e+05 2.20425351e+05 
        </DataArray>
      </PointData>
    </Piece>
    <Piece NumberOfPoints="4" NumberOfCells="3">
      <Points>
        <DataArray type="Float64" NumberOfComponents="3" format="ascii">
          9.07364249e-01 1.26988320e-02 0.00000000e+00 
9.17666554e-01 1.13577880e-02 0.00000000e+00 
9.27966774e-01 1.00004105e-02 0.00000000e+00 
9.38264549e-01 8.62528384e-03 0.00000000e+00 

        </DataArray>
      </Points>
      <Cells>
        <DataArray type="Int32" Name="connectivity" format="ascii">
0 1
1 2
2 3

        </DataArray>
        <DataArray type="Int32" Name="offsets" format="ascii">
2 4 6 
        </DataArray>
        <DataArray type="UInt8" Name="types" format="ascii">
3 3 3 
        </DataArray>
      </Cells>
      <PointData>
        <DataArray type="Float64" Name="rho">
          9.67391349e-01 9.68841856e-01 9.70317097e-01 9.71643421e-01 
        </DataArray>
        <DataArray type="Float64" Name="rhou">
          8.13732681e-04 -2.11707289e-04 3.47661013e-04 7.79491735e-04 
        </DataArray>
        <DataArray type="Float64" Name="rhov">
          -6.44686133e-05 -1.18175124e-04 -4.58000331e-05 -1.48626634e-03 
        </DataArray>
        <DataArray type="Float64" Name="E">
          2.20426477e+05 2.20770547e+05 2.21119931e+05 2.21435148e+05 
        </DataArray>
      </PointData>
    </Piece>
    <Piece NumberOfPoints="4" NumberOfCells="3">
      <Points>
        <DataArray type="Float64" NumberOfComponents="3" format="ascii">
          9.38264549e-01 8.62528384e-03 0.00000000e+00 
9.48560059e-01 7.23283459e-03 0.00000000e+00 
9.58853185e-01 5.82307298e-03 0.00000000e+00 
9.69143867e-01 4.39538015e-03 0.00000000e+00 

        </DataArray>
      </Points>
      <Cells>
        <DataArray type="Int32" Name="connectivity" format="ascii">
0 1
1 2
2 3

        </DataArray>
        <DataArray type="Int32" Name="offsets" format="ascii">
2 4 6 
        </DataArray>
        <DataArray type="UInt8" Name="types" format="ascii">
3 3 3 
        </DataArray>
      </Cells>
      <PointData>
        <DataArray type="Float64" Name="rho">
          9.71595111e-01 9.73246602e-01 9.74478824e-01 9.77179752e-01 
        </DataArray>
        <DataArray type="Float64" Name="rhou">
          -6.79169134e-03 2.17405069e-03 -3.20692623e-03 -1.93086978e-02 
        </DataArray>
        <DataArray type="Float64" Name="rhov">
          -1.10563183e-03 1.33969914e-04 -1.14759621e-03 1.92360914e-02 
        </DataArray>
        <DataArray type="Float64" Name="E">
          2.21424140e+05 2.21813375e+05 2.22107255e+05 2.22736415e+05 
        </DataArray>
      </PointData>
    </Piece>
    <Piece NumberOfPoints="4" NumberOfCells="3">
      <Points>
        <DataArray type="Float64" NumberOfComponents="3" format="ascii">
          9.69143867e-01 4.39538015e-03 0.00000000e+00 
9.79435980e-01 2.94816052e-03 0.00000000e+00 
9.89725590e-01 1.48259092e-03 0.00000000e+00 
1.00000000e+00 0.00000000e+00 0.00000000e+00 

        </DataArray>
      </Points>
      <Cells>
        <DataArray type="Int32" Name="connectivity" format="ascii">
0 1
1 2
2 3

        </DataArray>
        <DataArray type="Int32" Name="offsets" format="ascii">
2 4 6 
        </DataArray>
        <DataArray type="UInt8" Name="types" format="ascii">
3 3 3 
        </DataArray>
      </Cells>
      <PointData>
        <DataArray type="Float64" Name="rho">
          9.77478859e-01 9.77045760e-01 9.80891553e-01 9.70801491e-01 
        </DataArray>
        <DataArray type="Float64" Name="rhou">
          -1.53787875e-03 -9.69733309e-03 -3.81363793e-02 5.04751078e-01 
        </DataArray>
        <DataArray type="Float64" Name="rhov">
          2.15300232e-02 1.03249048e-03 5.31547115e-02 -1.39475362e-01 
        </DataArray>
        <DataArray type="Float64" Name="E">
          2.22804604e+05 2.22720410e+05 2.23613041e+05 2.21331221e+05 
        </DataArray>
      </PointData>
    </Piece>
    <Piece NumberOfPoints="4" NumberOfCells="3">
      <Points>
        <DataArray type="Float64" NumberOfComponents="3" format="ascii">
          9.69029665e-01 -4.41133138e-03 0.00000000e+00 
9.79355037e-01 -2.95961346e-03 0.00000000e+00 
9.89677846e-01 -1.48943183e-03 0.00000000e+00 
1.00000000e+00 0.00000000e+00 0.00000000e+00 

        </DataArray>
      </Points>
      <Cells>
        <DataArray type="Int32" Name="connectivity" format="ascii">
0 1
1 2
2 3

        </DataArray>
        <DataArray type="Int32" Name="offsets" format="ascii">
2 4 6 
        </DataArray>
        <DataArray type="UInt8" Name="types" format="ascii">
3 3 3 
        </DataArray>
      </Cells>
      <PointData>
        <DataArray type="Float64" Name="rho">
          9.76380428e-01 9.75999569e-01 9.79802155e-01 9.70971980e-01 
        </DataArray>
        <DataArray type="Float64" Name="rhou">
          -9.40109713e-04 -7.64665380e-03 -3.61773128e-02 4.65526441e-01 
        </DataArray>
        <DataArray type="Float64" Name="rhov">
          -2.38755986e-02 2.14061120e-03 -4.96152253e-02 1.45512237e-01 
        </DataArray>
        <DataArray type="Float64" Name="E">
          2.22557947e+05 2.22483646e+05 2.23364207e+05 2.21369337e+05 
        </DataArray>
      </PointData>
    </Piece>
    <Piece NumberOfPoints="4" NumberOfCells="3">
      <Points>
        <DataArray type="Float64" NumberOfComponents="3" format="ascii">
          9.38035965e-01 -8.65600072e-03 0.00000000e+00 
9.48369622e-01 -7.25875143e-03 0.00000000e+00 
9.58700895e-01 -5.84406452e-03 0.00000000e+00 
9.69029665e-01 -4.41133138e-03 0.00000000e+00 

        </DataArray>
      </Points>
      <Cells>
        <DataArray type="Int32" Name="connectivity" format="ascii">
0 1
1 2
2 3

        </DataArray>
        <DataArray type="Int32" Name="offsets" format="ascii">
2 4 6 
        </DataArray>
        <DataArray type="UInt8" Name="types" format="ascii">
3 3 3 
        </DataArray>
      </Cells>
      <PointData>
        <DataArray type="Float64" Name="rho">
          9.70674576e-01 9.72277240e-01 9.73474268e-01 9.76084670e-01 
        </DataArray>
        <DataArray type="Float64" Name="rhou">
          -6.42370427e-03 2.33718359e-03 -2.65775721e-03 -1.73832486e-02 
        </DataArray>
        <DataArray type="Float64" Name="rhov">
          1.11756668e-03 -1.73002356e-04 1.36706023e-03 -1.77654243e-02 
        </DataArray>
        <DataArray type="Float64" Name="E">
          2.21222588e+05 2.21599560e+05 2.21883977e+05 2.22490612e+05 
        </DataArray>
      </PointData>
    </Piece>
    <Piece NumberOfPoints="4" NumberOfCells="3">
      <Points>
        <DataArray type="Float64" NumberOfComponents="3" format="ascii">
          9.07021165e-01 -1.27432076e-02 0.00000000e+00 
9.17361677e-01 -1.13977119e-02 0.00000000e+00 
9.27700043e-01 -1.00357840e-02 0.00000000e+00 
9.38035965e-01 -8.65600072e-03 0.00000000e+00 

        </DataArray>
      </Points>
      <Cells>
        <DataArray type="Int32" Name="connectivity" format="ascii">
0 1
1 2
2 3

        </DataArray>
        <DataArray type="Int32" Name="offsets" format="ascii">
2 4 6 
        </DataArray>
        <DataArray type="UInt8" Name="types" format="ascii">
3 3 3 
        </DataArray>
      </Cells>
      <PointData>
        <DataArray type="Float64" Name="rho">
          9.66630137e-01 9.68020099e-01 9.69441328e-01 9.70721834e-01 
        </DataArray>
        <DataArray type="Float64" Name="rhou">
          9.37560634e-04 -6.92841090e-05 5.01766051e-04 9.00893935e-04 
        </DataArray>
        <DataArray type="Float64" Name="rhov">
          5.25719366e-05 8.02698843e-05 -7.86286066e-06 1.40694616e-03 
        </DataArray>
        <DataArray type="Float64" Name="E">
          2.20263559e+05 2.20593116e+05 2.20929444e+05 2.21233350e+05 
        </DataArray>
      </PointData>
    </Piece>
    <Piece NumberOfPoints="4" NumberOfCells="3">
      <Points>
        <DataArray type="Float64" NumberOfComponents="3" format="ascii">
          8.75986874e-01 -1.66798849e-02 0.00000000e+00 
8.86333704e-01 -1.53839625e-02 0.00000000e+00 
8.96678507e-01 -1.40720531e-02 0.00000000e+00 
9.07021165e-01 -1.27432076e-02 0.00000000e+00 

        </DataArray>
      </Points>
      <Cells>
        <DataArray type="Int32" Name="connectivity" format="ascii">
0 1
1 2
2 3

        </DataArray>
        <DataArray type="Int32" Name="offsets" format="ascii">
2 4 6 
        </DataArray>
        <DataArray type="UInt8" Name="types" format="ascii">
3 3 3 
        </DataArray>
      </Cells>
      <PointData>
        <DataArray type="Float64" Name="rho">
          9.62338539e-01 9.63775459e-01 9.65198721e-01 9.66625177e-01 
        </DataArray>
        <DataArray type="Float64" Name="rhou">
          1.59716947e-04 2.40279884e-04 1.91222766e-04 1.37968303e-04 
        </DataArray>
        <DataArray type="Float64" Name="rhov">
          7.10618654e-05 6.27518574e-05 7.81077784e-05 -1.72213165e-05 
        </DataArray>
        <DataArray type="Float64" Name="E">
          2.19245420e+05 2.19586510e+05 2.19924245e+05 2.20262431e+05 
        </DataArray>
      </PointData>
    </Piece>
    <Piece NumberOfPoints="4" NumberOfCells="3">
      <Points>
        <DataArray type="Float64" NumberOfComponents="3" format="ascii">
          8.44934702e-01 -2.04724707e-02 0.00000000e+00 
8.55287313e-01 -1.92240477e-02 0.00000000e+00 
8.65638077e-01 -1.79597028e-02 0.00000000e+00 
8.75986874e-01 -1.66798849e-02 0.00000000e+00 

        </DataArray>
      </Points>
      <Cells>
        <DataArray type="Int32" Name="connectivity" format="ascii">
0 1
1 2
2 3

        </DataArray>
        <DataArray type="Int32" Name="offsets" format="ascii">
2 4 6 
        </DataArray>
        <DataArray type="UInt8" Name="types" format="ascii">
3 3 3 
        </DataArray>
      </Cells>
      <PointData>
        <DataArray type="Float64" Name="rho">
          9.57985161e-01 9.59443897e-01 9.60897556e-01 9.62338967e-01 
        </DataArray>
        <DataArray type="Float64" Name="rhou">
          2.95579493e-04 2.36047805e-04 2.23339011e-04 2.61007760e-04 
        </DataArray>
        <DataArray type="Float64" Name="rhov">
          4.50540937e-05 6.57361126e-05 5.54529236e-05 7.42122175e-05 
        </DataArray>
        <DataArray type="Float64" Name="E">
          2.18211243e+05 2.18557881e+05 2.18903190e+05 2.19245518e+05 
        </DataArray>
      </PointData>
    </Piece>
    <Piece NumberOfPoints="4" NumberOfCells="3">
      <Points>
        <DataArray type="Float64" NumberOfComponents="3" format="ascii">
          8.13865662e-01 -2.41250079e-02 0.00000000e+00 
8.24223816e-01 -2.29226518e-02 0.00000000e+00 
8.34580123e-01 -2.17050612e-02 0.00000000e+00 
8.44934702e-01 -2.04724707e-02 0.00000000e+00 

        </DataArray>
      </Points>
      <Cells>
        <DataArray type="Int32" Name="connectivity" format="ascii">
0 1
1 2
2 3

        </DataArray>
        <DataArray type="Int32" Name="offsets" format="ascii">
2 4 6 
        </DataArray>
        <DataArray type="UInt8" Name="types" format="ascii">
3 3 3 
        </DataArray>
      </Cells>
      <PointData>
        <DataArray type="Float64" Name="rho">
          9.53544748e-01 9.55032930e-01 9.56513203e-01 9.57984931e-01 
        </DataArray>
        <DataArray type="Float64" Name="rhou">
          2.72563640e-04 2.56975402e-04 2.41335337e-04 2.46368402e-04 
        </DataArray>
        <DataArray type="Float64" Name="rhov">
          5.56651147e-05 5.66006491e-05 4.93219951e-05 3.75475995e-05 
        </DataArray>
        <DataArray type="Float64" Name="E">
          2.17155795e+05 2.17509587e+05 2.17861437e+05 2.18211191e+05 
        </DataArray>
      </PointData>
    </Piece>
    <Piece NumberOfPoints="4" NumberOfCells="3">
      <Points>
        <DataArray type="Float64" NumberOfComponents="3" format="ascii">
          7.82780826e-01 -2.76402626e-02 0.00000000e+00 
7.93144107e-01 -2.64833923e-02 0.00000000e+00 
8.03505778e-01 -2.53117718e-02 0.00000000e+00 
8.13865662e-01 -2.41250079e-02 0.00000000e+00 

        </DataArray>
      </Points>
      <Cells>
        <DataArray type="Int32" Name="connectivity" format="ascii">
0 1
1 2
2 3

        </DataArray>
        <DataArray type="Int32" Name="offsets" format="ascii">
2 4 6 
        </DataArray>
        <DataArray type="UInt8" Name="types" format="ascii">
3 3 3 
        </DataArray>
      </Cells>
      <PointData>
        <DataArray type="Float64" Name="rho">
          9.49027020e-01 9.50541793e-01 9.52048577e-01 9.53544640e-01 
        </DataArray>
        <DataArray type="Float64" Name="rhou">
          2.94264172e-04 2.73134122e-04 2.72461260e-04 2.81637235e-04 
        </DataArray>
        <DataArray type="Float64" Name="rhov">
          5.17779741e-05 4.35583987e-05 3.93144434e-05 5.39086907e-05 
        </DataArray>
        <DataArray type="Float64" Name="E">
          2.16081516e+05 2.16441756e+05 2.16800049e+05 2.17155770e+05 
        </DataArray>
      </PointData>
    </Piece>
    <Piece NumberOfPoints="4" NumberOfCells="3">
      <Points>
        <DataArray type="Float64" NumberOfComponents="3" format="ascii">
          7.51680970e-01 -3.10197193e-02 0.00000000e+00 
7.62049198e-01 -2.99084149e-02 0.00000000e+00 
7.72415876e-01 -2.87819952e-02 0.00000000e+00 
7.82780826e-01 -2.76402626e-02 0.00000000e+00 

        </DataArray>
      </Points>
      <Cells>
        <DataArray type="Int32" Name="connectivity" format="ascii">
0 1
1 2
2 3

        </DataArray>
        <DataArray type="Int32" Name="offsets" format="ascii">
2 4 6 
        </DataArray>
        <DataArray type="UInt8" Name="types" format="ascii">
3 3 3 
        </DataArray>
      </Cells>
      <PointData>
        <DataArray type="Float64" Name="rho">
          9.44437238e-01 9.45975387e-01 9.47505189e-01 9.49026984e-01 
        </DataArray>
        <DataArray type="Float64" Name="rhou">
          3.07875717e-04 3.03670539e-04 2.98029452e-04 2.83795181e-04 
        </DataArray>
        <DataArray type="Float64" Name="rhov">
          4.39186965e-05 3.75167824e-05 4.16273303e-05 4.95730367e-05 
        </DataArray>
        <DataArray type="Float64" Name="E">
          2.14989709e+05 2.15355635e+05 2.15719543e+05 2.16081507e+05 
        </DataArray>
      </PointData>
    </Piece>
    <Piece NumberOfPoints="4" NumberOfCells="3">
      <Points>
        <DataArray type="Float64" NumberOfComponents="3" format="ascii">
          7.20566452e-01 -3.42622213e-02 0.00000000e+00 
7.30939507e-01 -3.31965312e-02 0.00000000e+00 
7.41311073e-01 -3.21157984e-02 0.00000000e+00 
7.51680970e-01 -3.10197193e-02 0.00000000e+00 

        </DataArray>
      </Points>
      <Cells>
        <DataArray type="Int32" Name="connectivity" format="ascii">
0 1
1 2
2 3

        </DataArray>
        <DataArray type="Int32" Name="offsets" format="ascii">
2 4 6 
        </DataArray>
        <DataArray type="UInt8" Name="types" format="ascii">
3 3 3 
        </DataArray>
      </Cells>
      <PointData>
        <DataArray type="Float64" Name="rho">
          9.39784147e-01 9.41342401e-01 9.42893603e-01 9.44437230e-01 
        </DataArray>
        <DataArray type="Float64" Name="rhou">
          3.33596172e-04 3.26839088e-04 3.23975650e-04 3.10999446e-04 
        </DataArray>
        <DataArray type="Float64" Name="rhov">
          3.97451317e-05 2.90899594e-05 3.20866545e-05 4.43556416e-05 
        </DataArray>
        <DataArray type="Float64" Name="E">
          2.13882452e+05 2.14253292e+05 2.14622418e+05 2.14989707e+05 
        </DataArray>
      </PointData>
    </Piece>
    <Piece NumberOfPoints="4" NumberOfCells="3">
      <Points>
        <DataArray type="Float64" NumberOfComponents="3" format="ascii">
          6.89437866e-01 -3.73662710e-02 0.00000000e+00 
6.99815631e-01 -3.63472365e-02 0.00000000e+00 
7.10191846e-01 -3.53125818e-02 0.00000000e+00 
7.20566452e-01 -3.42622213e-02 0.00000000e+00 

        </DataArray>
      </Points>
      <Cells>
        <DataArray type="Int32" Name="connectivity" format="ascii">
0 1
1 2
2 3

        </DataArray>
        <DataArray type="Int32" Name="offsets" format="ascii">
2 4 6 
        </DataArray>
        <DataArray type="UInt8" Name="types" format="ascii">
3 3 3 
        </DataArray>
      </Cells>
      <PointData>
        <DataArray type="Float64" Name="rho">
          9.35084327e-01 9.36655834e-01 9.38222538e-01 9.39784158e-01 
        </DataArray>
        <DataArray type="Float64" Name="rhou">
          3.66030623e-04 3.58988300e-04 3.52114793e-04 3.34498214e-04 
        </DataArray>
        <DataArray type="Float64" Name="rhov">
          3.10714632e-05 2.40551827e-05 2.89818747e-05 3.99803104e-05 
        </DataArray>
        <DataArray type="Float64" Name="E">
          2.12763631e+05 2.13137780e+05 2.13510744e+05 2.13882455e+05 
        </DataArray>
      </PointData>
    </Piece>
    <Piece NumberOfPoints="4" NumberOfCells="3">
      <Points>
        <DataArray type="Float64" NumberOfComponents="3" format="ascii">
          6.58295333e-01 -4.03269380e-02 0.00000000e+00 
6.68677747e-01 -3.93563360e-02 0.00000000e+00 
6.79058611e-01 -3.83694395e-02 0.00000000e+00 
6.89437866e-01 -3.73662710e-02 0.00000000e+00 

        </DataArray>
      </Points>
      <Cells>
        <DataArray type="Int32" Name="connectivity" format="ascii">
0 1
1 2
2 3

        </DataArray>
        <DataArray type="Int32" Name="offsets" format="ascii">
2 4 6 
        </DataArray>
        <DataArray type="UInt8" Name="types" format="ascii">
3 3 3 
        </DataArray>
      </Cells>
      <PointData>
        <DataArray type="Float64" Name="rho">
          9.30359984e-01 9.31936701e-01 9.33511470e-01 9.35084381e-01 
        </DataArray>
        <DataArray type="Float64" Name="rhou">
          4.01922765e-04 3.96653518e-04 3.84217675e-04 3.64025695e-04 
        </DataArray>
        <DataArray type="Float64" Name="rhov">
          1.92919887e-05 1.64887770e-05 2.34200303e-05 3.18326207e-05 
        </DataArray>
        <DataArray type="Float64" Name="E">
          2.11638485e+05 2.12014042e+05 2.12389091e+05 2.12763644e+05 
        </DataArray>
      </PointData>
    </Piece>
    <Piece NumberOfPoints="4" NumberOfCells="3">
      <Points>
        <DataArray type="Float64" NumberOfComponents="3" format="ascii">
          6.27138972e-01 -4.31386717e-02 0.00000000e+00 
6.37525976e-01 -4.22184542e-02 0.00000000e+00 
6.47911429e-01 -4.12811004e-02 0.00000000e+00 
6.58295333e-01 -4.03269380e-02 0.00000000e+00 

        </DataArray>
      </Points>
      <Cells>
        <DataArray type="Int32" Name="connectivity" format="ascii">
0 1
1 2
2 3

        </DataArray>
        <DataArray type="Int32" Name="offsets" format="ascii">
2 4 6 
        </DataArray>
        <DataArray type="UInt8" Name="types" format="ascii">
3 3 3 
        </DataArray>
      </Cells>
      <PointData>
        <DataArray type="Float64" Name="rho">
          9.25641329e-01 9.27211157e-01 9.28784637e-01 9.30360017e-01 
        </DataArray>
        <DataArray type="Float64" Name="rhou">
          4.51786877e-04 4.33578288e-04 4.16767151e-04 4.02724268e-04 
        </DataArray>
        <DataArray type="Float64" Name="rhov">
          1.50839223e-05 1.42514917e-05 1.59101171e-05 2.01842205e-05 
        </DataArray>
        <DataArray type="Float64" Name="E">
          2.10514147e+05 2.10888264e+05 2.11263183e+05 2.11638492e+05 
        </DataArray>
      </PointData>
    </Piece>
    <Piece NumberOfPoints="4" NumberOfCells="3">
      <Points>
        <DataArray type="Float64" NumberOfComponents="3" format="ascii">
          5.95968783e-01 -4.57924642e-02 0.00000000e+00 
6.06360376e-01 -4.49259281e-02 0.00000000e+00 
6.16750479e-01 -4.40412909e-02 0.00000000e+00 
6.27138972e-01 -4.31386717e-02 0.00000000e+00 

        </DataArray>
      </Points>
      <Cells>
        <DataArray type="Int32" Name="connectivity" format="ascii">
0 1
1 2
2 3

        </DataArray>
        <DataArray type="Int32" Name="offsets" format="ascii">
2 4 6 
        </DataArray>
        <DataArray type="UInt8" Name="types" format="ascii">
3 3 3 
        </DataArray>
      </Cells>
      <PointData>
        <DataArray type="Float64" Name="rho">
          9.20972216e-01 9.22520946e-01 9.24077723e-01 9.25641322e-01 
        </DataArray>
        <DataArray type="Float64" Name="rhou">
          4.94820094e-04 4.83332997e-04 4.66631084e-04 4.45240764e-04 
        </DataArray>
        <DataArray type="Float64" Name="rhov">
          2.47886801e-06 -4.26667819e-07 6.24629151e-06 1.59112343e-05 
        </DataArray>
        <DataArray type="Float64" Name="E">
          2.09400977e+05 2.09770279e+05 2.10141434e+05 2.10514146e+05 
        </DataArray>
      </PointData>
    </Piece>
    <Piece NumberOfPoints="4" NumberOfCells="3">
      <Points>
        <DataArray type="Float64" NumberOfComponents="3" format="ascii">
          5.64784765e-01 -4.82786149e-02 0.00000000e+00 
5.75181007e-01 -4.74695377e-02 0.00000000e+00 
5.85575700e-01 -4.66405638e-02 0.00000000e+00 
5.95968783e-01 -4.57924642e-02 0.00000000e+00 

        </DataArray>
      </Points>
      <Cells>
        <DataArray type="Int32" Name="connectivity" format="ascii">
0 1
1 2
2 3

        </DataArray>
        <DataArray type="Int32" Name="offsets" format="ascii">
2 4 6 
        </DataArray>
        <DataArray type="UInt8" Name="types" format="ascii">
3 3 3 
        </DataArray>
      </Cells>
      <PointData>
        <DataArray type="Float64" Name="rho">
          9.16411965e-01 9.17914940e-01 9.19435683e-01 9.20972328e-01 
        </DataArray>
        <DataArray type="Float64" Name="rhou">
          5.69046982e-04 5.43521752e-04 5.11353407e-04 4.88583713e-04 
        </DataArray>
        <DataArray type="Float64" Name="rhov">
          -9.57435086e-06 1.86200611e-06 6.76580108e-06 3.42391648e-06 
        </DataArray>
        <DataArray type="Float64" Name="E">
          2.08312972e+05 2.08671662e+05 2.09034490e+05 2.09401002e+05 
        </DataArray>
      </PointData>
    </Piece>
    <Piece NumberOfPoints="4" NumberOfCells="3">
      <Points>
        <DataArray type="Float64" NumberOfComponents="3" format="ascii">
          5.33586800e-01 -5.05827516e-02 0.00000000e+00 
5.43987691e-01 -4.98356484e-02 0.00000000e+00 
5.54387033e-01 -4.90674041e-02 0.00000000e+00 
5.64784765e-01 -4.82786149e-02 0.00000000e+00 

        </DataArray>
      </Points>
      <Cells>
        <DataArray type="Int32" Name="connectivity" format="ascii">
0 1
1 2
2 3

        </DataArray>
        <DataArray type="Int32" Name="offsets" format="ascii">
2 4 6 
        </DataArray>
        <DataArray type="UInt8" Name="types" format="ascii">
3 3 3 
        </DataArray>
      </Cells>
      <PointData>
        <DataArray type="Float64" Name="rho">
          9.12034142e-01 9.13467078e-01 9.14928167e-01 9.16411925e-01 
        </DataArray>
        <DataArray type="Float64" Name="rhou">
          6.41234659e-04 6.02370146e-04 5.74345178e-04 5.63388971e-04 
        </DataArray>
        <DataArray type="Float64" Name="rhov">
          -8.90719120e-06 -8.80627718e-06 -1.17494545e-05 -9.18931794e-06 
        </DataArray>
        <DataArray type="Float64" Name="E">
          2.07267561e+05 2.07609870e+05 2.07958764e+05 2.08312962e+05 
        </DataArray>
      </PointData>
    </Piece>
    <Piece NumberOfPoints="4" NumberOfCells="3">
      <Points>
        <DataArray type="Float64" NumberOfComponents="3" format="ascii">
          5.02374947e-01 -5.26902266e-02 0.00000000e+00 
5.12780428e-01 -5.20105064e-02 0.00000000e+00 
5.23184419e-01 -5.13078682e-02 0.00000000e+00 
5.33586800e-01 -5.05827516e-02 0.00000000e+00 

        </DataArray>
      </Points>
      <Cells>
        <DataArray type="Int32" Name="connectivity" format="ascii">
0 1
1 2
2 3

        </DataArray>
        <DataArray type="Int32" Name="offsets" format="ascii">
2 4 6 
        </DataArray>
        <DataArray type="UInt8" Name="types" format="ascii">
3 3 3 
        </DataArray>
      </Cells>
      <PointData>
        <DataArray type="Float64" Name="rho">
          9.07939498e-01 9.09266516e-01 9.10633416e-01 9.12034047e-01 
        </DataArray>
        <DataArray type="Float64" Name="rhou">
          7.20579709e-04 6.85087391e-04 6.58225378e-04 6.38468858e-04 
        </DataArray>
        <DataArray type="Float64" Name="rhov">
          -1.84955529e-05 -2.47906126e-05 -2.32494373e-05 -9.33730578e-06 
        </DataArray>
        <DataArray type="Float64" Name="E">
          2.06288531e+05 2.06605979e+05 2.06932794e+05 2.07267539e+05 
        </DataArray>
      </PointData>
    </Piece>
    <Piece NumberOfPoints="4" NumberOfCells="3">
      <Points>
        <DataArray type="Float64" NumberOfComponents="3" format="ascii">
          4.71149325e-01 -5.45825884e-02 0.00000000e+00 
4.81559396e-01 -5.39771840e-02 0.00000000e+00 
4.91967946e-01 -5.33461571e-02 0.00000000e+00 
5.02374947e-01 -5.26902266e-02 0.00000000e+00 

        </DataArray>
      </Points>
      <Cells>
        <DataArray type="Int32" Name="connectivity" format="ascii">
0 1
1 2
2 3

        </DataArray>
        <DataArray type="Int32" Name="offsets" format="ascii">
2 4 6 
        </DataArray>
        <DataArray type="UInt8" Name="types" format="ascii">
3 3 3 
        </DataArray>
      </Cells>
      <PointData>
        <DataArray type="Float64" Name="rho">
          9.04260531e-01 9.05432656e-01 9.06659413e-01 9.07939587e-01 
        </DataArray>
        <DataArray type="Float64" Name="rhou">
          8.25180555e-04 8.03071771e-04 7.57021967e-04 7.00890335e-04 
        </DataArray>
        <DataArray type="Float64" Name="rhov">
          -4.29996550e-05 -3.67142929e-05 -1.94690620e-05 -1.56686352e-05 
        </DataArray>
        <DataArray type="Float64" Name="E">
          2.05407187e+05 2.05688203e+05 2.05982101e+05 2.06288552e+05 
        </DataArray>
      </PointData>
    </Piece>
    <Piece NumberOfPoints="4" NumberOfCells="3">
      <Points>
        <DataArray type="Float64" NumberOfComponents="3" format="ascii">
          4.39910263e-01 -5.62384278e-02 0.00000000e+00 
4.50324744e-01 -5.57143167e-02 0.00000000e+00 
4.60737765e-01 -5.51619194e-02 0.00000000e+00 
4.71149325e-01 -5.45825884e-02 0.00000000e+00 

        </DataArray>
      </Points>
      <Cells>
        <DataArray type="Int32" Name="connectivity" format="ascii">
0 1
1 2
2 3

        </DataArray>
        <DataArray type="Int32" Name="offsets" format="ascii">
2 4 6 
        </DataArray>
        <DataArray type="UInt8" Name="types" format="ascii">
3 3 3 
        </DataArray>
      </Cells>
      <PointData>
        <DataArray type="Float64" Name="rho">
          9.01157939e-01 9.02113530e-01 9.03151296e-01 9.04260606e-01 
        </DataArray>
        <DataArray type="Float64" Name="rhou">
          9.91427553e-04 9.14967449e-04 8.57266399e-04 8.30534085e-04 
        </DataArray>
        <DataArray type="Float64" Name="rhov">
          -3.56672737e-05 -2.66256282e-05 -3.31449317e-05 -4.04461555e-05 
        </DataArray>
        <DataArray type="Float64" Name="E">
          2.04661572e+05 2.04891604e+05 2.05140980e+05 2.05407203e+05 
        </DataArray>
      </PointData>
    </Piece>
    <Piece NumberOfPoints="4" NumberOfCells="3">
      <Points>
        <DataArray type="Float64" NumberOfComponents="3" format="ascii">
          4.08658355e-01 -5.76302819e-02 0.00000000e+00 
4.19077009e-01 -5.71971126e-02 0.00000000e+00 
4.29494321e-01 -5.67329265e-02 0.00000000e+00 
4.39910263e-01 -5.62384278e-02 0.00000000e+00 

        </DataArray>
      </Points>
      <Cells>
        <DataArray type="Int32" Name="connectivity" format="ascii">
0 1
1 2
2 3

        </DataArray>
        <DataArray type="Int32" Name="offsets" format="ascii">
2 4 6 
        </DataArray>
        <DataArray type="UInt8" Name="types" format="ascii">
3 3 3 
        </DataArray>
      </Cells>
      <PointData>
        <DataArray type="Float64" Name="rho">
          8.98843895e-01 8.99514835e-01 9.00290043e-01 9.01157708e-01 
        </DataArray>
        <DataArray type="Float64" Name="rhou">
          1.14513963e-03 1.07605405e-03 1.02503650e-03 9.86044505e-04 
        </DataArray>
        <DataArray type="Float64" Name="rhov">
          -4.38220142e-05 -5.62615967e-05 -5.55058983e-05 -3.54845947e-05 
        </DataArray>
        <DataArray type="Float64" Name="E">
          2.04101922e+05 2.04264766e+05 2.04452221e+05 2.04661519e+05 
        </DataArray>
      </PointData>
    </Piece>
    <Piece NumberOfPoints="4" NumberOfCells="3">
      <Points>
        <DataArray type="Float64" NumberOfComponents="3" format="ascii">
          3.77394795e-01 -5.87291755e-02 0.00000000e+00 
3.87817174e-01 -5.83979115e-02 0.00000000e+00 
3.98238391e-01 -5.80311492e-02 0.00000000e+00 
4.08658355e-01 -5.76302819e-02 0.00000000e+00 

        </DataArray>
      </Points>
      <Cells>
        <DataArray type="Int32" Name="connectivity" format="ascii">
0 1
1 2
2 3

        </DataArray>
        <DataArray type="Int32" Name="offsets" format="ascii">
2 4 6 
        </DataArray>
        <DataArray type="UInt8" Name="types" format="ascii">
3 3 3 
        </DataArray>
      </Cells>
      <PointData>
        <DataArray type="Float64" Name="rho">
          8.97584860e-01 8.97869727e-01 8.98290530e-01 8.98844107e-01 
        </DataArray>
        <DataArray type="Float64" Name="rhou">
          1.39266406e-03 1.31947029e-03 1.21846129e-03 1.11398034e-03 
        </DataArray>
        <DataArray type="Float64" Name="rhov">
          -8.68224002e-05 -5.91168039e-05 -3.15040148e-05 -3.89124673e-05 
        </DataArray>
        <DataArray type="Float64" Name="E">
          2.03791271e+05 2.03862965e+05 2.03966811e+05 2.04101971e+05 
        </DataArray>
      </PointData>
    </Piece>
    <Piece NumberOfPoints="4" NumberOfCells="3">
      <Points>
        <DataArray type="Float64" NumberOfComponents="3" format="ascii">
          3.46121490e-01 -5.95011823e-02 0.00000000e+00 
3.56546819e-01 -5.92821389e-02 0.00000000e+00 
3.66971314e-01 -5.90242445e-02 0.00000000e+00 
3.77394795e-01 -5.87291755e-02 0.00000000e+00 

        </DataArray>
      </Points>
      <Cells>
        <DataArray type="Int32" Name="connectivity" format="ascii">
0 1
1 2
2 3

        </DataArray>
        <DataArray type="Int32" Name="offsets" format="ascii">
2 4 6 
        </DataArray>
        <DataArray type="UInt8" Name="types" format="ascii">
3 3 3 
        </DataArray>
      </Cells>
      <PointData>
        <DataArray type="Float64" Name="rho">
          8.97674978e-01 8.97469965e-01 8.97445729e-01 8.97584952e-01 
        </DataArray>
        <DataArray type="Float64" Name="rhou">
          1.73419701e-03 1.59025638e-03 1.46183832e-03 1.39607272e-03 
        </DataArray>
        <DataArray type="Float64" Name="rhov">
          -1.21288804e-04 -7.94731259e-05 -7.22308979e-05 -8.21825625e-05 
        </DataArray>
        <DataArray type="Float64" Name="E">
          2.03799528e+05 2.03755429e+05 2.03754046e+05 2.03791290e+05 
        </DataArray>
      </PointData>
    </Piece>
    <Piece NumberOfPoints="4" NumberOfCells="3">
      <Points>
        <DataArray type="Float64" NumberOfComponents="3" format="ascii">
          3.14841360e-01 -5.99102043e-02 0.00000000e+00 
3.25268596e-01 -5.98174632e-02 0.00000000e+00 
3.35695356e-01 -5.96801341e-02 0.00000000e+00 
3.46121490e-01 -5.95011823e-02 0.00000000e+00 

        </DataArray>
      </Points>
      <Cells>
        <DataArray type="Int32" Name="connectivity" format="ascii">
0 1
1 2
2 3

        </DataArray>
        <DataArray type="Int32" Name="offsets" format="ascii">
2 4 6 
        </DataArray>
        <DataArray type="UInt8" Name="types" format="ascii">
3 3 3 
        </DataArray>
      </Cells>
      <PointData>
        <DataArray type="Float64" Name="rho">
          8.99521168e-01 8.98670833e-01 8.98064695e-01 8.97674688e-01 
        </DataArray>
        <DataArray type="Float64" Name="rhou">
          2.18342106e-03 1.93940696e-03 1.77481106e-03 1.69866188e-03 
        </DataArray>
        <DataArray type="Float64" Name="rhov">
          -5.82503335e-05 -3.49408168e-05 -6.72053958e-05 -1.20520829e-04 
        </DataArray>
        <DataArray type="Float64" Name="E">
          2.04223146e+05 2.04026407e+05 2.03887386e+05 2.03799461e+05 
        </DataArray>
      </PointData>
    </Piece>
    <Piece NumberOfPoints="4" NumberOfCells="3">
      <Points>
        <DataArray type="Float64" NumberOfComponents="3" format="ascii">
          2.83558637e-01 -5.98983802e-02 0.00000000e+00 
2.93986142e-01 -5.99516556e-02 0.00000000e+00 
3.04413795e-01 -5.99554181e-02 0.00000000e+00 
3.14841360e-01 -5.99102043e-02 0.00000000e+00 

        </DataArray>
      </Points>
      <Cells>
        <DataArray type="Int32" Name="connectivity" format="ascii">
0 1
1 2
2 3

        </DataArray>
        <DataArray type="Int32" Name="offsets" format="ascii">
2 4 6 
        </DataArray>
        <DataArray type="UInt8" Name="types" format="ascii">
3 3 3 
        </DataArray>
      </Cells>
      <PointData>
        <DataArray type="Float64" Name="rho">
          9.03639308e-01 9.01995506e-01 9.00628360e-01 8.99520456e-01 
        </DataArray>
        <DataArray type="Float64" Name="rhou">
          2.66045486e-03 2.49562283e-03 2.35818394e-03 2.17438036e-03 
        </DataArray>
        <DataArray type="Float64" Name="rhov">
          -1.15439283e-04 -1.82248923e-04 -1.46486100e-04 -5.16368539e-05 
        </DataArray>
        <DataArray type="Float64" Name="E">
          2.05185046e+05 2.04800030e+05 2.04480723e+05 2.04222984e+05 
        </DataArray>
      </PointData>
    </Piece>
    <Piece NumberOfPoints="4" NumberOfCells="3">
      <Points>
        <DataArray type="Float64" NumberOfComponents="3" format="ascii">
          2.52279758e-01 -5.94130717e-02 0.00000000e+00 
2.62705088e-01 -5.96327744e-02 0.00000000e+00 
2.73131490e-01 -5.97934239e-02 0.00000000e+00 
2.83558637e-01 -5.98983802e-02 0.00000000e+00 

        </DataArray>
      </Points>
      <Cells>
        <DataArray type="Int32" Name="connectivity" format="ascii">
0 1
1 2
2 3

        </DataArray>
        <DataArray type="Int32" Name="offsets" format="ascii">
2 4 6 
        </DataArray>
        <DataArray type="UInt8" Name="types" format="ascii">
3 3 3 
        </DataArray>
      </Cells>
      <PointData>
        <DataArray type="Float64" Name="rho">
          9.10649407e-01 9.07943260e-01 9.05609596e-01 9.03640229e-01 
        </DataArray>
        <DataArray type="Float64" Name="rhou">
          3.63285239e-03 3.32765837e-03 2.99217298e-03 2.64663713e-03 
        </DataArray>
        <DataArray type="Float64" Name="rhov">
          -2.64228084e-04 -1.71827207e-04 -8.45234181e-05 -9.62589305e-05 
        </DataArray>
        <DataArray type="Float64" Name="E">
          2.06832704e+05 2.06195750e+05 2.05647348e+05 2.05185259e+05 
        </DataArray>
      </PointData>
    </Piece>
    <Piece NumberOfPoints="4" NumberOfCells="3">
      <Points>
        <DataArray type="Float64" NumberOfComponents="3" format="ascii">
          2.21014455e-01 -5.83752058e-02 0.00000000e+00 
2.31433928e-01 -5.87876961e-02 0.00000000e+00 
2.41855890e-01 -5.91322705e-02 0.00000000e+00 
2.52279758e-01 -5.94130717e-02 0.00000000e+00 

        </DataArray>
      </Points>
      <Cells>
        <DataArray type="Int32" Name="connectivity" format="ascii">
0 1
1 2
2 3

        </DataArray>
        <DataArray type="Int32" Name="offsets" format="ascii">
2 4 6 
        </DataArray>
        <DataArray type="UInt8" Name="types" format="ascii">
3 3 3 
        </DataArray>
      </Cells>
      <PointData>
        <DataArray type="Float64" Name="rho">
          9.21333130e-01 9.17296366e-01 9.13750854e-01 9.10649589e-01 
        </DataArray>
        <DataArray type="Float64" Name="rhou">
          4.98620612e-03 4.40084463e-03 3.95446320e-03 3.66700812e-03 
        </DataArray>
        <DataArray type="Float64" Name="rhov">
          -3.71033391e-04 -2.66508403e-04 -2.34009463e-04 -2.47882845e-04 
        </DataArray>
        <DataArray type="Float64" Name="E">
          2.09353544e+05 2.08400210e+05 2.07563682e+05 2.06832741e+05 
        </DataArray>
      </PointData>
    </Piece>
    <Piece NumberOfPoints="4" NumberOfCells="3">
      <Points>
        <DataArray type="Float64" NumberOfComponents="3" format="ascii">
          1.89777538e-01 -5.66898957e-02 0.00000000e+00 
2.00185493e-01 -5.73302582e-02 0.00000000e+00 
2.10598081e-01 -5.78906052e-02 0.00000000e+00 
2.21014455e-01 -5.83752058e-02 0.00000000e+00 

        </DataArray>
      </Points>
      <Cells>
        <DataArray type="Int32" Name="connectivity" format="ascii">
0 1
1 2
2 3

        </DataArray>
        <DataArray type="Int32" Name="offsets" format="ascii">
2 4 6 
        </DataArray>
        <DataArray type="UInt8" Name="types" format="ascii">
3 3 3 
        </DataArray>
      </Cells>
      <PointData>
        <DataArray type="Float64" Name="rho">
          9.36775933e-01 9.31022330e-01 9.25894586e-01 9.21332370e-01 
        </DataArray>
        <DataArray type="Float64" Name="rhou">
          6.90918771e-03 6.10815550e-03 5.52230204e-03 5.04863202e-03 
        </DataArray>
        <DataArray type="Float64" Name="rhov">
          -6.53894861e-04 -5.82551976e-04 -4.82437973e-04 -3.58373255e-04 
        </DataArray>
        <DataArray type="Float64" Name="E">
          2.13007761e+05 2.11645157e+05 2.10431837e+05 2.09353370e+05 
        </DataArray>
      </PointData>
    </Piece>
    <Piece NumberOfPoints="4" NumberOfCells="3">
      <Points>
        <DataArray type="Float64" NumberOfComponents="3" format="ascii">
          1.58592433e-01 -5.42296544e-02 0.00000000e+00 
1.68979734e-01 -5.51457107e-02 0.00000000e+00 
1.79375216e-01 -5.59638515e-02 0.00000000e+00 
1.89777538e-01 -5.66898957e-02 0.00000000e+00 

        </DataArray>
      </Points>
      <Cells>
        <DataArray type="Int32" Name="connectivity" format="ascii">
0 1
1 2
2 3

        </DataArray>
        <DataArray type="Int32" Name="offsets" format="ascii">
2 4 6 
        </DataArray>
        <DataArray type="UInt8" Name="types" format="ascii">
3 3 3 
        </DataArray>
      </Cells>
      <PointData>
        <DataArray type="Float64" Name="rho">
          9.58541656e-01 9.50476029e-01 9.43237697e-01 9.36776351e-01 
        </DataArray>
        <DataArray type="Float64" Name="rhou">
          9.96894252e-03 8.89411541e-03 7.94381699e-03 6.98034612e-03 
        </DataArray>
        <DataArray type="Float64" Name="rhov">
          -1.40870660e-03 -1.21598985e-03 -8.83990375e-04 -6.13464305e-04 
        </DataArray>
        <DataArray type="Float64" Name="E">
          2.18171179e+05 2.16256144e+05 2.14539211e+05 2.13007861e+05 
        </DataArray>
      </PointData>
    </Piece>
    <Piece NumberOfPoints="4" NumberOfCells="3">
      <Points>
        <DataArray type="Float64" NumberOfComponents="3" format="ascii">
          1.27497971e-01 -5.08146733e-02 0.00000000e+00 
1.37849152e-01 -5.20747155e-02 0.00000000e+00 
1.48214847e-01 -5.32093942e-02 0.00000000e+00 
1.58592433e-01 -5.42296544e-02 0.00000000e+00 

        </DataArray>
      </Points>
      <Cells>
        <DataArray type="Int32" Name="connectivity" format="ascii">
0 1
1 2
2 3

        </DataArray>
        <DataArray type="Int32" Name="offsets" format="ascii">
2 4 6 
        </DataArray>
        <DataArray type="UInt8" Name="types" format="ascii">
3 3 3 
        </DataArray>
      </Cells>
      <PointData>
        <DataArray type="Float64" Name="rho">
          9.89054767e-01 9.77700161e-01 9.67549922e-01 9.58545706e-01 
        </DataArray>
        <DataArray type="Float64" Name="rhou">
          1.45009315e-02 1.33229584e-02 1.15174308e-02 9.99730762e-03 
        </DataArray>
        <DataArray type="Float64" Name="rhov">
          -2.28804626e-03 -2.03925577e-03 -1.42269963e-03 -1.33689345e-03 
        </DataArray>
        <DataArray type="Float64" Name="E">
          2.25428458e+05 2.22725395e+05 2.20311784e+05 2.18172108e+05 
        </DataArray>
      </PointData>
    </Piece>
    <Piece NumberOfPoints="4" NumberOfCells="3">
      <Points>
        <DataArray type="Float64" NumberOfComponents="3" format="ascii">
          9.65642184e-02 -4.61716652e-02 0.00000000e+00 
1.06852271e-01 -4.78802323e-02 0.00000000e+00 
1.17164567e-01 -4.94215861e-02 0.00000000e+00 
1.27497971e-01 -5.08146733e-02 0.00000000e+00 

        </DataArray>
      </Points>
      <Cells>
        <DataArray type="Int32" Name="connectivity" format="ascii">
0 1
1 2
2 3

        </DataArray>
        <DataArray type="Int32" Name="offsets" format="ascii">
2 4 6 
        </DataArray>
        <DataArray type="UInt8" Name="types" format="ascii">
3 3 3 
        </DataArray>
      </Cells>
      <PointData>
        <DataArray type="Float64" Name="rho">
          1.03242765e+00 1.01612994e+00 1.00170142e+00 9.89063119e-01 
        </DataArray>
        <DataArray type="Float64" Name="rhou">
          2.46755727e-02 1.80886779e-02 1.71759026e-02 1.28560147e-02 
        </DataArray>
        <DataArray type="Float64" Name="rhov">
          -9.35165072e-04 -7.41666837e-04 -1.56542510e-03 -1.60831219e-03 
        </DataArray>
        <DataArray type="Float64" Name="E">
          2.35779470e+05 2.31885318e+05 2.28442954e+05 2.25430471e+05 
        </DataArray>
      </PointData>
    </Piece>
  </UnstructuredGrid>
</VTKFile>
