<?xml version="1.0"?>
<VTKFile type="UnstructuredGrid" version="0.1" byte_order="LittleEndian">
  <UnstructuredGrid>
    <Piece NumberOfPoints="4" NumberOfCells="3">
      <Points>
        <DataArray type="Float64" NumberOfComponents="3" format="ascii">
          9.65642184e-02 -4.61716652e-02 0.00000000e+00 
9.26280916e-02 -4.54656407e-02 0.00000000e+00 
8.86965096e-02 -4.47326750e-02 0.00000000e+00 
8.47706869e-02 -4.39694971e-02 0.00000000e+00 

        </DataArray>
      </Points>
      <Cells>
        <DataArray type="Int32" Name="connectivity" format="ascii">
0 1
1 2
2 3

        </DataArray>
        <DataArray type="Int32" Name="offsets" format="ascii">
2 4 6 
        </DataArray>
        <DataArray type="UInt8" Name="types" format="ascii">
3 3 3 
        </DataArray>
      </Cells>
      <PointData>
        <DataArray type="Float64" Name="rho">
          1.03104902e+00 1.03796599e+00 1.04519792e+00 1.05287724e+00 
        </DataArray>
        <DataArray type="Float64" Name="rhou">
          2.82546789e-02 2.17716512e-02 2.44190800e-02 2.45992055e-02 
        </DataArray>
        <DataArray type="Float64" Name="rhov">
          -2.22855488e-03 -1.01859258e-03 -6.11965966e-04 -9.28731915e-04 
        </DataArray>
        <DataArray type="Float64" Name="E">
          2.35377037e+05 2.37030374e+05 2.38760646e+05 2.40598317e+05 
        </DataArray>
      </PointData>
    </Piece>
    <Piece NumberOfPoints="4" NumberOfCells="3">
      <Points>
        <DataArray type="Float64" NumberOfComponents="3" format="ascii">
          8.47706869e-02 -4.39694971e-02 0.00000000e+00 
8.08513016e-02 -4.31745499e-02 0.00000000e+00 
7.69388378e-02 -4.23462167e-02 0.00000000e+00 
7.30340332e-02 -4.14824970e-02 0.00000000e+00 

        </DataArray>
      </Points>
      <Cells>
        <DataArray type="Int32" Name="connectivity" format="ascii">
0 1
1 2
2 3

        </DataArray>
        <DataArray type="Int32" Name="offsets" format="ascii">
2 4 6 
        </DataArray>
        <DataArray type="UInt8" Name="types" format="ascii">
3 3 3 
        </DataArray>
      </Cells>
      <PointData>
        <DataArray type="Float64" Name="rho">
          1.05287604e+00 1.06098391e+00 1.06955586e+00 1.07866162e+00 
        </DataArray>
        <DataArray type="Float64" Name="rhou">
          2.46901436e-02 2.38690327e-02 2.24639747e-02 2.09014666e-02 
        </DataArray>
        <DataArray type="Float64" Name="rhov">
          -7.34247747e-04 -5.29738431e-04 3.71537564e-04 1.55955313e-03 
        </DataArray>
        <DataArray type="Float64" Name="E">
          2.40598051e+05 2.42540252e+05 2.44594886e+05 2.46778689e+05 
        </DataArray>
      </PointData>
    </Piece>
    <Piece NumberOfPoints="4" NumberOfCells="3">
      <Points>
        <DataArray type="Float64" NumberOfComponents="3" format="ascii">
          7.30340332e-02 -4.14824970e-02 0.00000000e+00 
6.91377968e-02 -4.05809283e-02 0.00000000e+00 
6.52511865e-02 -3.96387354e-02 0.00000000e+00 
6.13753870e-02 -3.86530459e-02 0.00000000e+00 

        </DataArray>
      </Points>
      <Cells>
        <DataArray type="Int32" Name="connectivity" format="ascii">
0 1
1 2
2 3

        </DataArray>
        <DataArray type="Int32" Name="offsets" format="ascii">
2 4 6 
        </DataArray>
        <DataArray type="UInt8" Name="types" format="ascii">
3 3 3 
        </DataArray>
      </Cells>
      <PointData>
        <DataArray type="Float64" Name="rho">
          1.07866222e+00 1.08838552e+00 1.09875797e+00 1.10983909e+00 
        </DataArray>
        <DataArray type="Float64" Name="rhou">
          2.10195198e-02 1.86755632e-02 1.45836125e-02 9.09359263e-03 
        </DataArray>
        <DataArray type="Float64" Name="rhov">
          1.39422709e-03 2.13151265e-03 4.20277331e-03 7.37973071e-03 
        </DataArray>
        <DataArray type="Float64" Name="E">
          2.46778851e+05 2.49112973e+05 2.51604593e+05 2.54268701e+05 
        </DataArray>
      </PointData>
    </Piece>
    <Piece NumberOfPoints="4" NumberOfCells="3">
      <Points>
        <DataArray type="Float64" NumberOfComponents="3" format="ascii">
          6.13753870e-02 -3.86530459e-02 0.00000000e+00 
5.75117208e-02 -3.76208089e-02 0.00000000e+00 
5.36618084e-02 -3.65384258e-02 0.00000000e+00 
4.98276278e-02 -3.54015976e-02 0.00000000e+00 

        </DataArray>
      </Points>
      <Cells>
        <DataArray type="Int32" Name="connectivity" format="ascii">
0 1
1 2
2 3

        </DataArray>
        <DataArray type="Int32" Name="offsets" format="ascii">
2 4 6 
        </DataArray>
        <DataArray type="UInt8" Name="types" format="ascii">
3 3 3 
        </DataArray>
      </Cells>
      <PointData>
        <DataArray type="Float64" Name="rho">
          1.10983936e+00 1.12171205e+00 1.13446101e+00 1.14821758e+00 
        </DataArray>
        <DataArray type="Float64" Name="rhou">
          9.03764128e-03 1.99120266e-03 -7.20989176e-03 -1.87125218e-02 
        </DataArray>
        <DataArray type="Float64" Name="rhov">
          7.15202056e-03 1.18360985e-02 1.98872105e-02 3.13240019e-02 
        </DataArray>
        <DataArray type="Float64" Name="E">
          2.54268765e+05 2.57127143e+05 2.60199153e+05 2.63517293e+05 
        </DataArray>
      </PointData>
    </Piece>
    <Piece NumberOfPoints="4" NumberOfCells="3">
      <Points>
        <DataArray type="Float64" NumberOfComponents="3" format="ascii">
          4.98276278e-02 -3.54015976e-02 0.00000000e+00 
4.60115410e-02 -3.42054628e-02 0.00000000e+00 
4.22164090e-02 -3.29444520e-02 0.00000000e+00 
3.84457745e-02 -3.16120051e-02 0.00000000e+00 

        </DataArray>
      </Points>
      <Cells>
        <DataArray type="Int32" Name="connectivity" format="ascii">
0 1
1 2
2 3

        </DataArray>
        <DataArray type="Int32" Name="offsets" format="ascii">
2 4 6 
        </DataArray>
        <DataArray type="UInt8" Name="types" format="ascii">
3 3 3 
        </DataArray>
      </Cells>
      <PointData>
        <DataArray type="Float64" Name="rho">
          1.14821750e+00 1.16308172e+00 1.17916554e+00 1.19666041e+00 
        </DataArray>
        <DataArray type="Float64" Name="rhou">
          -1.91658733e-02 -3.32894169e-02 -5.22606621e-02 -7.49552352e-02 
        </DataArray>
        <DataArray type="Float64" Name="rhov">
          3.11095740e-02 4.77407322e-02 7.53309303e-02 1.15703908e-01 
        </DataArray>
        <DataArray type="Float64" Name="E">
          2.63517241e+05 2.67109082e+05 2.71000464e+05 2.75239619e+05 
        </DataArray>
      </PointData>
    </Piece>
    <Piece NumberOfPoints="4" NumberOfCells="3">
      <Points>
        <DataArray type="Float64" NumberOfComponents="3" format="ascii">
          3.84457745e-02 -3.16120051e-02 0.00000000e+00 
3.47041376e-02 -3.02002355e-02 0.00000000e+00 
3.09973080e-02 -2.86995135e-02 0.00000000e+00 
2.73328498e-02 -2.70981900e-02 0.00000000e+00 

        </DataArray>
      </Points>
      <Cells>
        <DataArray type="Int32" Name="connectivity" format="ascii">
0 1
1 2
2 3

        </DataArray>
        <DataArray type="Int32" Name="offsets" format="ascii">
2 4 6 
        </DataArray>
        <DataArray type="UInt8" Name="types" format="ascii">
3 3 3 
        </DataArray>
      </Cells>
      <PointData>
        <DataArray type="Float64" Name="rho">
          1.19666064e+00 1.21575605e+00 1.23664517e+00 1.25969940e+00 
        </DataArray>
        <DataArray type="Float64" Name="rhou">
          -7.59050660e-02 -1.00046540e-01 -1.28677705e-01 -1.54086084e-01 
        </DataArray>
        <DataArray type="Float64" Name="rhov">
          1.15623520e-01 1.71064967e-01 2.56828483e-01 3.76908449e-01 
        </DataArray>
        <DataArray type="Float64" Name="E">
          2.75239538e+05 2.79878332e+05 2.84961460e+05 2.90583001e+05 
        </DataArray>
      </PointData>
    </Piece>
    <Piece NumberOfPoints="4" NumberOfCells="3">
      <Points>
        <DataArray type="Float64" NumberOfComponents="3" format="ascii">
          2.73328498e-02 -2.70981900e-02 0.00000000e+00 
2.37206947e-02 -2.53822580e-02 0.00000000e+00 
2.01744195e-02 -2.35341713e-02 0.00000000e+00 
1.67132635e-02 -2.15314496e-02 0.00000000e+00 

        </DataArray>
      </Points>
      <Cells>
        <DataArray type="Int32" Name="connectivity" format="ascii">
0 1
1 2
2 3

        </DataArray>
        <DataArray type="Int32" Name="offsets" format="ascii">
2 4 6 
        </DataArray>
        <DataArray type="UInt8" Name="types" format="ascii">
3 3 3 
        </DataArray>
      </Cells>
      <PointData>
        <DataArray type="Float64" Name="rho">
          1.25970426e+00 1.28526342e+00 1.31378292e+00 1.34660889e+00 
        </DataArray>
        <DataArray type="Float64" Name="rhou">
          -1.54466249e-01 -1.68583889e-01 -1.53007398e-01 -5.72378860e-02 
        </DataArray>
        <DataArray type="Float64" Name="rhov">
          3.77582605e-01 5.29189539e-01 7.39564845e-01 9.57607277e-01 
        </DataArray>
        <DataArray type="Float64" Name="E">
          2.90583899e+05 2.96838398e+05 3.03830036e+05 3.11887433e+05 
        </DataArray>
      </PointData>
    </Piece>
    <Piece NumberOfPoints="4" NumberOfCells="3">
      <Points>
        <DataArray type="Float64" NumberOfComponents="3" format="ascii">
          1.67132635e-02 -2.15314496e-02 0.00000000e+00 
1.33649679e-02 -1.93456318e-02 0.00000000e+00 
1.01706637e-02 -1.69409402e-02 0.00000000e+00 
7.19343964e-03 -1.42731192e-02 0.00000000e+00 

        </DataArray>
      </Points>
      <Cells>
        <DataArray type="Int32" Name="connectivity" format="ascii">
0 1
1 2
2 3

        </DataArray>
        <DataArray type="Int32" Name="offsets" format="ascii">
2 4 6 
        </DataArray>
        <DataArray type="UInt8" Name="types" format="ascii">
3 3 3 
        </DataArray>
      </Cells>
      <PointData>
        <DataArray type="Float64" Name="rho">
          1.34650317e+00 1.38637021e+00 1.43360936e+00 1.49871638e+00 
        </DataArray>
        <DataArray type="Float64" Name="rhou">
          -3.46936914e-02 1.13409640e-01 4.54143383e-01 8.73900125e-01 
        </DataArray>
        <DataArray type="Float64" Name="rhov">
          9.19400304e-01 1.12214176e+00 1.06734788e+00 5.17934876e-01 
        </DataArray>
        <DataArray type="Float64" Name="E">
          3.11863270e+05 3.21652048e+05 3.33243828e+05 3.49105083e+05 
        </DataArray>
      </PointData>
    </Piece>
    <Piece NumberOfPoints="4" NumberOfCells="3">
      <Points>
        <DataArray type="Float64" NumberOfComponents="3" format="ascii">
          7.19343964e-03 -1.42731192e-02 0.00000000e+00 
4.53082798e-03 -1.12927537e-02 0.00000000e+00 
2.33371323e-03 -7.95678515e-03 0.00000000e+00 
8.10639584e-04 -4.26717056e-03 0.00000000e+00 

        </DataArray>
      </Points>
      <Cells>
        <DataArray type="Int32" Name="connectivity" format="ascii">
0 1
1 2
2 3

        </DataArray>
        <DataArray type="Int32" Name="offsets" format="ascii">
2 4 6 
        </DataArray>
        <DataArray type="UInt8" Name="types" format="ascii">
3 3 3 
        </DataArray>
      </Cells>
      <PointData>
        <DataArray type="Float64" Name="rho">
          1.49923548e+00 1.57367396e+00 1.66277972e+00 1.73150746e+00 
        </DataArray>
        <DataArray type="Float64" Name="rhou">
          7.98958978e-01 9.28741310e-01 2.57819181e-01 -1.27496751e+00 
        </DataArray>
        <DataArray type="Float64" Name="rhov">
          6.16597843e-01 -5.11085506e-01 -1.72798521e+00 -1.81580874e+00 
        </DataArray>
        <DataArray type="Float64" Name="E">
          3.49232271e+05 3.67402791e+05 3.89031533e+05 4.05736640e+05 
        </DataArray>
      </PointData>
    </Piece>
    <Piece NumberOfPoints="4" NumberOfCells="3">
      <Points>
        <DataArray type="Float64" NumberOfComponents="3" format="ascii">
          8.10639584e-04 -4.26717056e-03 0.00000000e+00 
1.91366620e-04 -3.27450951e-04 0.00000000e+00 
6.40850572e-04 3.63462302e-03 0.00000000e+00 
2.03182548e-03 7.37539819e-03 0.00000000e+00 

        </DataArray>
      </Points>
      <Cells>
        <DataArray type="Int32" Name="connectivity" format="ascii">
0 1
1 2
2 3

        </DataArray>
        <DataArray type="Int32" Name="offsets" format="ascii">
2 4 6 
        </DataArray>
        <DataArray type="UInt8" Name="types" format="ascii">
3 3 3 
        </DataArray>
      </Cells>
      <PointData>
        <DataArray type="Float64" Name="rho">
          1.72993182e+00 1.75489353e+00 1.70448375e+00 1.61203276e+00 
        </DataArray>
        <DataArray type="Float64" Name="rhou">
          -1.14943939e+00 -1.87778218e+00 -8.34261196e-01 7.51633393e-01 
        </DataArray>
        <DataArray type="Float64" Name="rhov">
          -1.97392134e+00 3.64446891e-01 1.88158830e+00 1.51379359e+00 
        </DataArray>
        <DataArray type="Float64" Name="E">
          4.05355150e+05 4.11330886e+05 3.99008689e+05 3.76430820e+05 
        </DataArray>
      </PointData>
    </Piece>
    <Piece NumberOfPoints="4" NumberOfCells="3">
      <Points>
        <DataArray type="Float64" NumberOfComponents="3" format="ascii">
          2.03182548e-03 7.37539819e-03 0.00000000e+00 
4.13410179e-03 1.07714310e-02 0.00000000e+00 
6.73249783e-03 1.38076087e-02 0.00000000e+00 
9.66598373e-03 1.65232457e-02 0.00000000e+00 

        </DataArray>
      </Points>
      <Cells>
        <DataArray type="Int32" Name="connectivity" format="ascii">
0 1
1 2
2 3

        </DataArray>
        <DataArray type="Int32" Name="offsets" format="ascii">
2 4 6 
        </DataArray>
        <DataArray type="UInt8" Name="types" format="ascii">
3 3 3 
        </DataArray>
      </Cells>
      <PointData>
        <DataArray type="Float64" Name="rho">
          1.61239538e+00 1.50526948e+00 1.41602911e+00 1.34907052e+00 
        </DataArray>
        <DataArray type="Float64" Name="rhou">
          7.23993009e-01 1.15407951e+00 8.38877885e-01 3.74496976e-01 
        </DataArray>
        <DataArray type="Float64" Name="rhov">
          1.74848500e+00 6.18940285e-02 -1.07445156e+00 -1.39864438e+00 
        </DataArray>
        <DataArray type="Float64" Name="E">
          3.76522045e+05 3.50517948e+05 3.28818619e+05 3.12456289e+05 
        </DataArray>
      </PointData>
    </Piece>
    <Piece NumberOfPoints="4" NumberOfCells="3">
      <Points>
        <DataArray type="Float64" NumberOfComponents="3" format="ascii">
          9.66598373e-03 1.65232457e-02 0.00000000e+00 
1.28298048e-02 1.89677756e-02 0.00000000e+00 
1.61561389e-02 2.11867876e-02 0.00000000e+00 
1.96009967e-02 2.32173651e-02 0.00000000e+00 

        </DataArray>
      </Points>
      <Cells>
        <DataArray type="Int32" Name="connectivity" format="ascii">
0 1
1 2
2 3

        </DataArray>
        <DataArray type="Int32" Name="offsets" format="ascii">
2 4 6 
        </DataArray>
        <DataArray type="UInt8" Name="types" format="ascii">
3 3 3 
        </DataArray>
      </Cells>
      <PointData>
        <DataArray type="Float64" Name="rho">
          1.34886517e+00 1.29639259e+00 1.25741448e+00 1.22310162e+00 
        </DataArray>
        <DataArray type="Float64" Name="rhou">
          3.84077027e-01 -1.71675377e-02 -1.98420741e-01 -2.18823185e-01 
        </DataArray>
        <DataArray type="Float64" Name="rhov">
          -1.42322894e+00 -1.31842380e+00 -9.88566410e-01 -6.63483360e-01 
        </DataArray>
        <DataArray type="Float64" Name="E">
          3.12404120e+05 2.99582596e+05 2.90008873e+05 2.81607162e+05 
        </DataArray>
      </PointData>
    </Piece>
    <Piece NumberOfPoints="4" NumberOfCells="3">
      <Points>
        <DataArray type="Float64" NumberOfComponents="3" format="ascii">
          1.96009967e-02 2.32173651e-02 0.00000000e+00 
2.31348258e-02 2.50891000e-02 0.00000000e+00 
2.67372411e-02 2.68253610e-02 0.00000000e+00 
3.03938854e-02 2.84444261e-02 0.00000000e+00 

        </DataArray>
      </Points>
      <Cells>
        <DataArray type="Int32" Name="connectivity" format="ascii">
0 1
1 2
2 3

        </DataArray>
        <DataArray type="Int32" Name="offsets" format="ascii">
2 4 6 
        </DataArray>
        <DataArray type="UInt8" Name="types" format="ascii">
3 3 3 
        </DataArray>
      </Cells>
      <PointData>
        <DataArray type="Float64" Name="rho">
          1.22316531e+00 1.19404049e+00 1.16799269e+00 1.14440339e+00 
        </DataArray>
        <DataArray type="Float64" Name="rhou">
          -2.31932956e-01 -2.18377843e-01 -1.73148968e-01 -1.30925842e-01 
        </DataArray>
        <DataArray type="Float64" Name="rhov">
          -6.81702454e-01 -4.30964367e-01 -2.44628320e-01 -1.32055390e-01 
        </DataArray>
        <DataArray type="Float64" Name="E">
          2.81622064e+05 2.74510193e+05 2.68172649e+05 2.62450351e+05 
        </DataArray>
      </PointData>
    </Piece>
    <Piece NumberOfPoints="4" NumberOfCells="3">
      <Points>
        <DataArray type="Float64" NumberOfComponents="3" format="ascii">
          3.03938854e-02 2.84444261e-02 0.00000000e+00 
3.40943485e-02 2.99607720e-02 0.00000000e+00 
3.78307216e-02 3.13864015e-02 0.00000000e+00 
4.15969416e-02 3.27312648e-02 0.00000000e+00 

        </DataArray>
      </Points>
      <Cells>
        <DataArray type="Int32" Name="connectivity" format="ascii">
0 1
1 2
2 3

        </DataArray>
        <DataArray type="Int32" Name="offsets" format="ascii">
2 4 6 
        </DataArray>
        <DataArray type="UInt8" Name="types" format="ascii">
3 3 3 
        </DataArray>
      </Cells>
      <PointData>
        <DataArray type="Float64" Name="rho">
          1.14440166e+00 1.12305771e+00 1.10367075e+00 1.08599767e+00 
        </DataArray>
        <DataArray type="Float64" Name="rhou">
          -1.29137014e-01 -8.90300475e-02 -5.62730610e-02 -3.33299286e-02 
        </DataArray>
        <DataArray type="Float64" Name="rhov">
          -1.30605845e-01 -5.45610713e-02 -7.54475958e-03 1.78093869e-02 
        </DataArray>
        <DataArray type="Float64" Name="E">
          2.62450200e+05 2.57291249e+05 2.52616630e+05 2.48363089e+05 
        </DataArray>
      </PointData>
    </Piece>
    <Piece NumberOfPoints="4" NumberOfCells="3">
      <Points>
        <DataArray type="Float64" NumberOfComponents="3" format="ascii">
          4.15969416e-02 3.27312648e-02 0.00000000e+00 
4.53883260e-02 3.40034962e-02 0.00000000e+00 
4.92011942e-02 3.52098532e-02 0.00000000e+00 
5.30325845e-02 3.63560505e-02 0.00000000e+00 

        </DataArray>
      </Points>
      <Cells>
        <DataArray type="Int32" Name="connectivity" format="ascii">
0 1
1 2
2 3

        </DataArray>
        <DataArray type="Int32" Name="offsets" format="ascii">
2 4 6 
        </DataArray>
        <DataArray type="UInt8" Name="types" format="ascii">
3 3 3 
        </DataArray>
      </Cells>
      <PointData>
        <DataArray type="Float64" Name="rho">
          1.08599823e+00 1.06985003e+00 1.05503827e+00 1.04140422e+00 
        </DataArray>
        <DataArray type="Float64" Name="rhou">
          -3.21943043e-02 -1.27837411e-02 1.63561896e-03 1.10034212e-02 
        </DataArray>
        <DataArray type="Float64" Name="rhov">
          1.77138745e-02 3.13777109e-02 3.80220746e-02 3.91705263e-02 
        </DataArray>
        <DataArray type="Float64" Name="E">
          2.48363299e+05 2.44485309e+05 2.40933812e+05 2.37668864e+05 
        </DataArray>
      </PointData>
    </Piece>
    <Piece NumberOfPoints="4" NumberOfCells="3">
      <Points>
        <DataArray type="Float64" NumberOfComponents="3" format="ascii">
          5.30325845e-02 3.63560505e-02 0.00000000e+00 
5.68800643e-02 3.74470428e-02 0.00000000e+00 
6.07415959e-02 3.84872220e-02 0.00000000e+00 
6.46155030e-02 3.94803248e-02 0.00000000e+00 

        </DataArray>
      </Points>
      <Cells>
        <DataArray type="Int32" Name="connectivity" format="ascii">
0 1
1 2
2 3

        </DataArray>
        <DataArray type="Int32" Name="offsets" format="ascii">
2 4 6 
        </DataArray>
        <DataArray type="UInt8" Name="types" format="ascii">
3 3 3 
        </DataArray>
      </Cells>
      <PointData>
        <DataArray type="Float64" Name="rho">
          1.04140491e+00 1.02886045e+00 1.01727325e+00 1.00650266e+00 
        </DataArray>
        <DataArray type="Float64" Name="rhou">
          1.13185802e-02 1.83010798e-02 2.38311556e-02 2.76550866e-02 
        </DataArray>
        <DataArray type="Float64" Name="rhov">
          3.88434250e-02 3.71746582e-02 3.51168145e-02 3.18880232e-02 
        </DataArray>
        <DataArray type="Float64" Name="E">
          2.37669021e+05 2.34669228e+05 2.31901178e+05 2.29330756e+05 
        </DataArray>
      </PointData>
    </Piece>
    <Piece NumberOfPoints="4" NumberOfCells="3">
      <Points>
        <DataArray type="Float64" NumberOfComponents="3" format="ascii">
          6.46155030e-02 3.94803248e-02 0.00000000e+00 
6.85004294e-02 4.04294394e-02 0.00000000e+00 
7.23951608e-02 4.13374715e-02 0.00000000e+00 
7.62986317e-02 4.22072113e-02 0.00000000e+00 

        </DataArray>
      </Points>
      <Cells>
        <DataArray type="Int32" Name="connectivity" format="ascii">
0 1
1 2
2 3

        </DataArray>
        <DataArray type="Int32" Name="offsets" format="ascii">
2 4 6 
        </DataArray>
        <DataArray type="UInt8" Name="types" format="ascii">
3 3 3 
        </DataArray>
      </Cells>
      <PointData>
        <DataArray type="Float64" Name="rho">
          1.00650337e+00 9.96508044e-01 9.87198462e-01 9.78519143e-01 
        </DataArray>
        <DataArray type="Float64" Name="rhou">
          2.74744560e-02 2.94138232e-02 3.05081958e-02 3.05981553e-02 
        </DataArray>
        <DataArray type="Float64" Name="rhov">
          3.15896545e-02 2.76846704e-02 2.43078499e-02 2.09994722e-02 
        </DataArray>
        <DataArray type="Float64" Name="E">
          2.29330902e+05 2.26948108e+05 2.24730630e+05 2.22664567e+05 
        </DataArray>
      </PointData>
    </Piece>
    <Piece NumberOfPoints="4" NumberOfCells="3">
      <Points>
        <DataArray type="Float64" NumberOfComponents="3" format="ascii">
          7.62986317e-02 4.22072113e-02 0.00000000e+00 
8.02098960e-02 4.30411920e-02 0.00000000e+00 
8.41281936e-02 4.38414887e-02 0.00000000e+00 
8.80528912e-02 4.46097627e-02 0.00000000e+00 

        </DataArray>
      </Points>
      <Cells>
        <DataArray type="Int32" Name="connectivity" format="ascii">
0 1
1 2
2 3

        </DataArray>
        <DataArray type="Int32" Name="offsets" format="ascii">
2 4 6 
        </DataArray>
        <DataArray type="UInt8" Name="types" format="ascii">
3 3 3 
        </DataArray>
      </Cells>
      <PointData>
        <DataArray type="Float64" Name="rho">
          9.78518198e-01 9.70422933e-01 9.62816883e-01 9.55654302e-01 
        </DataArray>
        <DataArray type="Float64" Name="rhou">
          3.04508113e-02 3.04741181e-02 3.01985194e-02 2.91347474e-02 
        </DataArray>
        <DataArray type="Float64" Name="rhov">
          2.08362780e-02 1.82766467e-02 1.57681532e-02 1.30891180e-02 
        </DataArray>
        <DataArray type="Float64" Name="E">
          2.22664331e+05 2.20738799e+05 2.18930913e+05 2.17229590e+05 
        </DataArray>
      </PointData>
    </Piece>
    <Piece NumberOfPoints="4" NumberOfCells="3">
      <Points>
        <DataArray type="Float64" NumberOfComponents="3" format="ascii">
          8.80528912e-02 4.46097627e-02 0.00000000e+00 
9.19835642e-02 4.53475714e-02 0.00000000e+00 
9.59195644e-02 4.60564308e-02 0.00000000e+00 
9.98597518e-02 4.67394181e-02 0.00000000e+00 

        </DataArray>
      </Points>
      <Cells>
        <DataArray type="Int32" Name="connectivity" format="ascii">
0 1
1 2
2 3

        </DataArray>
        <DataArray type="Int32" Name="offsets" format="ascii">
2 4 6 
        </DataArray>
        <DataArray type="UInt8" Name="types" format="ascii">
3 3 3 
        </DataArray>
      </Cells>
      <PointData>
        <DataArray type="Float64" Name="rho">
          9.55654810e-01 9.48925687e-01 9.42617407e-01 9.36630247e-01 
        </DataArray>
        <DataArray type="Float64" Name="rhou">
          2.89426036e-02 2.75198985e-02 2.40545443e-02 2.85617641e-02 
        </DataArray>
        <DataArray type="Float64" Name="rhov">
          1.32519054e-02 1.06791312e-02 9.09810594e-03 8.60050541e-03 
        </DataArray>
        <DataArray type="Float64" Name="E">
          2.17229708e+05 2.15632571e+05 2.14135764e+05 2.12716195e+05 
        </DataArray>
      </PointData>
    </Piece>
    <Piece NumberOfPoints="4" NumberOfCells="3">
      <Points>
        <DataArray type="Float64" NumberOfComponents="3" format="ascii">
          9.98597518e-02 4.67394181e-02 0.00000000e+00 
1.10118888e-01 4.83862534e-02 0.00000000e+00 
1.20400399e-01 4.98730615e-02 0.00000000e+00 
1.30701363e-01 5.12186773e-02 0.00000000e+00 

        </DataArray>
      </Points>
      <Cells>
        <DataArray type="Int32" Name="connectivity" format="ascii">
0 1
1 2
2 3

        </DataArray>
        <DataArray type="Int32" Name="offsets" format="ascii">
2 4 6 
        </DataArray>
        <DataArray type="UInt8" Name="types" format="ascii">
3 3 3 
        </DataArray>
      </Cells>
      <PointData>
        <DataArray type="Float64" Name="rho">
          9.36557675e-01 9.22593441e-01 9.10547593e-01 9.00193743e-01 
        </DataArray>
        <DataArray type="Float64" Name="rhou">
          2.62951897e-02 1.81327754e-02 1.60056326e-02 1.25461387e-02 
        </DataArray>
        <DataArray type="Float64" Name="rhov">
          7.36856522e-03 4.14614633e-03 3.63911512e-03 2.97014228e-03 
        </DataArray>
        <DataArray type="Float64" Name="E">
          2.12699805e+05 2.09392806e+05 2.06543614e+05 2.04097285e+05 
        </DataArray>
      </PointData>
    </Piece>
    <Piece NumberOfPoints="4" NumberOfCells="3">
      <Points>
        <DataArray type="Float64" NumberOfComponents="3" format="ascii">
          1.30701363e-01 5.12186773e-02 0.00000000e+00 
1.41019106e-01 5.24347536e-02 0.00000000e+00 
1.51350453e-01 5.35292812e-02 0.00000000e+00 
1.61692888e-01 5.45137413e-02 0.00000000e+00 

        </DataArray>
      </Points>
      <Cells>
        <DataArray type="Int32" Name="connectivity" format="ascii">
0 1
1 2
2 3

        </DataArray>
        <DataArray type="Int32" Name="offsets" format="ascii">
2 4 6 
        </DataArray>
        <DataArray type="UInt8" Name="types" format="ascii">
3 3 3 
        </DataArray>
      </Cells>
      <PointData>
        <DataArray type="Float64" Name="rho">
          9.00190257e-01 8.91101872e-01 8.83254497e-01 8.76539911e-01 
        </DataArray>
        <DataArray type="Float64" Name="rhou">
          1.39247072e-02 1.20301642e-02 9.95840598e-03 8.69444434e-03 
        </DataArray>
        <DataArray type="Float64" Name="rhov">
          3.46808064e-03 2.54539059e-03 1.77100081e-03 1.59620932e-03 
        </DataArray>
        <DataArray type="Float64" Name="E">
          2.04096449e+05 2.01952509e+05 2.00103765e+05 1.98523625e+05 
        </DataArray>
      </PointData>
    </Piece>
    <Piece NumberOfPoints="4" NumberOfCells="3">
      <Points>
        <DataArray type="Float64" NumberOfComponents="3" format="ascii">
          1.61692888e-01 5.45137413e-02 0.00000000e+00 
1.72044471e-01 5.53969070e-02 0.00000000e+00 
1.82403773e-01 5.61845005e-02 0.00000000e+00 
1.92769483e-01 5.68825118e-02 0.00000000e+00 

        </DataArray>
      </Points>
      <Cells>
        <DataArray type="Int32" Name="connectivity" format="ascii">
0 1
1 2
2 3

        </DataArray>
        <DataArray type="Int32" Name="offsets" format="ascii">
2 4 6 
        </DataArray>
        <DataArray type="UInt8" Name="types" format="ascii">
3 3 3 
        </DataArray>
      </Cells>
      <PointData>
        <DataArray type="Float64" Name="rho">
          8.76537510e-01 8.70760811e-01 8.65831460e-01 8.61696846e-01 
        </DataArray>
        <DataArray type="Float64" Name="rhou">
          8.73108215e-03 7.60120481e-03 6.56814650e-03 5.66677561e-03 
        </DataArray>
        <DataArray type="Float64" Name="rhov">
          1.64768487e-03 1.28456164e-03 9.07706563e-04 6.79906173e-04 
        </DataArray>
        <DataArray type="Float64" Name="E">
          1.98523086e+05 1.97165624e+05 1.96009322e+05 1.95041238e+05 
        </DataArray>
      </PointData>
    </Piece>
    <Piece NumberOfPoints="4" NumberOfCells="3">
      <Points>
        <DataArray type="Float64" NumberOfComponents="3" format="ascii">
          1.92769483e-01 5.68825118e-02 0.00000000e+00 
2.03140482e-01 5.74972220e-02 0.00000000e+00 
2.13515818e-01 5.80338500e-02 0.00000000e+00 
2.23894730e-01 5.84962890e-02 0.00000000e+00 

        </DataArray>
      </Points>
      <Cells>
        <DataArray type="Int32" Name="connectivity" format="ascii">
0 1
1 2
2 3

        </DataArray>
        <DataArray type="Int32" Name="offsets" format="ascii">
2 4 6 
        </DataArray>
        <DataArray type="UInt8" Name="types" format="ascii">
3 3 3 
        </DataArray>
      </Cells>
      <PointData>
        <DataArray type="Float64" Name="rho">
          8.61696158e-01 8.58276602e-01 8.55488126e-01 8.53272415e-01 
        </DataArray>
        <DataArray type="Float64" Name="rhou">
          5.70336205e-03 4.98293166e-03 4.42742721e-03 3.96773352e-03 
        </DataArray>
        <DataArray type="Float64" Name="rhov">
          7.21141729e-04 6.32008507e-04 5.17039047e-04 3.94764271e-04 
        </DataArray>
        <DataArray type="Float64" Name="E">
          1.95041080e+05 1.94242118e+05 1.93592523e+05 1.93078416e+05 
        </DataArray>
      </PointData>
    </Piece>
    <Piece NumberOfPoints="4" NumberOfCells="3">
      <Points>
        <DataArray type="Float64" NumberOfComponents="3" format="ascii">
          2.23894730e-01 5.84962890e-02 0.00000000e+00 
2.34276548e-01 5.88882305e-02 0.00000000e+00 
2.44660646e-01 5.92139624e-02 0.00000000e+00 
2.55046517e-01 5.94772622e-02 0.00000000e+00 

        </DataArray>
      </Points>
      <Cells>
        <DataArray type="Int32" Name="connectivity" format="ascii">
0 1
1 2
2 3

        </DataArray>
        <DataArray type="Int32" Name="offsets" format="ascii">
2 4 6 
        </DataArray>
        <DataArray type="UInt8" Name="types" format="ascii">
3 3 3 
        </DataArray>
      </Cells>
      <PointData>
        <DataArray type="Float64" Name="rho">
          8.53272984e-01 8.51587721e-01 8.50388340e-01 8.49619391e-01 
        </DataArray>
        <DataArray type="Float64" Name="rhou">
          3.97537558e-03 3.45523338e-03 3.07803996e-03 2.84917847e-03 
        </DataArray>
        <DataArray type="Float64" Name="rhov">
          4.09091316e-04 3.31525476e-04 3.14500366e-04 3.13188865e-04 
        </DataArray>
        <DataArray type="Float64" Name="E">
          1.93078545e+05 1.92689718e+05 1.92415536e+05 1.92242931e+05 
        </DataArray>
      </PointData>
    </Piece>
    <Piece NumberOfPoints="4" NumberOfCells="3">
      <Points>
        <DataArray type="Float64" NumberOfComponents="3" format="ascii">
          2.55046517e-01 5.94772622e-02 0.00000000e+00 
2.65433758e-01 5.96804135e-02 0.00000000e+00 
2.75821954e-01 5.98256700e-02 0.00000000e+00 
2.86210775e-01 5.99167012e-02 0.00000000e+00 

        </DataArray>
      </Points>
      <Cells>
        <DataArray type="Int32" Name="connectivity" format="ascii">
0 1
1 2
2 3

        </DataArray>
        <DataArray type="Int32" Name="offsets" format="ascii">
2 4 6 
        </DataArray>
        <DataArray type="UInt8" Name="types" format="ascii">
3 3 3 
        </DataArray>
      </Cells>
      <PointData>
        <DataArray type="Float64" Name="rho">
          8.49619403e-01 8.49232502e-01 8.49202817e-01 8.49509787e-01 
        </DataArray>
        <DataArray type="Float64" Name="rhou">
          2.84349737e-03 2.55769425e-03 2.26498996e-03 2.00263396e-03 
        </DataArray>
        <DataArray type="Float64" Name="rhov">
          3.24438746e-04 2.29470865e-04 1.71525157e-04 2.05172897e-04 
        </DataArray>
        <DataArray type="Float64" Name="E">
          1.92242937e+05 1.92160527e+05 1.92162356e+05 1.92243362e+05 
        </DataArray>
      </PointData>
    </Piece>
    <Piece NumberOfPoints="4" NumberOfCells="3">
      <Points>
        <DataArray type="Float64" NumberOfComponents="3" format="ascii">
          2.86210775e-01 5.99167012e-02 0.00000000e+00 
2.96599895e-01 5.99572174e-02 0.00000000e+00 
3.06989133e-01 5.99487796e-02 0.00000000e+00 
3.17378193e-01 5.98919280e-02 0.00000000e+00 

        </DataArray>
      </Points>
      <Cells>
        <DataArray type="Int32" Name="connectivity" format="ascii">
0 1
1 2
2 3

        </DataArray>
        <DataArray type="Int32" Name="offsets" format="ascii">
2 4 6 
        </DataArray>
        <DataArray type="UInt8" Name="types" format="ascii">
3 3 3 
        </DataArray>
      </Cells>
      <PointData>
        <DataArray type="Float64" Name="rho">
          8.49508770e-01 8.50103206e-01 8.50938235e-01 8.51998604e-01 
        </DataArray>
        <DataArray type="Float64" Name="rhou">
          2.02142300e-03 1.90651341e-03 1.78077395e-03 1.60003586e-03 
        </DataArray>
        <DataArray type="Float64" Name="rhov">
          2.21456589e-04 2.48426292e-04 1.94423084e-04 1.20476799e-04 
        </DataArray>
        <DataArray type="Float64" Name="E">
          1.92243131e+05 1.92391762e+05 1.92597170e+05 1.92855684e+05 
        </DataArray>
      </PointData>
    </Piece>
    <Piece NumberOfPoints="4" NumberOfCells="3">
      <Points>
        <DataArray type="Float64" NumberOfComponents="3" format="ascii">
          3.17378193e-01 5.98919280e-02 0.00000000e+00 
3.27766895e-01 5.97884916e-02 0.00000000e+00 
3.38155061e-01 5.96415885e-02 0.00000000e+00 
3.48542601e-01 5.94538599e-02 0.00000000e+00 

        </DataArray>
      </Points>
      <Cells>
        <DataArray type="Int32" Name="connectivity" format="ascii">
0 1
1 2
2 3

        </DataArray>
        <DataArray type="Int32" Name="offsets" format="ascii">
2 4 6 
        </DataArray>
        <DataArray type="UInt8" Name="types" format="ascii">
3 3 3 
        </DataArray>
      </Cells>
      <PointData>
        <DataArray type="Float64" Name="rho">
          8.51998949e-01 8.53271739e-01 8.54736583e-01 8.56360551e-01 
        </DataArray>
        <DataArray type="Float64" Name="rhou">
          1.62931764e-03 1.43450238e-03 1.31844404e-03 1.27219715e-03 
        </DataArray>
        <DataArray type="Float64" Name="rhov">
          1.28102544e-04 1.16734813e-04 1.42127413e-04 1.62507645e-04 
        </DataArray>
        <DataArray type="Float64" Name="E">
          1.92855761e+05 1.93164216e+05 1.93517753e+05 1.93908680e+05 
        </DataArray>
      </PointData>
    </Piece>
    <Piece NumberOfPoints="4" NumberOfCells="3">
      <Points>
        <DataArray type="Float64" NumberOfComponents="3" format="ascii">
          3.48542601e-01 5.94538599e-02 0.00000000e+00 
3.58929336e-01 5.92265576e-02 0.00000000e+00 
3.69315147e-01 5.89610897e-02 0.00000000e+00 
3.79699975e-01 5.86590059e-02 0.00000000e+00 

        </DataArray>
      </Points>
      <Cells>
        <DataArray type="Int32" Name="connectivity" format="ascii">
0 1
1 2
2 3

        </DataArray>
        <DataArray type="Int32" Name="offsets" format="ascii">
2 4 6 
        </DataArray>
        <DataArray type="UInt8" Name="types" format="ascii">
3 3 3 
        </DataArray>
      </Cells>
      <PointData>
        <DataArray type="Float64" Name="rho">
          8.56360796e-01 8.58118314e-01 8.59999519e-01 8.61984433e-01 
        </DataArray>
        <DataArray type="Float64" Name="rhou">
          1.28440295e-03 1.16129671e-03 1.06816675e-03 1.02036075e-03 
        </DataArray>
        <DataArray type="Float64" Name="rhov">
          1.59446216e-04 1.23487571e-04 1.15935224e-04 1.14221165e-04 
        </DataArray>
        <DataArray type="Float64" Name="E">
          1.93908737e+05 1.94331072e+05 1.94782424e+05 1.95258117e+05 
        </DataArray>
      </PointData>
    </Piece>
    <Piece NumberOfPoints="4" NumberOfCells="3">
      <Points>
        <DataArray type="Float64" NumberOfComponents="3" format="ascii">
          3.79699975e-01 5.86590059e-02 0.00000000e+00 
3.90083700e-01 5.83211333e-02 0.00000000e+00 
4.00466233e-01 5.79482466e-02 0.00000000e+00 
4.10847515e-01 5.75418957e-02 0.00000000e+00 

        </DataArray>
      </Points>
      <Cells>
        <DataArray type="Int32" Name="connectivity" format="ascii">
0 1
1 2
2 3

        </DataArray>
        <DataArray type="Int32" Name="offsets" format="ascii">
2 4 6 
        </DataArray>
        <DataArray type="UInt8" Name="types" format="ascii">
3 3 3 
        </DataArray>
      </Cells>
      <PointData>
        <DataArray type="Float64" Name="rho">
          8.61984445e-01 8.64056094e-01 8.66204421e-01 8.68422720e-01 
        </DataArray>
        <DataArray type="Float64" Name="rhou">
          1.01270610e-03 9.48954911e-04 8.70878863e-04 7.95594344e-04 
        </DataArray>
        <DataArray type="Float64" Name="rhov">
          1.16647721e-04 8.63891435e-05 6.35888989e-05 6.87482450e-05 
        </DataArray>
        <DataArray type="Float64" Name="E">
          1.95258121e+05 1.95754181e+05 1.96268226e+05 1.96798619e+05 
        </DataArray>
      </PointData>
    </Piece>
    <Piece NumberOfPoints="4" NumberOfCells="3">
      <Points>
        <DataArray type="Float64" NumberOfComponents="3" format="ascii">
          4.10847515e-01 5.75418957e-02 0.00000000e+00 
4.21227485e-01 5.71038015e-02 0.00000000e+00 
4.31606144e-01 5.66351078e-02 0.00000000e+00 
4.41983402e-01 5.61364293e-02 0.00000000e+00 

        </DataArray>
      </Points>
      <Cells>
        <DataArray type="Int32" Name="connectivity" format="ascii">
0 1
1 2
2 3

        </DataArray>
        <DataArray type="Int32" Name="offsets" format="ascii">
2 4 6 
        </DataArray>
        <DataArray type="UInt8" Name="types" format="ascii">
3 3 3 
        </DataArray>
      </Cells>
      <PointData>
        <DataArray type="Float64" Name="rho">
          8.68422521e-01 8.70695134e-01 8.73010338e-01 8.75358393e-01 
        </DataArray>
        <DataArray type="Float64" Name="rhou">
          8.11999131e-04 7.60846989e-04 7.22113713e-04 6.85348734e-04 
        </DataArray>
        <DataArray type="Float64" Name="rhov">
          7.21619037e-05 7.20879010e-05 6.24023697e-05 4.14331302e-05 
        </DataArray>
        <DataArray type="Float64" Name="E">
          1.96798574e+05 1.97341654e+05 1.97894681e+05 1.98455370e+05 
        </DataArray>
      </PointData>
    </Piece>
    <Piece NumberOfPoints="4" NumberOfCells="3">
      <Points>
        <DataArray type="Float64" NumberOfComponents="3" format="ascii">
          4.41983402e-01 5.61364293e-02 0.00000000e+00 
4.52359200e-01 5.56085743e-02 0.00000000e+00 
4.62733537e-01 5.50529286e-02 0.00000000e+00 
4.73106444e-01 5.44707514e-02 0.00000000e+00 

        </DataArray>
      </Points>
      <Cells>
        <DataArray type="Int32" Name="connectivity" format="ascii">
0 1
1 2
2 3

        </DataArray>
        <DataArray type="Int32" Name="offsets" format="ascii">
2 4 6 
        </DataArray>
        <DataArray type="UInt8" Name="types" format="ascii">
3 3 3 
        </DataArray>
      </Cells>
      <PointData>
        <DataArray type="Float64" Name="rho">
          8.75358534e-01 8.77734899e-01 8.80133051e-01 8.82544484e-01 
        </DataArray>
        <DataArray type="Float64" Name="rhou">
          6.82362445e-04 6.27022367e-04 5.87421719e-04 5.64189274e-04 
        </DataArray>
        <DataArray type="Float64" Name="rhov">
          4.20844080e-05 3.45829934e-05 3.48926317e-05 3.49720167e-05 
        </DataArray>
        <DataArray type="Float64" Name="E">
          1.98455402e+05 1.99022652e+05 1.99594916e+05 2.00170203e+05 
        </DataArray>
      </PointData>
    </Piece>
    <Piece NumberOfPoints="4" NumberOfCells="3">
      <Points>
        <DataArray type="Float64" NumberOfComponents="3" format="ascii">
          4.73106444e-01 5.44707514e-02 0.00000000e+00 
4.83477861e-01 5.38627952e-02 0.00000000e+00 
4.93847787e-01 5.32294959e-02 0.00000000e+00 
5.04216135e-01 5.25716618e-02 0.00000000e+00 

        </DataArray>
      </Points>
      <Cells>
        <DataArray type="Int32" Name="connectivity" format="ascii">
0 1
1 2
2 3

        </DataArray>
        <DataArray type="Int32" Name="offsets" format="ascii">
2 4 6 
        </DataArray>
        <DataArray type="UInt8" Name="types" format="ascii">
3 3 3 
        </DataArray>
      </Cells>
      <PointData>
        <DataArray type="Float64" Name="rho">
          8.82544470e-01 8.84962297e-01 8.87381111e-01 8.89799736e-01 
        </DataArray>
        <DataArray type="Float64" Name="rhou">
          5.56657275e-04 5.35917237e-04 5.01180003e-04 4.60017204e-04 
        </DataArray>
        <DataArray type="Float64" Name="rhov">
          3.67730944e-05 2.53901666e-05 1.06015681e-05 7.91298828e-06 
        </DataArray>
        <DataArray type="Float64" Name="E">
          2.00170201e+05 2.00746900e+05 2.01323745e+05 2.01900428e+05 
        </DataArray>
      </PointData>
    </Piece>
    <Piece NumberOfPoints="4" NumberOfCells="3">
      <Points>
        <DataArray type="Float64" NumberOfComponents="3" format="ascii">
          5.04216135e-01 5.25716618e-02 0.00000000e+00 
5.14582992e-01 5.18903993e-02 0.00000000e+00 
5.24948359e-01 5.11864908e-02 0.00000000e+00 
5.35312176e-01 5.04603274e-02 0.00000000e+00 

        </DataArray>
      </Points>
      <Cells>
        <DataArray type="Int32" Name="connectivity" format="ascii">
0 1
1 2
2 3

        </DataArray>
        <DataArray type="Int32" Name="offsets" format="ascii">
2 4 6 
        </DataArray>
        <DataArray type="UInt8" Name="types" format="ascii">
3 3 3 
        </DataArray>
      </Cells>
      <PointData>
        <DataArray type="Float64" Name="rho">
          8.89799651e-01 8.92212670e-01 8.94615614e-01 8.97005002e-01 
        </DataArray>
        <DataArray type="Float64" Name="rhou">
          4.68447527e-04 4.42688854e-04 4.23251851e-04 4.04202403e-04 
        </DataArray>
        <DataArray type="Float64" Name="rhov">
          1.00613296e-05 9.57370333e-06 4.12132217e-06 -7.63965739e-06 
        </DataArray>
        <DataArray type="Float64" Name="E">
          2.01900409e+05 2.02475662e+05 2.03048444e+05 2.03617939e+05 
        </DataArray>
      </PointData>
    </Piece>
    <Piece NumberOfPoints="4" NumberOfCells="3">
      <Points>
        <DataArray type="Float64" NumberOfComponents="3" format="ascii">
          5.35312176e-01 5.04603274e-02 0.00000000e+00 
5.45674443e-01 4.97124642e-02 0.00000000e+00 
5.56035221e-01 4.89437394e-02 0.00000000e+00 
5.66394389e-01 4.81546782e-02 0.00000000e+00 

        </DataArray>
      </Points>
      <Cells>
        <DataArray type="Int32" Name="connectivity" format="ascii">
0 1
1 2
2 3

        </DataArray>
        <DataArray type="Int32" Name="offsets" format="ascii">
2 4 6 
        </DataArray>
        <DataArray type="UInt8" Name="types" format="ascii">
3 3 3 
        </DataArray>
      </Cells>
      <PointData>
        <DataArray type="Float64" Name="rho">
          8.97005046e-01 8.99380178e-01 9.01738143e-01 9.04076093e-01 
        </DataArray>
        <DataArray type="Float64" Name="rhou">
          3.99993139e-04 3.74011595e-04 3.55929434e-04 3.44411098e-04 
        </DataArray>
        <DataArray type="Float64" Name="rhov">
          -7.34909650e-06 -8.17978433e-06 -9.01868898e-06 -1.32990754e-05 
        </DataArray>
        <DataArray type="Float64" Name="E">
          2.03617949e+05 2.04183976e+05 2.04745855e+05 2.05302924e+05 
        </DataArray>
      </PointData>
    </Piece>
    <Piece NumberOfPoints="4" NumberOfCells="3">
      <Points>
        <DataArray type="Float64" NumberOfComponents="3" format="ascii">
          5.66394389e-01 4.81546782e-02 0.00000000e+00 
5.76752067e-01 4.73455116e-02 0.00000000e+00 
5.87108195e-01 4.65166979e-02 0.00000000e+00 
5.97462773e-01 4.56690118e-02 0.00000000e+00 

        </DataArray>
      </Points>
      <Cells>
        <DataArray type="Int32" Name="connectivity" format="ascii">
0 1
1 2
2 3

        </DataArray>
        <DataArray type="Int32" Name="offsets" format="ascii">
2 4 6 
        </DataArray>
        <DataArray type="UInt8" Name="types" format="ascii">
3 3 3 
        </DataArray>
      </Cells>
      <PointData>
        <DataArray type="Float64" Name="rho">
          9.04076121e-01 9.06392382e-01 9.08686625e-01 9.10957961e-01 
        </DataArray>
        <DataArray type="Float64" Name="rhou">
          3.43729010e-04 3.23764028e-04 3.03133973e-04 2.87474814e-04 
        </DataArray>
        <DataArray type="Float64" Name="rhov">
          -1.29588542e-05 -2.15434220e-05 -2.51322771e-05 -2.40638138e-05 
        </DataArray>
        <DataArray type="Float64" Name="E">
          2.05302931e+05 2.05854798e+05 2.06401378e+05 2.06942458e+05 
        </DataArray>
      </PointData>
    </Piece>
    <Piece NumberOfPoints="4" NumberOfCells="3">
      <Points>
        <DataArray type="Float64" NumberOfComponents="3" format="ascii">
          5.97462773e-01 4.56690118e-02 0.00000000e+00 
6.07815862e-01 4.48031016e-02 0.00000000e+00 
6.18167400e-01 4.39192392e-02 0.00000000e+00 
6.28517449e-01 4.30175588e-02 0.00000000e+00 

        </DataArray>
      </Points>
      <Cells>
        <DataArray type="Int32" Name="connectivity" format="ascii">
0 1
1 2
2 3

        </DataArray>
        <DataArray type="Int32" Name="offsets" format="ascii">
2 4 6 
        </DataArray>
        <DataArray type="UInt8" Name="types" format="ascii">
3 3 3 
        </DataArray>
      </Cells>
      <PointData>
        <DataArray type="Float64" Name="rho">
          9.10957899e-01 9.13204473e-01 9.15424516e-01 9.17618194e-01 
        </DataArray>
        <DataArray type="Float64" Name="rhou">
          2.85572923e-04 2.77124065e-04 2.65451312e-04 2.48667655e-04 
        </DataArray>
        <DataArray type="Float64" Name="rhov">
          -2.31472688e-05 -2.37083732e-05 -2.93080584e-05 -3.46581868e-05 
        </DataArray>
        <DataArray type="Float64" Name="E">
          2.06942444e+05 2.07477595e+05 2.08006411e+05 2.08528926e+05 
        </DataArray>
      </PointData>
    </Piece>
    <Piece NumberOfPoints="4" NumberOfCells="3">
      <Points>
        <DataArray type="Float64" NumberOfComponents="3" format="ascii">
          6.28517449e-01 4.30175588e-02 0.00000000e+00 
6.38865948e-01 4.20984775e-02 0.00000000e+00 
6.49212897e-01 4.11624312e-02 0.00000000e+00 
6.59558356e-01 4.02097441e-02 0.00000000e+00 

        </DataArray>
      </Points>
      <Cells>
        <DataArray type="Int32" Name="connectivity" format="ascii">
0 1
1 2
2 3

        </DataArray>
        <DataArray type="Int32" Name="offsets" format="ascii">
2 4 6 
        </DataArray>
        <DataArray type="UInt8" Name="types" format="ascii">
3 3 3 
        </DataArray>
      </Cells>
      <PointData>
        <DataArray type="Float64" Name="rho">
          9.17618186e-01 9.19785327e-01 9.21925122e-01 9.24037281e-01 
        </DataArray>
        <DataArray type="Float64" Name="rhou">
          2.49621016e-04 2.37188112e-04 2.26569378e-04 2.15174644e-04 
        </DataArray>
        <DataArray type="Float64" Name="rhov">
          -3.36541089e-05 -3.44278868e-05 -3.63334096e-05 -3.86064680e-05 
        </DataArray>
        <DataArray type="Float64" Name="E">
          2.08528924e+05 2.09045097e+05 2.09554741e+05 2.10057791e+05 
        </DataArray>
      </PointData>
    </Piece>
    <Piece NumberOfPoints="4" NumberOfCells="3">
      <Points>
        <DataArray type="Float64" NumberOfComponents="3" format="ascii">
          6.59558356e-01 4.02097441e-02 0.00000000e+00 
6.69902325e-01 3.92407738e-02 0.00000000e+00 
6.80244744e-01 3.82556282e-02 0.00000000e+00 
6.90585554e-01 3.72543521e-02 0.00000000e+00 

        </DataArray>
      </Points>
      <Cells>
        <DataArray type="Int32" Name="connectivity" format="ascii">
0 1
1 2
2 3

        </DataArray>
        <DataArray type="Int32" Name="offsets" format="ascii">
2 4 6 
        </DataArray>
        <DataArray type="UInt8" Name="types" format="ascii">
3 3 3 
        </DataArray>
      </Cells>
      <PointData>
        <DataArray type="Float64" Name="rho">
          9.24037265e-01 9.26121808e-01 9.28177643e-01 9.30205572e-01 
        </DataArray>
        <DataArray type="Float64" Name="rhou">
          2.12030940e-04 2.07219262e-04 1.98892782e-04 1.84721880e-04 
        </DataArray>
        <DataArray type="Float64" Name="rhov">
          -3.75877221e-05 -3.76521171e-05 -4.21083470e-05 -4.57623727e-05 
        </DataArray>
        <DataArray type="Float64" Name="E">
          2.10057787e+05 2.10554247e+05 2.11043869e+05 2.11526839e+05 
        </DataArray>
      </PointData>
    </Piece>
    <Piece NumberOfPoints="4" NumberOfCells="3">
      <Points>
        <DataArray type="Float64" NumberOfComponents="3" format="ascii">
          6.90585554e-01 3.72543521e-02 0.00000000e+00 
7.00924933e-01 3.62373814e-02 0.00000000e+00 
7.11262703e-01 3.52048986e-02 0.00000000e+00 
7.21598923e-01 3.41568366e-02 0.00000000e+00 

        </DataArray>
      </Points>
      <Cells>
        <DataArray type="Int32" Name="connectivity" format="ascii">
0 1
1 2
2 3

        </DataArray>
        <DataArray type="Int32" Name="offsets" format="ascii">
2 4 6 
        </DataArray>
        <DataArray type="UInt8" Name="types" format="ascii">
3 3 3 
        </DataArray>
      </Cells>
      <PointData>
        <DataArray type="Float64" Name="rho">
          9.30205530e-01 9.32205980e-01 9.34177809e-01 9.36121681e-01 
        </DataArray>
        <DataArray type="Float64" Name="rhou">
          1.83375579e-04 1.78497579e-04 1.73457953e-04 1.60842991e-04 
        </DataArray>
        <DataArray type="Float64" Name="rhov">
          -4.46629496e-05 -4.22975478e-05 -4.56349052e-05 -5.03482993e-05 
        </DataArray>
        <DataArray type="Float64" Name="E">
          2.11526829e+05 2.12003243e+05 2.12472844e+05 2.12935786e+05 
        </DataArray>
      </PointData>
    </Piece>
    <Piece NumberOfPoints="4" NumberOfCells="3">
      <Points>
        <DataArray type="Float64" NumberOfComponents="3" format="ascii">
          7.21598923e-01 3.41568366e-02 0.00000000e+00 
7.31933594e-01 3.30936089e-02 0.00000000e+00 
7.42266715e-01 3.20154354e-02 0.00000000e+00 
7.52598286e-01 3.09220124e-02 0.00000000e+00 

        </DataArray>
      </Points>
      <Cells>
        <DataArray type="Int32" Name="connectivity" format="ascii">
0 1
1 2
2 3

        </DataArray>
        <DataArray type="Int32" Name="offsets" format="ascii">
2 4 6 
        </DataArray>
        <DataArray type="UInt8" Name="types" format="ascii">
3 3 3 
        </DataArray>
      </Cells>
      <PointData>
        <DataArray type="Float64" Name="rho">
          9.36121661e-01 9.38038612e-01 9.39927367e-01 9.41788474e-01 
        </DataArray>
        <DataArray type="Float64" Name="rhou">
          1.58268349e-04 1.54252103e-04 1.51451018e-04 1.41440040e-04 
        </DataArray>
        <DataArray type="Float64" Name="rhov">
          -4.93966809e-05 -4.50897751e-05 -4.73839191e-05 -5.24439177e-05 
        </DataArray>
        <DataArray type="Float64" Name="E">
          2.12935781e+05 2.13392299e+05 2.13842107e+05 2.14285330e+05 
        </DataArray>
      </PointData>
    </Piece>
    <Piece NumberOfPoints="4" NumberOfCells="3">
      <Points>
        <DataArray type="Float64" NumberOfComponents="3" format="ascii">
          7.52598286e-01 3.09220124e-02 0.00000000e+00 
7.62928188e-01 2.98135038e-02 0.00000000e+00 
7.73256481e-01 2.86899786e-02 0.00000000e+00 
7.83583105e-01 2.75512449e-02 0.00000000e+00 

        </DataArray>
      </Points>
      <Cells>
        <DataArray type="Int32" Name="connectivity" format="ascii">
0 1
1 2
2 3

        </DataArray>
        <DataArray type="Int32" Name="offsets" format="ascii">
2 4 6 
        </DataArray>
        <DataArray type="UInt8" Name="types" format="ascii">
3 3 3 
        </DataArray>
      </Cells>
      <PointData>
        <DataArray type="Float64" Name="rho">
          9.41788469e-01 9.43623086e-01 9.45430471e-01 9.47211348e-01 
        </DataArray>
        <DataArray type="Float64" Name="rhou">
          1.38943199e-04 1.35285243e-04 1.31501905e-04 1.22405772e-04 
        </DataArray>
        <DataArray type="Float64" Name="rhov">
          -5.15465126e-05 -4.93624316e-05 -5.15712252e-05 -5.47855169e-05 
        </DataArray>
        <DataArray type="Float64" Name="E">
          2.14285329e+05 2.14722232e+05 2.15152647e+05 2.15576737e+05 
        </DataArray>
      </PointData>
    </Piece>
    <Piece NumberOfPoints="4" NumberOfCells="3">
      <Points>
        <DataArray type="Float64" NumberOfComponents="3" format="ascii">
          7.83583105e-01 2.75512449e-02 0.00000000e+00 
7.93908060e-01 2.63975188e-02 0.00000000e+00 
8.04231405e-01 2.52291560e-02 0.00000000e+00 
8.14553022e-01 2.40457114e-02 0.00000000e+00 

        </DataArray>
      </Points>
      <Cells>
        <DataArray type="Int32" Name="connectivity" format="ascii">
0 1
1 2
2 3

        </DataArray>
        <DataArray type="Int32" Name="offsets" format="ascii">
2 4 6 
        </DataArray>
        <DataArray type="UInt8" Name="types" format="ascii">
3 3 3 
        </DataArray>
      </Cells>
      <PointData>
        <DataArray type="Float64" Name="rho">
          9.47211354e-01 9.48966512e-01 9.50695920e-01 9.52399005e-01 
        </DataArray>
        <DataArray type="Float64" Name="rhou">
          1.24905540e-04 1.14549142e-04 1.13507040e-04 1.14468536e-04 
        </DataArray>
        <DataArray type="Float64" Name="rhov">
          -5.51234668e-05 -5.16031441e-05 -5.04587570e-05 -5.67934112e-05 
        </DataArray>
        <DataArray type="Float64" Name="E">
          2.15576739e+05 2.15994683e+05 2.16406472e+05 2.16811972e+05 
        </DataArray>
      </PointData>
    </Piece>
    <Piece NumberOfPoints="4" NumberOfCells="3">
      <Points>
        <DataArray type="Float64" NumberOfComponents="3" format="ascii">
          8.14553022e-01 2.40457114e-02 0.00000000e+00 
8.24872792e-01 2.28467938e-02 0.00000000e+00 
8.35190892e-01 2.16327831e-02 0.00000000e+00 
8.45507145e-01 2.04038676e-02 0.00000000e+00 

        </DataArray>
      </Points>
      <Cells>
        <DataArray type="Int32" Name="connectivity" format="ascii">
0 1
1 2
2 3

        </DataArray>
        <DataArray type="Int32" Name="offsets" format="ascii">
2 4 6 
        </DataArray>
        <DataArray type="UInt8" Name="types" format="ascii">
3 3 3 
        </DataArray>
      </Cells>
      <PointData>
        <DataArray type="Float64" Name="rho">
          9.52399047e-01 9.54077468e-01 9.55731553e-01 9.57361494e-01 
        </DataArray>
        <DataArray type="Float64" Name="rhou">
          1.08772602e-04 1.00810212e-04 9.40848167e-05 9.47094108e-05 
        </DataArray>
        <DataArray type="Float64" Name="rhov">
          -5.70460212e-05 -5.70285872e-05 -5.43974498e-05 -5.07383225e-05 
        </DataArray>
        <DataArray type="Float64" Name="E">
          2.16811982e+05 2.17211565e+05 2.17605298e+05 2.17993217e+05 
        </DataArray>
      </PointData>
    </Piece>
    <Piece NumberOfPoints="4" NumberOfCells="3">
      <Points>
        <DataArray type="Float64" NumberOfComponents="3" format="ascii">
          8.45507145e-01 2.04038676e-02 0.00000000e+00 
8.55821550e-01 1.91591792e-02 0.00000000e+00 
8.66134048e-01 1.78987328e-02 0.00000000e+00 
8.76444638e-01 1.66228991e-02 0.00000000e+00 

        </DataArray>
      </Points>
      <Cells>
        <DataArray type="Int32" Name="connectivity" format="ascii">
0 1
1 2
2 3

        </DataArray>
        <DataArray type="Int32" Name="offsets" format="ascii">
2 4 6 
        </DataArray>
        <DataArray type="UInt8" Name="types" format="ascii">
3 3 3 
        </DataArray>
      </Cells>
      <PointData>
        <DataArray type="Float64" Name="rho">
          9.57361602e-01 9.58966144e-01 9.60549077e-01 9.62107077e-01 
        </DataArray>
        <DataArray type="Float64" Name="rhou">
          1.15342499e-04 8.49583165e-05 8.36610243e-05 9.92657689e-05 
        </DataArray>
        <DataArray type="Float64" Name="rhov">
          -5.42649665e-05 -6.15163537e-05 -5.91718663e-05 -7.66080245e-05 
        </DataArray>
        <DataArray type="Float64" Name="E">
          2.17993241e+05 2.18375050e+05 2.18751597e+05 2.19122112e+05 
        </DataArray>
      </PointData>
    </Piece>
    <Piece NumberOfPoints="4" NumberOfCells="3">
      <Points>
        <DataArray type="Float64" NumberOfComponents="3" format="ascii">
          8.76444638e-01 1.66228991e-02 0.00000000e+00 
8.86753201e-01 1.53310820e-02 0.00000000e+00 
8.97059798e-01 1.40233757e-02 0.00000000e+00 
9.07364249e-01 1.26988320e-02 0.00000000e+00 

        </DataArray>
      </Points>
      <Cells>
        <DataArray type="Int32" Name="connectivity" format="ascii">
0 1
1 2
2 3

        </DataArray>
        <DataArray type="Int32" Name="offsets" format="ascii">
2 4 6 
        </DataArray>
        <DataArray type="UInt8" Name="types" format="ascii">
3 3 3 
        </DataArray>
      </Cells>
      <PointData>
        <DataArray type="Float64" Name="rho">
          9.62106635e-01 9.63646255e-01 9.65160164e-01 9.66666835e-01 
        </DataArray>
        <DataArray type="Float64" Name="rhou">
          8.86203893e-06 9.99094289e-05 4.54325514e-05 -6.72563816e-06 
        </DataArray>
        <DataArray type="Float64" Name="rhov">
          -6.87518220e-05 -7.24202059e-05 -9.13396302e-05 5.73119560e-06 
        </DataArray>
        <DataArray type="Float64" Name="E">
          2.19122012e+05 2.19487977e+05 2.19847714e+05 2.20205431e+05 
        </DataArray>
      </PointData>
    </Piece>
    <Piece NumberOfPoints="4" NumberOfCells="3">
      <Points>
        <DataArray type="Float64" NumberOfComponents="3" format="ascii">
          9.07364249e-01 1.26988320e-02 0.00000000e+00 
9.17666554e-01 1.13577880e-02 0.00000000e+00 
9.27966774e-01 1.00004105e-02 0.00000000e+00 
9.38264549e-01 8.62528384e-03 0.00000000e+00 

        </DataArray>
      </Points>
      <Cells>
        <DataArray type="Int32" Name="connectivity" format="ascii">
0 1
1 2
2 3

        </DataArray>
        <DataArray type="Int32" Name="offsets" format="ascii">
2 4 6 
        </DataArray>
        <DataArray type="UInt8" Name="types" format="ascii">
3 3 3 
        </DataArray>
      </Cells>
      <PointData>
        <DataArray type="Float64" Name="rho">
          9.66671624e-01 9.68129300e-01 9.69609883e-01 9.70945090e-01 
        </DataArray>
        <DataArray type="Float64" Name="rhou">
          7.90671629e-04 -2.01797174e-04 3.39825323e-04 7.58737295e-04 
        </DataArray>
        <DataArray type="Float64" Name="rhov">
          -6.26373492e-05 -1.15162252e-04 -4.56510145e-05 -1.44064491e-03 
        </DataArray>
        <DataArray type="Float64" Name="E">
          2.20206521e+05 2.20552724e+05 2.20903837e+05 2.21221616e+05 
        </DataArray>
      </PointData>
    </Piece>
    <Piece NumberOfPoints="4" NumberOfCells="3">
      <Points>
        <DataArray type="Float64" NumberOfComponents="3" format="ascii">
          9.38264549e-01 8.62528384e-03 0.00000000e+00 
9.48560059e-01 7.23283459e-03 0.00000000e+00 
9.58853185e-01 5.82307298e-03 0.00000000e+00 
9.69143867e-01 4.39538015e-03 0.00000000e+00 

        </DataArray>
      </Points>
      <Cells>
        <DataArray type="Int32" Name="connectivity" format="ascii">
0 1
1 2
2 3

        </DataArray>
        <DataArray type="Int32" Name="offsets" format="ascii">
2 4 6 
        </DataArray>
        <DataArray type="UInt8" Name="types" format="ascii">
3 3 3 
        </DataArray>
      </Cells>
      <PointData>
        <DataArray type="Float64" Name="rho">
          9.70898300e-01 9.72547648e-01 9.73789543e-01 9.76453981e-01 
        </DataArray>
        <DataArray type="Float64" Name="rhou">
          -6.57346050e-03 2.10726105e-03 -3.10469963e-03 -1.87155643e-02 
        </DataArray>
        <DataArray type="Float64" Name="rhov">
          -1.07068286e-03 1.28449194e-04 -1.10826879e-03 1.86400022e-02 
        </DataArray>
        <DataArray type="Float64" Name="E">
          2.21210957e+05 2.21600245e+05 2.21896915e+05 2.22518291e+05 
        </DataArray>
      </PointData>
    </Piece>
    <Piece NumberOfPoints="4" NumberOfCells="3">
      <Points>
        <DataArray type="Float64" NumberOfComponents="3" format="ascii">
          9.69143867e-01 4.39538015e-03 0.00000000e+00 
9.79435980e-01 2.94816052e-03 0.00000000e+00 
9.89725590e-01 1.48259092e-03 0.00000000e+00 
1.00000000e+00 0.00000000e+00 0.00000000e+00 

        </DataArray>
      </Points>
      <Cells>
        <DataArray type="Int32" Name="connectivity" format="ascii">
0 1
1 2
2 3

        </DataArray>
        <DataArray type="Int32" Name="offsets" format="ascii">
2 4 6 
        </DataArray>
        <DataArray type="UInt8" Name="types" format="ascii">
3 3 3 
        </DataArray>
      </Cells>
      <PointData>
        <DataArray type="Float64" Name="rho">
          9.76743766e-01 9.76368567e-01 9.80138268e-01 9.70391574e-01 
        </DataArray>
        <DataArray type="Float64" Name="rhou">
          -1.50191986e-03 -9.40190796e-03 -3.69827538e-02 4.88792557e-01 
        </DataArray>
        <DataArray type="Float64" Name="rhov">
          2.08388022e-02 1.03691137e-03 5.15469852e-02 -1.34853161e-01 
        </DataArray>
        <DataArray type="Float64" Name="E">
          2.22584318e+05 2.22514085e+05 2.23389963e+05 2.21188300e+05 
        </DataArray>
      </PointData>
    </Piece>
    <Piece NumberOfPoints="4" NumberOfCells="3">
      <Points>
        <DataArray type="Float64" NumberOfComponents="3" format="ascii">
          9.69029665e-01 -4.41133138e-03 0.00000000e+00 
9.79355037e-01 -2.95961346e-03 0.00000000e+00 
9.89677846e-01 -1.48943183e-03 0.00000000e+00 
1.00000000e+00 0.00000000e+00 0.00000000e+00 

        </DataArray>
      </Points>
      <Cells>
        <DataArray type="Int32" Name="connectivity" format="ascii">
0 1
1 2
2 3

        </DataArray>
        <DataArray type="Int32" Name="offsets" format="ascii">
2 4 6 
        </DataArray>
        <DataArray type="UInt8" Name="types" format="ascii">
3 3 3 
        </DataArray>
      </Cells>
      <PointData>
        <DataArray type="Float64" Name="rho">
          9.75602797e-01 9.75291906e-01 9.79026368e-01 9.70545936e-01 
        </DataArray>
        <DataArray type="Float64" Name="rhou">
          -9.35690479e-04 -7.36948535e-03 -3.49989884e-02 4.49931696e-01 
        </DataArray>
        <DataArray type="Float64" Name="rhov">
          -2.31061079e-02 2.06720885e-03 -4.79916602e-02 1.40748097e-01 
        </DataArray>
        <DataArray type="Float64" Name="E">
          2.22334221e+05 2.22275740e+05 2.23140142e+05 2.21223728e+05 
        </DataArray>
      </PointData>
    </Piece>
    <Piece NumberOfPoints="4" NumberOfCells="3">
      <Points>
        <DataArray type="Float64" NumberOfComponents="3" format="ascii">
          9.38035965e-01 -8.65600072e-03 0.00000000e+00 
9.48369622e-01 -7.25875143e-03 0.00000000e+00 
9.58700895e-01 -5.84406452e-03 0.00000000e+00 
9.69029665e-01 -4.41133138e-03 0.00000000e+00 

        </DataArray>
      </Points>
      <Cells>
        <DataArray type="Int32" Name="connectivity" format="ascii">
0 1
1 2
2 3

        </DataArray>
        <DataArray type="Int32" Name="offsets" format="ascii">
2 4 6 
        </DataArray>
        <DataArray type="UInt8" Name="types" format="ascii">
3 3 3 
        </DataArray>
      </Cells>
      <PointData>
        <DataArray type="Float64" Name="rho">
          9.69910768e-01 9.71519333e-01 9.72735006e-01 9.75317180e-01 
        </DataArray>
        <DataArray type="Float64" Name="rhou">
          -6.19497641e-03 2.26807135e-03 -2.55622660e-03 -1.68005499e-02 
        </DataArray>
        <DataArray type="Float64" Name="rhov">
          1.07903758e-03 -1.67063088e-04 1.31915456e-03 -1.71735470e-02 
        </DataArray>
        <DataArray type="Float64" Name="E">
          2.21001472e+05 2.21380090e+05 2.21668970e+05 2.22269179e+05 
        </DataArray>
      </PointData>
    </Piece>
    <Piece NumberOfPoints="4" NumberOfCells="3">
      <Points>
        <DataArray type="Float64" NumberOfComponents="3" format="ascii">
          9.07021165e-01 -1.27432076e-02 0.00000000e+00 
9.17361677e-01 -1.13977119e-02 0.00000000e+00 
9.27700043e-01 -1.00357840e-02 0.00000000e+00 
9.38035965e-01 -8.65600072e-03 0.00000000e+00 

        </DataArray>
      </Points>
      <Cells>
        <DataArray type="Int32" Name="connectivity" format="ascii">
0 1
1 2
2 3

        </DataArray>
        <DataArray type="Int32" Name="offsets" format="ascii">
2 4 6 
        </DataArray>
        <DataArray type="UInt8" Name="types" format="ascii">
3 3 3 
        </DataArray>
      </Cells>
      <PointData>
        <DataArray type="Float64" Name="rho">
          9.65818885e-01 9.67224141e-01 9.68658749e-01 9.69956428e-01 
        </DataArray>
        <DataArray type="Float64" Name="rhou">
          9.14311540e-04 -5.76391581e-05 4.94736055e-04 8.81636783e-04 
        </DataArray>
        <DataArray type="Float64" Name="rhov">
          4.99808597e-05 7.63946340e-05 -8.18691476e-06 1.35933149e-03 
        </DataArray>
        <DataArray type="Float64" Name="E">
          2.20030334e+05 2.20363852e+05 2.20703662e+05 2.21011867e+05 
        </DataArray>
      </PointData>
    </Piece>
    <Piece NumberOfPoints="4" NumberOfCells="3">
      <Points>
        <DataArray type="Float64" NumberOfComponents="3" format="ascii">
          8.75986874e-01 -1.66798849e-02 0.00000000e+00 
8.86333704e-01 -1.53839625e-02 0.00000000e+00 
8.96678507e-01 -1.40720531e-02 0.00000000e+00 
9.07021165e-01 -1.27432076e-02 0.00000000e+00 

        </DataArray>
      </Points>
      <Cells>
        <DataArray type="Int32" Name="connectivity" format="ascii">
0 1
1 2
2 3

        </DataArray>
        <DataArray type="Int32" Name="offsets" format="ascii">
2 4 6 
        </DataArray>
        <DataArray type="UInt8" Name="types" format="ascii">
3 3 3 
        </DataArray>
      </Cells>
      <PointData>
        <DataArray type="Float64" Name="rho">
          9.61480263e-01 9.62933532e-01 9.64372718e-01 9.65814092e-01 
        </DataArray>
        <DataArray type="Float64" Name="rhou">
          1.61365288e-04 2.39551451e-04 1.92902994e-04 1.41869512e-04 
        </DataArray>
        <DataArray type="Float64" Name="rhov">
          6.75209591e-05 5.93045274e-05 7.41890593e-05 -1.75034797e-05 
        </DataArray>
        <DataArray type="Float64" Name="E">
          2.18999887e+05 2.19345255e+05 2.19687152e+05 2.20029244e+05 
        </DataArray>
      </PointData>
    </Piece>
    <Piece NumberOfPoints="4" NumberOfCells="3">
      <Points>
        <DataArray type="Float64" NumberOfComponents="3" format="ascii">
          8.44934702e-01 -2.04724707e-02 0.00000000e+00 
8.55287313e-01 -1.92240477e-02 0.00000000e+00 
8.65638077e-01 -1.79597028e-02 0.00000000e+00 
8.75986874e-01 -1.66798849e-02 0.00000000e+00 

        </DataArray>
      </Points>
      <Cells>
        <DataArray type="Int32" Name="connectivity" format="ascii">
0 1
1 2
2 3

        </DataArray>
        <DataArray type="Int32" Name="offsets" format="ascii">
2 4 6 
        </DataArray>
        <DataArray type="UInt8" Name="types" format="ascii">
3 3 3 
        </DataArray>
      </Cells>
      <PointData>
        <DataArray type="Float64" Name="rho">
          9.57074387e-01 9.58551127e-01 9.60022245e-01 9.61480676e-01 
        </DataArray>
        <DataArray type="Float64" Name="rhou">
          2.91814852e-04 2.33975916e-04 2.21937089e-04 2.59544614e-04 
        </DataArray>
        <DataArray type="Float64" Name="rhov">
          4.23572347e-05 6.25690359e-05 5.23686973e-05 7.05205340e-05 
        </DataArray>
        <DataArray type="Float64" Name="E">
          2.17952009e+05 2.18303339e+05 2.18653206e+05 2.18999981e+05 
        </DataArray>
      </PointData>
    </Piece>
    <Piece NumberOfPoints="4" NumberOfCells="3">
      <Points>
        <DataArray type="Float64" NumberOfComponents="3" format="ascii">
          8.13865662e-01 -2.41250079e-02 0.00000000e+00 
8.24223816e-01 -2.29226518e-02 0.00000000e+00 
8.34580123e-01 -2.17050612e-02 0.00000000e+00 
8.44934702e-01 -2.04724707e-02 0.00000000e+00 

        </DataArray>
      </Points>
      <Cells>
        <DataArray type="Int32" Name="connectivity" format="ascii">
0 1
1 2
2 3

        </DataArray>
        <DataArray type="Int32" Name="offsets" format="ascii">
2 4 6 
        </DataArray>
        <DataArray type="UInt8" Name="types" format="ascii">
3 3 3 
        </DataArray>
      </Cells>
      <PointData>
        <DataArray type="Float64" Name="rho">
          9.52577693e-01 9.54085015e-01 9.55584064e-01 9.57074163e-01 
        </DataArray>
        <DataArray type="Float64" Name="rhou">
          2.67945231e-04 2.53000274e-04 2.38081214e-04 2.43547842e-04 
        </DataArray>
        <DataArray type="Float64" Name="rhov">
          5.32123754e-05 5.39897963e-05 4.66951681e-05 3.50237796e-05 
        </DataArray>
        <DataArray type="Float64" Name="E">
          2.16881949e+05 2.17240699e+05 2.17597424e+05 2.17951958e+05 
        </DataArray>
      </PointData>
    </Piece>
    <Piece NumberOfPoints="4" NumberOfCells="3">
      <Points>
        <DataArray type="Float64" NumberOfComponents="3" format="ascii">
          7.82780826e-01 -2.76402626e-02 0.00000000e+00 
7.93144107e-01 -2.64833923e-02 0.00000000e+00 
8.03505778e-01 -2.53117718e-02 0.00000000e+00 
8.13865662e-01 -2.41250079e-02 0.00000000e+00 

        </DataArray>
      </Points>
      <Cells>
        <DataArray type="Int32" Name="connectivity" format="ascii">
0 1
1 2
2 3

        </DataArray>
        <DataArray type="Int32" Name="offsets" format="ascii">
2 4 6 
        </DataArray>
        <DataArray type="UInt8" Name="types" format="ascii">
3 3 3 
        </DataArray>
      </Cells>
      <PointData>
        <DataArray type="Float64" Name="rho">
          9.48000904e-01 9.49535589e-01 9.51062065e-01 9.52577587e-01 
        </DataArray>
        <DataArray type="Float64" Name="rhou">
          2.88243603e-04 2.67734269e-04 2.67439320e-04 2.76881884e-04 
        </DataArray>
        <DataArray type="Float64" Name="rhov">
          4.98334745e-05 4.15903510e-05 3.72683552e-05 5.15099485e-05 
        </DataArray>
        <DataArray type="Float64" Name="E">
          2.15792443e+05 2.16157806e+05 2.16521176e+05 2.16881925e+05 
        </DataArray>
      </PointData>
    </Piece>
    <Piece NumberOfPoints="4" NumberOfCells="3">
      <Points>
        <DataArray type="Float64" NumberOfComponents="3" format="ascii">
          7.51680970e-01 -3.10197193e-02 0.00000000e+00 
7.62049198e-01 -2.99084149e-02 0.00000000e+00 
7.72415876e-01 -2.87819952e-02 0.00000000e+00 
7.82780826e-01 -2.76402626e-02 0.00000000e+00 

        </DataArray>
      </Points>
      <Cells>
        <DataArray type="Int32" Name="connectivity" format="ascii">
0 1
1 2
2 3

        </DataArray>
        <DataArray type="Int32" Name="offsets" format="ascii">
2 4 6 
        </DataArray>
        <DataArray type="UInt8" Name="types" format="ascii">
3 3 3 
        </DataArray>
      </Cells>
      <PointData>
        <DataArray type="Float64" Name="rho">
          9.43350523e-01 9.44908957e-01 9.46458976e-01 9.48000868e-01 
        </DataArray>
        <DataArray type="Float64" Name="rhou">
          3.00917055e-04 2.96994362e-04 2.91706843e-04 2.77941342e-04 
        </DataArray>
        <DataArray type="Float64" Name="rhov">
          4.25435967e-05 3.60828882e-05 3.99956949e-05 4.76855434e-05 
        </DataArray>
        <DataArray type="Float64" Name="E">
          2.14685123e+05 2.15056231e+05 2.15425315e+05 2.15792435e+05 
        </DataArray>
      </PointData>
    </Piece>
    <Piece NumberOfPoints="4" NumberOfCells="3">
      <Points>
        <DataArray type="Float64" NumberOfComponents="3" format="ascii">
          7.20566452e-01 -3.42622213e-02 0.00000000e+00 
7.30939507e-01 -3.31965312e-02 0.00000000e+00 
7.41311073e-01 -3.21157984e-02 0.00000000e+00 
7.51680970e-01 -3.10197193e-02 0.00000000e+00 

        </DataArray>
      </Points>
      <Cells>
        <DataArray type="Int32" Name="connectivity" format="ascii">
0 1
1 2
2 3

        </DataArray>
        <DataArray type="Int32" Name="offsets" format="ascii">
2 4 6 
        </DataArray>
        <DataArray type="UInt8" Name="types" format="ascii">
3 3 3 
        </DataArray>
      </Cells>
      <PointData>
        <DataArray type="Float64" Name="rho">
          9.38636537e-01 9.40215038e-01 9.41786553e-01 9.43350515e-01 
        </DataArray>
        <DataArray type="Float64" Name="rhou">
          3.25888550e-04 3.19338732e-04 3.16695552e-04 3.04046320e-04 
        </DataArray>
        <DataArray type="Float64" Name="rhov">
          3.88665182e-05 2.82000878e-05 3.10226040e-05 4.29948914e-05 
        </DataArray>
        <DataArray type="Float64" Name="E">
          2.13562375e+05 2.13938356e+05 2.14312649e+05 2.14685121e+05 
        </DataArray>
      </PointData>
    </Piece>
    <Piece NumberOfPoints="4" NumberOfCells="3">
      <Points>
        <DataArray type="Float64" NumberOfComponents="3" format="ascii">
          6.89437866e-01 -3.73662710e-02 0.00000000e+00 
6.99815631e-01 -3.63472365e-02 0.00000000e+00 
7.10191846e-01 -3.53125818e-02 0.00000000e+00 
7.20566452e-01 -3.42622213e-02 0.00000000e+00 

        </DataArray>
      </Points>
      <Cells>
        <DataArray type="Int32" Name="connectivity" format="ascii">
0 1
1 2
2 3

        </DataArray>
        <DataArray type="Int32" Name="offsets" format="ascii">
2 4 6 
        </DataArray>
        <DataArray type="UInt8" Name="types" format="ascii">
3 3 3 
        </DataArray>
      </Cells>
      <PointData>
        <DataArray type="Float64" Name="rho">
          9.33876673e-01 9.35468024e-01 9.37054756e-01 9.38636548e-01 
        </DataArray>
        <DataArray type="Float64" Name="rhou">
          3.57833459e-04 3.50900642e-04 3.44192659e-04 3.26835967e-04 
        </DataArray>
        <DataArray type="Float64" Name="rhov">
          3.06987135e-05 2.36327014e-05 2.83756174e-05 3.91108772e-05 
        </DataArray>
        <DataArray type="Float64" Name="E">
          2.12428352e+05 2.12807518e+05 2.13185553e+05 2.13562377e+05 
        </DataArray>
      </PointData>
    </Piece>
    <Piece NumberOfPoints="4" NumberOfCells="3">
      <Points>
        <DataArray type="Float64" NumberOfComponents="3" format="ascii">
          6.58295333e-01 -4.03269380e-02 0.00000000e+00 
6.68677747e-01 -3.93563360e-02 0.00000000e+00 
6.79058611e-01 -3.83694395e-02 0.00000000e+00 
6.89437866e-01 -3.73662710e-02 0.00000000e+00 

        </DataArray>
      </Points>
      <Cells>
        <DataArray type="Int32" Name="connectivity" format="ascii">
0 1
1 2
2 3

        </DataArray>
        <DataArray type="Int32" Name="offsets" format="ascii">
2 4 6 
        </DataArray>
        <DataArray type="UInt8" Name="types" format="ascii">
3 3 3 
        </DataArray>
      </Cells>
      <PointData>
        <DataArray type="Float64" Name="rho">
          9.29094178e-01 9.30690003e-01 9.32284169e-01 9.33876726e-01 
        </DataArray>
        <DataArray type="Float64" Name="rhou">
          3.93522067e-04 3.88252183e-04 3.75935899e-04 3.55908829e-04 
        </DataArray>
        <DataArray type="Float64" Name="rhov">
          1.93981149e-05 1.65137775e-05 2.32607892e-05 3.14571060e-05 
        </DataArray>
        <DataArray type="Float64" Name="E">
          2.11288524e+05 2.11668903e+05 2.12048849e+05 2.12428364e+05 
        </DataArray>
      </PointData>
    </Piece>
    <Piece NumberOfPoints="4" NumberOfCells="3">
      <Points>
        <DataArray type="Float64" NumberOfComponents="3" format="ascii">
          6.27138972e-01 -4.31386717e-02 0.00000000e+00 
6.37525976e-01 -4.22184542e-02 0.00000000e+00 
6.47911429e-01 -4.12811004e-02 0.00000000e+00 
6.58295333e-01 -4.03269380e-02 0.00000000e+00 

        </DataArray>
      </Points>
      <Cells>
        <DataArray type="Int32" Name="connectivity" format="ascii">
0 1
1 2
2 3

        </DataArray>
        <DataArray type="Int32" Name="offsets" format="ascii">
2 4 6 
        </DataArray>
        <DataArray type="UInt8" Name="types" format="ascii">
3 3 3 
        </DataArray>
      </Cells>
      <PointData>
        <DataArray type="Float64" Name="rho">
          9.24320141e-01 9.25908077e-01 9.27500025e-01 9.29094210e-01 
        </DataArray>
        <DataArray type="Float64" Name="rhou">
          4.43362380e-04 4.25170152e-04 4.08418896e-04 3.94385131e-04 
        </DataArray>
        <DataArray type="Float64" Name="rhov">
          1.55377413e-05 1.46196733e-05 1.61591232e-05 2.02793353e-05 
        </DataArray>
        <DataArray type="Float64" Name="E">
          2.10150210e+05 2.10528898e+05 2.10908478e+05 2.11288531e+05 
        </DataArray>
      </PointData>
    </Piece>
    <Piece NumberOfPoints="4" NumberOfCells="3">
      <Points>
        <DataArray type="Float64" NumberOfComponents="3" format="ascii">
          5.95968783e-01 -4.57924642e-02 0.00000000e+00 
6.06360376e-01 -4.49259281e-02 0.00000000e+00 
6.16750479e-01 -4.40412909e-02 0.00000000e+00 
6.27138972e-01 -4.31386717e-02 0.00000000e+00 

        </DataArray>
      </Points>
      <Cells>
        <DataArray type="Int32" Name="connectivity" format="ascii">
0 1
1 2
2 3

        </DataArray>
        <DataArray type="Int32" Name="offsets" format="ascii">
2 4 6 
        </DataArray>
        <DataArray type="UInt8" Name="types" format="ascii">
3 3 3 
        </DataArray>
      </Cells>
      <PointData>
        <DataArray type="Float64" Name="rho">
          9.19599066e-01 9.21164700e-01 9.22738803e-01 9.24320134e-01 
        </DataArray>
        <DataArray type="Float64" Name="rhou">
          4.86691916e-04 4.75087980e-04 4.58351761e-04 4.36933450e-04 
        </DataArray>
        <DataArray type="Float64" Name="rhov">
          3.27346426e-06 3.18966295e-07 6.85747788e-06 1.63502863e-05 
        </DataArray>
        <DataArray type="Float64" Name="E">
          2.09023898e+05 2.09397481e+05 2.09773017e+05 2.10150209e+05 
        </DataArray>
      </PointData>
    </Piece>
    <Piece NumberOfPoints="4" NumberOfCells="3">
      <Points>
        <DataArray type="Float64" NumberOfComponents="3" format="ascii">
          5.64784765e-01 -4.82786149e-02 0.00000000e+00 
5.75181007e-01 -4.74695377e-02 0.00000000e+00 
5.85575700e-01 -4.66405638e-02 0.00000000e+00 
5.95968783e-01 -4.57924642e-02 0.00000000e+00 

        </DataArray>
      </Points>
      <Cells>
        <DataArray type="Int32" Name="connectivity" format="ascii">
0 1
1 2
2 3

        </DataArray>
        <DataArray type="Int32" Name="offsets" format="ascii">
2 4 6 
        </DataArray>
        <DataArray type="UInt8" Name="types" format="ascii">
3 3 3 
        </DataArray>
      </Cells>
      <PointData>
        <DataArray type="Float64" Name="rho">
          9.14990696e-01 9.16509270e-01 9.18046056e-01 9.19599177e-01 
        </DataArray>
        <DataArray type="Float64" Name="rhou">
          5.61239286e-04 5.35614484e-04 5.03430519e-04 4.80558292e-04 
        </DataArray>
        <DataArray type="Float64" Name="rhov">
          -8.51526775e-06 2.79537746e-06 7.59943728e-06 4.19970614e-06 
        </DataArray>
        <DataArray type="Float64" Name="E">
          2.07923666e+05 2.08286329e+05 2.08653233e+05 2.09023924e+05 
        </DataArray>
      </PointData>
    </Piece>
    <Piece NumberOfPoints="4" NumberOfCells="3">
      <Points>
        <DataArray type="Float64" NumberOfComponents="3" format="ascii">
          5.33586800e-01 -5.05827516e-02 0.00000000e+00 
5.43987691e-01 -4.98356484e-02 0.00000000e+00 
5.54387033e-01 -4.90674041e-02 0.00000000e+00 
5.64784765e-01 -4.82786149e-02 0.00000000e+00 

        </DataArray>
      </Points>
      <Cells>
        <DataArray type="Int32" Name="connectivity" format="ascii">
0 1
1 2
2 3

        </DataArray>
        <DataArray type="Int32" Name="offsets" format="ascii">
2 4 6 
        </DataArray>
        <DataArray type="UInt8" Name="types" format="ascii">
3 3 3 
        </DataArray>
      </Cells>
      <PointData>
        <DataArray type="Float64" Name="rho">
          9.10568814e-01 9.12015983e-01 9.13491756e-01 9.14990656e-01 
        </DataArray>
        <DataArray type="Float64" Name="rhou">
          6.33970404e-04 5.95014353e-04 5.66870641e-04 5.55671360e-04 
        </DataArray>
        <DataArray type="Float64" Name="rhov">
          -7.72862062e-06 -7.66446283e-06 -1.06386776e-05 -8.14840652e-06 
        </DataArray>
        <DataArray type="Float64" Name="E">
          2.06866983e+05 2.07212944e+05 2.07565594e+05 2.07923657e+05 
        </DataArray>
      </PointData>
    </Piece>
    <Piece NumberOfPoints="4" NumberOfCells="3">
      <Points>
        <DataArray type="Float64" NumberOfComponents="3" format="ascii">
          5.02374947e-01 -5.26902266e-02 0.00000000e+00 
5.12780428e-01 -5.20105064e-02 0.00000000e+00 
5.23184419e-01 -5.13078682e-02 0.00000000e+00 
5.33586800e-01 -5.05827516e-02 0.00000000e+00 

        </DataArray>
      </Points>
      <Cells>
        <DataArray type="Int32" Name="connectivity" format="ascii">
0 1
1 2
2 3

        </DataArray>
        <DataArray type="Int32" Name="offsets" format="ascii">
2 4 6 
        </DataArray>
        <DataArray type="UInt8" Name="types" format="ascii">
3 3 3 
        </DataArray>
      </Cells>
      <PointData>
        <DataArray type="Float64" Name="rho">
          9.06434189e-01 9.07774082e-01 9.09154307e-01 9.10568720e-01 
        </DataArray>
        <DataArray type="Float64" Name="rhou">
          7.13978621e-04 6.78320592e-04 6.51270435e-04 6.31271087e-04 
        </DataArray>
        <DataArray type="Float64" Name="rhov">
          -1.72083907e-05 -2.34873545e-05 -2.19808594e-05 -8.17163438e-06 
        </DataArray>
        <DataArray type="Float64" Name="E">
          2.05877638e+05 2.06198418e+05 2.06528671e+05 2.06866961e+05 
        </DataArray>
      </PointData>
    </Piece>
    <Piece NumberOfPoints="4" NumberOfCells="3">
      <Points>
        <DataArray type="Float64" NumberOfComponents="3" format="ascii">
          4.71149325e-01 -5.45825884e-02 0.00000000e+00 
4.81559396e-01 -5.39771840e-02 0.00000000e+00 
4.91967946e-01 -5.33461571e-02 0.00000000e+00 
5.02374947e-01 -5.26902266e-02 0.00000000e+00 

        </DataArray>
      </Points>
      <Cells>
        <DataArray type="Int32" Name="connectivity" format="ascii">
0 1
1 2
2 3

        </DataArray>
        <DataArray type="Int32" Name="offsets" format="ascii">
2 4 6 
        </DataArray>
        <DataArray type="UInt8" Name="types" format="ascii">
3 3 3 
        </DataArray>
      </Cells>
      <PointData>
        <DataArray type="Float64" Name="rho">
          9.02719217e-01 9.03902905e-01 9.05141666e-01 9.06434277e-01 
        </DataArray>
        <DataArray type="Float64" Name="rhou">
          8.19244813e-04 7.96870142e-04 7.50668849e-04 6.94418874e-04 
        </DataArray>
        <DataArray type="Float64" Name="rhov">
          -4.15924003e-05 -3.53381436e-05 -1.81780440e-05 -1.44097259e-05 
        </DataArray>
        <DataArray type="Float64" Name="E">
          2.04986914e+05 2.05270953e+05 2.05567979e+05 2.05877658e+05 
        </DataArray>
      </PointData>
    </Piece>
    <Piece NumberOfPoints="4" NumberOfCells="3">
      <Points>
        <DataArray type="Float64" NumberOfComponents="3" format="ascii">
          4.39910263e-01 -5.62384278e-02 0.00000000e+00 
4.50324744e-01 -5.57143167e-02 0.00000000e+00 
4.60737765e-01 -5.51619194e-02 0.00000000e+00 
4.71149325e-01 -5.45825884e-02 0.00000000e+00 

        </DataArray>
      </Points>
      <Cells>
        <DataArray type="Int32" Name="connectivity" format="ascii">
0 1
1 2
2 3

        </DataArray>
        <DataArray type="Int32" Name="offsets" format="ascii">
2 4 6 
        </DataArray>
        <DataArray type="UInt8" Name="types" format="ascii">
3 3 3 
        </DataArray>
      </Cells>
      <PointData>
        <DataArray type="Float64" Name="rho">
          8.99584507e-01 9.00550380e-01 9.01598849e-01 9.02719291e-01 
        </DataArray>
        <DataArray type="Float64" Name="rhou">
          9.85999257e-04 9.09457246e-04 8.51613219e-04 8.24602560e-04 
        </DataArray>
        <DataArray type="Float64" Name="rhov">
          -3.43199457e-05 -2.53067816e-05 -3.17971471e-05 -3.90644293e-05 
        </DataArray>
        <DataArray type="Float64" Name="E">
          2.04232843e+05 2.04465593e+05 2.04717787e+05 2.04986930e+05 
        </DataArray>
      </PointData>
    </Piece>
    <Piece NumberOfPoints="4" NumberOfCells="3">
      <Points>
        <DataArray type="Float64" NumberOfComponents="3" format="ascii">
          4.08658355e-01 -5.76302819e-02 0.00000000e+00 
4.19077009e-01 -5.71971126e-02 0.00000000e+00 
4.29494321e-01 -5.67329265e-02 0.00000000e+00 
4.39910263e-01 -5.62384278e-02 0.00000000e+00 

        </DataArray>
      </Points>
      <Cells>
        <DataArray type="Int32" Name="connectivity" format="ascii">
0 1
1 2
2 3

        </DataArray>
        <DataArray type="Int32" Name="offsets" format="ascii">
2 4 6 
        </DataArray>
        <DataArray type="UInt8" Name="types" format="ascii">
3 3 3 
        </DataArray>
      </Cells>
      <PointData>
        <DataArray type="Float64" Name="rho">
          8.97242240e-01 8.97922141e-01 8.98706759e-01 8.99584277e-01 
        </DataArray>
        <DataArray type="Float64" Name="rhou">
          1.14032080e-03 1.07110934e-03 1.01989629e-03 9.80661545e-04 
        </DataArray>
        <DataArray type="Float64" Name="rhov">
          -4.24717274e-05 -5.48647396e-05 -5.41087346e-05 -3.41484986e-05 
        </DataArray>
        <DataArray type="Float64" Name="E">
          2.03665662e+05 2.03830910e+05 2.04020876e+05 2.04232790e+05 
        </DataArray>
      </PointData>
    </Piece>
    <Piece NumberOfPoints="4" NumberOfCells="3">
      <Points>
        <DataArray type="Float64" NumberOfComponents="3" format="ascii">
          3.77394795e-01 -5.87291755e-02 0.00000000e+00 
3.87817174e-01 -5.83979115e-02 0.00000000e+00 
3.98238391e-01 -5.80311492e-02 0.00000000e+00 
4.08658355e-01 -5.76302819e-02 0.00000000e+00 

        </DataArray>
      </Points>
      <Cells>
        <DataArray type="Int32" Name="connectivity" format="ascii">
0 1
1 2
2 3

        </DataArray>
        <DataArray type="Int32" Name="offsets" format="ascii">
2 4 6 
        </DataArray>
        <DataArray type="UInt8" Name="types" format="ascii">
3 3 3 
        </DataArray>
      </Cells>
      <PointData>
        <DataArray type="Float64" Name="rho">
          8.95959135e-01 8.96251534e-01 8.96680371e-01 8.97242450e-01 
        </DataArray>
        <DataArray type="Float64" Name="rhou">
          1.38819716e-03 1.31486173e-03 1.21379721e-03 1.10928376e-03 
        </DataArray>
        <DataArray type="Float64" Name="rhov">
          -8.53319813e-05 -5.77329719e-05 -3.02110125e-05 -3.75878556e-05 
        </DataArray>
        <DataArray type="Float64" Name="E">
          2.03348456e+05 2.03422221e+05 2.03528254e+05 2.03665711e+05 
        </DataArray>
      </PointData>
    </Piece>
    <Piece NumberOfPoints="4" NumberOfCells="3">
      <Points>
        <DataArray type="Float64" NumberOfComponents="3" format="ascii">
          3.46121490e-01 -5.95011823e-02 0.00000000e+00 
3.56546819e-01 -5.92821389e-02 0.00000000e+00 
3.66971314e-01 -5.90242445e-02 0.00000000e+00 
3.77394795e-01 -5.87291755e-02 0.00000000e+00 

        </DataArray>
      </Points>
      <Cells>
        <DataArray type="Int32" Name="connectivity" format="ascii">
0 1
1 2
2 3

        </DataArray>
        <DataArray type="Int32" Name="offsets" format="ascii">
2 4 6 
        </DataArray>
        <DataArray type="UInt8" Name="types" format="ascii">
3 3 3 
        </DataArray>
      </Cells>
      <PointData>
        <DataArray type="Float64" Name="rho">
          8.96029963e-01 8.95830796e-01 8.95813002e-01 8.95959226e-01 
        </DataArray>
        <DataArray type="Float64" Name="rhou">
          1.72983565e-03 1.58592739e-03 1.45751836e-03 1.39159802e-03 
        </DataArray>
        <DataArray type="Float64" Name="rhov">
          -1.19618180e-04 -7.79602645e-05 -7.07722564e-05 -8.07147996e-05 
        </DataArray>
        <DataArray type="Float64" Name="E">
          2.03351264e+05 2.03308849e+05 2.03309284e+05 2.03348476e+05 
        </DataArray>
      </PointData>
    </Piece>
    <Piece NumberOfPoints="4" NumberOfCells="3">
      <Points>
        <DataArray type="Float64" NumberOfComponents="3" format="ascii">
          3.14841360e-01 -5.99102043e-02 0.00000000e+00 
3.25268596e-01 -5.98174632e-02 0.00000000e+00 
3.35695356e-01 -5.96801341e-02 0.00000000e+00 
3.46121490e-01 -5.95011823e-02 0.00000000e+00 

        </DataArray>
      </Points>
      <Cells>
        <DataArray type="Int32" Name="connectivity" format="ascii">
0 1
1 2
2 3

        </DataArray>
        <DataArray type="Int32" Name="offsets" format="ascii">
2 4 6 
        </DataArray>
        <DataArray type="UInt8" Name="types" format="ascii">
3 3 3 
        </DataArray>
      </Cells>
      <PointData>
        <DataArray type="Float64" Name="rho">
          8.97862640e-01 8.97016094e-01 8.96414476e-01 8.96029674e-01 
        </DataArray>
        <DataArray type="Float64" Name="rhou">
          2.17891000e-03 1.93514507e-03 1.77064476e-03 1.69438263e-03 
        </DataArray>
        <DataArray type="Float64" Name="rhov">
          -5.64902933e-05 -3.33465626e-05 -6.56132676e-05 -1.18849072e-04 
        </DataArray>
        <DataArray type="Float64" Name="E">
          2.03770733e+05 2.03575219e+05 2.03437584e+05 2.03351197e+05 
        </DataArray>
      </PointData>
    </Piece>
    <Piece NumberOfPoints="4" NumberOfCells="3">
      <Points>
        <DataArray type="Float64" NumberOfComponents="3" format="ascii">
          2.83558637e-01 -5.98983802e-02 0.00000000e+00 
2.93986142e-01 -5.99516556e-02 0.00000000e+00 
3.04413795e-01 -5.99554181e-02 0.00000000e+00 
3.14841360e-01 -5.99102043e-02 0.00000000e+00 

        </DataArray>
      </Points>
      <Cells>
        <DataArray type="Int32" Name="connectivity" format="ascii">
0 1
1 2
2 3

        </DataArray>
        <DataArray type="Int32" Name="offsets" format="ascii">
2 4 6 
        </DataArray>
        <DataArray type="UInt8" Name="types" format="ascii">
3 3 3 
        </DataArray>
      </Cells>
      <PointData>
        <DataArray type="Float64" Name="rho">
          9.01974382e-01 9.00331825e-01 8.98966834e-01 8.97861930e-01 
        </DataArray>
        <DataArray type="Float64" Name="rhou">
          2.65578442e-03 2.49105181e-03 2.35361083e-03 2.16990904e-03 
        </DataArray>
        <DataArray type="Float64" Name="rhov">
          -1.12952340e-04 -1.79869252e-04 -1.44387937e-04 -4.98923813e-05 
        </DataArray>
        <DataArray type="Float64" Name="E">
          2.04730043e+05 2.04345696e+05 2.04027257e+05 2.03770571e+05 
        </DataArray>
      </PointData>
    </Piece>
    <Piece NumberOfPoints="4" NumberOfCells="3">
      <Points>
        <DataArray type="Float64" NumberOfComponents="3" format="ascii">
          2.52279758e-01 -5.94130717e-02 0.00000000e+00 
2.62705088e-01 -5.96327744e-02 0.00000000e+00 
2.73131490e-01 -5.97934239e-02 0.00000000e+00 
2.83558637e-01 -5.98983802e-02 0.00000000e+00 

        </DataArray>
      </Points>
      <Cells>
        <DataArray type="Int32" Name="connectivity" format="ascii">
0 1
1 2
2 3

        </DataArray>
        <DataArray type="Int32" Name="offsets" format="ascii">
2 4 6 
        </DataArray>
        <DataArray type="UInt8" Name="types" format="ascii">
3 3 3 
        </DataArray>
      </Cells>
      <PointData>
        <DataArray type="Float64" Name="rho">
          9.08986870e-01 9.06278846e-01 9.03944407e-01 9.01975301e-01 
        </DataArray>
        <DataArray type="Float64" Name="rhou">
          3.62732078e-03 3.32231717e-03 2.98715228e-03 2.64202710e-03 
        </DataArray>
        <DataArray type="Float64" Name="rhov">
          -2.60526911e-04 -1.68713389e-04 -8.18888735e-05 -9.38123433e-05 
        </DataArray>
        <DataArray type="Float64" Name="E">
          2.06376998e+05 2.05740049e+05 2.05191886e+05 2.04730255e+05 
        </DataArray>
      </PointData>
    </Piece>
    <Piece NumberOfPoints="4" NumberOfCells="3">
      <Points>
        <DataArray type="Float64" NumberOfComponents="3" format="ascii">
          2.21014455e-01 -5.83752058e-02 0.00000000e+00 
2.31433928e-01 -5.87876961e-02 0.00000000e+00 
2.41855890e-01 -5.91322705e-02 0.00000000e+00 
2.52279758e-01 -5.94130717e-02 0.00000000e+00 

        </DataArray>
      </Points>
      <Cells>
        <DataArray type="Int32" Name="connectivity" format="ascii">
0 1
1 2
2 3

        </DataArray>
        <DataArray type="Int32" Name="offsets" format="ascii">
2 4 6 
        </DataArray>
        <DataArray type="UInt8" Name="types" format="ascii">
3 3 3 
        </DataArray>
      </Cells>
      <PointData>
        <DataArray type="Float64" Name="rho">
          9.19683448e-01 9.15641128e-01 9.12091351e-01 9.08987051e-01 
        </DataArray>
        <DataArray type="Float64" Name="rhou">
          4.97941238e-03 4.39458095e-03 3.94863053e-03 3.66138619e-03 
        </DataArray>
        <DataArray type="Float64" Name="rhov">
          -3.65602941e-04 -2.61865676e-04 -2.29933857e-04 -2.44189185e-04 
        </DataArray>
        <DataArray type="Float64" Name="E">
          2.08899342e+05 2.07945243e+05 2.07108217e+05 2.06377035e+05 
        </DataArray>
      </PointData>
    </Piece>
    <Piece NumberOfPoints="4" NumberOfCells="3">
      <Points>
        <DataArray type="Float64" NumberOfComponents="3" format="ascii">
          1.89777538e-01 -5.66898957e-02 0.00000000e+00 
2.00185493e-01 -5.73302582e-02 0.00000000e+00 
2.10598081e-01 -5.78906052e-02 0.00000000e+00 
2.21014455e-01 -5.83752058e-02 0.00000000e+00 

        </DataArray>
      </Points>
      <Cells>
        <DataArray type="Int32" Name="connectivity" format="ascii">
0 1
1 2
2 3

        </DataArray>
        <DataArray type="Int32" Name="offsets" format="ascii">
2 4 6 
        </DataArray>
        <DataArray type="UInt8" Name="types" format="ascii">
3 3 3 
        </DataArray>
      </Cells>
      <PointData>
        <DataArray type="Float64" Name="rho">
          9.35151146e-01 9.29387827e-01 9.24251802e-01 9.19682689e-01 
        </DataArray>
        <DataArray type="Float64" Name="rhou">
          6.90087014e-03 6.10048997e-03 5.51508394e-03 5.04175359e-03 
        </DataArray>
        <DataArray type="Float64" Name="rhov">
          -6.45540395e-04 -5.75267707e-04 -4.76131899e-04 -3.52901592e-04 
        </DataArray>
        <DataArray type="Float64" Name="E">
          2.12557545e+05 2.11193324e+05 2.09978677e+05 2.08899168e+05 
        </DataArray>
      </PointData>
    </Piece>
    <Piece NumberOfPoints="4" NumberOfCells="3">
      <Points>
        <DataArray type="Float64" NumberOfComponents="3" format="ascii">
          1.58592433e-01 -5.42296544e-02 0.00000000e+00 
1.68979734e-01 -5.51457107e-02 0.00000000e+00 
1.79375216e-01 -5.59638515e-02 0.00000000e+00 
1.89777538e-01 -5.66898957e-02 0.00000000e+00 

        </DataArray>
      </Points>
      <Cells>
        <DataArray type="Int32" Name="connectivity" format="ascii">
0 1
1 2
2 3

        </DataArray>
        <DataArray type="Int32" Name="offsets" format="ascii">
2 4 6 
        </DataArray>
        <DataArray type="UInt8" Name="types" format="ascii">
3 3 3 
        </DataArray>
      </Cells>
      <PointData>
        <DataArray type="Float64" Name="rho">
          9.56955053e-01 9.48875177e-01 9.41624127e-01 9.35151564e-01 
        </DataArray>
        <DataArray type="Float64" Name="rhou">
          9.95892345e-03 8.88453505e-03 7.93474803e-03 6.97204491e-03 
        </DataArray>
        <DataArray type="Float64" Name="rhov">
          -1.39570042e-03 -1.20465842e-03 -8.74329631e-04 -6.05079801e-04 
        </DataArray>
        <DataArray type="Float64" Name="E">
          2.17727605e+05 2.15810057e+05 2.14090912e+05 2.12557644e+05 
        </DataArray>
      </PointData>
    </Piece>
    <Piece NumberOfPoints="4" NumberOfCells="3">
      <Points>
        <DataArray type="Float64" NumberOfComponents="3" format="ascii">
          1.27497971e-01 -5.08146733e-02 0.00000000e+00 
1.37849152e-01 -5.20747155e-02 0.00000000e+00 
1.48214847e-01 -5.32093942e-02 0.00000000e+00 
1.58592433e-01 -5.42296544e-02 0.00000000e+00 

        </DataArray>
      </Points>
      <Cells>
        <DataArray type="Int32" Name="connectivity" format="ascii">
0 1
1 2
2 3

        </DataArray>
        <DataArray type="Int32" Name="offsets" format="ascii">
2 4 6 
        </DataArray>
        <DataArray type="UInt8" Name="types" format="ascii">
3 3 3 
        </DataArray>
      </Cells>
      <PointData>
        <DataArray type="Float64" Name="rho">
          9.87520456e-01 9.76146833e-01 9.65979148e-01 9.56959100e-01 
        </DataArray>
        <DataArray type="Float64" Name="rhou">
          1.44897591e-02 1.33113680e-02 1.15065361e-02 9.98735588e-03 
        </DataArray>
        <DataArray type="Float64" Name="rhov">
          -2.26960350e-03 -2.02289478e-03 -1.40848484e-03 -1.32376308e-03 
        </DataArray>
        <DataArray type="Float64" Name="E">
          2.24994194e+05 2.22287743e+05 2.19871023e+05 2.17728533e+05 
        </DataArray>
      </PointData>
    </Piece>
    <Piece NumberOfPoints="4" NumberOfCells="3">
      <Points>
        <DataArray type="Float64" NumberOfComponents="3" format="ascii">
          9.65642184e-02 -4.61716652e-02 0.00000000e+00 
1.06852271e-01 -4.78802323e-02 0.00000000e+00 
1.17164567e-01 -4.94215861e-02 0.00000000e+00 
1.27497971e-01 -5.08146733e-02 0.00000000e+00 

        </DataArray>
      </Points>
      <Cells>
        <DataArray type="Int32" Name="connectivity" format="ascii">
0 1
1 2
2 3

        </DataArray>
        <DataArray type="Int32" Name="offsets" format="ascii">
2 4 6 
        </DataArray>
        <DataArray type="UInt8" Name="types" format="ascii">
3 3 3 
        </DataArray>
      </Cells>
      <PointData>
        <DataArray type="Float64" Name="rho">
          1.03096028e+00 1.01463859e+00 1.00018774e+00 9.87528795e-01 
        </DataArray>
        <DataArray type="Float64" Name="rhou">
          2.46634267e-02 1.80789964e-02 1.71639761e-02 1.28474241e-02 
        </DataArray>
        <DataArray type="Float64" Name="rhov">
          -9.20683859e-04 -7.25559838e-04 -1.54740059e-03 -1.59070815e-03 
        </DataArray>
        <DataArray type="Float64" Name="E">
          2.35357007e+05 2.31458668e+05 2.28012365e+05 2.24996204e+05 
        </DataArray>
      </PointData>
    </Piece>
  </UnstructuredGrid>
</VTKFile>
