<?xml version="1.0"?>
<VTKFile type="UnstructuredGrid" version="0.1" byte_order="LittleEndian">
  <UnstructuredGrid>
    <Piece NumberOfPoints="4" NumberOfCells="3">
      <Points>
        <DataArray type="Float64" NumberOfComponents="3" format="ascii">
          9.65642184e-02 -4.61716652e-02 0.00000000e+00 
9.26280916e-02 -4.54656407e-02 0.00000000e+00 
8.86965096e-02 -4.47326750e-02 0.00000000e+00 
8.47706869e-02 -4.39694971e-02 0.00000000e+00 

        </DataArray>
      </Points>
      <Cells>
        <DataArray type="Int32" Name="connectivity" format="ascii">
0 1
1 2
2 3

        </DataArray>
        <DataArray type="Int32" Name="offsets" format="ascii">
2 4 6 
        </DataArray>
        <DataArray type="UInt8" Name="types" format="ascii">
3 3 3 
        </DataArray>
      </Cells>
      <PointData>
        <DataArray type="Float64" Name="rho">
          1.03128748e+00 1.03820462e+00 1.04543671e+00 1.05311616e+00 
        </DataArray>
        <DataArray type="Float64" Name="rhou">
          2.82619406e-02 2.17772918e-02 2.44246459e-02 2.46037934e-02 
        </DataArray>
        <DataArray type="Float64" Name="rhov">
          -2.22515687e-03 -1.01377697e-03 -6.05741301e-04 -9.20847652e-04 
        </DataArray>
        <DataArray type="Float64" Name="E">
          2.35426768e+05 2.37080309e+05 2.38810781e+05 2.40648644e+05 
        </DataArray>
      </PointData>
    </Piece>
    <Piece NumberOfPoints="4" NumberOfCells="3">
      <Points>
        <DataArray type="Float64" NumberOfComponents="3" format="ascii">
          8.47706869e-02 -4.39694971e-02 0.00000000e+00 
8.08513016e-02 -4.31745499e-02 0.00000000e+00 
7.69388378e-02 -4.23462167e-02 0.00000000e+00 
7.30340332e-02 -4.14824970e-02 0.00000000e+00 

        </DataArray>
      </Points>
      <Cells>
        <DataArray type="Int32" Name="connectivity" format="ascii">
0 1
1 2
2 3

        </DataArray>
        <DataArray type="Int32" Name="offsets" format="ascii">
2 4 6 
        </DataArray>
        <DataArray type="UInt8" Name="types" format="ascii">
3 3 3 
        </DataArray>
      </Cells>
      <PointData>
        <DataArray type="Float64" Name="rho">
          1.05311496e+00 1.06122295e+00 1.06979501e+00 1.07890086e+00 
        </DataArray>
        <DataArray type="Float64" Name="rhou">
          2.46948755e-02 2.38725546e-02 2.24660737e-02 2.09022216e-02 
        </DataArray>
        <DataArray type="Float64" Name="rhov">
          -7.26356556e-04 -5.19955127e-04 3.83745033e-04 1.57459989e-03 
        </DataArray>
        <DataArray type="Float64" Name="E">
          2.40648378e+05 2.42590766e+05 2.44645581e+05 2.46829563e+05 
        </DataArray>
      </PointData>
    </Piece>
    <Piece NumberOfPoints="4" NumberOfCells="3">
      <Points>
        <DataArray type="Float64" NumberOfComponents="3" format="ascii">
          7.30340332e-02 -4.14824970e-02 0.00000000e+00 
6.91377968e-02 -4.05809283e-02 0.00000000e+00 
6.52511865e-02 -3.96387354e-02 0.00000000e+00 
6.13753870e-02 -3.86530459e-02 0.00000000e+00 

        </DataArray>
      </Points>
      <Cells>
        <DataArray type="Int32" Name="connectivity" format="ascii">
0 1
1 2
2 3

        </DataArray>
        <DataArray type="Int32" Name="offsets" format="ascii">
2 4 6 
        </DataArray>
        <DataArray type="UInt8" Name="types" format="ascii">
3 3 3 
        </DataArray>
      </Cells>
      <PointData>
        <DataArray type="Float64" Name="rho">
          1.07890147e+00 1.08862485e+00 1.09899738e+00 1.11007858e+00 
        </DataArray>
        <DataArray type="Float64" Name="rhou">
          2.10202052e-02 1.86742622e-02 1.45801773e-02 9.08780352e-03 
        </DataArray>
        <DataArray type="Float64" Name="rhov">
          1.40927699e-03 2.14964718e-03 4.22476455e-03 7.40633385e-03 
        </DataArray>
        <DataArray type="Float64" Name="E">
          2.46829725e+05 2.49164021e+05 2.51655812e+05 2.54320091e+05 
        </DataArray>
      </PointData>
    </Piece>
    <Piece NumberOfPoints="4" NumberOfCells="3">
      <Points>
        <DataArray type="Float64" NumberOfComponents="3" format="ascii">
          6.13753870e-02 -3.86530459e-02 0.00000000e+00 
5.75117208e-02 -3.76208089e-02 0.00000000e+00 
5.36618084e-02 -3.65384258e-02 0.00000000e+00 
4.98276278e-02 -3.54015976e-02 0.00000000e+00 

        </DataArray>
      </Points>
      <Cells>
        <DataArray type="Int32" Name="connectivity" format="ascii">
0 1
1 2
2 3

        </DataArray>
        <DataArray type="Int32" Name="offsets" format="ascii">
2 4 6 
        </DataArray>
        <DataArray type="UInt8" Name="types" format="ascii">
3 3 3 
        </DataArray>
      </Cells>
      <PointData>
        <DataArray type="Float64" Name="rho">
          1.11007885e+00 1.12195162e+00 1.13470065e+00 1.14845732e+00 
        </DataArray>
        <DataArray type="Float64" Name="rhou">
          9.03177338e-03 1.98262154e-03 -7.22113968e-03 -1.87265178e-02 
        </DataArray>
        <DataArray type="Float64" Name="rhov">
          7.17862246e-03 1.18678526e-02 1.99255249e-02 3.13702383e-02 
        </DataArray>
        <DataArray type="Float64" Name="E">
          2.54320156e+05 2.57178703e+05 2.60250881e+05 2.63569192e+05 
        </DataArray>
      </PointData>
    </Piece>
    <Piece NumberOfPoints="4" NumberOfCells="3">
      <Points>
        <DataArray type="Float64" NumberOfComponents="3" format="ascii">
          4.98276278e-02 -3.54015976e-02 0.00000000e+00 
4.60115410e-02 -3.42054628e-02 0.00000000e+00 
4.22164090e-02 -3.29444520e-02 0.00000000e+00 
3.84457745e-02 -3.16120051e-02 0.00000000e+00 

        </DataArray>
      </Points>
      <Cells>
        <DataArray type="Int32" Name="connectivity" format="ascii">
0 1
1 2
2 3

        </DataArray>
        <DataArray type="Int32" Name="offsets" format="ascii">
2 4 6 
        </DataArray>
        <DataArray type="UInt8" Name="types" format="ascii">
3 3 3 
        </DataArray>
      </Cells>
      <PointData>
        <DataArray type="Float64" Name="rho">
          1.14845724e+00 1.16332154e+00 1.17940545e+00 1.19690044e+00 
        </DataArray>
        <DataArray type="Float64" Name="rhou">
          -1.91800046e-02 -3.33061592e-02 -5.22794104e-02 -7.49749949e-02 
        </DataArray>
        <DataArray type="Float64" Name="rhov">
          3.11558253e-02 4.77957505e-02 7.53974247e-02 1.15784247e-01 
        </DataArray>
        <DataArray type="Float64" Name="E">
          2.63569140e+05 2.67161149e+05 2.71052700e+05 2.75292027e+05 
        </DataArray>
      </PointData>
    </Piece>
    <Piece NumberOfPoints="4" NumberOfCells="3">
      <Points>
        <DataArray type="Float64" NumberOfComponents="3" format="ascii">
          3.84457745e-02 -3.16120051e-02 0.00000000e+00 
3.47041376e-02 -3.02002355e-02 0.00000000e+00 
3.09973080e-02 -2.86995135e-02 0.00000000e+00 
2.73328498e-02 -2.70981900e-02 0.00000000e+00 

        </DataArray>
      </Points>
      <Cells>
        <DataArray type="Int32" Name="connectivity" format="ascii">
0 1
1 2
2 3

        </DataArray>
        <DataArray type="Int32" Name="offsets" format="ascii">
2 4 6 
        </DataArray>
        <DataArray type="UInt8" Name="types" format="ascii">
3 3 3 
        </DataArray>
      </Cells>
      <PointData>
        <DataArray type="Float64" Name="rho">
          1.19690066e+00 1.21599619e+00 1.23688543e+00 1.25993985e+00 
        </DataArray>
        <DataArray type="Float64" Name="rhou">
          -7.59247859e-02 -1.00065217e-01 -1.28691643e-01 -1.54089909e-01 
        </DataArray>
        <DataArray type="Float64" Name="rhov">
          1.15703699e-01 1.71159637e-01 2.56940897e-01 3.77039427e-01 
        </DataArray>
        <DataArray type="Float64" Name="E">
          2.75291946e+05 2.79930914e+05 2.85014216e+05 2.90635943e+05 
        </DataArray>
      </PointData>
    </Piece>
    <Piece NumberOfPoints="4" NumberOfCells="3">
      <Points>
        <DataArray type="Float64" NumberOfComponents="3" format="ascii">
          2.73328498e-02 -2.70981900e-02 0.00000000e+00 
2.37206947e-02 -2.53822580e-02 0.00000000e+00 
2.01744195e-02 -2.35341713e-02 0.00000000e+00 
1.67132635e-02 -2.15314496e-02 0.00000000e+00 

        </DataArray>
      </Points>
      <Cells>
        <DataArray type="Int32" Name="connectivity" format="ascii">
0 1
1 2
2 3

        </DataArray>
        <DataArray type="Int32" Name="offsets" format="ascii">
2 4 6 
        </DataArray>
        <DataArray type="UInt8" Name="types" format="ascii">
3 3 3 
        </DataArray>
      </Cells>
      <PointData>
        <DataArray type="Float64" Name="rho">
          1.25994471e+00 1.28550410e+00 1.31402395e+00 1.34685037e+00 
        </DataArray>
        <DataArray type="Float64" Name="rhou">
          -1.54470040e-01 -1.68569450e-01 -1.52963187e-01 -5.71487328e-02 
        </DataArray>
        <DataArray type="Float64" Name="rhov">
          3.77713260e-01 5.29332594e-01 7.39713852e-01 9.57741845e-01 
        </DataArray>
        <DataArray type="Float64" Name="E">
          2.90636841e+05 2.96891534e+05 3.03883390e+05 3.11941021e+05 
        </DataArray>
      </PointData>
    </Piece>
    <Piece NumberOfPoints="4" NumberOfCells="3">
      <Points>
        <DataArray type="Float64" NumberOfComponents="3" format="ascii">
          1.67132635e-02 -2.15314496e-02 0.00000000e+00 
1.33649679e-02 -1.93456318e-02 0.00000000e+00 
1.01706637e-02 -1.69409402e-02 0.00000000e+00 
7.19343964e-03 -1.42731192e-02 0.00000000e+00 

        </DataArray>
      </Points>
      <Cells>
        <DataArray type="Int32" Name="connectivity" format="ascii">
0 1
1 2
2 3

        </DataArray>
        <DataArray type="Int32" Name="offsets" format="ascii">
2 4 6 
        </DataArray>
        <DataArray type="UInt8" Name="types" format="ascii">
3 3 3 
        </DataArray>
      </Cells>
      <PointData>
        <DataArray type="Float64" Name="rho">
          1.34674463e+00 1.38661230e+00 1.43385251e+00 1.49895968e+00 
        </DataArray>
        <DataArray type="Float64" Name="rhou">
          -3.46031674e-02 1.13551206e-01 4.54324274e-01 8.74060761e-01 
        </DataArray>
        <DataArray type="Float64" Name="rhov">
          9.19529455e-01 1.12221490e+00 1.06728943e+00 5.17686253e-01 
        </DataArray>
        <DataArray type="Float64" Name="E">
          3.11916855e+05 3.21705898e+05 3.33298022e+05 3.49159372e+05 
        </DataArray>
      </PointData>
    </Piece>
    <Piece NumberOfPoints="4" NumberOfCells="3">
      <Points>
        <DataArray type="Float64" NumberOfComponents="3" format="ascii">
          7.19343964e-03 -1.42731192e-02 0.00000000e+00 
4.53082798e-03 -1.12927537e-02 0.00000000e+00 
2.33371323e-03 -7.95678515e-03 0.00000000e+00 
8.10639584e-04 -4.26717056e-03 0.00000000e+00 

        </DataArray>
      </Points>
      <Cells>
        <DataArray type="Int32" Name="connectivity" format="ascii">
0 1
1 2
2 3

        </DataArray>
        <DataArray type="Int32" Name="offsets" format="ascii">
2 4 6 
        </DataArray>
        <DataArray type="UInt8" Name="types" format="ascii">
3 3 3 
        </DataArray>
      </Cells>
      <PointData>
        <DataArray type="Float64" Name="rho">
          1.49947884e+00 1.57391547e+00 1.66301551e+00 1.73173079e+00 
        </DataArray>
        <DataArray type="Float64" Name="rhou">
          7.99109010e-01 9.28761886e-01 2.57566746e-01 -1.27547077e+00 
        </DataArray>
        <DataArray type="Float64" Name="rhov">
          6.16375988e-01 -5.11490827e-01 -1.72838689e+00 -1.81584753e+00 
        </DataArray>
        <DataArray type="Float64" Name="E">
          3.49286571e+05 3.67456676e+05 3.89084018e+05 4.05786082e+05 
        </DataArray>
      </PointData>
    </Piece>
    <Piece NumberOfPoints="4" NumberOfCells="3">
      <Points>
        <DataArray type="Float64" NumberOfComponents="3" format="ascii">
          8.10639584e-04 -4.26717056e-03 0.00000000e+00 
1.91366620e-04 -3.27450951e-04 0.00000000e+00 
6.40850572e-04 3.63462302e-03 0.00000000e+00 
2.03182548e-03 7.37539819e-03 0.00000000e+00 

        </DataArray>
      </Points>
      <Cells>
        <DataArray type="Int32" Name="connectivity" format="ascii">
0 1
1 2
2 3

        </DataArray>
        <DataArray type="Int32" Name="offsets" format="ascii">
2 4 6 
        </DataArray>
        <DataArray type="UInt8" Name="types" format="ascii">
3 3 3 
        </DataArray>
      </Cells>
      <PointData>
        <DataArray type="Float64" Name="rho">
          1.73015489e+00 1.75509739e+00 1.70466169e+00 1.61219209e+00 
        </DataArray>
        <DataArray type="Float64" Name="rhou">
          -1.14993137e+00 -1.87806170e+00 -8.34102272e-01 7.52019909e-01 
        </DataArray>
        <DataArray type="Float64" Name="rhov">
          -1.97403863e+00 3.64962451e-01 1.88204909e+00 1.51376067e+00 
        </DataArray>
        <DataArray type="Float64" Name="E">
          4.05404534e+05 4.11375601e+05 3.99047258e+05 3.76465062e+05 
        </DataArray>
      </PointData>
    </Piece>
    <Piece NumberOfPoints="4" NumberOfCells="3">
      <Points>
        <DataArray type="Float64" NumberOfComponents="3" format="ascii">
          2.03182548e-03 7.37539819e-03 0.00000000e+00 
4.13410179e-03 1.07714310e-02 0.00000000e+00 
6.73249783e-03 1.38076087e-02 0.00000000e+00 
9.66598373e-03 1.65232457e-02 0.00000000e+00 

        </DataArray>
      </Points>
      <Cells>
        <DataArray type="Int32" Name="connectivity" format="ascii">
0 1
1 2
2 3

        </DataArray>
        <DataArray type="Int32" Name="offsets" format="ascii">
2 4 6 
        </DataArray>
        <DataArray type="UInt8" Name="types" format="ascii">
3 3 3 
        </DataArray>
      </Cells>
      <PointData>
        <DataArray type="Float64" Name="rho">
          1.61255446e+00 1.50541459e+00 1.41616830e+00 1.34920745e+00 
        </DataArray>
        <DataArray type="Float64" Name="rhou">
          7.24398612e-01 1.15437529e+00 8.39012901e-01 3.74521516e-01 
        </DataArray>
        <DataArray type="Float64" Name="rhov">
          1.74854099e+00 6.15622913e-02 -1.07489390e+00 -1.39901221e+00 
        </DataArray>
        <DataArray type="Float64" Name="E">
          3.76556226e+05 3.50548991e+05 3.28848406e+05 3.12485652e+05 
        </DataArray>
      </PointData>
    </Piece>
    <Piece NumberOfPoints="4" NumberOfCells="3">
      <Points>
        <DataArray type="Float64" NumberOfComponents="3" format="ascii">
          9.66598373e-03 1.65232457e-02 0.00000000e+00 
1.28298048e-02 1.89677756e-02 0.00000000e+00 
1.61561389e-02 2.11867876e-02 0.00000000e+00 
1.96009967e-02 2.32173651e-02 0.00000000e+00 

        </DataArray>
      </Points>
      <Cells>
        <DataArray type="Int32" Name="connectivity" format="ascii">
0 1
1 2
2 3

        </DataArray>
        <DataArray type="Int32" Name="offsets" format="ascii">
2 4 6 
        </DataArray>
        <DataArray type="UInt8" Name="types" format="ascii">
3 3 3 
        </DataArray>
      </Cells>
      <PointData>
        <DataArray type="Float64" Name="rho">
          1.34900211e+00 1.29652990e+00 1.25755315e+00 1.22324207e+00 
        </DataArray>
        <DataArray type="Float64" Name="rhou">
          3.84096195e-01 -1.72059919e-02 -1.98473650e-01 -2.18869947e-01 
        </DataArray>
        <DataArray type="Float64" Name="rhov">
          -1.42361476e+00 -1.31869518e+00 -9.88722442e-01 -6.63560881e-01 
        </DataArray>
        <DataArray type="Float64" Name="E">
          3.12433484e+05 2.99612140e+05 2.90038807e+05 2.81637577e+05 
        </DataArray>
      </PointData>
    </Piece>
    <Piece NumberOfPoints="4" NumberOfCells="3">
      <Points>
        <DataArray type="Float64" NumberOfComponents="3" format="ascii">
          1.96009967e-02 2.32173651e-02 0.00000000e+00 
2.31348258e-02 2.50891000e-02 0.00000000e+00 
2.67372411e-02 2.68253610e-02 0.00000000e+00 
3.03938854e-02 2.84444261e-02 0.00000000e+00 

        </DataArray>
      </Points>
      <Cells>
        <DataArray type="Int32" Name="connectivity" format="ascii">
0 1
1 2
2 3

        </DataArray>
        <DataArray type="Int32" Name="offsets" format="ascii">
2 4 6 
        </DataArray>
        <DataArray type="UInt8" Name="types" format="ascii">
3 3 3 
        </DataArray>
      </Cells>
      <PointData>
        <DataArray type="Float64" Name="rho">
          1.22330577e+00 1.19418319e+00 1.16813784e+00 1.14455128e+00 
        </DataArray>
        <DataArray type="Float64" Name="rhou">
          -2.31981292e-01 -2.18414415e-01 -1.73173926e-01 -1.30943837e-01 
        </DataArray>
        <DataArray type="Float64" Name="rhov">
          -6.81781168e-01 -4.30988968e-01 -2.44619633e-01 -1.32030155e-01 
        </DataArray>
        <DataArray type="Float64" Name="E">
          2.81652481e+05 2.74541189e+05 2.68204268e+05 2.62482654e+05 
        </DataArray>
      </PointData>
    </Piece>
    <Piece NumberOfPoints="4" NumberOfCells="3">
      <Points>
        <DataArray type="Float64" NumberOfComponents="3" format="ascii">
          3.03938854e-02 2.84444261e-02 0.00000000e+00 
3.40943485e-02 2.99607720e-02 0.00000000e+00 
3.78307216e-02 3.13864015e-02 0.00000000e+00 
4.15969416e-02 3.27312648e-02 0.00000000e+00 

        </DataArray>
      </Points>
      <Cells>
        <DataArray type="Int32" Name="connectivity" format="ascii">
0 1
1 2
2 3

        </DataArray>
        <DataArray type="Int32" Name="offsets" format="ascii">
2 4 6 
        </DataArray>
        <DataArray type="UInt8" Name="types" format="ascii">
3 3 3 
        </DataArray>
      </Cells>
      <PointData>
        <DataArray type="Float64" Name="rho">
          1.14454956e+00 1.12320859e+00 1.10382484e+00 1.08615517e+00 
        </DataArray>
        <DataArray type="Float64" Name="rhou">
          -1.29154435e-01 -8.90401850e-02 -5.62785694e-02 -3.33331083e-02 
        </DataArray>
        <DataArray type="Float64" Name="rhov">
          -1.30580173e-01 -5.45263306e-02 -7.50608072e-03 1.78491667e-02 
        </DataArray>
        <DataArray type="Float64" Name="E">
          2.62482503e+05 2.57324286e+05 2.52650444e+05 2.48397725e+05 
        </DataArray>
      </PointData>
    </Piece>
    <Piece NumberOfPoints="4" NumberOfCells="3">
      <Points>
        <DataArray type="Float64" NumberOfComponents="3" format="ascii">
          4.15969416e-02 3.27312648e-02 0.00000000e+00 
4.53883260e-02 3.40034962e-02 0.00000000e+00 
4.92011942e-02 3.52098532e-02 0.00000000e+00 
5.30325845e-02 3.63560505e-02 0.00000000e+00 

        </DataArray>
      </Points>
      <Cells>
        <DataArray type="Int32" Name="connectivity" format="ascii">
0 1
1 2
2 3

        </DataArray>
        <DataArray type="Int32" Name="offsets" format="ascii">
2 4 6 
        </DataArray>
        <DataArray type="UInt8" Name="types" format="ascii">
3 3 3 
        </DataArray>
      </Cells>
      <PointData>
        <DataArray type="Float64" Name="rho">
          1.08615574e+00 1.07001112e+00 1.05520311e+00 1.04157295e+00 
        </DataArray>
        <DataArray type="Float64" Name="rhou">
          -3.21972095e-02 -1.27841275e-02 1.63662661e-03 1.10051639e-02 
        </DataArray>
        <DataArray type="Float64" Name="rhov">
          1.77537110e-02 3.14165311e-02 3.80594223e-02 3.92064827e-02 
        </DataArray>
        <DataArray type="Float64" Name="E">
          2.48397935e+05 2.44520799e+05 2.40970188e+05 2.37706156e+05 
        </DataArray>
      </PointData>
    </Piece>
    <Piece NumberOfPoints="4" NumberOfCells="3">
      <Points>
        <DataArray type="Float64" NumberOfComponents="3" format="ascii">
          5.30325845e-02 3.63560505e-02 0.00000000e+00 
5.68800643e-02 3.74470428e-02 0.00000000e+00 
6.07415959e-02 3.84872220e-02 0.00000000e+00 
6.46155030e-02 3.94803248e-02 0.00000000e+00 

        </DataArray>
      </Points>
      <Cells>
        <DataArray type="Int32" Name="connectivity" format="ascii">
0 1
1 2
2 3

        </DataArray>
        <DataArray type="Int32" Name="offsets" format="ascii">
2 4 6 
        </DataArray>
        <DataArray type="UInt8" Name="types" format="ascii">
3 3 3 
        </DataArray>
      </Cells>
      <PointData>
        <DataArray type="Float64" Name="rho">
          1.04157365e+00 1.02903320e+00 1.01745012e+00 1.00668376e+00 
        </DataArray>
        <DataArray type="Float64" Name="rhou">
          1.13203939e-02 1.83036977e-02 2.38341462e-02 2.76583620e-02 
        </DataArray>
        <DataArray type="Float64" Name="rhov">
          3.88793560e-02 3.72083643e-02 3.51486208e-02 3.19183331e-02 
        </DataArray>
        <DataArray type="Float64" Name="E">
          2.37706313e+05 2.34707457e+05 2.31940364e+05 2.29370919e+05 
        </DataArray>
      </PointData>
    </Piece>
    <Piece NumberOfPoints="4" NumberOfCells="3">
      <Points>
        <DataArray type="Float64" NumberOfComponents="3" format="ascii">
          6.46155030e-02 3.94803248e-02 0.00000000e+00 
6.85004294e-02 4.04294394e-02 0.00000000e+00 
7.23951608e-02 4.13374715e-02 0.00000000e+00 
7.62986317e-02 4.22072113e-02 0.00000000e+00 

        </DataArray>
      </Points>
      <Cells>
        <DataArray type="Int32" Name="connectivity" format="ascii">
0 1
1 2
2 3

        </DataArray>
        <DataArray type="Int32" Name="offsets" format="ascii">
2 4 6 
        </DataArray>
        <DataArray type="UInt8" Name="types" format="ascii">
3 3 3 
        </DataArray>
      </Cells>
      <PointData>
        <DataArray type="Float64" Name="rho">
          1.00668447e+00 9.96693436e-01 9.87388225e-01 9.78713338e-01 
        </DataArray>
        <DataArray type="Float64" Name="rhou">
          2.74777482e-02 2.94173607e-02 3.05117735e-02 3.06018295e-02 
        </DataArray>
        <DataArray type="Float64" Name="rhov">
          3.16199514e-02 2.77128610e-02 2.43342646e-02 2.10244370e-02 
        </DataArray>
        <DataArray type="Float64" Name="E">
          2.29371065e+05 2.26989258e+05 2.24772781e+05 2.22707727e+05 
        </DataArray>
      </PointData>
    </Piece>
    <Piece NumberOfPoints="4" NumberOfCells="3">
      <Points>
        <DataArray type="Float64" NumberOfComponents="3" format="ascii">
          7.62986317e-02 4.22072113e-02 0.00000000e+00 
8.02098960e-02 4.30411920e-02 0.00000000e+00 
8.41281936e-02 4.38414887e-02 0.00000000e+00 
8.80528912e-02 4.46097627e-02 0.00000000e+00 

        </DataArray>
      </Points>
      <Cells>
        <DataArray type="Int32" Name="connectivity" format="ascii">
0 1
1 2
2 3

        </DataArray>
        <DataArray type="Int32" Name="offsets" format="ascii">
2 4 6 
        </DataArray>
        <DataArray type="UInt8" Name="types" format="ascii">
3 3 3 
        </DataArray>
      </Cells>
      <PointData>
        <DataArray type="Float64" Name="rho">
          9.78712393e-01 9.70621596e-01 9.63020059e-01 9.55862028e-01 
        </DataArray>
        <DataArray type="Float64" Name="rhou">
          3.04544938e-02 3.04777460e-02 3.02020224e-02 2.91381933e-02 
        </DataArray>
        <DataArray type="Float64" Name="rhov">
          2.08612377e-02 1.82996076e-02 1.57892853e-02 1.31086246e-02 
        </DataArray>
        <DataArray type="Float64" Name="E">
          2.22707491e+05 2.20782971e+05 2.18976104e+05 2.17275802e+05 
        </DataArray>
      </PointData>
    </Piece>
    <Piece NumberOfPoints="4" NumberOfCells="3">
      <Points>
        <DataArray type="Float64" NumberOfComponents="3" format="ascii">
          8.80528912e-02 4.46097627e-02 0.00000000e+00 
9.19835642e-02 4.53475714e-02 0.00000000e+00 
9.59195644e-02 4.60564308e-02 0.00000000e+00 
9.98597518e-02 4.67394181e-02 0.00000000e+00 

        </DataArray>
      </Points>
      <Cells>
        <DataArray type="Int32" Name="connectivity" format="ascii">
0 1
1 2
2 3

        </DataArray>
        <DataArray type="Int32" Name="offsets" format="ascii">
2 4 6 
        </DataArray>
        <DataArray type="UInt8" Name="types" format="ascii">
3 3 3 
        </DataArray>
      </Cells>
      <PointData>
        <DataArray type="Float64" Name="rho">
          9.55862536e-01 9.49137977e-01 9.42834265e-01 9.36851678e-01 
        </DataArray>
        <DataArray type="Float64" Name="rhou">
          2.89460897e-02 2.75231958e-02 2.40576938e-02 2.85645439e-02 
        </DataArray>
        <DataArray type="Float64" Name="rhov">
          1.32714499e-02 1.06965929e-02 9.11373430e-03 8.61394055e-03 
        </DataArray>
        <DataArray type="Float64" Name="E">
          2.17275920e+05 2.15679802e+05 2.14184010e+05 2.12765450e+05 
        </DataArray>
      </PointData>
    </Piece>
    <Piece NumberOfPoints="4" NumberOfCells="3">
      <Points>
        <DataArray type="Float64" NumberOfComponents="3" format="ascii">
          9.98597518e-02 4.67394181e-02 0.00000000e+00 
1.10118888e-01 4.83862534e-02 0.00000000e+00 
1.20400399e-01 4.98730615e-02 0.00000000e+00 
1.30701363e-01 5.12186773e-02 0.00000000e+00 

        </DataArray>
      </Points>
      <Cells>
        <DataArray type="Int32" Name="connectivity" format="ascii">
0 1
1 2
2 3

        </DataArray>
        <DataArray type="Int32" Name="offsets" format="ascii">
2 4 6 
        </DataArray>
        <DataArray type="UInt8" Name="types" format="ascii">
3 3 3 
        </DataArray>
      </Cells>
      <PointData>
        <DataArray type="Float64" Name="rho">
          9.36779109e-01 9.22826762e-01 9.10792553e-01 9.00449882e-01 
        </DataArray>
        <DataArray type="Float64" Name="rhou">
          2.62977069e-02 1.81353664e-02 1.60084339e-02 1.25492544e-02 
        </DataArray>
        <DataArray type="Float64" Name="rhov">
          7.38155765e-03 4.15681875e-03 3.64853175e-03 2.97852001e-03 
        </DataArray>
        <DataArray type="Float64" Name="E">
          2.12749060e+05 2.09444659e+05 2.06597963e+05 2.04153974e+05 
        </DataArray>
      </PointData>
    </Piece>
    <Piece NumberOfPoints="4" NumberOfCells="3">
      <Points>
        <DataArray type="Float64" NumberOfComponents="3" format="ascii">
          1.30701363e-01 5.12186773e-02 0.00000000e+00 
1.41019106e-01 5.24347536e-02 0.00000000e+00 
1.51350453e-01 5.35292812e-02 0.00000000e+00 
1.61692888e-01 5.45137413e-02 0.00000000e+00 

        </DataArray>
      </Points>
      <Cells>
        <DataArray type="Int32" Name="connectivity" format="ascii">
0 1
1 2
2 3

        </DataArray>
        <DataArray type="Int32" Name="offsets" format="ascii">
2 4 6 
        </DataArray>
        <DataArray type="UInt8" Name="types" format="ascii">
3 3 3 
        </DataArray>
      </Cells>
      <PointData>
        <DataArray type="Float64" Name="rho">
          9.00446396e-01 8.91368566e-01 8.83530871e-01 8.76824861e-01 
        </DataArray>
        <DataArray type="Float64" Name="rhou">
          1.39278765e-02 1.20337547e-02 9.96250665e-03 8.69907677e-03 
        </DataArray>
        <DataArray type="Float64" Name="rhov">
          3.47658772e-03 2.55281593e-03 1.77751842e-03 1.60207470e-03 
        </DataArray>
        <DataArray type="Float64" Name="E">
          2.04153137e+05 2.02011340e+05 2.00164478e+05 1.98585902e+05 
        </DataArray>
      </PointData>
    </Piece>
    <Piece NumberOfPoints="4" NumberOfCells="3">
      <Points>
        <DataArray type="Float64" NumberOfComponents="3" format="ascii">
          1.61692888e-01 5.45137413e-02 0.00000000e+00 
1.72044471e-01 5.53969070e-02 0.00000000e+00 
1.82403773e-01 5.61845005e-02 0.00000000e+00 
1.92769483e-01 5.68825118e-02 0.00000000e+00 

        </DataArray>
      </Points>
      <Cells>
        <DataArray type="Int32" Name="connectivity" format="ascii">
0 1
1 2
2 3

        </DataArray>
        <DataArray type="Int32" Name="offsets" format="ascii">
2 4 6 
        </DataArray>
        <DataArray type="UInt8" Name="types" format="ascii">
3 3 3 
        </DataArray>
      </Cells>
      <PointData>
        <DataArray type="Float64" Name="rho">
          8.76822460e-01 8.71053038e-01 8.66129457e-01 8.61998908e-01 
        </DataArray>
        <DataArray type="Float64" Name="rhou">
          8.73572592e-03 7.60631023e-03 6.57370046e-03 5.67285331e-03 
        </DataArray>
        <DataArray type="Float64" Name="rhov">
          1.65357995e-03 1.28968115e-03 9.12130418e-04 6.83778551e-04 
        </DataArray>
        <DataArray type="Float64" Name="E">
          1.98585364e+05 1.97229098e+05 1.96073573e+05 1.95105797e+05 
        </DataArray>
      </PointData>
    </Piece>
    <Piece NumberOfPoints="4" NumberOfCells="3">
      <Points>
        <DataArray type="Float64" NumberOfComponents="3" format="ascii">
          1.92769483e-01 5.68825118e-02 0.00000000e+00 
2.03140482e-01 5.74972220e-02 0.00000000e+00 
2.13515818e-01 5.80338500e-02 0.00000000e+00 
2.23894730e-01 5.84962890e-02 0.00000000e+00 

        </DataArray>
      </Points>
      <Cells>
        <DataArray type="Int32" Name="connectivity" format="ascii">
0 1
1 2
2 3

        </DataArray>
        <DataArray type="Int32" Name="offsets" format="ascii">
2 4 6 
        </DataArray>
        <DataArray type="UInt8" Name="types" format="ascii">
3 3 3 
        </DataArray>
      </Cells>
      <PointData>
        <DataArray type="Float64" Name="rho">
          8.61998220e-01 8.58580841e-01 8.55792513e-01 8.53574797e-01 
        </DataArray>
        <DataArray type="Float64" Name="rhou">
          5.70944002e-03 4.98932715e-03 4.43407559e-03 3.97471872e-03 
        </DataArray>
        <DataArray type="Float64" Name="rhov">
          7.25045575e-04 6.35292287e-04 5.19712758e-04 3.96911158e-04 
        </DataArray>
        <DataArray type="Float64" Name="E">
          1.95105638e+05 1.94306470e+05 1.93656118e+05 1.93140674e+05 
        </DataArray>
      </PointData>
    </Piece>
    <Piece NumberOfPoints="4" NumberOfCells="3">
      <Points>
        <DataArray type="Float64" NumberOfComponents="3" format="ascii">
          2.23894730e-01 5.84962890e-02 0.00000000e+00 
2.34276548e-01 5.88882305e-02 0.00000000e+00 
2.44660646e-01 5.92139624e-02 0.00000000e+00 
2.55046517e-01 5.94772622e-02 0.00000000e+00 

        </DataArray>
      </Points>
      <Cells>
        <DataArray type="Int32" Name="connectivity" format="ascii">
0 1
1 2
2 3

        </DataArray>
        <DataArray type="Int32" Name="offsets" format="ascii">
2 4 6 
        </DataArray>
        <DataArray type="UInt8" Name="types" format="ascii">
3 3 3 
        </DataArray>
      </Cells>
      <PointData>
        <DataArray type="Float64" Name="rho">
          8.53575366e-01 8.51885842e-01 8.50679874e-01 8.49901980e-01 
        </DataArray>
        <DataArray type="Float64" Name="rhou">
          3.98233157e-03 3.46231163e-03 3.08514498e-03 2.85638695e-03 
        </DataArray>
        <DataArray type="Float64" Name="rhov">
          4.11255278e-04 3.33157641e-04 3.15587914e-04 3.13786799e-04 
        </DataArray>
        <DataArray type="Float64" Name="E">
          1.93140804e+05 1.92750035e+05 1.92473291e+05 1.92297496e+05 
        </DataArray>
      </PointData>
    </Piece>
    <Piece NumberOfPoints="4" NumberOfCells="3">
      <Points>
        <DataArray type="Float64" NumberOfComponents="3" format="ascii">
          2.55046517e-01 5.94772622e-02 0.00000000e+00 
2.65433758e-01 5.96804135e-02 0.00000000e+00 
2.75821954e-01 5.98256700e-02 0.00000000e+00 
2.86210775e-01 5.99167012e-02 0.00000000e+00 

        </DataArray>
      </Points>
      <Cells>
        <DataArray type="Int32" Name="connectivity" format="ascii">
0 1
1 2
2 3

        </DataArray>
        <DataArray type="Int32" Name="offsets" format="ascii">
2 4 6 
        </DataArray>
        <DataArray type="UInt8" Name="types" format="ascii">
3 3 3 
        </DataArray>
      </Cells>
      <PointData>
        <DataArray type="Float64" Name="rho">
          8.49901992e-01 8.49503783e-01 8.49460443e-01 8.49751462e-01 
        </DataArray>
        <DataArray type="Float64" Name="rhou">
          2.85065587e-03 2.56477816e-03 2.27189208e-03 2.00938373e-03 
        </DataArray>
        <DataArray type="Float64" Name="rhov">
          3.25048232e-04 2.29610851e-04 1.71172245e-04 2.04397215e-04 
        </DataArray>
        <DataArray type="Float64" Name="E">
          1.92297503e+05 1.92211276e+05 1.92208668e+05 1.92284633e+05 
        </DataArray>
      </PointData>
    </Piece>
    <Piece NumberOfPoints="4" NumberOfCells="3">
      <Points>
        <DataArray type="Float64" NumberOfComponents="3" format="ascii">
          2.86210775e-01 5.99167012e-02 0.00000000e+00 
2.96599895e-01 5.99572174e-02 0.00000000e+00 
3.06989133e-01 5.99487796e-02 0.00000000e+00 
3.17378193e-01 5.98919280e-02 0.00000000e+00 

        </DataArray>
      </Points>
      <Cells>
        <DataArray type="Int32" Name="connectivity" format="ascii">
0 1
1 2
2 3

        </DataArray>
        <DataArray type="Int32" Name="offsets" format="ascii">
2 4 6 
        </DataArray>
        <DataArray type="UInt8" Name="types" format="ascii">
3 3 3 
        </DataArray>
      </Cells>
      <PointData>
        <DataArray type="Float64" Name="rho">
          8.49750444e-01 8.50326711e-01 8.51141433e-01 8.52179471e-01 
        </DataArray>
        <DataArray type="Float64" Name="rhou">
          2.02812122e-03 1.91297358e-03 1.78696073e-03 1.60593635e-03 
        </DataArray>
        <DataArray type="Float64" Name="rhov">
          2.20688515e-04 2.47343067e-04 1.92951163e-04 1.18606093e-04 
        </DataArray>
        <DataArray type="Float64" Name="E">
          1.92284402e+05 1.92427408e+05 1.92626632e+05 1.92878435e+05 
        </DataArray>
      </PointData>
    </Piece>
    <Piece NumberOfPoints="4" NumberOfCells="3">
      <Points>
        <DataArray type="Float64" NumberOfComponents="3" format="ascii">
          3.17378193e-01 5.98919280e-02 0.00000000e+00 
3.27766895e-01 5.97884916e-02 0.00000000e+00 
3.38155061e-01 5.96415885e-02 0.00000000e+00 
3.48542601e-01 5.94538599e-02 0.00000000e+00 

        </DataArray>
      </Points>
      <Cells>
        <DataArray type="Int32" Name="connectivity" format="ascii">
0 1
1 2
2 3

        </DataArray>
        <DataArray type="Int32" Name="offsets" format="ascii">
2 4 6 
        </DataArray>
        <DataArray type="UInt8" Name="types" format="ascii">
3 3 3 
        </DataArray>
      </Cells>
      <PointData>
        <DataArray type="Float64" Name="rho">
          8.52179816e-01 8.53428389e-01 8.54867276e-01 8.56463684e-01 
        </DataArray>
        <DataArray type="Float64" Name="rhou">
          1.63521381e-03 1.43991688e-03 1.32342820e-03 1.27684107e-03 
        </DataArray>
        <DataArray type="Float64" Name="rhov">
          1.26236911e-04 1.14582340e-04 1.39747781e-04 1.59939090e-04 
        </DataArray>
        <DataArray type="Float64" Name="E">
          1.92878513e+05 1.93179768e+05 1.93525657e+05 1.93908528e+05 
        </DataArray>
      </PointData>
    </Piece>
    <Piece NumberOfPoints="4" NumberOfCells="3">
      <Points>
        <DataArray type="Float64" NumberOfComponents="3" format="ascii">
          3.48542601e-01 5.94538599e-02 0.00000000e+00 
3.58929336e-01 5.92265576e-02 0.00000000e+00 
3.69315147e-01 5.89610897e-02 0.00000000e+00 
3.79699975e-01 5.86590059e-02 0.00000000e+00 

        </DataArray>
      </Points>
      <Cells>
        <DataArray type="Int32" Name="connectivity" format="ascii">
0 1
1 2
2 3

        </DataArray>
        <DataArray type="Int32" Name="offsets" format="ascii">
2 4 6 
        </DataArray>
        <DataArray type="UInt8" Name="types" format="ascii">
3 3 3 
        </DataArray>
      </Cells>
      <PointData>
        <DataArray type="Float64" Name="rho">
          8.56463929e-01 8.58192427e-01 8.60043322e-01 8.61996787e-01 
        </DataArray>
        <DataArray type="Float64" Name="rhou">
          1.28908632e-03 1.16545288e-03 1.07184627e-03 1.02364318e-03 
        </DataArray>
        <DataArray type="Float64" Name="rhov">
          1.56879702e-04 1.20711760e-04 1.13011242e-04 1.11171087e-04 
        </DataArray>
        <DataArray type="Float64" Name="E">
          1.93908584e+05 1.94322495e+05 1.94765100e+05 1.95231768e+05 
        </DataArray>
      </PointData>
    </Piece>
    <Piece NumberOfPoints="4" NumberOfCells="3">
      <Points>
        <DataArray type="Float64" NumberOfComponents="3" format="ascii">
          3.79699975e-01 5.86590059e-02 0.00000000e+00 
3.90083700e-01 5.83211333e-02 0.00000000e+00 
4.00466233e-01 5.79482466e-02 0.00000000e+00 
4.10847515e-01 5.75418957e-02 0.00000000e+00 

        </DataArray>
      </Points>
      <Cells>
        <DataArray type="Int32" Name="connectivity" format="ascii">
0 1
1 2
2 3

        </DataArray>
        <DataArray type="Int32" Name="offsets" format="ascii">
2 4 6 
        </DataArray>
        <DataArray type="UInt8" Name="types" format="ascii">
3 3 3 
        </DataArray>
      </Cells>
      <PointData>
        <DataArray type="Float64" Name="rho">
          8.61996799e-01 8.64036013e-01 8.66151080e-01 8.68335467e-01 
        </DataArray>
        <DataArray type="Float64" Name="rhou">
          1.01597968e-03 9.51749398e-04 8.73150399e-04 7.97313332e-04 
        </DataArray>
        <DataArray type="Float64" Name="rhov">
          1.13602738e-04 8.32076160e-05 6.02799864e-05 6.53949865e-05 
        </DataArray>
        <DataArray type="Float64" Name="E">
          1.95231772e+05 1.95718572e+05 1.96223167e+05 1.96743968e+05 
        </DataArray>
      </PointData>
    </Piece>
    <Piece NumberOfPoints="4" NumberOfCells="3">
      <Points>
        <DataArray type="Float64" NumberOfComponents="3" format="ascii">
          4.10847515e-01 5.75418957e-02 0.00000000e+00 
4.21227485e-01 5.71038015e-02 0.00000000e+00 
4.31606144e-01 5.66351078e-02 0.00000000e+00 
4.41983402e-01 5.61364293e-02 0.00000000e+00 

        </DataArray>
      </Points>
      <Cells>
        <DataArray type="Int32" Name="connectivity" format="ascii">
0 1
1 2
2 3

        </DataArray>
        <DataArray type="Int32" Name="offsets" format="ascii">
2 4 6 
        </DataArray>
        <DataArray type="UInt8" Name="types" format="ascii">
3 3 3 
        </DataArray>
      </Cells>
      <PointData>
        <DataArray type="Float64" Name="rho">
          8.68335267e-01 8.70573451e-01 8.72853842e-01 8.75166833e-01 
        </DataArray>
        <DataArray type="Float64" Name="rhou">
          8.13772871e-04 7.62120376e-04 7.22946920e-04 6.85705653e-04 
        </DataArray>
        <DataArray type="Float64" Name="rhov">
          6.88119930e-05 6.87593481e-05 5.90582777e-05 3.80165263e-05 
        </DataArray>
        <DataArray type="Float64" Name="E">
          1.96743923e+05 1.97277308e+05 1.97820574e+05 1.98371474e+05 
        </DataArray>
      </PointData>
    </Piece>
    <Piece NumberOfPoints="4" NumberOfCells="3">
      <Points>
        <DataArray type="Float64" NumberOfComponents="3" format="ascii">
          4.41983402e-01 5.61364293e-02 0.00000000e+00 
4.52359200e-01 5.56085743e-02 0.00000000e+00 
4.62733537e-01 5.50529286e-02 0.00000000e+00 
4.73106444e-01 5.44707514e-02 0.00000000e+00 

        </DataArray>
      </Points>
      <Cells>
        <DataArray type="Int32" Name="connectivity" format="ascii">
0 1
1 2
2 3

        </DataArray>
        <DataArray type="Int32" Name="offsets" format="ascii">
2 4 6 
        </DataArray>
        <DataArray type="UInt8" Name="types" format="ascii">
3 3 3 
        </DataArray>
      </Cells>
      <PointData>
        <DataArray type="Float64" Name="rho">
          8.75166975e-01 8.77508170e-01 8.79871178e-01 8.82247593e-01 
        </DataArray>
        <DataArray type="Float64" Name="rhou">
          6.82729254e-04 6.26812633e-04 5.86720783e-04 5.63033268e-04 
        </DataArray>
        <DataArray type="Float64" Name="rhov">
          3.86653178e-05 3.11784379e-05 3.15553974e-05 3.17012951e-05 
        </DataArray>
        <DataArray type="Float64" Name="E">
          1.98371507e+05 1.98928980e+05 1.99491515e+05 2.00057151e+05 
        </DataArray>
      </PointData>
    </Piece>
    <Piece NumberOfPoints="4" NumberOfCells="3">
      <Points>
        <DataArray type="Float64" NumberOfComponents="3" format="ascii">
          4.73106444e-01 5.44707514e-02 0.00000000e+00 
4.83477861e-01 5.38627952e-02 0.00000000e+00 
4.93847787e-01 5.32294959e-02 0.00000000e+00 
5.04216135e-01 5.25716618e-02 0.00000000e+00 

        </DataArray>
      </Points>
      <Cells>
        <DataArray type="Int32" Name="connectivity" format="ascii">
0 1
1 2
2 3

        </DataArray>
        <DataArray type="Int32" Name="offsets" format="ascii">
2 4 6 
        </DataArray>
        <DataArray type="UInt8" Name="types" format="ascii">
3 3 3 
        </DataArray>
      </Cells>
      <PointData>
        <DataArray type="Float64" Name="rho">
          8.82247580e-01 8.84630619e-01 8.87014980e-01 8.89399598e-01 
        </DataArray>
        <DataArray type="Float64" Name="rhou">
          5.55489310e-04 5.34322660e-04 4.99084912e-04 4.57332462e-04 
        </DataArray>
        <DataArray type="Float64" Name="rhov">
          3.35066341e-05 2.21558703e-05 7.36977922e-06 4.74693278e-06 
        </DataArray>
        <DataArray type="Float64" Name="E">
          2.00057149e+05 2.00624302e+05 2.01191733e+05 2.01759164e+05 
        </DataArray>
      </PointData>
    </Piece>
    <Piece NumberOfPoints="4" NumberOfCells="3">
      <Points>
        <DataArray type="Float64" NumberOfComponents="3" format="ascii">
          5.04216135e-01 5.25716618e-02 0.00000000e+00 
5.14582992e-01 5.18903993e-02 0.00000000e+00 
5.24948359e-01 5.11864908e-02 0.00000000e+00 
5.35312176e-01 5.04603274e-02 0.00000000e+00 

        </DataArray>
      </Points>
      <Cells>
        <DataArray type="Int32" Name="connectivity" format="ascii">
0 1
1 2
2 3

        </DataArray>
        <DataArray type="Int32" Name="offsets" format="ascii">
2 4 6 
        </DataArray>
        <DataArray type="UInt8" Name="types" format="ascii">
3 3 3 
        </DataArray>
      </Cells>
      <PointData>
        <DataArray type="Float64" Name="rho">
          8.89399513e-01 8.91779057e-01 8.94149133e-01 8.96506334e-01 
        </DataArray>
        <DataArray type="Float64" Name="rhou">
          4.65824450e-04 4.39589894e-04 4.19728788e-04 4.00202550e-04 
        </DataArray>
        <DataArray type="Float64" Name="rhov">
          6.89799532e-06 6.53074722e-06 1.15527180e-06 -1.05932952e-05 
        </DataArray>
        <DataArray type="Float64" Name="E">
          2.01759145e+05 2.02325332e+05 2.02889250e+05 2.03450104e+05 
        </DataArray>
      </PointData>
    </Piece>
    <Piece NumberOfPoints="4" NumberOfCells="3">
      <Points>
        <DataArray type="Float64" NumberOfComponents="3" format="ascii">
          5.35312176e-01 5.04603274e-02 0.00000000e+00 
5.45674443e-01 4.97124642e-02 0.00000000e+00 
5.56035221e-01 4.89437394e-02 0.00000000e+00 
5.66394389e-01 4.81546782e-02 0.00000000e+00 

        </DataArray>
      </Points>
      <Cells>
        <DataArray type="Int32" Name="connectivity" format="ascii">
0 1
1 2
2 3

        </DataArray>
        <DataArray type="Int32" Name="offsets" format="ascii">
2 4 6 
        </DataArray>
        <DataArray type="UInt8" Name="types" format="ascii">
3 3 3 
        </DataArray>
      </Cells>
      <PointData>
        <DataArray type="Float64" Name="rho">
          8.96506378e-01 8.98850093e-01 9.01177475e-01 9.03485727e-01 
        </DataArray>
        <DataArray type="Float64" Name="rhou">
          3.95976800e-04 3.69483460e-04 3.50959023e-04 3.39010462e-04 
        </DataArray>
        <DataArray type="Float64" Name="rhov">
          -1.03079677e-05 -1.10251635e-05 -1.17444521e-05 -1.59446711e-05 
        </DataArray>
        <DataArray type="Float64" Name="E">
          2.03450114e+05 2.04007743e+05 2.04561482e+05 2.05110679e+05 
        </DataArray>
      </PointData>
    </Piece>
    <Piece NumberOfPoints="4" NumberOfCells="3">
      <Points>
        <DataArray type="Float64" NumberOfComponents="3" format="ascii">
          5.66394389e-01 4.81546782e-02 0.00000000e+00 
5.76752067e-01 4.73455116e-02 0.00000000e+00 
5.87108195e-01 4.65166979e-02 0.00000000e+00 
5.97462773e-01 4.56690118e-02 0.00000000e+00 

        </DataArray>
      </Points>
      <Cells>
        <DataArray type="Int32" Name="connectivity" format="ascii">
0 1
1 2
2 3

        </DataArray>
        <DataArray type="Int32" Name="offsets" format="ascii">
2 4 6 
        </DataArray>
        <DataArray type="UInt8" Name="types" format="ascii">
3 3 3 
        </DataArray>
      </Cells>
      <PointData>
        <DataArray type="Float64" Name="rho">
          9.03485756e-01 9.05773262e-01 9.08039758e-01 9.10284406e-01 
        </DataArray>
        <DataArray type="Float64" Name="rhou">
          3.38345021e-04 3.17891928e-04 2.96765143e-04 2.80613532e-04 
        </DataArray>
        <DataArray type="Float64" Name="rhov">
          -1.56077631e-05 -2.41550050e-05 -2.76552278e-05 -2.64524153e-05 
        </DataArray>
        <DataArray type="Float64" Name="E">
          2.05110686e+05 2.05654963e+05 2.06194247e+05 2.06728334e+05 
        </DataArray>
      </PointData>
    </Piece>
    <Piece NumberOfPoints="4" NumberOfCells="3">
      <Points>
        <DataArray type="Float64" NumberOfComponents="3" format="ascii">
          5.97462773e-01 4.56690118e-02 0.00000000e+00 
6.07815862e-01 4.48031016e-02 0.00000000e+00 
6.18167400e-01 4.39192392e-02 0.00000000e+00 
6.28517449e-01 4.30175588e-02 0.00000000e+00 

        </DataArray>
      </Points>
      <Cells>
        <DataArray type="Int32" Name="connectivity" format="ascii">
0 1
1 2
2 3

        </DataArray>
        <DataArray type="Int32" Name="offsets" format="ascii">
2 4 6 
        </DataArray>
        <DataArray type="UInt8" Name="types" format="ascii">
3 3 3 
        </DataArray>
      </Cells>
      <PointData>
        <DataArray type="Float64" Name="rho">
          9.10284344e-01 9.12505322e-01 9.14700889e-01 9.16871252e-01 
        </DataArray>
        <DataArray type="Float64" Name="rhou">
          2.78700451e-04 2.69878314e-04 2.57789491e-04 2.40483962e-04 
        </DataArray>
        <DataArray type="Float64" Name="rhov">
          -2.55351745e-05 -2.59656051e-05 -3.15016998e-05 -3.67940347e-05 
        </DataArray>
        <DataArray type="Float64" Name="E">
          2.06728321e+05 2.07256789e+05 2.07779237e+05 2.08295704e+05 
        </DataArray>
      </PointData>
    </Piece>
    <Piece NumberOfPoints="4" NumberOfCells="3">
      <Points>
        <DataArray type="Float64" NumberOfComponents="3" format="ascii">
          6.28517449e-01 4.30175588e-02 0.00000000e+00 
6.38865948e-01 4.20984775e-02 0.00000000e+00 
6.49212897e-01 4.11624312e-02 0.00000000e+00 
6.59558356e-01 4.02097441e-02 0.00000000e+00 

        </DataArray>
      </Points>
      <Cells>
        <DataArray type="Int32" Name="connectivity" format="ascii">
0 1
1 2
2 3

        </DataArray>
        <DataArray type="Int32" Name="offsets" format="ascii">
2 4 6 
        </DataArray>
        <DataArray type="UInt8" Name="types" format="ascii">
3 3 3 
        </DataArray>
      </Cells>
      <PointData>
        <DataArray type="Float64" Name="rho">
          9.16871244e-01 9.19016267e-01 9.21135160e-01 9.23227654e-01 
        </DataArray>
        <DataArray type="Float64" Name="rhou">
          2.41453017e-04 2.28588555e-04 2.17551533e-04 2.05682233e-04 
        </DataArray>
        <DataArray type="Float64" Name="rhov">
          -3.57872184e-05 -3.64401302e-05 -3.82416906e-05 -4.04182311e-05 
        </DataArray>
        <DataArray type="Float64" Name="E">
          2.08295702e+05 2.08806153e+05 2.09310403e+05 2.09808387e+05 
        </DataArray>
      </PointData>
    </Piece>
    <Piece NumberOfPoints="4" NumberOfCells="3">
      <Points>
        <DataArray type="Float64" NumberOfComponents="3" format="ascii">
          6.59558356e-01 4.02097441e-02 0.00000000e+00 
6.69902325e-01 3.92407738e-02 0.00000000e+00 
6.80244744e-01 3.82556282e-02 0.00000000e+00 
6.90585554e-01 3.72543521e-02 0.00000000e+00 

        </DataArray>
      </Points>
      <Cells>
        <DataArray type="Int32" Name="connectivity" format="ascii">
0 1
1 2
2 3

        </DataArray>
        <DataArray type="Int32" Name="offsets" format="ascii">
2 4 6 
        </DataArray>
        <DataArray type="UInt8" Name="types" format="ascii">
3 3 3 
        </DataArray>
      </Cells>
      <PointData>
        <DataArray type="Float64" Name="rho">
          9.23227637e-01 9.25293769e-01 9.27332443e-01 9.29344483e-01 
        </DataArray>
        <DataArray type="Float64" Name="rhou">
          2.02504577e-04 1.97359004e-04 1.88637836e-04 1.73946932e-04 
        </DataArray>
        <DataArray type="Float64" Name="rhov">
          -3.93939623e-05 -3.93276166e-05 -4.37218930e-05 -4.73060574e-05 
        </DataArray>
        <DataArray type="Float64" Name="E">
          2.09808384e+05 2.10300109e+05 2.10785325e+05 2.11264217e+05 
        </DataArray>
      </PointData>
    </Piece>
    <Piece NumberOfPoints="4" NumberOfCells="3">
      <Points>
        <DataArray type="Float64" NumberOfComponents="3" format="ascii">
          6.90585554e-01 3.72543521e-02 0.00000000e+00 
7.00924933e-01 3.62373814e-02 0.00000000e+00 
7.11262703e-01 3.52048986e-02 0.00000000e+00 
7.21598923e-01 3.41568366e-02 0.00000000e+00 

        </DataArray>
      </Points>
      <Cells>
        <DataArray type="Int32" Name="connectivity" format="ascii">
0 1
1 2
2 3

        </DataArray>
        <DataArray type="Int32" Name="offsets" format="ascii">
2 4 6 
        </DataArray>
        <DataArray type="UInt8" Name="types" format="ascii">
3 3 3 
        </DataArray>
      </Cells>
      <PointData>
        <DataArray type="Float64" Name="rho">
          9.29344441e-01 9.31330282e-01 9.33288764e-01 9.35220550e-01 
        </DataArray>
        <DataArray type="Float64" Name="rhou">
          1.72578485e-04 1.67370549e-04 1.61986173e-04 1.48862503e-04 
        </DataArray>
        <DataArray type="Float64" Name="rhov">
          -4.62003200e-05 -4.36657768e-05 -4.69302035e-05 -5.15973850e-05 
        </DataArray>
        <DataArray type="Float64" Name="E">
          2.11264208e+05 2.11736875e+05 2.12203054e+05 2.12662895e+05 
        </DataArray>
      </PointData>
    </Piece>
    <Piece NumberOfPoints="4" NumberOfCells="3">
      <Points>
        <DataArray type="Float64" NumberOfComponents="3" format="ascii">
          7.21598923e-01 3.41568366e-02 0.00000000e+00 
7.31933594e-01 3.30936089e-02 0.00000000e+00 
7.42266715e-01 3.20154354e-02 0.00000000e+00 
7.52598286e-01 3.09220124e-02 0.00000000e+00 

        </DataArray>
      </Points>
      <Cells>
        <DataArray type="Int32" Name="connectivity" format="ascii">
0 1
1 2
2 3

        </DataArray>
        <DataArray type="Int32" Name="offsets" format="ascii">
2 4 6 
        </DataArray>
        <DataArray type="UInt8" Name="types" format="ascii">
3 3 3 
        </DataArray>
      </Cells>
      <PointData>
        <DataArray type="Float64" Name="rho">
          9.35220530e-01 9.37126667e-01 9.39005840e-01 9.40858584e-01 
        </DataArray>
        <DataArray type="Float64" Name="rhou">
          1.46242425e-04 1.41918541e-04 1.38814267e-04 1.28334825e-04 
        </DataArray>
        <DataArray type="Float64" Name="rhov">
          -5.06388574e-05 -4.61287699e-05 -4.83359335e-05 -5.33607144e-05 
        </DataArray>
        <DataArray type="Float64" Name="E">
          2.12662891e+05 2.13116633e+05 2.13563978e+05 2.14005049e+05 
        </DataArray>
      </PointData>
    </Piece>
    <Piece NumberOfPoints="4" NumberOfCells="3">
      <Points>
        <DataArray type="Float64" NumberOfComponents="3" format="ascii">
          7.52598286e-01 3.09220124e-02 0.00000000e+00 
7.62928188e-01 2.98135038e-02 0.00000000e+00 
7.73256481e-01 2.86899786e-02 0.00000000e+00 
7.83583105e-01 2.75512449e-02 0.00000000e+00 

        </DataArray>
      </Points>
      <Cells>
        <DataArray type="Int32" Name="connectivity" format="ascii">
0 1
1 2
2 3

        </DataArray>
        <DataArray type="Int32" Name="offsets" format="ascii">
2 4 6 
        </DataArray>
        <DataArray type="UInt8" Name="types" format="ascii">
3 3 3 
        </DataArray>
      </Cells>
      <PointData>
        <DataArray type="Float64" Name="rho">
          9.40858579e-01 9.42686054e-01 9.44487473e-01 9.46263547e-01 
        </DataArray>
        <DataArray type="Float64" Name="rhou">
          1.25794371e-04 1.21841513e-04 1.17745539e-04 1.08198353e-04 
        </DataArray>
        <DataArray type="Float64" Name="rhov">
          -5.24556557e-05 -5.01064647e-05 -5.22315068e-05 -5.53830513e-05 
        </DataArray>
        <DataArray type="Float64" Name="E">
          2.14005048e+05 2.14440110e+05 2.14868984e+05 2.15291832e+05 
        </DataArray>
      </PointData>
    </Piece>
    <Piece NumberOfPoints="4" NumberOfCells="3">
      <Points>
        <DataArray type="Float64" NumberOfComponents="3" format="ascii">
          7.83583105e-01 2.75512449e-02 0.00000000e+00 
7.93908060e-01 2.63975188e-02 0.00000000e+00 
8.04231405e-01 2.52291560e-02 0.00000000e+00 
8.14553022e-01 2.40457114e-02 0.00000000e+00 

        </DataArray>
      </Points>
      <Cells>
        <DataArray type="Int32" Name="connectivity" format="ascii">
0 1
1 2
2 3

        </DataArray>
        <DataArray type="Int32" Name="offsets" format="ascii">
2 4 6 
        </DataArray>
        <DataArray type="UInt8" Name="types" format="ascii">
3 3 3 
        </DataArray>
      </Cells>
      <PointData>
        <DataArray type="Float64" Name="rho">
          9.46263553e-01 9.48015052e-01 9.49741909e-01 9.51443500e-01 
        </DataArray>
        <DataArray type="Float64" Name="rhou">
          1.10742499e-04 9.99786455e-05 9.86884608e-05 9.93964929e-05 
        </DataArray>
        <DataArray type="Float64" Name="rhov">
          -5.57327759e-05 -5.20236300e-05 -5.07294579e-05 -5.70691962e-05 
        </DataArray>
        <DataArray type="Float64" Name="E">
          2.15291834e+05 2.15708830e+05 2.16119958e+05 2.16525074e+05 
        </DataArray>
      </PointData>
    </Piece>
    <Piece NumberOfPoints="4" NumberOfCells="3">
      <Points>
        <DataArray type="Float64" NumberOfComponents="3" format="ascii">
          8.14553022e-01 2.40457114e-02 0.00000000e+00 
8.24872792e-01 2.28467938e-02 0.00000000e+00 
8.35190892e-01 2.16327831e-02 0.00000000e+00 
8.45507145e-01 2.04038676e-02 0.00000000e+00 

        </DataArray>
      </Points>
      <Cells>
        <DataArray type="Int32" Name="connectivity" format="ascii">
0 1
1 2
2 3

        </DataArray>
        <DataArray type="Int32" Name="offsets" format="ascii">
2 4 6 
        </DataArray>
        <DataArray type="UInt8" Name="types" format="ascii">
3 3 3 
        </DataArray>
      </Cells>
      <PointData>
        <DataArray type="Float64" Name="rho">
          9.51443543e-01 9.53121521e-01 9.54776180e-01 9.56407671e-01 
        </DataArray>
        <DataArray type="Float64" Name="rhou">
          9.35982946e-05 8.52737187e-05 7.81931152e-05 7.85736509e-05 
        </DataArray>
        <DataArray type="Float64" Name="rhov">
          -5.73288921e-05 -5.72015695e-05 -5.43878841e-05 -5.05243520e-05 
        </DataArray>
        <DataArray type="Float64" Name="E">
          2.16525084e+05 2.16924561e+05 2.17318458e+05 2.17706804e+05 
        </DataArray>
      </PointData>
    </Piece>
    <Piece NumberOfPoints="4" NumberOfCells="3">
      <Points>
        <DataArray type="Float64" NumberOfComponents="3" format="ascii">
          8.45507145e-01 2.04038676e-02 0.00000000e+00 
8.55821550e-01 1.91591792e-02 0.00000000e+00 
8.66134048e-01 1.78987328e-02 0.00000000e+00 
8.76444638e-01 1.66228991e-02 0.00000000e+00 

        </DataArray>
      </Points>
      <Cells>
        <DataArray type="Int32" Name="connectivity" format="ascii">
0 1
1 2
2 3

        </DataArray>
        <DataArray type="Int32" Name="offsets" format="ascii">
2 4 6 
        </DataArray>
        <DataArray type="UInt8" Name="types" format="ascii">
3 3 3 
        </DataArray>
      </Cells>
      <PointData>
        <DataArray type="Float64" Name="rho">
          9.56407781e-01 9.58014774e-01 9.59601091e-01 9.61163296e-01 
        </DataArray>
        <DataArray type="Float64" Name="rhou">
          9.95953461e-05 6.84659955e-05 6.68795669e-05 8.25144967e-05 
        </DataArray>
        <DataArray type="Float64" Name="rhov">
          -5.41165808e-05 -6.14244730e-05 -5.88877234e-05 -7.64284065e-05 
        </DataArray>
        <DataArray type="Float64" Name="E">
          2.17706829e+05 2.18089315e+05 2.18466798e+05 2.18838486e+05 
        </DataArray>
      </PointData>
    </Piece>
    <Piece NumberOfPoints="4" NumberOfCells="3">
      <Points>
        <DataArray type="Float64" NumberOfComponents="3" format="ascii">
          8.76444638e-01 1.66228991e-02 0.00000000e+00 
8.86753201e-01 1.53310820e-02 0.00000000e+00 
8.97059798e-01 1.40233757e-02 0.00000000e+00 
9.07364249e-01 1.26988320e-02 0.00000000e+00 

        </DataArray>
      </Points>
      <Cells>
        <DataArray type="Int32" Name="connectivity" format="ascii">
0 1
1 2
2 3

        </DataArray>
        <DataArray type="Int32" Name="offsets" format="ascii">
2 4 6 
        </DataArray>
        <DataArray type="UInt8" Name="types" format="ascii">
3 3 3 
        </DataArray>
      </Cells>
      <PointData>
        <DataArray type="Float64" Name="rho">
          9.61162850e-01 9.62707541e-01 9.64227233e-01 9.65740557e-01 
        </DataArray>
        <DataArray type="Float64" Name="rhou">
          -8.96917535e-06 8.28306095e-05 2.76138581e-05 -2.52514747e-05 
        </DataArray>
        <DataArray type="Float64" Name="rhov">
          -6.85047469e-05 -7.20598733e-05 -9.10903632e-05 6.99969650e-06 
        </DataArray>
        <DataArray type="Float64" Name="E">
          2.18838384e+05 2.19205772e+05 2.19567153e+05 2.19926774e+05 
        </DataArray>
      </PointData>
    </Piece>
    <Piece NumberOfPoints="4" NumberOfCells="3">
      <Points>
        <DataArray type="Float64" NumberOfComponents="3" format="ascii">
          9.07364249e-01 1.26988320e-02 0.00000000e+00 
9.17666554e-01 1.13577880e-02 0.00000000e+00 
9.27966774e-01 1.00004105e-02 0.00000000e+00 
9.38264549e-01 8.62528384e-03 0.00000000e+00 

        </DataArray>
      </Points>
      <Cells>
        <DataArray type="Int32" Name="connectivity" format="ascii">
0 1
1 2
2 3

        </DataArray>
        <DataArray type="Int32" Name="offsets" format="ascii">
2 4 6 
        </DataArray>
        <DataArray type="UInt8" Name="types" format="ascii">
3 3 3 
        </DataArray>
      </Cells>
      <PointData>
        <DataArray type="Float64" Name="rho">
          9.65745394e-01 9.67210067e-01 9.68698735e-01 9.70041162e-01 
        </DataArray>
        <DataArray type="Float64" Name="rhou">
          7.80211491e-04 -2.22529783e-04 3.24601143e-04 7.47001015e-04 
        </DataArray>
        <DataArray type="Float64" Name="rhov">
          -6.21147611e-05 -1.15150197e-04 -4.52152709e-05 -1.45508147e-03 
        </DataArray>
        <DataArray type="Float64" Name="E">
          2.19927875e+05 2.20276133e+05 2.20629625e+05 2.20949686e+05 
        </DataArray>
      </PointData>
    </Piece>
    <Piece NumberOfPoints="4" NumberOfCells="3">
      <Points>
        <DataArray type="Float64" NumberOfComponents="3" format="ascii">
          9.38264549e-01 8.62528384e-03 0.00000000e+00 
9.48560059e-01 7.23283459e-03 0.00000000e+00 
9.58853185e-01 5.82307298e-03 0.00000000e+00 
9.69143867e-01 4.39538015e-03 0.00000000e+00 

        </DataArray>
      </Points>
      <Cells>
        <DataArray type="Int32" Name="connectivity" format="ascii">
0 1
1 2
2 3

        </DataArray>
        <DataArray type="Int32" Name="offsets" format="ascii">
2 4 6 
        </DataArray>
        <DataArray type="UInt8" Name="types" format="ascii">
3 3 3 
        </DataArray>
      </Cells>
      <PointData>
        <DataArray type="Float64" Name="rho">
          9.69993929e-01 9.71654671e-01 9.72904284e-01 9.75591937e-01 
        </DataArray>
        <DataArray type="Float64" Name="rhou">
          -6.65534054e-03 2.10880502e-03 -3.15073814e-03 -1.88955502e-02 
        </DataArray>
        <DataArray type="Float64" Name="rhov">
          -1.08259670e-03 1.28559176e-04 -1.12647288e-03 1.87982991e-02 
        </DataArray>
        <DataArray type="Float64" Name="E">
          2.20938929e+05 2.21331529e+05 2.21630824e+05 2.22258401e+05 
        </DataArray>
      </PointData>
    </Piece>
    <Piece NumberOfPoints="4" NumberOfCells="3">
      <Points>
        <DataArray type="Float64" NumberOfComponents="3" format="ascii">
          9.69143867e-01 4.39538015e-03 0.00000000e+00 
9.79435980e-01 2.94816052e-03 0.00000000e+00 
9.89725590e-01 1.48259092e-03 0.00000000e+00 
1.00000000e+00 0.00000000e+00 0.00000000e+00 

        </DataArray>
      </Points>
      <Cells>
        <DataArray type="Int32" Name="connectivity" format="ascii">
0 1
1 2
2 3

        </DataArray>
        <DataArray type="Int32" Name="offsets" format="ascii">
2 4 6 
        </DataArray>
        <DataArray type="UInt8" Name="types" format="ascii">
3 3 3 
        </DataArray>
      </Cells>
      <PointData>
        <DataArray type="Float64" Name="rho">
          9.75884718e-01 9.75502605e-01 9.79310214e-01 9.69495753e-01 
        </DataArray>
        <DataArray type="Float64" Name="rhou">
          -1.47128096e-03 -9.50811165e-03 -3.73365340e-02 4.91988669e-01 
        </DataArray>
        <DataArray type="Float64" Name="rhov">
          2.11363368e-02 9.69828700e-04 5.20339223e-02 -1.36205358e-01 
        </DataArray>
        <DataArray type="Float64" Name="E">
          2.22325084e+05 2.22254582e+05 2.23140333e+05 2.20925875e+05 
        </DataArray>
      </PointData>
    </Piece>
    <Piece NumberOfPoints="4" NumberOfCells="3">
      <Points>
        <DataArray type="Float64" NumberOfComponents="3" format="ascii">
          9.69029665e-01 -4.41133138e-03 0.00000000e+00 
9.79355037e-01 -2.95961346e-03 0.00000000e+00 
9.89677846e-01 -1.48943183e-03 0.00000000e+00 
1.00000000e+00 0.00000000e+00 0.00000000e+00 

        </DataArray>
      </Points>
      <Cells>
        <DataArray type="Int32" Name="connectivity" format="ascii">
0 1
1 2
2 3

        </DataArray>
        <DataArray type="Int32" Name="offsets" format="ascii">
2 4 6 
        </DataArray>
        <DataArray type="UInt8" Name="types" format="ascii">
3 3 3 
        </DataArray>
      </Cells>
      <PointData>
        <DataArray type="Float64" Name="rho">
          9.74698763e-01 9.74391854e-01 9.78157717e-01 9.69609075e-01 
        </DataArray>
        <DataArray type="Float64" Name="rhou">
          -8.90629706e-04 -7.47929773e-03 -3.51410609e-02 4.52613401e-01 
        </DataArray>
        <DataArray type="Float64" Name="rhov">
          -2.31101394e-02 2.00788781e-03 -4.82265793e-02 1.41137985e-01 
        </DataArray>
        <DataArray type="Float64" Name="E">
          2.22067775e+05 2.22011134e+05 2.22883356e+05 2.20952439e+05 
        </DataArray>
      </PointData>
    </Piece>
    <Piece NumberOfPoints="4" NumberOfCells="3">
      <Points>
        <DataArray type="Float64" NumberOfComponents="3" format="ascii">
          9.38035965e-01 -8.65600072e-03 0.00000000e+00 
9.48369622e-01 -7.25875143e-03 0.00000000e+00 
9.58700895e-01 -5.84406452e-03 0.00000000e+00 
9.69029665e-01 -4.41133138e-03 0.00000000e+00 

        </DataArray>
      </Points>
      <Cells>
        <DataArray type="Int32" Name="connectivity" format="ascii">
0 1
1 2
2 3

        </DataArray>
        <DataArray type="Int32" Name="offsets" format="ascii">
2 4 6 
        </DataArray>
        <DataArray type="UInt8" Name="types" format="ascii">
3 3 3 
        </DataArray>
      </Cells>
      <PointData>
        <DataArray type="Float64" Name="rho">
          9.68959615e-01 9.70580812e-01 9.71807621e-01 9.74411777e-01 
        </DataArray>
        <DataArray type="Float64" Name="rhou">
          -6.25761216e-03 2.26194692e-03 -2.59905403e-03 -1.68949608e-02 
        </DataArray>
        <DataArray type="Float64" Name="rhov">
          1.08228127e-03 -1.68866975e-04 1.32256535e-03 -1.72741388e-02 
        </DataArray>
        <DataArray type="Float64" Name="E">
          2.20721961e+05 2.21104211e+05 2.21396445e+05 2.22002422e+05 
        </DataArray>
      </PointData>
    </Piece>
    <Piece NumberOfPoints="4" NumberOfCells="3">
      <Points>
        <DataArray type="Float64" NumberOfComponents="3" format="ascii">
          9.07021165e-01 -1.27432076e-02 0.00000000e+00 
9.17361677e-01 -1.13977119e-02 0.00000000e+00 
9.27700043e-01 -1.00357840e-02 0.00000000e+00 
9.38035965e-01 -8.65600072e-03 0.00000000e+00 

        </DataArray>
      </Points>
      <Cells>
        <DataArray type="Int32" Name="connectivity" format="ascii">
0 1
1 2
2 3

        </DataArray>
        <DataArray type="Int32" Name="offsets" format="ascii">
2 4 6 
        </DataArray>
        <DataArray type="UInt8" Name="types" format="ascii">
3 3 3 
        </DataArray>
      </Cells>
      <PointData>
        <DataArray type="Float64" Name="rho">
          9.64841175e-01 9.66254497e-01 9.67698444e-01 9.69005543e-01 
        </DataArray>
        <DataArray type="Float64" Name="rhou">
          9.00797368e-04 -7.76709653e-05 4.78309684e-04 8.64794878e-04 
        </DataArray>
        <DataArray type="Float64" Name="rhov">
          4.89692288e-05 7.56055782e-05 -9.53319983e-06 1.36598018e-03 
        </DataArray>
        <DataArray type="Float64" Name="E">
          2.19742731e+05 2.20078718e+05 2.20421333e+05 2.20732415e+05 
        </DataArray>
      </PointData>
    </Piece>
    <Piece NumberOfPoints="4" NumberOfCells="3">
      <Points>
        <DataArray type="Float64" NumberOfComponents="3" format="ascii">
          8.75986874e-01 -1.66798849e-02 0.00000000e+00 
8.86333704e-01 -1.53839625e-02 0.00000000e+00 
8.96678507e-01 -1.40720531e-02 0.00000000e+00 
9.07021165e-01 -1.27432076e-02 0.00000000e+00 

        </DataArray>
      </Points>
      <Cells>
        <DataArray type="Int32" Name="connectivity" format="ascii">
0 1
1 2
2 3

        </DataArray>
        <DataArray type="Int32" Name="offsets" format="ascii">
2 4 6 
        </DataArray>
        <DataArray type="UInt8" Name="types" format="ascii">
3 3 3 
        </DataArray>
      </Cells>
      <PointData>
        <DataArray type="Float64" Name="rho">
          9.60484035e-01 9.61942408e-01 9.63387724e-01 9.64836353e-01 
        </DataArray>
        <DataArray type="Float64" Name="rhou">
          1.43756190e-04 2.22269348e-04 1.75253192e-04 1.23764526e-04 
        </DataArray>
        <DataArray type="Float64" Name="rhov">
          6.70591778e-05 5.86846520e-05 7.35435951e-05 -1.89087260e-05 
        </DataArray>
        <DataArray type="Float64" Name="E">
          2.18706470e+05 2.19053484e+05 2.19397309e+05 2.19741634e+05 
        </DataArray>
      </PointData>
    </Piece>
    <Piece NumberOfPoints="4" NumberOfCells="3">
      <Points>
        <DataArray type="Float64" NumberOfComponents="3" format="ascii">
          8.44934702e-01 -2.04724707e-02 0.00000000e+00 
8.55287313e-01 -1.92240477e-02 0.00000000e+00 
8.65638077e-01 -1.79597028e-02 0.00000000e+00 
8.75986874e-01 -1.66798849e-02 0.00000000e+00 

        </DataArray>
      </Points>
      <Cells>
        <DataArray type="Int32" Name="connectivity" format="ascii">
0 1
1 2
2 3

        </DataArray>
        <DataArray type="Int32" Name="offsets" format="ascii">
2 4 6 
        </DataArray>
        <DataArray type="UInt8" Name="types" format="ascii">
3 3 3 
        </DataArray>
      </Cells>
      <PointData>
        <DataArray type="Float64" Name="rho">
          9.56069503e-01 9.57547993e-01 9.59022024e-01 9.60484451e-01 
        </DataArray>
        <DataArray type="Float64" Name="rhou">
          2.76018855e-04 2.17518704e-04 2.05333657e-04 2.42901309e-04 
        </DataArray>
        <DataArray type="Float64" Name="rhov">
          4.22109688e-05 6.24494037e-05 5.20121570e-05 7.00867594e-05 
        </DataArray>
        <DataArray type="Float64" Name="E">
          2.17655471e+05 2.18007533e+05 2.18358447e+05 2.18706565e+05 
        </DataArray>
      </PointData>
    </Piece>
    <Piece NumberOfPoints="4" NumberOfCells="3">
      <Points>
        <DataArray type="Float64" NumberOfComponents="3" format="ascii">
          8.13865662e-01 -2.41250079e-02 0.00000000e+00 
8.24223816e-01 -2.29226518e-02 0.00000000e+00 
8.34580123e-01 -2.17050612e-02 0.00000000e+00 
8.44934702e-01 -2.04724707e-02 0.00000000e+00 

        </DataArray>
      </Points>
      <Cells>
        <DataArray type="Int32" Name="connectivity" format="ascii">
0 1
1 2
2 3

        </DataArray>
        <DataArray type="Int32" Name="offsets" format="ascii">
2 4 6 
        </DataArray>
        <DataArray type="UInt8" Name="types" format="ascii">
3 3 3 
        </DataArray>
      </Cells>
      <PointData>
        <DataArray type="Float64" Name="rho">
          9.51574420e-01 9.53080018e-01 9.54578537e-01 9.56069276e-01 
        </DataArray>
        <DataArray type="Float64" Name="rhou">
          2.52946099e-04 2.37625999e-04 2.22496469e-04 2.27705095e-04 
        </DataArray>
        <DataArray type="Float64" Name="rhov">
          5.36530619e-05 5.43060922e-05 4.67899995e-05 3.48289699e-05 
        </DataArray>
        <DataArray type="Float64" Name="E">
          2.16585078e+05 2.16943619e+05 2.17300456e+05 2.17655420e+05 
        </DataArray>
      </PointData>
    </Piece>
    <Piece NumberOfPoints="4" NumberOfCells="3">
      <Points>
        <DataArray type="Float64" NumberOfComponents="3" format="ascii">
          7.82780826e-01 -2.76402626e-02 0.00000000e+00 
7.93144107e-01 -2.64833923e-02 0.00000000e+00 
8.03505778e-01 -2.53117718e-02 0.00000000e+00 
8.13865662e-01 -2.41250079e-02 0.00000000e+00 

        </DataArray>
      </Points>
      <Cells>
        <DataArray type="Int32" Name="connectivity" format="ascii">
0 1
1 2
2 3

        </DataArray>
        <DataArray type="Int32" Name="offsets" format="ascii">
2 4 6 
        </DataArray>
        <DataArray type="UInt8" Name="types" format="ascii">
3 3 3 
        </DataArray>
      </Cells>
      <PointData>
        <DataArray type="Float64" Name="rho">
          9.47010000e-01 9.48539351e-01 9.50061713e-01 9.51574312e-01 
        </DataArray>
        <DataArray type="Float64" Name="rhou">
          2.74429291e-04 2.53491703e-04 2.53053979e-04 2.62226721e-04 
        </DataArray>
        <DataArray type="Float64" Name="rhov">
          5.07365449e-05 4.23003897e-05 3.77798069e-05 5.19298224e-05 
        </DataArray>
        <DataArray type="Float64" Name="E">
          2.15498146e+05 2.15862323e+05 2.16224838e+05 2.16585054e+05 
        </DataArray>
      </PointData>
    </Piece>
    <Piece NumberOfPoints="4" NumberOfCells="3">
      <Points>
        <DataArray type="Float64" NumberOfComponents="3" format="ascii">
          7.51680970e-01 -3.10197193e-02 0.00000000e+00 
7.62049198e-01 -2.99084149e-02 0.00000000e+00 
7.72415876e-01 -2.87819952e-02 0.00000000e+00 
7.82780826e-01 -2.76402626e-02 0.00000000e+00 

        </DataArray>
      </Points>
      <Cells>
        <DataArray type="Int32" Name="connectivity" format="ascii">
0 1
1 2
2 3

        </DataArray>
        <DataArray type="Int32" Name="offsets" format="ascii">
2 4 6 
        </DataArray>
        <DataArray type="UInt8" Name="types" format="ascii">
3 3 3 
        </DataArray>
      </Cells>
      <PointData>
        <DataArray type="Float64" Name="rho">
          9.42382976e-01 9.43932403e-01 9.45474634e-01 9.47009964e-01 
        </DataArray>
        <DataArray type="Float64" Name="rhou">
          2.88295746e-04 2.84043179e-04 2.78536504e-04 2.64312824e-04 
        </DataArray>
        <DataArray type="Float64" Name="rhov">
          4.38657523e-05 3.72234525e-05 4.10015147e-05 4.85543055e-05 
        </DataArray>
        <DataArray type="Float64" Name="E">
          2.14396369e+05 2.14765298e+05 2.15132533e+05 2.15498137e+05 
        </DataArray>
      </PointData>
    </Piece>
    <Piece NumberOfPoints="4" NumberOfCells="3">
      <Points>
        <DataArray type="Float64" NumberOfComponents="3" format="ascii">
          7.20566452e-01 -3.42622213e-02 0.00000000e+00 
7.30939507e-01 -3.31965312e-02 0.00000000e+00 
7.41311073e-01 -3.21157984e-02 0.00000000e+00 
7.51680970e-01 -3.10197193e-02 0.00000000e+00 

        </DataArray>
      </Points>
      <Cells>
        <DataArray type="Int32" Name="connectivity" format="ascii">
0 1
1 2
2 3

        </DataArray>
        <DataArray type="Int32" Name="offsets" format="ascii">
2 4 6 
        </DataArray>
        <DataArray type="UInt8" Name="types" format="ascii">
3 3 3 
        </DataArray>
      </Cells>
      <PointData>
        <DataArray type="Float64" Name="rho">
          9.37703330e-01 9.39269180e-01 9.40829245e-01 9.42382967e-01 
        </DataArray>
        <DataArray type="Float64" Name="rhou">
          3.14574373e-04 3.07669528e-04 3.04800092e-04 2.91685033e-04 
        </DataArray>
        <DataArray type="Float64" Name="rhov">
          4.06091416e-05 2.97291355e-05 3.24123912e-05 4.42906256e-05 
        </DataArray>
        <DataArray type="Float64" Name="E">
          2.13282151e+05 2.13654960e+05 2.14026408e+05 2.14396367e+05 
        </DataArray>
      </PointData>
    </Piece>
    <Piece NumberOfPoints="4" NumberOfCells="3">
      <Points>
        <DataArray type="Float64" NumberOfComponents="3" format="ascii">
          6.89437866e-01 -3.73662710e-02 0.00000000e+00 
6.99815631e-01 -3.63472365e-02 0.00000000e+00 
7.10191846e-01 -3.53125818e-02 0.00000000e+00 
7.20566452e-01 -3.42622213e-02 0.00000000e+00 

        </DataArray>
      </Points>
      <Cells>
        <DataArray type="Int32" Name="connectivity" format="ascii">
0 1
1 2
2 3

        </DataArray>
        <DataArray type="Int32" Name="offsets" format="ascii">
2 4 6 
        </DataArray>
        <DataArray type="UInt8" Name="types" format="ascii">
3 3 3 
        </DataArray>
      </Cells>
      <PointData>
        <DataArray type="Float64" Name="rho">
          9.32988574e-01 9.34563723e-01 9.36135412e-01 9.37703341e-01 
        </DataArray>
        <DataArray type="Float64" Name="rhou">
          3.47900115e-04 3.40598191e-04 3.33610191e-04 3.15746277e-04 
        </DataArray>
        <DataArray type="Float64" Name="rhov">
          3.28123701e-05 2.55602547e-05 3.01803377e-05 4.08174217e-05 
        </DataArray>
        <DataArray type="Float64" Name="E">
          2.12159615e+05 2.12534630e+05 2.12908834e+05 2.13282154e+05 
        </DataArray>
      </PointData>
    </Piece>
    <Piece NumberOfPoints="4" NumberOfCells="3">
      <Points>
        <DataArray type="Float64" NumberOfComponents="3" format="ascii">
          6.58295333e-01 -4.03269380e-02 0.00000000e+00 
6.68677747e-01 -3.93563360e-02 0.00000000e+00 
6.79058611e-01 -3.83694395e-02 0.00000000e+00 
6.89437866e-01 -3.73662710e-02 0.00000000e+00 

        </DataArray>
      </Points>
      <Cells>
        <DataArray type="Int32" Name="connectivity" format="ascii">
0 1
1 2
2 3

        </DataArray>
        <DataArray type="Int32" Name="offsets" format="ascii">
2 4 6 
        </DataArray>
        <DataArray type="UInt8" Name="types" format="ascii">
3 3 3 
        </DataArray>
      </Cells>
      <PointData>
        <DataArray type="Float64" Name="rho">
          9.28261482e-01 9.29837742e-01 9.31413428e-01 9.32988628e-01 
        </DataArray>
        <DataArray type="Float64" Name="rhou">
          3.84994954e-04 3.79359925e-04 3.66705588e-04 3.46155467e-04 
        </DataArray>
        <DataArray type="Float64" Name="rhov">
          2.18377153e-05 1.88006548e-05 2.54425495e-05 3.35293712e-05 
        </DataArray>
        <DataArray type="Float64" Name="E">
          2.11034138e+05 2.11409425e+05 2.11784585e+05 2.12159627e+05 
        </DataArray>
      </PointData>
    </Piece>
    <Piece NumberOfPoints="4" NumberOfCells="3">
      <Points>
        <DataArray type="Float64" NumberOfComponents="3" format="ascii">
          6.27138972e-01 -4.31386717e-02 0.00000000e+00 
6.37525976e-01 -4.22184542e-02 0.00000000e+00 
6.47911429e-01 -4.12811004e-02 0.00000000e+00 
6.58295333e-01 -4.03269380e-02 0.00000000e+00 

        </DataArray>
      </Points>
      <Cells>
        <DataArray type="Int32" Name="connectivity" format="ascii">
0 1
1 2
2 3

        </DataArray>
        <DataArray type="Int32" Name="offsets" format="ascii">
2 4 6 
        </DataArray>
        <DataArray type="UInt8" Name="types" format="ascii">
3 3 3 
        </DataArray>
      </Cells>
      <PointData>
        <DataArray type="Float64" Name="rho">
          9.23552402e-01 9.25117679e-01 9.26687962e-01 9.28261515e-01 
        </DataArray>
        <DataArray type="Float64" Name="rhou">
          4.36302592e-04 4.17663823e-04 4.00537750e-04 3.86026066e-04 
        </DataArray>
        <DataArray type="Float64" Name="rhov">
          1.83349379e-05 1.72807059e-05 1.86834265e-05 2.26729339e-05 
        </DataArray>
        <DataArray type="Float64" Name="E">
          2.09912879e+05 2.10285594e+05 2.10659486e+05 2.11034146e+05 
        </DataArray>
      </PointData>
    </Piece>
    <Piece NumberOfPoints="4" NumberOfCells="3">
      <Points>
        <DataArray type="Float64" NumberOfComponents="3" format="ascii">
          5.95968783e-01 -4.57924642e-02 0.00000000e+00 
6.06360376e-01 -4.49259281e-02 0.00000000e+00 
6.16750479e-01 -4.40412909e-02 0.00000000e+00 
6.27138972e-01 -4.31386717e-02 0.00000000e+00 

        </DataArray>
      </Points>
      <Cells>
        <DataArray type="Int32" Name="connectivity" format="ascii">
0 1
1 2
2 3

        </DataArray>
        <DataArray type="Int32" Name="offsets" format="ascii">
2 4 6 
        </DataArray>
        <DataArray type="UInt8" Name="types" format="ascii">
3 3 3 
        </DataArray>
      </Cells>
      <PointData>
        <DataArray type="Float64" Name="rho">
          9.18904854e-01 9.20445106e-01 9.21994683e-01 9.23552395e-01 
        </DataArray>
        <DataArray type="Float64" Name="rhou">
          4.81022598e-04 4.69024573e-04 4.51908331e-04 4.29974823e-04 
        </DataArray>
        <DataArray type="Float64" Name="rhov">
          6.34957081e-06 3.24836907e-06 9.68844985e-06 1.90951791e-05 
        </DataArray>
        <DataArray type="Float64" Name="E">
          2.08806095e+05 2.09172912e+05 2.09541935e+05 2.09912877e+05 
        </DataArray>
      </PointData>
    </Piece>
    <Piece NumberOfPoints="4" NumberOfCells="3">
      <Points>
        <DataArray type="Float64" NumberOfComponents="3" format="ascii">
          5.64784765e-01 -4.82786149e-02 0.00000000e+00 
5.75181007e-01 -4.74695377e-02 0.00000000e+00 
5.85575700e-01 -4.66405638e-02 0.00000000e+00 
5.95968783e-01 -4.57924642e-02 0.00000000e+00 

        </DataArray>
      </Points>
      <Cells>
        <DataArray type="Int32" Name="connectivity" format="ascii">
0 1
1 2
2 3

        </DataArray>
        <DataArray type="Int32" Name="offsets" format="ascii">
2 4 6 
        </DataArray>
        <DataArray type="UInt8" Name="types" format="ascii">
3 3 3 
        </DataArray>
      </Cells>
      <PointData>
        <DataArray type="Float64" Name="rho">
          9.14377322e-01 9.15868221e-01 9.17378040e-01 9.18904966e-01 
        </DataArray>
        <DataArray type="Float64" Name="rhou">
          5.57090870e-04 5.30994147e-04 4.98345549e-04 4.74969137e-04 
        </DataArray>
        <DataArray type="Float64" Name="rhov">
          -5.19323700e-06 6.06272996e-06 1.07682631e-05 7.22049173e-06 
        </DataArray>
        <DataArray type="Float64" Name="E">
          2.07727556e+05 2.08082768e+05 2.08442436e+05 2.08806121e+05 
        </DataArray>
      </PointData>
    </Piece>
    <Piece NumberOfPoints="4" NumberOfCells="3">
      <Points>
        <DataArray type="Float64" NumberOfComponents="3" format="ascii">
          5.33586800e-01 -5.05827516e-02 0.00000000e+00 
5.43987691e-01 -4.98356484e-02 0.00000000e+00 
5.54387033e-01 -4.90674041e-02 0.00000000e+00 
5.64784765e-01 -4.82786149e-02 0.00000000e+00 

        </DataArray>
      </Points>
      <Cells>
        <DataArray type="Int32" Name="connectivity" format="ascii">
0 1
1 2
2 3

        </DataArray>
        <DataArray type="Int32" Name="offsets" format="ascii">
2 4 6 
        </DataArray>
        <DataArray type="UInt8" Name="types" format="ascii">
3 3 3 
        </DataArray>
      </Cells>
      <PointData>
        <DataArray type="Float64" Name="rho">
          9.10042029e-01 9.11459799e-01 9.12906690e-01 9.14377281e-01 
        </DataArray>
        <DataArray type="Float64" Name="rhou">
          6.31231232e-04 5.91772682e-04 5.63200684e-04 5.51573906e-04 
        </DataArray>
        <DataArray type="Float64" Name="rhov">
          -4.14147682e-06 -4.17675235e-06 -7.27503495e-06 -4.88394013e-06 
        </DataArray>
        <DataArray type="Float64" Name="E">
          2.06694329e+05 2.07032302e+05 2.07377128e+05 2.07727546e+05 
        </DataArray>
      </PointData>
    </Piece>
    <Piece NumberOfPoints="4" NumberOfCells="3">
      <Points>
        <DataArray type="Float64" NumberOfComponents="3" format="ascii">
          5.02374947e-01 -5.26902266e-02 0.00000000e+00 
5.12780428e-01 -5.20105064e-02 0.00000000e+00 
5.23184419e-01 -5.13078682e-02 0.00000000e+00 
5.33586800e-01 -5.05827516e-02 0.00000000e+00 

        </DataArray>
      </Points>
      <Cells>
        <DataArray type="Int32" Name="connectivity" format="ascii">
0 1
1 2
2 3

        </DataArray>
        <DataArray type="Int32" Name="offsets" format="ascii">
2 4 6 
        </DataArray>
        <DataArray type="UInt8" Name="types" format="ascii">
3 3 3 
        </DataArray>
      </Cells>
      <PointData>
        <DataArray type="Float64" Name="rho">
          9.05997932e-01 9.07307339e-01 9.08657364e-01 9.10041934e-01 
        </DataArray>
        <DataArray type="Float64" Name="rhou">
          7.12602245e-04 6.76492568e-04 6.49034294e-04 6.28581355e-04 
        </DataArray>
        <DataArray type="Float64" Name="rhov">
          -1.34556243e-05 -1.98510308e-05 -1.84274799e-05 -4.64523194e-06 
        </DataArray>
        <DataArray type="Float64" Name="E">
          2.05729724e+05 2.06042149e+05 2.06364149e+05 2.06694307e+05 
        </DataArray>
      </PointData>
    </Piece>
    <Piece NumberOfPoints="4" NumberOfCells="3">
      <Points>
        <DataArray type="Float64" NumberOfComponents="3" format="ascii">
          4.71149325e-01 -5.45825884e-02 0.00000000e+00 
4.81559396e-01 -5.39771840e-02 0.00000000e+00 
4.91967946e-01 -5.33461571e-02 0.00000000e+00 
5.02374947e-01 -5.26902266e-02 0.00000000e+00 

        </DataArray>
      </Points>
      <Cells>
        <DataArray type="Int32" Name="connectivity" format="ascii">
0 1
1 2
2 3

        </DataArray>
        <DataArray type="Int32" Name="offsets" format="ascii">
2 4 6 
        </DataArray>
        <DataArray type="UInt8" Name="types" format="ascii">
3 3 3 
        </DataArray>
      </Cells>
      <PointData>
        <DataArray type="Float64" Name="rho">
          9.02375366e-01 9.03528188e-01 9.04736111e-01 9.05998021e-01 
        </DataArray>
        <DataArray type="Float64" Name="rhou">
          8.19247244e-04 7.96486431e-04 7.49821496e-04 6.93023338e-04 
        </DataArray>
        <DataArray type="Float64" Name="rhov">
          -3.78081821e-05 -3.15991170e-05 -1.44378053e-05 -1.07076587e-05 
        </DataArray>
        <DataArray type="Float64" Name="E">
          2.04864464e+05 2.05139974e+05 2.05428502e+05 2.05729744e+05 
        </DataArray>
      </PointData>
    </Piece>
    <Piece NumberOfPoints="4" NumberOfCells="3">
      <Points>
        <DataArray type="Float64" NumberOfComponents="3" format="ascii">
          4.39910263e-01 -5.62384278e-02 0.00000000e+00 
4.50324744e-01 -5.57143167e-02 0.00000000e+00 
4.60737765e-01 -5.51619194e-02 0.00000000e+00 
4.71149325e-01 -5.45825884e-02 0.00000000e+00 

        </DataArray>
      </Points>
      <Cells>
        <DataArray type="Int32" Name="connectivity" format="ascii">
0 1
1 2
2 3

        </DataArray>
        <DataArray type="Int32" Name="offsets" format="ascii">
2 4 6 
        </DataArray>
        <DataArray type="UInt8" Name="types" format="ascii">
3 3 3 
        </DataArray>
      </Cells>
      <PointData>
        <DataArray type="Float64" Name="rho">
          8.99332624e-01 9.00268029e-01 9.01285816e-01 9.02375441e-01 
        </DataArray>
        <DataArray type="Float64" Name="rhou">
          9.87416817e-04 9.10364551e-04 8.52059806e-04 8.24638734e-04 
        </DataArray>
        <DataArray type="Float64" Name="rhov">
          -3.04939339e-05 -2.14793181e-05 -2.80126259e-05 -3.53239447e-05 
        </DataArray>
        <DataArray type="Float64" Name="E">
          2.04135944e+05 2.04360207e+05 2.04603876e+05 2.04864481e+05 
        </DataArray>
      </PointData>
    </Piece>
    <Piece NumberOfPoints="4" NumberOfCells="3">
      <Points>
        <DataArray type="Float64" NumberOfComponents="3" format="ascii">
          4.08658355e-01 -5.76302819e-02 0.00000000e+00 
4.19077009e-01 -5.71971126e-02 0.00000000e+00 
4.29494321e-01 -5.67329265e-02 0.00000000e+00 
4.39910263e-01 -5.62384278e-02 0.00000000e+00 

        </DataArray>
      </Points>
      <Cells>
        <DataArray type="Int32" Name="connectivity" format="ascii">
0 1
1 2
2 3

        </DataArray>
        <DataArray type="Int32" Name="offsets" format="ascii">
2 4 6 
        </DataArray>
        <DataArray type="UInt8" Name="types" format="ascii">
3 3 3 
        </DataArray>
      </Cells>
      <PointData>
        <DataArray type="Float64" Name="rho">
          8.97079461e-01 8.97730140e-01 8.98485028e-01 8.99332394e-01 
        </DataArray>
        <DataArray type="Float64" Name="rhou">
          1.14294023e-03 1.07331063e-03 1.02170338e-03 9.82071566e-04 
        </DataArray>
        <DataArray type="Float64" Name="rhov">
          -3.87430665e-05 -5.11651676e-05 -5.03947215e-05 -3.03650046e-05 
        </DataArray>
        <DataArray type="Float64" Name="E">
          2.03593724e+05 2.03750762e+05 2.03932399e+05 2.04135891e+05 
        </DataArray>
      </PointData>
    </Piece>
    <Piece NumberOfPoints="4" NumberOfCells="3">
      <Points>
        <DataArray type="Float64" NumberOfComponents="3" format="ascii">
          3.77394795e-01 -5.87291755e-02 0.00000000e+00 
3.87817174e-01 -5.83979115e-02 0.00000000e+00 
3.98238391e-01 -5.80311492e-02 0.00000000e+00 
4.08658355e-01 -5.76302819e-02 0.00000000e+00 

        </DataArray>
      </Points>
      <Cells>
        <DataArray type="Int32" Name="connectivity" format="ascii">
0 1
1 2
2 3

        </DataArray>
        <DataArray type="Int32" Name="offsets" format="ascii">
2 4 6 
        </DataArray>
        <DataArray type="UInt8" Name="types" format="ascii">
3 3 3 
        </DataArray>
      </Cells>
      <PointData>
        <DataArray type="Float64" Name="rho">
          8.95880136e-01 8.96145352e-01 8.96546227e-01 8.97079672e-01 
        </DataArray>
        <DataArray type="Float64" Name="rhou">
          1.39203401e-03 1.31833275e-03 1.21682850e-03 1.11185717e-03 
        </DataArray>
        <DataArray type="Float64" Name="rhov">
          -8.18895527e-05 -5.42068976e-05 -2.65708548e-05 -3.38873092e-05 
        </DataArray>
        <DataArray type="Float64" Name="E">
          2.03300200e+05 2.03366255e+05 2.03464385e+05 2.03593773e+05 
        </DataArray>
      </PointData>
    </Piece>
    <Piece NumberOfPoints="4" NumberOfCells="3">
      <Points>
        <DataArray type="Float64" NumberOfComponents="3" format="ascii">
          3.46121490e-01 -5.95011823e-02 0.00000000e+00 
3.56546819e-01 -5.92821389e-02 0.00000000e+00 
3.66971314e-01 -5.90242445e-02 0.00000000e+00 
3.77394795e-01 -5.87291755e-02 0.00000000e+00 

        </DataArray>
      </Points>
      <Cells>
        <DataArray type="Int32" Name="connectivity" format="ascii">
0 1
1 2
2 3

        </DataArray>
        <DataArray type="Int32" Name="offsets" format="ascii">
2 4 6 
        </DataArray>
        <DataArray type="UInt8" Name="types" format="ascii">
3 3 3 
        </DataArray>
      </Cells>
      <PointData>
        <DataArray type="Float64" Name="rho">
          8.96027035e-01 8.95803496e-01 8.95760322e-01 8.95880228e-01 
        </DataArray>
        <DataArray type="Float64" Name="rhou">
          1.73475815e-03 1.59045901e-03 1.46166121e-03 1.39544168e-03 
        </DataArray>
        <DataArray type="Float64" Name="rhov">
          -1.16520256e-04 -7.47338912e-05 -6.74387185e-05 -7.72875770e-05 
        </DataArray>
        <DataArray type="Float64" Name="E">
          2.03324742e+05 2.03275335e+05 2.03268519e+05 2.03300220e+05 
        </DataArray>
      </PointData>
    </Piece>
    <Piece NumberOfPoints="4" NumberOfCells="3">
      <Points>
        <DataArray type="Float64" NumberOfComponents="3" format="ascii">
          3.14841360e-01 -5.99102043e-02 0.00000000e+00 
3.25268596e-01 -5.98174632e-02 0.00000000e+00 
3.35695356e-01 -5.96801341e-02 0.00000000e+00 
3.46121490e-01 -5.95011823e-02 0.00000000e+00 

        </DataArray>
      </Points>
      <Cells>
        <DataArray type="Int32" Name="connectivity" format="ascii">
0 1
1 2
2 3

        </DataArray>
        <DataArray type="Int32" Name="offsets" format="ascii">
2 4 6 
        </DataArray>
        <DataArray type="UInt8" Name="types" format="ascii">
3 3 3 
        </DataArray>
      </Cells>
      <PointData>
        <DataArray type="Float64" Name="rho">
          8.97926107e-01 8.97058595e-01 8.96434830e-01 8.96026745e-01 
        </DataArray>
        <DataArray type="Float64" Name="rhou">
          2.18473486e-03 1.94059040e-03 1.77575502e-03 1.69925772e-03 
        </DataArray>
        <DataArray type="Float64" Name="rhov">
          -5.37578865e-05 -3.04633454e-05 -6.26108528e-05 -1.15755272e-04 
        </DataArray>
        <DataArray type="Float64" Name="E">
          2.03763442e+05 2.03561823e+05 2.03417773e+05 2.03324676e+05 
        </DataArray>
      </PointData>
    </Piece>
    <Piece NumberOfPoints="4" NumberOfCells="3">
      <Points>
        <DataArray type="Float64" NumberOfComponents="3" format="ascii">
          2.83558637e-01 -5.98983802e-02 0.00000000e+00 
2.93986142e-01 -5.99516556e-02 0.00000000e+00 
3.04413795e-01 -5.99554181e-02 0.00000000e+00 
3.14841360e-01 -5.99102043e-02 0.00000000e+00 

        </DataArray>
      </Points>
      <Cells>
        <DataArray type="Int32" Name="connectivity" format="ascii">
0 1
1 2
2 3

        </DataArray>
        <DataArray type="Int32" Name="offsets" format="ascii">
2 4 6 
        </DataArray>
        <DataArray type="UInt8" Name="types" format="ascii">
3 3 3 
        </DataArray>
      </Cells>
      <PointData>
        <DataArray type="Float64" Name="rho">
          9.02093173e-01 9.00433477e-01 8.99050035e-01 8.97925396e-01 
        </DataArray>
        <DataArray type="Float64" Name="rhou">
          2.66219648e-03 2.49727359e-03 2.35964745e-03 2.17574768e-03 
        </DataArray>
        <DataArray type="Float64" Name="rhov">
          -1.10758645e-04 -1.77588302e-04 -1.41909887e-04 -4.71541912e-05 
        </DataArray>
        <DataArray type="Float64" Name="E">
          2.04739072e+05 2.04349629e+05 2.04025747e+05 2.03763280e+05 
        </DataArray>
      </PointData>
    </Piece>
    <Piece NumberOfPoints="4" NumberOfCells="3">
      <Points>
        <DataArray type="Float64" NumberOfComponents="3" format="ascii">
          2.52279758e-01 -5.94130717e-02 0.00000000e+00 
2.62705088e-01 -5.96327744e-02 0.00000000e+00 
2.73131490e-01 -5.97934239e-02 0.00000000e+00 
2.83558637e-01 -5.98983802e-02 0.00000000e+00 

        </DataArray>
      </Points>
      <Cells>
        <DataArray type="Int32" Name="connectivity" format="ascii">
0 1
1 2
2 3

        </DataArray>
        <DataArray type="Int32" Name="offsets" format="ascii">
2 4 6 
        </DataArray>
        <DataArray type="UInt8" Name="types" format="ascii">
3 3 3 
        </DataArray>
      </Cells>
      <PointData>
        <DataArray type="Float64" Name="rho">
          9.09149229e-01 9.06427993e-01 9.04079032e-01 9.02094093e-01 
        </DataArray>
        <DataArray type="Float64" Name="rhou">
          3.63427455e-03 3.32911918e-03 2.99377260e-03 2.64848030e-03 
        </DataArray>
        <DataArray type="Float64" Name="rhov">
          -2.58967569e-04 -1.66957027e-04 -7.98844985e-05 -9.16000320e-05 
        </DataArray>
        <DataArray type="Float64" Name="E">
          2.06399226e+05 2.05758228e+05 2.05205665e+05 2.04739284e+05 
        </DataArray>
      </PointData>
    </Piece>
    <Piece NumberOfPoints="4" NumberOfCells="3">
      <Points>
        <DataArray type="Float64" NumberOfComponents="3" format="ascii">
          2.21014455e-01 -5.83752058e-02 0.00000000e+00 
2.31433928e-01 -5.87876961e-02 0.00000000e+00 
2.41855890e-01 -5.91322705e-02 0.00000000e+00 
2.52279758e-01 -5.94130717e-02 0.00000000e+00 

        </DataArray>
      </Points>
      <Cells>
        <DataArray type="Int32" Name="connectivity" format="ascii">
0 1
1 2
2 3

        </DataArray>
        <DataArray type="Int32" Name="offsets" format="ascii">
2 4 6 
        </DataArray>
        <DataArray type="UInt8" Name="types" format="ascii">
3 3 3 
        </DataArray>
      </Cells>
      <PointData>
        <DataArray type="Float64" Name="rho">
          9.19877837e-01 9.15826071e-01 9.12265632e-01 9.09149410e-01 
        </DataArray>
        <DataArray type="Float64" Name="rhou">
          4.98665253e-03 4.40168624e-03 3.95564988e-03 3.66840490e-03 
        </DataArray>
        <DataArray type="Float64" Name="rhov">
          -3.64634579e-04 -2.60705275e-04 -2.28555380e-04 -2.42602813e-04 
        </DataArray>
        <DataArray type="Float64" Name="E">
          2.08931676e+05 2.07974540e+05 2.07134149e+05 2.06399263e+05 
        </DataArray>
      </PointData>
    </Piece>
    <Piece NumberOfPoints="4" NumberOfCells="3">
      <Points>
        <DataArray type="Float64" NumberOfComponents="3" format="ascii">
          1.89777538e-01 -5.66898957e-02 0.00000000e+00 
2.00185493e-01 -5.73302582e-02 0.00000000e+00 
2.10598081e-01 -5.78906052e-02 0.00000000e+00 
2.21014455e-01 -5.83752058e-02 0.00000000e+00 

        </DataArray>
      </Points>
      <Cells>
        <DataArray type="Int32" Name="connectivity" format="ascii">
0 1
1 2
2 3

        </DataArray>
        <DataArray type="Int32" Name="offsets" format="ascii">
2 4 6 
        </DataArray>
        <DataArray type="UInt8" Name="types" format="ascii">
3 3 3 
        </DataArray>
      </Cells>
      <PointData>
        <DataArray type="Float64" Name="rho">
          9.35367135e-01 9.29597675e-01 9.24454472e-01 9.19877078e-01 
        </DataArray>
        <DataArray type="Float64" Name="rhou">
          6.90820481e-03 6.10774030e-03 5.52234025e-03 5.04907353e-03 
        </DataArray>
        <DataArray type="Float64" Name="rhov">
          -6.45156384e-04 -5.74727717e-04 -4.75369086e-04 -3.51903928e-04 
        </DataArray>
        <DataArray type="Float64" Name="E">
          2.12597162e+05 2.11230802e+05 2.10013733e+05 2.08931502e+05 
        </DataArray>
      </PointData>
    </Piece>
    <Piece NumberOfPoints="4" NumberOfCells="3">
      <Points>
        <DataArray type="Float64" NumberOfComponents="3" format="ascii">
          1.58592433e-01 -5.42296544e-02 0.00000000e+00 
1.68979734e-01 -5.51457107e-02 0.00000000e+00 
1.79375216e-01 -5.59638515e-02 0.00000000e+00 
1.89777538e-01 -5.66898957e-02 0.00000000e+00 

        </DataArray>
      </Points>
      <Cells>
        <DataArray type="Int32" Name="connectivity" format="ascii">
0 1
1 2
2 3

        </DataArray>
        <DataArray type="Int32" Name="offsets" format="ascii">
2 4 6 
        </DataArray>
        <DataArray type="UInt8" Name="types" format="ascii">
3 3 3 
        </DataArray>
      </Cells>
      <PointData>
        <DataArray type="Float64" Name="rho">
          9.57184048e-01 9.49100655e-01 9.41845297e-01 9.35367553e-01 
        </DataArray>
        <DataArray type="Float64" Name="rhou">
          9.96624223e-03 8.89182469e-03 7.94209709e-03 6.97946509e-03 
        </DataArray>
        <DataArray type="Float64" Name="rhov">
          -1.39580997e-03 -1.20466437e-03 -8.74118276e-04 -6.04657944e-04 
        </DataArray>
        <DataArray type="Float64" Name="E">
          2.17772147e+05 2.15853185e+05 2.14132405e+05 2.12597262e+05 
        </DataArray>
      </PointData>
    </Piece>
    <Piece NumberOfPoints="4" NumberOfCells="3">
      <Points>
        <DataArray type="Float64" NumberOfComponents="3" format="ascii">
          1.27497971e-01 -5.08146733e-02 0.00000000e+00 
1.37849152e-01 -5.20747155e-02 0.00000000e+00 
1.48214847e-01 -5.32093942e-02 0.00000000e+00 
1.58592433e-01 -5.42296544e-02 0.00000000e+00 

        </DataArray>
      </Points>
      <Cells>
        <DataArray type="Int32" Name="connectivity" format="ascii">
0 1
1 2
2 3

        </DataArray>
        <DataArray type="Int32" Name="offsets" format="ascii">
2 4 6 
        </DataArray>
        <DataArray type="UInt8" Name="types" format="ascii">
3 3 3 
        </DataArray>
      </Cells>
      <PointData>
        <DataArray type="Float64" Name="rho">
          9.87756150e-01 9.76380841e-01 9.66210956e-01 9.57188095e-01 
        </DataArray>
        <DataArray type="Float64" Name="rhou">
          1.44969100e-02 1.33185941e-02 1.15138403e-02 9.99476743e-03 
        </DataArray>
        <DataArray type="Float64" Name="rhov">
          -2.26958682e-03 -2.02302650e-03 -1.40856480e-03 -1.32383616e-03 
        </DataArray>
        <DataArray type="Float64" Name="E">
          2.25041898e+05 2.22334549e+05 2.19916784e+05 2.17773075e+05 
        </DataArray>
      </PointData>
    </Piece>
    <Piece NumberOfPoints="4" NumberOfCells="3">
      <Points>
        <DataArray type="Float64" NumberOfComponents="3" format="ascii">
          9.65642184e-02 -4.61716652e-02 0.00000000e+00 
1.06852271e-01 -4.78802323e-02 0.00000000e+00 
1.17164567e-01 -4.94215861e-02 0.00000000e+00 
1.27497971e-01 -5.08146733e-02 0.00000000e+00 

        </DataArray>
      </Points>
      <Cells>
        <DataArray type="Int32" Name="connectivity" format="ascii">
0 1
1 2
2 3

        </DataArray>
        <DataArray type="Int32" Name="offsets" format="ascii">
2 4 6 
        </DataArray>
        <DataArray type="UInt8" Name="types" format="ascii">
3 3 3 
        </DataArray>
      </Cells>
      <PointData>
        <DataArray type="Float64" Name="rho">
          1.03119872e+00 1.01487642e+00 1.00042468e+00 9.87764492e-01 
        </DataArray>
        <DataArray type="Float64" Name="rhou">
          2.46701764e-02 1.80854885e-02 1.71710337e-02 1.28542927e-02 
        </DataArray>
        <DataArray type="Float64" Name="rhov">
          -9.17129901e-04 -7.23713830e-04 -1.54665775e-03 -1.59049354e-03 
        </DataArray>
        <DataArray type="Float64" Name="E">
          2.35406736e+05 2.31507812e+05 2.28060841e+05 2.25043908e+05 
        </DataArray>
      </PointData>
    </Piece>
  </UnstructuredGrid>
</VTKFile>
