<?xml version="1.0"?>
<VTKFile type="UnstructuredGrid" version="0.1" byte_order="LittleEndian">
  <UnstructuredGrid>
    <Piece NumberOfPoints="4" NumberOfCells="3">
      <Points>
        <DataArray type="Float64" NumberOfComponents="3" format="ascii">
          9.65642184e-02 -4.61716652e-02 0.00000000e+00 
9.26280916e-02 -4.54656407e-02 0.00000000e+00 
8.86965096e-02 -4.47326750e-02 0.00000000e+00 
8.47706869e-02 -4.39694971e-02 0.00000000e+00 

        </DataArray>
      </Points>
      <Cells>
        <DataArray type="Int32" Name="connectivity" format="ascii">
0 1
1 2
2 3

        </DataArray>
        <DataArray type="Int32" Name="offsets" format="ascii">
2 4 6 
        </DataArray>
        <DataArray type="UInt8" Name="types" format="ascii">
3 3 3 
        </DataArray>
      </Cells>
      <PointData>
        <DataArray type="Float64" Name="rho">
          1.03139455e+00 1.03831073e+00 1.04554172e+00 1.05321992e+00 
        </DataArray>
        <DataArray type="Float64" Name="rhou">
          2.82679623e-02 2.17828317e-02 2.44316790e-02 2.46115205e-02 
        </DataArray>
        <DataArray type="Float64" Name="rhov">
          -2.23112014e-03 -1.02116924e-03 -6.14966594e-04 -9.32314031e-04 
        </DataArray>
        <DataArray type="Float64" Name="E">
          2.35476468e+05 2.37130139e+05 2.38860714e+05 2.40698652e+05 
        </DataArray>
      </PointData>
    </Piece>
    <Piece NumberOfPoints="4" NumberOfCells="3">
      <Points>
        <DataArray type="Float64" NumberOfComponents="3" format="ascii">
          8.47706869e-02 -4.39694971e-02 0.00000000e+00 
8.08513016e-02 -4.31745499e-02 0.00000000e+00 
7.69388378e-02 -4.23462167e-02 0.00000000e+00 
7.30340332e-02 -4.14824970e-02 0.00000000e+00 

        </DataArray>
      </Points>
      <Cells>
        <DataArray type="Int32" Name="connectivity" format="ascii">
0 1
1 2
2 3

        </DataArray>
        <DataArray type="Int32" Name="offsets" format="ascii">
2 4 6 
        </DataArray>
        <DataArray type="UInt8" Name="types" format="ascii">
3 3 3 
        </DataArray>
      </Cells>
      <PointData>
        <DataArray type="Float64" Name="rho">
          1.05321872e+00 1.06132531e+00 1.06989580e+00 1.07899993e+00 
        </DataArray>
        <DataArray type="Float64" Name="rhou">
          2.47027178e-02 2.38814506e-02 2.24759407e-02 2.09130021e-02 
        </DataArray>
        <DataArray type="Float64" Name="rhov">
          -7.37789241e-04 -5.33754418e-04 3.67254949e-04 1.55501814e-03 
        </DataArray>
        <DataArray type="Float64" Name="E">
          2.40698385e+05 2.42640824e+05 2.44695662e+05 2.46879642e+05 
        </DataArray>
      </PointData>
    </Piece>
    <Piece NumberOfPoints="4" NumberOfCells="3">
      <Points>
        <DataArray type="Float64" NumberOfComponents="3" format="ascii">
          7.30340332e-02 -4.14824970e-02 0.00000000e+00 
6.91377968e-02 -4.05809283e-02 0.00000000e+00 
6.52511865e-02 -3.96387354e-02 0.00000000e+00 
6.13753870e-02 -3.86530459e-02 0.00000000e+00 

        </DataArray>
      </Points>
      <Cells>
        <DataArray type="Int32" Name="connectivity" format="ascii">
0 1
1 2
2 3

        </DataArray>
        <DataArray type="Int32" Name="offsets" format="ascii">
2 4 6 
        </DataArray>
        <DataArray type="UInt8" Name="types" format="ascii">
3 3 3 
        </DataArray>
      </Cells>
      <PointData>
        <DataArray type="Float64" Name="rho">
          1.07900054e+00 1.08872204e+00 1.09909254e+00 1.11017156e+00 
        </DataArray>
        <DataArray type="Float64" Name="rhou">
          2.10309734e-02 1.86860253e-02 1.45926946e-02 9.10064324e-03 
        </DataArray>
        <DataArray type="Float64" Name="rhov">
          1.38967047e-03 2.12673263e-03 4.19805679e-03 7.37532604e-03 
        </DataArray>
        <DataArray type="Float64" Name="E">
          2.46879805e+05 2.49214077e+05 2.51705824e+05 2.54370041e+05 
        </DataArray>
      </PointData>
    </Piece>
    <Piece NumberOfPoints="4" NumberOfCells="3">
      <Points>
        <DataArray type="Float64" NumberOfComponents="3" format="ascii">
          6.13753870e-02 -3.86530459e-02 0.00000000e+00 
5.75117208e-02 -3.76208089e-02 0.00000000e+00 
5.36618084e-02 -3.65384258e-02 0.00000000e+00 
4.98276278e-02 -3.54015976e-02 0.00000000e+00 

        </DataArray>
      </Points>
      <Cells>
        <DataArray type="Int32" Name="connectivity" format="ascii">
0 1
1 2
2 3

        </DataArray>
        <DataArray type="Int32" Name="offsets" format="ascii">
2 4 6 
        </DataArray>
        <DataArray type="UInt8" Name="types" format="ascii">
3 3 3 
        </DataArray>
      </Cells>
      <PointData>
        <DataArray type="Float64" Name="rho">
          1.11017183e+00 1.12204228e+00 1.13478885e+00 1.14854291e+00 
        </DataArray>
        <DataArray type="Float64" Name="rhou">
          9.04459964e-03 1.99573239e-03 -7.20830712e-03 -1.87149045e-02 
        </DataArray>
        <DataArray type="Float64" Name="rhov">
          7.14756019e-03 1.18326068e-02 1.98856653e-02 3.13253861e-02 
        </DataArray>
        <DataArray type="Float64" Name="E">
          2.54370105e+05 2.57228574e+05 2.60300664e+05 2.63618878e+05 
        </DataArray>
      </PointData>
    </Piece>
    <Piece NumberOfPoints="4" NumberOfCells="3">
      <Points>
        <DataArray type="Float64" NumberOfComponents="3" format="ascii">
          4.98276278e-02 -3.54015976e-02 0.00000000e+00 
4.60115410e-02 -3.42054628e-02 0.00000000e+00 
4.22164090e-02 -3.29444520e-02 0.00000000e+00 
3.84457745e-02 -3.16120051e-02 0.00000000e+00 

        </DataArray>
      </Points>
      <Cells>
        <DataArray type="Int32" Name="connectivity" format="ascii">
0 1
1 2
2 3

        </DataArray>
        <DataArray type="Int32" Name="offsets" format="ascii">
2 4 6 
        </DataArray>
        <DataArray type="UInt8" Name="types" format="ascii">
3 3 3 
        </DataArray>
      </Cells>
      <PointData>
        <DataArray type="Float64" Name="rho">
          1.14854283e+00 1.16340441e+00 1.17948551e+00 1.19697757e+00 
        </DataArray>
        <DataArray type="Float64" Name="rhou">
          -1.91685348e-02 -3.32963543e-02 -5.22732649e-02 -7.49753526e-02 
        </DataArray>
        <DataArray type="Float64" Name="rhov">
          3.11109115e-02 4.77467902e-02 7.53453661e-02 1.15731148e-01 
        </DataArray>
        <DataArray type="Float64" Name="E">
          2.63618826e+05 2.67210739e+05 2.71102202e+05 2.75341453e+05 
        </DataArray>
      </PointData>
    </Piece>
    <Piece NumberOfPoints="4" NumberOfCells="3">
      <Points>
        <DataArray type="Float64" NumberOfComponents="3" format="ascii">
          3.84457745e-02 -3.16120051e-02 0.00000000e+00 
3.47041376e-02 -3.02002355e-02 0.00000000e+00 
3.09973080e-02 -2.86995135e-02 0.00000000e+00 
2.73328498e-02 -2.70981900e-02 0.00000000e+00 

        </DataArray>
      </Points>
      <Cells>
        <DataArray type="Int32" Name="connectivity" format="ascii">
0 1
1 2
2 3

        </DataArray>
        <DataArray type="Int32" Name="offsets" format="ascii">
2 4 6 
        </DataArray>
        <DataArray type="UInt8" Name="types" format="ascii">
3 3 3 
        </DataArray>
      </Cells>
      <PointData>
        <DataArray type="Float64" Name="rho">
          1.19697779e+00 1.21607031e+00 1.23695651e+00 1.26000778e+00 
        </DataArray>
        <DataArray type="Float64" Name="rhou">
          -7.59257524e-02 -1.00073848e-01 -1.28714056e-01 -1.54132458e-01 
        </DataArray>
        <DataArray type="Float64" Name="rhov">
          1.15650814e-01 1.71110437e-01 2.56904573e-01 3.77030354e-01 
        </DataArray>
        <DataArray type="Float64" Name="E">
          2.75341372e+05 2.79980288e+05 2.85063577e+05 2.90685328e+05 
        </DataArray>
      </PointData>
    </Piece>
    <Piece NumberOfPoints="4" NumberOfCells="3">
      <Points>
        <DataArray type="Float64" NumberOfComponents="3" format="ascii">
          2.73328498e-02 -2.70981900e-02 0.00000000e+00 
2.37206947e-02 -2.53822580e-02 0.00000000e+00 
2.01744195e-02 -2.35341713e-02 0.00000000e+00 
1.67132635e-02 -2.15314496e-02 0.00000000e+00 

        </DataArray>
      </Points>
      <Cells>
        <DataArray type="Int32" Name="connectivity" format="ascii">
0 1
1 2
2 3

        </DataArray>
        <DataArray type="Int32" Name="offsets" format="ascii">
2 4 6 
        </DataArray>
        <DataArray type="UInt8" Name="types" format="ascii">
3 3 3 
        </DataArray>
      </Cells>
      <PointData>
        <DataArray type="Float64" Name="rho">
          1.26001264e+00 1.28556888e+00 1.31408551e+00 1.34690860e+00 
        </DataArray>
        <DataArray type="Float64" Name="rhou">
          -1.54513356e-01 -1.68635472e-01 -1.53058851e-01 -5.72671143e-02 
        </DataArray>
        <DataArray type="Float64" Name="rhov">
          3.77705087e-01 5.29372306e-01 7.39844582e-01 9.58009966e-01 
        </DataArray>
        <DataArray type="Float64" Name="E">
          2.90686226e+05 2.96941018e+05 3.03933043e+05 3.11990951e+05 
        </DataArray>
      </PointData>
    </Piece>
    <Piece NumberOfPoints="4" NumberOfCells="3">
      <Points>
        <DataArray type="Float64" NumberOfComponents="3" format="ascii">
          1.67132635e-02 -2.15314496e-02 0.00000000e+00 
1.33649679e-02 -1.93456318e-02 0.00000000e+00 
1.01706637e-02 -1.69409402e-02 0.00000000e+00 
7.19343964e-03 -1.42731192e-02 0.00000000e+00 

        </DataArray>
      </Points>
      <Cells>
        <DataArray type="Int32" Name="connectivity" format="ascii">
0 1
1 2
2 3

        </DataArray>
        <DataArray type="Int32" Name="offsets" format="ascii">
2 4 6 
        </DataArray>
        <DataArray type="UInt8" Name="types" format="ascii">
3 3 3 
        </DataArray>
      </Cells>
      <PointData>
        <DataArray type="Float64" Name="rho">
          1.34680285e+00 1.38666765e+00 1.43390529e+00 1.49901316e+00 
        </DataArray>
        <DataArray type="Float64" Name="rhou">
          -3.47152012e-02 1.13436207e-01 4.54297376e-01 8.74266018e-01 
        </DataArray>
        <DataArray type="Float64" Name="rhov">
          9.19791714e-01 1.12267358e+00 1.06799140e+00 5.18536406e-01 
        </DataArray>
        <DataArray type="Float64" Name="E">
          3.11966779e+05 3.21756421e+05 3.33349449e+05 3.49213011e+05 
        </DataArray>
      </PointData>
    </Piece>
    <Piece NumberOfPoints="4" NumberOfCells="3">
      <Points>
        <DataArray type="Float64" NumberOfComponents="3" format="ascii">
          7.19343964e-03 -1.42731192e-02 0.00000000e+00 
4.53082798e-03 -1.12927537e-02 0.00000000e+00 
2.33371323e-03 -7.95678515e-03 0.00000000e+00 
8.10639584e-04 -4.26717056e-03 0.00000000e+00 

        </DataArray>
      </Points>
      <Cells>
        <DataArray type="Int32" Name="connectivity" format="ascii">
0 1
1 2
2 3

        </DataArray>
        <DataArray type="Int32" Name="offsets" format="ascii">
2 4 6 
        </DataArray>
        <DataArray type="UInt8" Name="types" format="ascii">
3 3 3 
        </DataArray>
      </Cells>
      <PointData>
        <DataArray type="Float64" Name="rho">
          1.49953237e+00 1.57397784e+00 1.66309871e+00 1.73185204e+00 
        </DataArray>
        <DataArray type="Float64" Name="rhou">
          7.99311679e-01 9.29265706e-01 2.58306656e-01 -1.27491557e+00 
        </DataArray>
        <DataArray type="Float64" Name="rhov">
          6.17200324e-01 -5.10807032e-01 -1.72832794e+00 -1.81672017e+00 
        </DataArray>
        <DataArray type="Float64" Name="E">
          3.49340240e+05 3.67514831e+05 3.89150025e+05 4.05863609e+05 
        </DataArray>
      </PointData>
    </Piece>
    <Piece NumberOfPoints="4" NumberOfCells="3">
      <Points>
        <DataArray type="Float64" NumberOfComponents="3" format="ascii">
          8.10639584e-04 -4.26717056e-03 0.00000000e+00 
1.91366620e-04 -3.27450951e-04 0.00000000e+00 
6.40850572e-04 3.63462302e-03 0.00000000e+00 
2.03182548e-03 7.37539819e-03 0.00000000e+00 

        </DataArray>
      </Points>
      <Cells>
        <DataArray type="Int32" Name="connectivity" format="ascii">
0 1
1 2
2 3

        </DataArray>
        <DataArray type="Int32" Name="offsets" format="ascii">
2 4 6 
        </DataArray>
        <DataArray type="UInt8" Name="types" format="ascii">
3 3 3 
        </DataArray>
      </Cells>
      <PointData>
        <DataArray type="Float64" Name="rho">
          1.73027628e+00 1.75527096e+00 1.70489942e+00 1.61247143e+00 
        </DataArray>
        <DataArray type="Float64" Name="rhou">
          -1.14934567e+00 -1.87842929e+00 -8.35063057e-01 7.51403325e-01 
        </DataArray>
        <DataArray type="Float64" Name="rhov">
          -1.97475196e+00 3.63758791e-01 1.88177500e+00 1.51469659e+00 
        </DataArray>
        <DataArray type="Float64" Name="E">
          4.05482044e+05 4.11466862e+05 3.99152777e+05 3.76578022e+05 
        </DataArray>
      </PointData>
    </Piece>
    <Piece NumberOfPoints="4" NumberOfCells="3">
      <Points>
        <DataArray type="Float64" NumberOfComponents="3" format="ascii">
          2.03182548e-03 7.37539819e-03 0.00000000e+00 
4.13410179e-03 1.07714310e-02 0.00000000e+00 
6.73249783e-03 1.38076087e-02 0.00000000e+00 
9.66598373e-03 1.65232457e-02 0.00000000e+00 

        </DataArray>
      </Points>
      <Cells>
        <DataArray type="Int32" Name="connectivity" format="ascii">
0 1
1 2
2 3

        </DataArray>
        <DataArray type="Int32" Name="offsets" format="ascii">
2 4 6 
        </DataArray>
        <DataArray type="UInt8" Name="types" format="ascii">
3 3 3 
        </DataArray>
      </Cells>
      <PointData>
        <DataArray type="Float64" Name="rho">
          1.61283463e+00 1.50572715e+00 1.41649519e+00 1.34954283e+00 
        </DataArray>
        <DataArray type="Float64" Name="rhou">
          7.23711686e-01 1.15433559e+00 8.39343938e-01 3.74900043e-01 
        </DataArray>
        <DataArray type="Float64" Name="rhov">
          1.74933348e+00 6.25429310e-02 -1.07426010e+00 -1.39884278e+00 
        </DataArray>
        <DataArray type="Float64" Name="E">
          3.76669399e+05 3.50666696e+05 3.28966793e+05 3.12603936e+05 
        </DataArray>
      </PointData>
    </Piece>
    <Piece NumberOfPoints="4" NumberOfCells="3">
      <Points>
        <DataArray type="Float64" NumberOfComponents="3" format="ascii">
          9.66598373e-03 1.65232457e-02 0.00000000e+00 
1.28298048e-02 1.89677756e-02 0.00000000e+00 
1.61561389e-02 2.11867876e-02 0.00000000e+00 
1.96009967e-02 2.32173651e-02 0.00000000e+00 

        </DataArray>
      </Points>
      <Cells>
        <DataArray type="Int32" Name="connectivity" format="ascii">
0 1
1 2
2 3

        </DataArray>
        <DataArray type="Int32" Name="offsets" format="ascii">
2 4 6 
        </DataArray>
        <DataArray type="UInt8" Name="types" format="ascii">
3 3 3 
        </DataArray>
      </Cells>
      <PointData>
        <DataArray type="Float64" Name="rho">
          1.34933742e+00 1.29687011e+00 1.25789668e+00 1.22358872e+00 
        </DataArray>
        <DataArray type="Float64" Name="rhou">
          3.84489413e-01 -1.69066245e-02 -1.98308887e-01 -2.18796948e-01 
        </DataArray>
        <DataArray type="Float64" Name="rhov">
          -1.42341168e+00 -1.31878548e+00 -9.88964283e-01 -6.63846530e-01 
        </DataArray>
        <DataArray type="Float64" Name="E">
          3.12551744e+05 2.99729846e+05 2.90155971e+05 2.81754269e+05 
        </DataArray>
      </PointData>
    </Piece>
    <Piece NumberOfPoints="4" NumberOfCells="3">
      <Points>
        <DataArray type="Float64" NumberOfComponents="3" format="ascii">
          1.96009967e-02 2.32173651e-02 0.00000000e+00 
2.31348258e-02 2.50891000e-02 0.00000000e+00 
2.67372411e-02 2.68253610e-02 0.00000000e+00 
3.03938854e-02 2.84444261e-02 0.00000000e+00 

        </DataArray>
      </Points>
      <Cells>
        <DataArray type="Int32" Name="connectivity" format="ascii">
0 1
1 2
2 3

        </DataArray>
        <DataArray type="Int32" Name="offsets" format="ascii">
2 4 6 
        </DataArray>
        <DataArray type="UInt8" Name="types" format="ascii">
3 3 3 
        </DataArray>
      </Cells>
      <PointData>
        <DataArray type="Float64" Name="rho">
          1.22365243e+00 1.19453244e+00 1.16848945e+00 1.14490489e+00 
        </DataArray>
        <DataArray type="Float64" Name="rhou">
          -2.31912036e-01 -2.18415750e-01 -1.73215550e-01 -1.31004933e-01 
        </DataArray>
        <DataArray type="Float64" Name="rhov">
          -6.82075506e-01 -4.31277674e-01 -2.44877011e-01 -1.32252961e-01 
        </DataArray>
        <DataArray type="Float64" Name="E">
          2.81769178e+05 2.74657442e+05 2.68320105e+05 2.62598057e+05 
        </DataArray>
      </PointData>
    </Piece>
    <Piece NumberOfPoints="4" NumberOfCells="3">
      <Points>
        <DataArray type="Float64" NumberOfComponents="3" format="ascii">
          3.03938854e-02 2.84444261e-02 0.00000000e+00 
3.40943485e-02 2.99607720e-02 0.00000000e+00 
3.78307216e-02 3.13864015e-02 0.00000000e+00 
4.15969416e-02 3.27312648e-02 0.00000000e+00 

        </DataArray>
      </Points>
      <Cells>
        <DataArray type="Int32" Name="connectivity" format="ascii">
0 1
1 2
2 3

        </DataArray>
        <DataArray type="Int32" Name="offsets" format="ascii">
2 4 6 
        </DataArray>
        <DataArray type="UInt8" Name="types" format="ascii">
3 3 3 
        </DataArray>
      </Cells>
      <PointData>
        <DataArray type="Float64" Name="rho">
          1.14490316e+00 1.12356363e+00 1.10418096e+00 1.08651196e+00 
        </DataArray>
        <DataArray type="Float64" Name="rhou">
          -1.29215356e-01 -8.91069937e-02 -5.63448553e-02 -3.33940381e-02 
        </DataArray>
        <DataArray type="Float64" Name="rhov">
          -1.30803024e-01 -5.47112770e-02 -7.65798450e-03 1.77238312e-02 
        </DataArray>
        <DataArray type="Float64" Name="E">
          2.62597905e+05 2.57439193e+05 2.52764828e+05 2.48511536e+05 
        </DataArray>
      </PointData>
    </Piece>
    <Piece NumberOfPoints="4" NumberOfCells="3">
      <Points>
        <DataArray type="Float64" NumberOfComponents="3" format="ascii">
          4.15969416e-02 3.27312648e-02 0.00000000e+00 
4.53883260e-02 3.40034962e-02 0.00000000e+00 
4.92011942e-02 3.52098532e-02 0.00000000e+00 
5.30325845e-02 3.63560505e-02 0.00000000e+00 

        </DataArray>
      </Points>
      <Cells>
        <DataArray type="Int32" Name="connectivity" format="ascii">
0 1
1 2
2 3

        </DataArray>
        <DataArray type="Int32" Name="offsets" format="ascii">
2 4 6 
        </DataArray>
        <DataArray type="UInt8" Name="types" format="ascii">
3 3 3 
        </DataArray>
      </Cells>
      <PointData>
        <DataArray type="Float64" Name="rho">
          1.08651252e+00 1.07036808e+00 1.05555989e+00 1.04192920e+00 
        </DataArray>
        <DataArray type="Float64" Name="rhou">
          -3.22576727e-02 -1.28367432e-02 1.59179425e-03 1.09684481e-02 
        </DataArray>
        <DataArray type="Float64" Name="rhov">
          1.76285337e-02 3.13146704e-02 3.79761444e-02 3.91375086e-02 
        </DataArray>
        <DataArray type="Float64" Name="E">
          2.48511746e+05 2.44633970e+05 2.41082675e+05 2.37817907e+05 
        </DataArray>
      </PointData>
    </Piece>
    <Piece NumberOfPoints="4" NumberOfCells="3">
      <Points>
        <DataArray type="Float64" NumberOfComponents="3" format="ascii">
          5.30325845e-02 3.63560505e-02 0.00000000e+00 
5.68800643e-02 3.74470428e-02 0.00000000e+00 
6.07415959e-02 3.84872220e-02 0.00000000e+00 
6.46155030e-02 3.94803248e-02 0.00000000e+00 

        </DataArray>
      </Points>
      <Cells>
        <DataArray type="Int32" Name="connectivity" format="ascii">
0 1
1 2
2 3

        </DataArray>
        <DataArray type="Int32" Name="offsets" format="ascii">
2 4 6 
        </DataArray>
        <DataArray type="UInt8" Name="types" format="ascii">
3 3 3 
        </DataArray>
      </Cells>
      <PointData>
        <DataArray type="Float64" Name="rho">
          1.04192989e+00 1.02938849e+00 1.01780414e+00 1.00703618e+00 
        </DataArray>
        <DataArray type="Float64" Name="rhou">
          1.12841853e-02 1.82749085e-02 2.38121972e-02 2.76430963e-02 
        </DataArray>
        <DataArray type="Float64" Name="rhov">
          3.88105316e-02 3.71515526e-02 3.51016533e-02 3.18790359e-02 
        </DataArray>
        <DataArray type="Float64" Name="E">
          2.37818064e+05 2.34818408e+05 2.32050468e+05 2.29480119e+05 
        </DataArray>
      </PointData>
    </Piece>
    <Piece NumberOfPoints="4" NumberOfCells="3">
      <Points>
        <DataArray type="Float64" NumberOfComponents="3" format="ascii">
          6.46155030e-02 3.94803248e-02 0.00000000e+00 
6.85004294e-02 4.04294394e-02 0.00000000e+00 
7.23951608e-02 4.13374715e-02 0.00000000e+00 
7.62986317e-02 4.22072113e-02 0.00000000e+00 

        </DataArray>
      </Points>
      <Cells>
        <DataArray type="Int32" Name="connectivity" format="ascii">
0 1
1 2
2 3

        </DataArray>
        <DataArray type="Int32" Name="offsets" format="ascii">
2 4 6 
        </DataArray>
        <DataArray type="UInt8" Name="types" format="ascii">
3 3 3 
        </DataArray>
      </Cells>
      <PointData>
        <DataArray type="Float64" Name="rho">
          1.00703689e+00 9.97043904e-01 9.87736438e-01 9.79058979e-01 
        </DataArray>
        <DataArray type="Float64" Name="rhou">
          2.74626337e-02 2.94074878e-02 3.05064652e-02 3.06005942e-02 
        </DataArray>
        <DataArray type="Float64" Name="rhov">
          3.15806313e-02 2.76798187e-02 2.43065081e-02 2.10009208e-02 
        </DataArray>
        <DataArray type="Float64" Name="E">
          2.29480265e+05 2.27097494e+05 2.24880000e+05 2.22813872e+05 
        </DataArray>
      </PointData>
    </Piece>
    <Piece NumberOfPoints="4" NumberOfCells="3">
      <Points>
        <DataArray type="Float64" NumberOfComponents="3" format="ascii">
          7.62986317e-02 4.22072113e-02 0.00000000e+00 
8.02098960e-02 4.30411920e-02 0.00000000e+00 
8.41281936e-02 4.38414887e-02 0.00000000e+00 
8.80528912e-02 4.46097627e-02 0.00000000e+00 

        </DataArray>
      </Points>
      <Cells>
        <DataArray type="Int32" Name="connectivity" format="ascii">
0 1
1 2
2 3

        </DataArray>
        <DataArray type="Int32" Name="offsets" format="ascii">
2 4 6 
        </DataArray>
        <DataArray type="UInt8" Name="types" format="ascii">
3 3 3 
        </DataArray>
      </Cells>
      <PointData>
        <DataArray type="Float64" Name="rho">
          9.79058035e-01 9.70964341e-01 9.63359613e-01 9.56198075e-01 
        </DataArray>
        <DataArray type="Float64" Name="rhou">
          3.04534344e-02 3.04797619e-02 3.02070199e-02 2.91453001e-02 
        </DataArray>
        <DataArray type="Float64" Name="rhov">
          2.08377146e-02 1.82799909e-02 1.57728959e-02 1.30946284e-02 
        </DataArray>
        <DataArray type="Float64" Name="E">
          2.22813636e+05 2.20887982e+05 2.19079923e+05 2.17378367e+05 
        </DataArray>
      </PointData>
    </Piece>
    <Piece NumberOfPoints="4" NumberOfCells="3">
      <Points>
        <DataArray type="Float64" NumberOfComponents="3" format="ascii">
          8.80528912e-02 4.46097627e-02 0.00000000e+00 
9.19835642e-02 4.53475714e-02 0.00000000e+00 
9.59195644e-02 4.60564308e-02 0.00000000e+00 
9.98597518e-02 4.67394181e-02 0.00000000e+00 

        </DataArray>
      </Points>
      <Cells>
        <DataArray type="Int32" Name="connectivity" format="ascii">
0 1
1 2
2 3

        </DataArray>
        <DataArray type="Int32" Name="offsets" format="ascii">
2 4 6 
        </DataArray>
        <DataArray type="UInt8" Name="types" format="ascii">
3 3 3 
        </DataArray>
      </Cells>
      <PointData>
        <DataArray type="Float64" Name="rho">
          9.56198582e-01 9.49470230e-01 9.43162414e-01 9.37175467e-01 
        </DataArray>
        <DataArray type="Float64" Name="rhou">
          2.89527587e-02 2.75320425e-02 2.40661842e-02 2.85772898e-02 
        </DataArray>
        <DataArray type="Float64" Name="rhov">
          1.32574621e-02 1.06849385e-02 9.10419534e-03 8.60705865e-03 
        </DataArray>
        <DataArray type="Float64" Name="E">
          2.17378484e+05 2.15781056e+05 2.14283892e+05 2.12863907e+05 
        </DataArray>
      </PointData>
    </Piece>
    <Piece NumberOfPoints="4" NumberOfCells="3">
      <Points>
        <DataArray type="Float64" NumberOfComponents="3" format="ascii">
          9.98597518e-02 4.67394181e-02 0.00000000e+00 
1.10118888e-01 4.83862534e-02 0.00000000e+00 
1.20400399e-01 4.98730615e-02 0.00000000e+00 
1.30701363e-01 5.12186773e-02 0.00000000e+00 

        </DataArray>
      </Points>
      <Cells>
        <DataArray type="Int32" Name="connectivity" format="ascii">
0 1
1 2
2 3

        </DataArray>
        <DataArray type="Int32" Name="offsets" format="ascii">
2 4 6 
        </DataArray>
        <DataArray type="UInt8" Name="types" format="ascii">
3 3 3 
        </DataArray>
      </Cells>
      <PointData>
        <DataArray type="Float64" Name="rho">
          9.37102867e-01 9.23137710e-01 9.11088821e-01 9.00729719e-01 
        </DataArray>
        <DataArray type="Float64" Name="rhou">
          2.63099132e-02 1.81460005e-02 1.60195499e-02 1.25594382e-02 
        </DataArray>
        <DataArray type="Float64" Name="rhov">
          7.37414358e-03 4.15088406e-03 3.64377832e-03 2.97406711e-03 
        </DataArray>
        <DataArray type="Float64" Name="E">
          2.12847509e+05 2.09539097e+05 2.06687998e+05 2.04239238e+05 
        </DataArray>
      </PointData>
    </Piece>
    <Piece NumberOfPoints="4" NumberOfCells="3">
      <Points>
        <DataArray type="Float64" NumberOfComponents="3" format="ascii">
          1.30701363e-01 5.12186773e-02 0.00000000e+00 
1.41019106e-01 5.24347536e-02 0.00000000e+00 
1.51350453e-01 5.35292812e-02 0.00000000e+00 
1.61692888e-01 5.45137413e-02 0.00000000e+00 

        </DataArray>
      </Points>
      <Cells>
        <DataArray type="Int32" Name="connectivity" format="ascii">
0 1
1 2
2 3

        </DataArray>
        <DataArray type="Int32" Name="offsets" format="ascii">
2 4 6 
        </DataArray>
        <DataArray type="UInt8" Name="types" format="ascii">
3 3 3 
        </DataArray>
      </Cells>
      <PointData>
        <DataArray type="Float64" Name="rho">
          9.00726233e-01 8.91630308e-01 8.83773094e-01 8.77046363e-01 
        </DataArray>
        <DataArray type="Float64" Name="rhou">
          1.39389151e-02 1.20440970e-02 9.97152472e-03 8.70714558e-03 
        </DataArray>
        <DataArray type="Float64" Name="rhov">
          3.47240939e-03 2.54844090e-03 1.77271821e-03 1.59709669e-03 
        </DataArray>
        <DataArray type="Float64" Name="E">
          2.04238401e+05 2.02091479e+05 2.00239194e+05 1.98654951e+05 
        </DataArray>
      </PointData>
    </Piece>
    <Piece NumberOfPoints="4" NumberOfCells="3">
      <Points>
        <DataArray type="Float64" NumberOfComponents="3" format="ascii">
          1.61692888e-01 5.45137413e-02 0.00000000e+00 
1.72044471e-01 5.53969070e-02 0.00000000e+00 
1.82403773e-01 5.61845005e-02 0.00000000e+00 
1.92769483e-01 5.68825118e-02 0.00000000e+00 

        </DataArray>
      </Points>
      <Cells>
        <DataArray type="Int32" Name="connectivity" format="ascii">
0 1
1 2
2 3

        </DataArray>
        <DataArray type="Int32" Name="offsets" format="ascii">
2 4 6 
        </DataArray>
        <DataArray type="UInt8" Name="types" format="ascii">
3 3 3 
        </DataArray>
      </Cells>
      <PointData>
        <DataArray type="Float64" Name="rho">
          8.77043960e-01 8.71252829e-01 8.66306818e-01 8.62153429e-01 
        </DataArray>
        <DataArray type="Float64" Name="rhou">
          8.74377518e-03 7.61325500e-03 6.57937199e-03 5.67721417e-03 
        </DataArray>
        <DataArray type="Float64" Name="rhov">
          1.64861181e-03 1.28459512e-03 9.06710624e-04 6.78063319e-04 
        </DataArray>
        <DataArray type="Float64" Name="E">
          1.98654413e+05 1.97292286e+05 1.96130771e+05 1.95156953e+05 
        </DataArray>
      </PointData>
    </Piece>
    <Piece NumberOfPoints="4" NumberOfCells="3">
      <Points>
        <DataArray type="Float64" NumberOfComponents="3" format="ascii">
          1.92769483e-01 5.68825118e-02 0.00000000e+00 
2.03140482e-01 5.74972220e-02 0.00000000e+00 
2.13515818e-01 5.80338500e-02 0.00000000e+00 
2.23894730e-01 5.84962890e-02 0.00000000e+00 

        </DataArray>
      </Points>
      <Cells>
        <DataArray type="Int32" Name="connectivity" format="ascii">
0 1
1 2
2 3

        </DataArray>
        <DataArray type="Int32" Name="offsets" format="ascii">
2 4 6 
        </DataArray>
        <DataArray type="UInt8" Name="types" format="ascii">
3 3 3 
        </DataArray>
      </Cells>
      <PointData>
        <DataArray type="Float64" Name="rho">
          8.62152740e-01 8.58712433e-01 8.55901379e-01 8.53661449e-01 
        </DataArray>
        <DataArray type="Float64" Name="rhou">
          5.71379048e-03 4.99246956e-03 4.43613317e-03 3.97569429e-03 
        </DataArray>
        <DataArray type="Float64" Name="rhov">
          7.19331505e-04 6.29700992e-04 5.14139609e-04 3.91270688e-04 
        </DataArray>
        <DataArray type="Float64" Name="E">
          1.95156795e+05 1.94351610e+05 1.93695339e+05 1.93174150e+05 
        </DataArray>
      </PointData>
    </Piece>
    <Piece NumberOfPoints="4" NumberOfCells="3">
      <Points>
        <DataArray type="Float64" NumberOfComponents="3" format="ascii">
          2.23894730e-01 5.84962890e-02 0.00000000e+00 
2.34276548e-01 5.88882305e-02 0.00000000e+00 
2.44660646e-01 5.92139624e-02 0.00000000e+00 
2.55046517e-01 5.94772622e-02 0.00000000e+00 

        </DataArray>
      </Points>
      <Cells>
        <DataArray type="Int32" Name="connectivity" format="ascii">
0 1
1 2
2 3

        </DataArray>
        <DataArray type="Int32" Name="offsets" format="ascii">
2 4 6 
        </DataArray>
        <DataArray type="UInt8" Name="types" format="ascii">
3 3 3 
        </DataArray>
      </Cells>
      <PointData>
        <DataArray type="Float64" Name="rho">
          8.53662019e-01 8.51951131e-01 8.50724956e-01 8.49928274e-01 
        </DataArray>
        <DataArray type="Float64" Name="rhou">
          3.98330732e-03 3.46209987e-03 3.08399399e-03 2.85445813e-03 
        </DataArray>
        <DataArray type="Float64" Name="rhov">
          4.05600082e-04 3.27680525e-04 3.10389269e-04 3.08848091e-04 
        </DataArray>
        <DataArray type="Float64" Name="E">
          1.93174280e+05 1.92778023e+05 1.92496123e+05 1.92315571e+05 
        </DataArray>
      </PointData>
    </Piece>
    <Piece NumberOfPoints="4" NumberOfCells="3">
      <Points>
        <DataArray type="Float64" NumberOfComponents="3" format="ascii">
          2.55046517e-01 5.94772622e-02 0.00000000e+00 
2.65433758e-01 5.96804135e-02 0.00000000e+00 
2.75821954e-01 5.98256700e-02 0.00000000e+00 
2.86210775e-01 5.99167012e-02 0.00000000e+00 

        </DataArray>
      </Points>
      <Cells>
        <DataArray type="Int32" Name="connectivity" format="ascii">
0 1
1 2
2 3

        </DataArray>
        <DataArray type="Int32" Name="offsets" format="ascii">
2 4 6 
        </DataArray>
        <DataArray type="UInt8" Name="types" format="ascii">
3 3 3 
        </DataArray>
      </Cells>
      <PointData>
        <DataArray type="Float64" Name="rho">
          8.49928286e-01 8.49512960e-01 8.49454437e-01 8.49732439e-01 
        </DataArray>
        <DataArray type="Float64" Name="rhou">
          2.84874673e-03 2.56203135e-03 2.26835319e-03 2.00503170e-03 
        </DataArray>
        <DataArray type="Float64" Name="rhov">
          3.20108158e-04 2.24872149e-04 1.66729035e-04 2.00394118e-04 
        </DataArray>
        <DataArray type="Float64" Name="E">
          1.92315577e+05 1.92225054e+05 1.92218674e+05 1.92291450e+05 
        </DataArray>
      </PointData>
    </Piece>
    <Piece NumberOfPoints="4" NumberOfCells="3">
      <Points>
        <DataArray type="Float64" NumberOfComponents="3" format="ascii">
          2.86210775e-01 5.99167012e-02 0.00000000e+00 
2.96599895e-01 5.99572174e-02 0.00000000e+00 
3.06989133e-01 5.99487796e-02 0.00000000e+00 
3.17378193e-01 5.98919280e-02 0.00000000e+00 

        </DataArray>
      </Points>
      <Cells>
        <DataArray type="Int32" Name="connectivity" format="ascii">
0 1
1 2
2 3

        </DataArray>
        <DataArray type="Int32" Name="offsets" format="ascii">
2 4 6 
        </DataArray>
        <DataArray type="UInt8" Name="types" format="ascii">
3 3 3 
        </DataArray>
      </Cells>
      <PointData>
        <DataArray type="Float64" Name="rho">
          8.49731420e-01 8.50296979e-01 8.51103410e-01 8.52135712e-01 
        </DataArray>
        <DataArray type="Float64" Name="rhou">
          2.02385453e-03 1.90835916e-03 1.78199698e-03 1.60039046e-03 
        </DataArray>
        <DataArray type="Float64" Name="rhov">
          2.16697488e-04 2.43854194e-04 1.89793499e-04 1.15693950e-04 
        </DataArray>
        <DataArray type="Float64" Name="E">
          1.92291218e+05 1.92431654e+05 1.92628955e+05 1.92879516e+05 
        </DataArray>
      </PointData>
    </Piece>
    <Piece NumberOfPoints="4" NumberOfCells="3">
      <Points>
        <DataArray type="Float64" NumberOfComponents="3" format="ascii">
          3.17378193e-01 5.98919280e-02 0.00000000e+00 
3.27766895e-01 5.97884916e-02 0.00000000e+00 
3.38155061e-01 5.96415885e-02 0.00000000e+00 
3.48542601e-01 5.94538599e-02 0.00000000e+00 

        </DataArray>
      </Points>
      <Cells>
        <DataArray type="Int32" Name="connectivity" format="ascii">
0 1
1 2
2 3

        </DataArray>
        <DataArray type="Int32" Name="offsets" format="ascii">
2 4 6 
        </DataArray>
        <DataArray type="UInt8" Name="types" format="ascii">
3 3 3 
        </DataArray>
      </Cells>
      <PointData>
        <DataArray type="Float64" Name="rho">
          8.52136058e-01 8.53381562e-01 8.54820105e-01 8.56418884e-01 
        </DataArray>
        <DataArray type="Float64" Name="rhou">
          1.62977235e-03 1.43404551e-03 1.31737528e-03 1.27068605e-03 
        </DataArray>
        <DataArray type="Float64" Name="rhov">
          1.23321109e-04 1.12091522e-04 1.37776358e-04 1.58434047e-04 
        </DataArray>
        <DataArray type="Float64" Name="E">
          1.92879594e+05 1.93180316e+05 1.93526396e+05 1.93910180e+05 
        </DataArray>
      </PointData>
    </Piece>
    <Piece NumberOfPoints="4" NumberOfCells="3">
      <Points>
        <DataArray type="Float64" NumberOfComponents="3" format="ascii">
          3.48542601e-01 5.94538599e-02 0.00000000e+00 
3.58929336e-01 5.92265576e-02 0.00000000e+00 
3.69315147e-01 5.89610897e-02 0.00000000e+00 
3.79699975e-01 5.86590059e-02 0.00000000e+00 

        </DataArray>
      </Points>
      <Cells>
        <DataArray type="Int32" Name="connectivity" format="ascii">
0 1
1 2
2 3

        </DataArray>
        <DataArray type="Int32" Name="offsets" format="ascii">
2 4 6 
        </DataArray>
        <DataArray type="UInt8" Name="types" format="ascii">
3 3 3 
        </DataArray>
      </Cells>
      <PointData>
        <DataArray type="Float64" Name="rho">
          8.56419130e-01 8.58152694e-01 8.60011342e-01 8.61975184e-01 
        </DataArray>
        <DataArray type="Float64" Name="rhou">
          1.28299714e-03 1.15919897e-03 1.06554369e-03 1.01733161e-03 
        </DataArray>
        <DataArray type="Float64" Name="rhov">
          1.55355621e-04 1.19507255e-04 1.12190768e-04 1.10710951e-04 
        </DataArray>
        <DataArray type="Float64" Name="E">
          1.93910237e+05 1.94325779e+05 1.94770734e+05 1.95240454e+05 
        </DataArray>
      </PointData>
    </Piece>
    <Piece NumberOfPoints="4" NumberOfCells="3">
      <Points>
        <DataArray type="Float64" NumberOfComponents="3" format="ascii">
          3.79699975e-01 5.86590059e-02 0.00000000e+00 
3.90083700e-01 5.83211333e-02 0.00000000e+00 
4.00466233e-01 5.79482466e-02 0.00000000e+00 
4.10847515e-01 5.75418957e-02 0.00000000e+00 

        </DataArray>
      </Points>
      <Cells>
        <DataArray type="Int32" Name="connectivity" format="ascii">
0 1
1 2
2 3

        </DataArray>
        <DataArray type="Int32" Name="offsets" format="ascii">
2 4 6 
        </DataArray>
        <DataArray type="UInt8" Name="types" format="ascii">
3 3 3 
        </DataArray>
      </Cells>
      <PointData>
        <DataArray type="Float64" Name="rho">
          8.61975196e-01 8.64027338e-01 8.66157807e-01 8.68359975e-01 
        </DataArray>
        <DataArray type="Float64" Name="rhou">
          1.00968322e-03 9.45507943e-04 8.66974673e-04 7.91181934e-04 
        </DataArray>
        <DataArray type="Float64" Name="rhov">
          1.13136471e-04 8.30218337e-05 6.04019680e-05 6.58508418e-05 
        </DataArray>
        <DataArray type="Float64" Name="E">
          1.95240457e+05 1.95730994e+05 1.96239992e+05 1.96765840e+05 
        </DataArray>
      </PointData>
    </Piece>
    <Piece NumberOfPoints="4" NumberOfCells="3">
      <Points>
        <DataArray type="Float64" NumberOfComponents="3" format="ascii">
          4.10847515e-01 5.75418957e-02 0.00000000e+00 
4.21227485e-01 5.71038015e-02 0.00000000e+00 
4.31606144e-01 5.66351078e-02 0.00000000e+00 
4.41983402e-01 5.61364293e-02 0.00000000e+00 

        </DataArray>
      </Points>
      <Cells>
        <DataArray type="Int32" Name="connectivity" format="ascii">
0 1
1 2
2 3

        </DataArray>
        <DataArray type="Int32" Name="offsets" format="ascii">
2 4 6 
        </DataArray>
        <DataArray type="UInt8" Name="types" format="ascii">
3 3 3 
        </DataArray>
      </Cells>
      <PointData>
        <DataArray type="Float64" Name="rho">
          8.68359775e-01 8.70617994e-01 8.72920549e-01 8.75257700e-01 
        </DataArray>
        <DataArray type="Float64" Name="rhou">
          8.07695462e-04 7.56231365e-04 7.17264297e-04 6.80204350e-04 
        </DataArray>
        <DataArray type="Float64" Name="rhov">
          6.92668342e-05 6.94882869e-05 6.00434293e-05 3.92298756e-05 
        </DataArray>
        <DataArray type="Float64" Name="E">
          1.96765795e+05 1.97304839e+05 1.97854347e+05 1.98412039e+05 
        </DataArray>
      </PointData>
    </Piece>
    <Piece NumberOfPoints="4" NumberOfCells="3">
      <Points>
        <DataArray type="Float64" NumberOfComponents="3" format="ascii">
          4.41983402e-01 5.61364293e-02 0.00000000e+00 
4.52359200e-01 5.56085743e-02 0.00000000e+00 
4.62733537e-01 5.50529286e-02 0.00000000e+00 
4.73106444e-01 5.44707514e-02 0.00000000e+00 

        </DataArray>
      </Points>
      <Cells>
        <DataArray type="Int32" Name="connectivity" format="ascii">
0 1
1 2
2 3

        </DataArray>
        <DataArray type="Int32" Name="offsets" format="ascii">
2 4 6 
        </DataArray>
        <DataArray type="UInt8" Name="types" format="ascii">
3 3 3 
        </DataArray>
      </Cells>
      <PointData>
        <DataArray type="Float64" Name="rho">
          8.75257842e-01 8.77625058e-01 8.80015805e-01 8.82421528e-01 
        </DataArray>
        <DataArray type="Float64" Name="rhou">
          6.77227500e-04 6.21571655e-04 5.81760579e-04 5.58357914e-04 
        </DataArray>
        <DataArray type="Float64" Name="rhov">
          3.98728603e-05 3.26033031e-05 3.31907270e-05 3.35241413e-05 
        </DataArray>
        <DataArray type="Float64" Name="E">
          1.98412071e+05 1.98976852e+05 1.99547177e+05 2.00121046e+05 
        </DataArray>
      </PointData>
    </Piece>
    <Piece NumberOfPoints="4" NumberOfCells="3">
      <Points>
        <DataArray type="Float64" NumberOfComponents="3" format="ascii">
          4.73106444e-01 5.44707514e-02 0.00000000e+00 
4.83477861e-01 5.38627952e-02 0.00000000e+00 
4.93847787e-01 5.32294959e-02 0.00000000e+00 
5.04216135e-01 5.25716618e-02 0.00000000e+00 

        </DataArray>
      </Points>
      <Cells>
        <DataArray type="Int32" Name="connectivity" format="ascii">
0 1
1 2
2 3

        </DataArray>
        <DataArray type="Int32" Name="offsets" format="ascii">
2 4 6 
        </DataArray>
        <DataArray type="UInt8" Name="types" format="ascii">
3 3 3 
        </DataArray>
      </Cells>
      <PointData>
        <DataArray type="Float64" Name="rho">
          8.82421515e-01 8.84835287e-01 8.87251660e-01 8.89669422e-01 
        </DataArray>
        <DataArray type="Float64" Name="rhou">
          5.50807610e-04 5.29969619e-04 4.95065429e-04 4.53665757e-04 
        </DataArray>
        <DataArray type="Float64" Name="rhov">
          3.53252433e-05 2.41249632e-05 9.49925243e-06 7.02634610e-06 
        </DataArray>
        <DataArray type="Float64" Name="E">
          2.00121044e+05 2.00696838e+05 2.01273283e+05 2.01850063e+05 
        </DataArray>
      </PointData>
    </Piece>
    <Piece NumberOfPoints="4" NumberOfCells="3">
      <Points>
        <DataArray type="Float64" NumberOfComponents="3" format="ascii">
          5.04216135e-01 5.25716618e-02 0.00000000e+00 
5.14582992e-01 5.18903993e-02 0.00000000e+00 
5.24948359e-01 5.11864908e-02 0.00000000e+00 
5.35312176e-01 5.04603274e-02 0.00000000e+00 

        </DataArray>
      </Points>
      <Cells>
        <DataArray type="Int32" Name="connectivity" format="ascii">
0 1
1 2
2 3

        </DataArray>
        <DataArray type="Int32" Name="offsets" format="ascii">
2 4 6 
        </DataArray>
        <DataArray type="UInt8" Name="types" format="ascii">
3 3 3 
        </DataArray>
      </Cells>
      <PointData>
        <DataArray type="Float64" Name="rho">
          8.89669337e-01 8.92083012e-01 8.94488070e-01 8.96880967e-01 
        </DataArray>
        <DataArray type="Float64" Name="rhou">
          4.62155709e-04 4.36318191e-04 4.16837287e-04 3.97711856e-04 
        </DataArray>
        <DataArray type="Float64" Name="rhov">
          9.17698330e-06 8.91021990e-06 3.64538346e-06 -7.97731955e-06 
        </DataArray>
        <DataArray type="Float64" Name="E">
          2.01850044e+05 2.02425876e+05 2.02999704e+05 2.03570696e+05 
        </DataArray>
      </PointData>
    </Piece>
    <Piece NumberOfPoints="4" NumberOfCells="3">
      <Points>
        <DataArray type="Float64" NumberOfComponents="3" format="ascii">
          5.35312176e-01 5.04603274e-02 0.00000000e+00 
5.45674443e-01 4.97124642e-02 0.00000000e+00 
5.56035221e-01 4.89437394e-02 0.00000000e+00 
5.66394389e-01 4.81546782e-02 0.00000000e+00 

        </DataArray>
      </Points>
      <Cells>
        <DataArray type="Int32" Name="connectivity" format="ascii">
0 1
1 2
2 3

        </DataArray>
        <DataArray type="Int32" Name="offsets" format="ascii">
2 4 6 
        </DataArray>
        <DataArray type="UInt8" Name="types" format="ascii">
3 3 3 
        </DataArray>
      </Cells>
      <PointData>
        <DataArray type="Float64" Name="rho">
          8.96881012e-01 8.99260999e-01 9.01625103e-01 9.03970406e-01 
        </DataArray>
        <DataArray type="Float64" Name="rhou">
          3.93484183e-04 3.67458402e-04 3.49376513e-04 3.37872565e-04 
        </DataArray>
        <DataArray type="Float64" Name="rhov">
          -7.69264781e-06 -8.33298713e-06 -8.98336699e-06 -1.31054735e-05 
        </DataArray>
        <DataArray type="Float64" Name="E">
          2.03570706e+05 2.04138665e+05 2.04702894e+05 2.05262709e+05 
        </DataArray>
      </PointData>
    </Piece>
    <Piece NumberOfPoints="4" NumberOfCells="3">
      <Points>
        <DataArray type="Float64" NumberOfComponents="3" format="ascii">
          5.66394389e-01 4.81546782e-02 0.00000000e+00 
5.76752067e-01 4.73455116e-02 0.00000000e+00 
5.87108195e-01 4.65166979e-02 0.00000000e+00 
5.97462773e-01 4.56690118e-02 0.00000000e+00 

        </DataArray>
      </Points>
      <Cells>
        <DataArray type="Int32" Name="connectivity" format="ascii">
0 1
1 2
2 3

        </DataArray>
        <DataArray type="Int32" Name="offsets" format="ascii">
2 4 6 
        </DataArray>
        <DataArray type="UInt8" Name="types" format="ascii">
3 3 3 
        </DataArray>
      </Cells>
      <PointData>
        <DataArray type="Float64" Name="rho">
          9.03970435e-01 9.06295204e-01 9.08599057e-01 9.10881044e-01 
        </DataArray>
        <DataArray type="Float64" Name="rhou">
          3.37189615e-04 3.17247357e-04 2.96642826e-04 2.81028741e-04 
        </DataArray>
        <DataArray type="Float64" Name="rhov">
          -1.27698941e-05 -2.12290635e-05 -2.46632513e-05 -2.34250848e-05 
        </DataArray>
        <DataArray type="Float64" Name="E">
          2.05262716e+05 2.05817708e+05 2.06367771e+05 2.06912674e+05 
        </DataArray>
      </PointData>
    </Piece>
    <Piece NumberOfPoints="4" NumberOfCells="3">
      <Points>
        <DataArray type="Float64" NumberOfComponents="3" format="ascii">
          5.97462773e-01 4.56690118e-02 0.00000000e+00 
6.07815862e-01 4.48031016e-02 0.00000000e+00 
6.18167400e-01 4.39192392e-02 0.00000000e+00 
6.28517449e-01 4.30175588e-02 0.00000000e+00 

        </DataArray>
      </Points>
      <Cells>
        <DataArray type="Int32" Name="connectivity" format="ascii">
0 1
1 2
2 3

        </DataArray>
        <DataArray type="Int32" Name="offsets" format="ascii">
2 4 6 
        </DataArray>
        <DataArray type="UInt8" Name="types" format="ascii">
3 3 3 
        </DataArray>
      </Cells>
      <PointData>
        <DataArray type="Float64" Name="rho">
          9.10880982e-01 9.13139184e-01 9.15371773e-01 9.17578860e-01 
        </DataArray>
        <DataArray type="Float64" Name="rhou">
          2.79119800e-04 2.70800756e-04 2.59237577e-04 2.42537221e-04 
        </DataArray>
        <DataArray type="Float64" Name="rhov">
          -2.25092247e-05 -2.29291142e-05 -2.84073318e-05 -3.36380469e-05 
        </DataArray>
        <DataArray type="Float64" Name="E">
          2.06912660e+05 2.07451951e+05 2.07985203e+05 2.08512431e+05 
        </DataArray>
      </PointData>
    </Piece>
    <Piece NumberOfPoints="4" NumberOfCells="3">
      <Points>
        <DataArray type="Float64" NumberOfComponents="3" format="ascii">
          6.28517449e-01 4.30175588e-02 0.00000000e+00 
6.38865948e-01 4.20984775e-02 0.00000000e+00 
6.49212897e-01 4.11624312e-02 0.00000000e+00 
6.59558356e-01 4.02097441e-02 0.00000000e+00 

        </DataArray>
      </Points>
      <Cells>
        <DataArray type="Int32" Name="connectivity" format="ascii">
0 1
1 2
2 3

        </DataArray>
        <DataArray type="Int32" Name="offsets" format="ascii">
2 4 6 
        </DataArray>
        <DataArray type="UInt8" Name="types" format="ascii">
3 3 3 
        </DataArray>
      </Cells>
      <PointData>
        <DataArray type="Float64" Name="rho">
          9.17578852e-01 9.19760211e-01 9.21914979e-01 9.24042813e-01 
        </DataArray>
        <DataArray type="Float64" Name="rhou">
          2.43494445e-04 2.31219026e-04 2.20763577e-04 2.09533715e-04 
        </DataArray>
        <DataArray type="Float64" Name="rhov">
          -3.26338567e-05 -3.32829564e-05 -3.50653688e-05 -3.72231702e-05 
        </DataArray>
        <DataArray type="Float64" Name="E">
          2.08512430e+05 2.09033571e+05 2.09548420e+05 2.10056888e+05 
        </DataArray>
      </PointData>
    </Piece>
    <Piece NumberOfPoints="4" NumberOfCells="3">
      <Points>
        <DataArray type="Float64" NumberOfComponents="3" format="ascii">
          6.59558356e-01 4.02097441e-02 0.00000000e+00 
6.69902325e-01 3.92407738e-02 0.00000000e+00 
6.80244744e-01 3.82556282e-02 0.00000000e+00 
6.90585554e-01 3.72543521e-02 0.00000000e+00 

        </DataArray>
      </Points>
      <Cells>
        <DataArray type="Int32" Name="connectivity" format="ascii">
0 1
1 2
2 3

        </DataArray>
        <DataArray type="Int32" Name="offsets" format="ascii">
2 4 6 
        </DataArray>
        <DataArray type="UInt8" Name="types" format="ascii">
3 3 3 
        </DataArray>
      </Cells>
      <PointData>
        <DataArray type="Float64" Name="rho">
          9.24042796e-01 9.26143664e-01 9.28216421e-01 9.30261823e-01 
        </DataArray>
        <DataArray type="Float64" Name="rhou">
          2.06377130e-04 2.01792391e-04 1.93678904e-04 1.79715252e-04 
        </DataArray>
        <DataArray type="Float64" Name="rhov">
          -3.62046208e-05 -3.61647129e-05 -4.05208967e-05 -4.40753076e-05 
        </DataArray>
        <DataArray type="Float64" Name="E">
          2.10056885e+05 2.10558958e+05 2.11054370e+05 2.11543285e+05 
        </DataArray>
      </PointData>
    </Piece>
    <Piece NumberOfPoints="4" NumberOfCells="3">
      <Points>
        <DataArray type="Float64" NumberOfComponents="3" format="ascii">
          6.90585554e-01 3.72543521e-02 0.00000000e+00 
7.00924933e-01 3.62373814e-02 0.00000000e+00 
7.11262703e-01 3.52048986e-02 0.00000000e+00 
7.21598923e-01 3.41568366e-02 0.00000000e+00 

        </DataArray>
      </Points>
      <Cells>
        <DataArray type="Int32" Name="connectivity" format="ascii">
0 1
1 2
2 3

        </DataArray>
        <DataArray type="Int32" Name="offsets" format="ascii">
2 4 6 
        </DataArray>
        <DataArray type="UInt8" Name="types" format="ascii">
3 3 3 
        </DataArray>
      </Cells>
      <PointData>
        <DataArray type="Float64" Name="rho">
          9.30261781e-01 9.32280205e-01 9.34270462e-01 9.36233168e-01 
        </DataArray>
        <DataArray type="Float64" Name="rhou">
          1.78366787e-04 1.73759019e-04 1.68982747e-04 1.56636519e-04 
        </DataArray>
        <DataArray type="Float64" Name="rhov">
          -4.29755005e-05 -4.05199758e-05 -4.37666539e-05 -4.83932850e-05 
        </DataArray>
        <DataArray type="Float64" Name="E">
          2.11543276e+05 2.12025773e+05 2.12501578e+05 2.12970824e+05 
        </DataArray>
      </PointData>
    </Piece>
    <Piece NumberOfPoints="4" NumberOfCells="3">
      <Points>
        <DataArray type="Float64" NumberOfComponents="3" format="ascii">
          7.21598923e-01 3.41568366e-02 0.00000000e+00 
7.31933594e-01 3.30936089e-02 0.00000000e+00 
7.42266715e-01 3.20154354e-02 0.00000000e+00 
7.52598286e-01 3.09220124e-02 0.00000000e+00 

        </DataArray>
      </Points>
      <Cells>
        <DataArray type="Int32" Name="connectivity" format="ascii">
0 1
1 2
2 3

        </DataArray>
        <DataArray type="Int32" Name="offsets" format="ascii">
2 4 6 
        </DataArray>
        <DataArray type="UInt8" Name="types" format="ascii">
3 3 3 
        </DataArray>
      </Cells>
      <PointData>
        <DataArray type="Float64" Name="rho">
          9.36233148e-01 9.38169294e-01 9.40077560e-01 9.41958450e-01 
        </DataArray>
        <DataArray type="Float64" Name="rhou">
          1.54060232e-04 1.50355072e-04 1.47856527e-04 1.38166022e-04 
        </DataArray>
        <DataArray type="Float64" Name="rhov">
          -4.74428224e-05 -4.30691810e-05 -4.52878158e-05 -5.02734261e-05 
        </DataArray>
        <DataArray type="Float64" Name="E">
          2.12970819e+05 2.13433727e+05 2.13889993e+05 2.14339727e+05 
        </DataArray>
      </PointData>
    </Piece>
    <Piece NumberOfPoints="4" NumberOfCells="3">
      <Points>
        <DataArray type="Float64" NumberOfComponents="3" format="ascii">
          7.52598286e-01 3.09220124e-02 0.00000000e+00 
7.62928188e-01 2.98135038e-02 0.00000000e+00 
7.73256481e-01 2.86899786e-02 0.00000000e+00 
7.83583105e-01 2.75512449e-02 0.00000000e+00 

        </DataArray>
      </Points>
      <Cells>
        <DataArray type="Int32" Name="connectivity" format="ascii">
0 1
1 2
2 3

        </DataArray>
        <DataArray type="Int32" Name="offsets" format="ascii">
2 4 6 
        </DataArray>
        <DataArray type="UInt8" Name="types" format="ascii">
3 3 3 
        </DataArray>
      </Cells>
      <PointData>
        <DataArray type="Float64" Name="rho">
          9.41958445e-01 9.43813070e-01 9.45640649e-01 9.47441864e-01 
        </DataArray>
        <DataArray type="Float64" Name="rhou">
          1.35669211e-04 1.32355951e-04 1.28911706e-04 1.20187706e-04 
        </DataArray>
        <DataArray type="Float64" Name="rhov">
          -4.93786057e-05 -4.71474516e-05 -4.92905974e-05 -5.24405511e-05 
        </DataArray>
        <DataArray type="Float64" Name="E">
          2.14339726e+05 2.14783178e+05 2.15220165e+05 2.15650837e+05 
        </DataArray>
      </PointData>
    </Piece>
    <Piece NumberOfPoints="4" NumberOfCells="3">
      <Points>
        <DataArray type="Float64" NumberOfComponents="3" format="ascii">
          7.83583105e-01 2.75512449e-02 0.00000000e+00 
7.93908060e-01 2.63975188e-02 0.00000000e+00 
8.04231405e-01 2.52291560e-02 0.00000000e+00 
8.14553022e-01 2.40457114e-02 0.00000000e+00 

        </DataArray>
      </Points>
      <Cells>
        <DataArray type="Int32" Name="connectivity" format="ascii">
0 1
1 2
2 3

        </DataArray>
        <DataArray type="Int32" Name="offsets" format="ascii">
2 4 6 
        </DataArray>
        <DataArray type="UInt8" Name="types" format="ascii">
3 3 3 
        </DataArray>
      </Cells>
      <PointData>
        <DataArray type="Float64" Name="rho">
          9.47441870e-01 9.49217464e-01 9.50967370e-01 9.52690978e-01 
        </DataArray>
        <DataArray type="Float64" Name="rhou">
          1.22674431e-04 1.12724707e-04 1.12041380e-04 1.13371454e-04 
        </DataArray>
        <DataArray type="Float64" Name="rhov">
          -5.27802694e-05 -4.92413172e-05 -4.80668674e-05 -5.43349482e-05 
        </DataArray>
        <DataArray type="Float64" Name="E">
          2.15650838e+05 2.16075360e+05 2.16493711e+05 2.16905746e+05 
        </DataArray>
      </PointData>
    </Piece>
    <Piece NumberOfPoints="4" NumberOfCells="3">
      <Points>
        <DataArray type="Float64" NumberOfComponents="3" format="ascii">
          8.14553022e-01 2.40457114e-02 0.00000000e+00 
8.24872792e-01 2.28467938e-02 0.00000000e+00 
8.35190892e-01 2.16327831e-02 0.00000000e+00 
8.45507145e-01 2.04038676e-02 0.00000000e+00 

        </DataArray>
      </Points>
      <Cells>
        <DataArray type="Int32" Name="connectivity" format="ascii">
0 1
1 2
2 3

        </DataArray>
        <DataArray type="Int32" Name="offsets" format="ascii">
2 4 6 
        </DataArray>
        <DataArray type="UInt8" Name="types" format="ascii">
3 3 3 
        </DataArray>
      </Cells>
      <PointData>
        <DataArray type="Float64" Name="rho">
          9.52691020e-01 9.54389947e-01 9.56064483e-01 9.57714784e-01 
        </DataArray>
        <DataArray type="Float64" Name="rhou">
          1.07699540e-04 1.00160585e-04 9.38753200e-05 9.49066286e-05 
        </DataArray>
        <DataArray type="Float64" Name="rhov">
          -5.45946716e-05 -5.45492115e-05 -5.19199350e-05 -4.83015129e-05 
        </DataArray>
        <DataArray type="Float64" Name="E">
          2.16905755e+05 2.17311835e+05 2.17712015e+05 2.18106321e+05 
        </DataArray>
      </PointData>
    </Piece>
    <Piece NumberOfPoints="4" NumberOfCells="3">
      <Points>
        <DataArray type="Float64" NumberOfComponents="3" format="ascii">
          8.45507145e-01 2.04038676e-02 0.00000000e+00 
8.55821550e-01 1.91591792e-02 0.00000000e+00 
8.66134048e-01 1.78987328e-02 0.00000000e+00 
8.76444638e-01 1.66228991e-02 0.00000000e+00 

        </DataArray>
      </Points>
      <Cells>
        <DataArray type="Int32" Name="connectivity" format="ascii">
0 1
1 2
2 3

        </DataArray>
        <DataArray type="Int32" Name="offsets" format="ascii">
2 4 6 
        </DataArray>
        <DataArray type="UInt8" Name="types" format="ascii">
3 3 3 
        </DataArray>
      </Cells>
      <PointData>
        <DataArray type="Float64" Name="rho">
          9.57714891e-01 9.59339691e-01 9.60942710e-01 9.62520642e-01 
        </DataArray>
        <DataArray type="Float64" Name="rhou">
          1.15275213e-04 8.56211564e-05 8.47219431e-05 1.00599833e-04 
        </DataArray>
        <DataArray type="Float64" Name="rhov">
          -5.18042536e-05 -5.89732393e-05 -5.66664092e-05 -7.39009412e-05 
        </DataArray>
        <DataArray type="Float64" Name="E">
          2.18106345e+05 2.18494479e+05 2.18877271e+05 2.19253955e+05 
        </DataArray>
      </PointData>
    </Piece>
    <Piece NumberOfPoints="4" NumberOfCells="3">
      <Points>
        <DataArray type="Float64" NumberOfComponents="3" format="ascii">
          8.76444638e-01 1.66228991e-02 0.00000000e+00 
8.86753201e-01 1.53310820e-02 0.00000000e+00 
8.97059798e-01 1.40233757e-02 0.00000000e+00 
9.07364249e-01 1.26988320e-02 0.00000000e+00 

        </DataArray>
      </Points>
      <Cells>
        <DataArray type="Int32" Name="connectivity" format="ascii">
0 1
1 2
2 3

        </DataArray>
        <DataArray type="Int32" Name="offsets" format="ascii">
2 4 6 
        </DataArray>
        <DataArray type="UInt8" Name="types" format="ascii">
3 3 3 
        </DataArray>
      </Cells>
      <PointData>
        <DataArray type="Float64" Name="rho">
          9.62520207e-01 9.64079497e-01 9.65612911e-01 9.67138648e-01 
        </DataArray>
        <DataArray type="Float64" Name="rhou">
          1.13982657e-05 1.01600831e-04 4.83168036e-05 -2.64293958e-06 
        </DataArray>
        <DataArray type="Float64" Name="rhov">
          -6.61721864e-05 -6.98748176e-05 -8.86660722e-05 6.84294556e-06 
        </DataArray>
        <DataArray type="Float64" Name="E">
          2.19253856e+05 2.19625887e+05 2.19991608e+05 2.20355163e+05 
        </DataArray>
      </PointData>
    </Piece>
    <Piece NumberOfPoints="4" NumberOfCells="3">
      <Points>
        <DataArray type="Float64" NumberOfComponents="3" format="ascii">
          9.07364249e-01 1.26988320e-02 0.00000000e+00 
9.17666554e-01 1.13577880e-02 0.00000000e+00 
9.27966774e-01 1.00004105e-02 0.00000000e+00 
9.38264549e-01 8.62528384e-03 0.00000000e+00 

        </DataArray>
      </Points>
      <Cells>
        <DataArray type="Int32" Name="connectivity" format="ascii">
0 1
1 2
2 3

        </DataArray>
        <DataArray type="Int32" Name="offsets" format="ascii">
2 4 6 
        </DataArray>
        <DataArray type="UInt8" Name="types" format="ascii">
3 3 3 
        </DataArray>
      </Cells>
      <PointData>
        <DataArray type="Float64" Name="rho">
          9.67143370e-01 9.68620286e-01 9.70119273e-01 9.71474547e-01 
        </DataArray>
        <DataArray type="Float64" Name="rhou">
          7.83734048e-04 -1.94522737e-04 3.40025181e-04 7.53326506e-04 
        </DataArray>
        <DataArray type="Float64" Name="rhov">
          -6.05697904e-05 -1.12768722e-04 -4.47605123e-05 -1.42104468e-03 
        </DataArray>
        <DataArray type="Float64" Name="E">
          2.20356238e+05 2.20708270e+05 2.21064971e+05 2.21388655e+05 
        </DataArray>
      </PointData>
    </Piece>
    <Piece NumberOfPoints="4" NumberOfCells="3">
      <Points>
        <DataArray type="Float64" NumberOfComponents="3" format="ascii">
          9.38264549e-01 8.62528384e-03 0.00000000e+00 
9.48560059e-01 7.23283459e-03 0.00000000e+00 
9.58853185e-01 5.82307298e-03 0.00000000e+00 
9.69143867e-01 4.39538015e-03 0.00000000e+00 

        </DataArray>
      </Points>
      <Cells>
        <DataArray type="Int32" Name="connectivity" format="ascii">
0 1
1 2
2 3

        </DataArray>
        <DataArray type="Int32" Name="offsets" format="ascii">
2 4 6 
        </DataArray>
        <DataArray type="UInt8" Name="types" format="ascii">
3 3 3 
        </DataArray>
      </Cells>
      <PointData>
        <DataArray type="Float64" Name="rho">
          9.71428407e-01 9.73092965e-01 9.74355688e-01 9.77020900e-01 
        </DataArray>
        <DataArray type="Float64" Name="rhou">
          -6.48037962e-03 2.08385421e-03 -3.06126994e-03 -1.84684464e-02 
        </DataArray>
        <DataArray type="Float64" Name="rhov">
          -1.05485551e-03 1.25779746e-04 -1.09049804e-03 1.83969232e-02 
        </DataArray>
        <DataArray type="Float64" Name="E">
          2.21378142e+05 2.21772177e+05 2.22074778e+05 2.22697492e+05 
        </DataArray>
      </PointData>
    </Piece>
    <Piece NumberOfPoints="4" NumberOfCells="3">
      <Points>
        <DataArray type="Float64" NumberOfComponents="3" format="ascii">
          9.69143867e-01 4.39538015e-03 0.00000000e+00 
9.79435980e-01 2.94816052e-03 0.00000000e+00 
9.89725590e-01 1.48259092e-03 0.00000000e+00 
1.00000000e+00 0.00000000e+00 0.00000000e+00 

        </DataArray>
      </Points>
      <Cells>
        <DataArray type="Int32" Name="connectivity" format="ascii">
0 1
1 2
2 3

        </DataArray>
        <DataArray type="Int32" Name="offsets" format="ascii">
2 4 6 
        </DataArray>
        <DataArray type="UInt8" Name="types" format="ascii">
3 3 3 
        </DataArray>
      </Cells>
      <PointData>
        <DataArray type="Float64" Name="rho">
          9.77306421e-01 9.76975084e-01 9.80729640e-01 9.71142302e-01 
        </DataArray>
        <DataArray type="Float64" Name="rhou">
          -1.49670007e-03 -9.29203790e-03 -3.65044301e-02 4.82814534e-01 
        </DataArray>
        <DataArray type="Float64" Name="rhov">
          2.04782896e-02 1.08327166e-03 5.08786421e-02 -1.32762856e-01 
        </DataArray>
        <DataArray type="Float64" Name="E">
          2.22762574e+05 2.22703208e+05 2.23576557e+05 2.21410970e+05 
        </DataArray>
      </PointData>
    </Piece>
    <Piece NumberOfPoints="4" NumberOfCells="3">
      <Points>
        <DataArray type="Float64" NumberOfComponents="3" format="ascii">
          9.69029665e-01 -4.41133138e-03 0.00000000e+00 
9.79355037e-01 -2.95961346e-03 0.00000000e+00 
9.89677846e-01 -1.48943183e-03 0.00000000e+00 
1.00000000e+00 0.00000000e+00 0.00000000e+00 

        </DataArray>
      </Points>
      <Cells>
        <DataArray type="Int32" Name="connectivity" format="ascii">
0 1
1 2
2 3

        </DataArray>
        <DataArray type="Int32" Name="offsets" format="ascii">
2 4 6 
        </DataArray>
        <DataArray type="UInt8" Name="types" format="ascii">
3 3 3 
        </DataArray>
      </Cells>
      <PointData>
        <DataArray type="Float64" Name="rho">
          9.76200952e-01 9.75926582e-01 9.79649101e-01 9.71321662e-01 
        </DataArray>
        <DataArray type="Float64" Name="rhou">
          -9.39762617e-04 -7.26292423e-03 -3.46480253e-02 4.44447638e-01 
        </DataArray>
        <DataArray type="Float64" Name="rhov">
          -2.29285987e-02 2.08201055e-03 -4.74962866e-02 1.39307302e-01 
        </DataArray>
        <DataArray type="Float64" Name="E">
          2.22519028e+05 2.22469913e+05 2.23332776e+05 2.21451838e+05 
        </DataArray>
      </PointData>
    </Piece>
    <Piece NumberOfPoints="4" NumberOfCells="3">
      <Points>
        <DataArray type="Float64" NumberOfComponents="3" format="ascii">
          9.38035965e-01 -8.65600072e-03 0.00000000e+00 
9.48369622e-01 -7.25875143e-03 0.00000000e+00 
9.58700895e-01 -5.84406452e-03 0.00000000e+00 
9.69029665e-01 -4.41133138e-03 0.00000000e+00 

        </DataArray>
      </Points>
      <Cells>
        <DataArray type="Int32" Name="connectivity" format="ascii">
0 1
1 2
2 3

        </DataArray>
        <DataArray type="Int32" Name="offsets" format="ascii">
2 4 6 
        </DataArray>
        <DataArray type="UInt8" Name="types" format="ascii">
3 3 3 
        </DataArray>
      </Cells>
      <PointData>
        <DataArray type="Float64" Name="rho">
          9.70478865e-01 9.72101205e-01 9.73335149e-01 9.75918593e-01 
        </DataArray>
        <DataArray type="Float64" Name="rhou">
          -6.11258406e-03 2.24958409e-03 -2.51509605e-03 -1.66136416e-02 
        </DataArray>
        <DataArray type="Float64" Name="rhov">
          1.06645503e-03 -1.65488682e-04 1.30580444e-03 -1.69760449e-02 
        </DataArray>
        <DataArray type="Float64" Name="E">
          2.21175621e+05 2.21558691e+05 2.21852974e+05 2.22454716e+05 
        </DataArray>
      </PointData>
    </Piece>
    <Piece NumberOfPoints="4" NumberOfCells="3">
      <Points>
        <DataArray type="Float64" NumberOfComponents="3" format="ascii">
          9.07021165e-01 -1.27432076e-02 0.00000000e+00 
9.17361677e-01 -1.13977119e-02 0.00000000e+00 
9.27700043e-01 -1.00357840e-02 0.00000000e+00 
9.38035965e-01 -8.65600072e-03 0.00000000e+00 

        </DataArray>
      </Points>
      <Cells>
        <DataArray type="Int32" Name="connectivity" format="ascii">
0 1
1 2
2 3

        </DataArray>
        <DataArray type="Int32" Name="offsets" format="ascii">
2 4 6 
        </DataArray>
        <DataArray type="UInt8" Name="types" format="ascii">
3 3 3 
        </DataArray>
      </Cells>
      <PointData>
        <DataArray type="Float64" Name="rho">
          9.66334955e-01 9.67757391e-01 9.69208477e-01 9.70523980e-01 
        </DataArray>
        <DataArray type="Float64" Name="rhou">
          9.10149129e-04 -4.98470212e-05 4.96482330e-04 8.80444446e-04 
        </DataArray>
        <DataArray type="Float64" Name="rhov">
          4.73925810e-05 7.35171474e-05 -9.61450647e-06 1.34285989e-03 
        </DataArray>
        <DataArray type="Float64" Name="E">
          2.20188425e+05 2.20527307e+05 2.20872278e+05 2.21185894e+05 
        </DataArray>
      </PointData>
    </Piece>
    <Piece NumberOfPoints="4" NumberOfCells="3">
      <Points>
        <DataArray type="Float64" NumberOfComponents="3" format="ascii">
          8.75986874e-01 -1.66798849e-02 0.00000000e+00 
8.86333704e-01 -1.53839625e-02 0.00000000e+00 
8.96678507e-01 -1.40720531e-02 0.00000000e+00 
9.07021165e-01 -1.27432076e-02 0.00000000e+00 

        </DataArray>
      </Points>
      <Cells>
        <DataArray type="Int32" Name="connectivity" format="ascii">
0 1
1 2
2 3

        </DataArray>
        <DataArray type="Int32" Name="offsets" format="ascii">
2 4 6 
        </DataArray>
        <DataArray type="UInt8" Name="types" format="ascii">
3 3 3 
        </DataArray>
      </Cells>
      <PointData>
        <DataArray type="Float64" Name="rho">
          9.61944373e-01 9.63415195e-01 9.64871795e-01 9.66330218e-01 
        </DataArray>
        <DataArray type="Float64" Name="rhou">
          1.64901899e-04 2.42477722e-04 1.96845663e-04 1.46759125e-04 
        </DataArray>
        <DataArray type="Float64" Name="rhov">
          6.43008422e-05 5.62035727e-05 7.10447584e-05 -1.92878306e-05 
        </DataArray>
        <DataArray type="Float64" Name="E">
          2.19141543e+05 2.19492482e+05 2.19839878e+05 2.20187348e+05 
        </DataArray>
      </PointData>
    </Piece>
    <Piece NumberOfPoints="4" NumberOfCells="3">
      <Points>
        <DataArray type="Float64" NumberOfComponents="3" format="ascii">
          8.44934702e-01 -2.04724707e-02 0.00000000e+00 
8.55287313e-01 -1.92240477e-02 0.00000000e+00 
8.65638077e-01 -1.79597028e-02 0.00000000e+00 
8.75986874e-01 -1.66798849e-02 0.00000000e+00 

        </DataArray>
      </Points>
      <Cells>
        <DataArray type="Int32" Name="connectivity" format="ascii">
0 1
1 2
2 3

        </DataArray>
        <DataArray type="Int32" Name="offsets" format="ascii">
2 4 6 
        </DataArray>
        <DataArray type="UInt8" Name="types" format="ascii">
3 3 3 
        </DataArray>
      </Cells>
      <PointData>
        <DataArray type="Float64" Name="rho">
          9.57484778e-01 9.58979562e-01 9.60468579e-01 9.61944781e-01 
        </DataArray>
        <DataArray type="Float64" Name="rhou">
          2.92902553e-04 2.35771391e-04 2.24136272e-04 2.62038553e-04 
        </DataArray>
        <DataArray type="Float64" Name="rhov">
          3.91557529e-05 5.93273995e-05 4.92312161e-05 6.72827156e-05 
        </DataArray>
        <DataArray type="Float64" Name="E">
          2.18076510e+05 2.18433621e+05 2.18789207e+05 2.19141636e+05 
        </DataArray>
      </PointData>
    </Piece>
    <Piece NumberOfPoints="4" NumberOfCells="3">
      <Points>
        <DataArray type="Float64" NumberOfComponents="3" format="ascii">
          8.13865662e-01 -2.41250079e-02 0.00000000e+00 
8.24223816e-01 -2.29226518e-02 0.00000000e+00 
8.34580123e-01 -2.17050612e-02 0.00000000e+00 
8.44934702e-01 -2.04724707e-02 0.00000000e+00 

        </DataArray>
      </Points>
      <Cells>
        <DataArray type="Int32" Name="connectivity" format="ascii">
0 1
1 2
2 3

        </DataArray>
        <DataArray type="Int32" Name="offsets" format="ascii">
2 4 6 
        </DataArray>
        <DataArray type="UInt8" Name="types" format="ascii">
3 3 3 
        </DataArray>
      </Cells>
      <PointData>
        <DataArray type="Float64" Name="rho">
          9.52933511e-01 9.54459079e-01 9.55976331e-01 9.57484554e-01 
        </DataArray>
        <DataArray type="Float64" Name="rhou">
          2.67967795e-04 2.53447443e-04 2.38974456e-04 2.44858981e-04 
        </DataArray>
        <DataArray type="Float64" Name="rhov">
          4.99307466e-05 5.07268854e-05 4.34880394e-05 3.19134936e-05 
        </DataArray>
        <DataArray type="Float64" Name="E">
          2.16988845e+05 2.17353500e+05 2.17716096e+05 2.18076459e+05 
        </DataArray>
      </PointData>
    </Piece>
    <Piece NumberOfPoints="4" NumberOfCells="3">
      <Points>
        <DataArray type="Float64" NumberOfComponents="3" format="ascii">
          7.82780826e-01 -2.76402626e-02 0.00000000e+00 
7.93144107e-01 -2.64833923e-02 0.00000000e+00 
8.03505778e-01 -2.53117718e-02 0.00000000e+00 
8.13865662e-01 -2.41250079e-02 0.00000000e+00 

        </DataArray>
      </Points>
      <Cells>
        <DataArray type="Int32" Name="connectivity" format="ascii">
0 1
1 2
2 3

        </DataArray>
        <DataArray type="Int32" Name="offsets" format="ascii">
2 4 6 
        </DataArray>
        <DataArray type="UInt8" Name="types" format="ascii">
3 3 3 
        </DataArray>
      </Cells>
      <PointData>
        <DataArray type="Float64" Name="rho">
          9.48302036e-01 9.49854907e-01 9.51399620e-01 9.52933405e-01 
        </DataArray>
        <DataArray type="Float64" Name="rhou">
          2.87060948e-04 2.66965628e-04 2.67047850e-04 2.76870371e-04 
        </DataArray>
        <DataArray type="Float64" Name="rhov">
          4.65953526e-05 3.83789510e-05 3.40780590e-05 4.82933749e-05 
        </DataArray>
        <DataArray type="Float64" Name="E">
          2.15881537e+05 2.16252837e+05 2.16622144e+05 2.16988821e+05 
        </DataArray>
      </PointData>
    </Piece>
    <Piece NumberOfPoints="4" NumberOfCells="3">
      <Points>
        <DataArray type="Float64" NumberOfComponents="3" format="ascii">
          7.51680970e-01 -3.10197193e-02 0.00000000e+00 
7.62049198e-01 -2.99084149e-02 0.00000000e+00 
7.72415876e-01 -2.87819952e-02 0.00000000e+00 
7.82780826e-01 -2.76402626e-02 0.00000000e+00 

        </DataArray>
      </Points>
      <Cells>
        <DataArray type="Int32" Name="connectivity" format="ascii">
0 1
1 2
2 3

        </DataArray>
        <DataArray type="Int32" Name="offsets" format="ascii">
2 4 6 
        </DataArray>
        <DataArray type="UInt8" Name="types" format="ascii">
3 3 3 
        </DataArray>
      </Cells>
      <PointData>
        <DataArray type="Float64" Name="rho">
          9.43597755e-01 9.45174008e-01 9.46742007e-01 9.48302001e-01 
        </DataArray>
        <DataArray type="Float64" Name="rhou">
          2.98644169e-04 2.95072374e-04 2.90157744e-04 2.76789376e-04 
        </DataArray>
        <DataArray type="Float64" Name="rhov">
          3.94316607e-05 3.29678795e-05 3.68561921e-05 4.45146307e-05 
        </DataArray>
        <DataArray type="Float64" Name="E">
          2.14756521e+05 2.15133495e+05 2.15508481e+05 2.15881529e+05 
        </DataArray>
      </PointData>
    </Piece>
    <Piece NumberOfPoints="4" NumberOfCells="3">
      <Points>
        <DataArray type="Float64" NumberOfComponents="3" format="ascii">
          7.20566452e-01 -3.42622213e-02 0.00000000e+00 
7.30939507e-01 -3.31965312e-02 0.00000000e+00 
7.41311073e-01 -3.21157984e-02 0.00000000e+00 
7.51680970e-01 -3.10197193e-02 0.00000000e+00 

        </DataArray>
      </Points>
      <Cells>
        <DataArray type="Int32" Name="connectivity" format="ascii">
0 1
1 2
2 3

        </DataArray>
        <DataArray type="Int32" Name="offsets" format="ascii">
2 4 6 
        </DataArray>
        <DataArray type="UInt8" Name="types" format="ascii">
3 3 3 
        </DataArray>
      </Cells>
      <PointData>
        <DataArray type="Float64" Name="rho">
          9.38831639e-01 9.40427254e-01 9.42016159e-01 9.43597747e-01 
        </DataArray>
        <DataArray type="Float64" Name="rhou">
          3.22618326e-04 3.16392566e-04 3.14098485e-04 3.01801986e-04 
        </DataArray>
        <DataArray type="Float64" Name="rhov">
          3.59390289e-05 2.52463288e-05 2.80256928e-05 3.99438570e-05 
        </DataArray>
        <DataArray type="Float64" Name="E">
          2.13616532e+05 2.13998187e+05 2.14378231e+05 2.14756520e+05 
        </DataArray>
      </PointData>
    </Piece>
    <Piece NumberOfPoints="4" NumberOfCells="3">
      <Points>
        <DataArray type="Float64" NumberOfComponents="3" format="ascii">
          6.89437866e-01 -3.73662710e-02 0.00000000e+00 
6.99815631e-01 -3.63472365e-02 0.00000000e+00 
7.10191846e-01 -3.53125818e-02 0.00000000e+00 
7.20566452e-01 -3.42622213e-02 0.00000000e+00 

        </DataArray>
      </Points>
      <Cells>
        <DataArray type="Int32" Name="connectivity" format="ascii">
0 1
1 2
2 3

        </DataArray>
        <DataArray type="Int32" Name="offsets" format="ascii">
2 4 6 
        </DataArray>
        <DataArray type="UInt8" Name="types" format="ascii">
3 3 3 
        </DataArray>
      </Cells>
      <PointData>
        <DataArray type="Float64" Name="rho">
          9.34022493e-01 9.35629884e-01 9.37233058e-01 9.38831650e-01 
        </DataArray>
        <DataArray type="Float64" Name="rhou">
          3.53682318e-04 3.47039166e-04 3.40657137e-04 3.23613418e-04 
        </DataArray>
        <DataArray type="Float64" Name="rhov">
          2.80314007e-05 2.09068829e-05 2.55795381e-05 3.62397602e-05 
        </DataArray>
        <DataArray type="Float64" Name="E">
          2.12466101e+05 2.12850619e+05 2.13234128e+05 2.13616534e+05 
        </DataArray>
      </PointData>
    </Piece>
    <Piece NumberOfPoints="4" NumberOfCells="3">
      <Points>
        <DataArray type="Float64" NumberOfComponents="3" format="ascii">
          6.58295333e-01 -4.03269380e-02 0.00000000e+00 
6.68677747e-01 -3.93563360e-02 0.00000000e+00 
6.79058611e-01 -3.83694395e-02 0.00000000e+00 
6.89437866e-01 -3.73662710e-02 0.00000000e+00 

        </DataArray>
      </Points>
      <Cells>
        <DataArray type="Int32" Name="connectivity" format="ascii">
0 1
1 2
2 3

        </DataArray>
        <DataArray type="Int32" Name="offsets" format="ascii">
2 4 6 
        </DataArray>
        <DataArray type="UInt8" Name="types" format="ascii">
3 3 3 
        </DataArray>
      </Cells>
      <PointData>
        <DataArray type="Float64" Name="rho">
          9.29194728e-01 9.30805122e-01 9.32414393e-01 9.34022546e-01 
        </DataArray>
        <DataArray type="Float64" Name="rhou">
          3.88627201e-04 3.83610037e-04 3.71585367e-04 3.51819501e-04 
        </DataArray>
        <DataArray type="Float64" Name="rhov">
          1.70549266e-05 1.40860030e-05 2.07403391e-05 2.88403782e-05 
        </DataArray>
        <DataArray type="Float64" Name="E">
          2.11311107e+05 2.11696377e+05 2.12081384e+05 2.12466113e+05 
        </DataArray>
      </PointData>
    </Piece>
    <Piece NumberOfPoints="4" NumberOfCells="3">
      <Points>
        <DataArray type="Float64" NumberOfComponents="3" format="ascii">
          6.27138972e-01 -4.31386717e-02 0.00000000e+00 
6.37525976e-01 -4.22184542e-02 0.00000000e+00 
6.47911429e-01 -4.12811004e-02 0.00000000e+00 
6.58295333e-01 -4.03269380e-02 0.00000000e+00 

        </DataArray>
      </Points>
      <Cells>
        <DataArray type="Int32" Name="connectivity" format="ascii">
0 1
1 2
2 3

        </DataArray>
        <DataArray type="Int32" Name="offsets" format="ascii">
2 4 6 
        </DataArray>
        <DataArray type="UInt8" Name="types" format="ascii">
3 3 3 
        </DataArray>
      </Cells>
      <PointData>
        <DataArray type="Float64" Name="rho">
          9.24380664e-01 9.25981281e-01 9.27586588e-01 9.29194760e-01 
        </DataArray>
        <DataArray type="Float64" Name="rhou">
          4.37873928e-04 4.19881587e-04 4.03383167e-04 3.89569217e-04 
        </DataArray>
        <DataArray type="Float64" Name="rhov">
          1.35946558e-05 1.25625393e-05 1.39789440e-05 1.79783073e-05 
        </DataArray>
        <DataArray type="Float64" Name="E">
          2.10159291e+05 2.10542268e+05 2.10926354e+05 2.11311114e+05 
        </DataArray>
      </PointData>
    </Piece>
    <Piece NumberOfPoints="4" NumberOfCells="3">
      <Points>
        <DataArray type="Float64" NumberOfComponents="3" format="ascii">
          5.95968783e-01 -4.57924642e-02 0.00000000e+00 
6.06360376e-01 -4.49259281e-02 0.00000000e+00 
6.16750479e-01 -4.40412909e-02 0.00000000e+00 
6.27138972e-01 -4.31386717e-02 0.00000000e+00 

        </DataArray>
      </Points>
      <Cells>
        <DataArray type="Int32" Name="connectivity" format="ascii">
0 1
1 2
2 3

        </DataArray>
        <DataArray type="Int32" Name="offsets" format="ascii">
2 4 6 
        </DataArray>
        <DataArray type="UInt8" Name="types" format="ascii">
3 3 3 
        </DataArray>
      </Cells>
      <PointData>
        <DataArray type="Float64" Name="rho">
          9.19626075e-01 9.21202079e-01 9.22787370e-01 9.24380658e-01 
        </DataArray>
        <DataArray type="Float64" Name="rhou">
          4.80756958e-04 4.69318258e-04 4.52788157e-04 4.31522417e-04 
        </DataArray>
        <DataArray type="Float64" Name="rhov">
          1.78092246e-06 -1.31361567e-06 5.08557283e-06 1.44401875e-05 
        </DataArray>
        <DataArray type="Float64" Name="E">
          2.09021565e+05 2.09398695e+05 2.09778041e+05 2.10159290e+05 
        </DataArray>
      </PointData>
    </Piece>
    <Piece NumberOfPoints="4" NumberOfCells="3">
      <Points>
        <DataArray type="Float64" NumberOfComponents="3" format="ascii">
          5.64784765e-01 -4.82786149e-02 0.00000000e+00 
5.75181007e-01 -4.74695377e-02 0.00000000e+00 
5.85575700e-01 -4.66405638e-02 0.00000000e+00 
5.95968783e-01 -4.57924642e-02 0.00000000e+00 

        </DataArray>
      </Points>
      <Cells>
        <DataArray type="Int32" Name="connectivity" format="ascii">
0 1
1 2
2 3

        </DataArray>
        <DataArray type="Int32" Name="offsets" format="ascii">
2 4 6 
        </DataArray>
        <DataArray type="UInt8" Name="types" format="ascii">
3 3 3 
        </DataArray>
      </Cells>
      <PointData>
        <DataArray type="Float64" Name="rho">
          9.14991957e-01 9.16518173e-01 9.18063556e-01 9.19626187e-01 
        </DataArray>
        <DataArray type="Float64" Name="rhou">
          5.55059883e-04 5.29521080e-04 4.97470636e-04 4.74701101e-04 
        </DataArray>
        <DataArray type="Float64" Name="rhov">
          -9.48334586e-06 1.68492439e-06 6.31691064e-06 2.73033439e-06 
        </DataArray>
        <DataArray type="Float64" Name="E">
          2.07912409e+05 2.08277745e+05 2.08647628e+05 2.09021590e+05 
        </DataArray>
      </PointData>
    </Piece>
    <Piece NumberOfPoints="4" NumberOfCells="3">
      <Points>
        <DataArray type="Float64" NumberOfComponents="3" format="ascii">
          5.33586800e-01 -5.05827516e-02 0.00000000e+00 
5.43987691e-01 -4.98356484e-02 0.00000000e+00 
5.54387033e-01 -4.90674041e-02 0.00000000e+00 
5.64784765e-01 -4.82786149e-02 0.00000000e+00 

        </DataArray>
      </Points>
      <Cells>
        <DataArray type="Int32" Name="connectivity" format="ascii">
0 1
1 2
2 3

        </DataArray>
        <DataArray type="Int32" Name="offsets" format="ascii">
2 4 6 
        </DataArray>
        <DataArray type="UInt8" Name="types" format="ascii">
3 3 3 
        </DataArray>
      </Cells>
      <PointData>
        <DataArray type="Float64" Name="rho">
          9.10553248e-01 9.12004968e-01 9.13486364e-01 9.14991917e-01 
        </DataArray>
        <DataArray type="Float64" Name="rhou">
          6.27698618e-04 5.88756108e-04 5.60704767e-04 5.49573129e-04 
        </DataArray>
        <DataArray type="Float64" Name="rhov">
          -8.09389010e-06 -8.21910419e-06 -1.14022177e-05 -9.10583199e-06 
        </DataArray>
        <DataArray type="Float64" Name="E">
          2.06849646e+05 2.07197298e+05 2.07551979e+05 2.07912399e+05 
        </DataArray>
      </PointData>
    </Piece>
    <Piece NumberOfPoints="4" NumberOfCells="3">
      <Points>
        <DataArray type="Float64" NumberOfComponents="3" format="ascii">
          5.02374947e-01 -5.26902266e-02 0.00000000e+00 
5.12780428e-01 -5.20105064e-02 0.00000000e+00 
5.23184419e-01 -5.13078682e-02 0.00000000e+00 
5.33586800e-01 -5.05827516e-02 0.00000000e+00 

        </DataArray>
      </Points>
      <Cells>
        <DataArray type="Int32" Name="connectivity" format="ascii">
0 1
1 2
2 3

        </DataArray>
        <DataArray type="Int32" Name="offsets" format="ascii">
2 4 6 
        </DataArray>
        <DataArray type="UInt8" Name="types" format="ascii">
3 3 3 
        </DataArray>
      </Cells>
      <PointData>
        <DataArray type="Float64" Name="rho">
          9.06411681e-01 9.07752743e-01 9.09135291e-01 9.10553154e-01 
        </DataArray>
        <DataArray type="Float64" Name="rhou">
          7.07788716e-04 6.72105148e-04 6.45095176e-04 6.25082023e-04 
        </DataArray>
        <DataArray type="Float64" Name="rhov">
          -1.69418669e-05 -2.34473900e-05 -2.21602176e-05 -8.53872762e-06 
        </DataArray>
        <DataArray type="Float64" Name="E">
          2.05857350e+05 2.06178753e+05 2.06509993e+05 2.06849625e+05 
        </DataArray>
      </PointData>
    </Piece>
    <Piece NumberOfPoints="4" NumberOfCells="3">
      <Points>
        <DataArray type="Float64" NumberOfComponents="3" format="ascii">
          4.71149325e-01 -5.45825884e-02 0.00000000e+00 
4.81559396e-01 -5.39771840e-02 0.00000000e+00 
4.91967946e-01 -5.33461571e-02 0.00000000e+00 
5.02374947e-01 -5.26902266e-02 0.00000000e+00 

        </DataArray>
      </Points>
      <Cells>
        <DataArray type="Int32" Name="connectivity" format="ascii">
0 1
1 2
2 3

        </DataArray>
        <DataArray type="Int32" Name="offsets" format="ascii">
2 4 6 
        </DataArray>
        <DataArray type="UInt8" Name="types" format="ascii">
3 3 3 
        </DataArray>
      </Cells>
      <PointData>
        <DataArray type="Float64" Name="rho">
          9.02700314e-01 9.03881609e-01 9.05119166e-01 9.06411770e-01 
        </DataArray>
        <DataArray type="Float64" Name="rhou">
          8.13362389e-04 7.90934528e-04 7.44665694e-04 6.88258085e-04 
        </DataArray>
        <DataArray type="Float64" Name="rhov">
          -4.06979119e-05 -3.46510970e-05 -1.76886471e-05 -1.41475442e-05 
        </DataArray>
        <DataArray type="Float64" Name="E">
          2.04966977e+05 2.05250527e+05 2.05547435e+05 2.05857370e+05 
        </DataArray>
      </PointData>
    </Piece>
    <Piece NumberOfPoints="4" NumberOfCells="3">
      <Points>
        <DataArray type="Float64" NumberOfComponents="3" format="ascii">
          4.39910263e-01 -5.62384278e-02 0.00000000e+00 
4.50324744e-01 -5.57143167e-02 0.00000000e+00 
4.60737765e-01 -5.51619194e-02 0.00000000e+00 
4.71149325e-01 -5.45825884e-02 0.00000000e+00 

        </DataArray>
      </Points>
      <Cells>
        <DataArray type="Int32" Name="connectivity" format="ascii">
0 1
1 2
2 3

        </DataArray>
        <DataArray type="Int32" Name="offsets" format="ascii">
2 4 6 
        </DataArray>
        <DataArray type="UInt8" Name="types" format="ascii">
3 3 3 
        </DataArray>
      </Cells>
      <PointData>
        <DataArray type="Float64" Name="rho">
          8.99579942e-01 9.00539845e-01 9.01583534e-01 9.02700389e-01 
        </DataArray>
        <DataArray type="Float64" Name="rhou">
          9.80699155e-04 9.03923922e-04 8.45939953e-04 8.18796025e-04 
        </DataArray>
        <DataArray type="Float64" Name="rhov">
          -3.26994321e-05 -2.38986583e-05 -3.06560963e-05 -3.81829495e-05 
        </DataArray>
        <DataArray type="Float64" Name="E">
          2.04216592e+05 2.04447745e+05 2.04698710e+05 2.04966994e+05 
        </DataArray>
      </PointData>
    </Piece>
    <Piece NumberOfPoints="4" NumberOfCells="3">
      <Points>
        <DataArray type="Float64" NumberOfComponents="3" format="ascii">
          4.08658355e-01 -5.76302819e-02 0.00000000e+00 
4.19077009e-01 -5.71971126e-02 0.00000000e+00 
4.29494321e-01 -5.67329265e-02 0.00000000e+00 
4.39910263e-01 -5.62384278e-02 0.00000000e+00 

        </DataArray>
      </Points>
      <Cells>
        <DataArray type="Int32" Name="connectivity" format="ascii">
0 1
1 2
2 3

        </DataArray>
        <DataArray type="Int32" Name="offsets" format="ascii">
2 4 6 
        </DataArray>
        <DataArray type="UInt8" Name="types" format="ascii">
3 3 3 
        </DataArray>
      </Cells>
      <PointData>
        <DataArray type="Float64" Name="rho">
          8.97262367e-01 8.97932944e-01 8.98709319e-01 8.99579711e-01 
        </DataArray>
        <DataArray type="Float64" Name="rhou">
          1.13570755e-03 1.06625336e-03 1.01486316e-03 9.75400258e-04 
        </DataArray>
        <DataArray type="Float64" Name="rhov">
          -4.01828766e-05 -5.28411155e-05 -5.23272369e-05 -3.25534315e-05 
        </DataArray>
        <DataArray type="Float64" Name="E">
          2.03656296e+05 2.03818911e+05 2.04006578e+05 2.04216539e+05 
        </DataArray>
      </PointData>
    </Piece>
    <Piece NumberOfPoints="4" NumberOfCells="3">
      <Points>
        <DataArray type="Float64" NumberOfComponents="3" format="ascii">
          3.77394795e-01 -5.87291755e-02 0.00000000e+00 
3.87817174e-01 -5.83979115e-02 0.00000000e+00 
3.98238391e-01 -5.80311492e-02 0.00000000e+00 
4.08658355e-01 -5.76302819e-02 0.00000000e+00 

        </DataArray>
      </Points>
      <Cells>
        <DataArray type="Int32" Name="connectivity" format="ascii">
0 1
1 2
2 3

        </DataArray>
        <DataArray type="Int32" Name="offsets" format="ascii">
2 4 6 
        </DataArray>
        <DataArray type="UInt8" Name="types" format="ascii">
3 3 3 
        </DataArray>
      </Cells>
      <PointData>
        <DataArray type="Float64" Name="rho">
          8.96013232e-01 8.96293377e-01 8.96710861e-01 8.97262578e-01 
        </DataArray>
        <DataArray type="Float64" Name="rhou">
          1.38461044e-03 1.31097116e-03 1.20956326e-03 1.10463673e-03 
        </DataArray>
        <DataArray type="Float64" Name="rhov">
          -8.25086483e-05 -5.50642065e-05 -2.77082008e-05 -3.53179616e-05 
        </DataArray>
        <DataArray type="Float64" Name="E">
          2.03348848e+05 2.03419070e+05 2.03521842e+05 2.03656345e+05 
        </DataArray>
      </PointData>
    </Piece>
    <Piece NumberOfPoints="4" NumberOfCells="3">
      <Points>
        <DataArray type="Float64" NumberOfComponents="3" format="ascii">
          3.46121490e-01 -5.95011823e-02 0.00000000e+00 
3.56546819e-01 -5.92821389e-02 0.00000000e+00 
3.66971314e-01 -5.90242445e-02 0.00000000e+00 
3.77394795e-01 -5.87291755e-02 0.00000000e+00 

        </DataArray>
      </Points>
      <Cells>
        <DataArray type="Int32" Name="connectivity" format="ascii">
0 1
1 2
2 3

        </DataArray>
        <DataArray type="Int32" Name="offsets" format="ascii">
2 4 6 
        </DataArray>
        <DataArray type="UInt8" Name="types" format="ascii">
3 3 3 
        </DataArray>
      </Cells>
      <PointData>
        <DataArray type="Float64" Name="rho">
          8.96125399e-01 8.95911774e-01 8.95880170e-01 8.96013324e-01 
        </DataArray>
        <DataArray type="Float64" Name="rhou">
          1.72749467e-03 1.58312696e-03 1.45430392e-03 1.38803745e-03 
        </DataArray>
        <DataArray type="Float64" Name="rhov">
          -1.16318841e-04 -7.47721938e-05 -6.77676372e-05 -7.79089706e-05 
        </DataArray>
        <DataArray type="Float64" Name="E">
          2.03363739e+05 2.03317077e+05 2.03313477e+05 2.03348867e+05 
        </DataArray>
      </PointData>
    </Piece>
    <Piece NumberOfPoints="4" NumberOfCells="3">
      <Points>
        <DataArray type="Float64" NumberOfComponents="3" format="ascii">
          3.14841360e-01 -5.99102043e-02 0.00000000e+00 
3.25268596e-01 -5.98174632e-02 0.00000000e+00 
3.35695356e-01 -5.96801341e-02 0.00000000e+00 
3.46121490e-01 -5.95011823e-02 0.00000000e+00 

        </DataArray>
      </Points>
      <Cells>
        <DataArray type="Int32" Name="connectivity" format="ascii">
0 1
1 2
2 3

        </DataArray>
        <DataArray type="Int32" Name="offsets" format="ascii">
2 4 6 
        </DataArray>
        <DataArray type="UInt8" Name="types" format="ascii">
3 3 3 
        </DataArray>
      </Cells>
      <PointData>
        <DataArray type="Float64" Name="rho">
          8.98004248e-01 8.97141937e-01 8.96524895e-01 8.96125109e-01 
        </DataArray>
        <DataArray type="Float64" Name="rhou">
          2.17795516e-03 1.93358328e-03 1.76860818e-03 1.69197625e-03 
        </DataArray>
        <DataArray type="Float64" Name="rhov">
          -5.26548298e-05 -2.96151195e-05 -6.20928861e-05 -1.15566692e-04 
        </DataArray>
        <DataArray type="Float64" Name="E">
          2.03796908e+05 2.03596693e+05 2.03454482e+05 2.03363672e+05 
        </DataArray>
      </PointData>
    </Piece>
    <Piece NumberOfPoints="4" NumberOfCells="3">
      <Points>
        <DataArray type="Float64" NumberOfComponents="3" format="ascii">
          2.83558637e-01 -5.98983802e-02 0.00000000e+00 
2.93986142e-01 -5.99516556e-02 0.00000000e+00 
3.04413795e-01 -5.99554181e-02 0.00000000e+00 
3.14841360e-01 -5.99102043e-02 0.00000000e+00 

        </DataArray>
      </Points>
      <Cells>
        <DataArray type="Int32" Name="connectivity" format="ascii">
0 1
1 2
2 3

        </DataArray>
        <DataArray type="Int32" Name="offsets" format="ascii">
2 4 6 
        </DataArray>
        <DataArray type="UInt8" Name="types" format="ascii">
3 3 3 
        </DataArray>
      </Cells>
      <PointData>
        <DataArray type="Float64" Name="rho">
          9.02163927e-01 9.00505429e-01 8.99124414e-01 8.98003536e-01 
        </DataArray>
        <DataArray type="Float64" Name="rhou">
          2.65615786e-03 2.49102539e-03 2.35318327e-03 2.16894928e-03 
        </DataArray>
        <DataArray type="Float64" Name="rhov">
          -1.08958567e-04 -1.76079708e-04 -1.40638775e-04 -4.60620686e-05 
        </DataArray>
        <DataArray type="Float64" Name="E">
          2.04770695e+05 2.04381499e+05 2.04058222e+05 2.03796746e+05 
        </DataArray>
      </PointData>
    </Piece>
    <Piece NumberOfPoints="4" NumberOfCells="3">
      <Points>
        <DataArray type="Float64" NumberOfComponents="3" format="ascii">
          2.52279758e-01 -5.94130717e-02 0.00000000e+00 
2.62705088e-01 -5.96327744e-02 0.00000000e+00 
2.73131490e-01 -5.97934239e-02 0.00000000e+00 
2.83558637e-01 -5.98983802e-02 0.00000000e+00 

        </DataArray>
      </Points>
      <Cells>
        <DataArray type="Int32" Name="connectivity" format="ascii">
0 1
1 2
2 3

        </DataArray>
        <DataArray type="Int32" Name="offsets" format="ascii">
2 4 6 
        </DataArray>
        <DataArray type="UInt8" Name="types" format="ascii">
3 3 3 
        </DataArray>
      </Cells>
      <PointData>
        <DataArray type="Float64" Name="rho">
          9.09222665e-01 9.06499621e-01 9.04149718e-01 9.02164848e-01 
        </DataArray>
        <DataArray type="Float64" Name="rhou">
          3.62945339e-03 3.32394046e-03 2.98817708e-03 2.64239468e-03 
        </DataArray>
        <DataArray type="Float64" Name="rhov">
          -2.56650102e-04 -1.64765328e-04 -7.78587278e-05 -8.97961086e-05 
        </DataArray>
        <DataArray type="Float64" Name="E">
          2.06431979e+05 2.05790327e+05 2.05237374e+05 2.04770908e+05 
        </DataArray>
      </PointData>
    </Piece>
    <Piece NumberOfPoints="4" NumberOfCells="3">
      <Points>
        <DataArray type="Float64" NumberOfComponents="3" format="ascii">
          2.21014455e-01 -5.83752058e-02 0.00000000e+00 
2.31433928e-01 -5.87876961e-02 0.00000000e+00 
2.41855890e-01 -5.91322705e-02 0.00000000e+00 
2.52279758e-01 -5.94130717e-02 0.00000000e+00 

        </DataArray>
      </Points>
      <Cells>
        <DataArray type="Int32" Name="connectivity" format="ascii">
0 1
1 2
2 3

        </DataArray>
        <DataArray type="Int32" Name="offsets" format="ascii">
2 4 6 
        </DataArray>
        <DataArray type="UInt8" Name="types" format="ascii">
3 3 3 
        </DataArray>
      </Cells>
      <PointData>
        <DataArray type="Float64" Name="rho">
          9.19960434e-01 9.15905134e-01 9.12341594e-01 9.09222846e-01 
        </DataArray>
        <DataArray type="Float64" Name="rhou">
          4.98322625e-03 4.39775967e-03 3.95124520e-03 3.66356787e-03 
        </DataArray>
        <DataArray type="Float64" Name="rhov">
          -3.61959846e-04 -2.58093547e-04 -2.26083273e-04 -2.40275510e-04 
        </DataArray>
        <DataArray type="Float64" Name="E">
          2.08967611e+05 2.08009247e+05 2.07167784e+05 2.06432016e+05 
        </DataArray>
      </PointData>
    </Piece>
    <Piece NumberOfPoints="4" NumberOfCells="3">
      <Points>
        <DataArray type="Float64" NumberOfComponents="3" format="ascii">
          1.89777538e-01 -5.66898957e-02 0.00000000e+00 
2.00185493e-01 -5.73302582e-02 0.00000000e+00 
2.10598081e-01 -5.78906052e-02 0.00000000e+00 
2.21014455e-01 -5.83752058e-02 0.00000000e+00 

        </DataArray>
      </Points>
      <Cells>
        <DataArray type="Int32" Name="connectivity" format="ascii">
0 1
1 2
2 3

        </DataArray>
        <DataArray type="Int32" Name="offsets" format="ascii">
2 4 6 
        </DataArray>
        <DataArray type="UInt8" Name="types" format="ascii">
3 3 3 
        </DataArray>
      </Cells>
      <PointData>
        <DataArray type="Float64" Name="rho">
          9.35461357e-01 9.29688002e-01 9.24540877e-01 9.19959674e-01 
        </DataArray>
        <DataArray type="Float64" Name="rhou">
          6.90627290e-03 6.10529944e-03 5.51940369e-03 5.04564020e-03 
        </DataArray>
        <DataArray type="Float64" Name="rhov">
          -6.42505060e-04 -5.72062510e-04 -4.72709083e-04 -3.49214275e-04 
        </DataArray>
        <DataArray type="Float64" Name="E">
          2.12637302e+05 2.11269491e+05 2.10051008e+05 2.08967436e+05 
        </DataArray>
      </PointData>
    </Piece>
    <Piece NumberOfPoints="4" NumberOfCells="3">
      <Points>
        <DataArray type="Float64" NumberOfComponents="3" format="ascii">
          1.58592433e-01 -5.42296544e-02 0.00000000e+00 
1.68979734e-01 -5.51457107e-02 0.00000000e+00 
1.79375216e-01 -5.59638515e-02 0.00000000e+00 
1.89777538e-01 -5.66898957e-02 0.00000000e+00 

        </DataArray>
      </Points>
      <Cells>
        <DataArray type="Int32" Name="connectivity" format="ascii">
0 1
1 2
2 3

        </DataArray>
        <DataArray type="Int32" Name="offsets" format="ascii">
2 4 6 
        </DataArray>
        <DataArray type="UInt8" Name="types" format="ascii">
3 3 3 
        </DataArray>
      </Cells>
      <PointData>
        <DataArray type="Float64" Name="rho">
          9.57288393e-01 9.49202026e-01 9.41943249e-01 9.35461775e-01 
        </DataArray>
        <DataArray type="Float64" Name="rhou">
          9.96598171e-03 8.89107019e-03 7.94078195e-03 6.97752069e-03 
        </DataArray>
        <DataArray type="Float64" Name="rhov">
          -1.39390571e-03 -1.20247717e-03 -8.71661313e-04 -6.01967628e-04 
        </DataArray>
        <DataArray type="Float64" Name="E">
          2.17816514e+05 2.15896200e+05 2.14173999e+05 2.12637402e+05 
        </DataArray>
      </PointData>
    </Piece>
    <Piece NumberOfPoints="4" NumberOfCells="3">
      <Points>
        <DataArray type="Float64" NumberOfComponents="3" format="ascii">
          1.27497971e-01 -5.08146733e-02 0.00000000e+00 
1.37849152e-01 -5.20747155e-02 0.00000000e+00 
1.48214847e-01 -5.32093942e-02 0.00000000e+00 
1.58592433e-01 -5.42296544e-02 0.00000000e+00 

        </DataArray>
      </Points>
      <Cells>
        <DataArray type="Int32" Name="connectivity" format="ascii">
0 1
1 2
2 3

        </DataArray>
        <DataArray type="Int32" Name="offsets" format="ascii">
2 4 6 
        </DataArray>
        <DataArray type="UInt8" Name="types" format="ascii">
3 3 3 
        </DataArray>
      </Cells>
      <PointData>
        <DataArray type="Float64" Name="rho">
          9.87865647e-01 9.76489355e-01 9.66317715e-01 9.57292441e-01 
        </DataArray>
        <DataArray type="Float64" Name="rhou">
          1.44985963e-02 1.33197803e-02 1.15142586e-02 9.99446035e-03 
        </DataArray>
        <DataArray type="Float64" Name="rhov">
          -2.26975198e-03 -2.02228891e-03 -1.40705668e-03 -1.32187132e-03 
        </DataArray>
        <DataArray type="Float64" Name="E">
          2.25089652e+05 2.22381310e+05 2.19962408e+05 2.17817443e+05 
        </DataArray>
      </PointData>
    </Piece>
    <Piece NumberOfPoints="4" NumberOfCells="3">
      <Points>
        <DataArray type="Float64" NumberOfComponents="3" format="ascii">
          9.65642184e-02 -4.61716652e-02 0.00000000e+00 
1.06852271e-01 -4.78802323e-02 0.00000000e+00 
1.17164567e-01 -4.94215861e-02 0.00000000e+00 
1.27497971e-01 -5.08146733e-02 0.00000000e+00 

        </DataArray>
      </Points>
      <Cells>
        <DataArray type="Int32" Name="connectivity" format="ascii">
0 1
1 2
2 3

        </DataArray>
        <DataArray type="Int32" Name="offsets" format="ascii">
2 4 6 
        </DataArray>
        <DataArray type="UInt8" Name="types" format="ascii">
3 3 3 
        </DataArray>
      </Cells>
      <PointData>
        <DataArray type="Float64" Name="rho">
          1.03130578e+00 1.01498525e+00 1.00053430e+00 9.87873990e-01 
        </DataArray>
        <DataArray type="Float64" Name="rhou">
          2.46755557e-02 1.80888624e-02 1.71736862e-02 1.28555467e-02 
        </DataArray>
        <DataArray type="Float64" Name="rhov">
          -9.22498807e-04 -7.26392003e-04 -1.54782221e-03 -1.59043935e-03 
        </DataArray>
        <DataArray type="Float64" Name="E">
          2.35456431e+05 2.31557042e+05 2.28109419e+05 2.25091663e+05 
        </DataArray>
      </PointData>
    </Piece>
  </UnstructuredGrid>
</VTKFile>
