<?xml version="1.0"?>
<VTKFile type="UnstructuredGrid" version="0.1" byte_order="LittleEndian">
  <UnstructuredGrid>
    <Piece NumberOfPoints="4" NumberOfCells="3">
      <Points>
        <DataArray type="Float64" NumberOfComponents="3" format="ascii">
          9.65642184e-02 -4.61716652e-02 0.00000000e+00 
9.26280916e-02 -4.54656407e-02 0.00000000e+00 
8.86965096e-02 -4.47326750e-02 0.00000000e+00 
8.47706869e-02 -4.39694971e-02 0.00000000e+00 

        </DataArray>
      </Points>
      <Cells>
        <DataArray type="Int32" Name="connectivity" format="ascii">
0 1
1 2
2 3

        </DataArray>
        <DataArray type="Int32" Name="offsets" format="ascii">
2 4 6 
        </DataArray>
        <DataArray type="UInt8" Name="types" format="ascii">
3 3 3 
        </DataArray>
      </Cells>
      <PointData>
        <DataArray type="Float64" Name="rho">
          1.05182795e+00 1.05862248e+00 1.06572367e+00 1.07326043e+00 
        </DataArray>
        <DataArray type="Float64" Name="rhou">
          2.82693803e-02 2.16570685e-02 2.43067422e-02 2.44077806e-02 
        </DataArray>
        <DataArray type="Float64" Name="rhov">
          -2.38707380e-03 -1.17852468e-03 -7.75797465e-04 -1.10437575e-03 
        </DataArray>
        <DataArray type="Float64" Name="E">
          2.41045651e+05 2.42679836e+05 2.44389165e+05 2.46203407e+05 
        </DataArray>
      </PointData>
    </Piece>
    <Piece NumberOfPoints="4" NumberOfCells="3">
      <Points>
        <DataArray type="Float64" NumberOfComponents="3" format="ascii">
          8.47706869e-02 -4.39694971e-02 0.00000000e+00 
8.08513016e-02 -4.31745499e-02 0.00000000e+00 
7.69388378e-02 -4.23462167e-02 0.00000000e+00 
7.30340332e-02 -4.14824970e-02 0.00000000e+00 

        </DataArray>
      </Points>
      <Cells>
        <DataArray type="Int32" Name="connectivity" format="ascii">
0 1
1 2
2 3

        </DataArray>
        <DataArray type="Int32" Name="offsets" format="ascii">
2 4 6 
        </DataArray>
        <DataArray type="UInt8" Name="types" format="ascii">
3 3 3 
        </DataArray>
      </Cells>
      <PointData>
        <DataArray type="Float64" Name="rho">
          1.07325932e+00 1.08121430e+00 1.08962203e+00 1.09855234e+00 
        </DataArray>
        <DataArray type="Float64" Name="rhou">
          2.45148125e-02 2.36448810e-02 2.21781313e-02 2.05566265e-02 
        </DataArray>
        <DataArray type="Float64" Name="rhov">
          -9.10071903e-04 -7.01928616e-04 2.11182002e-04 1.40935141e-03 
        </DataArray>
        <DataArray type="Float64" Name="E">
          2.46203159e+05 2.48119757e+05 2.50146408e+05 2.52299925e+05 
        </DataArray>
      </PointData>
    </Piece>
    <Piece NumberOfPoints="4" NumberOfCells="3">
      <Points>
        <DataArray type="Float64" NumberOfComponents="3" format="ascii">
          7.30340332e-02 -4.14824970e-02 0.00000000e+00 
6.91377968e-02 -4.05809283e-02 0.00000000e+00 
6.52511865e-02 -3.96387354e-02 0.00000000e+00 
6.13753870e-02 -3.86530459e-02 0.00000000e+00 

        </DataArray>
      </Points>
      <Cells>
        <DataArray type="Int32" Name="connectivity" format="ascii">
0 1
1 2
2 3

        </DataArray>
        <DataArray type="Int32" Name="offsets" format="ascii">
2 4 6 
        </DataArray>
        <DataArray type="UInt8" Name="types" format="ascii">
3 3 3 
        </DataArray>
      </Cells>
      <PointData>
        <DataArray type="Float64" Name="rho">
          1.09855291e+00 1.10808789e+00 1.11825991e+00 1.12912836e+00 
        </DataArray>
        <DataArray type="Float64" Name="rhou">
          2.06687067e-02 1.82590768e-02 1.40949854e-02 8.50827105e-03 
        </DataArray>
        <DataArray type="Float64" Name="rhov">
          1.24394549e-03 2.00635784e-03 4.11098013e-03 7.32625218e-03 
        </DataArray>
        <DataArray type="Float64" Name="E">
          2.52300080e+05 2.54601294e+05 2.57057574e+05 2.59683924e+05 
        </DataArray>
      </PointData>
    </Piece>
    <Piece NumberOfPoints="4" NumberOfCells="3">
      <Points>
        <DataArray type="Float64" NumberOfComponents="3" format="ascii">
          6.13753870e-02 -3.86530459e-02 0.00000000e+00 
5.75117208e-02 -3.76208089e-02 0.00000000e+00 
5.36618084e-02 -3.65384258e-02 0.00000000e+00 
4.98276278e-02 -3.54015976e-02 0.00000000e+00 

        </DataArray>
      </Points>
      <Cells>
        <DataArray type="Int32" Name="connectivity" format="ascii">
0 1
1 2
2 3

        </DataArray>
        <DataArray type="Int32" Name="offsets" format="ascii">
2 4 6 
        </DataArray>
        <DataArray type="UInt8" Name="types" format="ascii">
3 3 3 
        </DataArray>
      </Cells>
      <PointData>
        <DataArray type="Float64" Name="rho">
          1.12912862e+00 1.14077479e+00 1.15328390e+00 1.16678682e+00 
        </DataArray>
        <DataArray type="Float64" Name="rhou">
          8.44872079e-03 1.33220932e-03 -7.93680662e-03 -1.95342185e-02 
        </DataArray>
        <DataArray type="Float64" Name="rhov">
          7.09685969e-03 1.18476517e-02 1.99846922e-02 3.15221738e-02 
        </DataArray>
        <DataArray type="Float64" Name="E">
          2.59683987e+05 2.62501862e+05 2.65530812e+05 2.68803320e+05 
        </DataArray>
      </PointData>
    </Piece>
    <Piece NumberOfPoints="4" NumberOfCells="3">
      <Points>
        <DataArray type="Float64" NumberOfComponents="3" format="ascii">
          4.98276278e-02 -3.54015976e-02 0.00000000e+00 
4.60115410e-02 -3.42054628e-02 0.00000000e+00 
4.22164090e-02 -3.29444520e-02 0.00000000e+00 
3.84457745e-02 -3.16120051e-02 0.00000000e+00 

        </DataArray>
      </Points>
      <Cells>
        <DataArray type="Int32" Name="connectivity" format="ascii">
0 1
1 2
2 3

        </DataArray>
        <DataArray type="Int32" Name="offsets" format="ascii">
2 4 6 
        </DataArray>
        <DataArray type="UInt8" Name="types" format="ascii">
3 3 3 
        </DataArray>
      </Cells>
      <PointData>
        <DataArray type="Float64" Name="rho">
          1.16678671e+00 1.18138166e+00 1.19718163e+00 1.21437700e+00 
        </DataArray>
        <DataArray type="Float64" Name="rhou">
          -1.99973938e-02 -3.41517165e-02 -5.31473065e-02 -7.58807944e-02 
        </DataArray>
        <DataArray type="Float64" Name="rhov">
          3.13076993e-02 4.80722444e-02 7.58576759e-02 1.16491242e-01 
        </DataArray>
        <DataArray type="Float64" Name="E">
          2.68803262e+05 2.72346534e+05 2.76186730e+05 2.80371966e+05 
        </DataArray>
      </PointData>
    </Piece>
    <Piece NumberOfPoints="4" NumberOfCells="3">
      <Points>
        <DataArray type="Float64" NumberOfComponents="3" format="ascii">
          3.84457745e-02 -3.16120051e-02 0.00000000e+00 
3.47041376e-02 -3.02002355e-02 0.00000000e+00 
3.09973080e-02 -2.86995135e-02 0.00000000e+00 
2.73328498e-02 -2.70981900e-02 0.00000000e+00 

        </DataArray>
      </Points>
      <Cells>
        <DataArray type="Int32" Name="connectivity" format="ascii">
0 1
1 2
2 3

        </DataArray>
        <DataArray type="Int32" Name="offsets" format="ascii">
2 4 6 
        </DataArray>
        <DataArray type="UInt8" Name="types" format="ascii">
3 3 3 
        </DataArray>
      </Cells>
      <PointData>
        <DataArray type="Float64" Name="rho">
          1.21437717e+00 1.23315562e+00 1.25371112e+00 1.27641236e+00 
        </DataArray>
        <DataArray type="Float64" Name="rhou">
          -7.68426147e-02 -1.00857785e-01 -1.29332927e-01 -1.54553337e-01 
        </DataArray>
        <DataArray type="Float64" Name="rhov">
          1.16406459e-01 1.72155455e-01 2.58406461e-01 3.79190511e-01 
        </DataArray>
        <DataArray type="Float64" Name="E">
          2.80371873e+05 2.84953719e+05 2.89977192e+05 2.95536011e+05 
        </DataArray>
      </PointData>
    </Piece>
    <Piece NumberOfPoints="4" NumberOfCells="3">
      <Points>
        <DataArray type="Float64" NumberOfComponents="3" format="ascii">
          2.73328498e-02 -2.70981900e-02 0.00000000e+00 
2.37206947e-02 -2.53822580e-02 0.00000000e+00 
2.01744195e-02 -2.35341713e-02 0.00000000e+00 
1.67132635e-02 -2.15314496e-02 0.00000000e+00 

        </DataArray>
      </Points>
      <Cells>
        <DataArray type="Int32" Name="connectivity" format="ascii">
0 1
1 2
2 3

        </DataArray>
        <DataArray type="Int32" Name="offsets" format="ascii">
2 4 6 
        </DataArray>
        <DataArray type="UInt8" Name="types" format="ascii">
3 3 3 
        </DataArray>
      </Cells>
      <PointData>
        <DataArray type="Float64" Name="rho">
          1.27641730e+00 1.30160233e+00 1.32972896e+00 1.36212362e+00 
        </DataArray>
        <DataArray type="Float64" Name="rhou">
          -1.54977206e-01 -1.68507534e-01 -1.52305653e-01 -5.55950129e-02 
        </DataArray>
        <DataArray type="Float64" Name="rhov">
          3.79894247e-01 5.32242886e-01 7.43989945e-01 9.63870137e-01 
        </DataArray>
        <DataArray type="Float64" Name="E">
          2.95536934e+05 3.01725478e+05 3.08648822e+05 3.16632101e+05 
        </DataArray>
      </PointData>
    </Piece>
    <Piece NumberOfPoints="4" NumberOfCells="3">
      <Points>
        <DataArray type="Float64" NumberOfComponents="3" format="ascii">
          1.67132635e-02 -2.15314496e-02 0.00000000e+00 
1.33649679e-02 -1.93456318e-02 0.00000000e+00 
1.01706637e-02 -1.69409402e-02 0.00000000e+00 
7.19343964e-03 -1.42731192e-02 0.00000000e+00 

        </DataArray>
      </Points>
      <Cells>
        <DataArray type="Int32" Name="connectivity" format="ascii">
0 1
1 2
2 3

        </DataArray>
        <DataArray type="Int32" Name="offsets" format="ascii">
2 4 6 
        </DataArray>
        <DataArray type="UInt8" Name="types" format="ascii">
3 3 3 
        </DataArray>
      </Cells>
      <PointData>
        <DataArray type="Float64" Name="rho">
          1.36201691e+00 1.40142502e+00 1.44817594e+00 1.51271844e+00 
        </DataArray>
        <DataArray type="Float64" Name="rhou">
          -3.29060816e-02 1.16566321e-01 4.59226296e-01 8.81601409e-01 
        </DataArray>
        <DataArray type="Float64" Name="rhov">
          9.25415589e-01 1.12998382e+00 1.07700747e+00 5.27849056e-01 
        </DataArray>
        <DataArray type="Float64" Name="E">
          3.16607622e+05 3.26321280e+05 3.37836771e+05 3.53618443e+05 
        </DataArray>
      </PointData>
    </Piece>
    <Piece NumberOfPoints="4" NumberOfCells="3">
      <Points>
        <DataArray type="Float64" NumberOfComponents="3" format="ascii">
          7.19343964e-03 -1.42731192e-02 0.00000000e+00 
4.53082798e-03 -1.12927537e-02 0.00000000e+00 
2.33371323e-03 -7.95678515e-03 0.00000000e+00 
8.10639584e-04 -4.26717056e-03 0.00000000e+00 

        </DataArray>
      </Points>
      <Cells>
        <DataArray type="Int32" Name="connectivity" format="ascii">
0 1
1 2
2 3

        </DataArray>
        <DataArray type="Int32" Name="offsets" format="ascii">
2 4 6 
        </DataArray>
        <DataArray type="UInt8" Name="types" format="ascii">
3 3 3 
        </DataArray>
      </Cells>
      <PointData>
        <DataArray type="Float64" Name="rho">
          1.51323800e+00 1.58722272e+00 1.67598948e+00 1.74478703e+00 
        </DataArray>
        <DataArray type="Float64" Name="rhou">
          8.06678103e-01 9.38135323e-01 2.65725523e-01 -1.27369321e+00 
        </DataArray>
        <DataArray type="Float64" Name="rhov">
          6.26159581e-01 -5.05380953e-01 -1.73134233e+00 -1.82999151e+00 
        </DataArray>
        <DataArray type="Float64" Name="E">
          3.53746138e+05 3.71870841e+05 3.93493801e+05 4.10275383e+05 
        </DataArray>
      </PointData>
    </Piece>
    <Piece NumberOfPoints="4" NumberOfCells="3">
      <Points>
        <DataArray type="Float64" NumberOfComponents="3" format="ascii">
          8.10639584e-04 -4.26717056e-03 0.00000000e+00 
1.91366620e-04 -3.27450951e-04 0.00000000e+00 
6.40850572e-04 3.63462302e-03 0.00000000e+00 
2.03182548e-03 7.37539819e-03 0.00000000e+00 

        </DataArray>
      </Points>
      <Cells>
        <DataArray type="Int32" Name="connectivity" format="ascii">
0 1
1 2
2 3

        </DataArray>
        <DataArray type="Int32" Name="offsets" format="ascii">
2 4 6 
        </DataArray>
        <DataArray type="UInt8" Name="types" format="ascii">
3 3 3 
        </DataArray>
      </Cells>
      <PointData>
        <DataArray type="Float64" Name="rho">
          1.74321414e+00 1.76868800e+00 1.71936949e+00 1.62795617e+00 
        </DataArray>
        <DataArray type="Float64" Name="rhou">
          -1.14782394e+00 -1.89014883e+00 -8.51726289e-01 7.44824701e-01 
        </DataArray>
        <DataArray type="Float64" Name="rhov">
          -1.98560265e+00 3.49385219e-01 1.88144621e+00 1.53150226e+00 
        </DataArray>
        <DataArray type="Float64" Name="E">
          4.09893289e+05 4.16018458e+05 4.03922103e+05 3.81520543e+05 
        </DataArray>
      </PointData>
    </Piece>
    <Piece NumberOfPoints="4" NumberOfCells="3">
      <Points>
        <DataArray type="Float64" NumberOfComponents="3" format="ascii">
          2.03182548e-03 7.37539819e-03 0.00000000e+00 
4.13410179e-03 1.07714310e-02 0.00000000e+00 
6.73249783e-03 1.38076087e-02 0.00000000e+00 
9.66598373e-03 1.65232457e-02 0.00000000e+00 

        </DataArray>
      </Points>
      <Cells>
        <DataArray type="Int32" Name="connectivity" format="ascii">
0 1
1 2
2 3

        </DataArray>
        <DataArray type="Int32" Name="offsets" format="ascii">
2 4 6 
        </DataArray>
        <DataArray type="UInt8" Name="types" format="ascii">
3 3 3 
        </DataArray>
      </Cells>
      <PointData>
        <DataArray type="Float64" Name="rho">
          1.62833073e+00 1.52229444e+00 1.43383729e+00 1.36748427e+00 
        </DataArray>
        <DataArray type="Float64" Name="rhou">
          7.16047852e-01 1.15945907e+00 8.51578296e-01 3.87212595e-01 
        </DataArray>
        <DataArray type="Float64" Name="rhov">
          1.76398745e+00 7.83422764e-02 -1.06591454e+00 -1.39948459e+00 
        </DataArray>
        <DataArray type="Float64" Name="E">
          3.81614933e+05 3.55781899e+05 3.34193207e+05 3.17916513e+05 
        </DataArray>
      </PointData>
    </Piece>
    <Piece NumberOfPoints="4" NumberOfCells="3">
      <Points>
        <DataArray type="Float64" NumberOfComponents="3" format="ascii">
          9.66598373e-03 1.65232457e-02 0.00000000e+00 
1.28298048e-02 1.89677756e-02 0.00000000e+00 
1.61561389e-02 2.11867876e-02 0.00000000e+00 
1.96009967e-02 2.32173651e-02 0.00000000e+00 

        </DataArray>
      </Points>
      <Cells>
        <DataArray type="Int32" Name="connectivity" format="ascii">
0 1
1 2
2 3

        </DataArray>
        <DataArray type="Int32" Name="offsets" format="ascii">
2 4 6 
        </DataArray>
        <DataArray type="UInt8" Name="types" format="ascii">
3 3 3 
        </DataArray>
      </Cells>
      <PointData>
        <DataArray type="Float64" Name="rho">
          1.36727894e+00 1.31532955e+00 1.27675625e+00 1.24282045e+00 
        </DataArray>
        <DataArray type="Float64" Name="rhou">
          3.96874520e-01 -7.67476952e-03 -1.93102205e-01 -2.16516186e-01 
        </DataArray>
        <DataArray type="Float64" Name="rhov">
          -1.42382510e+00 -1.32413979e+00 -9.96487025e-01 -6.71854272e-01 
        </DataArray>
        <DataArray type="Float64" Name="E">
          3.17864176e+05 3.05119756e+05 2.95606109e+05 2.87260985e+05 
        </DataArray>
      </PointData>
    </Piece>
    <Piece NumberOfPoints="4" NumberOfCells="3">
      <Points>
        <DataArray type="Float64" NumberOfComponents="3" format="ascii">
          1.96009967e-02 2.32173651e-02 0.00000000e+00 
2.31348258e-02 2.50891000e-02 0.00000000e+00 
2.67372411e-02 2.68253610e-02 0.00000000e+00 
3.03938854e-02 2.84444261e-02 0.00000000e+00 

        </DataArray>
      </Points>
      <Cells>
        <DataArray type="Int32" Name="connectivity" format="ascii">
0 1
1 2
2 3

        </DataArray>
        <DataArray type="Int32" Name="offsets" format="ascii">
2 4 6 
        </DataArray>
        <DataArray type="UInt8" Name="types" format="ascii">
3 3 3 
        </DataArray>
      </Cells>
      <PointData>
        <DataArray type="Float64" Name="rho">
          1.24288468e+00 1.21409789e+00 1.18835919e+00 1.16505601e+00 
        </DataArray>
        <DataArray type="Float64" Name="rhou">
          -2.29714827e-01 -2.18355130e-01 -1.74474003e-01 -1.33048215e-01 
        </DataArray>
        <DataArray type="Float64" Name="rhov">
          -6.90287023e-01 -4.38823274e-01 -2.51389245e-01 -1.37850691e-01 
        </DataArray>
        <DataArray type="Float64" Name="E">
          2.87276064e+05 2.80215550e+05 2.73924693e+05 2.68245341e+05 
        </DataArray>
      </PointData>
    </Piece>
    <Piece NumberOfPoints="4" NumberOfCells="3">
      <Points>
        <DataArray type="Float64" NumberOfComponents="3" format="ascii">
          3.03938854e-02 2.84444261e-02 0.00000000e+00 
3.40943485e-02 2.99607720e-02 0.00000000e+00 
3.78307216e-02 3.13864015e-02 0.00000000e+00 
4.15969416e-02 3.27312648e-02 0.00000000e+00 

        </DataArray>
      </Points>
      <Cells>
        <DataArray type="Int32" Name="connectivity" format="ascii">
0 1
1 2
2 3

        </DataArray>
        <DataArray type="Int32" Name="offsets" format="ascii">
2 4 6 
        </DataArray>
        <DataArray type="UInt8" Name="types" format="ascii">
3 3 3 
        </DataArray>
      </Cells>
      <PointData>
        <DataArray type="Float64" Name="rho">
          1.16505415e+00 1.14396511e+00 1.12481056e+00 1.10734618e+00 
        </DataArray>
        <DataArray type="Float64" Name="rhou">
          -1.31227225e-01 -9.13513202e-02 -5.86524470e-02 -3.56036237e-02 
        </DataArray>
        <DataArray type="Float64" Name="rhov">
          -1.36385979e-01 -5.92937852e-02 -1.13883187e-02 1.46756782e-02 
        </DataArray>
        <DataArray type="Float64" Name="E">
          2.68245157e+05 2.63123551e+05 2.58482416e+05 2.54258054e+05 
        </DataArray>
      </PointData>
    </Piece>
    <Piece NumberOfPoints="4" NumberOfCells="3">
      <Points>
        <DataArray type="Float64" NumberOfComponents="3" format="ascii">
          4.15969416e-02 3.27312648e-02 0.00000000e+00 
4.53883260e-02 3.40034962e-02 0.00000000e+00 
4.92011942e-02 3.52098532e-02 0.00000000e+00 
5.30325845e-02 3.63560505e-02 0.00000000e+00 

        </DataArray>
      </Points>
      <Cells>
        <DataArray type="Int32" Name="connectivity" format="ascii">
0 1
1 2
2 3

        </DataArray>
        <DataArray type="Int32" Name="offsets" format="ascii">
2 4 6 
        </DataArray>
        <DataArray type="UInt8" Name="types" format="ascii">
3 3 3 
        </DataArray>
      </Cells>
      <PointData>
        <DataArray type="Float64" Name="rho">
          1.10734676e+00 1.09138048e+00 1.07673039e+00 1.06323733e+00 
        </DataArray>
        <DataArray type="Float64" Name="rhou">
          -3.44462150e-02 -1.47874218e-02 -1.31419060e-04 9.50061202e-03 
        </DataArray>
        <DataArray type="Float64" Name="rhov">
          1.45863119e-02 2.88604452e-02 3.59981224e-02 3.75346559e-02 
        </DataArray>
        <DataArray type="Float64" Name="E">
          2.54258271e+05 2.50404404e+05 2.46873283e+05 2.43624740e+05 
        </DataArray>
      </PointData>
    </Piece>
    <Piece NumberOfPoints="4" NumberOfCells="3">
      <Points>
        <DataArray type="Float64" NumberOfComponents="3" format="ascii">
          5.30325845e-02 3.63560505e-02 0.00000000e+00 
5.68800643e-02 3.74470428e-02 0.00000000e+00 
6.07415959e-02 3.84872220e-02 0.00000000e+00 
6.46155030e-02 3.94803248e-02 0.00000000e+00 

        </DataArray>
      </Points>
      <Cells>
        <DataArray type="Int32" Name="connectivity" format="ascii">
0 1
1 2
2 3

        </DataArray>
        <DataArray type="Int32" Name="offsets" format="ascii">
2 4 6 
        </DataArray>
        <DataArray type="UInt8" Name="types" format="ascii">
3 3 3 
        </DataArray>
      </Cells>
      <PointData>
        <DataArray type="Float64" Name="rho">
          1.06323805e+00 1.05081152e+00 1.03932391e+00 1.02863428e+00 
        </DataArray>
        <DataArray type="Float64" Name="rhou">
          9.83589919e-03 1.70790965e-02 2.28458946e-02 2.69150856e-02 
        </DataArray>
        <DataArray type="Float64" Name="rhov">
          3.72134933e-02 3.58548050e-02 3.40607867e-02 3.10447341e-02 
        </DataArray>
        <DataArray type="Float64" Name="E">
          2.43624907e+05 2.40637005e+05 2.37877271e+05 2.35311403e+05 
        </DataArray>
      </PointData>
    </Piece>
    <Piece NumberOfPoints="4" NumberOfCells="3">
      <Points>
        <DataArray type="Float64" NumberOfComponents="3" format="ascii">
          6.46155030e-02 3.94803248e-02 0.00000000e+00 
6.85004294e-02 4.04294394e-02 0.00000000e+00 
7.23951608e-02 4.13374715e-02 0.00000000e+00 
7.62986317e-02 4.22072113e-02 0.00000000e+00 

        </DataArray>
      </Points>
      <Cells>
        <DataArray type="Int32" Name="connectivity" format="ascii">
0 1
1 2
2 3

        </DataArray>
        <DataArray type="Int32" Name="offsets" format="ascii">
2 4 6 
        </DataArray>
        <DataArray type="UInt8" Name="types" format="ascii">
3 3 3 
        </DataArray>
      </Cells>
      <PointData>
        <DataArray type="Float64" Name="rho">
          1.02863502e+00 1.01870081e+00 1.00943548e+00 1.00078311e+00 
        </DataArray>
        <DataArray type="Float64" Name="rhou">
          2.67402921e-02 2.88802689e-02 3.01465720e-02 3.03980711e-02 
        </DataArray>
        <DataArray type="Float64" Name="rhov">
          3.07458449e-02 2.69962241e-02 2.37567815e-02 2.05636538e-02 
        </DataArray>
        <DataArray type="Float64" Name="E">
          2.35311555e+05 2.32929298e+05 2.30708917e+05 2.28636363e+05 
        </DataArray>
      </PointData>
    </Piece>
    <Piece NumberOfPoints="4" NumberOfCells="3">
      <Points>
        <DataArray type="Float64" NumberOfComponents="3" format="ascii">
          7.62986317e-02 4.22072113e-02 0.00000000e+00 
8.02098960e-02 4.30411920e-02 0.00000000e+00 
8.41281936e-02 4.38414887e-02 0.00000000e+00 
8.80528912e-02 4.46097627e-02 0.00000000e+00 

        </DataArray>
      </Points>
      <Cells>
        <DataArray type="Int32" Name="connectivity" format="ascii">
0 1
1 2
2 3

        </DataArray>
        <DataArray type="Int32" Name="offsets" format="ascii">
2 4 6 
        </DataArray>
        <DataArray type="UInt8" Name="types" format="ascii">
3 3 3 
        </DataArray>
      </Cells>
      <PointData>
        <DataArray type="Float64" Name="rho">
          1.00078221e+00 9.92695878e-01 9.85083047e-01 9.77897195e-01 
        </DataArray>
        <DataArray type="Float64" Name="rhou">
          3.02597855e-02 3.04066285e-02 3.02553586e-02 2.92855151e-02 
        </DataArray>
        <DataArray type="Float64" Name="rhov">
          2.04010302e-02 1.79362877e-02 1.55074896e-02 1.28859997e-02 
        </DataArray>
        <DataArray type="Float64" Name="E">
          2.28636136e+05 2.26700370e+05 2.24878920e+05 2.23160489e+05 
        </DataArray>
      </PointData>
    </Piece>
    <Piece NumberOfPoints="4" NumberOfCells="3">
      <Points>
        <DataArray type="Float64" NumberOfComponents="3" format="ascii">
          8.80528912e-02 4.46097627e-02 0.00000000e+00 
9.19835642e-02 4.53475714e-02 0.00000000e+00 
9.59195644e-02 4.60564308e-02 0.00000000e+00 
9.98597518e-02 4.67394181e-02 0.00000000e+00 

        </DataArray>
      </Points>
      <Cells>
        <DataArray type="Int32" Name="connectivity" format="ascii">
0 1
1 2
2 3

        </DataArray>
        <DataArray type="Int32" Name="offsets" format="ascii">
2 4 6 
        </DataArray>
        <DataArray type="UInt8" Name="types" format="ascii">
3 3 3 
        </DataArray>
      </Cells>
      <PointData>
        <DataArray type="Float64" Name="rho">
          9.77897615e-01 9.71129857e-01 9.64766461e-01 9.58710982e-01 
        </DataArray>
        <DataArray type="Float64" Name="rhou">
          2.90731063e-02 2.77554750e-02 2.42825809e-02 2.89811043e-02 
        </DataArray>
        <DataArray type="Float64" Name="rhov">
          1.30495788e-02 1.05245468e-02 8.99308684e-03 8.56386180e-03 
        </DataArray>
        <DataArray type="Float64" Name="E">
          2.23160586e+05 2.21543089e+05 2.20022378e+05 2.18576053e+05 
        </DataArray>
      </PointData>
    </Piece>
    <Piece NumberOfPoints="4" NumberOfCells="3">
      <Points>
        <DataArray type="Float64" NumberOfComponents="3" format="ascii">
          9.98597518e-02 4.67394181e-02 0.00000000e+00 
1.10118888e-01 4.83862534e-02 0.00000000e+00 
1.20400399e-01 4.98730615e-02 0.00000000e+00 
1.30701363e-01 5.12186773e-02 0.00000000e+00 

        </DataArray>
      </Points>
      <Cells>
        <DataArray type="Int32" Name="connectivity" format="ascii">
0 1
1 2
2 3

        </DataArray>
        <DataArray type="Int32" Name="offsets" format="ascii">
2 4 6 
        </DataArray>
        <DataArray type="UInt8" Name="types" format="ascii">
3 3 3 
        </DataArray>
      </Cells>
      <PointData>
        <DataArray type="Float64" Name="rho">
          9.58637171e-01 9.44420124e-01 9.32023480e-01 9.21225176e-01 
        </DataArray>
        <DataArray type="Float64" Name="rhou">
          2.66952375e-02 1.85075248e-02 1.64327994e-02 1.29619274e-02 
        </DataArray>
        <DataArray type="Float64" Name="rhov">
          7.30178470e-03 4.09948553e-03 3.62476842e-03 2.95670424e-03 
        </DataArray>
        <DataArray type="Float64" Name="E">
          2.18559329e+05 2.15166346e+05 2.12209676e+05 2.09635261e+05 
        </DataArray>
      </PointData>
    </Piece>
    <Piece NumberOfPoints="4" NumberOfCells="3">
      <Points>
        <DataArray type="Float64" NumberOfComponents="3" format="ascii">
          1.30701363e-01 5.12186773e-02 0.00000000e+00 
1.41019106e-01 5.24347536e-02 0.00000000e+00 
1.51350453e-01 5.35292812e-02 0.00000000e+00 
1.61692888e-01 5.45137413e-02 0.00000000e+00 

        </DataArray>
      </Points>
      <Cells>
        <DataArray type="Int32" Name="connectivity" format="ascii">
0 1
1 2
2 3

        </DataArray>
        <DataArray type="Int32" Name="offsets" format="ascii">
2 4 6 
        </DataArray>
        <DataArray type="UInt8" Name="types" format="ascii">
3 3 3 
        </DataArray>
      </Cells>
      <PointData>
        <DataArray type="Float64" Name="rho">
          9.21221623e-01 9.11598092e-01 9.03131241e-01 8.95718234e-01 
        </DataArray>
        <DataArray type="Float64" Name="rhou">
          1.43799828e-02 1.24882437e-02 1.03934814e-02 9.11932878e-03 
        </DataArray>
        <DataArray type="Float64" Name="rhov">
          3.46960914e-03 2.52446109e-03 1.72386788e-03 1.53941528e-03 
        </DataArray>
        <DataArray type="Float64" Name="E">
          2.09634403e+05 2.07342160e+05 2.05326414e+05 2.03561801e+05 
        </DataArray>
      </PointData>
    </Piece>
    <Piece NumberOfPoints="4" NumberOfCells="3">
      <Points>
        <DataArray type="Float64" NumberOfComponents="3" format="ascii">
          1.61692888e-01 5.45137413e-02 0.00000000e+00 
1.72044471e-01 5.53969070e-02 0.00000000e+00 
1.82403773e-01 5.61845005e-02 0.00000000e+00 
1.92769483e-01 5.68825118e-02 0.00000000e+00 

        </DataArray>
      </Points>
      <Cells>
        <DataArray type="Int32" Name="connectivity" format="ascii">
0 1
1 2
2 3

        </DataArray>
        <DataArray type="Int32" Name="offsets" format="ascii">
2 4 6 
        </DataArray>
        <DataArray type="UInt8" Name="types" format="ascii">
3 3 3 
        </DataArray>
      </Cells>
      <PointData>
        <DataArray type="Float64" Name="rho">
          8.95715781e-01 8.89166800e-01 8.83397538e-01 8.78362999e-01 
        </DataArray>
        <DataArray type="Float64" Name="rhou">
          9.15683465e-03 8.01042350e-03 6.95334255e-03 6.02625292e-03 
        </DataArray>
        <DataArray type="Float64" Name="rhov">
          1.59216012e-03 1.21745616e-03 8.20566678e-04 5.77156010e-04 
        </DataArray>
        <DataArray type="Float64" Name="E">
          2.03561248e+05 2.02002945e+05 2.00630871e+05 1.99433879e+05 
        </DataArray>
      </PointData>
    </Piece>
    <Piece NumberOfPoints="4" NumberOfCells="3">
      <Points>
        <DataArray type="Float64" NumberOfComponents="3" format="ascii">
          1.92769483e-01 5.68825118e-02 0.00000000e+00 
2.03140482e-01 5.74972220e-02 0.00000000e+00 
2.13515818e-01 5.80338500e-02 0.00000000e+00 
2.23894730e-01 5.84962890e-02 0.00000000e+00 

        </DataArray>
      </Points>
      <Cells>
        <DataArray type="Int32" Name="connectivity" format="ascii">
0 1
1 2
2 3

        </DataArray>
        <DataArray type="Int32" Name="offsets" format="ascii">
2 4 6 
        </DataArray>
        <DataArray type="UInt8" Name="types" format="ascii">
3 3 3 
        </DataArray>
      </Cells>
      <PointData>
        <DataArray type="Float64" Name="rho">
          8.78362303e-01 8.73990382e-01 8.70204049e-01 8.66952669e-01 
        </DataArray>
        <DataArray type="Float64" Name="rhou">
          6.06403267e-03 5.31820894e-03 4.74172647e-03 4.26294458e-03 
        </DataArray>
        <DataArray type="Float64" Name="rhov">
          6.19535074e-04 5.29509991e-04 4.07931903e-04 2.76875132e-04 
        </DataArray>
        <DataArray type="Float64" Name="E">
          1.99433718e+05 1.98394481e+05 1.97494844e+05 1.96722730e+05 
        </DataArray>
      </PointData>
    </Piece>
    <Piece NumberOfPoints="4" NumberOfCells="3">
      <Points>
        <DataArray type="Float64" NumberOfComponents="3" format="ascii">
          2.23894730e-01 5.84962890e-02 0.00000000e+00 
2.34276548e-01 5.88882305e-02 0.00000000e+00 
2.44660646e-01 5.92139624e-02 0.00000000e+00 
2.55046517e-01 5.94772622e-02 0.00000000e+00 

        </DataArray>
      </Points>
      <Cells>
        <DataArray type="Int32" Name="connectivity" format="ascii">
0 1
1 2
2 3

        </DataArray>
        <DataArray type="Int32" Name="offsets" format="ascii">
2 4 6 
        </DataArray>
        <DataArray type="UInt8" Name="types" format="ascii">
3 3 3 
        </DataArray>
      </Cells>
      <PointData>
        <DataArray type="Float64" Name="rho">
          8.66953296e-01 8.64203312e-01 8.61918470e-01 8.60050365e-01 
        </DataArray>
        <DataArray type="Float64" Name="rhou">
          4.27089841e-03 3.72127394e-03 3.32310047e-03 3.08270814e-03 
        </DataArray>
        <DataArray type="Float64" Name="rhov">
          2.91249595e-04 2.13584671e-04 1.98943860e-04 2.00221554e-04 
        </DataArray>
        <DataArray type="Float64" Name="E">
          1.96722873e+05 1.96070137e+05 1.95528077e+05 1.95085266e+05 
        </DataArray>
      </PointData>
    </Piece>
    <Piece NumberOfPoints="4" NumberOfCells="3">
      <Points>
        <DataArray type="Float64" NumberOfComponents="3" format="ascii">
          2.55046517e-01 5.94772622e-02 0.00000000e+00 
2.65433758e-01 5.96804135e-02 0.00000000e+00 
2.75821954e-01 5.98256700e-02 0.00000000e+00 
2.86210775e-01 5.99167012e-02 0.00000000e+00 

        </DataArray>
      </Points>
      <Cells>
        <DataArray type="Int32" Name="connectivity" format="ascii">
0 1
1 2
2 3

        </DataArray>
        <DataArray type="Int32" Name="offsets" format="ascii">
2 4 6 
        </DataArray>
        <DataArray type="UInt8" Name="types" format="ascii">
3 3 3 
        </DataArray>
      </Cells>
      <PointData>
        <DataArray type="Float64" Name="rho">
          8.60050382e-01 8.58557894e-01 8.57424531e-01 8.56637791e-01 
        </DataArray>
        <DataArray type="Float64" Name="rhou">
          3.07691781e-03 2.77047166e-03 2.45592836e-03 2.17257336e-03 
        </DataArray>
        <DataArray type="Float64" Name="rhov">
          2.11935143e-04 1.15690304e-04 5.85051187e-05 1.00773343e-04 
        </DataArray>
        <DataArray type="Float64" Name="E">
          1.95085274e+05 1.94732033e+05 1.94464355e+05 1.94279056e+05 
        </DataArray>
      </PointData>
    </Piece>
    <Piece NumberOfPoints="4" NumberOfCells="3">
      <Points>
        <DataArray type="Float64" NumberOfComponents="3" format="ascii">
          2.86210775e-01 5.99167012e-02 0.00000000e+00 
2.96599895e-01 5.99572174e-02 0.00000000e+00 
3.06989133e-01 5.99487796e-02 0.00000000e+00 
3.17378193e-01 5.98919280e-02 0.00000000e+00 

        </DataArray>
      </Points>
      <Cells>
        <DataArray type="Int32" Name="connectivity" format="ascii">
0 1
1 2
2 3

        </DataArray>
        <DataArray type="Int32" Name="offsets" format="ascii">
2 4 6 
        </DataArray>
        <DataArray type="UInt8" Name="types" format="ascii">
3 3 3 
        </DataArray>
      </Cells>
      <PointData>
        <DataArray type="Float64" Name="rho">
          8.56636676e-01 8.56152585e-01 8.55928305e-01 8.55955029e-01 
        </DataArray>
        <DataArray type="Float64" Name="rhou">
          2.19354630e-03 2.07219128e-03 1.93832671e-03 1.74032330e-03 
        </DataArray>
        <DataArray type="Float64" Name="rhov">
          1.17964067e-04 1.57382583e-04 1.05194478e-04 2.90842890e-05 
        </DataArray>
        <DataArray type="Float64" Name="E">
          1.94278801e+05 1.94165527e+05 1.94114370e+05 1.94123170e+05 
        </DataArray>
      </PointData>
    </Piece>
    <Piece NumberOfPoints="4" NumberOfCells="3">
      <Points>
        <DataArray type="Float64" NumberOfComponents="3" format="ascii">
          3.17378193e-01 5.98919280e-02 0.00000000e+00 
3.27766895e-01 5.97884916e-02 0.00000000e+00 
3.38155061e-01 5.96415885e-02 0.00000000e+00 
3.48542601e-01 5.94538599e-02 0.00000000e+00 

        </DataArray>
      </Points>
      <Cells>
        <DataArray type="Int32" Name="connectivity" format="ascii">
0 1
1 2
2 3

        </DataArray>
        <DataArray type="Int32" Name="offsets" format="ascii">
2 4 6 
        </DataArray>
        <DataArray type="UInt8" Name="types" format="ascii">
3 3 3 
        </DataArray>
      </Cells>
      <PointData>
        <DataArray type="Float64" Name="rho">
          8.55955427e-01 8.56226715e-01 8.56726935e-01 8.57425254e-01 
        </DataArray>
        <DataArray type="Float64" Name="rhou">
          1.77355254e-03 1.55855191e-03 1.43367402e-03 1.38591166e-03 
        </DataArray>
        <DataArray type="Float64" Name="rhov">
          3.68349994e-05 3.27810356e-05 7.01654468e-05 1.01594256e-04 
        </DataArray>
        <DataArray type="Float64" Name="E">
          1.94123260e+05 1.94190360e+05 1.94311990e+05 1.94480937e+05 
        </DataArray>
      </PointData>
    </Piece>
    <Piece NumberOfPoints="4" NumberOfCells="3">
      <Points>
        <DataArray type="Float64" NumberOfComponents="3" format="ascii">
          3.48542601e-01 5.94538599e-02 0.00000000e+00 
3.58929336e-01 5.92265576e-02 0.00000000e+00 
3.69315147e-01 5.89610897e-02 0.00000000e+00 
3.79699975e-01 5.86590059e-02 0.00000000e+00 

        </DataArray>
      </Points>
      <Cells>
        <DataArray type="Int32" Name="connectivity" format="ascii">
0 1
1 2
2 3

        </DataArray>
        <DataArray type="Int32" Name="offsets" format="ascii">
2 4 6 
        </DataArray>
        <DataArray type="UInt8" Name="types" format="ascii">
3 3 3 
        </DataArray>
      </Cells>
      <PointData>
        <DataArray type="Float64" Name="rho">
          8.57425533e-01 8.58298382e-01 8.59339681e-01 8.60530697e-01 
        </DataArray>
        <DataArray type="Float64" Name="rhou">
          1.40159351e-03 1.26466081e-03 1.16353235e-03 1.11316624e-03 
        </DataArray>
        <DataArray type="Float64" Name="rhov">
          9.79371442e-05 6.52452482e-05 6.47129197e-05 6.99253421e-05 
        </DataArray>
        <DataArray type="Float64" Name="E">
          1.94481001e+05 1.94691748e+05 1.94942770e+05 1.95229677e+05 
        </DataArray>
      </PointData>
    </Piece>
    <Piece NumberOfPoints="4" NumberOfCells="3">
      <Points>
        <DataArray type="Float64" NumberOfComponents="3" format="ascii">
          3.79699975e-01 5.86590059e-02 0.00000000e+00 
3.90083700e-01 5.83211333e-02 0.00000000e+00 
4.00466233e-01 5.79482466e-02 0.00000000e+00 
4.10847515e-01 5.75418957e-02 0.00000000e+00 

        </DataArray>
      </Points>
      <Cells>
        <DataArray type="Int32" Name="connectivity" format="ascii">
0 1
1 2
2 3

        </DataArray>
        <DataArray type="Int32" Name="offsets" format="ascii">
2 4 6 
        </DataArray>
        <DataArray type="UInt8" Name="types" format="ascii">
3 3 3 
        </DataArray>
      </Cells>
      <PointData>
        <DataArray type="Float64" Name="rho">
          8.60530712e-01 8.61855608e-01 8.63306027e-01 8.64876705e-01 
        </DataArray>
        <DataArray type="Float64" Name="rhou">
          1.10527175e-03 1.03516982e-03 9.49156376e-04 8.65238249e-04 
        </DataArray>
        <DataArray type="Float64" Name="rhov">
          7.24148206e-05 4.47606227e-05 2.53053169e-05 3.79498589e-05 
        </DataArray>
        <DataArray type="Float64" Name="E">
          1.95229682e+05 1.95548759e+05 1.95898010e+05 1.96276121e+05 
        </DataArray>
      </PointData>
    </Piece>
    <Piece NumberOfPoints="4" NumberOfCells="3">
      <Points>
        <DataArray type="Float64" NumberOfComponents="3" format="ascii">
          4.10847515e-01 5.75418957e-02 0.00000000e+00 
4.21227485e-01 5.71038015e-02 0.00000000e+00 
4.31606144e-01 5.66351078e-02 0.00000000e+00 
4.41983402e-01 5.61364293e-02 0.00000000e+00 

        </DataArray>
      </Points>
      <Cells>
        <DataArray type="Int32" Name="connectivity" format="ascii">
0 1
1 2
2 3

        </DataArray>
        <DataArray type="Int32" Name="offsets" format="ascii">
2 4 6 
        </DataArray>
        <DataArray type="UInt8" Name="types" format="ascii">
3 3 3 
        </DataArray>
      </Cells>
      <PointData>
        <DataArray type="Float64" Name="rho">
          8.64876476e-01 8.66551199e-01 8.68317746e-01 8.70165654e-01 
        </DataArray>
        <DataArray type="Float64" Name="rhou">
          8.85153548e-04 8.29580385e-04 7.88936212e-04 7.49089699e-04 
        </DataArray>
        <DataArray type="Float64" Name="rhov">
          4.15699611e-05 4.85726955e-05 4.34731382e-05 2.42393219e-05 
        </DataArray>
        <DataArray type="Float64" Name="E">
          1.96276069e+05 1.96679233e+05 1.97104580e+05 1.97549642e+05 
        </DataArray>
      </PointData>
    </Piece>
    <Piece NumberOfPoints="4" NumberOfCells="3">
      <Points>
        <DataArray type="Float64" NumberOfComponents="3" format="ascii">
          4.41983402e-01 5.61364293e-02 0.00000000e+00 
4.52359200e-01 5.56085743e-02 0.00000000e+00 
4.62733537e-01 5.50529286e-02 0.00000000e+00 
4.73106444e-01 5.44707514e-02 0.00000000e+00 

        </DataArray>
      </Points>
      <Cells>
        <DataArray type="Int32" Name="connectivity" format="ascii">
0 1
1 2
2 3

        </DataArray>
        <DataArray type="Int32" Name="offsets" format="ascii">
2 4 6 
        </DataArray>
        <DataArray type="UInt8" Name="types" format="ascii">
3 3 3 
        </DataArray>
      </Cells>
      <PointData>
        <DataArray type="Float64" Name="rho">
          8.70165827e-01 8.72090549e-01 8.74084789e-01 8.76138285e-01 
        </DataArray>
        <DataArray type="Float64" Name="rhou">
          7.45990605e-04 6.83869810e-04 6.41280053e-04 6.17697501e-04 
        </DataArray>
        <DataArray type="Float64" Name="rhov">
          2.47186075e-05 2.13841734e-05 2.72833667e-05 3.24390105e-05 
        </DataArray>
        <DataArray type="Float64" Name="E">
          1.97549681e+05 1.98013333e+05 1.98493822e+05 1.98988722e+05 
        </DataArray>
      </PointData>
    </Piece>
    <Piece NumberOfPoints="4" NumberOfCells="3">
      <Points>
        <DataArray type="Float64" NumberOfComponents="3" format="ascii">
          4.73106444e-01 5.44707514e-02 0.00000000e+00 
4.83477861e-01 5.38627952e-02 0.00000000e+00 
4.93847787e-01 5.32294959e-02 0.00000000e+00 
5.04216135e-01 5.25716618e-02 0.00000000e+00 

        </DataArray>
      </Points>
      <Cells>
        <DataArray type="Int32" Name="connectivity" format="ascii">
0 1
1 2
2 3

        </DataArray>
        <DataArray type="Int32" Name="offsets" format="ascii">
2 4 6 
        </DataArray>
        <DataArray type="UInt8" Name="types" format="ascii">
3 3 3 
        </DataArray>
      </Cells>
      <PointData>
        <DataArray type="Float64" Name="rho">
          8.76138271e-01 8.78242504e-01 8.80390558e-01 8.82580274e-01 
        </DataArray>
        <DataArray type="Float64" Name="rhou">
          6.09039641e-04 5.87999647e-04 5.50290884e-04 5.04516592e-04 
        </DataArray>
        <DataArray type="Float64" Name="rhov">
          3.43910031e-05 2.53283559e-05 1.17782665e-05 1.26590054e-05 
        </DataArray>
        <DataArray type="Float64" Name="E">
          1.98988720e+05 1.99496010e+05 2.00014041e+05 2.00542236e+05 
        </DataArray>
      </PointData>
    </Piece>
    <Piece NumberOfPoints="4" NumberOfCells="3">
      <Points>
        <DataArray type="Float64" NumberOfComponents="3" format="ascii">
          5.04216135e-01 5.25716618e-02 0.00000000e+00 
5.14582992e-01 5.18903993e-02 0.00000000e+00 
5.24948359e-01 5.11864908e-02 0.00000000e+00 
5.35312176e-01 5.04603274e-02 0.00000000e+00 

        </DataArray>
      </Points>
      <Cells>
        <DataArray type="Int32" Name="connectivity" format="ascii">
0 1
1 2
2 3

        </DataArray>
        <DataArray type="Int32" Name="offsets" format="ascii">
2 4 6 
        </DataArray>
        <DataArray type="UInt8" Name="types" format="ascii">
3 3 3 
        </DataArray>
      </Cells>
      <PointData>
        <DataArray type="Float64" Name="rho">
          8.82580175e-01 8.84804144e-01 8.87055866e-01 8.89329859e-01 
        </DataArray>
        <DataArray type="Float64" Name="rhou">
          5.14835410e-04 4.88037698e-04 4.69113077e-04 4.50292326e-04 
        </DataArray>
        <DataArray type="Float64" Name="rhov">
          1.50317180e-05 1.85639710e-05 1.55579093e-05 4.50468168e-06 
        </DataArray>
        <DataArray type="Float64" Name="E">
          2.00542214e+05 2.01078802e+05 2.01622223e+05 2.02171151e+05 
        </DataArray>
      </PointData>
    </Piece>
    <Piece NumberOfPoints="4" NumberOfCells="3">
      <Points>
        <DataArray type="Float64" NumberOfComponents="3" format="ascii">
          5.35312176e-01 5.04603274e-02 0.00000000e+00 
5.45674443e-01 4.97124642e-02 0.00000000e+00 
5.56035221e-01 4.89437394e-02 0.00000000e+00 
5.66394389e-01 4.81546782e-02 0.00000000e+00 

        </DataArray>
      </Points>
      <Cells>
        <DataArray type="Int32" Name="connectivity" format="ascii">
0 1
1 2
2 3

        </DataArray>
        <DataArray type="Int32" Name="offsets" format="ascii">
2 4 6 
        </DataArray>
        <DataArray type="UInt8" Name="types" format="ascii">
3 3 3 
        </DataArray>
      </Cells>
      <PointData>
        <DataArray type="Float64" Name="rho">
          8.89329917e-01 8.91624139e-01 8.93933679e-01 8.96253551e-01 
        </DataArray>
        <DataArray type="Float64" Name="rhou">
          4.45018557e-04 4.17911591e-04 4.00791698e-04 3.91860927e-04 
        </DataArray>
        <DataArray type="Float64" Name="rhov">
          4.70316023e-06 6.86972808e-06 8.83578059e-06 6.34615506e-06 
        </DataArray>
        <DataArray type="Float64" Name="E">
          2.02171165e+05 2.02725052e+05 2.03282701e+05 2.03842895e+05 
        </DataArray>
      </PointData>
    </Piece>
    <Piece NumberOfPoints="4" NumberOfCells="3">
      <Points>
        <DataArray type="Float64" NumberOfComponents="3" format="ascii">
          5.66394389e-01 4.81546782e-02 0.00000000e+00 
5.76752067e-01 4.73455116e-02 0.00000000e+00 
5.87108195e-01 4.65166979e-02 0.00000000e+00 
5.97462773e-01 4.56690118e-02 0.00000000e+00 

        </DataArray>
      </Points>
      <Cells>
        <DataArray type="Int32" Name="connectivity" format="ascii">
0 1
1 2
2 3

        </DataArray>
        <DataArray type="Int32" Name="offsets" format="ascii">
2 4 6 
        </DataArray>
        <DataArray type="UInt8" Name="types" format="ascii">
3 3 3 
        </DataArray>
      </Cells>
      <PointData>
        <DataArray type="Float64" Name="rho">
          8.96253589e-01 8.98580303e-01 9.00912040e-01 9.03246168e-01 
        </DataArray>
        <DataArray type="Float64" Name="rhou">
          3.90944174e-04 3.71283861e-04 3.51073153e-04 3.37396214e-04 
        </DataArray>
        <DataArray type="Float64" Name="rhov">
          6.65711002e-06 -1.58430240e-06 -3.73766355e-06 -1.63388471e-07 
        </DataArray>
        <DataArray type="Float64" Name="E">
          2.03842904e+05 2.04404771e+05 2.04967817e+05 2.05531360e+05 
        </DataArray>
      </PointData>
    </Piece>
    <Piece NumberOfPoints="4" NumberOfCells="3">
      <Points>
        <DataArray type="Float64" NumberOfComponents="3" format="ascii">
          5.97462773e-01 4.56690118e-02 0.00000000e+00 
6.07815862e-01 4.48031016e-02 0.00000000e+00 
6.18167400e-01 4.39192392e-02 0.00000000e+00 
6.28517449e-01 4.30175588e-02 0.00000000e+00 

        </DataArray>
      </Points>
      <Cells>
        <DataArray type="Int32" Name="connectivity" format="ascii">
0 1
1 2
2 3

        </DataArray>
        <DataArray type="Int32" Name="offsets" format="ascii">
2 4 6 
        </DataArray>
        <DataArray type="UInt8" Name="types" format="ascii">
3 3 3 
        </DataArray>
      </Cells>
      <PointData>
        <DataArray type="Float64" Name="rho">
          9.03246092e-01 9.05578827e-01 9.07906491e-01 9.10227840e-01 
        </DataArray>
        <DataArray type="Float64" Name="rhou">
          3.34792457e-04 3.30121571e-04 3.21286790e-04 3.06237549e-04 
        </DataArray>
        <DataArray type="Float64" Name="rhov">
          8.73515755e-07 2.05380938e-06 -3.43932001e-06 -8.77276952e-06 
        </DataArray>
        <DataArray type="Float64" Name="E">
          2.05531343e+05 2.06094444e+05 2.06656191e+05 2.07216227e+05 
        </DataArray>
      </PointData>
    </Piece>
    <Piece NumberOfPoints="4" NumberOfCells="3">
      <Points>
        <DataArray type="Float64" NumberOfComponents="3" format="ascii">
          6.28517449e-01 4.30175588e-02 0.00000000e+00 
6.38865948e-01 4.20984775e-02 0.00000000e+00 
6.49212897e-01 4.11624312e-02 0.00000000e+00 
6.59558356e-01 4.02097441e-02 0.00000000e+00 

        </DataArray>
      </Points>
      <Cells>
        <DataArray type="Int32" Name="connectivity" format="ascii">
0 1
1 2
2 3

        </DataArray>
        <DataArray type="Int32" Name="offsets" format="ascii">
2 4 6 
        </DataArray>
        <DataArray type="UInt8" Name="types" format="ascii">
3 3 3 
        </DataArray>
      </Cells>
      <PointData>
        <DataArray type="Float64" Name="rho">
          9.10227833e-01 9.12541311e-01 9.14844552e-01 9.17135869e-01 
        </DataArray>
        <DataArray type="Float64" Name="rhou">
          3.07117946e-04 2.97446388e-04 2.89942880e-04 2.81695801e-04 
        </DataArray>
        <DataArray type="Float64" Name="rhov">
          -7.60649717e-06 -7.43836738e-06 -8.97583610e-06 -1.11597933e-05 
        </DataArray>
        <DataArray type="Float64" Name="E">
          2.07216226e+05 2.07774125e+05 2.08329278e+05 2.08881235e+05 
        </DataArray>
      </PointData>
    </Piece>
    <Piece NumberOfPoints="4" NumberOfCells="3">
      <Points>
        <DataArray type="Float64" NumberOfComponents="3" format="ascii">
          6.59558356e-01 4.02097441e-02 0.00000000e+00 
6.69902325e-01 3.92407738e-02 0.00000000e+00 
6.80244744e-01 3.82556282e-02 0.00000000e+00 
6.90585554e-01 3.72543521e-02 0.00000000e+00 

        </DataArray>
      </Points>
      <Cells>
        <DataArray type="Int32" Name="connectivity" format="ascii">
0 1
1 2
2 3

        </DataArray>
        <DataArray type="Int32" Name="offsets" format="ascii">
2 4 6 
        </DataArray>
        <DataArray type="UInt8" Name="types" format="ascii">
3 3 3 
        </DataArray>
      </Cells>
      <PointData>
        <DataArray type="Float64" Name="rho">
          9.17135849e-01 9.19414081e-01 9.21676679e-01 9.23923571e-01 
        </DataArray>
        <DataArray type="Float64" Name="rhou">
          2.77344062e-04 2.77126706e-04 2.72112106e-04 2.59829757e-04 
        </DataArray>
        <DataArray type="Float64" Name="rhov">
          -9.94623256e-06 -9.66044725e-06 -1.52853453e-05 -2.00829517e-05 
        </DataArray>
        <DataArray type="Float64" Name="E">
          2.08881231e+05 2.09429663e+05 2.09973932e+05 2.10513963e+05 
        </DataArray>
      </PointData>
    </Piece>
    <Piece NumberOfPoints="4" NumberOfCells="3">
      <Points>
        <DataArray type="Float64" NumberOfComponents="3" format="ascii">
          6.90585554e-01 3.72543521e-02 0.00000000e+00 
7.00924933e-01 3.62373814e-02 0.00000000e+00 
7.11262703e-01 3.52048986e-02 0.00000000e+00 
7.21598923e-01 3.41568366e-02 0.00000000e+00 

        </DataArray>
      </Points>
      <Cells>
        <DataArray type="Int32" Name="connectivity" format="ascii">
0 1
1 2
2 3

        </DataArray>
        <DataArray type="Int32" Name="offsets" format="ascii">
2 4 6 
        </DataArray>
        <DataArray type="UInt8" Name="types" format="ascii">
3 3 3 
        </DataArray>
      </Cells>
      <PointData>
        <DataArray type="Float64" Name="rho">
          9.23923519e-01 9.26154302e-01 9.28366577e-01 9.30560340e-01 
        </DataArray>
        <DataArray type="Float64" Name="rhou">
          2.57654536e-04 2.56802419e-04 2.55328655e-04 2.44140290e-04 
        </DataArray>
        <DataArray type="Float64" Name="rhov">
          -1.87568912e-05 -1.60607546e-05 -2.10378547e-05 -2.80369237e-05 
        </DataArray>
        <DataArray type="Float64" Name="E">
          2.10513952e+05 2.11049599e+05 2.11580266e+05 2.12105902e+05 
        </DataArray>
      </PointData>
    </Piece>
    <Piece NumberOfPoints="4" NumberOfCells="3">
      <Points>
        <DataArray type="Float64" NumberOfComponents="3" format="ascii">
          7.21598923e-01 3.41568366e-02 0.00000000e+00 
7.31933594e-01 3.30936089e-02 0.00000000e+00 
7.42266715e-01 3.20154354e-02 0.00000000e+00 
7.52598286e-01 3.09220124e-02 0.00000000e+00 

        </DataArray>
      </Points>
      <Cells>
        <DataArray type="Int32" Name="connectivity" format="ascii">
0 1
1 2
2 3

        </DataArray>
        <DataArray type="Int32" Name="offsets" format="ascii">
2 4 6 
        </DataArray>
        <DataArray type="UInt8" Name="types" format="ascii">
3 3 3 
        </DataArray>
      </Cells>
      <PointData>
        <DataArray type="Float64" Name="rho">
          9.30560315e-01 9.32736220e-01 9.34891925e-01 9.37027548e-01 
        </DataArray>
        <DataArray type="Float64" Name="rhou">
          2.40317986e-04 2.39672118e-04 2.40102024e-04 2.31102318e-04 
        </DataArray>
        <DataArray type="Float64" Name="rhov">
          -2.68673914e-05 -2.23435799e-05 -2.67086321e-05 -3.49127782e-05 
        </DataArray>
        <DataArray type="Float64" Name="E">
          2.12105897e+05 2.12626605e+05 2.13141810e+05 2.13651495e+05 
        </DataArray>
      </PointData>
    </Piece>
    <Piece NumberOfPoints="4" NumberOfCells="3">
      <Points>
        <DataArray type="Float64" NumberOfComponents="3" format="ascii">
          7.52598286e-01 3.09220124e-02 0.00000000e+00 
7.62928188e-01 2.98135038e-02 0.00000000e+00 
7.73256481e-01 2.86899786e-02 0.00000000e+00 
7.83583105e-01 2.75512449e-02 0.00000000e+00 

        </DataArray>
      </Points>
      <Cells>
        <DataArray type="Int32" Name="connectivity" format="ascii">
0 1
1 2
2 3

        </DataArray>
        <DataArray type="Int32" Name="offsets" format="ascii">
2 4 6 
        </DataArray>
        <DataArray type="UInt8" Name="types" format="ascii">
3 3 3 
        </DataArray>
      </Cells>
      <PointData>
        <DataArray type="Float64" Name="rho">
          9.37027542e-01 9.39144157e-01 9.41240355e-01 9.43316741e-01 
        </DataArray>
        <DataArray type="Float64" Name="rhou">
          2.27380275e-04 2.25973101e-04 2.23900993e-04 2.14712757e-04 
        </DataArray>
        <DataArray type="Float64" Name="rhov">
          -3.37739401e-05 -3.26233290e-05 -3.74989249e-05 -4.38436504e-05 
        </DataArray>
        <DataArray type="Float64" Name="E">
          2.13651494e+05 2.14155863e+05 2.14654556e+05 2.15147671e+05 
        </DataArray>
      </PointData>
    </Piece>
    <Piece NumberOfPoints="4" NumberOfCells="3">
      <Points>
        <DataArray type="Float64" NumberOfComponents="3" format="ascii">
          7.83583105e-01 2.75512449e-02 0.00000000e+00 
7.93908060e-01 2.63975188e-02 0.00000000e+00 
8.04231405e-01 2.52291560e-02 0.00000000e+00 
8.14553022e-01 2.40457114e-02 0.00000000e+00 

        </DataArray>
      </Points>
      <Cells>
        <DataArray type="Int32" Name="connectivity" format="ascii">
0 1
1 2
2 3

        </DataArray>
        <DataArray type="Int32" Name="offsets" format="ascii">
2 4 6 
        </DataArray>
        <DataArray type="UInt8" Name="types" format="ascii">
3 3 3 
        </DataArray>
      </Cells>
      <PointData>
        <DataArray type="Float64" Name="rho">
          9.43316751e-01 9.45374137e-01 9.47412253e-01 9.49430149e-01 
        </DataArray>
        <DataArray type="Float64" Name="rhou">
          2.17669102e-04 2.05992917e-04 2.06342675e-04 2.09233749e-04 
        </DataArray>
        <DataArray type="Float64" Name="rhov">
          -4.42942396e-05 -4.17640408e-05 -4.24966088e-05 -5.33934560e-05 
        </DataArray>
        <DataArray type="Float64" Name="E">
          2.15147673e+05 2.15635355e+05 2.16117503e+05 2.16593863e+05 
        </DataArray>
      </PointData>
    </Piece>
    <Piece NumberOfPoints="4" NumberOfCells="3">
      <Points>
        <DataArray type="Float64" NumberOfComponents="3" format="ascii">
          8.14553022e-01 2.40457114e-02 0.00000000e+00 
8.24872792e-01 2.28467938e-02 0.00000000e+00 
8.35190892e-01 2.16327831e-02 0.00000000e+00 
8.45507145e-01 2.04038676e-02 0.00000000e+00 

        </DataArray>
      </Points>
      <Cells>
        <DataArray type="Int32" Name="connectivity" format="ascii">
0 1
1 2
2 3

        </DataArray>
        <DataArray type="Int32" Name="offsets" format="ascii">
2 4 6 
        </DataArray>
        <DataArray type="UInt8" Name="types" format="ascii">
3 3 3 
        </DataArray>
      </Cells>
      <PointData>
        <DataArray type="Float64" Name="rho">
          9.49430206e-01 9.51430005e-01 9.53412060e-01 9.55376518e-01 
        </DataArray>
        <DataArray type="Float64" Name="rhou">
          2.01333797e-04 1.91342346e-04 1.82610390e-04 1.83804436e-04 
        </DataArray>
        <DataArray type="Float64" Name="rhov">
          -5.36841882e-05 -5.61348852e-05 -5.48482584e-05 -5.18572983e-05 
        </DataArray>
        <DataArray type="Float64" Name="E">
          2.16593876e+05 2.17064896e+05 2.17530622e+05 2.17991056e+05 
        </DataArray>
      </PointData>
    </Piece>
    <Piece NumberOfPoints="4" NumberOfCells="3">
      <Points>
        <DataArray type="Float64" NumberOfComponents="3" format="ascii">
          8.45507145e-01 2.04038676e-02 0.00000000e+00 
8.55821550e-01 1.91591792e-02 0.00000000e+00 
8.66134048e-01 1.78987328e-02 0.00000000e+00 
8.76444638e-01 1.66228991e-02 0.00000000e+00 

        </DataArray>
      </Points>
      <Cells>
        <DataArray type="Int32" Name="connectivity" format="ascii">
0 1
1 2
2 3

        </DataArray>
        <DataArray type="Int32" Name="offsets" format="ascii">
2 4 6 
        </DataArray>
        <DataArray type="UInt8" Name="types" format="ascii">
3 3 3 
        </DataArray>
      </Cells>
      <PointData>
        <DataArray type="Float64" Name="rho">
          9.55376665e-01 9.57321677e-01 9.59252259e-01 9.61163761e-01 
        </DataArray>
        <DataArray type="Float64" Name="rhou">
          2.11559986e-04 1.70140256e-04 1.66848698e-04 1.87079269e-04 
        </DataArray>
        <DataArray type="Float64" Name="rhov">
          -5.64578334e-05 -6.88645551e-05 -6.69798888e-05 -9.04673595e-05 
        </DataArray>
        <DataArray type="Float64" Name="E">
          2.17991090e+05 2.18445788e+05 2.18895880e+05 2.19340305e+05 
        </DataArray>
      </PointData>
    </Piece>
    <Piece NumberOfPoints="4" NumberOfCells="3">
      <Points>
        <DataArray type="Float64" NumberOfComponents="3" format="ascii">
          8.76444638e-01 1.66228991e-02 0.00000000e+00 
8.86753201e-01 1.53310820e-02 0.00000000e+00 
8.97059798e-01 1.40233757e-02 0.00000000e+00 
9.07364249e-01 1.26988320e-02 0.00000000e+00 

        </DataArray>
      </Points>
      <Cells>
        <DataArray type="Int32" Name="connectivity" format="ascii">
0 1
1 2
2 3

        </DataArray>
        <DataArray type="Int32" Name="offsets" format="ascii">
2 4 6 
        </DataArray>
        <DataArray type="UInt8" Name="types" format="ascii">
3 3 3 
        </DataArray>
      </Cells>
      <PointData>
        <DataArray type="Float64" Name="rho">
          9.61163214e-01 9.63063674e-01 9.64943395e-01 9.66824475e-01 
        </DataArray>
        <DataArray type="Float64" Name="rhou">
          7.32616345e-05 1.83537399e-04 1.14933048e-04 5.03931099e-05 
        </DataArray>
        <DataArray type="Float64" Name="rhov">
          -8.12866049e-05 -8.47909180e-05 -1.08611394e-04 1.29108992e-05 
        </DataArray>
        <DataArray type="Float64" Name="E">
          2.19340180e+05 2.19780790e+05 2.20215423e+05 2.20649207e+05 
        </DataArray>
      </PointData>
    </Piece>
    <Piece NumberOfPoints="4" NumberOfCells="3">
      <Points>
        <DataArray type="Float64" NumberOfComponents="3" format="ascii">
          9.07364249e-01 1.26988320e-02 0.00000000e+00 
9.17666554e-01 1.13577880e-02 0.00000000e+00 
9.27966774e-01 1.00004105e-02 0.00000000e+00 
9.38264549e-01 8.62528384e-03 0.00000000e+00 

        </DataArray>
      </Points>
      <Cells>
        <DataArray type="Int32" Name="connectivity" format="ascii">
0 1
1 2
2 3

        </DataArray>
        <DataArray type="Int32" Name="offsets" format="ascii">
2 4 6 
        </DataArray>
        <DataArray type="UInt8" Name="types" format="ascii">
3 3 3 
        </DataArray>
      </Cells>
      <PointData>
        <DataArray type="Float64" Name="rho">
          9.66830454e-01 9.68660626e-01 9.70527364e-01 9.72220607e-01 
        </DataArray>
        <DataArray type="Float64" Name="rhou">
          1.04350489e-03 -1.96905250e-04 4.87414130e-04 9.76222987e-04 
        </DataArray>
        <DataArray type="Float64" Name="rhov">
          -7.09181695e-05 -1.35020243e-04 -4.42036254e-05 -1.78102953e-03 
        </DataArray>
        <DataArray type="Float64" Name="E">
          2.20650569e+05 2.21071714e+05 2.21500394e+05 2.21888991e+05 
        </DataArray>
      </PointData>
    </Piece>
    <Piece NumberOfPoints="4" NumberOfCells="3">
      <Points>
        <DataArray type="Float64" NumberOfComponents="3" format="ascii">
          9.38264549e-01 8.62528384e-03 0.00000000e+00 
9.48560059e-01 7.23283459e-03 0.00000000e+00 
9.58853185e-01 5.82307298e-03 0.00000000e+00 
9.69143867e-01 4.39538015e-03 0.00000000e+00 

        </DataArray>
      </Points>
      <Cells>
        <DataArray type="Int32" Name="connectivity" format="ascii">
0 1
1 2
2 3

        </DataArray>
        <DataArray type="Int32" Name="offsets" format="ascii">
2 4 6 
        </DataArray>
        <DataArray type="UInt8" Name="types" format="ascii">
3 3 3 
        </DataArray>
      </Cells>
      <PointData>
        <DataArray type="Float64" Name="rho">
          9.72162197e-01 9.74250882e-01 9.75840395e-01 9.79210784e-01 
        </DataArray>
        <DataArray type="Float64" Name="rhou">
          -8.23218966e-03 2.73213769e-03 -3.91743788e-03 -2.29268770e-02 
        </DataArray>
        <DataArray type="Float64" Name="rhov">
          -1.29829423e-03 1.63842818e-04 -1.32323811e-03 2.33216459e-02 
        </DataArray>
        <DataArray type="Float64" Name="E">
          2.21875667e+05 2.22354454e+05 2.22719981e+05 2.23493418e+05 
        </DataArray>
      </PointData>
    </Piece>
    <Piece NumberOfPoints="4" NumberOfCells="3">
      <Points>
        <DataArray type="Float64" NumberOfComponents="3" format="ascii">
          9.69143867e-01 4.39538015e-03 0.00000000e+00 
9.79435980e-01 2.94816052e-03 0.00000000e+00 
9.89725590e-01 1.48259092e-03 0.00000000e+00 
1.00000000e+00 0.00000000e+00 0.00000000e+00 

        </DataArray>
      </Points>
      <Cells>
        <DataArray type="Int32" Name="connectivity" format="ascii">
0 1
1 2
2 3

        </DataArray>
        <DataArray type="Int32" Name="offsets" format="ascii">
2 4 6 
        </DataArray>
        <DataArray type="UInt8" Name="types" format="ascii">
3 3 3 
        </DataArray>
      </Cells>
      <PointData>
        <DataArray type="Float64" Name="rho">
          9.79566052e-01 9.79160929e-01 9.83894881e-01 9.71131940e-01 
        </DataArray>
        <DataArray type="Float64" Name="rhou">
          -1.52248145e-03 -1.22363586e-02 -4.46929252e-02 6.30628389e-01 
        </DataArray>
        <DataArray type="Float64" Name="rhov">
          2.27928218e-02 2.86253797e-03 6.29800671e-02 -1.62475245e-01 
        </DataArray>
        <DataArray type="Float64" Name="E">
          2.23574411e+05 2.23488936e+05 2.24580185e+05 2.21685868e+05 
        </DataArray>
      </PointData>
    </Piece>
    <Piece NumberOfPoints="4" NumberOfCells="3">
      <Points>
        <DataArray type="Float64" NumberOfComponents="3" format="ascii">
          9.69029665e-01 -4.41133138e-03 0.00000000e+00 
9.79355037e-01 -2.95961346e-03 0.00000000e+00 
9.89677846e-01 -1.48943183e-03 0.00000000e+00 
1.00000000e+00 0.00000000e+00 0.00000000e+00 

        </DataArray>
      </Points>
      <Cells>
        <DataArray type="Int32" Name="connectivity" format="ascii">
0 1
1 2
2 3

        </DataArray>
        <DataArray type="Int32" Name="offsets" format="ascii">
2 4 6 
        </DataArray>
        <DataArray type="UInt8" Name="types" format="ascii">
3 3 3 
        </DataArray>
      </Cells>
      <PointData>
        <DataArray type="Float64" Name="rho">
          9.79774349e-01 9.78970145e-01 9.83797201e-01 9.72572356e-01 
        </DataArray>
        <DataArray type="Float64" Name="rhou">
          -7.19990910e-04 -9.80932125e-03 -4.85840051e-02 6.00934433e-01 
        </DataArray>
        <DataArray type="Float64" Name="rhov">
          -3.47695244e-02 4.75739846e-03 -6.67058373e-02 1.98814362e-01 
        </DataArray>
        <DataArray type="Float64" Name="E">
          2.23639905e+05 2.23461176e+05 2.24567922e+05 2.22015873e+05 
        </DataArray>
      </PointData>
    </Piece>
    <Piece NumberOfPoints="4" NumberOfCells="3">
      <Points>
        <DataArray type="Float64" NumberOfComponents="3" format="ascii">
          9.38035965e-01 -8.65600072e-03 0.00000000e+00 
9.48369622e-01 -7.25875143e-03 0.00000000e+00 
9.58700895e-01 -5.84406452e-03 0.00000000e+00 
9.69029665e-01 -4.41133138e-03 0.00000000e+00 

        </DataArray>
      </Points>
      <Cells>
        <DataArray type="Int32" Name="connectivity" format="ascii">
0 1
1 2
2 3

        </DataArray>
        <DataArray type="Int32" Name="offsets" format="ascii">
2 4 6 
        </DataArray>
        <DataArray type="UInt8" Name="types" format="ascii">
3 3 3 
        </DataArray>
      </Cells>
      <PointData>
        <DataArray type="Float64" Name="rho">
          9.73144131e-01 9.74943966e-01 9.76211534e-01 9.79371034e-01 
        </DataArray>
        <DataArray type="Float64" Name="rhou">
          -8.58097243e-03 3.12479681e-03 -3.46374144e-03 -2.31444409e-02 
        </DataArray>
        <DataArray type="Float64" Name="rhov">
          1.53235278e-03 -2.63897200e-04 1.96065957e-03 -2.35222794e-02 
        </DataArray>
        <DataArray type="Float64" Name="E">
          2.22107032e+05 2.22525763e+05 2.22821650e+05 2.23547980e+05 
        </DataArray>
      </PointData>
    </Piece>
    <Piece NumberOfPoints="4" NumberOfCells="3">
      <Points>
        <DataArray type="Float64" NumberOfComponents="3" format="ascii">
          9.07021165e-01 -1.27432076e-02 0.00000000e+00 
9.17361677e-01 -1.13977119e-02 0.00000000e+00 
9.27700043e-01 -1.00357840e-02 0.00000000e+00 
9.38035965e-01 -8.65600072e-03 0.00000000e+00 

        </DataArray>
      </Points>
      <Cells>
        <DataArray type="Int32" Name="connectivity" format="ascii">
0 1
1 2
2 3

        </DataArray>
        <DataArray type="Int32" Name="offsets" format="ascii">
2 4 6 
        </DataArray>
        <DataArray type="UInt8" Name="types" format="ascii">
3 3 3 
        </DataArray>
      </Cells>
      <PointData>
        <DataArray type="Float64" Name="rho">
          9.68834587e-01 9.70315915e-01 9.71850522e-01 9.73207537e-01 
        </DataArray>
        <DataArray type="Float64" Name="rhou">
          1.24404760e-03 -1.14533027e-04 6.52339544e-04 1.19746690e-03 
        </DataArray>
        <DataArray type="Float64" Name="rhov">
          3.66339851e-05 8.03118922e-05 -4.40555162e-05 1.86890580e-03 
        </DataArray>
        <DataArray type="Float64" Name="E">
          2.21091467e+05 2.21441368e+05 2.21802329e+05 2.22121490e+05 
        </DataArray>
      </PointData>
    </Piece>
    <Piece NumberOfPoints="4" NumberOfCells="3">
      <Points>
        <DataArray type="Float64" NumberOfComponents="3" format="ascii">
          8.75986874e-01 -1.66798849e-02 0.00000000e+00 
8.86333704e-01 -1.53839625e-02 0.00000000e+00 
8.96678507e-01 -1.40720531e-02 0.00000000e+00 
9.07021165e-01 -1.27432076e-02 0.00000000e+00 

        </DataArray>
      </Points>
      <Cells>
        <DataArray type="Int32" Name="connectivity" format="ascii">
0 1
1 2
2 3

        </DataArray>
        <DataArray type="Int32" Name="offsets" format="ascii">
2 4 6 
        </DataArray>
        <DataArray type="UInt8" Name="types" format="ascii">
3 3 3 
        </DataArray>
      </Cells>
      <PointData>
        <DataArray type="Float64" Name="rho">
          9.64286444e-01 9.65801249e-01 9.67307324e-01 9.68827915e-01 
        </DataArray>
        <DataArray type="Float64" Name="rhou">
          1.95907325e-04 3.05830267e-04 2.36250452e-04 1.65772668e-04 
        </DataArray>
        <DataArray type="Float64" Name="rhov">
          6.45180838e-05 5.58232983e-05 7.70508198e-05 -5.53872744e-05 
        </DataArray>
        <DataArray type="Float64" Name="E">
          2.20013267e+05 2.20373028e+05 2.20730197e+05 2.21089948e+05 
        </DataArray>
      </PointData>
    </Piece>
    <Piece NumberOfPoints="4" NumberOfCells="3">
      <Points>
        <DataArray type="Float64" NumberOfComponents="3" format="ascii">
          8.44934702e-01 -2.04724707e-02 0.00000000e+00 
8.55287313e-01 -1.92240477e-02 0.00000000e+00 
8.65638077e-01 -1.79597028e-02 0.00000000e+00 
8.75986874e-01 -1.66798849e-02 0.00000000e+00 

        </DataArray>
      </Points>
      <Cells>
        <DataArray type="Int32" Name="connectivity" format="ascii">
0 1
1 2
2 3

        </DataArray>
        <DataArray type="Int32" Name="offsets" format="ascii">
2 4 6 
        </DataArray>
        <DataArray type="UInt8" Name="types" format="ascii">
3 3 3 
        </DataArray>
      </Cells>
      <PointData>
        <DataArray type="Float64" Name="rho">
          9.59738502e-01 9.61256208e-01 9.62775255e-01 9.64287035e-01 
        </DataArray>
        <DataArray type="Float64" Name="rhou">
          3.74345313e-04 3.00733883e-04 2.85248179e-04 3.29363243e-04 
        </DataArray>
        <DataArray type="Float64" Name="rhov">
          2.74511200e-05 5.43097075e-05 4.38746050e-05 7.00494013e-05 
        </DataArray>
        <DataArray type="Float64" Name="E">
          2.18930525e+05 2.19292205e+05 2.19653839e+05 2.20013402e+05 
        </DataArray>
      </PointData>
    </Piece>
    <Piece NumberOfPoints="4" NumberOfCells="3">
      <Points>
        <DataArray type="Float64" NumberOfComponents="3" format="ascii">
          8.13865662e-01 -2.41250079e-02 0.00000000e+00 
8.24223816e-01 -2.29226518e-02 0.00000000e+00 
8.34580123e-01 -2.17050612e-02 0.00000000e+00 
8.44934702e-01 -2.04724707e-02 0.00000000e+00 

        </DataArray>
      </Points>
      <Cells>
        <DataArray type="Int32" Name="connectivity" format="ascii">
0 1
1 2
2 3

        </DataArray>
        <DataArray type="Int32" Name="offsets" format="ascii">
2 4 6 
        </DataArray>
        <DataArray type="UInt8" Name="types" format="ascii">
3 3 3 
        </DataArray>
      </Cells>
      <PointData>
        <DataArray type="Float64" Name="rho">
          9.55151202e-01 9.56682895e-01 9.58212124e-01 9.59738220e-01 
        </DataArray>
        <DataArray type="Float64" Name="rhou">
          3.44279168e-04 3.26630542e-04 3.08006341e-04 3.14009651e-04 
        </DataArray>
        <DataArray type="Float64" Name="rhov">
          3.45964737e-05 3.78096559e-05 3.12317962e-05 1.89746427e-05 
        </DataArray>
        <DataArray type="Float64" Name="E">
          2.17835979e+05 2.18201678e+05 2.18566564e+05 2.18930461e+05 
        </DataArray>
      </PointData>
    </Piece>
    <Piece NumberOfPoints="4" NumberOfCells="3">
      <Points>
        <DataArray type="Float64" NumberOfComponents="3" format="ascii">
          7.82780826e-01 -2.76402626e-02 0.00000000e+00 
7.93144107e-01 -2.64833923e-02 0.00000000e+00 
8.03505778e-01 -2.53117718e-02 0.00000000e+00 
8.13865662e-01 -2.41250079e-02 0.00000000e+00 

        </DataArray>
      </Points>
      <Cells>
        <DataArray type="Int32" Name="connectivity" format="ascii">
0 1
1 2
2 3

        </DataArray>
        <DataArray type="Int32" Name="offsets" format="ascii">
2 4 6 
        </DataArray>
        <DataArray type="UInt8" Name="types" format="ascii">
3 3 3 
        </DataArray>
      </Cells>
      <PointData>
        <DataArray type="Float64" Name="rho">
          9.50534901e-01 9.52077124e-01 9.53616965e-01 9.55151078e-01 
        </DataArray>
        <DataArray type="Float64" Name="rhou">
          3.64960872e-04 3.42193081e-04 3.42849402e-04 3.54944005e-04 
        </DataArray>
        <DataArray type="Float64" Name="rhov">
          2.53809664e-05 1.73836991e-05 1.41223229e-05 3.32115975e-05 
        </DataArray>
        <DataArray type="Float64" Name="E">
          2.16732700e+05 2.17101462e+05 2.17469469e+05 2.17835951e+05 
        </DataArray>
      </PointData>
    </Piece>
    <Piece NumberOfPoints="4" NumberOfCells="3">
      <Points>
        <DataArray type="Float64" NumberOfComponents="3" format="ascii">
          7.51680970e-01 -3.10197193e-02 0.00000000e+00 
7.62049198e-01 -2.99084149e-02 0.00000000e+00 
7.72415876e-01 -2.87819952e-02 0.00000000e+00 
7.82780826e-01 -2.76402626e-02 0.00000000e+00 

        </DataArray>
      </Points>
      <Cells>
        <DataArray type="Int32" Name="connectivity" format="ascii">
0 1
1 2
2 3

        </DataArray>
        <DataArray type="Int32" Name="offsets" format="ascii">
2 4 6 
        </DataArray>
        <DataArray type="UInt8" Name="types" format="ascii">
3 3 3 
        </DataArray>
      </Cells>
      <PointData>
        <DataArray type="Float64" Name="rho">
          9.45898818e-01 9.47446236e-01 9.48991558e-01 9.50534859e-01 
        </DataArray>
        <DataArray type="Float64" Name="rhou">
          3.71851947e-04 3.70280288e-04 3.66456833e-04 3.52575864e-04 
        </DataArray>
        <DataArray type="Float64" Name="rhov">
          1.32893456e-05 6.87322119e-06 1.28224728e-05 2.34848828e-05 
        </DataArray>
        <DataArray type="Float64" Name="E">
          2.15623106e+05 2.15993623e+05 2.16363482e+05 2.16732690e+05 
        </DataArray>
      </PointData>
    </Piece>
    <Piece NumberOfPoints="4" NumberOfCells="3">
      <Points>
        <DataArray type="Float64" NumberOfComponents="3" format="ascii">
          7.20566452e-01 -3.42622213e-02 0.00000000e+00 
7.30939507e-01 -3.31965312e-02 0.00000000e+00 
7.41311073e-01 -3.21157984e-02 0.00000000e+00 
7.51680970e-01 -3.10197193e-02 0.00000000e+00 

        </DataArray>
      </Points>
      <Cells>
        <DataArray type="Int32" Name="connectivity" format="ascii">
0 1
1 2
2 3

        </DataArray>
        <DataArray type="Int32" Name="offsets" format="ascii">
2 4 6 
        </DataArray>
        <DataArray type="UInt8" Name="types" format="ascii">
3 3 3 
        </DataArray>
      </Cells>
      <PointData>
        <DataArray type="Float64" Name="rho">
          9.41260924e-01 9.42806638e-01 9.44352969e-01 9.45898810e-01 
        </DataArray>
        <DataArray type="Float64" Name="rhou">
          3.88988545e-04 3.85738999e-04 3.86523221e-04 3.75488010e-04 
        </DataArray>
        <DataArray type="Float64" Name="rhov">
          7.78369537e-06 -4.32791730e-06 -4.66847294e-07 1.44920127e-05 
        </DataArray>
        <DataArray type="Float64" Name="E">
          2.14511600e+05 2.14882187e+05 2.15252777e+05 2.15623104e+05 
        </DataArray>
      </PointData>
    </Piece>
    <Piece NumberOfPoints="4" NumberOfCells="3">
      <Points>
        <DataArray type="Float64" NumberOfComponents="3" format="ascii">
          6.89437866e-01 -3.73662710e-02 0.00000000e+00 
6.99815631e-01 -3.63472365e-02 0.00000000e+00 
7.10191846e-01 -3.53125818e-02 0.00000000e+00 
7.20566452e-01 -3.42622213e-02 0.00000000e+00 

        </DataArray>
      </Points>
      <Cells>
        <DataArray type="Int32" Name="connectivity" format="ascii">
0 1
1 2
2 3

        </DataArray>
        <DataArray type="Int32" Name="offsets" format="ascii">
2 4 6 
        </DataArray>
        <DataArray type="UInt8" Name="types" format="ascii">
3 3 3 
        </DataArray>
      </Cells>
      <PointData>
        <DataArray type="Float64" Name="rho">
          9.36652609e-01 9.38184160e-01 9.39720591e-01 9.41260938e-01 
        </DataArray>
        <DataArray type="Float64" Name="rhou">
          4.10974857e-04 4.08241392e-04 4.05469577e-04 3.90181051e-04 
        </DataArray>
        <DataArray type="Float64" Name="rhov">
          -1.77176890e-07 -8.92902339e-06 -3.76974038e-06 8.72326709e-06 
        </DataArray>
        <DataArray type="Float64" Name="E">
          2.13405826e+05 2.13773449e+05 2.14142124e+05 2.14511603e+05 
        </DataArray>
      </PointData>
    </Piece>
    <Piece NumberOfPoints="4" NumberOfCells="3">
      <Points>
        <DataArray type="Float64" NumberOfComponents="3" format="ascii">
          6.58295333e-01 -4.03269380e-02 0.00000000e+00 
6.68677747e-01 -3.93563360e-02 0.00000000e+00 
6.79058611e-01 -3.83694395e-02 0.00000000e+00 
6.89437866e-01 -3.73662710e-02 0.00000000e+00 

        </DataArray>
      </Points>
      <Cells>
        <DataArray type="Int32" Name="connectivity" format="ascii">
0 1
1 2
2 3

        </DataArray>
        <DataArray type="Int32" Name="offsets" format="ascii">
2 4 6 
        </DataArray>
        <DataArray type="UInt8" Name="types" format="ascii">
3 3 3 
        </DataArray>
      </Cells>
      <PointData>
        <DataArray type="Float64" Name="rho">
          9.32115334e-01 9.33617861e-01 9.35130512e-01 9.36652672e-01 
        </DataArray>
        <DataArray type="Float64" Name="rhou">
          4.35208904e-04 4.34922785e-04 4.26457429e-04 4.08963980e-04 
        </DataArray>
        <DataArray type="Float64" Name="rhov">
          -9.05827790e-06 -1.37888796e-05 -7.25000117e-06 1.28775079e-06 
        </DataArray>
        <DataArray type="Float64" Name="E">
          2.12316027e+05 2.12676999e+05 2.13040331e+05 2.13405840e+05 
        </DataArray>
      </PointData>
    </Piece>
    <Piece NumberOfPoints="4" NumberOfCells="3">
      <Points>
        <DataArray type="Float64" NumberOfComponents="3" format="ascii">
          6.27138972e-01 -4.31386717e-02 0.00000000e+00 
6.37525976e-01 -4.22184542e-02 0.00000000e+00 
6.47911429e-01 -4.12811004e-02 0.00000000e+00 
6.58295333e-01 -4.03269380e-02 0.00000000e+00 

        </DataArray>
      </Points>
      <Cells>
        <DataArray type="Int32" Name="connectivity" format="ascii">
0 1
1 2
2 3

        </DataArray>
        <DataArray type="Int32" Name="offsets" format="ascii">
2 4 6 
        </DataArray>
        <DataArray type="UInt8" Name="types" format="ascii">
3 3 3 
        </DataArray>
      </Cells>
      <PointData>
        <DataArray type="Float64" Name="rho">
          9.27701644e-01 9.29155227e-01 9.30627374e-01 9.32115372e-01 
        </DataArray>
        <DataArray type="Float64" Name="rhou">
          4.74782162e-04 4.59754957e-04 4.46675336e-04 4.36532738e-04 
        </DataArray>
        <DataArray type="Float64" Name="rhov">
          -6.66454793e-06 -9.97526660e-06 -1.03854387e-05 -7.55104825e-06 
        </DataArray>
        <DataArray type="Float64" Name="E">
          2.11255261e+05 2.11604652e+05 2.11958466e+05 2.12316035e+05 
        </DataArray>
      </PointData>
    </Piece>
    <Piece NumberOfPoints="4" NumberOfCells="3">
      <Points>
        <DataArray type="Float64" NumberOfComponents="3" format="ascii">
          5.95968783e-01 -4.57924642e-02 0.00000000e+00 
6.06360376e-01 -4.49259281e-02 0.00000000e+00 
6.16750479e-01 -4.40412909e-02 0.00000000e+00 
6.27138972e-01 -4.31386717e-02 0.00000000e+00 

        </DataArray>
      </Points>
      <Cells>
        <DataArray type="Int32" Name="connectivity" format="ascii">
0 1
1 2
2 3

        </DataArray>
        <DataArray type="Int32" Name="offsets" format="ascii">
2 4 6 
        </DataArray>
        <DataArray type="UInt8" Name="types" format="ascii">
3 3 3 
        </DataArray>
      </Cells>
      <PointData>
        <DataArray type="Float64" Name="rho">
          9.23479403e-01 9.24862093e-01 9.26270166e-01 9.27701636e-01 
        </DataArray>
        <DataArray type="Float64" Name="rhou">
          5.07460439e-04 4.99835778e-04 4.86720116e-04 4.67876996e-04 
        </DataArray>
        <DataArray type="Float64" Name="rhov">
          -1.18389484e-05 -1.81897512e-05 -1.35889536e-05 -5.39571614e-06 
        </DataArray>
        <DataArray type="Float64" Name="E">
          2.10240367e+05 2.10572689e+05 2.10911156e+05 2.11255260e+05 
        </DataArray>
      </PointData>
    </Piece>
    <Piece NumberOfPoints="4" NumberOfCells="3">
      <Points>
        <DataArray type="Float64" NumberOfComponents="3" format="ascii">
          5.64784765e-01 -4.82786149e-02 0.00000000e+00 
5.75181007e-01 -4.74695377e-02 0.00000000e+00 
5.85575700e-01 -4.66405638e-02 0.00000000e+00 
5.95968783e-01 -4.57924642e-02 0.00000000e+00 

        </DataArray>
      </Points>
      <Cells>
        <DataArray type="Int32" Name="connectivity" format="ascii">
0 1
1 2
2 3

        </DataArray>
        <DataArray type="Int32" Name="offsets" format="ascii">
2 4 6 
        </DataArray>
        <DataArray type="UInt8" Name="types" format="ascii">
3 3 3 
        </DataArray>
      </Cells>
      <PointData>
        <DataArray type="Float64" Name="rho">
          9.19530775e-01 9.20810182e-01 9.22127263e-01 9.23479530e-01 
        </DataArray>
        <DataArray type="Float64" Name="rhou">
          5.77245203e-04 5.52840093e-04 5.21786674e-04 5.01010871e-04 
        </DataArray>
        <DataArray type="Float64" Name="rhov">
          -1.46678251e-05 -5.25836672e-06 -3.33440032e-06 -1.06168583e-05 
        </DataArray>
        <DataArray type="Float64" Name="E">
          2.09291615e+05 2.09598953e+05 2.09915424e+05 2.10240396e+05 
        </DataArray>
      </PointData>
    </Piece>
    <Piece NumberOfPoints="4" NumberOfCells="3">
      <Points>
        <DataArray type="Float64" NumberOfComponents="3" format="ascii">
          5.33586800e-01 -5.05827516e-02 0.00000000e+00 
5.43987691e-01 -4.98356484e-02 0.00000000e+00 
5.54387033e-01 -4.90674041e-02 0.00000000e+00 
5.64784765e-01 -4.82786149e-02 0.00000000e+00 

        </DataArray>
      </Points>
      <Cells>
        <DataArray type="Int32" Name="connectivity" format="ascii">
0 1
1 2
2 3

        </DataArray>
        <DataArray type="Int32" Name="offsets" format="ascii">
2 4 6 
        </DataArray>
        <DataArray type="UInt8" Name="types" format="ascii">
3 3 3 
        </DataArray>
      </Cells>
      <PointData>
        <DataArray type="Float64" Name="rho">
          9.15947729e-01 9.17094423e-01 9.18290815e-01 9.19530729e-01 
        </DataArray>
        <DataArray type="Float64" Name="rhou">
          6.46495729e-04 6.06644572e-04 5.79774152e-04 5.71484834e-04 
        </DataArray>
        <DataArray type="Float64" Name="rhov">
          -2.28055302e-06 -6.02152812e-06 -1.32922553e-05 -1.42553921e-05 
        </DataArray>
        <DataArray type="Float64" Name="E">
          2.08431644e+05 2.08706732e+05 2.08993875e+05 2.09291604e+05 
        </DataArray>
      </PointData>
    </Piece>
    <Piece NumberOfPoints="4" NumberOfCells="3">
      <Points>
        <DataArray type="Float64" NumberOfComponents="3" format="ascii">
          5.02374947e-01 -5.26902266e-02 0.00000000e+00 
5.12780428e-01 -5.20105064e-02 0.00000000e+00 
5.23184419e-01 -5.13078682e-02 0.00000000e+00 
5.33586800e-01 -5.05827516e-02 0.00000000e+00 

        </DataArray>
      </Points>
      <Cells>
        <DataArray type="Int32" Name="connectivity" format="ascii">
0 1
1 2
2 3

        </DataArray>
        <DataArray type="Int32" Name="offsets" format="ascii">
2 4 6 
        </DataArray>
        <DataArray type="UInt8" Name="types" format="ascii">
3 3 3 
        </DataArray>
      </Cells>
      <PointData>
        <DataArray type="Float64" Name="rho">
          9.12842966e-01 9.13818068e-01 9.14855093e-01 9.15947623e-01 
        </DataArray>
        <DataArray type="Float64" Name="rhou">
          7.26187940e-04 6.89625395e-04 6.63334979e-04 6.44039656e-04 
        </DataArray>
        <DataArray type="Float64" Name="rhov">
          -8.22048836e-07 -1.20320297e-05 -1.44721796e-05 -2.98288329e-06 
        </DataArray>
        <DataArray type="Float64" Name="E">
          2.07687805e+05 2.07921223e+05 2.08169668e+05 2.08431619e+05 
        </DataArray>
      </PointData>
    </Piece>
    <Piece NumberOfPoints="4" NumberOfCells="3">
      <Points>
        <DataArray type="Float64" NumberOfComponents="3" format="ascii">
          4.71149325e-01 -5.45825884e-02 0.00000000e+00 
4.81559396e-01 -5.39771840e-02 0.00000000e+00 
4.91967946e-01 -5.33461571e-02 0.00000000e+00 
5.02374947e-01 -5.26902266e-02 0.00000000e+00 

        </DataArray>
      </Points>
      <Cells>
        <DataArray type="Int32" Name="connectivity" format="ascii">
0 1
1 2
2 3

        </DataArray>
        <DataArray type="Int32" Name="offsets" format="ascii">
2 4 6 
        </DataArray>
        <DataArray type="UInt8" Name="types" format="ascii">
3 3 3 
        </DataArray>
      </Cells>
      <PointData>
        <DataArray type="Float64" Name="rho">
          9.10351726e-01 9.11106403e-01 9.11936981e-01 9.12843063e-01 
        </DataArray>
        <DataArray type="Float64" Name="rhou">
          8.36413639e-04 8.13818332e-04 7.65351331e-04 7.04911298e-04 
        </DataArray>
        <DataArray type="Float64" Name="rhov">
          -1.60725778e-05 -1.31862898e-05 1.75686402e-06 1.89085859e-06 
        </DataArray>
        <DataArray type="Float64" Name="E">
          2.07092617e+05 2.07272662e+05 2.07471116e+05 2.07687827e+05 
        </DataArray>
      </PointData>
    </Piece>
    <Piece NumberOfPoints="4" NumberOfCells="3">
      <Points>
        <DataArray type="Float64" NumberOfComponents="3" format="ascii">
          4.39910263e-01 -5.62384278e-02 0.00000000e+00 
4.50324744e-01 -5.57143167e-02 0.00000000e+00 
4.60737765e-01 -5.51619194e-02 0.00000000e+00 
4.71149325e-01 -5.45825884e-02 0.00000000e+00 

        </DataArray>
      </Points>
      <Cells>
        <DataArray type="Int32" Name="connectivity" format="ascii">
0 1
1 2
2 3

        </DataArray>
        <DataArray type="Int32" Name="offsets" format="ascii">
2 4 6 
        </DataArray>
        <DataArray type="UInt8" Name="types" format="ascii">
3 3 3 
        </DataArray>
      </Cells>
      <PointData>
        <DataArray type="Float64" Name="rho">
          9.08624513e-01 9.09101683e-01 9.09680801e-01 9.10351808e-01 
        </DataArray>
        <DataArray type="Float64" Name="rhou">
          1.01507560e-03 9.32289084e-04 8.70866899e-04 8.42671109e-04 
        </DataArray>
        <DataArray type="Float64" Name="rhov">
          3.62801766e-06 9.61173355e-06 -1.70326811e-06 -1.37544935e-05 
        </DataArray>
        <DataArray type="Float64" Name="E">
          2.06682083e+05 2.06795182e+05 2.06932822e+05 2.07092636e+05 
        </DataArray>
      </PointData>
    </Piece>
    <Piece NumberOfPoints="4" NumberOfCells="3">
      <Points>
        <DataArray type="Float64" NumberOfComponents="3" format="ascii">
          4.08658355e-01 -5.76302819e-02 0.00000000e+00 
4.19077009e-01 -5.71971126e-02 0.00000000e+00 
4.29494321e-01 -5.67329265e-02 0.00000000e+00 
4.39910263e-01 -5.62384278e-02 0.00000000e+00 

        </DataArray>
      </Points>
      <Cells>
        <DataArray type="Int32" Name="connectivity" format="ascii">
0 1
1 2
2 3

        </DataArray>
        <DataArray type="Int32" Name="offsets" format="ascii">
2 4 6 
        </DataArray>
        <DataArray type="UInt8" Name="types" format="ascii">
3 3 3 
        </DataArray>
      </Cells>
      <PointData>
        <DataArray type="Float64" Name="rho">
          9.07850128e-01 9.07991879e-01 9.08253440e-01 9.08624258e-01 
        </DataArray>
        <DataArray type="Float64" Name="rhou">
          1.17980545e-03 1.10578369e-03 1.05167988e-03 1.00942573e-03 
        </DataArray>
        <DataArray type="Float64" Name="rhov">
          5.21394769e-06 -1.22293190e-05 -1.51209240e-05 3.22764930e-06 
        </DataArray>
        <DataArray type="Float64" Name="E">
          2.06501090e+05 2.06533410e+05 2.06594544e+05 2.06682025e+05 
        </DataArray>
      </PointData>
    </Piece>
    <Piece NumberOfPoints="4" NumberOfCells="3">
      <Points>
        <DataArray type="Float64" NumberOfComponents="3" format="ascii">
          3.77394795e-01 -5.87291755e-02 0.00000000e+00 
3.87817174e-01 -5.83979115e-02 0.00000000e+00 
3.98238391e-01 -5.80311492e-02 0.00000000e+00 
4.08658355e-01 -5.76302819e-02 0.00000000e+00 

        </DataArray>
      </Points>
      <Cells>
        <DataArray type="Int32" Name="connectivity" format="ascii">
0 1
1 2
2 3

        </DataArray>
        <DataArray type="Int32" Name="offsets" format="ascii">
2 4 6 
        </DataArray>
        <DataArray type="UInt8" Name="types" format="ascii">
3 3 3 
        </DataArray>
      </Cells>
      <PointData>
        <DataArray type="Float64" Name="rho">
          9.08255984e-01 9.07975109e-01 9.07840076e-01 9.07850352e-01 
        </DataArray>
        <DataArray type="Float64" Name="rhou">
          1.44541599e-03 1.36729458e-03 1.25914855e-03 1.14618910e-03 
        </DataArray>
        <DataArray type="Float64" Name="rhov">
          -3.26072747e-05 -5.86702987e-06 2.08774382e-05 9.88002896e-06 
        </DataArray>
        <DataArray type="Float64" Name="E">
          2.06603467e+05 2.06534410e+05 2.06500372e+05 2.06501142e+05 
        </DataArray>
      </PointData>
    </Piece>
    <Piece NumberOfPoints="4" NumberOfCells="3">
      <Points>
        <DataArray type="Float64" NumberOfComponents="3" format="ascii">
          3.46121490e-01 -5.95011823e-02 0.00000000e+00 
3.56546819e-01 -5.92821389e-02 0.00000000e+00 
3.66971314e-01 -5.90242445e-02 0.00000000e+00 
3.77394795e-01 -5.87291755e-02 0.00000000e+00 

        </DataArray>
      </Points>
      <Cells>
        <DataArray type="Int32" Name="connectivity" format="ascii">
0 1
1 2
2 3

        </DataArray>
        <DataArray type="Int32" Name="offsets" format="ascii">
2 4 6 
        </DataArray>
        <DataArray type="UInt8" Name="types" format="ascii">
3 3 3 
        </DataArray>
      </Cells>
      <PointData>
        <DataArray type="Float64" Name="rho">
          9.10079226e-01 9.09292800e-01 9.08690072e-01 9.08256081e-01 
        </DataArray>
        <DataArray type="Float64" Name="rhou">
          1.80754792e-03 1.65502695e-03 1.51900989e-03 1.44914976e-03 
        </DataArray>
        <DataArray type="Float64" Name="rhov">
          -6.24720139e-05 -2.05403192e-05 -1.53194690e-05 -2.81338888e-05 
        </DataArray>
        <DataArray type="Float64" Name="E">
          2.07045587e+05 2.06855475e+05 2.06709284e+05 2.06603488e+05 
        </DataArray>
      </PointData>
    </Piece>
    <Piece NumberOfPoints="4" NumberOfCells="3">
      <Points>
        <DataArray type="Float64" NumberOfComponents="3" format="ascii">
          3.14841360e-01 -5.99102043e-02 0.00000000e+00 
3.25268596e-01 -5.98174632e-02 0.00000000e+00 
3.35695356e-01 -5.96801341e-02 0.00000000e+00 
3.46121490e-01 -5.95011823e-02 0.00000000e+00 

        </DataArray>
      </Points>
      <Cells>
        <DataArray type="Int32" Name="connectivity" format="ascii">
0 1
1 2
2 3

        </DataArray>
        <DataArray type="Int32" Name="offsets" format="ascii">
2 4 6 
        </DataArray>
        <DataArray type="UInt8" Name="types" format="ascii">
3 3 3 
        </DataArray>
      </Cells>
      <PointData>
        <DataArray type="Float64" Name="rho">
          9.13658146e-01 9.12234497e-01 9.11049928e-01 9.10078914e-01 
        </DataArray>
        <DataArray type="Float64" Name="rhou">
          2.27742860e-03 2.02141409e-03 1.84896954e-03 1.76944109e-03 
        </DataArray>
        <DataArray type="Float64" Name="rhov">
          9.04655257e-06 3.21268930e-05 -3.76498644e-06 -6.20150859e-05 
        </DataArray>
        <DataArray type="Float64" Name="E">
          2.07907607e+05 2.07565226e+05 2.07279870e+05 2.07045515e+05 
        </DataArray>
      </PointData>
    </Piece>
    <Piece NumberOfPoints="4" NumberOfCells="3">
      <Points>
        <DataArray type="Float64" NumberOfComponents="3" format="ascii">
          2.83558637e-01 -5.98983802e-02 0.00000000e+00 
2.93986142e-01 -5.99516556e-02 0.00000000e+00 
3.04413795e-01 -5.99554181e-02 0.00000000e+00 
3.14841360e-01 -5.99102043e-02 0.00000000e+00 

        </DataArray>
      </Points>
      <Cells>
        <DataArray type="Int32" Name="connectivity" format="ascii">
0 1
1 2
2 3

        </DataArray>
        <DataArray type="Int32" Name="offsets" format="ascii">
2 4 6 
        </DataArray>
        <DataArray type="UInt8" Name="types" format="ascii">
3 3 3 
        </DataArray>
      </Cells>
      <PointData>
        <DataArray type="Float64" Name="rho">
          9.19429312e-01 9.17249315e-01 9.15330032e-01 9.13657392e-01 
        </DataArray>
        <DataArray type="Float64" Name="rhou">
          2.76790790e-03 2.59936980e-03 2.45881542e-03 2.26796186e-03 
        </DataArray>
        <DataArray type="Float64" Name="rhov">
          -5.11357578e-05 -1.22097004e-04 -8.46100525e-05 1.56835683e-05 
        </DataArray>
        <DataArray type="Float64" Name="E">
          2.09293678e+05 2.08770270e+05 2.08309304e+05 2.07907434e+05 
        </DataArray>
      </PointData>
    </Piece>
    <Piece NumberOfPoints="4" NumberOfCells="3">
      <Points>
        <DataArray type="Float64" NumberOfComponents="3" format="ascii">
          2.52279758e-01 -5.94130717e-02 0.00000000e+00 
2.62705088e-01 -5.96327744e-02 0.00000000e+00 
2.73131490e-01 -5.97934239e-02 0.00000000e+00 
2.83558637e-01 -5.98983802e-02 0.00000000e+00 

        </DataArray>
      </Points>
      <Cells>
        <DataArray type="Int32" Name="connectivity" format="ascii">
0 1
1 2
2 3

        </DataArray>
        <DataArray type="Int32" Name="offsets" format="ascii">
2 4 6 
        </DataArray>
        <DataArray type="UInt8" Name="types" format="ascii">
3 3 3 
        </DataArray>
      </Cells>
      <PointData>
        <DataArray type="Float64" Name="rho">
          9.27924043e-01 9.24747143e-01 9.21917353e-01 9.19430269e-01 
        </DataArray>
        <DataArray type="Float64" Name="rhou">
          3.76340016e-03 3.45347791e-03 3.10981810e-03 2.75361712e-03 
        </DataArray>
        <DataArray type="Float64" Name="rhov">
          -2.10351851e-04 -1.12896536e-04 -2.03997576e-05 -3.11579919e-05 
        </DataArray>
        <DataArray type="Float64" Name="E">
          2.11330323e+05 2.10568889e+05 2.09890527e+05 2.09293900e+05 
        </DataArray>
      </PointData>
    </Piece>
    <Piece NumberOfPoints="4" NumberOfCells="3">
      <Points>
        <DataArray type="Float64" NumberOfComponents="3" format="ascii">
          2.21014455e-01 -5.83752058e-02 0.00000000e+00 
2.31433928e-01 -5.87876961e-02 0.00000000e+00 
2.41855890e-01 -5.91322705e-02 0.00000000e+00 
2.52279758e-01 -5.94130717e-02 0.00000000e+00 

        </DataArray>
      </Points>
      <Cells>
        <DataArray type="Int32" Name="connectivity" format="ascii">
0 1
1 2
2 3

        </DataArray>
        <DataArray type="Int32" Name="offsets" format="ascii">
2 4 6 
        </DataArray>
        <DataArray type="UInt8" Name="types" format="ascii">
3 3 3 
        </DataArray>
      </Cells>
      <PointData>
        <DataArray type="Float64" Name="rho">
          9.39835152e-01 9.35423087e-01 9.31467481e-01 9.27924230e-01 
        </DataArray>
        <DataArray type="Float64" Name="rhou">
          5.13333924e-03 4.54069459e-03 4.08864848e-03 3.79937209e-03 
        </DataArray>
        <DataArray type="Float64" Name="rhov">
          -3.30843607e-04 -2.19528916e-04 -1.82431023e-04 -1.93140756e-04 
        </DataArray>
        <DataArray type="Float64" Name="E">
          2.14184036e+05 2.13127209e+05 2.12179498e+05 2.11330361e+05 
        </DataArray>
      </PointData>
    </Piece>
    <Piece NumberOfPoints="4" NumberOfCells="3">
      <Points>
        <DataArray type="Float64" NumberOfComponents="3" format="ascii">
          1.89777538e-01 -5.66898957e-02 0.00000000e+00 
2.00185493e-01 -5.73302582e-02 0.00000000e+00 
2.10598081e-01 -5.78906052e-02 0.00000000e+00 
2.21014455e-01 -5.83752058e-02 0.00000000e+00 

        </DataArray>
      </Points>
      <Cells>
        <DataArray type="Int32" Name="connectivity" format="ascii">
0 1
1 2
2 3

        </DataArray>
        <DataArray type="Int32" Name="offsets" format="ascii">
2 4 6 
        </DataArray>
        <DataArray type="UInt8" Name="types" format="ascii">
3 3 3 
        </DataArray>
      </Cells>
      <PointData>
        <DataArray type="Float64" Name="rho">
          9.56164512e-01 9.50158080e-01 9.44733943e-01 9.39834364e-01 
        </DataArray>
        <DataArray type="Float64" Name="rhou">
          7.06110271e-03 6.25748607e-03 5.67122014e-03 5.19776585e-03 
        </DataArray>
        <DataArray type="Float64" Name="rhov">
          -6.41048996e-04 -5.61129400e-04 -4.51566818e-04 -3.17594855e-04 
        </DataArray>
        <DataArray type="Float64" Name="E">
          2.18095384e+05 2.16656621e+05 2.15357386e+05 2.14183854e+05 
        </DataArray>
      </PointData>
    </Piece>
    <Piece NumberOfPoints="4" NumberOfCells="3">
      <Points>
        <DataArray type="Float64" NumberOfComponents="3" format="ascii">
          1.58592433e-01 -5.42296544e-02 0.00000000e+00 
1.68979734e-01 -5.51457107e-02 0.00000000e+00 
1.79375216e-01 -5.59638515e-02 0.00000000e+00 
1.89777538e-01 -5.66898957e-02 0.00000000e+00 

        </DataArray>
      </Points>
      <Cells>
        <DataArray type="Int32" Name="connectivity" format="ascii">
0 1
1 2
2 3

        </DataArray>
        <DataArray type="Int32" Name="offsets" format="ascii">
2 4 6 
        </DataArray>
        <DataArray type="UInt8" Name="types" format="ascii">
3 3 3 
        </DataArray>
      </Cells>
      <PointData>
        <DataArray type="Float64" Name="rho">
          9.78401960e-01 9.70229219e-01 9.62832867e-01 9.56164934e-01 
        </DataArray>
        <DataArray type="Float64" Name="rhou">
          1.01072336e-02 9.04151809e-03 8.09673904e-03 7.13314619e-03 
        </DataArray>
        <DataArray type="Float64" Name="rhov">
          -1.44501727e-03 -1.23602649e-03 -8.85437392e-04 -5.99338388e-04 
        </DataArray>
        <DataArray type="Float64" Name="E">
          2.23422959e+05 2.21464480e+05 2.19692642e+05 2.18095486e+05 
        </DataArray>
      </PointData>
    </Piece>
    <Piece NumberOfPoints="4" NumberOfCells="3">
      <Points>
        <DataArray type="Float64" NumberOfComponents="3" format="ascii">
          1.27497971e-01 -5.08146733e-02 0.00000000e+00 
1.37849152e-01 -5.20747155e-02 0.00000000e+00 
1.48214847e-01 -5.32093942e-02 0.00000000e+00 
1.58592433e-01 -5.42296544e-02 0.00000000e+00 

        </DataArray>
      </Points>
      <Cells>
        <DataArray type="Int32" Name="connectivity" format="ascii">
0 1
1 2
2 3

        </DataArray>
        <DataArray type="Int32" Name="offsets" format="ascii">
2 4 6 
        </DataArray>
        <DataArray type="UInt8" Name="types" format="ascii">
3 3 3 
        </DataArray>
      </Cells>
      <PointData>
        <DataArray type="Float64" Name="rho">
          1.00890882e+00 9.97612767e-01 9.87464146e-01 9.78406062e-01 
        </DataArray>
        <DataArray type="Float64" Name="rhou">
          1.45883070e-02 1.34411564e-02 1.16485154e-02 1.01348387e-02 
        </DataArray>
        <DataArray type="Float64" Name="rhov">
          -2.39421869e-03 -2.11659081e-03 -1.47208344e-03 -1.37221604e-03 
        </DataArray>
        <DataArray type="Float64" Name="E">
          2.30737112e+05 2.28027735e+05 2.25595051e+05 2.23423903e+05 
        </DataArray>
      </PointData>
    </Piece>
    <Piece NumberOfPoints="4" NumberOfCells="3">
      <Points>
        <DataArray type="Float64" NumberOfComponents="3" format="ascii">
          9.65642184e-02 -4.61716652e-02 0.00000000e+00 
1.06852271e-01 -4.78802323e-02 0.00000000e+00 
1.17164567e-01 -4.94215861e-02 0.00000000e+00 
1.27497971e-01 -5.08146733e-02 0.00000000e+00 

        </DataArray>
      </Points>
      <Cells>
        <DataArray type="Int32" Name="connectivity" format="ascii">
0 1
1 2
2 3

        </DataArray>
        <DataArray type="Int32" Name="offsets" format="ascii">
2 4 6 
        </DataArray>
        <DataArray type="UInt8" Name="types" format="ascii">
3 3 3 
        </DataArray>
      </Cells>
      <PointData>
        <DataArray type="Float64" Name="rho">
          1.05173868e+00 1.03568564e+00 1.02143762e+00 1.00891733e+00 
        </DataArray>
        <DataArray type="Float64" Name="rhou">
          2.46611621e-02 1.80977119e-02 1.72401707e-02 1.29151146e-02 
        </DataArray>
        <DataArray type="Float64" Name="rhov">
          -1.05334032e-03 -8.51629049e-04 -1.67591726e-03 -1.70240678e-03 
        </DataArray>
        <DataArray type="Float64" Name="E">
          2.41025421e+05 2.37166198e+05 2.33744612e+05 2.30739167e+05 
        </DataArray>
      </PointData>
    </Piece>
  </UnstructuredGrid>
</VTKFile>
