<?xml version="1.0"?>
<VTKFile type="UnstructuredGrid" version="0.1" byte_order="LittleEndian">
  <UnstructuredGrid>
    <Piece NumberOfPoints="4" NumberOfCells="3">
      <Points>
        <DataArray type="Float64" NumberOfComponents="3" format="ascii">
          9.65642184e-02 -4.61716652e-02 0.00000000e+00 
9.26280916e-02 -4.54656407e-02 0.00000000e+00 
8.86965096e-02 -4.47326750e-02 0.00000000e+00 
8.47706869e-02 -4.39694971e-02 0.00000000e+00 

        </DataArray>
      </Points>
      <Cells>
        <DataArray type="Int32" Name="connectivity" format="ascii">
0 1
1 2
2 3

        </DataArray>
        <DataArray type="Int32" Name="offsets" format="ascii">
2 4 6 
        </DataArray>
        <DataArray type="UInt8" Name="types" format="ascii">
3 3 3 
        </DataArray>
      </Cells>
      <PointData>
        <DataArray type="Float64" Name="rho">
          1.03069771e+00 1.03761803e+00 1.04485326e+00 1.05253586e+00 
        </DataArray>
        <DataArray type="Float64" Name="rhou">
          2.82510306e-02 2.17702392e-02 2.44175065e-02 2.45985351e-02 
        </DataArray>
        <DataArray type="Float64" Name="rhov">
          -2.22002144e-03 -1.00948930e-03 -6.02563736e-04 -9.18779828e-04 
        </DataArray>
        <DataArray type="Float64" Name="E">
          2.35279202e+05 2.36933323e+05 2.38664361e+05 2.40502788e+05 
        </DataArray>
      </PointData>
    </Piece>
    <Piece NumberOfPoints="4" NumberOfCells="3">
      <Points>
        <DataArray type="Float64" NumberOfComponents="3" format="ascii">
          8.47706869e-02 -4.39694971e-02 0.00000000e+00 
8.08513016e-02 -4.31745499e-02 0.00000000e+00 
7.69388378e-02 -4.23462167e-02 0.00000000e+00 
7.30340332e-02 -4.14824970e-02 0.00000000e+00 

        </DataArray>
      </Points>
      <Cells>
        <DataArray type="Int32" Name="connectivity" format="ascii">
0 1
1 2
2 3

        </DataArray>
        <DataArray type="Int32" Name="offsets" format="ascii">
2 4 6 
        </DataArray>
        <DataArray type="UInt8" Name="types" format="ascii">
3 3 3 
        </DataArray>
      </Cells>
      <PointData>
        <DataArray type="Float64" Name="rho">
          1.05253466e+00 1.06064577e+00 1.06922093e+00 1.07832984e+00 
        </DataArray>
        <DataArray type="Float64" Name="rhou">
          2.46892569e-02 2.38688941e-02 2.24649238e-02 2.09035205e-02 
        </DataArray>
        <DataArray type="Float64" Name="rhov">
          -7.24308849e-04 -5.19858252e-04 3.81066865e-04 1.56870513e-03 
        </DataArray>
        <DataArray type="Float64" Name="E">
          2.40502521e+05 2.42445461e+05 2.44500819e+05 2.46685326e+05 
        </DataArray>
      </PointData>
    </Piece>
    <Piece NumberOfPoints="4" NumberOfCells="3">
      <Points>
        <DataArray type="Float64" NumberOfComponents="3" format="ascii">
          7.30340332e-02 -4.14824970e-02 0.00000000e+00 
6.91377968e-02 -4.05809283e-02 0.00000000e+00 
6.52511865e-02 -3.96387354e-02 0.00000000e+00 
6.13753870e-02 -3.86530459e-02 0.00000000e+00 

        </DataArray>
      </Points>
      <Cells>
        <DataArray type="Int32" Name="connectivity" format="ascii">
0 1
1 2
2 3

        </DataArray>
        <DataArray type="Int32" Name="offsets" format="ascii">
2 4 6 
        </DataArray>
        <DataArray type="UInt8" Name="types" format="ascii">
3 3 3 
        </DataArray>
      </Cells>
      <PointData>
        <DataArray type="Float64" Name="rho">
          1.07833045e+00 1.08805687e+00 1.09843240e+00 1.10951652e+00 
        </DataArray>
        <DataArray type="Float64" Name="rhou">
          2.10216229e-02 1.86790015e-02 1.45888932e-02 9.10138580e-03 
        </DataArray>
        <DataArray type="Float64" Name="rhov">
          1.40342957e-03 2.13977611e-03 4.20968480e-03 7.38496379e-03 
        </DataArray>
        <DataArray type="Float64" Name="E">
          2.46685489e+05 2.49020299e+05 2.51512585e+05 2.54177331e+05 
        </DataArray>
      </PointData>
    </Piece>
    <Piece NumberOfPoints="4" NumberOfCells="3">
      <Points>
        <DataArray type="Float64" NumberOfComponents="3" format="ascii">
          6.13753870e-02 -3.86530459e-02 0.00000000e+00 
5.75117208e-02 -3.76208089e-02 0.00000000e+00 
5.36618084e-02 -3.65384258e-02 0.00000000e+00 
4.98276278e-02 -3.54015976e-02 0.00000000e+00 

        </DataArray>
      </Points>
      <Cells>
        <DataArray type="Int32" Name="connectivity" format="ascii">
0 1
1 2
2 3

        </DataArray>
        <DataArray type="Int32" Name="offsets" format="ascii">
2 4 6 
        </DataArray>
        <DataArray type="UInt8" Name="types" format="ascii">
3 3 3 
        </DataArray>
      </Cells>
      <PointData>
        <DataArray type="Float64" Name="rho">
          1.10951679e+00 1.12139244e+00 1.13414427e+00 1.14790363e+00 
        </DataArray>
        <DataArray type="Float64" Name="rhou">
          9.04552020e-03 2.00146951e-03 -7.19650741e-03 -1.86948948e-02 
        </DataArray>
        <DataArray type="Float64" Name="rhov">
          7.15733032e-03 1.18386590e-02 1.98859031e-02 3.13175988e-02 
        </DataArray>
        <DataArray type="Float64" Name="E">
          2.54177396e+05 2.57036390e+05 2.60108984e+05 2.63427671e+05 
        </DataArray>
      </PointData>
    </Piece>
    <Piece NumberOfPoints="4" NumberOfCells="3">
      <Points>
        <DataArray type="Float64" NumberOfComponents="3" format="ascii">
          4.98276278e-02 -3.54015976e-02 0.00000000e+00 
4.60115410e-02 -3.42054628e-02 0.00000000e+00 
4.22164090e-02 -3.29444520e-02 0.00000000e+00 
3.84457745e-02 -3.16120051e-02 0.00000000e+00 

        </DataArray>
      </Points>
      <Cells>
        <DataArray type="Int32" Name="connectivity" format="ascii">
0 1
1 2
2 3

        </DataArray>
        <DataArray type="Int32" Name="offsets" format="ascii">
2 4 6 
        </DataArray>
        <DataArray type="UInt8" Name="types" format="ascii">
3 3 3 
        </DataArray>
      </Cells>
      <PointData>
        <DataArray type="Float64" Name="rho">
          1.14790355e+00 1.16277046e+00 1.17885686e+00 1.19635417e+00 
        </DataArray>
        <DataArray type="Float64" Name="rhou">
          -1.91479444e-02 -3.32677428e-02 -5.22337352e-02 -7.49214080e-02 
        </DataArray>
        <DataArray type="Float64" Name="rhov">
          3.11032107e-02 4.77273426e-02 7.53068371e-02 1.15664591e-01 
        </DataArray>
        <DataArray type="Float64" Name="E">
          2.63427619e+05 2.67019972e+05 2.70911818e+05 2.75151385e+05 
        </DataArray>
      </PointData>
    </Piece>
    <Piece NumberOfPoints="4" NumberOfCells="3">
      <Points>
        <DataArray type="Float64" NumberOfComponents="3" format="ascii">
          3.84457745e-02 -3.16120051e-02 0.00000000e+00 
3.47041376e-02 -3.02002355e-02 0.00000000e+00 
3.09973080e-02 -2.86995135e-02 0.00000000e+00 
2.73328498e-02 -2.70981900e-02 0.00000000e+00 

        </DataArray>
      </Points>
      <Cells>
        <DataArray type="Int32" Name="connectivity" format="ascii">
0 1
1 2
2 3

        </DataArray>
        <DataArray type="Int32" Name="offsets" format="ascii">
2 4 6 
        </DataArray>
        <DataArray type="UInt8" Name="types" format="ascii">
3 3 3 
        </DataArray>
      </Cells>
      <PointData>
        <DataArray type="Float64" Name="rho">
          1.19635439e+00 1.21545210e+00 1.23634332e+00 1.25939945e+00 
        </DataArray>
        <DataArray type="Float64" Name="rhou">
          -7.58707356e-02 -1.00007345e-01 -1.28631980e-01 -1.54034058e-01 
        </DataArray>
        <DataArray type="Float64" Name="rhov">
          1.15584229e-01 1.71005881e-01 2.56738669e-01 3.76775276e-01 
        </DataArray>
        <DataArray type="Float64" Name="E">
          2.75151304e+05 2.79790452e+05 2.84873863e+05 2.90495605e+05 
        </DataArray>
      </PointData>
    </Piece>
    <Piece NumberOfPoints="4" NumberOfCells="3">
      <Points>
        <DataArray type="Float64" NumberOfComponents="3" format="ascii">
          2.73328498e-02 -2.70981900e-02 0.00000000e+00 
2.37206947e-02 -2.53822580e-02 0.00000000e+00 
2.01744195e-02 -2.35341713e-02 0.00000000e+00 
1.67132635e-02 -2.15314496e-02 0.00000000e+00 

        </DataArray>
      </Points>
      <Cells>
        <DataArray type="Int32" Name="connectivity" format="ascii">
0 1
1 2
2 3

        </DataArray>
        <DataArray type="Int32" Name="offsets" format="ascii">
2 4 6 
        </DataArray>
        <DataArray type="UInt8" Name="types" format="ascii">
3 3 3 
        </DataArray>
      </Cells>
      <PointData>
        <DataArray type="Float64" Name="rho">
          1.25940430e+00 1.28496508e+00 1.31348586e+00 1.34631279e+00 
        </DataArray>
        <DataArray type="Float64" Name="rhou">
          -1.54413676e-01 -1.68532715e-01 -1.52964059e-01 -5.72240181e-02 
        </DataArray>
        <DataArray type="Float64" Name="rhov">
          3.77449207e-01 5.29003307e-01 7.39299457e-01 9.57248316e-01 
        </DataArray>
        <DataArray type="Float64" Name="E">
          2.90496503e+05 2.96751097e+05 3.03742706e+05 3.11799932e+05 
        </DataArray>
      </PointData>
    </Piece>
    <Piece NumberOfPoints="4" NumberOfCells="3">
      <Points>
        <DataArray type="Float64" NumberOfComponents="3" format="ascii">
          1.67132635e-02 -2.15314496e-02 0.00000000e+00 
1.33649679e-02 -1.93456318e-02 0.00000000e+00 
1.01706637e-02 -1.69409402e-02 0.00000000e+00 
7.19343964e-03 -1.42731192e-02 0.00000000e+00 

        </DataArray>
      </Points>
      <Cells>
        <DataArray type="Int32" Name="connectivity" format="ascii">
0 1
1 2
2 3

        </DataArray>
        <DataArray type="Int32" Name="offsets" format="ascii">
2 4 6 
        </DataArray>
        <DataArray type="UInt8" Name="types" format="ascii">
3 3 3 
        </DataArray>
      </Cells>
      <PointData>
        <DataArray type="Float64" Name="rho">
          1.34620709e+00 1.38607427e+00 1.43331246e+00 1.49841622e+00 
        </DataArray>
        <DataArray type="Float64" Name="rhou">
          -3.46858352e-02 1.13360418e-01 4.53979465e-01 8.73579565e-01 
        </DataArray>
        <DataArray type="Float64" Name="rhov">
          9.19051928e-01 1.12170070e+00 1.06686813e+00 5.17562938e-01 
        </DataArray>
        <DataArray type="Float64" Name="E">
          3.11775775e+05 3.21564075e+05 3.33155001e+05 3.49014598e+05 
        </DataArray>
      </PointData>
    </Piece>
    <Piece NumberOfPoints="4" NumberOfCells="3">
      <Points>
        <DataArray type="Float64" NumberOfComponents="3" format="ascii">
          7.19343964e-03 -1.42731192e-02 0.00000000e+00 
4.53082798e-03 -1.12927537e-02 0.00000000e+00 
2.33371323e-03 -7.95678515e-03 0.00000000e+00 
8.10639584e-04 -4.26717056e-03 0.00000000e+00 

        </DataArray>
      </Points>
      <Cells>
        <DataArray type="Int32" Name="connectivity" format="ascii">
0 1
1 2
2 3

        </DataArray>
        <DataArray type="Int32" Name="offsets" format="ascii">
2 4 6 
        </DataArray>
        <DataArray type="UInt8" Name="types" format="ascii">
3 3 3 
        </DataArray>
      </Cells>
      <PointData>
        <DataArray type="Float64" Name="rho">
          1.49893521e+00 1.57336636e+00 1.66245987e+00 1.73117106e+00 
        </DataArray>
        <DataArray type="Float64" Name="rhou">
          7.98653545e-01 9.28350691e-01 2.57560639e-01 -1.27479136e+00 
        </DataArray>
        <DataArray type="Float64" Name="rhov">
          6.16212818e-01 -5.11151002e-01 -1.72758033e+00 -1.81511842e+00 
        </DataArray>
        <DataArray type="Float64" Name="E">
          3.49141750e+05 3.67309486e+05 3.88934038e+05 4.05634166e+05 
        </DataArray>
      </PointData>
    </Piece>
    <Piece NumberOfPoints="4" NumberOfCells="3">
      <Points>
        <DataArray type="Float64" NumberOfComponents="3" format="ascii">
          8.10639584e-04 -4.26717056e-03 0.00000000e+00 
1.91366620e-04 -3.27450951e-04 0.00000000e+00 
6.40850572e-04 3.63462302e-03 0.00000000e+00 
2.03182548e-03 7.37539819e-03 0.00000000e+00 

        </DataArray>
      </Points>
      <Cells>
        <DataArray type="Int32" Name="connectivity" format="ascii">
0 1
1 2
2 3

        </DataArray>
        <DataArray type="Int32" Name="offsets" format="ascii">
2 4 6 
        </DataArray>
        <DataArray type="UInt8" Name="types" format="ascii">
3 3 3 
        </DataArray>
      </Cells>
      <PointData>
        <DataArray type="Float64" Name="rho">
          1.72959571e+00 1.75454026e+00 1.70411600e+00 1.61166059e+00 
        </DataArray>
        <DataArray type="Float64" Name="rhou">
          -1.14930021e+00 -1.87717875e+00 -8.33747835e-01 7.51621085e-01 
        </DataArray>
        <DataArray type="Float64" Name="rhov">
          -1.97325130e+00 3.64700973e-01 1.88121187e+00 1.51311968e+00 
        </DataArray>
        <DataArray type="Float64" Name="E">
          4.05252769e+05 4.11223957e+05 3.98898947e+05 3.76321307e+05 
        </DataArray>
      </PointData>
    </Piece>
    <Piece NumberOfPoints="4" NumberOfCells="3">
      <Points>
        <DataArray type="Float64" NumberOfComponents="3" format="ascii">
          2.03182548e-03 7.37539819e-03 0.00000000e+00 
4.13410179e-03 1.07714310e-02 0.00000000e+00 
6.73249783e-03 1.38076087e-02 0.00000000e+00 
9.66598373e-03 1.65232457e-02 0.00000000e+00 

        </DataArray>
      </Points>
      <Cells>
        <DataArray type="Int32" Name="connectivity" format="ascii">
0 1
1 2
2 3

        </DataArray>
        <DataArray type="Int32" Name="offsets" format="ascii">
2 4 6 
        </DataArray>
        <DataArray type="UInt8" Name="types" format="ascii">
3 3 3 
        </DataArray>
      </Cells>
      <PointData>
        <DataArray type="Float64" Name="rho">
          1.61202289e+00 1.50489535e+00 1.41565713e+00 1.34870012e+00 
        </DataArray>
        <DataArray type="Float64" Name="rhou">
          7.24010383e-01 1.15375818e+00 8.38486132e-01 3.74207461e-01 
        </DataArray>
        <DataArray type="Float64" Name="rhov">
          1.74780551e+00 6.15589957e-02 -1.07438460e+00 -1.39831883e+00 
        </DataArray>
        <DataArray type="Float64" Name="E">
          3.76412449e+05 3.50409507e+05 3.28711991e+05 3.12351034e+05 
        </DataArray>
      </PointData>
    </Piece>
    <Piece NumberOfPoints="4" NumberOfCells="3">
      <Points>
        <DataArray type="Float64" NumberOfComponents="3" format="ascii">
          9.66598373e-03 1.65232457e-02 0.00000000e+00 
1.28298048e-02 1.89677756e-02 0.00000000e+00 
1.61561389e-02 2.11867876e-02 0.00000000e+00 
1.96009967e-02 2.32173651e-02 0.00000000e+00 

        </DataArray>
      </Points>
      <Cells>
        <DataArray type="Int32" Name="connectivity" format="ascii">
0 1
1 2
2 3

        </DataArray>
        <DataArray type="Int32" Name="offsets" format="ascii">
2 4 6 
        </DataArray>
        <DataArray type="UInt8" Name="types" format="ascii">
3 3 3 
        </DataArray>
      </Cells>
      <PointData>
        <DataArray type="Float64" Name="rho">
          1.34849483e+00 1.29602313e+00 1.25704523e+00 1.22273214e+00 
        </DataArray>
        <DataArray type="Float64" Name="rhou">
          3.83782071e-01 -1.73234026e-02 -1.98462878e-01 -2.18811026e-01 
        </DataArray>
        <DataArray type="Float64" Name="rhov">
          -1.42290856e+00 -1.31801999e+00 -9.88189499e-01 -6.63169638e-01 
        </DataArray>
        <DataArray type="Float64" Name="E">
          3.12298882e+05 2.99478348e+05 2.89905260e+05 2.81504008e+05 
        </DataArray>
      </PointData>
    </Piece>
    <Piece NumberOfPoints="4" NumberOfCells="3">
      <Points>
        <DataArray type="Float64" NumberOfComponents="3" format="ascii">
          1.96009967e-02 2.32173651e-02 0.00000000e+00 
2.31348258e-02 2.50891000e-02 0.00000000e+00 
2.67372411e-02 2.68253610e-02 0.00000000e+00 
3.03938854e-02 2.84444261e-02 0.00000000e+00 

        </DataArray>
      </Points>
      <Cells>
        <DataArray type="Int32" Name="connectivity" format="ascii">
0 1
1 2
2 3

        </DataArray>
        <DataArray type="Int32" Name="offsets" format="ascii">
2 4 6 
        </DataArray>
        <DataArray type="UInt8" Name="types" format="ascii">
3 3 3 
        </DataArray>
      </Cells>
      <PointData>
        <DataArray type="Float64" Name="rho">
          1.22279581e+00 1.19367037e+00 1.16762169e+00 1.14403129e+00 
        </DataArray>
        <DataArray type="Float64" Name="rhou">
          -2.31915913e-01 -2.18326518e-01 -1.73084950e-01 -1.30858289e-01 
        </DataArray>
        <DataArray type="Float64" Name="rhov">
          -6.81380842e-01 -4.30711037e-01 -2.44437650e-01 -1.31909729e-01 
        </DataArray>
        <DataArray type="Float64" Name="E">
          2.81518905e+05 2.74407319e+05 2.68069949e+05 2.62347736e+05 
        </DataArray>
      </PointData>
    </Piece>
    <Piece NumberOfPoints="4" NumberOfCells="3">
      <Points>
        <DataArray type="Float64" NumberOfComponents="3" format="ascii">
          3.03938854e-02 2.84444261e-02 0.00000000e+00 
3.40943485e-02 2.99607720e-02 0.00000000e+00 
3.78307216e-02 3.13864015e-02 0.00000000e+00 
4.15969416e-02 3.27312648e-02 0.00000000e+00 

        </DataArray>
      </Points>
      <Cells>
        <DataArray type="Int32" Name="connectivity" format="ascii">
0 1
1 2
2 3

        </DataArray>
        <DataArray type="Int32" Name="offsets" format="ascii">
2 4 6 
        </DataArray>
        <DataArray type="UInt8" Name="types" format="ascii">
3 3 3 
        </DataArray>
      </Cells>
      <PointData>
        <DataArray type="Float64" Name="rho">
          1.14402956e+00 1.12268446e+00 1.10329621e+00 1.08562173e+00 
        </DataArray>
        <DataArray type="Float64" Name="rhou">
          -1.29070184e-01 -8.89684616e-02 -5.62178965e-02 -3.32814067e-02 
        </DataArray>
        <DataArray type="Float64" Name="rhov">
          -1.30460559e-01 -5.44544070e-02 -7.46690989e-03 1.78667774e-02 
        </DataArray>
        <DataArray type="Float64" Name="E">
          2.62347584e+05 2.57188666e+05 2.52514015e+05 2.48260390e+05 
        </DataArray>
      </PointData>
    </Piece>
    <Piece NumberOfPoints="4" NumberOfCells="3">
      <Points>
        <DataArray type="Float64" NumberOfComponents="3" format="ascii">
          4.15969416e-02 3.27312648e-02 0.00000000e+00 
4.53883260e-02 3.40034962e-02 0.00000000e+00 
4.92011942e-02 3.52098532e-02 0.00000000e+00 
5.30325845e-02 3.63560505e-02 0.00000000e+00 

        </DataArray>
      </Points>
      <Cells>
        <DataArray type="Int32" Name="connectivity" format="ascii">
0 1
1 2
2 3

        </DataArray>
        <DataArray type="Int32" Name="offsets" format="ascii">
2 4 6 
        </DataArray>
        <DataArray type="UInt8" Name="types" format="ascii">
3 3 3 
        </DataArray>
      </Cells>
      <PointData>
        <DataArray type="Float64" Name="rho">
          1.08562229e+00 1.06947269e+00 1.05465942e+00 1.04102379e+00 
        </DataArray>
        <DataArray type="Float64" Name="rhou">
          -3.21464546e-02 -1.27442146e-02 1.66830421e-03 1.10301551e-02 
        </DataArray>
        <DataArray type="Float64" Name="rhov">
          1.77710999e-02 3.14188326e-02 3.80512559e-02 3.91909790e-02 
        </DataArray>
        <DataArray type="Float64" Name="E">
          2.48260599e+05 2.44382496e+05 2.40830841e+05 2.37565697e+05 
        </DataArray>
      </PointData>
    </Piece>
    <Piece NumberOfPoints="4" NumberOfCells="3">
      <Points>
        <DataArray type="Float64" NumberOfComponents="3" format="ascii">
          5.30325845e-02 3.63560505e-02 0.00000000e+00 
5.68800643e-02 3.74470428e-02 0.00000000e+00 
6.07415959e-02 3.84872220e-02 0.00000000e+00 
6.46155030e-02 3.94803248e-02 0.00000000e+00 

        </DataArray>
      </Points>
      <Cells>
        <DataArray type="Int32" Name="connectivity" format="ascii">
0 1
1 2
2 3

        </DataArray>
        <DataArray type="Int32" Name="offsets" format="ascii">
2 4 6 
        </DataArray>
        <DataArray type="UInt8" Name="types" format="ascii">
3 3 3 
        </DataArray>
      </Cells>
      <PointData>
        <DataArray type="Float64" Name="rho">
          1.04102448e+00 1.02847844e+00 1.01688958e+00 1.00611728e+00 
        </DataArray>
        <DataArray type="Float64" Name="rhou">
          1.13448656e-02 1.83217532e-02 2.38470869e-02 2.76666886e-02 
        </DataArray>
        <DataArray type="Float64" Name="rhov">
          3.88638168e-02 3.71885288e-02 3.51253988e-02 3.18925247e-02 
        </DataArray>
        <DataArray type="Float64" Name="E">
          2.37565854e+05 2.34565846e+05 2.31797546e+05 2.29226847e+05 
        </DataArray>
      </PointData>
    </Piece>
    <Piece NumberOfPoints="4" NumberOfCells="3">
      <Points>
        <DataArray type="Float64" NumberOfComponents="3" format="ascii">
          6.46155030e-02 3.94803248e-02 0.00000000e+00 
6.85004294e-02 4.04294394e-02 0.00000000e+00 
7.23951608e-02 4.13374715e-02 0.00000000e+00 
7.62986317e-02 4.22072113e-02 0.00000000e+00 

        </DataArray>
      </Points>
      <Cells>
        <DataArray type="Int32" Name="connectivity" format="ascii">
0 1
1 2
2 3

        </DataArray>
        <DataArray type="Int32" Name="offsets" format="ascii">
2 4 6 
        </DataArray>
        <DataArray type="UInt8" Name="types" format="ascii">
3 3 3 
        </DataArray>
      </Cells>
      <PointData>
        <DataArray type="Float64" Name="rho">
          1.00611799e+00 9.96120933e-01 9.86809563e-01 9.78128415e-01 
        </DataArray>
        <DataArray type="Float64" Name="rhou">
          2.74859522e-02 2.94218937e-02 3.05134155e-02 3.06008923e-02 
        </DataArray>
        <DataArray type="Float64" Name="rhov">
          3.15942119e-02 2.76865611e-02 2.43073679e-02 2.09970649e-02 
        </DataArray>
        <DataArray type="Float64" Name="E">
          2.29226993e+05 2.26843904e+05 2.24626106e+05 2.22559701e+05 
        </DataArray>
      </PointData>
    </Piece>
    <Piece NumberOfPoints="4" NumberOfCells="3">
      <Points>
        <DataArray type="Float64" NumberOfComponents="3" format="ascii">
          7.62986317e-02 4.22072113e-02 0.00000000e+00 
8.02098960e-02 4.30411920e-02 0.00000000e+00 
8.41281936e-02 4.38414887e-02 0.00000000e+00 
8.80528912e-02 4.46097627e-02 0.00000000e+00 

        </DataArray>
      </Points>
      <Cells>
        <DataArray type="Int32" Name="connectivity" format="ascii">
0 1
1 2
2 3

        </DataArray>
        <DataArray type="Int32" Name="offsets" format="ascii">
2 4 6 
        </DataArray>
        <DataArray type="UInt8" Name="types" format="ascii">
3 3 3 
        </DataArray>
      </Cells>
      <PointData>
        <DataArray type="Float64" Name="rho">
          9.78127470e-01 9.70030364e-01 9.62422424e-01 9.55257924e-01 
        </DataArray>
        <DataArray type="Float64" Name="rhou">
          3.04534567e-02 3.04749202e-02 3.01974859e-02 2.91323763e-02 
        </DataArray>
        <DataArray type="Float64" Name="rhov">
          2.08339101e-02 1.82730341e-02 1.57635054e-02 1.30838612e-02 
        </DataArray>
        <DataArray type="Float64" Name="E">
          2.22559464e+05 2.20633577e+05 2.18825315e+05 2.17123599e+05 
        </DataArray>
      </PointData>
    </Piece>
    <Piece NumberOfPoints="4" NumberOfCells="3">
      <Points>
        <DataArray type="Float64" NumberOfComponents="3" format="ascii">
          8.80528912e-02 4.46097627e-02 0.00000000e+00 
9.19835642e-02 4.53475714e-02 0.00000000e+00 
9.59195644e-02 4.60564308e-02 0.00000000e+00 
9.98597518e-02 4.67394181e-02 0.00000000e+00 

        </DataArray>
      </Points>
      <Cells>
        <DataArray type="Int32" Name="connectivity" format="ascii">
0 1
1 2
2 3

        </DataArray>
        <DataArray type="Int32" Name="offsets" format="ascii">
2 4 6 
        </DataArray>
        <DataArray type="UInt8" Name="types" format="ascii">
3 3 3 
        </DataArray>
      </Cells>
      <PointData>
        <DataArray type="Float64" Name="rho">
          9.55258434e-01 9.48527359e-01 9.42217109e-01 9.36227930e-01 
        </DataArray>
        <DataArray type="Float64" Name="rhou">
          2.89404751e-02 2.75165565e-02 2.40512614e-02 2.85554582e-02 
        </DataArray>
        <DataArray type="Float64" Name="rhov">
          1.32466244e-02 1.06737758e-02 9.09245010e-03 8.59467840e-03 
        </DataArray>
        <DataArray type="Float64" Name="E">
          2.17123718e+05 2.15526172e+05 2.14028945e+05 2.12608936e+05 
        </DataArray>
      </PointData>
    </Piece>
    <Piece NumberOfPoints="4" NumberOfCells="3">
      <Points>
        <DataArray type="Float64" NumberOfComponents="3" format="ascii">
          9.98597518e-02 4.67394181e-02 0.00000000e+00 
1.10118888e-01 4.83862534e-02 0.00000000e+00 
1.20400399e-01 4.98730615e-02 0.00000000e+00 
1.30701363e-01 5.12186773e-02 0.00000000e+00 

        </DataArray>
      </Points>
      <Cells>
        <DataArray type="Int32" Name="connectivity" format="ascii">
0 1
1 2
2 3

        </DataArray>
        <DataArray type="Int32" Name="offsets" format="ascii">
2 4 6 
        </DataArray>
        <DataArray type="UInt8" Name="types" format="ascii">
3 3 3 
        </DataArray>
      </Cells>
      <PointData>
        <DataArray type="Float64" Name="rho">
          9.36155376e-01 9.22185776e-01 9.10134409e-01 8.99774915e-01 
        </DataArray>
        <DataArray type="Float64" Name="rhou">
          2.62895702e-02 1.81285212e-02 1.60012223e-02 1.25425909e-02 
        </DataArray>
        <DataArray type="Float64" Name="rhov">
          7.36334049e-03 4.14075680e-03 3.63314277e-03 2.96425626e-03 
        </DataArray>
        <DataArray type="Float64" Name="E">
          2.12592552e+05 2.09284349e+05 2.06433874e+05 2.03986192e+05 
        </DataArray>
      </PointData>
    </Piece>
    <Piece NumberOfPoints="4" NumberOfCells="3">
      <Points>
        <DataArray type="Float64" NumberOfComponents="3" format="ascii">
          1.30701363e-01 5.12186773e-02 0.00000000e+00 
1.41019106e-01 5.24347536e-02 0.00000000e+00 
1.51350453e-01 5.35292812e-02 0.00000000e+00 
1.61692888e-01 5.45137413e-02 0.00000000e+00 

        </DataArray>
      </Points>
      <Cells>
        <DataArray type="Int32" Name="connectivity" format="ascii">
0 1
1 2
2 3

        </DataArray>
        <DataArray type="Int32" Name="offsets" format="ascii">
2 4 6 
        </DataArray>
        <DataArray type="UInt8" Name="types" format="ascii">
3 3 3 
        </DataArray>
      </Cells>
      <PointData>
        <DataArray type="Float64" Name="rho">
          8.99771432e-01 8.90677282e-01 8.82824049e-01 8.76103550e-01 
        </DataArray>
        <DataArray type="Float64" Name="rhou">
          1.39205701e-02 1.20263784e-02 9.95513219e-03 8.69152559e-03 
        </DataArray>
        <DataArray type="Float64" Name="rhov">
          3.46193937e-03 2.53985122e-03 1.76601157e-03 1.59148734e-03 
        </DataArray>
        <DataArray type="Float64" Name="E">
          2.03985355e+05 2.01840000e+05 1.99989784e+05 1.98408125e+05 
        </DataArray>
      </PointData>
    </Piece>
    <Piece NumberOfPoints="4" NumberOfCells="3">
      <Points>
        <DataArray type="Float64" NumberOfComponents="3" format="ascii">
          1.61692888e-01 5.45137413e-02 0.00000000e+00 
1.72044471e-01 5.53969070e-02 0.00000000e+00 
1.82403773e-01 5.61845005e-02 0.00000000e+00 
1.92769483e-01 5.68825118e-02 0.00000000e+00 

        </DataArray>
      </Points>
      <Cells>
        <DataArray type="Int32" Name="connectivity" format="ascii">
0 1
1 2
2 3

        </DataArray>
        <DataArray type="Int32" Name="offsets" format="ascii">
2 4 6 
        </DataArray>
        <DataArray type="UInt8" Name="types" format="ascii">
3 3 3 
        </DataArray>
      </Cells>
      <PointData>
        <DataArray type="Float64" Name="rho">
          8.76101149e-01 8.70318503e-01 8.65383196e-01 8.61242654e-01 
        </DataArray>
        <DataArray type="Float64" Name="rhou">
          8.72815104e-03 7.59856960e-03 6.56578835e-03 5.66467740e-03 
        </DataArray>
        <DataArray type="Float64" Name="rhov">
          1.64294666e-03 1.28031935e-03 9.03903514e-04 6.76389807e-04 
        </DataArray>
        <DataArray type="Float64" Name="E">
          1.98407587e+05 1.97048567e+05 1.95890678e+05 1.94920985e+05 
        </DataArray>
      </PointData>
    </Piece>
    <Piece NumberOfPoints="4" NumberOfCells="3">
      <Points>
        <DataArray type="Float64" NumberOfComponents="3" format="ascii">
          1.92769483e-01 5.68825118e-02 0.00000000e+00 
2.03140482e-01 5.74972220e-02 0.00000000e+00 
2.13515818e-01 5.80338500e-02 0.00000000e+00 
2.23894730e-01 5.84962890e-02 0.00000000e+00 

        </DataArray>
      </Points>
      <Cells>
        <DataArray type="Int32" Name="connectivity" format="ascii">
0 1
1 2
2 3

        </DataArray>
        <DataArray type="Int32" Name="offsets" format="ascii">
2 4 6 
        </DataArray>
        <DataArray type="UInt8" Name="types" format="ascii">
3 3 3 
        </DataArray>
      </Cells>
      <PointData>
        <DataArray type="Float64" Name="rho">
          8.61241966e-01 8.57816556e-01 8.55022325e-01 8.52800996e-01 
        </DataArray>
        <DataArray type="Float64" Name="rhou">
          5.70121889e-03 4.98097759e-03 4.42558848e-03 3.96596066e-03 
        </DataArray>
        <DataArray type="Float64" Name="rhov">
          7.17596284e-04 6.28765051e-04 5.14052680e-04 3.91967308e-04 
        </DataArray>
        <DataArray type="Float64" Name="E">
          1.94920826e+05 1.94120246e+05 1.93469031e+05 1.92953313e+05 
        </DataArray>
      </PointData>
    </Piece>
    <Piece NumberOfPoints="4" NumberOfCells="3">
      <Points>
        <DataArray type="Float64" NumberOfComponents="3" format="ascii">
          2.23894730e-01 5.84962890e-02 0.00000000e+00 
2.34276548e-01 5.88882305e-02 0.00000000e+00 
2.44660646e-01 5.92139624e-02 0.00000000e+00 
2.55046517e-01 5.94772622e-02 0.00000000e+00 

        </DataArray>
      </Points>
      <Cells>
        <DataArray type="Int32" Name="connectivity" format="ascii">
0 1
1 2
2 3

        </DataArray>
        <DataArray type="Int32" Name="offsets" format="ascii">
2 4 6 
        </DataArray>
        <DataArray type="UInt8" Name="types" format="ascii">
3 3 3 
        </DataArray>
      </Cells>
      <PointData>
        <DataArray type="Float64" Name="rho">
          8.52801564e-01 8.51110865e-01 8.49906267e-01 8.49132358e-01 
        </DataArray>
        <DataArray type="Float64" Name="rhou">
          3.97359159e-03 3.45351179e-03 3.07633994e-03 2.84743864e-03 
        </DataArray>
        <DataArray type="Float64" Name="rhov">
          4.06285133e-04 3.28919809e-04 3.12045310e-04 3.10840367e-04 
        </DataArray>
        <DataArray type="Float64" Name="E">
          1.92953443e+05 1.92563027e+05 1.92287289e+05 1.92113171e+05 
        </DataArray>
      </PointData>
    </Piece>
    <Piece NumberOfPoints="4" NumberOfCells="3">
      <Points>
        <DataArray type="Float64" NumberOfComponents="3" format="ascii">
          2.55046517e-01 5.94772622e-02 0.00000000e+00 
2.65433758e-01 5.96804135e-02 0.00000000e+00 
2.75821954e-01 5.98256700e-02 0.00000000e+00 
2.86210775e-01 5.99167012e-02 0.00000000e+00 

        </DataArray>
      </Points>
      <Cells>
        <DataArray type="Int32" Name="connectivity" format="ascii">
0 1
1 2
2 3

        </DataArray>
        <DataArray type="Int32" Name="offsets" format="ascii">
2 4 6 
        </DataArray>
        <DataArray type="UInt8" Name="types" format="ascii">
3 3 3 
        </DataArray>
      </Cells>
      <PointData>
        <DataArray type="Float64" Name="rho">
          8.49132369e-01 8.48740797e-01 8.48706772e-01 8.49009771e-01 
        </DataArray>
        <DataArray type="Float64" Name="rhou">
          2.84176784e-03 2.55591150e-03 2.26316097e-03 2.00074072e-03 
        </DataArray>
        <DataArray type="Float64" Name="rhov">
          3.22083565e-04 2.27274283e-04 1.69447342e-04 2.03157609e-04 
        </DataArray>
        <DataArray type="Float64" Name="E">
          1.92113178e+05 1.92029309e+05 1.92029744e+05 1.92109435e+05 
        </DataArray>
      </PointData>
    </Piece>
    <Piece NumberOfPoints="4" NumberOfCells="3">
      <Points>
        <DataArray type="Float64" NumberOfComponents="3" format="ascii">
          2.86210775e-01 5.99167012e-02 0.00000000e+00 
2.96599895e-01 5.99572174e-02 0.00000000e+00 
3.06989133e-01 5.99487796e-02 0.00000000e+00 
3.17378193e-01 5.98919280e-02 0.00000000e+00 

        </DataArray>
      </Points>
      <Cells>
        <DataArray type="Int32" Name="connectivity" format="ascii">
0 1
1 2
2 3

        </DataArray>
        <DataArray type="Int32" Name="offsets" format="ascii">
2 4 6 
        </DataArray>
        <DataArray type="UInt8" Name="types" format="ascii">
3 3 3 
        </DataArray>
      </Cells>
      <PointData>
        <DataArray type="Float64" Name="rho">
          8.49008754e-01 8.49599618e-01 8.50431491e-01 8.51489152e-01 
        </DataArray>
        <DataArray type="Float64" Name="rhou">
          2.01951917e-03 1.90452745e-03 1.77868632e-03 1.59783671e-03 
        </DataArray>
        <DataArray type="Float64" Name="rhov">
          2.19428952e-04 2.46505537e-04 1.92609512e-04 1.18746368e-04 
        </DataArray>
        <DataArray type="Float64" Name="E">
          1.92109204e+05 1.92256606e+05 1.92460879e+05 1.92718363e+05 
        </DataArray>
      </PointData>
    </Piece>
    <Piece NumberOfPoints="4" NumberOfCells="3">
      <Points>
        <DataArray type="Float64" NumberOfComponents="3" format="ascii">
          3.17378193e-01 5.98919280e-02 0.00000000e+00 
3.27766895e-01 5.97884916e-02 0.00000000e+00 
3.38155061e-01 5.96415885e-02 0.00000000e+00 
3.48542601e-01 5.94538599e-02 0.00000000e+00 

        </DataArray>
      </Points>
      <Cells>
        <DataArray type="Int32" Name="connectivity" format="ascii">
0 1
1 2
2 3

        </DataArray>
        <DataArray type="Int32" Name="offsets" format="ascii">
2 4 6 
        </DataArray>
        <DataArray type="UInt8" Name="types" format="ascii">
3 3 3 
        </DataArray>
      </Cells>
      <PointData>
        <DataArray type="Float64" Name="rho">
          8.51489496e-01 8.52760057e-01 8.54223174e-01 8.55845927e-01 
        </DataArray>
        <DataArray type="Float64" Name="rhou">
          1.62710427e-03 1.43219855e-03 1.31603796e-03 1.26964853e-03 
        </DataArray>
        <DataArray type="Float64" Name="rhov">
          1.26363915e-04 1.15079525e-04 1.40544444e-04 1.60982783e-04 
        </DataArray>
        <DataArray type="Float64" Name="E">
          1.92718440e+05 1.93025979e+05 1.93378722e+05 1.93768984e+05 
        </DataArray>
      </PointData>
    </Piece>
    <Piece NumberOfPoints="4" NumberOfCells="3">
      <Points>
        <DataArray type="Float64" NumberOfComponents="3" format="ascii">
          3.48542601e-01 5.94538599e-02 0.00000000e+00 
3.58929336e-01 5.92265576e-02 0.00000000e+00 
3.69315147e-01 5.89610897e-02 0.00000000e+00 
3.79699975e-01 5.86590059e-02 0.00000000e+00 

        </DataArray>
      </Points>
      <Cells>
        <DataArray type="Int32" Name="connectivity" format="ascii">
0 1
1 2
2 3

        </DataArray>
        <DataArray type="Int32" Name="offsets" format="ascii">
2 4 6 
        </DataArray>
        <DataArray type="UInt8" Name="types" format="ascii">
3 3 3 
        </DataArray>
      </Cells>
      <PointData>
        <DataArray type="Float64" Name="rho">
          8.55846172e-01 8.57602999e-01 8.59484053e-01 8.61469362e-01 
        </DataArray>
        <DataArray type="Float64" Name="rhou">
          1.28185980e-03 1.15864160e-03 1.06539945e-03 1.01745120e-03 
        </DataArray>
        <DataArray type="Float64" Name="rhov">
          1.57921891e-04 1.22042222e-04 1.14562506e-04 1.12905886e-04 
        </DataArray>
        <DataArray type="Float64" Name="E">
          1.93769041e+05 1.94190845e+05 1.94641807e+05 1.95117254e+05 
        </DataArray>
      </PointData>
    </Piece>
    <Piece NumberOfPoints="4" NumberOfCells="3">
      <Points>
        <DataArray type="Float64" NumberOfComponents="3" format="ascii">
          3.79699975e-01 5.86590059e-02 0.00000000e+00 
3.90083700e-01 5.83211333e-02 0.00000000e+00 
4.00466233e-01 5.79482466e-02 0.00000000e+00 
4.10847515e-01 5.75418957e-02 0.00000000e+00 

        </DataArray>
      </Points>
      <Cells>
        <DataArray type="Int32" Name="connectivity" format="ascii">
0 1
1 2
2 3

        </DataArray>
        <DataArray type="Int32" Name="offsets" format="ascii">
2 4 6 
        </DataArray>
        <DataArray type="UInt8" Name="types" format="ascii">
3 3 3 
        </DataArray>
      </Cells>
      <PointData>
        <DataArray type="Float64" Name="rho">
          8.61469374e-01 8.63541971e-01 8.65691802e-01 8.67912167e-01 
        </DataArray>
        <DataArray type="Float64" Name="rhou">
          1.00980432e-03 9.45932869e-04 8.67745016e-04 7.92334149e-04 
        </DataArray>
        <DataArray type="Float64" Name="rhov">
          1.15327956e-04 8.51438634e-05 6.24153985e-05 6.76273981e-05 
        </DataArray>
        <DataArray type="Float64" Name="E">
          1.95117258e+05 1.95613222e+05 1.96127323e+05 1.96657929e+05 
        </DataArray>
      </PointData>
    </Piece>
    <Piece NumberOfPoints="4" NumberOfCells="3">
      <Points>
        <DataArray type="Float64" NumberOfComponents="3" format="ascii">
          4.10847515e-01 5.75418957e-02 0.00000000e+00 
4.21227485e-01 5.71038015e-02 0.00000000e+00 
4.31606144e-01 5.66351078e-02 0.00000000e+00 
4.41983402e-01 5.61364293e-02 0.00000000e+00 

        </DataArray>
      </Points>
      <Cells>
        <DataArray type="Int32" Name="connectivity" format="ascii">
0 1
1 2
2 3

        </DataArray>
        <DataArray type="Int32" Name="offsets" format="ascii">
2 4 6 
        </DataArray>
        <DataArray type="UInt8" Name="types" format="ascii">
3 3 3 
        </DataArray>
      </Cells>
      <PointData>
        <DataArray type="Float64" Name="rho">
          8.67911968e-01 8.70187203e-01 8.72505581e-01 8.74857358e-01 
        </DataArray>
        <DataArray type="Float64" Name="rhou">
          8.08735387e-04 7.57480077e-04 7.18633154e-04 6.81735480e-04 
        </DataArray>
        <DataArray type="Float64" Name="rhov">
          7.10367648e-05 7.10207835e-05 6.13978297e-05 4.04887781e-05 
        </DataArray>
        <DataArray type="Float64" Name="E">
          1.96657884e+05 1.97201335e+05 1.97754892e+05 1.98316272e+05 
        </DataArray>
      </PointData>
    </Piece>
    <Piece NumberOfPoints="4" NumberOfCells="3">
      <Points>
        <DataArray type="Float64" NumberOfComponents="3" format="ascii">
          4.41983402e-01 5.61364293e-02 0.00000000e+00 
4.52359200e-01 5.56085743e-02 0.00000000e+00 
4.62733537e-01 5.50529286e-02 0.00000000e+00 
4.73106444e-01 5.44707514e-02 0.00000000e+00 

        </DataArray>
      </Points>
      <Cells>
        <DataArray type="Int32" Name="connectivity" format="ascii">
0 1
1 2
2 3

        </DataArray>
        <DataArray type="Int32" Name="offsets" format="ascii">
2 4 6 
        </DataArray>
        <DataArray type="UInt8" Name="types" format="ascii">
3 3 3 
        </DataArray>
      </Cells>
      <PointData>
        <DataArray type="Float64" Name="rho">
          8.74857499e-01 8.77238127e-01 8.79641074e-01 8.82057822e-01 
        </DataArray>
        <DataArray type="Float64" Name="rhou">
          6.78751254e-04 6.23324239e-04 5.83627279e-04 5.60271964e-04 
        </DataArray>
        <DataArray type="Float64" Name="rhov">
          4.11375254e-05 3.36948184e-05 3.40584609e-05 3.41841140e-05 
        </DataArray>
        <DataArray type="Float64" Name="E">
          1.98316304e+05 1.98884406e+05 1.99457683e+05 2.00034143e+05 
        </DataArray>
      </PointData>
    </Piece>
    <Piece NumberOfPoints="4" NumberOfCells="3">
      <Points>
        <DataArray type="Float64" NumberOfComponents="3" format="ascii">
          4.73106444e-01 5.44707514e-02 0.00000000e+00 
4.83477861e-01 5.38627952e-02 0.00000000e+00 
4.93847787e-01 5.32294959e-02 0.00000000e+00 
5.04216135e-01 5.25716618e-02 0.00000000e+00 

        </DataArray>
      </Points>
      <Cells>
        <DataArray type="Int32" Name="connectivity" format="ascii">
0 1
1 2
2 3

        </DataArray>
        <DataArray type="Int32" Name="offsets" format="ascii">
2 4 6 
        </DataArray>
        <DataArray type="UInt8" Name="types" format="ascii">
3 3 3 
        </DataArray>
      </Cells>
      <PointData>
        <DataArray type="Float64" Name="rho">
          8.82057809e-01 8.84481460e-01 8.86906598e-01 8.89332028e-01 
        </DataArray>
        <DataArray type="Float64" Name="rhou">
          5.52750013e-04 5.31913244e-04 4.97090680e-04 4.55838829e-04 
        </DataArray>
        <DataArray type="Float64" Name="rhov">
          3.59816371e-05 2.46552002e-05 9.93047398e-06 7.29177419e-06 
        </DataArray>
        <DataArray type="Float64" Name="E">
          2.00034141e+05 2.00612172e+05 2.01190506e+05 2.01768833e+05 
        </DataArray>
      </PointData>
    </Piece>
    <Piece NumberOfPoints="4" NumberOfCells="3">
      <Points>
        <DataArray type="Float64" NumberOfComponents="3" format="ascii">
          5.04216135e-01 5.25716618e-02 0.00000000e+00 
5.14582992e-01 5.18903993e-02 0.00000000e+00 
5.24948359e-01 5.11864908e-02 0.00000000e+00 
5.35312176e-01 5.04603274e-02 0.00000000e+00 

        </DataArray>
      </Points>
      <Cells>
        <DataArray type="Int32" Name="connectivity" format="ascii">
0 1
1 2
2 3

        </DataArray>
        <DataArray type="Int32" Name="offsets" format="ascii">
2 4 6 
        </DataArray>
        <DataArray type="UInt8" Name="types" format="ascii">
3 3 3 
        </DataArray>
      </Cells>
      <PointData>
        <DataArray type="Float64" Name="rho">
          8.89331943e-01 8.91752235e-01 8.94162906e-01 8.96560460e-01 
        </DataArray>
        <DataArray type="Float64" Name="rhou">
          4.64264655e-04 4.38437884e-04 4.18919998e-04 3.99777903e-04 
        </DataArray>
        <DataArray type="Float64" Name="rhov">
          9.43686015e-06 8.99244444e-06 3.59284515e-06 -8.10762115e-06 
        </DataArray>
        <DataArray type="Float64" Name="E">
          2.01768814e+05 2.02345863e+05 2.02920591e+05 2.03492179e+05 
        </DataArray>
      </PointData>
    </Piece>
    <Piece NumberOfPoints="4" NumberOfCells="3">
      <Points>
        <DataArray type="Float64" NumberOfComponents="3" format="ascii">
          5.35312176e-01 5.04603274e-02 0.00000000e+00 
5.45674443e-01 4.97124642e-02 0.00000000e+00 
5.56035221e-01 4.89437394e-02 0.00000000e+00 
5.66394389e-01 4.81546782e-02 0.00000000e+00 

        </DataArray>
      </Points>
      <Cells>
        <DataArray type="Int32" Name="connectivity" format="ascii">
0 1
1 2
2 3

        </DataArray>
        <DataArray type="Int32" Name="offsets" format="ascii">
2 4 6 
        </DataArray>
        <DataArray type="UInt8" Name="types" format="ascii">
3 3 3 
        </DataArray>
      </Cells>
      <PointData>
        <DataArray type="Float64" Name="rho">
          8.96560504e-01 8.98944222e-01 9.01311176e-01 9.03658502e-01 
        </DataArray>
        <DataArray type="Float64" Name="rhou">
          3.95576175e-04 3.69552565e-04 3.51411905e-04 3.39811286e-04 
        </DataArray>
        <DataArray type="Float64" Name="rhov">
          -7.81812938e-06 -8.60372280e-06 -9.39719816e-06 -1.36278304e-05 
        </DataArray>
        <DataArray type="Float64" Name="E">
          2.03492189e+05 2.04060451e+05 2.04624704e+05 2.05184281e+05 
        </DataArray>
      </PointData>
    </Piece>
    <Piece NumberOfPoints="4" NumberOfCells="3">
      <Points>
        <DataArray type="Float64" NumberOfComponents="3" format="ascii">
          5.66394389e-01 4.81546782e-02 0.00000000e+00 
5.76752067e-01 4.73455116e-02 0.00000000e+00 
5.87108195e-01 4.65166979e-02 0.00000000e+00 
5.97462773e-01 4.56690118e-02 0.00000000e+00 

        </DataArray>
      </Points>
      <Cells>
        <DataArray type="Int32" Name="connectivity" format="ascii">
0 1
1 2
2 3

        </DataArray>
        <DataArray type="Int32" Name="offsets" format="ascii">
2 4 6 
        </DataArray>
        <DataArray type="UInt8" Name="types" format="ascii">
3 3 3 
        </DataArray>
      </Cells>
      <PointData>
        <DataArray type="Float64" Name="rho">
          9.03658531e-01 9.05984539e-01 9.08288878e-01 9.10570642e-01 
        </DataArray>
        <DataArray type="Float64" Name="rhou">
          3.39131643e-04 3.19138085e-04 2.98483457e-04 2.82782866e-04 
        </DataArray>
        <DataArray type="Float64" Name="rhov">
          -1.32892990e-05 -2.18102580e-05 -2.53436245e-05 -2.42343148e-05 
        </DataArray>
        <DataArray type="Float64" Name="E">
          2.05184288e+05 2.05738794e+05 2.06288137e+05 2.06832099e+05 
        </DataArray>
      </PointData>
    </Piece>
    <Piece NumberOfPoints="4" NumberOfCells="3">
      <Points>
        <DataArray type="Float64" NumberOfComponents="3" format="ascii">
          5.97462773e-01 4.56690118e-02 0.00000000e+00 
6.07815862e-01 4.48031016e-02 0.00000000e+00 
6.18167400e-01 4.39192392e-02 0.00000000e+00 
6.28517449e-01 4.30175588e-02 0.00000000e+00 

        </DataArray>
      </Points>
      <Cells>
        <DataArray type="Int32" Name="connectivity" format="ascii">
0 1
1 2
2 3

        </DataArray>
        <DataArray type="Int32" Name="offsets" format="ascii">
2 4 6 
        </DataArray>
        <DataArray type="UInt8" Name="types" format="ascii">
3 3 3 
        </DataArray>
      </Cells>
      <PointData>
        <DataArray type="Float64" Name="rho">
          9.10570580e-01 9.12827895e-01 9.15058977e-01 9.17263972e-01 
        </DataArray>
        <DataArray type="Float64" Name="rhou">
          2.80891395e-04 2.72411505e-04 2.60715446e-04 2.43922859e-04 
        </DataArray>
        <DataArray type="Float64" Name="rhov">
          -2.33204850e-05 -2.38434349e-05 -2.93810292e-05 -3.46669357e-05 
        </DataArray>
        <DataArray type="Float64" Name="E">
          2.06832086e+05 2.07370234e+05 2.07902157e+05 2.08427884e+05 
        </DataArray>
      </PointData>
    </Piece>
    <Piece NumberOfPoints="4" NumberOfCells="3">
      <Points>
        <DataArray type="Float64" NumberOfComponents="3" format="ascii">
          6.28517449e-01 4.30175588e-02 0.00000000e+00 
6.38865948e-01 4.20984775e-02 0.00000000e+00 
6.49212897e-01 4.11624312e-02 0.00000000e+00 
6.59558356e-01 4.02097441e-02 0.00000000e+00 

        </DataArray>
      </Points>
      <Cells>
        <DataArray type="Int32" Name="connectivity" format="ascii">
0 1
1 2
2 3

        </DataArray>
        <DataArray type="Int32" Name="offsets" format="ascii">
2 4 6 
        </DataArray>
        <DataArray type="UInt8" Name="types" format="ascii">
3 3 3 
        </DataArray>
      </Cells>
      <PointData>
        <DataArray type="Float64" Name="rho">
          9.17263964e-01 9.19442678e-01 9.21594285e-01 9.23718477e-01 
        </DataArray>
        <DataArray type="Float64" Name="rhou">
          2.44877973e-04 2.32459015e-04 2.21847297e-04 2.10463195e-04 
        </DataArray>
        <DataArray type="Float64" Name="rhov">
          -3.36662775e-05 -3.43962473e-05 -3.62483844e-05 -3.84670419e-05 
        </DataArray>
        <DataArray type="Float64" Name="E">
          2.08427883e+05 2.08947365e+05 2.09460411e+05 2.09966948e+05 
        </DataArray>
      </PointData>
    </Piece>
    <Piece NumberOfPoints="4" NumberOfCells="3">
      <Points>
        <DataArray type="Float64" NumberOfComponents="3" format="ascii">
          6.59558356e-01 4.02097441e-02 0.00000000e+00 
6.69902325e-01 3.92407738e-02 0.00000000e+00 
6.80244744e-01 3.82556282e-02 0.00000000e+00 
6.90585554e-01 3.72543521e-02 0.00000000e+00 

        </DataArray>
      </Points>
      <Cells>
        <DataArray type="Int32" Name="connectivity" format="ascii">
0 1
1 2
2 3

        </DataArray>
        <DataArray type="Int32" Name="offsets" format="ascii">
2 4 6 
        </DataArray>
        <DataArray type="UInt8" Name="types" format="ascii">
3 3 3 
        </DataArray>
      </Cells>
      <PointData>
        <DataArray type="Float64" Name="rho">
          9.23718460e-01 9.25815236e-01 9.27883488e-01 9.29923997e-01 
        </DataArray>
        <DataArray type="Float64" Name="rhou">
          2.07339393e-04 2.02535811e-04 1.94236282e-04 1.80127578e-04 
        </DataArray>
        <DataArray type="Float64" Name="rhov">
          -3.74531660e-05 -3.74798011e-05 -4.18645286e-05 -4.54484219e-05 
        </DataArray>
        <DataArray type="Float64" Name="E">
          2.09966945e+05 2.10466972e+05 2.10960238e+05 2.11446918e+05 
        </DataArray>
      </PointData>
    </Piece>
    <Piece NumberOfPoints="4" NumberOfCells="3">
      <Points>
        <DataArray type="Float64" NumberOfComponents="3" format="ascii">
          6.90585554e-01 3.72543521e-02 0.00000000e+00 
7.00924933e-01 3.62373814e-02 0.00000000e+00 
7.11262703e-01 3.52048986e-02 0.00000000e+00 
7.21598923e-01 3.41568366e-02 0.00000000e+00 

        </DataArray>
      </Points>
      <Cells>
        <DataArray type="Int32" Name="connectivity" format="ascii">
0 1
1 2
2 3

        </DataArray>
        <DataArray type="Int32" Name="offsets" format="ascii">
2 4 6 
        </DataArray>
        <DataArray type="UInt8" Name="types" format="ascii">
3 3 3 
        </DataArray>
      </Cells>
      <PointData>
        <DataArray type="Float64" Name="rho">
          9.29923955e-01 9.31937123e-01 9.33921800e-01 9.35878625e-01 
        </DataArray>
        <DataArray type="Float64" Name="rhou">
          1.78799644e-04 1.73962206e-04 1.68961867e-04 1.56447786e-04 
        </DataArray>
        <DataArray type="Float64" Name="rhov">
          -4.43543772e-05 -4.19683886e-05 -4.52342301e-05 -4.98613841e-05 
        </DataArray>
        <DataArray type="Float64" Name="E">
          2.11446909e+05 2.11927095e+05 2.12400525e+05 2.12867344e+05 
        </DataArray>
      </PointData>
    </Piece>
    <Piece NumberOfPoints="4" NumberOfCells="3">
      <Points>
        <DataArray type="Float64" NumberOfComponents="3" format="ascii">
          7.21598923e-01 3.41568366e-02 0.00000000e+00 
7.31933594e-01 3.30936089e-02 0.00000000e+00 
7.42266715e-01 3.20154354e-02 0.00000000e+00 
7.52598286e-01 3.09220124e-02 0.00000000e+00 

        </DataArray>
      </Points>
      <Cells>
        <DataArray type="Int32" Name="connectivity" format="ascii">
0 1
1 2
2 3

        </DataArray>
        <DataArray type="Int32" Name="offsets" format="ascii">
2 4 6 
        </DataArray>
        <DataArray type="UInt8" Name="types" format="ascii">
3 3 3 
        </DataArray>
      </Cells>
      <PointData>
        <DataArray type="Float64" Name="rho">
          9.35878606e-01 9.37808588e-01 9.39710448e-01 9.41584712e-01 
        </DataArray>
        <DataArray type="Float64" Name="rhou">
          1.53904286e-04 1.49955592e-04 1.47208248e-04 1.37322549e-04 
        </DataArray>
        <DataArray type="Float64" Name="rhov">
          -4.89160739e-05 -4.46106292e-05 -4.68384460e-05 -5.18019019e-05 
        </DataArray>
        <DataArray type="Float64" Name="E">
          2.12867339e+05 2.13327777e+05 2.13781543e+05 2.14228755e+05 
        </DataArray>
      </PointData>
    </Piece>
    <Piece NumberOfPoints="4" NumberOfCells="3">
      <Points>
        <DataArray type="Float64" NumberOfComponents="3" format="ascii">
          7.52598286e-01 3.09220124e-02 0.00000000e+00 
7.62928188e-01 2.98135038e-02 0.00000000e+00 
7.73256481e-01 2.86899786e-02 0.00000000e+00 
7.83583105e-01 2.75512449e-02 0.00000000e+00 

        </DataArray>
      </Points>
      <Cells>
        <DataArray type="Int32" Name="connectivity" format="ascii">
0 1
1 2
2 3

        </DataArray>
        <DataArray type="Int32" Name="offsets" format="ascii">
2 4 6 
        </DataArray>
        <DataArray type="UInt8" Name="types" format="ascii">
3 3 3 
        </DataArray>
      </Cells>
      <PointData>
        <DataArray type="Float64" Name="rho">
          9.41584706e-01 9.43432503e-01 9.45253082e-01 9.47047148e-01 
        </DataArray>
        <DataArray type="Float64" Name="rhou">
          1.34859348e-04 1.31298657e-04 1.27613696e-04 1.18686995e-04 
        </DataArray>
        <DataArray type="Float64" Name="rhov">
          -5.09125023e-05 -4.87133628e-05 -5.08477030e-05 -5.39730906e-05 
        </DataArray>
        <DataArray type="Float64" Name="E">
          2.14228754e+05 2.14669670e+05 2.15104118e+05 2.15532254e+05 
        </DataArray>
      </PointData>
    </Piece>
    <Piece NumberOfPoints="4" NumberOfCells="3">
      <Points>
        <DataArray type="Float64" NumberOfComponents="3" format="ascii">
          7.83583105e-01 2.75512449e-02 0.00000000e+00 
7.93908060e-01 2.63975188e-02 0.00000000e+00 
8.04231405e-01 2.52291560e-02 0.00000000e+00 
8.14553022e-01 2.40457114e-02 0.00000000e+00 

        </DataArray>
      </Points>
      <Cells>
        <DataArray type="Int32" Name="connectivity" format="ascii">
0 1
1 2
2 3

        </DataArray>
        <DataArray type="Int32" Name="offsets" format="ascii">
2 4 6 
        </DataArray>
        <DataArray type="UInt8" Name="types" format="ascii">
3 3 3 
        </DataArray>
      </Cells>
      <PointData>
        <DataArray type="Float64" Name="rho">
          9.47047154e-01 9.48815468e-01 9.50557989e-01 9.52274139e-01 
        </DataArray>
        <DataArray type="Float64" Name="rhou">
          1.21161034e-04 1.11032421e-04 1.10088327e-04 1.11127904e-04 
        </DataArray>
        <DataArray type="Float64" Name="rhov">
          -5.43073443e-05 -5.07955412e-05 -4.96265761e-05 -5.58223447e-05 
        </DataArray>
        <DataArray type="Float64" Name="E">
          2.15532255e+05 2.15954251e+05 2.16370091e+05 2.16779641e+05 
        </DataArray>
      </PointData>
    </Piece>
    <Piece NumberOfPoints="4" NumberOfCells="3">
      <Points>
        <DataArray type="Float64" NumberOfComponents="3" format="ascii">
          8.14553022e-01 2.40457114e-02 0.00000000e+00 
8.24872792e-01 2.28467938e-02 0.00000000e+00 
8.35190892e-01 2.16327831e-02 0.00000000e+00 
8.45507145e-01 2.04038676e-02 0.00000000e+00 

        </DataArray>
      </Points>
      <Cells>
        <DataArray type="Int32" Name="connectivity" format="ascii">
0 1
1 2
2 3

        </DataArray>
        <DataArray type="Int32" Name="offsets" format="ascii">
2 4 6 
        </DataArray>
        <DataArray type="UInt8" Name="types" format="ascii">
3 3 3 
        </DataArray>
      </Cells>
      <PointData>
        <DataArray type="Float64" Name="rho">
          9.52274180e-01 9.53965582e-01 9.55632548e-01 9.57275255e-01 
        </DataArray>
        <DataArray type="Float64" Name="rhou">
          1.05519076e-04 9.77940218e-05 9.13183159e-05 9.20766783e-05 
        </DataArray>
        <DataArray type="Float64" Name="rhov">
          -5.60784227e-05 -5.60082628e-05 -5.33855923e-05 -4.97858859e-05 
        </DataArray>
        <DataArray type="Float64" Name="E">
          2.16779650e+05 2.17183272e+05 2.17581026e+05 2.17972943e+05 
        </DataArray>
      </PointData>
    </Piece>
    <Piece NumberOfPoints="4" NumberOfCells="3">
      <Points>
        <DataArray type="Float64" NumberOfComponents="3" format="ascii">
          8.45507145e-01 2.04038676e-02 0.00000000e+00 
8.55821550e-01 1.91591792e-02 0.00000000e+00 
8.66134048e-01 1.78987328e-02 0.00000000e+00 
8.76444638e-01 1.66228991e-02 0.00000000e+00 

        </DataArray>
      </Points>
      <Cells>
        <DataArray type="Int32" Name="connectivity" format="ascii">
0 1
1 2
2 3

        </DataArray>
        <DataArray type="Int32" Name="offsets" format="ascii">
2 4 6 
        </DataArray>
        <DataArray type="UInt8" Name="types" format="ascii">
3 3 3 
        </DataArray>
      </Cells>
      <PointData>
        <DataArray type="Float64" Name="rho">
          9.57275361e-01 9.58892578e-01 9.60488012e-01 9.62058404e-01 
        </DataArray>
        <DataArray type="Float64" Name="rhou">
          1.12259970e-04 8.26419143e-05 8.15415734e-05 9.70174950e-05 
        </DataArray>
        <DataArray type="Float64" Name="rhov">
          -5.32561312e-05 -6.03130717e-05 -5.80181223e-05 -7.51122165e-05 
        </DataArray>
        <DataArray type="Float64" Name="E">
          2.17972967e+05 2.18358756e+05 2.18739244e+05 2.19113674e+05 
        </DataArray>
      </PointData>
    </Piece>
    <Piece NumberOfPoints="4" NumberOfCells="3">
      <Points>
        <DataArray type="Float64" NumberOfComponents="3" format="ascii">
          8.76444638e-01 1.66228991e-02 0.00000000e+00 
8.86753201e-01 1.53310820e-02 0.00000000e+00 
8.97059798e-01 1.40233757e-02 0.00000000e+00 
9.07364249e-01 1.26988320e-02 0.00000000e+00 

        </DataArray>
      </Points>
      <Cells>
        <DataArray type="Int32" Name="connectivity" format="ascii">
0 1
1 2
2 3

        </DataArray>
        <DataArray type="Int32" Name="offsets" format="ascii">
2 4 6 
        </DataArray>
        <DataArray type="UInt8" Name="types" format="ascii">
3 3 3 
        </DataArray>
      </Cells>
      <PointData>
        <DataArray type="Float64" Name="rho">
          9.62057971e-01 9.63609745e-01 9.65135729e-01 9.66654047e-01 
        </DataArray>
        <DataArray type="Float64" Name="rhou">
          8.42035008e-06 9.78849376e-05 4.46820232e-05 -6.21907715e-06 
        </DataArray>
        <DataArray type="Float64" Name="rhov">
          -6.74143197e-05 -7.11221736e-05 -8.97851146e-05 5.13784871e-06 
        </DataArray>
        <DataArray type="Float64" Name="E">
          2.19113576e+05 2.19483398e+05 2.19846968e+05 2.20208412e+05 
        </DataArray>
      </PointData>
    </Piece>
    <Piece NumberOfPoints="4" NumberOfCells="3">
      <Points>
        <DataArray type="Float64" NumberOfComponents="3" format="ascii">
          9.07364249e-01 1.26988320e-02 0.00000000e+00 
9.17666554e-01 1.13577880e-02 0.00000000e+00 
9.27966774e-01 1.00004105e-02 0.00000000e+00 
9.38264549e-01 8.62528384e-03 0.00000000e+00 

        </DataArray>
      </Points>
      <Cells>
        <DataArray type="Int32" Name="connectivity" format="ascii">
0 1
1 2
2 3

        </DataArray>
        <DataArray type="Int32" Name="offsets" format="ascii">
2 4 6 
        </DataArray>
        <DataArray type="UInt8" Name="types" format="ascii">
3 3 3 
        </DataArray>
      </Cells>
      <PointData>
        <DataArray type="Float64" Name="rho">
          9.66658739e-01 9.68128487e-01 9.69620182e-01 9.70969007e-01 
        </DataArray>
        <DataArray type="Float64" Name="rhou">
          7.75202269e-04 -1.97067035e-04 3.33600802e-04 7.44217290e-04 
        </DataArray>
        <DataArray type="Float64" Name="rhov">
          -6.18684860e-05 -1.13750542e-04 -4.61759141e-05 -1.41346977e-03 
        </DataArray>
        <DataArray type="Float64" Name="E">
          2.20209480e+05 2.20559494e+05 2.20914183e+05 2.21236084e+05 
        </DataArray>
      </PointData>
    </Piece>
    <Piece NumberOfPoints="4" NumberOfCells="3">
      <Points>
        <DataArray type="Float64" NumberOfComponents="3" format="ascii">
          9.38264549e-01 8.62528384e-03 0.00000000e+00 
9.48560059e-01 7.23283459e-03 0.00000000e+00 
9.58853185e-01 5.82307298e-03 0.00000000e+00 
9.69143867e-01 4.39538015e-03 0.00000000e+00 

        </DataArray>
      </Points>
      <Cells>
        <DataArray type="Int32" Name="connectivity" format="ascii">
0 1
1 2
2 3

        </DataArray>
        <DataArray type="Int32" Name="offsets" format="ascii">
2 4 6 
        </DataArray>
        <DataArray type="UInt8" Name="types" format="ascii">
3 3 3 
        </DataArray>
      </Cells>
      <PointData>
        <DataArray type="Float64" Name="rho">
          9.70923161e-01 9.72579479e-01 9.73836279e-01 9.76487137e-01 
        </DataArray>
        <DataArray type="Float64" Name="rhou">
          -6.44194071e-03 2.06480603e-03 -3.04543454e-03 -1.83560445e-02 
        </DataArray>
        <DataArray type="Float64" Name="rhov">
          -1.04977076e-03 1.23765658e-04 -1.08484434e-03 1.82753630e-02 
        </DataArray>
        <DataArray type="Float64" Name="E">
          2.21225639e+05 2.21617503e+05 2.21918505e+05 2.22537670e+05 
        </DataArray>
      </PointData>
    </Piece>
    <Piece NumberOfPoints="4" NumberOfCells="3">
      <Points>
        <DataArray type="Float64" NumberOfComponents="3" format="ascii">
          9.69143867e-01 4.39538015e-03 0.00000000e+00 
9.79435980e-01 2.94816052e-03 0.00000000e+00 
9.89725590e-01 1.48259092e-03 0.00000000e+00 
1.00000000e+00 0.00000000e+00 0.00000000e+00 

        </DataArray>
      </Points>
      <Cells>
        <DataArray type="Int32" Name="connectivity" format="ascii">
0 1
1 2
2 3

        </DataArray>
        <DataArray type="Int32" Name="offsets" format="ascii">
2 4 6 
        </DataArray>
        <DataArray type="UInt8" Name="types" format="ascii">
3 3 3 
        </DataArray>
      </Cells>
      <PointData>
        <DataArray type="Float64" Name="rho">
          9.76770962e-01 9.76442817e-01 9.80176166e-01 9.70656270e-01 
        </DataArray>
        <DataArray type="Float64" Name="rhou">
          -1.48374296e-03 -9.23264479e-03 -3.62824670e-02 4.79230077e-01 
        </DataArray>
        <DataArray type="Float64" Name="rhov">
          2.03869696e-02 1.05604756e-03 5.05652357e-02 -1.31941495e-01 
        </DataArray>
        <DataArray type="Float64" Name="E">
          2.22602352e+05 2.22543578e+05 2.23411820e+05 2.21261922e+05 
        </DataArray>
      </PointData>
    </Piece>
    <Piece NumberOfPoints="4" NumberOfCells="3">
      <Points>
        <DataArray type="Float64" NumberOfComponents="3" format="ascii">
          9.69029665e-01 -4.41133138e-03 0.00000000e+00 
9.79355037e-01 -2.95961346e-03 0.00000000e+00 
9.89677846e-01 -1.48943183e-03 0.00000000e+00 
1.00000000e+00 0.00000000e+00 0.00000000e+00 

        </DataArray>
      </Points>
      <Cells>
        <DataArray type="Int32" Name="connectivity" format="ascii">
0 1
1 2
2 3

        </DataArray>
        <DataArray type="Int32" Name="offsets" format="ascii">
2 4 6 
        </DataArray>
        <DataArray type="UInt8" Name="types" format="ascii">
3 3 3 
        </DataArray>
      </Cells>
      <PointData>
        <DataArray type="Float64" Name="rho">
          9.75637921e-01 9.75374734e-01 9.79074248e-01 9.70814309e-01 
        </DataArray>
        <DataArray type="Float64" Name="rhou">
          -9.36358318e-04 -7.20820801e-03 -3.43301457e-02 4.40687877e-01 
        </DataArray>
        <DataArray type="Float64" Name="rhov">
          -2.26833471e-02 2.03931712e-03 -4.70592828e-02 1.38004666e-01 
        </DataArray>
        <DataArray type="Float64" Name="E">
          2.22352902e+05 2.22306190e+05 2.23163512e+05 2.21298014e+05 
        </DataArray>
      </PointData>
    </Piece>
    <Piece NumberOfPoints="4" NumberOfCells="3">
      <Points>
        <DataArray type="Float64" NumberOfComponents="3" format="ascii">
          9.38035965e-01 -8.65600072e-03 0.00000000e+00 
9.48369622e-01 -7.25875143e-03 0.00000000e+00 
9.58700895e-01 -5.84406452e-03 0.00000000e+00 
9.69029665e-01 -4.41133138e-03 0.00000000e+00 

        </DataArray>
      </Points>
      <Cells>
        <DataArray type="Int32" Name="connectivity" format="ascii">
0 1
1 2
2 3

        </DataArray>
        <DataArray type="Int32" Name="offsets" format="ascii">
2 4 6 
        </DataArray>
        <DataArray type="UInt8" Name="types" format="ascii">
3 3 3 
        </DataArray>
      </Cells>
      <PointData>
        <DataArray type="Float64" Name="rho">
          9.69936623e-01 9.71554521e-01 9.72787214e-01 9.75358179e-01 
        </DataArray>
        <DataArray type="Float64" Name="rhou">
          -6.06233665e-03 2.22590540e-03 -2.49799280e-03 -1.64660559e-02 
        </DataArray>
        <DataArray type="Float64" Name="rhov">
          1.05735683e-03 -1.62868918e-04 1.29304002e-03 -1.68260721e-02 
        </DataArray>
        <DataArray type="Float64" Name="E">
          2.21015041e+05 2.21396809e+05 2.21690562e+05 2.22289194e+05 
        </DataArray>
      </PointData>
    </Piece>
    <Piece NumberOfPoints="4" NumberOfCells="3">
      <Points>
        <DataArray type="Float64" NumberOfComponents="3" format="ascii">
          9.07021165e-01 -1.27432076e-02 0.00000000e+00 
9.17361677e-01 -1.13977119e-02 0.00000000e+00 
9.27700043e-01 -1.00357840e-02 0.00000000e+00 
9.38035965e-01 -8.65600072e-03 0.00000000e+00 

        </DataArray>
      </Points>
      <Cells>
        <DataArray type="Int32" Name="connectivity" format="ascii">
0 1
1 2
2 3

        </DataArray>
        <DataArray type="Int32" Name="offsets" format="ascii">
2 4 6 
        </DataArray>
        <DataArray type="UInt8" Name="types" format="ascii">
3 3 3 
        </DataArray>
      </Cells>
      <PointData>
        <DataArray type="Float64" Name="rho">
          9.65799470e-01 9.67219398e-01 9.68667641e-01 9.69981339e-01 
        </DataArray>
        <DataArray type="Float64" Name="rhou">
          8.99401796e-04 -5.22213724e-05 4.89150454e-04 8.69001289e-04 
        </DataArray>
        <DataArray type="Float64" Name="rhov">
          4.85813209e-05 7.42675899e-05 -8.12879134e-06 1.33201365e-03 
        </DataArray>
        <DataArray type="Float64" Name="E">
          2.20030438e+05 2.20368361e+05 2.20712330e+05 2.21025222e+05 
        </DataArray>
      </PointData>
    </Piece>
    <Piece NumberOfPoints="4" NumberOfCells="3">
      <Points>
        <DataArray type="Float64" NumberOfComponents="3" format="ascii">
          8.75986874e-01 -1.66798849e-02 0.00000000e+00 
8.86333704e-01 -1.53839625e-02 0.00000000e+00 
8.96678507e-01 -1.40720531e-02 0.00000000e+00 
9.07021165e-01 -1.27432076e-02 0.00000000e+00 

        </DataArray>
      </Points>
      <Cells>
        <DataArray type="Int32" Name="connectivity" format="ascii">
0 1
1 2
2 3

        </DataArray>
        <DataArray type="Int32" Name="offsets" format="ascii">
2 4 6 
        </DataArray>
        <DataArray type="UInt8" Name="types" format="ascii">
3 3 3 
        </DataArray>
      </Cells>
      <PointData>
        <DataArray type="Float64" Name="rho">
          9.61416945e-01 9.62885115e-01 9.64339088e-01 9.65794775e-01 
        </DataArray>
        <DataArray type="Float64" Name="rhou">
          1.61481177e-04 2.38124626e-04 1.92791368e-04 1.42906433e-04 
        </DataArray>
        <DataArray type="Float64" Name="rhov">
          6.54361852e-05 5.72975991e-05 7.19484769e-05 -1.75567137e-05 
        </DataArray>
        <DataArray type="Float64" Name="E">
          2.18986759e+05 2.19336604e+05 2.19682946e+05 2.20029370e+05 
        </DataArray>
      </PointData>
    </Piece>
    <Piece NumberOfPoints="4" NumberOfCells="3">
      <Points>
        <DataArray type="Float64" NumberOfComponents="3" format="ascii">
          8.44934702e-01 -2.04724707e-02 0.00000000e+00 
8.55287313e-01 -1.92240477e-02 0.00000000e+00 
8.65638077e-01 -1.79597028e-02 0.00000000e+00 
8.75986874e-01 -1.66798849e-02 0.00000000e+00 

        </DataArray>
      </Points>
      <Cells>
        <DataArray type="Int32" Name="connectivity" format="ascii">
0 1
1 2
2 3

        </DataArray>
        <DataArray type="Int32" Name="offsets" format="ascii">
2 4 6 
        </DataArray>
        <DataArray type="UInt8" Name="types" format="ascii">
3 3 3 
        </DataArray>
      </Cells>
      <PointData>
        <DataArray type="Float64" Name="rho">
          9.56965152e-01 9.58457353e-01 9.59943756e-01 9.61417348e-01 
        </DataArray>
        <DataArray type="Float64" Name="rhou">
          2.89199157e-04 2.32153881e-04 2.20376329e-04 2.57898911e-04 
        </DataArray>
        <DataArray type="Float64" Name="rhov">
          4.06119406e-05 6.06278176e-05 5.04983542e-05 6.83368819e-05 
        </DataArray>
        <DataArray type="Float64" Name="E">
          2.17925165e+05 2.18281102e+05 2.18635538e+05 2.18986851e+05 
        </DataArray>
      </PointData>
    </Piece>
    <Piece NumberOfPoints="4" NumberOfCells="3">
      <Points>
        <DataArray type="Float64" NumberOfComponents="3" format="ascii">
          8.13865662e-01 -2.41250079e-02 0.00000000e+00 
8.24223816e-01 -2.29226518e-02 0.00000000e+00 
8.34580123e-01 -2.17050612e-02 0.00000000e+00 
8.44934702e-01 -2.04724707e-02 0.00000000e+00 

        </DataArray>
      </Points>
      <Cells>
        <DataArray type="Int32" Name="connectivity" format="ascii">
0 1
1 2
2 3

        </DataArray>
        <DataArray type="Int32" Name="offsets" format="ascii">
2 4 6 
        </DataArray>
        <DataArray type="UInt8" Name="types" format="ascii">
3 3 3 
        </DataArray>
      </Cells>
      <PointData>
        <DataArray type="Float64" Name="rho">
          9.52421542e-01 9.53944588e-01 9.55459285e-01 9.56964929e-01 
        </DataArray>
        <DataArray type="Float64" Name="rhou">
          2.65082854e-04 2.50397642e-04 2.35790390e-04 2.41428719e-04 
        </DataArray>
        <DataArray type="Float64" Name="rhov">
          5.15046071e-05 5.22359378e-05 4.49611962e-05 3.33697632e-05 
        </DataArray>
        <DataArray type="Float64" Name="E">
          2.16841186e+05 2.17204590e+05 2.17565957e+05 2.17925115e+05 
        </DataArray>
      </PointData>
    </Piece>
    <Piece NumberOfPoints="4" NumberOfCells="3">
      <Points>
        <DataArray type="Float64" NumberOfComponents="3" format="ascii">
          7.82780826e-01 -2.76402626e-02 0.00000000e+00 
7.93144107e-01 -2.64833923e-02 0.00000000e+00 
8.03505778e-01 -2.53117718e-02 0.00000000e+00 
8.13865662e-01 -2.41250079e-02 0.00000000e+00 

        </DataArray>
      </Points>
      <Cells>
        <DataArray type="Int32" Name="connectivity" format="ascii">
0 1
1 2
2 3

        </DataArray>
        <DataArray type="Int32" Name="offsets" format="ascii">
2 4 6 
        </DataArray>
        <DataArray type="UInt8" Name="types" format="ascii">
3 3 3 
        </DataArray>
      </Cells>
      <PointData>
        <DataArray type="Float64" Name="rho">
          9.47797413e-01 9.49347879e-01 9.50890139e-01 9.52421436e-01 
        </DataArray>
        <DataArray type="Float64" Name="rhou">
          2.84814727e-04 2.64564811e-04 2.64427878e-04 2.73971757e-04 
        </DataArray>
        <DataArray type="Float64" Name="rhov">
          4.82919047e-05 4.00626405e-05 3.57306272e-05 4.98363079e-05 
        </DataArray>
        <DataArray type="Float64" Name="E">
          2.15737735e+05 2.16107735e+05 2.16475755e+05 2.16841162e+05 
        </DataArray>
      </PointData>
    </Piece>
    <Piece NumberOfPoints="4" NumberOfCells="3">
      <Points>
        <DataArray type="Float64" NumberOfComponents="3" format="ascii">
          7.51680970e-01 -3.10197193e-02 0.00000000e+00 
7.62049198e-01 -2.99084149e-02 0.00000000e+00 
7.72415876e-01 -2.87819952e-02 0.00000000e+00 
7.82780826e-01 -2.76402626e-02 0.00000000e+00 

        </DataArray>
      </Points>
      <Cells>
        <DataArray type="Int32" Name="connectivity" format="ascii">
0 1
1 2
2 3

        </DataArray>
        <DataArray type="Int32" Name="offsets" format="ascii">
2 4 6 
        </DataArray>
        <DataArray type="UInt8" Name="types" format="ascii">
3 3 3 
        </DataArray>
      </Cells>
      <PointData>
        <DataArray type="Float64" Name="rho">
          9.43099967e-01 9.44674012e-01 9.46239729e-01 9.47797378e-01 
        </DataArray>
        <DataArray type="Float64" Name="rhou">
          2.97102419e-04 2.93301070e-04 2.88168755e-04 2.74597974e-04 
        </DataArray>
        <DataArray type="Float64" Name="rhov">
          4.12070228e-05 3.47400930e-05 3.85863267e-05 4.61819167e-05 
        </DataArray>
        <DataArray type="Float64" Name="E">
          2.14616652e+05 2.14992314e+05 2.15365988e+05 2.15737727e+05 
        </DataArray>
      </PointData>
    </Piece>
    <Piece NumberOfPoints="4" NumberOfCells="3">
      <Points>
        <DataArray type="Float64" NumberOfComponents="3" format="ascii">
          7.20566452e-01 -3.42622213e-02 0.00000000e+00 
7.30939507e-01 -3.31965312e-02 0.00000000e+00 
7.41311073e-01 -3.21157984e-02 0.00000000e+00 
7.51680970e-01 -3.10197193e-02 0.00000000e+00 

        </DataArray>
      </Points>
      <Cells>
        <DataArray type="Int32" Name="connectivity" format="ascii">
0 1
1 2
2 3

        </DataArray>
        <DataArray type="Int32" Name="offsets" format="ascii">
2 4 6 
        </DataArray>
        <DataArray type="UInt8" Name="types" format="ascii">
3 3 3 
        </DataArray>
      </Cells>
      <PointData>
        <DataArray type="Float64" Name="rho">
          9.38339898e-01 9.39933603e-01 9.41520487e-01 9.43099959e-01 
        </DataArray>
        <DataArray type="Float64" Name="rhou">
          3.21748690e-04 3.15296374e-04 3.12761519e-04 3.00251414e-04 
        </DataArray>
        <DataArray type="Float64" Name="rhov">
          3.77173175e-05 2.70559523e-05 2.98183561e-05 4.16797064e-05 
        </DataArray>
        <DataArray type="Float64" Name="E">
          2.13480535e+05 2.13860915e+05 2.14239667e+05 2.14616650e+05 
        </DataArray>
      </PointData>
    </Piece>
    <Piece NumberOfPoints="4" NumberOfCells="3">
      <Points>
        <DataArray type="Float64" NumberOfComponents="3" format="ascii">
          6.89437866e-01 -3.73662710e-02 0.00000000e+00 
6.99815631e-01 -3.63472365e-02 0.00000000e+00 
7.10191846e-01 -3.53125818e-02 0.00000000e+00 
7.20566452e-01 -3.42622213e-02 0.00000000e+00 

        </DataArray>
      </Points>
      <Cells>
        <DataArray type="Int32" Name="connectivity" format="ascii">
0 1
1 2
2 3

        </DataArray>
        <DataArray type="Int32" Name="offsets" format="ascii">
2 4 6 
        </DataArray>
        <DataArray type="UInt8" Name="types" format="ascii">
3 3 3 
        </DataArray>
      </Cells>
      <PointData>
        <DataArray type="Float64" Name="rho">
          9.33535635e-01 9.35141552e-01 9.36743093e-01 9.38339909e-01 
        </DataArray>
        <DataArray type="Float64" Name="rhou">
          3.53459941e-04 3.46590928e-04 3.39975010e-04 3.22732896e-04 
        </DataArray>
        <DataArray type="Float64" Name="rhov">
          2.97601982e-05 2.26754149e-05 2.73478776e-05 3.79810142e-05 
        </DataArray>
        <DataArray type="Float64" Name="E">
          2.12333747e+05 2.12717088e+05 2.13099381e+05 2.13480538e+05 
        </DataArray>
      </PointData>
    </Piece>
    <Piece NumberOfPoints="4" NumberOfCells="3">
      <Points>
        <DataArray type="Float64" NumberOfComponents="3" format="ascii">
          6.58295333e-01 -4.03269380e-02 0.00000000e+00 
6.68677747e-01 -3.93563360e-02 0.00000000e+00 
6.79058611e-01 -3.83694395e-02 0.00000000e+00 
6.89437866e-01 -3.73662710e-02 0.00000000e+00 

        </DataArray>
      </Points>
      <Cells>
        <DataArray type="Int32" Name="connectivity" format="ascii">
0 1
1 2
2 3

        </DataArray>
        <DataArray type="Int32" Name="offsets" format="ascii">
2 4 6 
        </DataArray>
        <DataArray type="UInt8" Name="types" format="ascii">
3 3 3 
        </DataArray>
      </Cells>
      <PointData>
        <DataArray type="Float64" Name="rho">
          9.28711128e-01 9.30320647e-01 9.31928826e-01 9.33535688e-01 
        </DataArray>
        <DataArray type="Float64" Name="rhou">
          3.89020208e-04 3.83776650e-04 3.71536394e-04 3.51585963e-04 
        </DataArray>
        <DataArray type="Float64" Name="rhov">
          1.86785929e-05 1.57561950e-05 2.24267932e-05 3.05330847e-05 
        </DataArray>
        <DataArray type="Float64" Name="E">
          2.11181962e+05 2.11566224e+05 2.11950158e+05 2.12333759e+05 
        </DataArray>
      </PointData>
    </Piece>
    <Piece NumberOfPoints="4" NumberOfCells="3">
      <Points>
        <DataArray type="Float64" NumberOfComponents="3" format="ascii">
          6.27138972e-01 -4.31386717e-02 0.00000000e+00 
6.37525976e-01 -4.22184542e-02 0.00000000e+00 
6.47911429e-01 -4.12811004e-02 0.00000000e+00 
6.58295333e-01 -4.03269380e-02 0.00000000e+00 

        </DataArray>
      </Points>
      <Cells>
        <DataArray type="Int32" Name="connectivity" format="ascii">
0 1
1 2
2 3

        </DataArray>
        <DataArray type="Int32" Name="offsets" format="ascii">
2 4 6 
        </DataArray>
        <DataArray type="UInt8" Name="types" format="ascii">
3 3 3 
        </DataArray>
      </Cells>
      <PointData>
        <DataArray type="Float64" Name="rho">
          9.23898154e-01 9.25498686e-01 9.27103620e-01 9.28711160e-01 
        </DataArray>
        <DataArray type="Float64" Name="rhou">
          4.38803290e-04 4.20637916e-04 4.03941615e-04 3.89931566e-04 
        </DataArray>
        <DataArray type="Float64" Name="rhov">
          1.50186517e-05 1.40500229e-05 1.55250251e-05 1.95696637e-05 
        </DataArray>
        <DataArray type="Float64" Name="E">
          2.10032697e+05 2.10414912e+05 2.10798144e+05 2.11181969e+05 
        </DataArray>
      </PointData>
    </Piece>
    <Piece NumberOfPoints="4" NumberOfCells="3">
      <Points>
        <DataArray type="Float64" NumberOfComponents="3" format="ascii">
          5.95968783e-01 -4.57924642e-02 0.00000000e+00 
6.06360376e-01 -4.49259281e-02 0.00000000e+00 
6.16750479e-01 -4.40412909e-02 0.00000000e+00 
6.27138972e-01 -4.31386717e-02 0.00000000e+00 

        </DataArray>
      </Points>
      <Cells>
        <DataArray type="Int32" Name="connectivity" format="ascii">
0 1
1 2
2 3

        </DataArray>
        <DataArray type="Int32" Name="offsets" format="ascii">
2 4 6 
        </DataArray>
        <DataArray type="UInt8" Name="types" format="ascii">
3 3 3 
        </DataArray>
      </Cells>
      <PointData>
        <DataArray type="Float64" Name="rho">
          9.19141880e-01 9.20718790e-01 9.22304635e-01 9.23898148e-01 
        </DataArray>
        <DataArray type="Float64" Name="rhou">
          4.82192518e-04 4.70572722e-04 4.53856105e-04 4.32438728e-04 
        </DataArray>
        <DataArray type="Float64" Name="rhov">
          2.97166525e-06 -3.10702595e-08 6.43222919e-06 1.58377012e-05 
        </DataArray>
        <DataArray type="Float64" Name="E">
          2.08896625e+05 2.09273317e+05 2.09652110e+05 2.10032696e+05 
        </DataArray>
      </PointData>
    </Piece>
    <Piece NumberOfPoints="4" NumberOfCells="3">
      <Points>
        <DataArray type="Float64" NumberOfComponents="3" format="ascii">
          5.64784765e-01 -4.82786149e-02 0.00000000e+00 
5.75181007e-01 -4.74695377e-02 0.00000000e+00 
5.85575700e-01 -4.66405638e-02 0.00000000e+00 
5.95968783e-01 -4.57924642e-02 0.00000000e+00 

        </DataArray>
      </Points>
      <Cells>
        <DataArray type="Int32" Name="connectivity" format="ascii">
0 1
1 2
2 3

        </DataArray>
        <DataArray type="Int32" Name="offsets" format="ascii">
2 4 6 
        </DataArray>
        <DataArray type="UInt8" Name="types" format="ascii">
3 3 3 
        </DataArray>
      </Cells>
      <PointData>
        <DataArray type="Float64" Name="rho">
          9.14502674e-01 9.16031004e-01 9.17578077e-01 9.19141991e-01 
        </DataArray>
        <DataArray type="Float64" Name="rhou">
          5.56838910e-04 5.31187491e-04 4.99015876e-04 4.76117067e-04 
        </DataArray>
        <DataArray type="Float64" Name="rhov">
          -8.59212894e-06 2.64265347e-06 7.36918074e-06 3.90054246e-06 
        </DataArray>
        <DataArray type="Float64" Name="E">
          2.07787989e+05 2.08153292e+05 2.08523000e+05 2.08896650e+05 
        </DataArray>
      </PointData>
    </Piece>
    <Piece NumberOfPoints="4" NumberOfCells="3">
      <Points>
        <DataArray type="Float64" NumberOfComponents="3" format="ascii">
          5.33586800e-01 -5.05827516e-02 0.00000000e+00 
5.43987691e-01 -4.98356484e-02 0.00000000e+00 
5.54387033e-01 -4.90674041e-02 0.00000000e+00 
5.64784765e-01 -4.82786149e-02 0.00000000e+00 

        </DataArray>
      </Points>
      <Cells>
        <DataArray type="Int32" Name="connectivity" format="ascii">
0 1
1 2
2 3

        </DataArray>
        <DataArray type="Int32" Name="offsets" format="ascii">
2 4 6 
        </DataArray>
        <DataArray type="UInt8" Name="types" format="ascii">
3 3 3 
        </DataArray>
      </Cells>
      <PointData>
        <DataArray type="Float64" Name="rho">
          9.10054896e-01 9.11510115e-01 9.12994525e-01 9.14502634e-01 
        </DataArray>
        <DataArray type="Float64" Name="rhou">
          6.29756115e-04 5.90762232e-04 5.62595965e-04 5.51326143e-04 
        </DataArray>
        <DataArray type="Float64" Name="rhov">
          -7.59050510e-06 -7.59400787e-06 -1.06396030e-05 -8.22631861e-06 
        </DataArray>
        <DataArray type="Float64" Name="E">
          2.06724403e+05 2.07072490e+05 2.07427443e+05 2.07787980e+05 
        </DataArray>
      </PointData>
    </Piece>
    <Piece NumberOfPoints="4" NumberOfCells="3">
      <Points>
        <DataArray type="Float64" NumberOfComponents="3" format="ascii">
          5.02374947e-01 -5.26902266e-02 0.00000000e+00 
5.12780428e-01 -5.20105064e-02 0.00000000e+00 
5.23184419e-01 -5.13078682e-02 0.00000000e+00 
5.33586800e-01 -5.05827516e-02 0.00000000e+00 

        </DataArray>
      </Points>
      <Cells>
        <DataArray type="Int32" Name="connectivity" format="ascii">
0 1
1 2
2 3

        </DataArray>
        <DataArray type="Int32" Name="offsets" format="ascii">
2 4 6 
        </DataArray>
        <DataArray type="UInt8" Name="types" format="ascii">
3 3 3 
        </DataArray>
      </Cells>
      <PointData>
        <DataArray type="Float64" Name="rho">
          9.05899817e-01 9.07245896e-01 9.08632943e-01 9.10054802e-01 
        </DataArray>
        <DataArray type="Float64" Name="rhou">
          7.10015184e-04 6.74293672e-04 6.47192225e-04 6.27105118e-04 
        </DataArray>
        <DataArray type="Float64" Name="rhov">
          -1.68363503e-05 -2.31843359e-05 -2.17578896e-05 -8.03691267e-06 
        </DataArray>
        <DataArray type="Float64" Name="E">
          2.05729771e+05 2.06052128e+05 2.06384145e+05 2.06724381e+05 
        </DataArray>
      </PointData>
    </Piece>
    <Piece NumberOfPoints="4" NumberOfCells="3">
      <Points>
        <DataArray type="Float64" NumberOfComponents="3" format="ascii">
          4.71149325e-01 -5.45825884e-02 0.00000000e+00 
4.81559396e-01 -5.39771840e-02 0.00000000e+00 
4.91967946e-01 -5.33461571e-02 0.00000000e+00 
5.02374947e-01 -5.26902266e-02 0.00000000e+00 

        </DataArray>
      </Points>
      <Cells>
        <DataArray type="Int32" Name="connectivity" format="ascii">
0 1
1 2
2 3

        </DataArray>
        <DataArray type="Int32" Name="offsets" format="ascii">
2 4 6 
        </DataArray>
        <DataArray type="UInt8" Name="types" format="ascii">
3 3 3 
        </DataArray>
      </Cells>
      <PointData>
        <DataArray type="Float64" Name="rho">
          9.02170239e-01 9.03358127e-01 9.04601759e-01 9.05899906e-01 
        </DataArray>
        <DataArray type="Float64" Name="rhou">
          8.15584643e-04 7.93115511e-04 7.46844490e-04 6.90502375e-04 
        </DataArray>
        <DataArray type="Float64" Name="rhov">
          -4.09698467e-05 -3.47966992e-05 -1.77286447e-05 -1.40463551e-05 
        </DataArray>
        <DataArray type="Float64" Name="E">
          2.04835455e+05 2.05120500e+05 2.05418723e+05 2.05729791e+05 
        </DataArray>
      </PointData>
    </Piece>
    <Piece NumberOfPoints="4" NumberOfCells="3">
      <Points>
        <DataArray type="Float64" NumberOfComponents="3" format="ascii">
          4.39910263e-01 -5.62384278e-02 0.00000000e+00 
4.50324744e-01 -5.57143167e-02 0.00000000e+00 
4.60737765e-01 -5.51619194e-02 0.00000000e+00 
4.71149325e-01 -5.45825884e-02 0.00000000e+00 

        </DataArray>
      </Points>
      <Cells>
        <DataArray type="Int32" Name="connectivity" format="ascii">
0 1
1 2
2 3

        </DataArray>
        <DataArray type="Int32" Name="offsets" format="ascii">
2 4 6 
        </DataArray>
        <DataArray type="UInt8" Name="types" format="ascii">
3 3 3 
        </DataArray>
      </Cells>
      <PointData>
        <DataArray type="Float64" Name="rho">
          8.99027042e-01 8.99995051e-01 9.01046352e-01 9.02170313e-01 
        </DataArray>
        <DataArray type="Float64" Name="rhou">
          9.82669145e-04 9.06027896e-04 8.48100324e-04 8.20969531e-04 
        </DataArray>
        <DataArray type="Float64" Name="rhov">
          -3.34450021e-05 -2.45206800e-05 -3.11015982e-05 -3.84530436e-05 
        </DataArray>
        <DataArray type="Float64" Name="E">
          2.04079524e+05 2.04312701e+05 2.04565515e+05 2.04835472e+05 
        </DataArray>
      </PointData>
    </Piece>
    <Piece NumberOfPoints="4" NumberOfCells="3">
      <Points>
        <DataArray type="Float64" NumberOfComponents="3" format="ascii">
          4.08658355e-01 -5.76302819e-02 0.00000000e+00 
4.19077009e-01 -5.71971126e-02 0.00000000e+00 
4.29494321e-01 -5.67329265e-02 0.00000000e+00 
4.39910263e-01 -5.62384278e-02 0.00000000e+00 

        </DataArray>
      </Points>
      <Cells>
        <DataArray type="Int32" Name="connectivity" format="ascii">
0 1
1 2
2 3

        </DataArray>
        <DataArray type="Int32" Name="offsets" format="ascii">
2 4 6 
        </DataArray>
        <DataArray type="UInt8" Name="types" format="ascii">
3 3 3 
        </DataArray>
      </Cells>
      <PointData>
        <DataArray type="Float64" Name="rho">
          8.96682518e-01 8.97362482e-01 8.98147851e-01 8.99026812e-01 
        </DataArray>
        <DataArray type="Float64" Name="rhou">
          1.13736861e-03 1.06804971e-03 1.01673145e-03 9.77358012e-04 
        </DataArray>
        <DataArray type="Float64" Name="rhov">
          -4.13256817e-05 -5.38136049e-05 -5.31543655e-05 -3.32854065e-05 
        </DataArray>
        <DataArray type="Float64" Name="E">
          2.03512204e+05 2.03677311e+05 2.03867322e+05 2.04079472e+05 
        </DataArray>
      </PointData>
    </Piece>
    <Piece NumberOfPoints="4" NumberOfCells="3">
      <Points>
        <DataArray type="Float64" NumberOfComponents="3" format="ascii">
          3.77394795e-01 -5.87291755e-02 0.00000000e+00 
3.87817174e-01 -5.83979115e-02 0.00000000e+00 
3.98238391e-01 -5.80311492e-02 0.00000000e+00 
4.08658355e-01 -5.76302819e-02 0.00000000e+00 

        </DataArray>
      </Points>
      <Cells>
        <DataArray type="Int32" Name="connectivity" format="ascii">
0 1
1 2
2 3

        </DataArray>
        <DataArray type="Int32" Name="offsets" format="ascii">
2 4 6 
        </DataArray>
        <DataArray type="UInt8" Name="types" format="ascii">
3 3 3 
        </DataArray>
      </Cells>
      <PointData>
        <DataArray type="Float64" Name="rho">
          8.95403309e-01 8.95693741e-01 8.96121273e-01 8.96682729e-01 
        </DataArray>
        <DataArray type="Float64" Name="rhou">
          1.38566711e-03 1.31219735e-03 1.21100864e-03 1.10635223e-03 
        </DataArray>
        <DataArray type="Float64" Name="rhov">
          -8.39022909e-05 -5.64081633e-05 -2.89884500e-05 -3.64559069e-05 
        </DataArray>
        <DataArray type="Float64" Name="E">
          2.03196513e+05 2.03269595e+05 2.03375121e+05 2.03512252e+05 
        </DataArray>
      </PointData>
    </Piece>
    <Piece NumberOfPoints="4" NumberOfCells="3">
      <Points>
        <DataArray type="Float64" NumberOfComponents="3" format="ascii">
          3.46121490e-01 -5.95011823e-02 0.00000000e+00 
3.56546819e-01 -5.92821389e-02 0.00000000e+00 
3.66971314e-01 -5.90242445e-02 0.00000000e+00 
3.77394795e-01 -5.87291755e-02 0.00000000e+00 

        </DataArray>
      </Points>
      <Cells>
        <DataArray type="Int32" Name="connectivity" format="ascii">
0 1
1 2
2 3

        </DataArray>
        <DataArray type="Int32" Name="offsets" format="ascii">
2 4 6 
        </DataArray>
        <DataArray type="UInt8" Name="types" format="ascii">
3 3 3 
        </DataArray>
      </Cells>
      <PointData>
        <DataArray type="Float64" Name="rho">
          8.95483860e-01 8.95280831e-01 8.95259790e-01 8.95403401e-01 
        </DataArray>
        <DataArray type="Float64" Name="rhou">
          1.72773237e-03 1.58368043e-03 1.45514264e-03 1.38907375e-03 
        </DataArray>
        <DataArray type="Float64" Name="rhov">
          -1.17889384e-04 -7.63435139e-05 -6.92633872e-05 -7.92985013e-05 
        </DataArray>
        <DataArray type="Float64" Name="E">
          2.03202362e+05 2.03158773e+05 2.03158193e+05 2.03196533e+05 
        </DataArray>
      </PointData>
    </Piece>
    <Piece NumberOfPoints="4" NumberOfCells="3">
      <Points>
        <DataArray type="Float64" NumberOfComponents="3" format="ascii">
          3.14841360e-01 -5.99102043e-02 0.00000000e+00 
3.25268596e-01 -5.98174632e-02 0.00000000e+00 
3.35695356e-01 -5.96801341e-02 0.00000000e+00 
3.46121490e-01 -5.95011823e-02 0.00000000e+00 

        </DataArray>
      </Points>
      <Cells>
        <DataArray type="Int32" Name="connectivity" format="ascii">
0 1
1 2
2 3

        </DataArray>
        <DataArray type="Int32" Name="offsets" format="ascii">
2 4 6 
        </DataArray>
        <DataArray type="UInt8" Name="types" format="ascii">
3 3 3 
        </DataArray>
      </Cells>
      <PointData>
        <DataArray type="Float64" Name="rho">
          8.97331569e-01 8.96479455e-01 8.95872820e-01 8.95483571e-01 
        </DataArray>
        <DataArray type="Float64" Name="rhou">
          2.17720900e-03 1.93330391e-03 1.76867887e-03 1.69227369e-03 
        </DataArray>
        <DataArray type="Float64" Name="rhov">
          -5.44298380e-05 -3.14088864e-05 -6.37913514e-05 -1.17126594e-04 
        </DataArray>
        <DataArray type="Float64" Name="E">
          2.03626220e+05 2.03429105e+05 2.03290004e+05 2.03202296e+05 
        </DataArray>
      </PointData>
    </Piece>
    <Piece NumberOfPoints="4" NumberOfCells="3">
      <Points>
        <DataArray type="Float64" NumberOfComponents="3" format="ascii">
          2.83558637e-01 -5.98983802e-02 0.00000000e+00 
2.93986142e-01 -5.99516556e-02 0.00000000e+00 
3.04413795e-01 -5.99554181e-02 0.00000000e+00 
3.14841360e-01 -5.99102043e-02 0.00000000e+00 

        </DataArray>
      </Points>
      <Cells>
        <DataArray type="Int32" Name="connectivity" format="ascii">
0 1
1 2
2 3

        </DataArray>
        <DataArray type="Int32" Name="offsets" format="ascii">
2 4 6 
        </DataArray>
        <DataArray type="UInt8" Name="types" format="ascii">
3 3 3 
        </DataArray>
      </Cells>
      <PointData>
        <DataArray type="Float64" Name="rho">
          9.01462934e-01 8.99813392e-01 8.98441848e-01 8.97330859e-01 
        </DataArray>
        <DataArray type="Float64" Name="rhou">
          2.65446179e-03 2.48963809e-03 2.35207235e-03 2.16821684e-03 
        </DataArray>
        <DataArray type="Float64" Name="rhov">
          -1.10491431e-04 -1.77571090e-04 -1.42230190e-04 -4.78399476e-05 
        </DataArray>
        <DataArray type="Float64" Name="E">
          2.04591040e+05 2.04204750e+05 2.03884471e+05 2.03626058e+05 
        </DataArray>
      </PointData>
    </Piece>
    <Piece NumberOfPoints="4" NumberOfCells="3">
      <Points>
        <DataArray type="Float64" NumberOfComponents="3" format="ascii">
          2.52279758e-01 -5.94130717e-02 0.00000000e+00 
2.62705088e-01 -5.96327744e-02 0.00000000e+00 
2.73131490e-01 -5.97934239e-02 0.00000000e+00 
2.83558637e-01 -5.98983802e-02 0.00000000e+00 

        </DataArray>
      </Points>
      <Cells>
        <DataArray type="Int32" Name="connectivity" format="ascii">
0 1
1 2
2 3

        </DataArray>
        <DataArray type="Int32" Name="offsets" format="ascii">
2 4 6 
        </DataArray>
        <DataArray type="UInt8" Name="types" format="ascii">
3 3 3 
        </DataArray>
      </Cells>
      <PointData>
        <DataArray type="Float64" Name="rho">
          9.08498727e-01 9.05782585e-01 9.03440362e-01 9.01463853e-01 
        </DataArray>
        <DataArray type="Float64" Name="rhou">
          3.62635658e-03 3.32123568e-03 2.98595720e-03 2.64071810e-03 
        </DataArray>
        <DataArray type="Float64" Name="rhov">
          -2.57598140e-04 -1.65989918e-04 -7.93263846e-05 -9.13559171e-05 
        </DataArray>
        <DataArray type="Float64" Name="E">
          2.06244359e+05 2.05605212e+05 2.05054923e+05 2.04591252e+05 
        </DataArray>
      </PointData>
    </Piece>
    <Piece NumberOfPoints="4" NumberOfCells="3">
      <Points>
        <DataArray type="Float64" NumberOfComponents="3" format="ascii">
          2.21014455e-01 -5.83752058e-02 0.00000000e+00 
2.31433928e-01 -5.87876961e-02 0.00000000e+00 
2.41855890e-01 -5.91322705e-02 0.00000000e+00 
2.52279758e-01 -5.94130717e-02 0.00000000e+00 

        </DataArray>
      </Points>
      <Cells>
        <DataArray type="Int32" Name="connectivity" format="ascii">
0 1
1 2
2 3

        </DataArray>
        <DataArray type="Int32" Name="offsets" format="ascii">
2 4 6 
        </DataArray>
        <DataArray type="UInt8" Name="types" format="ascii">
3 3 3 
        </DataArray>
      </Cells>
      <PointData>
        <DataArray type="Float64" Name="rho">
          9.19221263e-01 9.15170056e-01 9.11611615e-01 9.08498908e-01 
        </DataArray>
        <DataArray type="Float64" Name="rhou">
          4.97861899e-03 4.39373316e-03 3.94772764e-03 3.66040995e-03 
        </DataArray>
        <DataArray type="Float64" Name="rhov">
          -3.62042084e-04 -2.58568949e-04 -2.26845688e-04 -2.41247861e-04 
        </DataArray>
        <DataArray type="Float64" Name="E">
          2.08773627e+05 2.07817175e+05 2.06977837e+05 2.06244396e+05 
        </DataArray>
      </PointData>
    </Piece>
    <Piece NumberOfPoints="4" NumberOfCells="3">
      <Points>
        <DataArray type="Float64" NumberOfComponents="3" format="ascii">
          1.89777538e-01 -5.66898957e-02 0.00000000e+00 
2.00185493e-01 -5.73302582e-02 0.00000000e+00 
2.10598081e-01 -5.78906052e-02 0.00000000e+00 
2.21014455e-01 -5.83752058e-02 0.00000000e+00 

        </DataArray>
      </Points>
      <Cells>
        <DataArray type="Int32" Name="connectivity" format="ascii">
0 1
1 2
2 3

        </DataArray>
        <DataArray type="Int32" Name="offsets" format="ascii">
2 4 6 
        </DataArray>
        <DataArray type="UInt8" Name="types" format="ascii">
3 3 3 
        </DataArray>
      </Cells>
      <PointData>
        <DataArray type="Float64" Name="rho">
          9.34716539e-01 9.28943912e-01 9.23798684e-01 9.19220504e-01 
        </DataArray>
        <DataArray type="Float64" Name="rhou">
          6.90003861e-03 6.09970569e-03 5.51430926e-03 5.04096080e-03 
        </DataArray>
        <DataArray type="Float64" Name="rhov">
          -6.41036795e-04 -5.71143910e-04 -4.72318056e-04 -3.49309080e-04 
        </DataArray>
        <DataArray type="Float64" Name="E">
          2.12439028e+05 2.11072396e+05 2.09855346e+05 2.08773453e+05 
        </DataArray>
      </PointData>
    </Piece>
    <Piece NumberOfPoints="4" NumberOfCells="3">
      <Points>
        <DataArray type="Float64" NumberOfComponents="3" format="ascii">
          1.58592433e-01 -5.42296544e-02 0.00000000e+00 
1.68979734e-01 -5.51457107e-02 0.00000000e+00 
1.79375216e-01 -5.59638515e-02 0.00000000e+00 
1.89777538e-01 -5.66898957e-02 0.00000000e+00 

        </DataArray>
      </Points>
      <Cells>
        <DataArray type="Int32" Name="connectivity" format="ascii">
0 1
1 2
2 3

        </DataArray>
        <DataArray type="Int32" Name="offsets" format="ascii">
2 4 6 
        </DataArray>
        <DataArray type="UInt8" Name="types" format="ascii">
3 3 3 
        </DataArray>
      </Cells>
      <PointData>
        <DataArray type="Float64" Name="rho">
          9.56548674e-01 9.48459379e-01 9.41198908e-01 9.34716957e-01 
        </DataArray>
        <DataArray type="Float64" Name="rhou">
          9.95780080e-03 8.88352542e-03 7.93383407e-03 6.97124692e-03 
        </DataArray>
        <DataArray type="Float64" Name="rhov">
          -1.38977029e-03 -1.19930121e-03 -8.69454689e-04 -6.00532951e-04 
        </DataArray>
        <DataArray type="Float64" Name="E">
          2.17616294e+05 2.15696361e+05 2.13974811e+05 2.12439128e+05 
        </DataArray>
      </PointData>
    </Piece>
    <Piece NumberOfPoints="4" NumberOfCells="3">
      <Points>
        <DataArray type="Float64" NumberOfComponents="3" format="ascii">
          1.27497971e-01 -5.08146733e-02 0.00000000e+00 
1.37849152e-01 -5.20747155e-02 0.00000000e+00 
1.48214847e-01 -5.32093942e-02 0.00000000e+00 
1.58592433e-01 -5.42296544e-02 0.00000000e+00 

        </DataArray>
      </Points>
      <Cells>
        <DataArray type="Int32" Name="connectivity" format="ascii">
0 1
1 2
2 3

        </DataArray>
        <DataArray type="Int32" Name="offsets" format="ascii">
2 4 6 
        </DataArray>
        <DataArray type="UInt8" Name="types" format="ascii">
3 3 3 
        </DataArray>
      </Cells>
      <PointData>
        <DataArray type="Float64" Name="rho">
          9.87142094e-01 9.75759206e-01 9.65582165e-01 9.56552720e-01 
        </DataArray>
        <DataArray type="Float64" Name="rhou">
          1.44880563e-02 1.33097554e-02 1.15051665e-02 9.98626319e-03 
        </DataArray>
        <DataArray type="Float64" Name="rhov">
          -2.26185438e-03 -2.01587388e-03 -1.40210682e-03 -1.31774224e-03 
        </DataArray>
        <DataArray type="Float64" Name="E">
          2.24889854e+05 2.22181120e+05 2.19762073e+05 2.17617222e+05 
        </DataArray>
      </PointData>
    </Piece>
    <Piece NumberOfPoints="4" NumberOfCells="3">
      <Points>
        <DataArray type="Float64" NumberOfComponents="3" format="ascii">
          9.65642184e-02 -4.61716652e-02 0.00000000e+00 
1.06852271e-01 -4.78802323e-02 0.00000000e+00 
1.17164567e-01 -4.94215861e-02 0.00000000e+00 
1.27497971e-01 -5.08146733e-02 0.00000000e+00 

        </DataArray>
      </Points>
      <Cells>
        <DataArray type="Int32" Name="connectivity" format="ascii">
0 1
1 2
2 3

        </DataArray>
        <DataArray type="Int32" Name="offsets" format="ascii">
2 4 6 
        </DataArray>
        <DataArray type="UInt8" Name="types" format="ascii">
3 3 3 
        </DataArray>
      </Cells>
      <PointData>
        <DataArray type="Float64" Name="rho">
          1.03060898e+00 1.01427842e+00 9.99818528e-01 9.87150430e-01 
        </DataArray>
        <DataArray type="Float64" Name="rhou">
          2.46605302e-02 1.80770486e-02 1.71618434e-02 1.28462764e-02 
        </DataArray>
        <DataArray type="Float64" Name="rhov">
          -9.12804776e-04 -7.17815689e-04 -1.53944884e-03 -1.58305850e-03 
        </DataArray>
        <DataArray type="Float64" Name="E">
          2.35259177e+05 2.31358735e+05 2.27910257e+05 2.24891863e+05 
        </DataArray>
      </PointData>
    </Piece>
  </UnstructuredGrid>
</VTKFile>
