<?xml version="1.0"?>
<VTKFile type="UnstructuredGrid" version="0.1" byte_order="LittleEndian">
  <UnstructuredGrid>
    <Piece NumberOfPoints="4" NumberOfCells="3">
      <Points>
        <DataArray type="Float64" NumberOfComponents="3" format="ascii">
          9.65642184e-02 -4.61716652e-02 0.00000000e+00 
9.26280916e-02 -4.54656407e-02 0.00000000e+00 
8.86965096e-02 -4.47326750e-02 0.00000000e+00 
8.47706869e-02 -4.39694971e-02 0.00000000e+00 

        </DataArray>
      </Points>
      <Cells>
        <DataArray type="Int32" Name="connectivity" format="ascii">
0 1
1 2
2 3

        </DataArray>
        <DataArray type="Int32" Name="offsets" format="ascii">
2 4 6 
        </DataArray>
        <DataArray type="UInt8" Name="types" format="ascii">
3 3 3 
        </DataArray>
      </Cells>
      <PointData>
        <DataArray type="Float64" Name="rho">
          1.03510163e+00 1.04200591e+00 1.04922479e+00 1.05689019e+00 
        </DataArray>
        <DataArray type="Float64" Name="rhou">
          2.82993830e-02 2.17794563e-02 2.44250248e-02 2.45851721e-02 
        </DataArray>
        <DataArray type="Float64" Name="rhov">
          -2.21901917e-03 -9.94355100e-04 -5.72400138e-04 -8.73250594e-04 
        </DataArray>
        <DataArray type="Float64" Name="E">
          2.36512693e+05 2.38164860e+05 2.39893933e+05 2.41730287e+05 
        </DataArray>
      </PointData>
    </Piece>
    <Piece NumberOfPoints="4" NumberOfCells="3">
      <Points>
        <DataArray type="Float64" NumberOfComponents="3" format="ascii">
          8.47706869e-02 -4.39694971e-02 0.00000000e+00 
8.08513016e-02 -4.31745499e-02 0.00000000e+00 
7.69388378e-02 -4.23462167e-02 0.00000000e+00 
7.30340332e-02 -4.14824970e-02 0.00000000e+00 

        </DataArray>
      </Points>
      <Cells>
        <DataArray type="Int32" Name="connectivity" format="ascii">
0 1
1 2
2 3

        </DataArray>
        <DataArray type="Int32" Name="offsets" format="ascii">
2 4 6 
        </DataArray>
        <DataArray type="UInt8" Name="types" format="ascii">
3 3 3 
        </DataArray>
      </Cells>
      <PointData>
        <DataArray type="Float64" Name="rho">
          1.05688900e+00 1.06498235e+00 1.07353902e+00 1.08262891e+00 
        </DataArray>
        <DataArray type="Float64" Name="rhou">
          2.46794948e-02 2.38403516e-02 2.24123875e-02 2.08275584e-02 
        </DataArray>
        <DataArray type="Float64" Name="rhov">
          -6.78798481e-04 -4.53245613e-04 4.76184024e-04 1.69626514e-03 
        </DataArray>
        <DataArray type="Float64" Name="E">
          2.41730024e+05 2.43670851e+05 2.45724020e+05 2.47906322e+05 
        </DataArray>
      </PointData>
    </Piece>
    <Piece NumberOfPoints="4" NumberOfCells="3">
      <Points>
        <DataArray type="Float64" NumberOfComponents="3" format="ascii">
          7.30340332e-02 -4.14824970e-02 0.00000000e+00 
6.91377968e-02 -4.05809283e-02 0.00000000e+00 
6.52511865e-02 -3.96387354e-02 0.00000000e+00 
6.13753870e-02 -3.86530459e-02 0.00000000e+00 

        </DataArray>
      </Points>
      <Cells>
        <DataArray type="Int32" Name="connectivity" format="ascii">
0 1
1 2
2 3

        </DataArray>
        <DataArray type="Int32" Name="offsets" format="ascii">
2 4 6 
        </DataArray>
        <DataArray type="UInt8" Name="types" format="ascii">
3 3 3 
        </DataArray>
      </Cells>
      <PointData>
        <DataArray type="Float64" Name="rho">
          1.08262950e+00 1.09233608e+00 1.10269115e+00 1.11375436e+00 
        </DataArray>
        <DataArray type="Float64" Name="rhou">
          2.09444839e-02 1.85732656e-02 1.44489997e-02 8.92011850e-03 
        </DataArray>
        <DataArray type="Float64" Name="rhov">
          1.53058405e-03 2.30447020e-03 4.42249310e-03 7.65537453e-03 
        </DataArray>
        <DataArray type="Float64" Name="E">
          2.47906483e+05 2.50239029e+05 2.52729045e+05 2.55391559e+05 
        </DataArray>
      </PointData>
    </Piece>
    <Piece NumberOfPoints="4" NumberOfCells="3">
      <Points>
        <DataArray type="Float64" NumberOfComponents="3" format="ascii">
          6.13753870e-02 -3.86530459e-02 0.00000000e+00 
5.75117208e-02 -3.76208089e-02 0.00000000e+00 
5.36618084e-02 -3.65384258e-02 0.00000000e+00 
4.98276278e-02 -3.54015976e-02 0.00000000e+00 

        </DataArray>
      </Points>
      <Cells>
        <DataArray type="Int32" Name="connectivity" format="ascii">
0 1
1 2
2 3

        </DataArray>
        <DataArray type="Int32" Name="offsets" format="ascii">
2 4 6 
        </DataArray>
        <DataArray type="UInt8" Name="types" format="ascii">
3 3 3 
        </DataArray>
      </Cells>
      <PointData>
        <DataArray type="Float64" Name="rho">
          1.11375463e+00 1.12560857e+00 1.13833816e+00 1.15207485e+00 
        </DataArray>
        <DataArray type="Float64" Name="rhou">
          8.86281669e-03 1.77817059e-03 -7.46436367e-03 -1.90155981e-02 
        </DataArray>
        <DataArray type="Float64" Name="rhov">
          7.42705405e-03 1.21775860e-02 2.03147267e-02 3.18567601e-02 
        </DataArray>
        <DataArray type="Float64" Name="E">
          2.55391623e+05 2.58248372e+05 2.61318776e+05 2.64635388e+05 
        </DataArray>
      </PointData>
    </Piece>
    <Piece NumberOfPoints="4" NumberOfCells="3">
      <Points>
        <DataArray type="Float64" NumberOfComponents="3" format="ascii">
          4.98276278e-02 -3.54015976e-02 0.00000000e+00 
4.60115410e-02 -3.42054628e-02 0.00000000e+00 
4.22164090e-02 -3.29444520e-02 0.00000000e+00 
3.84457745e-02 -3.16120051e-02 0.00000000e+00 

        </DataArray>
      </Points>
      <Cells>
        <DataArray type="Int32" Name="connectivity" format="ascii">
0 1
1 2
2 3

        </DataArray>
        <DataArray type="Int32" Name="offsets" format="ascii">
2 4 6 
        </DataArray>
        <DataArray type="UInt8" Name="types" format="ascii">
3 3 3 
        </DataArray>
      </Cells>
      <PointData>
        <DataArray type="Float64" Name="rho">
          1.15207477e+00 1.16691820e+00 1.18298069e+00 1.20045374e+00 
        </DataArray>
        <DataArray type="Float64" Name="rhou">
          -1.94722987e-02 -3.36353727e-02 -5.26467452e-02 -7.53786578e-02 
        </DataArray>
        <DataArray type="Float64" Name="rhov">
          3.16423305e-02 4.83951523e-02 7.61509581e-02 1.16733515e-01 
        </DataArray>
        <DataArray type="Float64" Name="E">
          2.64635335e+05 2.68225666e+05 2.72115645e+05 2.76353558e+05 
        </DataArray>
      </PointData>
    </Piece>
    <Piece NumberOfPoints="4" NumberOfCells="3">
      <Points>
        <DataArray type="Float64" NumberOfComponents="3" format="ascii">
          3.84457745e-02 -3.16120051e-02 0.00000000e+00 
3.47041376e-02 -3.02002355e-02 0.00000000e+00 
3.09973080e-02 -2.86995135e-02 0.00000000e+00 
2.73328498e-02 -2.70981900e-02 0.00000000e+00 

        </DataArray>
      </Points>
      <Cells>
        <DataArray type="Int32" Name="connectivity" format="ascii">
0 1
1 2
2 3

        </DataArray>
        <DataArray type="Int32" Name="offsets" format="ascii">
2 4 6 
        </DataArray>
        <DataArray type="UInt8" Name="types" format="ascii">
3 3 3 
        </DataArray>
      </Cells>
      <PointData>
        <DataArray type="Float64" Name="rho">
          1.20045396e+00 1.21952680e+00 1.24039283e+00 1.26342384e+00 
        </DataArray>
        <DataArray type="Float64" Name="rhou">
          -7.63307127e-02 -1.00470170e-01 -1.29066758e-01 -1.54383215e-01 
        </DataArray>
        <DataArray type="Float64" Name="rhov">
          1.16650887e-01 1.72323852e-01 2.58396018e-01 3.78842561e-01 
        </DataArray>
        <DataArray type="Float64" Name="E">
          2.76353474e+05 2.80991185e+05 2.86073457e+05 2.91694532e+05 
        </DataArray>
      </PointData>
    </Piece>
    <Piece NumberOfPoints="4" NumberOfCells="3">
      <Points>
        <DataArray type="Float64" NumberOfComponents="3" format="ascii">
          2.73328498e-02 -2.70981900e-02 0.00000000e+00 
2.37206947e-02 -2.53822580e-02 0.00000000e+00 
2.01744195e-02 -2.35341713e-02 0.00000000e+00 
1.67132635e-02 -2.15314496e-02 0.00000000e+00 

        </DataArray>
      </Points>
      <Cells>
        <DataArray type="Int32" Name="connectivity" format="ascii">
0 1
1 2
2 3

        </DataArray>
        <DataArray type="Int32" Name="offsets" format="ascii">
2 4 6 
        </DataArray>
        <DataArray type="UInt8" Name="types" format="ascii">
3 3 3 
        </DataArray>
      </Cells>
      <PointData>
        <DataArray type="Float64" Name="rho">
          1.26342871e+00 1.28896442e+00 1.31746129e+00 1.35026401e+00 
        </DataArray>
        <DataArray type="Float64" Name="rhou">
          -1.54766621e-01 -1.68658980e-01 -1.52713568e-01 -5.63335482e-02 
        </DataArray>
        <DataArray type="Float64" Name="rhov">
          3.79514470e-01 5.31449481e-01 7.42185693e-01 9.60430414e-01 
        </DataArray>
        <DataArray type="Float64" Name="E">
          2.91695435e+05 2.97949936e+05 3.04942335e+05 3.13001186e+05 
        </DataArray>
      </PointData>
    </Piece>
    <Piece NumberOfPoints="4" NumberOfCells="3">
      <Points>
        <DataArray type="Float64" NumberOfComponents="3" format="ascii">
          1.67132635e-02 -2.15314496e-02 0.00000000e+00 
1.33649679e-02 -1.93456318e-02 0.00000000e+00 
1.01706637e-02 -1.69409402e-02 0.00000000e+00 
7.19343964e-03 -1.42731192e-02 0.00000000e+00 

        </DataArray>
      </Points>
      <Cells>
        <DataArray type="Int32" Name="connectivity" format="ascii">
0 1
1 2
2 3

        </DataArray>
        <DataArray type="Int32" Name="offsets" format="ascii">
2 4 6 
        </DataArray>
        <DataArray type="UInt8" Name="types" format="ascii">
3 3 3 
        </DataArray>
      </Cells>
      <PointData>
        <DataArray type="Float64" Name="rho">
          1.35015804e+00 1.39000314e+00 1.43722542e+00 1.50230559e+00 
        </DataArray>
        <DataArray type="Float64" Name="rhou">
          -3.37521140e-02 1.15153161e-01 4.56749489e-01 8.76839274e-01 
        </DataArray>
        <DataArray type="Float64" Name="rhov">
          9.22121168e-01 1.12459884e+00 1.06851519e+00 5.16635526e-01 
        </DataArray>
        <DataArray type="Float64" Name="E">
          3.12976949e+05 3.22768896e+05 3.34366424e+05 3.50234534e+05 
        </DataArray>
      </PointData>
    </Piece>
    <Piece NumberOfPoints="4" NumberOfCells="3">
      <Points>
        <DataArray type="Float64" NumberOfComponents="3" format="ascii">
          7.19343964e-03 -1.42731192e-02 0.00000000e+00 
4.53082798e-03 -1.12927537e-02 0.00000000e+00 
2.33371323e-03 -7.95678515e-03 0.00000000e+00 
8.10639584e-04 -4.26717056e-03 0.00000000e+00 

        </DataArray>
      </Points>
      <Cells>
        <DataArray type="Int32" Name="connectivity" format="ascii">
0 1
1 2
2 3

        </DataArray>
        <DataArray type="Int32" Name="offsets" format="ascii">
2 4 6 
        </DataArray>
        <DataArray type="UInt8" Name="types" format="ascii">
3 3 3 
        </DataArray>
      </Cells>
      <PointData>
        <DataArray type="Float64" Name="rho">
          1.50282555e+00 1.57722785e+00 1.66626876e+00 1.73488767e+00 
        </DataArray>
        <DataArray type="Float64" Name="rhou">
          8.01729712e-01 9.30371346e-01 2.55902740e-01 -1.28131173e+00 
        </DataArray>
        <DataArray type="Float64" Name="rhov">
          6.15634721e-01 -5.15211364e-01 -1.73379488e+00 -1.81872357e+00 
        </DataArray>
        <DataArray type="Float64" Name="E">
          3.50362020e+05 3.68538825e+05 3.90169509e+05 4.06861447e+05 
        </DataArray>
      </PointData>
    </Piece>
    <Piece NumberOfPoints="4" NumberOfCells="3">
      <Points>
        <DataArray type="Float64" NumberOfComponents="3" format="ascii">
          8.10639584e-04 -4.26717056e-03 0.00000000e+00 
1.91366620e-04 -3.27450951e-04 0.00000000e+00 
6.40850572e-04 3.63462302e-03 0.00000000e+00 
2.03182548e-03 7.37539819e-03 0.00000000e+00 

        </DataArray>
      </Points>
      <Cells>
        <DataArray type="Int32" Name="connectivity" format="ascii">
0 1
1 2
2 3

        </DataArray>
        <DataArray type="Int32" Name="offsets" format="ascii">
2 4 6 
        </DataArray>
        <DataArray type="UInt8" Name="types" format="ascii">
3 3 3 
        </DataArray>
      </Cells>
      <PointData>
        <DataArray type="Float64" Name="rho">
          1.73330838e+00 1.75810949e+00 1.70748594e+00 1.61487903e+00 
        </DataArray>
        <DataArray type="Float64" Name="rhou">
          -1.15553192e+00 -1.88330239e+00 -8.34546107e-01 7.55981460e-01 
        </DataArray>
        <DataArray type="Float64" Name="rhov">
          -1.97760572e+00 3.69315442e-01 1.88824557e+00 1.51622012e+00 
        </DataArray>
        <DataArray type="Float64" Name="E">
          4.06478801e+05 4.12419685e+05 4.00035276e+05 3.77400981e+05 
        </DataArray>
      </PointData>
    </Piece>
    <Piece NumberOfPoints="4" NumberOfCells="3">
      <Points>
        <DataArray type="Float64" NumberOfComponents="3" format="ascii">
          2.03182548e-03 7.37539819e-03 0.00000000e+00 
4.13410179e-03 1.07714310e-02 0.00000000e+00 
6.73249783e-03 1.38076087e-02 0.00000000e+00 
9.66598373e-03 1.65232457e-02 0.00000000e+00 

        </DataArray>
      </Points>
      <Cells>
        <DataArray type="Int32" Name="connectivity" format="ascii">
0 1
1 2
2 3

        </DataArray>
        <DataArray type="Int32" Name="offsets" format="ascii">
2 4 6 
        </DataArray>
        <DataArray type="UInt8" Name="types" format="ascii">
3 3 3 
        </DataArray>
      </Cells>
      <PointData>
        <DataArray type="Float64" Name="rho">
          1.61524004e+00 1.50800169e+00 1.41871093e+00 1.35173228e+00 
        </DataArray>
        <DataArray type="Float64" Name="rhou">
          7.28427413e-01 1.15870666e+00 8.42053111e-01 3.76044580e-01 
        </DataArray>
        <DataArray type="Float64" Name="rhov">
          1.75191070e+00 5.96870241e-02 -1.07954618e+00 -1.40405146e+00 
        </DataArray>
        <DataArray type="Float64" Name="E">
          3.77491881e+05 3.51439570e+05 3.29710424e+05 3.13329896e+05 
        </DataArray>
      </PointData>
    </Piece>
    <Piece NumberOfPoints="4" NumberOfCells="3">
      <Points>
        <DataArray type="Float64" NumberOfComponents="3" format="ascii">
          9.66598373e-03 1.65232457e-02 0.00000000e+00 
1.28298048e-02 1.89677756e-02 0.00000000e+00 
1.61561389e-02 2.11867876e-02 0.00000000e+00 
1.96009967e-02 2.32173651e-02 0.00000000e+00 

        </DataArray>
      </Points>
      <Cells>
        <DataArray type="Int32" Name="connectivity" format="ascii">
0 1
1 2
2 3

        </DataArray>
        <DataArray type="Int32" Name="offsets" format="ascii">
2 4 6 
        </DataArray>
        <DataArray type="UInt8" Name="types" format="ascii">
3 3 3 
        </DataArray>
      </Cells>
      <PointData>
        <DataArray type="Float64" Name="rho">
          1.35152685e+00 1.29905812e+00 1.26009056e+00 1.22579111e+00 
        </DataArray>
        <DataArray type="Float64" Name="rhou">
          3.85589142e-01 -1.68876491e-02 -1.98799979e-01 -2.19372350e-01 
        </DataArray>
        <DataArray type="Float64" Name="rhov">
          -1.42880798e+00 -1.32315871e+00 -9.91965494e-01 -6.65788714e-01 
        </DataArray>
        <DataArray type="Float64" Name="E">
          3.13277657e+05 3.00446617e+05 2.90867684e+05 2.82462413e+05 
        </DataArray>
      </PointData>
    </Piece>
    <Piece NumberOfPoints="4" NumberOfCells="3">
      <Points>
        <DataArray type="Float64" NumberOfComponents="3" format="ascii">
          1.96009967e-02 2.32173651e-02 0.00000000e+00 
2.31348258e-02 2.50891000e-02 0.00000000e+00 
2.67372411e-02 2.68253610e-02 0.00000000e+00 
3.03938854e-02 2.84444261e-02 0.00000000e+00 

        </DataArray>
      </Points>
      <Cells>
        <DataArray type="Int32" Name="connectivity" format="ascii">
0 1
1 2
2 3

        </DataArray>
        <DataArray type="Int32" Name="offsets" format="ascii">
2 4 6 
        </DataArray>
        <DataArray type="UInt8" Name="types" format="ascii">
3 3 3 
        </DataArray>
      </Cells>
      <PointData>
        <DataArray type="Float64" Name="rho">
          1.22585495e+00 1.19674666e+00 1.17071657e+00 1.14714675e+00 
        </DataArray>
        <DataArray type="Float64" Name="rhou">
          -2.32519766e-01 -2.18992157e-01 -1.73694204e-01 -1.31407088e-01 
        </DataArray>
        <DataArray type="Float64" Name="rhov">
          -6.84053597e-01 -4.32455583e-01 -2.45499496e-01 -1.32560488e-01 
        </DataArray>
        <DataArray type="Float64" Name="E">
          2.82477361e+05 2.75363781e+05 2.69025450e+05 2.63303272e+05 
        </DataArray>
      </PointData>
    </Piece>
    <Piece NumberOfPoints="4" NumberOfCells="3">
      <Points>
        <DataArray type="Float64" NumberOfComponents="3" format="ascii">
          3.03938854e-02 2.84444261e-02 0.00000000e+00 
3.40943485e-02 2.99607720e-02 0.00000000e+00 
3.78307216e-02 3.13864015e-02 0.00000000e+00 
4.15969416e-02 3.27312648e-02 0.00000000e+00 

        </DataArray>
      </Points>
      <Cells>
        <DataArray type="Int32" Name="connectivity" format="ascii">
0 1
1 2
2 3

        </DataArray>
        <DataArray type="Int32" Name="offsets" format="ascii">
2 4 6 
        </DataArray>
        <DataArray type="UInt8" Name="types" format="ascii">
3 3 3 
        </DataArray>
      </Cells>
      <PointData>
        <DataArray type="Float64" Name="rho">
          1.14714502e+00 1.12582147e+00 1.10645600e+00 1.08880545e+00 
        </DataArray>
        <DataArray type="Float64" Name="rhou">
          -1.29608765e-01 -8.93994544e-02 -5.65616186e-02 -3.35599552e-02 
        </DataArray>
        <DataArray type="Float64" Name="rhov">
          -1.31105225e-01 -5.47969781e-02 -7.61332185e-03 1.78398876e-02 
        </DataArray>
        <DataArray type="Float64" Name="E">
          2.63303121e+05 2.58144975e+05 2.53471803e+05 2.49220285e+05 
        </DataArray>
      </PointData>
    </Piece>
    <Piece NumberOfPoints="4" NumberOfCells="3">
      <Points>
        <DataArray type="Float64" NumberOfComponents="3" format="ascii">
          4.15969416e-02 3.27312648e-02 0.00000000e+00 
4.53883260e-02 3.40034962e-02 0.00000000e+00 
4.92011942e-02 3.52098532e-02 0.00000000e+00 
5.30325845e-02 3.63560505e-02 0.00000000e+00 

        </DataArray>
      </Points>
      <Cells>
        <DataArray type="Int32" Name="connectivity" format="ascii">
0 1
1 2
2 3

        </DataArray>
        <DataArray type="Int32" Name="offsets" format="ascii">
2 4 6 
        </DataArray>
        <DataArray type="UInt8" Name="types" format="ascii">
3 3 3 
        </DataArray>
      </Cells>
      <PointData>
        <DataArray type="Float64" Name="rho">
          1.08880602e+00 1.07268059e+00 1.05789224e+00 1.04428210e+00 
        </DataArray>
        <DataArray type="Float64" Name="rhou">
          -3.24180241e-02 -1.29417348e-02 1.52558107e-03 1.09298998e-02 
        </DataArray>
        <DataArray type="Float64" Name="rhov">
          1.77455714e-02 3.14713443e-02 3.81536758e-02 3.93244360e-02 
        </DataArray>
        <DataArray type="Float64" Name="E">
          2.49220497e+05 2.45344888e+05 2.41796180e+05 2.38534363e+05 
        </DataArray>
      </PointData>
    </Piece>
    <Piece NumberOfPoints="4" NumberOfCells="3">
      <Points>
        <DataArray type="Float64" NumberOfComponents="3" format="ascii">
          5.30325845e-02 3.63560505e-02 0.00000000e+00 
5.68800643e-02 3.74470428e-02 0.00000000e+00 
6.07415959e-02 3.84872220e-02 0.00000000e+00 
6.46155030e-02 3.94803248e-02 0.00000000e+00 

        </DataArray>
      </Points>
      <Cells>
        <DataArray type="Int32" Name="connectivity" format="ascii">
0 1
1 2
2 3

        </DataArray>
        <DataArray type="Int32" Name="offsets" format="ascii">
2 4 6 
        </DataArray>
        <DataArray type="UInt8" Name="types" format="ascii">
3 3 3 
        </DataArray>
      </Cells>
      <PointData>
        <DataArray type="Float64" Name="rho">
          1.04428280e+00 1.03176218e+00 1.02019908e+00 1.00945272e+00 
        </DataArray>
        <DataArray type="Float64" Name="rhou">
          1.12481606e-02 1.82642689e-02 2.38208656e-02 2.76679629e-02 
        </DataArray>
        <DataArray type="Float64" Name="rhov">
          3.89972901e-02 3.73359423e-02 3.52834473e-02 3.20573007e-02 
        </DataArray>
        <DataArray type="Float64" Name="E">
          2.38534522e+05 2.35538052e+05 2.32773567e+05 2.30206893e+05 
        </DataArray>
      </PointData>
    </Piece>
    <Piece NumberOfPoints="4" NumberOfCells="3">
      <Points>
        <DataArray type="Float64" NumberOfComponents="3" format="ascii">
          6.46155030e-02 3.94803248e-02 0.00000000e+00 
6.85004294e-02 4.04294394e-02 0.00000000e+00 
7.23951608e-02 4.13374715e-02 0.00000000e+00 
7.62986317e-02 4.22072113e-02 0.00000000e+00 

        </DataArray>
      </Points>
      <Cells>
        <DataArray type="Int32" Name="connectivity" format="ascii">
0 1
1 2
2 3

        </DataArray>
        <DataArray type="Int32" Name="offsets" format="ascii">
2 4 6 
        </DataArray>
        <DataArray type="UInt8" Name="types" format="ascii">
3 3 3 
        </DataArray>
      </Cells>
      <PointData>
        <DataArray type="Float64" Name="rho">
          1.00945344e+00 9.99482107e-01 9.90196544e-01 9.81541119e-01 
        </DataArray>
        <DataArray type="Float64" Name="rhou">
          2.74877851e-02 2.94440865e-02 3.05511262e-02 3.06515313e-02 
        </DataArray>
        <DataArray type="Float64" Name="rhov">
          3.17583061e-02 2.78465908e-02 2.44650300e-02 2.11525557e-02 
        </DataArray>
        <DataArray type="Float64" Name="E">
          2.30207040e+05 2.27828086e+05 2.25614582e+05 2.23552581e+05 
        </DataArray>
      </PointData>
    </Piece>
    <Piece NumberOfPoints="4" NumberOfCells="3">
      <Points>
        <DataArray type="Float64" NumberOfComponents="3" format="ascii">
          7.62986317e-02 4.22072113e-02 0.00000000e+00 
8.02098960e-02 4.30411920e-02 0.00000000e+00 
8.41281936e-02 4.38414887e-02 0.00000000e+00 
8.80528912e-02 4.46097627e-02 0.00000000e+00 

        </DataArray>
      </Points>
      <Cells>
        <DataArray type="Int32" Name="connectivity" format="ascii">
0 1
1 2
2 3

        </DataArray>
        <DataArray type="Int32" Name="offsets" format="ascii">
2 4 6 
        </DataArray>
        <DataArray type="UInt8" Name="types" format="ascii">
3 3 3 
        </DataArray>
      </Cells>
      <PointData>
        <DataArray type="Float64" Name="rho">
          9.81540178e-01 9.73468433e-01 9.65885746e-01 9.58746235e-01 
        </DataArray>
        <DataArray type="Float64" Name="rhou">
          3.05046854e-02 3.05346391e-02 3.02654666e-02 2.92048251e-02 
        </DataArray>
        <DataArray type="Float64" Name="rhov">
          2.09890215e-02 1.84208917e-02 1.59044358e-02 1.32166097e-02 
        </DataArray>
        <DataArray type="Float64" Name="E">
          2.23552345e+05 2.21630895e+05 2.19827142e+05 2.18129965e+05 
        </DataArray>
      </PointData>
    </Piece>
    <Piece NumberOfPoints="4" NumberOfCells="3">
      <Points>
        <DataArray type="Float64" NumberOfComponents="3" format="ascii">
          8.80528912e-02 4.46097627e-02 0.00000000e+00 
9.19835642e-02 4.53475714e-02 0.00000000e+00 
9.59195644e-02 4.60564308e-02 0.00000000e+00 
9.98597518e-02 4.67394181e-02 0.00000000e+00 

        </DataArray>
      </Points>
      <Cells>
        <DataArray type="Int32" Name="connectivity" format="ascii">
0 1
1 2
2 3

        </DataArray>
        <DataArray type="Int32" Name="offsets" format="ascii">
2 4 6 
        </DataArray>
        <DataArray type="UInt8" Name="types" format="ascii">
3 3 3 
        </DataArray>
      </Cells>
      <PointData>
        <DataArray type="Float64" Name="rho">
          9.58746736e-01 9.52040369e-01 9.45754373e-01 9.39789265e-01 
        </DataArray>
        <DataArray type="Float64" Name="rhou">
          2.90108635e-02 2.75913303e-02 2.41190860e-02 2.86441410e-02 
        </DataArray>
        <DataArray type="Float64" Name="rhov">
          1.33797630e-02 1.07945556e-02 9.20436177e-03 8.69757827e-03 
        </DataArray>
        <DataArray type="Float64" Name="E">
          2.18130081e+05 2.16537092e+05 2.15044401e+05 2.13628942e+05 
        </DataArray>
      </PointData>
    </Piece>
    <Piece NumberOfPoints="4" NumberOfCells="3">
      <Points>
        <DataArray type="Float64" NumberOfComponents="3" format="ascii">
          9.98597518e-02 4.67394181e-02 0.00000000e+00 
1.10118888e-01 4.83862534e-02 0.00000000e+00 
1.20400399e-01 4.98730615e-02 0.00000000e+00 
1.30701363e-01 5.12186773e-02 0.00000000e+00 

        </DataArray>
      </Points>
      <Cells>
        <DataArray type="Int32" Name="connectivity" format="ascii">
0 1
1 2
2 3

        </DataArray>
        <DataArray type="Int32" Name="offsets" format="ascii">
2 4 6 
        </DataArray>
        <DataArray type="UInt8" Name="types" format="ascii">
3 3 3 
        </DataArray>
      </Cells>
      <PointData>
        <DataArray type="Float64" Name="rho">
          9.39716552e-01 9.25807633e-01 9.13813590e-01 9.03507417e-01 
        </DataArray>
        <DataArray type="Float64" Name="rhou">
          2.63710380e-02 1.81906753e-02 1.60612296e-02 1.25931105e-02 
        </DataArray>
        <DataArray type="Float64" Name="rhov">
          7.45891770e-03 4.22072308e-03 3.70844848e-03 3.03224389e-03 
        </DataArray>
        <DataArray type="Float64" Name="E">
          2.13612504e+05 2.10316014e+05 2.07476834e+05 2.05039828e+05 
        </DataArray>
      </PointData>
    </Piece>
    <Piece NumberOfPoints="4" NumberOfCells="3">
      <Points>
        <DataArray type="Float64" NumberOfComponents="3" format="ascii">
          1.30701363e-01 5.12186773e-02 0.00000000e+00 
1.41019106e-01 5.24347536e-02 0.00000000e+00 
1.51350453e-01 5.35292812e-02 0.00000000e+00 
1.61692888e-01 5.45137413e-02 0.00000000e+00 

        </DataArray>
      </Points>
      <Cells>
        <DataArray type="Int32" Name="connectivity" format="ascii">
0 1
1 2
2 3

        </DataArray>
        <DataArray type="Int32" Name="offsets" format="ascii">
2 4 6 
        </DataArray>
        <DataArray type="UInt8" Name="types" format="ascii">
3 3 3 
        </DataArray>
      </Cells>
      <PointData>
        <DataArray type="Float64" Name="rho">
          9.03503916e-01 8.94458655e-01 8.86649300e-01 8.79967110e-01 
        </DataArray>
        <DataArray type="Float64" Name="rhou">
          1.39766033e-02 1.20781374e-02 1.00011919e-02 8.73404102e-03 
        </DataArray>
        <DataArray type="Float64" Name="rhov">
          3.53259867e-03 2.60012974e-03 1.81728228e-03 1.63750317e-03 
        </DataArray>
        <DataArray type="Float64" Name="E">
          2.05038987e+05 2.02903493e+05 2.01062189e+05 1.99488340e+05 
        </DataArray>
      </PointData>
    </Piece>
    <Piece NumberOfPoints="4" NumberOfCells="3">
      <Points>
        <DataArray type="Float64" NumberOfComponents="3" format="ascii">
          1.61692888e-01 5.45137413e-02 0.00000000e+00 
1.72044471e-01 5.53969070e-02 0.00000000e+00 
1.82403773e-01 5.61845005e-02 0.00000000e+00 
1.92769483e-01 5.68825118e-02 0.00000000e+00 

        </DataArray>
      </Points>
      <Cells>
        <DataArray type="Int32" Name="connectivity" format="ascii">
0 1
1 2
2 3

        </DataArray>
        <DataArray type="Int32" Name="offsets" format="ascii">
2 4 6 
        </DataArray>
        <DataArray type="UInt8" Name="types" format="ascii">
3 3 3 
        </DataArray>
      </Cells>
      <PointData>
        <DataArray type="Float64" Name="rho">
          8.79964702e-01 8.74214404e-01 8.69305129e-01 8.65184002e-01 
        </DataArray>
        <DataArray type="Float64" Name="rhou">
          8.77077490e-03 7.63796960e-03 6.60183598e-03 5.69770922e-03 
        </DataArray>
        <DataArray type="Float64" Name="rhov">
          1.68920004e-03 1.31965401e-03 9.36903524e-04 7.04752772e-04 
        </DataArray>
        <DataArray type="Float64" Name="E">
          1.99487800e+05 1.98135352e+05 1.96982698e+05 1.96016827e+05 
        </DataArray>
      </PointData>
    </Piece>
    <Piece NumberOfPoints="4" NumberOfCells="3">
      <Points>
        <DataArray type="Float64" NumberOfComponents="3" format="ascii">
          1.92769483e-01 5.68825118e-02 0.00000000e+00 
2.03140482e-01 5.74972220e-02 0.00000000e+00 
2.13515818e-01 5.80338500e-02 0.00000000e+00 
2.23894730e-01 5.84962890e-02 0.00000000e+00 

        </DataArray>
      </Points>
      <Cells>
        <DataArray type="Int32" Name="connectivity" format="ascii">
0 1
1 2
2 3

        </DataArray>
        <DataArray type="Int32" Name="offsets" format="ascii">
2 4 6 
        </DataArray>
        <DataArray type="UInt8" Name="types" format="ascii">
3 3 3 
        </DataArray>
      </Cells>
      <PointData>
        <DataArray type="Float64" Name="rho">
          8.65183312e-01 8.61770416e-01 8.58981721e-01 8.56758908e-01 
        </DataArray>
        <DataArray type="Float64" Name="rhou">
          5.73450805e-03 5.01146499e-03 4.45374485e-03 3.99236252e-03 
        </DataArray>
        <DataArray type="Float64" Name="rhov">
          7.46237804e-04 6.53137625e-04 5.34461780e-04 4.09024581e-04 
        </DataArray>
        <DataArray type="Float64" Name="E">
          1.96016668e+05 1.95218415e+05 1.94568000e+05 1.94051539e+05 
        </DataArray>
      </PointData>
    </Piece>
    <Piece NumberOfPoints="4" NumberOfCells="3">
      <Points>
        <DataArray type="Float64" NumberOfComponents="3" format="ascii">
          2.23894730e-01 5.84962890e-02 0.00000000e+00 
2.34276548e-01 5.88882305e-02 0.00000000e+00 
2.44660646e-01 5.92139624e-02 0.00000000e+00 
2.55046517e-01 5.94772622e-02 0.00000000e+00 

        </DataArray>
      </Points>
      <Cells>
        <DataArray type="Int32" Name="connectivity" format="ascii">
0 1
1 2
2 3

        </DataArray>
        <DataArray type="Int32" Name="offsets" format="ascii">
2 4 6 
        </DataArray>
        <DataArray type="UInt8" Name="types" format="ascii">
3 3 3 
        </DataArray>
      </Cells>
      <PointData>
        <DataArray type="Float64" Name="rho">
          8.56759480e-01 8.55060308e-01 8.53840393e-01 8.53044528e-01 
        </DataArray>
        <DataArray type="Float64" Name="rhou">
          3.99995057e-03 3.47737418e-03 3.09809467e-03 2.86803712e-03 
        </DataArray>
        <DataArray type="Float64" Name="rhov">
          4.23406129e-04 3.42944711e-04 3.23583266e-04 3.20357937e-04 
        </DataArray>
        <DataArray type="Float64" Name="E">
          1.94051670e+05 1.93658971e+05 1.93379442e+05 1.93200070e+05 
        </DataArray>
      </PointData>
    </Piece>
    <Piece NumberOfPoints="4" NumberOfCells="3">
      <Points>
        <DataArray type="Float64" NumberOfComponents="3" format="ascii">
          2.55046517e-01 5.94772622e-02 0.00000000e+00 
2.65433758e-01 5.96804135e-02 0.00000000e+00 
2.75821954e-01 5.98256700e-02 0.00000000e+00 
2.86210775e-01 5.99167012e-02 0.00000000e+00 

        </DataArray>
      </Points>
      <Cells>
        <DataArray type="Int32" Name="connectivity" format="ascii">
0 1
1 2
2 3

        </DataArray>
        <DataArray type="Int32" Name="offsets" format="ascii">
2 4 6 
        </DataArray>
        <DataArray type="UInt8" Name="types" format="ascii">
3 3 3 
        </DataArray>
      </Cells>
      <PointData>
        <DataArray type="Float64" Name="rho">
          8.53044540e-01 8.52624676e-01 8.52556378e-01 8.52819565e-01 
        </DataArray>
        <DataArray type="Float64" Name="rhou">
          2.86213604e-03 2.57465380e-03 2.27992045e-03 2.01566382e-03 
        </DataArray>
        <DataArray type="Float64" Name="rhov">
          3.31656833e-04 2.34348108e-04 1.74490063e-04 2.07072759e-04 
        </DataArray>
        <DataArray type="Float64" Name="E">
          1.93200077e+05 1.93109559e+05 1.93102037e+05 1.93172571e+05 
        </DataArray>
      </PointData>
    </Piece>
    <Piece NumberOfPoints="4" NumberOfCells="3">
      <Points>
        <DataArray type="Float64" NumberOfComponents="3" format="ascii">
          2.86210775e-01 5.99167012e-02 0.00000000e+00 
2.96599895e-01 5.99572174e-02 0.00000000e+00 
3.06989133e-01 5.99487796e-02 0.00000000e+00 
3.17378193e-01 5.98919280e-02 0.00000000e+00 

        </DataArray>
      </Points>
      <Cells>
        <DataArray type="Int32" Name="connectivity" format="ascii">
0 1
1 2
2 3

        </DataArray>
        <DataArray type="Int32" Name="offsets" format="ascii">
2 4 6 
        </DataArray>
        <DataArray type="UInt8" Name="types" format="ascii">
3 3 3 
        </DataArray>
      </Cells>
      <PointData>
        <DataArray type="Float64" Name="rho">
          8.52818542e-01 8.53364486e-01 8.54146776e-01 8.55150734e-01 
        </DataArray>
        <DataArray type="Float64" Name="rhou">
          2.03448836e-03 1.91860316e-03 1.79187089e-03 1.60968102e-03 
        </DataArray>
        <DataArray type="Float64" Name="rhov">
          2.23451479e-04 2.49564441e-04 1.94195247e-04 1.18813283e-04 
        </DataArray>
        <DataArray type="Float64" Name="E">
          1.93172339e+05 1.93309484e+05 1.93502506e+05 1.93747876e+05 
        </DataArray>
      </PointData>
    </Piece>
    <Piece NumberOfPoints="4" NumberOfCells="3">
      <Points>
        <DataArray type="Float64" NumberOfComponents="3" format="ascii">
          3.17378193e-01 5.98919280e-02 0.00000000e+00 
3.27766895e-01 5.97884916e-02 0.00000000e+00 
3.38155061e-01 5.96415885e-02 0.00000000e+00 
3.48542601e-01 5.94538599e-02 0.00000000e+00 

        </DataArray>
      </Points>
      <Cells>
        <DataArray type="Int32" Name="connectivity" format="ascii">
0 1
1 2
2 3

        </DataArray>
        <DataArray type="Int32" Name="offsets" format="ascii">
2 4 6 
        </DataArray>
        <DataArray type="UInt8" Name="types" format="ascii">
3 3 3 
        </DataArray>
      </Cells>
      <PointData>
        <DataArray type="Float64" Name="rho">
          8.55151082e-01 8.56364402e-01 8.57767317e-01 8.59327383e-01 
        </DataArray>
        <DataArray type="Float64" Name="rhou">
          1.63922502e-03 1.44264511e-03 1.32559618e-03 1.27907110e-03 
        </DataArray>
        <DataArray type="Float64" Name="rhov">
          1.26468669e-04 1.14376910e-04 1.39590853e-04 1.59922410e-04 
        </DataArray>
        <DataArray type="Float64" Name="E">
          1.93747955e+05 1.94042663e+05 1.94381996e+05 1.94758382e+05 
        </DataArray>
      </PointData>
    </Piece>
    <Piece NumberOfPoints="4" NumberOfCells="3">
      <Points>
        <DataArray type="Float64" NumberOfComponents="3" format="ascii">
          3.48542601e-01 5.94538599e-02 0.00000000e+00 
3.58929336e-01 5.92265576e-02 0.00000000e+00 
3.69315147e-01 5.89610897e-02 0.00000000e+00 
3.79699975e-01 5.86590059e-02 0.00000000e+00 

        </DataArray>
      </Points>
      <Cells>
        <DataArray type="Int32" Name="connectivity" format="ascii">
0 1
1 2
2 3

        </DataArray>
        <DataArray type="Int32" Name="offsets" format="ascii">
2 4 6 
        </DataArray>
        <DataArray type="UInt8" Name="types" format="ascii">
3 3 3 
        </DataArray>
      </Cells>
      <PointData>
        <DataArray type="Float64" Name="rho">
          8.59327631e-01 8.61019760e-01 8.62834673e-01 8.64752844e-01 
        </DataArray>
        <DataArray type="Float64" Name="rhou">
          1.29151195e-03 1.16735399e-03 1.07361627e-03 1.02571785e-03 
        </DataArray>
        <DataArray type="Float64" Name="rhov">
          1.56808470e-04 1.20290905e-04 1.12623895e-04 1.10934385e-04 
        </DataArray>
        <DataArray type="Float64" Name="E">
          1.94758439e+05 1.95166014e+05 1.95602528e+05 1.96063417e+05 
        </DataArray>
      </PointData>
    </Piece>
    <Piece NumberOfPoints="4" NumberOfCells="3">
      <Points>
        <DataArray type="Float64" NumberOfComponents="3" format="ascii">
          3.79699975e-01 5.86590059e-02 0.00000000e+00 
3.90083700e-01 5.83211333e-02 0.00000000e+00 
4.00466233e-01 5.79482466e-02 0.00000000e+00 
4.10847515e-01 5.75418957e-02 0.00000000e+00 

        </DataArray>
      </Points>
      <Cells>
        <DataArray type="Int32" Name="connectivity" format="ascii">
0 1
1 2
2 3

        </DataArray>
        <DataArray type="Int32" Name="offsets" format="ascii">
2 4 6 
        </DataArray>
        <DataArray type="UInt8" Name="types" format="ascii">
3 3 3 
        </DataArray>
      </Cells>
      <PointData>
        <DataArray type="Float64" Name="rho">
          8.64752855e-01 8.66757743e-01 8.68839743e-01 8.70992600e-01 
        </DataArray>
        <DataArray type="Float64" Name="rhou">
          1.01803186e-03 9.54106433e-04 8.75714958e-04 8.00015616e-04 
        </DataArray>
        <DataArray type="Float64" Name="rhov">
          1.13390257e-04 8.28668657e-05 5.99702292e-05 6.55118768e-05 
        </DataArray>
        <DataArray type="Float64" Name="E">
          1.96063420e+05 1.96544814e+05 1.97044438e+05 1.97560762e+05 
        </DataArray>
      </PointData>
    </Piece>
    <Piece NumberOfPoints="4" NumberOfCells="3">
      <Points>
        <DataArray type="Float64" NumberOfComponents="3" format="ascii">
          4.10847515e-01 5.75418957e-02 0.00000000e+00 
4.21227485e-01 5.71038015e-02 0.00000000e+00 
4.31606144e-01 5.66351078e-02 0.00000000e+00 
4.41983402e-01 5.61364293e-02 0.00000000e+00 

        </DataArray>
      </Points>
      <Cells>
        <DataArray type="Int32" Name="connectivity" format="ascii">
0 1
1 2
2 3

        </DataArray>
        <DataArray type="Int32" Name="offsets" format="ascii">
2 4 6 
        </DataArray>
        <DataArray type="UInt8" Name="types" format="ascii">
3 3 3 
        </DataArray>
      </Cells>
      <PointData>
        <DataArray type="Float64" Name="rho">
          8.70992398e-01 8.73200728e-01 8.75453071e-01 8.77739912e-01 
        </DataArray>
        <DataArray type="Float64" Name="rhou">
          8.16793420e-04 7.65756223e-04 7.27471787e-04 6.91048608e-04 
        </DataArray>
        <DataArray type="Float64" Name="rhov">
          6.89700729e-05 6.93492055e-05 5.99836018e-05 3.91454143e-05 
        </DataArray>
        <DataArray type="Float64" Name="E">
          1.97560717e+05 1.98090143e+05 1.98629990e+05 1.99178022e+05 
        </DataArray>
      </PointData>
    </Piece>
    <Piece NumberOfPoints="4" NumberOfCells="3">
      <Points>
        <DataArray type="Float64" NumberOfComponents="3" format="ascii">
          4.41983402e-01 5.61364293e-02 0.00000000e+00 
4.52359200e-01 5.56085743e-02 0.00000000e+00 
4.62733537e-01 5.50529286e-02 0.00000000e+00 
4.73106444e-01 5.44707514e-02 0.00000000e+00 

        </DataArray>
      </Points>
      <Cells>
        <DataArray type="Int32" Name="connectivity" format="ascii">
0 1
1 2
2 3

        </DataArray>
        <DataArray type="Int32" Name="offsets" format="ascii">
2 4 6 
        </DataArray>
        <DataArray type="UInt8" Name="types" format="ascii">
3 3 3 
        </DataArray>
      </Cells>
      <PointData>
        <DataArray type="Float64" Name="rho">
          8.77740056e-01 8.80057089e-01 8.82397956e-01 8.84754209e-01 
        </DataArray>
        <DataArray type="Float64" Name="rhou">
          6.88141558e-04 6.32883458e-04 5.93777073e-04 5.71275495e-04 
        </DataArray>
        <DataArray type="Float64" Name="rhov">
          3.98019871e-05 3.27109292e-05 3.36412029e-05 3.43589599e-05 
        </DataArray>
        <DataArray type="Float64" Name="E">
          1.99178055e+05 1.99733222e+05 2.00294009e+05 2.00858432e+05 
        </DataArray>
      </PointData>
    </Piece>
    <Piece NumberOfPoints="4" NumberOfCells="3">
      <Points>
        <DataArray type="Float64" NumberOfComponents="3" format="ascii">
          4.73106444e-01 5.44707514e-02 0.00000000e+00 
4.83477861e-01 5.38627952e-02 0.00000000e+00 
4.93847787e-01 5.32294959e-02 0.00000000e+00 
5.04216135e-01 5.25716618e-02 0.00000000e+00 

        </DataArray>
      </Points>
      <Cells>
        <DataArray type="Int32" Name="connectivity" format="ascii">
0 1
1 2
2 3

        </DataArray>
        <DataArray type="Int32" Name="offsets" format="ascii">
2 4 6 
        </DataArray>
        <DataArray type="UInt8" Name="types" format="ascii">
3 3 3 
        </DataArray>
      </Cells>
      <PointData>
        <DataArray type="Float64" Name="rho">
          8.84754195e-01 8.87118971e-01 8.89486876e-01 8.91856771e-01 
        </DataArray>
        <DataArray type="Float64" Name="rhou">
          5.63689134e-04 5.43809193e-04 5.09678232e-04 4.68889951e-04 
        </DataArray>
        <DataArray type="Float64" Name="rhov">
          3.61953767e-05 2.51969393e-05 1.06972546e-05 8.55982257e-06 
        </DataArray>
        <DataArray type="Float64" Name="E">
          2.00858430e+05 2.01424875e+05 2.01992071e+05 2.02559710e+05 
        </DataArray>
      </PointData>
    </Piece>
    <Piece NumberOfPoints="4" NumberOfCells="3">
      <Points>
        <DataArray type="Float64" NumberOfComponents="3" format="ascii">
          5.04216135e-01 5.25716618e-02 0.00000000e+00 
5.14582992e-01 5.18903993e-02 0.00000000e+00 
5.24948359e-01 5.11864908e-02 0.00000000e+00 
5.35312176e-01 5.04603274e-02 0.00000000e+00 

        </DataArray>
      </Points>
      <Cells>
        <DataArray type="Int32" Name="connectivity" format="ascii">
0 1
1 2
2 3

        </DataArray>
        <DataArray type="Int32" Name="offsets" format="ascii">
2 4 6 
        </DataArray>
        <DataArray type="UInt8" Name="types" format="ascii">
3 3 3 
        </DataArray>
      </Cells>
      <PointData>
        <DataArray type="Float64" Name="rho">
          8.91856684e-01 8.94223072e-01 8.96581381e-01 8.98928009e-01 
        </DataArray>
        <DataArray type="Float64" Name="rhou">
          4.77577005e-04 4.52560765e-04 4.34071850e-04 4.15926541e-04 
        </DataArray>
        <DataArray type="Float64" Name="rhov">
          1.07404151e-05 1.08682342e-05 5.85769550e-06 -5.67432142e-06 
        </DataArray>
        <DataArray type="Float64" Name="E">
          2.02559691e+05 2.03126479e+05 2.03691341e+05 2.04253425e+05 
        </DataArray>
      </PointData>
    </Piece>
    <Piece NumberOfPoints="4" NumberOfCells="3">
      <Points>
        <DataArray type="Float64" NumberOfComponents="3" format="ascii">
          5.35312176e-01 5.04603274e-02 0.00000000e+00 
5.45674443e-01 4.97124642e-02 0.00000000e+00 
5.56035221e-01 4.89437394e-02 0.00000000e+00 
5.66394389e-01 4.81546782e-02 0.00000000e+00 

        </DataArray>
      </Points>
      <Cells>
        <DataArray type="Int32" Name="connectivity" format="ascii">
0 1
1 2
2 3

        </DataArray>
        <DataArray type="Int32" Name="offsets" format="ascii">
2 4 6 
        </DataArray>
        <DataArray type="UInt8" Name="types" format="ascii">
3 3 3 
        </DataArray>
      </Cells>
      <PointData>
        <DataArray type="Float64" Name="rho">
          8.98928054e-01 9.01262226e-01 9.03580890e-01 9.05881019e-01 
        </DataArray>
        <DataArray type="Float64" Name="rhou">
          4.11629933e-04 3.86285084e-04 3.69076566e-04 3.58619739e-04 
        </DataArray>
        <DataArray type="Float64" Name="rhov">
          -5.39797526e-06 -5.75988094e-06 -6.16723139e-06 -1.01683097e-05 
        </DataArray>
        <DataArray type="Float64" Name="E">
          2.04253436e+05 2.04812535e+05 2.05367929e+05 2.05918906e+05 
        </DataArray>
      </PointData>
    </Piece>
    <Piece NumberOfPoints="4" NumberOfCells="3">
      <Points>
        <DataArray type="Float64" NumberOfComponents="3" format="ascii">
          5.66394389e-01 4.81546782e-02 0.00000000e+00 
5.76752067e-01 4.73455116e-02 0.00000000e+00 
5.87108195e-01 4.65166979e-02 0.00000000e+00 
5.97462773e-01 4.56690118e-02 0.00000000e+00 

        </DataArray>
      </Points>
      <Cells>
        <DataArray type="Int32" Name="connectivity" format="ascii">
0 1
1 2
2 3

        </DataArray>
        <DataArray type="Int32" Name="offsets" format="ascii">
2 4 6 
        </DataArray>
        <DataArray type="UInt8" Name="types" format="ascii">
3 3 3 
        </DataArray>
      </Cells>
      <PointData>
        <DataArray type="Float64" Name="rho">
          9.05881049e-01 9.08160825e-01 9.10419809e-01 9.12656965e-01 
        </DataArray>
        <DataArray type="Float64" Name="rhou">
          3.57908879e-04 3.38596833e-04 3.18574921e-04 3.03687196e-04 
        </DataArray>
        <DataArray type="Float64" Name="rhov">
          -9.83905028e-06 -1.83613959e-05 -2.17883100e-05 -2.04619376e-05 
        </DataArray>
        <DataArray type="Float64" Name="E">
          2.05918913e+05 2.06465042e+05 2.07006205e+05 2.07542150e+05 
        </DataArray>
      </PointData>
    </Piece>
    <Piece NumberOfPoints="4" NumberOfCells="3">
      <Points>
        <DataArray type="Float64" NumberOfComponents="3" format="ascii">
          5.97462773e-01 4.56690118e-02 0.00000000e+00 
6.07815862e-01 4.48031016e-02 0.00000000e+00 
6.18167400e-01 4.39192392e-02 0.00000000e+00 
6.28517449e-01 4.30175588e-02 0.00000000e+00 

        </DataArray>
      </Points>
      <Cells>
        <DataArray type="Int32" Name="connectivity" format="ascii">
0 1
1 2
2 3

        </DataArray>
        <DataArray type="Int32" Name="offsets" format="ascii">
2 4 6 
        </DataArray>
        <DataArray type="UInt8" Name="types" format="ascii">
3 3 3 
        </DataArray>
      </Cells>
      <PointData>
        <DataArray type="Float64" Name="rho">
          9.12656902e-01 9.14870217e-01 9.17057759e-01 9.19219588e-01 
        </DataArray>
        <DataArray type="Float64" Name="rhou">
          3.01670025e-04 2.94059822e-04 2.83063223e-04 2.66774464e-04 
        </DataArray>
        <DataArray type="Float64" Name="rhov">
          -1.95387830e-05 -1.99449428e-05 -2.56441714e-05 -3.11559686e-05 
        </DataArray>
        <DataArray type="Float64" Name="E">
          2.07542136e+05 2.08072393e+05 2.08596514e+05 2.09114506e+05 
        </DataArray>
      </PointData>
    </Piece>
    <Piece NumberOfPoints="4" NumberOfCells="3">
      <Points>
        <DataArray type="Float64" NumberOfComponents="3" format="ascii">
          6.28517449e-01 4.30175588e-02 0.00000000e+00 
6.38865948e-01 4.20984775e-02 0.00000000e+00 
6.49212897e-01 4.11624312e-02 0.00000000e+00 
6.59558356e-01 4.02097441e-02 0.00000000e+00 

        </DataArray>
      </Points>
      <Cells>
        <DataArray type="Int32" Name="connectivity" format="ascii">
0 1
1 2
2 3

        </DataArray>
        <DataArray type="Int32" Name="offsets" format="ascii">
2 4 6 
        </DataArray>
        <DataArray type="UInt8" Name="types" format="ascii">
3 3 3 
        </DataArray>
      </Cells>
      <PointData>
        <DataArray type="Float64" Name="rho">
          9.19219580e-01 9.21355434e-01 9.23464391e-01 9.25546069e-01 
        </DataArray>
        <DataArray type="Float64" Name="rhou">
          2.67691891e-04 2.55695603e-04 2.45506469e-04 2.34498014e-04 
        </DataArray>
        <DataArray type="Float64" Name="rhov">
          -3.01369961e-05 -3.09556019e-05 -3.30109691e-05 -3.54994537e-05 
        </DataArray>
        <DataArray type="Float64" Name="E">
          2.09114504e+05 2.09626301e+05 2.10131689e+05 2.10630579e+05 
        </DataArray>
      </PointData>
    </Piece>
    <Piece NumberOfPoints="4" NumberOfCells="3">
      <Points>
        <DataArray type="Float64" NumberOfComponents="3" format="ascii">
          6.59558356e-01 4.02097441e-02 0.00000000e+00 
6.69902325e-01 3.92407738e-02 0.00000000e+00 
6.80244744e-01 3.82556282e-02 0.00000000e+00 
6.90585554e-01 3.72543521e-02 0.00000000e+00 

        </DataArray>
      </Points>
      <Cells>
        <DataArray type="Int32" Name="connectivity" format="ascii">
0 1
1 2
2 3

        </DataArray>
        <DataArray type="Int32" Name="offsets" format="ascii">
2 4 6 
        </DataArray>
        <DataArray type="UInt8" Name="types" format="ascii">
3 3 3 
        </DataArray>
      </Cells>
      <PointData>
        <DataArray type="Float64" Name="rho">
          9.25546052e-01 9.27600413e-01 9.29626266e-01 9.31624398e-01 
        </DataArray>
        <DataArray type="Float64" Name="rhou">
          2.31156608e-04 2.26793522e-04 2.18677698e-04 2.04438870e-04 
        </DataArray>
        <DataArray type="Float64" Name="rhov">
          -3.44546091e-05 -3.46822988e-05 -3.95557374e-05 -4.36426010e-05 
        </DataArray>
        <DataArray type="Float64" Name="E">
          2.10630576e+05 2.11122958e+05 2.11608563e+05 2.12087570e+05 
        </DataArray>
      </PointData>
    </Piece>
    <Piece NumberOfPoints="4" NumberOfCells="3">
      <Points>
        <DataArray type="Float64" NumberOfComponents="3" format="ascii">
          6.90585554e-01 3.72543521e-02 0.00000000e+00 
7.00924933e-01 3.62373814e-02 0.00000000e+00 
7.11262703e-01 3.52048986e-02 0.00000000e+00 
7.21598923e-01 3.41568366e-02 0.00000000e+00 

        </DataArray>
      </Points>
      <Cells>
        <DataArray type="Int32" Name="connectivity" format="ascii">
0 1
1 2
2 3

        </DataArray>
        <DataArray type="Int32" Name="offsets" format="ascii">
2 4 6 
        </DataArray>
        <DataArray type="UInt8" Name="types" format="ascii">
3 3 3 
        </DataArray>
      </Cells>
      <PointData>
        <DataArray type="Float64" Name="rho">
          9.31624355e-01 9.33595187e-01 9.35537502e-01 9.37451976e-01 
        </DataArray>
        <DataArray type="Float64" Name="rhou">
          2.02946210e-04 1.98196444e-04 1.93189657e-04 1.80186369e-04 
        </DataArray>
        <DataArray type="Float64" Name="rhov">
          -4.25086374e-05 -4.03054797e-05 -4.41391809e-05 -4.94599171e-05 
        </DataArray>
        <DataArray type="Float64" Name="E">
          2.12087561e+05 2.12560068e+05 2.13025801e+05 2.13484917e+05 
        </DataArray>
      </PointData>
    </Piece>
    <Piece NumberOfPoints="4" NumberOfCells="3">
      <Points>
        <DataArray type="Float64" NumberOfComponents="3" format="ascii">
          7.21598923e-01 3.41568366e-02 0.00000000e+00 
7.31933594e-01 3.30936089e-02 0.00000000e+00 
7.42266715e-01 3.20154354e-02 0.00000000e+00 
7.52598286e-01 3.09220124e-02 0.00000000e+00 

        </DataArray>
      </Points>
      <Cells>
        <DataArray type="Int32" Name="connectivity" format="ascii">
0 1
1 2
2 3

        </DataArray>
        <DataArray type="Int32" Name="offsets" format="ascii">
2 4 6 
        </DataArray>
        <DataArray type="UInt8" Name="types" format="ascii">
3 3 3 
        </DataArray>
      </Cells>
      <PointData>
        <DataArray type="Float64" Name="rho">
          9.37451956e-01 9.39339683e-01 9.41199328e-01 9.43031476e-01 
        </DataArray>
        <DataArray type="Float64" Name="rhou">
          1.77400417e-04 1.73221156e-04 1.70235290e-04 1.59585250e-04 
        </DataArray>
        <DataArray type="Float64" Name="rhov">
          -4.84700223e-05 -4.42890584e-05 -4.71105392e-05 -5.28813465e-05 
        </DataArray>
        <DataArray type="Float64" Name="E">
          2.13484912e+05 2.13937662e+05 2.14383745e+05 2.14823297e+05 
        </DataArray>
      </PointData>
    </Piece>
    <Piece NumberOfPoints="4" NumberOfCells="3">
      <Points>
        <DataArray type="Float64" NumberOfComponents="3" format="ascii">
          7.52598286e-01 3.09220124e-02 0.00000000e+00 
7.62928188e-01 2.98135038e-02 0.00000000e+00 
7.73256481e-01 2.86899786e-02 0.00000000e+00 
7.83583105e-01 2.75512449e-02 0.00000000e+00 

        </DataArray>
      </Points>
      <Cells>
        <DataArray type="Int32" Name="connectivity" format="ascii">
0 1
1 2
2 3

        </DataArray>
        <DataArray type="Int32" Name="offsets" format="ascii">
2 4 6 
        </DataArray>
        <DataArray type="UInt8" Name="types" format="ascii">
3 3 3 
        </DataArray>
      </Cells>
      <PointData>
        <DataArray type="Float64" Name="rho">
          9.43031471e-01 9.44837374e-01 9.46616277e-01 9.48368987e-01 
        </DataArray>
        <DataArray type="Float64" Name="rhou">
          1.56879916e-04 1.52743354e-04 1.48385407e-04 1.38305611e-04 
        </DataArray>
        <DataArray type="Float64" Name="rhov">
          -5.19379757e-05 -5.00347742e-05 -5.28334350e-05 -5.67125731e-05 
        </DataArray>
        <DataArray type="Float64" Name="E">
          2.14823296e+05 2.15256606e+05 2.15683502e+05 2.16104166e+05 
        </DataArray>
      </PointData>
    </Piece>
    <Piece NumberOfPoints="4" NumberOfCells="3">
      <Points>
        <DataArray type="Float64" NumberOfComponents="3" format="ascii">
          7.83583105e-01 2.75512449e-02 0.00000000e+00 
7.93908060e-01 2.63975188e-02 0.00000000e+00 
8.04231405e-01 2.52291560e-02 0.00000000e+00 
8.14553022e-01 2.40457114e-02 0.00000000e+00 

        </DataArray>
      </Points>
      <Cells>
        <DataArray type="Int32" Name="connectivity" format="ascii">
0 1
1 2
2 3

        </DataArray>
        <DataArray type="Int32" Name="offsets" format="ascii">
2 4 6 
        </DataArray>
        <DataArray type="UInt8" Name="types" format="ascii">
3 3 3 
        </DataArray>
      </Cells>
      <PointData>
        <DataArray type="Float64" Name="rho">
          9.48368993e-01 9.50096403e-01 9.51798536e-01 9.53474846e-01 
        </DataArray>
        <DataArray type="Float64" Name="rhou">
          1.40924280e-04 1.29290914e-04 1.27539206e-04 1.27850682e-04 
        </DataArray>
        <DataArray type="Float64" Name="rhov">
          -5.70716560e-05 -5.37427352e-05 -5.29562824e-05 -6.01944180e-05 
        </DataArray>
        <DataArray type="Float64" Name="E">
          2.16104167e+05 2.16518801e+05 2.16927404e+05 2.17329845e+05 
        </DataArray>
      </PointData>
    </Piece>
    <Piece NumberOfPoints="4" NumberOfCells="3">
      <Points>
        <DataArray type="Float64" NumberOfComponents="3" format="ascii">
          8.14553022e-01 2.40457114e-02 0.00000000e+00 
8.24872792e-01 2.28467938e-02 0.00000000e+00 
8.35190892e-01 2.16327831e-02 0.00000000e+00 
8.45507145e-01 2.04038676e-02 0.00000000e+00 

        </DataArray>
      </Points>
      <Cells>
        <DataArray type="Int32" Name="connectivity" format="ascii">
0 1
1 2
2 3

        </DataArray>
        <DataArray type="Int32" Name="offsets" format="ascii">
2 4 6 
        </DataArray>
        <DataArray type="UInt8" Name="types" format="ascii">
3 3 3 
        </DataArray>
      </Cells>
      <PointData>
        <DataArray type="Float64" Name="rho">
          9.53474891e-01 9.55127234e-01 9.56756065e-01 9.58361706e-01 
        </DataArray>
        <DataArray type="Float64" Name="rhou">
          1.21729288e-04 1.12306399e-04 1.04072529e-04 1.03686178e-04 
        </DataArray>
        <DataArray type="Float64" Name="rhov">
          -6.04437059e-05 -6.08912456e-05 -5.84573129e-05 -5.48021883e-05 
        </DataArray>
        <DataArray type="Float64" Name="E">
          2.17329855e+05 2.17726544e+05 2.18117565e+05 2.18502970e+05 
        </DataArray>
      </PointData>
    </Piece>
    <Piece NumberOfPoints="4" NumberOfCells="3">
      <Points>
        <DataArray type="Float64" NumberOfComponents="3" format="ascii">
          8.45507145e-01 2.04038676e-02 0.00000000e+00 
8.55821550e-01 1.91591792e-02 0.00000000e+00 
8.66134048e-01 1.78987328e-02 0.00000000e+00 
8.76444638e-01 1.66228991e-02 0.00000000e+00 

        </DataArray>
      </Points>
      <Cells>
        <DataArray type="Int32" Name="connectivity" format="ascii">
0 1
1 2
2 3

        </DataArray>
        <DataArray type="Int32" Name="offsets" format="ascii">
2 4 6 
        </DataArray>
        <DataArray type="UInt8" Name="types" format="ascii">
3 3 3 
        </DataArray>
      </Cells>
      <PointData>
        <DataArray type="Float64" Name="rho">
          9.58361823e-01 9.59943030e-01 9.61504072e-01 9.63041547e-01 
        </DataArray>
        <DataArray type="Float64" Name="rhou">
          1.26104589e-04 9.20500275e-05 8.92866631e-05 1.04848766e-04 
        </DataArray>
        <DataArray type="Float64" Name="rhov">
          -5.85781417e-05 -6.68767104e-05 -6.45303807e-05 -8.34131856e-05 
        </DataArray>
        <DataArray type="Float64" Name="E">
          2.18502996e+05 2.18882471e+05 2.19256947e+05 2.19625602e+05 
        </DataArray>
      </PointData>
    </Piece>
    <Piece NumberOfPoints="4" NumberOfCells="3">
      <Points>
        <DataArray type="Float64" NumberOfComponents="3" format="ascii">
          8.76444638e-01 1.66228991e-02 0.00000000e+00 
8.86753201e-01 1.53310820e-02 0.00000000e+00 
8.97059798e-01 1.40233757e-02 0.00000000e+00 
9.07364249e-01 1.26988320e-02 0.00000000e+00 

        </DataArray>
      </Points>
      <Cells>
        <DataArray type="Int32" Name="connectivity" format="ascii">
0 1
1 2
2 3

        </DataArray>
        <DataArray type="Int32" Name="offsets" format="ascii">
2 4 6 
        </DataArray>
        <DataArray type="UInt8" Name="types" format="ascii">
3 3 3 
        </DataArray>
      </Cells>
      <PointData>
        <DataArray type="Float64" Name="rho">
          9.63041074e-01 9.64562222e-01 9.66059455e-01 9.67552759e-01 
        </DataArray>
        <DataArray type="Float64" Name="rhou">
          8.03311043e-06 1.03702672e-04 4.41558717e-05 -1.29959818e-05 
        </DataArray>
        <DataArray type="Float64" Name="rhov">
          -7.50625490e-05 -7.87212423e-05 -9.87954506e-05 5.32037452e-06 
        </DataArray>
        <DataArray type="Float64" Name="E">
          2.19625494e+05 2.19989922e+05 2.20348326e+05 2.20705195e+05 
        </DataArray>
      </PointData>
    </Piece>
    <Piece NumberOfPoints="4" NumberOfCells="3">
      <Points>
        <DataArray type="Float64" NumberOfComponents="3" format="ascii">
          9.07364249e-01 1.26988320e-02 0.00000000e+00 
9.17666554e-01 1.13577880e-02 0.00000000e+00 
9.27966774e-01 1.00004105e-02 0.00000000e+00 
9.38264549e-01 8.62528384e-03 0.00000000e+00 

        </DataArray>
      </Points>
      <Cells>
        <DataArray type="Int32" Name="connectivity" format="ascii">
0 1
1 2
2 3

        </DataArray>
        <DataArray type="Int32" Name="offsets" format="ascii">
2 4 6 
        </DataArray>
        <DataArray type="UInt8" Name="types" format="ascii">
3 3 3 
        </DataArray>
      </Cells>
      <PointData>
        <DataArray type="Float64" Name="rho">
          9.67557877e-01 9.69003123e-01 9.70477394e-01 9.71801634e-01 
        </DataArray>
        <DataArray type="Float64" Name="rhou">
          8.39465950e-04 -2.23356581e-04 3.55817209e-04 8.01893968e-04 
        </DataArray>
        <DataArray type="Float64" Name="rhov">
          -6.77239611e-05 -1.22985072e-04 -4.76659239e-05 -1.53989503e-03 
        </DataArray>
        <DataArray type="Float64" Name="E">
          2.20706362e+05 2.21051558e+05 2.21402596e+05 2.21718587e+05 
        </DataArray>
      </PointData>
    </Piece>
    <Piece NumberOfPoints="4" NumberOfCells="3">
      <Points>
        <DataArray type="Float64" NumberOfComponents="3" format="ascii">
          9.38264549e-01 8.62528384e-03 0.00000000e+00 
9.48560059e-01 7.23283459e-03 0.00000000e+00 
9.58853185e-01 5.82307298e-03 0.00000000e+00 
9.69143867e-01 4.39538015e-03 0.00000000e+00 

        </DataArray>
      </Points>
      <Cells>
        <DataArray type="Int32" Name="connectivity" format="ascii">
0 1
1 2
2 3

        </DataArray>
        <DataArray type="Int32" Name="offsets" format="ascii">
2 4 6 
        </DataArray>
        <DataArray type="UInt8" Name="types" format="ascii">
3 3 3 
        </DataArray>
      </Cells>
      <PointData>
        <DataArray type="Float64" Name="rho">
          9.71751647e-01 9.73416937e-01 9.74654492e-01 9.77418073e-01 
        </DataArray>
        <DataArray type="Float64" Name="rhou">
          -7.03766711e-03 2.24811872e-03 -3.32290425e-03 -1.99749122e-02 
        </DataArray>
        <DataArray type="Float64" Name="rhov">
          -1.14749845e-03 1.37277614e-04 -1.19630081e-03 1.98994652e-02 
        </DataArray>
        <DataArray type="Float64" Name="E">
          2.21707183e+05 2.22100141e+05 2.22394715e+05 2.23036747e+05 
        </DataArray>
      </PointData>
    </Piece>
    <Piece NumberOfPoints="4" NumberOfCells="3">
      <Points>
        <DataArray type="Float64" NumberOfComponents="3" format="ascii">
          9.69143867e-01 4.39538015e-03 0.00000000e+00 
9.79435980e-01 2.94816052e-03 0.00000000e+00 
9.89725590e-01 1.48259092e-03 0.00000000e+00 
1.00000000e+00 0.00000000e+00 0.00000000e+00 

        </DataArray>
      </Points>
      <Cells>
        <DataArray type="Int32" Name="connectivity" format="ascii">
0 1
1 2
2 3

        </DataArray>
        <DataArray type="Int32" Name="offsets" format="ascii">
2 4 6 
        </DataArray>
        <DataArray type="UInt8" Name="types" format="ascii">
3 3 3 
        </DataArray>
      </Cells>
      <PointData>
        <DataArray type="Float64" Name="rho">
          9.77726299e-01 9.77261356e-01 9.81235292e-01 9.70858524e-01 
        </DataArray>
        <DataArray type="Float64" Name="rhou">
          -1.56570510e-03 -1.00375097e-02 -3.94380520e-02 5.22393245e-01 
        </DataArray>
        <DataArray type="Float64" Name="rhov">
          2.23187040e-02 1.01630194e-03 5.49735073e-02 -1.44606808e-01 
        </DataArray>
        <DataArray type="Float64" Name="E">
          2.23107401e+05 2.23011487e+05 2.23927618e+05 2.21560619e+05 
        </DataArray>
      </PointData>
    </Piece>
    <Piece NumberOfPoints="4" NumberOfCells="3">
      <Points>
        <DataArray type="Float64" NumberOfComponents="3" format="ascii">
          9.69029665e-01 -4.41133138e-03 0.00000000e+00 
9.79355037e-01 -2.95961346e-03 0.00000000e+00 
9.89677846e-01 -1.48943183e-03 0.00000000e+00 
1.00000000e+00 0.00000000e+00 0.00000000e+00 

        </DataArray>
      </Points>
      <Cells>
        <DataArray type="Int32" Name="connectivity" format="ascii">
0 1
1 2
2 3

        </DataArray>
        <DataArray type="Int32" Name="offsets" format="ascii">
2 4 6 
        </DataArray>
        <DataArray type="UInt8" Name="types" format="ascii">
3 3 3 
        </DataArray>
      </Cells>
      <PointData>
        <DataArray type="Float64" Name="rho">
          9.76964842e-01 9.76497435e-01 9.80353008e-01 9.71084874e-01 
        </DataArray>
        <DataArray type="Float64" Name="rhou">
          -9.28816771e-04 -7.95209123e-03 -3.74337561e-02 4.82407821e-01 
        </DataArray>
        <DataArray type="Float64" Name="rhov">
          -2.46843857e-02 2.21781813e-03 -5.13521802e-02 1.50596479e-01 
        </DataArray>
        <DataArray type="Float64" Name="E">
          2.22859159e+05 2.22772299e+05 2.23675268e+05 2.21599480e+05 
        </DataArray>
      </PointData>
    </Piece>
    <Piece NumberOfPoints="4" NumberOfCells="3">
      <Points>
        <DataArray type="Float64" NumberOfComponents="3" format="ascii">
          9.38035965e-01 -8.65600072e-03 0.00000000e+00 
9.48369622e-01 -7.25875143e-03 0.00000000e+00 
9.58700895e-01 -5.84406452e-03 0.00000000e+00 
9.69029665e-01 -4.41133138e-03 0.00000000e+00 

        </DataArray>
      </Points>
      <Cells>
        <DataArray type="Int32" Name="connectivity" format="ascii">
0 1
1 2
2 3

        </DataArray>
        <DataArray type="Int32" Name="offsets" format="ascii">
2 4 6 
        </DataArray>
        <DataArray type="UInt8" Name="types" format="ascii">
3 3 3 
        </DataArray>
      </Cells>
      <PointData>
        <DataArray type="Float64" Name="rho">
          9.71243872e-01 9.72843083e-01 9.74020189e-01 9.76657052e-01 
        </DataArray>
        <DataArray type="Float64" Name="rhou">
          -6.67186339e-03 2.41376068e-03 -2.76800840e-03 -1.80044985e-02 
        </DataArray>
        <DataArray type="Float64" Name="rhov">
          1.16033433e-03 -1.78317111e-04 1.42095532e-03 -1.84014171e-02 
        </DataArray>
        <DataArray type="Float64" Name="E">
          2.21507675e+05 2.21887204e+05 2.22171184e+05 2.22789338e+05 
        </DataArray>
      </PointData>
    </Piece>
    <Piece NumberOfPoints="4" NumberOfCells="3">
      <Points>
        <DataArray type="Float64" NumberOfComponents="3" format="ascii">
          9.07021165e-01 -1.27432076e-02 0.00000000e+00 
9.17361677e-01 -1.13977119e-02 0.00000000e+00 
9.27700043e-01 -1.00357840e-02 0.00000000e+00 
9.38035965e-01 -8.65600072e-03 0.00000000e+00 

        </DataArray>
      </Points>
      <Cells>
        <DataArray type="Int32" Name="connectivity" format="ascii">
0 1
1 2
2 3

        </DataArray>
        <DataArray type="Int32" Name="offsets" format="ascii">
2 4 6 
        </DataArray>
        <DataArray type="UInt8" Name="types" format="ascii">
3 3 3 
        </DataArray>
      </Cells>
      <PointData>
        <DataArray type="Float64" Name="rho">
          9.67232827e-01 9.68613208e-01 9.70026071e-01 9.71292847e-01 
        </DataArray>
        <DataArray type="Float64" Name="rhou">
          9.65186480e-04 -8.00816867e-05 5.11081583e-04 9.22336011e-04 
        </DataArray>
        <DataArray type="Float64" Name="rhov">
          5.62256506e-05 8.52759393e-05 -6.78073814e-06 1.45952392e-03 
        </DataArray>
        <DataArray type="Float64" Name="E">
          2.20549243e+05 2.20878608e+05 2.21215342e+05 2.21518835e+05 
        </DataArray>
      </PointData>
    </Piece>
    <Piece NumberOfPoints="4" NumberOfCells="3">
      <Points>
        <DataArray type="Float64" NumberOfComponents="3" format="ascii">
          8.75986874e-01 -1.66798849e-02 0.00000000e+00 
8.86333704e-01 -1.53839625e-02 0.00000000e+00 
8.96678507e-01 -1.40720531e-02 0.00000000e+00 
9.07021165e-01 -1.27432076e-02 0.00000000e+00 

        </DataArray>
      </Points>
      <Cells>
        <DataArray type="Int32" Name="connectivity" format="ascii">
0 1
1 2
2 3

        </DataArray>
        <DataArray type="Int32" Name="offsets" format="ascii">
2 4 6 
        </DataArray>
        <DataArray type="UInt8" Name="types" format="ascii">
3 3 3 
        </DataArray>
      </Cells>
      <PointData>
        <DataArray type="Float64" Name="rho">
          9.62968775e-01 9.64396023e-01 9.65809883e-01 9.67227686e-01 
        </DataArray>
        <DataArray type="Float64" Name="rhou">
          1.61644408e-04 2.44290375e-04 1.92193651e-04 1.36095309e-04 
        </DataArray>
        <DataArray type="Float64" Name="rhov">
          7.55895358e-05 6.71906607e-05 8.31396270e-05 -1.60607495e-05 
        </DataArray>
        <DataArray type="Float64" Name="E">
          2.19532620e+05 2.19872937e+05 2.20210102e+05 2.20548073e+05 
        </DataArray>
      </PointData>
    </Piece>
    <Piece NumberOfPoints="4" NumberOfCells="3">
      <Points>
        <DataArray type="Float64" NumberOfComponents="3" format="ascii">
          8.44934702e-01 -2.04724707e-02 0.00000000e+00 
8.55287313e-01 -1.92240477e-02 0.00000000e+00 
8.65638077e-01 -1.79597028e-02 0.00000000e+00 
8.75986874e-01 -1.66798849e-02 0.00000000e+00 

        </DataArray>
      </Points>
      <Cells>
        <DataArray type="Int32" Name="connectivity" format="ascii">
0 1
1 2
2 3

        </DataArray>
        <DataArray type="Int32" Name="offsets" format="ascii">
2 4 6 
        </DataArray>
        <DataArray type="UInt8" Name="types" format="ascii">
3 3 3 
        </DataArray>
      </Cells>
      <PointData>
        <DataArray type="Float64" Name="rho">
          9.58647923e-01 9.60095246e-01 9.61538130e-01 9.62969220e-01 
        </DataArray>
        <DataArray type="Float64" Name="rhou">
          3.04824433e-04 2.42820203e-04 2.28880565e-04 2.66377837e-04 
        </DataArray>
        <DataArray type="Float64" Name="rhov">
          4.81513032e-05 6.95893620e-05 5.92983888e-05 7.88619003e-05 
        </DataArray>
        <DataArray type="Float64" Name="E">
          2.18502158e+05 2.18847348e+05 2.19191429e+05 2.19532722e+05 
        </DataArray>
      </PointData>
    </Piece>
    <Piece NumberOfPoints="4" NumberOfCells="3">
      <Points>
        <DataArray type="Float64" NumberOfComponents="3" format="ascii">
          8.13865662e-01 -2.41250079e-02 0.00000000e+00 
8.24223816e-01 -2.29226518e-02 0.00000000e+00 
8.34580123e-01 -2.17050612e-02 0.00000000e+00 
8.44934702e-01 -2.04724707e-02 0.00000000e+00 

        </DataArray>
      </Points>
      <Cells>
        <DataArray type="Int32" Name="connectivity" format="ascii">
0 1
1 2
2 3

        </DataArray>
        <DataArray type="Int32" Name="offsets" format="ascii">
2 4 6 
        </DataArray>
        <DataArray type="UInt8" Name="types" format="ascii">
3 3 3 
        </DataArray>
      </Cells>
      <PointData>
        <DataArray type="Float64" Name="rho">
          9.54244628e-01 9.55719928e-01 9.57187818e-01 9.58647687e-01 
        </DataArray>
        <DataArray type="Float64" Name="rhou">
          2.83567409e-04 2.66907507e-04 2.50059581e-04 2.54323153e-04 
        </DataArray>
        <DataArray type="Float64" Name="rhov">
          5.80082104e-05 5.93067221e-05 5.21935782e-05 4.04277426e-05 
        </DataArray>
        <DataArray type="Float64" Name="E">
          2.17452028e+05 2.17803888e+05 2.18153959e+05 2.18502104e+05 
        </DataArray>
      </PointData>
    </Piece>
    <Piece NumberOfPoints="4" NumberOfCells="3">
      <Points>
        <DataArray type="Float64" NumberOfComponents="3" format="ascii">
          7.82780826e-01 -2.76402626e-02 0.00000000e+00 
7.93144107e-01 -2.64833923e-02 0.00000000e+00 
8.03505778e-01 -2.53117718e-02 0.00000000e+00 
8.13865662e-01 -2.41250079e-02 0.00000000e+00 

        </DataArray>
      </Points>
      <Cells>
        <DataArray type="Int32" Name="connectivity" format="ascii">
0 1
1 2
2 3

        </DataArray>
        <DataArray type="Int32" Name="offsets" format="ascii">
2 4 6 
        </DataArray>
        <DataArray type="UInt8" Name="types" format="ascii">
3 3 3 
        </DataArray>
      </Cells>
      <PointData>
        <DataArray type="Float64" Name="rho">
          9.49768022e-01 9.51268720e-01 9.52761799e-01 9.54244518e-01 
        </DataArray>
        <DataArray type="Float64" Name="rhou">
          3.07473199e-04 2.85393672e-04 2.84060735e-04 2.92762647e-04 
        </DataArray>
        <DataArray type="Float64" Name="rhov">
          5.29172759e-05 4.48964569e-05 4.09325012e-05 5.61979311e-05 
        </DataArray>
        <DataArray type="Float64" Name="E">
          2.16384275e+05 2.16742236e+05 2.17098352e+05 2.17452003e+05 
        </DataArray>
      </PointData>
    </Piece>
    <Piece NumberOfPoints="4" NumberOfCells="3">
      <Points>
        <DataArray type="Float64" NumberOfComponents="3" format="ascii">
          7.51680970e-01 -3.10197193e-02 0.00000000e+00 
7.62049198e-01 -2.99084149e-02 0.00000000e+00 
7.72415876e-01 -2.87819952e-02 0.00000000e+00 
7.82780826e-01 -2.76402626e-02 0.00000000e+00 

        </DataArray>
      </Points>
      <Cells>
        <DataArray type="Int32" Name="connectivity" format="ascii">
0 1
1 2
2 3

        </DataArray>
        <DataArray type="Int32" Name="offsets" format="ascii">
2 4 6 
        </DataArray>
        <DataArray type="UInt8" Name="types" format="ascii">
3 3 3 
        </DataArray>
      </Cells>
      <PointData>
        <DataArray type="Float64" Name="rho">
          9.45222309e-01 9.46745515e-01 9.48260611e-01 9.49767985e-01 
        </DataArray>
        <DataArray type="Float64" Name="rhou">
          3.22341807e-04 3.17779750e-04 3.11607792e-04 2.96690562e-04 
        </DataArray>
        <DataArray type="Float64" Name="rhov">
          4.37401163e-05 3.75934987e-05 4.21692033e-05 5.06664463e-05 
        </DataArray>
        <DataArray type="Float64" Name="E">
          2.15299775e+05 2.15663206e+05 2.16024673e+05 2.16384267e+05 
        </DataArray>
      </PointData>
    </Piece>
    <Piece NumberOfPoints="4" NumberOfCells="3">
      <Points>
        <DataArray type="Float64" NumberOfComponents="3" format="ascii">
          7.20566452e-01 -3.42622213e-02 0.00000000e+00 
7.30939507e-01 -3.31965312e-02 0.00000000e+00 
7.41311073e-01 -3.21157984e-02 0.00000000e+00 
7.51680970e-01 -3.10197193e-02 0.00000000e+00 

        </DataArray>
      </Points>
      <Cells>
        <DataArray type="Int32" Name="connectivity" format="ascii">
0 1
1 2
2 3

        </DataArray>
        <DataArray type="Int32" Name="offsets" format="ascii">
2 4 6 
        </DataArray>
        <DataArray type="UInt8" Name="types" format="ascii">
3 3 3 
        </DataArray>
      </Cells>
      <PointData>
        <DataArray type="Float64" Name="rho">
          9.40615348e-01 9.42158053e-01 9.43693873e-01 9.45222301e-01 
        </DataArray>
        <DataArray type="Float64" Name="rhou">
          3.48727367e-04 3.41835594e-04 3.38751734e-04 3.25400796e-04 
        </DataArray>
        <DataArray type="Float64" Name="rhov">
          3.83736973e-05 2.78879425e-05 3.13124740e-05 4.42034511e-05 
        </DataArray>
        <DataArray type="Float64" Name="E">
          2.14200243e+05 2.14568484e+05 2.14935032e+05 2.15299773e+05 
        </DataArray>
      </PointData>
    </Piece>
    <Piece NumberOfPoints="4" NumberOfCells="3">
      <Points>
        <DataArray type="Float64" NumberOfComponents="3" format="ascii">
          6.89437866e-01 -3.73662710e-02 0.00000000e+00 
6.99815631e-01 -3.63472365e-02 0.00000000e+00 
7.10191846e-01 -3.53125818e-02 0.00000000e+00 
7.20566452e-01 -3.42622213e-02 0.00000000e+00 

        </DataArray>
      </Points>
      <Cells>
        <DataArray type="Int32" Name="connectivity" format="ascii">
0 1
1 2
2 3

        </DataArray>
        <DataArray type="Int32" Name="offsets" format="ascii">
2 4 6 
        </DataArray>
        <DataArray type="UInt8" Name="types" format="ascii">
3 3 3 
        </DataArray>
      </Cells>
      <PointData>
        <DataArray type="Float64" Name="rho">
          9.35963277e-01 9.37518709e-01 9.39069496e-01 9.40615359e-01 
        </DataArray>
        <DataArray type="Float64" Name="rhou">
          3.81132385e-04 3.74207962e-04 3.67307407e-04 3.49519010e-04 
        </DataArray>
        <DataArray type="Float64" Name="rhov">
          2.85711478e-05 2.17519819e-05 2.70972349e-05 3.86504353e-05 
        </DataArray>
        <DataArray type="Float64" Name="E">
          2.13089319e+05 2.13460829e+05 2.13831159e+05 2.14200245e+05 
        </DataArray>
      </PointData>
    </Piece>
    <Piece NumberOfPoints="4" NumberOfCells="3">
      <Points>
        <DataArray type="Float64" NumberOfComponents="3" format="ascii">
          6.58295333e-01 -4.03269380e-02 0.00000000e+00 
6.68677747e-01 -3.93563360e-02 0.00000000e+00 
6.79058611e-01 -3.83694395e-02 0.00000000e+00 
6.89437866e-01 -3.73662710e-02 0.00000000e+00 

        </DataArray>
      </Points>
      <Cells>
        <DataArray type="Int32" Name="connectivity" format="ascii">
0 1
1 2
2 3

        </DataArray>
        <DataArray type="Int32" Name="offsets" format="ascii">
2 4 6 
        </DataArray>
        <DataArray type="UInt8" Name="types" format="ascii">
3 3 3 
        </DataArray>
      </Cells>
      <PointData>
        <DataArray type="Float64" Name="rho">
          9.31288398e-01 9.32848419e-01 9.34406704e-01 9.35963332e-01 
        </DataArray>
        <DataArray type="Float64" Name="rhou">
          4.16287160e-04 4.11400452e-04 3.99105946e-04 3.78978938e-04 
        </DataArray>
        <DataArray type="Float64" Name="rhov">
          1.58288402e-05 1.32271509e-05 2.05390236e-05 2.93974755e-05 
        </DataArray>
        <DataArray type="Float64" Name="E">
          2.11972148e+05 2.12345040e+05 2.12717431e+05 2.13089332e+05 
        </DataArray>
      </PointData>
    </Piece>
    <Piece NumberOfPoints="4" NumberOfCells="3">
      <Points>
        <DataArray type="Float64" NumberOfComponents="3" format="ascii">
          6.27138972e-01 -4.31386717e-02 0.00000000e+00 
6.37525976e-01 -4.22184542e-02 0.00000000e+00 
6.47911429e-01 -4.12811004e-02 0.00000000e+00 
6.58295333e-01 -4.03269380e-02 0.00000000e+00 

        </DataArray>
      </Points>
      <Cells>
        <DataArray type="Int32" Name="connectivity" format="ascii">
0 1
1 2
2 3

        </DataArray>
        <DataArray type="Int32" Name="offsets" format="ascii">
2 4 6 
        </DataArray>
        <DataArray type="UInt8" Name="types" format="ascii">
3 3 3 
        </DataArray>
      </Cells>
      <PointData>
        <DataArray type="Float64" Name="rho">
          9.26621633e-01 9.28173823e-01 9.29730025e-01 9.31288431e-01 
        </DataArray>
        <DataArray type="Float64" Name="rhou">
          4.64932777e-04 4.47131161e-04 4.30639247e-04 4.16997736e-04 
        </DataArray>
        <DataArray type="Float64" Name="rhov">
          1.10638914e-05 1.03715166e-05 1.22375216e-05 1.67996343e-05 
        </DataArray>
        <DataArray type="Float64" Name="E">
          2.10855949e+05 2.11227321e+05 2.11599531e+05 2.11972155e+05 
        </DataArray>
      </PointData>
    </Piece>
    <Piece NumberOfPoints="4" NumberOfCells="3">
      <Points>
        <DataArray type="Float64" NumberOfComponents="3" format="ascii">
          5.95968783e-01 -4.57924642e-02 0.00000000e+00 
6.06360376e-01 -4.49259281e-02 0.00000000e+00 
6.16750479e-01 -4.40412909e-02 0.00000000e+00 
6.27138972e-01 -4.31386717e-02 0.00000000e+00 

        </DataArray>
      </Points>
      <Cells>
        <DataArray type="Int32" Name="connectivity" format="ascii">
0 1
1 2
2 3

        </DataArray>
        <DataArray type="Int32" Name="offsets" format="ascii">
2 4 6 
        </DataArray>
        <DataArray type="UInt8" Name="types" format="ascii">
3 3 3 
        </DataArray>
      </Cells>
      <PointData>
        <DataArray type="Float64" Name="rho">
          9.22008224e-01 9.23537866e-01 9.25076097e-01 9.26621626e-01 
        </DataArray>
        <DataArray type="Float64" Name="rhou">
          5.06106409e-04 4.95294316e-04 4.79115564e-04 4.58219566e-04 
        </DataArray>
        <DataArray type="Float64" Name="rhov">
          -1.87223124e-06 -4.78101007e-06 2.05519076e-06 1.19716306e-05 
        </DataArray>
        <DataArray type="Float64" Name="E">
          2.09751382e+05 2.10117741e+05 2.10486034e+05 2.10855948e+05 
        </DataArray>
      </PointData>
    </Piece>
    <Piece NumberOfPoints="4" NumberOfCells="3">
      <Points>
        <DataArray type="Float64" NumberOfComponents="3" format="ascii">
          5.64784765e-01 -4.82786149e-02 0.00000000e+00 
5.75181007e-01 -4.74695377e-02 0.00000000e+00 
5.85575700e-01 -4.66405638e-02 0.00000000e+00 
5.95968783e-01 -4.57924642e-02 0.00000000e+00 

        </DataArray>
      </Points>
      <Cells>
        <DataArray type="Int32" Name="connectivity" format="ascii">
0 1
1 2
2 3

        </DataArray>
        <DataArray type="Int32" Name="offsets" format="ascii">
2 4 6 
        </DataArray>
        <DataArray type="UInt8" Name="types" format="ascii">
3 3 3 
        </DataArray>
      </Cells>
      <PointData>
        <DataArray type="Float64" Name="rho">
          9.17509459e-01 9.18991147e-01 9.20491424e-01 9.22008338e-01 
        </DataArray>
        <DataArray type="Float64" Name="rhou">
          5.78478398e-04 5.53556644e-04 5.21873374e-04 4.99741347e-04 
        </DataArray>
        <DataArray type="Float64" Name="rhov">
          -1.38511396e-05 -2.36035642e-06 2.54748057e-06 -8.48162042e-07 
        </DataArray>
        <DataArray type="Float64" Name="E">
          2.08672947e+05 2.09028299e+05 2.09387945e+05 2.09751407e+05 
        </DataArray>
      </PointData>
    </Piece>
    <Piece NumberOfPoints="4" NumberOfCells="3">
      <Points>
        <DataArray type="Float64" NumberOfComponents="3" format="ascii">
          5.33586800e-01 -5.05827516e-02 0.00000000e+00 
5.43987691e-01 -4.98356484e-02 0.00000000e+00 
5.54387033e-01 -4.90674041e-02 0.00000000e+00 
5.64784765e-01 -4.82786149e-02 0.00000000e+00 

        </DataArray>
      </Points>
      <Cells>
        <DataArray type="Int32" Name="connectivity" format="ascii">
0 1
1 2
2 3

        </DataArray>
        <DataArray type="Int32" Name="offsets" format="ascii">
2 4 6 
        </DataArray>
        <DataArray type="UInt8" Name="types" format="ascii">
3 3 3 
        </DataArray>
      </Cells>
      <PointData>
        <DataArray type="Float64" Name="rho">
          9.13201237e-01 9.14609910e-01 9.16047839e-01 9.17509418e-01 
        </DataArray>
        <DataArray type="Float64" Name="rhou">
          6.48528703e-04 6.10193225e-04 5.82818035e-04 5.72729139e-04 
        </DataArray>
        <DataArray type="Float64" Name="rhov">
          -1.25572586e-05 -1.26756318e-05 -1.58457669e-05 -1.34026942e-05 
        </DataArray>
        <DataArray type="Float64" Name="E">
          2.07638745e+05 2.07977088e+05 2.08322257e+05 2.08672938e+05 
        </DataArray>
      </PointData>
    </Piece>
    <Piece NumberOfPoints="4" NumberOfCells="3">
      <Points>
        <DataArray type="Float64" NumberOfComponents="3" format="ascii">
          5.02374947e-01 -5.26902266e-02 0.00000000e+00 
5.12780428e-01 -5.20105064e-02 0.00000000e+00 
5.23184419e-01 -5.13078682e-02 0.00000000e+00 
5.33586800e-01 -5.05827516e-02 0.00000000e+00 

        </DataArray>
      </Points>
      <Cells>
        <DataArray type="Int32" Name="connectivity" format="ascii">
0 1
1 2
2 3

        </DataArray>
        <DataArray type="Int32" Name="offsets" format="ascii">
2 4 6 
        </DataArray>
        <DataArray type="UInt8" Name="types" format="ascii">
3 3 3 
        </DataArray>
      </Cells>
      <PointData>
        <DataArray type="Float64" Name="rho">
          9.09186823e-01 9.10485773e-01 9.11825964e-01 9.13201141e-01 
        </DataArray>
        <DataArray type="Float64" Name="rhou">
          7.25778891e-04 6.90876117e-04 6.64719041e-04 6.45729408e-04 
        </DataArray>
        <DataArray type="Float64" Name="rhov">
          -2.12369690e-05 -2.79608296e-05 -2.67304563e-05 -1.29507113e-05 
        </DataArray>
        <DataArray type="Float64" Name="E">
          2.06673354e+05 2.06985937e+05 2.07308218e+05 2.07638724e+05 
        </DataArray>
      </PointData>
    </Piece>
    <Piece NumberOfPoints="4" NumberOfCells="3">
      <Points>
        <DataArray type="Float64" NumberOfComponents="3" format="ascii">
          4.71149325e-01 -5.45825884e-02 0.00000000e+00 
4.81559396e-01 -5.39771840e-02 0.00000000e+00 
4.91967946e-01 -5.33461571e-02 0.00000000e+00 
5.02374947e-01 -5.26902266e-02 0.00000000e+00 

        </DataArray>
      </Points>
      <Cells>
        <DataArray type="Int32" Name="connectivity" format="ascii">
0 1
1 2
2 3

        </DataArray>
        <DataArray type="Int32" Name="offsets" format="ascii">
2 4 6 
        </DataArray>
        <DataArray type="UInt8" Name="types" format="ascii">
3 3 3 
        </DataArray>
      </Cells>
      <PointData>
        <DataArray type="Float64" Name="rho">
          9.05601031e-01 9.06740551e-01 9.07936257e-01 9.09186912e-01 
        </DataArray>
        <DataArray type="Float64" Name="rhou">
          8.28714070e-04 8.07263601e-04 7.61682746e-04 7.05893333e-04 
        </DataArray>
        <DataArray type="Float64" Name="rhov">
          -4.46577295e-05 -3.87643944e-05 -2.17876931e-05 -1.83589620e-05 
        </DataArray>
        <DataArray type="Float64" Name="E">
          2.05808878e+05 2.06083869e+05 2.06372150e+05 2.06673374e+05 
        </DataArray>
      </PointData>
    </Piece>
    <Piece NumberOfPoints="4" NumberOfCells="3">
      <Points>
        <DataArray type="Float64" NumberOfComponents="3" format="ascii">
          4.39910263e-01 -5.62384278e-02 0.00000000e+00 
4.50324744e-01 -5.57143167e-02 0.00000000e+00 
4.60737765e-01 -5.51619194e-02 0.00000000e+00 
4.71149325e-01 -5.45825884e-02 0.00000000e+00 

        </DataArray>
      </Points>
      <Cells>
        <DataArray type="Int32" Name="connectivity" format="ascii">
0 1
1 2
2 3

        </DataArray>
        <DataArray type="Int32" Name="offsets" format="ascii">
2 4 6 
        </DataArray>
        <DataArray type="UInt8" Name="types" format="ascii">
3 3 3 
        </DataArray>
      </Cells>
      <PointData>
        <DataArray type="Float64" Name="rho">
          9.02606112e-01 9.03524123e-01 9.04526013e-01 9.05601107e-01 
        </DataArray>
        <DataArray type="Float64" Name="rhou">
          9.94134625e-04 9.17701645e-04 8.60301532e-04 8.34133876e-04 
        </DataArray>
        <DataArray type="Float64" Name="rhov">
          -3.56541692e-05 -2.70629600e-05 -3.41879137e-05 -4.20739035e-05 
        </DataArray>
        <DataArray type="Float64" Name="E">
          2.05084022e+05 2.05306665e+05 2.05549129e+05 2.05808895e+05 
        </DataArray>
      </PointData>
    </Piece>
    <Piece NumberOfPoints="4" NumberOfCells="3">
      <Points>
        <DataArray type="Float64" NumberOfComponents="3" format="ascii">
          4.08658355e-01 -5.76302819e-02 0.00000000e+00 
4.19077009e-01 -5.71971126e-02 0.00000000e+00 
4.29494321e-01 -5.67329265e-02 0.00000000e+00 
4.39910263e-01 -5.62384278e-02 0.00000000e+00 

        </DataArray>
      </Points>
      <Cells>
        <DataArray type="Int32" Name="connectivity" format="ascii">
0 1
1 2
2 3

        </DataArray>
        <DataArray type="Int32" Name="offsets" format="ascii">
2 4 6 
        </DataArray>
        <DataArray type="UInt8" Name="types" format="ascii">
3 3 3 
        </DataArray>
      </Cells>
      <PointData>
        <DataArray type="Float64" Name="rho">
          9.00414659e-01 9.01043134e-01 9.01777467e-01 9.02605879e-01 
        </DataArray>
        <DataArray type="Float64" Name="rhou">
          1.14729286e-03 1.07820521e-03 1.02743147e-03 9.88708192e-04 
        </DataArray>
        <DataArray type="Float64" Name="rhov">
          -4.22061286e-05 -5.53312280e-05 -5.51380394e-05 -3.54865538e-05 
        </DataArray>
        <DataArray type="Float64" Name="E">
          2.04549410e+05 2.04703429e+05 2.04882539e+05 2.05083969e+05 
        </DataArray>
      </PointData>
    </Piece>
    <Piece NumberOfPoints="4" NumberOfCells="3">
      <Points>
        <DataArray type="Float64" NumberOfComponents="3" format="ascii">
          3.77394795e-01 -5.87291755e-02 0.00000000e+00 
3.87817174e-01 -5.83979115e-02 0.00000000e+00 
3.98238391e-01 -5.80311492e-02 0.00000000e+00 
4.08658355e-01 -5.76302819e-02 0.00000000e+00 

        </DataArray>
      </Points>
      <Cells>
        <DataArray type="Int32" Name="connectivity" format="ascii">
0 1
1 2
2 3

        </DataArray>
        <DataArray type="Int32" Name="offsets" format="ascii">
2 4 6 
        </DataArray>
        <DataArray type="UInt8" Name="types" format="ascii">
3 3 3 
        </DataArray>
      </Cells>
      <PointData>
        <DataArray type="Float64" Name="rho">
          8.99291851e-01 8.99529961e-01 8.99905296e-01 9.00414873e-01 
        </DataArray>
        <DataArray type="Float64" Name="rhou">
          1.39555418e-03 1.32215334e-03 1.22079633e-03 1.11586209e-03 
        </DataArray>
        <DataArray type="Float64" Name="rhov">
          -8.39887434e-05 -5.65677219e-05 -2.92705815e-05 -3.72860354e-05 
        </DataArray>
        <DataArray type="Float64" Name="E">
          2.04268025e+05 2.04329521e+05 2.04423599e+05 2.04549460e+05 
        </DataArray>
      </PointData>
    </Piece>
    <Piece NumberOfPoints="4" NumberOfCells="3">
      <Points>
        <DataArray type="Float64" NumberOfComponents="3" format="ascii">
          3.46121490e-01 -5.95011823e-02 0.00000000e+00 
3.56546819e-01 -5.92821389e-02 0.00000000e+00 
3.66971314e-01 -5.90242445e-02 0.00000000e+00 
3.77394795e-01 -5.87291755e-02 0.00000000e+00 

        </DataArray>
      </Points>
      <Cells>
        <DataArray type="Int32" Name="connectivity" format="ascii">
0 1
1 2
2 3

        </DataArray>
        <DataArray type="Int32" Name="offsets" format="ascii">
2 4 6 
        </DataArray>
        <DataArray type="UInt8" Name="types" format="ascii">
3 3 3 
        </DataArray>
      </Cells>
      <PointData>
        <DataArray type="Float64" Name="rho">
          8.99528307e-01 8.99273673e-01 8.99200597e-01 8.99291944e-01 
        </DataArray>
        <DataArray type="Float64" Name="rhou">
          1.73888863e-03 1.59409774e-03 1.46501494e-03 1.39898222e-03 
        </DataArray>
        <DataArray type="Float64" Name="rhov">
          -1.17401553e-04 -7.57136904e-05 -6.88716389e-05 -7.93426102e-05 
        </DataArray>
        <DataArray type="Float64" Name="E">
          2.04309128e+05 2.04253742e+05 2.04241397e+05 2.04268045e+05 
        </DataArray>
      </PointData>
    </Piece>
    <Piece NumberOfPoints="4" NumberOfCells="3">
      <Points>
        <DataArray type="Float64" NumberOfComponents="3" format="ascii">
          3.14841360e-01 -5.99102043e-02 0.00000000e+00 
3.25268596e-01 -5.98174632e-02 0.00000000e+00 
3.35695356e-01 -5.96801341e-02 0.00000000e+00 
3.46121490e-01 -5.95011823e-02 0.00000000e+00 

        </DataArray>
      </Points>
      <Cells>
        <DataArray type="Int32" Name="connectivity" format="ascii">
0 1
1 2
2 3

        </DataArray>
        <DataArray type="Int32" Name="offsets" format="ascii">
2 4 6 
        </DataArray>
        <DataArray type="UInt8" Name="types" format="ascii">
3 3 3 
        </DataArray>
      </Cells>
      <PointData>
        <DataArray type="Float64" Name="rho">
          9.01525565e-01 9.00624710e-01 8.99968140e-01 8.99528015e-01 
        </DataArray>
        <DataArray type="Float64" Name="rhou">
          2.19083751e-03 1.94528307e-03 1.77969362e-03 1.70307953e-03 
        </DataArray>
        <DataArray type="Float64" Name="rhov">
          -5.30794471e-05 -2.98659176e-05 -6.26518441e-05 -1.16657922e-04 
        </DataArray>
        <DataArray type="Float64" Name="E">
          2.04768002e+05 2.04559325e+05 2.04408535e+05 2.04309061e+05 
        </DataArray>
      </PointData>
    </Piece>
    <Piece NumberOfPoints="4" NumberOfCells="3">
      <Points>
        <DataArray type="Float64" NumberOfComponents="3" format="ascii">
          2.83558637e-01 -5.98983802e-02 0.00000000e+00 
2.93986142e-01 -5.99516556e-02 0.00000000e+00 
3.04413795e-01 -5.99554181e-02 0.00000000e+00 
3.14841360e-01 -5.99102043e-02 0.00000000e+00 

        </DataArray>
      </Points>
      <Cells>
        <DataArray type="Int32" Name="connectivity" format="ascii">
0 1
1 2
2 3

        </DataArray>
        <DataArray type="Int32" Name="offsets" format="ascii">
2 4 6 
        </DataArray>
        <DataArray type="UInt8" Name="types" format="ascii">
3 3 3 
        </DataArray>
      </Cells>
      <PointData>
        <DataArray type="Float64" Name="rho">
          9.05792406e-01 9.04099864e-01 9.02683041e-01 9.01524849e-01 
        </DataArray>
        <DataArray type="Float64" Name="rhou">
          2.67077920e-03 2.50497197e-03 2.36672243e-03 2.18172614e-03 
        </DataArray>
        <DataArray type="Float64" Name="rhov">
          -1.10603639e-04 -1.77802449e-04 -1.41842620e-04 -4.64523320e-05 
        </DataArray>
        <DataArray type="Float64" Name="E">
          2.05765912e+05 2.05368945e+05 2.05037608e+05 2.04767839e+05 
        </DataArray>
      </PointData>
    </Piece>
    <Piece NumberOfPoints="4" NumberOfCells="3">
      <Points>
        <DataArray type="Float64" NumberOfComponents="3" format="ascii">
          2.52279758e-01 -5.94130717e-02 0.00000000e+00 
2.62705088e-01 -5.96327744e-02 0.00000000e+00 
2.73131490e-01 -5.97934239e-02 0.00000000e+00 
2.83558637e-01 -5.98983802e-02 0.00000000e+00 

        </DataArray>
      </Points>
      <Cells>
        <DataArray type="Int32" Name="connectivity" format="ascii">
0 1
1 2
2 3

        </DataArray>
        <DataArray type="Int32" Name="offsets" format="ascii">
2 4 6 
        </DataArray>
        <DataArray type="UInt8" Name="types" format="ascii">
3 3 3 
        </DataArray>
      </Cells>
      <PointData>
        <DataArray type="Float64" Name="rho">
          9.12940389e-01 9.10190000e-01 9.07810254e-01 9.05793331e-01 
        </DataArray>
        <DataArray type="Float64" Name="rhou">
          3.64819052e-03 3.34155722e-03 3.00433813e-03 2.65687579e-03 
        </DataArray>
        <DataArray type="Float64" Name="rhov">
          -2.60922440e-04 -1.67730256e-04 -7.97213408e-05 -9.13244389e-05 
        </DataArray>
        <DataArray type="Float64" Name="E">
          2.07448288e+05 2.06800032e+05 2.06240027e+05 2.05766126e+05 
        </DataArray>
      </PointData>
    </Piece>
    <Piece NumberOfPoints="4" NumberOfCells="3">
      <Points>
        <DataArray type="Float64" NumberOfComponents="3" format="ascii">
          2.21014455e-01 -5.83752058e-02 0.00000000e+00 
2.31433928e-01 -5.87876961e-02 0.00000000e+00 
2.41855890e-01 -5.91322705e-02 0.00000000e+00 
2.52279758e-01 -5.94130717e-02 0.00000000e+00 

        </DataArray>
      </Points>
      <Cells>
        <DataArray type="Int32" Name="connectivity" format="ascii">
0 1
1 2
2 3

        </DataArray>
        <DataArray type="Int32" Name="offsets" format="ascii">
2 4 6 
        </DataArray>
        <DataArray type="UInt8" Name="types" format="ascii">
3 3 3 
        </DataArray>
      </Cells>
      <PointData>
        <DataArray type="Float64" Name="rho">
          9.23742782e-01 9.19669071e-01 9.16083920e-01 9.12940571e-01 
        </DataArray>
        <DataArray type="Float64" Name="rhou">
          5.00700326e-03 4.41946736e-03 3.97126044e-03 3.68258059e-03 
        </DataArray>
        <DataArray type="Float64" Name="rhov">
          -3.69963881e-04 -2.64369902e-04 -2.31126945e-04 -2.44488823e-04 
        </DataArray>
        <DataArray type="Float64" Name="E">
          2.10000484e+05 2.09037189e+05 2.08190189e+05 2.07448326e+05 
        </DataArray>
      </PointData>
    </Piece>
    <Piece NumberOfPoints="4" NumberOfCells="3">
      <Points>
        <DataArray type="Float64" NumberOfComponents="3" format="ascii">
          1.89777538e-01 -5.66898957e-02 0.00000000e+00 
2.00185493e-01 -5.73302582e-02 0.00000000e+00 
2.10598081e-01 -5.78906052e-02 0.00000000e+00 
2.21014455e-01 -5.83752058e-02 0.00000000e+00 

        </DataArray>
      </Points>
      <Cells>
        <DataArray type="Int32" Name="connectivity" format="ascii">
0 1
1 2
2 3

        </DataArray>
        <DataArray type="Int32" Name="offsets" format="ascii">
2 4 6 
        </DataArray>
        <DataArray type="UInt8" Name="types" format="ascii">
3 3 3 
        </DataArray>
      </Cells>
      <PointData>
        <DataArray type="Float64" Name="rho">
          9.39277826e-01 9.33496781e-01 9.28338232e-01 9.23742019e-01 
        </DataArray>
        <DataArray type="Float64" Name="rhou">
          6.93540705e-03 6.13227196e-03 5.54479925e-03 5.06974728e-03 
        </DataArray>
        <DataArray type="Float64" Name="rhov">
          -6.56703691e-04 -5.84199026e-04 -4.82737600e-04 -3.57265368e-04 
        </DataArray>
        <DataArray type="Float64" Name="E">
          2.13680907e+05 2.12310232e+05 2.11088162e+05 2.10000309e+05 
        </DataArray>
      </PointData>
    </Piece>
    <Piece NumberOfPoints="4" NumberOfCells="3">
      <Points>
        <DataArray type="Float64" NumberOfComponents="3" format="ascii">
          1.58592433e-01 -5.42296544e-02 0.00000000e+00 
1.68979734e-01 -5.51457107e-02 0.00000000e+00 
1.79375216e-01 -5.59638515e-02 0.00000000e+00 
1.89777538e-01 -5.66898957e-02 0.00000000e+00 

        </DataArray>
      </Points>
      <Cells>
        <DataArray type="Int32" Name="connectivity" format="ascii">
0 1
1 2
2 3

        </DataArray>
        <DataArray type="Int32" Name="offsets" format="ascii">
2 4 6 
        </DataArray>
        <DataArray type="UInt8" Name="types" format="ascii">
3 3 3 
        </DataArray>
      </Cells>
      <PointData>
        <DataArray type="Float64" Name="rho">
          9.61104384e-01 9.53022156e-01 9.45763515e-01 9.39278245e-01 
        </DataArray>
        <DataArray type="Float64" Name="rhou">
          9.99997847e-03 8.92399287e-03 7.97228698e-03 7.00680172e-03 
        </DataArray>
        <DataArray type="Float64" Name="rhov">
          -1.41680280e-03 -1.22275046e-03 -8.88622683e-04 -6.16153398e-04 
        </DataArray>
        <DataArray type="Float64" Name="E">
          2.18864183e+05 2.16943278e+05 2.15219718e+05 2.13681007e+05 
        </DataArray>
      </PointData>
    </Piece>
    <Piece NumberOfPoints="4" NumberOfCells="3">
      <Points>
        <DataArray type="Float64" NumberOfComponents="3" format="ascii">
          1.27497971e-01 -5.08146733e-02 0.00000000e+00 
1.37849152e-01 -5.20747155e-02 0.00000000e+00 
1.48214847e-01 -5.32093942e-02 0.00000000e+00 
1.58592433e-01 -5.42296544e-02 0.00000000e+00 

        </DataArray>
      </Points>
      <Cells>
        <DataArray type="Int32" Name="connectivity" format="ascii">
0 1
1 2
2 3

        </DataArray>
        <DataArray type="Int32" Name="offsets" format="ascii">
2 4 6 
        </DataArray>
        <DataArray type="UInt8" Name="types" format="ascii">
3 3 3 
        </DataArray>
      </Cells>
      <PointData>
        <DataArray type="Float64" Name="rho">
          9.91644920e-01 9.80284843e-01 9.70125498e-01 9.61108442e-01 
        </DataArray>
        <DataArray type="Float64" Name="rhou">
          1.45328507e-02 1.33566525e-02 1.15501470e-02 1.00284738e-02 
        </DataArray>
        <DataArray type="Float64" Name="rhov">
          -2.29706934e-03 -2.04881166e-03 -1.43101772e-03 -1.34489516e-03 
        </DataArray>
        <DataArray type="Float64" Name="E">
          2.26134598e+05 2.23427878e+05 2.21009897e+05 2.18865114e+05 
        </DataArray>
      </PointData>
    </Piece>
    <Piece NumberOfPoints="4" NumberOfCells="3">
      <Points>
        <DataArray type="Float64" NumberOfComponents="3" format="ascii">
          9.65642184e-02 -4.61716652e-02 0.00000000e+00 
1.06852271e-01 -4.78802323e-02 0.00000000e+00 
1.17164567e-01 -4.94215861e-02 0.00000000e+00 
1.27497971e-01 -5.08146733e-02 0.00000000e+00 

        </DataArray>
      </Points>
      <Cells>
        <DataArray type="Int32" Name="connectivity" format="ascii">
0 1
1 2
2 3

        </DataArray>
        <DataArray type="Int32" Name="offsets" format="ascii">
2 4 6 
        </DataArray>
        <DataArray type="UInt8" Name="types" format="ascii">
3 3 3 
        </DataArray>
      </Cells>
      <PointData>
        <DataArray type="Float64" Name="rho">
          1.03501269e+00 1.01872015e+00 1.00429337e+00 9.91653298e-01 
        </DataArray>
        <DataArray type="Float64" Name="rhou">
          2.47001076e-02 1.81125046e-02 1.72073438e-02 1.28828995e-02 
        </DataArray>
        <DataArray type="Float64" Name="rhov">
          -9.06501573e-04 -7.31449139e-04 -1.56738679e-03 -1.61524125e-03 
        </DataArray>
        <DataArray type="Float64" Name="E">
          2.36492601e+05 2.32596720e+05 2.29152039e+05 2.26136618e+05 
        </DataArray>
      </PointData>
    </Piece>
  </UnstructuredGrid>
</VTKFile>
