<?xml version="1.0"?>
<VTKFile type="UnstructuredGrid" version="0.1" byte_order="LittleEndian">
  <UnstructuredGrid>
    <Piece NumberOfPoints="4" NumberOfCells="3">
      <Points>
        <DataArray type="Float64" NumberOfComponents="3" format="ascii">
          9.65642184e-02 -4.61716652e-02 0.00000000e+00 
9.26280916e-02 -4.54656407e-02 0.00000000e+00 
8.86965096e-02 -4.47326750e-02 0.00000000e+00 
8.47706869e-02 -4.39694971e-02 0.00000000e+00 

        </DataArray>
      </Points>
      <Cells>
        <DataArray type="Int32" Name="connectivity" format="ascii">
0 1
1 2
2 3

        </DataArray>
        <DataArray type="Int32" Name="offsets" format="ascii">
2 4 6 
        </DataArray>
        <DataArray type="UInt8" Name="types" format="ascii">
3 3 3 
        </DataArray>
      </Cells>
      <PointData>
        <DataArray type="Float64" Name="rho">
          1.03561767e+00 1.04251795e+00 1.04973289e+00 1.05739438e+00 
        </DataArray>
        <DataArray type="Float64" Name="rhou">
          2.83113992e-02 2.17872504e-02 2.44316547e-02 2.45889141e-02 
        </DataArray>
        <DataArray type="Float64" Name="rhov">
          -2.23438889e-03 -1.00929496e-03 -5.86044254e-04 -8.85526175e-04 
        </DataArray>
        <DataArray type="Float64" Name="E">
          2.36660743e+05 2.38311836e+05 2.40039860e+05 2.41875184e+05 
        </DataArray>
      </PointData>
    </Piece>
    <Piece NumberOfPoints="4" NumberOfCells="3">
      <Points>
        <DataArray type="Float64" NumberOfComponents="3" format="ascii">
          8.47706869e-02 -4.39694971e-02 0.00000000e+00 
8.08513016e-02 -4.31745499e-02 0.00000000e+00 
7.69388378e-02 -4.23462167e-02 0.00000000e+00 
7.30340332e-02 -4.14824970e-02 0.00000000e+00 

        </DataArray>
      </Points>
      <Cells>
        <DataArray type="Int32" Name="connectivity" format="ascii">
0 1
1 2
2 3

        </DataArray>
        <DataArray type="Int32" Name="offsets" format="ascii">
2 4 6 
        </DataArray>
        <DataArray type="UInt8" Name="types" format="ascii">
3 3 3 
        </DataArray>
      </Cells>
      <PointData>
        <DataArray type="Float64" Name="rho">
          1.05739320e+00 1.06548270e+00 1.07403558e+00 1.08312176e+00 
        </DataArray>
        <DataArray type="Float64" Name="rhou">
          2.46835422e-02 2.38412594e-02 2.24094273e-02 2.08205820e-02 
        </DataArray>
        <DataArray type="Float64" Name="rhov">
          -6.91047675e-04 -4.62722943e-04 4.70466717e-04 1.69495134e-03 
        </DataArray>
        <DataArray type="Float64" Name="E">
          2.41874921e+05 2.43814747e+05 2.45866943e+05 2.48048308e+05 
        </DataArray>
      </PointData>
    </Piece>
    <Piece NumberOfPoints="4" NumberOfCells="3">
      <Points>
        <DataArray type="Float64" NumberOfComponents="3" format="ascii">
          7.30340332e-02 -4.14824970e-02 0.00000000e+00 
6.91377968e-02 -4.05809283e-02 0.00000000e+00 
6.52511865e-02 -3.96387354e-02 0.00000000e+00 
6.13753870e-02 -3.86530459e-02 0.00000000e+00 

        </DataArray>
      </Points>
      <Cells>
        <DataArray type="Int32" Name="connectivity" format="ascii">
0 1
1 2
2 3

        </DataArray>
        <DataArray type="Int32" Name="offsets" format="ascii">
2 4 6 
        </DataArray>
        <DataArray type="UInt8" Name="types" format="ascii">
3 3 3 
        </DataArray>
      </Cells>
      <PointData>
        <DataArray type="Float64" Name="rho">
          1.08312236e+00 1.09282528e+00 1.10317679e+00 1.11423654e+00 
        </DataArray>
        <DataArray type="Float64" Name="rhou">
          2.09374171e-02 1.85614965e-02 1.44316459e-02 8.89616978e-03 
        </DataArray>
        <DataArray type="Float64" Name="rhov">
          1.52919522e-03 2.30887010e-03 4.43412394e-03 7.67563464e-03 
        </DataArray>
        <DataArray type="Float64" Name="E">
          2.48048469e+05 2.50380111e+05 2.52869264e+05 2.55530967e+05 
        </DataArray>
      </PointData>
    </Piece>
    <Piece NumberOfPoints="4" NumberOfCells="3">
      <Points>
        <DataArray type="Float64" NumberOfComponents="3" format="ascii">
          6.13753870e-02 -3.86530459e-02 0.00000000e+00 
5.75117208e-02 -3.76208089e-02 0.00000000e+00 
5.36618084e-02 -3.65384258e-02 0.00000000e+00 
4.98276278e-02 -3.54015976e-02 0.00000000e+00 

        </DataArray>
      </Points>
      <Cells>
        <DataArray type="Int32" Name="connectivity" format="ascii">
0 1
1 2
2 3

        </DataArray>
        <DataArray type="Int32" Name="offsets" format="ascii">
2 4 6 
        </DataArray>
        <DataArray type="UInt8" Name="types" format="ascii">
3 3 3 
        </DataArray>
      </Cells>
      <PointData>
        <DataArray type="Float64" Name="rho">
          1.11423681e+00 1.12608737e+00 1.13881369e+00 1.15254726e+00 
        </DataArray>
        <DataArray type="Float64" Name="rhou">
          8.83868920e-03 1.74761007e-03 -7.50224253e-03 -1.90620908e-02 
        </DataArray>
        <DataArray type="Float64" Name="rhov">
          7.44721749e-03 1.22085590e-02 2.03593967e-02 3.19182858e-02 
        </DataArray>
        <DataArray type="Float64" Name="E">
          2.55531031e+05 2.58387010e+05 2.61456702e+05 2.64772666e+05 
        </DataArray>
      </PointData>
    </Piece>
    <Piece NumberOfPoints="4" NumberOfCells="3">
      <Points>
        <DataArray type="Float64" NumberOfComponents="3" format="ascii">
          4.98276278e-02 -3.54015976e-02 0.00000000e+00 
4.60115410e-02 -3.42054628e-02 0.00000000e+00 
4.22164090e-02 -3.29444520e-02 0.00000000e+00 
3.84457745e-02 -3.16120051e-02 0.00000000e+00 

        </DataArray>
      </Points>
      <Cells>
        <DataArray type="Int32" Name="connectivity" format="ascii">
0 1
1 2
2 3

        </DataArray>
        <DataArray type="Int32" Name="offsets" format="ascii">
2 4 6 
        </DataArray>
        <DataArray type="UInt8" Name="types" format="ascii">
3 3 3 
        </DataArray>
      </Cells>
      <PointData>
        <DataArray type="Float64" Name="rho">
          1.15254717e+00 1.16738757e+00 1.18344717e+00 1.20091749e+00 
        </DataArray>
        <DataArray type="Float64" Name="rhou">
          -1.95192810e-02 -3.36895045e-02 -5.27088534e-02 -7.54488678e-02 
        </DataArray>
        <DataArray type="Float64" Name="rhov">
          3.17038480e-02 4.84766547e-02 7.62591506e-02 1.16875697e-01 
        </DataArray>
        <DataArray type="Float64" Name="E">
          2.64772612e+05 2.68362351e+05 2.72251812e+05 2.76489288e+05 
        </DataArray>
      </PointData>
    </Piece>
    <Piece NumberOfPoints="4" NumberOfCells="3">
      <Points>
        <DataArray type="Float64" NumberOfComponents="3" format="ascii">
          3.84457745e-02 -3.16120051e-02 0.00000000e+00 
3.47041376e-02 -3.02002355e-02 0.00000000e+00 
3.09973080e-02 -2.86995135e-02 0.00000000e+00 
2.73328498e-02 -2.70981900e-02 0.00000000e+00 

        </DataArray>
      </Points>
      <Cells>
        <DataArray type="Int32" Name="connectivity" format="ascii">
0 1
1 2
2 3

        </DataArray>
        <DataArray type="Int32" Name="offsets" format="ascii">
2 4 6 
        </DataArray>
        <DataArray type="UInt8" Name="types" format="ascii">
3 3 3 
        </DataArray>
      </Cells>
      <PointData>
        <DataArray type="Float64" Name="rho">
          1.20091770e+00 1.21998795e+00 1.24085157e+00 1.26388043e+00 
        </DataArray>
        <DataArray type="Float64" Name="rhou">
          -7.64012776e-02 -1.00543217e-01 -1.29138430e-01 -1.54445307e-01 
        </DataArray>
        <DataArray type="Float64" Name="rhov">
          1.16792773e-01 1.72504081e-01 2.58626689e-01 3.79133187e-01 
        </DataArray>
        <DataArray type="Float64" Name="E">
          2.76489204e+05 2.81126560e+05 2.86208574e+05 2.91829515e+05 
        </DataArray>
      </PointData>
    </Piece>
    <Piece NumberOfPoints="4" NumberOfCells="3">
      <Points>
        <DataArray type="Float64" NumberOfComponents="3" format="ascii">
          2.73328498e-02 -2.70981900e-02 0.00000000e+00 
2.37206947e-02 -2.53822580e-02 0.00000000e+00 
2.01744195e-02 -2.35341713e-02 0.00000000e+00 
1.67132635e-02 -2.15314496e-02 0.00000000e+00 

        </DataArray>
      </Points>
      <Cells>
        <DataArray type="Int32" Name="connectivity" format="ascii">
0 1
1 2
2 3

        </DataArray>
        <DataArray type="Int32" Name="offsets" format="ascii">
2 4 6 
        </DataArray>
        <DataArray type="UInt8" Name="types" format="ascii">
3 3 3 
        </DataArray>
      </Cells>
      <PointData>
        <DataArray type="Float64" Name="rho">
          1.26388531e+00 1.28941914e+00 1.31791459e+00 1.35071633e+00 
        </DataArray>
        <DataArray type="Float64" Name="rhou">
          -1.54828870e-01 -1.68692342e-01 -1.52695375e-01 -5.62253832e-02 
        </DataArray>
        <DataArray type="Float64" Name="rhov">
          3.79804474e-01 5.31795053e-01 7.42589285e-01 9.60863269e-01 
        </DataArray>
        <DataArray type="Float64" Name="E">
          2.91830418e+05 2.98084922e+05 3.05077510e+05 3.13136764e+05 
        </DataArray>
      </PointData>
    </Piece>
    <Piece NumberOfPoints="4" NumberOfCells="3">
      <Points>
        <DataArray type="Float64" NumberOfComponents="3" format="ascii">
          1.67132635e-02 -2.15314496e-02 0.00000000e+00 
1.33649679e-02 -1.93456318e-02 0.00000000e+00 
1.01706637e-02 -1.69409402e-02 0.00000000e+00 
7.19343964e-03 -1.42731192e-02 0.00000000e+00 

        </DataArray>
      </Points>
      <Cells>
        <DataArray type="Int32" Name="connectivity" format="ascii">
0 1
1 2
2 3

        </DataArray>
        <DataArray type="Int32" Name="offsets" format="ascii">
2 4 6 
        </DataArray>
        <DataArray type="UInt8" Name="types" format="ascii">
3 3 3 
        </DataArray>
      </Cells>
      <PointData>
        <DataArray type="Float64" Name="rho">
          1.35061032e+00 1.39045522e+00 1.43767876e+00 1.50276028e+00 
        </DataArray>
        <DataArray type="Float64" Name="rhou">
          -3.36381232e-02 1.15388354e-01 4.57118336e-01 8.77250047e-01 
        </DataArray>
        <DataArray type="Float64" Name="rhov">
          9.22537761e-01 1.12496985e+00 1.06866130e+00 5.16357706e-01 
        </DataArray>
        <DataArray type="Float64" Name="E">
          3.13112517e+05 3.22905221e+05 3.34504016e+05 3.50373800e+05 
        </DataArray>
      </PointData>
    </Piece>
    <Piece NumberOfPoints="4" NumberOfCells="3">
      <Points>
        <DataArray type="Float64" NumberOfComponents="3" format="ascii">
          7.19343964e-03 -1.42731192e-02 0.00000000e+00 
4.53082798e-03 -1.12927537e-02 0.00000000e+00 
2.33371323e-03 -7.95678515e-03 0.00000000e+00 
8.10639584e-04 -4.26717056e-03 0.00000000e+00 

        </DataArray>
      </Points>
      <Cells>
        <DataArray type="Int32" Name="connectivity" format="ascii">
0 1
1 2
2 3

        </DataArray>
        <DataArray type="Int32" Name="offsets" format="ascii">
2 4 6 
        </DataArray>
        <DataArray type="UInt8" Name="types" format="ascii">
3 3 3 
        </DataArray>
      </Cells>
      <PointData>
        <DataArray type="Float64" Name="rho">
          1.50328040e+00 1.57768199e+00 1.66671745e+00 1.73531870e+00 
        </DataArray>
        <DataArray type="Float64" Name="rhou">
          8.02108071e-01 9.30555089e-01 2.55483644e-01 -1.28247625e+00 
        </DataArray>
        <DataArray type="Float64" Name="rhov">
          6.15420025e-01 -5.15957479e-01 -1.73478108e+00 -1.81909409e+00 
        </DataArray>
        <DataArray type="Float64" Name="E">
          3.50501335e+05 3.68679490e+05 3.90310607e+05 4.06999428e+05 
        </DataArray>
      </PointData>
    </Piece>
    <Piece NumberOfPoints="4" NumberOfCells="3">
      <Points>
        <DataArray type="Float64" NumberOfComponents="3" format="ascii">
          8.10639584e-04 -4.26717056e-03 0.00000000e+00 
1.91366620e-04 -3.27450951e-04 0.00000000e+00 
6.40850572e-04 3.63462302e-03 0.00000000e+00 
2.03182548e-03 7.37539819e-03 0.00000000e+00 

        </DataArray>
      </Points>
      <Cells>
        <DataArray type="Int32" Name="connectivity" format="ascii">
0 1
1 2
2 3

        </DataArray>
        <DataArray type="Int32" Name="offsets" format="ascii">
2 4 6 
        </DataArray>
        <DataArray type="UInt8" Name="types" format="ascii">
3 3 3 
        </DataArray>
      </Cells>
      <PointData>
        <DataArray type="Float64" Name="rho">
          1.73373870e+00 1.75850688e+00 1.70783099e+00 1.61517704e+00 
        </DataArray>
        <DataArray type="Float64" Name="rhou">
          -1.15665205e+00 -1.88421061e+00 -8.34464346e-01 7.56853208e-01 
        </DataArray>
        <DataArray type="Float64" Name="rhov">
          -1.97812886e+00 3.70359941e-01 1.88953572e+00 1.51662669e+00 
        </DataArray>
        <DataArray type="Float64" Name="E">
          4.06616582e+05 4.12549481e+05 4.00150715e+05 3.77502443e+05 
        </DataArray>
      </PointData>
    </Piece>
    <Piece NumberOfPoints="4" NumberOfCells="3">
      <Points>
        <DataArray type="Float64" NumberOfComponents="3" format="ascii">
          2.03182548e-03 7.37539819e-03 0.00000000e+00 
4.13410179e-03 1.07714310e-02 0.00000000e+00 
6.73249783e-03 1.38076087e-02 0.00000000e+00 
9.66598373e-03 1.65232457e-02 0.00000000e+00 

        </DataArray>
      </Points>
      <Cells>
        <DataArray type="Int32" Name="connectivity" format="ascii">
0 1
1 2
2 3

        </DataArray>
        <DataArray type="Int32" Name="offsets" format="ascii">
2 4 6 
        </DataArray>
        <DataArray type="UInt8" Name="types" format="ascii">
3 3 3 
        </DataArray>
      </Cells>
      <PointData>
        <DataArray type="Float64" Name="rho">
          1.61553769e+00 1.50825526e+00 1.41893266e+00 1.35192923e+00 
        </DataArray>
        <DataArray type="Float64" Name="rhou">
          7.29318335e-01 1.15952197e+00 8.42520047e-01 3.76202154e-01 
        </DataArray>
        <DataArray type="Float64" Name="rhov">
          1.75252014e+00 5.91928252e-02 -1.08056281e+00 -1.40508324e+00 
        </DataArray>
        <DataArray type="Float64" Name="E">
          3.77593263e+05 3.51527593e+05 3.29788478e+05 3.13400188e+05 
        </DataArray>
      </PointData>
    </Piece>
    <Piece NumberOfPoints="4" NumberOfCells="3">
      <Points>
        <DataArray type="Float64" NumberOfComponents="3" format="ascii">
          9.66598373e-03 1.65232457e-02 0.00000000e+00 
1.28298048e-02 1.89677756e-02 0.00000000e+00 
1.61561389e-02 2.11867876e-02 0.00000000e+00 
1.96009967e-02 2.32173651e-02 0.00000000e+00 

        </DataArray>
      </Points>
      <Cells>
        <DataArray type="Int32" Name="connectivity" format="ascii">
0 1
1 2
2 3

        </DataArray>
        <DataArray type="Int32" Name="offsets" format="ascii">
2 4 6 
        </DataArray>
        <DataArray type="UInt8" Name="types" format="ascii">
3 3 3 
        </DataArray>
      </Cells>
      <PointData>
        <DataArray type="Float64" Name="rho">
          1.35172374e+00 1.29923466e+00 1.26024993e+00 1.22593373e+00 
        </DataArray>
        <DataArray type="Float64" Name="rhou">
          3.85743885e-01 -1.69436485e-02 -1.98938019e-01 -2.19502916e-01 
        </DataArray>
        <DataArray type="Float64" Name="rhov">
          -1.42986615e+00 -1.32405016e+00 -9.92603682e-01 -6.66221066e-01 
        </DataArray>
        <DataArray type="Float64" Name="E">
          3.13347930e+05 3.00510570e+05 2.90926399e+05 2.82516144e+05 
        </DataArray>
      </PointData>
    </Piece>
    <Piece NumberOfPoints="4" NumberOfCells="3">
      <Points>
        <DataArray type="Float64" NumberOfComponents="3" format="ascii">
          1.96009967e-02 2.32173651e-02 0.00000000e+00 
2.31348258e-02 2.50891000e-02 0.00000000e+00 
2.67372411e-02 2.68253610e-02 0.00000000e+00 
3.03938854e-02 2.84444261e-02 0.00000000e+00 

        </DataArray>
      </Points>
      <Cells>
        <DataArray type="Int32" Name="connectivity" format="ascii">
0 1
1 2
2 3

        </DataArray>
        <DataArray type="Int32" Name="offsets" format="ascii">
2 4 6 
        </DataArray>
        <DataArray type="UInt8" Name="types" format="ascii">
3 3 3 
        </DataArray>
      </Cells>
      <PointData>
        <DataArray type="Float64" Name="rho">
          1.22599758e+00 1.19687335e+00 1.17082774e+00 1.14724260e+00 
        </DataArray>
        <DataArray type="Float64" Name="rhou">
          -2.32656731e-01 -2.19108102e-01 -1.73776487e-01 -1.31459443e-01 
        </DataArray>
        <DataArray type="Float64" Name="rhov">
          -6.84492503e-01 -4.32743066e-01 -2.45679565e-01 -1.32679168e-01 
        </DataArray>
        <DataArray type="Float64" Name="E">
          2.82531096e+05 2.75412895e+05 2.69070154e+05 2.63343708e+05 
        </DataArray>
      </PointData>
    </Piece>
    <Piece NumberOfPoints="4" NumberOfCells="3">
      <Points>
        <DataArray type="Float64" NumberOfComponents="3" format="ascii">
          3.03938854e-02 2.84444261e-02 0.00000000e+00 
3.40943485e-02 2.99607720e-02 0.00000000e+00 
3.78307216e-02 3.13864015e-02 0.00000000e+00 
4.15969416e-02 3.27312648e-02 0.00000000e+00 

        </DataArray>
      </Points>
      <Cells>
        <DataArray type="Int32" Name="connectivity" format="ascii">
0 1
1 2
2 3

        </DataArray>
        <DataArray type="Int32" Name="offsets" format="ascii">
2 4 6 
        </DataArray>
        <DataArray type="UInt8" Name="types" format="ascii">
3 3 3 
        </DataArray>
      </Cells>
      <PointData>
        <DataArray type="Float64" Name="rho">
          1.14724087e+00 1.12590237e+00 1.10652224e+00 1.08885732e+00 
        </DataArray>
        <DataArray type="Float64" Name="rhou">
          -1.29660226e-01 -8.94261757e-02 -5.65686148e-02 -3.35532990e-02 
        </DataArray>
        <DataArray type="Float64" Name="rhov">
          -1.31223542e-01 -5.48739630e-02 -7.66564242e-03 1.77992673e-02 
        </DataArray>
        <DataArray type="Float64" Name="E">
          2.63343557e+05 2.58181323e+05 2.53504205e+05 2.49248876e+05 
        </DataArray>
      </PointData>
    </Piece>
    <Piece NumberOfPoints="4" NumberOfCells="3">
      <Points>
        <DataArray type="Float64" NumberOfComponents="3" format="ascii">
          4.15969416e-02 3.27312648e-02 0.00000000e+00 
4.53883260e-02 3.40034962e-02 0.00000000e+00 
4.92011942e-02 3.52098532e-02 0.00000000e+00 
5.30325845e-02 3.63560505e-02 0.00000000e+00 

        </DataArray>
      </Points>
      <Cells>
        <DataArray type="Int32" Name="connectivity" format="ascii">
0 1
1 2
2 3

        </DataArray>
        <DataArray type="Int32" Name="offsets" format="ascii">
2 4 6 
        </DataArray>
        <DataArray type="UInt8" Name="types" format="ascii">
3 3 3 
        </DataArray>
      </Cells>
      <PointData>
        <DataArray type="Float64" Name="rho">
          1.08885789e+00 1.07271839e+00 1.05791625e+00 1.04429262e+00 
        </DataArray>
        <DataArray type="Float64" Name="rhou">
          -3.24104418e-02 -1.29239181e-02 1.55097828e-03 1.09599640e-02 
        </DataArray>
        <DataArray type="Float64" Name="rhov">
          1.77050355e-02 3.14382375e-02 3.81239355e-02 3.92946945e-02 
        </DataArray>
        <DataArray type="Float64" Name="E">
          2.49249089e+05 2.45369806e+05 2.41817546e+05 2.38552295e+05 
        </DataArray>
      </PointData>
    </Piece>
    <Piece NumberOfPoints="4" NumberOfCells="3">
      <Points>
        <DataArray type="Float64" NumberOfComponents="3" format="ascii">
          5.30325845e-02 3.63560505e-02 0.00000000e+00 
5.68800643e-02 3.74470428e-02 0.00000000e+00 
6.07415959e-02 3.84872220e-02 0.00000000e+00 
6.46155030e-02 3.94803248e-02 0.00000000e+00 

        </DataArray>
      </Points>
      <Cells>
        <DataArray type="Int32" Name="connectivity" format="ascii">
0 1
1 2
2 3

        </DataArray>
        <DataArray type="Int32" Name="offsets" format="ascii">
2 4 6 
        </DataArray>
        <DataArray type="UInt8" Name="types" format="ascii">
3 3 3 
        </DataArray>
      </Cells>
      <PointData>
        <DataArray type="Float64" Name="rho">
          1.04429332e+00 1.03175951e+00 1.02018354e+00 1.00942462e+00 
        </DataArray>
        <DataArray type="Float64" Name="rhou">
          1.12785889e-02 1.82971547e-02 2.38559949e-02 2.77043460e-02 
        </DataArray>
        <DataArray type="Float64" Name="rhov">
          3.89674129e-02 3.73061926e-02 3.52536681e-02 3.20266393e-02 
        </DataArray>
        <DataArray type="Float64" Name="E">
          2.38552454e+05 2.35552676e+05 2.32785003e+05 2.30215254e+05 
        </DataArray>
      </PointData>
    </Piece>
    <Piece NumberOfPoints="4" NumberOfCells="3">
      <Points>
        <DataArray type="Float64" NumberOfComponents="3" format="ascii">
          6.46155030e-02 3.94803248e-02 0.00000000e+00 
6.85004294e-02 4.04294394e-02 0.00000000e+00 
7.23951608e-02 4.13374715e-02 0.00000000e+00 
7.62986317e-02 4.22072113e-02 0.00000000e+00 

        </DataArray>
      </Points>
      <Cells>
        <DataArray type="Int32" Name="connectivity" format="ascii">
0 1
1 2
2 3

        </DataArray>
        <DataArray type="Int32" Name="offsets" format="ascii">
2 4 6 
        </DataArray>
        <DataArray type="UInt8" Name="types" format="ascii">
3 3 3 
        </DataArray>
      </Cells>
      <PointData>
        <DataArray type="Float64" Name="rho">
          1.00942534e+00 9.99441796e-01 9.90144379e-01 9.81477474e-01 
        </DataArray>
        <DataArray type="Float64" Name="rhou">
          2.75241387e-02 2.94799176e-02 3.05866990e-02 3.06864074e-02 
        </DataArray>
        <DataArray type="Float64" Name="rhov">
          3.17274727e-02 2.78158941e-02 2.44349272e-02 2.11230111e-02 
        </DataArray>
        <DataArray type="Float64" Name="E">
          2.30215401e+05 2.27833498e+05 2.25617167e+05 2.23552462e+05 
        </DataArray>
      </PointData>
    </Piece>
    <Piece NumberOfPoints="4" NumberOfCells="3">
      <Points>
        <DataArray type="Float64" NumberOfComponents="3" format="ascii">
          7.62986317e-02 4.22072113e-02 0.00000000e+00 
8.02098960e-02 4.30411920e-02 0.00000000e+00 
8.41281936e-02 4.38414887e-02 0.00000000e+00 
8.80528912e-02 4.46097627e-02 0.00000000e+00 

        </DataArray>
      </Points>
      <Cells>
        <DataArray type="Int32" Name="connectivity" format="ascii">
0 1
1 2
2 3

        </DataArray>
        <DataArray type="Int32" Name="offsets" format="ascii">
2 4 6 
        </DataArray>
        <DataArray type="UInt8" Name="types" format="ascii">
3 3 3 
        </DataArray>
      </Cells>
      <PointData>
        <DataArray type="Float64" Name="rho">
          9.81476532e-01 9.73393715e-01 9.65800353e-01 9.58650569e-01 
        </DataArray>
        <DataArray type="Float64" Name="rhou">
          3.05394435e-02 3.05682693e-02 3.02984516e-02 2.92367076e-02 
        </DataArray>
        <DataArray type="Float64" Name="rhov">
          2.09593517e-02 1.83933039e-02 1.58790963e-02 1.31931383e-02 
        </DataArray>
        <DataArray type="Float64" Name="E">
          2.23552226e+05 2.21628204e+05 2.19822008e+05 2.18122512e+05 
        </DataArray>
      </PointData>
    </Piece>
    <Piece NumberOfPoints="4" NumberOfCells="3">
      <Points>
        <DataArray type="Float64" NumberOfComponents="3" format="ascii">
          8.80528912e-02 4.46097627e-02 0.00000000e+00 
9.19835642e-02 4.53475714e-02 0.00000000e+00 
9.59195644e-02 4.60564308e-02 0.00000000e+00 
9.98597518e-02 4.67394181e-02 0.00000000e+00 

        </DataArray>
      </Points>
      <Cells>
        <DataArray type="Int32" Name="connectivity" format="ascii">
0 1
1 2
2 3

        </DataArray>
        <DataArray type="Int32" Name="offsets" format="ascii">
2 4 6 
        </DataArray>
        <DataArray type="UInt8" Name="types" format="ascii">
3 3 3 
        </DataArray>
      </Cells>
      <PointData>
        <DataArray type="Float64" Name="rho">
          9.58651070e-01 9.51934884e-01 9.45639551e-01 9.39665560e-01 
        </DataArray>
        <DataArray type="Float64" Name="rhou">
          2.90425390e-02 2.76212546e-02 2.41467057e-02 2.86749154e-02 
        </DataArray>
        <DataArray type="Float64" Name="rhov">
          1.33563140e-02 1.07738714e-02 9.18674379e-03 8.68413407e-03 
        </DataArray>
        <DataArray type="Float64" Name="E">
          2.18122628e+05 2.16527460e+05 2.15032732e+05 2.13615373e+05 
        </DataArray>
      </PointData>
    </Piece>
    <Piece NumberOfPoints="4" NumberOfCells="3">
      <Points>
        <DataArray type="Float64" NumberOfComponents="3" format="ascii">
          9.98597518e-02 4.67394181e-02 0.00000000e+00 
1.10118888e-01 4.83862534e-02 0.00000000e+00 
1.20400399e-01 4.98730615e-02 0.00000000e+00 
1.30701363e-01 5.12186773e-02 0.00000000e+00 

        </DataArray>
      </Points>
      <Cells>
        <DataArray type="Int32" Name="connectivity" format="ascii">
0 1
1 2
2 3

        </DataArray>
        <DataArray type="Int32" Name="offsets" format="ascii">
2 4 6 
        </DataArray>
        <DataArray type="UInt8" Name="types" format="ascii">
3 3 3 
        </DataArray>
      </Cells>
      <PointData>
        <DataArray type="Float64" Name="rho">
          9.39592801e-01 9.25663109e-01 9.13651933e-01 9.03332570e-01 
        </DataArray>
        <DataArray type="Float64" Name="rhou">
          2.64000763e-02 1.82115158e-02 1.60790934e-02 1.26072008e-02 
        </DataArray>
        <DataArray type="Float64" Name="rhov">
          7.44523741e-03 4.21052927e-03 3.70165094e-03 3.02811223e-03 
        </DataArray>
        <DataArray type="Float64" Name="E">
          2.13598923e+05 2.10298170e+05 2.07455754e+05 2.05016598e+05 
        </DataArray>
      </PointData>
    </Piece>
    <Piece NumberOfPoints="4" NumberOfCells="3">
      <Points>
        <DataArray type="Float64" NumberOfComponents="3" format="ascii">
          1.30701363e-01 5.12186773e-02 0.00000000e+00 
1.41019106e-01 5.24347536e-02 0.00000000e+00 
1.51350453e-01 5.35292812e-02 0.00000000e+00 
1.61692888e-01 5.45137413e-02 0.00000000e+00 

        </DataArray>
      </Points>
      <Cells>
        <DataArray type="Int32" Name="connectivity" format="ascii">
0 1
1 2
2 3

        </DataArray>
        <DataArray type="Int32" Name="offsets" format="ascii">
2 4 6 
        </DataArray>
        <DataArray type="UInt8" Name="types" format="ascii">
3 3 3 
        </DataArray>
      </Cells>
      <PointData>
        <DataArray type="Float64" Name="rho">
          9.03329068e-01 8.94274624e-01 8.86460260e-01 8.79777250e-01 
        </DataArray>
        <DataArray type="Float64" Name="rhou">
          1.39917389e-02 1.20907101e-02 1.00119454e-02 8.74366040e-03 
        </DataArray>
        <DataArray type="Float64" Name="rhov">
          3.52866420e-03 2.59881123e-03 1.81820805e-03 1.64051249e-03 
        </DataArray>
        <DataArray type="Float64" Name="E">
          2.05015757e+05 2.02879193e+05 2.01037921e+05 1.99465190e+05 
        </DataArray>
      </PointData>
    </Piece>
    <Piece NumberOfPoints="4" NumberOfCells="3">
      <Points>
        <DataArray type="Float64" NumberOfComponents="3" format="ascii">
          1.61692888e-01 5.45137413e-02 0.00000000e+00 
1.72044471e-01 5.53969070e-02 0.00000000e+00 
1.82403773e-01 5.61845005e-02 0.00000000e+00 
1.92769483e-01 5.68825118e-02 0.00000000e+00 

        </DataArray>
      </Points>
      <Cells>
        <DataArray type="Int32" Name="connectivity" format="ascii">
0 1
1 2
2 3

        </DataArray>
        <DataArray type="Int32" Name="offsets" format="ascii">
2 4 6 
        </DataArray>
        <DataArray type="UInt8" Name="types" format="ascii">
3 3 3 
        </DataArray>
      </Cells>
      <PointData>
        <DataArray type="Float64" Name="rho">
          8.79774840e-01 8.74027745e-01 8.69125489e-01 8.65014896e-01 
        </DataArray>
        <DataArray type="Float64" Name="rhou">
          8.78063481e-03 7.64703558e-03 6.61075551e-03 5.70670913e-03 
        </DataArray>
        <DataArray type="Float64" Name="rhov">
          1.69226930e-03 1.32454953e-03 9.43400807e-04 7.12738259e-04 
        </DataArray>
        <DataArray type="Float64" Name="E">
          1.99464649e+05 1.98114346e+05 1.96964791e+05 1.96002879e+05 
        </DataArray>
      </PointData>
    </Piece>
    <Piece NumberOfPoints="4" NumberOfCells="3">
      <Points>
        <DataArray type="Float64" NumberOfComponents="3" format="ascii">
          1.92769483e-01 5.68825118e-02 0.00000000e+00 
2.03140482e-01 5.74972220e-02 0.00000000e+00 
2.13515818e-01 5.80338500e-02 0.00000000e+00 
2.23894730e-01 5.84962890e-02 0.00000000e+00 

        </DataArray>
      </Points>
      <Cells>
        <DataArray type="Int32" Name="connectivity" format="ascii">
0 1
1 2
2 3

        </DataArray>
        <DataArray type="Int32" Name="offsets" format="ascii">
2 4 6 
        </DataArray>
        <DataArray type="UInt8" Name="types" format="ascii">
3 3 3 
        </DataArray>
      </Cells>
      <PointData>
        <DataArray type="Float64" Name="rho">
          8.65014205e-01 8.61614925e-01 8.58842438e-01 8.56637878e-01 
        </DataArray>
        <DataArray type="Float64" Name="rhou">
          5.74372957e-03 5.02109941e-03 4.46412691e-03 4.00361759e-03 
        </DataArray>
        <DataArray type="Float64" Name="rhov">
          7.54289609e-04 6.62343086e-04 5.44633584e-04 4.20098828e-04 
        </DataArray>
        <DataArray type="Float64" Name="E">
          1.96002720e+05 1.95209161e+05 1.94564035e+05 1.94053302e+05 
        </DataArray>
      </PointData>
    </Piece>
    <Piece NumberOfPoints="4" NumberOfCells="3">
      <Points>
        <DataArray type="Float64" NumberOfComponents="3" format="ascii">
          2.23894730e-01 5.84962890e-02 0.00000000e+00 
2.34276548e-01 5.88882305e-02 0.00000000e+00 
2.44660646e-01 5.92139624e-02 0.00000000e+00 
2.55046517e-01 5.94772622e-02 0.00000000e+00 

        </DataArray>
      </Points>
      <Cells>
        <DataArray type="Int32" Name="connectivity" format="ascii">
0 1
1 2
2 3

        </DataArray>
        <DataArray type="Int32" Name="offsets" format="ascii">
2 4 6 
        </DataArray>
        <DataArray type="UInt8" Name="types" format="ascii">
3 3 3 
        </DataArray>
      </Cells>
      <PointData>
        <DataArray type="Float64" Name="rho">
          8.56638449e-01 8.54958947e-01 8.53759474e-01 8.52984180e-01 
        </DataArray>
        <DataArray type="Float64" Name="rhou">
          4.01132218e-03 3.48971119e-03 3.11144576e-03 2.88243461e-03 
        </DataArray>
        <DataArray type="Float64" Name="rhov">
          4.34532007e-04 3.54582539e-04 3.35491836e-04 3.32459685e-04 
        </DataArray>
        <DataArray type="Float64" Name="E">
          1.94053432e+05 1.93666726e+05 1.93393280e+05 1.93219903e+05 
        </DataArray>
      </PointData>
    </Piece>
    <Piece NumberOfPoints="4" NumberOfCells="3">
      <Points>
        <DataArray type="Float64" NumberOfComponents="3" format="ascii">
          2.55046517e-01 5.94772622e-02 0.00000000e+00 
2.65433758e-01 5.96804135e-02 0.00000000e+00 
2.75821954e-01 5.98256700e-02 0.00000000e+00 
2.86210775e-01 5.99167012e-02 0.00000000e+00 

        </DataArray>
      </Points>
      <Cells>
        <DataArray type="Int32" Name="connectivity" format="ascii">
0 1
1 2
2 3

        </DataArray>
        <DataArray type="Int32" Name="offsets" format="ascii">
2 4 6 
        </DataArray>
        <DataArray type="UInt8" Name="types" format="ascii">
3 3 3 
        </DataArray>
      </Cells>
      <PointData>
        <DataArray type="Float64" Name="rho">
          8.52984191e-01 8.52584379e-01 8.52534971e-01 8.52815269e-01 
        </DataArray>
        <DataArray type="Float64" Name="rhou">
          2.87654935e-03 2.58992029e-03 2.29599830e-03 2.03268384e-03 
        </DataArray>
        <DataArray type="Float64" Name="rhov">
          3.43781908e-04 2.46383148e-04 1.86217863e-04 2.18332158e-04 
        </DataArray>
        <DataArray type="Float64" Name="E">
          1.93219909e+05 1.93135122e+05 1.93132895e+05 1.93208124e+05 
        </DataArray>
      </PointData>
    </Piece>
    <Piece NumberOfPoints="4" NumberOfCells="3">
      <Points>
        <DataArray type="Float64" NumberOfComponents="3" format="ascii">
          2.86210775e-01 5.99167012e-02 0.00000000e+00 
2.96599895e-01 5.99572174e-02 0.00000000e+00 
3.06989133e-01 5.99487796e-02 0.00000000e+00 
3.17378193e-01 5.98919280e-02 0.00000000e+00 

        </DataArray>
      </Points>
      <Cells>
        <DataArray type="Int32" Name="connectivity" format="ascii">
0 1
1 2
2 3

        </DataArray>
        <DataArray type="Int32" Name="offsets" format="ascii">
2 4 6 
        </DataArray>
        <DataArray type="UInt8" Name="types" format="ascii">
3 3 3 
        </DataArray>
      </Cells>
      <PointData>
        <DataArray type="Float64" Name="rho">
          8.52814248e-01 8.53375004e-01 8.54169362e-01 8.55182205e-01 
        </DataArray>
        <DataArray type="Float64" Name="rhou">
          2.05140857e-03 1.93579461e-03 1.80918132e-03 1.62737264e-03 
        </DataArray>
        <DataArray type="Float64" Name="rhov">
          2.34712104e-04 2.60019582e-04 2.03820199e-04 1.27619738e-04 
        </DataArray>
        <DataArray type="Float64" Name="E">
          1.93207891e+05 1.93348992e+05 1.93545107e+05 1.93792599e+05 
        </DataArray>
      </PointData>
    </Piece>
    <Piece NumberOfPoints="4" NumberOfCells="3">
      <Points>
        <DataArray type="Float64" NumberOfComponents="3" format="ascii">
          3.17378193e-01 5.98919280e-02 0.00000000e+00 
3.27766895e-01 5.97884916e-02 0.00000000e+00 
3.38155061e-01 5.96415885e-02 0.00000000e+00 
3.48542601e-01 5.94538599e-02 0.00000000e+00 

        </DataArray>
      </Points>
      <Cells>
        <DataArray type="Int32" Name="connectivity" format="ascii">
0 1
1 2
2 3

        </DataArray>
        <DataArray type="Int32" Name="offsets" format="ascii">
2 4 6 
        </DataArray>
        <DataArray type="UInt8" Name="types" format="ascii">
3 3 3 
        </DataArray>
      </Cells>
      <PointData>
        <DataArray type="Float64" Name="rho">
          8.55182553e-01 8.56401224e-01 8.57805697e-01 8.59363376e-01 
        </DataArray>
        <DataArray type="Float64" Name="rhou">
          1.65673378e-03 1.46000651e-03 1.34242945e-03 1.29541319e-03 
        </DataArray>
        <DataArray type="Float64" Name="rhov">
          1.35272415e-04 1.22038413e-04 1.45930112e-04 1.64944578e-04 
        </DataArray>
        <DataArray type="Float64" Name="E">
          1.93792677e+05 1.94088445e+05 1.94427711e+05 1.94802870e+05 
        </DataArray>
      </PointData>
    </Piece>
    <Piece NumberOfPoints="4" NumberOfCells="3">
      <Points>
        <DataArray type="Float64" NumberOfComponents="3" format="ascii">
          3.48542601e-01 5.94538599e-02 0.00000000e+00 
3.58929336e-01 5.92265576e-02 0.00000000e+00 
3.69315147e-01 5.89610897e-02 0.00000000e+00 
3.79699975e-01 5.86590059e-02 0.00000000e+00 

        </DataArray>
      </Points>
      <Cells>
        <DataArray type="Int32" Name="connectivity" format="ascii">
0 1
1 2
2 3

        </DataArray>
        <DataArray type="Int32" Name="offsets" format="ascii">
2 4 6 
        </DataArray>
        <DataArray type="UInt8" Name="types" format="ascii">
3 3 3 
        </DataArray>
      </Cells>
      <PointData>
        <DataArray type="Float64" Name="rho">
          8.59363624e-01 8.61049361e-01 8.62853855e-01 8.64757654e-01 
        </DataArray>
        <DataArray type="Float64" Name="rhou">
          1.30766135e-03 1.18262795e-03 1.08773443e-03 1.03873243e-03 
        </DataArray>
        <DataArray type="Float64" Name="rhov">
          1.61826210e-04 1.23991812e-04 1.14902692e-04 1.11793863e-04 
        </DataArray>
        <DataArray type="Float64" Name="E">
          1.94802927e+05 1.95208103e+05 1.95641053e+05 1.96097240e+05 
        </DataArray>
      </PointData>
    </Piece>
    <Piece NumberOfPoints="4" NumberOfCells="3">
      <Points>
        <DataArray type="Float64" NumberOfComponents="3" format="ascii">
          3.79699975e-01 5.86590059e-02 0.00000000e+00 
3.90083700e-01 5.83211333e-02 0.00000000e+00 
4.00466233e-01 5.79482466e-02 0.00000000e+00 
4.10847515e-01 5.75418957e-02 0.00000000e+00 

        </DataArray>
      </Points>
      <Cells>
        <DataArray type="Int32" Name="connectivity" format="ascii">
0 1
1 2
2 3

        </DataArray>
        <DataArray type="Int32" Name="offsets" format="ascii">
2 4 6 
        </DataArray>
        <DataArray type="UInt8" Name="types" format="ascii">
3 3 3 
        </DataArray>
      </Cells>
      <PointData>
        <DataArray type="Float64" Name="rho">
          8.64757666e-01 8.66744390e-01 8.68804639e-01 8.70932428e-01 
        </DataArray>
        <DataArray type="Float64" Name="rhou">
          1.03088194e-03 9.65455733e-04 8.85356465e-04 8.07963989e-04 
        </DataArray>
        <DataArray type="Float64" Name="rhov">
          1.14238181e-04 8.23200075e-05 5.79805123e-05 6.20933495e-05 
        </DataArray>
        <DataArray type="Float64" Name="E">
          1.96097244e+05 1.96572855e+05 1.97065684e+05 1.97574289e+05 
        </DataArray>
      </PointData>
    </Piece>
    <Piece NumberOfPoints="4" NumberOfCells="3">
      <Points>
        <DataArray type="Float64" NumberOfComponents="3" format="ascii">
          4.10847515e-01 5.75418957e-02 0.00000000e+00 
4.21227485e-01 5.71038015e-02 0.00000000e+00 
4.31606144e-01 5.66351078e-02 0.00000000e+00 
4.41983402e-01 5.61364293e-02 0.00000000e+00 

        </DataArray>
      </Points>
      <Cells>
        <DataArray type="Int32" Name="connectivity" format="ascii">
0 1
1 2
2 3

        </DataArray>
        <DataArray type="Int32" Name="offsets" format="ascii">
2 4 6 
        </DataArray>
        <DataArray type="UInt8" Name="types" format="ascii">
3 3 3 
        </DataArray>
      </Cells>
      <PointData>
        <DataArray type="Float64" Name="rho">
          8.70932227e-01 8.73112520e-01 8.75334219e-01 8.77588217e-01 
        </DataArray>
        <DataArray type="Float64" Name="rhou">
          8.24606960e-04 7.71565013e-04 7.31163705e-04 6.92592024e-04 
        </DataArray>
        <DataArray type="Float64" Name="rhov">
          6.55431105e-05 6.46202104e-05 5.39750843e-05 3.18897225e-05 
        </DataArray>
        <DataArray type="Float64" Name="E">
          1.97574243e+05 1.98095132e+05 1.98625738e+05 1.99163950e+05 
        </DataArray>
      </PointData>
    </Piece>
    <Piece NumberOfPoints="4" NumberOfCells="3">
      <Points>
        <DataArray type="Float64" NumberOfComponents="3" format="ascii">
          4.41983402e-01 5.61364293e-02 0.00000000e+00 
4.52359200e-01 5.56085743e-02 0.00000000e+00 
4.62733537e-01 5.50529286e-02 0.00000000e+00 
4.73106444e-01 5.44707514e-02 0.00000000e+00 

        </DataArray>
      </Points>
      <Cells>
        <DataArray type="Int32" Name="connectivity" format="ascii">
0 1
1 2
2 3

        </DataArray>
        <DataArray type="Int32" Name="offsets" format="ascii">
2 4 6 
        </DataArray>
        <DataArray type="UInt8" Name="types" format="ascii">
3 3 3 
        </DataArray>
      </Cells>
      <PointData>
        <DataArray type="Float64" Name="rho">
          8.77588361e-01 8.79870794e-01 8.82175756e-01 8.84495262e-01 
        </DataArray>
        <DataArray type="Float64" Name="rhou">
          6.89637352e-04 6.32029420e-04 5.90526274e-04 5.65561581e-04 
        </DataArray>
        <DataArray type="Float64" Name="rhov">
          3.25510095e-05 2.43570427e-05 2.42884375e-05 2.41042091e-05 
        </DataArray>
        <DataArray type="Float64" Name="E">
          1.99163983e+05 1.99708887e+05 2.00259106e+05 2.00812795e+05 
        </DataArray>
      </PointData>
    </Piece>
    <Piece NumberOfPoints="4" NumberOfCells="3">
      <Points>
        <DataArray type="Float64" NumberOfComponents="3" format="ascii">
          4.73106444e-01 5.44707514e-02 0.00000000e+00 
4.83477861e-01 5.38627952e-02 0.00000000e+00 
4.93847787e-01 5.32294959e-02 0.00000000e+00 
5.04216135e-01 5.25716618e-02 0.00000000e+00 

        </DataArray>
      </Points>
      <Cells>
        <DataArray type="Int32" Name="connectivity" format="ascii">
0 1
1 2
2 3

        </DataArray>
        <DataArray type="Int32" Name="offsets" format="ascii">
2 4 6 
        </DataArray>
        <DataArray type="UInt8" Name="types" format="ascii">
3 3 3 
        </DataArray>
      </Cells>
      <PointData>
        <DataArray type="Float64" Name="rho">
          8.84495248e-01 8.86822886e-01 8.89153714e-01 8.91487056e-01 
        </DataArray>
        <DataArray type="Float64" Name="rhou">
          5.57981983e-04 5.35697083e-04 4.99090210e-04 4.55638730e-04 
        </DataArray>
        <DataArray type="Float64" Name="rhov">
          2.59603817e-05 1.41975033e-05 -1.00374406e-06 -3.69780887e-06 
        </DataArray>
        <DataArray type="Float64" Name="E">
          2.00812793e+05 2.01368476e+05 2.01925018e+05 2.02482246e+05 
        </DataArray>
      </PointData>
    </Piece>
    <Piece NumberOfPoints="4" NumberOfCells="3">
      <Points>
        <DataArray type="Float64" NumberOfComponents="3" format="ascii">
          5.04216135e-01 5.25716618e-02 0.00000000e+00 
5.14582992e-01 5.18903993e-02 0.00000000e+00 
5.24948359e-01 5.11864908e-02 0.00000000e+00 
5.35312176e-01 5.04603274e-02 0.00000000e+00 

        </DataArray>
      </Points>
      <Cells>
        <DataArray type="Int32" Name="connectivity" format="ascii">
0 1
1 2
2 3

        </DataArray>
        <DataArray type="Int32" Name="offsets" format="ascii">
2 4 6 
        </DataArray>
        <DataArray type="UInt8" Name="types" format="ascii">
3 3 3 
        </DataArray>
      </Cells>
      <PointData>
        <DataArray type="Float64" Name="rho">
          8.91486969e-01 8.93817739e-01 8.96141755e-01 8.98455790e-01 
        </DataArray>
        <DataArray type="Float64" Name="rhou">
          4.64434600e-04 4.36985884e-04 4.16152445e-04 3.95501092e-04 
        </DataArray>
        <DataArray type="Float64" Name="rhov">
          -1.49609395e-06 -1.70999786e-06 -6.99716259e-06 -1.87532585e-05 
        </DataArray>
        <DataArray type="Float64" Name="E">
          2.02482227e+05 2.03038971e+05 2.03594271e+05 2.04147384e+05 
        </DataArray>
      </PointData>
    </Piece>
    <Piece NumberOfPoints="4" NumberOfCells="3">
      <Points>
        <DataArray type="Float64" NumberOfComponents="3" format="ascii">
          5.35312176e-01 5.04603274e-02 0.00000000e+00 
5.45674443e-01 4.97124642e-02 0.00000000e+00 
5.56035221e-01 4.89437394e-02 0.00000000e+00 
5.66394389e-01 4.81546782e-02 0.00000000e+00 

        </DataArray>
      </Points>
      <Cells>
        <DataArray type="Int32" Name="connectivity" format="ascii">
0 1
1 2
2 3

        </DataArray>
        <DataArray type="Int32" Name="offsets" format="ascii">
2 4 6 
        </DataArray>
        <DataArray type="UInt8" Name="types" format="ascii">
3 3 3 
        </DataArray>
      </Cells>
      <PointData>
        <DataArray type="Float64" Name="rho">
          8.98455835e-01 9.00759460e-01 9.03049924e-01 9.05324473e-01 
        </DataArray>
        <DataArray type="Float64" Name="rhou">
          3.91295811e-04 3.63656605e-04 3.44310468e-04 3.31630850e-04 
        </DataArray>
        <DataArray type="Float64" Name="rhov">
          -1.84625842e-05 -1.88131927e-05 -1.91059592e-05 -2.29280078e-05 
        </DataArray>
        <DataArray type="Float64" Name="E">
          2.04147395e+05 2.04698214e+05 2.05246105e+05 2.05790433e+05 
        </DataArray>
      </PointData>
    </Piece>
    <Piece NumberOfPoints="4" NumberOfCells="3">
      <Points>
        <DataArray type="Float64" NumberOfComponents="3" format="ascii">
          5.66394389e-01 4.81546782e-02 0.00000000e+00 
5.76752067e-01 4.73455116e-02 0.00000000e+00 
5.87108195e-01 4.65166979e-02 0.00000000e+00 
5.97462773e-01 4.56690118e-02 0.00000000e+00 

        </DataArray>
      </Points>
      <Cells>
        <DataArray type="Int32" Name="connectivity" format="ascii">
0 1
1 2
2 3

        </DataArray>
        <DataArray type="Int32" Name="offsets" format="ascii">
2 4 6 
        </DataArray>
        <DataArray type="UInt8" Name="types" format="ascii">
3 3 3 
        </DataArray>
      </Cells>
      <PointData>
        <DataArray type="Float64" Name="rho">
          9.05324503e-01 9.07581544e-01 9.09820849e-01 9.12041553e-01 
        </DataArray>
        <DataArray type="Float64" Name="rhou">
          3.31051794e-04 3.09775178e-04 2.87921875e-04 2.71152301e-04 
        </DataArray>
        <DataArray type="Float64" Name="rhov">
          -2.25883534e-05 -3.08374862e-05 -3.38606717e-05 -3.20106475e-05 
        </DataArray>
        <DataArray type="Float64" Name="E">
          2.05790440e+05 2.06330837e+05 2.06867241e+05 2.07399445e+05 
        </DataArray>
      </PointData>
    </Piece>
    <Piece NumberOfPoints="4" NumberOfCells="3">
      <Points>
        <DataArray type="Float64" NumberOfComponents="3" format="ascii">
          5.97462773e-01 4.56690118e-02 0.00000000e+00 
6.07815862e-01 4.48031016e-02 0.00000000e+00 
6.18167400e-01 4.39192392e-02 0.00000000e+00 
6.28517449e-01 4.30175588e-02 0.00000000e+00 

        </DataArray>
      </Points>
      <Cells>
        <DataArray type="Int32" Name="connectivity" format="ascii">
0 1
1 2
2 3

        </DataArray>
        <DataArray type="Int32" Name="offsets" format="ascii">
2 4 6 
        </DataArray>
        <DataArray type="UInt8" Name="types" format="ascii">
3 3 3 
        </DataArray>
      </Cells>
      <PointData>
        <DataArray type="Float64" Name="rho">
          9.12041489e-01 9.14241689e-01 9.16419541e-01 9.18575173e-01 
        </DataArray>
        <DataArray type="Float64" Name="rhou">
          2.69244212e-04 2.60194303e-04 2.47888927e-04 2.30198242e-04 
        </DataArray>
        <DataArray type="Float64" Name="rhov">
          -3.10807032e-05 -3.08730950e-05 -3.59370444e-05 -4.07517778e-05 
        </DataArray>
        <DataArray type="Float64" Name="E">
          2.07399431e+05 2.07926992e+05 2.08449482e+05 2.08966922e+05 
        </DataArray>
      </PointData>
    </Piece>
    <Piece NumberOfPoints="4" NumberOfCells="3">
      <Points>
        <DataArray type="Float64" NumberOfComponents="3" format="ascii">
          6.28517449e-01 4.30175588e-02 0.00000000e+00 
6.38865948e-01 4.20984775e-02 0.00000000e+00 
6.49212897e-01 4.11624312e-02 0.00000000e+00 
6.59558356e-01 4.02097441e-02 0.00000000e+00 

        </DataArray>
      </Points>
      <Cells>
        <DataArray type="Int32" Name="connectivity" format="ascii">
0 1
1 2
2 3

        </DataArray>
        <DataArray type="Int32" Name="offsets" format="ascii">
2 4 6 
        </DataArray>
        <DataArray type="UInt8" Name="types" format="ascii">
3 3 3 
        </DataArray>
      </Cells>
      <PointData>
        <DataArray type="Float64" Name="rho">
          9.18575165e-01 9.20708342e-01 9.22818137e-01 9.24904139e-01 
        </DataArray>
        <DataArray type="Float64" Name="rhou">
          2.31231608e-04 2.18279287e-04 2.07329102e-04 1.95557116e-04 
        </DataArray>
        <DataArray type="Float64" Name="rhov">
          -3.97317937e-05 -3.97365626e-05 -4.09321900e-05 -4.25247325e-05 
        </DataArray>
        <DataArray type="Float64" Name="E">
          2.08966920e+05 2.09479245e+05 2.09986233e+05 2.10487779e+05 
        </DataArray>
      </PointData>
    </Piece>
    <Piece NumberOfPoints="4" NumberOfCells="3">
      <Points>
        <DataArray type="Float64" NumberOfComponents="3" format="ascii">
          6.59558356e-01 4.02097441e-02 0.00000000e+00 
6.69902325e-01 3.92407738e-02 0.00000000e+00 
6.80244744e-01 3.82556282e-02 0.00000000e+00 
6.90585554e-01 3.72543521e-02 0.00000000e+00 

        </DataArray>
      </Points>
      <Cells>
        <DataArray type="Int32" Name="connectivity" format="ascii">
0 1
1 2
2 3

        </DataArray>
        <DataArray type="Int32" Name="offsets" format="ascii">
2 4 6 
        </DataArray>
        <DataArray type="UInt8" Name="types" format="ascii">
3 3 3 
        </DataArray>
      </Cells>
      <PointData>
        <DataArray type="Float64" Name="rho">
          9.24904121e-01 9.26966232e-01 9.29003177e-01 9.31015646e-01 
        </DataArray>
        <DataArray type="Float64" Name="rhou">
          1.92286195e-04 1.87618787e-04 1.79357454e-04 1.64986337e-04 
        </DataArray>
        <DataArray type="Float64" Name="rhov">
          -4.14836686e-05 -4.07604969e-05 -4.46627259e-05 -4.77438533e-05 
        </DataArray>
        <DataArray type="Float64" Name="E">
          2.10487775e+05 2.10983847e+05 2.11474142e+05 2.11958806e+05 
        </DataArray>
      </PointData>
    </Piece>
    <Piece NumberOfPoints="4" NumberOfCells="3">
      <Points>
        <DataArray type="Float64" NumberOfComponents="3" format="ascii">
          6.90585554e-01 3.72543521e-02 0.00000000e+00 
7.00924933e-01 3.62373814e-02 0.00000000e+00 
7.11262703e-01 3.52048986e-02 0.00000000e+00 
7.21598923e-01 3.41568366e-02 0.00000000e+00 

        </DataArray>
      </Points>
      <Cells>
        <DataArray type="Int32" Name="connectivity" format="ascii">
0 1
1 2
2 3

        </DataArray>
        <DataArray type="Int32" Name="offsets" format="ascii">
2 4 6 
        </DataArray>
        <DataArray type="UInt8" Name="types" format="ascii">
3 3 3 
        </DataArray>
      </Cells>
      <PointData>
        <DataArray type="Float64" Name="rho">
          9.31015602e-01 9.33003891e-01 9.34966641e-01 9.36904373e-01 
        </DataArray>
        <DataArray type="Float64" Name="rhou">
          1.63564441e-04 1.59156579e-04 1.54669200e-04 1.42247270e-04 
        </DataArray>
        <DataArray type="Float64" Name="rhov">
          -4.66174748e-05 -4.33689740e-05 -4.61398376e-05 -5.03894933e-05 
        </DataArray>
        <DataArray type="Float64" Name="E">
          2.11958797e+05 2.12437885e+05 2.12911075e+05 2.13378472e+05 
        </DataArray>
      </PointData>
    </Piece>
    <Piece NumberOfPoints="4" NumberOfCells="3">
      <Points>
        <DataArray type="Float64" NumberOfComponents="3" format="ascii">
          7.21598923e-01 3.41568366e-02 0.00000000e+00 
7.31933594e-01 3.30936089e-02 0.00000000e+00 
7.42266715e-01 3.20154354e-02 0.00000000e+00 
7.52598286e-01 3.09220124e-02 0.00000000e+00 

        </DataArray>
      </Points>
      <Cells>
        <DataArray type="Int32" Name="connectivity" format="ascii">
0 1
1 2
2 3

        </DataArray>
        <DataArray type="Int32" Name="offsets" format="ascii">
2 4 6 
        </DataArray>
        <DataArray type="UInt8" Name="types" format="ascii">
3 3 3 
        </DataArray>
      </Cells>
      <PointData>
        <DataArray type="Float64" Name="rho">
          9.36904353e-01 9.38817992e-01 9.40706022e-01 9.42568838e-01 
        </DataArray>
        <DataArray type="Float64" Name="rhou">
          1.39516629e-04 1.36351120e-04 1.34546693e-04 1.25195459e-04 
        </DataArray>
        <DataArray type="Float64" Name="rhov">
          -4.94121953e-05 -4.41647258e-05 -4.58918455e-05 -5.05713731e-05 
        </DataArray>
        <DataArray type="Float64" Name="E">
          2.13378468e+05 2.13840268e+05 2.14296112e+05 2.14746075e+05 
        </DataArray>
      </PointData>
    </Piece>
    <Piece NumberOfPoints="4" NumberOfCells="3">
      <Points>
        <DataArray type="Float64" NumberOfComponents="3" format="ascii">
          7.52598286e-01 3.09220124e-02 0.00000000e+00 
7.62928188e-01 2.98135038e-02 0.00000000e+00 
7.73256481e-01 2.86899786e-02 0.00000000e+00 
7.83583105e-01 2.75512449e-02 0.00000000e+00 

        </DataArray>
      </Points>
      <Cells>
        <DataArray type="Int32" Name="connectivity" format="ascii">
0 1
1 2
2 3

        </DataArray>
        <DataArray type="Int32" Name="offsets" format="ascii">
2 4 6 
        </DataArray>
        <DataArray type="UInt8" Name="types" format="ascii">
3 3 3 
        </DataArray>
      </Cells>
      <PointData>
        <DataArray type="Float64" Name="rho">
          9.42568832e-01 9.44407487e-01 9.46221027e-01 9.48010048e-01 
        </DataArray>
        <DataArray type="Float64" Name="rhou">
          1.22536449e-04 1.20068585e-04 1.17542550e-04 1.09474588e-04 
        </DataArray>
        <DataArray type="Float64" Name="rhov">
          -4.96462208e-05 -4.67018850e-05 -4.84084706e-05 -5.12121652e-05 
        </DataArray>
        <DataArray type="Float64" Name="E">
          2.14746074e+05 2.15190379e+05 2.15628791e+05 2.16061425e+05 
        </DataArray>
      </PointData>
    </Piece>
    <Piece NumberOfPoints="4" NumberOfCells="3">
      <Points>
        <DataArray type="Float64" NumberOfComponents="3" format="ascii">
          7.83583105e-01 2.75512449e-02 0.00000000e+00 
7.93908060e-01 2.63975188e-02 0.00000000e+00 
8.04231405e-01 2.52291560e-02 0.00000000e+00 
8.14553022e-01 2.40457114e-02 0.00000000e+00 

        </DataArray>
      </Points>
      <Cells>
        <DataArray type="Int32" Name="connectivity" format="ascii">
0 1
1 2
2 3

        </DataArray>
        <DataArray type="Int32" Name="offsets" format="ascii">
2 4 6 
        </DataArray>
        <DataArray type="UInt8" Name="types" format="ascii">
3 3 3 
        </DataArray>
      </Cells>
      <PointData>
        <DataArray type="Float64" Name="rho">
          9.48010054e-01 9.49775237e-01 9.51516402e-01 9.53232802e-01 
        </DataArray>
        <DataArray type="Float64" Name="rhou">
          1.12092351e-04 1.02833299e-04 1.03503375e-04 1.06378071e-04 
        </DataArray>
        <DataArray type="Float64" Name="rhov">
          -5.15889995e-05 -4.73071368e-05 -4.55372916e-05 -5.17420084e-05 
        </DataArray>
        <DataArray type="Float64" Name="E">
          2.16061427e+05 2.16488416e+05 2.16909695e+05 2.17325066e+05 
        </DataArray>
      </PointData>
    </Piece>
    <Piece NumberOfPoints="4" NumberOfCells="3">
      <Points>
        <DataArray type="Float64" NumberOfComponents="3" format="ascii">
          8.14553022e-01 2.40457114e-02 0.00000000e+00 
8.24872792e-01 2.28467938e-02 0.00000000e+00 
8.35190892e-01 2.16327831e-02 0.00000000e+00 
8.45507145e-01 2.04038676e-02 0.00000000e+00 

        </DataArray>
      </Points>
      <Cells>
        <DataArray type="Int32" Name="connectivity" format="ascii">
0 1
1 2
2 3

        </DataArray>
        <DataArray type="Int32" Name="offsets" format="ascii">
2 4 6 
        </DataArray>
        <DataArray type="UInt8" Name="types" format="ascii">
3 3 3 
        </DataArray>
      </Cells>
      <PointData>
        <DataArray type="Float64" Name="rho">
          9.53232846e-01 9.54926119e-01 9.56596520e-01 9.58244171e-01 
        </DataArray>
        <DataArray type="Float64" Name="rhou">
          1.00322872e-04 9.38334628e-05 8.87087412e-05 9.14798315e-05 
        </DataArray>
        <DataArray type="Float64" Name="rhov">
          -5.20214549e-05 -5.15601382e-05 -4.82951399e-05 -4.39555094e-05 
        </DataArray>
        <DataArray type="Float64" Name="E">
          2.17325077e+05 2.17734881e+05 2.18139138e+05 2.18537833e+05 
        </DataArray>
      </PointData>
    </Piece>
    <Piece NumberOfPoints="4" NumberOfCells="3">
      <Points>
        <DataArray type="Float64" NumberOfComponents="3" format="ascii">
          8.45507145e-01 2.04038676e-02 0.00000000e+00 
8.55821550e-01 1.91591792e-02 0.00000000e+00 
8.66134048e-01 1.78987328e-02 0.00000000e+00 
8.76444638e-01 1.66228991e-02 0.00000000e+00 

        </DataArray>
      </Points>
      <Cells>
        <DataArray type="Int32" Name="connectivity" format="ascii">
0 1
1 2
2 3

        </DataArray>
        <DataArray type="Int32" Name="offsets" format="ascii">
2 4 6 
        </DataArray>
        <DataArray type="UInt8" Name="types" format="ascii">
3 3 3 
        </DataArray>
      </Cells>
      <PointData>
        <DataArray type="Float64" Name="rho">
          9.58244285e-01 9.59867808e-01 9.61471210e-01 9.63051023e-01 
        </DataArray>
        <DataArray type="Float64" Name="rhou">
          1.13277887e-04 8.33153600e-05 8.40162797e-05 1.02849241e-04 
        </DataArray>
        <DataArray type="Float64" Name="rhov">
          -4.76913511e-05 -5.50664886e-05 -5.21200538e-05 -6.99610175e-05 
        </DataArray>
        <DataArray type="Float64" Name="E">
          2.18537859e+05 2.18930629e+05 2.19318325e+05 2.19700089e+05 
        </DataArray>
      </PointData>
    </Piece>
    <Piece NumberOfPoints="4" NumberOfCells="3">
      <Points>
        <DataArray type="Float64" NumberOfComponents="3" format="ascii">
          8.76444638e-01 1.66228991e-02 0.00000000e+00 
8.86753201e-01 1.53310820e-02 0.00000000e+00 
8.97059798e-01 1.40233757e-02 0.00000000e+00 
9.07364249e-01 1.26988320e-02 0.00000000e+00 

        </DataArray>
      </Points>
      <Cells>
        <DataArray type="Int32" Name="connectivity" format="ascii">
0 1
1 2
2 3

        </DataArray>
        <DataArray type="Int32" Name="offsets" format="ascii">
2 4 6 
        </DataArray>
        <DataArray type="UInt8" Name="types" format="ascii">
3 3 3 
        </DataArray>
      </Cells>
      <PointData>
        <DataArray type="Float64" Name="rho">
          9.63050563e-01 9.64613711e-01 9.66152717e-01 9.67686957e-01 
        </DataArray>
        <DataArray type="Float64" Name="rhou">
          8.51971867e-06 1.05389101e-04 5.12387915e-05 -2.81660576e-07 
        </DataArray>
        <DataArray type="Float64" Name="rhov">
          -6.18773016e-05 -6.51419354e-05 -8.45094414e-05 1.67223652e-05 
        </DataArray>
        <DataArray type="Float64" Name="E">
          2.19699984e+05 2.20077319e+05 2.20448431e+05 2.20817648e+05 
        </DataArray>
      </PointData>
    </Piece>
    <Piece NumberOfPoints="4" NumberOfCells="3">
      <Points>
        <DataArray type="Float64" NumberOfComponents="3" format="ascii">
          9.07364249e-01 1.26988320e-02 0.00000000e+00 
9.17666554e-01 1.13577880e-02 0.00000000e+00 
9.27966774e-01 1.00004105e-02 0.00000000e+00 
9.38264549e-01 8.62528384e-03 0.00000000e+00 

        </DataArray>
      </Points>
      <Cells>
        <DataArray type="Int32" Name="connectivity" format="ascii">
0 1
1 2
2 3

        </DataArray>
        <DataArray type="Int32" Name="offsets" format="ascii">
2 4 6 
        </DataArray>
        <DataArray type="UInt8" Name="types" format="ascii">
3 3 3 
        </DataArray>
      </Cells>
      <PointData>
        <DataArray type="Float64" Name="rho">
          9.67691936e-01 9.69178445e-01 9.70692276e-01 9.72059391e-01 
        </DataArray>
        <DataArray type="Float64" Name="rhou">
          8.29414925e-04 -2.00876757e-04 3.66730188e-04 8.04869368e-04 
        </DataArray>
        <DataArray type="Float64" Name="rhov">
          -5.43628306e-05 -1.08952775e-04 -3.67868078e-05 -1.49067721e-03 
        </DataArray>
        <DataArray type="Float64" Name="E">
          2.20818783e+05 2.21176202e+05 2.21538853e+05 2.21866937e+05 
        </DataArray>
      </PointData>
    </Piece>
    <Piece NumberOfPoints="4" NumberOfCells="3">
      <Points>
        <DataArray type="Float64" NumberOfComponents="3" format="ascii">
          9.38264549e-01 8.62528384e-03 0.00000000e+00 
9.48560059e-01 7.23283459e-03 0.00000000e+00 
9.58853185e-01 5.82307298e-03 0.00000000e+00 
9.69143867e-01 4.39538015e-03 0.00000000e+00 

        </DataArray>
      </Points>
      <Cells>
        <DataArray type="Int32" Name="connectivity" format="ascii">
0 1
1 2
2 3

        </DataArray>
        <DataArray type="Int32" Name="offsets" format="ascii">
2 4 6 
        </DataArray>
        <DataArray type="UInt8" Name="types" format="ascii">
3 3 3 
        </DataArray>
      </Cells>
      <PointData>
        <DataArray type="Float64" Name="rho">
          9.72010744e-01 9.73709152e-01 9.74991276e-01 9.77759206e-01 
        </DataArray>
        <DataArray type="Float64" Name="rhou">
          -6.82995878e-03 2.21612240e-03 -3.21141199e-03 -1.94421211e-02 
        </DataArray>
        <DataArray type="Float64" Name="rhov">
          -1.10622594e-03 1.40112050e-04 -1.15272180e-03 1.94003828e-02 
        </DataArray>
        <DataArray type="Float64" Name="E">
          2.21855833e+05 2.22258384e+05 2.22564749e+05 2.23209081e+05 
        </DataArray>
      </PointData>
    </Piece>
    <Piece NumberOfPoints="4" NumberOfCells="3">
      <Points>
        <DataArray type="Float64" NumberOfComponents="3" format="ascii">
          9.69143867e-01 4.39538015e-03 0.00000000e+00 
9.79435980e-01 2.94816052e-03 0.00000000e+00 
9.89725590e-01 1.48259092e-03 0.00000000e+00 
1.00000000e+00 0.00000000e+00 0.00000000e+00 

        </DataArray>
      </Points>
      <Cells>
        <DataArray type="Int32" Name="connectivity" format="ascii">
0 1
1 2
2 3

        </DataArray>
        <DataArray type="Int32" Name="offsets" format="ascii">
2 4 6 
        </DataArray>
        <DataArray type="UInt8" Name="types" format="ascii">
3 3 3 
        </DataArray>
      </Cells>
      <PointData>
        <DataArray type="Float64" Name="rho">
          9.78058494e-01 9.77685922e-01 9.81633716e-01 9.71595061e-01 
        </DataArray>
        <DataArray type="Float64" Name="rhou">
          -1.54536465e-03 -9.77505467e-03 -3.84358056e-02 5.09821526e-01 
        </DataArray>
        <DataArray type="Float64" Name="rhov">
          2.15937338e-02 1.10644323e-03 5.35952110e-02 -1.40239474e-01 
        </DataArray>
        <DataArray type="Float64" Name="E">
          2.23277793e+05 2.23203266e+05 2.24113401e+05 2.21819549e+05 
        </DataArray>
      </PointData>
    </Piece>
    <Piece NumberOfPoints="4" NumberOfCells="3">
      <Points>
        <DataArray type="Float64" NumberOfComponents="3" format="ascii">
          9.69029665e-01 -4.41133138e-03 0.00000000e+00 
9.79355037e-01 -2.95961346e-03 0.00000000e+00 
9.89677846e-01 -1.48943183e-03 0.00000000e+00 
1.00000000e+00 0.00000000e+00 0.00000000e+00 

        </DataArray>
      </Points>
      <Cells>
        <DataArray type="Int32" Name="connectivity" format="ascii">
0 1
1 2
2 3

        </DataArray>
        <DataArray type="Int32" Name="offsets" format="ascii">
2 4 6 
        </DataArray>
        <DataArray type="UInt8" Name="types" format="ascii">
3 3 3 
        </DataArray>
      </Cells>
      <PointData>
        <DataArray type="Float64" Name="rho">
          9.77414343e-01 9.77020178e-01 9.80842547e-01 9.71873240e-01 
        </DataArray>
        <DataArray type="Float64" Name="rhou">
          -9.14088556e-04 -7.68613480e-03 -3.66126653e-02 4.70682245e-01 
        </DataArray>
        <DataArray type="Float64" Name="rhov">
          -2.42923204e-02 2.21873923e-03 -5.02759507e-02 1.47440098e-01 
        </DataArray>
        <DataArray type="Float64" Name="E">
          2.23039927e+05 2.22972755e+05 2.23871569e+05 2.21867847e+05 
        </DataArray>
      </PointData>
    </Piece>
    <Piece NumberOfPoints="4" NumberOfCells="3">
      <Points>
        <DataArray type="Float64" NumberOfComponents="3" format="ascii">
          9.38035965e-01 -8.65600072e-03 0.00000000e+00 
9.48369622e-01 -7.25875143e-03 0.00000000e+00 
9.58700895e-01 -5.84406452e-03 0.00000000e+00 
9.69029665e-01 -4.41133138e-03 0.00000000e+00 

        </DataArray>
      </Points>
      <Cells>
        <DataArray type="Int32" Name="connectivity" format="ascii">
0 1
1 2
2 3

        </DataArray>
        <DataArray type="Int32" Name="offsets" format="ascii">
2 4 6 
        </DataArray>
        <DataArray type="UInt8" Name="types" format="ascii">
3 3 3 
        </DataArray>
      </Cells>
      <PointData>
        <DataArray type="Float64" Name="rho">
          9.71625989e-01 9.73257552e-01 9.74474627e-01 9.77113355e-01 
        </DataArray>
        <DataArray type="Float64" Name="rhou">
          -6.47369705e-03 2.39563834e-03 -2.65333239e-03 -1.75629426e-02 
        </DataArray>
        <DataArray type="Float64" Name="rhov">
          1.11683261e-03 -1.91199447e-04 1.37453722e-03 -1.79882621e-02 
        </DataArray>
        <DataArray type="Float64" Name="E">
          2.21663679e+05 2.22053791e+05 2.22349970e+05 2.22971688e+05 
        </DataArray>
      </PointData>
    </Piece>
    <Piece NumberOfPoints="4" NumberOfCells="3">
      <Points>
        <DataArray type="Float64" NumberOfComponents="3" format="ascii">
          9.07021165e-01 -1.27432076e-02 0.00000000e+00 
9.17361677e-01 -1.13977119e-02 0.00000000e+00 
9.27700043e-01 -1.00357840e-02 0.00000000e+00 
9.38035965e-01 -8.65600072e-03 0.00000000e+00 

        </DataArray>
      </Points>
      <Cells>
        <DataArray type="Int32" Name="connectivity" format="ascii">
0 1
1 2
2 3

        </DataArray>
        <DataArray type="Int32" Name="offsets" format="ascii">
2 4 6 
        </DataArray>
        <DataArray type="UInt8" Name="types" format="ascii">
3 3 3 
        </DataArray>
      </Cells>
      <PointData>
        <DataArray type="Float64" Name="rho">
          9.67486444e-01 9.68910548e-01 9.70364494e-01 9.71673794e-01 
        </DataArray>
        <DataArray type="Float64" Name="rhou">
          9.63310110e-04 -5.21646400e-05 5.29383288e-04 9.37801358e-04 
        </DataArray>
        <DataArray type="Float64" Name="rhov">
          3.55948703e-05 6.38210993e-05 -2.53569211e-05 1.40791359e-03 
        </DataArray>
        <DataArray type="Float64" Name="E">
          2.20665709e+05 2.21008578e+05 2.21358096e+05 2.21674576e+05 
        </DataArray>
      </PointData>
    </Piece>
    <Piece NumberOfPoints="4" NumberOfCells="3">
      <Points>
        <DataArray type="Float64" NumberOfComponents="3" format="ascii">
          8.75986874e-01 -1.66798849e-02 0.00000000e+00 
8.86333704e-01 -1.53839625e-02 0.00000000e+00 
8.96678507e-01 -1.40720531e-02 0.00000000e+00 
9.07021165e-01 -1.27432076e-02 0.00000000e+00 

        </DataArray>
      </Points>
      <Cells>
        <DataArray type="Int32" Name="connectivity" format="ascii">
0 1
1 2
2 3

        </DataArray>
        <DataArray type="Int32" Name="offsets" format="ascii">
2 4 6 
        </DataArray>
        <DataArray type="UInt8" Name="types" format="ascii">
3 3 3 
        </DataArray>
      </Cells>
      <PointData>
        <DataArray type="Float64" Name="rho">
          9.63085407e-01 9.64559432e-01 9.66019220e-01 9.67481425e-01 
        </DataArray>
        <DataArray type="Float64" Name="rhou">
          1.65690538e-04 2.50487837e-04 2.04169542e-04 1.53894802e-04 
        </DataArray>
        <DataArray type="Float64" Name="rhov">
          5.53838488e-05 4.66945204e-05 6.20588704e-05 -3.45753727e-05 
        </DataArray>
        <DataArray type="Float64" Name="E">
          2.19606564e+05 2.19961415e+05 2.20312817e+05 2.20664567e+05 
        </DataArray>
      </PointData>
    </Piece>
    <Piece NumberOfPoints="4" NumberOfCells="3">
      <Points>
        <DataArray type="Float64" NumberOfComponents="3" format="ascii">
          8.44934702e-01 -2.04724707e-02 0.00000000e+00 
8.55287313e-01 -1.92240477e-02 0.00000000e+00 
8.65638077e-01 -1.79597028e-02 0.00000000e+00 
8.75986874e-01 -1.66798849e-02 0.00000000e+00 

        </DataArray>
      </Points>
      <Cells>
        <DataArray type="Int32" Name="connectivity" format="ascii">
0 1
1 2
2 3

        </DataArray>
        <DataArray type="Int32" Name="offsets" format="ascii">
2 4 6 
        </DataArray>
        <DataArray type="UInt8" Name="types" format="ascii">
3 3 3 
        </DataArray>
      </Cells>
      <PointData>
        <DataArray type="Float64" Name="rho">
          9.58620596e-01 9.60116227e-01 9.61607152e-01 9.63085840e-01 
        </DataArray>
        <DataArray type="Float64" Name="rhou">
          2.93755087e-04 2.36386408e-04 2.26665650e-04 2.68222923e-04 
        </DataArray>
        <DataArray type="Float64" Name="rhov">
          3.04837774e-05 5.10617819e-05 4.02322586e-05 5.88875910e-05 
        </DataArray>
        <DataArray type="Float64" Name="E">
          2.18531187e+05 2.18891488e+05 2.19250558e+05 2.19606663e+05 
        </DataArray>
      </PointData>
    </Piece>
    <Piece NumberOfPoints="4" NumberOfCells="3">
      <Points>
        <DataArray type="Float64" NumberOfComponents="3" format="ascii">
          8.13865662e-01 -2.41250079e-02 0.00000000e+00 
8.24223816e-01 -2.29226518e-02 0.00000000e+00 
8.34580123e-01 -2.17050612e-02 0.00000000e+00 
8.44934702e-01 -2.04724707e-02 0.00000000e+00 

        </DataArray>
      </Points>
      <Cells>
        <DataArray type="Int32" Name="connectivity" format="ascii">
0 1
1 2
2 3

        </DataArray>
        <DataArray type="Int32" Name="offsets" format="ascii">
2 4 6 
        </DataArray>
        <DataArray type="UInt8" Name="types" format="ascii">
3 3 3 
        </DataArray>
      </Cells>
      <PointData>
        <DataArray type="Float64" Name="rho">
          9.54073579e-01 9.55596345e-01 9.57112235e-01 9.58620363e-01 
        </DataArray>
        <DataArray type="Float64" Name="rhou">
          2.61906880e-04 2.48764674e-04 2.35833983e-04 2.43956408e-04 
        </DataArray>
        <DataArray type="Float64" Name="rhov">
          4.32560373e-05 4.36332374e-05 3.56652672e-05 2.31721106e-05 
        </DataArray>
        <DataArray type="Float64" Name="E">
          2.17435816e+05 2.17802667e+05 2.18167846e+05 2.18531134e+05 
        </DataArray>
      </PointData>
    </Piece>
    <Piece NumberOfPoints="4" NumberOfCells="3">
      <Points>
        <DataArray type="Float64" NumberOfComponents="3" format="ascii">
          7.82780826e-01 -2.76402626e-02 0.00000000e+00 
7.93144107e-01 -2.64833923e-02 0.00000000e+00 
8.03505778e-01 -2.53117718e-02 0.00000000e+00 
8.13865662e-01 -2.41250079e-02 0.00000000e+00 

        </DataArray>
      </Points>
      <Cells>
        <DataArray type="Int32" Name="connectivity" format="ascii">
0 1
1 2
2 3

        </DataArray>
        <DataArray type="Int32" Name="offsets" format="ascii">
2 4 6 
        </DataArray>
        <DataArray type="UInt8" Name="types" format="ascii">
3 3 3 
        </DataArray>
      </Cells>
      <PointData>
        <DataArray type="Float64" Name="rho">
          9.49460345e-01 9.51005356e-01 9.52544064e-01 9.54073469e-01 
        </DataArray>
        <DataArray type="Float64" Name="rhou">
          2.76793364e-04 2.57592608e-04 2.59509983e-04 2.71391227e-04 
        </DataArray>
        <DataArray type="Float64" Name="rhov">
          4.16980877e-05 3.26489130e-05 2.76141466e-05 4.17322225e-05 
        </DataArray>
        <DataArray type="Float64" Name="E">
          2.16324579e+05 2.16696705e+05 2.17067342e+05 2.17435791e+05 
        </DataArray>
      </PointData>
    </Piece>
    <Piece NumberOfPoints="4" NumberOfCells="3">
      <Points>
        <DataArray type="Float64" NumberOfComponents="3" format="ascii">
          7.51680970e-01 -3.10197193e-02 0.00000000e+00 
7.62049198e-01 -2.99084149e-02 0.00000000e+00 
7.72415876e-01 -2.87819952e-02 0.00000000e+00 
7.82780826e-01 -2.76402626e-02 0.00000000e+00 

        </DataArray>
      </Points>
      <Cells>
        <DataArray type="Int32" Name="connectivity" format="ascii">
0 1
1 2
2 3

        </DataArray>
        <DataArray type="Int32" Name="offsets" format="ascii">
2 4 6 
        </DataArray>
        <DataArray type="UInt8" Name="types" format="ascii">
3 3 3 
        </DataArray>
      </Cells>
      <PointData>
        <DataArray type="Float64" Name="rho">
          9.44792073e-01 9.46354143e-01 9.47910177e-01 9.49460308e-01 
        </DataArray>
        <DataArray type="Float64" Name="rhou">
          2.84960201e-04 2.82489609e-04 2.78922534e-04 2.66497922e-04 
        </DataArray>
        <DataArray type="Float64" Name="rhov">
          3.63876754e-05 2.90946422e-05 3.24407333e-05 3.96643762e-05 
        </DataArray>
        <DataArray type="Float64" Name="E">
          2.15200501e+05 2.15576559e+05 2.15951245e+05 2.16324571e+05 
        </DataArray>
      </PointData>
    </Piece>
    <Piece NumberOfPoints="4" NumberOfCells="3">
      <Points>
        <DataArray type="Float64" NumberOfComponents="3" format="ascii">
          7.20566452e-01 -3.42622213e-02 0.00000000e+00 
7.30939507e-01 -3.31965312e-02 0.00000000e+00 
7.41311073e-01 -3.21157984e-02 0.00000000e+00 
7.51680970e-01 -3.10197193e-02 0.00000000e+00 

        </DataArray>
      </Points>
      <Cells>
        <DataArray type="Int32" Name="connectivity" format="ascii">
0 1
1 2
2 3

        </DataArray>
        <DataArray type="Int32" Name="offsets" format="ascii">
2 4 6 
        </DataArray>
        <DataArray type="UInt8" Name="types" format="ascii">
3 3 3 
        </DataArray>
      </Cells>
      <PointData>
        <DataArray type="Float64" Name="rho">
          9.40083205e-01 9.41657201e-01 9.43227063e-01 9.44792064e-01 
        </DataArray>
        <DataArray type="Float64" Name="rhou">
          3.07035939e-04 3.01476664e-04 3.00273083e-04 2.88584006e-04 
        </DataArray>
        <DataArray type="Float64" Name="rhov">
          3.49585610e-05 2.32697976e-05 2.54222950e-05 3.69852035e-05 
        </DataArray>
        <DataArray type="Float64" Name="E">
          2.14067353e+05 2.14446016e+05 2.14823792e+05 2.15200499e+05 
        </DataArray>
      </PointData>
    </Piece>
    <Piece NumberOfPoints="4" NumberOfCells="3">
      <Points>
        <DataArray type="Float64" NumberOfComponents="3" format="ascii">
          6.89437866e-01 -3.73662710e-02 0.00000000e+00 
6.99815631e-01 -3.63472365e-02 0.00000000e+00 
7.10191846e-01 -3.53125818e-02 0.00000000e+00 
7.20566452e-01 -3.42622213e-02 0.00000000e+00 

        </DataArray>
      </Points>
      <Cells>
        <DataArray type="Int32" Name="connectivity" format="ascii">
0 1
1 2
2 3

        </DataArray>
        <DataArray type="Int32" Name="offsets" format="ascii">
2 4 6 
        </DataArray>
        <DataArray type="UInt8" Name="types" format="ascii">
3 3 3 
        </DataArray>
      </Cells>
      <PointData>
        <DataArray type="Float64" Name="rho">
          9.35355686e-01 9.36933011e-01 9.38509004e-01 9.40083216e-01 
        </DataArray>
        <DataArray type="Float64" Name="rhou">
          3.37554868e-04 3.31195734e-04 3.25412082e-04 3.08451840e-04 
        </DataArray>
        <DataArray type="Float64" Name="rhov">
          2.90016774e-05 2.09880404e-05 2.50688329e-05 3.52901896e-05 
        </DataArray>
        <DataArray type="Float64" Name="E">
          2.12930613e+05 2.13309760e+05 2.13688714e+05 2.14067355e+05 
        </DataArray>
      </PointData>
    </Piece>
    <Piece NumberOfPoints="4" NumberOfCells="3">
      <Points>
        <DataArray type="Float64" NumberOfComponents="3" format="ascii">
          6.58295333e-01 -4.03269380e-02 0.00000000e+00 
6.68677747e-01 -3.93563360e-02 0.00000000e+00 
6.79058611e-01 -3.83694395e-02 0.00000000e+00 
6.89437866e-01 -3.73662710e-02 0.00000000e+00 

        </DataArray>
      </Points>
      <Cells>
        <DataArray type="Int32" Name="connectivity" format="ascii">
0 1
1 2
2 3

        </DataArray>
        <DataArray type="Int32" Name="offsets" format="ascii">
2 4 6 
        </DataArray>
        <DataArray type="UInt8" Name="types" format="ascii">
3 3 3 
        </DataArray>
      </Cells>
      <PointData>
        <DataArray type="Float64" Name="rho">
          9.30636445e-01 9.32207573e-01 9.33780681e-01 9.35355741e-01 
        </DataArray>
        <DataArray type="Float64" Name="rhou">
          3.73134669e-04 3.68097402e-04 3.56144755e-04 3.36031390e-04 
        </DataArray>
        <DataArray type="Float64" Name="rhov">
          1.98126864e-05 1.61006623e-05 2.22279294e-05 2.98096660e-05 
        </DataArray>
        <DataArray type="Float64" Name="E">
          2.11796919e+05 2.12174211e+05 2.12552122e+05 2.12930626e+05 
        </DataArray>
      </PointData>
    </Piece>
    <Piece NumberOfPoints="4" NumberOfCells="3">
      <Points>
        <DataArray type="Float64" NumberOfComponents="3" format="ascii">
          6.27138972e-01 -4.31386717e-02 0.00000000e+00 
6.37525976e-01 -4.22184542e-02 0.00000000e+00 
6.47911429e-01 -4.12811004e-02 0.00000000e+00 
6.58295333e-01 -4.03269380e-02 0.00000000e+00 

        </DataArray>
      </Points>
      <Cells>
        <DataArray type="Int32" Name="connectivity" format="ascii">
0 1
1 2
2 3

        </DataArray>
        <DataArray type="Int32" Name="offsets" format="ascii">
2 4 6 
        </DataArray>
        <DataArray type="UInt8" Name="types" format="ascii">
3 3 3 
        </DataArray>
      </Cells>
      <PointData>
        <DataArray type="Float64" Name="rho">
          9.25959488e-01 9.27511154e-01 9.29070769e-01 9.30636478e-01 
        </DataArray>
        <DataArray type="Float64" Name="rhou">
          4.24322594e-04 4.05648724e-04 3.88783264e-04 3.74473117e-04 
        </DataArray>
        <DataArray type="Float64" Name="rhov">
          1.82465625e-05 1.65555923e-05 1.73176420e-05 2.06991885e-05 
        </DataArray>
        <DataArray type="Float64" Name="E">
          2.10674517e+05 2.11046767e+05 2.11421051e+05 2.11796926e+05 
        </DataArray>
      </PointData>
    </Piece>
    <Piece NumberOfPoints="4" NumberOfCells="3">
      <Points>
        <DataArray type="Float64" NumberOfComponents="3" format="ascii">
          5.95968783e-01 -4.57924642e-02 0.00000000e+00 
6.06360376e-01 -4.49259281e-02 0.00000000e+00 
6.16750479e-01 -4.40412909e-02 0.00000000e+00 
6.27138972e-01 -4.31386717e-02 0.00000000e+00 

        </DataArray>
      </Points>
      <Cells>
        <DataArray type="Int32" Name="connectivity" format="ascii">
0 1
1 2
2 3

        </DataArray>
        <DataArray type="Int32" Name="offsets" format="ascii">
2 4 6 
        </DataArray>
        <DataArray type="UInt8" Name="types" format="ascii">
3 3 3 
        </DataArray>
      </Cells>
      <PointData>
        <DataArray type="Float64" Name="rho">
          9.21371350e-01 9.22888635e-01 9.24418429e-01 9.25959481e-01 
        </DataArray>
        <DataArray type="Float64" Name="rhou">
          4.69749587e-04 4.57570885e-04 4.40392802e-04 4.18140183e-04 
        </DataArray>
        <DataArray type="Float64" Name="rhov">
          7.91504024e-06 4.14988811e-06 1.00808030e-05 1.90152727e-05 
        </DataArray>
        <DataArray type="Float64" Name="E">
          2.09574540e+05 2.09938167e+05 2.10304927e+05 2.10674516e+05 
        </DataArray>
      </PointData>
    </Piece>
    <Piece NumberOfPoints="4" NumberOfCells="3">
      <Points>
        <DataArray type="Float64" NumberOfComponents="3" format="ascii">
          5.64784765e-01 -4.82786149e-02 0.00000000e+00 
5.75181007e-01 -4.74695377e-02 0.00000000e+00 
5.85575700e-01 -4.66405638e-02 0.00000000e+00 
5.95968783e-01 -4.57924642e-02 0.00000000e+00 

        </DataArray>
      </Points>
      <Cells>
        <DataArray type="Int32" Name="connectivity" format="ascii">
0 1
1 2
2 3

        </DataArray>
        <DataArray type="Int32" Name="offsets" format="ascii">
2 4 6 
        </DataArray>
        <DataArray type="UInt8" Name="types" format="ascii">
3 3 3 
        </DataArray>
      </Cells>
      <PointData>
        <DataArray type="Float64" Name="rho">
          9.16932603e-01 9.18390545e-01 9.19870776e-01 9.21371464e-01 
        </DataArray>
        <DataArray type="Float64" Name="rhou">
          5.47955279e-04 5.21118454e-04 4.87817203e-04 4.63832184e-04 
        </DataArray>
        <DataArray type="Float64" Name="rhov">
          -2.06703792e-06 8.86037567e-06 1.30377662e-05 8.76173755e-06 
        </DataArray>
        <DataArray type="Float64" Name="E">
          2.08511329e+05 2.08860460e+05 2.09215020e+05 2.09574566e+05 
        </DataArray>
      </PointData>
    </Piece>
    <Piece NumberOfPoints="4" NumberOfCells="3">
      <Points>
        <DataArray type="Float64" NumberOfComponents="3" format="ascii">
          5.33586800e-01 -5.05827516e-02 0.00000000e+00 
5.43987691e-01 -4.98356484e-02 0.00000000e+00 
5.54387033e-01 -4.90674041e-02 0.00000000e+00 
5.64784765e-01 -4.82786149e-02 0.00000000e+00 

        </DataArray>
      </Points>
      <Cells>
        <DataArray type="Int32" Name="connectivity" format="ascii">
0 1
1 2
2 3

        </DataArray>
        <DataArray type="Int32" Name="offsets" format="ascii">
2 4 6 
        </DataArray>
        <DataArray type="UInt8" Name="types" format="ascii">
3 3 3 
        </DataArray>
      </Cells>
      <PointData>
        <DataArray type="Float64" Name="rho">
          9.12716297e-01 9.14091045e-01 9.15498276e-01 9.16932562e-01 
        </DataArray>
        <DataArray type="Float64" Name="rhou">
          6.24724283e-04 5.84115558e-04 5.54782970e-04 5.42557555e-04 
        </DataArray>
        <DataArray type="Float64" Name="rhov">
          5.98546464e-07 5.19576712e-08 -3.67242518e-06 -1.82072647e-06 
        </DataArray>
        <DataArray type="Float64" Name="E">
          2.07502142e+05 2.07831137e+05 2.08167949e+05 2.08511319e+05 
        </DataArray>
      </PointData>
    </Piece>
    <Piece NumberOfPoints="4" NumberOfCells="3">
      <Points>
        <DataArray type="Float64" NumberOfComponents="3" format="ascii">
          5.02374947e-01 -5.26902266e-02 0.00000000e+00 
5.12780428e-01 -5.20105064e-02 0.00000000e+00 
5.23184419e-01 -5.13078682e-02 0.00000000e+00 
5.33586800e-01 -5.05827516e-02 0.00000000e+00 

        </DataArray>
      </Points>
      <Cells>
        <DataArray type="Int32" Name="connectivity" format="ascii">
0 1
1 2
2 3

        </DataArray>
        <DataArray type="Int32" Name="offsets" format="ascii">
2 4 6 
        </DataArray>
        <DataArray type="UInt8" Name="types" format="ascii">
3 3 3 
        </DataArray>
      </Cells>
      <PointData>
        <DataArray type="Float64" Name="rho">
          9.08820774e-01 9.10077490e-01 9.11377966e-01 9.12716200e-01 
        </DataArray>
        <DataArray type="Float64" Name="rhou">
          7.09234340e-04 6.71957925e-04 6.43616640e-04 6.22204484e-04 
        </DataArray>
        <DataArray type="Float64" Name="rhov">
          -7.53803085e-06 -1.45026418e-05 -1.35384779e-05 -7.09441661e-09 
        </DataArray>
        <DataArray type="Float64" Name="E">
          2.06570053e+05 2.06870735e+05 2.07181889e+05 2.07502120e+05 
        </DataArray>
      </PointData>
    </Piece>
    <Piece NumberOfPoints="4" NumberOfCells="3">
      <Points>
        <DataArray type="Float64" NumberOfComponents="3" format="ascii">
          4.71149325e-01 -5.45825884e-02 0.00000000e+00 
4.81559396e-01 -5.39771840e-02 0.00000000e+00 
4.91967946e-01 -5.33461571e-02 0.00000000e+00 
5.02374947e-01 -5.26902266e-02 0.00000000e+00 

        </DataArray>
      </Points>
      <Cells>
        <DataArray type="Int32" Name="connectivity" format="ascii">
0 1
1 2
2 3

        </DataArray>
        <DataArray type="Int32" Name="offsets" format="ascii">
2 4 6 
        </DataArray>
        <DataArray type="UInt8" Name="types" format="ascii">
3 3 3 
        </DataArray>
      </Cells>
      <PointData>
        <DataArray type="Float64" Name="rho">
          9.05374007e-01 9.06465450e-01 9.07614698e-01 9.08820863e-01 
        </DataArray>
        <DataArray type="Float64" Name="rhou">
          8.19657084e-04 7.95899397e-04 7.47919653e-04 6.89444143e-04 
        </DataArray>
        <DataArray type="Float64" Name="rhov">
          -3.13109601e-05 -2.53214962e-05 -8.24227500e-06 -4.84686094e-06 
        </DataArray>
        <DataArray type="Float64" Name="E">
          2.05745061e+05 2.06006357e+05 2.06281443e+05 2.06570073e+05 
        </DataArray>
      </PointData>
    </Piece>
    <Piece NumberOfPoints="4" NumberOfCells="3">
      <Points>
        <DataArray type="Float64" NumberOfComponents="3" format="ascii">
          4.39910263e-01 -5.62384278e-02 0.00000000e+00 
4.50324744e-01 -5.57143167e-02 0.00000000e+00 
4.60737765e-01 -5.51619194e-02 0.00000000e+00 
4.71149325e-01 -5.45825884e-02 0.00000000e+00 

        </DataArray>
      </Points>
      <Cells>
        <DataArray type="Int32" Name="connectivity" format="ascii">
0 1
1 2
2 3

        </DataArray>
        <DataArray type="Int32" Name="offsets" format="ascii">
2 4 6 
        </DataArray>
        <DataArray type="UInt8" Name="types" format="ascii">
3 3 3 
        </DataArray>
      </Cells>
      <PointData>
        <DataArray type="Float64" Name="rho">
          9.02529755e-01 9.03396808e-01 9.04348361e-01 9.05374083e-01 
        </DataArray>
        <DataArray type="Float64" Name="rhou">
          9.92451140e-04 9.13572364e-04 8.53791129e-04 8.25218472e-04 
        </DataArray>
        <DataArray type="Float64" Name="rhov">
          -2.32681368e-05 -1.43020456e-05 -2.11851348e-05 -2.88859165e-05 
        </DataArray>
        <DataArray type="Float64" Name="E">
          2.05063267e+05 2.05271330e+05 2.05499404e+05 2.05745077e+05 
        </DataArray>
      </PointData>
    </Piece>
    <Piece NumberOfPoints="4" NumberOfCells="3">
      <Points>
        <DataArray type="Float64" NumberOfComponents="3" format="ascii">
          4.08658355e-01 -5.76302819e-02 0.00000000e+00 
4.19077009e-01 -5.71971126e-02 0.00000000e+00 
4.29494321e-01 -5.67329265e-02 0.00000000e+00 
4.39910263e-01 -5.62384278e-02 0.00000000e+00 

        </DataArray>
      </Points>
      <Cells>
        <DataArray type="Int32" Name="connectivity" format="ascii">
0 1
1 2
2 3

        </DataArray>
        <DataArray type="Int32" Name="offsets" format="ascii">
2 4 6 
        </DataArray>
        <DataArray type="UInt8" Name="types" format="ascii">
3 3 3 
        </DataArray>
      </Cells>
      <PointData>
        <DataArray type="Float64" Name="rho">
          9.00491148e-01 9.01069049e-01 9.01752315e-01 9.02529521e-01 
        </DataArray>
        <DataArray type="Float64" Name="rhou">
          1.15207690e-03 1.08089200e-03 1.02799466e-03 9.87059015e-04 
        </DataArray>
        <DataArray type="Float64" Name="rhov">
          -3.15781728e-05 -4.42071411e-05 -4.34770265e-05 -2.32350366e-05 
        </DataArray>
        <DataArray type="Float64" Name="E">
          2.04572424e+05 2.04711959e+05 2.04876444e+05 2.05063213e+05 
        </DataArray>
      </PointData>
    </Piece>
    <Piece NumberOfPoints="4" NumberOfCells="3">
      <Points>
        <DataArray type="Float64" NumberOfComponents="3" format="ascii">
          3.77394795e-01 -5.87291755e-02 0.00000000e+00 
3.87817174e-01 -5.83979115e-02 0.00000000e+00 
3.98238391e-01 -5.80311492e-02 0.00000000e+00 
4.08658355e-01 -5.76302819e-02 0.00000000e+00 

        </DataArray>
      </Points>
      <Cells>
        <DataArray type="Int32" Name="connectivity" format="ascii">
0 1
1 2
2 3

        </DataArray>
        <DataArray type="Int32" Name="offsets" format="ascii">
2 4 6 
        </DataArray>
        <DataArray type="UInt8" Name="types" format="ascii">
3 3 3 
        </DataArray>
      </Cells>
      <PointData>
        <DataArray type="Float64" Name="rho">
          8.99513637e-01 8.99704740e-01 9.00031522e-01 9.00491361e-01 
        </DataArray>
        <DataArray type="Float64" Name="rhou">
          1.40599134e-03 1.33088488e-03 1.22757618e-03 1.12059531e-03 
        </DataArray>
        <DataArray type="Float64" Name="rhov">
          -7.58656176e-05 -4.76208451e-05 -1.94606684e-05 -2.67413046e-05 
        </DataArray>
        <DataArray type="Float64" Name="E">
          2.04332611e+05 2.04380666e+05 2.04460852e+05 2.04572473e+05 
        </DataArray>
      </PointData>
    </Piece>
    <Piece NumberOfPoints="4" NumberOfCells="3">
      <Points>
        <DataArray type="Float64" NumberOfComponents="3" format="ascii">
          3.46121490e-01 -5.95011823e-02 0.00000000e+00 
3.56546819e-01 -5.92821389e-02 0.00000000e+00 
3.66971314e-01 -5.90242445e-02 0.00000000e+00 
3.77394795e-01 -5.87291755e-02 0.00000000e+00 

        </DataArray>
      </Points>
      <Cells>
        <DataArray type="Int32" Name="connectivity" format="ascii">
0 1
1 2
2 3

        </DataArray>
        <DataArray type="Int32" Name="offsets" format="ascii">
2 4 6 
        </DataArray>
        <DataArray type="UInt8" Name="types" format="ascii">
3 3 3 
        </DataArray>
      </Cells>
      <PointData>
        <DataArray type="Float64" Name="rho">
          8.99878784e-01 8.99583587e-01 8.99467526e-01 8.99513730e-01 
        </DataArray>
        <DataArray type="Float64" Name="rhou">
          1.75372331e-03 1.60753245e-03 1.47691307e-03 1.40946643e-03 
        </DataArray>
        <DataArray type="Float64" Name="rhov">
          -1.12124394e-04 -6.94645027e-05 -6.16798975e-05 -7.12583046e-05 
        </DataArray>
        <DataArray type="Float64" Name="E">
          2.04410442e+05 2.04343492e+05 2.04318879e+05 2.04332631e+05 
        </DataArray>
      </PointData>
    </Piece>
    <Piece NumberOfPoints="4" NumberOfCells="3">
      <Points>
        <DataArray type="Float64" NumberOfComponents="3" format="ascii">
          3.14841360e-01 -5.99102043e-02 0.00000000e+00 
3.25268596e-01 -5.98174632e-02 0.00000000e+00 
3.35695356e-01 -5.96801341e-02 0.00000000e+00 
3.46121490e-01 -5.95011823e-02 0.00000000e+00 

        </DataArray>
      </Points>
      <Cells>
        <DataArray type="Int32" Name="connectivity" format="ascii">
0 1
1 2
2 3

        </DataArray>
        <DataArray type="Int32" Name="offsets" format="ascii">
2 4 6 
        </DataArray>
        <DataArray type="UInt8" Name="types" format="ascii">
3 3 3 
        </DataArray>
      </Cells>
      <PointData>
        <DataArray type="Float64" Name="rho">
          9.01980958e-01 9.01048106e-01 9.00356510e-01 8.99878491e-01 
        </DataArray>
        <DataArray type="Float64" Name="rhou">
          2.20866145e-03 1.96210061e-03 1.79542550e-03 1.71788231e-03 
        </DataArray>
        <DataArray type="Float64" Name="rhov">
          -5.08163273e-05 -2.65552579e-05 -5.83234579e-05 -1.11389396e-04 
        </DataArray>
        <DataArray type="Float64" Name="E">
          2.04899150e+05 2.04681388e+05 2.04520638e+05 2.04410375e+05 
        </DataArray>
      </PointData>
    </Piece>
    <Piece NumberOfPoints="4" NumberOfCells="3">
      <Points>
        <DataArray type="Float64" NumberOfComponents="3" format="ascii">
          2.83558637e-01 -5.98983802e-02 0.00000000e+00 
2.93986142e-01 -5.99516556e-02 0.00000000e+00 
3.04413795e-01 -5.99554181e-02 0.00000000e+00 
3.14841360e-01 -5.99102043e-02 0.00000000e+00 

        </DataArray>
      </Points>
      <Cells>
        <DataArray type="Int32" Name="connectivity" format="ascii">
0 1
1 2
2 3

        </DataArray>
        <DataArray type="Int32" Name="offsets" format="ascii">
2 4 6 
        </DataArray>
        <DataArray type="UInt8" Name="types" format="ascii">
3 3 3 
        </DataArray>
      </Cells>
      <PointData>
        <DataArray type="Float64" Name="rho">
          9.06324446e-01 9.04609649e-01 9.03167263e-01 9.01980241e-01 
        </DataArray>
        <DataArray type="Float64" Name="rhou">
          2.68996514e-03 2.52374767e-03 2.38504033e-03 2.19962083e-03 
        </DataArray>
        <DataArray type="Float64" Name="rhov">
          -1.11571266e-04 -1.77816364e-04 -1.40736922e-04 -4.41743980e-05 
        </DataArray>
        <DataArray type="Float64" Name="E">
          2.05918755e+05 2.05515502e+05 2.05176930e+05 2.04898987e+05 
        </DataArray>
      </PointData>
    </Piece>
    <Piece NumberOfPoints="4" NumberOfCells="3">
      <Points>
        <DataArray type="Float64" NumberOfComponents="3" format="ascii">
          2.52279758e-01 -5.94130717e-02 0.00000000e+00 
2.62705088e-01 -5.96327744e-02 0.00000000e+00 
2.73131490e-01 -5.97934239e-02 0.00000000e+00 
2.83558637e-01 -5.98983802e-02 0.00000000e+00 

        </DataArray>
      </Points>
      <Cells>
        <DataArray type="Int32" Name="connectivity" format="ascii">
0 1
1 2
2 3

        </DataArray>
        <DataArray type="Int32" Name="offsets" format="ascii">
2 4 6 
        </DataArray>
        <DataArray type="UInt8" Name="types" format="ascii">
3 3 3 
        </DataArray>
      </Cells>
      <PointData>
        <DataArray type="Float64" Name="rho">
          9.13519528e-01 9.10756663e-01 9.08361245e-01 9.06325372e-01 
        </DataArray>
        <DataArray type="Float64" Name="rhou">
          3.66761931e-03 3.36099991e-03 3.02369400e-03 2.67618945e-03 
        </DataArray>
        <DataArray type="Float64" Name="rhov">
          -2.65139436e-04 -1.70872987e-04 -8.17087361e-05 -9.22664353e-05 
        </DataArray>
        <DataArray type="Float64" Name="E">
          2.07614372e+05 2.06962621e+05 2.06398210e+05 2.05918968e+05 
        </DataArray>
      </PointData>
    </Piece>
    <Piece NumberOfPoints="4" NumberOfCells="3">
      <Points>
        <DataArray type="Float64" NumberOfComponents="3" format="ascii">
          2.21014455e-01 -5.83752058e-02 0.00000000e+00 
2.31433928e-01 -5.87876961e-02 0.00000000e+00 
2.41855890e-01 -5.91322705e-02 0.00000000e+00 
2.52279758e-01 -5.94130717e-02 0.00000000e+00 

        </DataArray>
      </Points>
      <Cells>
        <DataArray type="Int32" Name="connectivity" format="ascii">
0 1
1 2
2 3

        </DataArray>
        <DataArray type="Int32" Name="offsets" format="ascii">
2 4 6 
        </DataArray>
        <DataArray type="UInt8" Name="types" format="ascii">
3 3 3 
        </DataArray>
      </Cells>
      <PointData>
        <DataArray type="Float64" Name="rho">
          9.24341522e-01 9.20264087e-01 9.16672461e-01 9.13519710e-01 
        </DataArray>
        <DataArray type="Float64" Name="rhou">
          5.02566592e-03 4.43836935e-03 3.99044181e-03 3.70218870e-03 
        </DataArray>
        <DataArray type="Float64" Name="rhov">
          -3.77313858e-04 -2.70647361e-04 -2.36311558e-04 -2.48696462e-04 
        </DataArray>
        <DataArray type="Float64" Name="E">
          2.10171985e+05 2.09207682e+05 2.08358893e+05 2.07614410e+05 
        </DataArray>
      </PointData>
    </Piece>
    <Piece NumberOfPoints="4" NumberOfCells="3">
      <Points>
        <DataArray type="Float64" NumberOfComponents="3" format="ascii">
          1.89777538e-01 -5.66898957e-02 0.00000000e+00 
2.00185493e-01 -5.73302582e-02 0.00000000e+00 
2.10598081e-01 -5.78906052e-02 0.00000000e+00 
2.21014455e-01 -5.83752058e-02 0.00000000e+00 

        </DataArray>
      </Points>
      <Cells>
        <DataArray type="Int32" Name="connectivity" format="ascii">
0 1
1 2
2 3

        </DataArray>
        <DataArray type="Int32" Name="offsets" format="ascii">
2 4 6 
        </DataArray>
        <DataArray type="UInt8" Name="types" format="ascii">
3 3 3 
        </DataArray>
      </Cells>
      <PointData>
        <DataArray type="Float64" Name="rho">
          9.39873459e-01 9.34095589e-01 9.28938154e-01 9.24340758e-01 
        </DataArray>
        <DataArray type="Float64" Name="rhou">
          6.95269694e-03 6.14991596e-03 5.56297105e-03 5.08858367e-03 
        </DataArray>
        <DataArray type="Float64" Name="rhov">
          -6.67311238e-04 -5.93679526e-04 -4.91086306e-04 -3.64648395e-04 
        </DataArray>
        <DataArray type="Float64" Name="E">
          2.13851392e+05 2.12481660e+05 2.11259951e+05 2.10171809e+05 
        </DataArray>
      </PointData>
    </Piece>
    <Piece NumberOfPoints="4" NumberOfCells="3">
      <Points>
        <DataArray type="Float64" NumberOfComponents="3" format="ascii">
          1.58592433e-01 -5.42296544e-02 0.00000000e+00 
1.68979734e-01 -5.51457107e-02 0.00000000e+00 
1.79375216e-01 -5.59638515e-02 0.00000000e+00 
1.89777538e-01 -5.66898957e-02 0.00000000e+00 

        </DataArray>
      </Points>
      <Cells>
        <DataArray type="Int32" Name="connectivity" format="ascii">
0 1
1 2
2 3

        </DataArray>
        <DataArray type="Int32" Name="offsets" format="ascii">
2 4 6 
        </DataArray>
        <DataArray type="UInt8" Name="types" format="ascii">
3 3 3 
        </DataArray>
      </Cells>
      <PointData>
        <DataArray type="Float64" Name="rho">
          9.61680687e-01 9.53606262e-01 9.46354152e-01 9.39873878e-01 
        </DataArray>
        <DataArray type="Float64" Name="rhou">
          1.00156502e-02 8.94010829e-03 7.98903896e-03 7.02423541e-03 
        </DataArray>
        <DataArray type="Float64" Name="rhov">
          -1.43094921e-03 -1.23564833e-03 -9.00279727e-04 -6.26843385e-04 
        </DataArray>
        <DataArray type="Float64" Name="E">
          2.19029091e+05 2.17110424e+05 2.15388748e+05 2.13851492e+05 
        </DataArray>
      </PointData>
    </Piece>
    <Piece NumberOfPoints="4" NumberOfCells="3">
      <Points>
        <DataArray type="Float64" NumberOfComponents="3" format="ascii">
          1.27497971e-01 -5.08146733e-02 0.00000000e+00 
1.37849152e-01 -5.20747155e-02 0.00000000e+00 
1.48214847e-01 -5.32093942e-02 0.00000000e+00 
1.58592433e-01 -5.42296544e-02 0.00000000e+00 

        </DataArray>
      </Points>
      <Cells>
        <DataArray type="Int32" Name="connectivity" format="ascii">
0 1
1 2
2 3

        </DataArray>
        <DataArray type="Int32" Name="offsets" format="ascii">
2 4 6 
        </DataArray>
        <DataArray type="UInt8" Name="types" format="ascii">
3 3 3 
        </DataArray>
      </Cells>
      <PointData>
        <DataArray type="Float64" Name="rho">
          9.92192601e-01 9.80842683e-01 9.70692966e-01 9.61684746e-01 
        </DataArray>
        <DataArray type="Float64" Name="rhou">
          1.45465809e-02 1.33711551e-02 1.15653377e-02 1.00442998e-02 
        </DataArray>
        <DataArray type="Float64" Name="rhov">
          -2.31427361e-03 -2.06503126e-03 -1.44611222e-03 -1.35924229e-03 
        </DataArray>
        <DataArray type="Float64" Name="E">
          2.26291393e+05 2.23587536e+05 2.21172284e+05 2.19030023e+05 
        </DataArray>
      </PointData>
    </Piece>
    <Piece NumberOfPoints="4" NumberOfCells="3">
      <Points>
        <DataArray type="Float64" NumberOfComponents="3" format="ascii">
          9.65642184e-02 -4.61716652e-02 0.00000000e+00 
1.06852271e-01 -4.78802323e-02 0.00000000e+00 
1.17164567e-01 -4.94215861e-02 0.00000000e+00 
1.27497971e-01 -5.08146733e-02 0.00000000e+00 

        </DataArray>
      </Points>
      <Cells>
        <DataArray type="Int32" Name="connectivity" format="ascii">
0 1
1 2
2 3

        </DataArray>
        <DataArray type="Int32" Name="offsets" format="ascii">
2 4 6 
        </DataArray>
        <DataArray type="UInt8" Name="types" format="ascii">
3 3 3 
        </DataArray>
      </Cells>
      <PointData>
        <DataArray type="Float64" Name="rho">
          1.03552871e+00 1.01924673e+00 1.00483058e+00 9.92200983e-01 
        </DataArray>
        <DataArray type="Float64" Name="rhou">
          2.47109030e-02 1.81236491e-02 1.72204185e-02 1.28960233e-02 
        </DataArray>
        <DataArray type="Float64" Name="rhov">
          -9.20779898e-04 -7.47222837e-04 -1.58444443e-03 -1.63242270e-03 
        </DataArray>
        <DataArray type="Float64" Name="E">
          2.36640644e+05 2.32747643e+05 2.29305901e+05 2.26293414e+05 
        </DataArray>
      </PointData>
    </Piece>
  </UnstructuredGrid>
</VTKFile>
