<?xml version="1.0"?>
<VTKFile type="UnstructuredGrid" version="0.1" byte_order="LittleEndian">
  <UnstructuredGrid>
    <Piece NumberOfPoints="4" NumberOfCells="3">
      <Points>
        <DataArray type="Float64" NumberOfComponents="3" format="ascii">
          9.65642184e-02 -4.61716652e-02 0.00000000e+00 
9.26280916e-02 -4.54656407e-02 0.00000000e+00 
8.86965096e-02 -4.47326750e-02 0.00000000e+00 
8.47706869e-02 -4.39694971e-02 0.00000000e+00 

        </DataArray>
      </Points>
      <Cells>
        <DataArray type="Int32" Name="connectivity" format="ascii">
0 1
1 2
2 3

        </DataArray>
        <DataArray type="Int32" Name="offsets" format="ascii">
2 4 6 
        </DataArray>
        <DataArray type="UInt8" Name="types" format="ascii">
3 3 3 
        </DataArray>
      </Cells>
      <PointData>
        <DataArray type="Float64" Name="rho">
          1.03539233e+00 1.04229128e+00 1.04950510e+00 1.05716570e+00 
        </DataArray>
        <DataArray type="Float64" Name="rhou">
          2.83162597e-02 2.17940649e-02 2.44411740e-02 2.46019497e-02 
        </DataArray>
        <DataArray type="Float64" Name="rhov">
          -2.24764203e-03 -1.02617430e-03 -6.06881613e-04 -9.11219439e-04 
        </DataArray>
        <DataArray type="Float64" Name="E">
          2.36627534e+05 2.38278345e+05 2.40006132e+05 2.41841279e+05 
        </DataArray>
      </PointData>
    </Piece>
    <Piece NumberOfPoints="4" NumberOfCells="3">
      <Points>
        <DataArray type="Float64" NumberOfComponents="3" format="ascii">
          8.47706869e-02 -4.39694971e-02 0.00000000e+00 
8.08513016e-02 -4.31745499e-02 0.00000000e+00 
7.69388378e-02 -4.23462167e-02 0.00000000e+00 
7.30340332e-02 -4.14824970e-02 0.00000000e+00 

        </DataArray>
      </Points>
      <Cells>
        <DataArray type="Int32" Name="connectivity" format="ascii">
0 1
1 2
2 3

        </DataArray>
        <DataArray type="Int32" Name="offsets" format="ascii">
2 4 6 
        </DataArray>
        <DataArray type="UInt8" Name="types" format="ascii">
3 3 3 
        </DataArray>
      </Cells>
      <PointData>
        <DataArray type="Float64" Name="rho">
          1.05716452e+00 1.06525336e+00 1.07380584e+00 1.08289188e+00 
        </DataArray>
        <DataArray type="Float64" Name="rhou">
          2.46964085e-02 2.38576615e-02 2.24294460e-02 2.08440386e-02 
        </DataArray>
        <DataArray type="Float64" Name="rhov">
          -7.16683989e-04 -4.93474064e-04 4.33773693e-04 1.65142258e-03 
        </DataArray>
        <DataArray type="Float64" Name="E">
          2.41841016e+05 2.43780718e+05 2.45832852e+05 2.48014216e+05 
        </DataArray>
      </PointData>
    </Piece>
    <Piece NumberOfPoints="4" NumberOfCells="3">
      <Points>
        <DataArray type="Float64" NumberOfComponents="3" format="ascii">
          7.30340332e-02 -4.14824970e-02 0.00000000e+00 
6.91377968e-02 -4.05809283e-02 0.00000000e+00 
6.52511865e-02 -3.96387354e-02 0.00000000e+00 
6.13753870e-02 -3.86530459e-02 0.00000000e+00 

        </DataArray>
      </Points>
      <Cells>
        <DataArray type="Int32" Name="connectivity" format="ascii">
0 1
1 2
2 3

        </DataArray>
        <DataArray type="Int32" Name="offsets" format="ascii">
2 4 6 
        </DataArray>
        <DataArray type="UInt8" Name="types" format="ascii">
3 3 3 
        </DataArray>
      </Cells>
      <PointData>
        <DataArray type="Float64" Name="rho">
          1.08289247e+00 1.09259553e+00 1.10294749e+00 1.11400799e+00 
        </DataArray>
        <DataArray type="Float64" Name="rhou">
          2.09610354e-02 1.85890888e-02 1.44625734e-02 8.92994015e-03 
        </DataArray>
        <DataArray type="Float64" Name="rhov">
          1.48557225e-03 2.25796915e-03 4.37484842e-03 7.60685649e-03 
        </DataArray>
        <DataArray type="Float64" Name="E">
          2.48014377e+05 2.50346088e+05 2.52835384e+05 2.55497304e+05 
        </DataArray>
      </PointData>
    </Piece>
    <Piece NumberOfPoints="4" NumberOfCells="3">
      <Points>
        <DataArray type="Float64" NumberOfComponents="3" format="ascii">
          6.13753870e-02 -3.86530459e-02 0.00000000e+00 
5.75117208e-02 -3.76208089e-02 0.00000000e+00 
5.36618084e-02 -3.65384258e-02 0.00000000e+00 
4.98276278e-02 -3.54015976e-02 0.00000000e+00 

        </DataArray>
      </Points>
      <Cells>
        <DataArray type="Int32" Name="connectivity" format="ascii">
0 1
1 2
2 3

        </DataArray>
        <DataArray type="Int32" Name="offsets" format="ascii">
2 4 6 
        </DataArray>
        <DataArray type="UInt8" Name="types" format="ascii">
3 3 3 
        </DataArray>
      </Cells>
      <PointData>
        <DataArray type="Float64" Name="rho">
          1.11400825e+00 1.12585992e+00 1.13858774e+00 1.15232320e+00 
        </DataArray>
        <DataArray type="Float64" Name="rhou">
          8.87251437e-03 1.78367983e-03 -7.46577694e-03 -1.90271072e-02 
        </DataArray>
        <DataArray type="Float64" Name="rhov">
          7.37832335e-03 1.21302390e-02 2.02707187e-02 3.18186961e-02 
        </DataArray>
        <DataArray type="Float64" Name="E">
          2.55497368e+05 2.58353654e+05 2.61423749e+05 2.64740217e+05 
        </DataArray>
      </PointData>
    </Piece>
    <Piece NumberOfPoints="4" NumberOfCells="3">
      <Points>
        <DataArray type="Float64" NumberOfComponents="3" format="ascii">
          4.98276278e-02 -3.54015976e-02 0.00000000e+00 
4.60115410e-02 -3.42054628e-02 0.00000000e+00 
4.22164090e-02 -3.29444520e-02 0.00000000e+00 
3.84457745e-02 -3.16120051e-02 0.00000000e+00 

        </DataArray>
      </Points>
      <Cells>
        <DataArray type="Int32" Name="connectivity" format="ascii">
0 1
1 2
2 3

        </DataArray>
        <DataArray type="Int32" Name="offsets" format="ascii">
2 4 6 
        </DataArray>
        <DataArray type="UInt8" Name="types" format="ascii">
3 3 3 
        </DataArray>
      </Cells>
      <PointData>
        <DataArray type="Float64" Name="rho">
          1.15232312e+00 1.16716590e+00 1.18322843e+00 1.20070224e+00 
        </DataArray>
        <DataArray type="Float64" Name="rhou">
          -1.94844506e-02 -3.36586304e-02 -5.26874553e-02 -7.54435255e-02 
        </DataArray>
        <DataArray type="Float64" Name="rhov">
          3.16041105e-02 4.83681637e-02 7.61439542e-02 1.16758684e-01 
        </DataArray>
        <DataArray type="Float64" Name="E">
          2.64740163e+05 2.68330532e+05 2.72220760e+05 2.76459152e+05 
        </DataArray>
      </PointData>
    </Piece>
    <Piece NumberOfPoints="4" NumberOfCells="3">
      <Points>
        <DataArray type="Float64" NumberOfComponents="3" format="ascii">
          3.84457745e-02 -3.16120051e-02 0.00000000e+00 
3.47041376e-02 -3.02002355e-02 0.00000000e+00 
3.09973080e-02 -2.86995135e-02 0.00000000e+00 
2.73328498e-02 -2.70981900e-02 0.00000000e+00 

        </DataArray>
      </Points>
      <Cells>
        <DataArray type="Int32" Name="connectivity" format="ascii">
0 1
1 2
2 3

        </DataArray>
        <DataArray type="Int32" Name="offsets" format="ascii">
2 4 6 
        </DataArray>
        <DataArray type="UInt8" Name="types" format="ascii">
3 3 3 
        </DataArray>
      </Cells>
      <PointData>
        <DataArray type="Float64" Name="rho">
          1.20070245e+00 1.21977688e+00 1.24064547e+00 1.26368007e+00 
        </DataArray>
        <DataArray type="Float64" Name="rhou">
          -7.63970696e-02 -1.00561523e-01 -1.29194029e-01 -1.54552257e-01 
        </DataArray>
        <DataArray type="Float64" Name="rhov">
          1.16676295e-01 1.72396846e-01 2.58547975e-01 3.79112751e-01 
        </DataArray>
        <DataArray type="Float64" Name="E">
          2.76459068e+05 2.81097522e+05 2.86180841e+05 2.91803304e+05 
        </DataArray>
      </PointData>
    </Piece>
    <Piece NumberOfPoints="4" NumberOfCells="3">
      <Points>
        <DataArray type="Float64" NumberOfComponents="3" format="ascii">
          2.73328498e-02 -2.70981900e-02 0.00000000e+00 
2.37206947e-02 -2.53822580e-02 0.00000000e+00 
2.01744195e-02 -2.35341713e-02 0.00000000e+00 
1.67132635e-02 -2.15314496e-02 0.00000000e+00 

        </DataArray>
      </Points>
      <Cells>
        <DataArray type="Int32" Name="connectivity" format="ascii">
0 1
1 2
2 3

        </DataArray>
        <DataArray type="Int32" Name="offsets" format="ascii">
2 4 6 
        </DataArray>
        <DataArray type="UInt8" Name="types" format="ascii">
3 3 3 
        </DataArray>
      </Cells>
      <PointData>
        <DataArray type="Float64" Name="rho">
          1.26368494e+00 1.28922561e+00 1.31772885e+00 1.35053999e+00 
        </DataArray>
        <DataArray type="Float64" Name="rhou">
          -1.54936236e-01 -1.68864255e-01 -1.52943070e-01 -5.65316330e-02 
        </DataArray>
        <DataArray type="Float64" Name="rhov">
          3.79784949e-01 5.31880097e-01 7.42859908e-01 9.61404796e-01 
        </DataArray>
        <DataArray type="Float64" Name="E">
          2.91804206e+05 2.98060537e+05 3.05055233e+05 3.13117064e+05 
        </DataArray>
      </PointData>
    </Piece>
    <Piece NumberOfPoints="4" NumberOfCells="3">
      <Points>
        <DataArray type="Float64" NumberOfComponents="3" format="ascii">
          1.67132635e-02 -2.15314496e-02 0.00000000e+00 
1.33649679e-02 -1.93456318e-02 0.00000000e+00 
1.01706637e-02 -1.69409402e-02 0.00000000e+00 
7.19343964e-03 -1.42731192e-02 0.00000000e+00 

        </DataArray>
      </Points>
      <Cells>
        <DataArray type="Int32" Name="connectivity" format="ascii">
0 1
1 2
2 3

        </DataArray>
        <DataArray type="Int32" Name="offsets" format="ascii">
2 4 6 
        </DataArray>
        <DataArray type="UInt8" Name="types" format="ascii">
3 3 3 
        </DataArray>
      </Cells>
      <PointData>
        <DataArray type="Float64" Name="rho">
          1.35043397e+00 1.39029104e+00 1.43752964e+00 1.50263792e+00 
        </DataArray>
        <DataArray type="Float64" Name="rhou">
          -3.39326458e-02 1.15081104e-01 4.56997092e-01 8.77596044e-01 
        </DataArray>
        <DataArray type="Float64" Name="rhov">
          9.23068240e-01 1.12588683e+00 1.07001111e+00 5.17899003e-01 
        </DataArray>
        <DataArray type="Float64" Name="E">
          3.13092812e+05 3.22888904e+05 3.34491935e+05 3.50369072e+05 
        </DataArray>
      </PointData>
    </Piece>
    <Piece NumberOfPoints="4" NumberOfCells="3">
      <Points>
        <DataArray type="Float64" NumberOfComponents="3" format="ascii">
          7.19343964e-03 -1.42731192e-02 0.00000000e+00 
4.53082798e-03 -1.12927537e-02 0.00000000e+00 
2.33371323e-03 -7.95678515e-03 0.00000000e+00 
8.10639584e-04 -4.26717056e-03 0.00000000e+00 

        </DataArray>
      </Points>
      <Cells>
        <DataArray type="Int32" Name="connectivity" format="ascii">
0 1
1 2
2 3

        </DataArray>
        <DataArray type="Int32" Name="offsets" format="ascii">
2 4 6 
        </DataArray>
        <DataArray type="UInt8" Name="types" format="ascii">
3 3 3 
        </DataArray>
      </Cells>
      <PointData>
        <DataArray type="Float64" Name="rho">
          1.50315825e+00 1.57760170e+00 1.66670235e+00 1.73538878e+00 
        </DataArray>
        <DataArray type="Float64" Name="rhou">
          8.02435278e-01 9.31463081e-01 2.56778622e-01 -1.28166395e+00 
        </DataArray>
        <DataArray type="Float64" Name="rhov">
          6.16936391e-01 -5.14822607e-01 -1.73488016e+00 -1.82077391e+00 
        </DataArray>
        <DataArray type="Float64" Name="E">
          3.50496670e+05 3.68686073e+05 3.90334406e+05 4.07045116e+05 
        </DataArray>
      </PointData>
    </Piece>
    <Piece NumberOfPoints="4" NumberOfCells="3">
      <Points>
        <DataArray type="Float64" NumberOfComponents="3" format="ascii">
          8.10639584e-04 -4.26717056e-03 0.00000000e+00 
1.91366620e-04 -3.27450951e-04 0.00000000e+00 
6.40850572e-04 3.63462302e-03 0.00000000e+00 
2.03182548e-03 7.37539819e-03 0.00000000e+00 

        </DataArray>
      </Points>
      <Cells>
        <DataArray type="Int32" Name="connectivity" format="ascii">
0 1
1 2
2 3

        </DataArray>
        <DataArray type="Int32" Name="offsets" format="ascii">
2 4 6 
        </DataArray>
        <DataArray type="UInt8" Name="types" format="ascii">
3 3 3 
        </DataArray>
      </Cells>
      <PointData>
        <DataArray type="Float64" Name="rho">
          1.73380857e+00 1.75866956e+00 1.70807897e+00 1.61545670e+00 
        </DataArray>
        <DataArray type="Float64" Name="rhou">
          -1.15576219e+00 -1.88498897e+00 -8.36053757e-01 7.56009040e-01 
        </DataArray>
        <DataArray type="Float64" Name="rhov">
          -1.97958797e+00 3.68517737e-01 1.88945590e+00 1.51840855e+00 
        </DataArray>
        <DataArray type="Float64" Name="E">
          4.06662180e+05 4.12618200e+05 4.00239175e+05 3.77596826e+05 
        </DataArray>
      </PointData>
    </Piece>
    <Piece NumberOfPoints="4" NumberOfCells="3">
      <Points>
        <DataArray type="Float64" NumberOfComponents="3" format="ascii">
          2.03182548e-03 7.37539819e-03 0.00000000e+00 
4.13410179e-03 1.07714310e-02 0.00000000e+00 
6.73249783e-03 1.38076087e-02 0.00000000e+00 
9.66598373e-03 1.65232457e-02 0.00000000e+00 

        </DataArray>
      </Points>
      <Cells>
        <DataArray type="Int32" Name="connectivity" format="ascii">
0 1
1 2
2 3

        </DataArray>
        <DataArray type="Int32" Name="offsets" format="ascii">
2 4 6 
        </DataArray>
        <DataArray type="UInt8" Name="types" format="ascii">
3 3 3 
        </DataArray>
      </Cells>
      <PointData>
        <DataArray type="Float64" Name="rho">
          1.61581875e+00 1.50854251e+00 1.41919916e+00 1.35217095e+00 
        </DataArray>
        <DataArray type="Float64" Name="rhou">
          7.28357012e-01 1.15957217e+00 8.43034507e-01 3.76705150e-01 
        </DataArray>
        <DataArray type="Float64" Name="rhov">
          1.75412852e+00 6.07530334e-02 -1.07976325e+00 -1.40506003e+00 
        </DataArray>
        <DataArray type="Float64" Name="E">
          3.77687995e+05 3.51621622e+05 3.29875679e+05 3.13479965e+05 
        </DataArray>
      </PointData>
    </Piece>
    <Piece NumberOfPoints="4" NumberOfCells="3">
      <Points>
        <DataArray type="Float64" NumberOfComponents="3" format="ascii">
          9.66598373e-03 1.65232457e-02 0.00000000e+00 
1.28298048e-02 1.89677756e-02 0.00000000e+00 
1.61561389e-02 2.11867876e-02 0.00000000e+00 
1.96009967e-02 2.32173651e-02 0.00000000e+00 

        </DataArray>
      </Points>
      <Cells>
        <DataArray type="Int32" Name="connectivity" format="ascii">
0 1
1 2
2 3

        </DataArray>
        <DataArray type="Int32" Name="offsets" format="ascii">
2 4 6 
        </DataArray>
        <DataArray type="UInt8" Name="types" format="ascii">
3 3 3 
        </DataArray>
      </Cells>
      <PointData>
        <DataArray type="Float64" Name="rho">
          1.35196525e+00 1.29944778e+00 1.26043712e+00 1.22609538e+00 
        </DataArray>
        <DataArray type="Float64" Name="rhou">
          3.86278838e-01 -1.65986912e-02 -1.98788907e-01 -2.19450314e-01 
        </DataArray>
        <DataArray type="Float64" Name="rhov">
          -1.42978043e+00 -1.32441959e+00 -9.93158313e-01 -6.66785636e-01 
        </DataArray>
        <DataArray type="Float64" Name="E">
          3.13427650e+05 3.00582285e+05 2.90990917e+05 2.82573642e+05 
        </DataArray>
      </PointData>
    </Piece>
    <Piece NumberOfPoints="4" NumberOfCells="3">
      <Points>
        <DataArray type="Float64" NumberOfComponents="3" format="ascii">
          1.96009967e-02 2.32173651e-02 0.00000000e+00 
2.31348258e-02 2.50891000e-02 0.00000000e+00 
2.67372411e-02 2.68253610e-02 0.00000000e+00 
3.03938854e-02 2.84444261e-02 0.00000000e+00 

        </DataArray>
      </Points>
      <Cells>
        <DataArray type="Int32" Name="connectivity" format="ascii">
0 1
1 2
2 3

        </DataArray>
        <DataArray type="Int32" Name="offsets" format="ascii">
2 4 6 
        </DataArray>
        <DataArray type="UInt8" Name="types" format="ascii">
3 3 3 
        </DataArray>
      </Cells>
      <PointData>
        <DataArray type="Float64" Name="rho">
          1.22615925e+00 1.19700994e+00 1.17093970e+00 1.14732964e+00 
        </DataArray>
        <DataArray type="Float64" Name="rhou">
          -2.32612200e-01 -2.19138454e-01 -1.73834604e-01 -1.31515766e-01 
        </DataArray>
        <DataArray type="Float64" Name="rhov">
          -6.85072178e-01 -4.33280858e-01 -2.46143843e-01 -1.33075485e-01 
        </DataArray>
        <DataArray type="Float64" Name="E">
          2.82588599e+05 2.75463597e+05 2.69114226e+05 2.63381129e+05 
        </DataArray>
      </PointData>
    </Piece>
    <Piece NumberOfPoints="4" NumberOfCells="3">
      <Points>
        <DataArray type="Float64" NumberOfComponents="3" format="ascii">
          3.03938854e-02 2.84444261e-02 0.00000000e+00 
3.40943485e-02 2.99607720e-02 0.00000000e+00 
3.78307216e-02 3.13864015e-02 0.00000000e+00 
4.15969416e-02 3.27312648e-02 0.00000000e+00 

        </DataArray>
      </Points>
      <Cells>
        <DataArray type="Int32" Name="connectivity" format="ascii">
0 1
1 2
2 3

        </DataArray>
        <DataArray type="Int32" Name="offsets" format="ascii">
2 4 6 
        </DataArray>
        <DataArray type="UInt8" Name="types" format="ascii">
3 3 3 
        </DataArray>
      </Cells>
      <PointData>
        <DataArray type="Float64" Name="rho">
          1.14732791e+00 1.12596425e+00 1.10655877e+00 1.08886815e+00 
        </DataArray>
        <DataArray type="Float64" Name="rhou">
          -1.29717203e-01 -8.94767960e-02 -5.66051765e-02 -3.35720565e-02 
        </DataArray>
        <DataArray type="Float64" Name="rhov">
          -1.31620648e-01 -5.52061030e-02 -7.94445751e-03 1.75591713e-02 
        </DataArray>
        <DataArray type="Float64" Name="E">
          2.63380978e+05 2.58212096e+05 2.53528325e+05 2.49266293e+05 
        </DataArray>
      </PointData>
    </Piece>
    <Piece NumberOfPoints="4" NumberOfCells="3">
      <Points>
        <DataArray type="Float64" NumberOfComponents="3" format="ascii">
          4.15969416e-02 3.27312648e-02 0.00000000e+00 
4.53883260e-02 3.40034962e-02 0.00000000e+00 
4.92011942e-02 3.52098532e-02 0.00000000e+00 
5.30325845e-02 3.63560505e-02 0.00000000e+00 

        </DataArray>
      </Points>
      <Cells>
        <DataArray type="Int32" Name="connectivity" format="ascii">
0 1
1 2
2 3

        </DataArray>
        <DataArray type="Int32" Name="offsets" format="ascii">
2 4 6 
        </DataArray>
        <DataArray type="UInt8" Name="types" format="ascii">
3 3 3 
        </DataArray>
      </Cells>
      <PointData>
        <DataArray type="Float64" Name="rho">
          1.08886872e+00 1.07270323e+00 1.05787484e+00 1.04422464e+00 
        </DataArray>
        <DataArray type="Float64" Name="rhou">
          -3.24286161e-02 -1.29281601e-02 1.56071956e-03 1.09826023e-02 
        </DataArray>
        <DataArray type="Float64" Name="rhov">
          1.74650491e-02 3.12323581e-02 3.79437175e-02 3.91317195e-02 
        </DataArray>
        <DataArray type="Float64" Name="E">
          2.49266506e+05 2.45380491e+05 2.41821462e+05 2.38549389e+05 
        </DataArray>
      </PointData>
    </Piece>
    <Piece NumberOfPoints="4" NumberOfCells="3">
      <Points>
        <DataArray type="Float64" NumberOfComponents="3" format="ascii">
          5.30325845e-02 3.63560505e-02 0.00000000e+00 
5.68800643e-02 3.74470428e-02 0.00000000e+00 
6.07415959e-02 3.84872220e-02 0.00000000e+00 
6.46155030e-02 3.94803248e-02 0.00000000e+00 

        </DataArray>
      </Points>
      <Cells>
        <DataArray type="Int32" Name="connectivity" format="ascii">
0 1
1 2
2 3

        </DataArray>
        <DataArray type="Int32" Name="offsets" format="ascii">
2 4 6 
        </DataArray>
        <DataArray type="UInt8" Name="types" format="ascii">
3 3 3 
        </DataArray>
      </Cells>
      <PointData>
        <DataArray type="Float64" Name="rho">
          1.04422534e+00 1.03166476e+00 1.02006179e+00 1.00927560e+00 
        </DataArray>
        <DataArray type="Float64" Name="rhou">
          1.13017757e-02 1.83285308e-02 2.38958498e-02 2.77517443e-02 
        </DataArray>
        <DataArray type="Float64" Name="rhov">
          3.88044901e-02 3.71595025e-02 3.51197630e-02 3.19013335e-02 
        </DataArray>
        <DataArray type="Float64" Name="E">
          2.38549549e+05 2.35542924e+05 2.32768368e+05 2.30191686e+05 
        </DataArray>
      </PointData>
    </Piece>
    <Piece NumberOfPoints="4" NumberOfCells="3">
      <Points>
        <DataArray type="Float64" NumberOfComponents="3" format="ascii">
          6.46155030e-02 3.94803248e-02 0.00000000e+00 
6.85004294e-02 4.04294394e-02 0.00000000e+00 
7.23951608e-02 4.13374715e-02 0.00000000e+00 
7.62986317e-02 4.22072113e-02 0.00000000e+00 

        </DataArray>
      </Points>
      <Cells>
        <DataArray type="Int32" Name="connectivity" format="ascii">
0 1
1 2
2 3

        </DataArray>
        <DataArray type="Int32" Name="offsets" format="ascii">
2 4 6 
        </DataArray>
        <DataArray type="UInt8" Name="types" format="ascii">
3 3 3 
        </DataArray>
      </Cells>
      <PointData>
        <DataArray type="Float64" Name="rho">
          1.00927632e+00 9.99265342e-01 9.89940304e-01 9.81245606e-01 
        </DataArray>
        <DataArray type="Float64" Name="rhou">
          2.75715929e-02 2.95307342e-02 3.06409003e-02 3.07430180e-02 
        </DataArray>
        <DataArray type="Float64" Name="rhov">
          3.16020458e-02 2.77000765e-02 2.43270649e-02 2.10212151e-02 
        </DataArray>
        <DataArray type="Float64" Name="E">
          2.30191833e+05 2.27802977e+05 2.25579659e+05 2.23507935e+05 
        </DataArray>
      </PointData>
    </Piece>
    <Piece NumberOfPoints="4" NumberOfCells="3">
      <Points>
        <DataArray type="Float64" NumberOfComponents="3" format="ascii">
          7.62986317e-02 4.22072113e-02 0.00000000e+00 
8.02098960e-02 4.30411920e-02 0.00000000e+00 
8.41281936e-02 4.38414887e-02 0.00000000e+00 
8.80528912e-02 4.46097627e-02 0.00000000e+00 

        </DataArray>
      </Points>
      <Cells>
        <DataArray type="Int32" Name="connectivity" format="ascii">
0 1
1 2
2 3

        </DataArray>
        <DataArray type="Int32" Name="offsets" format="ascii">
2 4 6 
        </DataArray>
        <DataArray type="UInt8" Name="types" format="ascii">
3 3 3 
        </DataArray>
      </Cells>
      <PointData>
        <DataArray type="Float64" Name="rho">
          9.81244665e-01 9.73133961e-01 9.65512556e-01 9.58334573e-01 
        </DataArray>
        <DataArray type="Float64" Name="rhou">
          3.05960760e-02 3.06254648e-02 3.03564750e-02 2.92941200e-02 
        </DataArray>
        <DataArray type="Float64" Name="rhov">
          2.08574942e-02 1.83001683e-02 1.57934986e-02 1.31135280e-02 
        </DataArray>
        <DataArray type="Float64" Name="E">
          2.23507700e+05 2.21576653e+05 2.19763402e+05 2.18056822e+05 
        </DataArray>
      </PointData>
    </Piece>
    <Piece NumberOfPoints="4" NumberOfCells="3">
      <Points>
        <DataArray type="Float64" NumberOfComponents="3" format="ascii">
          8.80528912e-02 4.46097627e-02 0.00000000e+00 
9.19835642e-02 4.53475714e-02 0.00000000e+00 
9.59195644e-02 4.60564308e-02 0.00000000e+00 
9.98597518e-02 4.67394181e-02 0.00000000e+00 

        </DataArray>
      </Points>
      <Cells>
        <DataArray type="Int32" Name="connectivity" format="ascii">
0 1
1 2
2 3

        </DataArray>
        <DataArray type="Int32" Name="offsets" format="ascii">
2 4 6 
        </DataArray>
        <DataArray type="UInt8" Name="types" format="ascii">
3 3 3 
        </DataArray>
      </Cells>
      <PointData>
        <DataArray type="Float64" Name="rho">
          9.58335073e-01 9.51590649e-01 9.45267038e-01 9.39264741e-01 
        </DataArray>
        <DataArray type="Float64" Name="rhou">
          2.90993025e-02 2.76768059e-02 2.41976714e-02 2.87305645e-02 
        </DataArray>
        <DataArray type="Float64" Name="rhov">
          1.32766819e-02 1.07026912e-02 9.12306735e-03 8.63107183e-03 
        </DataArray>
        <DataArray type="Float64" Name="E">
          2.18056938e+05 2.16454691e+05 2.14952881e+05 2.13528446e+05 
        </DataArray>
      </PointData>
    </Piece>
    <Piece NumberOfPoints="4" NumberOfCells="3">
      <Points>
        <DataArray type="Float64" NumberOfComponents="3" format="ascii">
          9.98597518e-02 4.67394181e-02 0.00000000e+00 
1.10118888e-01 4.83862534e-02 0.00000000e+00 
1.20400399e-01 4.98730615e-02 0.00000000e+00 
1.30701363e-01 5.12186773e-02 0.00000000e+00 

        </DataArray>
      </Points>
      <Cells>
        <DataArray type="Int32" Name="connectivity" format="ascii">
0 1
1 2
2 3

        </DataArray>
        <DataArray type="Int32" Name="offsets" format="ascii">
2 4 6 
        </DataArray>
        <DataArray type="UInt8" Name="types" format="ascii">
3 3 3 
        </DataArray>
      </Cells>
      <PointData>
        <DataArray type="Float64" Name="rho">
          9.39191896e-01 9.25188349e-01 9.13103941e-01 9.02712791e-01 
        </DataArray>
        <DataArray type="Float64" Name="rhou">
          2.64540116e-02 1.82530958e-02 1.61154782e-02 1.26369647e-02 
        </DataArray>
        <DataArray type="Float64" Name="rhov">
          7.39236878e-03 4.16417044e-03 3.65962506e-03 2.98922016e-03 
        </DataArray>
        <DataArray type="Float64" Name="E">
          2.13511978e+05 2.10192805e+05 2.07332185e+05 2.04875244e+05 
        </DataArray>
      </PointData>
    </Piece>
    <Piece NumberOfPoints="4" NumberOfCells="3">
      <Points>
        <DataArray type="Float64" NumberOfComponents="3" format="ascii">
          1.30701363e-01 5.12186773e-02 0.00000000e+00 
1.41019106e-01 5.24347536e-02 0.00000000e+00 
1.51350453e-01 5.35292812e-02 0.00000000e+00 
1.61692888e-01 5.45137413e-02 0.00000000e+00 

        </DataArray>
      </Points>
      <Cells>
        <DataArray type="Int32" Name="connectivity" format="ascii">
0 1
1 2
2 3

        </DataArray>
        <DataArray type="Int32" Name="offsets" format="ascii">
2 4 6 
        </DataArray>
        <DataArray type="UInt8" Name="types" format="ascii">
3 3 3 
        </DataArray>
      </Cells>
      <PointData>
        <DataArray type="Float64" Name="rho">
          9.02709290e-01 8.93584988e-01 8.85703799e-01 8.78957946e-01 
        </DataArray>
        <DataArray type="Float64" Name="rhou">
          1.40230098e-02 1.21158579e-02 1.00308623e-02 8.75767290e-03 
        </DataArray>
        <DataArray type="Float64" Name="rhov">
          3.48990119e-03 2.56354070e-03 1.78545984e-03 1.60992983e-03 
        </DataArray>
        <DataArray type="Float64" Name="E">
          2.04874403e+05 2.02720600e+05 2.00862905e+05 1.99274806e+05 
        </DataArray>
      </PointData>
    </Piece>
    <Piece NumberOfPoints="4" NumberOfCells="3">
      <Points>
        <DataArray type="Float64" NumberOfComponents="3" format="ascii">
          1.61692888e-01 5.45137413e-02 0.00000000e+00 
1.72044471e-01 5.53969070e-02 0.00000000e+00 
1.82403773e-01 5.61845005e-02 0.00000000e+00 
1.92769483e-01 5.68825118e-02 0.00000000e+00 

        </DataArray>
      </Points>
      <Cells>
        <DataArray type="Int32" Name="connectivity" format="ascii">
0 1
1 2
2 3

        </DataArray>
        <DataArray type="Int32" Name="offsets" format="ascii">
2 4 6 
        </DataArray>
        <DataArray type="UInt8" Name="types" format="ascii">
3 3 3 
        </DataArray>
      </Cells>
      <PointData>
        <DataArray type="Float64" Name="rho">
          8.78955534e-01 8.73150323e-01 8.68195526e-01 8.64038848e-01 
        </DataArray>
        <DataArray type="Float64" Name="rhou">
          8.79469169e-03 7.65612018e-03 6.61531092e-03 5.70684381e-03 
        </DataArray>
        <DataArray type="Float64" Name="rhov">
          1.66167014e-03 1.29685264e-03 9.17966562e-04 6.89162998e-04 
        </DataArray>
        <DataArray type="Float64" Name="E">
          1.99274265e+05 1.97909841e+05 1.96747628e+05 1.95774745e+05 
        </DataArray>
      </PointData>
    </Piece>
    <Piece NumberOfPoints="4" NumberOfCells="3">
      <Points>
        <DataArray type="Float64" NumberOfComponents="3" format="ascii">
          1.92769483e-01 5.68825118e-02 0.00000000e+00 
2.03140482e-01 5.74972220e-02 0.00000000e+00 
2.13515818e-01 5.80338500e-02 0.00000000e+00 
2.23894730e-01 5.84962890e-02 0.00000000e+00 

        </DataArray>
      </Points>
      <Cells>
        <DataArray type="Int32" Name="connectivity" format="ascii">
0 1
1 2
2 3

        </DataArray>
        <DataArray type="Int32" Name="offsets" format="ascii">
2 4 6 
        </DataArray>
        <DataArray type="UInt8" Name="types" format="ascii">
3 3 3 
        </DataArray>
      </Cells>
      <PointData>
        <DataArray type="Float64" Name="rho">
          8.64038156e-01 8.60600008e-01 8.57796431e-01 8.55569079e-01 
        </DataArray>
        <DataArray type="Float64" Name="rhou">
          5.74392484e-03 5.01768010e-03 4.45778924e-03 3.99427659e-03 
        </DataArray>
        <DataArray type="Float64" Name="rhov">
          7.30673011e-04 6.41472238e-04 5.26243836e-04 4.03821631e-04 
        </DataArray>
        <DataArray type="Float64" Name="E">
          1.95774586e+05 1.94971939e+05 1.94319754e+05 1.93804130e+05 
        </DataArray>
      </PointData>
    </Piece>
    <Piece NumberOfPoints="4" NumberOfCells="3">
      <Points>
        <DataArray type="Float64" NumberOfComponents="3" format="ascii">
          2.23894730e-01 5.84962890e-02 0.00000000e+00 
2.34276548e-01 5.88882305e-02 0.00000000e+00 
2.44660646e-01 5.92139624e-02 0.00000000e+00 
2.55046517e-01 5.94772622e-02 0.00000000e+00 

        </DataArray>
      </Points>
      <Cells>
        <DataArray type="Int32" Name="connectivity" format="ascii">
0 1
1 2
2 3

        </DataArray>
        <DataArray type="Int32" Name="offsets" format="ascii">
2 4 6 
        </DataArray>
        <DataArray type="UInt8" Name="types" format="ascii">
3 3 3 
        </DataArray>
      </Cells>
      <PointData>
        <DataArray type="Float64" Name="rho">
          8.55569650e-01 8.53876084e-01 8.52671527e-01 8.51900199e-01 
        </DataArray>
        <DataArray type="Float64" Name="rhou">
          4.00214298e-03 3.47814838e-03 3.09832407e-03 2.86777490e-03 
        </DataArray>
        <DataArray type="Float64" Name="rhov">
          4.18241341e-04 3.40826844e-04 3.24327394e-04 3.23690587e-04 
        </DataArray>
        <DataArray type="Float64" Name="E">
          1.93804260e+05 1.93414946e+05 1.93141244e+05 1.92969988e+05 
        </DataArray>
      </PointData>
    </Piece>
    <Piece NumberOfPoints="4" NumberOfCells="3">
      <Points>
        <DataArray type="Float64" NumberOfComponents="3" format="ascii">
          2.55046517e-01 5.94772622e-02 0.00000000e+00 
2.65433758e-01 5.96804135e-02 0.00000000e+00 
2.75821954e-01 5.98256700e-02 0.00000000e+00 
2.86210775e-01 5.99167012e-02 0.00000000e+00 

        </DataArray>
      </Points>
      <Cells>
        <DataArray type="Int32" Name="connectivity" format="ascii">
0 1
1 2
2 3

        </DataArray>
        <DataArray type="Int32" Name="offsets" format="ascii">
2 4 6 
        </DataArray>
        <DataArray type="UInt8" Name="types" format="ascii">
3 3 3 
        </DataArray>
      </Cells>
      <PointData>
        <DataArray type="Float64" Name="rho">
          8.51900210e-01 8.51513334e-01 8.51485675e-01 8.51796218e-01 
        </DataArray>
        <DataArray type="Float64" Name="rhou">
          2.86216365e-03 2.57452814e-03 2.28022403e-03 2.01655235e-03 
        </DataArray>
        <DataArray type="Float64" Name="rhov">
          3.35021506e-04 2.40007777e-04 1.82335360e-04 2.16854492e-04 
        </DataArray>
        <DataArray type="Float64" Name="E">
          1.92969995e+05 1.92889694e+05 1.92894287e+05 1.92978592e+05 
        </DataArray>
      </PointData>
    </Piece>
    <Piece NumberOfPoints="4" NumberOfCells="3">
      <Points>
        <DataArray type="Float64" NumberOfComponents="3" format="ascii">
          2.86210775e-01 5.99167012e-02 0.00000000e+00 
2.96599895e-01 5.99572174e-02 0.00000000e+00 
3.06989133e-01 5.99487796e-02 0.00000000e+00 
3.17378193e-01 5.98919280e-02 0.00000000e+00 

        </DataArray>
      </Points>
      <Cells>
        <DataArray type="Int32" Name="connectivity" format="ascii">
0 1
1 2
2 3

        </DataArray>
        <DataArray type="Int32" Name="offsets" format="ascii">
2 4 6 
        </DataArray>
        <DataArray type="UInt8" Name="types" format="ascii">
3 3 3 
        </DataArray>
      </Cells>
      <PointData>
        <DataArray type="Float64" Name="rho">
          8.51795195e-01 8.52394154e-01 8.53234092e-01 8.54299233e-01 
        </DataArray>
        <DataArray type="Float64" Name="rhou">
          2.03558879e-03 1.92034080e-03 1.79435686e-03 1.61315758e-03 
        </DataArray>
        <DataArray type="Float64" Name="rhov">
          2.33257813e-04 2.60713281e-04 2.06705724e-04 1.32668951e-04 
        </DataArray>
        <DataArray type="Float64" Name="E">
          1.92978359e+05 1.93130663e+05 1.93339969e+05 1.93602471e+05 
        </DataArray>
      </PointData>
    </Piece>
    <Piece NumberOfPoints="4" NumberOfCells="3">
      <Points>
        <DataArray type="Float64" NumberOfComponents="3" format="ascii">
          3.17378193e-01 5.98919280e-02 0.00000000e+00 
3.27766895e-01 5.97884916e-02 0.00000000e+00 
3.38155061e-01 5.96415885e-02 0.00000000e+00 
3.48542601e-01 5.94538599e-02 0.00000000e+00 

        </DataArray>
      </Points>
      <Cells>
        <DataArray type="Int32" Name="connectivity" format="ascii">
0 1
1 2
2 3

        </DataArray>
        <DataArray type="Int32" Name="offsets" format="ascii">
2 4 6 
        </DataArray>
        <DataArray type="UInt8" Name="types" format="ascii">
3 3 3 
        </DataArray>
      </Cells>
      <PointData>
        <DataArray type="Float64" Name="rho">
          8.54299579e-01 8.55576474e-01 8.57044250e-01 8.58669429e-01 
        </DataArray>
        <DataArray type="Float64" Name="rhou">
          1.64266446e-03 1.44735124e-03 1.33135089e-03 1.28585211e-03 
        </DataArray>
        <DataArray type="Float64" Name="rhov">
          1.40332845e-04 1.29030560e-04 1.54673456e-04 1.75257458e-04 
        </DataArray>
        <DataArray type="Float64" Name="E">
          1.93602549e+05 1.93914948e+05 1.94272253e+05 1.94666627e+05 
        </DataArray>
      </PointData>
    </Piece>
    <Piece NumberOfPoints="4" NumberOfCells="3">
      <Points>
        <DataArray type="Float64" NumberOfComponents="3" format="ascii">
          3.48542601e-01 5.94538599e-02 0.00000000e+00 
3.58929336e-01 5.92265576e-02 0.00000000e+00 
3.69315147e-01 5.89610897e-02 0.00000000e+00 
3.79699975e-01 5.86590059e-02 0.00000000e+00 

        </DataArray>
      </Points>
      <Cells>
        <DataArray type="Int32" Name="connectivity" format="ascii">
0 1
1 2
2 3

        </DataArray>
        <DataArray type="Int32" Name="offsets" format="ascii">
2 4 6 
        </DataArray>
        <DataArray type="UInt8" Name="types" format="ascii">
3 3 3 
        </DataArray>
      </Cells>
      <PointData>
        <DataArray type="Float64" Name="rho">
          8.58669676e-01 8.60426219e-01 8.62303894e-01 8.64282350e-01 
        </DataArray>
        <DataArray type="Float64" Name="rhou">
          1.29804688e-03 1.17504497e-03 1.08222101e-03 1.03530874e-03 
        </DataArray>
        <DataArray type="Float64" Name="rhov">
          1.72132218e-04 1.35744774e-04 1.27892305e-04 1.25882736e-04 
        </DataArray>
        <DataArray type="Float64" Name="E">
          1.94666684e+05 1.95092024e+05 1.95545841e+05 1.96023362e+05 
        </DataArray>
      </PointData>
    </Piece>
    <Piece NumberOfPoints="4" NumberOfCells="3">
      <Points>
        <DataArray type="Float64" NumberOfComponents="3" format="ascii">
          3.79699975e-01 5.86590059e-02 0.00000000e+00 
3.90083700e-01 5.83211333e-02 0.00000000e+00 
4.00466233e-01 5.79482466e-02 0.00000000e+00 
4.10847515e-01 5.75418957e-02 0.00000000e+00 

        </DataArray>
      </Points>
      <Cells>
        <DataArray type="Int32" Name="connectivity" format="ascii">
0 1
1 2
2 3

        </DataArray>
        <DataArray type="Int32" Name="offsets" format="ascii">
2 4 6 
        </DataArray>
        <DataArray type="UInt8" Name="types" format="ascii">
3 3 3 
        </DataArray>
      </Cells>
      <PointData>
        <DataArray type="Float64" Name="rho">
          8.64282363e-01 8.66344360e-01 8.68479648e-01 8.70681407e-01 
        </DataArray>
        <DataArray type="Float64" Name="rhou">
          1.02744080e-03 9.64292214e-04 8.86636079e-04 8.11988773e-04 
        </DataArray>
        <DataArray type="Float64" Name="rhov">
          1.28296879e-04 9.73190320e-05 7.37944122e-05 7.84290061e-05 
        </DataArray>
        <DataArray type="Float64" Name="E">
          1.96023366e+05 1.96520545e+05 1.97034947e+05 1.97564902e+05 
        </DataArray>
      </PointData>
    </Piece>
    <Piece NumberOfPoints="4" NumberOfCells="3">
      <Points>
        <DataArray type="Float64" NumberOfComponents="3" format="ascii">
          4.10847515e-01 5.75418957e-02 0.00000000e+00 
4.21227485e-01 5.71038015e-02 0.00000000e+00 
4.31606144e-01 5.66351078e-02 0.00000000e+00 
4.41983402e-01 5.61364293e-02 0.00000000e+00 

        </DataArray>
      </Points>
      <Cells>
        <DataArray type="Int32" Name="connectivity" format="ascii">
0 1
1 2
2 3

        </DataArray>
        <DataArray type="Int32" Name="offsets" format="ascii">
2 4 6 
        </DataArray>
        <DataArray type="UInt8" Name="types" format="ascii">
3 3 3 
        </DataArray>
      </Cells>
      <PointData>
        <DataArray type="Float64" Name="rho">
          8.70681208e-01 8.72933709e-01 8.75225220e-01 8.77546047e-01 
        </DataArray>
        <DataArray type="Float64" Name="rhou">
          8.28402749e-04 7.77869681e-04 7.39838282e-04 7.03942971e-04 
        </DataArray>
        <DataArray type="Float64" Name="rhov">
          8.18445389e-05 8.11122842e-05 7.06318529e-05 4.87278455e-05 
        </DataArray>
        <DataArray type="Float64" Name="E">
          1.97564857e+05 1.98106679e+05 1.98657620e+05 1.99215400e+05 
        </DataArray>
      </PointData>
    </Piece>
    <Piece NumberOfPoints="4" NumberOfCells="3">
      <Points>
        <DataArray type="Float64" NumberOfComponents="3" format="ascii">
          4.41983402e-01 5.61364293e-02 0.00000000e+00 
4.52359200e-01 5.56085743e-02 0.00000000e+00 
4.62733537e-01 5.50529286e-02 0.00000000e+00 
4.73106444e-01 5.44707514e-02 0.00000000e+00 

        </DataArray>
      </Points>
      <Cells>
        <DataArray type="Int32" Name="connectivity" format="ascii">
0 1
1 2
2 3

        </DataArray>
        <DataArray type="Int32" Name="offsets" format="ascii">
2 4 6 
        </DataArray>
        <DataArray type="UInt8" Name="types" format="ascii">
3 3 3 
        </DataArray>
      </Cells>
      <PointData>
        <DataArray type="Float64" Name="rho">
          8.77546190e-01 8.79891944e-01 8.82256281e-01 8.84630878e-01 
        </DataArray>
        <DataArray type="Float64" Name="rhou">
          7.00833425e-04 6.45895717e-04 6.06811732e-04 5.84364074e-04 
        </DataArray>
        <DataArray type="Float64" Name="rhov">
          4.93726612e-05 4.09937484e-05 4.05487911e-05 3.99219228e-05 
        </DataArray>
        <DataArray type="Float64" Name="E">
          1.99215433e+05 1.99778984e+05 2.00346796e+05 2.00916918e+05 
        </DataArray>
      </PointData>
    </Piece>
    <Piece NumberOfPoints="4" NumberOfCells="3">
      <Points>
        <DataArray type="Float64" NumberOfComponents="3" format="ascii">
          4.73106444e-01 5.44707514e-02 0.00000000e+00 
4.83477861e-01 5.38627952e-02 0.00000000e+00 
4.93847787e-01 5.32294959e-02 0.00000000e+00 
5.04216135e-01 5.25716618e-02 0.00000000e+00 

        </DataArray>
      </Points>
      <Cells>
        <DataArray type="Int32" Name="connectivity" format="ascii">
0 1
1 2
2 3

        </DataArray>
        <DataArray type="Int32" Name="offsets" format="ascii">
2 4 6 
        </DataArray>
        <DataArray type="UInt8" Name="types" format="ascii">
3 3 3 
        </DataArray>
      </Cells>
      <PointData>
        <DataArray type="Float64" Name="rho">
          8.84630864e-01 8.87009056e-01 8.89385680e-01 8.91759877e-01 
        </DataArray>
        <DataArray type="Float64" Name="rhou">
          5.76671746e-04 5.56627687e-04 5.22276203e-04 4.81325691e-04 
        </DataArray>
        <DataArray type="Float64" Name="rhov">
          4.17617839e-05 2.94972251e-05 1.37667887e-05 1.03809594e-05 
        </DataArray>
        <DataArray type="Float64" Name="E">
          2.00916916e+05 2.01487784e+05 2.02058188e+05 2.02627891e+05 
        </DataArray>
      </PointData>
    </Piece>
    <Piece NumberOfPoints="4" NumberOfCells="3">
      <Points>
        <DataArray type="Float64" NumberOfComponents="3" format="ascii">
          5.04216135e-01 5.25716618e-02 0.00000000e+00 
5.14582992e-01 5.18903993e-02 0.00000000e+00 
5.24948359e-01 5.11864908e-02 0.00000000e+00 
5.35312176e-01 5.04603274e-02 0.00000000e+00 

        </DataArray>
      </Points>
      <Cells>
        <DataArray type="Int32" Name="connectivity" format="ascii">
0 1
1 2
2 3

        </DataArray>
        <DataArray type="Int32" Name="offsets" format="ascii">
2 4 6 
        </DataArray>
        <DataArray type="UInt8" Name="types" format="ascii">
3 3 3 
        </DataArray>
      </Cells>
      <PointData>
        <DataArray type="Float64" Name="rho">
          8.91759791e-01 8.94126403e-01 8.96481214e-01 8.98821010e-01 
        </DataArray>
        <DataArray type="Float64" Name="rhou">
          4.89905397e-04 4.64485019e-04 4.45470097e-04 4.26759169e-04 
        </DataArray>
        <DataArray type="Float64" Name="rhov">
          1.25806687e-05 1.15173829e-05 5.40834436e-06 -7.09331980e-06 
        </DataArray>
        <DataArray type="Float64" Name="E">
          2.02627872e+05 2.03195666e+05 2.03760567e+05 2.04321819e+05 
        </DataArray>
      </PointData>
    </Piece>
    <Piece NumberOfPoints="4" NumberOfCells="3">
      <Points>
        <DataArray type="Float64" NumberOfComponents="3" format="ascii">
          5.35312176e-01 5.04603274e-02 0.00000000e+00 
5.45674443e-01 4.97124642e-02 0.00000000e+00 
5.56035221e-01 4.89437394e-02 0.00000000e+00 
5.66394389e-01 4.81546782e-02 0.00000000e+00 

        </DataArray>
      </Points>
      <Cells>
        <DataArray type="Int32" Name="connectivity" format="ascii">
0 1
1 2
2 3

        </DataArray>
        <DataArray type="Int32" Name="offsets" format="ascii">
2 4 6 
        </DataArray>
        <DataArray type="UInt8" Name="types" format="ascii">
3 3 3 
        </DataArray>
      </Cells>
      <PointData>
        <DataArray type="Float64" Name="rho">
          8.98821054e-01 9.01145423e-01 9.03451695e-01 9.05737235e-01 
        </DataArray>
        <DataArray type="Float64" Name="rhou">
          4.22510791e-04 3.96546993e-04 3.78635738e-04 3.67372072e-04 
        </DataArray>
        <DataArray type="Float64" Name="rhov">
          -6.78233302e-06 -8.08459739e-06 -9.35005789e-06 -1.40870552e-05 
        </DataArray>
        <DataArray type="Float64" Name="E">
          2.04321829e+05 2.04879320e+05 2.05432423e+05 2.05980527e+05 
        </DataArray>
      </PointData>
    </Piece>
    <Piece NumberOfPoints="4" NumberOfCells="3">
      <Points>
        <DataArray type="Float64" NumberOfComponents="3" format="ascii">
          5.66394389e-01 4.81546782e-02 0.00000000e+00 
5.76752067e-01 4.73455116e-02 0.00000000e+00 
5.87108195e-01 4.65166979e-02 0.00000000e+00 
5.97462773e-01 4.56690118e-02 0.00000000e+00 

        </DataArray>
      </Points>
      <Cells>
        <DataArray type="Int32" Name="connectivity" format="ascii">
0 1
1 2
2 3

        </DataArray>
        <DataArray type="Int32" Name="offsets" format="ascii">
2 4 6 
        </DataArray>
        <DataArray type="UInt8" Name="types" format="ascii">
3 3 3 
        </DataArray>
      </Cells>
      <PointData>
        <DataArray type="Float64" Name="rho">
          9.05737264e-01 9.08000608e-01 9.10241658e-01 9.12459723e-01 
        </DataArray>
        <DataArray type="Float64" Name="rhou">
          3.66731602e-04 3.46622944e-04 3.25769842e-04 3.09929016e-04 
        </DataArray>
        <DataArray type="Float64" Name="rhov">
          -1.37239614e-05 -2.28903503e-05 -2.69114463e-05 -2.60897614e-05 
        </DataArray>
        <DataArray type="Float64" Name="E">
          2.05980534e+05 2.06523295e+05 2.07060683e+05 2.07592531e+05 
        </DataArray>
      </PointData>
    </Piece>
    <Piece NumberOfPoints="4" NumberOfCells="3">
      <Points>
        <DataArray type="Float64" NumberOfComponents="3" format="ascii">
          5.97462773e-01 4.56690118e-02 0.00000000e+00 
6.07815862e-01 4.48031016e-02 0.00000000e+00 
6.18167400e-01 4.39192392e-02 0.00000000e+00 
6.28517449e-01 4.30175588e-02 0.00000000e+00 

        </DataArray>
      </Points>
      <Cells>
        <DataArray type="Int32" Name="connectivity" format="ascii">
0 1
1 2
2 3

        </DataArray>
        <DataArray type="Int32" Name="offsets" format="ascii">
2 4 6 
        </DataArray>
        <DataArray type="UInt8" Name="types" format="ascii">
3 3 3 
        </DataArray>
      </Cells>
      <PointData>
        <DataArray type="Float64" Name="rho">
          9.12459659e-01 9.14653028e-01 9.16820056e-01 9.18961073e-01 
        </DataArray>
        <DataArray type="Float64" Name="rhou">
          3.07984956e-04 2.99429054e-04 2.87496860e-04 2.70172205e-04 
        </DataArray>
        <DataArray type="Float64" Name="rhov">
          -2.51426143e-05 -2.59426619e-05 -3.20019931e-05 -3.78157859e-05 
        </DataArray>
        <DataArray type="Float64" Name="E">
          2.07592517e+05 2.08118430e+05 2.08638035e+05 2.09151404e+05 
        </DataArray>
      </PointData>
    </Piece>
    <Piece NumberOfPoints="4" NumberOfCells="3">
      <Points>
        <DataArray type="Float64" NumberOfComponents="3" format="ascii">
          6.28517449e-01 4.30175588e-02 0.00000000e+00 
6.38865948e-01 4.20984775e-02 0.00000000e+00 
6.49212897e-01 4.11624312e-02 0.00000000e+00 
6.59558356e-01 4.02097441e-02 0.00000000e+00 

        </DataArray>
      </Points>
      <Cells>
        <DataArray type="Int32" Name="connectivity" format="ascii">
0 1
1 2
2 3

        </DataArray>
        <DataArray type="Int32" Name="offsets" format="ascii">
2 4 6 
        </DataArray>
        <DataArray type="UInt8" Name="types" format="ascii">
3 3 3 
        </DataArray>
      </Cells>
      <PointData>
        <DataArray type="Float64" Name="rho">
          9.18961065e-01 9.21076049e-01 9.23164298e-01 9.25225635e-01 
        </DataArray>
        <DataArray type="Float64" Name="rhou">
          2.71154144e-04 2.58112696e-04 2.46900471e-04 2.34784072e-04 
        </DataArray>
        <DataArray type="Float64" Name="rhov">
          -3.67829460e-05 -3.78171151e-05 -4.00681163e-05 -4.27082001e-05 
        </DataArray>
        <DataArray type="Float64" Name="E">
          2.09151402e+05 2.09658531e+05 2.10159262e+05 2.10653556e+05 
        </DataArray>
      </PointData>
    </Piece>
    <Piece NumberOfPoints="4" NumberOfCells="3">
      <Points>
        <DataArray type="Float64" NumberOfComponents="3" format="ascii">
          6.59558356e-01 4.02097441e-02 0.00000000e+00 
6.69902325e-01 3.92407738e-02 0.00000000e+00 
6.80244744e-01 3.82556282e-02 0.00000000e+00 
6.90585554e-01 3.72543521e-02 0.00000000e+00 

        </DataArray>
      </Points>
      <Cells>
        <DataArray type="Int32" Name="connectivity" format="ascii">
0 1
1 2
2 3

        </DataArray>
        <DataArray type="Int32" Name="offsets" format="ascii">
2 4 6 
        </DataArray>
        <DataArray type="UInt8" Name="types" format="ascii">
3 3 3 
        </DataArray>
      </Cells>
      <PointData>
        <DataArray type="Float64" Name="rho">
          9.25225618e-01 9.27260184e-01 9.29266947e-01 9.31246842e-01 
        </DataArray>
        <DataArray type="Float64" Name="rhou">
          2.31482753e-04 2.26041665e-04 2.16857477e-04 2.01453690e-04 
        </DataArray>
        <DataArray type="Float64" Name="rhov">
          -4.16545686e-05 -4.19567852e-05 -4.69248574e-05 -5.10796403e-05 
        </DataArray>
        <DataArray type="Float64" Name="E">
          2.10653553e+05 2.11141448e+05 2.11622715e+05 2.12097572e+05 
        </DataArray>
      </PointData>
    </Piece>
    <Piece NumberOfPoints="4" NumberOfCells="3">
      <Points>
        <DataArray type="Float64" NumberOfComponents="3" format="ascii">
          6.90585554e-01 3.72543521e-02 0.00000000e+00 
7.00924933e-01 3.62373814e-02 0.00000000e+00 
7.11262703e-01 3.52048986e-02 0.00000000e+00 
7.21598923e-01 3.41568366e-02 0.00000000e+00 

        </DataArray>
      </Points>
      <Cells>
        <DataArray type="Int32" Name="connectivity" format="ascii">
0 1
1 2
2 3

        </DataArray>
        <DataArray type="Int32" Name="offsets" format="ascii">
2 4 6 
        </DataArray>
        <DataArray type="UInt8" Name="types" format="ascii">
3 3 3 
        </DataArray>
      </Cells>
      <PointData>
        <DataArray type="Float64" Name="rho">
          9.31246798e-01 9.33200379e-01 9.35126538e-01 9.37026054e-01 
        </DataArray>
        <DataArray type="Float64" Name="rhou">
          1.99985019e-04 1.94127310e-04 1.88043002e-04 1.73852497e-04 
        </DataArray>
        <DataArray type="Float64" Name="rhov">
          -4.99413019e-05 -4.77068275e-05 -5.15547205e-05 -5.68852814e-05 
        </DataArray>
        <DataArray type="Float64" Name="E">
          2.12097562e+05 2.12566140e+05 2.13028195e+05 2.13483908e+05 
        </DataArray>
      </PointData>
    </Piece>
    <Piece NumberOfPoints="4" NumberOfCells="3">
      <Points>
        <DataArray type="Float64" NumberOfComponents="3" format="ascii">
          7.21598923e-01 3.41568366e-02 0.00000000e+00 
7.31933594e-01 3.30936089e-02 0.00000000e+00 
7.42266715e-01 3.20154354e-02 0.00000000e+00 
7.52598286e-01 3.09220124e-02 0.00000000e+00 

        </DataArray>
      </Points>
      <Cells>
        <DataArray type="Int32" Name="connectivity" format="ascii">
0 1
1 2
2 3

        </DataArray>
        <DataArray type="Int32" Name="offsets" format="ascii">
2 4 6 
        </DataArray>
        <DataArray type="UInt8" Name="types" format="ascii">
3 3 3 
        </DataArray>
      </Cells>
      <PointData>
        <DataArray type="Float64" Name="rho">
          9.37026033e-01 9.38900099e-01 9.40747446e-01 9.42568731e-01 
        </DataArray>
        <DataArray type="Float64" Name="rhou">
          1.71071759e-04 1.65796352e-04 1.61759380e-04 1.49951572e-04 
        </DataArray>
        <DataArray type="Float64" Name="rhov">
          -5.58920762e-05 -5.15938709e-05 -5.43608264e-05 -6.00896447e-05 
        </DataArray>
        <DataArray type="Float64" Name="E">
          2.13483903e+05 2.13933553e+05 2.14376857e+05 2.14813969e+05 
        </DataArray>
      </PointData>
    </Piece>
    <Piece NumberOfPoints="4" NumberOfCells="3">
      <Points>
        <DataArray type="Float64" NumberOfComponents="3" format="ascii">
          7.52598286e-01 3.09220124e-02 0.00000000e+00 
7.62928188e-01 2.98135038e-02 0.00000000e+00 
7.73256481e-01 2.86899786e-02 0.00000000e+00 
7.83583105e-01 2.75512449e-02 0.00000000e+00 

        </DataArray>
      </Points>
      <Cells>
        <DataArray type="Int32" Name="connectivity" format="ascii">
0 1
1 2
2 3

        </DataArray>
        <DataArray type="Int32" Name="offsets" format="ascii">
2 4 6 
        </DataArray>
        <DataArray type="UInt8" Name="types" format="ascii">
3 3 3 
        </DataArray>
      </Cells>
      <PointData>
        <DataArray type="Float64" Name="rho">
          9.42568726e-01 9.44365272e-01 9.46136366e-01 9.47882865e-01 
        </DataArray>
        <DataArray type="Float64" Name="rhou">
          1.47247556e-04 1.42063464e-04 1.36693445e-04 1.25512383e-04 
        </DataArray>
        <DataArray type="Float64" Name="rhov">
          -5.91423538e-05 -5.70843706e-05 -5.97762215e-05 -6.35437288e-05 
        </DataArray>
        <DataArray type="Float64" Name="E">
          2.14813968e+05 2.15245192e+05 2.15670369e+05 2.16089692e+05 
        </DataArray>
      </PointData>
    </Piece>
    <Piece NumberOfPoints="4" NumberOfCells="3">
      <Points>
        <DataArray type="Float64" NumberOfComponents="3" format="ascii">
          7.83583105e-01 2.75512449e-02 0.00000000e+00 
7.93908060e-01 2.63975188e-02 0.00000000e+00 
8.04231405e-01 2.52291560e-02 0.00000000e+00 
8.14553022e-01 2.40457114e-02 0.00000000e+00 

        </DataArray>
      </Points>
      <Cells>
        <DataArray type="Int32" Name="connectivity" format="ascii">
0 1
1 2
2 3

        </DataArray>
        <DataArray type="Int32" Name="offsets" format="ascii">
2 4 6 
        </DataArray>
        <DataArray type="UInt8" Name="types" format="ascii">
3 3 3 
        </DataArray>
      </Cells>
      <PointData>
        <DataArray type="Float64" Name="rho">
          9.47882872e-01 9.49605715e-01 9.51304956e-01 9.52980069e-01 
        </DataArray>
        <DataArray type="Float64" Name="rhou">
          1.28183449e-04 1.15517147e-04 1.12879760e-04 1.12302915e-04 
        </DataArray>
        <DataArray type="Float64" Name="rhov">
          -6.39099284e-05 -6.03562166e-05 -5.93668553e-05 -6.64748727e-05 
        </DataArray>
        <DataArray type="Float64" Name="E">
          2.16089694e+05 2.16503374e+05 2.16911416e+05 2.17313690e+05 
        </DataArray>
      </PointData>
    </Piece>
    <Piece NumberOfPoints="4" NumberOfCells="3">
      <Points>
        <DataArray type="Float64" NumberOfComponents="3" format="ascii">
          8.14553022e-01 2.40457114e-02 0.00000000e+00 
8.24872792e-01 2.28467938e-02 0.00000000e+00 
8.35190892e-01 2.16327831e-02 0.00000000e+00 
8.45507145e-01 2.04038676e-02 0.00000000e+00 

        </DataArray>
      </Points>
      <Cells>
        <DataArray type="Int32" Name="connectivity" format="ascii">
0 1
1 2
2 3

        </DataArray>
        <DataArray type="Int32" Name="offsets" format="ascii">
2 4 6 
        </DataArray>
        <DataArray type="UInt8" Name="types" format="ascii">
3 3 3 
        </DataArray>
      </Cells>
      <PointData>
        <DataArray type="Float64" Name="rho">
          9.52980114e-01 9.54632994e-01 9.56264119e-01 9.57873831e-01 
        </DataArray>
        <DataArray type="Float64" Name="rhou">
          1.06147653e-04 9.58468446e-05 8.67993141e-05 8.56763820e-05 
        </DataArray>
        <DataArray type="Float64" Name="rhov">
          -6.67285565e-05 -6.69425976e-05 -6.42313565e-05 -6.02703044e-05 
        </DataArray>
        <DataArray type="Float64" Name="E">
          2.17313700e+05 2.17710621e+05 2.18102276e+05 2.18488711e+05 
        </DataArray>
      </PointData>
    </Piece>
    <Piece NumberOfPoints="4" NumberOfCells="3">
      <Points>
        <DataArray type="Float64" NumberOfComponents="3" format="ascii">
          8.45507145e-01 2.04038676e-02 0.00000000e+00 
8.55821550e-01 1.91591792e-02 0.00000000e+00 
8.66134048e-01 1.78987328e-02 0.00000000e+00 
8.76444638e-01 1.66228991e-02 0.00000000e+00 

        </DataArray>
      </Points>
      <Cells>
        <DataArray type="Int32" Name="connectivity" format="ascii">
0 1
1 2
2 3

        </DataArray>
        <DataArray type="Int32" Name="offsets" format="ascii">
2 4 6 
        </DataArray>
        <DataArray type="UInt8" Name="types" format="ascii">
3 3 3 
        </DataArray>
      </Cells>
      <PointData>
        <DataArray type="Float64" Name="rho">
          9.57873950e-01 9.59461005e-01 9.61029733e-01 9.62576715e-01 
        </DataArray>
        <DataArray type="Float64" Name="rhou">
          1.08358416e-04 7.33561032e-05 7.00139036e-05 8.51922257e-05 
        </DataArray>
        <DataArray type="Float64" Name="rhov">
          -6.40892751e-05 -7.21952421e-05 -6.95244545e-05 -8.82755588e-05 
        </DataArray>
        <DataArray type="Float64" Name="E">
          2.18488738e+05 2.18869634e+05 2.19245927e+05 2.19616778e+05 
        </DataArray>
      </PointData>
    </Piece>
    <Piece NumberOfPoints="4" NumberOfCells="3">
      <Points>
        <DataArray type="Float64" NumberOfComponents="3" format="ascii">
          8.76444638e-01 1.66228991e-02 0.00000000e+00 
8.86753201e-01 1.53310820e-02 0.00000000e+00 
8.97059798e-01 1.40233757e-02 0.00000000e+00 
9.07364249e-01 1.26988320e-02 0.00000000e+00 

        </DataArray>
      </Points>
      <Cells>
        <DataArray type="Int32" Name="connectivity" format="ascii">
0 1
1 2
2 3

        </DataArray>
        <DataArray type="Int32" Name="offsets" format="ascii">
2 4 6 
        </DataArray>
        <DataArray type="UInt8" Name="types" format="ascii">
3 3 3 
        </DataArray>
      </Cells>
      <PointData>
        <DataArray type="Float64" Name="rho">
          9.62576239e-01 9.64108801e-01 9.65619321e-01 9.67127994e-01 
        </DataArray>
        <DataArray type="Float64" Name="rhou">
          -1.24425417e-05 8.36606636e-05 2.32993832e-05 -3.45455809e-05 
        </DataArray>
        <DataArray type="Float64" Name="rhov">
          -7.98598491e-05 -8.32430943e-05 -1.03200314e-04 2.01082131e-06 
        </DataArray>
        <DataArray type="Float64" Name="E">
          2.19616669e+05 2.19983678e+05 2.20345024e+05 2.20705223e+05 
        </DataArray>
      </PointData>
    </Piece>
    <Piece NumberOfPoints="4" NumberOfCells="3">
      <Points>
        <DataArray type="Float64" NumberOfComponents="3" format="ascii">
          9.07364249e-01 1.26988320e-02 0.00000000e+00 
9.17666554e-01 1.13577880e-02 0.00000000e+00 
9.27966774e-01 1.00004105e-02 0.00000000e+00 
9.38264549e-01 8.62528384e-03 0.00000000e+00 

        </DataArray>
      </Points>
      <Cells>
        <DataArray type="Int32" Name="connectivity" format="ascii">
0 1
1 2
2 3

        </DataArray>
        <DataArray type="Int32" Name="offsets" format="ascii">
2 4 6 
        </DataArray>
        <DataArray type="UInt8" Name="types" format="ascii">
3 3 3 
        </DataArray>
      </Cells>
      <PointData>
        <DataArray type="Float64" Name="rho">
          9.67133151e-01 9.68595542e-01 9.70089468e-01 9.71434570e-01 
        </DataArray>
        <DataArray type="Float64" Name="rhou">
          8.24917077e-04 -2.46763659e-04 3.37114760e-04 7.86144006e-04 
        </DataArray>
        <DataArray type="Float64" Name="rhov">
          -7.16722420e-05 -1.27256307e-04 -5.14347969e-05 -1.55617469e-03 
        </DataArray>
        <DataArray type="Float64" Name="E">
          2.20706399e+05 2.21055215e+05 2.21410307e+05 2.21730427e+05 
        </DataArray>
      </PointData>
    </Piece>
    <Piece NumberOfPoints="4" NumberOfCells="3">
      <Points>
        <DataArray type="Float64" NumberOfComponents="3" format="ascii">
          9.38264549e-01 8.62528384e-03 0.00000000e+00 
9.48560059e-01 7.23283459e-03 0.00000000e+00 
9.58853185e-01 5.82307298e-03 0.00000000e+00 
9.69143867e-01 4.39538015e-03 0.00000000e+00 

        </DataArray>
      </Points>
      <Cells>
        <DataArray type="Int32" Name="connectivity" format="ascii">
0 1
1 2
2 3

        </DataArray>
        <DataArray type="Int32" Name="offsets" format="ascii">
2 4 6 
        </DataArray>
        <DataArray type="UInt8" Name="types" format="ascii">
3 3 3 
        </DataArray>
      </Cells>
      <PointData>
        <DataArray type="Float64" Name="rho">
          9.71384218e-01 9.73075730e-01 9.74339186e-01 9.77144051e-01 
        </DataArray>
        <DataArray type="Float64" Name="rhou">
          -7.11622419e-03 2.24424992e-03 -3.37206228e-03 -2.01487029e-02 
        </DataArray>
        <DataArray type="Float64" Name="rhov">
          -1.16063473e-03 1.33830741e-04 -1.21191048e-03 2.00469168e-02 
        </DataArray>
        <DataArray type="Float64" Name="E">
          2.21718935e+05 2.22117046e+05 2.22416342e+05 2.23066333e+05 
        </DataArray>
      </PointData>
    </Piece>
    <Piece NumberOfPoints="4" NumberOfCells="3">
      <Points>
        <DataArray type="Float64" NumberOfComponents="3" format="ascii">
          9.69143867e-01 4.39538015e-03 0.00000000e+00 
9.79435980e-01 2.94816052e-03 0.00000000e+00 
9.89725590e-01 1.48259092e-03 0.00000000e+00 
1.00000000e+00 0.00000000e+00 0.00000000e+00 

        </DataArray>
      </Points>
      <Cells>
        <DataArray type="Int32" Name="connectivity" format="ascii">
0 1
1 2
2 3

        </DataArray>
        <DataArray type="Int32" Name="offsets" format="ascii">
2 4 6 
        </DataArray>
        <DataArray type="UInt8" Name="types" format="ascii">
3 3 3 
        </DataArray>
      </Cells>
      <PointData>
        <DataArray type="Float64" Name="rho">
          9.77454037e-01 9.77011281e-01 9.81047707e-01 9.70658750e-01 
        </DataArray>
        <DataArray type="Float64" Name="rhou">
          -1.55013351e-03 -1.01569030e-02 -3.97638395e-02 5.25787316e-01 
        </DataArray>
        <DataArray type="Float64" Name="rhov">
          2.25160179e-02 1.00618194e-03 5.54214650e-02 -1.45629253e-01 
        </DataArray>
        <DataArray type="Float64" Name="E">
          2.23137555e+05 2.23044111e+05 2.23971451e+05 2.21592832e+05 
        </DataArray>
      </PointData>
    </Piece>
    <Piece NumberOfPoints="4" NumberOfCells="3">
      <Points>
        <DataArray type="Float64" NumberOfComponents="3" format="ascii">
          9.69029665e-01 -4.41133138e-03 0.00000000e+00 
9.79355037e-01 -2.95961346e-03 0.00000000e+00 
9.89677846e-01 -1.48943183e-03 0.00000000e+00 
1.00000000e+00 0.00000000e+00 0.00000000e+00 

        </DataArray>
      </Points>
      <Cells>
        <DataArray type="Int32" Name="connectivity" format="ascii">
0 1
1 2
2 3

        </DataArray>
        <DataArray type="Int32" Name="offsets" format="ascii">
2 4 6 
        </DataArray>
        <DataArray type="UInt8" Name="types" format="ascii">
3 3 3 
        </DataArray>
      </Cells>
      <PointData>
        <DataArray type="Float64" Name="rho">
          9.76822502e-01 9.76356458e-01 9.80235613e-01 9.70893652e-01 
        </DataArray>
        <DataArray type="Float64" Name="rhou">
          -9.10836444e-04 -8.04421522e-03 -3.76349643e-02 4.85118855e-01 
        </DataArray>
        <DataArray type="Float64" Name="rhov">
          -2.47886141e-02 2.21227723e-03 -5.16371691e-02 1.51298193e-01 
        </DataArray>
        <DataArray type="Float64" Name="E">
          2.22882555e+05 2.22799358e+05 2.23712334e+05 2.21628313e+05 
        </DataArray>
      </PointData>
    </Piece>
    <Piece NumberOfPoints="4" NumberOfCells="3">
      <Points>
        <DataArray type="Float64" NumberOfComponents="3" format="ascii">
          9.38035965e-01 -8.65600072e-03 0.00000000e+00 
9.48369622e-01 -7.25875143e-03 0.00000000e+00 
9.58700895e-01 -5.84406452e-03 0.00000000e+00 
9.69029665e-01 -4.41133138e-03 0.00000000e+00 

        </DataArray>
      </Points>
      <Cells>
        <DataArray type="Int32" Name="connectivity" format="ascii">
0 1
1 2
2 3

        </DataArray>
        <DataArray type="Int32" Name="offsets" format="ascii">
2 4 6 
        </DataArray>
        <DataArray type="UInt8" Name="types" format="ascii">
3 3 3 
        </DataArray>
      </Cells>
      <PointData>
        <DataArray type="Float64" Name="rho">
          9.71048457e-01 9.72663555e-01 9.73854103e-01 9.76512510e-01 
        </DataArray>
        <DataArray type="Float64" Name="rhou">
          -6.74104774e-03 2.40453295e-03 -2.81169219e-03 -1.81169276e-02 
        </DataArray>
        <DataArray type="Float64" Name="rhov">
          1.16561034e-03 -1.80920893e-04 1.42802718e-03 -1.85086650e-02 
        </DataArray>
        <DataArray type="Float64" Name="E">
          2.21512789e+05 2.21897632e+05 2.22186698e+05 2.22812349e+05 
        </DataArray>
      </PointData>
    </Piece>
    <Piece NumberOfPoints="4" NumberOfCells="3">
      <Points>
        <DataArray type="Float64" NumberOfComponents="3" format="ascii">
          9.07021165e-01 -1.27432076e-02 0.00000000e+00 
9.17361677e-01 -1.13977119e-02 0.00000000e+00 
9.27700043e-01 -1.00357840e-02 0.00000000e+00 
9.38035965e-01 -8.65600072e-03 0.00000000e+00 

        </DataArray>
      </Points>
      <Cells>
        <DataArray type="Int32" Name="connectivity" format="ascii">
0 1
1 2
2 3

        </DataArray>
        <DataArray type="Int32" Name="offsets" format="ascii">
2 4 6 
        </DataArray>
        <DataArray type="UInt8" Name="types" format="ascii">
3 3 3 
        </DataArray>
      </Cells>
      <PointData>
        <DataArray type="Float64" Name="rho">
          9.66998872e-01 9.68391315e-01 9.69817573e-01 9.71097711e-01 
        </DataArray>
        <DataArray type="Float64" Name="rhou">
          9.44926613e-04 -1.06864729e-04 4.88926076e-04 9.01365023e-04 
        </DataArray>
        <DataArray type="Float64" Name="rhov">
          5.65073539e-05 8.51948867e-05 -8.03414759e-06 1.46692230e-03 
        </DataArray>
        <DataArray type="Float64" Name="E">
          2.20541794e+05 2.20875009e+05 2.21216045e+05 2.21524015e+05 
        </DataArray>
      </PointData>
    </Piece>
    <Piece NumberOfPoints="4" NumberOfCells="3">
      <Points>
        <DataArray type="Float64" NumberOfComponents="3" format="ascii">
          8.75986874e-01 -1.66798849e-02 0.00000000e+00 
8.86333704e-01 -1.53839625e-02 0.00000000e+00 
8.96678507e-01 -1.40720531e-02 0.00000000e+00 
9.07021165e-01 -1.27432076e-02 0.00000000e+00 

        </DataArray>
      </Points>
      <Cells>
        <DataArray type="Int32" Name="connectivity" format="ascii">
0 1
1 2
2 3

        </DataArray>
        <DataArray type="Int32" Name="offsets" format="ascii">
2 4 6 
        </DataArray>
        <DataArray type="UInt8" Name="types" format="ascii">
3 3 3 
        </DataArray>
      </Cells>
      <PointData>
        <DataArray type="Float64" Name="rho">
          9.62706499e-01 9.64141655e-01 9.65564948e-01 9.66993698e-01 
        </DataArray>
        <DataArray type="Float64" Name="rhou">
          1.36665285e-04 2.19660280e-04 1.67485294e-04 1.11070828e-04 
        </DataArray>
        <DataArray type="Float64" Name="rhov">
          7.77296018e-05 6.87112704e-05 8.42149590e-05 -1.62150303e-05 
        </DataArray>
        <DataArray type="Float64" Name="E">
          2.19516071e+05 2.19858975e+05 2.20199168e+05 2.20540617e+05 
        </DataArray>
      </PointData>
    </Piece>
    <Piece NumberOfPoints="4" NumberOfCells="3">
      <Points>
        <DataArray type="Float64" NumberOfComponents="3" format="ascii">
          8.44934702e-01 -2.04724707e-02 0.00000000e+00 
8.55287313e-01 -1.92240477e-02 0.00000000e+00 
8.65638077e-01 -1.79597028e-02 0.00000000e+00 
8.75986874e-01 -1.66798849e-02 0.00000000e+00 

        </DataArray>
      </Points>
      <Cells>
        <DataArray type="Int32" Name="connectivity" format="ascii">
0 1
1 2
2 3

        </DataArray>
        <DataArray type="Int32" Name="offsets" format="ascii">
2 4 6 
        </DataArray>
        <DataArray type="UInt8" Name="types" format="ascii">
3 3 3 
        </DataArray>
      </Cells>
      <PointData>
        <DataArray type="Float64" Name="rho">
          9.58372185e-01 9.59822212e-01 9.61269629e-01 9.62706946e-01 
        </DataArray>
        <DataArray type="Float64" Name="rhou">
          2.82391537e-04 2.19261121e-04 2.05050388e-04 2.42629398e-04 
        </DataArray>
        <DataArray type="Float64" Name="rhov">
          5.14904160e-05 7.27518593e-05 6.18182530e-05 8.09459877e-05 
        </DataArray>
        <DataArray type="Float64" Name="E">
          2.18480690e+05 2.18827033e+05 2.19172763e+05 2.19516173e+05 
        </DataArray>
      </PointData>
    </Piece>
    <Piece NumberOfPoints="4" NumberOfCells="3">
      <Points>
        <DataArray type="Float64" NumberOfComponents="3" format="ascii">
          8.13865662e-01 -2.41250079e-02 0.00000000e+00 
8.24223816e-01 -2.29226518e-02 0.00000000e+00 
8.34580123e-01 -2.17050612e-02 0.00000000e+00 
8.44934702e-01 -2.04724707e-02 0.00000000e+00 

        </DataArray>
      </Points>
      <Cells>
        <DataArray type="Int32" Name="connectivity" format="ascii">
0 1
1 2
2 3

        </DataArray>
        <DataArray type="Int32" Name="offsets" format="ascii">
2 4 6 
        </DataArray>
        <DataArray type="UInt8" Name="types" format="ascii">
3 3 3 
        </DataArray>
      </Cells>
      <PointData>
        <DataArray type="Float64" Name="rho">
          9.53971697e-01 9.55444178e-01 9.56911141e-01 9.58371946e-01 
        </DataArray>
        <DataArray type="Float64" Name="rhou">
          2.63010878e-04 2.45463202e-04 2.28033184e-04 2.31737116e-04 
        </DataArray>
        <DataArray type="Float64" Name="rhov">
          6.27354849e-05 6.36787419e-05 5.60371064e-05 4.36114128e-05 
        </DataArray>
        <DataArray type="Float64" Name="E">
          2.17430066e+05 2.17781584e+05 2.18131821e+05 2.18480636e+05 
        </DataArray>
      </PointData>
    </Piece>
    <Piece NumberOfPoints="4" NumberOfCells="3">
      <Points>
        <DataArray type="Float64" NumberOfComponents="3" format="ascii">
          7.82780826e-01 -2.76402626e-02 0.00000000e+00 
7.93144107e-01 -2.64833923e-02 0.00000000e+00 
8.03505778e-01 -2.53117718e-02 0.00000000e+00 
8.13865662e-01 -2.41250079e-02 0.00000000e+00 

        </DataArray>
      </Points>
      <Cells>
        <DataArray type="Int32" Name="connectivity" format="ascii">
0 1
1 2
2 3

        </DataArray>
        <DataArray type="Int32" Name="offsets" format="ascii">
2 4 6 
        </DataArray>
        <DataArray type="UInt8" Name="types" format="ascii">
3 3 3 
        </DataArray>
      </Cells>
      <PointData>
        <DataArray type="Float64" Name="rho">
          9.49514856e-01 9.51007080e-01 9.52493577e-01 9.53971585e-01 
        </DataArray>
        <DataArray type="Float64" Name="rhou">
          2.89971608e-04 2.66749403e-04 2.64761427e-04 2.72687660e-04 
        </DataArray>
        <DataArray type="Float64" Name="rhov">
          5.85618251e-05 5.01531440e-05 4.57872189e-05 6.08095349e-05 
        </DataArray>
        <DataArray type="Float64" Name="E">
          2.16366381e+05 2.16722480e+05 2.17077241e+05 2.17430041e+05 
        </DataArray>
      </PointData>
    </Piece>
    <Piece NumberOfPoints="4" NumberOfCells="3">
      <Points>
        <DataArray type="Float64" NumberOfComponents="3" format="ascii">
          7.51680970e-01 -3.10197193e-02 0.00000000e+00 
7.62049198e-01 -2.99084149e-02 0.00000000e+00 
7.72415876e-01 -2.87819952e-02 0.00000000e+00 
7.82780826e-01 -2.76402626e-02 0.00000000e+00 

        </DataArray>
      </Points>
      <Cells>
        <DataArray type="Int32" Name="connectivity" format="ascii">
0 1
1 2
2 3

        </DataArray>
        <DataArray type="Int32" Name="offsets" format="ascii">
2 4 6 
        </DataArray>
        <DataArray type="UInt8" Name="types" format="ascii">
3 3 3 
        </DataArray>
      </Cells>
      <PointData>
        <DataArray type="Float64" Name="rho">
          9.45005736e-01 9.46514917e-01 9.48017802e-01 9.49514818e-01 
        </DataArray>
        <DataArray type="Float64" Name="rhou">
          3.08282752e-04 3.02632295e-04 2.95540989e-04 2.79392296e-04 
        </DataArray>
        <DataArray type="Float64" Name="rhov">
          4.99602840e-05 4.35353720e-05 4.79035432e-05 5.61719612e-05 
        </DataArray>
        <DataArray type="Float64" Name="E">
          2.15290453e+05 2.15650539e+05 2.16009145e+05 2.16366372e+05 
        </DataArray>
      </PointData>
    </Piece>
    <Piece NumberOfPoints="4" NumberOfCells="3">
      <Points>
        <DataArray type="Float64" NumberOfComponents="3" format="ascii">
          7.20566452e-01 -3.42622213e-02 0.00000000e+00 
7.30939507e-01 -3.31965312e-02 0.00000000e+00 
7.41311073e-01 -3.21157984e-02 0.00000000e+00 
7.51680970e-01 -3.10197193e-02 0.00000000e+00 

        </DataArray>
      </Points>
      <Cells>
        <DataArray type="Int32" Name="connectivity" format="ascii">
0 1
1 2
2 3

        </DataArray>
        <DataArray type="Int32" Name="offsets" format="ascii">
2 4 6 
        </DataArray>
        <DataArray type="UInt8" Name="types" format="ascii">
3 3 3 
        </DataArray>
      </Cells>
      <PointData>
        <DataArray type="Float64" Name="rho">
          9.40451378e-01 9.41974857e-01 9.43493124e-01 9.45005728e-01 
        </DataArray>
        <DataArray type="Float64" Name="rhou">
          3.38500018e-04 3.30419516e-04 3.26319991e-04 3.11648446e-04 
        </DataArray>
        <DataArray type="Float64" Name="rhov">
          4.49206696e-05 3.41911706e-05 3.74863349e-05 5.03034074e-05 
        </DataArray>
        <DataArray type="Float64" Name="E">
          2.14203760e+05 2.14567271e+05 2.14929534e+05 2.15290451e+05 
        </DataArray>
      </PointData>
    </Piece>
    <Piece NumberOfPoints="4" NumberOfCells="3">
      <Points>
        <DataArray type="Float64" NumberOfComponents="3" format="ascii">
          6.89437866e-01 -3.73662710e-02 0.00000000e+00 
6.99815631e-01 -3.63472365e-02 0.00000000e+00 
7.10191846e-01 -3.53125818e-02 0.00000000e+00 
7.20566452e-01 -3.42622213e-02 0.00000000e+00 

        </DataArray>
      </Points>
      <Cells>
        <DataArray type="Int32" Name="connectivity" format="ascii">
0 1
1 2
2 3

        </DataArray>
        <DataArray type="Int32" Name="offsets" format="ascii">
2 4 6 
        </DataArray>
        <DataArray type="UInt8" Name="types" format="ascii">
3 3 3 
        </DataArray>
      </Cells>
      <PointData>
        <DataArray type="Float64" Name="rho">
          9.35866483e-01 9.37398028e-01 9.38926395e-01 9.40451389e-01 
        </DataArray>
        <DataArray type="Float64" Name="rhou">
          3.74865159e-04 3.66733975e-04 3.58707915e-04 3.39514649e-04 
        </DataArray>
        <DataArray type="Float64" Name="rhov">
          3.51339313e-05 2.81918181e-05 3.35140695e-05 4.50698993e-05 
        </DataArray>
        <DataArray type="Float64" Name="E">
          2.13109537e+05 2.13475084e+05 2.13839840e+05 2.14203762e+05 
        </DataArray>
      </PointData>
    </Piece>
    <Piece NumberOfPoints="4" NumberOfCells="3">
      <Points>
        <DataArray type="Float64" NumberOfComponents="3" format="ascii">
          6.58295333e-01 -4.03269380e-02 0.00000000e+00 
6.68677747e-01 -3.93563360e-02 0.00000000e+00 
6.79058611e-01 -3.83694395e-02 0.00000000e+00 
6.89437866e-01 -3.73662710e-02 0.00000000e+00 

        </DataArray>
      </Points>
      <Cells>
        <DataArray type="Int32" Name="connectivity" format="ascii">
0 1
1 2
2 3

        </DataArray>
        <DataArray type="Int32" Name="offsets" format="ascii">
2 4 6 
        </DataArray>
        <DataArray type="UInt8" Name="types" format="ascii">
3 3 3 
        </DataArray>
      </Cells>
      <PointData>
        <DataArray type="Float64" Name="rho">
          9.31271292e-01 9.32803519e-01 9.34335205e-01 9.35866538e-01 
        </DataArray>
        <DataArray type="Float64" Name="rhou">
          4.13860967e-04 4.07832407e-04 3.94358724e-04 3.72843646e-04 
        </DataArray>
        <DataArray type="Float64" Name="rhov">
          2.21449168e-05 1.95352025e-05 2.69196017e-05 3.58377588e-05 
        </DataArray>
        <DataArray type="Float64" Name="E">
          2.12012363e+05 2.12378266e+05 2.12743981e+05 2.13109549e+05 
        </DataArray>
      </PointData>
    </Piece>
    <Piece NumberOfPoints="4" NumberOfCells="3">
      <Points>
        <DataArray type="Float64" NumberOfComponents="3" format="ascii">
          6.27138972e-01 -4.31386717e-02 0.00000000e+00 
6.37525976e-01 -4.22184542e-02 0.00000000e+00 
6.47911429e-01 -4.12811004e-02 0.00000000e+00 
6.58295333e-01 -4.03269380e-02 0.00000000e+00 

        </DataArray>
      </Points>
      <Cells>
        <DataArray type="Int32" Name="connectivity" format="ascii">
0 1
1 2
2 3

        </DataArray>
        <DataArray type="Int32" Name="offsets" format="ascii">
2 4 6 
        </DataArray>
        <DataArray type="UInt8" Name="types" format="ascii">
3 3 3 
        </DataArray>
      </Cells>
      <PointData>
        <DataArray type="Float64" Name="rho">
          9.26694103e-01 9.28215517e-01 9.29741823e-01 9.31271325e-01 
        </DataArray>
        <DataArray type="Float64" Name="rhou">
          4.66135551e-04 4.47179162e-04 4.29538050e-04 4.14665023e-04 
        </DataArray>
        <DataArray type="Float64" Name="rhov">
          1.70174733e-05 1.63982197e-05 1.83504881e-05 2.30019477e-05 
        </DataArray>
        <DataArray type="Float64" Name="E">
          2.10918748e+05 2.11282353e+05 2.11647025e+05 2.12012370e+05 
        </DataArray>
      </PointData>
    </Piece>
    <Piece NumberOfPoints="4" NumberOfCells="3">
      <Points>
        <DataArray type="Float64" NumberOfComponents="3" format="ascii">
          5.95968783e-01 -4.57924642e-02 0.00000000e+00 
6.06360376e-01 -4.49259281e-02 0.00000000e+00 
6.16750479e-01 -4.40412909e-02 0.00000000e+00 
6.27138972e-01 -4.31386717e-02 0.00000000e+00 

        </DataArray>
      </Points>
      <Cells>
        <DataArray type="Int32" Name="connectivity" format="ascii">
0 1
1 2
2 3

        </DataArray>
        <DataArray type="Int32" Name="offsets" format="ascii">
2 4 6 
        </DataArray>
        <DataArray type="UInt8" Name="types" format="ascii">
3 3 3 
        </DataArray>
      </Cells>
      <PointData>
        <DataArray type="Float64" Name="rho">
          9.22177061e-01 9.23674046e-01 9.25180108e-01 9.26694095e-01 
        </DataArray>
        <DataArray type="Float64" Name="rhou">
          5.10394038e-04 4.98643164e-04 4.81442927e-04 4.59400082e-04 
        </DataArray>
        <DataArray type="Float64" Name="rhov">
          3.48172653e-06 6.77884826e-07 7.70153041e-06 1.78206734e-05 
        </DataArray>
        <DataArray type="Float64" Name="E">
          2.09838525e+05 2.10196632e+05 2.10556798e+05 2.10918747e+05 
        </DataArray>
      </PointData>
    </Piece>
    <Piece NumberOfPoints="4" NumberOfCells="3">
      <Points>
        <DataArray type="Float64" NumberOfComponents="3" format="ascii">
          5.64784765e-01 -4.82786149e-02 0.00000000e+00 
5.75181007e-01 -4.74695377e-02 0.00000000e+00 
5.85575700e-01 -4.66405638e-02 0.00000000e+00 
5.95968783e-01 -4.57924642e-02 0.00000000e+00 

        </DataArray>
      </Points>
      <Cells>
        <DataArray type="Int32" Name="connectivity" format="ascii">
0 1
1 2
2 3

        </DataArray>
        <DataArray type="Int32" Name="offsets" format="ascii">
2 4 6 
        </DataArray>
        <DataArray type="UInt8" Name="types" format="ascii">
3 3 3 
        </DataArray>
      </Cells>
      <PointData>
        <DataArray type="Float64" Name="rho">
          9.17777910e-01 9.19226265e-01 9.20693285e-01 9.22177175e-01 
        </DataArray>
        <DataArray type="Float64" Name="rhou">
          5.85501229e-04 5.59722531e-04 5.27070344e-04 5.03969213e-04 
        </DataArray>
        <DataArray type="Float64" Name="rhov">
          -9.25577918e-06 2.50797250e-06 7.64996925e-06 4.41703311e-06 
        </DataArray>
        <DataArray type="Float64" Name="E">
          2.08785256e+05 2.09132189e+05 2.09483433e+05 2.09838551e+05 
        </DataArray>
      </PointData>
    </Piece>
    <Piece NumberOfPoints="4" NumberOfCells="3">
      <Points>
        <DataArray type="Float64" NumberOfComponents="3" format="ascii">
          5.33586800e-01 -5.05827516e-02 0.00000000e+00 
5.43987691e-01 -4.98356484e-02 0.00000000e+00 
5.54387033e-01 -4.90674041e-02 0.00000000e+00 
5.64784765e-01 -4.82786149e-02 0.00000000e+00 

        </DataArray>
      </Points>
      <Cells>
        <DataArray type="Int32" Name="connectivity" format="ascii">
0 1
1 2
2 3

        </DataArray>
        <DataArray type="Int32" Name="offsets" format="ascii">
2 4 6 
        </DataArray>
        <DataArray type="UInt8" Name="types" format="ascii">
3 3 3 
        </DataArray>
      </Cells>
      <PointData>
        <DataArray type="Float64" Name="rho">
          9.13568582e-01 9.14944628e-01 9.16349541e-01 9.17777869e-01 
        </DataArray>
        <DataArray type="Float64" Name="rhou">
          6.57572278e-04 6.18526172e-04 5.90419208e-04 5.79655185e-04 
        </DataArray>
        <DataArray type="Float64" Name="rhov">
          -8.80042506e-06 -8.65809641e-06 -1.15848801e-05 -8.87915524e-06 
        </DataArray>
        <DataArray type="Float64" Name="E">
          2.07776003e+05 2.08106121e+05 2.08442960e+05 2.08785247e+05 
        </DataArray>
      </PointData>
    </Piece>
    <Piece NumberOfPoints="4" NumberOfCells="3">
      <Points>
        <DataArray type="Float64" NumberOfComponents="3" format="ascii">
          5.02374947e-01 -5.26902266e-02 0.00000000e+00 
5.12780428e-01 -5.20105064e-02 0.00000000e+00 
5.23184419e-01 -5.13078682e-02 0.00000000e+00 
5.33586800e-01 -5.05827516e-02 0.00000000e+00 

        </DataArray>
      </Points>
      <Cells>
        <DataArray type="Int32" Name="connectivity" format="ascii">
0 1
1 2
2 3

        </DataArray>
        <DataArray type="Int32" Name="offsets" format="ascii">
2 4 6 
        </DataArray>
        <DataArray type="UInt8" Name="types" format="ascii">
3 3 3 
        </DataArray>
      </Cells>
      <PointData>
        <DataArray type="Float64" Name="rho">
          9.09648051e-01 9.10916544e-01 9.12225387e-01 9.13568485e-01 
        </DataArray>
        <DataArray type="Float64" Name="rhou">
          7.36177083e-04 7.00823593e-04 6.74165916e-04 6.54675455e-04 
        </DataArray>
        <DataArray type="Float64" Name="rhov">
          -1.85479447e-05 -2.49827143e-05 -2.34167888e-05 -9.25113684e-06 
        </DataArray>
        <DataArray type="Float64" Name="E">
          2.06834230e+05 2.07139160e+05 2.07453554e+05 2.07775981e+05 
        </DataArray>
      </PointData>
    </Piece>
    <Piece NumberOfPoints="4" NumberOfCells="3">
      <Points>
        <DataArray type="Float64" NumberOfComponents="3" format="ascii">
          4.71149325e-01 -5.45825884e-02 0.00000000e+00 
4.81559396e-01 -5.39771840e-02 0.00000000e+00 
4.91967946e-01 -5.33461571e-02 0.00000000e+00 
5.02374947e-01 -5.26902266e-02 0.00000000e+00 

        </DataArray>
      </Points>
      <Cells>
        <DataArray type="Int32" Name="connectivity" format="ascii">
0 1
1 2
2 3

        </DataArray>
        <DataArray type="Int32" Name="offsets" format="ascii">
2 4 6 
        </DataArray>
        <DataArray type="UInt8" Name="types" format="ascii">
3 3 3 
        </DataArray>
      </Cells>
      <PointData>
        <DataArray type="Float64" Name="rho">
          9.06146633e-01 9.07259372e-01 9.08426893e-01 9.09648141e-01 
        </DataArray>
        <DataArray type="Float64" Name="rhou">
          8.39866368e-04 8.18254912e-04 7.72327352e-04 7.16133988e-04 
        </DataArray>
        <DataArray type="Float64" Name="rhov">
          -4.32838538e-05 -3.69794128e-05 -1.95331867e-05 -1.56946016e-05 
        </DataArray>
        <DataArray type="Float64" Name="E">
          2.05990894e+05 2.06259186e+05 2.06540405e+05 2.06834251e+05 
        </DataArray>
      </PointData>
    </Piece>
    <Piece NumberOfPoints="4" NumberOfCells="3">
      <Points>
        <DataArray type="Float64" NumberOfComponents="3" format="ascii">
          4.39910263e-01 -5.62384278e-02 0.00000000e+00 
4.50324744e-01 -5.57143167e-02 0.00000000e+00 
4.60737765e-01 -5.51619194e-02 0.00000000e+00 
4.71149325e-01 -5.45825884e-02 0.00000000e+00 

        </DataArray>
      </Points>
      <Cells>
        <DataArray type="Int32" Name="connectivity" format="ascii">
0 1
1 2
2 3

        </DataArray>
        <DataArray type="Int32" Name="offsets" format="ascii">
2 4 6 
        </DataArray>
        <DataArray type="UInt8" Name="types" format="ascii">
3 3 3 
        </DataArray>
      </Cells>
      <PointData>
        <DataArray type="Float64" Name="rho">
          9.03222063e-01 9.04118444e-01 9.05096834e-01 9.06146709e-01 
        </DataArray>
        <DataArray type="Float64" Name="rhou">
          1.00552695e-03 9.28997022e-04 8.71445729e-04 8.45227377e-04 
        </DataArray>
        <DataArray type="Float64" Name="rhov">
          -3.56622259e-05 -2.65752320e-05 -3.32441895e-05 -4.07033528e-05 
        </DataArray>
        <DataArray type="Float64" Name="E">
          2.05283566e+05 2.05500833e+05 2.05737442e+05 2.05990911e+05 
        </DataArray>
      </PointData>
    </Piece>
    <Piece NumberOfPoints="4" NumberOfCells="3">
      <Points>
        <DataArray type="Float64" NumberOfComponents="3" format="ascii">
          4.08658355e-01 -5.76302819e-02 0.00000000e+00 
4.19077009e-01 -5.71971126e-02 0.00000000e+00 
4.29494321e-01 -5.67329265e-02 0.00000000e+00 
4.39910263e-01 -5.62384278e-02 0.00000000e+00 

        </DataArray>
      </Points>
      <Cells>
        <DataArray type="Int32" Name="connectivity" format="ascii">
0 1
1 2
2 3

        </DataArray>
        <DataArray type="Int32" Name="offsets" format="ascii">
2 4 6 
        </DataArray>
        <DataArray type="UInt8" Name="types" format="ascii">
3 3 3 
        </DataArray>
      </Cells>
      <PointData>
        <DataArray type="Float64" Name="rho">
          9.01082845e-01 9.01696146e-01 9.02413028e-01 9.03221829e-01 
        </DataArray>
        <DataArray type="Float64" Name="rhou">
          1.15818965e-03 1.08924965e-03 1.03857859e-03 1.00002399e-03 
        </DataArray>
        <DataArray type="Float64" Name="rhov">
          -4.37613635e-05 -5.63998331e-05 -5.56856790e-05 -3.54901468e-05 
        </DataArray>
        <DataArray type="Float64" Name="E">
          2.04761861e+05 2.04912146e+05 2.05086944e+05 2.05283512e+05 
        </DataArray>
      </PointData>
    </Piece>
    <Piece NumberOfPoints="4" NumberOfCells="3">
      <Points>
        <DataArray type="Float64" NumberOfComponents="3" format="ascii">
          3.77394795e-01 -5.87291755e-02 0.00000000e+00 
3.87817174e-01 -5.83979115e-02 0.00000000e+00 
3.98238391e-01 -5.80311492e-02 0.00000000e+00 
4.08658355e-01 -5.76302819e-02 0.00000000e+00 

        </DataArray>
      </Points>
      <Cells>
        <DataArray type="Int32" Name="connectivity" format="ascii">
0 1
1 2
2 3

        </DataArray>
        <DataArray type="Int32" Name="offsets" format="ascii">
2 4 6 
        </DataArray>
        <DataArray type="UInt8" Name="types" format="ascii">
3 3 3 
        </DataArray>
      </Cells>
      <PointData>
        <DataArray type="Float64" Name="rho">
          8.99990951e-01 9.00221271e-01 9.00586278e-01 9.01083058e-01 
        </DataArray>
        <DataArray type="Float64" Name="rhou">
          1.40548213e-03 1.33245673e-03 1.23134297e-03 1.12668325e-03 
        </DataArray>
        <DataArray type="Float64" Name="rhov">
          -8.72142923e-05 -5.92241843e-05 -3.13328286e-05 -3.88179223e-05 
        </DataArray>
        <DataArray type="Float64" Name="E">
          2.04487990e+05 2.04547615e+05 2.04639182e+05 2.04761910e+05 
        </DataArray>
      </PointData>
    </Piece>
    <Piece NumberOfPoints="4" NumberOfCells="3">
      <Points>
        <DataArray type="Float64" NumberOfComponents="3" format="ascii">
          3.46121490e-01 -5.95011823e-02 0.00000000e+00 
3.56546819e-01 -5.92821389e-02 0.00000000e+00 
3.66971314e-01 -5.90242445e-02 0.00000000e+00 
3.77394795e-01 -5.87291755e-02 0.00000000e+00 

        </DataArray>
      </Points>
      <Cells>
        <DataArray type="Int32" Name="connectivity" format="ascii">
0 1
1 2
2 3

        </DataArray>
        <DataArray type="Int32" Name="offsets" format="ascii">
2 4 6 
        </DataArray>
        <DataArray type="UInt8" Name="types" format="ascii">
3 3 3 
        </DataArray>
      </Cells>
      <PointData>
        <DataArray type="Float64" Name="rho">
          9.00235235e-01 8.99980592e-01 8.99904908e-01 8.99991043e-01 
        </DataArray>
        <DataArray type="Float64" Name="rhou">
          1.74742982e-03 1.60311327e-03 1.47443203e-03 1.40892314e-03 
        </DataArray>
        <DataArray type="Float64" Name="rhov">
          -1.22226626e-04 -7.99735775e-05 -7.25798016e-05 -8.25385114e-05 
        </DataArray>
        <DataArray type="Float64" Name="E">
          2.04530803e+05 2.04475499e+05 2.04462584e+05 2.04488010e+05 
        </DataArray>
      </PointData>
    </Piece>
    <Piece NumberOfPoints="4" NumberOfCells="3">
      <Points>
        <DataArray type="Float64" NumberOfComponents="3" format="ascii">
          3.14841360e-01 -5.99102043e-02 0.00000000e+00 
3.25268596e-01 -5.98174632e-02 0.00000000e+00 
3.35695356e-01 -5.96801341e-02 0.00000000e+00 
3.46121490e-01 -5.95011823e-02 0.00000000e+00 

        </DataArray>
      </Points>
      <Cells>
        <DataArray type="Int32" Name="connectivity" format="ascii">
0 1
1 2
2 3

        </DataArray>
        <DataArray type="Int32" Name="offsets" format="ascii">
2 4 6 
        </DataArray>
        <DataArray type="UInt8" Name="types" format="ascii">
3 3 3 
        </DataArray>
      </Cells>
      <PointData>
        <DataArray type="Float64" Name="rho">
          9.02217346e-01 9.01324009e-01 9.00672513e-01 9.00234942e-01 
        </DataArray>
        <DataArray type="Float64" Name="rhou">
          2.19768773e-03 1.95269028e-03 1.78760835e-03 1.71162047e-03 
        </DataArray>
        <DataArray type="Float64" Name="rhov">
          -5.94247923e-05 -3.56592376e-05 -6.79212788e-05 -1.21465338e-04 
        </DataArray>
        <DataArray type="Float64" Name="E">
          2.04985637e+05 2.04778923e+05 2.04629486e+05 2.04530736e+05 
        </DataArray>
      </PointData>
    </Piece>
    <Piece NumberOfPoints="4" NumberOfCells="3">
      <Points>
        <DataArray type="Float64" NumberOfComponents="3" format="ascii">
          2.83558637e-01 -5.98983802e-02 0.00000000e+00 
2.93986142e-01 -5.99516556e-02 0.00000000e+00 
3.04413795e-01 -5.99554181e-02 0.00000000e+00 
3.14841360e-01 -5.99102043e-02 0.00000000e+00 

        </DataArray>
      </Points>
      <Cells>
        <DataArray type="Int32" Name="connectivity" format="ascii">
0 1
1 2
2 3

        </DataArray>
        <DataArray type="Int32" Name="offsets" format="ascii">
2 4 6 
        </DataArray>
        <DataArray type="UInt8" Name="types" format="ascii">
3 3 3 
        </DataArray>
      </Cells>
      <PointData>
        <DataArray type="Float64" Name="rho">
          9.06448197e-01 9.04769737e-01 9.03364963e-01 9.02216630e-01 
        </DataArray>
        <DataArray type="Float64" Name="rhou">
          2.67573099e-03 2.51050138e-03 2.37286709e-03 2.18858984e-03 
        </DataArray>
        <DataArray type="Float64" Name="rhov">
          -1.18420588e-04 -1.85099803e-04 -1.48636247e-04 -5.27870164e-05 
        </DataArray>
        <DataArray type="Float64" Name="E">
          2.05974297e+05 2.05580936e+05 2.05252695e+05 2.04985473e+05 
        </DataArray>
      </PointData>
    </Piece>
    <Piece NumberOfPoints="4" NumberOfCells="3">
      <Points>
        <DataArray type="Float64" NumberOfComponents="3" format="ascii">
          2.52279758e-01 -5.94130717e-02 0.00000000e+00 
2.62705088e-01 -5.96327744e-02 0.00000000e+00 
2.73131490e-01 -5.97934239e-02 0.00000000e+00 
2.83558637e-01 -5.98983802e-02 0.00000000e+00 

        </DataArray>
      </Points>
      <Cells>
        <DataArray type="Int32" Name="connectivity" format="ascii">
0 1
1 2
2 3

        </DataArray>
        <DataArray type="Int32" Name="offsets" format="ascii">
2 4 6 
        </DataArray>
        <DataArray type="UInt8" Name="types" format="ascii">
3 3 3 
        </DataArray>
      </Cells>
      <PointData>
        <DataArray type="Float64" Name="rho">
          9.13543410e-01 9.10812160e-01 9.08450078e-01 9.06449122e-01 
        </DataArray>
        <DataArray type="Float64" Name="rhou">
          3.65129155e-03 3.34526814e-03 3.00864662e-03 2.66183179e-03 
        </DataArray>
        <DataArray type="Float64" Name="rhov">
          -2.70154090e-04 -1.76413061e-04 -8.79225955e-05 -9.91468066e-05 
        </DataArray>
        <DataArray type="Float64" Name="E">
          2.07643216e+05 2.06999835e+05 2.06444333e+05 2.05974511e+05 
        </DataArray>
      </PointData>
    </Piece>
    <Piece NumberOfPoints="4" NumberOfCells="3">
      <Points>
        <DataArray type="Float64" NumberOfComponents="3" format="ascii">
          2.21014455e-01 -5.83752058e-02 0.00000000e+00 
2.31433928e-01 -5.87876961e-02 0.00000000e+00 
2.41855890e-01 -5.91322705e-02 0.00000000e+00 
2.52279758e-01 -5.94130717e-02 0.00000000e+00 

        </DataArray>
      </Points>
      <Cells>
        <DataArray type="Int32" Name="connectivity" format="ascii">
0 1
1 2
2 3

        </DataArray>
        <DataArray type="Int32" Name="offsets" format="ascii">
2 4 6 
        </DataArray>
        <DataArray type="UInt8" Name="types" format="ascii">
3 3 3 
        </DataArray>
      </Cells>
      <PointData>
        <DataArray type="Float64" Name="rho">
          9.24281787e-01 9.20230291e-01 9.16666554e-01 9.13543592e-01 
        </DataArray>
        <DataArray type="Float64" Name="rhou">
          5.00875034e-03 4.42162484e-03 3.97385842e-03 3.68570967e-03 
        </DataArray>
        <DataArray type="Float64" Name="rhov">
          -3.80719267e-04 -2.74508845e-04 -2.40765954e-04 -2.53767555e-04 
        </DataArray>
        <DataArray type="Float64" Name="E">
          2.10179100e+05 2.09221467e+05 2.08379923e+05 2.07643253e+05 
        </DataArray>
      </PointData>
    </Piece>
    <Piece NumberOfPoints="4" NumberOfCells="3">
      <Points>
        <DataArray type="Float64" NumberOfComponents="3" format="ascii">
          1.89777538e-01 -5.66898957e-02 0.00000000e+00 
2.00185493e-01 -5.73302582e-02 0.00000000e+00 
2.10598081e-01 -5.78906052e-02 0.00000000e+00 
2.21014455e-01 -5.83752058e-02 0.00000000e+00 

        </DataArray>
      </Points>
      <Cells>
        <DataArray type="Int32" Name="connectivity" format="ascii">
0 1
1 2
2 3

        </DataArray>
        <DataArray type="Int32" Name="offsets" format="ascii">
2 4 6 
        </DataArray>
        <DataArray type="UInt8" Name="types" format="ascii">
3 3 3 
        </DataArray>
      </Cells>
      <PointData>
        <DataArray type="Float64" Name="rho">
          9.39747796e-01 9.33989925e-01 9.28854460e-01 9.24281024e-01 
        </DataArray>
        <DataArray type="Float64" Name="rhou">
          6.93670626e-03 6.13359202e-03 5.54626298e-03 5.07147360e-03 
        </DataArray>
        <DataArray type="Float64" Name="rhov">
          -6.69469846e-04 -5.96130338e-04 -4.94020422e-04 -3.68120475e-04 
        </DataArray>
        <DataArray type="Float64" Name="E">
          2.13841887e+05 2.12477140e+05 2.11260967e+05 2.10178924e+05 
        </DataArray>
      </PointData>
    </Piece>
    <Piece NumberOfPoints="4" NumberOfCells="3">
      <Points>
        <DataArray type="Float64" NumberOfComponents="3" format="ascii">
          1.58592433e-01 -5.42296544e-02 0.00000000e+00 
1.68979734e-01 -5.51457107e-02 0.00000000e+00 
1.79375216e-01 -5.59638515e-02 0.00000000e+00 
1.89777538e-01 -5.66898957e-02 0.00000000e+00 

        </DataArray>
      </Points>
      <Cells>
        <DataArray type="Int32" Name="connectivity" format="ascii">
0 1
1 2
2 3

        </DataArray>
        <DataArray type="Int32" Name="offsets" format="ascii">
2 4 6 
        </DataArray>
        <DataArray type="UInt8" Name="types" format="ascii">
3 3 3 
        </DataArray>
      </Cells>
      <PointData>
        <DataArray type="Float64" Name="rho">
          9.61506463e-01 9.53446373e-01 9.46210429e-01 9.39748215e-01 
        </DataArray>
        <DataArray type="Float64" Name="rhou">
          1.00024211e-02 8.92587627e-03 7.97378726e-03 7.00801502e-03 
        </DataArray>
        <DataArray type="Float64" Name="rhov">
          -1.43269374e-03 -1.23733127e-03 -9.02188374e-04 -6.29067880e-04 
        </DataArray>
        <DataArray type="Float64" Name="E">
          2.19007737e+05 2.17092525e+05 2.15374791e+05 2.13841987e+05 
        </DataArray>
      </PointData>
    </Piece>
    <Piece NumberOfPoints="4" NumberOfCells="3">
      <Points>
        <DataArray type="Float64" NumberOfComponents="3" format="ascii">
          1.27497971e-01 -5.08146733e-02 0.00000000e+00 
1.37849152e-01 -5.20747155e-02 0.00000000e+00 
1.48214847e-01 -5.32093942e-02 0.00000000e+00 
1.58592433e-01 -5.42296544e-02 0.00000000e+00 

        </DataArray>
      </Points>
      <Cells>
        <DataArray type="Int32" Name="connectivity" format="ascii">
0 1
1 2
2 3

        </DataArray>
        <DataArray type="Int32" Name="offsets" format="ascii">
2 4 6 
        </DataArray>
        <DataArray type="UInt8" Name="types" format="ascii">
3 3 3 
        </DataArray>
      </Cells>
      <PointData>
        <DataArray type="Float64" Name="rho">
          9.91985705e-01 9.80645029e-01 9.70506172e-01 9.61510522e-01 
        </DataArray>
        <DataArray type="Float64" Name="rhou">
          1.45388971e-02 1.33614332e-02 1.15536244e-02 1.00308250e-02 
        </DataArray>
        <DataArray type="Float64" Name="rhov">
          -2.31773686e-03 -2.06754604e-03 -1.44813637e-03 -1.36104302e-03 
        </DataArray>
        <DataArray type="Float64" Name="E">
          2.26262343e+05 2.23560632e+05 2.21147936e+05 2.19008668e+05 
        </DataArray>
      </PointData>
    </Piece>
    <Piece NumberOfPoints="4" NumberOfCells="3">
      <Points>
        <DataArray type="Float64" NumberOfComponents="3" format="ascii">
          9.65642184e-02 -4.61716652e-02 0.00000000e+00 
1.06852271e-01 -4.78802323e-02 0.00000000e+00 
1.17164567e-01 -4.94215861e-02 0.00000000e+00 
1.27497971e-01 -5.08146733e-02 0.00000000e+00 

        </DataArray>
      </Points>
      <Cells>
        <DataArray type="Int32" Name="connectivity" format="ascii">
0 1
1 2
2 3

        </DataArray>
        <DataArray type="Int32" Name="offsets" format="ascii">
2 4 6 
        </DataArray>
        <DataArray type="UInt8" Name="types" format="ascii">
3 3 3 
        </DataArray>
      </Cells>
      <PointData>
        <DataArray type="Float64" Name="rho">
          1.03530337e+00 1.01902601e+00 1.00461600e+00 9.91994086e-01 
        </DataArray>
        <DataArray type="Float64" Name="rhou">
          2.47148745e-02 1.81225089e-02 1.72157592e-02 1.28880812e-02 
        </DataArray>
        <DataArray type="Float64" Name="rhov">
          -9.33442402e-04 -7.55023180e-04 -1.58966584e-03 -1.63594012e-03 
        </DataArray>
        <DataArray type="Float64" Name="E">
          2.36607432e+05 2.32715451e+05 2.29275090e+05 2.26264365e+05 
        </DataArray>
      </PointData>
    </Piece>
  </UnstructuredGrid>
</VTKFile>
