<?xml version="1.0"?>
<VTKFile type="UnstructuredGrid" version="0.1" byte_order="LittleEndian">
  <UnstructuredGrid>
    <Piece NumberOfPoints="4" NumberOfCells="3">
      <Points>
        <DataArray type="Float64" NumberOfComponents="3" format="ascii">
          9.65642184e-02 -4.61716652e-02 0.00000000e+00 
9.26280916e-02 -4.54656407e-02 0.00000000e+00 
8.86965096e-02 -4.47326750e-02 0.00000000e+00 
8.47706869e-02 -4.39694971e-02 0.00000000e+00 

        </DataArray>
      </Points>
      <Cells>
        <DataArray type="Int32" Name="connectivity" format="ascii">
0 1
1 2
2 3

        </DataArray>
        <DataArray type="Int32" Name="offsets" format="ascii">
2 4 6 
        </DataArray>
        <DataArray type="UInt8" Name="types" format="ascii">
3 3 3 
        </DataArray>
      </Cells>
      <PointData>
        <DataArray type="Float64" Name="rho">
          1.06568722e+00 1.07233205e+00 1.07927806e+00 1.08665170e+00 
        </DataArray>
        <DataArray type="Float64" Name="rhou">
          2.80435159e-02 2.13746160e-02 2.40114229e-02 2.40604503e-02 
        </DataArray>
        <DataArray type="Float64" Name="rhov">
          -2.64025038e-03 -1.47099070e-03 -1.10009155e-03 -1.46815343e-03 
        </DataArray>
        <DataArray type="Float64" Name="E">
          2.44709232e+05 2.46312447e+05 2.47989573e+05 2.49769885e+05 
        </DataArray>
      </PointData>
    </Piece>
    <Piece NumberOfPoints="4" NumberOfCells="3">
      <Points>
        <DataArray type="Float64" NumberOfComponents="3" format="ascii">
          8.47706869e-02 -4.39694971e-02 0.00000000e+00 
8.08513016e-02 -4.31745499e-02 0.00000000e+00 
7.69388378e-02 -4.23462167e-02 0.00000000e+00 
7.30340332e-02 -4.14824970e-02 0.00000000e+00 

        </DataArray>
      </Points>
      <Cells>
        <DataArray type="Int32" Name="connectivity" format="ascii">
0 1
1 2
2 3

        </DataArray>
        <DataArray type="Int32" Name="offsets" format="ascii">
2 4 6 
        </DataArray>
        <DataArray type="UInt8" Name="types" format="ascii">
3 3 3 
        </DataArray>
      </Cells>
      <PointData>
        <DataArray type="Float64" Name="rho">
          1.08665065e+00 1.09443551e+00 1.10266559e+00 1.11141055e+00 
        </DataArray>
        <DataArray type="Float64" Name="rhou">
          2.41763020e-02 2.32801686e-02 2.17824183e-02 2.01293150e-02 
        </DataArray>
        <DataArray type="Float64" Name="rhov">
          -1.27434687e-03 -1.09111678e-03 -2.04116794e-04 9.62766196e-04 
        </DataArray>
        <DataArray type="Float64" Name="E">
          2.49769650e+05 2.51650769e+05 2.53640306e+05 2.55755064e+05 
        </DataArray>
      </PointData>
    </Piece>
    <Piece NumberOfPoints="4" NumberOfCells="3">
      <Points>
        <DataArray type="Float64" NumberOfComponents="3" format="ascii">
          7.30340332e-02 -4.14824970e-02 0.00000000e+00 
6.91377968e-02 -4.05809283e-02 0.00000000e+00 
6.52511865e-02 -3.96387354e-02 0.00000000e+00 
6.13753870e-02 -3.86530459e-02 0.00000000e+00 

        </DataArray>
      </Points>
      <Cells>
        <DataArray type="Int32" Name="connectivity" format="ascii">
0 1
1 2
2 3

        </DataArray>
        <DataArray type="Int32" Name="offsets" format="ascii">
2 4 6 
        </DataArray>
        <DataArray type="UInt8" Name="types" format="ascii">
3 3 3 
        </DataArray>
      </Cells>
      <PointData>
        <DataArray type="Float64" Name="rho">
          1.11141110e+00 1.12075177e+00 1.13072107e+00 1.14137823e+00 
        </DataArray>
        <DataArray type="Float64" Name="rhou">
          2.02376750e-02 1.78007573e-02 1.36113053e-02 7.98579412e-03 
        </DataArray>
        <DataArray type="Float64" Name="rhov">
          7.97783051e-04 1.54727165e-03 3.63458895e-03 6.82715151e-03 
        </DataArray>
        <DataArray type="Float64" Name="E">
          2.55755214e+05 2.58015730e+05 2.60429539e+05 2.63011619e+05 
        </DataArray>
      </PointData>
    </Piece>
    <Piece NumberOfPoints="4" NumberOfCells="3">
      <Points>
        <DataArray type="Float64" NumberOfComponents="3" format="ascii">
          6.13753870e-02 -3.86530459e-02 0.00000000e+00 
5.75117208e-02 -3.76208089e-02 0.00000000e+00 
5.36618084e-02 -3.65384258e-02 0.00000000e+00 
4.98276278e-02 -3.54015976e-02 0.00000000e+00 

        </DataArray>
      </Points>
      <Cells>
        <DataArray type="Int32" Name="connectivity" format="ascii">
0 1
1 2
2 3

        </DataArray>
        <DataArray type="Int32" Name="offsets" format="ascii">
2 4 6 
        </DataArray>
        <DataArray type="UInt8" Name="types" format="ascii">
3 3 3 
        </DataArray>
      </Cells>
      <PointData>
        <DataArray type="Float64" Name="rho">
          1.14137848e+00 1.15280357e+00 1.16508214e+00 1.17834446e+00 
        </DataArray>
        <DataArray type="Float64" Name="rhou">
          7.92498772e-03 8.00104428e-04 -8.47073299e-03 -2.00832821e-02 
        </DataArray>
        <DataArray type="Float64" Name="rhov">
          6.59737888e-03 1.13450425e-02 1.94713307e-02 3.09888991e-02 
        </DataArray>
        <DataArray type="Float64" Name="E">
          2.63011680e+05 2.65783198e+05 2.68763844e+05 2.71985993e+05 
        </DataArray>
      </PointData>
    </Piece>
    <Piece NumberOfPoints="4" NumberOfCells="3">
      <Points>
        <DataArray type="Float64" NumberOfComponents="3" format="ascii">
          4.98276278e-02 -3.54015976e-02 0.00000000e+00 
4.60115410e-02 -3.42054628e-02 0.00000000e+00 
4.22164090e-02 -3.29444520e-02 0.00000000e+00 
3.84457745e-02 -3.16120051e-02 0.00000000e+00 

        </DataArray>
      </Points>
      <Cells>
        <DataArray type="Int32" Name="connectivity" format="ascii">
0 1
1 2
2 3

        </DataArray>
        <DataArray type="Int32" Name="offsets" format="ascii">
2 4 6 
        </DataArray>
        <DataArray type="UInt8" Name="types" format="ascii">
3 3 3 
        </DataArray>
      </Cells>
      <PointData>
        <DataArray type="Float64" Name="rho">
          1.17834434e+00 1.19268736e+00 1.20822473e+00 1.22514574e+00 
        </DataArray>
        <DataArray type="Float64" Name="rhou">
          -2.05497995e-02 -3.46614178e-02 -5.35998488e-02 -7.62816884e-02 
        </DataArray>
        <DataArray type="Float64" Name="rhov">
          3.07747294e-02 4.75295822e-02 7.52940930e-02 1.15896021e-01 
        </DataArray>
        <DataArray type="Float64" Name="E">
          2.71985932e+05 2.75476484e+05 2.79261822e+05 2.83389852e+05 
        </DataArray>
      </PointData>
    </Piece>
    <Piece NumberOfPoints="4" NumberOfCells="3">
      <Points>
        <DataArray type="Float64" NumberOfComponents="3" format="ascii">
          3.84457745e-02 -3.16120051e-02 0.00000000e+00 
3.47041376e-02 -3.02002355e-02 0.00000000e+00 
3.09973080e-02 -2.86995135e-02 0.00000000e+00 
2.73328498e-02 -2.70981900e-02 0.00000000e+00 

        </DataArray>
      </Points>
      <Cells>
        <DataArray type="Int32" Name="connectivity" format="ascii">
0 1
1 2
2 3

        </DataArray>
        <DataArray type="Int32" Name="offsets" format="ascii">
2 4 6 
        </DataArray>
        <DataArray type="UInt8" Name="types" format="ascii">
3 3 3 
        </DataArray>
      </Cells>
      <PointData>
        <DataArray type="Float64" Name="rho">
          1.22514588e+00 1.24363665e+00 1.26389175e+00 1.28627715e+00 
        </DataArray>
        <DataArray type="Float64" Name="rhou">
          -7.72477783e-02 -1.01096769e-01 -1.29393044e-01 -1.54451227e-01 
        </DataArray>
        <DataArray type="Float64" Name="rhov">
          1.15809391e-01 1.71520511e-01 2.57736953e-01 3.78523346e-01 
        </DataArray>
        <DataArray type="Float64" Name="E">
          2.83389752e+05 2.87911686e+05 2.92872779e+05 2.98366212e+05 
        </DataArray>
      </PointData>
    </Piece>
    <Piece NumberOfPoints="4" NumberOfCells="3">
      <Points>
        <DataArray type="Float64" NumberOfComponents="3" format="ascii">
          2.73328498e-02 -2.70981900e-02 0.00000000e+00 
2.37206947e-02 -2.53822580e-02 0.00000000e+00 
2.01744195e-02 -2.35341713e-02 0.00000000e+00 
1.67132635e-02 -2.15314496e-02 0.00000000e+00 

        </DataArray>
      </Points>
      <Cells>
        <DataArray type="Int32" Name="connectivity" format="ascii">
0 1
1 2
2 3

        </DataArray>
        <DataArray type="Int32" Name="offsets" format="ascii">
2 4 6 
        </DataArray>
        <DataArray type="UInt8" Name="types" format="ascii">
3 3 3 
        </DataArray>
      </Cells>
      <PointData>
        <DataArray type="Float64" Name="rho">
          1.28628214e+00 1.31113375e+00 1.33891094e+00 1.37092418e+00 
        </DataArray>
        <DataArray type="Float64" Name="rhou">
          -1.54906537e-01 -1.68062570e-01 -1.51617960e-01 -5.47540721e-02 
        </DataArray>
        <DataArray type="Float64" Name="rhov">
          3.79252325e-01 5.31573020e-01 7.43567704e-01 9.64067109e-01 
        </DataArray>
        <DataArray type="Float64" Name="E">
          2.98367149e+05 3.04486832e+05 3.11338416e+05 3.19243786e+05 
        </DataArray>
      </PointData>
    </Piece>
    <Piece NumberOfPoints="4" NumberOfCells="3">
      <Points>
        <DataArray type="Float64" NumberOfComponents="3" format="ascii">
          1.67132635e-02 -2.15314496e-02 0.00000000e+00 
1.33649679e-02 -1.93456318e-02 0.00000000e+00 
1.01706637e-02 -1.69409402e-02 0.00000000e+00 
7.19343964e-03 -1.42731192e-02 0.00000000e+00 

        </DataArray>
      </Points>
      <Cells>
        <DataArray type="Int32" Name="connectivity" format="ascii">
0 1
1 2
2 3

        </DataArray>
        <DataArray type="Int32" Name="offsets" format="ascii">
2 4 6 
        </DataArray>
        <DataArray type="UInt8" Name="types" format="ascii">
3 3 3 
        </DataArray>
      </Cells>
      <PointData>
        <DataArray type="Float64" Name="rho">
          1.37081698e+00 1.40981511e+00 1.45612222e+00 1.52014472e+00 
        </DataArray>
        <DataArray type="Float64" Name="rhou">
          -3.20233856e-02 1.17630096e-01 4.60332988e-01 8.83246318e-01 
        </DataArray>
        <DataArray type="Float64" Name="rhov">
          9.25563508e-01 1.13102661e+00 1.08009317e+00 5.33773770e-01 
        </DataArray>
        <DataArray type="Float64" Name="E">
          3.19219148e+05 3.28850530e+05 3.40278331e+05 3.55961165e+05 
        </DataArray>
      </PointData>
    </Piece>
    <Piece NumberOfPoints="4" NumberOfCells="3">
      <Points>
        <DataArray type="Float64" NumberOfComponents="3" format="ascii">
          7.19343964e-03 -1.42731192e-02 0.00000000e+00 
4.53082798e-03 -1.12927537e-02 0.00000000e+00 
2.33371323e-03 -7.95678515e-03 0.00000000e+00 
8.10639584e-04 -4.26717056e-03 0.00000000e+00 

        </DataArray>
      </Points>
      <Cells>
        <DataArray type="Int32" Name="connectivity" format="ascii">
0 1
1 2
2 3

        </DataArray>
        <DataArray type="Int32" Name="offsets" format="ascii">
2 4 6 
        </DataArray>
        <DataArray type="UInt8" Name="types" format="ascii">
3 3 3 
        </DataArray>
      </Cells>
      <PointData>
        <DataArray type="Float64" Name="rho">
          1.52066303e+00 1.59419400e+00 1.68257830e+00 1.75133307e+00 
        </DataArray>
        <DataArray type="Float64" Name="rhou">
          8.08596971e-01 9.41392519e-01 2.71239344e-01 -1.26674620e+00 
        </DataArray>
        <DataArray type="Float64" Name="rhov">
          6.31442024e-01 -4.98301560e-01 -1.72629074e+00 -1.83326903e+00 
        </DataArray>
        <DataArray type="Float64" Name="E">
          3.56088735e+05 3.74133649e+05 3.95700118e+05 4.12499837e+05 
        </DataArray>
      </PointData>
    </Piece>
    <Piece NumberOfPoints="4" NumberOfCells="3">
      <Points>
        <DataArray type="Float64" NumberOfComponents="3" format="ascii">
          8.10639584e-04 -4.26717056e-03 0.00000000e+00 
1.91366620e-04 -3.27450951e-04 0.00000000e+00 
6.40850572e-04 3.63462302e-03 0.00000000e+00 
2.03182548e-03 7.37539819e-03 0.00000000e+00 

        </DataArray>
      </Points>
      <Cells>
        <DataArray type="Int32" Name="connectivity" format="ascii">
0 1
1 2
2 3

        </DataArray>
        <DataArray type="Int32" Name="offsets" format="ascii">
2 4 6 
        </DataArray>
        <DataArray type="UInt8" Name="types" format="ascii">
3 3 3 
        </DataArray>
      </Cells>
      <PointData>
        <DataArray type="Float64" Name="rho">
          1.74976720e+00 1.77560717e+00 1.72721377e+00 1.63676655e+00 
        </DataArray>
        <DataArray type="Float64" Name="rhou">
          -1.14112968e+00 -1.89109785e+00 -8.61231601e-01 7.36074527e-01 
        </DataArray>
        <DataArray type="Float64" Name="rhov">
          -1.98656623e+00 3.36084689e-01 1.87316793e+00 1.53776092e+00 
        </DataArray>
        <DataArray type="Float64" Name="E">
          4.12118845e+05 4.18346320e+05 4.06457811e+05 3.84256560e+05 
        </DataArray>
      </PointData>
    </Piece>
    <Piece NumberOfPoints="4" NumberOfCells="3">
      <Points>
        <DataArray type="Float64" NumberOfComponents="3" format="ascii">
          2.03182548e-03 7.37539819e-03 0.00000000e+00 
4.13410179e-03 1.07714310e-02 0.00000000e+00 
6.73249783e-03 1.38076087e-02 0.00000000e+00 
9.66598373e-03 1.65232457e-02 0.00000000e+00 

        </DataArray>
      </Points>
      <Cells>
        <DataArray type="Int32" Name="connectivity" format="ascii">
0 1
1 2
2 3

        </DataArray>
        <DataArray type="Int32" Name="offsets" format="ascii">
2 4 6 
        </DataArray>
        <DataArray type="UInt8" Name="types" format="ascii">
3 3 3 
        </DataArray>
      </Cells>
      <PointData>
        <DataArray type="Float64" Name="rho">
          1.63714902e+00 1.53214669e+00 1.44448197e+00 1.37875982e+00 
        </DataArray>
        <DataArray type="Float64" Name="rhou">
          7.06578335e-01 1.15775879e+00 8.56376927e-01 3.94069164e-01 
        </DataArray>
        <DataArray type="Float64" Name="rhov">
          1.76768285e+00 9.00100031e-02 -1.05486862e+00 -1.39341256e+00 
        </DataArray>
        <DataArray type="Float64" Name="E">
          3.84352985e+05 3.58726409e+05 3.37291627e+05 3.21138144e+05 
        </DataArray>
      </PointData>
    </Piece>
    <Piece NumberOfPoints="4" NumberOfCells="3">
      <Points>
        <DataArray type="Float64" NumberOfComponents="3" format="ascii">
          9.66598373e-03 1.65232457e-02 0.00000000e+00 
1.28298048e-02 1.89677756e-02 0.00000000e+00 
1.61561389e-02 2.11867876e-02 0.00000000e+00 
1.96009967e-02 2.32173651e-02 0.00000000e+00 

        </DataArray>
      </Points>
      <Cells>
        <DataArray type="Int32" Name="connectivity" format="ascii">
0 1
1 2
2 3

        </DataArray>
        <DataArray type="Int32" Name="offsets" format="ascii">
2 4 6 
        </DataArray>
        <DataArray type="UInt8" Name="types" format="ascii">
3 3 3 
        </DataArray>
      </Cells>
      <PointData>
        <DataArray type="Float64" Name="rho">
          1.37855521e+00 1.32715498e+00 1.28902417e+00 1.25550881e+00 
        </DataArray>
        <DataArray type="Float64" Name="rhou">
          4.03755758e-01 -1.35297342e-03 -1.88781220e-01 -2.14180042e-01 
        </DataArray>
        <DataArray type="Float64" Name="rhov">
          -1.41750755e+00 -1.32167482e+00 -9.96919512e-01 -6.73953007e-01 
        </DataArray>
        <DataArray type="Float64" Name="E">
          3.21085913e+05 3.08449870e+05 2.99024353e+05 2.90763277e+05 
        </DataArray>
      </PointData>
    </Piece>
    <Piece NumberOfPoints="4" NumberOfCells="3">
      <Points>
        <DataArray type="Float64" NumberOfComponents="3" format="ascii">
          1.96009967e-02 2.32173651e-02 0.00000000e+00 
2.31348258e-02 2.50891000e-02 0.00000000e+00 
2.67372411e-02 2.68253610e-02 0.00000000e+00 
3.03938854e-02 2.84444261e-02 0.00000000e+00 

        </DataArray>
      </Points>
      <Cells>
        <DataArray type="Int32" Name="connectivity" format="ascii">
0 1
1 2
2 3

        </DataArray>
        <DataArray type="Int32" Name="offsets" format="ascii">
2 4 6 
        </DataArray>
        <DataArray type="UInt8" Name="types" format="ascii">
3 3 3 
        </DataArray>
      </Cells>
      <PointData>
        <DataArray type="Float64" Name="rho">
          1.25557332e+00 1.22717397e+00 1.20179996e+00 1.17884537e+00 
        </DataArray>
        <DataArray type="Float64" Name="rhou">
          -2.27380897e-01 -2.17564659e-01 -1.74805514e-01 -1.34147472e-01 
        </DataArray>
        <DataArray type="Float64" Name="rhov">
          -6.92461652e-01 -4.41567746e-01 -2.54204803e-01 -1.40513384e-01 
        </DataArray>
        <DataArray type="Float64" Name="E">
          2.90778442e+05 2.83795746e+05 2.77578141e+05 2.71968896e+05 
        </DataArray>
      </PointData>
    </Piece>
    <Piece NumberOfPoints="4" NumberOfCells="3">
      <Points>
        <DataArray type="Float64" NumberOfComponents="3" format="ascii">
          3.03938854e-02 2.84444261e-02 0.00000000e+00 
3.40943485e-02 2.99607720e-02 0.00000000e+00 
3.78307216e-02 3.13864015e-02 0.00000000e+00 
4.15969416e-02 3.27312648e-02 0.00000000e+00 

        </DataArray>
      </Points>
      <Cells>
        <DataArray type="Int32" Name="connectivity" format="ascii">
0 1
1 2
2 3

        </DataArray>
        <DataArray type="Int32" Name="offsets" format="ascii">
2 4 6 
        </DataArray>
        <DataArray type="UInt8" Name="types" format="ascii">
3 3 3 
        </DataArray>
      </Cells>
      <PointData>
        <DataArray type="Float64" Name="rho">
          1.17884341e+00 1.15808038e+00 1.13923593e+00 1.12206538e+00 
        </DataArray>
        <DataArray type="Float64" Name="rhou">
          -1.32309818e-01 -9.27792804e-02 -6.02882891e-02 -3.73031106e-02 
        </DataArray>
        <DataArray type="Float64" Name="rhov">
          -1.39039761e-01 -6.15965028e-02 -1.33190788e-02 1.31013824e-02 
        </DataArray>
        <DataArray type="Float64" Name="E">
          2.71968688e+05 2.66912533e+05 2.62333698e+05 2.58168363e+05 
        </DataArray>
      </PointData>
    </Piece>
    <Piece NumberOfPoints="4" NumberOfCells="3">
      <Points>
        <DataArray type="Float64" NumberOfComponents="3" format="ascii">
          4.15969416e-02 3.27312648e-02 0.00000000e+00 
4.53883260e-02 3.40034962e-02 0.00000000e+00 
4.92011942e-02 3.52098532e-02 0.00000000e+00 
5.30325845e-02 3.63560505e-02 0.00000000e+00 

        </DataArray>
      </Points>
      <Cells>
        <DataArray type="Int32" Name="connectivity" format="ascii">
0 1
1 2
2 3

        </DataArray>
        <DataArray type="Int32" Name="offsets" format="ascii">
2 4 6 
        </DataArray>
        <DataArray type="UInt8" Name="types" format="ascii">
3 3 3 
        </DataArray>
      </Cells>
      <PointData>
        <DataArray type="Float64" Name="rho">
          1.12206598e+00 1.10637524e+00 1.09198716e+00 1.07874261e+00 
        </DataArray>
        <DataArray type="Float64" Name="rhou">
          -3.61382703e-02 -1.64085172e-02 -1.67518603e-03 8.07147498e-03 
        </DataArray>
        <DataArray type="Float64" Name="rhov">
          1.30152738e-02 2.76148044e-02 3.50367298e-02 3.68199928e-02 
        </DataArray>
        <DataArray type="Float64" Name="E">
          2.58168583e+05 2.54369949e+05 2.50891329e+05 2.47692517e+05 
        </DataArray>
      </PointData>
    </Piece>
    <Piece NumberOfPoints="4" NumberOfCells="3">
      <Points>
        <DataArray type="Float64" NumberOfComponents="3" format="ascii">
          5.30325845e-02 3.63560505e-02 0.00000000e+00 
5.68800643e-02 3.74470428e-02 0.00000000e+00 
6.07415959e-02 3.84872220e-02 0.00000000e+00 
6.46155030e-02 3.94803248e-02 0.00000000e+00 

        </DataArray>
      </Points>
      <Cells>
        <DataArray type="Int32" Name="connectivity" format="ascii">
0 1
1 2
2 3

        </DataArray>
        <DataArray type="Int32" Name="offsets" format="ascii">
2 4 6 
        </DataArray>
        <DataArray type="UInt8" Name="types" format="ascii">
3 3 3 
        </DataArray>
      </Cells>
      <PointData>
        <DataArray type="Float64" Name="rho">
          1.07874335e+00 1.06655000e+00 1.05528370e+00 1.04480376e+00 
        </DataArray>
        <DataArray type="Float64" Name="rhou">
          8.41709287e-03 1.58038113e-02 2.16954557e-02 2.59015684e-02 
        </DataArray>
        <DataArray type="Float64" Name="rhov">
          3.65035217e-02 3.53395149e-02 3.37137789e-02 3.08428085e-02 
        </DataArray>
        <DataArray type="Float64" Name="E">
          2.47692688e+05 2.44751295e+05 2.42035615e+05 2.39511349e+05 
        </DataArray>
      </PointData>
    </Piece>
    <Piece NumberOfPoints="4" NumberOfCells="3">
      <Points>
        <DataArray type="Float64" NumberOfComponents="3" format="ascii">
          6.46155030e-02 3.94803248e-02 0.00000000e+00 
6.85004294e-02 4.04294394e-02 0.00000000e+00 
7.23951608e-02 4.13374715e-02 0.00000000e+00 
7.62986317e-02 4.22072113e-02 0.00000000e+00 

        </DataArray>
      </Points>
      <Cells>
        <DataArray type="Int32" Name="connectivity" format="ascii">
0 1
1 2
2 3

        </DataArray>
        <DataArray type="Int32" Name="offsets" format="ascii">
2 4 6 
        </DataArray>
        <DataArray type="UInt8" Name="types" format="ascii">
3 3 3 
        </DataArray>
      </Cells>
      <PointData>
        <DataArray type="Float64" Name="rho">
          1.04480450e+00 1.03506713e+00 1.02598812e+00 1.01751125e+00 
        </DataArray>
        <DataArray type="Float64" Name="rhou">
          2.57311801e-02 2.80041751e-02 2.93815981e-02 2.97419816e-02 
        </DataArray>
        <DataArray type="Float64" Name="rhov">
          3.05448611e-02 2.68921213e-02 2.37376035e-02 2.06171838e-02 
        </DataArray>
        <DataArray type="Float64" Name="E">
          2.39511504e+05 2.37168097e+05 2.34984325e+05 2.32946057e+05 
        </DataArray>
      </PointData>
    </Piece>
    <Piece NumberOfPoints="4" NumberOfCells="3">
      <Points>
        <DataArray type="Float64" NumberOfComponents="3" format="ascii">
          7.62986317e-02 4.22072113e-02 0.00000000e+00 
8.02098960e-02 4.30411920e-02 0.00000000e+00 
8.41281936e-02 4.38414887e-02 0.00000000e+00 
8.80528912e-02 4.46097627e-02 0.00000000e+00 

        </DataArray>
      </Points>
      <Cells>
        <DataArray type="Int32" Name="connectivity" format="ascii">
0 1
1 2
2 3

        </DataArray>
        <DataArray type="Int32" Name="offsets" format="ascii">
2 4 6 
        </DataArray>
        <DataArray type="UInt8" Name="types" format="ascii">
3 3 3 
        </DataArray>
      </Cells>
      <PointData>
        <DataArray type="Float64" Name="rho">
          1.01751038e+00 1.00958800e+00 1.00212966e+00 9.95088430e-01 
        </DataArray>
        <DataArray type="Float64" Name="rhou">
          2.96103205e-02 2.98501298e-02 2.97899440e-02 2.88982268e-02 
        </DataArray>
        <DataArray type="Float64" Name="rhov">
          2.04555605e-02 1.80317983e-02 1.56364507e-02 1.30383137e-02 
        </DataArray>
        <DataArray type="Float64" Name="E">
          2.32945836e+05 2.31041837e+05 2.29250082e+05 2.27559164e+05 
        </DataArray>
      </PointData>
    </Piece>
    <Piece NumberOfPoints="4" NumberOfCells="3">
      <Points>
        <DataArray type="Float64" NumberOfComponents="3" format="ascii">
          8.80528912e-02 4.46097627e-02 0.00000000e+00 
9.19835642e-02 4.53475714e-02 0.00000000e+00 
9.59195644e-02 4.60564308e-02 0.00000000e+00 
9.98597518e-02 4.67394181e-02 0.00000000e+00 

        </DataArray>
      </Points>
      <Cells>
        <DataArray type="Int32" Name="connectivity" format="ascii">
0 1
1 2
2 3

        </DataArray>
        <DataArray type="Int32" Name="offsets" format="ascii">
2 4 6 
        </DataArray>
        <DataArray type="UInt8" Name="types" format="ascii">
3 3 3 
        </DataArray>
      </Cells>
      <PointData>
        <DataArray type="Float64" Name="rho">
          9.95088787e-01 9.88455976e-01 9.82217339e-01 9.76278680e-01 
        </DataArray>
        <DataArray type="Float64" Name="rhou">
          2.86755430e-02 2.74479660e-02 2.40077823e-02 2.88137204e-02 
        </DataArray>
        <DataArray type="Float64" Name="rhov">
          1.32019964e-02 1.06791637e-02 9.15355296e-03 8.72364596e-03 
        </DataArray>
        <DataArray type="Float64" Name="E">
          2.27559247e+05 2.25967114e+05 2.24469506e+05 2.23044489e+05 
        </DataArray>
      </PointData>
    </Piece>
    <Piece NumberOfPoints="4" NumberOfCells="3">
      <Points>
        <DataArray type="Float64" NumberOfComponents="3" format="ascii">
          9.98597518e-02 4.67394181e-02 0.00000000e+00 
1.10118888e-01 4.83862534e-02 0.00000000e+00 
1.20400399e-01 4.98730615e-02 0.00000000e+00 
1.30701363e-01 5.12186773e-02 0.00000000e+00 

        </DataArray>
      </Points>
      <Cells>
        <DataArray type="Int32" Name="connectivity" format="ascii">
0 1
1 2
2 3

        </DataArray>
        <DataArray type="Int32" Name="offsets" format="ascii">
2 4 6 
        </DataArray>
        <DataArray type="UInt8" Name="types" format="ascii">
3 3 3 
        </DataArray>
      </Cells>
      <PointData>
        <DataArray type="Float64" Name="rho">
          9.76204600e-01 9.62246457e-01 9.50047705e-01 9.39387157e-01 
        </DataArray>
        <DataArray type="Float64" Name="rhou">
          2.65303798e-02 1.84146236e-02 1.64078311e-02 1.29671343e-02 
        </DataArray>
        <DataArray type="Float64" Name="rhov">
          7.44530417e-03 4.24442525e-03 3.77738212e-03 3.09772906e-03 
        </DataArray>
        <DataArray type="Float64" Name="E">
          2.23027665e+05 2.19679973e+05 2.16754679e+05 2.14197812e+05 
        </DataArray>
      </PointData>
    </Piece>
    <Piece NumberOfPoints="4" NumberOfCells="3">
      <Points>
        <DataArray type="Float64" NumberOfComponents="3" format="ascii">
          1.30701363e-01 5.12186773e-02 0.00000000e+00 
1.41019106e-01 5.24347536e-02 0.00000000e+00 
1.51350453e-01 5.35292812e-02 0.00000000e+00 
1.61692888e-01 5.45137413e-02 0.00000000e+00 

        </DataArray>
      </Points>
      <Cells>
        <DataArray type="Int32" Name="connectivity" format="ascii">
0 1
1 2
2 3

        </DataArray>
        <DataArray type="Int32" Name="offsets" format="ascii">
2 4 6 
        </DataArray>
        <DataArray type="UInt8" Name="types" format="ascii">
3 3 3 
        </DataArray>
      </Cells>
      <PointData>
        <DataArray type="Float64" Name="rho">
          9.39383545e-01 9.29839909e-01 9.21395702e-01 9.13948740e-01 
        </DataArray>
        <DataArray type="Float64" Name="rhou">
          1.44007758e-02 1.25431727e-02 1.04646060e-02 9.20395686e-03 
        </DataArray>
        <DataArray type="Float64" Name="rhov">
          3.61863578e-03 2.64269576e-03 1.81475386e-03 1.61389358e-03 
        </DataArray>
        <DataArray type="Float64" Name="E">
          2.14196939e+05 2.11908747e+05 2.09883686e+05 2.08096508e+05 
        </DataArray>
      </PointData>
    </Piece>
    <Piece NumberOfPoints="4" NumberOfCells="3">
      <Points>
        <DataArray type="Float64" NumberOfComponents="3" format="ascii">
          1.61692888e-01 5.45137413e-02 0.00000000e+00 
1.72044471e-01 5.53969070e-02 0.00000000e+00 
1.82403773e-01 5.61845005e-02 0.00000000e+00 
1.92769483e-01 5.68825118e-02 0.00000000e+00 

        </DataArray>
      </Points>
      <Cells>
        <DataArray type="Int32" Name="connectivity" format="ascii">
0 1
1 2
2 3

        </DataArray>
        <DataArray type="Int32" Name="offsets" format="ascii">
2 4 6 
        </DataArray>
        <DataArray type="UInt8" Name="types" format="ascii">
3 3 3 
        </DataArray>
      </Cells>
      <PointData>
        <DataArray type="Float64" Name="rho">
          9.13946272e-01 9.07308556e-01 9.01397325e-01 8.96169435e-01 
        </DataArray>
        <DataArray type="Float64" Name="rhou">
          9.24130423e-03 8.10578782e-03 7.05197022e-03 6.12424419e-03 
        </DataArray>
        <DataArray type="Float64" Name="rhov">
          1.66710048e-03 1.27115379e-03 8.52399721e-04 5.91759389e-04 
        </DataArray>
        <DataArray type="Float64" Name="E">
          2.08095951e+05 2.06502184e+05 2.05082083e+05 2.03824941e+05 
        </DataArray>
      </PointData>
    </Piece>
    <Piece NumberOfPoints="4" NumberOfCells="3">
      <Points>
        <DataArray type="Float64" NumberOfComponents="3" format="ascii">
          1.92769483e-01 5.68825118e-02 0.00000000e+00 
2.03140482e-01 5.74972220e-02 0.00000000e+00 
2.13515818e-01 5.80338500e-02 0.00000000e+00 
2.23894730e-01 5.84962890e-02 0.00000000e+00 

        </DataArray>
      </Points>
      <Cells>
        <DataArray type="Int32" Name="connectivity" format="ascii">
0 1
1 2
2 3

        </DataArray>
        <DataArray type="Int32" Name="offsets" format="ascii">
2 4 6 
        </DataArray>
        <DataArray type="UInt8" Name="types" format="ascii">
3 3 3 
        </DataArray>
      </Cells>
      <PointData>
        <DataArray type="Float64" Name="rho">
          8.96168734e-01 8.91554152e-01 8.87478339e-01 8.83893277e-01 
        </DataArray>
        <DataArray type="Float64" Name="rhou">
          6.16274532e-03 5.41486016e-03 4.83575830e-03 4.35424921e-03 
        </DataArray>
        <DataArray type="Float64" Name="rhov">
          6.34931733e-04 5.32770830e-04 3.98354952e-04 2.55114577e-04 
        </DataArray>
        <DataArray type="Float64" Name="E">
          2.03824779e+05 2.02713756e+05 2.01731278e+05 2.00865902e+05 
        </DataArray>
      </PointData>
    </Piece>
    <Piece NumberOfPoints="4" NumberOfCells="3">
      <Points>
        <DataArray type="Float64" NumberOfComponents="3" format="ascii">
          2.23894730e-01 5.84962890e-02 0.00000000e+00 
2.34276548e-01 5.88882305e-02 0.00000000e+00 
2.44660646e-01 5.92139624e-02 0.00000000e+00 
2.55046517e-01 5.94772622e-02 0.00000000e+00 

        </DataArray>
      </Points>
      <Cells>
        <DataArray type="Int32" Name="connectivity" format="ascii">
0 1
1 2
2 3

        </DataArray>
        <DataArray type="Int32" Name="offsets" format="ascii">
2 4 6 
        </DataArray>
        <DataArray type="UInt8" Name="types" format="ascii">
3 3 3 
        </DataArray>
      </Cells>
      <PointData>
        <DataArray type="Float64" Name="rho">
          8.83893929e-01 8.80769129e-01 8.78071588e-01 8.75755984e-01 
        </DataArray>
        <DataArray type="Float64" Name="rhou">
          4.36211129e-03 3.80458308e-03 3.39999333e-03 3.15712586e-03 
        </DataArray>
        <DataArray type="Float64" Name="rhov">
          2.69536636e-04 1.83725704e-04 1.63212973e-04 1.59696559e-04 
        </DataArray>
        <DataArray type="Float64" Name="E">
          2.00866052e+05 2.00110385e+05 1.99456515e+05 1.98893766e+05 
        </DataArray>
      </PointData>
    </Piece>
    <Piece NumberOfPoints="4" NumberOfCells="3">
      <Points>
        <DataArray type="Float64" NumberOfComponents="3" format="ascii">
          2.55046517e-01 5.94772622e-02 0.00000000e+00 
2.65433758e-01 5.96804135e-02 0.00000000e+00 
2.75821954e-01 5.98256700e-02 0.00000000e+00 
2.86210775e-01 5.99167012e-02 0.00000000e+00 

        </DataArray>
      </Points>
      <Cells>
        <DataArray type="Int32" Name="connectivity" format="ascii">
0 1
1 2
2 3

        </DataArray>
        <DataArray type="Int32" Name="offsets" format="ascii">
2 4 6 
        </DataArray>
        <DataArray type="UInt8" Name="types" format="ascii">
3 3 3 
        </DataArray>
      </Cells>
      <PointData>
        <DataArray type="Float64" Name="rho">
          8.75756003e-01 8.73784621e-01 8.72144732e-01 8.70827814e-01 
        </DataArray>
        <DataArray type="Float64" Name="rhou">
          3.15056973e-03 2.83834792e-03 2.51549897e-03 2.22357147e-03 
        </DataArray>
        <DataArray type="Float64" Name="rhov">
          1.71623785e-04 6.91937369e-05 7.63248160e-06 5.02767950e-05 
        </DataArray>
        <DataArray type="Float64" Name="E">
          1.98893774e+05 1.98413302e+05 1.98012022e+05 1.97687715e+05 
        </DataArray>
      </PointData>
    </Piece>
    <Piece NumberOfPoints="4" NumberOfCells="3">
      <Points>
        <DataArray type="Float64" NumberOfComponents="3" format="ascii">
          2.86210775e-01 5.99167012e-02 0.00000000e+00 
2.96599895e-01 5.99572174e-02 0.00000000e+00 
3.06989133e-01 5.99487796e-02 0.00000000e+00 
3.17378193e-01 5.98919280e-02 0.00000000e+00 

        </DataArray>
      </Points>
      <Cells>
        <DataArray type="Int32" Name="connectivity" format="ascii">
0 1
1 2
2 3

        </DataArray>
        <DataArray type="Int32" Name="offsets" format="ascii">
2 4 6 
        </DataArray>
        <DataArray type="UInt8" Name="types" format="ascii">
3 3 3 
        </DataArray>
      </Cells>
      <PointData>
        <DataArray type="Float64" Name="rho">
          8.70826651e-01 8.69791908e-01 8.68999253e-01 8.68443703e-01 
        </DataArray>
        <DataArray type="Float64" Name="rhou">
          2.24516044e-03 2.12301674e-03 1.98745902e-03 1.78314636e-03 
        </DataArray>
        <DataArray type="Float64" Name="rhov">
          6.79440943e-05 1.10466668e-04 5.64287444e-05 -2.32394760e-05 
        </DataArray>
        <DataArray type="Float64" Name="E">
          1.97687449e+05 1.97430533e+05 1.97231772e+05 1.97089929e+05 
        </DataArray>
      </PointData>
    </Piece>
    <Piece NumberOfPoints="4" NumberOfCells="3">
      <Points>
        <DataArray type="Float64" NumberOfComponents="3" format="ascii">
          3.17378193e-01 5.98919280e-02 0.00000000e+00 
3.27766895e-01 5.97884916e-02 0.00000000e+00 
3.38155061e-01 5.96415885e-02 0.00000000e+00 
3.48542601e-01 5.94538599e-02 0.00000000e+00 

        </DataArray>
      </Points>
      <Cells>
        <DataArray type="Int32" Name="connectivity" format="ascii">
0 1
1 2
2 3

        </DataArray>
        <DataArray type="Int32" Name="offsets" format="ascii">
2 4 6 
        </DataArray>
        <DataArray type="UInt8" Name="types" format="ascii">
3 3 3 
        </DataArray>
      </Cells>
      <PointData>
        <DataArray type="Float64" Name="rho">
          8.68444132e-01 8.68123280e-01 8.68024977e-01 8.68120728e-01 
        </DataArray>
        <DataArray type="Float64" Name="rhou">
          1.81833070e-03 1.59528689e-03 1.46813419e-03 1.42267384e-03 
        </DataArray>
        <DataArray type="Float64" Name="rhov">
          -1.54542077e-05 -1.73735502e-05 2.53734931e-05 6.21272465e-05 
        </DataArray>
        <DataArray type="Float64" Name="E">
          1.97090025e+05 1.97004412e+05 1.96972082e+05 1.96986383e+05 
        </DataArray>
      </PointData>
    </Piece>
    <Piece NumberOfPoints="4" NumberOfCells="3">
      <Points>
        <DataArray type="Float64" NumberOfComponents="3" format="ascii">
          3.48542601e-01 5.94538599e-02 0.00000000e+00 
3.58929336e-01 5.92265576e-02 0.00000000e+00 
3.69315147e-01 5.89610897e-02 0.00000000e+00 
3.79699975e-01 5.86590059e-02 0.00000000e+00 

        </DataArray>
      </Points>
      <Cells>
        <DataArray type="Int32" Name="connectivity" format="ascii">
0 1
1 2
2 3

        </DataArray>
        <DataArray type="Int32" Name="offsets" format="ascii">
2 4 6 
        </DataArray>
        <DataArray type="UInt8" Name="types" format="ascii">
3 3 3 
        </DataArray>
      </Cells>
      <PointData>
        <DataArray type="Float64" Name="rho">
          8.68121028e-01 8.68389597e-01 8.68828222e-01 8.69420255e-01 
        </DataArray>
        <DataArray type="Float64" Name="rhou">
          1.44025171e-03 1.29916985e-03 1.19702421e-03 1.14924960e-03 
        </DataArray>
        <DataArray type="Float64" Name="rhov">
          5.80435464e-05 2.66008007e-05 2.98654524e-05 3.89489890e-05 
        </DataArray>
        <DataArray type="Float64" Name="E">
          1.96986452e+05 1.97042419e+05 1.97139303e+05 1.97273200e+05 
        </DataArray>
      </PointData>
    </Piece>
    <Piece NumberOfPoints="4" NumberOfCells="3">
      <Points>
        <DataArray type="Float64" NumberOfComponents="3" format="ascii">
          3.79699975e-01 5.86590059e-02 0.00000000e+00 
3.90083700e-01 5.83211333e-02 0.00000000e+00 
4.00466233e-01 5.79482466e-02 0.00000000e+00 
4.10847515e-01 5.75418957e-02 0.00000000e+00 

        </DataArray>
      </Points>
      <Cells>
        <DataArray type="Int32" Name="connectivity" format="ascii">
0 1
1 2
2 3

        </DataArray>
        <DataArray type="Int32" Name="offsets" format="ascii">
2 4 6 
        </DataArray>
        <DataArray type="UInt8" Name="types" format="ascii">
3 3 3 
        </DataArray>
      </Cells>
      <PointData>
        <DataArray type="Float64" Name="rho">
          8.69420272e-01 8.70151998e-01 8.71017544e-01 8.72014110e-01 
        </DataArray>
        <DataArray type="Float64" Name="rhou">
          1.14093405e-03 1.07153312e-03 9.84687891e-04 8.99380522e-04 
        </DataArray>
        <DataArray type="Float64" Name="rhov">
          4.14564892e-05 1.50964413e-05 -2.55423931e-06 1.45924225e-05 
        </DataArray>
        <DataArray type="Float64" Name="E">
          1.97273205e+05 1.97440897e+05 1.97640962e+05 1.97872653e+05 
        </DataArray>
      </PointData>
    </Piece>
    <Piece NumberOfPoints="4" NumberOfCells="3">
      <Points>
        <DataArray type="Float64" NumberOfComponents="3" format="ascii">
          4.10847515e-01 5.75418957e-02 0.00000000e+00 
4.21227485e-01 5.71038015e-02 0.00000000e+00 
4.31606144e-01 5.66351078e-02 0.00000000e+00 
4.41983402e-01 5.61364293e-02 0.00000000e+00 

        </DataArray>
      </Points>
      <Cells>
        <DataArray type="Int32" Name="connectivity" format="ascii">
0 1
1 2
2 3

        </DataArray>
        <DataArray type="Int32" Name="offsets" format="ascii">
2 4 6 
        </DataArray>
        <DataArray type="UInt8" Name="types" format="ascii">
3 3 3 
        </DataArray>
      </Cells>
      <PointData>
        <DataArray type="Float64" Name="rho">
          8.72013862e-01 8.73126589e-01 8.74344635e-01 8.75658815e-01 
        </DataArray>
        <DataArray type="Float64" Name="rhou">
          9.21459919e-04 8.67256948e-04 8.29419444e-04 7.91391002e-04 
        </DataArray>
        <DataArray type="Float64" Name="rhov">
          1.82863876e-05 2.97951357e-05 2.74271349e-05 8.68934350e-06 
        </DataArray>
        <DataArray type="Float64" Name="E">
          1.97872596e+05 1.98132418e+05 1.98417820e+05 1.98726632e+05 
        </DataArray>
      </PointData>
    </Piece>
    <Piece NumberOfPoints="4" NumberOfCells="3">
      <Points>
        <DataArray type="Float64" NumberOfComponents="3" format="ascii">
          4.41983402e-01 5.61364293e-02 0.00000000e+00 
4.52359200e-01 5.56085743e-02 0.00000000e+00 
4.62733537e-01 5.50529286e-02 0.00000000e+00 
4.73106444e-01 5.44707514e-02 0.00000000e+00 

        </DataArray>
      </Points>
      <Cells>
        <DataArray type="Int32" Name="connectivity" format="ascii">
0 1
1 2
2 3

        </DataArray>
        <DataArray type="Int32" Name="offsets" format="ascii">
2 4 6 
        </DataArray>
        <DataArray type="UInt8" Name="types" format="ascii">
3 3 3 
        </DataArray>
      </Cells>
      <PointData>
        <DataArray type="Float64" Name="rho">
          8.75659010e-01 8.77066589e-01 8.78561624e-01 8.80134506e-01 
        </DataArray>
        <DataArray type="Float64" Name="rhou">
          7.88125001e-04 7.24470452e-04 6.82580570e-04 6.61299351e-04 
        </DataArray>
        <DataArray type="Float64" Name="rhov">
          8.98634772e-06 7.80744817e-06 1.69598970e-05 2.48749891e-05 
        </DataArray>
        <DataArray type="Float64" Name="E">
          1.98726677e+05 1.99058194e+05 1.99410982e+05 1.99782776e+05 
        </DataArray>
      </PointData>
    </Piece>
    <Piece NumberOfPoints="4" NumberOfCells="3">
      <Points>
        <DataArray type="Float64" NumberOfComponents="3" format="ascii">
          4.73106444e-01 5.44707514e-02 0.00000000e+00 
4.83477861e-01 5.38627952e-02 0.00000000e+00 
4.93847787e-01 5.32294959e-02 0.00000000e+00 
5.04216135e-01 5.25716618e-02 0.00000000e+00 

        </DataArray>
      </Points>
      <Cells>
        <DataArray type="Int32" Name="connectivity" format="ascii">
0 1
1 2
2 3

        </DataArray>
        <DataArray type="Int32" Name="offsets" format="ascii">
2 4 6 
        </DataArray>
        <DataArray type="UInt8" Name="types" format="ascii">
3 3 3 
        </DataArray>
      </Cells>
      <PointData>
        <DataArray type="Float64" Name="rho">
          8.80134491e-01 8.81777431e-01 8.83484313e-01 8.85254187e-01 
        </DataArray>
        <DataArray type="Float64" Name="rhou">
          6.51658133e-04 6.32375463e-04 5.93513357e-04 5.44468724e-04 
        </DataArray>
        <DataArray type="Float64" Name="rhov">
          2.69281445e-05 1.84581479e-05 4.47929314e-06 6.66496192e-06 
        </DataArray>
        <DataArray type="Float64" Name="E">
          1.99782773e+05 2.00171734e+05 2.00576416e+05 2.00996541e+05 
        </DataArray>
      </PointData>
    </Piece>
    <Piece NumberOfPoints="4" NumberOfCells="3">
      <Points>
        <DataArray type="Float64" NumberOfComponents="3" format="ascii">
          5.04216135e-01 5.25716618e-02 0.00000000e+00 
5.14582992e-01 5.18903993e-02 0.00000000e+00 
5.24948359e-01 5.11864908e-02 0.00000000e+00 
5.35312176e-01 5.04603274e-02 0.00000000e+00 

        </DataArray>
      </Points>
      <Cells>
        <DataArray type="Int32" Name="connectivity" format="ascii">
0 1
1 2
2 3

        </DataArray>
        <DataArray type="Int32" Name="offsets" format="ascii">
2 4 6 
        </DataArray>
        <DataArray type="UInt8" Name="types" format="ascii">
3 3 3 
        </DataArray>
      </Cells>
      <PointData>
        <DataArray type="Float64" Name="rho">
          8.85254076e-01 8.87079948e-01 8.88955595e-01 8.90875796e-01 
        </DataArray>
        <DataArray type="Float64" Name="rhou">
          5.56303460e-04 5.28399417e-04 5.09099367e-04 4.88816059e-04 
        </DataArray>
        <DataArray type="Float64" Name="rhov">
          9.18014359e-06 1.46536737e-05 1.21660750e-05 -1.91608578e-08 
        </DataArray>
        <DataArray type="Float64" Name="E">
          2.00996516e+05 2.01430430e+05 2.01876667e+05 2.02333991e+05 
        </DataArray>
      </PointData>
    </Piece>
    <Piece NumberOfPoints="4" NumberOfCells="3">
      <Points>
        <DataArray type="Float64" NumberOfComponents="3" format="ascii">
          5.35312176e-01 5.04603274e-02 0.00000000e+00 
5.45674443e-01 4.97124642e-02 0.00000000e+00 
5.56035221e-01 4.89437394e-02 0.00000000e+00 
5.66394389e-01 4.81546782e-02 0.00000000e+00 

        </DataArray>
      </Points>
      <Cells>
        <DataArray type="Int32" Name="connectivity" format="ascii">
0 1
1 2
2 3

        </DataArray>
        <DataArray type="Int32" Name="offsets" format="ascii">
2 4 6 
        </DataArray>
        <DataArray type="UInt8" Name="types" format="ascii">
3 3 3 
        </DataArray>
      </Cells>
      <PointData>
        <DataArray type="Float64" Name="rho">
          8.90875865e-01 8.92839344e-01 8.94841317e-01 8.96876696e-01 
        </DataArray>
        <DataArray type="Float64" Name="rhou">
          4.82684568e-04 4.52098822e-04 4.32951601e-04 4.22758491e-04 
        </DataArray>
        <DataArray type="Float64" Name="rhov">
          7.40673753e-08 3.33535772e-06 6.32705424e-06 3.95318443e-06 
        </DataArray>
        <DataArray type="Float64" Name="E">
          2.02334007e+05 2.02802076e+05 2.03279753e+05 2.03765832e+05 
        </DataArray>
      </PointData>
    </Piece>
    <Piece NumberOfPoints="4" NumberOfCells="3">
      <Points>
        <DataArray type="Float64" NumberOfComponents="3" format="ascii">
          5.66394389e-01 4.81546782e-02 0.00000000e+00 
5.76752067e-01 4.73455116e-02 0.00000000e+00 
5.87108195e-01 4.65166979e-02 0.00000000e+00 
5.97462773e-01 4.56690118e-02 0.00000000e+00 

        </DataArray>
      </Points>
      <Cells>
        <DataArray type="Int32" Name="connectivity" format="ascii">
0 1
1 2
2 3

        </DataArray>
        <DataArray type="Int32" Name="offsets" format="ascii">
2 4 6 
        </DataArray>
        <DataArray type="UInt8" Name="types" format="ascii">
3 3 3 
        </DataArray>
      </Cells>
      <PointData>
        <DataArray type="Float64" Name="rho">
          8.96876744e-01 8.98942124e-01 9.01036014e-01 9.03155756e-01 
        </DataArray>
        <DataArray type="Float64" Name="rhou">
          4.21829418e-04 3.98196324e-04 3.73793372e-04 3.56696509e-04 
        </DataArray>
        <DataArray type="Float64" Name="rhov">
          4.25094634e-06 -5.09262652e-06 -7.13097126e-06 -2.15536072e-06 
        </DataArray>
        <DataArray type="Float64" Name="E">
          2.03765843e+05 2.04259503e+05 2.04760353e+05 2.05267730e+05 
        </DataArray>
      </PointData>
    </Piece>
    <Piece NumberOfPoints="4" NumberOfCells="3">
      <Points>
        <DataArray type="Float64" NumberOfComponents="3" format="ascii">
          5.97462773e-01 4.56690118e-02 0.00000000e+00 
6.07815862e-01 4.48031016e-02 0.00000000e+00 
6.18167400e-01 4.39192392e-02 0.00000000e+00 
6.28517449e-01 4.30175588e-02 0.00000000e+00 

        </DataArray>
      </Points>
      <Cells>
        <DataArray type="Int32" Name="connectivity" format="ascii">
0 1
1 2
2 3

        </DataArray>
        <DataArray type="Int32" Name="offsets" format="ascii">
2 4 6 
        </DataArray>
        <DataArray type="UInt8" Name="types" format="ascii">
3 3 3 
        </DataArray>
      </Cells>
      <PointData>
        <DataArray type="Float64" Name="rho">
          9.03155665e-01 9.05297136e-01 9.07456201e-01 9.09631585e-01 
        </DataArray>
        <DataArray type="Float64" Name="rhou">
          3.53626873e-04 3.47463359e-04 3.36125137e-04 3.16685803e-04 
        </DataArray>
        <DataArray type="Float64" Name="rhov">
          -9.70415859e-07 1.31210631e-06 -4.68278175e-06 -1.03773611e-05 
        </DataArray>
        <DataArray type="Float64" Name="E">
          2.05267710e+05 2.05780617e+05 2.06298054e+05 2.06819662e+05 
        </DataArray>
      </PointData>
    </Piece>
    <Piece NumberOfPoints="4" NumberOfCells="3">
      <Points>
        <DataArray type="Float64" NumberOfComponents="3" format="ascii">
          6.28517449e-01 4.30175588e-02 0.00000000e+00 
6.38865948e-01 4.20984775e-02 0.00000000e+00 
6.49212897e-01 4.11624312e-02 0.00000000e+00 
6.59558356e-01 4.02097441e-02 0.00000000e+00 

        </DataArray>
      </Points>
      <Cells>
        <DataArray type="Int32" Name="connectivity" format="ascii">
0 1
1 2
2 3

        </DataArray>
        <DataArray type="Int32" Name="offsets" format="ascii">
2 4 6 
        </DataArray>
        <DataArray type="UInt8" Name="types" format="ascii">
3 3 3 
        </DataArray>
      </Cells>
      <PointData>
        <DataArray type="Float64" Name="rho">
          9.09631578e-01 9.11821572e-01 9.14023347e-01 9.16234836e-01 
        </DataArray>
        <DataArray type="Float64" Name="rhou">
          3.17841725e-04 3.05358324e-04 2.95710017e-04 2.84829622e-04 
        </DataArray>
        <DataArray type="Float64" Name="rhov">
          -8.99770504e-06 -7.70063934e-06 -8.50621608e-06 -9.89021855e-06 
        </DataArray>
        <DataArray type="Float64" Name="E">
          2.06819660e+05 2.07344976e+05 2.07873274e+05 2.08403992e+05 
        </DataArray>
      </PointData>
    </Piece>
    <Piece NumberOfPoints="4" NumberOfCells="3">
      <Points>
        <DataArray type="Float64" NumberOfComponents="3" format="ascii">
          6.59558356e-01 4.02097441e-02 0.00000000e+00 
6.69902325e-01 3.92407738e-02 0.00000000e+00 
6.80244744e-01 3.82556282e-02 0.00000000e+00 
6.90585554e-01 3.72543521e-02 0.00000000e+00 

        </DataArray>
      </Points>
      <Cells>
        <DataArray type="Int32" Name="connectivity" format="ascii">
0 1
1 2
2 3

        </DataArray>
        <DataArray type="Int32" Name="offsets" format="ascii">
2 4 6 
        </DataArray>
        <DataArray type="UInt8" Name="types" format="ascii">
3 3 3 
        </DataArray>
      </Cells>
      <PointData>
        <DataArray type="Float64" Name="rho">
          9.16234812e-01 9.18454521e-01 9.20679163e-01 9.22908489e-01 
        </DataArray>
        <DataArray type="Float64" Name="rhou">
          2.79572103e-04 2.79426989e-04 2.73529177e-04 2.58396301e-04 
        </DataArray>
        <DataArray type="Float64" Name="rhov">
          -8.39341097e-06 -6.54281078e-06 -1.21470390e-05 -1.64920540e-05 
        </DataArray>
        <DataArray type="Float64" Name="E">
          2.08403987e+05 2.08936688e+05 2.09470516e+05 2.10005298e+05 
        </DataArray>
      </PointData>
    </Piece>
    <Piece NumberOfPoints="4" NumberOfCells="3">
      <Points>
        <DataArray type="Float64" NumberOfComponents="3" format="ascii">
          6.90585554e-01 3.72543521e-02 0.00000000e+00 
7.00924933e-01 3.62373814e-02 0.00000000e+00 
7.11262703e-01 3.52048986e-02 0.00000000e+00 
7.21598923e-01 3.41568366e-02 0.00000000e+00 

        </DataArray>
      </Points>
      <Cells>
        <DataArray type="Int32" Name="connectivity" format="ascii">
0 1
1 2
2 3

        </DataArray>
        <DataArray type="Int32" Name="offsets" format="ascii">
2 4 6 
        </DataArray>
        <DataArray type="UInt8" Name="types" format="ascii">
3 3 3 
        </DataArray>
      </Cells>
      <PointData>
        <DataArray type="Float64" Name="rho">
          9.22908425e-01 9.25141742e-01 9.27375746e-01 9.29610147e-01 
        </DataArray>
        <DataArray type="Float64" Name="rhou">
          2.55709753e-04 2.55973960e-04 2.55806871e-04 2.43248030e-04 
        </DataArray>
        <DataArray type="Float64" Name="rhov">
          -1.48512280e-05 -9.50408120e-06 -1.40026016e-05 -2.09271286e-05 
        </DataArray>
        <DataArray type="Float64" Name="E">
          2.10005283e+05 2.10540732e+05 2.11075959e+05 2.11610752e+05 
        </DataArray>
      </PointData>
    </Piece>
    <Piece NumberOfPoints="4" NumberOfCells="3">
      <Points>
        <DataArray type="Float64" NumberOfComponents="3" format="ascii">
          7.21598923e-01 3.41568366e-02 0.00000000e+00 
7.31933594e-01 3.30936089e-02 0.00000000e+00 
7.42266715e-01 3.20154354e-02 0.00000000e+00 
7.52598286e-01 3.09220124e-02 0.00000000e+00 

        </DataArray>
      </Points>
      <Cells>
        <DataArray type="Int32" Name="connectivity" format="ascii">
0 1
1 2
2 3

        </DataArray>
        <DataArray type="Int32" Name="offsets" format="ascii">
2 4 6 
        </DataArray>
        <DataArray type="UInt8" Name="types" format="ascii">
3 3 3 
        </DataArray>
      </Cells>
      <PointData>
        <DataArray type="Float64" Name="rho">
          9.29610117e-01 9.31845456e-01 9.34078364e-01 9.36308618e-01 
        </DataArray>
        <DataArray type="Float64" Name="rhou">
          2.38362369e-04 2.40396761e-04 2.44158128e-04 2.35897265e-04 
        </DataArray>
        <DataArray type="Float64" Name="rhov">
          -1.94607573e-05 -1.14874365e-05 -1.50822803e-05 -2.35699494e-05 
        </DataArray>
        <DataArray type="Float64" Name="E">
          2.11610745e+05 2.12145070e+05 2.12677997e+05 2.13209307e+05 
        </DataArray>
      </PointData>
    </Piece>
    <Piece NumberOfPoints="4" NumberOfCells="3">
      <Points>
        <DataArray type="Float64" NumberOfComponents="3" format="ascii">
          7.52598286e-01 3.09220124e-02 0.00000000e+00 
7.62928188e-01 2.98135038e-02 0.00000000e+00 
7.73256481e-01 2.86899786e-02 0.00000000e+00 
7.83583105e-01 2.75512449e-02 0.00000000e+00 

        </DataArray>
      </Points>
      <Cells>
        <DataArray type="Int32" Name="connectivity" format="ascii">
0 1
1 2
2 3

        </DataArray>
        <DataArray type="Int32" Name="offsets" format="ascii">
2 4 6 
        </DataArray>
        <DataArray type="UInt8" Name="types" format="ascii">
3 3 3 
        </DataArray>
      </Cells>
      <PointData>
        <DataArray type="Float64" Name="rho">
          9.36308613e-01 9.38537238e-01 9.40761994e-01 9.42983231e-01 
        </DataArray>
        <DataArray type="Float64" Name="rhou">
          2.31036449e-04 2.33494355e-04 2.35441262e-04 2.28370521e-04 
        </DataArray>
        <DataArray type="Float64" Name="rhov">
          -2.21382076e-05 -1.85081721e-05 -2.28924878e-05 -2.91924882e-05 
        </DataArray>
        <DataArray type="Float64" Name="E">
          2.13209305e+05 2.13739053e+05 2.14266550e+05 2.14791694e+05 
        </DataArray>
      </PointData>
    </Piece>
    <Piece NumberOfPoints="4" NumberOfCells="3">
      <Points>
        <DataArray type="Float64" NumberOfComponents="3" format="ascii">
          7.83583105e-01 2.75512449e-02 0.00000000e+00 
7.93908060e-01 2.63975188e-02 0.00000000e+00 
8.04231405e-01 2.52291560e-02 0.00000000e+00 
8.14553022e-01 2.40457114e-02 0.00000000e+00 

        </DataArray>
      </Points>
      <Cells>
        <DataArray type="Int32" Name="connectivity" format="ascii">
0 1
1 2
2 3

        </DataArray>
        <DataArray type="Int32" Name="offsets" format="ascii">
2 4 6 
        </DataArray>
        <DataArray type="UInt8" Name="types" format="ascii">
3 3 3 
        </DataArray>
      </Cells>
      <PointData>
        <DataArray type="Float64" Name="rho">
          9.42983245e-01 9.45201611e-01 9.47416273e-01 9.49625481e-01 
        </DataArray>
        <DataArray type="Float64" Name="rhou">
          2.32078802e-04 2.22394472e-04 2.28806379e-04 2.38820537e-04 
        </DataArray>
        <DataArray type="Float64" Name="rhov">
          -2.98177052e-05 -2.46152800e-05 -2.38708720e-05 -3.67344611e-05 
        </DataArray>
        <DataArray type="Float64" Name="E">
          2.14791698e+05 2.15314454e+05 2.15834456e+05 2.16351136e+05 
        </DataArray>
      </PointData>
    </Piece>
    <Piece NumberOfPoints="4" NumberOfCells="3">
      <Points>
        <DataArray type="Float64" NumberOfComponents="3" format="ascii">
          8.14553022e-01 2.40457114e-02 0.00000000e+00 
8.24872792e-01 2.28467938e-02 0.00000000e+00 
8.35190892e-01 2.16327831e-02 0.00000000e+00 
8.45507145e-01 2.04038676e-02 0.00000000e+00 

        </DataArray>
      </Points>
      <Cells>
        <DataArray type="Int32" Name="connectivity" format="ascii">
0 1
1 2
2 3

        </DataArray>
        <DataArray type="Int32" Name="offsets" format="ascii">
2 4 6 
        </DataArray>
        <DataArray type="UInt8" Name="types" format="ascii">
3 3 3 
        </DataArray>
      </Cells>
      <PointData>
        <DataArray type="Float64" Name="rho">
          9.49625561e-01 9.51831631e-01 9.54034510e-01 9.56233759e-01 
        </DataArray>
        <DataArray type="Float64" Name="rhou">
          2.28249378e-04 2.21416104e-04 2.16526392e-04 2.25319028e-04 
        </DataArray>
        <DataArray type="Float64" Name="rhov">
          -3.71289311e-05 -3.91262345e-05 -3.61591838e-05 -3.09431057e-05 
        </DataArray>
        <DataArray type="Float64" Name="E">
          2.16351154e+05 2.16864877e+05 2.17375491e+05 2.17882776e+05 
        </DataArray>
      </PointData>
    </Piece>
    <Piece NumberOfPoints="4" NumberOfCells="3">
      <Points>
        <DataArray type="Float64" NumberOfComponents="3" format="ascii">
          8.45507145e-01 2.04038676e-02 0.00000000e+00 
8.55821550e-01 1.91591792e-02 0.00000000e+00 
8.66134048e-01 1.78987328e-02 0.00000000e+00 
8.76444638e-01 1.66228991e-02 0.00000000e+00 

        </DataArray>
      </Points>
      <Cells>
        <DataArray type="Int32" Name="connectivity" format="ascii">
0 1
1 2
2 3

        </DataArray>
        <DataArray type="Int32" Name="offsets" format="ascii">
2 4 6 
        </DataArray>
        <DataArray type="UInt8" Name="types" format="ascii">
3 3 3 
        </DataArray>
      </Cells>
      <PointData>
        <DataArray type="Float64" Name="rho">
          9.56233952e-01 9.58426467e-01 9.60618135e-01 9.62802042e-01 
        </DataArray>
        <DataArray type="Float64" Name="rhou">
          2.61382293e-04 2.14127904e-04 2.15766423e-04 2.49527494e-04 
        </DataArray>
        <DataArray type="Float64" Name="rhov">
          -3.68690316e-05 -5.30296406e-05 -4.91798143e-05 -7.71970656e-05 
        </DataArray>
        <DataArray type="Float64" Name="E">
          2.17882820e+05 2.18385980e+05 2.18886316e+05 2.19382268e+05 
        </DataArray>
      </PointData>
    </Piece>
    <Piece NumberOfPoints="4" NumberOfCells="3">
      <Points>
        <DataArray type="Float64" NumberOfComponents="3" format="ascii">
          8.76444638e-01 1.66228991e-02 0.00000000e+00 
8.86753201e-01 1.53310820e-02 0.00000000e+00 
8.97059798e-01 1.40233757e-02 0.00000000e+00 
9.07364249e-01 1.26988320e-02 0.00000000e+00 

        </DataArray>
      </Points>
      <Cells>
        <DataArray type="Int32" Name="connectivity" format="ascii">
0 1
1 2
2 3

        </DataArray>
        <DataArray type="Int32" Name="offsets" format="ascii">
2 4 6 
        </DataArray>
        <DataArray type="UInt8" Name="types" format="ascii">
3 3 3 
        </DataArray>
      </Cells>
      <PointData>
        <DataArray type="Float64" Name="rho">
          9.62801395e-01 9.64986367e-01 9.67159172e-01 9.69344107e-01 
        </DataArray>
        <DataArray type="Float64" Name="rhou">
          1.11243744e-04 2.47908817e-04 1.73508022e-04 1.04542637e-04 
        </DataArray>
        <DataArray type="Float64" Name="rhov">
          -6.69205741e-05 -6.80280418e-05 -9.50989024e-05 5.24538178e-05 
        </DataArray>
        <DataArray type="Float64" Name="E">
          2.19382120e+05 2.19875789e+05 2.20364369e+05 2.20853737e+05 
        </DataArray>
      </PointData>
    </Piece>
    <Piece NumberOfPoints="4" NumberOfCells="3">
      <Points>
        <DataArray type="Float64" NumberOfComponents="3" format="ascii">
          9.07364249e-01 1.26988320e-02 0.00000000e+00 
9.17666554e-01 1.13577880e-02 0.00000000e+00 
9.27966774e-01 1.00004105e-02 0.00000000e+00 
9.38264549e-01 8.62528384e-03 0.00000000e+00 

        </DataArray>
      </Points>
      <Cells>
        <DataArray type="Int32" Name="connectivity" format="ascii">
0 1
1 2
2 3

        </DataArray>
        <DataArray type="Int32" Name="offsets" format="ascii">
2 4 6 
        </DataArray>
        <DataArray type="UInt8" Name="types" format="ascii">
3 3 3 
        </DataArray>
      </Cells>
      <PointData>
        <DataArray type="Float64" Name="rho">
          9.69351277e-01 9.71484005e-01 9.73664712e-01 9.75638533e-01 
        </DataArray>
        <DataArray type="Float64" Name="rhou">
          1.28846424e-03 -1.86614325e-04 6.47775208e-04 1.22082401e-03 
        </DataArray>
        <DataArray type="Float64" Name="rhov">
          -4.61077984e-05 -1.19473568e-04 -4.22048428e-06 -2.08117612e-03 
        </DataArray>
        <DataArray type="Float64" Name="E">
          2.20855365e+05 2.21331391e+05 2.21817698e+05 2.22257383e+05 
        </DataArray>
      </PointData>
    </Piece>
    <Piece NumberOfPoints="4" NumberOfCells="3">
      <Points>
        <DataArray type="Float64" NumberOfComponents="3" format="ascii">
          9.38264549e-01 8.62528384e-03 0.00000000e+00 
9.48560059e-01 7.23283459e-03 0.00000000e+00 
9.58853185e-01 5.82307298e-03 0.00000000e+00 
9.69143867e-01 4.39538015e-03 0.00000000e+00 

        </DataArray>
      </Points>
      <Cells>
        <DataArray type="Int32" Name="connectivity" format="ascii">
0 1
1 2
2 3

        </DataArray>
        <DataArray type="Int32" Name="offsets" format="ascii">
2 4 6 
        </DataArray>
        <DataArray type="UInt8" Name="types" format="ascii">
3 3 3 
        </DataArray>
      </Cells>
      <PointData>
        <DataArray type="Float64" Name="rho">
          9.75568705e-01 9.78007395e-01 9.79839551e-01 9.83771108e-01 
        </DataArray>
        <DataArray type="Float64" Name="rhou">
          -9.78296432e-03 3.38388447e-03 -4.57744766e-03 -2.68284974e-02 
        </DataArray>
        <DataArray type="Float64" Name="rhov">
          -1.51608247e-03 2.30425389e-04 -1.59638091e-03 2.76755702e-02 
        </DataArray>
        <DataArray type="Float64" Name="E">
          2.22241493e+05 2.22789134e+05 2.23203217e+05 2.24103140e+05 
        </DataArray>
      </PointData>
    </Piece>
    <Piece NumberOfPoints="4" NumberOfCells="3">
      <Points>
        <DataArray type="Float64" NumberOfComponents="3" format="ascii">
          9.69143867e-01 4.39538015e-03 0.00000000e+00 
9.79435980e-01 2.94816052e-03 0.00000000e+00 
9.89725590e-01 1.48259092e-03 0.00000000e+00 
1.00000000e+00 0.00000000e+00 0.00000000e+00 

        </DataArray>
      </Points>
      <Cells>
        <DataArray type="Int32" Name="connectivity" format="ascii">
0 1
1 2
2 3

        </DataArray>
        <DataArray type="Int32" Name="offsets" format="ascii">
2 4 6 
        </DataArray>
        <DataArray type="UInt8" Name="types" format="ascii">
3 3 3 
        </DataArray>
      </Cells>
      <PointData>
        <DataArray type="Float64" Name="rho">
          9.84200495e-01 9.83603886e-01 9.89076119e-01 9.73359932e-01 
        </DataArray>
        <DataArray type="Float64" Name="rhou">
          -1.34037731e-03 -1.45466089e-02 -5.21853756e-02 7.56908321e-01 
        </DataArray>
        <DataArray type="Float64" Name="rhov">
          2.61486529e-02 3.52725858e-03 7.40010548e-02 -1.92103037e-01 
        </DataArray>
        <DataArray type="Float64" Name="E">
          2.24199205e+05 2.24082956e+05 2.25367566e+05 2.21893953e+05 
        </DataArray>
      </PointData>
    </Piece>
    <Piece NumberOfPoints="4" NumberOfCells="3">
      <Points>
        <DataArray type="Float64" NumberOfComponents="3" format="ascii">
          9.69029665e-01 -4.41133138e-03 0.00000000e+00 
9.79355037e-01 -2.95961346e-03 0.00000000e+00 
9.89677846e-01 -1.48943183e-03 0.00000000e+00 
1.00000000e+00 0.00000000e+00 0.00000000e+00 

        </DataArray>
      </Points>
      <Cells>
        <DataArray type="Int32" Name="connectivity" format="ascii">
0 1
1 2
2 3

        </DataArray>
        <DataArray type="Int32" Name="offsets" format="ascii">
2 4 6 
        </DataArray>
        <DataArray type="UInt8" Name="types" format="ascii">
3 3 3 
        </DataArray>
      </Cells>
      <PointData>
        <DataArray type="Float64" Name="rho">
          9.83702880e-01 9.82642151e-01 9.88571427e-01 9.75254838e-01 
        </DataArray>
        <DataArray type="Float64" Name="rhou">
          -3.68794170e-04 -1.19917843e-02 -5.93529781e-02 7.33819361e-01 
        </DataArray>
        <DataArray type="Float64" Name="rhov">
          -4.34966288e-02 6.39007612e-03 -8.19661944e-02 2.45069901e-01 
        </DataArray>
        <DataArray type="Float64" Name="E">
          2.24498056e+05 2.24219441e+05 2.25523169e+05 2.22388867e+05 
        </DataArray>
      </PointData>
    </Piece>
    <Piece NumberOfPoints="4" NumberOfCells="3">
      <Points>
        <DataArray type="Float64" NumberOfComponents="3" format="ascii">
          9.38035965e-01 -8.65600072e-03 0.00000000e+00 
9.48369622e-01 -7.25875143e-03 0.00000000e+00 
9.58700895e-01 -5.84406452e-03 0.00000000e+00 
9.69029665e-01 -4.41133138e-03 0.00000000e+00 

        </DataArray>
      </Points>
      <Cells>
        <DataArray type="Int32" Name="connectivity" format="ascii">
0 1
1 2
2 3

        </DataArray>
        <DataArray type="Int32" Name="offsets" format="ascii">
2 4 6 
        </DataArray>
        <DataArray type="UInt8" Name="types" format="ascii">
3 3 3 
        </DataArray>
      </Cells>
      <PointData>
        <DataArray type="Float64" Name="rho">
          9.76020953e-01 9.78054487e-01 9.79455935e-01 9.83209002e-01 
        </DataArray>
        <DataArray type="Float64" Name="rhou">
          -1.05657114e-02 3.89140470e-03 -4.21538893e-03 -2.82713695e-02 
        </DataArray>
        <DataArray type="Float64" Name="rhov">
          1.86210145e-03 -3.91926413e-04 2.42310335e-03 -2.89044364e-02 
        </DataArray>
        <DataArray type="Float64" Name="E">
          2.22794422e+05 2.23248702e+05 2.23552146e+05 2.24384071e+05 
        </DataArray>
      </PointData>
    </Piece>
    <Piece NumberOfPoints="4" NumberOfCells="3">
      <Points>
        <DataArray type="Float64" NumberOfComponents="3" format="ascii">
          9.07021165e-01 -1.27432076e-02 0.00000000e+00 
9.17361677e-01 -1.13977119e-02 0.00000000e+00 
9.27700043e-01 -1.00357840e-02 0.00000000e+00 
9.38035965e-01 -8.65600072e-03 0.00000000e+00 

        </DataArray>
      </Points>
      <Cells>
        <DataArray type="Int32" Name="connectivity" format="ascii">
0 1
1 2
2 3

        </DataArray>
        <DataArray type="Int32" Name="offsets" format="ascii">
2 4 6 
        </DataArray>
        <DataArray type="UInt8" Name="types" format="ascii">
3 3 3 
        </DataArray>
      </Cells>
      <PointData>
        <DataArray type="Float64" Name="rho">
          9.71364942e-01 9.72956458e-01 9.74628881e-01 9.76099277e-01 
        </DataArray>
        <DataArray type="Float64" Name="rhou">
          1.53109016e-03 -1.42292792e-04 8.12366330e-04 1.48241248e-03 
        </DataArray>
        <DataArray type="Float64" Name="rhov">
          -1.09244231e-05 4.82575457e-05 -1.12495037e-04 2.25024221e-03 
        </DataArray>
        <DataArray type="Float64" Name="E">
          2.21731910e+05 2.22099110e+05 2.22481007e+05 2.22812277e+05 
        </DataArray>
      </PointData>
    </Piece>
    <Piece NumberOfPoints="4" NumberOfCells="3">
      <Points>
        <DataArray type="Float64" NumberOfComponents="3" format="ascii">
          8.75986874e-01 -1.66798849e-02 0.00000000e+00 
8.86333704e-01 -1.53839625e-02 0.00000000e+00 
8.96678507e-01 -1.40720531e-02 0.00000000e+00 
9.07021165e-01 -1.27432076e-02 0.00000000e+00 

        </DataArray>
      </Points>
      <Cells>
        <DataArray type="Int32" Name="connectivity" format="ascii">
0 1
1 2
2 3

        </DataArray>
        <DataArray type="Int32" Name="offsets" format="ascii">
2 4 6 
        </DataArray>
        <DataArray type="UInt8" Name="types" format="ascii">
3 3 3 
        </DataArray>
      </Cells>
      <PointData>
        <DataArray type="Float64" Name="rho">
          9.66543038e-01 9.68135502e-01 9.69730364e-01 9.71356706e-01 
        </DataArray>
        <DataArray type="Float64" Name="rhou">
          2.09207879e-04 3.54593215e-04 2.74480862e-04 1.97787171e-04 
        </DataArray>
        <DataArray type="Float64" Name="rhov">
          3.18809315e-05 2.10686219e-05 4.63863783e-05 -1.21557336e-04 
        </DataArray>
        <DataArray type="Float64" Name="E">
          2.20602505e+05 2.20977996e+05 2.21351754e+05 2.21730033e+05 
        </DataArray>
      </PointData>
    </Piece>
    <Piece NumberOfPoints="4" NumberOfCells="3">
      <Points>
        <DataArray type="Float64" NumberOfComponents="3" format="ascii">
          8.44934702e-01 -2.04724707e-02 0.00000000e+00 
8.55287313e-01 -1.92240477e-02 0.00000000e+00 
8.65638077e-01 -1.79597028e-02 0.00000000e+00 
8.75986874e-01 -1.66798849e-02 0.00000000e+00 

        </DataArray>
      </Points>
      <Cells>
        <DataArray type="Int32" Name="connectivity" format="ascii">
0 1
1 2
2 3

        </DataArray>
        <DataArray type="Int32" Name="offsets" format="ascii">
2 4 6 
        </DataArray>
        <DataArray type="UInt8" Name="types" format="ascii">
3 3 3 
        </DataArray>
      </Cells>
      <PointData>
        <DataArray type="Float64" Name="rho">
          9.61838376e-01 9.63396007e-01 9.64967836e-01 9.66543781e-01 
        </DataArray>
        <DataArray type="Float64" Name="rhou">
          4.02091403e-04 3.23677123e-04 3.14167591e-04 3.72138779e-04 
        </DataArray>
        <DataArray type="Float64" Name="rhov">
          -6.97203996e-06 2.24978216e-05 9.38397089e-06 4.00233542e-05 
        </DataArray>
        <DataArray type="Float64" Name="E">
          2.19481837e+05 2.19854529e+05 2.20228984e+05 2.20602673e+05 
        </DataArray>
      </PointData>
    </Piece>
    <Piece NumberOfPoints="4" NumberOfCells="3">
      <Points>
        <DataArray type="Float64" NumberOfComponents="3" format="ascii">
          8.13865662e-01 -2.41250079e-02 0.00000000e+00 
8.24223816e-01 -2.29226518e-02 0.00000000e+00 
8.34580123e-01 -2.17050612e-02 0.00000000e+00 
8.44934702e-01 -2.04724707e-02 0.00000000e+00 

        </DataArray>
      </Points>
      <Cells>
        <DataArray type="Int32" Name="connectivity" format="ascii">
0 1
1 2
2 3

        </DataArray>
        <DataArray type="Int32" Name="offsets" format="ascii">
2 4 6 
        </DataArray>
        <DataArray type="UInt8" Name="types" format="ascii">
3 3 3 
        </DataArray>
      </Cells>
      <PointData>
        <DataArray type="Float64" Name="rho">
          9.57202836e-01 9.58738104e-01 9.60283473e-01 9.61838049e-01 
        </DataArray>
        <DataArray type="Float64" Name="rhou">
          3.46142222e-04 3.32715718e-04 3.18695114e-04 3.32807996e-04 
        </DataArray>
        <DataArray type="Float64" Name="rhov">
          7.86755697e-06 9.44479708e-06 -2.36674418e-08 -1.59524826e-05 
        </DataArray>
        <DataArray type="Float64" Name="E">
          2.18365419e+05 2.18736261e+05 2.19108503e+05 2.19481763e+05 
        </DataArray>
      </PointData>
    </Piece>
    <Piece NumberOfPoints="4" NumberOfCells="3">
      <Points>
        <DataArray type="Float64" NumberOfComponents="3" format="ascii">
          7.82780826e-01 -2.76402626e-02 0.00000000e+00 
7.93144107e-01 -2.64833923e-02 0.00000000e+00 
8.03505778e-01 -2.53117718e-02 0.00000000e+00 
8.13865662e-01 -2.41250079e-02 0.00000000e+00 

        </DataArray>
      </Points>
      <Cells>
        <DataArray type="Int32" Name="connectivity" format="ascii">
0 1
1 2
2 3

        </DataArray>
        <DataArray type="Int32" Name="offsets" format="ascii">
2 4 6 
        </DataArray>
        <DataArray type="UInt8" Name="types" format="ascii">
3 3 3 
        </DataArray>
      </Cells>
      <PointData>
        <DataArray type="Float64" Name="rho">
          9.52651749e-01 9.54159400e-01 9.55677707e-01 9.57202696e-01 
        </DataArray>
        <DataArray type="Float64" Name="rhou">
          3.52387240e-04 3.32118548e-04 3.39344869e-04 3.59175723e-04 
        </DataArray>
        <DataArray type="Float64" Name="rhov">
          6.03366144e-06 -5.76576346e-06 -1.21823630e-05 6.91443635e-06 
        </DataArray>
        <DataArray type="Float64" Name="E">
          2.17261587e+05 2.17627869e+05 2.17996154e+05 2.18365387e+05 
        </DataArray>
      </PointData>
    </Piece>
    <Piece NumberOfPoints="4" NumberOfCells="3">
      <Points>
        <DataArray type="Float64" NumberOfComponents="3" format="ascii">
          7.51680970e-01 -3.10197193e-02 0.00000000e+00 
7.62049198e-01 -2.99084149e-02 0.00000000e+00 
7.72415876e-01 -2.87819952e-02 0.00000000e+00 
7.82780826e-01 -2.76402626e-02 0.00000000e+00 

        </DataArray>
      </Points>
      <Cells>
        <DataArray type="Int32" Name="connectivity" format="ascii">
0 1
1 2
2 3

        </DataArray>
        <DataArray type="Int32" Name="offsets" format="ascii">
2 4 6 
        </DataArray>
        <DataArray type="UInt8" Name="types" format="ascii">
3 3 3 
        </DataArray>
      </Cells>
      <PointData>
        <DataArray type="Float64" Name="rho">
          9.48199628e-01 9.49672259e-01 9.51156303e-01 9.52651701e-01 
        </DataArray>
        <DataArray type="Float64" Name="rhou">
          3.47270073e-04 3.49514284e-04 3.50287586e-04 3.39279682e-04 
        </DataArray>
        <DataArray type="Float64" Name="rhov">
          2.06284760e-06 -8.17230120e-06 -4.57738940e-06 4.28940928e-06 
        </DataArray>
        <DataArray type="Float64" Name="E">
          2.16177784e+05 2.16536498e+05 2.16897811e+05 2.17261576e+05 
        </DataArray>
      </PointData>
    </Piece>
    <Piece NumberOfPoints="4" NumberOfCells="3">
      <Points>
        <DataArray type="Float64" NumberOfComponents="3" format="ascii">
          7.20566452e-01 -3.42622213e-02 0.00000000e+00 
7.30939507e-01 -3.31965312e-02 0.00000000e+00 
7.41311073e-01 -3.21157984e-02 0.00000000e+00 
7.51680970e-01 -3.10197193e-02 0.00000000e+00 

        </DataArray>
      </Points>
      <Cells>
        <DataArray type="Int32" Name="connectivity" format="ascii">
0 1
1 2
2 3

        </DataArray>
        <DataArray type="Int32" Name="offsets" format="ascii">
2 4 6 
        </DataArray>
        <DataArray type="UInt8" Name="types" format="ascii">
3 3 3 
        </DataArray>
      </Cells>
      <PointData>
        <DataArray type="Float64" Name="rho">
          9.43869987e-01 9.45298962e-01 9.46742599e-01 9.48199619e-01 
        </DataArray>
        <DataArray type="Float64" Name="rhou">
          3.58626112e-04 3.57429887e-04 3.61882412e-04 3.52372786e-04 
        </DataArray>
        <DataArray type="Float64" Name="rhov">
          5.44256918e-06 -1.11606821e-05 -9.96634679e-06 3.62821487e-06 
        </DataArray>
        <DataArray type="Float64" Name="E">
          2.15122960e+05 2.15471008e+05 2.15822749e+05 2.16177782e+05 
        </DataArray>
      </PointData>
    </Piece>
    <Piece NumberOfPoints="4" NumberOfCells="3">
      <Points>
        <DataArray type="Float64" NumberOfComponents="3" format="ascii">
          6.89437866e-01 -3.73662710e-02 0.00000000e+00 
6.99815631e-01 -3.63472365e-02 0.00000000e+00 
7.10191846e-01 -3.53125818e-02 0.00000000e+00 
7.20566452e-01 -3.42622213e-02 0.00000000e+00 

        </DataArray>
      </Points>
      <Cells>
        <DataArray type="Int32" Name="connectivity" format="ascii">
0 1
1 2
2 3

        </DataArray>
        <DataArray type="Int32" Name="offsets" format="ascii">
2 4 6 
        </DataArray>
        <DataArray type="UInt8" Name="types" format="ascii">
3 3 3 
        </DataArray>
      </Cells>
      <PointData>
        <DataArray type="Float64" Name="rho">
          9.39698802e-01 9.41070266e-01 9.42460983e-01 9.43870003e-01 
        </DataArray>
        <DataArray type="Float64" Name="rhou">
          3.80645007e-04 3.78325132e-04 3.77066504e-04 3.61003883e-04 
        </DataArray>
        <DataArray type="Float64" Name="rhov">
          5.19371866e-06 -7.25813798e-06 -4.36865390e-06 6.52577144e-06 
        </DataArray>
        <DataArray type="Float64" Name="E">
          2.14108303e+05 2.14441597e+05 2.14779918e+05 2.15122964e+05 
        </DataArray>
      </PointData>
    </Piece>
    <Piece NumberOfPoints="4" NumberOfCells="3">
      <Points>
        <DataArray type="Float64" NumberOfComponents="3" format="ascii">
          6.58295333e-01 -4.03269380e-02 0.00000000e+00 
6.68677747e-01 -3.93563360e-02 0.00000000e+00 
6.79058611e-01 -3.83694395e-02 0.00000000e+00 
6.89437866e-01 -3.73662710e-02 0.00000000e+00 

        </DataArray>
      </Points>
      <Cells>
        <DataArray type="Int32" Name="connectivity" format="ascii">
0 1
1 2
2 3

        </DataArray>
        <DataArray type="Int32" Name="offsets" format="ascii">
2 4 6 
        </DataArray>
        <DataArray type="UInt8" Name="types" format="ascii">
3 3 3 
        </DataArray>
      </Cells>
      <PointData>
        <DataArray type="Float64" Name="rho">
          9.35729098e-01 9.37028120e-01 9.38351495e-01 9.39698872e-01 
        </DataArray>
        <DataArray type="Float64" Name="rhou">
          4.09758624e-04 4.08690420e-04 3.99461346e-04 3.79404241e-04 
        </DataArray>
        <DataArray type="Float64" Name="rhov">
          2.25957379e-06 -5.10666720e-06 -1.87412946e-07 6.68853207e-06 
        </DataArray>
        <DataArray type="Float64" Name="E">
          2.13145989e+05 2.13460407e+05 2.13781232e+05 2.14108319e+05 
        </DataArray>
      </PointData>
    </Piece>
    <Piece NumberOfPoints="4" NumberOfCells="3">
      <Points>
        <DataArray type="Float64" NumberOfComponents="3" format="ascii">
          6.27138972e-01 -4.31386717e-02 0.00000000e+00 
6.37525976e-01 -4.22184542e-02 0.00000000e+00 
6.47911429e-01 -4.12811004e-02 0.00000000e+00 
6.58295333e-01 -4.03269380e-02 0.00000000e+00 

        </DataArray>
      </Points>
      <Cells>
        <DataArray type="Int32" Name="connectivity" format="ascii">
0 1
1 2
2 3

        </DataArray>
        <DataArray type="Int32" Name="offsets" format="ascii">
2 4 6 
        </DataArray>
        <DataArray type="UInt8" Name="types" format="ascii">
3 3 3 
        </DataArray>
      </Cells>
      <PointData>
        <DataArray type="Float64" Name="rho">
          9.32010593e-01 9.33218613e-01 9.34458946e-01 9.35729140e-01 
        </DataArray>
        <DataArray type="Float64" Name="rhou">
          4.59158443e-04 4.40634666e-04 4.25122304e-04 4.12146921e-04 
        </DataArray>
        <DataArray type="Float64" Name="rhov">
          1.01330566e-05 4.93053239e-06 2.62976736e-06 3.67344532e-06 
        </DataArray>
        <DataArray type="Float64" Name="E">
          2.12249096e+05 2.12539891e+05 2.12839060e+05 2.13145998e+05 
        </DataArray>
      </PointData>
    </Piece>
    <Piece NumberOfPoints="4" NumberOfCells="3">
      <Points>
        <DataArray type="Float64" NumberOfComponents="3" format="ascii">
          5.95968783e-01 -4.57924642e-02 0.00000000e+00 
6.06360376e-01 -4.49259281e-02 0.00000000e+00 
6.16750479e-01 -4.40412909e-02 0.00000000e+00 
6.27138972e-01 -4.31386717e-02 0.00000000e+00 

        </DataArray>
      </Points>
      <Cells>
        <DataArray type="Int32" Name="connectivity" format="ascii">
0 1
1 2
2 3

        </DataArray>
        <DataArray type="Int32" Name="offsets" format="ascii">
2 4 6 
        </DataArray>
        <DataArray type="UInt8" Name="types" format="ascii">
3 3 3 
        </DataArray>
      </Cells>
      <PointData>
        <DataArray type="Float64" Name="rho">
          9.28603608e-01 9.29702024e-01 9.30838147e-01 9.32010583e-01 
        </DataArray>
        <DataArray type="Float64" Name="rhou">
          5.02726772e-04 4.92026750e-04 4.75739142e-04 4.52321057e-04 
        </DataArray>
        <DataArray type="Float64" Name="rhov">
          7.62570463e-06 -3.96370774e-07 3.50048288e-06 1.11664109e-05 
        </DataArray>
        <DataArray type="Float64" Name="E">
          2.11432619e+05 2.11695185e+05 2.11967458e+05 2.12249094e+05 
        </DataArray>
      </PointData>
    </Piece>
    <Piece NumberOfPoints="4" NumberOfCells="3">
      <Points>
        <DataArray type="Float64" NumberOfComponents="3" format="ascii">
          5.64784765e-01 -4.82786149e-02 0.00000000e+00 
5.75181007e-01 -4.74695377e-02 0.00000000e+00 
5.85575700e-01 -4.66405638e-02 0.00000000e+00 
5.95968783e-01 -4.57924642e-02 0.00000000e+00 

        </DataArray>
      </Points>
      <Cells>
        <DataArray type="Int32" Name="connectivity" format="ascii">
0 1
1 2
2 3

        </DataArray>
        <DataArray type="Int32" Name="offsets" format="ascii">
2 4 6 
        </DataArray>
        <DataArray type="UInt8" Name="types" format="ascii">
3 3 3 
        </DataArray>
      </Cells>
      <PointData>
        <DataArray type="Float64" Name="rho">
          9.25577336e-01 9.26538329e-01 9.27547704e-01 9.28603747e-01 
        </DataArray>
        <DataArray type="Float64" Name="rhou">
          5.87250584e-04 5.58017969e-04 5.21841980e-04 4.96302450e-04 
        </DataArray>
        <DataArray type="Float64" Name="rhov">
          6.07832140e-06 1.59682217e-05 1.74133892e-05 8.54806721e-06 
        </DataArray>
        <DataArray type="Float64" Name="E">
          2.10713164e+05 2.10940912e+05 2.11180880e+05 2.11432651e+05 
        </DataArray>
      </PointData>
    </Piece>
    <Piece NumberOfPoints="4" NumberOfCells="3">
      <Points>
        <DataArray type="Float64" NumberOfComponents="3" format="ascii">
          5.33586800e-01 -5.05827516e-02 0.00000000e+00 
5.43987691e-01 -4.98356484e-02 0.00000000e+00 
5.54387033e-01 -4.90674041e-02 0.00000000e+00 
5.64784765e-01 -4.82786149e-02 0.00000000e+00 

        </DataArray>
      </Points>
      <Cells>
        <DataArray type="Int32" Name="connectivity" format="ascii">
0 1
1 2
2 3

        </DataArray>
        <DataArray type="Int32" Name="offsets" format="ascii">
2 4 6 
        </DataArray>
        <DataArray type="UInt8" Name="types" format="ascii">
3 3 3 
        </DataArray>
      </Cells>
      <PointData>
        <DataArray type="Float64" Name="rho">
          9.23005091e-01 9.23806325e-01 9.24665553e-01 9.25577285e-01 
        </DataArray>
        <DataArray type="Float64" Name="rhou">
          6.68892447e-04 6.23810996e-04 5.92845845e-04 5.81420791e-04 
        </DataArray>
        <DataArray type="Float64" Name="rhov">
          1.97254162e-05 1.55982949e-05 7.46396003e-06 6.11238794e-06 
        </DataArray>
        <DataArray type="Float64" Name="E">
          2.10108051e+05 2.10295717e+05 2.10497840e+05 2.10713152e+05 
        </DataArray>
      </PointData>
    </Piece>
    <Piece NumberOfPoints="4" NumberOfCells="3">
      <Points>
        <DataArray type="Float64" NumberOfComponents="3" format="ascii">
          5.02374947e-01 -5.26902266e-02 0.00000000e+00 
5.12780428e-01 -5.20105064e-02 0.00000000e+00 
5.23184419e-01 -5.13078682e-02 0.00000000e+00 
5.33586800e-01 -5.05827516e-02 0.00000000e+00 

        </DataArray>
      </Points>
      <Cells>
        <DataArray type="Int32" Name="connectivity" format="ascii">
0 1
1 2
2 3

        </DataArray>
        <DataArray type="Int32" Name="offsets" format="ascii">
2 4 6 
        </DataArray>
        <DataArray type="UInt8" Name="types" format="ascii">
3 3 3 
        </DataArray>
      </Cells>
      <PointData>
        <DataArray type="Float64" Name="rho">
          9.20976388e-01 9.21587235e-01 9.22265274e-01 9.23004974e-01 
        </DataArray>
        <DataArray type="Float64" Name="rhou">
          7.58275941e-04 7.18333678e-04 6.89126108e-04 6.66580395e-04 
        </DataArray>
        <DataArray type="Float64" Name="rhov">
          2.05697819e-05 8.53886379e-06 6.00882241e-06 1.85406720e-05 
        </DataArray>
        <DataArray type="Float64" Name="E">
          2.09638126e+05 2.09778583e+05 2.09935640e+05 2.10108024e+05 
        </DataArray>
      </PointData>
    </Piece>
    <Piece NumberOfPoints="4" NumberOfCells="3">
      <Points>
        <DataArray type="Float64" NumberOfComponents="3" format="ascii">
          4.71149325e-01 -5.45825884e-02 0.00000000e+00 
4.81559396e-01 -5.39771840e-02 0.00000000e+00 
4.91967946e-01 -5.33461571e-02 0.00000000e+00 
5.02374947e-01 -5.26902266e-02 0.00000000e+00 

        </DataArray>
      </Points>
      <Cells>
        <DataArray type="Int32" Name="connectivity" format="ascii">
0 1
1 2
2 3

        </DataArray>
        <DataArray type="Int32" Name="offsets" format="ascii">
2 4 6 
        </DataArray>
        <DataArray type="UInt8" Name="types" format="ascii">
3 3 3 
        </DataArray>
      </Cells>
      <PointData>
        <DataArray type="Float64" Name="rho">
          9.19599411e-01 9.19980335e-01 9.20439016e-01 9.20976488e-01 
        </DataArray>
        <DataArray type="Float64" Name="rhou">
          8.75549702e-04 8.52312828e-04 8.00857924e-04 7.35761090e-04 
        </DataArray>
        <DataArray type="Float64" Name="rhov">
          2.86630749e-06 6.19341112e-06 2.25093227e-05 2.30586890e-05 
        </DataArray>
        <DataArray type="Float64" Name="E">
          2.09328530e+05 2.09412587e+05 2.09515721e+05 2.09638149e+05 
        </DataArray>
      </PointData>
    </Piece>
    <Piece NumberOfPoints="4" NumberOfCells="3">
      <Points>
        <DataArray type="Float64" NumberOfComponents="3" format="ascii">
          4.39910263e-01 -5.62384278e-02 0.00000000e+00 
4.50324744e-01 -5.57143167e-02 0.00000000e+00 
4.60737765e-01 -5.51619194e-02 0.00000000e+00 
4.71149325e-01 -5.45825884e-02 0.00000000e+00 

        </DataArray>
      </Points>
      <Cells>
        <DataArray type="Int32" Name="connectivity" format="ascii">
0 1
1 2
2 3

        </DataArray>
        <DataArray type="Int32" Name="offsets" format="ascii">
2 4 6 
        </DataArray>
        <DataArray type="UInt8" Name="types" format="ascii">
3 3 3 
        </DataArray>
      </Cells>
      <PointData>
        <DataArray type="Float64" Name="rho">
          9.18993880e-01 9.19098146e-01 9.19303033e-01 9.19599498e-01 
        </DataArray>
        <DataArray type="Float64" Name="rhou">
          1.05909988e-03 9.73978163e-04 9.10908166e-04 8.82407149e-04 
        </DataArray>
        <DataArray type="Float64" Name="rhov">
          2.26276189e-05 2.91875715e-05 1.74355410e-05 5.00953740e-06 
        </DataArray>
        <DataArray type="Float64" Name="E">
          2.09207167e+05 2.09223949e+05 2.09265112e+05 2.09328550e+05 
        </DataArray>
      </PointData>
    </Piece>
    <Piece NumberOfPoints="4" NumberOfCells="3">
      <Points>
        <DataArray type="Float64" NumberOfComponents="3" format="ascii">
          4.08658355e-01 -5.76302819e-02 0.00000000e+00 
4.19077009e-01 -5.71971126e-02 0.00000000e+00 
4.29494321e-01 -5.67329265e-02 0.00000000e+00 
4.39910263e-01 -5.62384278e-02 0.00000000e+00 

        </DataArray>
      </Points>
      <Cells>
        <DataArray type="Int32" Name="connectivity" format="ascii">
0 1
1 2
2 3

        </DataArray>
        <DataArray type="Int32" Name="offsets" format="ascii">
2 4 6 
        </DataArray>
        <DataArray type="UInt8" Name="types" format="ascii">
3 3 3 
        </DataArray>
      </Cells>
      <PointData>
        <DataArray type="Float64" Name="rho">
          9.19316468e-01 9.19097456e-01 9.18992986e-01 9.18993610e-01 
        </DataArray>
        <DataArray type="Float64" Name="rhou">
          1.22125265e-03 1.14783253e-03 1.09471393e-03 1.05327070e-03 
        </DataArray>
        <DataArray type="Float64" Name="rhov">
          2.36888935e-05 5.13401136e-06 2.18695211e-06 2.18932655e-05 
        </DataArray>
        <DataArray type="Float64" Name="E">
          2.09310747e+05 2.09249253e+05 2.09215438e+05 2.09207105e+05 
        </DataArray>
      </PointData>
    </Piece>
    <Piece NumberOfPoints="4" NumberOfCells="3">
      <Points>
        <DataArray type="Float64" NumberOfComponents="3" format="ascii">
          3.77394795e-01 -5.87291755e-02 0.00000000e+00 
3.87817174e-01 -5.83979115e-02 0.00000000e+00 
3.98238391e-01 -5.80311492e-02 0.00000000e+00 
4.08658355e-01 -5.76302819e-02 0.00000000e+00 

        </DataArray>
      </Points>
      <Cells>
        <DataArray type="Int32" Name="connectivity" format="ascii">
0 1
1 2
2 3

        </DataArray>
        <DataArray type="Int32" Name="offsets" format="ascii">
2 4 6 
        </DataArray>
        <DataArray type="UInt8" Name="types" format="ascii">
3 3 3 
        </DataArray>
      </Cells>
      <PointData>
        <DataArray type="Float64" Name="rho">
          9.20761450e-01 9.20142714e-01 9.19660803e-01 9.19316700e-01 
        </DataArray>
        <DataArray type="Float64" Name="rhou">
          1.48332762e-03 1.40767227e-03 1.29987821e-03 1.18624995e-03 
        </DataArray>
        <DataArray type="Float64" Name="rhov">
          -1.57080431e-05 1.18202014e-05 3.96561955e-05 2.82820644e-05 
        </DataArray>
        <DataArray type="Float64" Name="E">
          2.09684943e+05 2.09527199e+05 2.09402435e+05 2.09310801e+05 
        </DataArray>
      </PointData>
    </Piece>
    <Piece NumberOfPoints="4" NumberOfCells="3">
      <Points>
        <DataArray type="Float64" NumberOfComponents="3" format="ascii">
          3.46121490e-01 -5.95011823e-02 0.00000000e+00 
3.56546819e-01 -5.92821389e-02 0.00000000e+00 
3.66971314e-01 -5.90242445e-02 0.00000000e+00 
3.77394795e-01 -5.87291755e-02 0.00000000e+00 

        </DataArray>
      </Points>
      <Cells>
        <DataArray type="Int32" Name="connectivity" format="ascii">
0 1
1 2
2 3

        </DataArray>
        <DataArray type="Int32" Name="offsets" format="ascii">
2 4 6 
        </DataArray>
        <DataArray type="UInt8" Name="types" format="ascii">
3 3 3 
        </DataArray>
      </Cells>
      <PointData>
        <DataArray type="Float64" Name="rho">
          9.23531906e-01 9.22441923e-01 9.21523092e-01 9.20761550e-01 
        </DataArray>
        <DataArray type="Float64" Name="rhou">
          1.84017422e-03 1.68899225e-03 1.55420050e-03 1.48748952e-03 
        </DataArray>
        <DataArray type="Float64" Name="rhov">
          -4.54927555e-05 -2.74615682e-06 2.20193723e-06 -1.12446704e-05 
        </DataArray>
        <DataArray type="Float64" Name="E">
          2.10377964e+05 2.10107009e+05 2.09877099e+05 2.09684965e+05 
        </DataArray>
      </PointData>
    </Piece>
    <Piece NumberOfPoints="4" NumberOfCells="3">
      <Points>
        <DataArray type="Float64" NumberOfComponents="3" format="ascii">
          3.14841360e-01 -5.99102043e-02 0.00000000e+00 
3.25268596e-01 -5.98174632e-02 0.00000000e+00 
3.35695356e-01 -5.96801341e-02 0.00000000e+00 
3.46121490e-01 -5.95011823e-02 0.00000000e+00 

        </DataArray>
      </Points>
      <Cells>
        <DataArray type="Int32" Name="connectivity" format="ascii">
0 1
1 2
2 3

        </DataArray>
        <DataArray type="Int32" Name="offsets" format="ascii">
2 4 6 
        </DataArray>
        <DataArray type="UInt8" Name="types" format="ascii">
3 3 3 
        </DataArray>
      </Cells>
      <PointData>
        <DataArray type="Float64" Name="rho">
          9.27933711e-01 9.26251386e-01 9.24792171e-01 9.23531581e-01 
        </DataArray>
        <DataArray type="Float64" Name="rhou">
          2.30375442e-03 2.04761105e-03 1.87659640e-03 1.80083754e-03 
        </DataArray>
        <DataArray type="Float64" Name="rhov">
          2.90300488e-05 5.25557217e-05 1.52303902e-05 -4.51981459e-05 
        </DataArray>
        <DataArray type="Float64" Name="E">
          2.11462309e+05 2.11049419e+05 2.10689873e+05 2.10377890e+05 
        </DataArray>
      </PointData>
    </Piece>
    <Piece NumberOfPoints="4" NumberOfCells="3">
      <Points>
        <DataArray type="Float64" NumberOfComponents="3" format="ascii">
          2.83558637e-01 -5.98983802e-02 0.00000000e+00 
2.93986142e-01 -5.99516556e-02 0.00000000e+00 
3.04413795e-01 -5.99554181e-02 0.00000000e+00 
3.14841360e-01 -5.99102043e-02 0.00000000e+00 

        </DataArray>
      </Points>
      <Cells>
        <DataArray type="Int32" Name="connectivity" format="ascii">
0 1
1 2
2 3

        </DataArray>
        <DataArray type="Int32" Name="offsets" format="ascii">
2 4 6 
        </DataArray>
        <DataArray type="UInt8" Name="types" format="ascii">
3 3 3 
        </DataArray>
      </Cells>
      <PointData>
        <DataArray type="Float64" Name="rho">
          9.34371599e-01 9.31988863e-01 9.29846937e-01 9.27932936e-01 
        </DataArray>
        <DataArray type="Float64" Name="rhou">
          2.78459746e-03 2.61932181e-03 2.48267349e-03 2.29400898e-03 
        </DataArray>
        <DataArray type="Float64" Name="rhov">
          -3.43971208e-05 -1.06544724e-04 -6.76998937e-05 3.56882202e-05 
        </DataArray>
        <DataArray type="Float64" Name="E">
          2.13034566e+05 2.12453635e+05 2.11930509e+05 2.11462132e+05 
        </DataArray>
      </PointData>
    </Piece>
    <Piece NumberOfPoints="4" NumberOfCells="3">
      <Points>
        <DataArray type="Float64" NumberOfComponents="3" format="ascii">
          2.52279758e-01 -5.94130717e-02 0.00000000e+00 
2.62705088e-01 -5.96327744e-02 0.00000000e+00 
2.73131490e-01 -5.97934239e-02 0.00000000e+00 
2.83558637e-01 -5.98983802e-02 0.00000000e+00 

        </DataArray>
      </Points>
      <Cells>
        <DataArray type="Int32" Name="connectivity" format="ascii">
0 1
1 2
2 3

        </DataArray>
        <DataArray type="Int32" Name="offsets" format="ascii">
2 4 6 
        </DataArray>
        <DataArray type="UInt8" Name="types" format="ascii">
3 3 3 
        </DataArray>
      </Cells>
      <PointData>
        <DataArray type="Float64" Name="rho">
          9.43344030e-01 9.40030863e-01 9.37041424e-01 9.34372573e-01 
        </DataArray>
        <DataArray type="Float64" Name="rhou">
          3.77577243e-03 3.46918459e-03 3.12661486e-03 2.76985593e-03 
        </DataArray>
        <DataArray type="Float64" Name="rhov">
          -2.02330154e-04 -1.00604688e-04 -4.44925123e-06 -1.40358136e-05 
        </DataArray>
        <DataArray type="Float64" Name="E">
          2.15213309e+05 2.14409889e+05 2.13684056e+05 2.13034792e+05 
        </DataArray>
      </PointData>
    </Piece>
    <Piece NumberOfPoints="4" NumberOfCells="3">
      <Points>
        <DataArray type="Float64" NumberOfComponents="3" format="ascii">
          2.21014455e-01 -5.83752058e-02 0.00000000e+00 
2.31433928e-01 -5.87876961e-02 0.00000000e+00 
2.41855890e-01 -5.91322705e-02 0.00000000e+00 
2.52279758e-01 -5.94130717e-02 0.00000000e+00 

        </DataArray>
      </Points>
      <Cells>
        <DataArray type="Int32" Name="connectivity" format="ascii">
0 1
1 2
2 3

        </DataArray>
        <DataArray type="Int32" Name="offsets" format="ascii">
2 4 6 
        </DataArray>
        <DataArray type="UInt8" Name="types" format="ascii">
3 3 3 
        </DataArray>
      </Cells>
      <PointData>
        <DataArray type="Float64" Name="rho">
          9.55511900e-01 9.51040800e-01 9.46999221e-01 9.43344220e-01 
        </DataArray>
        <DataArray type="Float64" Name="rhou">
          5.13991305e-03 4.54932249e-03 4.09882102e-03 3.81240038e-03 
        </DataArray>
        <DataArray type="Float64" Name="rhov">
          -3.37503109e-04 -2.19352462e-04 -1.77478356e-04 -1.84825732e-04 
        </DataArray>
        <DataArray type="Float64" Name="E">
          2.18157146e+05 2.17076547e+05 2.16098701e+05 2.15213349e+05 
        </DataArray>
      </PointData>
    </Piece>
    <Piece NumberOfPoints="4" NumberOfCells="3">
      <Points>
        <DataArray type="Float64" NumberOfComponents="3" format="ascii">
          1.89777538e-01 -5.66898957e-02 0.00000000e+00 
2.00185493e-01 -5.73302582e-02 0.00000000e+00 
2.10598081e-01 -5.78906052e-02 0.00000000e+00 
2.21014455e-01 -5.83752058e-02 0.00000000e+00 

        </DataArray>
      </Points>
      <Cells>
        <DataArray type="Int32" Name="connectivity" format="ascii">
0 1
1 2
2 3

        </DataArray>
        <DataArray type="Int32" Name="offsets" format="ascii">
2 4 6 
        </DataArray>
        <DataArray type="UInt8" Name="types" format="ascii">
3 3 3 
        </DataArray>
      </Cells>
      <PointData>
        <DataArray type="Float64" Name="rho">
          9.71845433e-01 9.65867548e-01 9.60441633e-01 9.55511101e-01 
        </DataArray>
        <DataArray type="Float64" Name="rhou">
          7.05458457e-03 6.25581498e-03 5.67383133e-03 5.20444494e-03 
        </DataArray>
        <DataArray type="Float64" Name="rhov">
          -6.76308015e-04 -5.85494928e-04 -4.66483318e-04 -3.24275035e-04 
        </DataArray>
        <DataArray type="Float64" Name="E">
          2.22098826e+05 2.20657055e+05 2.19347617e+05 2.18156962e+05 
        </DataArray>
      </PointData>
    </Piece>
    <Piece NumberOfPoints="4" NumberOfCells="3">
      <Points>
        <DataArray type="Float64" NumberOfComponents="3" format="ascii">
          1.58592433e-01 -5.42296544e-02 0.00000000e+00 
1.68979734e-01 -5.51457107e-02 0.00000000e+00 
1.79375216e-01 -5.59638515e-02 0.00000000e+00 
1.89777538e-01 -5.66898957e-02 0.00000000e+00 

        </DataArray>
      </Points>
      <Cells>
        <DataArray type="Int32" Name="connectivity" format="ascii">
0 1
1 2
2 3

        </DataArray>
        <DataArray type="Int32" Name="offsets" format="ascii">
2 4 6 
        </DataArray>
        <DataArray type="UInt8" Name="types" format="ascii">
3 3 3 
        </DataArray>
      </Cells>
      <PointData>
        <DataArray type="Float64" Name="rho">
          9.93803260e-01 9.85756973e-01 9.78453507e-01 9.71845859e-01 
        </DataArray>
        <DataArray type="Float64" Name="rhou">
          1.00704546e-02 9.01856377e-03 8.08334676e-03 7.12546180e-03 
        </DataArray>
        <DataArray type="Float64" Name="rhov">
          -1.52983611e-03 -1.30157671e-03 -9.33893941e-04 -6.34534305e-04 
        </DataArray>
        <DataArray type="Float64" Name="E">
          2.27389517e+05 2.25451196e+05 2.23691578e+05 2.22098929e+05 
        </DataArray>
      </PointData>
    </Piece>
    <Piece NumberOfPoints="4" NumberOfCells="3">
      <Points>
        <DataArray type="Float64" NumberOfComponents="3" format="ascii">
          1.27497971e-01 -5.08146733e-02 0.00000000e+00 
1.37849152e-01 -5.20747155e-02 0.00000000e+00 
1.48214847e-01 -5.32093942e-02 0.00000000e+00 
1.58592433e-01 -5.42296544e-02 0.00000000e+00 

        </DataArray>
      </Points>
      <Cells>
        <DataArray type="Int32" Name="connectivity" format="ascii">
0 1
1 2
2 3

        </DataArray>
        <DataArray type="Int32" Name="offsets" format="ascii">
2 4 6 
        </DataArray>
        <DataArray type="UInt8" Name="types" format="ascii">
3 3 3 
        </DataArray>
      </Cells>
      <PointData>
        <DataArray type="Float64" Name="rho">
          1.02371517e+00 1.01265443e+00 1.00270401e+00 9.93807376e-01 
        </DataArray>
        <DataArray type="Float64" Name="rhou">
          1.44886454e-02 1.33715103e-02 1.15977395e-02 1.00960234e-02 
        </DataArray>
        <DataArray type="Float64" Name="rhov">
          -2.55632391e-03 -2.24548809e-03 -1.57439895e-03 -1.45805845e-03 
        </DataArray>
        <DataArray type="Float64" Name="E">
          2.34592721e+05 2.31928942e+05 2.29533219e+05 2.27390466e+05 
        </DataArray>
      </PointData>
    </Piece>
    <Piece NumberOfPoints="4" NumberOfCells="3">
      <Points>
        <DataArray type="Float64" NumberOfComponents="3" format="ascii">
          9.65642184e-02 -4.61716652e-02 0.00000000e+00 
1.06852271e-01 -4.78802323e-02 0.00000000e+00 
1.17164567e-01 -4.94215861e-02 0.00000000e+00 
1.27497971e-01 -5.08146733e-02 0.00000000e+00 

        </DataArray>
      </Points>
      <Cells>
        <DataArray type="Int32" Name="connectivity" format="ascii">
0 1
1 2
2 3

        </DataArray>
        <DataArray type="Int32" Name="offsets" format="ascii">
2 4 6 
        </DataArray>
        <DataArray type="UInt8" Name="types" format="ascii">
3 3 3 
        </DataArray>
      </Cells>
      <PointData>
        <DataArray type="Float64" Name="rho">
          1.06559802e+00 1.04990278e+00 1.03597034e+00 1.02372376e+00 
        </DataArray>
        <DataArray type="Float64" Name="rhou">
          2.44408353e-02 1.79262819e-02 1.71113812e-02 1.28019766e-02 
        </DataArray>
        <DataArray type="Float64" Name="rhov">
          -1.29095288e-03 -1.05511181e-03 -1.85980165e-03 -1.86107697e-03 
        </DataArray>
        <DataArray type="Float64" Name="E">
          2.44688967e+05 2.40903310e+05 2.37545736e+05 2.34594797e+05 
        </DataArray>
      </PointData>
    </Piece>
  </UnstructuredGrid>
</VTKFile>
