<?xml version="1.0"?>
<VTKFile type="UnstructuredGrid" version="0.1" byte_order="LittleEndian">
  <UnstructuredGrid>
    <Piece NumberOfPoints="4" NumberOfCells="3">
      <Points>
        <DataArray type="Float64" NumberOfComponents="3" format="ascii">
          9.65642184e-02 -4.61716652e-02 0.00000000e+00 
9.26280916e-02 -4.54656407e-02 0.00000000e+00 
8.86965096e-02 -4.47326750e-02 0.00000000e+00 
8.47706869e-02 -4.39694971e-02 0.00000000e+00 

        </DataArray>
      </Points>
      <Cells>
        <DataArray type="Int32" Name="connectivity" format="ascii">
0 1
1 2
2 3

        </DataArray>
        <DataArray type="Int32" Name="offsets" format="ascii">
2 4 6 
        </DataArray>
        <DataArray type="UInt8" Name="types" format="ascii">
3 3 3 
        </DataArray>
      </Cells>
      <PointData>
        <DataArray type="Float64" Name="rho">
          1.03194389e+00 1.03885487e+00 1.04608078e+00 1.05375395e+00 
        </DataArray>
        <DataArray type="Float64" Name="rhou">
          2.82668352e-02 2.17775165e-02 2.44256028e-02 2.46030457e-02 
        </DataArray>
        <DataArray type="Float64" Name="rhov">
          -2.24122496e-03 -1.03127196e-03 -6.24428076e-04 -9.41402153e-04 
        </DataArray>
        <DataArray type="Float64" Name="E">
          2.35631361e+05 2.37283592e+05 2.39012763e+05 2.40849320e+05 
        </DataArray>
      </PointData>
    </Piece>
    <Piece NumberOfPoints="4" NumberOfCells="3">
      <Points>
        <DataArray type="Float64" NumberOfComponents="3" format="ascii">
          8.47706869e-02 -4.39694971e-02 0.00000000e+00 
8.08513016e-02 -4.31745499e-02 0.00000000e+00 
7.69388378e-02 -4.23462167e-02 0.00000000e+00 
7.30340332e-02 -4.14824970e-02 0.00000000e+00 

        </DataArray>
      </Points>
      <Cells>
        <DataArray type="Int32" Name="connectivity" format="ascii">
0 1
1 2
2 3

        </DataArray>
        <DataArray type="Int32" Name="offsets" format="ascii">
2 4 6 
        </DataArray>
        <DataArray type="UInt8" Name="types" format="ascii">
3 3 3 
        </DataArray>
      </Cells>
      <PointData>
        <DataArray type="Float64" Name="rho">
          1.05375275e+00 1.06185439e+00 1.07042002e+00 1.07951937e+00 
        </DataArray>
        <DataArray type="Float64" Name="rhou">
          2.46946214e-02 2.38713294e-02 2.24632267e-02 2.08977266e-02 
        </DataArray>
        <DataArray type="Float64" Name="rhov">
          -7.46888868e-04 -5.41404182e-04 3.61692117e-04 1.55172391e-03 
        </DataArray>
        <DataArray type="Float64" Name="E">
          2.40849054e+05 2.42790142e+05 2.44843658e+05 2.47026349e+05 
        </DataArray>
      </PointData>
    </Piece>
    <Piece NumberOfPoints="4" NumberOfCells="3">
      <Points>
        <DataArray type="Float64" NumberOfComponents="3" format="ascii">
          7.30340332e-02 -4.14824970e-02 0.00000000e+00 
6.91377968e-02 -4.05809283e-02 0.00000000e+00 
6.52511865e-02 -3.96387354e-02 0.00000000e+00 
6.13753870e-02 -3.86530459e-02 0.00000000e+00 

        </DataArray>
      </Points>
      <Cells>
        <DataArray type="Int32" Name="connectivity" format="ascii">
0 1
1 2
2 3

        </DataArray>
        <DataArray type="Int32" Name="offsets" format="ascii">
2 4 6 
        </DataArray>
        <DataArray type="UInt8" Name="types" format="ascii">
3 3 3 
        </DataArray>
      </Cells>
      <PointData>
        <DataArray type="Float64" Name="rho">
          1.07951998e+00 1.08923675e+00 1.09960261e+00 1.11067710e+00 
        </DataArray>
        <DataArray type="Float64" Name="rhou">
          2.10156003e-02 1.86678684e-02 1.45710385e-02 9.07457176e-03 
        </DataArray>
        <DataArray type="Float64" Name="rhov">
          1.38630296e-03 2.12664053e-03 4.20212091e-03 7.38425443e-03 
        </DataArray>
        <DataArray type="Float64" Name="E">
          2.47026511e+05 2.49359519e+05 2.51850036e+05 2.54513060e+05 
        </DataArray>
      </PointData>
    </Piece>
    <Piece NumberOfPoints="4" NumberOfCells="3">
      <Points>
        <DataArray type="Float64" NumberOfComponents="3" format="ascii">
          6.13753870e-02 -3.86530459e-02 0.00000000e+00 
5.75117208e-02 -3.76208089e-02 0.00000000e+00 
5.36618084e-02 -3.65384258e-02 0.00000000e+00 
4.98276278e-02 -3.54015976e-02 0.00000000e+00 

        </DataArray>
      </Points>
      <Cells>
        <DataArray type="Int32" Name="connectivity" format="ascii">
0 1
1 2
2 3

        </DataArray>
        <DataArray type="Int32" Name="offsets" format="ascii">
2 4 6 
        </DataArray>
        <DataArray type="UInt8" Name="types" format="ascii">
3 3 3 
        </DataArray>
      </Cells>
      <PointData>
        <DataArray type="Float64" Name="rho">
          1.11067736e+00 1.12254333e+00 1.13528552e+00 1.14903532e+00 
        </DataArray>
        <DataArray type="Float64" Name="rhou">
          9.01838955e-03 1.96570483e-03 -7.24295207e-03 -1.87555171e-02 
        </DataArray>
        <DataArray type="Float64" Name="rhov">
          7.15637948e-03 1.18479288e-02 1.99093663e-02 3.13594282e-02 
        </DataArray>
        <DataArray type="Float64" Name="E">
          2.54513125e+05 2.57370431e+05 2.60441400e+05 2.63758538e+05 
        </DataArray>
      </PointData>
    </Piece>
    <Piece NumberOfPoints="4" NumberOfCells="3">
      <Points>
        <DataArray type="Float64" NumberOfComponents="3" format="ascii">
          4.98276278e-02 -3.54015976e-02 0.00000000e+00 
4.60115410e-02 -3.42054628e-02 0.00000000e+00 
4.22164090e-02 -3.29444520e-02 0.00000000e+00 
3.84457745e-02 -3.16120051e-02 0.00000000e+00 

        </DataArray>
      </Points>
      <Cells>
        <DataArray type="Int32" Name="connectivity" format="ascii">
0 1
1 2
2 3

        </DataArray>
        <DataArray type="Int32" Name="offsets" format="ascii">
2 4 6 
        </DataArray>
        <DataArray type="UInt8" Name="types" format="ascii">
3 3 3 
        </DataArray>
      </Cells>
      <PointData>
        <DataArray type="Float64" Name="rho">
          1.14903524e+00 1.16389261e+00 1.17996963e+00 1.19745774e+00 
        </DataArray>
        <DataArray type="Float64" Name="rhou">
          -1.92095944e-02 -3.33417380e-02 -5.23241588e-02 -7.50328026e-02 
        </DataArray>
        <DataArray type="Float64" Name="rhov">
          3.11449282e-02 4.77934973e-02 7.54097650e-02 1.15818914e-01 
        </DataArray>
        <DataArray type="Float64" Name="E">
          2.63758486e+05 2.67349359e+05 2.71239835e+05 2.75478156e+05 
        </DataArray>
      </PointData>
    </Piece>
    <Piece NumberOfPoints="4" NumberOfCells="3">
      <Points>
        <DataArray type="Float64" NumberOfComponents="3" format="ascii">
          3.84457745e-02 -3.16120051e-02 0.00000000e+00 
3.47041376e-02 -3.02002355e-02 0.00000000e+00 
3.09973080e-02 -2.86995135e-02 0.00000000e+00 
2.73328498e-02 -2.70981900e-02 0.00000000e+00 

        </DataArray>
      </Points>
      <Cells>
        <DataArray type="Int32" Name="connectivity" format="ascii">
0 1
1 2
2 3

        </DataArray>
        <DataArray type="Int32" Name="offsets" format="ascii">
2 4 6 
        </DataArray>
        <DataArray type="UInt8" Name="types" format="ascii">
3 3 3 
        </DataArray>
      </Cells>
      <PointData>
        <DataArray type="Float64" Name="rho">
          1.19745796e+00 1.21654664e+00 1.23742916e+00 1.26047693e+00 
        </DataArray>
        <DataArray type="Float64" Name="rhou">
          -7.59837097e-02 -1.00133445e-01 -1.28774487e-01 -1.54190135e-01 
        </DataArray>
        <DataArray type="Float64" Name="rhov">
          1.15738383e-01 1.71225348e-01 2.57058355e-01 3.77234495e-01 
        </DataArray>
        <DataArray type="Float64" Name="E">
          2.75478075e+05 2.80116115e+05 2.85198601e+05 2.90819630e+05 
        </DataArray>
      </PointData>
    </Piece>
    <Piece NumberOfPoints="4" NumberOfCells="3">
      <Points>
        <DataArray type="Float64" NumberOfComponents="3" format="ascii">
          2.73328498e-02 -2.70981900e-02 0.00000000e+00 
2.37206947e-02 -2.53822580e-02 0.00000000e+00 
2.01744195e-02 -2.35341713e-02 0.00000000e+00 
1.67132635e-02 -2.15314496e-02 0.00000000e+00 

        </DataArray>
      </Points>
      <Cells>
        <DataArray type="Int32" Name="connectivity" format="ascii">
0 1
1 2
2 3

        </DataArray>
        <DataArray type="Int32" Name="offsets" format="ascii">
2 4 6 
        </DataArray>
        <DataArray type="UInt8" Name="types" format="ascii">
3 3 3 
        </DataArray>
      </Cells>
      <PointData>
        <DataArray type="Float64" Name="rho">
          1.26048179e+00 1.28603474e+00 1.31454842e+00 1.34736872e+00 
        </DataArray>
        <DataArray type="Float64" Name="rhou">
          -1.54571727e-01 -1.68675922e-01 -1.53069072e-01 -5.72191471e-02 
        </DataArray>
        <DataArray type="Float64" Name="rhov">
          3.77909240e-01 5.29629122e-01 7.40172243e-01 9.58408001e-01 
        </DataArray>
        <DataArray type="Float64" Name="E">
          2.90820529e+05 2.97074696e+05 3.04066229e+05 3.12123761e+05 
        </DataArray>
      </PointData>
    </Piece>
    <Piece NumberOfPoints="4" NumberOfCells="3">
      <Points>
        <DataArray type="Float64" NumberOfComponents="3" format="ascii">
          1.67132635e-02 -2.15314496e-02 0.00000000e+00 
1.33649679e-02 -1.93456318e-02 0.00000000e+00 
1.01706637e-02 -1.69409402e-02 0.00000000e+00 
7.19343964e-03 -1.42731192e-02 0.00000000e+00 

        </DataArray>
      </Points>
      <Cells>
        <DataArray type="Int32" Name="connectivity" format="ascii">
0 1
1 2
2 3

        </DataArray>
        <DataArray type="Int32" Name="offsets" format="ascii">
2 4 6 
        </DataArray>
        <DataArray type="UInt8" Name="types" format="ascii">
3 3 3 
        </DataArray>
      </Cells>
      <PointData>
        <DataArray type="Float64" Name="rho">
          1.34726294e+00 1.38712549e+00 1.43436194e+00 1.49946921e+00 
        </DataArray>
        <DataArray type="Float64" Name="rhou">
          -3.46614497e-02 1.13580699e-01 4.54567576e-01 8.74648047e-01 
        </DataArray>
        <DataArray type="Float64" Name="rhov">
          9.20176556e-01 1.12309650e+00 1.06835294e+00 5.18673054e-01 
        </DataArray>
        <DataArray type="Float64" Name="E">
          3.12099579e+05 3.21889114e+05 3.33482415e+05 3.49346721e+05 
        </DataArray>
      </PointData>
    </Piece>
    <Piece NumberOfPoints="4" NumberOfCells="3">
      <Points>
        <DataArray type="Float64" NumberOfComponents="3" format="ascii">
          7.19343964e-03 -1.42731192e-02 0.00000000e+00 
4.53082798e-03 -1.12927537e-02 0.00000000e+00 
2.33371323e-03 -7.95678515e-03 0.00000000e+00 
8.10639584e-04 -4.26717056e-03 0.00000000e+00 

        </DataArray>
      </Points>
      <Cells>
        <DataArray type="Int32" Name="connectivity" format="ascii">
0 1
1 2
2 3

        </DataArray>
        <DataArray type="Int32" Name="offsets" format="ascii">
2 4 6 
        </DataArray>
        <DataArray type="UInt8" Name="types" format="ascii">
3 3 3 
        </DataArray>
      </Cells>
      <PointData>
        <DataArray type="Float64" Name="rho">
          1.49998855e+00 1.57443530e+00 1.66355840e+00 1.73231398e+00 
        </DataArray>
        <DataArray type="Float64" Name="rhou">
          7.99674386e-01 9.29598736e-01 2.58323361e-01 -1.27544747e+00 
        </DataArray>
        <DataArray type="Float64" Name="rhov">
          6.17366361e-01 -5.11031742e-01 -1.72893273e+00 -1.81730431e+00 
        </DataArray>
        <DataArray type="Float64" Name="E">
          3.49473990e+05 3.67649940e+05 3.89286979e+05 4.06002057e+05 
        </DataArray>
      </PointData>
    </Piece>
    <Piece NumberOfPoints="4" NumberOfCells="3">
      <Points>
        <DataArray type="Float64" NumberOfComponents="3" format="ascii">
          8.10639584e-04 -4.26717056e-03 0.00000000e+00 
1.91366620e-04 -3.27450951e-04 0.00000000e+00 
6.40850572e-04 3.63462302e-03 0.00000000e+00 
2.03182548e-03 7.37539819e-03 0.00000000e+00 

        </DataArray>
      </Points>
      <Cells>
        <DataArray type="Int32" Name="connectivity" format="ascii">
0 1
1 2
2 3

        </DataArray>
        <DataArray type="Int32" Name="offsets" format="ascii">
2 4 6 
        </DataArray>
        <DataArray type="UInt8" Name="types" format="ascii">
3 3 3 
        </DataArray>
      </Cells>
      <PointData>
        <DataArray type="Float64" Name="rho">
          1.73073775e+00 1.75573158e+00 1.70535387e+00 1.61291797e+00 
        </DataArray>
        <DataArray type="Float64" Name="rhou">
          -1.14984064e+00 -1.87915679e+00 -8.35380256e-01 7.51704836e-01 
        </DataArray>
        <DataArray type="Float64" Name="rhov">
          -1.97537633e+00 3.63954871e-01 1.88244887e+00 1.51525795e+00 
        </DataArray>
        <DataArray type="Float64" Name="E">
          4.05620356e+05 4.11605185e+05 3.99288590e+05 3.76710242e+05 
        </DataArray>
      </PointData>
    </Piece>
    <Piece NumberOfPoints="4" NumberOfCells="3">
      <Points>
        <DataArray type="Float64" NumberOfComponents="3" format="ascii">
          2.03182548e-03 7.37539819e-03 0.00000000e+00 
4.13410179e-03 1.07714310e-02 0.00000000e+00 
6.73249783e-03 1.38076087e-02 0.00000000e+00 
9.66598373e-03 1.65232457e-02 0.00000000e+00 

        </DataArray>
      </Points>
      <Cells>
        <DataArray type="Int32" Name="connectivity" format="ascii">
0 1
1 2
2 3

        </DataArray>
        <DataArray type="Int32" Name="offsets" format="ascii">
2 4 6 
        </DataArray>
        <DataArray type="UInt8" Name="types" format="ascii">
3 3 3 
        </DataArray>
      </Cells>
      <PointData>
        <DataArray type="Float64" Name="rho">
          1.61328125e+00 1.50616728e+00 1.41693062e+00 1.34997574e+00 
        </DataArray>
        <DataArray type="Float64" Name="rhou">
          7.24001687e-01 1.15484114e+00 8.39798706e-01 3.75186171e-01 
        </DataArray>
        <DataArray type="Float64" Name="rhov">
          1.74996544e+00 6.26005668e-02 -1.07463232e+00 -1.39939298e+00 
        </DataArray>
        <DataArray type="Float64" Name="E">
          3.76801643e+05 3.50795494e+05 3.29092922e+05 3.12728330e+05 
        </DataArray>
      </PointData>
    </Piece>
    <Piece NumberOfPoints="4" NumberOfCells="3">
      <Points>
        <DataArray type="Float64" NumberOfComponents="3" format="ascii">
          9.66598373e-03 1.65232457e-02 0.00000000e+00 
1.28298048e-02 1.89677756e-02 0.00000000e+00 
1.61561389e-02 2.11867876e-02 0.00000000e+00 
1.96009967e-02 2.32173651e-02 0.00000000e+00 

        </DataArray>
      </Points>
      <Cells>
        <DataArray type="Int32" Name="connectivity" format="ascii">
0 1
1 2
2 3

        </DataArray>
        <DataArray type="Int32" Name="offsets" format="ascii">
2 4 6 
        </DataArray>
        <DataArray type="UInt8" Name="types" format="ascii">
3 3 3 
        </DataArray>
      </Cells>
      <PointData>
        <DataArray type="Float64" Name="rho">
          1.34977029e+00 1.29730245e+00 1.25832920e+00 1.22402183e+00 
        </DataArray>
        <DataArray type="Float64" Name="rhou">
          3.84776028e-01 -1.67862480e-02 -1.98304010e-01 -2.18838555e-01 
        </DataArray>
        <DataArray type="Float64" Name="rhov">
          -1.42397054e+00 -1.31934094e+00 -9.89417472e-01 -6.64192379e-01 
        </DataArray>
        <DataArray type="Float64" Name="E">
          3.12676125e+05 2.99853250e+05 2.90278828e+05 2.81876771e+05 
        </DataArray>
      </PointData>
    </Piece>
    <Piece NumberOfPoints="4" NumberOfCells="3">
      <Points>
        <DataArray type="Float64" NumberOfComponents="3" format="ascii">
          1.96009967e-02 2.32173651e-02 0.00000000e+00 
2.31348258e-02 2.50891000e-02 0.00000000e+00 
2.67372411e-02 2.68253610e-02 0.00000000e+00 
3.03938854e-02 2.84444261e-02 0.00000000e+00 

        </DataArray>
      </Points>
      <Cells>
        <DataArray type="Int32" Name="connectivity" format="ascii">
0 1
1 2
2 3

        </DataArray>
        <DataArray type="Int32" Name="offsets" format="ascii">
2 4 6 
        </DataArray>
        <DataArray type="UInt8" Name="types" format="ascii">
3 3 3 
        </DataArray>
      </Cells>
      <PointData>
        <DataArray type="Float64" Name="rho">
          1.22408557e+00 1.19496658e+00 1.16892483e+00 1.14534176e+00 
        </DataArray>
        <DataArray type="Float64" Name="rhou">
          -2.31959123e-01 -2.18487681e-01 -1.73292597e-01 -1.31081647e-01 
        </DataArray>
        <DataArray type="Float64" Name="rhov">
          -6.82429186e-01 -4.31535405e-01 -2.45057384e-01 -1.32383029e-01 
        </DataArray>
        <DataArray type="Float64" Name="E">
          2.81891686e+05 2.74779802e+05 2.68442439e+05 2.62720477e+05 
        </DataArray>
      </PointData>
    </Piece>
    <Piece NumberOfPoints="4" NumberOfCells="3">
      <Points>
        <DataArray type="Float64" NumberOfComponents="3" format="ascii">
          3.03938854e-02 2.84444261e-02 0.00000000e+00 
3.40943485e-02 2.99607720e-02 0.00000000e+00 
3.78307216e-02 3.13864015e-02 0.00000000e+00 
4.15969416e-02 3.27312648e-02 0.00000000e+00 

        </DataArray>
      </Points>
      <Cells>
        <DataArray type="Int32" Name="connectivity" format="ascii">
0 1
1 2
2 3

        </DataArray>
        <DataArray type="Int32" Name="offsets" format="ascii">
2 4 6 
        </DataArray>
        <DataArray type="UInt8" Name="types" format="ascii">
3 3 3 
        </DataArray>
      </Cells>
      <PointData>
        <DataArray type="Float64" Name="rho">
          1.14534003e+00 1.12400211e+00 1.10462124e+00 1.08695419e+00 
        </DataArray>
        <DataArray type="Float64" Name="rhou">
          -1.29290923e-01 -8.91735798e-02 -5.64030667e-02 -3.34450687e-02 
        </DataArray>
        <DataArray type="Float64" Name="rhov">
          -1.30932474e-01 -5.48002124e-02 -7.71848617e-03 1.76823305e-02 
        </DataArray>
        <DataArray type="Float64" Name="E">
          2.62720325e+05 2.57561774e+05 2.52887655e+05 2.48634683e+05 
        </DataArray>
      </PointData>
    </Piece>
    <Piece NumberOfPoints="4" NumberOfCells="3">
      <Points>
        <DataArray type="Float64" NumberOfComponents="3" format="ascii">
          4.15969416e-02 3.27312648e-02 0.00000000e+00 
4.53883260e-02 3.40034962e-02 0.00000000e+00 
4.92011942e-02 3.52098532e-02 0.00000000e+00 
5.30325845e-02 3.63560505e-02 0.00000000e+00 

        </DataArray>
      </Points>
      <Cells>
        <DataArray type="Int32" Name="connectivity" format="ascii">
0 1
1 2
2 3

        </DataArray>
        <DataArray type="Int32" Name="offsets" format="ascii">
2 4 6 
        </DataArray>
        <DataArray type="UInt8" Name="types" format="ascii">
3 3 3 
        </DataArray>
      </Cells>
      <PointData>
        <DataArray type="Float64" Name="rho">
          1.08695475e+00 1.07081232e+00 1.05600628e+00 1.04237787e+00 
        </DataArray>
        <DataArray type="Float64" Name="rhou">
          -3.23078441e-02 -1.28777988e-02 1.55774484e-03 1.09400985e-02 
        </DataArray>
        <DataArray type="Float64" Name="rhov">
          1.75872135e-02 3.12876251e-02 3.79592554e-02 3.91277741e-02 
        </DataArray>
        <DataArray type="Float64" Name="E">
          2.48634893e+05 2.44757484e+05 2.41206619e+05 2.37942339e+05 
        </DataArray>
      </PointData>
    </Piece>
    <Piece NumberOfPoints="4" NumberOfCells="3">
      <Points>
        <DataArray type="Float64" NumberOfComponents="3" format="ascii">
          5.30325845e-02 3.63560505e-02 0.00000000e+00 
5.68800643e-02 3.74470428e-02 0.00000000e+00 
6.07415959e-02 3.84872220e-02 0.00000000e+00 
6.46155030e-02 3.94803248e-02 0.00000000e+00 

        </DataArray>
      </Points>
      <Cells>
        <DataArray type="Int32" Name="connectivity" format="ascii">
0 1
1 2
2 3

        </DataArray>
        <DataArray type="Int32" Name="offsets" format="ascii">
2 4 6 
        </DataArray>
        <DataArray type="UInt8" Name="types" format="ascii">
3 3 3 
        </DataArray>
      </Cells>
      <PointData>
        <DataArray type="Float64" Name="rho">
          1.04237856e+00 1.02983950e+00 1.01825761e+00 1.00749221e+00 
        </DataArray>
        <DataArray type="Float64" Name="rhou">
          1.12563439e-02 1.82526186e-02 2.37944459e-02 2.76293929e-02 
        </DataArray>
        <DataArray type="Float64" Name="rhov">
          3.88008404e-02 3.71468265e-02 3.51010113e-02 3.18815489e-02 
        </DataArray>
        <DataArray type="Float64" Name="E">
          2.37942497e+05 2.34943366e+05 2.32176003e+05 2.29606278e+05 
        </DataArray>
      </PointData>
    </Piece>
    <Piece NumberOfPoints="4" NumberOfCells="3">
      <Points>
        <DataArray type="Float64" NumberOfComponents="3" format="ascii">
          6.46155030e-02 3.94803248e-02 0.00000000e+00 
6.85004294e-02 4.04294394e-02 0.00000000e+00 
7.23951608e-02 4.13374715e-02 0.00000000e+00 
7.62986317e-02 4.22072113e-02 0.00000000e+00 

        </DataArray>
      </Points>
      <Cells>
        <DataArray type="Int32" Name="connectivity" format="ascii">
0 1
1 2
2 3

        </DataArray>
        <DataArray type="Int32" Name="offsets" format="ascii">
2 4 6 
        </DataArray>
        <DataArray type="UInt8" Name="types" format="ascii">
3 3 3 
        </DataArray>
      </Cells>
      <PointData>
        <DataArray type="Float64" Name="rho">
          1.00749292e+00 9.97502569e-01 9.88197857e-01 9.79523257e-01 
        </DataArray>
        <DataArray type="Float64" Name="rhou">
          2.74490229e-02 2.93971157e-02 3.04987382e-02 3.05951270e-02 
        </DataArray>
        <DataArray type="Float64" Name="rhov">
          3.15830612e-02 2.76839224e-02 2.43122887e-02 2.10081215e-02 
        </DataArray>
        <DataArray type="Float64" Name="E">
          2.29606425e+05 2.27224313e+05 2.25007525e+05 2.22942145e+05 
        </DataArray>
      </PointData>
    </Piece>
    <Piece NumberOfPoints="4" NumberOfCells="3">
      <Points>
        <DataArray type="Float64" NumberOfComponents="3" format="ascii">
          7.62986317e-02 4.22072113e-02 0.00000000e+00 
8.02098960e-02 4.30411920e-02 0.00000000e+00 
8.41281936e-02 4.38414887e-02 0.00000000e+00 
8.80528912e-02 4.46097627e-02 0.00000000e+00 

        </DataArray>
      </Points>
      <Cells>
        <DataArray type="Int32" Name="connectivity" format="ascii">
0 1
1 2
2 3

        </DataArray>
        <DataArray type="Int32" Name="offsets" format="ascii">
2 4 6 
        </DataArray>
        <DataArray type="UInt8" Name="types" format="ascii">
3 3 3 
        </DataArray>
      </Cells>
      <PointData>
        <DataArray type="Float64" Name="rho">
          9.79522314e-01 9.71431551e-01 9.63829880e-01 9.56671504e-01 
        </DataArray>
        <DataArray type="Float64" Name="rhou">
          3.04480553e-02 3.04760992e-02 3.02051679e-02 2.91447669e-02 
        </DataArray>
        <DataArray type="Float64" Name="rhov">
          2.08448589e-02 1.82878109e-02 1.57813689e-02 1.31034089e-02 
        </DataArray>
        <DataArray type="Float64" Name="E">
          2.22941909e+05 2.21017038e+05 2.19209805e+05 2.17509115e+05 
        </DataArray>
      </PointData>
    </Piece>
    <Piece NumberOfPoints="4" NumberOfCells="3">
      <Points>
        <DataArray type="Float64" NumberOfComponents="3" format="ascii">
          8.80528912e-02 4.46097627e-02 0.00000000e+00 
9.19835642e-02 4.53475714e-02 0.00000000e+00 
9.59195644e-02 4.60564308e-02 0.00000000e+00 
9.98597518e-02 4.67394181e-02 0.00000000e+00 

        </DataArray>
      </Points>
      <Cells>
        <DataArray type="Int32" Name="connectivity" format="ascii">
0 1
1 2
2 3

        </DataArray>
        <DataArray type="Int32" Name="offsets" format="ascii">
2 4 6 
        </DataArray>
        <DataArray type="UInt8" Name="types" format="ascii">
3 3 3 
        </DataArray>
      </Cells>
      <PointData>
        <DataArray type="Float64" Name="rho">
          9.56672010e-01 9.49946930e-01 9.43642490e-01 9.37659062e-01 
        </DataArray>
        <DataArray type="Float64" Name="rhou">
          2.89519431e-02 2.75324879e-02 2.40666268e-02 2.85813865e-02 
        </DataArray>
        <DataArray type="Float64" Name="rhov">
          1.32662661e-02 1.06933792e-02 9.11273189e-03 8.61546486e-03 
        </DataArray>
        <DataArray type="Float64" Name="E">
          2.17509232e+05 2.15912709e+05 2.14416490e+05 2.12997494e+05 
        </DataArray>
      </PointData>
    </Piece>
    <Piece NumberOfPoints="4" NumberOfCells="3">
      <Points>
        <DataArray type="Float64" NumberOfComponents="3" format="ascii">
          9.98597518e-02 4.67394181e-02 0.00000000e+00 
1.10118888e-01 4.83862534e-02 0.00000000e+00 
1.20400399e-01 4.98730615e-02 0.00000000e+00 
1.30701363e-01 5.12186773e-02 0.00000000e+00 

        </DataArray>
      </Points>
      <Cells>
        <DataArray type="Int32" Name="connectivity" format="ascii">
0 1
1 2
2 3

        </DataArray>
        <DataArray type="Int32" Name="offsets" format="ascii">
2 4 6 
        </DataArray>
        <DataArray type="UInt8" Name="types" format="ascii">
3 3 3 
        </DataArray>
      </Cells>
      <PointData>
        <DataArray type="Float64" Name="rho">
          9.37586441e-01 9.23631005e-01 9.11592687e-01 9.01245042e-01 
        </DataArray>
        <DataArray type="Float64" Name="rhou">
          2.63131999e-02 1.81476207e-02 1.60212401e-02 1.25599564e-02 
        </DataArray>
        <DataArray type="Float64" Name="rhov">
          7.38187143e-03 4.15880049e-03 3.65249857e-03 2.98281063e-03 
        </DataArray>
        <DataArray type="Float64" Name="E">
          2.12981090e+05 2.09675448e+05 2.06827403e+05 2.04381987e+05 
        </DataArray>
      </PointData>
    </Piece>
    <Piece NumberOfPoints="4" NumberOfCells="3">
      <Points>
        <DataArray type="Float64" NumberOfComponents="3" format="ascii">
          1.30701363e-01 5.12186773e-02 0.00000000e+00 
1.41019106e-01 5.24347536e-02 0.00000000e+00 
1.51350453e-01 5.35292812e-02 0.00000000e+00 
1.61692888e-01 5.45137413e-02 0.00000000e+00 

        </DataArray>
      </Points>
      <Cells>
        <DataArray type="Int32" Name="connectivity" format="ascii">
0 1
1 2
2 3

        </DataArray>
        <DataArray type="Int32" Name="offsets" format="ascii">
2 4 6 
        </DataArray>
        <DataArray type="UInt8" Name="types" format="ascii">
3 3 3 
        </DataArray>
      </Cells>
      <PointData>
        <DataArray type="Float64" Name="rho">
          9.01241552e-01 8.92158032e-01 8.84314164e-01 8.77601695e-01 
        </DataArray>
        <DataArray type="Float64" Name="rhou">
          1.39401013e-02 1.20448750e-02 9.97180905e-03 8.70704206e-03 
        </DataArray>
        <DataArray type="Float64" Name="rhov">
          3.48143955e-03 2.55685938e-03 1.78068594e-03 1.60494172e-03 
        </DataArray>
        <DataArray type="Float64" Name="E">
          2.04381149e+05 2.02237863e+05 2.00389512e+05 1.98809489e+05 
        </DataArray>
      </PointData>
    </Piece>
    <Piece NumberOfPoints="4" NumberOfCells="3">
      <Points>
        <DataArray type="Float64" NumberOfComponents="3" format="ascii">
          1.61692888e-01 5.45137413e-02 0.00000000e+00 
1.72044471e-01 5.53969070e-02 0.00000000e+00 
1.82403773e-01 5.61845005e-02 0.00000000e+00 
1.92769483e-01 5.68825118e-02 0.00000000e+00 

        </DataArray>
      </Points>
      <Cells>
        <DataArray type="Int32" Name="connectivity" format="ascii">
0 1
1 2
2 3

        </DataArray>
        <DataArray type="Int32" Name="offsets" format="ascii">
2 4 6 
        </DataArray>
        <DataArray type="UInt8" Name="types" format="ascii">
3 3 3 
        </DataArray>
      </Cells>
      <PointData>
        <DataArray type="Float64" Name="rho">
          8.77599291e-01 8.71823327e-01 8.66893345e-01 8.62756770e-01 
        </DataArray>
        <DataArray type="Float64" Name="rhou">
          8.74370362e-03 7.61300048e-03 6.57903548e-03 5.67679714e-03 
        </DataArray>
        <DataArray type="Float64" Name="rhov">
          1.65647021e-03 1.29197213e-03 9.13764231e-04 6.84993132e-04 
        </DataArray>
        <DataArray type="Float64" Name="E">
          1.98808950e+05 1.97451323e+05 1.96294575e+05 1.95325770e+05 
        </DataArray>
      </PointData>
    </Piece>
    <Piece NumberOfPoints="4" NumberOfCells="3">
      <Points>
        <DataArray type="Float64" NumberOfComponents="3" format="ascii">
          1.92769483e-01 5.68825118e-02 0.00000000e+00 
2.03140482e-01 5.74972220e-02 0.00000000e+00 
2.13515818e-01 5.80338500e-02 0.00000000e+00 
2.23894730e-01 5.84962890e-02 0.00000000e+00 

        </DataArray>
      </Points>
      <Cells>
        <DataArray type="Int32" Name="connectivity" format="ascii">
0 1
1 2
2 3

        </DataArray>
        <DataArray type="Int32" Name="offsets" format="ascii">
2 4 6 
        </DataArray>
        <DataArray type="UInt8" Name="types" format="ascii">
3 3 3 
        </DataArray>
      </Cells>
      <PointData>
        <DataArray type="Float64" Name="rho">
          8.62756081e-01 8.59333262e-01 8.56540281e-01 8.54318889e-01 
        </DataArray>
        <DataArray type="Float64" Name="rhou">
          5.71346497e-03 4.99224042e-03 4.43611854e-03 3.97594190e-03 
        </DataArray>
        <DataArray type="Float64" Name="rhov">
          7.26299800e-04 6.36391240e-04 5.20665666e-04 3.97750043e-04 
        </DataArray>
        <DataArray type="Float64" Name="E">
          1.95325612e+05 1.94525656e+05 1.93874803e+05 1.93359188e+05 
        </DataArray>
      </PointData>
    </Piece>
    <Piece NumberOfPoints="4" NumberOfCells="3">
      <Points>
        <DataArray type="Float64" NumberOfComponents="3" format="ascii">
          2.23894730e-01 5.84962890e-02 0.00000000e+00 
2.34276548e-01 5.88882305e-02 0.00000000e+00 
2.44660646e-01 5.92139624e-02 0.00000000e+00 
2.55046517e-01 5.94772622e-02 0.00000000e+00 

        </DataArray>
      </Points>
      <Cells>
        <DataArray type="Int32" Name="connectivity" format="ascii">
0 1
1 2
2 3

        </DataArray>
        <DataArray type="Int32" Name="offsets" format="ascii">
2 4 6 
        </DataArray>
        <DataArray type="UInt8" Name="types" format="ascii">
3 3 3 
        </DataArray>
      </Cells>
      <PointData>
        <DataArray type="Float64" Name="rho">
          8.54319458e-01 8.52627410e-01 8.51420221e-01 8.50642525e-01 
        </DataArray>
        <DataArray type="Float64" Name="rhou">
          3.98359580e-03 3.46278224e-03 3.08509898e-03 2.85600618e-03 
        </DataArray>
        <DataArray type="Float64" Name="rhov">
          4.12095447e-04 3.34013691e-04 3.16613873e-04 3.15027001e-04 
        </DataArray>
        <DataArray type="Float64" Name="E">
          1.93359318e+05 1.92968745e+05 1.92692597e+05 1.92517821e+05 
        </DataArray>
      </PointData>
    </Piece>
    <Piece NumberOfPoints="4" NumberOfCells="3">
      <Points>
        <DataArray type="Float64" NumberOfComponents="3" format="ascii">
          2.55046517e-01 5.94772622e-02 0.00000000e+00 
2.65433758e-01 5.96804135e-02 0.00000000e+00 
2.75821954e-01 5.98256700e-02 0.00000000e+00 
2.86210775e-01 5.99167012e-02 0.00000000e+00 

        </DataArray>
      </Points>
      <Cells>
        <DataArray type="Int32" Name="connectivity" format="ascii">
0 1
1 2
2 3

        </DataArray>
        <DataArray type="Int32" Name="offsets" format="ascii">
2 4 6 
        </DataArray>
        <DataArray type="UInt8" Name="types" format="ascii">
3 3 3 
        </DataArray>
      </Cells>
      <PointData>
        <DataArray type="Float64" Name="rho">
          8.50642536e-01 8.50246035e-01 8.50205990e-01 8.50501938e-01 
        </DataArray>
        <DataArray type="Float64" Name="rhou">
          2.85029667e-03 2.56413475e-03 2.27102851e-03 2.00831019e-03 
        </DataArray>
        <DataArray type="Float64" Name="rhov">
          3.26296466e-04 2.30924387e-04 1.72684579e-04 2.06272184e-04 
        </DataArray>
        <DataArray type="Float64" Name="E">
          1.92517828e+05 1.92433059e+05 1.92432360e+05 1.92510691e+05 
        </DataArray>
      </PointData>
    </Piece>
    <Piece NumberOfPoints="4" NumberOfCells="3">
      <Points>
        <DataArray type="Float64" NumberOfComponents="3" format="ascii">
          2.86210775e-01 5.99167012e-02 0.00000000e+00 
2.96599895e-01 5.99572174e-02 0.00000000e+00 
3.06989133e-01 5.99487796e-02 0.00000000e+00 
3.17378193e-01 5.98919280e-02 0.00000000e+00 

        </DataArray>
      </Points>
      <Cells>
        <DataArray type="Int32" Name="connectivity" format="ascii">
0 1
1 2
2 3

        </DataArray>
        <DataArray type="Int32" Name="offsets" format="ascii">
2 4 6 
        </DataArray>
        <DataArray type="UInt8" Name="types" format="ascii">
3 3 3 
        </DataArray>
      </Cells>
      <PointData>
        <DataArray type="Float64" Name="rho">
          8.50500919e-01 8.51083744e-01 8.51906642e-01 8.52954447e-01 
        </DataArray>
        <DataArray type="Float64" Name="rhou">
          2.02714539e-03 1.91213854e-03 1.78631490e-03 1.60535945e-03 
        </DataArray>
        <DataArray type="Float64" Name="rhov">
          2.22591524e-04 2.49516983e-04 1.95306796e-04 1.21133900e-04 
        </DataArray>
        <DataArray type="Float64" Name="E">
          1.92510459e+05 1.92656279e+05 1.92858753e+05 1.93114229e+05 
        </DataArray>
      </PointData>
    </Piece>
    <Piece NumberOfPoints="4" NumberOfCells="3">
      <Points>
        <DataArray type="Float64" NumberOfComponents="3" format="ascii">
          3.17378193e-01 5.98919280e-02 0.00000000e+00 
3.27766895e-01 5.97884916e-02 0.00000000e+00 
3.38155061e-01 5.96415885e-02 0.00000000e+00 
3.48542601e-01 5.94538599e-02 0.00000000e+00 

        </DataArray>
      </Points>
      <Cells>
        <DataArray type="Int32" Name="connectivity" format="ascii">
0 1
1 2
2 3

        </DataArray>
        <DataArray type="Int32" Name="offsets" format="ascii">
2 4 6 
        </DataArray>
        <DataArray type="UInt8" Name="types" format="ascii">
3 3 3 
        </DataArray>
      </Cells>
      <PointData>
        <DataArray type="Float64" Name="rho">
          8.52954792e-01 8.54214668e-01 8.55666320e-01 8.57276859e-01 
        </DataArray>
        <DataArray type="Float64" Name="rhou">
          1.63473151e-03 1.43961641e-03 1.32346806e-03 1.27731715e-03 
        </DataArray>
        <DataArray type="Float64" Name="rhov">
          1.28776038e-04 1.17353084e-04 1.42800045e-04 1.63250077e-04 
        </DataArray>
        <DataArray type="Float64" Name="E">
          1.93114306e+05 1.93419636e+05 1.93769976e+05 1.94157640e+05 
        </DataArray>
      </PointData>
    </Piece>
    <Piece NumberOfPoints="4" NumberOfCells="3">
      <Points>
        <DataArray type="Float64" NumberOfComponents="3" format="ascii">
          3.48542601e-01 5.94538599e-02 0.00000000e+00 
3.58929336e-01 5.92265576e-02 0.00000000e+00 
3.69315147e-01 5.89610897e-02 0.00000000e+00 
3.79699975e-01 5.86590059e-02 0.00000000e+00 

        </DataArray>
      </Points>
      <Cells>
        <DataArray type="Int32" Name="connectivity" format="ascii">
0 1
1 2
2 3

        </DataArray>
        <DataArray type="Int32" Name="offsets" format="ascii">
2 4 6 
        </DataArray>
        <DataArray type="UInt8" Name="types" format="ascii">
3 3 3 
        </DataArray>
      </Cells>
      <PointData>
        <DataArray type="Float64" Name="rho">
          8.57277104e-01 8.59020995e-01 8.60888433e-01 8.62859468e-01 
        </DataArray>
        <DataArray type="Float64" Name="rhou">
          1.28957843e-03 1.16633047e-03 1.07316081e-03 1.02545264e-03 
        </DataArray>
        <DataArray type="Float64" Name="rhov">
          1.60177754e-04 1.24135148e-04 1.16582398e-04 1.14893667e-04 
        </DataArray>
        <DataArray type="Float64" Name="E">
          1.94157697e+05 1.94576711e+05 1.95024694e+05 1.95496976e+05 
        </DataArray>
      </PointData>
    </Piece>
    <Piece NumberOfPoints="4" NumberOfCells="3">
      <Points>
        <DataArray type="Float64" NumberOfComponents="3" format="ascii">
          3.79699975e-01 5.86590059e-02 0.00000000e+00 
3.90083700e-01 5.83211333e-02 0.00000000e+00 
4.00466233e-01 5.79482466e-02 0.00000000e+00 
4.10847515e-01 5.75418957e-02 0.00000000e+00 

        </DataArray>
      </Points>
      <Cells>
        <DataArray type="Int32" Name="connectivity" format="ascii">
0 1
1 2
2 3

        </DataArray>
        <DataArray type="Int32" Name="offsets" format="ascii">
2 4 6 
        </DataArray>
        <DataArray type="UInt8" Name="types" format="ascii">
3 3 3 
        </DataArray>
      </Cells>
      <PointData>
        <DataArray type="Float64" Name="rho">
          8.62859480e-01 8.64917163e-01 8.67051468e-01 8.69255723e-01 
        </DataArray>
        <DataArray type="Float64" Name="rhou">
          1.01778389e-03 9.54050850e-04 8.75950067e-04 8.00641616e-04 
        </DataArray>
        <DataArray type="Float64" Name="rhov">
          1.17328232e-04 8.69992012e-05 6.41489558e-05 6.93622229e-05 
        </DataArray>
        <DataArray type="Float64" Name="E">
          1.95496980e+05 1.95989592e+05 1.96500156e+05 1.97027046e+05 
        </DataArray>
      </PointData>
    </Piece>
    <Piece NumberOfPoints="4" NumberOfCells="3">
      <Points>
        <DataArray type="Float64" NumberOfComponents="3" format="ascii">
          4.10847515e-01 5.75418957e-02 0.00000000e+00 
4.21227485e-01 5.71038015e-02 0.00000000e+00 
4.31606144e-01 5.66351078e-02 0.00000000e+00 
4.41983402e-01 5.61364293e-02 0.00000000e+00 

        </DataArray>
      </Points>
      <Cells>
        <DataArray type="Int32" Name="connectivity" format="ascii">
0 1
1 2
2 3

        </DataArray>
        <DataArray type="Int32" Name="offsets" format="ascii">
2 4 6 
        </DataArray>
        <DataArray type="UInt8" Name="types" format="ascii">
3 3 3 
        </DataArray>
      </Cells>
      <PointData>
        <DataArray type="Float64" Name="rho">
          8.69255523e-01 8.71514069e-01 8.73815187e-01 8.76149139e-01 
        </DataArray>
        <DataArray type="Float64" Name="rhou">
          8.17116649e-04 7.65993262e-04 7.27351557e-04 6.90680124e-04 
        </DataArray>
        <DataArray type="Float64" Name="rhov">
          7.27855451e-05 7.27562285e-05 6.30657879e-05 4.20403791e-05 
        </DataArray>
        <DataArray type="Float64" Name="E">
          1.97027000e+05 1.97566552e+05 1.98116026e+05 1.98673138e+05 
        </DataArray>
      </PointData>
    </Piece>
    <Piece NumberOfPoints="4" NumberOfCells="3">
      <Points>
        <DataArray type="Float64" NumberOfComponents="3" format="ascii">
          4.41983402e-01 5.61364293e-02 0.00000000e+00 
4.52359200e-01 5.56085743e-02 0.00000000e+00 
4.62733537e-01 5.50529286e-02 0.00000000e+00 
4.73106444e-01 5.44707514e-02 0.00000000e+00 

        </DataArray>
      </Points>
      <Cells>
        <DataArray type="Int32" Name="connectivity" format="ascii">
0 1
1 2
2 3

        </DataArray>
        <DataArray type="Int32" Name="offsets" format="ascii">
2 4 6 
        </DataArray>
        <DataArray type="UInt8" Name="types" format="ascii">
3 3 3 
        </DataArray>
      </Cells>
      <PointData>
        <DataArray type="Float64" Name="rho">
          8.76149280e-01 8.78511537e-01 8.80895581e-01 8.83292889e-01 
        </DataArray>
        <DataArray type="Float64" Name="rhou">
          6.87690394e-04 6.32313423e-04 5.92753936e-04 5.69642323e-04 
        </DataArray>
        <DataArray type="Float64" Name="rhov">
          4.26913591e-05 3.51826591e-05 3.55195624e-05 3.56257015e-05 
        </DataArray>
        <DataArray type="Float64" Name="E">
          1.98673170e+05 1.99236822e+05 1.99805470e+05 2.00377119e+05 
        </DataArray>
      </PointData>
    </Piece>
    <Piece NumberOfPoints="4" NumberOfCells="3">
      <Points>
        <DataArray type="Float64" NumberOfComponents="3" format="ascii">
          4.73106444e-01 5.44707514e-02 0.00000000e+00 
4.83477861e-01 5.38627952e-02 0.00000000e+00 
4.93847787e-01 5.32294959e-02 0.00000000e+00 
5.04216135e-01 5.25716618e-02 0.00000000e+00 

        </DataArray>
      </Points>
      <Cells>
        <DataArray type="Int32" Name="connectivity" format="ascii">
0 1
1 2
2 3

        </DataArray>
        <DataArray type="Int32" Name="offsets" format="ascii">
2 4 6 
        </DataArray>
        <DataArray type="UInt8" Name="types" format="ascii">
3 3 3 
        </DataArray>
      </Cells>
      <PointData>
        <DataArray type="Float64" Name="rho">
          8.83292876e-01 8.85696555e-01 8.88101192e-01 8.90505616e-01 
        </DataArray>
        <DataArray type="Float64" Name="rhou">
          5.62074100e-04 5.41425355e-04 5.06703391e-04 4.65516537e-04 
        </DataArray>
        <DataArray type="Float64" Name="rhov">
          3.74338800e-05 2.60113771e-05 1.11508710e-05 8.45154291e-06 
        </DataArray>
        <DataArray type="Float64" Name="E">
          2.00377116e+05 2.00950154e+05 2.01523314e+05 2.02096290e+05 
        </DataArray>
      </PointData>
    </Piece>
    <Piece NumberOfPoints="4" NumberOfCells="3">
      <Points>
        <DataArray type="Float64" NumberOfComponents="3" format="ascii">
          5.04216135e-01 5.25716618e-02 0.00000000e+00 
5.14582992e-01 5.18903993e-02 0.00000000e+00 
5.24948359e-01 5.11864908e-02 0.00000000e+00 
5.35312176e-01 5.04603274e-02 0.00000000e+00 

        </DataArray>
      </Points>
      <Cells>
        <DataArray type="Int32" Name="connectivity" format="ascii">
0 1
1 2
2 3

        </DataArray>
        <DataArray type="Int32" Name="offsets" format="ascii">
2 4 6 
        </DataArray>
        <DataArray type="UInt8" Name="types" format="ascii">
3 3 3 
        </DataArray>
      </Cells>
      <PointData>
        <DataArray type="Float64" Name="rho">
          8.90505531e-01 8.92904317e-01 8.95292983e-01 8.97668042e-01 
        </DataArray>
        <DataArray type="Float64" Name="rhou">
          4.73989625e-04 4.48245085e-04 4.28861670e-04 4.09863965e-04 
        </DataArray>
        <DataArray type="Float64" Name="rhov">
          1.06078437e-05 1.01284166e-05 4.63947637e-06 -7.20727830e-06 
        </DataArray>
        <DataArray type="Float64" Name="E">
          2.02096271e+05 2.02667796e+05 2.03236826e+05 2.03802545e+05 
        </DataArray>
      </PointData>
    </Piece>
    <Piece NumberOfPoints="4" NumberOfCells="3">
      <Points>
        <DataArray type="Float64" NumberOfComponents="3" format="ascii">
          5.35312176e-01 5.04603274e-02 0.00000000e+00 
5.45674443e-01 4.97124642e-02 0.00000000e+00 
5.56035221e-01 4.89437394e-02 0.00000000e+00 
5.66394389e-01 4.81546782e-02 0.00000000e+00 

        </DataArray>
      </Points>
      <Cells>
        <DataArray type="Int32" Name="connectivity" format="ascii">
0 1
1 2
2 3

        </DataArray>
        <DataArray type="Int32" Name="offsets" format="ascii">
2 4 6 
        </DataArray>
        <DataArray type="UInt8" Name="types" format="ascii">
3 3 3 
        </DataArray>
      </Cells>
      <PointData>
        <DataArray type="Float64" Name="rho">
          8.97668087e-01 9.00028847e-01 9.02372394e-01 9.04695872e-01 
        </DataArray>
        <DataArray type="Float64" Name="rhou">
          4.05623916e-04 3.79592185e-04 3.61512881e-04 3.50047876e-04 
        </DataArray>
        <DataArray type="Float64" Name="rhov">
          -6.91817817e-06 -7.76709220e-06 -8.62866925e-06 -1.29612954e-05 
        </DataArray>
        <DataArray type="Float64" Name="E">
          2.03802555e+05 2.04364786e+05 2.04922847e+05 2.05476077e+05 
        </DataArray>
      </PointData>
    </Piece>
    <Piece NumberOfPoints="4" NumberOfCells="3">
      <Points>
        <DataArray type="Float64" NumberOfComponents="3" format="ascii">
          5.66394389e-01 4.81546782e-02 0.00000000e+00 
5.76752067e-01 4.73455116e-02 0.00000000e+00 
5.87108195e-01 4.65166979e-02 0.00000000e+00 
5.97462773e-01 4.56690118e-02 0.00000000e+00 

        </DataArray>
      </Points>
      <Cells>
        <DataArray type="Int32" Name="connectivity" format="ascii">
0 1
1 2
2 3

        </DataArray>
        <DataArray type="Int32" Name="offsets" format="ascii">
2 4 6 
        </DataArray>
        <DataArray type="UInt8" Name="types" format="ascii">
3 3 3 
        </DataArray>
      </Cells>
      <PointData>
        <DataArray type="Float64" Name="rho">
          9.04695901e-01 9.06997640e-01 9.09277325e-01 9.11534076e-01 
        </DataArray>
        <DataArray type="Float64" Name="rhou">
          3.49358676e-04 3.29325170e-04 3.08609622e-04 2.92902017e-04 
        </DataArray>
        <DataArray type="Float64" Name="rhov">
          -1.26203971e-05 -2.13054452e-05 -2.49611553e-05 -2.39194016e-05 
        </DataArray>
        <DataArray type="Float64" Name="E">
          2.05476084e+05 2.06024093e+05 2.06566799e+05 2.07103991e+05 
        </DataArray>
      </PointData>
    </Piece>
    <Piece NumberOfPoints="4" NumberOfCells="3">
      <Points>
        <DataArray type="Float64" NumberOfComponents="3" format="ascii">
          5.97462773e-01 4.56690118e-02 0.00000000e+00 
6.07815862e-01 4.48031016e-02 0.00000000e+00 
6.18167400e-01 4.39192392e-02 0.00000000e+00 
6.28517449e-01 4.30175588e-02 0.00000000e+00 

        </DataArray>
      </Points>
      <Cells>
        <DataArray type="Int32" Name="connectivity" format="ascii">
0 1
1 2
2 3

        </DataArray>
        <DataArray type="Int32" Name="offsets" format="ascii">
2 4 6 
        </DataArray>
        <DataArray type="UInt8" Name="types" format="ascii">
3 3 3 
        </DataArray>
      </Cells>
      <PointData>
        <DataArray type="Float64" Name="rho">
          9.11534014e-01 9.13765979e-01 9.15971394e-01 9.18150444e-01 
        </DataArray>
        <DataArray type="Float64" Name="rhou">
          2.90972852e-04 2.82498069e-04 2.70758394e-04 2.53846598e-04 
        </DataArray>
        <DataArray type="Float64" Name="rhov">
          -2.29975924e-05 -2.35953006e-05 -2.92973584e-05 -3.47557759e-05 
        </DataArray>
        <DataArray type="Float64" Name="E">
          2.07103977e+05 2.07635229e+05 2.08160135e+05 2.08678735e+05 
        </DataArray>
      </PointData>
    </Piece>
    <Piece NumberOfPoints="4" NumberOfCells="3">
      <Points>
        <DataArray type="Float64" NumberOfComponents="3" format="ascii">
          6.28517449e-01 4.30175588e-02 0.00000000e+00 
6.38865948e-01 4.20984775e-02 0.00000000e+00 
6.49212897e-01 4.11624312e-02 0.00000000e+00 
6.59558356e-01 4.02097441e-02 0.00000000e+00 

        </DataArray>
      </Points>
      <Cells>
        <DataArray type="Int32" Name="connectivity" format="ascii">
0 1
1 2
2 3

        </DataArray>
        <DataArray type="Int32" Name="offsets" format="ascii">
2 4 6 
        </DataArray>
        <DataArray type="UInt8" Name="types" format="ascii">
3 3 3 
        </DataArray>
      </Cells>
      <PointData>
        <DataArray type="Float64" Name="rho">
          9.18150436e-01 9.20302970e-01 9.22428192e-01 9.24525834e-01 
        </DataArray>
        <DataArray type="Float64" Name="rhou">
          2.54798877e-04 2.42230557e-04 2.31482925e-04 2.19936451e-04 
        </DataArray>
        <DataArray type="Float64" Name="rhov">
          -3.37444209e-05 -3.45766603e-05 -3.65638622e-05 -3.89254012e-05 
        </DataArray>
        <DataArray type="Float64" Name="E">
          2.08678733e+05 2.09190989e+05 2.09696720e+05 2.10195862e+05 
        </DataArray>
      </PointData>
    </Piece>
    <Piece NumberOfPoints="4" NumberOfCells="3">
      <Points>
        <DataArray type="Float64" NumberOfComponents="3" format="ascii">
          6.59558356e-01 4.02097441e-02 0.00000000e+00 
6.69902325e-01 3.92407738e-02 0.00000000e+00 
6.80244744e-01 3.82556282e-02 0.00000000e+00 
6.90585554e-01 3.72543521e-02 0.00000000e+00 

        </DataArray>
      </Points>
      <Cells>
        <DataArray type="Int32" Name="connectivity" format="ascii">
0 1
1 2
2 3

        </DataArray>
        <DataArray type="Int32" Name="offsets" format="ascii">
2 4 6 
        </DataArray>
        <DataArray type="UInt8" Name="types" format="ascii">
3 3 3 
        </DataArray>
      </Cells>
      <PointData>
        <DataArray type="Float64" Name="rho">
          9.24525817e-01 9.26595922e-01 9.28637408e-01 9.30651112e-01 
        </DataArray>
        <DataArray type="Float64" Name="rhou">
          2.16744448e-04 2.11822635e-04 2.03325186e-04 1.88887727e-04 
        </DataArray>
        <DataArray type="Float64" Name="rhov">
          -3.78965582e-05 -3.80181806e-05 -4.26063339e-05 -4.63880600e-05 
        </DataArray>
        <DataArray type="Float64" Name="E">
          2.10195858e+05 2.10688422e+05 2.11174164e+05 2.11653275e+05 
        </DataArray>
      </PointData>
    </Piece>
    <Piece NumberOfPoints="4" NumberOfCells="3">
      <Points>
        <DataArray type="Float64" NumberOfComponents="3" format="ascii">
          6.90585554e-01 3.72543521e-02 0.00000000e+00 
7.00924933e-01 3.62373814e-02 0.00000000e+00 
7.11262703e-01 3.52048986e-02 0.00000000e+00 
7.21598923e-01 3.41568366e-02 0.00000000e+00 

        </DataArray>
      </Points>
      <Cells>
        <DataArray type="Int32" Name="connectivity" format="ascii">
0 1
1 2
2 3

        </DataArray>
        <DataArray type="Int32" Name="offsets" format="ascii">
2 4 6 
        </DataArray>
        <DataArray type="UInt8" Name="types" format="ascii">
3 3 3 
        </DataArray>
      </Cells>
      <PointData>
        <DataArray type="Float64" Name="rho">
          9.30651070e-01 9.32637451e-01 9.34595376e-01 9.36525540e-01 
        </DataArray>
        <DataArray type="Float64" Name="rhou">
          1.87504715e-04 1.82446959e-04 1.77212735e-04 1.64259044e-04 
        </DataArray>
        <DataArray type="Float64" Name="rhov">
          -4.52771467e-05 -4.29388204e-05 -4.64091217e-05 -5.12855536e-05 
        </DataArray>
        <DataArray type="Float64" Name="E">
          2.11653265e+05 2.12125850e+05 2.12591654e+05 2.13050836e+05 
        </DataArray>
      </PointData>
    </Piece>
    <Piece NumberOfPoints="4" NumberOfCells="3">
      <Points>
        <DataArray type="Float64" NumberOfComponents="3" format="ascii">
          7.21598923e-01 3.41568366e-02 0.00000000e+00 
7.31933594e-01 3.30936089e-02 0.00000000e+00 
7.42266715e-01 3.20154354e-02 0.00000000e+00 
7.52598286e-01 3.09220124e-02 0.00000000e+00 

        </DataArray>
      </Points>
      <Cells>
        <DataArray type="Int32" Name="connectivity" format="ascii">
0 1
1 2
2 3

        </DataArray>
        <DataArray type="Int32" Name="offsets" format="ascii">
2 4 6 
        </DataArray>
        <DataArray type="UInt8" Name="types" format="ascii">
3 3 3 
        </DataArray>
      </Cells>
      <PointData>
        <DataArray type="Float64" Name="rho">
          9.36525519e-01 9.38429003e-01 9.40304531e-01 9.42152682e-01 
        </DataArray>
        <DataArray type="Float64" Name="rhou">
          1.61623614e-04 1.57371134e-04 1.54343028e-04 1.43948117e-04 
        </DataArray>
        <DataArray type="Float64" Name="rhov">
          -5.03215298e-05 -4.60064390e-05 -4.84255994e-05 -5.36689854e-05 
        </DataArray>
        <DataArray type="Float64" Name="E">
          2.13050832e+05 2.13503640e+05 2.13949788e+05 2.14389408e+05 
        </DataArray>
      </PointData>
    </Piece>
    <Piece NumberOfPoints="4" NumberOfCells="3">
      <Points>
        <DataArray type="Float64" NumberOfComponents="3" format="ascii">
          7.52598286e-01 3.09220124e-02 0.00000000e+00 
7.62928188e-01 2.98135038e-02 0.00000000e+00 
7.73256481e-01 2.86899786e-02 0.00000000e+00 
7.83583105e-01 2.75512449e-02 0.00000000e+00 

        </DataArray>
      </Points>
      <Cells>
        <DataArray type="Int32" Name="connectivity" format="ascii">
0 1
1 2
2 3

        </DataArray>
        <DataArray type="Int32" Name="offsets" format="ascii">
2 4 6 
        </DataArray>
        <DataArray type="UInt8" Name="types" format="ascii">
3 3 3 
        </DataArray>
      </Cells>
      <PointData>
        <DataArray type="Float64" Name="rho">
          9.42152677e-01 9.43974654e-01 9.45769717e-01 9.47538626e-01 
        </DataArray>
        <DataArray type="Float64" Name="rhou">
          1.41389011e-04 1.37431078e-04 1.33329640e-04 1.23770770e-04 
        </DataArray>
        <DataArray type="Float64" Name="rhov">
          -5.27569134e-05 -5.06032939e-05 -5.29489173e-05 -5.63247815e-05 
        </DataArray>
        <DataArray type="Float64" Name="E">
          2.14389407e+05 2.14822776e+05 2.15249726e+05 2.15670430e+05 
        </DataArray>
      </PointData>
    </Piece>
    <Piece NumberOfPoints="4" NumberOfCells="3">
      <Points>
        <DataArray type="Float64" NumberOfComponents="3" format="ascii">
          7.83583105e-01 2.75512449e-02 0.00000000e+00 
7.93908060e-01 2.63975188e-02 0.00000000e+00 
8.04231405e-01 2.52291560e-02 0.00000000e+00 
8.14553022e-01 2.40457114e-02 0.00000000e+00 

        </DataArray>
      </Points>
      <Cells>
        <DataArray type="Int32" Name="connectivity" format="ascii">
0 1
1 2
2 3

        </DataArray>
        <DataArray type="Int32" Name="offsets" format="ascii">
2 4 6 
        </DataArray>
        <DataArray type="UInt8" Name="types" format="ascii">
3 3 3 
        </DataArray>
      </Cells>
      <PointData>
        <DataArray type="Float64" Name="rho">
          9.47538632e-01 9.49282211e-01 9.51000442e-01 9.52692751e-01 
        </DataArray>
        <DataArray type="Float64" Name="rhou">
          1.26318715e-04 1.15426685e-04 1.14061087e-04 1.14717542e-04 
        </DataArray>
        <DataArray type="Float64" Name="rhov">
          -5.66710100e-05 -5.31424283e-05 -5.20473892e-05 -5.86263878e-05 
        </DataArray>
        <DataArray type="Float64" Name="E">
          2.15670432e+05 2.16085079e+05 2.16493663e+05 2.16896053e+05 
        </DataArray>
      </PointData>
    </Piece>
    <Piece NumberOfPoints="4" NumberOfCells="3">
      <Points>
        <DataArray type="Float64" NumberOfComponents="3" format="ascii">
          8.14553022e-01 2.40457114e-02 0.00000000e+00 
8.24872792e-01 2.28467938e-02 0.00000000e+00 
8.35190892e-01 2.16327831e-02 0.00000000e+00 
8.45507145e-01 2.04038676e-02 0.00000000e+00 

        </DataArray>
      </Points>
      <Cells>
        <DataArray type="Int32" Name="connectivity" format="ascii">
0 1
1 2
2 3

        </DataArray>
        <DataArray type="Int32" Name="offsets" format="ascii">
2 4 6 
        </DataArray>
        <DataArray type="UInt8" Name="types" format="ascii">
3 3 3 
        </DataArray>
      </Cells>
      <PointData>
        <DataArray type="Float64" Name="rho">
          9.52692794e-01 9.54360893e-01 9.56005132e-01 9.57625718e-01 
        </DataArray>
        <DataArray type="Float64" Name="rhou">
          1.08877079e-04 1.00353984e-04 9.30558751e-05 9.32839880e-05 
        </DataArray>
        <DataArray type="Float64" Name="rhov">
          -5.88780453e-05 -5.89505524e-05 -5.63110790e-05 -5.25750061e-05 
        </DataArray>
        <DataArray type="Float64" Name="E">
          2.16896063e+05 2.17292644e+05 2.17683490e+05 2.18068641e+05 
        </DataArray>
      </PointData>
    </Piece>
    <Piece NumberOfPoints="4" NumberOfCells="3">
      <Points>
        <DataArray type="Float64" NumberOfComponents="3" format="ascii">
          8.45507145e-01 2.04038676e-02 0.00000000e+00 
8.55821550e-01 1.91591792e-02 0.00000000e+00 
8.66134048e-01 1.78987328e-02 0.00000000e+00 
8.76444638e-01 1.66228991e-02 0.00000000e+00 

        </DataArray>
      </Points>
      <Cells>
        <DataArray type="Int32" Name="connectivity" format="ascii">
0 1
1 2
2 3

        </DataArray>
        <DataArray type="Int32" Name="offsets" format="ascii">
2 4 6 
        </DataArray>
        <DataArray type="UInt8" Name="types" format="ascii">
3 3 3 
        </DataArray>
      </Cells>
      <PointData>
        <DataArray type="Float64" Name="rho">
          9.57625829e-01 9.59221468e-01 9.60796073e-01 9.62346222e-01 
        </DataArray>
        <DataArray type="Float64" Name="rhou">
          1.14575612e-04 8.28595336e-05 8.10380636e-05 9.66272901e-05 
        </DataArray>
        <DataArray type="Float64" Name="rhov">
          -5.61922203e-05 -6.37533159e-05 -6.13368600e-05 -7.92386846e-05 
        </DataArray>
        <DataArray type="Float64" Name="E">
          2.18068666e+05 2.18447821e+05 2.18821857e+05 2.19189984e+05 
        </DataArray>
      </PointData>
    </Piece>
    <Piece NumberOfPoints="4" NumberOfCells="3">
      <Points>
        <DataArray type="Float64" NumberOfComponents="3" format="ascii">
          8.76444638e-01 1.66228991e-02 0.00000000e+00 
8.86753201e-01 1.53310820e-02 0.00000000e+00 
8.97059798e-01 1.40233757e-02 0.00000000e+00 
9.07364249e-01 1.26988320e-02 0.00000000e+00 

        </DataArray>
      </Points>
      <Cells>
        <DataArray type="Int32" Name="connectivity" format="ascii">
0 1
1 2
2 3

        </DataArray>
        <DataArray type="Int32" Name="offsets" format="ascii">
2 4 6 
        </DataArray>
        <DataArray type="UInt8" Name="types" format="ascii">
3 3 3 
        </DataArray>
      </Cells>
      <PointData>
        <DataArray type="Float64" Name="rho">
          9.62345769e-01 9.63878190e-01 9.65385350e-01 9.66886160e-01 
        </DataArray>
        <DataArray type="Float64" Name="rhou">
          3.87444660e-06 9.66553418e-05 4.03438289e-05 -1.36467854e-05 
        </DataArray>
        <DataArray type="Float64" Name="rhov">
          -7.11959533e-05 -7.48102510e-05 -9.40951785e-05 5.59401091e-06 
        </DataArray>
        <DataArray type="Float64" Name="E">
          2.19189881e+05 2.19553622e+05 2.19911254e+05 2.20267088e+05 
        </DataArray>
      </PointData>
    </Piece>
    <Piece NumberOfPoints="4" NumberOfCells="3">
      <Points>
        <DataArray type="Float64" NumberOfComponents="3" format="ascii">
          9.07364249e-01 1.26988320e-02 0.00000000e+00 
9.17666554e-01 1.13577880e-02 0.00000000e+00 
9.27966774e-01 1.00004105e-02 0.00000000e+00 
9.38264549e-01 8.62528384e-03 0.00000000e+00 

        </DataArray>
      </Points>
      <Cells>
        <DataArray type="Int32" Name="connectivity" format="ascii">
0 1
1 2
2 3

        </DataArray>
        <DataArray type="Int32" Name="offsets" format="ascii">
2 4 6 
        </DataArray>
        <DataArray type="UInt8" Name="types" format="ascii">
3 3 3 
        </DataArray>
      </Cells>
      <PointData>
        <DataArray type="Float64" Name="rho">
          9.66891071e-01 9.68342729e-01 9.69818874e-01 9.71146953e-01 
        </DataArray>
        <DataArray type="Float64" Name="rhou">
          8.03851000e-04 -2.14284881e-04 3.40980699e-04 7.69786095e-04 
        </DataArray>
        <DataArray type="Float64" Name="rhov">
          -6.44994849e-05 -1.17938376e-04 -4.62656429e-05 -1.47661603e-03 
        </DataArray>
        <DataArray type="Float64" Name="E">
          2.20268205e+05 2.20612510e+05 2.20962109e+05 2.21277788e+05 
        </DataArray>
      </PointData>
    </Piece>
    <Piece NumberOfPoints="4" NumberOfCells="3">
      <Points>
        <DataArray type="Float64" NumberOfComponents="3" format="ascii">
          9.38264549e-01 8.62528384e-03 0.00000000e+00 
9.48560059e-01 7.23283459e-03 0.00000000e+00 
9.58853185e-01 5.82307298e-03 0.00000000e+00 
9.69143867e-01 4.39538015e-03 0.00000000e+00 

        </DataArray>
      </Points>
      <Cells>
        <DataArray type="Int32" Name="connectivity" format="ascii">
0 1
1 2
2 3

        </DataArray>
        <DataArray type="Int32" Name="offsets" format="ascii">
2 4 6 
        </DataArray>
        <DataArray type="UInt8" Name="types" format="ascii">
3 3 3 
        </DataArray>
      </Cells>
      <PointData>
        <DataArray type="Float64" Name="rho">
          9.71098989e-01 9.72749969e-01 9.73984228e-01 9.76677107e-01 
        </DataArray>
        <DataArray type="Float64" Name="rhou">
          -6.74635418e-03 2.15345149e-03 -3.18765181e-03 -1.91748044e-02 
        </DataArray>
        <DataArray type="Float64" Name="rhov">
          -1.09871811e-03 1.31963218e-04 -1.14085256e-03 1.90942539e-02 
        </DataArray>
        <DataArray type="Float64" Name="E">
          2.21266861e+05 2.21656080e+05 2.21950612e+05 2.22578137e+05 
        </DataArray>
      </PointData>
    </Piece>
    <Piece NumberOfPoints="4" NumberOfCells="3">
      <Points>
        <DataArray type="Float64" NumberOfComponents="3" format="ascii">
          9.69143867e-01 4.39538015e-03 0.00000000e+00 
9.79435980e-01 2.94816052e-03 0.00000000e+00 
9.89725590e-01 1.48259092e-03 0.00000000e+00 
1.00000000e+00 0.00000000e+00 0.00000000e+00 

        </DataArray>
      </Points>
      <Cells>
        <DataArray type="Int32" Name="connectivity" format="ascii">
0 1
1 2
2 3

        </DataArray>
        <DataArray type="Int32" Name="offsets" format="ascii">
2 4 6 
        </DataArray>
        <DataArray type="UInt8" Name="types" format="ascii">
3 3 3 
        </DataArray>
      </Cells>
      <PointData>
        <DataArray type="Float64" Name="rho">
          9.76974225e-01 9.76553534e-01 9.80382595e-01 9.70376506e-01 
        </DataArray>
        <DataArray type="Float64" Name="rhou">
          -1.51878593e-03 -9.63212861e-03 -3.78768023e-02 5.00616870e-01 
        </DataArray>
        <DataArray type="Float64" Name="rhov">
          2.14088705e-02 1.00885214e-03 5.27909329e-02 -1.38450623e-01 
        </DataArray>
        <DataArray type="Float64" Name="E">
          2.22645842e+05 2.22564948e+05 2.23454180e+05 2.21193119e+05 
        </DataArray>
      </PointData>
    </Piece>
    <Piece NumberOfPoints="4" NumberOfCells="3">
      <Points>
        <DataArray type="Float64" NumberOfComponents="3" format="ascii">
          9.69029665e-01 -4.41133138e-03 0.00000000e+00 
9.79355037e-01 -2.95961346e-03 0.00000000e+00 
9.89677846e-01 -1.48943183e-03 0.00000000e+00 
1.00000000e+00 0.00000000e+00 0.00000000e+00 

        </DataArray>
      </Points>
      <Cells>
        <DataArray type="Int32" Name="connectivity" format="ascii">
0 1
1 2
2 3

        </DataArray>
        <DataArray type="Int32" Name="offsets" format="ascii">
2 4 6 
        </DataArray>
        <DataArray type="UInt8" Name="types" format="ascii">
3 3 3 
        </DataArray>
      </Cells>
      <PointData>
        <DataArray type="Float64" Name="rho">
          9.75837934e-01 9.75478555e-01 9.79266115e-01 9.70525426e-01 
        </DataArray>
        <DataArray type="Float64" Name="rhou">
          -9.28760162e-04 -7.58938025e-03 -3.58349396e-02 4.61315564e-01 
        </DataArray>
        <DataArray type="Float64" Name="rhov">
          -2.36179915e-02 2.09579656e-03 -4.91517315e-02 1.44072461e-01 
        </DataArray>
        <DataArray type="Float64" Name="E">
          2.22394970e+05 2.22325426e+05 2.23202120e+05 2.21227019e+05 
        </DataArray>
      </PointData>
    </Piece>
    <Piece NumberOfPoints="4" NumberOfCells="3">
      <Points>
        <DataArray type="Float64" NumberOfComponents="3" format="ascii">
          9.38035965e-01 -8.65600072e-03 0.00000000e+00 
9.48369622e-01 -7.25875143e-03 0.00000000e+00 
9.58700895e-01 -5.84406452e-03 0.00000000e+00 
9.69029665e-01 -4.41133138e-03 0.00000000e+00 

        </DataArray>
      </Points>
      <Cells>
        <DataArray type="Int32" Name="connectivity" format="ascii">
0 1
1 2
2 3

        </DataArray>
        <DataArray type="Int32" Name="offsets" format="ascii">
2 4 6 
        </DataArray>
        <DataArray type="UInt8" Name="types" format="ascii">
3 3 3 
        </DataArray>
      </Cells>
      <PointData>
        <DataArray type="Float64" Name="rho">
          9.70130340e-01 9.71735995e-01 9.72939788e-01 9.75545098e-01 
        </DataArray>
        <DataArray type="Float64" Name="rhou">
          -6.36855825e-03 2.31219511e-03 -2.63826324e-03 -1.72222591e-02 
        </DataArray>
        <DataArray type="Float64" Name="rhov">
          1.10665730e-03 -1.70949739e-04 1.35275841e-03 -1.76026311e-02 
        </DataArray>
        <DataArray type="Float64" Name="E">
          2.21059417e+05 2.21437040e+05 2.21722959e+05 2.22328292e+05 
        </DataArray>
      </PointData>
    </Piece>
    <Piece NumberOfPoints="4" NumberOfCells="3">
      <Points>
        <DataArray type="Float64" NumberOfComponents="3" format="ascii">
          9.07021165e-01 -1.27432076e-02 0.00000000e+00 
9.17361677e-01 -1.13977119e-02 0.00000000e+00 
9.27700043e-01 -1.00357840e-02 0.00000000e+00 
9.38035965e-01 -8.65600072e-03 0.00000000e+00 

        </DataArray>
      </Points>
      <Cells>
        <DataArray type="Int32" Name="connectivity" format="ascii">
0 1
1 2
2 3

        </DataArray>
        <DataArray type="Int32" Name="offsets" format="ascii">
2 4 6 
        </DataArray>
        <DataArray type="UInt8" Name="types" format="ascii">
3 3 3 
        </DataArray>
      </Cells>
      <PointData>
        <DataArray type="Float64" Name="rho">
          9.66071058e-01 9.67465503e-01 9.68891031e-01 9.70177160e-01 
        </DataArray>
        <DataArray type="Float64" Name="rhou">
          9.25575226e-04 -7.19140074e-05 4.94046511e-04 8.88985167e-04 
        </DataArray>
        <DataArray type="Float64" Name="rhov">
          5.24436818e-05 7.97286884e-05 -7.48778941e-06 1.39415687e-03 
        </DataArray>
        <DataArray type="Float64" Name="E">
          2.20097043e+05 2.20427605e+05 2.20764899e+05 2.21070077e+05 
        </DataArray>
      </PointData>
    </Piece>
    <Piece NumberOfPoints="4" NumberOfCells="3">
      <Points>
        <DataArray type="Float64" NumberOfComponents="3" format="ascii">
          8.75986874e-01 -1.66798849e-02 0.00000000e+00 
8.86333704e-01 -1.53839625e-02 0.00000000e+00 
8.96678507e-01 -1.40720531e-02 0.00000000e+00 
9.07021165e-01 -1.27432076e-02 0.00000000e+00 

        </DataArray>
      </Points>
      <Cells>
        <DataArray type="Int32" Name="connectivity" format="ascii">
0 1
1 2
2 3

        </DataArray>
        <DataArray type="Int32" Name="offsets" format="ascii">
2 4 6 
        </DataArray>
        <DataArray type="UInt8" Name="types" format="ascii">
3 3 3 
        </DataArray>
      </Cells>
      <PointData>
        <DataArray type="Float64" Name="rho">
          9.61767604e-01 9.63208340e-01 9.64635618e-01 9.66066143e-01 
        </DataArray>
        <DataArray type="Float64" Name="rhou">
          1.54900433e-04 2.34696475e-04 1.86225379e-04 1.33464692e-04 
        </DataArray>
        <DataArray type="Float64" Name="rhov">
          7.08830300e-05 6.25255259e-05 7.76802231e-05 -1.67361390e-05 
        </DataArray>
        <DataArray type="Float64" Name="E">
          2.19076329e+05 2.19418232e+05 2.19756841e+05 2.20095926e+05 
        </DataArray>
      </PointData>
    </Piece>
    <Piece NumberOfPoints="4" NumberOfCells="3">
      <Points>
        <DataArray type="Float64" NumberOfComponents="3" format="ascii">
          8.44934702e-01 -2.04724707e-02 0.00000000e+00 
8.55287313e-01 -1.92240477e-02 0.00000000e+00 
8.65638077e-01 -1.79597028e-02 0.00000000e+00 
8.75986874e-01 -1.66798849e-02 0.00000000e+00 

        </DataArray>
      </Points>
      <Cells>
        <DataArray type="Int32" Name="connectivity" format="ascii">
0 1
1 2
2 3

        </DataArray>
        <DataArray type="Int32" Name="offsets" format="ascii">
2 4 6 
        </DataArray>
        <DataArray type="UInt8" Name="types" format="ascii">
3 3 3 
        </DataArray>
      </Cells>
      <PointData>
        <DataArray type="Float64" Name="rho">
          9.57403743e-01 9.58865794e-01 9.60322937e-01 9.61768028e-01 
        </DataArray>
        <DataArray type="Float64" Name="rhou">
          2.89828504e-04 2.30569163e-04 2.17936663e-04 2.55450608e-04 
        </DataArray>
        <DataArray type="Float64" Name="rhov">
          4.52925650e-05 6.58030999e-05 5.54599870e-05 7.39717617e-05 
        </DataArray>
        <DataArray type="Float64" Name="E">
          2.18040040e+05 2.18387322e+05 2.18733333e+05 2.19076425e+05 
        </DataArray>
      </PointData>
    </Piece>
    <Piece NumberOfPoints="4" NumberOfCells="3">
      <Points>
        <DataArray type="Float64" NumberOfComponents="3" format="ascii">
          8.13865662e-01 -2.41250079e-02 0.00000000e+00 
8.24223816e-01 -2.29226518e-02 0.00000000e+00 
8.34580123e-01 -2.17050612e-02 0.00000000e+00 
8.44934702e-01 -2.04724707e-02 0.00000000e+00 

        </DataArray>
      </Points>
      <Cells>
        <DataArray type="Int32" Name="connectivity" format="ascii">
0 1
1 2
2 3

        </DataArray>
        <DataArray type="Int32" Name="offsets" format="ascii">
2 4 6 
        </DataArray>
        <DataArray type="UInt8" Name="types" format="ascii">
3 3 3 
        </DataArray>
      </Cells>
      <PointData>
        <DataArray type="Float64" Name="rho">
          9.52954596e-01 9.54445490e-01 9.55928677e-01 9.57403515e-01 
        </DataArray>
        <DataArray type="Float64" Name="rhou">
          2.67116922e-04 2.51522381e-04 2.35943732e-04 2.40919843e-04 
        </DataArray>
        <DataArray type="Float64" Name="rhov">
          5.61419198e-05 5.69870613e-05 4.96372969e-05 3.78076246e-05 
        </DataArray>
        <DataArray type="Float64" Name="E">
          2.16983066e+05 2.17337300e+05 2.17689659e+05 2.18039988e+05 
        </DataArray>
      </PointData>
    </Piece>
    <Piece NumberOfPoints="4" NumberOfCells="3">
      <Points>
        <DataArray type="Float64" NumberOfComponents="3" format="ascii">
          7.82780826e-01 -2.76402626e-02 0.00000000e+00 
7.93144107e-01 -2.64833923e-02 0.00000000e+00 
8.03505778e-01 -2.53117718e-02 0.00000000e+00 
8.13865662e-01 -2.41250079e-02 0.00000000e+00 

        </DataArray>
      </Points>
      <Cells>
        <DataArray type="Int32" Name="connectivity" format="ascii">
0 1
1 2
2 3

        </DataArray>
        <DataArray type="Int32" Name="offsets" format="ascii">
2 4 6 
        </DataArray>
        <DataArray type="UInt8" Name="types" format="ascii">
3 3 3 
        </DataArray>
      </Cells>
      <PointData>
        <DataArray type="Float64" Name="rho">
          9.48429994e-01 9.49946843e-01 9.51455917e-01 9.52954488e-01 
        </DataArray>
        <DataArray type="Float64" Name="rhou">
          2.89045551e-04 2.67887945e-04 2.67171529e-04 2.76227641e-04 
        </DataArray>
        <DataArray type="Float64" Name="rhov">
          5.25016725e-05 4.42355221e-05 3.99220176e-05 5.43747644e-05 
        </DataArray>
        <DataArray type="Float64" Name="E">
          2.15907885e+05 2.16268355e+05 2.16626948e+05 2.16983041e+05 
        </DataArray>
      </PointData>
    </Piece>
    <Piece NumberOfPoints="4" NumberOfCells="3">
      <Points>
        <DataArray type="Float64" NumberOfComponents="3" format="ascii">
          7.51680970e-01 -3.10197193e-02 0.00000000e+00 
7.62049198e-01 -2.99084149e-02 0.00000000e+00 
7.72415876e-01 -2.87819952e-02 0.00000000e+00 
7.82780826e-01 -2.76402626e-02 0.00000000e+00 

        </DataArray>
      </Points>
      <Cells>
        <DataArray type="Int32" Name="connectivity" format="ascii">
0 1
1 2
2 3

        </DataArray>
        <DataArray type="Int32" Name="offsets" format="ascii">
2 4 6 
        </DataArray>
        <DataArray type="UInt8" Name="types" format="ascii">
3 3 3 
        </DataArray>
      </Cells>
      <PointData>
        <DataArray type="Float64" Name="rho">
          9.43835271e-01 9.45374850e-01 9.46906298e-01 9.48429957e-01 
        </DataArray>
        <DataArray type="Float64" Name="rhou">
          3.03032673e-04 2.98711505e-04 2.92999581e-04 2.78674361e-04 
        </DataArray>
        <DataArray type="Float64" Name="rhov">
          4.48537151e-05 3.84109938e-05 4.24422196e-05 5.02847068e-05 
        </DataArray>
        <DataArray type="Float64" Name="E">
          2.14815813e+05 2.15181758e+05 2.15545754e+05 2.15907877e+05 
        </DataArray>
      </PointData>
    </Piece>
    <Piece NumberOfPoints="4" NumberOfCells="3">
      <Points>
        <DataArray type="Float64" NumberOfComponents="3" format="ascii">
          7.20566452e-01 -3.42622213e-02 0.00000000e+00 
7.30939507e-01 -3.31965312e-02 0.00000000e+00 
7.41311073e-01 -3.21157984e-02 0.00000000e+00 
7.51680970e-01 -3.10197193e-02 0.00000000e+00 

        </DataArray>
      </Points>
      <Cells>
        <DataArray type="Int32" Name="connectivity" format="ascii">
0 1
1 2
2 3

        </DataArray>
        <DataArray type="Int32" Name="offsets" format="ascii">
2 4 6 
        </DataArray>
        <DataArray type="UInt8" Name="types" format="ascii">
3 3 3 
        </DataArray>
      </Cells>
      <PointData>
        <DataArray type="Float64" Name="rho">
          9.39179157e-01 9.40738209e-01 9.42290417e-01 9.43835263e-01 
        </DataArray>
        <DataArray type="Float64" Name="rhou">
          3.29187360e-04 3.22292223e-04 3.19314738e-04 3.06208403e-04 
        </DataArray>
        <DataArray type="Float64" Name="rhov">
          4.08285449e-05 3.01560413e-05 3.30934169e-05 4.52674953e-05 
        </DataArray>
        <DataArray type="Float64" Name="E">
          2.13708901e+05 2.14079561e+05 2.14448571e+05 2.14815812e+05 
        </DataArray>
      </PointData>
    </Piece>
    <Piece NumberOfPoints="4" NumberOfCells="3">
      <Points>
        <DataArray type="Float64" NumberOfComponents="3" format="ascii">
          6.89437866e-01 -3.73662710e-02 0.00000000e+00 
6.99815631e-01 -3.63472365e-02 0.00000000e+00 
7.10191846e-01 -3.53125818e-02 0.00000000e+00 
7.20566452e-01 -3.42622213e-02 0.00000000e+00 

        </DataArray>
      </Points>
      <Cells>
        <DataArray type="Int32" Name="connectivity" format="ascii">
0 1
1 2
2 3

        </DataArray>
        <DataArray type="Int32" Name="offsets" format="ascii">
2 4 6 
        </DataArray>
        <DataArray type="UInt8" Name="types" format="ascii">
3 3 3 
        </DataArray>
      </Cells>
      <PointData>
        <DataArray type="Float64" Name="rho">
          9.34478119e-01 9.36049840e-01 9.37616948e-01 9.39179169e-01 
        </DataArray>
        <DataArray type="Float64" Name="rhou">
          3.62113492e-04 3.54911008e-04 3.47903646e-04 3.30141476e-04 
        </DataArray>
        <DataArray type="Float64" Name="rhov">
          3.22627861e-05 2.52333805e-05 3.01127433e-05 4.10393782e-05 
        </DataArray>
        <DataArray type="Float64" Name="E">
          2.12590963e+05 2.12964763e+05 2.13337431e+05 2.13708903e+05 
        </DataArray>
      </PointData>
    </Piece>
    <Piece NumberOfPoints="4" NumberOfCells="3">
      <Points>
        <DataArray type="Float64" NumberOfComponents="3" format="ascii">
          6.58295333e-01 -4.03269380e-02 0.00000000e+00 
6.68677747e-01 -3.93563360e-02 0.00000000e+00 
6.79058611e-01 -3.83694395e-02 0.00000000e+00 
6.89437866e-01 -3.73662710e-02 0.00000000e+00 

        </DataArray>
      </Points>
      <Cells>
        <DataArray type="Int32" Name="connectivity" format="ascii">
0 1
1 2
2 3

        </DataArray>
        <DataArray type="Int32" Name="offsets" format="ascii">
2 4 6 
        </DataArray>
        <DataArray type="UInt8" Name="types" format="ascii">
3 3 3 
        </DataArray>
      </Cells>
      <PointData>
        <DataArray type="Float64" Name="rho">
          9.29754162e-01 9.31330587e-01 9.32905223e-01 9.34478173e-01 
        </DataArray>
        <DataArray type="Float64" Name="rhou">
          3.98540216e-04 3.93091147e-04 3.80510459e-04 3.60158961e-04 
        </DataArray>
        <DataArray type="Float64" Name="rhov">
          2.05490869e-05 1.77366491e-05 2.46324247e-05 3.29973913e-05 
        </DataArray>
        <DataArray type="Float64" Name="E">
          2.11467138e+05 2.11842214e+05 2.12216821e+05 2.12590976e+05 
        </DataArray>
      </PointData>
    </Piece>
    <Piece NumberOfPoints="4" NumberOfCells="3">
      <Points>
        <DataArray type="Float64" NumberOfComponents="3" format="ascii">
          6.27138972e-01 -4.31386717e-02 0.00000000e+00 
6.37525976e-01 -4.22184542e-02 0.00000000e+00 
6.47911429e-01 -4.12811004e-02 0.00000000e+00 
6.58295333e-01 -4.03269380e-02 0.00000000e+00 

        </DataArray>
      </Points>
      <Cells>
        <DataArray type="Int32" Name="connectivity" format="ascii">
0 1
1 2
2 3

        </DataArray>
        <DataArray type="Int32" Name="offsets" format="ascii">
2 4 6 
        </DataArray>
        <DataArray type="UInt8" Name="types" format="ascii">
3 3 3 
        </DataArray>
      </Cells>
      <PointData>
        <DataArray type="Float64" Name="rho">
          9.25037211e-01 9.26606347e-01 9.28179254e-01 9.29754195e-01 
        </DataArray>
        <DataArray type="Float64" Name="rhou">
          4.48940945e-04 4.30568639e-04 4.13604265e-04 3.99376830e-04 
        </DataArray>
        <DataArray type="Float64" Name="rhov">
          1.63447893e-05 1.55125329e-05 1.71619059e-05 2.14147655e-05 
        </DataArray>
        <DataArray type="Float64" Name="E">
          2.10344425e+05 2.10717976e+05 2.11092351e+05 2.11467145e+05 
        </DataArray>
      </PointData>
    </Piece>
    <Piece NumberOfPoints="4" NumberOfCells="3">
      <Points>
        <DataArray type="Float64" NumberOfComponents="3" format="ascii">
          5.95968783e-01 -4.57924642e-02 0.00000000e+00 
6.06360376e-01 -4.49259281e-02 0.00000000e+00 
6.16750479e-01 -4.40412909e-02 0.00000000e+00 
6.27138972e-01 -4.31386717e-02 0.00000000e+00 

        </DataArray>
      </Points>
      <Cells>
        <DataArray type="Int32" Name="connectivity" format="ascii">
0 1
1 2
2 3

        </DataArray>
        <DataArray type="Int32" Name="offsets" format="ascii">
2 4 6 
        </DataArray>
        <DataArray type="UInt8" Name="types" format="ascii">
3 3 3 
        </DataArray>
      </Cells>
      <PointData>
        <DataArray type="Float64" Name="rho">
          9.20370736e-01 9.21918509e-01 9.23474401e-01 9.25037204e-01 
        </DataArray>
        <DataArray type="Float64" Name="rhou">
          4.92535463e-04 4.80867253e-04 4.64000874e-04 4.42436555e-04 
        </DataArray>
        <DataArray type="Float64" Name="rhov">
          3.71859664e-06 8.29542682e-07 7.49768661e-06 1.71469650e-05 
        </DataArray>
        <DataArray type="Float64" Name="E">
          2.09233024e+05 2.09601731e+05 2.09972293e+05 2.10344423e+05 
        </DataArray>
      </PointData>
    </Piece>
    <Piece NumberOfPoints="4" NumberOfCells="3">
      <Points>
        <DataArray type="Float64" NumberOfComponents="3" format="ascii">
          5.64784765e-01 -4.82786149e-02 0.00000000e+00 
5.75181007e-01 -4.74695377e-02 0.00000000e+00 
5.85575700e-01 -4.66405638e-02 0.00000000e+00 
5.95968783e-01 -4.57924642e-02 0.00000000e+00 

        </DataArray>
      </Points>
      <Cells>
        <DataArray type="Int32" Name="connectivity" format="ascii">
0 1
1 2
2 3

        </DataArray>
        <DataArray type="Int32" Name="offsets" format="ascii">
2 4 6 
        </DataArray>
        <DataArray type="UInt8" Name="types" format="ascii">
3 3 3 
        </DataArray>
      </Cells>
      <PointData>
        <DataArray type="Float64" Name="rho">
          9.15813591e-01 9.17315511e-01 9.18835213e-01 9.20370848e-01 
        </DataArray>
        <DataArray type="Float64" Name="rhou">
          5.67264919e-04 5.41584033e-04 5.09273593e-04 4.86330846e-04 
        </DataArray>
        <DataArray type="Float64" Name="rhov">
          -8.39937289e-06 3.03980632e-06 7.95730378e-06 4.64044619e-06 
        </DataArray>
        <DataArray type="Float64" Name="E">
          2.08146762e+05 2.08504886e+05 2.08867131e+05 2.09233050e+05 
        </DataArray>
      </PointData>
    </Piece>
    <Piece NumberOfPoints="4" NumberOfCells="3">
      <Points>
        <DataArray type="Float64" NumberOfComponents="3" format="ascii">
          5.33586800e-01 -5.05827516e-02 0.00000000e+00 
5.43987691e-01 -4.98356484e-02 0.00000000e+00 
5.54387033e-01 -4.90674041e-02 0.00000000e+00 
5.64784765e-01 -4.82786149e-02 0.00000000e+00 

        </DataArray>
      </Points>
      <Cells>
        <DataArray type="Int32" Name="connectivity" format="ascii">
0 1
1 2
2 3

        </DataArray>
        <DataArray type="Int32" Name="offsets" format="ascii">
2 4 6 
        </DataArray>
        <DataArray type="UInt8" Name="types" format="ascii">
3 3 3 
        </DataArray>
      </Cells>
      <PointData>
        <DataArray type="Float64" Name="rho">
          9.11438808e-01 9.12870774e-01 9.14330841e-01 9.15813551e-01 
        </DataArray>
        <DataArray type="Float64" Name="rhou">
          6.39940858e-04 6.00948127e-04 5.72772308e-04 5.61627348e-04 
        </DataArray>
        <DataArray type="Float64" Name="rhov">
          -7.85345953e-06 -7.71728640e-06 -1.06207970e-05 -8.03332846e-06 
        </DataArray>
        <DataArray type="Float64" Name="E">
          2.07102891e+05 2.07444721e+05 2.07793099e+05 2.08146753e+05 
        </DataArray>
      </PointData>
    </Piece>
    <Piece NumberOfPoints="4" NumberOfCells="3">
      <Points>
        <DataArray type="Float64" NumberOfComponents="3" format="ascii">
          5.02374947e-01 -5.26902266e-02 0.00000000e+00 
5.12780428e-01 -5.20105064e-02 0.00000000e+00 
5.23184419e-01 -5.13078682e-02 0.00000000e+00 
5.33586800e-01 -5.05827516e-02 0.00000000e+00 

        </DataArray>
      </Points>
      <Cells>
        <DataArray type="Int32" Name="connectivity" format="ascii">
0 1
1 2
2 3

        </DataArray>
        <DataArray type="Int32" Name="offsets" format="ascii">
2 4 6 
        </DataArray>
        <DataArray type="UInt8" Name="types" format="ascii">
3 3 3 
        </DataArray>
      </Cells>
      <PointData>
        <DataArray type="Float64" Name="rho">
          9.07346567e-01 9.08672889e-01 9.10038981e-01 9.11438713e-01 
        </DataArray>
        <DataArray type="Float64" Name="rhou">
          7.19732661e-04 6.84113877e-04 6.57103378e-04 6.37185783e-04 
        </DataArray>
        <DataArray type="Float64" Name="rhov">
          -1.75767208e-05 -2.38154381e-05 -2.22308717e-05 -8.29719266e-06 
        </DataArray>
        <DataArray type="Float64" Name="E">
          2.06125031e+05 2.06442139e+05 2.06768563e+05 2.07102869e+05 
        </DataArray>
      </PointData>
    </Piece>
    <Piece NumberOfPoints="4" NumberOfCells="3">
      <Points>
        <DataArray type="Float64" NumberOfComponents="3" format="ascii">
          4.71149325e-01 -5.45825884e-02 0.00000000e+00 
4.81559396e-01 -5.39771840e-02 0.00000000e+00 
4.91967946e-01 -5.33461571e-02 0.00000000e+00 
5.02374947e-01 -5.26902266e-02 0.00000000e+00 

        </DataArray>
      </Points>
      <Cells>
        <DataArray type="Int32" Name="connectivity" format="ascii">
0 1
1 2
2 3

        </DataArray>
        <DataArray type="Int32" Name="offsets" format="ascii">
2 4 6 
        </DataArray>
        <DataArray type="UInt8" Name="types" format="ascii">
3 3 3 
        </DataArray>
      </Cells>
      <PointData>
        <DataArray type="Float64" Name="rho">
          9.03668812e-01 9.04840695e-01 9.06067044e-01 9.07346656e-01 
        </DataArray>
        <DataArray type="Float64" Name="rhou">
          8.24699141e-04 8.02453930e-04 7.56296477e-04 7.00079079e-04 
        </DataArray>
        <DataArray type="Float64" Name="rhov">
          -4.22165108e-05 -3.58902818e-05 -1.86167462e-05 -1.47660859e-05 
        </DataArray>
        <DataArray type="Float64" Name="E">
          2.05244342e+05 2.05525204e+05 2.05818883e+05 2.06125052e+05 
        </DataArray>
      </PointData>
    </Piece>
    <Piece NumberOfPoints="4" NumberOfCells="3">
      <Points>
        <DataArray type="Float64" NumberOfComponents="3" format="ascii">
          4.39910263e-01 -5.62384278e-02 0.00000000e+00 
4.50324744e-01 -5.57143167e-02 0.00000000e+00 
4.60737765e-01 -5.51619194e-02 0.00000000e+00 
4.71149325e-01 -5.45825884e-02 0.00000000e+00 

        </DataArray>
      </Points>
      <Cells>
        <DataArray type="Int32" Name="connectivity" format="ascii">
0 1
1 2
2 3

        </DataArray>
        <DataArray type="Int32" Name="offsets" format="ascii">
2 4 6 
        </DataArray>
        <DataArray type="UInt8" Name="types" format="ascii">
3 3 3 
        </DataArray>
      </Cells>
      <PointData>
        <DataArray type="Float64" Name="rho">
          9.00565787e-01 9.01521729e-01 9.02559634e-01 9.03668887e-01 
        </DataArray>
        <DataArray type="Float64" Name="rhou">
          9.91170769e-04 9.14672547e-04 8.56892733e-04 8.30039926e-04 
        </DataArray>
        <DataArray type="Float64" Name="rhov">
          -3.50913272e-05 -2.60045142e-05 -3.24492501e-05 -3.96747273e-05 
        </DataArray>
        <DataArray type="Float64" Name="E">
          2.04498766e+05 2.04728859e+05 2.04978221e+05 2.05244359e+05 
        </DataArray>
      </PointData>
    </Piece>
    <Piece NumberOfPoints="4" NumberOfCells="3">
      <Points>
        <DataArray type="Float64" NumberOfComponents="3" format="ascii">
          4.08658355e-01 -5.76302819e-02 0.00000000e+00 
4.19077009e-01 -5.71971126e-02 0.00000000e+00 
4.29494321e-01 -5.67329265e-02 0.00000000e+00 
4.39910263e-01 -5.62384278e-02 0.00000000e+00 

        </DataArray>
      </Points>
      <Cells>
        <DataArray type="Int32" Name="connectivity" format="ascii">
0 1
1 2
2 3

        </DataArray>
        <DataArray type="Int32" Name="offsets" format="ascii">
2 4 6 
        </DataArray>
        <DataArray type="UInt8" Name="types" format="ascii">
3 3 3 
        </DataArray>
      </Cells>
      <PointData>
        <DataArray type="Float64" Name="rho">
          8.98249388e-01 8.98921331e-01 8.99697323e-01 9.00565556e-01 
        </DataArray>
        <DataArray type="Float64" Name="rhou">
          1.14507117e-03 1.07595182e-03 1.02486123e-03 9.85792402e-04 
        </DataArray>
        <DataArray type="Float64" Name="rhov">
          -4.34211425e-05 -5.57853384e-05 -5.49682941e-05 -3.49118613e-05 
        </DataArray>
        <DataArray type="Float64" Name="E">
          2.03938488e+05 2.04101615e+05 2.04289280e+05 2.04498713e+05 
        </DataArray>
      </PointData>
    </Piece>
    <Piece NumberOfPoints="4" NumberOfCells="3">
      <Points>
        <DataArray type="Float64" NumberOfComponents="3" format="ascii">
          3.77394795e-01 -5.87291755e-02 0.00000000e+00 
3.87817174e-01 -5.83979115e-02 0.00000000e+00 
3.98238391e-01 -5.80311492e-02 0.00000000e+00 
4.08658355e-01 -5.76302819e-02 0.00000000e+00 

        </DataArray>
      </Points>
      <Cells>
        <DataArray type="Int32" Name="connectivity" format="ascii">
0 1
1 2
2 3

        </DataArray>
        <DataArray type="Int32" Name="offsets" format="ascii">
2 4 6 
        </DataArray>
        <DataArray type="UInt8" Name="types" format="ascii">
3 3 3 
        </DataArray>
      </Cells>
      <PointData>
        <DataArray type="Float64" Name="rho">
          8.96986080e-01 8.97272571e-01 8.97694804e-01 8.98249600e-01 
        </DataArray>
        <DataArray type="Float64" Name="rhou">
          1.39260308e-03 1.31939423e-03 1.21839960e-03 1.11395656e-03 
        </DataArray>
        <DataArray type="Float64" Name="rhov">
          -8.65266290e-05 -5.88164679e-05 -3.11843905e-05 -3.85195339e-05 
        </DataArray>
        <DataArray type="Float64" Name="E">
          2.03626566e+05 2.03698751e+05 2.03803022e+05 2.03938537e+05 
        </DataArray>
      </PointData>
    </Piece>
    <Piece NumberOfPoints="4" NumberOfCells="3">
      <Points>
        <DataArray type="Float64" NumberOfComponents="3" format="ascii">
          3.46121490e-01 -5.95011823e-02 0.00000000e+00 
3.56546819e-01 -5.92821389e-02 0.00000000e+00 
3.66971314e-01 -5.90242445e-02 0.00000000e+00 
3.77394795e-01 -5.87291755e-02 0.00000000e+00 

        </DataArray>
      </Points>
      <Cells>
        <DataArray type="Int32" Name="connectivity" format="ascii">
0 1
1 2
2 3

        </DataArray>
        <DataArray type="Int32" Name="offsets" format="ascii">
2 4 6 
        </DataArray>
        <DataArray type="UInt8" Name="types" format="ascii">
3 3 3 
        </DataArray>
      </Cells>
      <PointData>
        <DataArray type="Float64" Name="rho">
          8.97070372e-01 8.96867437e-01 8.96845151e-01 8.96986171e-01 
        </DataArray>
        <DataArray type="Float64" Name="rhou">
          1.73398473e-03 1.59012436e-03 1.46176813e-03 1.39600260e-03 
        </DataArray>
        <DataArray type="Float64" Name="rhov">
          -1.21064190e-04 -7.92707930e-05 -7.19974350e-05 -8.18922519e-05 
        </DataArray>
        <DataArray type="Float64" Name="E">
          2.03633021e+05 2.03589572e+05 2.03588792e+05 2.03626585e+05 
        </DataArray>
      </PointData>
    </Piece>
    <Piece NumberOfPoints="4" NumberOfCells="3">
      <Points>
        <DataArray type="Float64" NumberOfComponents="3" format="ascii">
          3.14841360e-01 -5.99102043e-02 0.00000000e+00 
3.25268596e-01 -5.98174632e-02 0.00000000e+00 
3.35695356e-01 -5.96801341e-02 0.00000000e+00 
3.46121490e-01 -5.95011823e-02 0.00000000e+00 

        </DataArray>
      </Points>
      <Cells>
        <DataArray type="Int32" Name="connectivity" format="ascii">
0 1
1 2
2 3

        </DataArray>
        <DataArray type="Int32" Name="offsets" format="ascii">
2 4 6 
        </DataArray>
        <DataArray type="UInt8" Name="types" format="ascii">
3 3 3 
        </DataArray>
      </Cells>
      <PointData>
        <DataArray type="Float64" Name="rho">
          8.98909913e-01 8.98061830e-01 8.97457921e-01 8.97070082e-01 
        </DataArray>
        <DataArray type="Float64" Name="rhou">
          2.18291846e-03 1.93909453e-03 1.77461018e-03 1.69848751e-03 
        </DataArray>
        <DataArray type="Float64" Name="rhov">
          -5.81363648e-05 -3.48540149e-05 -6.70640426e-05 -1.20291803e-04 
        </DataArray>
        <DataArray type="Float64" Name="E">
          2.04054500e+05 2.03858498e+05 2.03720193e+05 2.03632955e+05 
        </DataArray>
      </PointData>
    </Piece>
    <Piece NumberOfPoints="4" NumberOfCells="3">
      <Points>
        <DataArray type="Float64" NumberOfComponents="3" format="ascii">
          2.83558637e-01 -5.98983802e-02 0.00000000e+00 
2.93986142e-01 -5.99516556e-02 0.00000000e+00 
3.04413795e-01 -5.99554181e-02 0.00000000e+00 
3.14841360e-01 -5.99102043e-02 0.00000000e+00 

        </DataArray>
      </Points>
      <Cells>
        <DataArray type="Int32" Name="connectivity" format="ascii">
0 1
1 2
2 3

        </DataArray>
        <DataArray type="Int32" Name="offsets" format="ascii">
2 4 6 
        </DataArray>
        <DataArray type="UInt8" Name="types" format="ascii">
3 3 3 
        </DataArray>
      </Cells>
      <PointData>
        <DataArray type="Float64" Name="rho">
          9.03021651e-01 9.01379872e-01 9.00014877e-01 8.98909202e-01 
        </DataArray>
        <DataArray type="Float64" Name="rhou">
          2.65965386e-03 2.49492428e-03 2.35755679e-03 2.17389385e-03 
        </DataArray>
        <DataArray type="Float64" Name="rhov">
          -1.15134745e-04 -1.81935999e-04 -1.46250882e-04 -5.15256274e-05 
        </DataArray>
        <DataArray type="Float64" Name="E">
          2.05014186e+05 2.04629895e+05 2.04311330e+05 2.04054338e+05 
        </DataArray>
      </PointData>
    </Piece>
    <Piece NumberOfPoints="4" NumberOfCells="3">
      <Points>
        <DataArray type="Float64" NumberOfComponents="3" format="ascii">
          2.52279758e-01 -5.94130717e-02 0.00000000e+00 
2.62705088e-01 -5.96327744e-02 0.00000000e+00 
2.73131490e-01 -5.97934239e-02 0.00000000e+00 
2.83558637e-01 -5.98983802e-02 0.00000000e+00 

        </DataArray>
      </Points>
      <Cells>
        <DataArray type="Int32" Name="connectivity" format="ascii">
0 1
1 2
2 3

        </DataArray>
        <DataArray type="Int32" Name="offsets" format="ascii">
2 4 6 
        </DataArray>
        <DataArray type="UInt8" Name="types" format="ascii">
3 3 3 
        </DataArray>
      </Cells>
      <PointData>
        <DataArray type="Float64" Name="rho">
          9.10026981e-01 9.07322152e-01 9.04990098e-01 9.03022571e-01 
        </DataArray>
        <DataArray type="Float64" Name="rhou">
          3.63143517e-03 3.32639027e-03 2.99112565e-03 2.64586363e-03 
        </DataArray>
        <DataArray type="Float64" Name="rhov">
          -2.63507793e-04 -1.71319067e-04 -8.41854759e-05 -9.59703310e-05 
        </DataArray>
        <DataArray type="Float64" Name="E">
          2.06659886e+05 2.06023535e+05 2.05475791e+05 2.05014398e+05 
        </DataArray>
      </PointData>
    </Piece>
    <Piece NumberOfPoints="4" NumberOfCells="3">
      <Points>
        <DataArray type="Float64" NumberOfComponents="3" format="ascii">
          2.21014455e-01 -5.83752058e-02 0.00000000e+00 
2.31433928e-01 -5.87876961e-02 0.00000000e+00 
2.41855890e-01 -5.91322705e-02 0.00000000e+00 
2.52279758e-01 -5.94130717e-02 0.00000000e+00 

        </DataArray>
      </Points>
      <Cells>
        <DataArray type="Int32" Name="connectivity" format="ascii">
0 1
1 2
2 3

        </DataArray>
        <DataArray type="Int32" Name="offsets" format="ascii">
2 4 6 
        </DataArray>
        <DataArray type="UInt8" Name="types" format="ascii">
3 3 3 
        </DataArray>
      </Cells>
      <PointData>
        <DataArray type="Float64" Name="rho">
          9.20709064e-01 9.16672405e-01 9.13127457e-01 9.10027163e-01 
        </DataArray>
        <DataArray type="Float64" Name="rhou">
          4.98408799e-03 4.39899905e-03 3.95285883e-03 3.66555548e-03 
        </DataArray>
        <DataArray type="Float64" Name="rhov">
          -3.69700393e-04 -2.65463449e-04 -2.33162257e-04 -2.47168147e-04 
        </DataArray>
        <DataArray type="Float64" Name="E">
          2.09179369e+05 2.08226400e+05 2.07390328e+05 2.06659923e+05 
        </DataArray>
      </PointData>
    </Piece>
    <Piece NumberOfPoints="4" NumberOfCells="3">
      <Points>
        <DataArray type="Float64" NumberOfComponents="3" format="ascii">
          1.89777538e-01 -5.66898957e-02 0.00000000e+00 
2.00185493e-01 -5.73302582e-02 0.00000000e+00 
2.10598081e-01 -5.78906052e-02 0.00000000e+00 
2.21014455e-01 -5.83752058e-02 0.00000000e+00 

        </DataArray>
      </Points>
      <Cells>
        <DataArray type="Int32" Name="connectivity" format="ascii">
0 1
1 2
2 3

        </DataArray>
        <DataArray type="Int32" Name="offsets" format="ascii">
2 4 6 
        </DataArray>
        <DataArray type="UInt8" Name="types" format="ascii">
3 3 3 
        </DataArray>
      </Cells>
      <PointData>
        <DataArray type="Float64" Name="rho">
          9.36154836e-01 9.30399647e-01 9.25270930e-01 9.20708305e-01 
        </DataArray>
        <DataArray type="Float64" Name="rhou">
          6.90640735e-03 6.10563216e-03 5.51997734e-03 5.04647897e-03 
        </DataArray>
        <DataArray type="Float64" Name="rhov">
          -6.51497482e-04 -5.80528737e-04 -4.80769720e-04 -3.57028140e-04 
        </DataArray>
        <DataArray type="Float64" Name="E">
          2.12833155e+05 2.11470575e+05 2.10257401e+05 2.09179195e+05 
        </DataArray>
      </PointData>
    </Piece>
    <Piece NumberOfPoints="4" NumberOfCells="3">
      <Points>
        <DataArray type="Float64" NumberOfComponents="3" format="ascii">
          1.58592433e-01 -5.42296544e-02 0.00000000e+00 
1.68979734e-01 -5.51457107e-02 0.00000000e+00 
1.79375216e-01 -5.59638515e-02 0.00000000e+00 
1.89777538e-01 -5.66898957e-02 0.00000000e+00 

        </DataArray>
      </Points>
      <Cells>
        <DataArray type="Int32" Name="connectivity" format="ascii">
0 1
1 2
2 3

        </DataArray>
        <DataArray type="Int32" Name="offsets" format="ascii">
2 4 6 
        </DataArray>
        <DataArray type="UInt8" Name="types" format="ascii">
3 3 3 
        </DataArray>
      </Cells>
      <PointData>
        <DataArray type="Float64" Name="rho">
          9.57929444e-01 9.49860132e-01 9.42618851e-01 9.36155254e-01 
        </DataArray>
        <DataArray type="Float64" Name="rhou">
          9.96567628e-03 8.89090869e-03 7.94075581e-03 6.97757134e-03 
        </DataArray>
        <DataArray type="Float64" Name="rhov">
          -1.40464601e-03 -1.21249747e-03 -8.81104196e-04 -6.11062931e-04 
        </DataArray>
        <DataArray type="Float64" Name="E">
          2.17997334e+05 2.16081900e+05 2.14364716e+05 2.12833255e+05 
        </DataArray>
      </PointData>
    </Piece>
    <Piece NumberOfPoints="4" NumberOfCells="3">
      <Points>
        <DataArray type="Float64" NumberOfComponents="3" format="ascii">
          1.27497971e-01 -5.08146733e-02 0.00000000e+00 
1.37849152e-01 -5.20747155e-02 0.00000000e+00 
1.48214847e-01 -5.32093942e-02 0.00000000e+00 
1.58592433e-01 -5.42296544e-02 0.00000000e+00 

        </DataArray>
      </Points>
      <Cells>
        <DataArray type="Int32" Name="connectivity" format="ascii">
0 1
1 2
2 3

        </DataArray>
        <DataArray type="Int32" Name="offsets" format="ascii">
2 4 6 
        </DataArray>
        <DataArray type="UInt8" Name="types" format="ascii">
3 3 3 
        </DataArray>
      </Cells>
      <PointData>
        <DataArray type="Float64" Name="rho">
          9.88458429e-01 9.77097704e-01 9.66942177e-01 9.57933493e-01 
        </DataArray>
        <DataArray type="Float64" Name="rhou">
          1.44978529e-02 1.33194156e-02 1.15139681e-02 9.99407980e-03 
        </DataArray>
        <DataArray type="Float64" Name="rhov">
          -2.28222391e-03 -2.03408703e-03 -1.41825714e-03 -1.33279982e-03 
        </DataArray>
        <DataArray type="Float64" Name="E">
          2.25256738e+05 2.22552811e+05 2.20138491e+05 2.17998263e+05 
        </DataArray>
      </PointData>
    </Piece>
    <Piece NumberOfPoints="4" NumberOfCells="3">
      <Points>
        <DataArray type="Float64" NumberOfComponents="3" format="ascii">
          9.65642184e-02 -4.61716652e-02 0.00000000e+00 
1.06852271e-01 -4.78802323e-02 0.00000000e+00 
1.17164567e-01 -4.94215861e-02 0.00000000e+00 
1.27497971e-01 -5.08146733e-02 0.00000000e+00 

        </DataArray>
      </Points>
      <Cells>
        <DataArray type="Int32" Name="connectivity" format="ascii">
0 1
1 2
2 3

        </DataArray>
        <DataArray type="Int32" Name="offsets" format="ascii">
2 4 6 
        </DataArray>
        <DataArray type="UInt8" Name="types" format="ascii">
3 3 3 
        </DataArray>
      </Cells>
      <PointData>
        <DataArray type="Float64" Name="rho">
          1.03185511e+00 1.01554853e+00 1.00111207e+00 9.88466776e-01 
        </DataArray>
        <DataArray type="Float64" Name="rhou">
          2.46736545e-02 1.80870046e-02 1.71729146e-02 1.28539722e-02 
        </DataArray>
        <DataArray type="Float64" Name="rhov">
          -9.31851069e-04 -7.37225667e-04 -1.55998020e-03 -1.60283848e-03 
        </DataArray>
        <DataArray type="Float64" Name="E">
          2.35611319e+05 2.31715817e+05 2.28272264e+05 2.25258750e+05 
        </DataArray>
      </PointData>
    </Piece>
  </UnstructuredGrid>
</VTKFile>
