<?xml version="1.0"?>
<VTKFile type="UnstructuredGrid" version="0.1" byte_order="LittleEndian">
  <UnstructuredGrid>
    <Piece NumberOfPoints="4" NumberOfCells="3">
      <Points>
        <DataArray type="Float64" NumberOfComponents="3" format="ascii">
          9.65642184e-02 -4.61716652e-02 0.00000000e+00 
9.26280916e-02 -4.54656407e-02 0.00000000e+00 
8.86965096e-02 -4.47326750e-02 0.00000000e+00 
8.47706869e-02 -4.39694971e-02 0.00000000e+00 

        </DataArray>
      </Points>
      <Cells>
        <DataArray type="Int32" Name="connectivity" format="ascii">
0 1
1 2
2 3

        </DataArray>
        <DataArray type="Int32" Name="offsets" format="ascii">
2 4 6 
        </DataArray>
        <DataArray type="UInt8" Name="types" format="ascii">
3 3 3 
        </DataArray>
      </Cells>
      <PointData>
        <DataArray type="Float64" Name="rho">
          1.03107988e+00 1.03799619e+00 1.04522748e+00 1.05290618e+00 
        </DataArray>
        <DataArray type="Float64" Name="rhou">
          2.82459212e-02 2.17624205e-02 2.44084750e-02 2.45873816e-02 
        </DataArray>
        <DataArray type="Float64" Name="rhov">
          -2.22211205e-03 -1.01079507e-03 -6.02559965e-04 -9.17428405e-04 
        </DataArray>
        <DataArray type="Float64" Name="E">
          2.35375564e+05 2.37028735e+05 2.38758843e+05 2.40596351e+05 
        </DataArray>
      </PointData>
    </Piece>
    <Piece NumberOfPoints="4" NumberOfCells="3">
      <Points>
        <DataArray type="Float64" NumberOfComponents="3" format="ascii">
          8.47706869e-02 -4.39694971e-02 0.00000000e+00 
8.08513016e-02 -4.31745499e-02 0.00000000e+00 
7.69388378e-02 -4.23462167e-02 0.00000000e+00 
7.30340332e-02 -4.14824970e-02 0.00000000e+00 

        </DataArray>
      </Points>
      <Cells>
        <DataArray type="Int32" Name="connectivity" format="ascii">
0 1
1 2
2 3

        </DataArray>
        <DataArray type="Int32" Name="offsets" format="ascii">
2 4 6 
        </DataArray>
        <DataArray type="UInt8" Name="types" format="ascii">
3 3 3 
        </DataArray>
      </Cells>
      <PointData>
        <DataArray type="Float64" Name="rho">
          1.05290498e+00 1.06101222e+00 1.06958355e+00 1.07868867e+00 
        </DataArray>
        <DataArray type="Float64" Name="rhou">
          2.46783334e-02 2.38560425e-02 2.24498731e-02 2.08863679e-02 
        </DataArray>
        <DataArray type="Float64" Name="rhov">
          -7.22983298e-04 -5.16476881e-04 3.87055805e-04 1.57759348e-03 
        </DataArray>
        <DataArray type="Float64" Name="E">
          2.40596084e+05 2.42538119e+05 2.44592584e+05 2.46776214e+05 
        </DataArray>
      </PointData>
    </Piece>
    <Piece NumberOfPoints="4" NumberOfCells="3">
      <Points>
        <DataArray type="Float64" NumberOfComponents="3" format="ascii">
          7.30340332e-02 -4.14824970e-02 0.00000000e+00 
6.91377968e-02 -4.05809283e-02 0.00000000e+00 
6.52511865e-02 -3.96387354e-02 0.00000000e+00 
6.13753870e-02 -3.86530459e-02 0.00000000e+00 

        </DataArray>
      </Points>
      <Cells>
        <DataArray type="Int32" Name="connectivity" format="ascii">
0 1
1 2
2 3

        </DataArray>
        <DataArray type="Int32" Name="offsets" format="ascii">
2 4 6 
        </DataArray>
        <DataArray type="UInt8" Name="types" format="ascii">
3 3 3 
        </DataArray>
      </Cells>
      <PointData>
        <DataArray type="Float64" Name="rho">
          1.07868928e+00 1.08841191e+00 1.09878367e+00 1.10986406e+00 
        </DataArray>
        <DataArray type="Float64" Name="rhou">
          2.10043752e-02 1.86594225e-02 1.45668084e-02 9.07644417e-03 
        </DataArray>
        <DataArray type="Float64" Name="rhov">
          1.41230241e-03 2.15227791e-03 4.22655560e-03 7.40684545e-03 
        </DataArray>
        <DataArray type="Float64" Name="E">
          2.46776376e+05 2.49110315e+05 2.51601741e+05 2.54265642e+05 
        </DataArray>
      </PointData>
    </Piece>
    <Piece NumberOfPoints="4" NumberOfCells="3">
      <Points>
        <DataArray type="Float64" NumberOfComponents="3" format="ascii">
          6.13753870e-02 -3.86530459e-02 0.00000000e+00 
5.75117208e-02 -3.76208089e-02 0.00000000e+00 
5.36618084e-02 -3.65384258e-02 0.00000000e+00 
4.98276278e-02 -3.54015976e-02 0.00000000e+00 

        </DataArray>
      </Points>
      <Cells>
        <DataArray type="Int32" Name="connectivity" format="ascii">
0 1
1 2
2 3

        </DataArray>
        <DataArray type="Int32" Name="offsets" format="ascii">
2 4 6 
        </DataArray>
        <DataArray type="UInt8" Name="types" format="ascii">
3 3 3 
        </DataArray>
      </Cells>
      <PointData>
        <DataArray type="Float64" Name="rho">
          1.10986433e+00 1.12173624e+00 1.13448434e+00 1.14823996e+00 
        </DataArray>
        <DataArray type="Float64" Name="rhou">
          9.02048740e-03 1.97409831e-03 -7.22618583e-03 -1.87271465e-02 
        </DataArray>
        <DataArray type="Float64" Name="rhov">
          7.17918955e-03 1.18664285e-02 1.99208391e-02 3.13609214e-02 
        </DataArray>
        <DataArray type="Float64" Name="E">
          2.54265707e+05 2.57123859e+05 2.60195621e+05 2.63513486e+05 
        </DataArray>
      </PointData>
    </Piece>
    <Piece NumberOfPoints="4" NumberOfCells="3">
      <Points>
        <DataArray type="Float64" NumberOfComponents="3" format="ascii">
          4.98276278e-02 -3.54015976e-02 0.00000000e+00 
4.60115410e-02 -3.42054628e-02 0.00000000e+00 
4.22164090e-02 -3.29444520e-02 0.00000000e+00 
3.84457745e-02 -3.16120051e-02 0.00000000e+00 

        </DataArray>
      </Points>
      <Cells>
        <DataArray type="Int32" Name="connectivity" format="ascii">
0 1
1 2
2 3

        </DataArray>
        <DataArray type="Int32" Name="offsets" format="ascii">
2 4 6 
        </DataArray>
        <DataArray type="UInt8" Name="types" format="ascii">
3 3 3 
        </DataArray>
      </Cells>
      <PointData>
        <DataArray type="Float64" Name="rho">
          1.14823988e+00 1.16310302e+00 1.17918563e+00 1.19667912e+00 
        </DataArray>
        <DataArray type="Float64" Name="rhou">
          -1.91803854e-02 -3.33012266e-02 -5.22675150e-02 -7.49544170e-02 
        </DataArray>
        <DataArray type="Float64" Name="rhov">
          3.11465566e-02 4.77798676e-02 7.53707787e-02 1.15741851e-01 
        </DataArray>
        <DataArray type="Float64" Name="E">
          2.63513434e+05 2.67104962e+05 2.70995990e+05 2.75234740e+05 
        </DataArray>
      </PointData>
    </Piece>
    <Piece NumberOfPoints="4" NumberOfCells="3">
      <Points>
        <DataArray type="Float64" NumberOfComponents="3" format="ascii">
          3.84457745e-02 -3.16120051e-02 0.00000000e+00 
3.47041376e-02 -3.02002355e-02 0.00000000e+00 
3.09973080e-02 -2.86995135e-02 0.00000000e+00 
2.73328498e-02 -2.70981900e-02 0.00000000e+00 

        </DataArray>
      </Points>
      <Cells>
        <DataArray type="Int32" Name="connectivity" format="ascii">
0 1
1 2
2 3

        </DataArray>
        <DataArray type="Int32" Name="offsets" format="ascii">
2 4 6 
        </DataArray>
        <DataArray type="UInt8" Name="types" format="ascii">
3 3 3 
        </DataArray>
      </Cells>
      <PointData>
        <DataArray type="Float64" Name="rho">
          1.19667934e+00 1.21577316e+00 1.23666042e+00 1.25971254e+00 
        </DataArray>
        <DataArray type="Float64" Name="rhou">
          -7.59037160e-02 -1.00035311e-01 -1.28650767e-01 -1.54038131e-01 
        </DataArray>
        <DataArray type="Float64" Name="rhov">
          1.15661260e-01 1.71095827e-01 2.56843167e-01 3.76893368e-01 
        </DataArray>
        <DataArray type="Float64" Name="E">
          2.75234660e+05 2.79872985e+05 2.84955570e+05 2.90576487e+05 
        </DataArray>
      </PointData>
    </Piece>
    <Piece NumberOfPoints="4" NumberOfCells="3">
      <Points>
        <DataArray type="Float64" NumberOfComponents="3" format="ascii">
          2.73328498e-02 -2.70981900e-02 0.00000000e+00 
2.37206947e-02 -2.53822580e-02 0.00000000e+00 
2.01744195e-02 -2.35341713e-02 0.00000000e+00 
1.67132635e-02 -2.15314496e-02 0.00000000e+00 

        </DataArray>
      </Points>
      <Cells>
        <DataArray type="Int32" Name="connectivity" format="ascii">
0 1
1 2
2 3

        </DataArray>
        <DataArray type="Int32" Name="offsets" format="ascii">
2 4 6 
        </DataArray>
        <DataArray type="UInt8" Name="types" format="ascii">
3 3 3 
        </DataArray>
      </Cells>
      <PointData>
        <DataArray type="Float64" Name="rho">
          1.25971740e+00 1.28527405e+00 1.31379069e+00 1.34661321e+00 
        </DataArray>
        <DataArray type="Float64" Name="rhou">
          -1.54418017e-01 -1.68510808e-01 -1.52906171e-01 -5.71185958e-02 
        </DataArray>
        <DataArray type="Float64" Name="rhov">
          3.77567117e-01 5.29124840e-01 7.39414776e-01 9.57335681e-01 
        </DataArray>
        <DataArray type="Float64" Name="E">
          2.90577384e+05 2.96831139e+05 3.03821919e+05 3.11878274e+05 
        </DataArray>
      </PointData>
    </Piece>
    <Piece NumberOfPoints="4" NumberOfCells="3">
      <Points>
        <DataArray type="Float64" NumberOfComponents="3" format="ascii">
          1.67132635e-02 -2.15314496e-02 0.00000000e+00 
1.33649679e-02 -1.93456318e-02 0.00000000e+00 
1.01706637e-02 -1.69409402e-02 0.00000000e+00 
7.19343964e-03 -1.42731192e-02 0.00000000e+00 

        </DataArray>
      </Points>
      <Cells>
        <DataArray type="Int32" Name="connectivity" format="ascii">
0 1
1 2
2 3

        </DataArray>
        <DataArray type="Int32" Name="offsets" format="ascii">
2 4 6 
        </DataArray>
        <DataArray type="UInt8" Name="types" format="ascii">
3 3 3 
        </DataArray>
      </Cells>
      <PointData>
        <DataArray type="Float64" Name="rho">
          1.34650749e+00 1.38636997e+00 1.43360338e+00 1.49869992e+00 
        </DataArray>
        <DataArray type="Float64" Name="rhou">
          -3.45798511e-02 1.13519600e-01 4.54162861e-01 8.73710282e-01 
        </DataArray>
        <DataArray type="Float64" Name="rhov">
          9.19134421e-01 1.12170892e+00 1.06673436e+00 5.17254734e-01 
        </DataArray>
        <DataArray type="Float64" Name="E">
          3.11854114e+05 3.21641508e+05 3.33231542e+05 3.49089761e+05 
        </DataArray>
      </PointData>
    </Piece>
    <Piece NumberOfPoints="4" NumberOfCells="3">
      <Points>
        <DataArray type="Float64" NumberOfComponents="3" format="ascii">
          7.19343964e-03 -1.42731192e-02 0.00000000e+00 
4.53082798e-03 -1.12927537e-02 0.00000000e+00 
2.33371323e-03 -7.95678515e-03 0.00000000e+00 
8.10639584e-04 -4.26717056e-03 0.00000000e+00 

        </DataArray>
      </Points>
      <Cells>
        <DataArray type="Int32" Name="connectivity" format="ascii">
0 1
1 2
2 3

        </DataArray>
        <DataArray type="Int32" Name="offsets" format="ascii">
2 4 6 
        </DataArray>
        <DataArray type="UInt8" Name="types" format="ascii">
3 3 3 
        </DataArray>
      </Cells>
      <PointData>
        <DataArray type="Float64" Name="rho">
          1.49921893e+00 1.57364027e+00 1.66271891e+00 1.73141019e+00 
        </DataArray>
        <DataArray type="Float64" Name="rhou">
          7.98777658e-01 9.28315067e-01 2.57248414e-01 -1.27529934e+00 
        </DataArray>
        <DataArray type="Float64" Name="rhov">
          6.15927543e-01 -5.11566050e-01 -1.72790876e+00 -1.81503968e+00 
        </DataArray>
        <DataArray type="Float64" Name="E">
          3.49216920e+05 3.67382679e+05 3.89004088e+05 4.05699686e+05 
        </DataArray>
      </PointData>
    </Piece>
    <Piece NumberOfPoints="4" NumberOfCells="3">
      <Points>
        <DataArray type="Float64" NumberOfComponents="3" format="ascii">
          8.10639584e-04 -4.26717056e-03 0.00000000e+00 
1.91366620e-04 -3.27450951e-04 0.00000000e+00 
6.40850572e-04 3.63462302e-03 0.00000000e+00 
2.03182548e-03 7.37539819e-03 0.00000000e+00 

        </DataArray>
      </Points>
      <Cells>
        <DataArray type="Int32" Name="connectivity" format="ascii">
0 1
1 2
2 3

        </DataArray>
        <DataArray type="Int32" Name="offsets" format="ascii">
2 4 6 
        </DataArray>
        <DataArray type="UInt8" Name="types" format="ascii">
3 3 3 
        </DataArray>
      </Cells>
      <PointData>
        <DataArray type="Float64" Name="rho">
          1.72983464e+00 1.75475548e+00 1.70430594e+00 1.61183696e+00 
        </DataArray>
        <DataArray type="Float64" Name="rhou">
          -1.14980553e+00 -1.87740439e+00 -8.33536048e-01 7.52009011e-01 
        </DataArray>
        <DataArray type="Float64" Name="rhov">
          -1.97324982e+00 3.65269551e-01 1.88162650e+00 1.51301197e+00 
        </DataArray>
        <DataArray type="Float64" Name="E">
          4.05318235e+05 4.11283693e+05 3.98952241e+05 3.76370795e+05 
        </DataArray>
      </PointData>
    </Piece>
    <Piece NumberOfPoints="4" NumberOfCells="3">
      <Points>
        <DataArray type="Float64" NumberOfComponents="3" format="ascii">
          2.03182548e-03 7.37539819e-03 0.00000000e+00 
4.13410179e-03 1.07714310e-02 0.00000000e+00 
6.73249783e-03 1.38076087e-02 0.00000000e+00 
9.66598373e-03 1.65232457e-02 0.00000000e+00 

        </DataArray>
      </Points>
      <Cells>
        <DataArray type="Int32" Name="connectivity" format="ascii">
0 1
1 2
2 3

        </DataArray>
        <DataArray type="Int32" Name="offsets" format="ascii">
2 4 6 
        </DataArray>
        <DataArray type="UInt8" Name="types" format="ascii">
3 3 3 
        </DataArray>
      </Cells>
      <PointData>
        <DataArray type="Float64" Name="rho">
          1.61219896e+00 1.50506450e+00 1.41582695e+00 1.34887290e+00 
        </DataArray>
        <DataArray type="Float64" Name="rhou">
          7.24420524e-01 1.15404088e+00 8.38620682e-01 3.74246226e-01 
        </DataArray>
        <DataArray type="Float64" Name="rhov">
          1.74778149e+00 6.12072680e-02 -1.07480199e+00 -1.39864869e+00 
        </DataArray>
        <DataArray type="Float64" Name="E">
          3.76461866e+05 3.50456719e+05 3.28758912e+05 3.12398340e+05 
        </DataArray>
      </PointData>
    </Piece>
    <Piece NumberOfPoints="4" NumberOfCells="3">
      <Points>
        <DataArray type="Float64" NumberOfComponents="3" format="ascii">
          9.66598373e-03 1.65232457e-02 0.00000000e+00 
1.28298048e-02 1.89677756e-02 0.00000000e+00 
1.61561389e-02 2.11867876e-02 0.00000000e+00 
1.96009967e-02 2.32173651e-02 0.00000000e+00 

        </DataArray>
      </Points>
      <Cells>
        <DataArray type="Int32" Name="connectivity" format="ascii">
0 1
1 2
2 3

        </DataArray>
        <DataArray type="Int32" Name="offsets" format="ascii">
2 4 6 
        </DataArray>
        <DataArray type="UInt8" Name="types" format="ascii">
3 3 3 
        </DataArray>
      </Cells>
      <PointData>
        <DataArray type="Float64" Name="rho">
          1.34866764e+00 1.29620089e+00 1.25722786e+00 1.22291976e+00 
        </DataArray>
        <DataArray type="Float64" Name="rhou">
          3.83813645e-01 -1.73421396e-02 -1.98498261e-01 -2.18847279e-01 
        </DataArray>
        <DataArray type="Float64" Name="rhov">
          -1.42325840e+00 -1.31825644e+00 -9.88320851e-01 -6.63235360e-01 
        </DataArray>
        <DataArray type="Float64" Name="E">
          3.12346194e+05 2.99526608e+05 2.89954528e+05 2.81554344e+05 
        </DataArray>
      </PointData>
    </Piece>
    <Piece NumberOfPoints="4" NumberOfCells="3">
      <Points>
        <DataArray type="Float64" NumberOfComponents="3" format="ascii">
          1.96009967e-02 2.32173651e-02 0.00000000e+00 
2.31348258e-02 2.50891000e-02 0.00000000e+00 
2.67372411e-02 2.68253610e-02 0.00000000e+00 
3.03938854e-02 2.84444261e-02 0.00000000e+00 

        </DataArray>
      </Points>
      <Cells>
        <DataArray type="Int32" Name="connectivity" format="ascii">
0 1
1 2
2 3

        </DataArray>
        <DataArray type="Int32" Name="offsets" format="ascii">
2 4 6 
        </DataArray>
        <DataArray type="UInt8" Name="types" format="ascii">
3 3 3 
        </DataArray>
      </Cells>
      <PointData>
        <DataArray type="Float64" Name="rho">
          1.22298344e+00 1.19386314e+00 1.16781961e+00 1.14423456e+00 
        </DataArray>
        <DataArray type="Float64" Name="rhou">
          -2.31953297e-01 -2.18358239e-01 -1.73111101e-01 -1.30882841e-01 
        </DataArray>
        <DataArray type="Float64" Name="rhov">
          -6.81447281e-01 -4.30731686e-01 -2.44431106e-01 -1.31890510e-01 
        </DataArray>
        <DataArray type="Float64" Name="E">
          2.81569243e+05 2.74458787e+05 2.68122570e+05 2.62401571e+05 
        </DataArray>
      </PointData>
    </Piece>
    <Piece NumberOfPoints="4" NumberOfCells="3">
      <Points>
        <DataArray type="Float64" NumberOfComponents="3" format="ascii">
          3.03938854e-02 2.84444261e-02 0.00000000e+00 
3.40943485e-02 2.99607720e-02 0.00000000e+00 
3.78307216e-02 3.13864015e-02 0.00000000e+00 
4.15969416e-02 3.27312648e-02 0.00000000e+00 

        </DataArray>
      </Points>
      <Cells>
        <DataArray type="Int32" Name="connectivity" format="ascii">
0 1
1 2
2 3

        </DataArray>
        <DataArray type="Int32" Name="offsets" format="ascii">
2 4 6 
        </DataArray>
        <DataArray type="UInt8" Name="types" format="ascii">
3 3 3 
        </DataArray>
      </Cells>
      <PointData>
        <DataArray type="Float64" Name="rho">
          1.14423283e+00 1.12289321e+00 1.10351058e+00 1.08584189e+00 
        </DataArray>
        <DataArray type="Float64" Name="rhou">
          -1.29094008e-01 -8.89880012e-02 -5.62353284e-02 -3.32983664e-02 
        </DataArray>
        <DataArray type="Float64" Name="rhov">
          -1.30440848e-01 -5.44273466e-02 -7.43664572e-03 1.78981750e-02 
        </DataArray>
        <DataArray type="Float64" Name="E">
          2.62401419e+05 2.57243755e+05 2.52570403e+05 2.48318127e+05 
        </DataArray>
      </PointData>
    </Piece>
    <Piece NumberOfPoints="4" NumberOfCells="3">
      <Points>
        <DataArray type="Float64" NumberOfComponents="3" format="ascii">
          4.15969416e-02 3.27312648e-02 0.00000000e+00 
4.53883260e-02 3.40034962e-02 0.00000000e+00 
4.92011942e-02 3.52098532e-02 0.00000000e+00 
5.30325845e-02 3.63560505e-02 0.00000000e+00 

        </DataArray>
      </Points>
      <Cells>
        <DataArray type="Int32" Name="connectivity" format="ascii">
0 1
1 2
2 3

        </DataArray>
        <DataArray type="Int32" Name="offsets" format="ascii">
2 4 6 
        </DataArray>
        <DataArray type="UInt8" Name="types" format="ascii">
3 3 3 
        </DataArray>
      </Cells>
      <PointData>
        <DataArray type="Float64" Name="rho">
          1.08584246e+00 1.06969876e+00 1.05489156e+00 1.04126214e+00 
        </DataArray>
        <DataArray type="Float64" Name="rhou">
          -3.21630962e-02 -1.27590007e-02 1.65426968e-03 1.10164009e-02 
        </DataArray>
        <DataArray type="Float64" Name="rhov">
          1.78025651e-02 3.14498537e-02 3.80815395e-02 3.92207543e-02 
        </DataArray>
        <DataArray type="Float64" Name="E">
          2.48318336e+05 2.44441617e+05 2.40891389e+05 2.37627716e+05 
        </DataArray>
      </PointData>
    </Piece>
    <Piece NumberOfPoints="4" NumberOfCells="3">
      <Points>
        <DataArray type="Float64" NumberOfComponents="3" format="ascii">
          5.30325845e-02 3.63560505e-02 0.00000000e+00 
5.68800643e-02 3.74470428e-02 0.00000000e+00 
6.07415959e-02 3.84872220e-02 0.00000000e+00 
6.46155030e-02 3.94803248e-02 0.00000000e+00 

        </DataArray>
      </Points>
      <Cells>
        <DataArray type="Int32" Name="connectivity" format="ascii">
0 1
1 2
2 3

        </DataArray>
        <DataArray type="Int32" Name="offsets" format="ascii">
2 4 6 
        </DataArray>
        <DataArray type="UInt8" Name="types" format="ascii">
3 3 3 
        </DataArray>
      </Cells>
      <PointData>
        <DataArray type="Float64" Name="rho">
          1.04126283e+00 1.02872311e+00 1.01714071e+00 1.00637502e+00 
        </DataArray>
        <DataArray type="Float64" Name="rhou">
          1.13312400e-02 1.83090667e-02 2.38348135e-02 2.76548002e-02 
        </DataArray>
        <DataArray type="Float64" Name="rhov">
          3.88935928e-02 3.72169605e-02 3.51528309e-02 3.19193865e-02 
        </DataArray>
        <DataArray type="Float64" Name="E">
          2.37627873e+05 2.34629365e+05 2.31862607e+05 2.29293489e+05 
        </DataArray>
      </PointData>
    </Piece>
    <Piece NumberOfPoints="4" NumberOfCells="3">
      <Points>
        <DataArray type="Float64" NumberOfComponents="3" format="ascii">
          6.46155030e-02 3.94803248e-02 0.00000000e+00 
6.85004294e-02 4.04294394e-02 0.00000000e+00 
7.23951608e-02 4.13374715e-02 0.00000000e+00 
7.62986317e-02 4.22072113e-02 0.00000000e+00 

        </DataArray>
      </Points>
      <Cells>
        <DataArray type="Int32" Name="connectivity" format="ascii">
0 1
1 2
2 3

        </DataArray>
        <DataArray type="Int32" Name="offsets" format="ascii">
2 4 6 
        </DataArray>
        <DataArray type="UInt8" Name="types" format="ascii">
3 3 3 
        </DataArray>
      </Cells>
      <PointData>
        <DataArray type="Float64" Name="rho">
          1.00637573e+00 9.96385388e-01 9.87080877e-01 9.78406722e-01 
        </DataArray>
        <DataArray type="Float64" Name="rhou">
          2.74740991e-02 2.94107057e-02 3.05026481e-02 3.05906104e-02 
        </DataArray>
        <DataArray type="Float64" Name="rhov">
          3.16210594e-02 2.77119932e-02 2.43317791e-02 2.10207551e-02 
        </DataArray>
        <DataArray type="Float64" Name="E">
          2.29293635e+05 2.26912157e+05 2.24696009e+05 2.22631291e+05 
        </DataArray>
      </PointData>
    </Piece>
    <Piece NumberOfPoints="4" NumberOfCells="3">
      <Points>
        <DataArray type="Float64" NumberOfComponents="3" format="ascii">
          7.62986317e-02 4.22072113e-02 0.00000000e+00 
8.02098960e-02 4.30411920e-02 0.00000000e+00 
8.41281936e-02 4.38414887e-02 0.00000000e+00 
8.80528912e-02 4.46097627e-02 0.00000000e+00 

        </DataArray>
      </Points>
      <Cells>
        <DataArray type="Int32" Name="connectivity" format="ascii">
0 1
1 2
2 3

        </DataArray>
        <DataArray type="Int32" Name="offsets" format="ascii">
2 4 6 
        </DataArray>
        <DataArray type="UInt8" Name="types" format="ascii">
3 3 3 
        </DataArray>
      </Cells>
      <PointData>
        <DataArray type="Float64" Name="rho">
          9.78405777e-01 9.70315769e-01 9.62715072e-01 9.55557955e-01 
        </DataArray>
        <DataArray type="Float64" Name="rhou">
          3.04432054e-02 3.04651359e-02 3.01882067e-02 2.91237100e-02 
        </DataArray>
        <DataArray type="Float64" Name="rhov">
          2.08575856e-02 1.82951575e-02 1.57843310e-02 1.31035516e-02 
        </DataArray>
        <DataArray type="Float64" Name="E">
          2.22631054e+05 2.20706882e+05 2.18900372e+05 2.17200447e+05 
        </DataArray>
      </PointData>
    </Piece>
    <Piece NumberOfPoints="4" NumberOfCells="3">
      <Points>
        <DataArray type="Float64" NumberOfComponents="3" format="ascii">
          8.80528912e-02 4.46097627e-02 0.00000000e+00 
9.19835642e-02 4.53475714e-02 0.00000000e+00 
9.59195644e-02 4.60564308e-02 0.00000000e+00 
9.98597518e-02 4.67394181e-02 0.00000000e+00 

        </DataArray>
      </Points>
      <Cells>
        <DataArray type="Int32" Name="connectivity" format="ascii">
0 1
1 2
2 3

        </DataArray>
        <DataArray type="Int32" Name="offsets" format="ascii">
2 4 6 
        </DataArray>
        <DataArray type="UInt8" Name="types" format="ascii">
3 3 3 
        </DataArray>
      </Cells>
      <PointData>
        <DataArray type="Float64" Name="rho">
          9.55558464e-01 9.48834891e-01 9.42532263e-01 9.36550843e-01 
        </DataArray>
        <DataArray type="Float64" Name="rhou">
          2.89318265e-02 2.75084509e-02 2.40438880e-02 2.85487583e-02 
        </DataArray>
        <DataArray type="Float64" Name="rhov">
          1.32663366e-02 1.06915764e-02 9.10877008e-03 8.60882697e-03 
        </DataArray>
        <DataArray type="Float64" Name="E">
          2.17200565e+05 2.15604840e+05 2.14109465e+05 2.12691342e+05 
        </DataArray>
      </PointData>
    </Piece>
    <Piece NumberOfPoints="4" NumberOfCells="3">
      <Points>
        <DataArray type="Float64" NumberOfComponents="3" format="ascii">
          9.98597518e-02 4.67394181e-02 0.00000000e+00 
1.10118888e-01 4.83862534e-02 0.00000000e+00 
1.20400399e-01 4.98730615e-02 0.00000000e+00 
1.30701363e-01 5.12186773e-02 0.00000000e+00 

        </DataArray>
      </Points>
      <Cells>
        <DataArray type="Int32" Name="connectivity" format="ascii">
0 1
1 2
2 3

        </DataArray>
        <DataArray type="Int32" Name="offsets" format="ascii">
2 4 6 
        </DataArray>
        <DataArray type="UInt8" Name="types" format="ascii">
3 3 3 
        </DataArray>
      </Cells>
      <PointData>
        <DataArray type="Float64" Name="rho">
          9.36478296e-01 9.22529518e-01 9.10499737e-01 9.00162470e-01 
        </DataArray>
        <DataArray type="Float64" Name="rhou">
          2.62827047e-02 1.81227519e-02 1.59961431e-02 1.25379374e-02 
        </DataArray>
        <DataArray type="Float64" Name="rhov">
          7.37712730e-03 4.15327928e-03 3.64518354e-03 2.97569247e-03 
        </DataArray>
        <DataArray type="Float64" Name="E">
          2.12674958e+05 2.09371826e+05 2.06526617e+05 2.04084362e+05 
        </DataArray>
      </PointData>
    </Piece>
    <Piece NumberOfPoints="4" NumberOfCells="3">
      <Points>
        <DataArray type="Float64" NumberOfComponents="3" format="ascii">
          1.30701363e-01 5.12186773e-02 0.00000000e+00 
1.41019106e-01 5.24347536e-02 0.00000000e+00 
1.51350453e-01 5.35292812e-02 0.00000000e+00 
1.61692888e-01 5.45137413e-02 0.00000000e+00 

        </DataArray>
      </Points>
      <Cells>
        <DataArray type="Int32" Name="connectivity" format="ascii">
0 1
1 2
2 3

        </DataArray>
        <DataArray type="Int32" Name="offsets" format="ascii">
2 4 6 
        </DataArray>
        <DataArray type="UInt8" Name="types" format="ascii">
3 3 3 
        </DataArray>
      </Cells>
      <PointData>
        <DataArray type="Float64" Name="rho">
          9.00158984e-01 8.91087664e-01 8.83257649e-01 8.76560551e-01 
        </DataArray>
        <DataArray type="Float64" Name="rhou">
          1.39159504e-02 1.20224580e-02 9.95202204e-03 8.68902515e-03 
        </DataArray>
        <DataArray type="Float64" Name="rhov">
          3.47349134e-03 2.55046958e-03 1.77597905e-03 1.60102253e-03 
        </DataArray>
        <DataArray type="Float64" Name="E">
          2.04083525e+05 2.01943745e+05 2.00099200e+05 1.98523257e+05 
        </DataArray>
      </PointData>
    </Piece>
    <Piece NumberOfPoints="4" NumberOfCells="3">
      <Points>
        <DataArray type="Float64" NumberOfComponents="3" format="ascii">
          1.61692888e-01 5.45137413e-02 0.00000000e+00 
1.72044471e-01 5.53969070e-02 0.00000000e+00 
1.82403773e-01 5.61845005e-02 0.00000000e+00 
1.92769483e-01 5.68825118e-02 0.00000000e+00 

        </DataArray>
      </Points>
      <Cells>
        <DataArray type="Int32" Name="connectivity" format="ascii">
0 1
1 2
2 3

        </DataArray>
        <DataArray type="Int32" Name="offsets" format="ascii">
2 4 6 
        </DataArray>
        <DataArray type="UInt8" Name="types" format="ascii">
3 3 3 
        </DataArray>
      </Cells>
      <PointData>
        <DataArray type="Float64" Name="rho">
          8.76558150e-01 8.70798933e-01 8.65886881e-01 8.61769178e-01 
        </DataArray>
        <DataArray type="Float64" Name="rhou">
          8.72566244e-03 7.59679039e-03 6.56475031e-03 5.66437690e-03 
        </DataArray>
        <DataArray type="Float64" Name="rhov">
          1.65249005e-03 1.28910020e-03 9.12151898e-04 6.84286061e-04 
        </DataArray>
        <DataArray type="Float64" Name="E">
          1.98522719e+05 1.97169420e+05 1.96017203e+05 1.95053079e+05 
        </DataArray>
      </PointData>
    </Piece>
    <Piece NumberOfPoints="4" NumberOfCells="3">
      <Points>
        <DataArray type="Float64" NumberOfComponents="3" format="ascii">
          1.92769483e-01 5.68825118e-02 0.00000000e+00 
2.03140482e-01 5.74972220e-02 0.00000000e+00 
2.13515818e-01 5.80338500e-02 0.00000000e+00 
2.23894730e-01 5.84962890e-02 0.00000000e+00 

        </DataArray>
      </Points>
      <Cells>
        <DataArray type="Int32" Name="connectivity" format="ascii">
0 1
1 2
2 3

        </DataArray>
        <DataArray type="Int32" Name="offsets" format="ascii">
2 4 6 
        </DataArray>
        <DataArray type="UInt8" Name="types" format="ascii">
3 3 3 
        </DataArray>
      </Cells>
      <PointData>
        <DataArray type="Float64" Name="rho">
          8.61768490e-01 8.58365260e-01 8.55592360e-01 8.53391299e-01 
        </DataArray>
        <DataArray type="Float64" Name="rhou">
          5.70096291e-03 4.98138207e-03 4.42659310e-03 3.96760205e-03 
        </DataArray>
        <DataArray type="Float64" Name="rhov">
          7.25524718e-04 6.36053717e-04 5.20830938e-04 3.98383733e-04 
        </DataArray>
        <DataArray type="Float64" Name="E">
          1.95052920e+05 1.94257742e+05 1.93611714e+05 1.93100916e+05 
        </DataArray>
      </PointData>
    </Piece>
    <Piece NumberOfPoints="4" NumberOfCells="3">
      <Points>
        <DataArray type="Float64" NumberOfComponents="3" format="ascii">
          2.23894730e-01 5.84962890e-02 0.00000000e+00 
2.34276548e-01 5.88882305e-02 0.00000000e+00 
2.44660646e-01 5.92139624e-02 0.00000000e+00 
2.55046517e-01 5.94772622e-02 0.00000000e+00 

        </DataArray>
      </Points>
      <Cells>
        <DataArray type="Int32" Name="connectivity" format="ascii">
0 1
1 2
2 3

        </DataArray>
        <DataArray type="Int32" Name="offsets" format="ascii">
2 4 6 
        </DataArray>
        <DataArray type="UInt8" Name="types" format="ascii">
3 3 3 
        </DataArray>
      </Cells>
      <PointData>
        <DataArray type="Float64" Name="rho">
          8.53391867e-01 8.51720146e-01 8.50533039e-01 8.49774977e-01 
        </DataArray>
        <DataArray type="Float64" Name="rhou">
          3.97523013e-03 3.45579214e-03 3.07910349e-03 2.85064529e-03 
        </DataArray>
        <DataArray type="Float64" Name="rhov">
          4.12719113e-04 3.34845022e-04 3.17466256e-04 3.15831601e-04 
        </DataArray>
        <DataArray type="Float64" Name="E">
          1.93101046e+05 1.92715226e+05 1.92443712e+05 1.92273407e+05 
        </DataArray>
      </PointData>
    </Piece>
    <Piece NumberOfPoints="4" NumberOfCells="3">
      <Points>
        <DataArray type="Float64" NumberOfComponents="3" format="ascii">
          2.55046517e-01 5.94772622e-02 0.00000000e+00 
2.65433758e-01 5.96804135e-02 0.00000000e+00 
2.75821954e-01 5.98256700e-02 0.00000000e+00 
2.86210775e-01 5.99167012e-02 0.00000000e+00 

        </DataArray>
      </Points>
      <Cells>
        <DataArray type="Int32" Name="connectivity" format="ascii">
0 1
1 2
2 3

        </DataArray>
        <DataArray type="Int32" Name="offsets" format="ascii">
2 4 6 
        </DataArray>
        <DataArray type="UInt8" Name="types" format="ascii">
3 3 3 
        </DataArray>
      </Cells>
      <PointData>
        <DataArray type="Float64" Name="rho">
          8.49774989e-01 8.49397480e-01 8.49375576e-01 8.49688625e-01 
        </DataArray>
        <DataArray type="Float64" Name="rhou">
          2.84493536e-03 2.55954379e-03 2.26718452e-03 2.00517008e-03 
        </DataArray>
        <DataArray type="Float64" Name="rhov">
          3.27081609e-04 2.31843150e-04 1.73583775e-04 2.06855410e-04 
        </DataArray>
        <DataArray type="Float64" Name="E">
          1.92273413e+05 1.92192910e+05 1.92196227e+05 1.92278283e+05 
        </DataArray>
      </PointData>
    </Piece>
    <Piece NumberOfPoints="4" NumberOfCells="3">
      <Points>
        <DataArray type="Float64" NumberOfComponents="3" format="ascii">
          2.86210775e-01 5.99167012e-02 0.00000000e+00 
2.96599895e-01 5.99572174e-02 0.00000000e+00 
3.06989133e-01 5.99487796e-02 0.00000000e+00 
3.17378193e-01 5.98919280e-02 0.00000000e+00 

        </DataArray>
      </Points>
      <Cells>
        <DataArray type="Int32" Name="connectivity" format="ascii">
0 1
1 2
2 3

        </DataArray>
        <DataArray type="Int32" Name="offsets" format="ascii">
2 4 6 
        </DataArray>
        <DataArray type="UInt8" Name="types" format="ascii">
3 3 3 
        </DataArray>
      </Cells>
      <PointData>
        <DataArray type="Float64" Name="rho">
          8.49687609e-01 8.50286392e-01 8.51124026e-01 8.52185228e-01 
        </DataArray>
        <DataArray type="Float64" Name="rhou">
          2.02390010e-03 1.90905450e-03 1.78337434e-03 1.60281325e-03 
        </DataArray>
        <DataArray type="Float64" Name="rhov">
          2.23132658e-04 2.49720944e-04 1.95437104e-04 1.21265239e-04 
        </DataArray>
        <DataArray type="Float64" Name="E">
          1.92278052e+05 1.92427287e+05 1.92632853e+05 1.92891075e+05 
        </DataArray>
      </PointData>
    </Piece>
    <Piece NumberOfPoints="4" NumberOfCells="3">
      <Points>
        <DataArray type="Float64" NumberOfComponents="3" format="ascii">
          3.17378193e-01 5.98919280e-02 0.00000000e+00 
3.27766895e-01 5.97884916e-02 0.00000000e+00 
3.38155061e-01 5.96415885e-02 0.00000000e+00 
3.48542601e-01 5.94538599e-02 0.00000000e+00 

        </DataArray>
      </Points>
      <Cells>
        <DataArray type="Int32" Name="connectivity" format="ascii">
0 1
1 2
2 3

        </DataArray>
        <DataArray type="Int32" Name="offsets" format="ascii">
2 4 6 
        </DataArray>
        <DataArray type="UInt8" Name="types" format="ascii">
3 3 3 
        </DataArray>
      </Cells>
      <PointData>
        <DataArray type="Float64" Name="rho">
          8.52185572e-01 8.53457407e-01 8.54919527e-01 8.56539053e-01 
        </DataArray>
        <DataArray type="Float64" Name="rhou">
          1.63203832e-03 1.43729935e-03 1.32118251e-03 1.27483307e-03 
        </DataArray>
        <DataArray type="Float64" Name="rhov">
          1.28893490e-04 1.17231388e-04 1.42295058e-04 1.62385016e-04 
        </DataArray>
        <DataArray type="Float64" Name="E">
          1.92891152e+05 1.93198864e+05 1.93551214e+05 1.93940526e+05 
        </DataArray>
      </PointData>
    </Piece>
    <Piece NumberOfPoints="4" NumberOfCells="3">
      <Points>
        <DataArray type="Float64" NumberOfComponents="3" format="ascii">
          3.48542601e-01 5.94538599e-02 0.00000000e+00 
3.58929336e-01 5.92265576e-02 0.00000000e+00 
3.69315147e-01 5.89610897e-02 0.00000000e+00 
3.79699975e-01 5.86590059e-02 0.00000000e+00 

        </DataArray>
      </Points>
      <Cells>
        <DataArray type="Int32" Name="connectivity" format="ascii">
0 1
1 2
2 3

        </DataArray>
        <DataArray type="Int32" Name="offsets" format="ascii">
2 4 6 
        </DataArray>
        <DataArray type="UInt8" Name="types" format="ascii">
3 3 3 
        </DataArray>
      </Cells>
      <PointData>
        <DataArray type="Float64" Name="rho">
          8.56539298e-01 8.58290715e-01 8.60164206e-01 8.62139868e-01 
        </DataArray>
        <DataArray type="Float64" Name="rhou">
          1.28701009e-03 1.16383711e-03 1.07058500e-03 1.02263265e-03 
        </DataArray>
        <DataArray type="Float64" Name="rhov">
          1.59333294e-04 1.23179247e-04 1.15411864e-04 1.13501543e-04 
        </DataArray>
        <DataArray type="Float64" Name="E">
          1.93940583e+05 1.94360891e+05 1.94809819e+05 1.95282710e+05 
        </DataArray>
      </PointData>
    </Piece>
    <Piece NumberOfPoints="4" NumberOfCells="3">
      <Points>
        <DataArray type="Float64" NumberOfComponents="3" format="ascii">
          3.79699975e-01 5.86590059e-02 0.00000000e+00 
3.90083700e-01 5.83211333e-02 0.00000000e+00 
4.00466233e-01 5.79482466e-02 0.00000000e+00 
4.10847515e-01 5.75418957e-02 0.00000000e+00 

        </DataArray>
      </Points>
      <Cells>
        <DataArray type="Int32" Name="connectivity" format="ascii">
0 1
1 2
2 3

        </DataArray>
        <DataArray type="Int32" Name="offsets" format="ascii">
2 4 6 
        </DataArray>
        <DataArray type="UInt8" Name="types" format="ascii">
3 3 3 
        </DataArray>
      </Cells>
      <PointData>
        <DataArray type="Float64" Name="rho">
          8.62139880e-01 8.64200816e-01 8.66337043e-01 8.68541941e-01 
        </DataArray>
        <DataArray type="Float64" Name="rhou">
          1.01497471e-03 9.51059171e-04 8.72815109e-04 7.97361044e-04 
        </DataArray>
        <DataArray type="Float64" Name="rhov">
          1.15931816e-04 8.55304972e-05 6.25823078e-05 6.75903692e-05 
        </DataArray>
        <DataArray type="Float64" Name="E">
          1.95282714e+05 1.95775618e+05 1.96286172e+05 1.96812764e+05 
        </DataArray>
      </PointData>
    </Piece>
    <Piece NumberOfPoints="4" NumberOfCells="3">
      <Points>
        <DataArray type="Float64" NumberOfComponents="3" format="ascii">
          4.10847515e-01 5.75418957e-02 0.00000000e+00 
4.21227485e-01 5.71038015e-02 0.00000000e+00 
4.31606144e-01 5.66351078e-02 0.00000000e+00 
4.41983402e-01 5.61364293e-02 0.00000000e+00 

        </DataArray>
      </Points>
      <Cells>
        <DataArray type="Int32" Name="connectivity" format="ascii">
0 1
1 2
2 3

        </DataArray>
        <DataArray type="Int32" Name="offsets" format="ascii">
2 4 6 
        </DataArray>
        <DataArray type="UInt8" Name="types" format="ascii">
3 3 3 
        </DataArray>
      </Cells>
      <PointData>
        <DataArray type="Float64" Name="rho">
          8.68541742e-01 8.70799746e-01 8.73099224e-01 8.75430530e-01 
        </DataArray>
        <DataArray type="Float64" Name="rhou">
          8.13749559e-04 7.62382051e-04 7.23437848e-04 6.86463238e-04 
        </DataArray>
        <DataArray type="Float64" Name="rhov">
          7.10048132e-05 7.08249629e-05 6.10458415e-05 3.99941511e-05 
        </DataArray>
        <DataArray type="Float64" Name="E">
          1.96812719e+05 1.97351712e+05 1.97900389e+05 1.98456492e+05 
        </DataArray>
      </PointData>
    </Piece>
    <Piece NumberOfPoints="4" NumberOfCells="3">
      <Points>
        <DataArray type="Float64" NumberOfComponents="3" format="ascii">
          4.41983402e-01 5.61364293e-02 0.00000000e+00 
4.52359200e-01 5.56085743e-02 0.00000000e+00 
4.62733537e-01 5.50529286e-02 0.00000000e+00 
4.73106444e-01 5.44707514e-02 0.00000000e+00 

        </DataArray>
      </Points>
      <Cells>
        <DataArray type="Int32" Name="connectivity" format="ascii">
0 1
1 2
2 3

        </DataArray>
        <DataArray type="Int32" Name="offsets" format="ascii">
2 4 6 
        </DataArray>
        <DataArray type="UInt8" Name="types" format="ascii">
3 3 3 
        </DataArray>
      </Cells>
      <PointData>
        <DataArray type="Float64" Name="rho">
          8.75430671e-01 8.77789355e-01 8.80168988e-01 8.82561154e-01 
        </DataArray>
        <DataArray type="Float64" Name="rhou">
          6.83485577e-04 6.27913576e-04 5.88085924e-04 5.64620471e-04 
        </DataArray>
        <DataArray type="Float64" Name="rhov">
          4.06481046e-05 3.30839073e-05 3.33430092e-05 3.33835866e-05 
        </DataArray>
        <DataArray type="Float64" Name="E">
          1.98456524e+05 1.99018973e+05 1.99586247e+05 2.00156377e+05 
        </DataArray>
      </PointData>
    </Piece>
    <Piece NumberOfPoints="4" NumberOfCells="3">
      <Points>
        <DataArray type="Float64" NumberOfComponents="3" format="ascii">
          4.73106444e-01 5.44707514e-02 0.00000000e+00 
4.83477861e-01 5.38627952e-02 0.00000000e+00 
4.93847787e-01 5.32294959e-02 0.00000000e+00 
5.04216135e-01 5.25716618e-02 0.00000000e+00 

        </DataArray>
      </Points>
      <Cells>
        <DataArray type="Int32" Name="connectivity" format="ascii">
0 1
1 2
2 3

        </DataArray>
        <DataArray type="Int32" Name="offsets" format="ascii">
2 4 6 
        </DataArray>
        <DataArray type="UInt8" Name="types" format="ascii">
3 3 3 
        </DataArray>
      </Cells>
      <PointData>
        <DataArray type="Float64" Name="rho">
          8.82561141e-01 8.84959043e-01 8.87357363e-01 8.89755011e-01 
        </DataArray>
        <DataArray type="Float64" Name="rhou">
          5.57097822e-04 5.36130290e-04 5.01165979e-04 4.59755038e-04 
        </DataArray>
        <DataArray type="Float64" Name="rhov">
          3.51868887e-05 2.37843355e-05 8.97341004e-06 6.27263654e-06 
        </DataArray>
        <DataArray type="Float64" Name="E">
          2.00156374e+05 2.00727770e+05 2.01299189e+05 2.01870341e+05 
        </DataArray>
      </PointData>
    </Piece>
    <Piece NumberOfPoints="4" NumberOfCells="3">
      <Points>
        <DataArray type="Float64" NumberOfComponents="3" format="ascii">
          5.04216135e-01 5.25716618e-02 0.00000000e+00 
5.14582992e-01 5.18903993e-02 0.00000000e+00 
5.24948359e-01 5.11864908e-02 0.00000000e+00 
5.35312176e-01 5.04603274e-02 0.00000000e+00 

        </DataArray>
      </Points>
      <Cells>
        <DataArray type="Int32" Name="connectivity" format="ascii">
0 1
1 2
2 3

        </DataArray>
        <DataArray type="Int32" Name="offsets" format="ascii">
2 4 6 
        </DataArray>
        <DataArray type="UInt8" Name="types" format="ascii">
3 3 3 
        </DataArray>
      </Cells>
      <PointData>
        <DataArray type="Float64" Name="rho">
          8.89754926e-01 8.92146568e-01 8.94527814e-01 8.96895258e-01 
        </DataArray>
        <DataArray type="Float64" Name="rhou">
          4.68197349e-04 4.42201354e-04 4.22546516e-04 4.03262057e-04 
        </DataArray>
        <DataArray type="Float64" Name="rhov">
          8.42101727e-06 7.95020585e-06 2.50963732e-06 -9.25168405e-06 
        </DataArray>
        <DataArray type="Float64" Name="E">
          2.01870322e+05 2.02439960e+05 2.03007061e+05 2.03570825e+05 
        </DataArray>
      </PointData>
    </Piece>
    <Piece NumberOfPoints="4" NumberOfCells="3">
      <Points>
        <DataArray type="Float64" NumberOfComponents="3" format="ascii">
          5.35312176e-01 5.04603274e-02 0.00000000e+00 
5.45674443e-01 4.97124642e-02 0.00000000e+00 
5.56035221e-01 4.89437394e-02 0.00000000e+00 
5.66394389e-01 4.81546782e-02 0.00000000e+00 

        </DataArray>
      </Points>
      <Cells>
        <DataArray type="Int32" Name="connectivity" format="ascii">
0 1
1 2
2 3

        </DataArray>
        <DataArray type="Int32" Name="offsets" format="ascii">
2 4 6 
        </DataArray>
        <DataArray type="UInt8" Name="types" format="ascii">
3 3 3 
        </DataArray>
      </Cells>
      <PointData>
        <DataArray type="Float64" Name="rho">
          8.96895302e-01 8.99248323e-01 9.01584079e-01 9.03899787e-01 
        </DataArray>
        <DataArray type="Float64" Name="rhou">
          3.99058021e-04 3.72829922e-04 3.54524877e-04 3.42781822e-04 
        </DataArray>
        <DataArray type="Float64" Name="rhov">
          -8.96168032e-06 -9.76191795e-06 -1.05640199e-05 -1.48155960e-05 
        </DataArray>
        <DataArray type="Float64" Name="E">
          2.03570836e+05 2.04131099e+05 2.04687197e+05 2.05238480e+05 
        </DataArray>
      </PointData>
    </Piece>
    <Piece NumberOfPoints="4" NumberOfCells="3">
      <Points>
        <DataArray type="Float64" NumberOfComponents="3" format="ascii">
          5.66394389e-01 4.81546782e-02 0.00000000e+00 
5.76752067e-01 4.73455116e-02 0.00000000e+00 
5.87108195e-01 4.65166979e-02 0.00000000e+00 
5.97462773e-01 4.56690118e-02 0.00000000e+00 

        </DataArray>
      </Points>
      <Cells>
        <DataArray type="Int32" Name="connectivity" format="ascii">
0 1
1 2
2 3

        </DataArray>
        <DataArray type="Int32" Name="offsets" format="ascii">
2 4 6 
        </DataArray>
        <DataArray type="UInt8" Name="types" format="ascii">
3 3 3 
        </DataArray>
      </Cells>
      <PointData>
        <DataArray type="Float64" Name="rho">
          9.03899816e-01 9.06193866e-01 9.08465992e-01 9.10715365e-01 
        </DataArray>
        <DataArray type="Float64" Name="rhou">
          3.42113286e-04 3.21908808e-04 3.01039903e-04 2.85135837e-04 
        </DataArray>
        <DataArray type="Float64" Name="rhov">
          -1.44757441e-05 -2.30400343e-05 -2.65927189e-05 -2.54720662e-05 
        </DataArray>
        <DataArray type="Float64" Name="E">
          2.05238487e+05 2.05784576e+05 2.06325399e+05 2.06860754e+05 
        </DataArray>
      </PointData>
    </Piece>
    <Piece NumberOfPoints="4" NumberOfCells="3">
      <Points>
        <DataArray type="Float64" NumberOfComponents="3" format="ascii">
          5.97462773e-01 4.56690118e-02 0.00000000e+00 
6.07815862e-01 4.48031016e-02 0.00000000e+00 
6.18167400e-01 4.39192392e-02 0.00000000e+00 
6.28517449e-01 4.30175588e-02 0.00000000e+00 

        </DataArray>
      </Points>
      <Cells>
        <DataArray type="Int32" Name="connectivity" format="ascii">
0 1
1 2
2 3

        </DataArray>
        <DataArray type="Int32" Name="offsets" format="ascii">
2 4 6 
        </DataArray>
        <DataArray type="UInt8" Name="types" format="ascii">
3 3 3 
        </DataArray>
      </Cells>
      <PointData>
        <DataArray type="Float64" Name="rho">
          9.10715303e-01 9.12940118e-01 9.15138650e-01 9.17311115e-01 
        </DataArray>
        <DataArray type="Float64" Name="rhou">
          2.83234259e-04 2.74581185e-04 2.62696572e-04 2.45659890e-04 
        </DataArray>
        <DataArray type="Float64" Name="rhov">
          -2.45557936e-05 -2.50565015e-05 -3.06201719e-05 -3.59378106e-05 
        </DataArray>
        <DataArray type="Float64" Name="E">
          2.06860740e+05 2.07390207e+05 2.07913390e+05 2.08430331e+05 
        </DataArray>
      </PointData>
    </Piece>
    <Piece NumberOfPoints="4" NumberOfCells="3">
      <Points>
        <DataArray type="Float64" NumberOfComponents="3" format="ascii">
          6.28517449e-01 4.30175588e-02 0.00000000e+00 
6.38865948e-01 4.20984775e-02 0.00000000e+00 
6.49212897e-01 4.11624312e-02 0.00000000e+00 
6.59558356e-01 4.02097441e-02 0.00000000e+00 

        </DataArray>
      </Points>
      <Cells>
        <DataArray type="Int32" Name="connectivity" format="ascii">
0 1
1 2
2 3

        </DataArray>
        <DataArray type="Int32" Name="offsets" format="ascii">
2 4 6 
        </DataArray>
        <DataArray type="UInt8" Name="types" format="ascii">
3 3 3 
        </DataArray>
      </Cells>
      <PointData>
        <DataArray type="Float64" Name="rho">
          9.17311107e-01 9.19457377e-01 9.21576677e-01 9.23668753e-01 
        </DataArray>
        <DataArray type="Float64" Name="rhou">
          2.46621343e-04 2.33963320e-04 2.23128275e-04 2.11490975e-04 
        </DataArray>
        <DataArray type="Float64" Name="rhov">
          -3.49334205e-05 -3.56476433e-05 -3.75004196e-05 -3.97231765e-05 
        </DataArray>
        <DataArray type="Float64" Name="E">
          2.08430329e+05 2.08940995e+05 2.09445206e+05 2.09942901e+05 
        </DataArray>
      </PointData>
    </Piece>
    <Piece NumberOfPoints="4" NumberOfCells="3">
      <Points>
        <DataArray type="Float64" NumberOfComponents="3" format="ascii">
          6.59558356e-01 4.02097441e-02 0.00000000e+00 
6.69902325e-01 3.92407738e-02 0.00000000e+00 
6.80244744e-01 3.82556282e-02 0.00000000e+00 
6.90585554e-01 3.72543521e-02 0.00000000e+00 

        </DataArray>
      </Points>
      <Cells>
        <DataArray type="Int32" Name="connectivity" format="ascii">
0 1
1 2
2 3

        </DataArray>
        <DataArray type="Int32" Name="offsets" format="ascii">
2 4 6 
        </DataArray>
        <DataArray type="UInt8" Name="types" format="ascii">
3 3 3 
        </DataArray>
      </Cells>
      <PointData>
        <DataArray type="Float64" Name="rho">
          9.23668737e-01 9.25733639e-01 9.27770296e-01 9.29779537e-01 
        </DataArray>
        <DataArray type="Float64" Name="rhou">
          2.08335831e-04 2.03337579e-04 1.94802995e-04 1.80366672e-04 
        </DataArray>
        <DataArray type="Float64" Name="rhov">
          -3.87026638e-05 -3.86982651e-05 -4.31184269e-05 -4.67347528e-05 
        </DataArray>
        <DataArray type="Float64" Name="E">
          2.09942898e+05 2.10434089e+05 2.10918533e+05 2.11396418e+05 
        </DataArray>
      </PointData>
    </Piece>
    <Piece NumberOfPoints="4" NumberOfCells="3">
      <Points>
        <DataArray type="Float64" NumberOfComponents="3" format="ascii">
          6.90585554e-01 3.72543521e-02 0.00000000e+00 
7.00924933e-01 3.62373814e-02 0.00000000e+00 
7.11262703e-01 3.52048986e-02 0.00000000e+00 
7.21598923e-01 3.41568366e-02 0.00000000e+00 

        </DataArray>
      </Points>
      <Cells>
        <DataArray type="Int32" Name="connectivity" format="ascii">
0 1
1 2
2 3

        </DataArray>
        <DataArray type="Int32" Name="offsets" format="ascii">
2 4 6 
        </DataArray>
        <DataArray type="UInt8" Name="types" format="ascii">
3 3 3 
        </DataArray>
      </Cells>
      <PointData>
        <DataArray type="Float64" Name="rho">
          9.29779495e-01 9.31761769e-01 9.33715942e-01 9.35642691e-01 
        </DataArray>
        <DataArray type="Float64" Name="rhou">
          1.79008873e-04 1.73943058e-04 1.68713822e-04 1.55827496e-04 
        </DataArray>
        <DataArray type="Float64" Name="rhov">
          -4.56335381e-05 -4.31794663e-05 -4.64777535e-05 -5.11675784e-05 
        </DataArray>
        <DataArray type="Float64" Name="E">
          2.11396408e+05 2.11867838e+05 2.12332556e+05 2.12790719e+05 
        </DataArray>
      </PointData>
    </Piece>
    <Piece NumberOfPoints="4" NumberOfCells="3">
      <Points>
        <DataArray type="Float64" NumberOfComponents="3" format="ascii">
          7.21598923e-01 3.41568366e-02 0.00000000e+00 
7.31933594e-01 3.30936089e-02 0.00000000e+00 
7.42266715e-01 3.20154354e-02 0.00000000e+00 
7.52598286e-01 3.09220124e-02 0.00000000e+00 

        </DataArray>
      </Points>
      <Cells>
        <DataArray type="Int32" Name="connectivity" format="ascii">
0 1
1 2
2 3

        </DataArray>
        <DataArray type="Int32" Name="offsets" format="ascii">
2 4 6 
        </DataArray>
        <DataArray type="UInt8" Name="types" format="ascii">
3 3 3 
        </DataArray>
      </Cells>
      <PointData>
        <DataArray type="Float64" Name="rho">
          9.35642671e-01 9.37543051e-01 9.39415778e-01 9.41261404e-01 
        </DataArray>
        <DataArray type="Float64" Name="rhou">
          1.53227787e-04 1.49029352e-04 1.46054254e-04 1.35781203e-04 
        </DataArray>
        <DataArray type="Float64" Name="rhov">
          -5.02131618e-05 -4.57968553e-05 -4.80458960e-05 -5.30912691e-05 
        </DataArray>
        <DataArray type="Float64" Name="E">
          2.12790714e+05 2.13242564e+05 2.13687812e+05 2.14126587e+05 
        </DataArray>
      </PointData>
    </Piece>
    <Piece NumberOfPoints="4" NumberOfCells="3">
      <Points>
        <DataArray type="Float64" NumberOfComponents="3" format="ascii">
          7.52598286e-01 3.09220124e-02 0.00000000e+00 
7.62928188e-01 2.98135038e-02 0.00000000e+00 
7.73256481e-01 2.86899786e-02 0.00000000e+00 
7.83583105e-01 2.75512449e-02 0.00000000e+00 

        </DataArray>
      </Points>
      <Cells>
        <DataArray type="Int32" Name="connectivity" format="ascii">
0 1
1 2
2 3

        </DataArray>
        <DataArray type="Int32" Name="offsets" format="ascii">
2 4 6 
        </DataArray>
        <DataArray type="UInt8" Name="types" format="ascii">
3 3 3 
        </DataArray>
      </Cells>
      <PointData>
        <DataArray type="Float64" Name="rho">
          9.41261399e-01 9.43081093e-01 9.44874098e-01 9.46641138e-01 
        </DataArray>
        <DataArray type="Float64" Name="rhou">
          1.33258308e-04 1.29418643e-04 1.25447689e-04 1.16082045e-04 
        </DataArray>
        <DataArray type="Float64" Name="rhov">
          -5.21899193e-05 -4.99160211e-05 -5.20866068e-05 -5.52776248e-05 
        </DataArray>
        <DataArray type="Float64" Name="E">
          2.14126586e+05 2.14559156e+05 2.14985352e+05 2.15405340e+05 
        </DataArray>
      </PointData>
    </Piece>
    <Piece NumberOfPoints="4" NumberOfCells="3">
      <Points>
        <DataArray type="Float64" NumberOfComponents="3" format="ascii">
          7.83583105e-01 2.75512449e-02 0.00000000e+00 
7.93908060e-01 2.63975188e-02 0.00000000e+00 
8.04231405e-01 2.52291560e-02 0.00000000e+00 
8.14553022e-01 2.40457114e-02 0.00000000e+00 

        </DataArray>
      </Points>
      <Cells>
        <DataArray type="Int32" Name="connectivity" format="ascii">
0 1
1 2
2 3

        </DataArray>
        <DataArray type="Int32" Name="offsets" format="ascii">
2 4 6 
        </DataArray>
        <DataArray type="UInt8" Name="types" format="ascii">
3 3 3 
        </DataArray>
      </Cells>
      <PointData>
        <DataArray type="Float64" Name="rho">
          9.46641144e-01 9.48383010e-01 9.50099656e-01 9.51790485e-01 
        </DataArray>
        <DataArray type="Float64" Name="rhou">
          1.18608566e-04 1.07984560e-04 1.06784005e-04 1.07587591e-04 
        </DataArray>
        <DataArray type="Float64" Name="rhov">
          -5.56222477e-05 -5.19956992e-05 -5.07708447e-05 -5.71308661e-05 
        </DataArray>
        <DataArray type="Float64" Name="E">
          2.15405342e+05 2.15819303e+05 2.16227228e+05 2.16628981e+05 
        </DataArray>
      </PointData>
    </Piece>
    <Piece NumberOfPoints="4" NumberOfCells="3">
      <Points>
        <DataArray type="Float64" NumberOfComponents="3" format="ascii">
          8.14553022e-01 2.40457114e-02 0.00000000e+00 
8.24872792e-01 2.28467938e-02 0.00000000e+00 
8.35190892e-01 2.16327831e-02 0.00000000e+00 
8.45507145e-01 2.04038676e-02 0.00000000e+00 

        </DataArray>
      </Points>
      <Cells>
        <DataArray type="Int32" Name="connectivity" format="ascii">
0 1
1 2
2 3

        </DataArray>
        <DataArray type="Int32" Name="offsets" format="ascii">
2 4 6 
        </DataArray>
        <DataArray type="UInt8" Name="types" format="ascii">
3 3 3 
        </DataArray>
      </Cells>
      <PointData>
        <DataArray type="Float64" Name="rho">
          9.51790528e-01 9.53457208e-01 9.55100054e-01 9.56719244e-01 
        </DataArray>
        <DataArray type="Float64" Name="rhou">
          1.01818417e-04 9.36092914e-05 8.66241996e-05 8.70739284e-05 
        </DataArray>
        <DataArray type="Float64" Name="rhov">
          -5.73840051e-05 -5.73194734e-05 -5.45852973e-05 -5.07899099e-05 
        </DataArray>
        <DataArray type="Float64" Name="E">
          2.16628990e+05 2.17024947e+05 2.17415175e+05 2.17799710e+05 
        </DataArray>
      </PointData>
    </Piece>
    <Piece NumberOfPoints="4" NumberOfCells="3">
      <Points>
        <DataArray type="Float64" NumberOfComponents="3" format="ascii">
          8.45507145e-01 2.04038676e-02 0.00000000e+00 
8.55821550e-01 1.91591792e-02 0.00000000e+00 
8.66134048e-01 1.78987328e-02 0.00000000e+00 
8.76444638e-01 1.66228991e-02 0.00000000e+00 

        </DataArray>
      </Points>
      <Cells>
        <DataArray type="Int32" Name="connectivity" format="ascii">
0 1
1 2
2 3

        </DataArray>
        <DataArray type="Int32" Name="offsets" format="ascii">
2 4 6 
        </DataArray>
        <DataArray type="UInt8" Name="types" format="ascii">
3 3 3 
        </DataArray>
      </Cells>
      <PointData>
        <DataArray type="Float64" Name="rho">
          9.56719354e-01 9.58313585e-01 9.59886693e-01 9.61435270e-01 
        </DataArray>
        <DataArray type="Float64" Name="rhou">
          1.08078802e-04 7.70440592e-05 7.55576764e-05 9.12220916e-05 
        </DataArray>
        <DataArray type="Float64" Name="rhov">
          -5.43679524e-05 -6.17033000e-05 -5.92418533e-05 -7.68888678e-05 
        </DataArray>
        <DataArray type="Float64" Name="E">
          2.17799735e+05 2.18178275e+05 2.18551680e+05 2.18919168e+05 
        </DataArray>
      </PointData>
    </Piece>
    <Piece NumberOfPoints="4" NumberOfCells="3">
      <Points>
        <DataArray type="Float64" NumberOfComponents="3" format="ascii">
          8.76444638e-01 1.66228991e-02 0.00000000e+00 
8.86753201e-01 1.53310820e-02 0.00000000e+00 
8.97059798e-01 1.40233757e-02 0.00000000e+00 
9.07364249e-01 1.26988320e-02 0.00000000e+00 

        </DataArray>
      </Points>
      <Cells>
        <DataArray type="Int32" Name="connectivity" format="ascii">
0 1
1 2
2 3

        </DataArray>
        <DataArray type="Int32" Name="offsets" format="ascii">
2 4 6 
        </DataArray>
        <DataArray type="UInt8" Name="types" format="ascii">
3 3 3 
        </DataArray>
      </Cells>
      <PointData>
        <DataArray type="Float64" Name="rho">
          9.61434821e-01 9.62965505e-01 9.64470805e-01 9.65969466e-01 
        </DataArray>
        <DataArray type="Float64" Name="rhou">
          -6.30715284e-07 9.16978957e-05 3.61968523e-05 -1.69447858e-05 
        </DataArray>
        <DataArray type="Float64" Name="rhov">
          -6.89038088e-05 -7.25143617e-05 -9.16096526e-05 7.13595009e-06 
        </DataArray>
        <DataArray type="Float64" Name="E">
          2.18919066e+05 2.19282139e+05 2.19639089e+05 2.19994190e+05 
        </DataArray>
      </PointData>
    </Piece>
    <Piece NumberOfPoints="4" NumberOfCells="3">
      <Points>
        <DataArray type="Float64" NumberOfComponents="3" format="ascii">
          9.07364249e-01 1.26988320e-02 0.00000000e+00 
9.17666554e-01 1.13577880e-02 0.00000000e+00 
9.27966774e-01 1.00004105e-02 0.00000000e+00 
9.38264549e-01 8.62528384e-03 0.00000000e+00 

        </DataArray>
      </Points>
      <Cells>
        <DataArray type="Int32" Name="connectivity" format="ascii">
0 1
1 2
2 3

        </DataArray>
        <DataArray type="Int32" Name="offsets" format="ascii">
2 4 6 
        </DataArray>
        <DataArray type="UInt8" Name="types" format="ascii">
3 3 3 
        </DataArray>
      </Cells>
      <PointData>
        <DataArray type="Float64" Name="rho">
          9.65974331e-01 9.67423859e-01 9.68897289e-01 9.70223476e-01 
        </DataArray>
        <DataArray type="Float64" Name="rhou">
          7.92912057e-04 -2.15291311e-04 3.34770699e-04 7.60059656e-04 
        </DataArray>
        <DataArray type="Float64" Name="rhov">
          -6.23335133e-05 -1.15440467e-04 -4.46360963e-05 -1.46149782e-03 
        </DataArray>
        <DataArray type="Float64" Name="E">
          2.19995297e+05 2.20338896e+05 2.20687680e+05 2.21002772e+05 
        </DataArray>
      </PointData>
    </Piece>
    <Piece NumberOfPoints="4" NumberOfCells="3">
      <Points>
        <DataArray type="Float64" NumberOfComponents="3" format="ascii">
          9.38264549e-01 8.62528384e-03 0.00000000e+00 
9.48560059e-01 7.23283459e-03 0.00000000e+00 
9.58853185e-01 5.82307298e-03 0.00000000e+00 
9.69143867e-01 4.39538015e-03 0.00000000e+00 

        </DataArray>
      </Points>
      <Cells>
        <DataArray type="Int32" Name="connectivity" format="ascii">
0 1
1 2
2 3

        </DataArray>
        <DataArray type="Int32" Name="offsets" format="ascii">
2 4 6 
        </DataArray>
        <DataArray type="UInt8" Name="types" format="ascii">
3 3 3 
        </DataArray>
      </Cells>
      <PointData>
        <DataArray type="Float64" Name="rho">
          9.70175966e-01 9.71821878e-01 9.73054090e-01 9.75731687e-01 
        </DataArray>
        <DataArray type="Float64" Name="rhou">
          -6.68298994e-03 2.12933608e-03 -3.15788432e-03 -1.89935987e-02 
        </DataArray>
        <DataArray type="Float64" Name="rhov">
          -1.08728718e-03 1.31808583e-04 -1.12956511e-03 1.89083018e-02 
        </DataArray>
        <DataArray type="Float64" Name="E">
          2.20991952e+05 2.21379878e+05 2.21673877e+05 2.22297813e+05 
        </DataArray>
      </PointData>
    </Piece>
    <Piece NumberOfPoints="4" NumberOfCells="3">
      <Points>
        <DataArray type="Float64" NumberOfComponents="3" format="ascii">
          9.69143867e-01 4.39538015e-03 0.00000000e+00 
9.79435980e-01 2.94816052e-03 0.00000000e+00 
9.89725590e-01 1.48259092e-03 0.00000000e+00 
1.00000000e+00 0.00000000e+00 0.00000000e+00 

        </DataArray>
      </Points>
      <Cells>
        <DataArray type="Int32" Name="connectivity" format="ascii">
0 1
1 2
2 3

        </DataArray>
        <DataArray type="Int32" Name="offsets" format="ascii">
2 4 6 
        </DataArray>
        <DataArray type="UInt8" Name="types" format="ascii">
3 3 3 
        </DataArray>
      </Cells>
      <PointData>
        <DataArray type="Float64" Name="rho">
          9.76026191e-01 9.75616333e-01 9.79418498e-01 9.69517103e-01 
        </DataArray>
        <DataArray type="Float64" Name="rhou">
          -1.49322990e-03 -9.53661045e-03 -3.75272842e-02 4.95122718e-01 
        </DataArray>
        <DataArray type="Float64" Name="rhov">
          2.12549317e-02 9.75528689e-04 5.23057637e-02 -1.37113209e-01 
        </DataArray>
        <DataArray type="Float64" Name="E">
          2.22364889e+05 2.22286652e+05 2.23169751e+05 2.20933890e+05 
        </DataArray>
      </PointData>
    </Piece>
    <Piece NumberOfPoints="4" NumberOfCells="3">
      <Points>
        <DataArray type="Float64" NumberOfComponents="3" format="ascii">
          9.69029665e-01 -4.41133138e-03 0.00000000e+00 
9.79355037e-01 -2.95961346e-03 0.00000000e+00 
9.89677846e-01 -1.48943183e-03 0.00000000e+00 
1.00000000e+00 0.00000000e+00 0.00000000e+00 

        </DataArray>
      </Points>
      <Cells>
        <DataArray type="Int32" Name="connectivity" format="ascii">
0 1
1 2
2 3

        </DataArray>
        <DataArray type="Int32" Name="offsets" format="ascii">
2 4 6 
        </DataArray>
        <DataArray type="UInt8" Name="types" format="ascii">
3 3 3 
        </DataArray>
      </Cells>
      <PointData>
        <DataArray type="Float64" Name="rho">
          9.74846786e-01 9.74509872e-01 9.78270197e-01 9.69636893e-01 
        </DataArray>
        <DataArray type="Float64" Name="rhou">
          -9.10198344e-04 -7.50214292e-03 -3.53565470e-02 4.55664594e-01 
        </DataArray>
        <DataArray type="Float64" Name="rhov">
          -2.32675657e-02 2.03226275e-03 -4.85168385e-02 1.42141580e-01 
        </DataArray>
        <DataArray type="Float64" Name="E">
          2.22107508e+05 2.22042853e+05 2.22912727e+05 2.20961690e+05 
        </DataArray>
      </PointData>
    </Piece>
    <Piece NumberOfPoints="4" NumberOfCells="3">
      <Points>
        <DataArray type="Float64" NumberOfComponents="3" format="ascii">
          9.38035965e-01 -8.65600072e-03 0.00000000e+00 
9.48369622e-01 -7.25875143e-03 0.00000000e+00 
9.58700895e-01 -5.84406452e-03 0.00000000e+00 
9.69029665e-01 -4.41133138e-03 0.00000000e+00 

        </DataArray>
      </Points>
      <Cells>
        <DataArray type="Int32" Name="connectivity" format="ascii">
0 1
1 2
2 3

        </DataArray>
        <DataArray type="Int32" Name="offsets" format="ascii">
2 4 6 
        </DataArray>
        <DataArray type="UInt8" Name="types" format="ascii">
3 3 3 
        </DataArray>
      </Cells>
      <PointData>
        <DataArray type="Float64" Name="rho">
          9.69150725e-01 9.70756317e-01 9.71964514e-01 9.74557815e-01 
        </DataArray>
        <DataArray type="Float64" Name="rhou">
          -6.28803620e-03 2.28403192e-03 -2.60569982e-03 -1.69963398e-02 
        </DataArray>
        <DataArray type="Float64" Name="rhov">
          1.08989674e-03 -1.70259417e-04 1.33111995e-03 -1.73837550e-02 
        </DataArray>
        <DataArray type="Float64" Name="E">
          2.20775225e+05 2.21152673e+05 2.21439423e+05 2.22041713e+05 
        </DataArray>
      </PointData>
    </Piece>
    <Piece NumberOfPoints="4" NumberOfCells="3">
      <Points>
        <DataArray type="Float64" NumberOfComponents="3" format="ascii">
          9.07021165e-01 -1.27432076e-02 0.00000000e+00 
9.17361677e-01 -1.13977119e-02 0.00000000e+00 
9.27700043e-01 -1.00357840e-02 0.00000000e+00 
9.38035965e-01 -8.65600072e-03 0.00000000e+00 

        </DataArray>
      </Points>
      <Cells>
        <DataArray type="Int32" Name="connectivity" format="ascii">
0 1
1 2
2 3

        </DataArray>
        <DataArray type="Int32" Name="offsets" format="ascii">
2 4 6 
        </DataArray>
        <DataArray type="UInt8" Name="types" format="ascii">
3 3 3 
        </DataArray>
      </Cells>
      <PointData>
        <DataArray type="Float64" Name="rho">
          9.65080835e-01 9.66478663e-01 9.67906870e-01 9.69196957e-01 
        </DataArray>
        <DataArray type="Float64" Name="rhou">
          9.14098272e-04 -7.04395556e-05 4.88769735e-04 8.78320432e-04 
        </DataArray>
        <DataArray type="Float64" Name="rhov">
          5.01895877e-05 7.70247112e-05 -8.91500628e-06 1.37483928e-03 
        </DataArray>
        <DataArray type="Float64" Name="E">
          2.19810751e+05 2.20141992e+05 2.20479788e+05 2.20785748e+05 
        </DataArray>
      </PointData>
    </Piece>
    <Piece NumberOfPoints="4" NumberOfCells="3">
      <Points>
        <DataArray type="Float64" NumberOfComponents="3" format="ascii">
          8.75986874e-01 -1.66798849e-02 0.00000000e+00 
8.86333704e-01 -1.53839625e-02 0.00000000e+00 
8.96678507e-01 -1.40720531e-02 0.00000000e+00 
9.07021165e-01 -1.27432076e-02 0.00000000e+00 

        </DataArray>
      </Points>
      <Cells>
        <DataArray type="Int32" Name="connectivity" format="ascii">
0 1
1 2
2 3

        </DataArray>
        <DataArray type="Int32" Name="offsets" format="ascii">
2 4 6 
        </DataArray>
        <DataArray type="UInt8" Name="types" format="ascii">
3 3 3 
        </DataArray>
      </Cells>
      <PointData>
        <DataArray type="Float64" Name="rho">
          9.60766764e-01 9.62211273e-01 9.63642183e-01 9.65075982e-01 
        </DataArray>
        <DataArray type="Float64" Name="rhou">
          1.52206103e-04 2.31272326e-04 1.83833644e-04 1.32060533e-04 
        </DataArray>
        <DataArray type="Float64" Name="rhov">
          6.83521502e-05 6.00205392e-05 7.49887315e-05 -1.81040171e-05 
        </DataArray>
        <DataArray type="Float64" Name="E">
          2.18787811e+05 2.19130523e+05 2.19469896e+05 2.19809647e+05 
        </DataArray>
      </PointData>
    </Piece>
    <Piece NumberOfPoints="4" NumberOfCells="3">
      <Points>
        <DataArray type="Float64" NumberOfComponents="3" format="ascii">
          8.44934702e-01 -2.04724707e-02 0.00000000e+00 
8.55287313e-01 -1.92240477e-02 0.00000000e+00 
8.65638077e-01 -1.79597028e-02 0.00000000e+00 
8.75986874e-01 -1.66798849e-02 0.00000000e+00 

        </DataArray>
      </Points>
      <Cells>
        <DataArray type="Int32" Name="connectivity" format="ascii">
0 1
1 2
2 3

        </DataArray>
        <DataArray type="Int32" Name="offsets" format="ascii">
2 4 6 
        </DataArray>
        <DataArray type="UInt8" Name="types" format="ascii">
3 3 3 
        </DataArray>
      </Cells>
      <PointData>
        <DataArray type="Float64" Name="rho">
          9.56390578e-01 9.57856863e-01 9.59318107e-01 9.60767183e-01 
        </DataArray>
        <DataArray type="Float64" Name="rhou">
          2.84769559e-04 2.26279932e-04 2.14062389e-04 2.51655742e-04 
        </DataArray>
        <DataArray type="Float64" Name="rhov">
          4.32137020e-05 6.35104226e-05 5.31632804e-05 7.14128049e-05 
        </DataArray>
        <DataArray type="Float64" Name="E">
          2.17748784e+05 2.18097021e+05 2.18443942e+05 2.18787906e+05 
        </DataArray>
      </PointData>
    </Piece>
    <Piece NumberOfPoints="4" NumberOfCells="3">
      <Points>
        <DataArray type="Float64" NumberOfComponents="3" format="ascii">
          8.13865662e-01 -2.41250079e-02 0.00000000e+00 
8.24223816e-01 -2.29226518e-02 0.00000000e+00 
8.34580123e-01 -2.17050612e-02 0.00000000e+00 
8.44934702e-01 -2.04724707e-02 0.00000000e+00 

        </DataArray>
      </Points>
      <Cells>
        <DataArray type="Int32" Name="connectivity" format="ascii">
0 1
1 2
2 3

        </DataArray>
        <DataArray type="Int32" Name="offsets" format="ascii">
2 4 6 
        </DataArray>
        <DataArray type="UInt8" Name="types" format="ascii">
3 3 3 
        </DataArray>
      </Cells>
      <PointData>
        <DataArray type="Float64" Name="rho">
          9.51928429e-01 9.53423689e-01 9.54911221e-01 9.56390351e-01 
        </DataArray>
        <DataArray type="Float64" Name="rhou">
          2.61433036e-04 2.46195321e-04 2.31038194e-04 2.36285960e-04 
        </DataArray>
        <DataArray type="Float64" Name="rhov">
          5.43407957e-05 5.50753159e-05 4.76653418e-05 3.58182849e-05 
        </DataArray>
        <DataArray type="Float64" Name="E">
          2.16688799e+05 2.17044057e+05 2.17397422e+05 2.17748733e+05 
        </DataArray>
      </PointData>
    </Piece>
    <Piece NumberOfPoints="4" NumberOfCells="3">
      <Points>
        <DataArray type="Float64" NumberOfComponents="3" format="ascii">
          7.82780826e-01 -2.76402626e-02 0.00000000e+00 
7.93144107e-01 -2.64833923e-02 0.00000000e+00 
8.03505778e-01 -2.53117718e-02 0.00000000e+00 
8.13865662e-01 -2.41250079e-02 0.00000000e+00 

        </DataArray>
      </Points>
      <Cells>
        <DataArray type="Int32" Name="connectivity" format="ascii">
0 1
1 2
2 3

        </DataArray>
        <DataArray type="Int32" Name="offsets" format="ascii">
2 4 6 
        </DataArray>
        <DataArray type="UInt8" Name="types" format="ascii">
3 3 3 
        </DataArray>
      </Cells>
      <PointData>
        <DataArray type="Float64" Name="rho">
          9.47390954e-01 9.48912024e-01 9.50425395e-01 9.51928322e-01 
        </DataArray>
        <DataArray type="Float64" Name="rhou">
          2.82578255e-04 2.61752342e-04 2.61307722e-04 2.70553897e-04 
        </DataArray>
        <DataArray type="Float64" Name="rhov">
          5.11244323e-05 4.27858559e-05 3.83709359e-05 5.26113467e-05 
        </DataArray>
        <DataArray type="Float64" Name="E">
          2.15610527e+05 2.15972023e+05 2.16331648e+05 2.16688775e+05 
        </DataArray>
      </PointData>
    </Piece>
    <Piece NumberOfPoints="4" NumberOfCells="3">
      <Points>
        <DataArray type="Float64" NumberOfComponents="3" format="ascii">
          7.51680970e-01 -3.10197193e-02 0.00000000e+00 
7.62049198e-01 -2.99084149e-02 0.00000000e+00 
7.72415876e-01 -2.87819952e-02 0.00000000e+00 
7.82780826e-01 -2.76402626e-02 0.00000000e+00 

        </DataArray>
      </Points>
      <Cells>
        <DataArray type="Int32" Name="connectivity" format="ascii">
0 1
1 2
2 3

        </DataArray>
        <DataArray type="Int32" Name="offsets" format="ascii">
2 4 6 
        </DataArray>
        <DataArray type="UInt8" Name="types" format="ascii">
3 3 3 
        </DataArray>
      </Cells>
      <PointData>
        <DataArray type="Float64" Name="rho">
          9.42784346e-01 9.44327722e-01 9.45863143e-01 9.47390918e-01 
        </DataArray>
        <DataArray type="Float64" Name="rhou">
          2.96036793e-04 2.91887705e-04 2.86416564e-04 2.72342342e-04 
        </DataArray>
        <DataArray type="Float64" Name="rhov">
          4.39600823e-05 3.74170056e-05 4.12864306e-05 4.89409481e-05 
        </DataArray>
        <DataArray type="Float64" Name="E">
          2.14515497e+05 2.14882399e+05 2.15247384e+05 2.15610519e+05 
        </DataArray>
      </PointData>
    </Piece>
    <Piece NumberOfPoints="4" NumberOfCells="3">
      <Points>
        <DataArray type="Float64" NumberOfComponents="3" format="ascii">
          7.20566452e-01 -3.42622213e-02 0.00000000e+00 
7.30939507e-01 -3.31965312e-02 0.00000000e+00 
7.41311073e-01 -3.21157984e-02 0.00000000e+00 
7.51680970e-01 -3.10197193e-02 0.00000000e+00 

        </DataArray>
      </Points>
      <Cells>
        <DataArray type="Int32" Name="connectivity" format="ascii">
0 1
1 2
2 3

        </DataArray>
        <DataArray type="Int32" Name="offsets" format="ascii">
2 4 6 
        </DataArray>
        <DataArray type="UInt8" Name="types" format="ascii">
3 3 3 
        </DataArray>
      </Cells>
      <PointData>
        <DataArray type="Float64" Name="rho">
          9.38118133e-01 9.39680304e-01 9.41235887e-01 9.42784338e-01 
        </DataArray>
        <DataArray type="Float64" Name="rhou">
          3.21818735e-04 3.15039369e-04 3.12222183e-04 2.99282083e-04 
        </DataArray>
        <DataArray type="Float64" Name="rhov">
          4.04123775e-05 2.96493276e-05 3.24245722e-05 4.43838659e-05 
        </DataArray>
        <DataArray type="Float64" Name="E">
          2.13405968e+05 2.13777449e+05 2.14147334e+05 2.14515495e+05 
        </DataArray>
      </PointData>
    </Piece>
    <Piece NumberOfPoints="4" NumberOfCells="3">
      <Points>
        <DataArray type="Float64" NumberOfComponents="3" format="ascii">
          6.89437866e-01 -3.73662710e-02 0.00000000e+00 
6.99815631e-01 -3.63472365e-02 0.00000000e+00 
7.10191846e-01 -3.53125818e-02 0.00000000e+00 
7.20566452e-01 -3.42622213e-02 0.00000000e+00 

        </DataArray>
      </Points>
      <Cells>
        <DataArray type="Int32" Name="connectivity" format="ascii">
0 1
1 2
2 3

        </DataArray>
        <DataArray type="Int32" Name="offsets" format="ascii">
2 4 6 
        </DataArray>
        <DataArray type="UInt8" Name="types" format="ascii">
3 3 3 
        </DataArray>
      </Cells>
      <PointData>
        <DataArray type="Float64" Name="rho">
          9.33409449e-01 9.34983408e-01 9.36553070e-01 9.38118144e-01 
        </DataArray>
        <DataArray type="Float64" Name="rhou">
          3.54572307e-04 3.47414425e-04 3.40513355e-04 3.22858701e-04 
        </DataArray>
        <DataArray type="Float64" Name="rhov">
          3.23400396e-05 2.51990917e-05 2.99067641e-05 4.06257740e-05 
        </DataArray>
        <DataArray type="Float64" Name="E">
          2.12285945e+05 2.12660369e+05 2.13033735e+05 2.13405970e+05 
        </DataArray>
      </PointData>
    </Piece>
    <Piece NumberOfPoints="4" NumberOfCells="3">
      <Points>
        <DataArray type="Float64" NumberOfComponents="3" format="ascii">
          6.58295333e-01 -4.03269380e-02 0.00000000e+00 
6.68677747e-01 -3.93563360e-02 0.00000000e+00 
6.79058611e-01 -3.83694395e-02 0.00000000e+00 
6.89437866e-01 -3.73662710e-02 0.00000000e+00 

        </DataArray>
      </Points>
      <Cells>
        <DataArray type="Int32" Name="connectivity" format="ascii">
0 1
1 2
2 3

        </DataArray>
        <DataArray type="Int32" Name="offsets" format="ascii">
2 4 6 
        </DataArray>
        <DataArray type="UInt8" Name="types" format="ascii">
3 3 3 
        </DataArray>
      </Cells>
      <PointData>
        <DataArray type="Float64" Name="rho">
          9.28680795e-01 9.30258433e-01 9.31834639e-01 9.33409502e-01 
        </DataArray>
        <DataArray type="Float64" Name="rhou">
          3.91043144e-04 3.85559772e-04 3.73031096e-04 3.52714642e-04 
        </DataArray>
        <DataArray type="Float64" Name="rhov">
          2.11085018e-05 1.81707485e-05 2.48929353e-05 3.30665518e-05 
        </DataArray>
        <DataArray type="Float64" Name="E">
          2.11160722e+05 2.11536178e+05 2.11911253e+05 2.12285957e+05 
        </DataArray>
      </PointData>
    </Piece>
    <Piece NumberOfPoints="4" NumberOfCells="3">
      <Points>
        <DataArray type="Float64" NumberOfComponents="3" format="ascii">
          6.27138972e-01 -4.31386717e-02 0.00000000e+00 
6.37525976e-01 -4.22184542e-02 0.00000000e+00 
6.47911429e-01 -4.12811004e-02 0.00000000e+00 
6.58295333e-01 -4.03269380e-02 0.00000000e+00 

        </DataArray>
      </Points>
      <Cells>
        <DataArray type="Int32" Name="connectivity" format="ascii">
0 1
1 2
2 3

        </DataArray>
        <DataArray type="Int32" Name="offsets" format="ascii">
2 4 6 
        </DataArray>
        <DataArray type="UInt8" Name="types" format="ascii">
3 3 3 
        </DataArray>
      </Cells>
      <PointData>
        <DataArray type="Float64" Name="rho">
          9.23962377e-01 9.25531636e-01 9.27105031e-01 9.28680828e-01 
        </DataArray>
        <DataArray type="Float64" Name="rhou">
          4.41661600e-04 4.23227732e-04 4.06254388e-04 3.91962578e-04 
        </DataArray>
        <DataArray type="Float64" Name="rhov">
          1.73212147e-05 1.63648560e-05 1.78692231e-05 2.19580107e-05 
        </DataArray>
        <DataArray type="Float64" Name="E">
          2.10037415e+05 2.10411070e+05 2.10785644e+05 2.11160729e+05 
        </DataArray>
      </PointData>
    </Piece>
    <Piece NumberOfPoints="4" NumberOfCells="3">
      <Points>
        <DataArray type="Float64" NumberOfComponents="3" format="ascii">
          5.95968783e-01 -4.57924642e-02 0.00000000e+00 
6.06360376e-01 -4.49259281e-02 0.00000000e+00 
6.16750479e-01 -4.40412909e-02 0.00000000e+00 
6.27138972e-01 -4.31386717e-02 0.00000000e+00 

        </DataArray>
      </Points>
      <Cells>
        <DataArray type="Int32" Name="connectivity" format="ascii">
0 1
1 2
2 3

        </DataArray>
        <DataArray type="Int32" Name="offsets" format="ascii">
2 4 6 
        </DataArray>
        <DataArray type="UInt8" Name="types" format="ascii">
3 3 3 
        </DataArray>
      </Cells>
      <PointData>
        <DataArray type="Float64" Name="rho">
          9.19297693e-01 9.20844514e-01 9.22399806e-01 9.23962370e-01 
        </DataArray>
        <DataArray type="Float64" Name="rhou">
          4.85703317e-04 4.73887081e-04 4.56936089e-04 4.35257901e-04 
        </DataArray>
        <DataArray type="Float64" Name="rhov">
          5.08527770e-06 2.09299872e-06 8.61663438e-06 1.81012480e-05 
        </DataArray>
        <DataArray type="Float64" Name="E">
          2.08926281e+05 2.09294801e+05 2.09665275e+05 2.10037413e+05 
        </DataArray>
      </PointData>
    </Piece>
    <Piece NumberOfPoints="4" NumberOfCells="3">
      <Points>
        <DataArray type="Float64" NumberOfComponents="3" format="ascii">
          5.64784765e-01 -4.82786149e-02 0.00000000e+00 
5.75181007e-01 -4.74695377e-02 0.00000000e+00 
5.85575700e-01 -4.66405638e-02 0.00000000e+00 
5.95968783e-01 -4.57924642e-02 0.00000000e+00 

        </DataArray>
      </Points>
      <Cells>
        <DataArray type="Int32" Name="connectivity" format="ascii">
0 1
1 2
2 3

        </DataArray>
        <DataArray type="Int32" Name="offsets" format="ascii">
2 4 6 
        </DataArray>
        <DataArray type="UInt8" Name="types" format="ascii">
3 3 3 
        </DataArray>
      </Cells>
      <PointData>
        <DataArray type="Float64" Name="rho">
          9.14745372e-01 9.16245372e-01 9.17763459e-01 9.19297804e-01 
        </DataArray>
        <DataArray type="Float64" Name="rhou">
          5.60983931e-04 5.35128630e-04 5.02705789e-04 4.79585893e-04 
        </DataArray>
        <DataArray type="Float64" Name="rhov">
          -6.71180789e-06 4.60437610e-06 9.40314468e-06 5.97994027e-06 
        </DataArray>
        <DataArray type="Float64" Name="E">
          2.07841140e+05 2.08198798e+05 2.08560668e+05 2.08926306e+05 
        </DataArray>
      </PointData>
    </Piece>
    <Piece NumberOfPoints="4" NumberOfCells="3">
      <Points>
        <DataArray type="Float64" NumberOfComponents="3" format="ascii">
          5.33586800e-01 -5.05827516e-02 0.00000000e+00 
5.43987691e-01 -4.98356484e-02 0.00000000e+00 
5.54387033e-01 -4.90674041e-02 0.00000000e+00 
5.64784765e-01 -4.82786149e-02 0.00000000e+00 

        </DataArray>
      </Points>
      <Cells>
        <DataArray type="Int32" Name="connectivity" format="ascii">
0 1
1 2
2 3

        </DataArray>
        <DataArray type="Int32" Name="offsets" format="ascii">
2 4 6 
        </DataArray>
        <DataArray type="UInt8" Name="types" format="ascii">
3 3 3 
        </DataArray>
      </Cells>
      <PointData>
        <DataArray type="Float64" Name="rho">
          9.10377990e-01 9.11807240e-01 9.13264831e-01 9.14745332e-01 
        </DataArray>
        <DataArray type="Float64" Name="rhou">
          6.34374448e-04 5.95188197e-04 5.66826447e-04 5.55416688e-04 
        </DataArray>
        <DataArray type="Float64" Name="rhov">
          -5.95079202e-06 -5.88569633e-06 -8.86503062e-06 -6.37410549e-06 
        </DataArray>
        <DataArray type="Float64" Name="E">
          2.06799174e+05 2.07140289e+05 2.07488030e+05 2.07841130e+05 
        </DataArray>
      </PointData>
    </Piece>
    <Piece NumberOfPoints="4" NumberOfCells="3">
      <Points>
        <DataArray type="Float64" NumberOfComponents="3" format="ascii">
          5.02374947e-01 -5.26902266e-02 0.00000000e+00 
5.12780428e-01 -5.20105064e-02 0.00000000e+00 
5.23184419e-01 -5.13078682e-02 0.00000000e+00 
5.33586800e-01 -5.05827516e-02 0.00000000e+00 

        </DataArray>
      </Points>
      <Cells>
        <DataArray type="Int32" Name="connectivity" format="ascii">
0 1
1 2
2 3

        </DataArray>
        <DataArray type="Int32" Name="offsets" format="ascii">
2 4 6 
        </DataArray>
        <DataArray type="UInt8" Name="types" format="ascii">
3 3 3 
        </DataArray>
      </Cells>
      <PointData>
        <DataArray type="Float64" Name="rho">
          9.06295068e-01 9.07618117e-01 9.08981091e-01 9.10377895e-01 
        </DataArray>
        <DataArray type="Float64" Name="rhou">
          7.14992902e-04 6.79130766e-04 6.51878968e-04 6.31674032e-04 
        </DataArray>
        <DataArray type="Float64" Name="rhov">
          -1.55179542e-05 -2.17887973e-05 -2.02631659e-05 -6.42100530e-06 
        </DataArray>
        <DataArray type="Float64" Name="E">
          2.05823872e+05 2.06140065e+05 2.06465634e+05 2.06799152e+05 
        </DataArray>
      </PointData>
    </Piece>
    <Piece NumberOfPoints="4" NumberOfCells="3">
      <Points>
        <DataArray type="Float64" NumberOfComponents="3" format="ascii">
          4.71149325e-01 -5.45825884e-02 0.00000000e+00 
4.81559396e-01 -5.39771840e-02 0.00000000e+00 
4.91967946e-01 -5.33461571e-02 0.00000000e+00 
5.02374947e-01 -5.26902266e-02 0.00000000e+00 

        </DataArray>
      </Points>
      <Cells>
        <DataArray type="Int32" Name="connectivity" format="ascii">
0 1
1 2
2 3

        </DataArray>
        <DataArray type="Int32" Name="offsets" format="ascii">
2 4 6 
        </DataArray>
        <DataArray type="UInt8" Name="types" format="ascii">
3 3 3 
        </DataArray>
      </Cells>
      <PointData>
        <DataArray type="Float64" Name="rho">
          9.02627758e-01 9.03796085e-01 9.05018942e-01 9.06295156e-01 
        </DataArray>
        <DataArray type="Float64" Name="rhou">
          8.20828579e-04 7.98279008e-04 7.51878223e-04 6.95419855e-04 
        </DataArray>
        <DataArray type="Float64" Name="rhov">
          -4.00600717e-05 -3.37684595e-05 -1.65552246e-05 -1.27419527e-05 
        </DataArray>
        <DataArray type="Float64" Name="E">
          2.04946204e+05 2.05226020e+05 2.05518690e+05 2.05823892e+05 
        </DataArray>
      </PointData>
    </Piece>
    <Piece NumberOfPoints="4" NumberOfCells="3">
      <Points>
        <DataArray type="Float64" NumberOfComponents="3" format="ascii">
          4.39910263e-01 -5.62384278e-02 0.00000000e+00 
4.50324744e-01 -5.57143167e-02 0.00000000e+00 
4.60737765e-01 -5.51619194e-02 0.00000000e+00 
4.71149325e-01 -5.45825884e-02 0.00000000e+00 

        </DataArray>
      </Points>
      <Cells>
        <DataArray type="Int32" Name="connectivity" format="ascii">
0 1
1 2
2 3

        </DataArray>
        <DataArray type="Int32" Name="offsets" format="ascii">
2 4 6 
        </DataArray>
        <DataArray type="UInt8" Name="types" format="ascii">
3 3 3 
        </DataArray>
      </Cells>
      <PointData>
        <DataArray type="Float64" Name="rho">
          8.99535480e-01 9.00487857e-01 9.01522170e-01 9.02627833e-01 
        </DataArray>
        <DataArray type="Float64" Name="rhou">
          9.88098553e-04 9.11382445e-04 8.53355215e-04 8.26178322e-04 
        </DataArray>
        <DataArray type="Float64" Name="rhov">
          -3.29936855e-05 -2.39144930e-05 -3.03408388e-05 -3.75488607e-05 
        </DataArray>
        <DataArray type="Float64" Name="E">
          2.04203894e+05 2.04432885e+05 2.04681155e+05 2.04946220e+05 
        </DataArray>
      </PointData>
    </Piece>
    <Piece NumberOfPoints="4" NumberOfCells="3">
      <Points>
        <DataArray type="Float64" NumberOfComponents="3" format="ascii">
          4.08658355e-01 -5.76302819e-02 0.00000000e+00 
4.19077009e-01 -5.71971126e-02 0.00000000e+00 
4.29494321e-01 -5.67329265e-02 0.00000000e+00 
4.39910263e-01 -5.62384278e-02 0.00000000e+00 

        </DataArray>
      </Points>
      <Cells>
        <DataArray type="Int32" Name="connectivity" format="ascii">
0 1
1 2
2 3

        </DataArray>
        <DataArray type="Int32" Name="offsets" format="ascii">
2 4 6 
        </DataArray>
        <DataArray type="UInt8" Name="types" format="ascii">
3 3 3 
        </DataArray>
      </Cells>
      <PointData>
        <DataArray type="Float64" Name="rho">
          8.97229379e-01 8.97897978e-01 8.98670530e-01 8.99535250e-01 
        </DataArray>
        <DataArray type="Float64" Name="rhou">
          1.14282276e-03 1.07347468e-03 1.02211377e-03 9.82746082e-04 
        </DataArray>
        <DataArray type="Float64" Name="rhov">
          -4.14152492e-05 -5.37288557e-05 -5.28848060e-05 -3.28339144e-05 
        </DataArray>
        <DataArray type="Float64" Name="E">
          2.03646905e+05 2.03808946e+05 2.03995512e+05 2.04203842e+05 
        </DataArray>
      </PointData>
    </Piece>
    <Piece NumberOfPoints="4" NumberOfCells="3">
      <Points>
        <DataArray type="Float64" NumberOfComponents="3" format="ascii">
          3.77394795e-01 -5.87291755e-02 0.00000000e+00 
3.87817174e-01 -5.83979115e-02 0.00000000e+00 
3.98238391e-01 -5.80311492e-02 0.00000000e+00 
4.08658355e-01 -5.76302819e-02 0.00000000e+00 

        </DataArray>
      </Points>
      <Cells>
        <DataArray type="Int32" Name="connectivity" format="ascii">
0 1
1 2
2 3

        </DataArray>
        <DataArray type="Int32" Name="offsets" format="ascii">
2 4 6 
        </DataArray>
        <DataArray type="UInt8" Name="types" format="ascii">
3 3 3 
        </DataArray>
      </Cells>
      <PointData>
        <DataArray type="Float64" Name="rho">
          8.95975382e-01 8.96258899e-01 8.96678027e-01 8.97229590e-01 
        </DataArray>
        <DataArray type="Float64" Name="rhou">
          1.39098967e-03 1.31756328e-03 1.21638925e-03 1.11178103e-03 
        </DataArray>
        <DataArray type="Float64" Name="rhov">
          -8.46052403e-05 -5.69096813e-05 -2.92748825e-05 -3.65389603e-05 
        </DataArray>
        <DataArray type="Float64" Name="E">
          2.03338097e+05 2.03409273e+05 2.03512504e+05 2.03646953e+05 
        </DataArray>
      </PointData>
    </Piece>
    <Piece NumberOfPoints="4" NumberOfCells="3">
      <Points>
        <DataArray type="Float64" NumberOfComponents="3" format="ascii">
          3.46121490e-01 -5.95011823e-02 0.00000000e+00 
3.56546819e-01 -5.92821389e-02 0.00000000e+00 
3.66971314e-01 -5.90242445e-02 0.00000000e+00 
3.77394795e-01 -5.87291755e-02 0.00000000e+00 

        </DataArray>
      </Points>
      <Cells>
        <DataArray type="Int32" Name="connectivity" format="ascii">
0 1
1 2
2 3

        </DataArray>
        <DataArray type="Int32" Name="offsets" format="ascii">
2 4 6 
        </DataArray>
        <DataArray type="UInt8" Name="types" format="ascii">
3 3 3 
        </DataArray>
      </Cells>
      <PointData>
        <DataArray type="Float64" Name="rho">
          8.96067821e-01 8.95862294e-01 8.95837295e-01 8.95975474e-01 
        </DataArray>
        <DataArray type="Float64" Name="rhou">
          1.73277025e-03 1.58882357e-03 1.46035520e-03 1.39438554e-03 
        </DataArray>
        <DataArray type="Float64" Name="rhov">
          -1.19252411e-04 -7.74853296e-05 -7.01714723e-05 -7.99897501e-05 
        </DataArray>
        <DataArray type="Float64" Name="E">
          2.03347373e+05 2.03303021e+05 2.03301300e+05 2.03338117e+05 
        </DataArray>
      </PointData>
    </Piece>
    <Piece NumberOfPoints="4" NumberOfCells="3">
      <Points>
        <DataArray type="Float64" NumberOfComponents="3" format="ascii">
          3.14841360e-01 -5.99102043e-02 0.00000000e+00 
3.25268596e-01 -5.98174632e-02 0.00000000e+00 
3.35695356e-01 -5.96801341e-02 0.00000000e+00 
3.46121490e-01 -5.95011823e-02 0.00000000e+00 

        </DataArray>
      </Points>
      <Cells>
        <DataArray type="Int32" Name="connectivity" format="ascii">
0 1
1 2
2 3

        </DataArray>
        <DataArray type="Int32" Name="offsets" format="ascii">
2 4 6 
        </DataArray>
        <DataArray type="UInt8" Name="types" format="ascii">
3 3 3 
        </DataArray>
      </Cells>
      <PointData>
        <DataArray type="Float64" Name="rho">
          8.97914609e-01 8.97064177e-01 8.96457860e-01 8.96067531e-01 
        </DataArray>
        <DataArray type="Float64" Name="rhou">
          2.18182608e-03 1.93809786e-03 1.77359251e-03 1.69732411e-03 
        </DataArray>
        <DataArray type="Float64" Name="rhov">
          -5.65490310e-05 -3.32804699e-05 -6.53943405e-05 -1.18479665e-04 
        </DataArray>
        <DataArray type="Float64" Name="E">
          2.03771351e+05 2.03574549e+05 2.03435412e+05 2.03347306e+05 
        </DataArray>
      </PointData>
    </Piece>
    <Piece NumberOfPoints="4" NumberOfCells="3">
      <Points>
        <DataArray type="Float64" NumberOfComponents="3" format="ascii">
          2.83558637e-01 -5.98983802e-02 0.00000000e+00 
2.93986142e-01 -5.99516556e-02 0.00000000e+00 
3.04413795e-01 -5.99554181e-02 0.00000000e+00 
3.14841360e-01 -5.99102043e-02 0.00000000e+00 

        </DataArray>
      </Points>
      <Cells>
        <DataArray type="Int32" Name="connectivity" format="ascii">
0 1
1 2
2 3

        </DataArray>
        <DataArray type="Int32" Name="offsets" format="ascii">
2 4 6 
        </DataArray>
        <DataArray type="UInt8" Name="types" format="ascii">
3 3 3 
        </DataArray>
      </Cells>
      <PointData>
        <DataArray type="Float64" Name="rho">
          9.02033461e-01 9.00389254e-01 8.99021906e-01 8.97913899e-01 
        </DataArray>
        <DataArray type="Float64" Name="rhou">
          2.65850750e-03 2.49382942e-03 2.35644061e-03 2.17283468e-03 
        </DataArray>
        <DataArray type="Float64" Name="rhov">
          -1.13386513e-04 -1.80159072e-04 -1.44549425e-04 -4.99463102e-05 
        </DataArray>
        <DataArray type="Float64" Name="E">
          2.04733310e+05 2.04348273e+05 2.04028954e+05 2.03771189e+05 
        </DataArray>
      </PointData>
    </Piece>
    <Piece NumberOfPoints="4" NumberOfCells="3">
      <Points>
        <DataArray type="Float64" NumberOfComponents="3" format="ascii">
          2.52279758e-01 -5.94130717e-02 0.00000000e+00 
2.62705088e-01 -5.96327744e-02 0.00000000e+00 
2.73131490e-01 -5.97934239e-02 0.00000000e+00 
2.83558637e-01 -5.98983802e-02 0.00000000e+00 

        </DataArray>
      </Points>
      <Cells>
        <DataArray type="Int32" Name="connectivity" format="ascii">
0 1
1 2
2 3

        </DataArray>
        <DataArray type="Int32" Name="offsets" format="ascii">
2 4 6 
        </DataArray>
        <DataArray type="UInt8" Name="types" format="ascii">
3 3 3 
        </DataArray>
      </Cells>
      <PointData>
        <DataArray type="Float64" Name="rho">
          9.09047075e-01 9.06339260e-01 9.04004465e-01 9.02034380e-01 
        </DataArray>
        <DataArray type="Float64" Name="rhou">
          3.62955408e-03 3.32471145e-03 2.98971313e-03 2.64477445e-03 
        </DataArray>
        <DataArray type="Float64" Name="rhov">
          -2.61273555e-04 -1.69377838e-04 -8.24491322e-05 -9.42467847e-05 
        </DataArray>
        <DataArray type="Float64" Name="E">
          2.06381289e+05 2.05744160e+05 2.05195661e+05 2.04733522e+05 
        </DataArray>
      </PointData>
    </Piece>
    <Piece NumberOfPoints="4" NumberOfCells="3">
      <Points>
        <DataArray type="Float64" NumberOfComponents="3" format="ascii">
          2.21014455e-01 -5.83752058e-02 0.00000000e+00 
2.31433928e-01 -5.87876961e-02 0.00000000e+00 
2.41855890e-01 -5.91322705e-02 0.00000000e+00 
2.52279758e-01 -5.94130717e-02 0.00000000e+00 

        </DataArray>
      </Points>
      <Cells>
        <DataArray type="Int32" Name="connectivity" format="ascii">
0 1
1 2
2 3

        </DataArray>
        <DataArray type="Int32" Name="offsets" format="ascii">
2 4 6 
        </DataArray>
        <DataArray type="UInt8" Name="types" format="ascii">
3 3 3 
        </DataArray>
      </Cells>
      <PointData>
        <DataArray type="Float64" Name="rho">
          9.19740258e-01 9.15699472e-01 9.12150847e-01 9.09047256e-01 
        </DataArray>
        <DataArray type="Float64" Name="rhou">
          4.98092790e-03 4.39637588e-03 3.95066760e-03 3.66363267e-03 
        </DataArray>
        <DataArray type="Float64" Name="rhov">
          -3.66572549e-04 -2.62792463e-04 -2.30775814e-04 -2.44938837e-04 
        </DataArray>
        <DataArray type="Float64" Name="E">
          2.08903383e+05 2.07949483e+05 2.07112546e+05 2.06381326e+05 
        </DataArray>
      </PointData>
    </Piece>
    <Piece NumberOfPoints="4" NumberOfCells="3">
      <Points>
        <DataArray type="Float64" NumberOfComponents="3" format="ascii">
          1.89777538e-01 -5.66898957e-02 0.00000000e+00 
2.00185493e-01 -5.73302582e-02 0.00000000e+00 
2.10598081e-01 -5.78906052e-02 0.00000000e+00 
2.21014455e-01 -5.83752058e-02 0.00000000e+00 

        </DataArray>
      </Points>
      <Cells>
        <DataArray type="Int32" Name="connectivity" format="ascii">
0 1
1 2
2 3

        </DataArray>
        <DataArray type="Int32" Name="offsets" format="ascii">
2 4 6 
        </DataArray>
        <DataArray type="UInt8" Name="types" format="ascii">
3 3 3 
        </DataArray>
      </Cells>
      <PointData>
        <DataArray type="Float64" Name="rho">
          9.35201765e-01 9.29440709e-01 9.24306768e-01 9.19739500e-01 
        </DataArray>
        <DataArray type="Float64" Name="rhou">
          6.90137609e-03 6.10137109e-03 5.51629678e-03 5.04327479e-03 
        </DataArray>
        <DataArray type="Float64" Name="rhov">
          -6.46493156e-04 -5.76246885e-04 -4.77108839e-04 -3.53876777e-04 
        </DataArray>
        <DataArray type="Float64" Name="E">
          2.12560488e+05 2.11196699e+05 2.09982423e+05 2.08903208e+05 
        </DataArray>
      </PointData>
    </Piece>
    <Piece NumberOfPoints="4" NumberOfCells="3">
      <Points>
        <DataArray type="Float64" NumberOfComponents="3" format="ascii">
          1.58592433e-01 -5.42296544e-02 0.00000000e+00 
1.68979734e-01 -5.51457107e-02 0.00000000e+00 
1.79375216e-01 -5.59638515e-02 0.00000000e+00 
1.89777538e-01 -5.66898957e-02 0.00000000e+00 

        </DataArray>
      </Points>
      <Cells>
        <DataArray type="Int32" Name="connectivity" format="ascii">
0 1
1 2
2 3

        </DataArray>
        <DataArray type="Int32" Name="offsets" format="ascii">
2 4 6 
        </DataArray>
        <DataArray type="UInt8" Name="types" format="ascii">
3 3 3 
        </DataArray>
      </Cells>
      <PointData>
        <DataArray type="Float64" Name="rho">
          9.56998422e-01 9.48920977e-01 9.41672363e-01 9.35202183e-01 
        </DataArray>
        <DataArray type="Float64" Name="rhou">
          9.95790506e-03 8.88405790e-03 7.93477203e-03 6.97254822e-03 
        </DataArray>
        <DataArray type="Float64" Name="rhov">
          -1.39609998e-03 -1.20529360e-03 -8.75153324e-04 -6.06047248e-04 
        </DataArray>
        <DataArray type="Float64" Name="E">
          2.17729042e+05 2.15812015e+05 2.14093377e+05 2.12560588e+05 
        </DataArray>
      </PointData>
    </Piece>
    <Piece NumberOfPoints="4" NumberOfCells="3">
      <Points>
        <DataArray type="Float64" NumberOfComponents="3" format="ascii">
          1.27497971e-01 -5.08146733e-02 0.00000000e+00 
1.37849152e-01 -5.20747155e-02 0.00000000e+00 
1.48214847e-01 -5.32093942e-02 0.00000000e+00 
1.58592433e-01 -5.42296544e-02 0.00000000e+00 

        </DataArray>
      </Points>
      <Cells>
        <DataArray type="Int32" Name="connectivity" format="ascii">
0 1
1 2
2 3

        </DataArray>
        <DataArray type="Int32" Name="offsets" format="ascii">
2 4 6 
        </DataArray>
        <DataArray type="UInt8" Name="types" format="ascii">
3 3 3 
        </DataArray>
      </Cells>
      <PointData>
        <DataArray type="Float64" Name="rho">
          9.87556972e-01 9.76185519e-01 9.66020136e-01 9.57002468e-01 
        </DataArray>
        <DataArray type="Float64" Name="rhou">
          1.44863774e-02 1.33088028e-02 1.15048096e-02 9.98634067e-03 
        </DataArray>
        <DataArray type="Float64" Name="rhov">
          -2.26836381e-03 -2.02235089e-03 -1.40852666e-03 -1.32418755e-03 
        </DataArray>
        <DataArray type="Float64" Name="E">
          2.24994089e+05 2.22288138e+05 2.19871937e+05 2.17729969e+05 
        </DataArray>
      </PointData>
    </Piece>
    <Piece NumberOfPoints="4" NumberOfCells="3">
      <Points>
        <DataArray type="Float64" NumberOfComponents="3" format="ascii">
          9.65642184e-02 -4.61716652e-02 0.00000000e+00 
1.06852271e-01 -4.78802323e-02 0.00000000e+00 
1.17164567e-01 -4.94215861e-02 0.00000000e+00 
1.27497971e-01 -5.08146733e-02 0.00000000e+00 

        </DataArray>
      </Points>
      <Cells>
        <DataArray type="Int32" Name="connectivity" format="ascii">
0 1
1 2
2 3

        </DataArray>
        <DataArray type="Int32" Name="offsets" format="ascii">
2 4 6 
        </DataArray>
        <DataArray type="UInt8" Name="types" format="ascii">
3 3 3 
        </DataArray>
      </Cells>
      <PointData>
        <DataArray type="Float64" Name="rho">
          1.03099114e+00 1.01467120e+00 1.00022224e+00 9.87565311e-01 
        </DataArray>
        <DataArray type="Float64" Name="rhou">
          2.46553192e-02 1.80732160e-02 1.71593770e-02 1.28441810e-02 
        </DataArray>
        <DataArray type="Float64" Name="rhov">
          -9.14697905e-04 -7.21987882e-04 -1.54521055e-03 -1.58954306e-03 
        </DataArray>
        <DataArray type="Float64" Name="E">
          2.35355537e+05 2.31457633e+05 2.28011786e+05 2.24996099e+05 
        </DataArray>
      </PointData>
    </Piece>
  </UnstructuredGrid>
</VTKFile>
