<?xml version="1.0"?>
<VTKFile type="UnstructuredGrid" version="0.1" byte_order="LittleEndian">
  <UnstructuredGrid>
    <Piece NumberOfPoints="4" NumberOfCells="3">
      <Points>
        <DataArray type="Float64" NumberOfComponents="3" format="ascii">
          9.65642184e-02 -4.61716652e-02 0.00000000e+00 
9.26280916e-02 -4.54656407e-02 0.00000000e+00 
8.86965096e-02 -4.47326750e-02 0.00000000e+00 
8.47706869e-02 -4.39694971e-02 0.00000000e+00 

        </DataArray>
      </Points>
      <Cells>
        <DataArray type="Int32" Name="connectivity" format="ascii">
0 1
1 2
2 3

        </DataArray>
        <DataArray type="Int32" Name="offsets" format="ascii">
2 4 6 
        </DataArray>
        <DataArray type="UInt8" Name="types" format="ascii">
3 3 3 
        </DataArray>
      </Cells>
      <PointData>
        <DataArray type="Float64" Name="rho">
          1.03505061e+00 1.04195630e+00 1.04917667e+00 1.05684368e+00 
        </DataArray>
        <DataArray type="Float64" Name="rhou">
          2.83107671e-02 2.17918117e-02 2.44377547e-02 2.45988324e-02 
        </DataArray>
        <DataArray type="Float64" Name="rhov">
          -2.22555726e-03 -1.00155895e-03 -5.80298599e-04 -8.81983609e-04 
        </DataArray>
        <DataArray type="Float64" Name="E">
          2.36480282e+05 2.38132308e+05 2.39861259e+05 2.41697513e+05 
        </DataArray>
      </PointData>
    </Piece>
    <Piece NumberOfPoints="4" NumberOfCells="3">
      <Points>
        <DataArray type="Float64" NumberOfComponents="3" format="ascii">
          8.47706869e-02 -4.39694971e-02 0.00000000e+00 
8.08513016e-02 -4.31745499e-02 0.00000000e+00 
7.69388378e-02 -4.23462167e-02 0.00000000e+00 
7.30340332e-02 -4.14824970e-02 0.00000000e+00 

        </DataArray>
      </Points>
      <Cells>
        <DataArray type="Int32" Name="connectivity" format="ascii">
0 1
1 2
2 3

        </DataArray>
        <DataArray type="Int32" Name="offsets" format="ascii">
2 4 6 
        </DataArray>
        <DataArray type="UInt8" Name="types" format="ascii">
3 3 3 
        </DataArray>
      </Cells>
      <PointData>
        <DataArray type="Float64" Name="rho">
          1.05684250e+00 1.06493755e+00 1.07349603e+00 1.08258782e+00 
        </DataArray>
        <DataArray type="Float64" Name="rhou">
          2.46930414e-02 2.38543756e-02 2.24270324e-02 2.08428814e-02 
        </DataArray>
        <DataArray type="Float64" Name="rhov">
          -6.87498050e-04 -4.62829582e-04 4.65392306e-04 1.68397876e-03 
        </DataArray>
        <DataArray type="Float64" Name="E">
          2.41697250e+05 2.43637996e+05 2.45691104e+05 2.47873362e+05 
        </DataArray>
      </PointData>
    </Piece>
    <Piece NumberOfPoints="4" NumberOfCells="3">
      <Points>
        <DataArray type="Float64" NumberOfComponents="3" format="ascii">
          7.30340332e-02 -4.14824970e-02 0.00000000e+00 
6.91377968e-02 -4.05809283e-02 0.00000000e+00 
6.52511865e-02 -3.96387354e-02 0.00000000e+00 
6.13753870e-02 -3.86530459e-02 0.00000000e+00 

        </DataArray>
      </Points>
      <Cells>
        <DataArray type="Int32" Name="connectivity" format="ascii">
0 1
1 2
2 3

        </DataArray>
        <DataArray type="Int32" Name="offsets" format="ascii">
2 4 6 
        </DataArray>
        <DataArray type="UInt8" Name="types" format="ascii">
3 3 3 
        </DataArray>
      </Cells>
      <PointData>
        <DataArray type="Float64" Name="rho">
          1.08258841e+00 1.09229698e+00 1.10265414e+00 1.11371950e+00 
        </DataArray>
        <DataArray type="Float64" Name="rhou">
          2.09598738e-02 1.85892706e-02 1.44656876e-02 8.93766684e-03 
        </DataArray>
        <DataArray type="Float64" Name="rhov">
          1.51828977e-03 2.29043798e-03 4.40615119e-03 7.63611173e-03 
        </DataArray>
        <DataArray type="Float64" Name="E">
          2.47873523e+05 2.50206041e+05 2.52696043e+05 2.55358554e+05 
        </DataArray>
      </PointData>
    </Piece>
    <Piece NumberOfPoints="4" NumberOfCells="3">
      <Points>
        <DataArray type="Float64" NumberOfComponents="3" format="ascii">
          6.13753870e-02 -3.86530459e-02 0.00000000e+00 
5.75117208e-02 -3.76208089e-02 0.00000000e+00 
5.36618084e-02 -3.65384258e-02 0.00000000e+00 
4.98276278e-02 -3.54015976e-02 0.00000000e+00 

        </DataArray>
      </Points>
      <Cells>
        <DataArray type="Int32" Name="connectivity" format="ascii">
0 1
1 2
2 3

        </DataArray>
        <DataArray type="Int32" Name="offsets" format="ascii">
2 4 6 
        </DataArray>
        <DataArray type="UInt8" Name="types" format="ascii">
3 3 3 
        </DataArray>
      </Cells>
      <PointData>
        <DataArray type="Float64" Name="rho">
          1.11371976e+00 1.12557594e+00 1.13830783e+00 1.15204689e+00 
        </DataArray>
        <DataArray type="Float64" Name="rhou">
          8.88041030e-03 1.79641101e-03 -7.44558159e-03 -1.89963143e-02 
        </DataArray>
        <DataArray type="Float64" Name="rhov">
          7.40778106e-03 1.21549151e-02 2.02877028e-02 3.18243702e-02 
        </DataArray>
        <DataArray type="Float64" Name="E">
          2.55358618e+05 2.58215374e+05 2.61285795e+05 2.64602425e+05 
        </DataArray>
      </PointData>
    </Piece>
    <Piece NumberOfPoints="4" NumberOfCells="3">
      <Points>
        <DataArray type="Float64" NumberOfComponents="3" format="ascii">
          4.98276278e-02 -3.54015976e-02 0.00000000e+00 
4.60115410e-02 -3.42054628e-02 0.00000000e+00 
4.22164090e-02 -3.29444520e-02 0.00000000e+00 
3.84457745e-02 -3.16120051e-02 0.00000000e+00 

        </DataArray>
      </Points>
      <Cells>
        <DataArray type="Int32" Name="connectivity" format="ascii">
0 1
1 2
2 3

        </DataArray>
        <DataArray type="Int32" Name="offsets" format="ascii">
2 4 6 
        </DataArray>
        <DataArray type="UInt8" Name="types" format="ascii">
3 3 3 
        </DataArray>
      </Cells>
      <PointData>
        <DataArray type="Float64" Name="rho">
          1.15204681e+00 1.16689269e+00 1.18295768e+00 1.20043327e+00 
        </DataArray>
        <DataArray type="Float64" Name="rhou">
          -1.94529783e-02 -3.36161023e-02 -5.26284261e-02 -7.53626711e-02 
        </DataArray>
        <DataArray type="Float64" Name="rhov">
          3.16098977e-02 4.83567752e-02 7.61053773e-02 1.16679856e-01 
        </DataArray>
        <DataArray type="Float64" Name="E">
          2.64602372e+05 2.68192725e+05 2.72082726e+05 2.76320654e+05 
        </DataArray>
      </PointData>
    </Piece>
    <Piece NumberOfPoints="4" NumberOfCells="3">
      <Points>
        <DataArray type="Float64" NumberOfComponents="3" format="ascii">
          3.84457745e-02 -3.16120051e-02 0.00000000e+00 
3.47041376e-02 -3.02002355e-02 0.00000000e+00 
3.09973080e-02 -2.86995135e-02 0.00000000e+00 
2.73328498e-02 -2.70981900e-02 0.00000000e+00 

        </DataArray>
      </Points>
      <Cells>
        <DataArray type="Int32" Name="connectivity" format="ascii">
0 1
1 2
2 3

        </DataArray>
        <DataArray type="Int32" Name="offsets" format="ascii">
2 4 6 
        </DataArray>
        <DataArray type="UInt8" Name="types" format="ascii">
3 3 3 
        </DataArray>
      </Cells>
      <PointData>
        <DataArray type="Float64" Name="rho">
          1.20043349e+00 1.21950894e+00 1.24037763e+00 1.26341130e+00 
        </DataArray>
        <DataArray type="Float64" Name="rhou">
          -7.63150186e-02 -1.00458655e-01 -1.29063742e-01 -1.54394149e-01 
        </DataArray>
        <DataArray type="Float64" Name="rhov">
          1.16597419e-01 1.72262954e-01 2.58329222e-01 3.78774540e-01 
        </DataArray>
        <DataArray type="Float64" Name="E">
          2.76320570e+05 2.80958288e+05 2.86040554e+05 2.91661591e+05 
        </DataArray>
      </PointData>
    </Piece>
    <Piece NumberOfPoints="4" NumberOfCells="3">
      <Points>
        <DataArray type="Float64" NumberOfComponents="3" format="ascii">
          2.73328498e-02 -2.70981900e-02 0.00000000e+00 
2.37206947e-02 -2.53822580e-02 0.00000000e+00 
2.01744195e-02 -2.35341713e-02 0.00000000e+00 
1.67132635e-02 -2.15314496e-02 0.00000000e+00 

        </DataArray>
      </Points>
      <Cells>
        <DataArray type="Int32" Name="connectivity" format="ascii">
0 1
1 2
2 3

        </DataArray>
        <DataArray type="Int32" Name="offsets" format="ascii">
2 4 6 
        </DataArray>
        <DataArray type="UInt8" Name="types" format="ascii">
3 3 3 
        </DataArray>
      </Cells>
      <PointData>
        <DataArray type="Float64" Name="rho">
          1.26341617e+00 1.28895457e+00 1.31745405e+00 1.35025935e+00 
        </DataArray>
        <DataArray type="Float64" Name="rhou">
          -1.54777873e-01 -1.68690777e-01 -1.52775494e-01 -5.64327128e-02 
        </DataArray>
        <DataArray type="Float64" Name="rhov">
          3.79446965e-01 5.31392055e-01 7.42160221e-01 9.60469039e-01 
        </DataArray>
        <DataArray type="Float64" Name="E">
          2.91662493e+05 2.97916925e+05 3.04909189e+05 3.12967823e+05 
        </DataArray>
      </PointData>
    </Piece>
    <Piece NumberOfPoints="4" NumberOfCells="3">
      <Points>
        <DataArray type="Float64" NumberOfComponents="3" format="ascii">
          1.67132635e-02 -2.15314496e-02 0.00000000e+00 
1.33649679e-02 -1.93456318e-02 0.00000000e+00 
1.01706637e-02 -1.69409402e-02 0.00000000e+00 
7.19343964e-03 -1.42731192e-02 0.00000000e+00 

        </DataArray>
      </Points>
      <Cells>
        <DataArray type="Int32" Name="connectivity" format="ascii">
0 1
1 2
2 3

        </DataArray>
        <DataArray type="Int32" Name="offsets" format="ascii">
2 4 6 
        </DataArray>
        <DataArray type="UInt8" Name="types" format="ascii">
3 3 3 
        </DataArray>
      </Cells>
      <PointData>
        <DataArray type="Float64" Name="rho">
          1.35015338e+00 1.39000128e+00 1.43722625e+00 1.50231142e+00 
        </DataArray>
        <DataArray type="Float64" Name="rhou">
          -3.38499561e-02 1.15019030e-01 4.56623742e-01 8.76827669e-01 
        </DataArray>
        <DataArray type="Float64" Name="rhov">
          9.22162287e-01 1.12475575e+00 1.06887084e+00 5.17203510e-01 
        </DataArray>
        <DataArray type="Float64" Name="E">
          3.12943589e+05 3.22735233e+05 3.34332292e+05 3.50200100e+05 
        </DataArray>
      </PointData>
    </Piece>
    <Piece NumberOfPoints="4" NumberOfCells="3">
      <Points>
        <DataArray type="Float64" NumberOfComponents="3" format="ascii">
          7.19343964e-03 -1.42731192e-02 0.00000000e+00 
4.53082798e-03 -1.12927537e-02 0.00000000e+00 
2.33371323e-03 -7.95678515e-03 0.00000000e+00 
8.10639584e-04 -4.26717056e-03 0.00000000e+00 

        </DataArray>
      </Points>
      <Cells>
        <DataArray type="Int32" Name="connectivity" format="ascii">
0 1
1 2
2 3

        </DataArray>
        <DataArray type="Int32" Name="offsets" format="ascii">
2 4 6 
        </DataArray>
        <DataArray type="UInt8" Name="types" format="ascii">
3 3 3 
        </DataArray>
      </Cells>
      <PointData>
        <DataArray type="Float64" Name="rho">
          1.50283138e+00 1.57724391e+00 1.66630342e+00 1.73495301e+00 
        </DataArray>
        <DataArray type="Float64" Name="rhou">
          8.01727834e-01 9.30592959e-01 2.56448484e-01 -1.28061487e+00 
        </DataArray>
        <DataArray type="Float64" Name="rhov">
          6.16167223e-01 -5.14583000e-01 -1.73342370e+00 -1.81905847e+00 
        </DataArray>
        <DataArray type="Float64" Name="E">
          3.50327575e+05 3.68505168e+05 3.90138383e+05 4.06836367e+05 
        </DataArray>
      </PointData>
    </Piece>
    <Piece NumberOfPoints="4" NumberOfCells="3">
      <Points>
        <DataArray type="Float64" NumberOfComponents="3" format="ascii">
          8.10639584e-04 -4.26717056e-03 0.00000000e+00 
1.91366620e-04 -3.27450951e-04 0.00000000e+00 
6.40850572e-04 3.63462302e-03 0.00000000e+00 
2.03182548e-03 7.37539819e-03 0.00000000e+00 

        </DataArray>
      </Points>
      <Cells>
        <DataArray type="Int32" Name="connectivity" format="ascii">
0 1
1 2
2 3

        </DataArray>
        <DataArray type="Int32" Name="offsets" format="ascii">
2 4 6 
        </DataArray>
        <DataArray type="UInt8" Name="types" format="ascii">
3 3 3 
        </DataArray>
      </Cells>
      <PointData>
        <DataArray type="Float64" Name="rho">
          1.73337400e+00 1.75821690e+00 1.70764615e+00 1.61507642e+00 
        </DataArray>
        <DataArray type="Float64" Name="rhou">
          -1.15483543e+00 -1.88320360e+00 -8.35133446e-01 7.55304893e-01 
        </DataArray>
        <DataArray type="Float64" Name="rhov">
          -1.97779061e+00 3.68270220e-01 1.88761618e+00 1.51658962e+00 
        </DataArray>
        <DataArray type="Float64" Name="E">
          4.06453824e+05 4.12404613e+05 4.00034455e+05 3.77411552e+05 
        </DataArray>
      </PointData>
    </Piece>
    <Piece NumberOfPoints="4" NumberOfCells="3">
      <Points>
        <DataArray type="Float64" NumberOfComponents="3" format="ascii">
          2.03182548e-03 7.37539819e-03 0.00000000e+00 
4.13410179e-03 1.07714310e-02 0.00000000e+00 
6.73249783e-03 1.38076087e-02 0.00000000e+00 
9.66598373e-03 1.65232457e-02 0.00000000e+00 

        </DataArray>
      </Points>
      <Cells>
        <DataArray type="Int32" Name="connectivity" format="ascii">
0 1
1 2
2 3

        </DataArray>
        <DataArray type="Int32" Name="offsets" format="ascii">
2 4 6 
        </DataArray>
        <DataArray type="UInt8" Name="types" format="ascii">
3 3 3 
        </DataArray>
      </Cells>
      <PointData>
        <DataArray type="Float64" Name="rho">
          1.61543804e+00 1.50823105e+00 1.41895840e+00 1.35199301e+00 
        </DataArray>
        <DataArray type="Float64" Name="rhou">
          7.27705076e-01 1.15838665e+00 8.42082075e-01 3.76218754e-01 
        </DataArray>
        <DataArray type="Float64" Name="rhov">
          1.75212241e+00 6.04200321e-02 -1.07880858e+00 -1.40356999e+00 
        </DataArray>
        <DataArray type="Float64" Name="E">
          3.77502592e+05 3.51460379e+05 3.29737690e+05 3.13361918e+05 
        </DataArray>
      </PointData>
    </Piece>
    <Piece NumberOfPoints="4" NumberOfCells="3">
      <Points>
        <DataArray type="Float64" NumberOfComponents="3" format="ascii">
          9.66598373e-03 1.65232457e-02 0.00000000e+00 
1.28298048e-02 1.89677756e-02 0.00000000e+00 
1.61561389e-02 2.11867876e-02 0.00000000e+00 
1.96009967e-02 2.32173651e-02 0.00000000e+00 

        </DataArray>
      </Points>
      <Cells>
        <DataArray type="Int32" Name="connectivity" format="ascii">
0 1
1 2
2 3

        </DataArray>
        <DataArray type="Int32" Name="offsets" format="ascii">
2 4 6 
        </DataArray>
        <DataArray type="UInt8" Name="types" format="ascii">
3 3 3 
        </DataArray>
      </Cells>
      <PointData>
        <DataArray type="Float64" Name="rho">
          1.35178755e+00 1.29932908e+00 1.26036994e+00 1.22607866e+00 
        </DataArray>
        <DataArray type="Float64" Name="rhou">
          3.85771582e-01 -1.66809068e-02 -1.98644887e-01 -2.19279357e-01 
        </DataArray>
        <DataArray type="Float64" Name="rhov">
          -1.42829937e+00 -1.32287936e+00 -9.91869609e-01 -6.65798535e-01 
        </DataArray>
        <DataArray type="Float64" Name="E">
          3.13309679e+05 3.00482314e+05 2.90906313e+05 2.82503796e+05 
        </DataArray>
      </PointData>
    </Piece>
    <Piece NumberOfPoints="4" NumberOfCells="3">
      <Points>
        <DataArray type="Float64" NumberOfComponents="3" format="ascii">
          1.96009967e-02 2.32173651e-02 0.00000000e+00 
2.31348258e-02 2.50891000e-02 0.00000000e+00 
2.67372411e-02 2.68253610e-02 0.00000000e+00 
3.03938854e-02 2.84444261e-02 0.00000000e+00 

        </DataArray>
      </Points>
      <Cells>
        <DataArray type="Int32" Name="connectivity" format="ascii">
0 1
1 2
2 3

        </DataArray>
        <DataArray type="Int32" Name="offsets" format="ascii">
2 4 6 
        </DataArray>
        <DataArray type="UInt8" Name="types" format="ascii">
3 3 3 
        </DataArray>
      </Cells>
      <PointData>
        <DataArray type="Float64" Name="rho">
          1.22614251e+00 1.19704182e+00 1.17101899e+00 1.14745614e+00 
        </DataArray>
        <DataArray type="Float64" Name="rhou">
          -2.32426404e-01 -2.18951894e-01 -1.73693820e-01 -1.31432711e-01 
        </DataArray>
        <DataArray type="Float64" Name="rhov">
          -6.84065923e-01 -4.32522668e-01 -2.45589737e-01 -1.32654503e-01 
        </DataArray>
        <DataArray type="Float64" Name="E">
          2.82518744e+05 2.75407660e+05 2.69071676e+05 2.63351724e+05 
        </DataArray>
      </PointData>
    </Piece>
    <Piece NumberOfPoints="4" NumberOfCells="3">
      <Points>
        <DataArray type="Float64" NumberOfComponents="3" format="ascii">
          3.03938854e-02 2.84444261e-02 0.00000000e+00 
3.40943485e-02 2.99607720e-02 0.00000000e+00 
3.78307216e-02 3.13864015e-02 0.00000000e+00 
4.15969416e-02 3.27312648e-02 0.00000000e+00 

        </DataArray>
      </Points>
      <Cells>
        <DataArray type="Int32" Name="connectivity" format="ascii">
0 1
1 2
2 3

        </DataArray>
        <DataArray type="Int32" Name="offsets" format="ascii">
2 4 6 
        </DataArray>
        <DataArray type="UInt8" Name="types" format="ascii">
3 3 3 
        </DataArray>
      </Cells>
      <PointData>
        <DataArray type="Float64" Name="rho">
          1.14745441e+00 1.12613732e+00 1.10677802e+00 1.08913328e+00 
        </DataArray>
        <DataArray type="Float64" Name="rhou">
          -1.29634467e-01 -8.94392284e-02 -5.66097135e-02 -3.36109993e-02 
        </DataArray>
        <DataArray type="Float64" Name="rhov">
          -1.31199336e-01 -5.48843567e-02 -7.69041038e-03 1.77743989e-02 
        </DataArray>
        <DataArray type="Float64" Name="E">
          2.63351572e+05 2.58195491e+05 2.53524273e+05 2.49274599e+05 
        </DataArray>
      </PointData>
    </Piece>
    <Piece NumberOfPoints="4" NumberOfCells="3">
      <Points>
        <DataArray type="Float64" NumberOfComponents="3" format="ascii">
          4.15969416e-02 3.27312648e-02 0.00000000e+00 
4.53883260e-02 3.40034962e-02 0.00000000e+00 
4.92011942e-02 3.52098532e-02 0.00000000e+00 
5.30325845e-02 3.63560505e-02 0.00000000e+00 

        </DataArray>
      </Points>
      <Cells>
        <DataArray type="Int32" Name="connectivity" format="ascii">
0 1
1 2
2 3

        </DataArray>
        <DataArray type="Int32" Name="offsets" format="ascii">
2 4 6 
        </DataArray>
        <DataArray type="UInt8" Name="types" format="ascii">
3 3 3 
        </DataArray>
      </Cells>
      <PointData>
        <DataArray type="Float64" Name="rho">
          1.08913386e+00 1.07301385e+00 1.05823065e+00 1.04462538e+00 
        </DataArray>
        <DataArray type="Float64" Name="rhou">
          -3.24690686e-02 -1.29918611e-02 1.47720999e-03 1.08846070e-02 
        </DataArray>
        <DataArray type="Float64" Name="rhov">
          1.76801545e-02 3.14175869e-02 3.81103179e-02 3.92903212e-02 
        </DataArray>
        <DataArray type="Float64" Name="E">
          2.49274811e+05 2.45400927e+05 2.41853858e+05 2.38593597e+05 
        </DataArray>
      </PointData>
    </Piece>
    <Piece NumberOfPoints="4" NumberOfCells="3">
      <Points>
        <DataArray type="Float64" NumberOfComponents="3" format="ascii">
          5.30325845e-02 3.63560505e-02 0.00000000e+00 
5.68800643e-02 3.74470428e-02 0.00000000e+00 
6.07415959e-02 3.84872220e-02 0.00000000e+00 
6.46155030e-02 3.94803248e-02 0.00000000e+00 

        </DataArray>
      </Points>
      <Cells>
        <DataArray type="Int32" Name="connectivity" format="ascii">
0 1
1 2
2 3

        </DataArray>
        <DataArray type="Int32" Name="offsets" format="ascii">
2 4 6 
        </DataArray>
        <DataArray type="UInt8" Name="types" format="ascii">
3 3 3 
        </DataArray>
      </Cells>
      <PointData>
        <DataArray type="Float64" Name="rho">
          1.04462608e+00 1.03211001e+00 1.02055122e+00 1.00980893e+00 
        </DataArray>
        <DataArray type="Float64" Name="rhou">
          1.12030910e-02 1.82233046e-02 2.37836506e-02 2.76347954e-02 
        </DataArray>
        <DataArray type="Float64" Name="rhov">
          3.89633297e-02 3.73098928e-02 3.52641272e-02 3.20438213e-02 
        </DataArray>
        <DataArray type="Float64" Name="E">
          2.38593756e+05 2.35598749e+05 2.32835659e+05 2.30270312e+05 
        </DataArray>
      </PointData>
    </Piece>
    <Piece NumberOfPoints="4" NumberOfCells="3">
      <Points>
        <DataArray type="Float64" NumberOfComponents="3" format="ascii">
          6.46155030e-02 3.94803248e-02 0.00000000e+00 
6.85004294e-02 4.04294394e-02 0.00000000e+00 
7.23951608e-02 4.13374715e-02 0.00000000e+00 
7.62986317e-02 4.22072113e-02 0.00000000e+00 

        </DataArray>
      </Points>
      <Cells>
        <DataArray type="Int32" Name="connectivity" format="ascii">
0 1
1 2
2 3

        </DataArray>
        <DataArray type="Int32" Name="offsets" format="ascii">
2 4 6 
        </DataArray>
        <DataArray type="UInt8" Name="types" format="ascii">
3 3 3 
        </DataArray>
      </Cells>
      <PointData>
        <DataArray type="Float64" Name="rho">
          1.00980965e+00 9.99842125e-01 9.90560157e-01 9.81908103e-01 
        </DataArray>
        <DataArray type="Float64" Name="rhou">
          2.74547326e-02 2.94151883e-02 3.05258897e-02 3.06298397e-02 
        </DataArray>
        <DataArray type="Float64" Name="rhov">
          3.17448714e-02 2.78376366e-02 2.44599063e-02 2.11506884e-02 
        </DataArray>
        <DataArray type="Float64" Name="E">
          2.30270460e+05 2.27892760e+05 2.25680452e+05 2.23619585e+05 
        </DataArray>
      </PointData>
    </Piece>
    <Piece NumberOfPoints="4" NumberOfCells="3">
      <Points>
        <DataArray type="Float64" NumberOfComponents="3" format="ascii">
          7.62986317e-02 4.22072113e-02 0.00000000e+00 
8.02098960e-02 4.30411920e-02 0.00000000e+00 
8.41281936e-02 4.38414887e-02 0.00000000e+00 
8.80528912e-02 4.46097627e-02 0.00000000e+00 

        </DataArray>
      </Points>
      <Cells>
        <DataArray type="Int32" Name="connectivity" format="ascii">
0 1
1 2
2 3

        </DataArray>
        <DataArray type="Int32" Name="offsets" format="ascii">
2 4 6 
        </DataArray>
        <DataArray type="UInt8" Name="types" format="ascii">
3 3 3 
        </DataArray>
      </Cells>
      <PointData>
        <DataArray type="Float64" Name="rho">
          9.81907162e-01 9.73838548e-01 9.66258796e-01 9.59122014e-01 
        </DataArray>
        <DataArray type="Float64" Name="rhou">
          3.04831422e-02 3.05162678e-02 3.02501303e-02 2.91922208e-02 
        </DataArray>
        <DataArray type="Float64" Name="rhov">
          2.09871830e-02 1.84212858e-02 1.59066899e-02 1.32203606e-02 
        </DataArray>
        <DataArray type="Float64" Name="E">
          2.23619350e+05 2.21698970e+05 2.19896237e+05 2.18200025e+05 
        </DataArray>
      </PointData>
    </Piece>
    <Piece NumberOfPoints="4" NumberOfCells="3">
      <Points>
        <DataArray type="Float64" NumberOfComponents="3" format="ascii">
          8.80528912e-02 4.46097627e-02 0.00000000e+00 
9.19835642e-02 4.53475714e-02 0.00000000e+00 
9.59195644e-02 4.60564308e-02 0.00000000e+00 
9.98597518e-02 4.67394181e-02 0.00000000e+00 

        </DataArray>
      </Points>
      <Cells>
        <DataArray type="Int32" Name="connectivity" format="ascii">
0 1
1 2
2 3

        </DataArray>
        <DataArray type="Int32" Name="offsets" format="ascii">
2 4 6 
        </DataArray>
        <DataArray type="UInt8" Name="types" format="ascii">
3 3 3 
        </DataArray>
      </Cells>
      <PointData>
        <DataArray type="Float64" Name="rho">
          9.59122513e-01 9.52418668e-01 9.46134978e-01 9.40172001e-01 
        </DataArray>
        <DataArray type="Float64" Name="rhou">
          2.89980944e-02 2.75813931e-02 2.41109748e-02 2.86383939e-02 
        </DataArray>
        <DataArray type="Float64" Name="rhov">
          1.33835086e-02 1.07990683e-02 9.20954147e-03 8.70292359e-03 
        </DataArray>
        <DataArray type="Float64" Name="E">
          2.18200141e+05 2.16608063e+05 2.15116227e+05 2.13701578e+05 
        </DataArray>
      </PointData>
    </Piece>
    <Piece NumberOfPoints="4" NumberOfCells="3">
      <Points>
        <DataArray type="Float64" NumberOfComponents="3" format="ascii">
          9.98597518e-02 4.67394181e-02 0.00000000e+00 
1.10118888e-01 4.83862534e-02 0.00000000e+00 
1.20400399e-01 4.98730615e-02 0.00000000e+00 
1.30701363e-01 5.12186773e-02 0.00000000e+00 

        </DataArray>
      </Points>
      <Cells>
        <DataArray type="Int32" Name="connectivity" format="ascii">
0 1
1 2
2 3

        </DataArray>
        <DataArray type="Int32" Name="offsets" format="ascii">
2 4 6 
        </DataArray>
        <DataArray type="UInt8" Name="types" format="ascii">
3 3 3 
        </DataArray>
      </Cells>
      <PointData>
        <DataArray type="Float64" Name="rho">
          9.40099286e-01 9.26194940e-01 9.14204125e-01 9.03899813e-01 
        </DataArray>
        <DataArray type="Float64" Name="rhou">
          2.63655567e-02 1.81886741e-02 1.60617635e-02 1.25954600e-02 
        </DataArray>
        <DataArray type="Float64" Name="rhov">
          7.46400655e-03 4.22648645e-03 3.71459350e-03 3.03829336e-03 
        </DataArray>
        <DataArray type="Float64" Name="E">
          2.13685139e+05 2.10390505e+05 2.07552835e+05 2.05116985e+05 
        </DataArray>
      </PointData>
    </Piece>
    <Piece NumberOfPoints="4" NumberOfCells="3">
      <Points>
        <DataArray type="Float64" NumberOfComponents="3" format="ascii">
          1.30701363e-01 5.12186773e-02 0.00000000e+00 
1.41019106e-01 5.24347536e-02 0.00000000e+00 
1.51350453e-01 5.35292812e-02 0.00000000e+00 
1.61692888e-01 5.45137413e-02 0.00000000e+00 

        </DataArray>
      </Points>
      <Cells>
        <DataArray type="Int32" Name="connectivity" format="ascii">
0 1
1 2
2 3

        </DataArray>
        <DataArray type="Int32" Name="offsets" format="ascii">
2 4 6 
        </DataArray>
        <DataArray type="UInt8" Name="types" format="ascii">
3 3 3 
        </DataArray>
      </Cells>
      <PointData>
        <DataArray type="Float64" Name="rho">
          9.03896311e-01 8.94851562e-01 8.87041334e-01 8.80356857e-01 
        </DataArray>
        <DataArray type="Float64" Name="rhou">
          1.39791297e-02 1.20822287e-02 1.00065243e-02 8.74051369e-03 
        </DataArray>
        <DataArray type="Float64" Name="rhov">
          3.53876970e-03 2.60572474e-03 1.82231814e-03 1.64219452e-03 
        </DataArray>
        <DataArray type="Float64" Name="E">
          2.05116144e+05 2.02981459e+05 2.01140600e+05 1.99566820e+05 
        </DataArray>
      </PointData>
    </Piece>
    <Piece NumberOfPoints="4" NumberOfCells="3">
      <Points>
        <DataArray type="Float64" NumberOfComponents="3" format="ascii">
          1.61692888e-01 5.45137413e-02 0.00000000e+00 
1.72044471e-01 5.53969070e-02 0.00000000e+00 
1.82403773e-01 5.61845005e-02 0.00000000e+00 
1.92769483e-01 5.68825118e-02 0.00000000e+00 

        </DataArray>
      </Points>
      <Cells>
        <DataArray type="Int32" Name="connectivity" format="ascii">
0 1
1 2
2 3

        </DataArray>
        <DataArray type="Int32" Name="offsets" format="ascii">
2 4 6 
        </DataArray>
        <DataArray type="UInt8" Name="types" format="ascii">
3 3 3 
        </DataArray>
      </Cells>
      <PointData>
        <DataArray type="Float64" Name="rho">
          8.80354449e-01 8.74600438e-01 8.69685997e-01 8.65558230e-01 
        </DataArray>
        <DataArray type="Float64" Name="rhou">
          8.77727766e-03 7.64545257e-03 6.61023224e-03 5.70704167e-03 
        </DataArray>
        <DataArray type="Float64" Name="rhov">
          1.69391513e-03 1.32392678e-03 9.40725822e-04 7.08271750e-04 
        </DataArray>
        <DataArray type="Float64" Name="E">
          1.99566280e+05 1.98213517e+05 1.97060150e+05 1.96093153e+05 
        </DataArray>
      </PointData>
    </Piece>
    <Piece NumberOfPoints="4" NumberOfCells="3">
      <Points>
        <DataArray type="Float64" NumberOfComponents="3" format="ascii">
          1.92769483e-01 5.68825118e-02 0.00000000e+00 
2.03140482e-01 5.74972220e-02 0.00000000e+00 
2.13515818e-01 5.80338500e-02 0.00000000e+00 
2.23894730e-01 5.84962890e-02 0.00000000e+00 

        </DataArray>
      </Points>
      <Cells>
        <DataArray type="Int32" Name="connectivity" format="ascii">
0 1
1 2
2 3

        </DataArray>
        <DataArray type="Int32" Name="offsets" format="ascii">
2 4 6 
        </DataArray>
        <DataArray type="UInt8" Name="types" format="ascii">
3 3 3 
        </DataArray>
      </Cells>
      <PointData>
        <DataArray type="Float64" Name="rho">
          8.65557540e-01 8.62136502e-01 8.59338147e-01 8.57104141e-01 
        </DataArray>
        <DataArray type="Float64" Name="rhou">
          5.74388665e-03 5.02160658e-03 4.46469926e-03 4.00423347e-03 
        </DataArray>
        <DataArray type="Float64" Name="rhov">
          7.49791038e-04 6.56440038e-04 5.37469855e-04 4.11802293e-04 
        </DataArray>
        <DataArray type="Float64" Name="E">
          1.96092994e+05 1.95293187e+05 1.94640775e+05 1.94121861e+05 
        </DataArray>
      </PointData>
    </Piece>
    <Piece NumberOfPoints="4" NumberOfCells="3">
      <Points>
        <DataArray type="Float64" NumberOfComponents="3" format="ascii">
          2.23894730e-01 5.84962890e-02 0.00000000e+00 
2.34276548e-01 5.88882305e-02 0.00000000e+00 
2.44660646e-01 5.92139624e-02 0.00000000e+00 
2.55046517e-01 5.94772622e-02 0.00000000e+00 

        </DataArray>
      </Points>
      <Cells>
        <DataArray type="Int32" Name="connectivity" format="ascii">
0 1
1 2
2 3

        </DataArray>
        <DataArray type="Int32" Name="offsets" format="ascii">
2 4 6 
        </DataArray>
        <DataArray type="UInt8" Name="types" format="ascii">
3 3 3 
        </DataArray>
      </Cells>
      <PointData>
        <DataArray type="Float64" Name="rho">
          8.57104714e-01 8.55392805e-01 8.54158609e-01 8.53346921e-01 
        </DataArray>
        <DataArray type="Float64" Name="rhou">
          4.01184243e-03 3.48992022e-03 3.11133502e-03 2.88211544e-03 
        </DataArray>
        <DataArray type="Float64" Name="rhov">
          4.26206506e-04 3.45546395e-04 3.25945434e-04 3.22522844e-04 
        </DataArray>
        <DataArray type="Float64" Name="E">
          1.94121991e+05 1.93726369e+05 1.93443435e+05 1.93260166e+05 
        </DataArray>
      </PointData>
    </Piece>
    <Piece NumberOfPoints="4" NumberOfCells="3">
      <Points>
        <DataArray type="Float64" NumberOfComponents="3" format="ascii">
          2.55046517e-01 5.94772622e-02 0.00000000e+00 
2.65433758e-01 5.96804135e-02 0.00000000e+00 
2.75821954e-01 5.98256700e-02 0.00000000e+00 
2.86210775e-01 5.99167012e-02 0.00000000e+00 

        </DataArray>
      </Points>
      <Cells>
        <DataArray type="Int32" Name="connectivity" format="ascii">
0 1
1 2
2 3

        </DataArray>
        <DataArray type="Int32" Name="offsets" format="ascii">
2 4 6 
        </DataArray>
        <DataArray type="UInt8" Name="types" format="ascii">
3 3 3 
        </DataArray>
      </Cells>
      <PointData>
        <DataArray type="Float64" Name="rho">
          8.53346933e-01 8.52909718e-01 8.52822566e-01 8.53065439e-01 
        </DataArray>
        <DataArray type="Float64" Name="rhou">
          2.87620712e-03 2.58927166e-03 2.29501846e-03 2.03129059e-03 
        </DataArray>
        <DataArray type="Float64" Name="rhov">
          3.33844806e-04 2.36288257e-04 1.76111108e-04 2.08458049e-04 
        </DataArray>
        <DataArray type="Float64" Name="E">
          1.93260173e+05 1.93165259e+05 1.93152838e+05 1.93217972e+05 
        </DataArray>
      </PointData>
    </Piece>
    <Piece NumberOfPoints="4" NumberOfCells="3">
      <Points>
        <DataArray type="Float64" NumberOfComponents="3" format="ascii">
          2.86210775e-01 5.99167012e-02 0.00000000e+00 
2.96599895e-01 5.99572174e-02 0.00000000e+00 
3.06989133e-01 5.99487796e-02 0.00000000e+00 
3.17378193e-01 5.98919280e-02 0.00000000e+00 

        </DataArray>
      </Points>
      <Cells>
        <DataArray type="Int32" Name="connectivity" format="ascii">
0 1
1 2
2 3

        </DataArray>
        <DataArray type="Int32" Name="offsets" format="ascii">
2 4 6 
        </DataArray>
        <DataArray type="UInt8" Name="types" format="ascii">
3 3 3 
        </DataArray>
      </Cells>
      <PointData>
        <DataArray type="Float64" Name="rho">
          8.53064415e-01 8.53588626e-01 8.54347798e-01 8.55327323e-01 
        </DataArray>
        <DataArray type="Float64" Name="rhou">
          2.05010247e-03 1.93457071e-03 1.80811844e-03 1.62615116e-03 
        </DataArray>
        <DataArray type="Float64" Name="rhov">
          2.24861070e-04 2.50770554e-04 1.95019527e-04 1.19223490e-04 
        </DataArray>
        <DataArray type="Float64" Name="E">
          1.93217739e+05 1.93348984e+05 1.93535607e+05 1.93774093e+05 
        </DataArray>
      </PointData>
    </Piece>
    <Piece NumberOfPoints="4" NumberOfCells="3">
      <Points>
        <DataArray type="Float64" NumberOfComponents="3" format="ascii">
          3.17378193e-01 5.98919280e-02 0.00000000e+00 
3.27766895e-01 5.97884916e-02 0.00000000e+00 
3.38155061e-01 5.96415885e-02 0.00000000e+00 
3.48542601e-01 5.94538599e-02 0.00000000e+00 

        </DataArray>
      </Points>
      <Cells>
        <DataArray type="Int32" Name="connectivity" format="ascii">
0 1
1 2
2 3

        </DataArray>
        <DataArray type="Int32" Name="offsets" format="ascii">
2 4 6 
        </DataArray>
        <DataArray type="UInt8" Name="types" format="ascii">
3 3 3 
        </DataArray>
      </Cells>
      <PointData>
        <DataArray type="Float64" Name="rho">
          8.55327672e-01 8.56515330e-01 8.57891432e-01 8.59423606e-01 
        </DataArray>
        <DataArray type="Float64" Name="rhou">
          1.65570708e-03 1.45896838e-03 1.34176620e-03 1.29514786e-03 
        </DataArray>
        <DataArray type="Float64" Name="rhov">
          1.26898732e-04 1.14472753e-04 1.39333944e-04 1.59320721e-04 
        </DataArray>
        <DataArray type="Float64" Name="E">
          1.93774171e+05 1.94061524e+05 1.94393050e+05 1.94761193e+05 
        </DataArray>
      </PointData>
    </Piece>
    <Piece NumberOfPoints="4" NumberOfCells="3">
      <Points>
        <DataArray type="Float64" NumberOfComponents="3" format="ascii">
          3.48542601e-01 5.94538599e-02 0.00000000e+00 
3.58929336e-01 5.92265576e-02 0.00000000e+00 
3.69315147e-01 5.89610897e-02 0.00000000e+00 
3.79699975e-01 5.86590059e-02 0.00000000e+00 

        </DataArray>
      </Points>
      <Cells>
        <DataArray type="Int32" Name="connectivity" format="ascii">
0 1
1 2
2 3

        </DataArray>
        <DataArray type="Int32" Name="offsets" format="ascii">
2 4 6 
        </DataArray>
        <DataArray type="UInt8" Name="types" format="ascii">
3 3 3 
        </DataArray>
      </Cells>
      <PointData>
        <DataArray type="Float64" Name="rho">
          8.59423854e-01 8.61087088e-01 8.62872203e-01 8.64759760e-01 
        </DataArray>
        <DataArray type="Float64" Name="rhou">
          1.30761322e-03 1.18292573e-03 1.08861398e-03 1.04017207e-03 
        </DataArray>
        <DataArray type="Float64" Name="rhov">
          1.56218369e-04 1.19288209e-04 1.11197352e-04 1.09089853e-04 
        </DataArray>
        <DataArray type="Float64" Name="E">
          1.94761250e+05 1.95160169e+05 1.95587640e+05 1.96039128e+05 
        </DataArray>
      </PointData>
    </Piece>
    <Piece NumberOfPoints="4" NumberOfCells="3">
      <Points>
        <DataArray type="Float64" NumberOfComponents="3" format="ascii">
          3.79699975e-01 5.86590059e-02 0.00000000e+00 
3.90083700e-01 5.83211333e-02 0.00000000e+00 
4.00466233e-01 5.79482466e-02 0.00000000e+00 
4.10847515e-01 5.75418957e-02 0.00000000e+00 

        </DataArray>
      </Points>
      <Cells>
        <DataArray type="Int32" Name="connectivity" format="ascii">
0 1
1 2
2 3

        </DataArray>
        <DataArray type="Int32" Name="offsets" format="ascii">
2 4 6 
        </DataArray>
        <DataArray type="UInt8" Name="types" format="ascii">
3 3 3 
        </DataArray>
      </Cells>
      <PointData>
        <DataArray type="Float64" Name="rho">
          8.64759772e-01 8.66733322e-01 8.68783367e-01 8.70903764e-01 
        </DataArray>
        <DataArray type="Float64" Name="rhou">
          1.03246083e-03 9.67649321e-04 8.88234545e-04 8.11451778e-04 
        </DataArray>
        <DataArray type="Float64" Name="rhov">
          1.11556221e-04 8.05800504e-05 5.71848614e-05 6.22886049e-05 
        </DataArray>
        <DataArray type="Float64" Name="E">
          1.96039131e+05 1.96510796e+05 1.97000399e+05 1.97506451e+05 
        </DataArray>
      </PointData>
    </Piece>
    <Piece NumberOfPoints="4" NumberOfCells="3">
      <Points>
        <DataArray type="Float64" NumberOfComponents="3" format="ascii">
          4.10847515e-01 5.75418957e-02 0.00000000e+00 
4.21227485e-01 5.71038015e-02 0.00000000e+00 
4.31606144e-01 5.66351078e-02 0.00000000e+00 
4.41983402e-01 5.61364293e-02 0.00000000e+00 

        </DataArray>
      </Points>
      <Cells>
        <DataArray type="Int32" Name="connectivity" format="ascii">
0 1
1 2
2 3

        </DataArray>
        <DataArray type="Int32" Name="offsets" format="ascii">
2 4 6 
        </DataArray>
        <DataArray type="UInt8" Name="types" format="ascii">
3 3 3 
        </DataArray>
      </Cells>
      <PointData>
        <DataArray type="Float64" Name="rho">
          8.70903562e-01 8.73079029e-01 8.75298207e-01 8.77551693e-01 
        </DataArray>
        <DataArray type="Float64" Name="rhou">
          8.28241519e-04 7.75914223e-04 7.36288495e-04 6.98455267e-04 
        </DataArray>
        <DataArray type="Float64" Name="rhov">
          6.57501917e-05 6.57370618e-05 5.59023121e-05 3.45346567e-05 
        </DataArray>
        <DataArray type="Float64" Name="E">
          1.97506405e+05 1.98025346e+05 1.98554535e+05 1.99091780e+05 
        </DataArray>
      </PointData>
    </Piece>
    <Piece NumberOfPoints="4" NumberOfCells="3">
      <Points>
        <DataArray type="Float64" NumberOfComponents="3" format="ascii">
          4.41983402e-01 5.61364293e-02 0.00000000e+00 
4.52359200e-01 5.56085743e-02 0.00000000e+00 
4.62733537e-01 5.50529286e-02 0.00000000e+00 
4.73106444e-01 5.44707514e-02 0.00000000e+00 

        </DataArray>
      </Points>
      <Cells>
        <DataArray type="Int32" Name="connectivity" format="ascii">
0 1
1 2
2 3

        </DataArray>
        <DataArray type="Int32" Name="offsets" format="ascii">
2 4 6 
        </DataArray>
        <DataArray type="UInt8" Name="types" format="ascii">
3 3 3 
        </DataArray>
      </Cells>
      <PointData>
        <DataArray type="Float64" Name="rho">
          8.77551837e-01 8.79835464e-01 8.82143010e-01 8.84466149e-01 
        </DataArray>
        <DataArray type="Float64" Name="rhou">
          6.95514404e-04 6.38547928e-04 5.97716782e-04 5.73484822e-04 
        </DataArray>
        <DataArray type="Float64" Name="rhov">
          3.51858497e-05 2.76519461e-05 2.81516854e-05 2.84283654e-05 
        </DataArray>
        <DataArray type="Float64" Name="E">
          1.99091813e+05 1.99636115e+05 2.00186012e+05 2.00739568e+05 
        </DataArray>
      </PointData>
    </Piece>
    <Piece NumberOfPoints="4" NumberOfCells="3">
      <Points>
        <DataArray type="Float64" NumberOfComponents="3" format="ascii">
          4.73106444e-01 5.44707514e-02 0.00000000e+00 
4.83477861e-01 5.38627952e-02 0.00000000e+00 
4.93847787e-01 5.32294959e-02 0.00000000e+00 
5.04216135e-01 5.25716618e-02 0.00000000e+00 

        </DataArray>
      </Points>
      <Cells>
        <DataArray type="Int32" Name="connectivity" format="ascii">
0 1
1 2
2 3

        </DataArray>
        <DataArray type="Int32" Name="offsets" format="ascii">
2 4 6 
        </DataArray>
        <DataArray type="UInt8" Name="types" format="ascii">
3 3 3 
        </DataArray>
      </Cells>
      <PointData>
        <DataArray type="Float64" Name="rho">
          8.84466135e-01 8.86798148e-01 8.89133794e-01 8.91472104e-01 
        </DataArray>
        <DataArray type="Float64" Name="rhou">
          5.65850585e-04 5.44098243e-04 5.07968126e-04 4.65069561e-04 
        </DataArray>
        <DataArray type="Float64" Name="rhov">
          3.02617992e-05 1.88250030e-05 3.84999644e-06 1.29042815e-06 
        </DataArray>
        <DataArray type="Float64" Name="E">
          2.00739566e+05 2.01295222e+05 2.01851764e+05 2.02408944e+05 
        </DataArray>
      </PointData>
    </Piece>
    <Piece NumberOfPoints="4" NumberOfCells="3">
      <Points>
        <DataArray type="Float64" NumberOfComponents="3" format="ascii">
          5.04216135e-01 5.25716618e-02 0.00000000e+00 
5.14582992e-01 5.18903993e-02 0.00000000e+00 
5.24948359e-01 5.11864908e-02 0.00000000e+00 
5.35312176e-01 5.04603274e-02 0.00000000e+00 

        </DataArray>
      </Points>
      <Cells>
        <DataArray type="Int32" Name="connectivity" format="ascii">
0 1
1 2
2 3

        </DataArray>
        <DataArray type="Int32" Name="offsets" format="ascii">
2 4 6 
        </DataArray>
        <DataArray type="UInt8" Name="types" format="ascii">
3 3 3 
        </DataArray>
      </Cells>
      <PointData>
        <DataArray type="Float64" Name="rho">
          8.91472018e-01 8.93807662e-01 8.96136229e-01 8.98454285e-01 
        </DataArray>
        <DataArray type="Float64" Name="rhou">
          4.73775784e-04 4.46654839e-04 4.26056365e-04 4.05704467e-04 
        </DataArray>
        <DataArray type="Float64" Name="rhov">
          3.46854496e-06 3.26657917e-06 -2.10410432e-06 -1.40314683e-05 
        </DataArray>
        <DataArray type="Float64" Name="E">
          2.02408925e+05 2.02965506e+05 2.03520471e+05 2.04073026e+05 
        </DataArray>
      </PointData>
    </Piece>
    <Piece NumberOfPoints="4" NumberOfCells="3">
      <Points>
        <DataArray type="Float64" NumberOfComponents="3" format="ascii">
          5.35312176e-01 5.04603274e-02 0.00000000e+00 
5.45674443e-01 4.97124642e-02 0.00000000e+00 
5.56035221e-01 4.89437394e-02 0.00000000e+00 
5.66394389e-01 4.81546782e-02 0.00000000e+00 

        </DataArray>
      </Points>
      <Cells>
        <DataArray type="Int32" Name="connectivity" format="ascii">
0 1
1 2
2 3

        </DataArray>
        <DataArray type="Int32" Name="offsets" format="ascii">
2 4 6 
        </DataArray>
        <DataArray type="UInt8" Name="types" format="ascii">
3 3 3 
        </DataArray>
      </Cells>
      <PointData>
        <DataArray type="Float64" Name="rho">
          8.98454331e-01 9.00761295e-01 9.03054283e-01 9.05330435e-01 
        </DataArray>
        <DataArray type="Float64" Name="rhou">
          4.01387973e-04 3.73812273e-04 3.54410821e-04 3.41707319e-04 
        </DataArray>
        <DataArray type="Float64" Name="rhov">
          -1.37591909e-05 -1.43698470e-05 -1.49981254e-05 -1.92184379e-05 
        </DataArray>
        <DataArray type="Float64" Name="E">
          2.04073037e+05 2.04623036e+05 2.05169814e+05 2.05712714e+05 
        </DataArray>
      </PointData>
    </Piece>
    <Piece NumberOfPoints="4" NumberOfCells="3">
      <Points>
        <DataArray type="Float64" NumberOfComponents="3" format="ascii">
          5.66394389e-01 4.81546782e-02 0.00000000e+00 
5.76752067e-01 4.73455116e-02 0.00000000e+00 
5.87108195e-01 4.65166979e-02 0.00000000e+00 
5.97462773e-01 4.56690118e-02 0.00000000e+00 

        </DataArray>
      </Points>
      <Cells>
        <DataArray type="Int32" Name="connectivity" format="ascii">
0 1
1 2
2 3

        </DataArray>
        <DataArray type="Int32" Name="offsets" format="ascii">
2 4 6 
        </DataArray>
        <DataArray type="UInt8" Name="types" format="ascii">
3 3 3 
        </DataArray>
      </Cells>
      <PointData>
        <DataArray type="Float64" Name="rho">
          9.05330465e-01 9.07588128e-01 9.09827032e-01 9.12046296e-01 
        </DataArray>
        <DataArray type="Float64" Name="rhou">
          3.41030595e-04 3.19512886e-04 2.97296639e-04 2.80158118e-04 
        </DataArray>
        <DataArray type="Float64" Name="rhov">
          -1.88886816e-05 -2.75871546e-05 -3.11094534e-05 -2.97947918e-05 
        </DataArray>
        <DataArray type="Float64" Name="E">
          2.05712721e+05 2.06251362e+05 2.06785678e+05 2.07315463e+05 
        </DataArray>
      </PointData>
    </Piece>
    <Piece NumberOfPoints="4" NumberOfCells="3">
      <Points>
        <DataArray type="Float64" NumberOfComponents="3" format="ascii">
          5.97462773e-01 4.56690118e-02 0.00000000e+00 
6.07815862e-01 4.48031016e-02 0.00000000e+00 
6.18167400e-01 4.39192392e-02 0.00000000e+00 
6.28517449e-01 4.30175588e-02 0.00000000e+00 

        </DataArray>
      </Points>
      <Cells>
        <DataArray type="Int32" Name="connectivity" format="ascii">
0 1
1 2
2 3

        </DataArray>
        <DataArray type="Int32" Name="offsets" format="ascii">
2 4 6 
        </DataArray>
        <DataArray type="UInt8" Name="types" format="ascii">
3 3 3 
        </DataArray>
      </Cells>
      <PointData>
        <DataArray type="Float64" Name="rho">
          9.12046232e-01 9.14243971e-01 9.16418368e-01 9.18569605e-01 
        </DataArray>
        <DataArray type="Float64" Name="rhou">
          2.78178663e-04 2.68573061e-04 2.55594209e-04 2.37191554e-04 
        </DataArray>
        <DataArray type="Float64" Name="rhov">
          -2.88663691e-05 -2.92149663e-05 -3.48538559e-05 -4.02485419e-05 
        </DataArray>
        <DataArray type="Float64" Name="E">
          2.07315448e+05 2.07840271e+05 2.08359719e+05 2.08873832e+05 
        </DataArray>
      </PointData>
    </Piece>
    <Piece NumberOfPoints="4" NumberOfCells="3">
      <Points>
        <DataArray type="Float64" NumberOfComponents="3" format="ascii">
          6.28517449e-01 4.30175588e-02 0.00000000e+00 
6.38865948e-01 4.20984775e-02 0.00000000e+00 
6.49212897e-01 4.11624312e-02 0.00000000e+00 
6.59558356e-01 4.02097441e-02 0.00000000e+00 

        </DataArray>
      </Points>
      <Cells>
        <DataArray type="Int32" Name="connectivity" format="ascii">
0 1
1 2
2 3

        </DataArray>
        <DataArray type="Int32" Name="offsets" format="ascii">
2 4 6 
        </DataArray>
        <DataArray type="UInt8" Name="types" format="ascii">
3 3 3 
        </DataArray>
      </Cells>
      <PointData>
        <DataArray type="Float64" Name="rho">
          9.18569597e-01 9.20697505e-01 9.22801233e-01 9.24880460e-01 
        </DataArray>
        <DataArray type="Float64" Name="rhou">
          2.38183391e-04 2.24378876e-04 2.12467224e-04 1.99662297e-04 
        </DataArray>
        <DataArray type="Float64" Name="rhov">
          -3.92226747e-05 -3.98062771e-05 -4.15822536e-05 -4.37366595e-05 
        </DataArray>
        <DataArray type="Float64" Name="E">
          2.08873831e+05 2.09382571e+05 2.09885746e+05 2.10383282e+05 
        </DataArray>
      </PointData>
    </Piece>
    <Piece NumberOfPoints="4" NumberOfCells="3">
      <Points>
        <DataArray type="Float64" NumberOfComponents="3" format="ascii">
          6.59558356e-01 4.02097441e-02 0.00000000e+00 
6.69902325e-01 3.92407738e-02 0.00000000e+00 
6.80244744e-01 3.82556282e-02 0.00000000e+00 
6.90585554e-01 3.72543521e-02 0.00000000e+00 

        </DataArray>
      </Points>
      <Cells>
        <DataArray type="Int32" Name="connectivity" format="ascii">
0 1
1 2
2 3

        </DataArray>
        <DataArray type="Int32" Name="offsets" format="ascii">
2 4 6 
        </DataArray>
        <DataArray type="UInt8" Name="types" format="ascii">
3 3 3 
        </DataArray>
      </Cells>
      <PointData>
        <DataArray type="Float64" Name="rho">
          9.24880443e-01 9.26935167e-01 9.28964210e-01 9.30968368e-01 
        </DataArray>
        <DataArray type="Float64" Name="rhou">
          1.96376372e-04 1.90589365e-04 1.81114795e-04 1.65435098e-04 
        </DataArray>
        <DataArray type="Float64" Name="rhov">
          -4.26857192e-05 -4.24991765e-05 -4.69347889e-05 -5.05181598e-05 
        </DataArray>
        <DataArray type="Float64" Name="E">
          2.10383278e+05 2.10875177e+05 2.11361172e+05 2.11841446e+05 
        </DataArray>
      </PointData>
    </Piece>
    <Piece NumberOfPoints="4" NumberOfCells="3">
      <Points>
        <DataArray type="Float64" NumberOfComponents="3" format="ascii">
          6.90585554e-01 3.72543521e-02 0.00000000e+00 
7.00924933e-01 3.62373814e-02 0.00000000e+00 
7.11262703e-01 3.52048986e-02 0.00000000e+00 
7.21598923e-01 3.41568366e-02 0.00000000e+00 

        </DataArray>
      </Points>
      <Cells>
        <DataArray type="Int32" Name="connectivity" format="ascii">
0 1
1 2
2 3

        </DataArray>
        <DataArray type="Int32" Name="offsets" format="ascii">
2 4 6 
        </DataArray>
        <DataArray type="UInt8" Name="types" format="ascii">
3 3 3 
        </DataArray>
      </Cells>
      <PointData>
        <DataArray type="Float64" Name="rho">
          9.30968325e-01 9.32948002e-01 9.34901938e-01 9.36830761e-01 
        </DataArray>
        <DataArray type="Float64" Name="rhou">
          1.64014056e-04 1.58256586e-04 1.52348248e-04 1.38389061e-04 
        </DataArray>
        <DataArray type="Float64" Name="rhov">
          -4.93810058e-05 -4.65862251e-05 -4.98088205e-05 -5.44746962e-05 
        </DataArray>
        <DataArray type="Float64" Name="E">
          2.11841437e+05 2.12316082e+05 2.12784812e+05 2.13247770e+05 
        </DataArray>
      </PointData>
    </Piece>
    <Piece NumberOfPoints="4" NumberOfCells="3">
      <Points>
        <DataArray type="Float64" NumberOfComponents="3" format="ascii">
          7.21598923e-01 3.41568366e-02 0.00000000e+00 
7.31933594e-01 3.30936089e-02 0.00000000e+00 
7.42266715e-01 3.20154354e-02 0.00000000e+00 
7.52598286e-01 3.09220124e-02 0.00000000e+00 

        </DataArray>
      </Points>
      <Cells>
        <DataArray type="Int32" Name="connectivity" format="ascii">
0 1
1 2
2 3

        </DataArray>
        <DataArray type="Int32" Name="offsets" format="ascii">
2 4 6 
        </DataArray>
        <DataArray type="UInt8" Name="types" format="ascii">
3 3 3 
        </DataArray>
      </Cells>
      <PointData>
        <DataArray type="Float64" Name="rho">
          9.36830740e-01 9.38735476e-01 9.40614698e-01 9.42468897e-01 
        </DataArray>
        <DataArray type="Float64" Name="rhou">
          1.35668998e-04 1.30975270e-04 1.27593766e-04 1.16540934e-04 
        </DataArray>
        <DataArray type="Float64" Name="rhov">
          -5.34861905e-05 -4.85822915e-05 -5.06561372e-05 -5.56481654e-05 
        </DataArray>
        <DataArray type="Float64" Name="E">
          2.13247766e+05 2.13705185e+05 2.14156739e+05 2.14602537e+05 
        </DataArray>
      </PointData>
    </Piece>
    <Piece NumberOfPoints="4" NumberOfCells="3">
      <Points>
        <DataArray type="Float64" NumberOfComponents="3" format="ascii">
          7.52598286e-01 3.09220124e-02 0.00000000e+00 
7.62928188e-01 2.98135038e-02 0.00000000e+00 
7.73256481e-01 2.86899786e-02 0.00000000e+00 
7.83583105e-01 2.75512449e-02 0.00000000e+00 

        </DataArray>
      </Points>
      <Cells>
        <DataArray type="Int32" Name="connectivity" format="ascii">
0 1
1 2
2 3

        </DataArray>
        <DataArray type="Int32" Name="offsets" format="ascii">
2 4 6 
        </DataArray>
        <DataArray type="UInt8" Name="types" format="ascii">
3 3 3 
        </DataArray>
      </Cells>
      <PointData>
        <DataArray type="Float64" Name="rho">
          9.42468892e-01 9.44299207e-01 9.46104761e-01 9.47886224e-01 
        </DataArray>
        <DataArray type="Float64" Name="rhou">
          1.13902975e-04 1.09781787e-04 1.05567482e-04 9.56895423e-05 
        </DataArray>
        <DataArray type="Float64" Name="rhov">
          -5.47126683e-05 -5.20049188e-05 -5.39468170e-05 -5.69434997e-05 
        </DataArray>
        <DataArray type="Float64" Name="E">
          2.14602536e+05 2.15042834e+05 2.15477425e+05 2.15906456e+05 
        </DataArray>
      </PointData>
    </Piece>
    <Piece NumberOfPoints="4" NumberOfCells="3">
      <Points>
        <DataArray type="Float64" NumberOfComponents="3" format="ascii">
          7.83583105e-01 2.75512449e-02 0.00000000e+00 
7.93908060e-01 2.63975188e-02 0.00000000e+00 
8.04231405e-01 2.52291560e-02 0.00000000e+00 
8.14553022e-01 2.40457114e-02 0.00000000e+00 

        </DataArray>
      </Points>
      <Cells>
        <DataArray type="Int32" Name="connectivity" format="ascii">
0 1
1 2
2 3

        </DataArray>
        <DataArray type="Int32" Name="offsets" format="ascii">
2 4 6 
        </DataArray>
        <DataArray type="UInt8" Name="types" format="ascii">
3 3 3 
        </DataArray>
      </Cells>
      <PointData>
        <DataArray type="Float64" Name="rho">
          9.47886231e-01 9.49644350e-01 9.51378997e-01 9.53089471e-01 
        </DataArray>
        <DataArray type="Float64" Name="rhou">
          9.83532704e-05 8.73478353e-05 8.62974396e-05 8.73664092e-05 
        </DataArray>
        <DataArray type="Float64" Name="rhov">
          -5.73152317e-05 -5.31424215e-05 -5.14690250e-05 -5.77628233e-05 
        </DataArray>
        <DataArray type="Float64" Name="E">
          2.15906457e+05 2.16330086e+05 2.16748271e+05 2.17160835e+05 
        </DataArray>
      </PointData>
    </Piece>
    <Piece NumberOfPoints="4" NumberOfCells="3">
      <Points>
        <DataArray type="Float64" NumberOfComponents="3" format="ascii">
          8.14553022e-01 2.40457114e-02 0.00000000e+00 
8.24872792e-01 2.28467938e-02 0.00000000e+00 
8.35190892e-01 2.16327831e-02 0.00000000e+00 
8.45507145e-01 2.04038676e-02 0.00000000e+00 

        </DataArray>
      </Points>
      <Cells>
        <DataArray type="Int32" Name="connectivity" format="ascii">
0 1
1 2
2 3

        </DataArray>
        <DataArray type="Int32" Name="offsets" format="ascii">
2 4 6 
        </DataArray>
        <DataArray type="UInt8" Name="types" format="ascii">
3 3 3 
        </DataArray>
      </Cells>
      <PointData>
        <DataArray type="Float64" Name="rho">
          9.53089516e-01 9.54777498e-01 9.56443269e-01 9.58086966e-01 
        </DataArray>
        <DataArray type="Float64" Name="rhou">
          8.13362488e-05 7.30975607e-05 6.62443959e-05 6.72457429e-05 
        </DataArray>
        <DataArray type="Float64" Name="rhov">
          -5.80390867e-05 -5.75851377e-05 -5.42834428e-05 -4.98689164e-05 
        </DataArray>
        <DataArray type="Float64" Name="E">
          2.17160846e+05 2.17568153e+05 2.17970239e+05 2.18367104e+05 
        </DataArray>
      </PointData>
    </Piece>
    <Piece NumberOfPoints="4" NumberOfCells="3">
      <Points>
        <DataArray type="Float64" NumberOfComponents="3" format="ascii">
          8.45507145e-01 2.04038676e-02 0.00000000e+00 
8.55821550e-01 1.91591792e-02 0.00000000e+00 
8.66134048e-01 1.78987328e-02 0.00000000e+00 
8.76444638e-01 1.66228991e-02 0.00000000e+00 

        </DataArray>
      </Points>
      <Cells>
        <DataArray type="Int32" Name="connectivity" format="ascii">
0 1
1 2
2 3

        </DataArray>
        <DataArray type="Int32" Name="offsets" format="ascii">
2 4 6 
        </DataArray>
        <DataArray type="UInt8" Name="types" format="ascii">
3 3 3 
        </DataArray>
      </Cells>
      <PointData>
        <DataArray type="Float64" Name="rho">
          9.58087081e-01 9.59707322e-01 9.61308118e-01 9.62885969e-01 
        </DataArray>
        <DataArray type="Float64" Name="rhou">
          8.91164675e-05 5.74676088e-05 5.64829163e-05 7.36425438e-05 
        </DataArray>
        <DataArray type="Float64" Name="rhov">
          -5.36098114e-05 -6.09207891e-05 -5.78249243e-05 -7.54358893e-05 
        </DataArray>
        <DataArray type="Float64" Name="E">
          2.18367130e+05 2.18758423e+05 2.19145008e+05 2.19526037e+05 
        </DataArray>
      </PointData>
    </Piece>
    <Piece NumberOfPoints="4" NumberOfCells="3">
      <Points>
        <DataArray type="Float64" NumberOfComponents="3" format="ascii">
          8.76444638e-01 1.66228991e-02 0.00000000e+00 
8.86753201e-01 1.53310820e-02 0.00000000e+00 
8.97059798e-01 1.40233757e-02 0.00000000e+00 
9.07364249e-01 1.26988320e-02 0.00000000e+00 

        </DataArray>
      </Points>
      <Cells>
        <DataArray type="Int32" Name="connectivity" format="ascii">
0 1
1 2
2 3

        </DataArray>
        <DataArray type="Int32" Name="offsets" format="ascii">
2 4 6 
        </DataArray>
        <DataArray type="UInt8" Name="types" format="ascii">
3 3 3 
        </DataArray>
      </Cells>
      <PointData>
        <DataArray type="Float64" Name="rho">
          9.62885513e-01 9.64447280e-01 9.65985459e-01 9.67519229e-01 
        </DataArray>
        <DataArray type="Float64" Name="rhou">
          -2.01744916e-05 7.45354961e-05 1.92526559e-05 -3.35456901e-05 
        </DataArray>
        <DataArray type="Float64" Name="rhov">
          -6.74073324e-05 -7.04694876e-05 -8.95600419e-05 1.10607904e-05 
        </DataArray>
        <DataArray type="Float64" Name="E">
          2.19525933e+05 2.19902908e+05 2.20274051e+05 2.20643666e+05 
        </DataArray>
      </PointData>
    </Piece>
    <Piece NumberOfPoints="4" NumberOfCells="3">
      <Points>
        <DataArray type="Float64" NumberOfComponents="3" format="ascii">
          9.07364249e-01 1.26988320e-02 0.00000000e+00 
9.17666554e-01 1.13577880e-02 0.00000000e+00 
9.27966774e-01 1.00004105e-02 0.00000000e+00 
9.38264549e-01 8.62528384e-03 0.00000000e+00 

        </DataArray>
      </Points>
      <Cells>
        <DataArray type="Int32" Name="connectivity" format="ascii">
0 1
1 2
2 3

        </DataArray>
        <DataArray type="Int32" Name="offsets" format="ascii">
2 4 6 
        </DataArray>
        <DataArray type="UInt8" Name="types" format="ascii">
3 3 3 
        </DataArray>
      </Cells>
      <PointData>
        <DataArray type="Float64" Name="rho">
          9.67524173e-01 9.69010726e-01 9.70524494e-01 9.71892337e-01 
        </DataArray>
        <DataArray type="Float64" Name="rhou">
          7.90508977e-04 -2.34186333e-04 3.28044632e-04 7.60731719e-04 
        </DataArray>
        <DataArray type="Float64" Name="rhov">
          -5.96126560e-05 -1.13588163e-04 -4.20856822e-05 -1.48588064e-03 
        </DataArray>
        <DataArray type="Float64" Name="E">
          2.20644793e+05 2.21003050e+05 2.21366863e+05 2.21696712e+05 
        </DataArray>
      </PointData>
    </Piece>
    <Piece NumberOfPoints="4" NumberOfCells="3">
      <Points>
        <DataArray type="Float64" NumberOfComponents="3" format="ascii">
          9.38264549e-01 8.62528384e-03 0.00000000e+00 
9.48560059e-01 7.23283459e-03 0.00000000e+00 
9.58853185e-01 5.82307298e-03 0.00000000e+00 
9.69143867e-01 4.39538015e-03 0.00000000e+00 

        </DataArray>
      </Points>
      <Cells>
        <DataArray type="Int32" Name="connectivity" format="ascii">
0 1
1 2
2 3

        </DataArray>
        <DataArray type="Int32" Name="offsets" format="ascii">
2 4 6 
        </DataArray>
        <DataArray type="UInt8" Name="types" format="ascii">
3 3 3 
        </DataArray>
      </Cells>
      <PointData>
        <DataArray type="Float64" Name="rho">
          9.71844056e-01 9.73540713e-01 9.74823046e-01 9.77579956e-01 
        </DataArray>
        <DataArray type="Float64" Name="rhou">
          -6.81936062e-03 2.16025444e-03 -3.22990781e-03 -1.93358968e-02 
        </DataArray>
        <DataArray type="Float64" Name="rhov">
          -1.10380689e-03 1.33030418e-04 -1.15099797e-03 1.92474505e-02 
        </DataArray>
        <DataArray type="Float64" Name="E">
          2.21685698e+05 2.22089865e+05 2.22398907e+05 2.23043829e+05 
        </DataArray>
      </PointData>
    </Piece>
    <Piece NumberOfPoints="4" NumberOfCells="3">
      <Points>
        <DataArray type="Float64" NumberOfComponents="3" format="ascii">
          9.69143867e-01 4.39538015e-03 0.00000000e+00 
9.79435980e-01 2.94816052e-03 0.00000000e+00 
9.89725590e-01 1.48259092e-03 0.00000000e+00 
1.00000000e+00 0.00000000e+00 0.00000000e+00 

        </DataArray>
      </Points>
      <Cells>
        <DataArray type="Int32" Name="connectivity" format="ascii">
0 1
1 2
2 3

        </DataArray>
        <DataArray type="Int32" Name="offsets" format="ascii">
2 4 6 
        </DataArray>
        <DataArray type="UInt8" Name="types" format="ascii">
3 3 3 
        </DataArray>
      </Cells>
      <PointData>
        <DataArray type="Float64" Name="rho">
          9.77877628e-01 9.77512662e-01 9.81435919e-01 9.71469064e-01 
        </DataArray>
        <DataArray type="Float64" Name="rhou">
          -1.52062475e-03 -9.76186050e-03 -3.81995465e-02 5.05021990e-01 
        </DataArray>
        <DataArray type="Float64" Name="rhov">
          2.14795589e-02 1.06987761e-03 5.32259285e-02 -1.39122399e-01 
        </DataArray>
        <DataArray type="Float64" Name="E">
          2.23112005e+05 2.23043808e+05 2.23953515e+05 2.21687654e+05 
        </DataArray>
      </PointData>
    </Piece>
    <Piece NumberOfPoints="4" NumberOfCells="3">
      <Points>
        <DataArray type="Float64" NumberOfComponents="3" format="ascii">
          9.69029665e-01 -4.41133138e-03 0.00000000e+00 
9.79355037e-01 -2.95961346e-03 0.00000000e+00 
9.89677846e-01 -1.48943183e-03 0.00000000e+00 
1.00000000e+00 0.00000000e+00 0.00000000e+00 

        </DataArray>
      </Points>
      <Cells>
        <DataArray type="Int32" Name="connectivity" format="ascii">
0 1
1 2
2 3

        </DataArray>
        <DataArray type="Int32" Name="offsets" format="ascii">
2 4 6 
        </DataArray>
        <DataArray type="UInt8" Name="types" format="ascii">
3 3 3 
        </DataArray>
      </Cells>
      <PointData>
        <DataArray type="Float64" Name="rho">
          9.77067072e-01 9.76710461e-01 9.80537011e-01 9.71699061e-01 
        </DataArray>
        <DataArray type="Float64" Name="rhou">
          -8.96675239e-04 -7.69555743e-03 -3.62793351e-02 4.65998976e-01 
        </DataArray>
        <DataArray type="Float64" Name="rhov">
          -2.39883892e-02 2.14790364e-03 -4.98028546e-02 1.45744609e-01 
        </DataArray>
        <DataArray type="Float64" Name="E">
          2.22872341e+05 2.22812658e+05 2.23710096e+05 2.21730372e+05 
        </DataArray>
      </PointData>
    </Piece>
    <Piece NumberOfPoints="4" NumberOfCells="3">
      <Points>
        <DataArray type="Float64" NumberOfComponents="3" format="ascii">
          9.38035965e-01 -8.65600072e-03 0.00000000e+00 
9.48369622e-01 -7.25875143e-03 0.00000000e+00 
9.58700895e-01 -5.84406452e-03 0.00000000e+00 
9.69029665e-01 -4.41133138e-03 0.00000000e+00 

        </DataArray>
      </Points>
      <Cells>
        <DataArray type="Int32" Name="connectivity" format="ascii">
0 1
1 2
2 3

        </DataArray>
        <DataArray type="Int32" Name="offsets" format="ascii">
2 4 6 
        </DataArray>
        <DataArray type="UInt8" Name="types" format="ascii">
3 3 3 
        </DataArray>
      </Cells>
      <PointData>
        <DataArray type="Float64" Name="rho">
          9.71255008e-01 9.72894639e-01 9.74126091e-01 9.76769839e-01 
        </DataArray>
        <DataArray type="Float64" Name="rhou">
          -6.45488791e-03 2.33205037e-03 -2.67478412e-03 -1.74308291e-02 
        </DataArray>
        <DataArray type="Float64" Name="rhov">
          1.10912886e-03 -1.84049996e-04 1.36182829e-03 -1.78164802e-02 
        </DataArray>
        <DataArray type="Float64" Name="E">
          2.21491384e+05 2.21883273e+05 2.22182559e+05 2.22804836e+05 
        </DataArray>
      </PointData>
    </Piece>
    <Piece NumberOfPoints="4" NumberOfCells="3">
      <Points>
        <DataArray type="Float64" NumberOfComponents="3" format="ascii">
          9.07021165e-01 -1.27432076e-02 0.00000000e+00 
9.17361677e-01 -1.13977119e-02 0.00000000e+00 
9.27700043e-01 -1.00357840e-02 0.00000000e+00 
9.38035965e-01 -8.65600072e-03 0.00000000e+00 

        </DataArray>
      </Points>
      <Cells>
        <DataArray type="Int32" Name="connectivity" format="ascii">
0 1
1 2
2 3

        </DataArray>
        <DataArray type="Int32" Name="offsets" format="ascii">
2 4 6 
        </DataArray>
        <DataArray type="UInt8" Name="types" format="ascii">
3 3 3 
        </DataArray>
      </Cells>
      <PointData>
        <DataArray type="Float64" Name="rho">
          9.67095897e-01 9.68524451e-01 9.69984183e-01 9.71302338e-01 
        </DataArray>
        <DataArray type="Float64" Name="rhou">
          9.18953894e-04 -8.83046251e-05 4.87093829e-04 8.89008549e-04 
        </DataArray>
        <DataArray type="Float64" Name="rhov">
          4.11865419e-05 6.86076459e-05 -1.98022992e-05 1.39930000e-03 
        </DataArray>
        <DataArray type="Float64" Name="E">
          2.20489049e+05 2.20832850e+05 2.21183663e+05 2.21502170e+05 
        </DataArray>
      </PointData>
    </Piece>
    <Piece NumberOfPoints="4" NumberOfCells="3">
      <Points>
        <DataArray type="Float64" NumberOfComponents="3" format="ascii">
          8.75986874e-01 -1.66798849e-02 0.00000000e+00 
8.86333704e-01 -1.53839625e-02 0.00000000e+00 
8.96678507e-01 -1.40720531e-02 0.00000000e+00 
9.07021165e-01 -1.27432076e-02 0.00000000e+00 

        </DataArray>
      </Points>
      <Cells>
        <DataArray type="Int32" Name="connectivity" format="ascii">
0 1
1 2
2 3

        </DataArray>
        <DataArray type="Int32" Name="offsets" format="ascii">
2 4 6 
        </DataArray>
        <DataArray type="UInt8" Name="types" format="ascii">
3 3 3 
        </DataArray>
      </Cells>
      <PointData>
        <DataArray type="Float64" Name="rho">
          9.62691244e-01 9.64165057e-01 9.65626093e-01 9.67090927e-01 
        </DataArray>
        <DataArray type="Float64" Name="rhou">
          1.33333672e-04 2.15864408e-04 1.68958314e-04 1.17677758e-04 
        </DataArray>
        <DataArray type="Float64" Name="rhov">
          6.17730966e-05 5.27608103e-05 6.75630141e-05 -2.85529274e-05 
        </DataArray>
        <DataArray type="Float64" Name="E">
          2.19429944e+05 2.19784341e+05 2.20135744e+05 2.20487918e+05 
        </DataArray>
      </PointData>
    </Piece>
    <Piece NumberOfPoints="4" NumberOfCells="3">
      <Points>
        <DataArray type="Float64" NumberOfComponents="3" format="ascii">
          8.44934702e-01 -2.04724707e-02 0.00000000e+00 
8.55287313e-01 -1.92240477e-02 0.00000000e+00 
8.65638077e-01 -1.79597028e-02 0.00000000e+00 
8.75986874e-01 -1.66798849e-02 0.00000000e+00 

        </DataArray>
      </Points>
      <Cells>
        <DataArray type="Int32" Name="connectivity" format="ascii">
0 1
1 2
2 3

        </DataArray>
        <DataArray type="Int32" Name="offsets" format="ascii">
2 4 6 
        </DataArray>
        <DataArray type="UInt8" Name="types" format="ascii">
3 3 3 
        </DataArray>
      </Cells>
      <PointData>
        <DataArray type="Float64" Name="rho">
          9.58235037e-01 9.59726498e-01 9.61214528e-01 9.62691672e-01 
        </DataArray>
        <DataArray type="Float64" Name="rhou">
          2.65716497e-04 2.06905295e-04 1.95848232e-04 2.35586908e-04 
        </DataArray>
        <DataArray type="Float64" Name="rhov">
          3.79517758e-05 5.81898402e-05 4.70207885e-05 6.50688581e-05 
        </DataArray>
        <DataArray type="Float64" Name="E">
          2.18358524e+05 2.18717077e+05 2.19074822e+05 2.19430041e+05 
        </DataArray>
      </PointData>
    </Piece>
    <Piece NumberOfPoints="4" NumberOfCells="3">
      <Points>
        <DataArray type="Float64" NumberOfComponents="3" format="ascii">
          8.13865662e-01 -2.41250079e-02 0.00000000e+00 
8.24223816e-01 -2.29226518e-02 0.00000000e+00 
8.34580123e-01 -2.17050612e-02 0.00000000e+00 
8.44934702e-01 -2.04724707e-02 0.00000000e+00 

        </DataArray>
      </Points>
      <Cells>
        <DataArray type="Int32" Name="connectivity" format="ascii">
0 1
1 2
2 3

        </DataArray>
        <DataArray type="Int32" Name="offsets" format="ascii">
2 4 6 
        </DataArray>
        <DataArray type="UInt8" Name="types" format="ascii">
3 3 3 
        </DataArray>
      </Cells>
      <PointData>
        <DataArray type="Float64" Name="rho">
          9.53707800e-01 9.55222816e-01 9.56732092e-01 9.58234805e-01 
        </DataArray>
        <DataArray type="Float64" Name="rhou">
          2.39574933e-04 2.24679030e-04 2.10245575e-04 2.16520274e-04 
        </DataArray>
        <DataArray type="Float64" Name="rhov">
          5.12651390e-05 5.14745792e-05 4.32831350e-05 3.04929284e-05 
        </DataArray>
        <DataArray type="Float64" Name="E">
          2.17270825e+05 2.17634731e+05 2.17997347e+05 2.18358472e+05 
        </DataArray>
      </PointData>
    </Piece>
    <Piece NumberOfPoints="4" NumberOfCells="3">
      <Points>
        <DataArray type="Float64" NumberOfComponents="3" format="ascii">
          7.82780826e-01 -2.76402626e-02 0.00000000e+00 
7.93144107e-01 -2.64833923e-02 0.00000000e+00 
8.03505778e-01 -2.53117718e-02 0.00000000e+00 
8.13865662e-01 -2.41250079e-02 0.00000000e+00 

        </DataArray>
      </Points>
      <Cells>
        <DataArray type="Int32" Name="connectivity" format="ascii">
0 1
1 2
2 3

        </DataArray>
        <DataArray type="Int32" Name="offsets" format="ascii">
2 4 6 
        </DataArray>
        <DataArray type="UInt8" Name="types" format="ascii">
3 3 3 
        </DataArray>
      </Cells>
      <PointData>
        <DataArray type="Float64" Name="rho">
          9.49124003e-01 9.50658240e-01 9.52187107e-01 9.53707690e-01 
        </DataArray>
        <DataArray type="Float64" Name="rhou">
          2.60137913e-04 2.39166545e-04 2.39424955e-04 2.49369323e-04 
        </DataArray>
        <DataArray type="Float64" Name="rhov">
          4.98471646e-05 4.07763001e-05 3.56551018e-05 4.95681726e-05 
        </DataArray>
        <DataArray type="Float64" Name="E">
          2.16170504e+05 2.16538668e+05 2.16905657e+05 2.17270800e+05 
        </DataArray>
      </PointData>
    </Piece>
    <Piece NumberOfPoints="4" NumberOfCells="3">
      <Points>
        <DataArray type="Float64" NumberOfComponents="3" format="ascii">
          7.51680970e-01 -3.10197193e-02 0.00000000e+00 
7.62049198e-01 -2.99084149e-02 0.00000000e+00 
7.72415876e-01 -2.87819952e-02 0.00000000e+00 
7.82780826e-01 -2.76402626e-02 0.00000000e+00 

        </DataArray>
      </Points>
      <Cells>
        <DataArray type="Int32" Name="connectivity" format="ascii">
0 1
1 2
2 3

        </DataArray>
        <DataArray type="Int32" Name="offsets" format="ascii">
2 4 6 
        </DataArray>
        <DataArray type="UInt8" Name="types" format="ascii">
3 3 3 
        </DataArray>
      </Cells>
      <PointData>
        <DataArray type="Float64" Name="rho">
          9.44492788e-01 9.46041809e-01 9.47585455e-01 9.49123966e-01 
        </DataArray>
        <DataArray type="Float64" Name="rhou">
          2.73900350e-04 2.69666144e-04 2.64413188e-04 2.50108929e-04 
        </DataArray>
        <DataArray type="Float64" Name="rhov">
          4.42735266e-05 3.70774090e-05 4.04610082e-05 4.76449903e-05 
        </DataArray>
        <DataArray type="Float64" Name="E">
          2.15059915e+05 2.15431241e+05 2.15801419e+05 2.16170496e+05 
        </DataArray>
      </PointData>
    </Piece>
    <Piece NumberOfPoints="4" NumberOfCells="3">
      <Points>
        <DataArray type="Float64" NumberOfComponents="3" format="ascii">
          7.20566452e-01 -3.42622213e-02 0.00000000e+00 
7.30939507e-01 -3.31965312e-02 0.00000000e+00 
7.41311073e-01 -3.21157984e-02 0.00000000e+00 
7.51680970e-01 -3.10197193e-02 0.00000000e+00 

        </DataArray>
      </Points>
      <Cells>
        <DataArray type="Int32" Name="connectivity" format="ascii">
0 1
1 2
2 3

        </DataArray>
        <DataArray type="Int32" Name="offsets" format="ascii">
2 4 6 
        </DataArray>
        <DataArray type="UInt8" Name="types" format="ascii">
3 3 3 
        </DataArray>
      </Cells>
      <PointData>
        <DataArray type="Float64" Name="rho">
          9.39825972e-01 9.41385580e-01 9.42941383e-01 9.44492779e-01 
        </DataArray>
        <DataArray type="Float64" Name="rhou">
          3.01208285e-04 2.94001032e-04 2.91150903e-04 2.77674241e-04 
        </DataArray>
        <DataArray type="Float64" Name="rhov">
          4.22066781e-05 3.07350529e-05 3.30515699e-05 4.47074080e-05 
        </DataArray>
        <DataArray type="Float64" Name="E">
          2.13941972e+05 2.14315436e+05 2.14688131e+05 2.15059913e+05 
        </DataArray>
      </PointData>
    </Piece>
    <Piece NumberOfPoints="4" NumberOfCells="3">
      <Points>
        <DataArray type="Float64" NumberOfComponents="3" format="ascii">
          6.89437866e-01 -3.73662710e-02 0.00000000e+00 
6.99815631e-01 -3.63472365e-02 0.00000000e+00 
7.10191846e-01 -3.53125818e-02 0.00000000e+00 
7.20566452e-01 -3.42622213e-02 0.00000000e+00 

        </DataArray>
      </Points>
      <Cells>
        <DataArray type="Int32" Name="connectivity" format="ascii">
0 1
1 2
2 3

        </DataArray>
        <DataArray type="Int32" Name="offsets" format="ascii">
2 4 6 
        </DataArray>
        <DataArray type="UInt8" Name="types" format="ascii">
3 3 3 
        </DataArray>
      </Cells>
      <PointData>
        <DataArray type="Float64" Name="rho">
          9.35142342e-01 9.36705045e-01 9.38266363e-01 9.39825983e-01 
        </DataArray>
        <DataArray type="Float64" Name="rhou">
          3.36424247e-04 3.28586893e-04 3.21277025e-04 3.02699283e-04 
        </DataArray>
        <DataArray type="Float64" Name="rhov">
          3.52947558e-05 2.75949409e-05 3.19498788e-05 4.23932057e-05 
        </DataArray>
        <DataArray type="Float64" Name="E">
          2.12821145e+05 2.13194977e+05 2.13568612e+05 2.13941975e+05 
        </DataArray>
      </PointData>
    </Piece>
    <Piece NumberOfPoints="4" NumberOfCells="3">
      <Points>
        <DataArray type="Float64" NumberOfComponents="3" format="ascii">
          6.58295333e-01 -4.03269380e-02 0.00000000e+00 
6.68677747e-01 -3.93563360e-02 0.00000000e+00 
6.79058611e-01 -3.83694395e-02 0.00000000e+00 
6.89437866e-01 -3.73662710e-02 0.00000000e+00 

        </DataArray>
      </Points>
      <Cells>
        <DataArray type="Int32" Name="connectivity" format="ascii">
0 1
1 2
2 3

        </DataArray>
        <DataArray type="Int32" Name="offsets" format="ascii">
2 4 6 
        </DataArray>
        <DataArray type="UInt8" Name="types" format="ascii">
3 3 3 
        </DataArray>
      </Cells>
      <PointData>
        <DataArray type="Float64" Name="rho">
          9.30465268e-01 9.32022762e-01 9.33581767e-01 9.35142397e-01 
        </DataArray>
        <DataArray type="Float64" Name="rhou">
          3.76015587e-04 3.69710932e-04 3.56417345e-04 3.34912497e-04 
        </DataArray>
        <DataArray type="Float64" Name="rhov">
          2.48911427e-05 2.15704582e-05 2.80625356e-05 3.59796310e-05 
        </DataArray>
        <DataArray type="Float64" Name="E">
          2.11702960e+05 2.12075199e+05 2.12447925e+05 2.12821158e+05 
        </DataArray>
      </PointData>
    </Piece>
    <Piece NumberOfPoints="4" NumberOfCells="3">
      <Points>
        <DataArray type="Float64" NumberOfComponents="3" format="ascii">
          6.27138972e-01 -4.31386717e-02 0.00000000e+00 
6.37525976e-01 -4.22184542e-02 0.00000000e+00 
6.47911429e-01 -4.12811004e-02 0.00000000e+00 
6.58295333e-01 -4.03269380e-02 0.00000000e+00 

        </DataArray>
      </Points>
      <Cells>
        <DataArray type="Int32" Name="connectivity" format="ascii">
0 1
1 2
2 3

        </DataArray>
        <DataArray type="Int32" Name="offsets" format="ascii">
2 4 6 
        </DataArray>
        <DataArray type="UInt8" Name="types" format="ascii">
3 3 3 
        </DataArray>
      </Cells>
      <PointData>
        <DataArray type="Float64" Name="rho">
          9.25824971e-01 9.27365267e-01 9.28912614e-01 9.30465301e-01 
        </DataArray>
        <DataArray type="Float64" Name="rhou">
          4.30403903e-04 4.10747349e-04 3.92764435e-04 3.77297079e-04 
        </DataArray>
        <DataArray type="Float64" Name="rhov">
          2.18705821e-05 2.06424687e-05 2.18661264e-05 2.56830012e-05 
        </DataArray>
        <DataArray type="Float64" Name="E">
          2.10594511e+05 2.10962354e+05 2.11331973e+05 2.11702967e+05 
        </DataArray>
      </PointData>
    </Piece>
    <Piece NumberOfPoints="4" NumberOfCells="3">
      <Points>
        <DataArray type="Float64" NumberOfComponents="3" format="ascii">
          5.95968783e-01 -4.57924642e-02 0.00000000e+00 
6.06360376e-01 -4.49259281e-02 0.00000000e+00 
6.16750479e-01 -4.40412909e-02 0.00000000e+00 
6.27138972e-01 -4.31386717e-02 0.00000000e+00 

        </DataArray>
      </Points>
      <Cells>
        <DataArray type="Int32" Name="connectivity" format="ascii">
0 1
1 2
2 3

        </DataArray>
        <DataArray type="Int32" Name="offsets" format="ascii">
2 4 6 
        </DataArray>
        <DataArray type="UInt8" Name="types" format="ascii">
3 3 3 
        </DataArray>
      </Cells>
      <PointData>
        <DataArray type="Float64" Name="rho">
          9.21264192e-01 9.22773614e-01 9.24294245e-01 9.25824963e-01 
        </DataArray>
        <DataArray type="Float64" Name="rhou">
          4.78213140e-04 4.65291679e-04 4.47244635e-04 4.24147728e-04 
        </DataArray>
        <DataArray type="Float64" Name="rhov">
          9.96856282e-06 6.72267276e-06 1.31554972e-05 2.25759963e-05 
        </DataArray>
        <DataArray type="Float64" Name="E">
          2.09505803e+05 2.09866038e+05 2.10229029e+05 2.10594510e+05 
        </DataArray>
      </PointData>
    </Piece>
    <Piece NumberOfPoints="4" NumberOfCells="3">
      <Points>
        <DataArray type="Float64" NumberOfComponents="3" format="ascii">
          5.64784765e-01 -4.82786149e-02 0.00000000e+00 
5.75181007e-01 -4.74695377e-02 0.00000000e+00 
5.85575700e-01 -4.66405638e-02 0.00000000e+00 
5.95968783e-01 -4.57924642e-02 0.00000000e+00 

        </DataArray>
      </Points>
      <Cells>
        <DataArray type="Int32" Name="connectivity" format="ascii">
0 1
1 2
2 3

        </DataArray>
        <DataArray type="Int32" Name="offsets" format="ascii">
2 4 6 
        </DataArray>
        <DataArray type="UInt8" Name="types" format="ascii">
3 3 3 
        </DataArray>
      </Cells>
      <PointData>
        <DataArray type="Float64" Name="rho">
          9.16839996e-01 9.18294710e-01 9.19770056e-01 9.21264306e-01 
        </DataArray>
        <DataArray type="Float64" Name="rhou">
          5.57843834e-04 5.30596614e-04 4.96742770e-04 4.72201335e-04 
        </DataArray>
        <DataArray type="Float64" Name="rhov">
          -1.67464970e-06 9.74772543e-06 1.44759959e-05 1.07828472e-05 
        </DataArray>
        <DataArray type="Float64" Name="E">
          2.08450160e+05 2.08797236e+05 2.09149264e+05 2.09505829e+05 
        </DataArray>
      </PointData>
    </Piece>
    <Piece NumberOfPoints="4" NumberOfCells="3">
      <Points>
        <DataArray type="Float64" NumberOfComponents="3" format="ascii">
          5.33586800e-01 -5.05827516e-02 0.00000000e+00 
5.43987691e-01 -4.98356484e-02 0.00000000e+00 
5.54387033e-01 -4.90674041e-02 0.00000000e+00 
5.64784765e-01 -4.82786149e-02 0.00000000e+00 

        </DataArray>
      </Points>
      <Cells>
        <DataArray type="Int32" Name="connectivity" format="ascii">
0 1
1 2
2 3

        </DataArray>
        <DataArray type="Int32" Name="offsets" format="ascii">
2 4 6 
        </DataArray>
        <DataArray type="UInt8" Name="types" format="ascii">
3 3 3 
        </DataArray>
      </Cells>
      <PointData>
        <DataArray type="Float64" Name="rho">
          9.12622569e-01 9.13999575e-01 9.15407153e-01 9.16839955e-01 
        </DataArray>
        <DataArray type="Float64" Name="rhou">
          6.35227871e-04 5.94516201e-04 5.64874363e-04 5.52339055e-04 
        </DataArray>
        <DataArray type="Float64" Name="rhov">
          -6.99606492e-07 -7.07657394e-07 -3.84755690e-06 -1.42838684e-06 
        </DataArray>
        <DataArray type="Float64" Name="E">
          2.07444031e+05 2.07772548e+05 2.08108334e+05 2.08450150e+05 
        </DataArray>
      </PointData>
    </Piece>
    <Piece NumberOfPoints="4" NumberOfCells="3">
      <Points>
        <DataArray type="Float64" NumberOfComponents="3" format="ascii">
          5.02374947e-01 -5.26902266e-02 0.00000000e+00 
5.12780428e-01 -5.20105064e-02 0.00000000e+00 
5.23184419e-01 -5.13078682e-02 0.00000000e+00 
5.33586800e-01 -5.05827516e-02 0.00000000e+00 

        </DataArray>
      </Points>
      <Cells>
        <DataArray type="Int32" Name="connectivity" format="ascii">
0 1
1 2
2 3

        </DataArray>
        <DataArray type="Int32" Name="offsets" format="ascii">
2 4 6 
        </DataArray>
        <DataArray type="UInt8" Name="types" format="ascii">
3 3 3 
        </DataArray>
      </Cells>
      <PointData>
        <DataArray type="Float64" Name="rho">
          9.08708395e-01 9.09973334e-01 9.11280020e-01 9.12622472e-01 
        </DataArray>
        <DataArray type="Float64" Name="rhou">
          7.19557581e-04 6.82398836e-04 6.53998125e-04 6.32596161e-04 
        </DataArray>
        <DataArray type="Float64" Name="rhov">
          -1.03701361e-05 -1.68040579e-05 -1.53051769e-05 -1.27636888e-06 
        </DataArray>
        <DataArray type="Float64" Name="E">
          2.06509980e+05 2.06811889e+05 2.07123696e+05 2.07444009e+05 
        </DataArray>
      </PointData>
    </Piece>
    <Piece NumberOfPoints="4" NumberOfCells="3">
      <Points>
        <DataArray type="Float64" NumberOfComponents="3" format="ascii">
          4.71149325e-01 -5.45825884e-02 0.00000000e+00 
4.81559396e-01 -5.39771840e-02 0.00000000e+00 
4.91967946e-01 -5.33461571e-02 0.00000000e+00 
5.02374947e-01 -5.26902266e-02 0.00000000e+00 

        </DataArray>
      </Points>
      <Cells>
        <DataArray type="Int32" Name="connectivity" format="ascii">
0 1
1 2
2 3

        </DataArray>
        <DataArray type="Int32" Name="offsets" format="ascii">
2 4 6 
        </DataArray>
        <DataArray type="UInt8" Name="types" format="ascii">
3 3 3 
        </DataArray>
      </Cells>
      <PointData>
        <DataArray type="Float64" Name="rho">
          9.05224968e-01 9.06330590e-01 9.07492080e-01 9.08708484e-01 
        </DataArray>
        <DataArray type="Float64" Name="rhou">
          8.29005616e-04 8.05532637e-04 7.57814535e-04 6.99746488e-04 
        </DataArray>
        <DataArray type="Float64" Name="rhov">
          -3.53770833e-05 -2.89945641e-05 -1.15168798e-05 -7.64378085e-06 
        </DataArray>
        <DataArray type="Float64" Name="E">
          2.05677885e+05 2.05942108e+05 2.06219567e+05 2.06510001e+05 
        </DataArray>
      </PointData>
    </Piece>
    <Piece NumberOfPoints="4" NumberOfCells="3">
      <Points>
        <DataArray type="Float64" NumberOfComponents="3" format="ascii">
          4.39910263e-01 -5.62384278e-02 0.00000000e+00 
4.50324744e-01 -5.57143167e-02 0.00000000e+00 
4.60737765e-01 -5.51619194e-02 0.00000000e+00 
4.71149325e-01 -5.45825884e-02 0.00000000e+00 

        </DataArray>
      </Points>
      <Cells>
        <DataArray type="Int32" Name="connectivity" format="ascii">
0 1
1 2
2 3

        </DataArray>
        <DataArray type="Int32" Name="offsets" format="ascii">
2 4 6 
        </DataArray>
        <DataArray type="UInt8" Name="types" format="ascii">
3 3 3 
        </DataArray>
      </Cells>
      <PointData>
        <DataArray type="Float64" Name="rho">
          9.02327294e-01 9.03213877e-01 9.04183272e-01 9.05225043e-01 
        </DataArray>
        <DataArray type="Float64" Name="rhou">
          1.00005883e-03 9.21851308e-04 8.62562918e-04 8.34468382e-04 
        </DataArray>
        <DataArray type="Float64" Name="rhov">
          -2.83596302e-05 -1.91270070e-05 -2.56220885e-05 -3.29061024e-05 
        </DataArray>
        <DataArray type="Float64" Name="E">
          2.04984197e+05 2.05196718e+05 2.05428767e+05 2.05677902e+05 
        </DataArray>
      </PointData>
    </Piece>
    <Piece NumberOfPoints="4" NumberOfCells="3">
      <Points>
        <DataArray type="Float64" NumberOfComponents="3" format="ascii">
          4.08658355e-01 -5.76302819e-02 0.00000000e+00 
4.19077009e-01 -5.71971126e-02 0.00000000e+00 
4.29494321e-01 -5.67329265e-02 0.00000000e+00 
4.39910263e-01 -5.62384278e-02 0.00000000e+00 

        </DataArray>
      </Points>
      <Cells>
        <DataArray type="Int32" Name="connectivity" format="ascii">
0 1
1 2
2 3

        </DataArray>
        <DataArray type="Int32" Name="offsets" format="ascii">
2 4 6 
        </DataArray>
        <DataArray type="UInt8" Name="types" format="ascii">
3 3 3 
        </DataArray>
      </Cells>
      <PointData>
        <DataArray type="Float64" Name="rho">
          9.00221556e-01 9.00823086e-01 9.01528787e-01 9.02327061e-01 
        </DataArray>
        <DataArray type="Float64" Name="rhou">
          1.15761792e-03 1.08716623e-03 1.03488106e-03 9.94630479e-04 
        </DataArray>
        <DataArray type="Float64" Name="rhov">
          -3.71777766e-05 -4.96036541e-05 -4.86689166e-05 -2.82668982e-05 
        </DataArray>
        <DataArray type="Float64" Name="E">
          2.04477491e+05 2.04622683e+05 2.04792470e+05 2.04984143e+05 
        </DataArray>
      </PointData>
    </Piece>
    <Piece NumberOfPoints="4" NumberOfCells="3">
      <Points>
        <DataArray type="Float64" NumberOfComponents="3" format="ascii">
          3.77394795e-01 -5.87291755e-02 0.00000000e+00 
3.87817174e-01 -5.83979115e-02 0.00000000e+00 
3.98238391e-01 -5.80311492e-02 0.00000000e+00 
4.08658355e-01 -5.76302819e-02 0.00000000e+00 

        </DataArray>
      </Points>
      <Cells>
        <DataArray type="Int32" Name="connectivity" format="ascii">
0 1
1 2
2 3

        </DataArray>
        <DataArray type="Int32" Name="offsets" format="ascii">
2 4 6 
        </DataArray>
        <DataArray type="UInt8" Name="types" format="ascii">
3 3 3 
        </DataArray>
      </Cells>
      <PointData>
        <DataArray type="Float64" Name="rho">
          8.99168010e-01 8.99385085e-01 8.99737298e-01 9.00221768e-01 
        </DataArray>
        <DataArray type="Float64" Name="rhou">
          1.40895830e-03 1.33464338e-03 1.23220197e-03 1.12619640e-03 
        </DataArray>
        <DataArray type="Float64" Name="rhov">
          -8.13216485e-05 -5.31878259e-05 -2.50940481e-05 -3.23002583e-05 
        </DataArray>
        <DataArray type="Float64" Name="E">
          2.04219119e+05 2.04273565e+05 2.04359960e+05 2.04477541e+05 
        </DataArray>
      </PointData>
    </Piece>
    <Piece NumberOfPoints="4" NumberOfCells="3">
      <Points>
        <DataArray type="Float64" NumberOfComponents="3" format="ascii">
          3.46121490e-01 -5.95011823e-02 0.00000000e+00 
3.56546819e-01 -5.92821389e-02 0.00000000e+00 
3.66971314e-01 -5.90242445e-02 0.00000000e+00 
3.77394795e-01 -5.87291755e-02 0.00000000e+00 

        </DataArray>
      </Points>
      <Cells>
        <DataArray type="Int32" Name="connectivity" format="ascii">
0 1
1 2
2 3

        </DataArray>
        <DataArray type="Int32" Name="offsets" format="ascii">
2 4 6 
        </DataArray>
        <DataArray type="UInt8" Name="types" format="ascii">
3 3 3 
        </DataArray>
      </Cells>
      <PointData>
        <DataArray type="Float64" Name="rho">
          8.99454463e-01 8.99185380e-01 8.99095634e-01 8.99168102e-01 
        </DataArray>
        <DataArray type="Float64" Name="rhou">
          1.75395945e-03 1.60870816e-03 1.47901188e-03 1.41238977e-03 
        </DataArray>
        <DataArray type="Float64" Name="rhov">
          -1.16942667e-04 -7.45945223e-05 -6.69933546e-05 -7.66871907e-05 
        </DataArray>
        <DataArray type="Float64" Name="E">
          2.04277320e+05 2.04216926e+05 2.04198878e+05 2.04219139e+05 
        </DataArray>
      </PointData>
    </Piece>
    <Piece NumberOfPoints="4" NumberOfCells="3">
      <Points>
        <DataArray type="Float64" NumberOfComponents="3" format="ascii">
          3.14841360e-01 -5.99102043e-02 0.00000000e+00 
3.25268596e-01 -5.98174632e-02 0.00000000e+00 
3.35695356e-01 -5.96801341e-02 0.00000000e+00 
3.46121490e-01 -5.95011823e-02 0.00000000e+00 

        </DataArray>
      </Points>
      <Cells>
        <DataArray type="Int32" Name="connectivity" format="ascii">
0 1
1 2
2 3

        </DataArray>
        <DataArray type="Int32" Name="offsets" format="ascii">
2 4 6 
        </DataArray>
        <DataArray type="UInt8" Name="types" format="ascii">
3 3 3 
        </DataArray>
      </Cells>
      <PointData>
        <DataArray type="Float64" Name="rho">
          9.01482087e-01 9.00573219e-01 8.99906551e-01 8.99454170e-01 
        </DataArray>
        <DataArray type="Float64" Name="rhou">
          2.20628379e-03 1.96071939e-03 1.79495782e-03 1.71818589e-03 
        </DataArray>
        <DataArray type="Float64" Name="rhov">
          -5.46341443e-05 -3.08412149e-05 -6.29127627e-05 -1.16186981e-04 
        </DataArray>
        <DataArray type="Float64" Name="E">
          2.04747079e+05 2.04535453e+05 2.04381040e+05 2.04277253e+05 
        </DataArray>
      </PointData>
    </Piece>
    <Piece NumberOfPoints="4" NumberOfCells="3">
      <Points>
        <DataArray type="Float64" NumberOfComponents="3" format="ascii">
          2.83558637e-01 -5.98983802e-02 0.00000000e+00 
2.93986142e-01 -5.99516556e-02 0.00000000e+00 
3.04413795e-01 -5.99554181e-02 0.00000000e+00 
3.14841360e-01 -5.99102043e-02 0.00000000e+00 

        </DataArray>
      </Points>
      <Cells>
        <DataArray type="Int32" Name="connectivity" format="ascii">
0 1
1 2
2 3

        </DataArray>
        <DataArray type="Int32" Name="offsets" format="ascii">
2 4 6 
        </DataArray>
        <DataArray type="UInt8" Name="types" format="ascii">
3 3 3 
        </DataArray>
      </Cells>
      <PointData>
        <DataArray type="Float64" Name="rho">
          9.05761749e-01 9.04066648e-01 9.02645605e-01 9.01481371e-01 
        </DataArray>
        <DataArray type="Float64" Name="rhou">
          2.68554864e-03 2.51994937e-03 2.38188760e-03 2.19721702e-03 
        </DataArray>
        <DataArray type="Float64" Name="rhov">
          -1.13616006e-04 -1.80326062e-04 -1.43855514e-04 -4.79889845e-05 
        </DataArray>
        <DataArray type="Float64" Name="E">
          2.05750094e+05 2.05352010e+05 2.05018985e+05 2.04746916e+05 
        </DataArray>
      </PointData>
    </Piece>
    <Piece NumberOfPoints="4" NumberOfCells="3">
      <Points>
        <DataArray type="Float64" NumberOfComponents="3" format="ascii">
          2.52279758e-01 -5.94130717e-02 0.00000000e+00 
2.62705088e-01 -5.96327744e-02 0.00000000e+00 
2.73131490e-01 -5.97934239e-02 0.00000000e+00 
2.83558637e-01 -5.98983802e-02 0.00000000e+00 

        </DataArray>
      </Points>
      <Cells>
        <DataArray type="Int32" Name="connectivity" format="ascii">
0 1
1 2
2 3

        </DataArray>
        <DataArray type="Int32" Name="offsets" format="ascii">
2 4 6 
        </DataArray>
        <DataArray type="UInt8" Name="types" format="ascii">
3 3 3 
        </DataArray>
      </Cells>
      <PointData>
        <DataArray type="Float64" Name="rho">
          9.12909225e-01 9.10160163e-01 9.07780660e-01 9.05762673e-01 
        </DataArray>
        <DataArray type="Float64" Name="rhou">
          3.66135975e-03 3.35518726e-03 3.01852203e-03 2.67172531e-03 
        </DataArray>
        <DataArray type="Float64" Name="rhov">
          -2.64838443e-04 -1.71426853e-04 -8.31013111e-05 -9.43322519e-05 
        </DataArray>
        <DataArray type="Float64" Name="E">
          2.07432876e+05 2.06784921e+05 2.06224800e+05 2.05750308e+05 
        </DataArray>
      </PointData>
    </Piece>
    <Piece NumberOfPoints="4" NumberOfCells="3">
      <Points>
        <DataArray type="Float64" NumberOfComponents="3" format="ascii">
          2.21014455e-01 -5.83752058e-02 0.00000000e+00 
2.31433928e-01 -5.87876961e-02 0.00000000e+00 
2.41855890e-01 -5.91322705e-02 0.00000000e+00 
2.52279758e-01 -5.94130717e-02 0.00000000e+00 

        </DataArray>
      </Points>
      <Cells>
        <DataArray type="Int32" Name="connectivity" format="ascii">
0 1
1 2
2 3

        </DataArray>
        <DataArray type="Int32" Name="offsets" format="ascii">
2 4 6 
        </DataArray>
        <DataArray type="UInt8" Name="types" format="ascii">
3 3 3 
        </DataArray>
      </Cells>
      <PointData>
        <DataArray type="Float64" Name="rho">
          9.23703322e-01 9.19632879e-01 9.16050564e-01 9.12909406e-01 
        </DataArray>
        <DataArray type="Float64" Name="rhou">
          5.01830444e-03 4.43134019e-03 3.98380071e-03 3.69580486e-03 
        </DataArray>
        <DataArray type="Float64" Name="rhov">
          -3.74332344e-04 -2.68658370e-04 -2.35226575e-04 -2.48409334e-04 
        </DataArray>
        <DataArray type="Float64" Name="E">
          2.09982282e+05 2.09020171e+05 2.08174121e+05 2.07432913e+05 
        </DataArray>
      </PointData>
    </Piece>
    <Piece NumberOfPoints="4" NumberOfCells="3">
      <Points>
        <DataArray type="Float64" NumberOfComponents="3" format="ascii">
          1.89777538e-01 -5.66898957e-02 0.00000000e+00 
2.00185493e-01 -5.73302582e-02 0.00000000e+00 
2.10598081e-01 -5.78906052e-02 0.00000000e+00 
2.21014455e-01 -5.83752058e-02 0.00000000e+00 

        </DataArray>
      </Points>
      <Cells>
        <DataArray type="Int32" Name="connectivity" format="ascii">
0 1
1 2
2 3

        </DataArray>
        <DataArray type="Int32" Name="offsets" format="ascii">
2 4 6 
        </DataArray>
        <DataArray type="UInt8" Name="types" format="ascii">
3 3 3 
        </DataArray>
      </Cells>
      <PointData>
        <DataArray type="Float64" Name="rho">
          9.39228095e-01 9.33450354e-01 9.28295288e-01 9.23702559e-01 
        </DataArray>
        <DataArray type="Float64" Name="rhou">
          6.94509054e-03 6.14236429e-03 5.55548639e-03 5.08110373e-03 
        </DataArray>
        <DataArray type="Float64" Name="rhov">
          -6.61107290e-04 -5.88583605e-04 -4.87080155e-04 -3.61645256e-04 
        </DataArray>
        <DataArray type="Float64" Name="E">
          2.13658358e+05 2.12289207e+05 2.11068603e+05 2.09982107e+05 
        </DataArray>
      </PointData>
    </Piece>
    <Piece NumberOfPoints="4" NumberOfCells="3">
      <Points>
        <DataArray type="Float64" NumberOfComponents="3" format="ascii">
          1.58592433e-01 -5.42296544e-02 0.00000000e+00 
1.68979734e-01 -5.51457107e-02 0.00000000e+00 
1.79375216e-01 -5.59638515e-02 0.00000000e+00 
1.89777538e-01 -5.66898957e-02 0.00000000e+00 

        </DataArray>
      </Points>
      <Cells>
        <DataArray type="Int32" Name="connectivity" format="ascii">
0 1
1 2
2 3

        </DataArray>
        <DataArray type="Int32" Name="offsets" format="ascii">
2 4 6 
        </DataArray>
        <DataArray type="UInt8" Name="types" format="ascii">
3 3 3 
        </DataArray>
      </Cells>
      <PointData>
        <DataArray type="Float64" Name="rho">
          9.61047421e-01 9.52967015e-01 9.45710826e-01 9.39228514e-01 
        </DataArray>
        <DataArray type="Float64" Name="rhou">
          1.00087350e-02 8.93280580e-03 7.98149214e-03 7.01655344e-03 
        </DataArray>
        <DataArray type="Float64" Name="rhov">
          -1.42100870e-03 -1.22696681e-03 -8.92903019e-04 -6.20589267e-04 
        </DataArray>
        <DataArray type="Float64" Name="E">
          2.18837201e+05 2.16917706e+05 2.15195637e+05 2.13658458e+05 
        </DataArray>
      </PointData>
    </Piece>
    <Piece NumberOfPoints="4" NumberOfCells="3">
      <Points>
        <DataArray type="Float64" NumberOfComponents="3" format="ascii">
          1.27497971e-01 -5.08146733e-02 0.00000000e+00 
1.37849152e-01 -5.20747155e-02 0.00000000e+00 
1.48214847e-01 -5.32093942e-02 0.00000000e+00 
1.58592433e-01 -5.42296544e-02 0.00000000e+00 

        </DataArray>
      </Points>
      <Cells>
        <DataArray type="Int32" Name="connectivity" format="ascii">
0 1
1 2
2 3

        </DataArray>
        <DataArray type="Int32" Name="offsets" format="ascii">
2 4 6 
        </DataArray>
        <DataArray type="UInt8" Name="types" format="ascii">
3 3 3 
        </DataArray>
      </Cells>
      <PointData>
        <DataArray type="Float64" Name="rho">
          9.91587113e-01 9.80226488e-01 9.70067438e-01 9.61051479e-01 
        </DataArray>
        <DataArray type="Float64" Name="rhou">
          1.45418420e-02 1.33652082e-02 1.15587812e-02 1.00373411e-02 
        </DataArray>
        <DataArray type="Float64" Name="rhov">
          -2.30126892e-03 -2.05295529e-03 -1.43519074e-03 -1.34915970e-03 
        </DataArray>
        <DataArray type="Float64" Name="E">
          2.26104161e+05 2.23398441e+05 2.20981619e+05 2.18838133e+05 
        </DataArray>
      </PointData>
    </Piece>
    <Piece NumberOfPoints="4" NumberOfCells="3">
      <Points>
        <DataArray type="Float64" NumberOfComponents="3" format="ascii">
          9.65642184e-02 -4.61716652e-02 0.00000000e+00 
1.06852271e-01 -4.78802323e-02 0.00000000e+00 
1.17164567e-01 -4.94215861e-02 0.00000000e+00 
1.27497971e-01 -5.08146733e-02 0.00000000e+00 

        </DataArray>
      </Points>
      <Cells>
        <DataArray type="Int32" Name="connectivity" format="ascii">
0 1
1 2
2 3

        </DataArray>
        <DataArray type="Int32" Name="offsets" format="ascii">
2 4 6 
        </DataArray>
        <DataArray type="UInt8" Name="types" format="ascii">
3 3 3 
        </DataArray>
      </Cells>
      <PointData>
        <DataArray type="Float64" Name="rho">
          1.03496166e+00 1.01866602e+00 1.00423697e+00 9.91595490e-01 
        </DataArray>
        <DataArray type="Float64" Name="rhou">
          2.47111077e-02 1.81223823e-02 1.72167107e-02 1.28921546e-02 
        </DataArray>
        <DataArray type="Float64" Name="rhov">
          -9.12819099e-04 -7.36514412e-04 -1.57188794e-03 -1.61956516e-03 
        </DataArray>
        <DataArray type="Float64" Name="E">
          2.36460191e+05 2.32564796e+05 2.29120772e+05 2.26106181e+05 
        </DataArray>
      </PointData>
    </Piece>
  </UnstructuredGrid>
</VTKFile>
