<?xml version="1.0"?>
<VTKFile type="UnstructuredGrid" version="0.1" byte_order="LittleEndian">
  <UnstructuredGrid>
    <Piece NumberOfPoints="4" NumberOfCells="3">
      <Points>
        <DataArray type="Float64" NumberOfComponents="3" format="ascii">
          9.65642184e-02 -4.61716652e-02 0.00000000e+00 
9.26280916e-02 -4.54656407e-02 0.00000000e+00 
8.86965096e-02 -4.47326750e-02 0.00000000e+00 
8.47706869e-02 -4.39694971e-02 0.00000000e+00 

        </DataArray>
      </Points>
      <Cells>
        <DataArray type="Int32" Name="connectivity" format="ascii">
0 1
1 2
2 3

        </DataArray>
        <DataArray type="Int32" Name="offsets" format="ascii">
2 4 6 
        </DataArray>
        <DataArray type="UInt8" Name="types" format="ascii">
3 3 3 
        </DataArray>
      </Cells>
      <PointData>
        <DataArray type="Float64" Name="rho">
          1.03236489e+00 1.03927448e+00 1.04649882e+00 1.05417016e+00 
        </DataArray>
        <DataArray type="Float64" Name="rhou">
          2.82758490e-02 2.17840301e-02 2.44323991e-02 2.46083809e-02 
        </DataArray>
        <DataArray type="Float64" Name="rhov">
          -2.24011728e-03 -1.02914301e-03 -6.21450088e-04 -9.37428529e-04 
        </DataArray>
        <DataArray type="Float64" Name="E">
          2.35740894e+05 2.37393357e+05 2.39122720e+05 2.40959420e+05 
        </DataArray>
      </PointData>
    </Piece>
    <Piece NumberOfPoints="4" NumberOfCells="3">
      <Points>
        <DataArray type="Float64" NumberOfComponents="3" format="ascii">
          8.47706869e-02 -4.39694971e-02 0.00000000e+00 
8.08513016e-02 -4.31745499e-02 0.00000000e+00 
7.69388378e-02 -4.23462167e-02 0.00000000e+00 
7.30340332e-02 -4.14824970e-02 0.00000000e+00 

        </DataArray>
      </Points>
      <Cells>
        <DataArray type="Int32" Name="connectivity" format="ascii">
0 1
1 2
2 3

        </DataArray>
        <DataArray type="Int32" Name="offsets" format="ascii">
2 4 6 
        </DataArray>
        <DataArray type="UInt8" Name="types" format="ascii">
3 3 3 
        </DataArray>
      </Cells>
      <PointData>
        <DataArray type="Float64" Name="rho">
          1.05416897e+00 1.06226857e+00 1.07083194e+00 1.07992881e+00 
        </DataArray>
        <DataArray type="Float64" Name="rhou">
          2.47002390e-02 2.38755877e-02 2.24658635e-02 2.08988288e-02 
        </DataArray>
        <DataArray type="Float64" Name="rhov">
          -7.42897135e-04 -5.36157319e-04 3.68661881e-04 1.56072692e-03 
        </DataArray>
        <DataArray type="Float64" Name="E">
          2.40959154e+05 2.42900341e+05 2.44953910e+05 2.47136613e+05 
        </DataArray>
      </PointData>
    </Piece>
    <Piece NumberOfPoints="4" NumberOfCells="3">
      <Points>
        <DataArray type="Float64" NumberOfComponents="3" format="ascii">
          7.30340332e-02 -4.14824970e-02 0.00000000e+00 
6.91377968e-02 -4.05809283e-02 0.00000000e+00 
6.52511865e-02 -3.96387354e-02 0.00000000e+00 
6.13753870e-02 -3.86530459e-02 0.00000000e+00 

        </DataArray>
      </Points>
      <Cells>
        <DataArray type="Int32" Name="connectivity" format="ascii">
0 1
1 2
2 3

        </DataArray>
        <DataArray type="Int32" Name="offsets" format="ascii">
2 4 6 
        </DataArray>
        <DataArray type="UInt8" Name="types" format="ascii">
3 3 3 
        </DataArray>
      </Cells>
      <PointData>
        <DataArray type="Float64" Name="rho">
          1.07992941e+00 1.08964346e+00 1.10000637e+00 1.11107768e+00 
        </DataArray>
        <DataArray type="Float64" Name="rhou">
          2.10165675e-02 1.86665945e-02 1.45674327e-02 9.06820566e-03 
        </DataArray>
        <DataArray type="Float64" Name="rhov">
          1.39532189e-03 2.13797049e-03 4.21638836e-03 7.40207004e-03 
        </DataArray>
        <DataArray type="Float64" Name="E">
          2.47136775e+05 2.49469750e+05 2.51960194e+05 2.54623107e+05 
        </DataArray>
      </PointData>
    </Piece>
    <Piece NumberOfPoints="4" NumberOfCells="3">
      <Points>
        <DataArray type="Float64" NumberOfComponents="3" format="ascii">
          6.13753870e-02 -3.86530459e-02 0.00000000e+00 
5.75117208e-02 -3.76208089e-02 0.00000000e+00 
5.36618084e-02 -3.65384258e-02 0.00000000e+00 
4.98276278e-02 -3.54015976e-02 0.00000000e+00 

        </DataArray>
      </Points>
      <Cells>
        <DataArray type="Int32" Name="connectivity" format="ascii">
0 1
1 2
2 3

        </DataArray>
        <DataArray type="Int32" Name="offsets" format="ascii">
2 4 6 
        </DataArray>
        <DataArray type="UInt8" Name="types" format="ascii">
3 3 3 
        </DataArray>
      </Cells>
      <PointData>
        <DataArray type="Float64" Name="rho">
          1.11107795e+00 1.12294049e+00 1.13567902e+00 1.14942491e+00 
        </DataArray>
        <DataArray type="Float64" Name="rhou">
          9.01191780e-03 1.95634013e-03 -7.25504175e-03 -1.87706404e-02 
        </DataArray>
        <DataArray type="Float64" Name="rhov">
          7.17419213e-03 1.18699438e-02 1.99368155e-02 3.13934495e-02 
        </DataArray>
        <DataArray type="Float64" Name="E">
          2.54623171e+05 2.57480325e+05 2.60551102e+05 2.63868014e+05 
        </DataArray>
      </PointData>
    </Piece>
    <Piece NumberOfPoints="4" NumberOfCells="3">
      <Points>
        <DataArray type="Float64" NumberOfComponents="3" format="ascii">
          4.98276278e-02 -3.54015976e-02 0.00000000e+00 
4.60115410e-02 -3.42054628e-02 0.00000000e+00 
4.22164090e-02 -3.29444520e-02 0.00000000e+00 
3.84457745e-02 -3.16120051e-02 0.00000000e+00 

        </DataArray>
      </Points>
      <Cells>
        <DataArray type="Int32" Name="connectivity" format="ascii">
0 1
1 2
2 3

        </DataArray>
        <DataArray type="Int32" Name="offsets" format="ascii">
2 4 6 
        </DataArray>
        <DataArray type="UInt8" Name="types" format="ascii">
3 3 3 
        </DataArray>
      </Cells>
      <PointData>
        <DataArray type="Float64" Name="rho">
          1.14942483e+00 1.16427803e+00 1.18035062e+00 1.19783404e+00 
        </DataArray>
        <DataArray type="Float64" Name="rhou">
          -1.92249090e-02 -3.33594879e-02 -5.23436953e-02 -7.50535631e-02 
        </DataArray>
        <DataArray type="Float64" Name="rhov">
          3.11789588e-02 4.78351292e-02 7.54617202e-02 1.15883678e-01 
        </DataArray>
        <DataArray type="Float64" Name="E">
          2.63867962e+05 2.67458570e+05 2.71348747e+05 2.75586738e+05 
        </DataArray>
      </PointData>
    </Piece>
    <Piece NumberOfPoints="4" NumberOfCells="3">
      <Points>
        <DataArray type="Float64" NumberOfComponents="3" format="ascii">
          3.84457745e-02 -3.16120051e-02 0.00000000e+00 
3.47041376e-02 -3.02002355e-02 0.00000000e+00 
3.09973080e-02 -2.86995135e-02 0.00000000e+00 
2.73328498e-02 -2.70981900e-02 0.00000000e+00 

        </DataArray>
      </Points>
      <Cells>
        <DataArray type="Int32" Name="connectivity" format="ascii">
0 1
1 2
2 3

        </DataArray>
        <DataArray type="Int32" Name="offsets" format="ascii">
2 4 6 
        </DataArray>
        <DataArray type="UInt8" Name="types" format="ascii">
3 3 3 
        </DataArray>
      </Cells>
      <PointData>
        <DataArray type="Float64" Name="rho">
          1.19783426e+00 1.21691796e+00 1.23779520e+00 1.26083740e+00 
        </DataArray>
        <DataArray type="Float64" Name="rhou">
          -7.60045795e-02 -1.00152451e-01 -1.28788653e-01 -1.54195352e-01 
        </DataArray>
        <DataArray type="Float64" Name="rhov">
          1.15803018e-01 1.71304212e-01 2.57156480e-01 3.77355872e-01 
        </DataArray>
        <DataArray type="Float64" Name="E">
          2.75586657e+05 2.80224334e+05 2.85306427e+05 2.90927041e+05 
        </DataArray>
      </PointData>
    </Piece>
    <Piece NumberOfPoints="4" NumberOfCells="3">
      <Points>
        <DataArray type="Float64" NumberOfComponents="3" format="ascii">
          2.73328498e-02 -2.70981900e-02 0.00000000e+00 
2.37206947e-02 -2.53822580e-02 0.00000000e+00 
2.01744195e-02 -2.35341713e-02 0.00000000e+00 
1.67132635e-02 -2.15314496e-02 0.00000000e+00 

        </DataArray>
      </Points>
      <Cells>
        <DataArray type="Int32" Name="connectivity" format="ascii">
0 1
1 2
2 3

        </DataArray>
        <DataArray type="Int32" Name="offsets" format="ascii">
2 4 6 
        </DataArray>
        <DataArray type="UInt8" Name="types" format="ascii">
3 3 3 
        </DataArray>
      </Cells>
      <PointData>
        <DataArray type="Float64" Name="rho">
          1.26084227e+00 1.28638932e+00 1.31489684e+00 1.34771045e+00 
        </DataArray>
        <DataArray type="Float64" Name="rhou">
          -1.54577478e-01 -1.68662752e-01 -1.53028414e-01 -5.71356764e-02 
        </DataArray>
        <DataArray type="Float64" Name="rhov">
          3.78030872e-01 5.29771595e-01 7.40341610e-01 9.58597989e-01 
        </DataArray>
        <DataArray type="Float64" Name="E">
          2.90927940e+05 2.97181671e+05 3.04172768e+05 3.12229828e+05 
        </DataArray>
      </PointData>
    </Piece>
    <Piece NumberOfPoints="4" NumberOfCells="3">
      <Points>
        <DataArray type="Float64" NumberOfComponents="3" format="ascii">
          1.67132635e-02 -2.15314496e-02 0.00000000e+00 
1.33649679e-02 -1.93456318e-02 0.00000000e+00 
1.01706637e-02 -1.69409402e-02 0.00000000e+00 
7.19343964e-03 -1.42731192e-02 0.00000000e+00 

        </DataArray>
      </Points>
      <Cells>
        <DataArray type="Int32" Name="connectivity" format="ascii">
0 1
1 2
2 3

        </DataArray>
        <DataArray type="Int32" Name="offsets" format="ascii">
2 4 6 
        </DataArray>
        <DataArray type="UInt8" Name="types" format="ascii">
3 3 3 
        </DataArray>
      </Cells>
      <PointData>
        <DataArray type="Float64" Name="rho">
          1.34760464e+00 1.38746018e+00 1.43468934e+00 1.49978754e+00 
        </DataArray>
        <DataArray type="Float64" Name="rhou">
          -3.45745198e-02 1.13718260e-01 4.54761132e-01 8.74876163e-01 
        </DataArray>
        <DataArray type="Float64" Name="rhov">
          9.20359257e-01 1.12327494e+00 1.06847946e+00 5.18683578e-01 
        </DataArray>
        <DataArray type="Float64" Name="E">
          3.12205640e+05 3.21994774e+05 3.33587767e+05 3.49451717e+05 
        </DataArray>
      </PointData>
    </Piece>
    <Piece NumberOfPoints="4" NumberOfCells="3">
      <Points>
        <DataArray type="Float64" NumberOfComponents="3" format="ascii">
          7.19343964e-03 -1.42731192e-02 0.00000000e+00 
4.53082798e-03 -1.12927537e-02 0.00000000e+00 
2.33371323e-03 -7.95678515e-03 0.00000000e+00 
8.10639584e-04 -4.26717056e-03 0.00000000e+00 

        </DataArray>
      </Points>
      <Cells>
        <DataArray type="Int32" Name="connectivity" format="ascii">
0 1
1 2
2 3

        </DataArray>
        <DataArray type="Int32" Name="offsets" format="ascii">
2 4 6 
        </DataArray>
        <DataArray type="UInt8" Name="types" format="ascii">
3 3 3 
        </DataArray>
      </Cells>
      <PointData>
        <DataArray type="Float64" Name="rho">
          1.50030691e+00 1.57474508e+00 1.66385907e+00 1.73260792e+00 
        </DataArray>
        <DataArray type="Float64" Name="rhou">
          7.99895385e-01 9.29772984e-01 2.58308827e-01 -1.27572739e+00 
        </DataArray>
        <DataArray type="Float64" Name="rhov">
          6.17388407e-01 -5.11195816e-01 -1.72925530e+00 -1.81758120e+00 
        </DataArray>
        <DataArray type="Float64" Name="E">
          3.49579004e+05 3.67754904e+05 3.89392063e+05 4.06107356e+05 
        </DataArray>
      </PointData>
    </Piece>
    <Piece NumberOfPoints="4" NumberOfCells="3">
      <Points>
        <DataArray type="Float64" NumberOfComponents="3" format="ascii">
          8.10639584e-04 -4.26717056e-03 0.00000000e+00 
1.91366620e-04 -3.27450951e-04 0.00000000e+00 
6.40850572e-04 3.63462302e-03 0.00000000e+00 
2.03182548e-03 7.37539819e-03 0.00000000e+00 

        </DataArray>
      </Points>
      <Cells>
        <DataArray type="Int32" Name="connectivity" format="ascii">
0 1
1 2
2 3

        </DataArray>
        <DataArray type="Int32" Name="offsets" format="ascii">
2 4 6 
        </DataArray>
        <DataArray type="UInt8" Name="types" format="ascii">
3 3 3 
        </DataArray>
      </Cells>
      <PointData>
        <DataArray type="Float64" Name="rho">
          1.73103165e+00 1.75602232e+00 1.70564786e+00 1.61321895e+00 
        </DataArray>
        <DataArray type="Float64" Name="rhou">
          -1.15010608e+00 -1.87952578e+00 -8.35572173e-01 7.51825253e-01 
        </DataArray>
        <DataArray type="Float64" Name="rhov">
          -1.97565950e+00 3.63998946e-01 1.88271743e+00 1.51552078e+00 
        </DataArray>
        <DataArray type="Float64" Name="E">
          4.05725610e+05 4.11710505e+05 3.99393788e+05 3.76815184e+05 
        </DataArray>
      </PointData>
    </Piece>
    <Piece NumberOfPoints="4" NumberOfCells="3">
      <Points>
        <DataArray type="Float64" NumberOfComponents="3" format="ascii">
          2.03182548e-03 7.37539819e-03 0.00000000e+00 
4.13410179e-03 1.07714310e-02 0.00000000e+00 
6.73249783e-03 1.38076087e-02 0.00000000e+00 
9.66598373e-03 1.65232457e-02 0.00000000e+00 

        </DataArray>
      </Points>
      <Cells>
        <DataArray type="Int32" Name="connectivity" format="ascii">
0 1
1 2
2 3

        </DataArray>
        <DataArray type="Int32" Name="offsets" format="ascii">
2 4 6 
        </DataArray>
        <DataArray type="UInt8" Name="types" format="ascii">
3 3 3 
        </DataArray>
      </Cells>
      <PointData>
        <DataArray type="Float64" Name="rho">
          1.61358228e+00 1.50647914e+00 1.41725328e+00 1.35030860e+00 
        </DataArray>
        <DataArray type="Float64" Name="rhou">
          7.24115397e-01 1.15510179e+00 8.40075499e-01 3.75394775e-01 
        </DataArray>
        <DataArray type="Float64" Name="rhov">
          1.75024576e+00 6.26550294e-02 -1.07477341e+00 -1.39963581e+00 
        </DataArray>
        <DataArray type="Float64" Name="E">
          3.76906605e+05 3.50900688e+05 3.29198662e+05 3.12834914e+05 
        </DataArray>
      </PointData>
    </Piece>
    <Piece NumberOfPoints="4" NumberOfCells="3">
      <Points>
        <DataArray type="Float64" NumberOfComponents="3" format="ascii">
          9.66598373e-03 1.65232457e-02 0.00000000e+00 
1.28298048e-02 1.89677756e-02 0.00000000e+00 
1.61561389e-02 2.11867876e-02 0.00000000e+00 
1.96009967e-02 2.32173651e-02 0.00000000e+00 

        </DataArray>
      </Points>
      <Cells>
        <DataArray type="Int32" Name="connectivity" format="ascii">
0 1
1 2
2 3

        </DataArray>
        <DataArray type="Int32" Name="offsets" format="ascii">
2 4 6 
        </DataArray>
        <DataArray type="UInt8" Name="types" format="ascii">
3 3 3 
        </DataArray>
      </Cells>
      <PointData>
        <DataArray type="Float64" Name="rho">
          1.35010316e+00 1.29764582e+00 1.25868180e+00 1.22438359e+00 
        </DataArray>
        <DataArray type="Float64" Name="rhou">
          3.84982848e-01 -1.66666047e-02 -1.98257229e-01 -2.18834726e-01 
        </DataArray>
        <DataArray type="Float64" Name="rhov">
          -1.42422048e+00 -1.31959875e+00 -9.89636501e-01 -6.64366939e-01 
        </DataArray>
        <DataArray type="Float64" Name="E">
          3.12782704e+05 2.99961031e+05 2.90387793e+05 2.81986985e+05 
        </DataArray>
      </PointData>
    </Piece>
    <Piece NumberOfPoints="4" NumberOfCells="3">
      <Points>
        <DataArray type="Float64" NumberOfComponents="3" format="ascii">
          1.96009967e-02 2.32173651e-02 0.00000000e+00 
2.31348258e-02 2.50891000e-02 0.00000000e+00 
2.67372411e-02 2.68253610e-02 0.00000000e+00 
3.03938854e-02 2.84444261e-02 0.00000000e+00 

        </DataArray>
      </Points>
      <Cells>
        <DataArray type="Int32" Name="connectivity" format="ascii">
0 1
1 2
2 3

        </DataArray>
        <DataArray type="Int32" Name="offsets" format="ascii">
2 4 6 
        </DataArray>
        <DataArray type="UInt8" Name="types" format="ascii">
3 3 3 
        </DataArray>
      </Cells>
      <PointData>
        <DataArray type="Float64" Name="rho">
          1.22444734e+00 1.19533722e+00 1.16930408e+00 1.14572950e+00 
        </DataArray>
        <DataArray type="Float64" Name="rhou">
          -2.31957661e-01 -2.18512352e-01 -1.73330467e-01 -1.31127343e-01 
        </DataArray>
        <DataArray type="Float64" Name="rhov">
          -6.82607888e-01 -4.31666681e-01 -2.45148952e-01 -1.32447660e-01 
        </DataArray>
        <DataArray type="Float64" Name="E">
          2.82001905e+05 2.74891307e+05 2.68555225e+05 2.62834560e+05 
        </DataArray>
      </PointData>
    </Piece>
    <Piece NumberOfPoints="4" NumberOfCells="3">
      <Points>
        <DataArray type="Float64" NumberOfComponents="3" format="ascii">
          3.03938854e-02 2.84444261e-02 0.00000000e+00 
3.40943485e-02 2.99607720e-02 0.00000000e+00 
3.78307216e-02 3.13864015e-02 0.00000000e+00 
4.15969416e-02 3.27312648e-02 0.00000000e+00 

        </DataArray>
      </Points>
      <Cells>
        <DataArray type="Int32" Name="connectivity" format="ascii">
0 1
1 2
2 3

        </DataArray>
        <DataArray type="Int32" Name="offsets" format="ascii">
2 4 6 
        </DataArray>
        <DataArray type="UInt8" Name="types" format="ascii">
3 3 3 
        </DataArray>
      </Cells>
      <PointData>
        <DataArray type="Float64" Name="rho">
          1.14572777e+00 1.12439805e+00 1.10502521e+00 1.08736602e+00 
        </DataArray>
        <DataArray type="Float64" Name="rhou">
          -1.29335808e-01 -8.92172033e-02 -5.64445235e-02 -3.34834336e-02 
        </DataArray>
        <DataArray type="Float64" Name="rhov">
          -1.30996572e-01 -5.48414306e-02 -7.74277524e-03 1.76703713e-02 
        </DataArray>
        <DataArray type="Float64" Name="E">
          2.62834408e+05 2.57677129e+05 2.53004280e+05 2.48752567e+05 
        </DataArray>
      </PointData>
    </Piece>
    <Piece NumberOfPoints="4" NumberOfCells="3">
      <Points>
        <DataArray type="Float64" NumberOfComponents="3" format="ascii">
          4.15969416e-02 3.27312648e-02 0.00000000e+00 
4.53883260e-02 3.40034962e-02 0.00000000e+00 
4.92011942e-02 3.52098532e-02 0.00000000e+00 
5.30325845e-02 3.63560505e-02 0.00000000e+00 

        </DataArray>
      </Points>
      <Cells>
        <DataArray type="Int32" Name="connectivity" format="ascii">
0 1
1 2
2 3

        </DataArray>
        <DataArray type="Int32" Name="offsets" format="ascii">
2 4 6 
        </DataArray>
        <DataArray type="UInt8" Name="types" format="ascii">
3 3 3 
        </DataArray>
      </Cells>
      <PointData>
        <DataArray type="Float64" Name="rho">
          1.08736658e+00 1.07123173e+00 1.05643312e+00 1.04281194e+00 
        </DataArray>
        <DataArray type="Float64" Name="rhou">
          -3.23457214e-02 -1.29101594e-02 1.52994688e-03 1.09168608e-02 
        </DataArray>
        <DataArray type="Float64" Name="rhov">
          1.75753997e-02 3.12847888e-02 3.79632699e-02 3.91371836e-02 
        </DataArray>
        <DataArray type="Float64" Name="E">
          2.48752778e+05 2.44876592e+05 2.41326936e+05 2.38063843e+05 
        </DataArray>
      </PointData>
    </Piece>
    <Piece NumberOfPoints="4" NumberOfCells="3">
      <Points>
        <DataArray type="Float64" NumberOfComponents="3" format="ascii">
          5.30325845e-02 3.63560505e-02 0.00000000e+00 
5.68800643e-02 3.74470428e-02 0.00000000e+00 
6.07415959e-02 3.84872220e-02 0.00000000e+00 
6.46155030e-02 3.94803248e-02 0.00000000e+00 

        </DataArray>
      </Points>
      <Cells>
        <DataArray type="Int32" Name="connectivity" format="ascii">
0 1
1 2
2 3

        </DataArray>
        <DataArray type="Int32" Name="offsets" format="ascii">
2 4 6 
        </DataArray>
        <DataArray type="UInt8" Name="types" format="ascii">
3 3 3 
        </DataArray>
      </Cells>
      <PointData>
        <DataArray type="Float64" Name="rho">
          1.04281264e+00 1.03028055e+00 1.01870546e+00 1.00794668e+00 
        </DataArray>
        <DataArray type="Float64" Name="rhou">
          1.12334410e-02 1.82343898e-02 2.37801427e-02 2.76191031e-02 
        </DataArray>
        <DataArray type="Float64" Name="rhov">
          3.88103256e-02 3.71596263e-02 3.51165859e-02 3.18994610e-02 
        </DataArray>
        <DataArray type="Float64" Name="E">
          2.38064001e+05 2.35066015e+05 2.32299771e+05 2.29731133e+05 
        </DataArray>
      </PointData>
    </Piece>
    <Piece NumberOfPoints="4" NumberOfCells="3">
      <Points>
        <DataArray type="Float64" NumberOfComponents="3" format="ascii">
          6.46155030e-02 3.94803248e-02 0.00000000e+00 
6.85004294e-02 4.04294394e-02 0.00000000e+00 
7.23951608e-02 4.13374715e-02 0.00000000e+00 
7.62986317e-02 4.22072113e-02 0.00000000e+00 

        </DataArray>
      </Points>
      <Cells>
        <DataArray type="Int32" Name="connectivity" format="ascii">
0 1
1 2
2 3

        </DataArray>
        <DataArray type="Int32" Name="offsets" format="ascii">
2 4 6 
        </DataArray>
        <DataArray type="UInt8" Name="types" format="ascii">
3 3 3 
        </DataArray>
      </Cells>
      <PointData>
        <DataArray type="Float64" Name="rho">
          1.00794739e+00 9.97963405e-01 9.88664864e-01 9.79996219e-01 
        </DataArray>
        <DataArray type="Float64" Name="rhou">
          2.74388512e-02 2.93903528e-02 3.04947498e-02 3.05938403e-02 
        </DataArray>
        <DataArray type="Float64" Name="rhov">
          3.16009716e-02 2.77026086e-02 2.43316675e-02 2.10281054e-02 
        </DataArray>
        <DataArray type="Float64" Name="E">
          2.29731280e+05 2.27350209e+05 2.25134426e+05 2.23070009e+05 
        </DataArray>
      </PointData>
    </Piece>
    <Piece NumberOfPoints="4" NumberOfCells="3">
      <Points>
        <DataArray type="Float64" NumberOfComponents="3" format="ascii">
          7.62986317e-02 4.22072113e-02 0.00000000e+00 
8.02098960e-02 4.30411920e-02 0.00000000e+00 
8.41281936e-02 4.38414887e-02 0.00000000e+00 
8.80528912e-02 4.46097627e-02 0.00000000e+00 

        </DataArray>
      </Points>
      <Cells>
        <DataArray type="Int32" Name="connectivity" format="ascii">
0 1
1 2
2 3

        </DataArray>
        <DataArray type="Int32" Name="offsets" format="ascii">
2 4 6 
        </DataArray>
        <DataArray type="UInt8" Name="types" format="ascii">
3 3 3 
        </DataArray>
      </Cells>
      <PointData>
        <DataArray type="Float64" Name="rho">
          9.79995276e-01 9.71910214e-01 9.64314029e-01 9.57160906e-01 
        </DataArray>
        <DataArray type="Float64" Name="rhou">
          3.04469107e-02 3.04769490e-02 3.02078755e-02 2.91489913e-02 
        </DataArray>
        <DataArray type="Float64" Name="rhov">
          2.08648527e-02 1.83074086e-02 1.58004285e-02 1.31217781e-02 
        </DataArray>
        <DataArray type="Float64" Name="E">
          2.23069773e+05 2.21145811e+05 2.19339442e+05 2.17639564e+05 
        </DataArray>
      </PointData>
    </Piece>
    <Piece NumberOfPoints="4" NumberOfCells="3">
      <Points>
        <DataArray type="Float64" NumberOfComponents="3" format="ascii">
          8.80528912e-02 4.46097627e-02 0.00000000e+00 
9.19835642e-02 4.53475714e-02 0.00000000e+00 
9.59195644e-02 4.60564308e-02 0.00000000e+00 
9.98597518e-02 4.67394181e-02 0.00000000e+00 

        </DataArray>
      </Points>
      <Cells>
        <DataArray type="Int32" Name="connectivity" format="ascii">
0 1
1 2
2 3

        </DataArray>
        <DataArray type="Int32" Name="offsets" format="ascii">
2 4 6 
        </DataArray>
        <DataArray type="UInt8" Name="types" format="ascii">
3 3 3 
        </DataArray>
      </Cells>
      <PointData>
        <DataArray type="Float64" Name="rho">
          9.57161410e-01 9.50441339e-01 9.44141634e-01 9.38162708e-01 
        </DataArray>
        <DataArray type="Float64" Name="rhou">
          2.89559684e-02 2.75379919e-02 2.40721630e-02 2.85889957e-02 
        </DataArray>
        <DataArray type="Float64" Name="rhov">
          1.32846881e-02 1.07104023e-02 9.12854523e-03 8.62983696e-03 
        </DataArray>
        <DataArray type="Float64" Name="E">
          2.17639681e+05 2.16043916e+05 2.14548392e+05 2.13130038e+05 
        </DataArray>
      </PointData>
    </Piece>
    <Piece NumberOfPoints="4" NumberOfCells="3">
      <Points>
        <DataArray type="Float64" NumberOfComponents="3" format="ascii">
          9.98597518e-02 4.67394181e-02 0.00000000e+00 
1.10118888e-01 4.83862534e-02 0.00000000e+00 
1.20400399e-01 4.98730615e-02 0.00000000e+00 
1.30701363e-01 5.12186773e-02 0.00000000e+00 

        </DataArray>
      </Points>
      <Cells>
        <DataArray type="Int32" Name="connectivity" format="ascii">
0 1
1 2
2 3

        </DataArray>
        <DataArray type="Int32" Name="offsets" format="ascii">
2 4 6 
        </DataArray>
        <DataArray type="UInt8" Name="types" format="ascii">
3 3 3 
        </DataArray>
      </Cells>
      <PointData>
        <DataArray type="Float64" Name="rho">
          9.38090079e-01 9.24145058e-01 9.12115130e-01 9.01773635e-01 
        </DataArray>
        <DataArray type="Float64" Name="rhou">
          2.63203555e-02 1.81551820e-02 1.60300731e-02 1.25693588e-02 
        </DataArray>
        <DataArray type="Float64" Name="rhov">
          7.39536846e-03 4.17011167e-03 3.66281813e-03 2.99193713e-03 
        </DataArray>
        <DataArray type="Float64" Name="E">
          2.13113629e+05 2.09809351e+05 2.06962181e+05 2.04517088e+05 
        </DataArray>
      </PointData>
    </Piece>
    <Piece NumberOfPoints="4" NumberOfCells="3">
      <Points>
        <DataArray type="Float64" NumberOfComponents="3" format="ascii">
          1.30701363e-01 5.12186773e-02 0.00000000e+00 
1.41019106e-01 5.24347536e-02 0.00000000e+00 
1.51350453e-01 5.35292812e-02 0.00000000e+00 
1.61692888e-01 5.45137413e-02 0.00000000e+00 

        </DataArray>
      </Points>
      <Cells>
        <DataArray type="Int32" Name="connectivity" format="ascii">
0 1
1 2
2 3

        </DataArray>
        <DataArray type="Int32" Name="offsets" format="ascii">
2 4 6 
        </DataArray>
        <DataArray type="UInt8" Name="types" format="ascii">
3 3 3 
        </DataArray>
      </Cells>
      <PointData>
        <DataArray type="Float64" Name="rho">
          9.01770143e-01 8.92690368e-01 8.84847621e-01 8.78133457e-01 
        </DataArray>
        <DataArray type="Float64" Name="rhou">
          1.39500336e-02 1.20555264e-02 9.98283497e-03 8.71861064e-03 
        </DataArray>
        <DataArray type="Float64" Name="rhov">
          3.49089448e-03 2.56472376e-03 1.78704740e-03 1.61028409e-03 
        </DataArray>
        <DataArray type="Float64" Name="E">
          2.04516250e+05 2.02372687e+05 2.00523398e+05 1.98941728e+05 
        </DataArray>
      </PointData>
    </Piece>
    <Piece NumberOfPoints="4" NumberOfCells="3">
      <Points>
        <DataArray type="Float64" NumberOfComponents="3" format="ascii">
          1.61692888e-01 5.45137413e-02 0.00000000e+00 
1.72044471e-01 5.53969070e-02 0.00000000e+00 
1.82403773e-01 5.61845005e-02 0.00000000e+00 
1.92769483e-01 5.68825118e-02 0.00000000e+00 

        </DataArray>
      </Points>
      <Cells>
        <DataArray type="Int32" Name="connectivity" format="ascii">
0 1
1 2
2 3

        </DataArray>
        <DataArray type="Int32" Name="offsets" format="ascii">
2 4 6 
        </DataArray>
        <DataArray type="UInt8" Name="types" format="ascii">
3 3 3 
        </DataArray>
      </Cells>
      <PointData>
        <DataArray type="Float64" Name="rho">
          8.78131054e-01 8.72350434e-01 8.67412704e-01 8.63265195e-01 
        </DataArray>
        <DataArray type="Float64" Name="rhou">
          8.75527506e-03 7.62485656e-03 6.59097594e-03 5.68886836e-03 
        </DataArray>
        <DataArray type="Float64" Name="rhov">
          1.66185892e-03 1.29619102e-03 9.16754150e-04 6.86961727e-04 
        </DataArray>
        <DataArray type="Float64" Name="E">
          1.98941189e+05 1.97581163e+05 1.96421230e+05 1.95448429e+05 
        </DataArray>
      </PointData>
    </Piece>
    <Piece NumberOfPoints="4" NumberOfCells="3">
      <Points>
        <DataArray type="Float64" NumberOfComponents="3" format="ascii">
          1.92769483e-01 5.68825118e-02 0.00000000e+00 
2.03140482e-01 5.74972220e-02 0.00000000e+00 
2.13515818e-01 5.80338500e-02 0.00000000e+00 
2.23894730e-01 5.84962890e-02 0.00000000e+00 

        </DataArray>
      </Points>
      <Cells>
        <DataArray type="Int32" Name="connectivity" format="ascii">
0 1
1 2
2 3

        </DataArray>
        <DataArray type="Int32" Name="offsets" format="ascii">
2 4 6 
        </DataArray>
        <DataArray type="UInt8" Name="types" format="ascii">
3 3 3 
        </DataArray>
      </Cells>
      <PointData>
        <DataArray type="Float64" Name="rho">
          8.63264506e-01 8.59827514e-01 8.57017108e-01 8.54775068e-01 
        </DataArray>
        <DataArray type="Float64" Name="rhou">
          5.72552003e-03 5.00411984e-03 4.44775266e-03 3.98743471e-03 
        </DataArray>
        <DataArray type="Float64" Name="rhov">
          7.28310852e-04 6.37539124e-04 5.20868710e-04 3.97058714e-04 
        </DataArray>
        <DataArray type="Float64" Name="E">
          1.95448271e+05 1.94643493e+05 1.93986990e+05 1.93464901e+05 
        </DataArray>
      </PointData>
    </Piece>
    <Piece NumberOfPoints="4" NumberOfCells="3">
      <Points>
        <DataArray type="Float64" NumberOfComponents="3" format="ascii">
          2.23894730e-01 5.84962890e-02 0.00000000e+00 
2.34276548e-01 5.88882305e-02 0.00000000e+00 
2.44660646e-01 5.92139624e-02 0.00000000e+00 
2.55046517e-01 5.94772622e-02 0.00000000e+00 

        </DataArray>
      </Points>
      <Cells>
        <DataArray type="Int32" Name="connectivity" format="ascii">
0 1
1 2
2 3

        </DataArray>
        <DataArray type="Int32" Name="offsets" format="ascii">
2 4 6 
        </DataArray>
        <DataArray type="UInt8" Name="types" format="ascii">
3 3 3 
        </DataArray>
      </Cells>
      <PointData>
        <DataArray type="Float64" Name="rho">
          8.54775639e-01 8.53059807e-01 8.51825821e-01 8.51018460e-01 
        </DataArray>
        <DataArray type="Float64" Name="rhou">
          3.99503555e-03 3.47362750e-03 3.09533200e-03 2.86583714e-03 
        </DataArray>
        <DataArray type="Float64" Name="rhov">
          4.11416401e-04 3.32589224e-04 3.14475923e-04 3.12237350e-04 
        </DataArray>
        <DataArray type="Float64" Name="E">
          1.93465032e+05 1.93067187e+05 1.92783001e+05 1.92599460e+05 
        </DataArray>
      </PointData>
    </Piece>
    <Piece NumberOfPoints="4" NumberOfCells="3">
      <Points>
        <DataArray type="Float64" NumberOfComponents="3" format="ascii">
          2.55046517e-01 5.94772622e-02 0.00000000e+00 
2.65433758e-01 5.96804135e-02 0.00000000e+00 
2.75821954e-01 5.98256700e-02 0.00000000e+00 
2.86210775e-01 5.99167012e-02 0.00000000e+00 

        </DataArray>
      </Points>
      <Cells>
        <DataArray type="Int32" Name="connectivity" format="ascii">
0 1
1 2
2 3

        </DataArray>
        <DataArray type="Int32" Name="offsets" format="ascii">
2 4 6 
        </DataArray>
        <DataArray type="UInt8" Name="types" format="ascii">
3 3 3 
        </DataArray>
      </Cells>
      <PointData>
        <DataArray type="Float64" Name="rho">
          8.51018472e-01 8.50589632e-01 8.50514809e-01 8.50773815e-01 
        </DataArray>
        <DataArray type="Float64" Name="rhou">
          2.86005521e-03 2.57313029e-03 2.27909282e-03 2.01545642e-03 
        </DataArray>
        <DataArray type="Float64" Name="rhov">
          3.23520459e-04 2.27486697e-04 1.68602321e-04 2.01747993e-04 
        </DataArray>
        <DataArray type="Float64" Name="E">
          1.92599466e+05 1.92505255e+05 1.92494500e+05 1.92562235e+05 
        </DataArray>
      </PointData>
    </Piece>
    <Piece NumberOfPoints="4" NumberOfCells="3">
      <Points>
        <DataArray type="Float64" NumberOfComponents="3" format="ascii">
          2.86210775e-01 5.99167012e-02 0.00000000e+00 
2.96599895e-01 5.99572174e-02 0.00000000e+00 
3.06989133e-01 5.99487796e-02 0.00000000e+00 
3.17378193e-01 5.98919280e-02 0.00000000e+00 

        </DataArray>
      </Points>
      <Cells>
        <DataArray type="Int32" Name="connectivity" format="ascii">
0 1
1 2
2 3

        </DataArray>
        <DataArray type="Int32" Name="offsets" format="ascii">
2 4 6 
        </DataArray>
        <DataArray type="UInt8" Name="types" format="ascii">
3 3 3 
        </DataArray>
      </Cells>
      <PointData>
        <DataArray type="Float64" Name="rho">
          8.50772794e-01 8.51316770e-01 8.52099147e-01 8.53105077e-01 
        </DataArray>
        <DataArray type="Float64" Name="rhou">
          2.03425885e-03 1.91849987e-03 1.79183884e-03 1.60984074e-03 
        </DataArray>
        <DataArray type="Float64" Name="rhov">
          2.18083170e-04 2.44790624e-04 1.90121105e-04 1.15404889e-04 
        </DataArray>
        <DataArray type="Float64" Name="E">
          1.92562002e+05 1.92696755e+05 1.92887755e+05 1.93131438e+05 
        </DataArray>
      </PointData>
    </Piece>
    <Piece NumberOfPoints="4" NumberOfCells="3">
      <Points>
        <DataArray type="Float64" NumberOfComponents="3" format="ascii">
          3.17378193e-01 5.98919280e-02 0.00000000e+00 
3.27766895e-01 5.97884916e-02 0.00000000e+00 
3.38155061e-01 5.96415885e-02 0.00000000e+00 
3.48542601e-01 5.94538599e-02 0.00000000e+00 

        </DataArray>
      </Points>
      <Cells>
        <DataArray type="Int32" Name="connectivity" format="ascii">
0 1
1 2
2 3

        </DataArray>
        <DataArray type="Int32" Name="offsets" format="ascii">
2 4 6 
        </DataArray>
        <DataArray type="UInt8" Name="types" format="ascii">
3 3 3 
        </DataArray>
      </Cells>
      <PointData>
        <DataArray type="Float64" Name="rho">
          8.53105424e-01 8.54322415e-01 8.55730490e-01 8.57297018e-01 
        </DataArray>
        <DataArray type="Float64" Name="rhou">
          1.63927085e-03 1.44289292e-03 1.32572086e-03 1.27872313e-03 
        </DataArray>
        <DataArray type="Float64" Name="rhov">
          1.23048368e-04 1.11394149e-04 1.36774938e-04 1.57179491e-04 
        </DataArray>
        <DataArray type="Float64" Name="E">
          1.93131516e+05 1.93424824e+05 1.93762998e+05 1.94138429e+05 
        </DataArray>
      </PointData>
    </Piece>
    <Piece NumberOfPoints="4" NumberOfCells="3">
      <Points>
        <DataArray type="Float64" NumberOfComponents="3" format="ascii">
          3.48542601e-01 5.94538599e-02 0.00000000e+00 
3.58929336e-01 5.92265576e-02 0.00000000e+00 
3.69315147e-01 5.89610897e-02 0.00000000e+00 
3.79699975e-01 5.86590059e-02 0.00000000e+00 

        </DataArray>
      </Points>
      <Cells>
        <DataArray type="Int32" Name="connectivity" format="ascii">
0 1
1 2
2 3

        </DataArray>
        <DataArray type="Int32" Name="offsets" format="ascii">
2 4 6 
        </DataArray>
        <DataArray type="UInt8" Name="types" format="ascii">
3 3 3 
        </DataArray>
      </Cells>
      <PointData>
        <DataArray type="Float64" Name="rho">
          8.57297265e-01 8.58996971e-01 8.60820368e-01 8.62747751e-01 
        </DataArray>
        <DataArray type="Float64" Name="rhou">
          1.29109178e-03 1.16665066e-03 1.07243687e-03 1.02381469e-03 
        </DataArray>
        <DataArray type="Float64" Name="rhov">
          1.54094730e-04 1.17879360e-04 1.10302414e-04 1.08605395e-04 
        </DataArray>
        <DataArray type="Float64" Name="E">
          1.94138485e+05 1.94545268e+05 1.94981110e+05 1.95441407e+05 
        </DataArray>
      </PointData>
    </Piece>
    <Piece NumberOfPoints="4" NumberOfCells="3">
      <Points>
        <DataArray type="Float64" NumberOfComponents="3" format="ascii">
          3.79699975e-01 5.86590059e-02 0.00000000e+00 
3.90083700e-01 5.83211333e-02 0.00000000e+00 
4.00466233e-01 5.79482466e-02 0.00000000e+00 
4.10847515e-01 5.75418957e-02 0.00000000e+00 

        </DataArray>
      </Points>
      <Cells>
        <DataArray type="Int32" Name="connectivity" format="ascii">
0 1
1 2
2 3

        </DataArray>
        <DataArray type="Int32" Name="offsets" format="ascii">
2 4 6 
        </DataArray>
        <DataArray type="UInt8" Name="types" format="ascii">
3 3 3 
        </DataArray>
      </Cells>
      <PointData>
        <DataArray type="Float64" Name="rho">
          8.62747763e-01 8.64762427e-01 8.66854602e-01 8.69017872e-01 
        </DataArray>
        <DataArray type="Float64" Name="rhou">
          1.01614275e-03 9.51419426e-04 8.72257087e-04 7.95800855e-04 
        </DataArray>
        <DataArray type="Float64" Name="rhov">
          1.11041137e-04 8.06434604e-05 5.77663058e-05 6.31010251e-05 
        </DataArray>
        <DataArray type="Float64" Name="E">
          1.95441411e+05 1.95922264e+05 1.96421367e+05 1.96937160e+05 
        </DataArray>
      </PointData>
    </Piece>
    <Piece NumberOfPoints="4" NumberOfCells="3">
      <Points>
        <DataArray type="Float64" NumberOfComponents="3" format="ascii">
          4.10847515e-01 5.75418957e-02 0.00000000e+00 
4.21227485e-01 5.71038015e-02 0.00000000e+00 
4.31606144e-01 5.66351078e-02 0.00000000e+00 
4.41983402e-01 5.61364293e-02 0.00000000e+00 

        </DataArray>
      </Points>
      <Cells>
        <DataArray type="Int32" Name="connectivity" format="ascii">
0 1
1 2
2 3

        </DataArray>
        <DataArray type="Int32" Name="offsets" format="ascii">
2 4 6 
        </DataArray>
        <DataArray type="UInt8" Name="types" format="ascii">
3 3 3 
        </DataArray>
      </Cells>
      <PointData>
        <DataArray type="Float64" Name="rho">
          8.69017671e-01 8.71236558e-01 8.73499517e-01 8.75796970e-01 
        </DataArray>
        <DataArray type="Float64" Name="rhou">
          8.12403146e-04 7.60339978e-04 7.20856589e-04 6.83242046e-04 
        </DataArray>
        <DataArray type="Float64" Name="rhov">
          6.65265897e-05 6.66910170e-05 5.71319448e-05 3.61295317e-05 
        </DataArray>
        <DataArray type="Float64" Name="E">
          1.96937115e+05 1.97465986e+05 1.98005245e+05 1.98552652e+05 
        </DataArray>
      </PointData>
    </Piece>
    <Piece NumberOfPoints="4" NumberOfCells="3">
      <Points>
        <DataArray type="Float64" NumberOfComponents="3" format="ascii">
          4.41983402e-01 5.61364293e-02 0.00000000e+00 
4.52359200e-01 5.56085743e-02 0.00000000e+00 
4.62733537e-01 5.50529286e-02 0.00000000e+00 
4.73106444e-01 5.44707514e-02 0.00000000e+00 

        </DataArray>
      </Points>
      <Cells>
        <DataArray type="Int32" Name="connectivity" format="ascii">
0 1
1 2
2 3

        </DataArray>
        <DataArray type="Int32" Name="offsets" format="ascii">
2 4 6 
        </DataArray>
        <DataArray type="UInt8" Name="types" format="ascii">
3 3 3 
        </DataArray>
      </Cells>
      <PointData>
        <DataArray type="Float64" Name="rho">
          8.75797113e-01 8.78124717e-01 8.80476099e-01 8.82842840e-01 
        </DataArray>
        <DataArray type="Float64" Name="rhou">
          6.80271450e-04 6.23889558e-04 5.83468397e-04 5.59527272e-04 
        </DataArray>
        <DataArray type="Float64" Name="rhov">
          3.67702089e-05 2.94262507e-05 3.00111379e-05 3.03459641e-05 
        </DataArray>
        <DataArray type="Float64" Name="E">
          1.98552685e+05 1.99107191e+05 1.99667290e+05 2.00231016e+05 
        </DataArray>
      </PointData>
    </Piece>
    <Piece NumberOfPoints="4" NumberOfCells="3">
      <Points>
        <DataArray type="Float64" NumberOfComponents="3" format="ascii">
          4.73106444e-01 5.44707514e-02 0.00000000e+00 
4.83477861e-01 5.38627952e-02 0.00000000e+00 
4.93847787e-01 5.32294959e-02 0.00000000e+00 
5.04216135e-01 5.25716618e-02 0.00000000e+00 

        </DataArray>
      </Points>
      <Cells>
        <DataArray type="Int32" Name="connectivity" format="ascii">
0 1
1 2
2 3

        </DataArray>
        <DataArray type="Int32" Name="offsets" format="ascii">
2 4 6 
        </DataArray>
        <DataArray type="UInt8" Name="types" format="ascii">
3 3 3 
        </DataArray>
      </Cells>
      <PointData>
        <DataArray type="Float64" Name="rho">
          8.82842827e-01 8.85218128e-01 8.87596670e-01 8.89977389e-01 
        </DataArray>
        <DataArray type="Float64" Name="rhou">
          5.51944103e-04 5.30579484e-04 4.95035301e-04 4.52884494e-04 
        </DataArray>
        <DataArray type="Float64" Name="rhov">
          3.21551264e-05 2.08950656e-05 6.16994871e-06 3.69425666e-06 
        </DataArray>
        <DataArray type="Float64" Name="E">
          2.00231013e+05 2.00796778e+05 2.01363338e+05 2.01930414e+05 
        </DataArray>
      </PointData>
    </Piece>
    <Piece NumberOfPoints="4" NumberOfCells="3">
      <Points>
        <DataArray type="Float64" NumberOfComponents="3" format="ascii">
          5.04216135e-01 5.25716618e-02 0.00000000e+00 
5.14582992e-01 5.18903993e-02 0.00000000e+00 
5.24948359e-01 5.11864908e-02 0.00000000e+00 
5.35312176e-01 5.04603274e-02 0.00000000e+00 

        </DataArray>
      </Points>
      <Cells>
        <DataArray type="Int32" Name="connectivity" format="ascii">
0 1
1 2
2 3

        </DataArray>
        <DataArray type="Int32" Name="offsets" format="ascii">
2 4 6 
        </DataArray>
        <DataArray type="UInt8" Name="types" format="ascii">
3 3 3 
        </DataArray>
      </Cells>
      <PointData>
        <DataArray type="Float64" Name="rho">
          8.89977303e-01 8.92354826e-01 8.94724717e-01 8.97083521e-01 
        </DataArray>
        <DataArray type="Float64" Name="rhou">
          4.61457340e-04 4.35003354e-04 4.14975956e-04 3.95248660e-04 
        </DataArray>
        <DataArray type="Float64" Name="rhov">
          5.85210476e-06 5.65056739e-06 3.91661026e-07 -1.13056673e-05 
        </DataArray>
        <DataArray type="Float64" Name="E">
          2.01930395e+05 2.02496731e+05 2.03061293e+05 2.03623272e+05 
        </DataArray>
      </PointData>
    </Piece>
    <Piece NumberOfPoints="4" NumberOfCells="3">
      <Points>
        <DataArray type="Float64" NumberOfComponents="3" format="ascii">
          5.35312176e-01 5.04603274e-02 0.00000000e+00 
5.45674443e-01 4.97124642e-02 0.00000000e+00 
5.56035221e-01 4.89437394e-02 0.00000000e+00 
5.66394389e-01 4.81546782e-02 0.00000000e+00 

        </DataArray>
      </Points>
      <Cells>
        <DataArray type="Int32" Name="connectivity" format="ascii">
0 1
1 2
2 3

        </DataArray>
        <DataArray type="Int32" Name="offsets" format="ascii">
2 4 6 
        </DataArray>
        <DataArray type="UInt8" Name="types" format="ascii">
3 3 3 
        </DataArray>
      </Cells>
      <PointData>
        <DataArray type="Float64" Name="rho">
          8.97083566e-01 8.99430642e-01 9.01763089e-01 9.04078048e-01 
        </DataArray>
        <DataArray type="Float64" Name="rhou">
          3.90992352e-04 3.64293789e-04 3.45635195e-04 3.33586738e-04 
        </DataArray>
        <DataArray type="Float64" Name="rhov">
          -1.10268244e-05 -1.16035669e-05 -1.21829125e-05 -1.62807810e-05 
        </DataArray>
        <DataArray type="Float64" Name="E">
          2.03623282e+05 2.04182508e+05 2.04738302e+05 2.05289997e+05 
        </DataArray>
      </PointData>
    </Piece>
    <Piece NumberOfPoints="4" NumberOfCells="3">
      <Points>
        <DataArray type="Float64" NumberOfComponents="3" format="ascii">
          5.66394389e-01 4.81546782e-02 0.00000000e+00 
5.76752067e-01 4.73455116e-02 0.00000000e+00 
5.87108195e-01 4.65166979e-02 0.00000000e+00 
5.97462773e-01 4.56690118e-02 0.00000000e+00 

        </DataArray>
      </Points>
      <Cells>
        <DataArray type="Int32" Name="connectivity" format="ascii">
0 1
1 2
2 3

        </DataArray>
        <DataArray type="Int32" Name="offsets" format="ascii">
2 4 6 
        </DataArray>
        <DataArray type="UInt8" Name="types" format="ascii">
3 3 3 
        </DataArray>
      </Cells>
      <PointData>
        <DataArray type="Float64" Name="rho">
          9.04078077e-01 9.06373874e-01 9.08650195e-01 9.10906140e-01 
        </DataArray>
        <DataArray type="Float64" Name="rhou">
          3.32918344e-04 3.12337857e-04 2.91086026e-04 2.74844147e-04 
        </DataArray>
        <DataArray type="Float64" Name="rhov">
          -1.59479791e-05 -2.44365630e-05 -2.78300724e-05 -2.64834729e-05 
        </DataArray>
        <DataArray type="Float64" Name="E">
          2.05290003e+05 2.05837206e+05 2.06379829e+05 2.06917656e+05 
        </DataArray>
      </PointData>
    </Piece>
    <Piece NumberOfPoints="4" NumberOfCells="3">
      <Points>
        <DataArray type="Float64" NumberOfComponents="3" format="ascii">
          5.97462773e-01 4.56690118e-02 0.00000000e+00 
6.07815862e-01 4.48031016e-02 0.00000000e+00 
6.18167400e-01 4.39192392e-02 0.00000000e+00 
6.28517449e-01 4.30175588e-02 0.00000000e+00 

        </DataArray>
      </Points>
      <Cells>
        <DataArray type="Int32" Name="connectivity" format="ascii">
0 1
1 2
2 3

        </DataArray>
        <DataArray type="Int32" Name="offsets" format="ascii">
2 4 6 
        </DataArray>
        <DataArray type="UInt8" Name="types" format="ascii">
3 3 3 
        </DataArray>
      </Cells>
      <PointData>
        <DataArray type="Float64" Name="rho">
          9.10906077e-01 9.13139752e-01 9.15349341e-01 9.17534989e-01 
        </DataArray>
        <DataArray type="Float64" Name="rhou">
          2.72917939e-04 2.64119111e-04 2.52027276e-04 2.34669446e-04 
        </DataArray>
        <DataArray type="Float64" Name="rhov">
          -2.55637060e-05 -2.58763636e-05 -3.13336189e-05 -3.65440227e-05 
        </DataArray>
        <DataArray type="Float64" Name="E">
          2.06917641e+05 2.07450229e+05 2.07977159e+05 2.08498455e+05 
        </DataArray>
      </PointData>
    </Piece>
    <Piece NumberOfPoints="4" NumberOfCells="3">
      <Points>
        <DataArray type="Float64" NumberOfComponents="3" format="ascii">
          6.28517449e-01 4.30175588e-02 0.00000000e+00 
6.38865948e-01 4.20984775e-02 0.00000000e+00 
6.49212897e-01 4.11624312e-02 0.00000000e+00 
6.59558356e-01 4.02097441e-02 0.00000000e+00 

        </DataArray>
      </Points>
      <Cells>
        <DataArray type="Int32" Name="connectivity" format="ascii">
0 1
1 2
2 3

        </DataArray>
        <DataArray type="Int32" Name="offsets" format="ascii">
2 4 6 
        </DataArray>
        <DataArray type="UInt8" Name="types" format="ascii">
3 3 3 
        </DataArray>
      </Cells>
      <PointData>
        <DataArray type="Float64" Name="rho">
          9.17534981e-01 9.19696484e-01 9.21832978e-01 9.23944119e-01 
        </DataArray>
        <DataArray type="Float64" Name="rhou">
          2.35649106e-04 2.22831733e-04 2.11864567e-04 2.00062928e-04 
        </DataArray>
        <DataArray type="Float64" Name="rhov">
          -3.55329014e-05 -3.60714196e-05 -3.77622724e-05 -3.98313474e-05 
        </DataArray>
        <DataArray type="Float64" Name="E">
          2.08498453e+05 2.09014062e+05 2.09523783e+05 2.10027532e+05 
        </DataArray>
      </PointData>
    </Piece>
    <Piece NumberOfPoints="4" NumberOfCells="3">
      <Points>
        <DataArray type="Float64" NumberOfComponents="3" format="ascii">
          6.59558356e-01 4.02097441e-02 0.00000000e+00 
6.69902325e-01 3.92407738e-02 0.00000000e+00 
6.80244744e-01 3.82556282e-02 0.00000000e+00 
6.90585554e-01 3.72543521e-02 0.00000000e+00 

        </DataArray>
      </Points>
      <Cells>
        <DataArray type="Int32" Name="connectivity" format="ascii">
0 1
1 2
2 3

        </DataArray>
        <DataArray type="Int32" Name="offsets" format="ascii">
2 4 6 
        </DataArray>
        <DataArray type="UInt8" Name="types" format="ascii">
3 3 3 
        </DataArray>
      </Cells>
      <PointData>
        <DataArray type="Float64" Name="rho">
          9.23944103e-01 9.26029859e-01 9.28089057e-01 9.30122451e-01 
        </DataArray>
        <DataArray type="Float64" Name="rhou">
          1.96862574e-04 1.91891215e-04 1.83326966e-04 1.68762336e-04 
        </DataArray>
        <DataArray type="Float64" Name="rhov">
          -3.88021758e-05 -3.86214275e-05 -4.29225610e-05 -4.64040320e-05 
        </DataArray>
        <DataArray type="Float64" Name="E">
          2.10027529e+05 2.10525295e+05 2.11016811e+05 2.11502243e+05 
        </DataArray>
      </PointData>
    </Piece>
    <Piece NumberOfPoints="4" NumberOfCells="3">
      <Points>
        <DataArray type="Float64" NumberOfComponents="3" format="ascii">
          6.90585554e-01 3.72543521e-02 0.00000000e+00 
7.00924933e-01 3.62373814e-02 0.00000000e+00 
7.11262703e-01 3.52048986e-02 0.00000000e+00 
7.21598923e-01 3.41568366e-02 0.00000000e+00 

        </DataArray>
      </Points>
      <Cells>
        <DataArray type="Int32" Name="connectivity" format="ascii">
0 1
1 2
2 3

        </DataArray>
        <DataArray type="Int32" Name="offsets" format="ascii">
2 4 6 
        </DataArray>
        <DataArray type="UInt8" Name="types" format="ascii">
3 3 3 
        </DataArray>
      </Cells>
      <PointData>
        <DataArray type="Float64" Name="rho">
          9.30122409e-01 9.32130364e-01 9.34111643e-01 9.36066841e-01 
        </DataArray>
        <DataArray type="Float64" Name="rhou">
          1.67390132e-04 1.62435563e-04 1.57313801e-04 1.44426190e-04 
        </DataArray>
        <DataArray type="Float64" Name="rhov">
          -4.52921315e-05 -4.26267954e-05 -4.57837570e-05 -5.03475609e-05 
        </DataArray>
        <DataArray type="Float64" Name="E">
          2.11502233e+05 2.11981663e+05 2.12454807e+05 2.12921800e+05 
        </DataArray>
      </PointData>
    </Piece>
    <Piece NumberOfPoints="4" NumberOfCells="3">
      <Points>
        <DataArray type="Float64" NumberOfComponents="3" format="ascii">
          7.21598923e-01 3.41568366e-02 0.00000000e+00 
7.31933594e-01 3.30936089e-02 0.00000000e+00 
7.42266715e-01 3.20154354e-02 0.00000000e+00 
7.52598286e-01 3.09220124e-02 0.00000000e+00 

        </DataArray>
      </Points>
      <Cells>
        <DataArray type="Int32" Name="connectivity" format="ascii">
0 1
1 2
2 3

        </DataArray>
        <DataArray type="Int32" Name="offsets" format="ascii">
2 4 6 
        </DataArray>
        <DataArray type="UInt8" Name="types" format="ascii">
3 3 3 
        </DataArray>
      </Cells>
      <PointData>
        <DataArray type="Float64" Name="rho">
          9.36066821e-01 9.37996917e-01 9.39900524e-01 9.41778112e-01 
        </DataArray>
        <DataArray type="Float64" Name="rhou">
          1.41797531e-04 1.37820018e-04 1.35079974e-04 1.24956001e-04 
        </DataArray>
        <DataArray type="Float64" Name="rhov">
          -4.93848045e-05 -4.47385927e-05 -4.68295248e-05 -5.17467428e-05 
        </DataArray>
        <DataArray type="Float64" Name="E">
          2.12921795e+05 2.13382857e+05 2.13837671e+05 2.14286342e+05 
        </DataArray>
      </PointData>
    </Piece>
    <Piece NumberOfPoints="4" NumberOfCells="3">
      <Points>
        <DataArray type="Float64" NumberOfComponents="3" format="ascii">
          7.52598286e-01 3.09220124e-02 0.00000000e+00 
7.62928188e-01 2.98135038e-02 0.00000000e+00 
7.73256481e-01 2.86899786e-02 0.00000000e+00 
7.83583105e-01 2.75512449e-02 0.00000000e+00 

        </DataArray>
      </Points>
      <Cells>
        <DataArray type="Int32" Name="connectivity" format="ascii">
0 1
1 2
2 3

        </DataArray>
        <DataArray type="Int32" Name="offsets" format="ascii">
2 4 6 
        </DataArray>
        <DataArray type="UInt8" Name="types" format="ascii">
3 3 3 
        </DataArray>
      </Cells>
      <PointData>
        <DataArray type="Float64" Name="rho">
          9.41778107e-01 9.43630771e-01 9.45457663e-01 9.47259430e-01 
        </DataArray>
        <DataArray type="Float64" Name="rhou">
          1.22408637e-04 1.18895942e-04 1.15257454e-04 1.06188858e-04 
        </DataArray>
        <DataArray type="Float64" Name="rhov">
          -5.08390281e-05 -4.83659835e-05 -5.03659992e-05 -5.33925785e-05 
        </DataArray>
        <DataArray type="Float64" Name="E">
          2.14286341e+05 2.14729117e+05 2.15165801e+05 2.15596537e+05 
        </DataArray>
      </PointData>
    </Piece>
    <Piece NumberOfPoints="4" NumberOfCells="3">
      <Points>
        <DataArray type="Float64" NumberOfComponents="3" format="ascii">
          7.83583105e-01 2.75512449e-02 0.00000000e+00 
7.93908060e-01 2.63975188e-02 0.00000000e+00 
8.04231405e-01 2.52291560e-02 0.00000000e+00 
8.14553022e-01 2.40457114e-02 0.00000000e+00 

        </DataArray>
      </Points>
      <Cells>
        <DataArray type="Int32" Name="connectivity" format="ascii">
0 1
1 2
2 3

        </DataArray>
        <DataArray type="Int32" Name="offsets" format="ascii">
2 4 6 
        </DataArray>
        <DataArray type="UInt8" Name="types" format="ascii">
3 3 3 
        </DataArray>
      </Cells>
      <PointData>
        <DataArray type="Float64" Name="rho">
          9.47259436e-01 9.49036790e-01 9.50789608e-01 9.52517211e-01 
        </DataArray>
        <DataArray type="Float64" Name="rhou">
          1.08737773e-04 9.85107142e-05 9.77825448e-05 9.90923821e-05 
        </DataArray>
        <DataArray type="Float64" Name="rhov">
          -5.37455975e-05 -4.99178281e-05 -4.85015148e-05 -5.47146275e-05 
        </DataArray>
        <DataArray type="Float64" Name="E">
          2.15596538e+05 2.16021483e+05 2.16440603e+05 2.16853739e+05 
        </DataArray>
      </PointData>
    </Piece>
    <Piece NumberOfPoints="4" NumberOfCells="3">
      <Points>
        <DataArray type="Float64" NumberOfComponents="3" format="ascii">
          8.14553022e-01 2.40457114e-02 0.00000000e+00 
8.24872792e-01 2.28467938e-02 0.00000000e+00 
8.35190892e-01 2.16327831e-02 0.00000000e+00 
8.45507145e-01 2.04038676e-02 0.00000000e+00 

        </DataArray>
      </Points>
      <Cells>
        <DataArray type="Int32" Name="connectivity" format="ascii">
0 1
1 2
2 3

        </DataArray>
        <DataArray type="Int32" Name="offsets" format="ascii">
2 4 6 
        </DataArray>
        <DataArray type="UInt8" Name="types" format="ascii">
3 3 3 
        </DataArray>
      </Cells>
      <PointData>
        <DataArray type="Float64" Name="rho">
          9.52517253e-01 9.54221242e-01 9.55901862e-01 9.57559213e-01 
        </DataArray>
        <DataArray type="Float64" Name="rhou">
          9.32983474e-05 8.56071491e-05 7.92227802e-05 8.03281425e-05 
        </DataArray>
        <DataArray type="Float64" Name="rhov">
          -5.49838487e-05 -5.47317167e-05 -5.18066373e-05 -4.78680030e-05 
        </DataArray>
        <DataArray type="Float64" Name="E">
          2.16853748e+05 2.17261254e+05 2.17663173e+05 2.18059518e+05 
        </DataArray>
      </PointData>
    </Piece>
    <Piece NumberOfPoints="4" NumberOfCells="3">
      <Points>
        <DataArray type="Float64" NumberOfComponents="3" format="ascii">
          8.45507145e-01 2.04038676e-02 0.00000000e+00 
8.55821550e-01 1.91591792e-02 0.00000000e+00 
8.66134048e-01 1.78987328e-02 0.00000000e+00 
8.76444638e-01 1.66228991e-02 0.00000000e+00 

        </DataArray>
      </Points>
      <Cells>
        <DataArray type="Int32" Name="connectivity" format="ascii">
0 1
1 2
2 3

        </DataArray>
        <DataArray type="Int32" Name="offsets" format="ascii">
2 4 6 
        </DataArray>
        <DataArray type="UInt8" Name="types" format="ascii">
3 3 3 
        </DataArray>
      </Cells>
      <PointData>
        <DataArray type="Float64" Name="rho">
          9.57559322e-01 9.59192051e-01 9.60803913e-01 9.62391479e-01 
        </DataArray>
        <DataArray type="Float64" Name="rhou">
          1.01137001e-04 7.09829615e-05 7.01240122e-05 8.64843531e-05 
        </DataArray>
        <DataArray type="Float64" Name="rhov">
          -5.14481876e-05 -5.85995194e-05 -5.59714205e-05 -7.31981389e-05 
        </DataArray>
        <DataArray type="Float64" Name="E">
          2.18059543e+05 2.18449992e+05 2.18835381e+05 2.19214913e+05 
        </DataArray>
      </PointData>
    </Piece>
    <Piece NumberOfPoints="4" NumberOfCells="3">
      <Points>
        <DataArray type="Float64" NumberOfComponents="3" format="ascii">
          8.76444638e-01 1.66228991e-02 0.00000000e+00 
8.86753201e-01 1.53310820e-02 0.00000000e+00 
8.97059798e-01 1.40233757e-02 0.00000000e+00 
9.07364249e-01 1.26988320e-02 0.00000000e+00 

        </DataArray>
      </Points>
      <Cells>
        <DataArray type="Int32" Name="connectivity" format="ascii">
0 1
1 2
2 3

        </DataArray>
        <DataArray type="Int32" Name="offsets" format="ascii">
2 4 6 
        </DataArray>
        <DataArray type="UInt8" Name="types" format="ascii">
3 3 3 
        </DataArray>
      </Cells>
      <PointData>
        <DataArray type="Float64" Name="rho">
          9.62391040e-01 9.63960794e-01 9.65505360e-01 9.67043066e-01 
        </DataArray>
        <DataArray type="Float64" Name="rhou">
          -3.76435194e-06 8.74767335e-05 3.39704695e-05 -1.71866357e-05 
        </DataArray>
        <DataArray type="Float64" Name="rhov">
          -6.54264703e-05 -6.88737325e-05 -8.76650773e-05 8.85480180e-06 
        </DataArray>
        <DataArray type="Float64" Name="E">
          2.19214813e+05 2.19589947e+05 2.19958992e+05 2.20326117e+05 
        </DataArray>
      </PointData>
    </Piece>
    <Piece NumberOfPoints="4" NumberOfCells="3">
      <Points>
        <DataArray type="Float64" NumberOfComponents="3" format="ascii">
          9.07364249e-01 1.26988320e-02 0.00000000e+00 
9.17666554e-01 1.13577880e-02 0.00000000e+00 
9.27966774e-01 1.00004105e-02 0.00000000e+00 
9.38264549e-01 8.62528384e-03 0.00000000e+00 

        </DataArray>
      </Points>
      <Cells>
        <DataArray type="Int32" Name="connectivity" format="ascii">
0 1
1 2
2 3

        </DataArray>
        <DataArray type="Int32" Name="offsets" format="ascii">
2 4 6 
        </DataArray>
        <DataArray type="UInt8" Name="types" format="ascii">
3 3 3 
        </DataArray>
      </Cells>
      <PointData>
        <DataArray type="Float64" Name="rho">
          9.67047831e-01 9.68537108e-01 9.70049473e-01 9.71417522e-01 
        </DataArray>
        <DataArray type="Float64" Name="rhou">
          7.76677690e-04 -2.10642471e-04 3.29729494e-04 7.46633691e-04 
        </DataArray>
        <DataArray type="Float64" Name="rhov">
          -5.92269852e-05 -1.11812097e-04 -4.33674227e-05 -1.43358481e-03 
        </DataArray>
        <DataArray type="Float64" Name="E">
          2.20327201e+05 2.20682946e+05 2.21043645e+05 2.21371236e+05 
        </DataArray>
      </PointData>
    </Piece>
    <Piece NumberOfPoints="4" NumberOfCells="3">
      <Points>
        <DataArray type="Float64" NumberOfComponents="3" format="ascii">
          9.38264549e-01 8.62528384e-03 0.00000000e+00 
9.48560059e-01 7.23283459e-03 0.00000000e+00 
9.58853185e-01 5.82307298e-03 0.00000000e+00 
9.69143867e-01 4.39538015e-03 0.00000000e+00 

        </DataArray>
      </Points>
      <Cells>
        <DataArray type="Int32" Name="connectivity" format="ascii">
0 1
1 2
2 3

        </DataArray>
        <DataArray type="Int32" Name="offsets" format="ascii">
2 4 6 
        </DataArray>
        <DataArray type="UInt8" Name="types" format="ascii">
3 3 3 
        </DataArray>
      </Cells>
      <PointData>
        <DataArray type="Float64" Name="rho">
          9.71370968e-01 9.73052059e-01 9.74328412e-01 9.77021257e-01 
        </DataArray>
        <DataArray type="Float64" Name="rhou">
          -6.55527204e-03 2.09122302e-03 -3.10218023e-03 -1.86404888e-02 
        </DataArray>
        <DataArray type="Float64" Name="rhov">
          -1.06428105e-03 1.26814109e-04 -1.10434053e-03 1.85577726e-02 
        </DataArray>
        <DataArray type="Float64" Name="E">
          2.21360628e+05 2.21759471e+05 2.22066267e+05 2.22696407e+05 
        </DataArray>
      </PointData>
    </Piece>
    <Piece NumberOfPoints="4" NumberOfCells="3">
      <Points>
        <DataArray type="Float64" NumberOfComponents="3" format="ascii">
          9.69143867e-01 4.39538015e-03 0.00000000e+00 
9.79435980e-01 2.94816052e-03 0.00000000e+00 
9.89725590e-01 1.48259092e-03 0.00000000e+00 
1.00000000e+00 0.00000000e+00 0.00000000e+00 

        </DataArray>
      </Points>
      <Cells>
        <DataArray type="Int32" Name="connectivity" format="ascii">
0 1
1 2
2 3

        </DataArray>
        <DataArray type="Int32" Name="offsets" format="ascii">
2 4 6 
        </DataArray>
        <DataArray type="UInt8" Name="types" format="ascii">
3 3 3 
        </DataArray>
      </Cells>
      <PointData>
        <DataArray type="Float64" Name="rho">
          9.77309345e-01 9.76979718e-01 9.80775605e-01 9.71121861e-01 
        </DataArray>
        <DataArray type="Float64" Name="rhou">
          -1.48546001e-03 -9.39822937e-03 -3.68416609e-02 4.86719023e-01 
        </DataArray>
        <DataArray type="Float64" Name="rhov">
          2.06890190e-02 1.06775252e-03 5.13422587e-02 -1.33943823e-01 
        </DataArray>
        <DataArray type="Float64" Name="E">
          2.22762078e+05 2.22704280e+05 2.23588267e+05 2.21408768e+05 
        </DataArray>
      </PointData>
    </Piece>
    <Piece NumberOfPoints="4" NumberOfCells="3">
      <Points>
        <DataArray type="Float64" NumberOfComponents="3" format="ascii">
          9.69029665e-01 -4.41133138e-03 0.00000000e+00 
9.79355037e-01 -2.95961346e-03 0.00000000e+00 
9.89677846e-01 -1.48943183e-03 0.00000000e+00 
1.00000000e+00 0.00000000e+00 0.00000000e+00 

        </DataArray>
      </Points>
      <Cells>
        <DataArray type="Int32" Name="connectivity" format="ascii">
0 1
1 2
2 3

        </DataArray>
        <DataArray type="Int32" Name="offsets" format="ascii">
2 4 6 
        </DataArray>
        <DataArray type="UInt8" Name="types" format="ascii">
3 3 3 
        </DataArray>
      </Cells>
      <PointData>
        <DataArray type="Float64" Name="rho">
          9.76206930e-01 9.75934223e-01 9.79694425e-01 9.71295434e-01 
        </DataArray>
        <DataArray type="Float64" Name="rhou">
          -9.12692548e-04 -7.36557363e-03 -3.49326061e-02 4.48226283e-01 
        </DataArray>
        <DataArray type="Float64" Name="rhov">
          -2.30942672e-02 2.07293781e-03 -4.79162764e-02 1.40326348e-01 
        </DataArray>
        <DataArray type="Float64" Name="E">
          2.22518763e+05 2.22471310e+05 2.23344098e+05 2.21448268e+05 
        </DataArray>
      </PointData>
    </Piece>
    <Piece NumberOfPoints="4" NumberOfCells="3">
      <Points>
        <DataArray type="Float64" NumberOfComponents="3" format="ascii">
          9.38035965e-01 -8.65600072e-03 0.00000000e+00 
9.48369622e-01 -7.25875143e-03 0.00000000e+00 
9.58700895e-01 -5.84406452e-03 0.00000000e+00 
9.69029665e-01 -4.41133138e-03 0.00000000e+00 

        </DataArray>
      </Points>
      <Cells>
        <DataArray type="Int32" Name="connectivity" format="ascii">
0 1
1 2
2 3

        </DataArray>
        <DataArray type="Int32" Name="offsets" format="ascii">
2 4 6 
        </DataArray>
        <DataArray type="UInt8" Name="types" format="ascii">
3 3 3 
        </DataArray>
      </Cells>
      <PointData>
        <DataArray type="Float64" Name="rho">
          9.70426377e-01 9.72065074e-01 9.73312496e-01 9.75922170e-01 
        </DataArray>
        <DataArray type="Float64" Name="rhou">
          -6.18381572e-03 2.25717824e-03 -2.55348788e-03 -1.67625905e-02 
        </DataArray>
        <DataArray type="Float64" Name="rhov">
          1.07122558e-03 -1.70858640e-04 1.31301028e-03 -1.71297267e-02 
        </DataArray>
        <DataArray type="Float64" Name="E">
          2.21158564e+05 2.21546457e+05 2.21844968e+05 2.22453902e+05 
        </DataArray>
      </PointData>
    </Piece>
    <Piece NumberOfPoints="4" NumberOfCells="3">
      <Points>
        <DataArray type="Float64" NumberOfComponents="3" format="ascii">
          9.07021165e-01 -1.27432076e-02 0.00000000e+00 
9.17361677e-01 -1.13977119e-02 0.00000000e+00 
9.27700043e-01 -1.00357840e-02 0.00000000e+00 
9.38035965e-01 -8.65600072e-03 0.00000000e+00 

        </DataArray>
      </Points>
      <Cells>
        <DataArray type="Int32" Name="connectivity" format="ascii">
0 1
1 2
2 3

        </DataArray>
        <DataArray type="Int32" Name="offsets" format="ascii">
2 4 6 
        </DataArray>
        <DataArray type="UInt8" Name="types" format="ascii">
3 3 3 
        </DataArray>
      </Cells>
      <PointData>
        <DataArray type="Float64" Name="rho">
          9.66243633e-01 9.67678701e-01 9.69143384e-01 9.70471886e-01 
        </DataArray>
        <DataArray type="Float64" Name="rhou">
          9.03393183e-04 -6.50156935e-05 4.87065026e-04 8.73804837e-04 
        </DataArray>
        <DataArray type="Float64" Name="rhov">
          4.36680379e-05 7.00232827e-05 -1.39780462e-05 1.35071239e-03 
        </DataArray>
        <DataArray type="Float64" Name="E">
          2.20159588e+05 2.20502265e+05 2.20851310e+05 2.21168927e+05 
        </DataArray>
      </PointData>
    </Piece>
    <Piece NumberOfPoints="4" NumberOfCells="3">
      <Points>
        <DataArray type="Float64" NumberOfComponents="3" format="ascii">
          8.75986874e-01 -1.66798849e-02 0.00000000e+00 
8.86333704e-01 -1.53839625e-02 0.00000000e+00 
8.96678507e-01 -1.40720531e-02 0.00000000e+00 
9.07021165e-01 -1.27432076e-02 0.00000000e+00 

        </DataArray>
      </Points>
      <Cells>
        <DataArray type="Int32" Name="connectivity" format="ascii">
0 1
1 2
2 3

        </DataArray>
        <DataArray type="Int32" Name="offsets" format="ascii">
2 4 6 
        </DataArray>
        <DataArray type="UInt8" Name="types" format="ascii">
3 3 3 
        </DataArray>
      </Cells>
      <PointData>
        <DataArray type="Float64" Name="rho">
          9.61818845e-01 9.63300258e-01 9.64768219e-01 9.66238855e-01 
        </DataArray>
        <DataArray type="Float64" Name="rhou">
          1.50013505e-04 2.28743010e-04 1.83231862e-04 1.33211588e-04 
        </DataArray>
        <DataArray type="Float64" Name="rhov">
          6.16023821e-05 5.32127401e-05 6.79461581e-05 -2.35265503e-05 
        </DataArray>
        <DataArray type="Float64" Name="E">
          2.19102541e+05 2.19456619e+05 2.19807395e+05 2.20158501e+05 
        </DataArray>
      </PointData>
    </Piece>
    <Piece NumberOfPoints="4" NumberOfCells="3">
      <Points>
        <DataArray type="Float64" NumberOfComponents="3" format="ascii">
          8.44934702e-01 -2.04724707e-02 0.00000000e+00 
8.55287313e-01 -1.92240477e-02 0.00000000e+00 
8.65638077e-01 -1.79597028e-02 0.00000000e+00 
8.75986874e-01 -1.66798849e-02 0.00000000e+00 

        </DataArray>
      </Points>
      <Cells>
        <DataArray type="Int32" Name="connectivity" format="ascii">
0 1
1 2
2 3

        </DataArray>
        <DataArray type="Int32" Name="offsets" format="ascii">
2 4 6 
        </DataArray>
        <DataArray type="UInt8" Name="types" format="ascii">
3 3 3 
        </DataArray>
      </Cells>
      <PointData>
        <DataArray type="Float64" Name="rho">
          9.57333096e-01 9.58835595e-01 9.60333375e-01 9.61819256e-01 
        </DataArray>
        <DataArray type="Float64" Name="rhou">
          2.78404344e-04 2.21028307e-04 2.09774159e-04 2.48315344e-04 
        </DataArray>
        <DataArray type="Float64" Name="rhov">
          3.71825458e-05 5.72719513e-05 4.67863080e-05 6.46745089e-05 
        </DataArray>
        <DataArray type="Float64" Name="E">
          2.18029775e+05 2.18389167e+05 2.18747340e+05 2.19102635e+05 
        </DataArray>
      </PointData>
    </Piece>
    <Piece NumberOfPoints="4" NumberOfCells="3">
      <Points>
        <DataArray type="Float64" NumberOfComponents="3" format="ascii">
          8.13865662e-01 -2.41250079e-02 0.00000000e+00 
8.24223816e-01 -2.29226518e-02 0.00000000e+00 
8.34580123e-01 -2.17050612e-02 0.00000000e+00 
8.44934702e-01 -2.04724707e-02 0.00000000e+00 

        </DataArray>
      </Points>
      <Cells>
        <DataArray type="Int32" Name="connectivity" format="ascii">
0 1
1 2
2 3

        </DataArray>
        <DataArray type="Int32" Name="offsets" format="ascii">
2 4 6 
        </DataArray>
        <DataArray type="UInt8" Name="types" format="ascii">
3 3 3 
        </DataArray>
      </Cells>
      <PointData>
        <DataArray type="Float64" Name="rho">
          9.52765282e-01 9.54295178e-01 9.55817966e-01 9.57332870e-01 
        </DataArray>
        <DataArray type="Float64" Name="rhou">
          2.52807556e-04 2.38313964e-04 2.24070801e-04 2.30211309e-04 
        </DataArray>
        <DataArray type="Float64" Name="rhov">
          4.90538603e-05 4.95726789e-05 4.19460641e-05 2.99149554e-05 
        </DataArray>
        <DataArray type="Float64" Name="E">
          2.16937202e+05 2.17303149e+05 2.17667387e+05 2.18029724e+05 
        </DataArray>
      </PointData>
    </Piece>
    <Piece NumberOfPoints="4" NumberOfCells="3">
      <Points>
        <DataArray type="Float64" NumberOfComponents="3" format="ascii">
          7.82780826e-01 -2.76402626e-02 0.00000000e+00 
7.93144107e-01 -2.64833923e-02 0.00000000e+00 
8.03505778e-01 -2.53117718e-02 0.00000000e+00 
8.13865662e-01 -2.41250079e-02 0.00000000e+00 

        </DataArray>
      </Points>
      <Cells>
        <DataArray type="Int32" Name="connectivity" format="ascii">
0 1
1 2
2 3

        </DataArray>
        <DataArray type="Int32" Name="offsets" format="ascii">
2 4 6 
        </DataArray>
        <DataArray type="UInt8" Name="types" format="ascii">
3 3 3 
        </DataArray>
      </Cells>
      <PointData>
        <DataArray type="Float64" Name="rho">
          9.48128581e-01 9.49681845e-01 9.51228327e-01 9.52765175e-01 
        </DataArray>
        <DataArray type="Float64" Name="rhou">
          2.72028754e-04 2.51794884e-04 2.52112944e-04 2.62080322e-04 
        </DataArray>
        <DataArray type="Float64" Name="rhov">
          4.66801340e-05 3.80965170e-05 3.34289953e-05 4.74205249e-05 
        </DataArray>
        <DataArray type="Float64" Name="E">
          2.15828228e+05 2.16199701e+05 2.16569570e+05 2.16937178e+05 
        </DataArray>
      </PointData>
    </Piece>
    <Piece NumberOfPoints="4" NumberOfCells="3">
      <Points>
        <DataArray type="Float64" NumberOfComponents="3" format="ascii">
          7.51680970e-01 -3.10197193e-02 0.00000000e+00 
7.62049198e-01 -2.99084149e-02 0.00000000e+00 
7.72415876e-01 -2.87819952e-02 0.00000000e+00 
7.82780826e-01 -2.76402626e-02 0.00000000e+00 

        </DataArray>
      </Points>
      <Cells>
        <DataArray type="Int32" Name="connectivity" format="ascii">
0 1
1 2
2 3

        </DataArray>
        <DataArray type="Int32" Name="offsets" format="ascii">
2 4 6 
        </DataArray>
        <DataArray type="UInt8" Name="types" format="ascii">
3 3 3 
        </DataArray>
      </Cells>
      <PointData>
        <DataArray type="Float64" Name="rho">
          9.43431832e-01 9.45004083e-01 9.46569583e-01 9.48128544e-01 
        </DataArray>
        <DataArray type="Float64" Name="rhou">
          2.84046888e-04 2.80370686e-04 2.75511146e-04 2.61942339e-04 
        </DataArray>
        <DataArray type="Float64" Name="rhov">
          4.04142672e-05 3.36042748e-05 3.72066773e-05 4.45783542e-05 
        </DataArray>
        <DataArray type="Float64" Name="E">
          2.14705131e+05 2.15081050e+05 2.15455400e+05 2.15828220e+05 
        </DataArray>
      </PointData>
    </Piece>
    <Piece NumberOfPoints="4" NumberOfCells="3">
      <Points>
        <DataArray type="Float64" NumberOfComponents="3" format="ascii">
          7.20566452e-01 -3.42622213e-02 0.00000000e+00 
7.30939507e-01 -3.31965312e-02 0.00000000e+00 
7.41311073e-01 -3.21157984e-02 0.00000000e+00 
7.51680970e-01 -3.10197193e-02 0.00000000e+00 

        </DataArray>
      </Points>
      <Cells>
        <DataArray type="Int32" Name="connectivity" format="ascii">
0 1
1 2
2 3

        </DataArray>
        <DataArray type="Int32" Name="offsets" format="ascii">
2 4 6 
        </DataArray>
        <DataArray type="UInt8" Name="types" format="ascii">
3 3 3 
        </DataArray>
      </Cells>
      <PointData>
        <DataArray type="Float64" Name="rho">
          9.38687154e-01 9.40274030e-01 9.41855798e-01 9.43431824e-01 
        </DataArray>
        <DataArray type="Float64" Name="rhou">
          3.08900915e-04 3.02445732e-04 3.00113820e-04 2.87506306e-04 
        </DataArray>
        <DataArray type="Float64" Name="rhov">
          3.77889540e-05 2.67191237e-05 2.92165605e-05 4.09098135e-05 
        </DataArray>
        <DataArray type="Float64" Name="E">
          2.13570893e+05 2.13950195e+05 2.14328324e+05 2.14705129e+05 
        </DataArray>
      </PointData>
    </Piece>
    <Piece NumberOfPoints="4" NumberOfCells="3">
      <Points>
        <DataArray type="Float64" NumberOfComponents="3" format="ascii">
          6.89437866e-01 -3.73662710e-02 0.00000000e+00 
6.99815631e-01 -3.63472365e-02 0.00000000e+00 
7.10191846e-01 -3.53125818e-02 0.00000000e+00 
7.20566452e-01 -3.42622213e-02 0.00000000e+00 

        </DataArray>
      </Points>
      <Cells>
        <DataArray type="Int32" Name="connectivity" format="ascii">
0 1
1 2
2 3

        </DataArray>
        <DataArray type="Int32" Name="offsets" format="ascii">
2 4 6 
        </DataArray>
        <DataArray type="UInt8" Name="types" format="ascii">
3 3 3 
        </DataArray>
      </Cells>
      <PointData>
        <DataArray type="Float64" Name="rho">
          9.33914130e-01 9.35507827e-01 9.37098962e-01 9.38687165e-01 
        </DataArray>
        <DataArray type="Float64" Name="rhou">
          3.41211405e-04 3.34237540e-04 3.27666713e-04 3.10163074e-04 
        </DataArray>
        <DataArray type="Float64" Name="rhov">
          3.06322881e-05 2.31838952e-05 2.76114451e-05 3.80535549e-05 
        </DataArray>
        <DataArray type="Float64" Name="E">
          2.12430196e+05 2.12811025e+05 2.13191289e+05 2.13570895e+05 
        </DataArray>
      </PointData>
    </Piece>
    <Piece NumberOfPoints="4" NumberOfCells="3">
      <Points>
        <DataArray type="Float64" NumberOfComponents="3" format="ascii">
          6.58295333e-01 -4.03269380e-02 0.00000000e+00 
6.68677747e-01 -3.93563360e-02 0.00000000e+00 
6.79058611e-01 -3.83694395e-02 0.00000000e+00 
6.89437866e-01 -3.73662710e-02 0.00000000e+00 

        </DataArray>
      </Points>
      <Cells>
        <DataArray type="Int32" Name="connectivity" format="ascii">
0 1
1 2
2 3

        </DataArray>
        <DataArray type="Int32" Name="offsets" format="ascii">
2 4 6 
        </DataArray>
        <DataArray type="UInt8" Name="types" format="ascii">
3 3 3 
        </DataArray>
      </Cells>
      <PointData>
        <DataArray type="Float64" Name="rho">
          9.29137460e-01 9.30729171e-01 9.32321403e-01 9.33914184e-01 
        </DataArray>
        <DataArray type="Float64" Name="rhou">
          3.77677873e-04 3.72263874e-04 3.59899431e-04 3.39566818e-04 
        </DataArray>
        <DataArray type="Float64" Name="rhov">
          2.02797789e-05 1.70533825e-05 2.35074167e-05 3.13933995e-05 
        </DataArray>
        <DataArray type="Float64" Name="E">
          2.11288937e+05 2.11669191e+05 2.12049616e+05 2.12430208e+05 
        </DataArray>
      </PointData>
    </Piece>
    <Piece NumberOfPoints="4" NumberOfCells="3">
      <Points>
        <DataArray type="Float64" NumberOfComponents="3" format="ascii">
          6.27138972e-01 -4.31386717e-02 0.00000000e+00 
6.37525976e-01 -4.22184542e-02 0.00000000e+00 
6.47911429e-01 -4.12811004e-02 0.00000000e+00 
6.58295333e-01 -4.03269380e-02 0.00000000e+00 

        </DataArray>
      </Points>
      <Cells>
        <DataArray type="Int32" Name="connectivity" format="ascii">
0 1
1 2
2 3

        </DataArray>
        <DataArray type="Int32" Name="offsets" format="ascii">
2 4 6 
        </DataArray>
        <DataArray type="UInt8" Name="types" format="ascii">
3 3 3 
        </DataArray>
      </Cells>
      <PointData>
        <DataArray type="Float64" Name="rho">
          9.24389178e-01 9.25966276e-01 9.27549645e-01 9.29137493e-01 
        </DataArray>
        <DataArray type="Float64" Name="rhou">
          4.28736131e-04 4.10173672e-04 3.93221642e-04 3.78832960e-04 
        </DataArray>
        <DataArray type="Float64" Name="rhov">
          1.74137505e-05 1.61694755e-05 1.73656260e-05 2.11448526e-05 
        </DataArray>
        <DataArray type="Float64" Name="E">
          2.10154733e+05 2.10531422e+05 2.10909634e+05 2.11288945e+05 
        </DataArray>
      </PointData>
    </Piece>
    <Piece NumberOfPoints="4" NumberOfCells="3">
      <Points>
        <DataArray type="Float64" NumberOfComponents="3" format="ascii">
          5.95968783e-01 -4.57924642e-02 0.00000000e+00 
6.06360376e-01 -4.49259281e-02 0.00000000e+00 
6.16750479e-01 -4.40412909e-02 0.00000000e+00 
6.27138972e-01 -4.31386717e-02 0.00000000e+00 

        </DataArray>
      </Points>
      <Cells>
        <DataArray type="Int32" Name="connectivity" format="ascii">
0 1
1 2
2 3

        </DataArray>
        <DataArray type="Int32" Name="offsets" format="ascii">
2 4 6 
        </DataArray>
        <DataArray type="UInt8" Name="types" format="ascii">
3 3 3 
        </DataArray>
      </Cells>
      <PointData>
        <DataArray type="Float64" Name="rho">
          9.19714162e-01 9.21262200e-01 9.22820944e-01 9.24389171e-01 
        </DataArray>
        <DataArray type="Float64" Name="rhou">
          4.73485429e-04 4.61500442e-04 4.44458848e-04 4.22507668e-04 
        </DataArray>
        <DataArray type="Float64" Name="rhov">
          6.00607398e-06 2.71127196e-06 8.96919484e-06 1.81903605e-05 
        </DataArray>
        <DataArray type="Float64" Name="E">
          2.09038220e+05 2.09407904e+05 2.09780173e+05 2.10154731e+05 
        </DataArray>
      </PointData>
    </Piece>
    <Piece NumberOfPoints="4" NumberOfCells="3">
      <Points>
        <DataArray type="Float64" NumberOfComponents="3" format="ascii">
          5.64784765e-01 -4.82786149e-02 0.00000000e+00 
5.75181007e-01 -4.74695377e-02 0.00000000e+00 
5.85575700e-01 -4.66405638e-02 0.00000000e+00 
5.95968783e-01 -4.57924642e-02 0.00000000e+00 

        </DataArray>
      </Points>
      <Cells>
        <DataArray type="Int32" Name="connectivity" format="ascii">
0 1
1 2
2 3

        </DataArray>
        <DataArray type="Int32" Name="offsets" format="ascii">
2 4 6 
        </DataArray>
        <DataArray type="UInt8" Name="types" format="ascii">
3 3 3 
        </DataArray>
      </Cells>
      <PointData>
        <DataArray type="Float64" Name="rho">
          9.15171852e-01 9.16666224e-01 9.18180974e-01 9.19714275e-01 
        </DataArray>
        <DataArray type="Float64" Name="rhou">
          5.49950224e-04 5.23727808e-04 4.91008378e-04 4.67526933e-04 
        </DataArray>
        <DataArray type="Float64" Name="rhov">
          -4.97035729e-06 6.15080487e-06 1.06651955e-05 6.88160853e-06 
        </DataArray>
        <DataArray type="Float64" Name="E">
          2.07953446e+05 2.08310335e+05 2.08672083e+05 2.09038246e+05 
        </DataArray>
      </PointData>
    </Piece>
    <Piece NumberOfPoints="4" NumberOfCells="3">
      <Points>
        <DataArray type="Float64" NumberOfComponents="3" format="ascii">
          5.33586800e-01 -5.05827516e-02 0.00000000e+00 
5.43987691e-01 -4.98356484e-02 0.00000000e+00 
5.54387033e-01 -4.90674041e-02 0.00000000e+00 
5.64784765e-01 -4.82786149e-02 0.00000000e+00 

        </DataArray>
      </Points>
      <Cells>
        <DataArray type="Int32" Name="connectivity" format="ascii">
0 1
1 2
2 3

        </DataArray>
        <DataArray type="Int32" Name="offsets" format="ascii">
2 4 6 
        </DataArray>
        <DataArray type="UInt8" Name="types" format="ascii">
3 3 3 
        </DataArray>
      </Cells>
      <PointData>
        <DataArray type="Float64" Name="rho">
          9.10834926e-01 9.12251771e-01 9.13699207e-01 9.15171812e-01 
        </DataArray>
        <DataArray type="Float64" Name="rhou">
          6.24679300e-04 5.84982658e-04 5.56287442e-04 5.44527000e-04 
        </DataArray>
        <DataArray type="Float64" Name="rhov">
          -3.33913185e-06 -3.55272622e-06 -6.86464265e-06 -4.67034125e-06 
        </DataArray>
        <DataArray type="Float64" Name="E">
          2.06917633e+05 2.07256058e+05 2.07601747e+05 2.07953436e+05 
        </DataArray>
      </PointData>
    </Piece>
    <Piece NumberOfPoints="4" NumberOfCells="3">
      <Points>
        <DataArray type="Float64" NumberOfComponents="3" format="ascii">
          5.02374947e-01 -5.26902266e-02 0.00000000e+00 
5.12780428e-01 -5.20105064e-02 0.00000000e+00 
5.23184419e-01 -5.13078682e-02 0.00000000e+00 
5.33586800e-01 -5.05827516e-02 0.00000000e+00 

        </DataArray>
      </Points>
      <Cells>
        <DataArray type="Int32" Name="connectivity" format="ascii">
0 1
1 2
2 3

        </DataArray>
        <DataArray type="Int32" Name="offsets" format="ascii">
2 4 6 
        </DataArray>
        <DataArray type="UInt8" Name="types" format="ascii">
3 3 3 
        </DataArray>
      </Cells>
      <PointData>
        <DataArray type="Float64" Name="rho">
          9.06802242e-01 9.08106428e-01 9.09452641e-01 9.10834830e-01 
        </DataArray>
        <DataArray type="Float64" Name="rhou">
          7.06823602e-04 6.70447418e-04 6.42811339e-04 6.22120475e-04 
        </DataArray>
        <DataArray type="Float64" Name="rhov">
          -1.21565138e-05 -1.87499952e-05 -1.75099347e-05 -3.86510357e-06 
        </DataArray>
        <DataArray type="Float64" Name="E">
          2.05954103e+05 2.06265769e+05 2.06587409e+05 2.06917611e+05 
        </DataArray>
      </PointData>
    </Piece>
    <Piece NumberOfPoints="4" NumberOfCells="3">
      <Points>
        <DataArray type="Float64" NumberOfComponents="3" format="ascii">
          4.71149325e-01 -5.45825884e-02 0.00000000e+00 
4.81559396e-01 -5.39771840e-02 0.00000000e+00 
4.91967946e-01 -5.33461571e-02 0.00000000e+00 
5.02374947e-01 -5.26902266e-02 0.00000000e+00 

        </DataArray>
      </Points>
      <Cells>
        <DataArray type="Int32" Name="connectivity" format="ascii">
0 1
1 2
2 3

        </DataArray>
        <DataArray type="Int32" Name="offsets" format="ascii">
2 4 6 
        </DataArray>
        <DataArray type="UInt8" Name="types" format="ascii">
3 3 3 
        </DataArray>
      </Cells>
      <PointData>
        <DataArray type="Float64" Name="rho">
          9.03203428e-01 9.04347036e-01 9.05547020e-01 9.06802331e-01 
        </DataArray>
        <DataArray type="Float64" Name="rhou">
          8.14459975e-04 7.91448784e-04 7.44477047e-04 6.87246232e-04 
        </DataArray>
        <DataArray type="Float64" Name="rhov">
          -3.61310695e-05 -3.00463246e-05 -1.29890965e-05 -9.42335369e-06 
        </DataArray>
        <DataArray type="Float64" Name="E">
          2.05093434e+05 2.05367040e+05 2.05654033e+05 2.05954124e+05 
        </DataArray>
      </PointData>
    </Piece>
    <Piece NumberOfPoints="4" NumberOfCells="3">
      <Points>
        <DataArray type="Float64" NumberOfComponents="3" format="ascii">
          4.39910263e-01 -5.62384278e-02 0.00000000e+00 
4.50324744e-01 -5.57143167e-02 0.00000000e+00 
4.60737765e-01 -5.51619194e-02 0.00000000e+00 
4.71149325e-01 -5.45825884e-02 0.00000000e+00 

        </DataArray>
      </Points>
      <Cells>
        <DataArray type="Int32" Name="connectivity" format="ascii">
0 1
1 2
2 3

        </DataArray>
        <DataArray type="Int32" Name="offsets" format="ascii">
2 4 6 
        </DataArray>
        <DataArray type="UInt8" Name="types" format="ascii">
3 3 3 
        </DataArray>
      </Cells>
      <PointData>
        <DataArray type="Float64" Name="rho">
          9.00195361e-01 9.01118101e-01 9.02124306e-01 9.03203503e-01 
        </DataArray>
        <DataArray type="Float64" Name="rhou">
          9.83900512e-04 9.06369465e-04 8.47691486e-04 8.19940752e-04 
        </DataArray>
        <DataArray type="Float64" Name="rhov">
          -2.83751395e-05 -1.94571726e-05 -2.61708641e-05 -3.36664029e-05 
        </DataArray>
        <DataArray type="Float64" Name="E">
          2.04372688e+05 2.04594031e+05 2.04835104e+05 2.05093450e+05 
        </DataArray>
      </PointData>
    </Piece>
    <Piece NumberOfPoints="4" NumberOfCells="3">
      <Points>
        <DataArray type="Float64" NumberOfComponents="3" format="ascii">
          4.08658355e-01 -5.76302819e-02 0.00000000e+00 
4.19077009e-01 -5.71971126e-02 0.00000000e+00 
4.29494321e-01 -5.67329265e-02 0.00000000e+00 
4.39910263e-01 -5.62384278e-02 0.00000000e+00 

        </DataArray>
      </Points>
      <Cells>
        <DataArray type="Int32" Name="connectivity" format="ascii">
0 1
1 2
2 3

        </DataArray>
        <DataArray type="Int32" Name="offsets" format="ascii">
2 4 6 
        </DataArray>
        <DataArray type="UInt8" Name="types" format="ascii">
3 3 3 
        </DataArray>
      </Cells>
      <PointData>
        <DataArray type="Float64" Name="rho">
          8.97985699e-01 8.98621063e-01 8.99361417e-01 9.00195130e-01 
        </DataArray>
        <DataArray type="Float64" Name="rhou">
          1.14064797e-03 1.07058058e-03 1.01861446e-03 9.78583634e-04 
        </DataArray>
        <DataArray type="Float64" Name="rhov">
          -3.63593624e-05 -4.89266505e-05 -4.82671574e-05 -2.82781757e-05 
        </DataArray>
        <DataArray type="Float64" Name="E">
          2.03840915e+05 2.03994214e+05 2.04172361e+05 2.04372635e+05 
        </DataArray>
      </PointData>
    </Piece>
    <Piece NumberOfPoints="4" NumberOfCells="3">
      <Points>
        <DataArray type="Float64" NumberOfComponents="3" format="ascii">
          3.77394795e-01 -5.87291755e-02 0.00000000e+00 
3.87817174e-01 -5.83979115e-02 0.00000000e+00 
3.98238391e-01 -5.80311492e-02 0.00000000e+00 
4.08658355e-01 -5.76302819e-02 0.00000000e+00 

        </DataArray>
      </Points>
      <Cells>
        <DataArray type="Int32" Name="connectivity" format="ascii">
0 1
1 2
2 3

        </DataArray>
        <DataArray type="Int32" Name="offsets" format="ascii">
2 4 6 
        </DataArray>
        <DataArray type="UInt8" Name="types" format="ascii">
3 3 3 
        </DataArray>
      </Cells>
      <PointData>
        <DataArray type="Float64" Name="rho">
          8.96835884e-01 8.97084132e-01 8.97468455e-01 8.97985911e-01 
        </DataArray>
        <DataArray type="Float64" Name="rhou">
          1.39122911e-03 1.31709933e-03 1.21507133e-03 1.10948998e-03 
        </DataArray>
        <DataArray type="Float64" Name="rhov">
          -7.95014033e-05 -5.17710541e-05 -2.41081256e-05 -3.15175203e-05 
        </DataArray>
        <DataArray type="Float64" Name="E">
          2.03559812e+05 2.03621558e+05 2.03715535e+05 2.03840964e+05 
        </DataArray>
      </PointData>
    </Piece>
    <Piece NumberOfPoints="4" NumberOfCells="3">
      <Points>
        <DataArray type="Float64" NumberOfComponents="3" format="ascii">
          3.46121490e-01 -5.95011823e-02 0.00000000e+00 
3.56546819e-01 -5.92821389e-02 0.00000000e+00 
3.66971314e-01 -5.90242445e-02 0.00000000e+00 
3.77394795e-01 -5.87291755e-02 0.00000000e+00 

        </DataArray>
      </Points>
      <Cells>
        <DataArray type="Int32" Name="connectivity" format="ascii">
0 1
1 2
2 3

        </DataArray>
        <DataArray type="Int32" Name="offsets" format="ascii">
2 4 6 
        </DataArray>
        <DataArray type="UInt8" Name="types" format="ascii">
3 3 3 
        </DataArray>
      </Cells>
      <PointData>
        <DataArray type="Float64" Name="rho">
          8.97034781e-01 8.96793865e-01 8.96733311e-01 8.96835975e-01 
        </DataArray>
        <DataArray type="Float64" Name="rhou">
          1.73555941e-03 1.59068244e-03 1.46132694e-03 1.39467242e-03 
        </DataArray>
        <DataArray type="Float64" Name="rhov">
          -1.14257620e-04 -7.23426791e-05 -6.50292200e-05 -7.49080589e-05 
        </DataArray>
        <DataArray type="Float64" Name="E">
          2.03597870e+05 2.03543894e+05 2.03532561e+05 2.03559831e+05 
        </DataArray>
      </PointData>
    </Piece>
    <Piece NumberOfPoints="4" NumberOfCells="3">
      <Points>
        <DataArray type="Float64" NumberOfComponents="3" format="ascii">
          3.14841360e-01 -5.99102043e-02 0.00000000e+00 
3.25268596e-01 -5.98174632e-02 0.00000000e+00 
3.35695356e-01 -5.96801341e-02 0.00000000e+00 
3.46121490e-01 -5.95011823e-02 0.00000000e+00 

        </DataArray>
      </Points>
      <Cells>
        <DataArray type="Int32" Name="connectivity" format="ascii">
0 1
1 2
2 3

        </DataArray>
        <DataArray type="Int32" Name="offsets" format="ascii">
2 4 6 
        </DataArray>
        <DataArray type="UInt8" Name="types" format="ascii">
3 3 3 
        </DataArray>
      </Cells>
      <PointData>
        <DataArray type="Float64" Name="rho">
          8.98984421e-01 8.98100452e-01 8.97459783e-01 8.97034491e-01 
        </DataArray>
        <DataArray type="Float64" Name="rhou">
          2.18717328e-03 1.94230091e-03 1.77688201e-03 1.69997713e-03 
        </DataArray>
        <DataArray type="Float64" Name="rhov">
          -5.15874196e-05 -2.81358150e-05 -6.02900259e-05 -1.13509174e-04 
        </DataArray>
        <DataArray type="Float64" Name="E">
          2.04050200e+05 2.03844084e+05 2.03695479e+05 2.03597803e+05 
        </DataArray>
      </PointData>
    </Piece>
    <Piece NumberOfPoints="4" NumberOfCells="3">
      <Points>
        <DataArray type="Float64" NumberOfComponents="3" format="ascii">
          2.83558637e-01 -5.98983802e-02 0.00000000e+00 
2.93986142e-01 -5.99516556e-02 0.00000000e+00 
3.04413795e-01 -5.99554181e-02 0.00000000e+00 
3.14841360e-01 -5.99102043e-02 0.00000000e+00 

        </DataArray>
      </Points>
      <Cells>
        <DataArray type="Int32" Name="connectivity" format="ascii">
0 1
1 2
2 3

        </DataArray>
        <DataArray type="Int32" Name="offsets" format="ascii">
2 4 6 
        </DataArray>
        <DataArray type="UInt8" Name="types" format="ascii">
3 3 3 
        </DataArray>
      </Cells>
      <PointData>
        <DataArray type="Float64" Name="rho">
          9.03196511e-01 9.01522695e-01 9.00124193e-01 8.98983709e-01 
        </DataArray>
        <DataArray type="Float64" Name="rhou">
          2.66598777e-03 2.50063582e-03 2.36261561e-03 2.17817211e-03 
        </DataArray>
        <DataArray type="Float64" Name="rhov">
          -1.09320275e-04 -1.76083631e-04 -1.40130615e-04 -4.49795711e-05 
        </DataArray>
        <DataArray type="Float64" Name="E">
          2.05038552e+05 2.04645037e+05 2.04316901e+05 2.04050037e+05 
        </DataArray>
      </PointData>
    </Piece>
    <Piece NumberOfPoints="4" NumberOfCells="3">
      <Points>
        <DataArray type="Float64" NumberOfComponents="3" format="ascii">
          2.52279758e-01 -5.94130717e-02 0.00000000e+00 
2.62705088e-01 -5.96327744e-02 0.00000000e+00 
2.73131490e-01 -5.97934239e-02 0.00000000e+00 
2.83558637e-01 -5.98983802e-02 0.00000000e+00 

        </DataArray>
      </Points>
      <Cells>
        <DataArray type="Int32" Name="connectivity" format="ascii">
0 1
1 2
2 3

        </DataArray>
        <DataArray type="Int32" Name="offsets" format="ascii">
2 4 6 
        </DataArray>
        <DataArray type="UInt8" Name="types" format="ascii">
3 3 3 
        </DataArray>
      </Cells>
      <PointData>
        <DataArray type="Float64" Name="rho">
          9.10287950e-01 9.07556222e-01 9.05195419e-01 9.03197433e-01 
        </DataArray>
        <DataArray type="Float64" Name="rhou">
          3.63981863e-03 3.33421379e-03 2.99825522e-03 2.65225085e-03 
        </DataArray>
        <DataArray type="Float64" Name="rhov">
          -2.58731313e-04 -1.66200955e-04 -7.86547688e-05 -9.01243813e-05 
        </DataArray>
        <DataArray type="Float64" Name="E">
          2.06709509e+05 2.06065179e+05 2.05509003e+05 2.05038764e+05 
        </DataArray>
      </PointData>
    </Piece>
    <Piece NumberOfPoints="4" NumberOfCells="3">
      <Points>
        <DataArray type="Float64" NumberOfComponents="3" format="ascii">
          2.21014455e-01 -5.83752058e-02 0.00000000e+00 
2.31433928e-01 -5.87876961e-02 0.00000000e+00 
2.41855890e-01 -5.91322705e-02 0.00000000e+00 
2.52279758e-01 -5.94130717e-02 0.00000000e+00 

        </DataArray>
      </Points>
      <Cells>
        <DataArray type="Int32" Name="connectivity" format="ascii">
0 1
1 2
2 3

        </DataArray>
        <DataArray type="Int32" Name="offsets" format="ascii">
2 4 6 
        </DataArray>
        <DataArray type="UInt8" Name="types" format="ascii">
3 3 3 
        </DataArray>
      </Cells>
      <PointData>
        <DataArray type="Float64" Name="rho">
          9.21038742e-01 9.16981238e-01 9.13413372e-01 9.10288132e-01 
        </DataArray>
        <DataArray type="Float64" Name="rhou">
          4.99384628e-03 4.40825608e-03 3.96165976e-03 3.67404874e-03 
        </DataArray>
        <DataArray type="Float64" Name="rhov">
          -3.65968475e-04 -2.61365498e-04 -2.28692775e-04 -2.42339215e-04 
        </DataArray>
        <DataArray type="Float64" Name="E">
          2.09249979e+05 2.08290523e+05 2.07447451e+05 2.06709546e+05 
        </DataArray>
      </PointData>
    </Piece>
    <Piece NumberOfPoints="4" NumberOfCells="3">
      <Points>
        <DataArray type="Float64" NumberOfComponents="3" format="ascii">
          1.89777538e-01 -5.66898957e-02 0.00000000e+00 
2.00185493e-01 -5.73302582e-02 0.00000000e+00 
2.10598081e-01 -5.78906052e-02 0.00000000e+00 
2.21014455e-01 -5.83752058e-02 0.00000000e+00 

        </DataArray>
      </Points>
      <Cells>
        <DataArray type="Int32" Name="connectivity" format="ascii">
0 1
1 2
2 3

        </DataArray>
        <DataArray type="Int32" Name="offsets" format="ascii">
2 4 6 
        </DataArray>
        <DataArray type="UInt8" Name="types" format="ascii">
3 3 3 
        </DataArray>
      </Cells>
      <PointData>
        <DataArray type="Float64" Name="rho">
          9.36534273e-01 9.30764635e-01 9.25619333e-01 9.21037981e-01 
        </DataArray>
        <DataArray type="Float64" Name="rhou">
          6.91684324e-03 6.11580471e-03 5.52997870e-03 5.05637255e-03 
        </DataArray>
        <DataArray type="Float64" Name="rhov">
          -6.48980398e-04 -5.77677924e-04 -4.77475176e-04 -3.53237549e-04 
        </DataArray>
        <DataArray type="Float64" Name="E">
          2.12920062e+05 2.11552579e+05 2.10333973e+05 2.09249805e+05 
        </DataArray>
      </PointData>
    </Piece>
    <Piece NumberOfPoints="4" NumberOfCells="3">
      <Points>
        <DataArray type="Float64" NumberOfComponents="3" format="ascii">
          1.58592433e-01 -5.42296544e-02 0.00000000e+00 
1.68979734e-01 -5.51457107e-02 0.00000000e+00 
1.79375216e-01 -5.59638515e-02 0.00000000e+00 
1.89777538e-01 -5.66898957e-02 0.00000000e+00 

        </DataArray>
      </Points>
      <Cells>
        <DataArray type="Int32" Name="connectivity" format="ascii">
0 1
1 2
2 3

        </DataArray>
        <DataArray type="Int32" Name="offsets" format="ascii">
2 4 6 
        </DataArray>
        <DataArray type="UInt8" Name="types" format="ascii">
3 3 3 
        </DataArray>
      </Cells>
      <PointData>
        <DataArray type="Float64" Name="rho">
          9.58339723e-01 9.50262173e-01 9.43010628e-01 9.36534691e-01 
        </DataArray>
        <DataArray type="Float64" Name="rhou">
          9.97613946e-03 8.90141639e-03 7.95132731e-03 6.98814346e-03 
        </DataArray>
        <DataArray type="Float64" Name="rhov">
          -1.40353853e-03 -1.21100773e-03 -8.79050062e-04 -6.08463191e-04 
        </DataArray>
        <DataArray type="Float64" Name="E">
          2.18095865e+05 2.16177059e+05 2.14456005e+05 2.12920162e+05 
        </DataArray>
      </PointData>
    </Piece>
    <Piece NumberOfPoints="4" NumberOfCells="3">
      <Points>
        <DataArray type="Float64" NumberOfComponents="3" format="ascii">
          1.27497971e-01 -5.08146733e-02 0.00000000e+00 
1.37849152e-01 -5.20747155e-02 0.00000000e+00 
1.48214847e-01 -5.32093942e-02 0.00000000e+00 
1.58592433e-01 -5.42296544e-02 0.00000000e+00 

        </DataArray>
      </Points>
      <Cells>
        <DataArray type="Int32" Name="connectivity" format="ascii">
0 1
1 2
2 3

        </DataArray>
        <DataArray type="Int32" Name="offsets" format="ascii">
2 4 6 
        </DataArray>
        <DataArray type="UInt8" Name="types" format="ascii">
3 3 3 
        </DataArray>
      </Cells>
      <PointData>
        <DataArray type="Float64" Name="rho">
          9.88881923e-01 9.77518630e-01 9.67358727e-01 9.58343773e-01 
        </DataArray>
        <DataArray type="Float64" Name="rhou">
          1.45075318e-02 1.33295423e-02 1.15243289e-02 1.00046552e-02 
        </DataArray>
        <DataArray type="Float64" Name="rhov">
          -2.28232220e-03 -2.03380382e-03 -1.41739887e-03 -1.33160491e-03 
        </DataArray>
        <DataArray type="Float64" Name="E">
          2.25362607e+05 2.22656673e+05 2.20239916e+05 2.18096794e+05 
        </DataArray>
      </PointData>
    </Piece>
    <Piece NumberOfPoints="4" NumberOfCells="3">
      <Points>
        <DataArray type="Float64" NumberOfComponents="3" format="ascii">
          9.65642184e-02 -4.61716652e-02 0.00000000e+00 
1.06852271e-01 -4.78802323e-02 0.00000000e+00 
1.17164567e-01 -4.94215861e-02 0.00000000e+00 
1.27497971e-01 -5.08146733e-02 0.00000000e+00 

        </DataArray>
      </Points>
      <Cells>
        <DataArray type="Int32" Name="connectivity" format="ascii">
0 1
1 2
2 3

        </DataArray>
        <DataArray type="Int32" Name="offsets" format="ascii">
2 4 6 
        </DataArray>
        <DataArray type="UInt8" Name="types" format="ascii">
3 3 3 
        </DataArray>
      </Cells>
      <PointData>
        <DataArray type="Float64" Name="rho">
          1.03227610e+00 1.01597198e+00 1.00153639e+00 9.88890274e-01 
        </DataArray>
        <DataArray type="Float64" Name="rhou">
          2.46819720e-02 1.80951669e-02 1.71822051e-02 1.28630801e-02 
        </DataArray>
        <DataArray type="Float64" Name="rhov">
          -9.30243903e-04 -7.36389787e-04 -1.55970772e-03 -1.60255840e-03 
        </DataArray>
        <DataArray type="Float64" Name="E">
          2.35720848e+05 2.31824493e+05 2.28379728e+05 2.25364620e+05 
        </DataArray>
      </PointData>
    </Piece>
  </UnstructuredGrid>
</VTKFile>
