<?xml version="1.0"?>
<VTKFile type="UnstructuredGrid" version="0.1" byte_order="LittleEndian">
  <UnstructuredGrid>
    <Piece NumberOfPoints="4" NumberOfCells="3">
      <Points>
        <DataArray type="Float64" NumberOfComponents="3" format="ascii">
          9.65642184e-02 -4.61716652e-02 0.00000000e+00 
9.26280916e-02 -4.54656407e-02 0.00000000e+00 
8.86965096e-02 -4.47326750e-02 0.00000000e+00 
8.47706869e-02 -4.39694971e-02 0.00000000e+00 

        </DataArray>
      </Points>
      <Cells>
        <DataArray type="Int32" Name="connectivity" format="ascii">
0 1
1 2
2 3

        </DataArray>
        <DataArray type="Int32" Name="offsets" format="ascii">
2 4 6 
        </DataArray>
        <DataArray type="UInt8" Name="types" format="ascii">
3 3 3 
        </DataArray>
      </Cells>
      <PointData>
        <DataArray type="Float64" Name="rho">
          1.22500000e+00 1.22500000e+00 1.22500000e+00 1.22500000e+00 
        </DataArray>
        <DataArray type="Float64" Name="rhou">
          3.33408750e+02 3.33408750e+02 3.33408750e+02 3.33408750e+02 
        </DataArray>
        <DataArray type="Float64" Name="rhov">
          7.27500480e+00 7.27500480e+00 7.27500480e+00 7.27500480e+00 
        </DataArray>
        <DataArray type="Float64" Name="E">
          2.98706100e+05 2.98706100e+05 2.98706100e+05 2.98706100e+05 
        </DataArray>
      </PointData>
    </Piece>
    <Piece NumberOfPoints="4" NumberOfCells="3">
      <Points>
        <DataArray type="Float64" NumberOfComponents="3" format="ascii">
          8.47706869e-02 -4.39694971e-02 0.00000000e+00 
8.08513016e-02 -4.31745499e-02 0.00000000e+00 
7.69388378e-02 -4.23462167e-02 0.00000000e+00 
7.30340332e-02 -4.14824970e-02 0.00000000e+00 

        </DataArray>
      </Points>
      <Cells>
        <DataArray type="Int32" Name="connectivity" format="ascii">
0 1
1 2
2 3

        </DataArray>
        <DataArray type="Int32" Name="offsets" format="ascii">
2 4 6 
        </DataArray>
        <DataArray type="UInt8" Name="types" format="ascii">
3 3 3 
        </DataArray>
      </Cells>
      <PointData>
        <DataArray type="Float64" Name="rho">
          1.22500000e+00 1.22500000e+00 1.22500000e+00 1.22500000e+00 
        </DataArray>
        <DataArray type="Float64" Name="rhou">
          3.33408750e+02 3.33408750e+02 3.33408750e+02 3.33408750e+02 
        </DataArray>
        <DataArray type="Float64" Name="rhov">
          7.27500480e+00 7.27500480e+00 7.27500480e+00 7.27500480e+00 
        </DataArray>
        <DataArray type="Float64" Name="E">
          2.98706100e+05 2.98706100e+05 2.98706100e+05 2.98706100e+05 
        </DataArray>
      </PointData>
    </Piece>
    <Piece NumberOfPoints="4" NumberOfCells="3">
      <Points>
        <DataArray type="Float64" NumberOfComponents="3" format="ascii">
          7.30340332e-02 -4.14824970e-02 0.00000000e+00 
6.91377968e-02 -4.05809283e-02 0.00000000e+00 
6.52511865e-02 -3.96387354e-02 0.00000000e+00 
6.13753870e-02 -3.86530459e-02 0.00000000e+00 

        </DataArray>
      </Points>
      <Cells>
        <DataArray type="Int32" Name="connectivity" format="ascii">
0 1
1 2
2 3

        </DataArray>
        <DataArray type="Int32" Name="offsets" format="ascii">
2 4 6 
        </DataArray>
        <DataArray type="UInt8" Name="types" format="ascii">
3 3 3 
        </DataArray>
      </Cells>
      <PointData>
        <DataArray type="Float64" Name="rho">
          1.22500000e+00 1.22500000e+00 1.22500000e+00 1.22500000e+00 
        </DataArray>
        <DataArray type="Float64" Name="rhou">
          3.33408750e+02 3.33408750e+02 3.33408750e+02 3.33408750e+02 
        </DataArray>
        <DataArray type="Float64" Name="rhov">
          7.27500480e+00 7.27500480e+00 7.27500480e+00 7.27500480e+00 
        </DataArray>
        <DataArray type="Float64" Name="E">
          2.98706100e+05 2.98706100e+05 2.98706100e+05 2.98706100e+05 
        </DataArray>
      </PointData>
    </Piece>
    <Piece NumberOfPoints="4" NumberOfCells="3">
      <Points>
        <DataArray type="Float64" NumberOfComponents="3" format="ascii">
          6.13753870e-02 -3.86530459e-02 0.00000000e+00 
5.75117208e-02 -3.76208089e-02 0.00000000e+00 
5.36618084e-02 -3.65384258e-02 0.00000000e+00 
4.98276278e-02 -3.54015976e-02 0.00000000e+00 

        </DataArray>
      </Points>
      <Cells>
        <DataArray type="Int32" Name="connectivity" format="ascii">
0 1
1 2
2 3

        </DataArray>
        <DataArray type="Int32" Name="offsets" format="ascii">
2 4 6 
        </DataArray>
        <DataArray type="UInt8" Name="types" format="ascii">
3 3 3 
        </DataArray>
      </Cells>
      <PointData>
        <DataArray type="Float64" Name="rho">
          1.22500000e+00 1.22500000e+00 1.22500000e+00 1.22500000e+00 
        </DataArray>
        <DataArray type="Float64" Name="rhou">
          3.33408750e+02 3.33408750e+02 3.33408750e+02 3.33408750e+02 
        </DataArray>
        <DataArray type="Float64" Name="rhov">
          7.27500480e+00 7.27500480e+00 7.27500480e+00 7.27500480e+00 
        </DataArray>
        <DataArray type="Float64" Name="E">
          2.98706100e+05 2.98706100e+05 2.98706100e+05 2.98706100e+05 
        </DataArray>
      </PointData>
    </Piece>
    <Piece NumberOfPoints="4" NumberOfCells="3">
      <Points>
        <DataArray type="Float64" NumberOfComponents="3" format="ascii">
          4.98276278e-02 -3.54015976e-02 0.00000000e+00 
4.60115410e-02 -3.42054628e-02 0.00000000e+00 
4.22164090e-02 -3.29444520e-02 0.00000000e+00 
3.84457745e-02 -3.16120051e-02 0.00000000e+00 

        </DataArray>
      </Points>
      <Cells>
        <DataArray type="Int32" Name="connectivity" format="ascii">
0 1
1 2
2 3

        </DataArray>
        <DataArray type="Int32" Name="offsets" format="ascii">
2 4 6 
        </DataArray>
        <DataArray type="UInt8" Name="types" format="ascii">
3 3 3 
        </DataArray>
      </Cells>
      <PointData>
        <DataArray type="Float64" Name="rho">
          1.22500000e+00 1.22500000e+00 1.22500000e+00 1.22500000e+00 
        </DataArray>
        <DataArray type="Float64" Name="rhou">
          3.33408750e+02 3.33408750e+02 3.33408750e+02 3.33408750e+02 
        </DataArray>
        <DataArray type="Float64" Name="rhov">
          7.27500480e+00 7.27500480e+00 7.27500480e+00 7.27500480e+00 
        </DataArray>
        <DataArray type="Float64" Name="E">
          2.98706100e+05 2.98706100e+05 2.98706100e+05 2.98706100e+05 
        </DataArray>
      </PointData>
    </Piece>
    <Piece NumberOfPoints="4" NumberOfCells="3">
      <Points>
        <DataArray type="Float64" NumberOfComponents="3" format="ascii">
          3.84457745e-02 -3.16120051e-02 0.00000000e+00 
3.47041376e-02 -3.02002355e-02 0.00000000e+00 
3.09973080e-02 -2.86995135e-02 0.00000000e+00 
2.73328498e-02 -2.70981900e-02 0.00000000e+00 

        </DataArray>
      </Points>
      <Cells>
        <DataArray type="Int32" Name="connectivity" format="ascii">
0 1
1 2
2 3

        </DataArray>
        <DataArray type="Int32" Name="offsets" format="ascii">
2 4 6 
        </DataArray>
        <DataArray type="UInt8" Name="types" format="ascii">
3 3 3 
        </DataArray>
      </Cells>
      <PointData>
        <DataArray type="Float64" Name="rho">
          1.22500000e+00 1.22500000e+00 1.22500000e+00 1.22500000e+00 
        </DataArray>
        <DataArray type="Float64" Name="rhou">
          3.33408750e+02 3.33408750e+02 3.33408750e+02 3.33408750e+02 
        </DataArray>
        <DataArray type="Float64" Name="rhov">
          7.27500480e+00 7.27500480e+00 7.27500480e+00 7.27500480e+00 
        </DataArray>
        <DataArray type="Float64" Name="E">
          2.98706100e+05 2.98706100e+05 2.98706100e+05 2.98706100e+05 
        </DataArray>
      </PointData>
    </Piece>
    <Piece NumberOfPoints="4" NumberOfCells="3">
      <Points>
        <DataArray type="Float64" NumberOfComponents="3" format="ascii">
          2.73328498e-02 -2.70981900e-02 0.00000000e+00 
2.37206947e-02 -2.53822580e-02 0.00000000e+00 
2.01744195e-02 -2.35341713e-02 0.00000000e+00 
1.67132635e-02 -2.15314496e-02 0.00000000e+00 

        </DataArray>
      </Points>
      <Cells>
        <DataArray type="Int32" Name="connectivity" format="ascii">
0 1
1 2
2 3

        </DataArray>
        <DataArray type="Int32" Name="offsets" format="ascii">
2 4 6 
        </DataArray>
        <DataArray type="UInt8" Name="types" format="ascii">
3 3 3 
        </DataArray>
      </Cells>
      <PointData>
        <DataArray type="Float64" Name="rho">
          1.22500000e+00 1.22500000e+00 1.22500000e+00 1.22500000e+00 
        </DataArray>
        <DataArray type="Float64" Name="rhou">
          3.33408750e+02 3.33408750e+02 3.33408750e+02 3.33408750e+02 
        </DataArray>
        <DataArray type="Float64" Name="rhov">
          7.27500480e+00 7.27500480e+00 7.27500480e+00 7.27500480e+00 
        </DataArray>
        <DataArray type="Float64" Name="E">
          2.98706100e+05 2.98706100e+05 2.98706100e+05 2.98706100e+05 
        </DataArray>
      </PointData>
    </Piece>
    <Piece NumberOfPoints="4" NumberOfCells="3">
      <Points>
        <DataArray type="Float64" NumberOfComponents="3" format="ascii">
          1.67132635e-02 -2.15314496e-02 0.00000000e+00 
1.33649679e-02 -1.93456318e-02 0.00000000e+00 
1.01706637e-02 -1.69409402e-02 0.00000000e+00 
7.19343964e-03 -1.42731192e-02 0.00000000e+00 

        </DataArray>
      </Points>
      <Cells>
        <DataArray type="Int32" Name="connectivity" format="ascii">
0 1
1 2
2 3

        </DataArray>
        <DataArray type="Int32" Name="offsets" format="ascii">
2 4 6 
        </DataArray>
        <DataArray type="UInt8" Name="types" format="ascii">
3 3 3 
        </DataArray>
      </Cells>
      <PointData>
        <DataArray type="Float64" Name="rho">
          1.22500000e+00 1.22500000e+00 1.22500000e+00 1.22500000e+00 
        </DataArray>
        <DataArray type="Float64" Name="rhou">
          3.33408750e+02 3.33408750e+02 3.33408750e+02 3.33408750e+02 
        </DataArray>
        <DataArray type="Float64" Name="rhov">
          7.27500480e+00 7.27500480e+00 7.27500480e+00 7.27500480e+00 
        </DataArray>
        <DataArray type="Float64" Name="E">
          2.98706100e+05 2.98706100e+05 2.98706100e+05 2.98706100e+05 
        </DataArray>
      </PointData>
    </Piece>
    <Piece NumberOfPoints="4" NumberOfCells="3">
      <Points>
        <DataArray type="Float64" NumberOfComponents="3" format="ascii">
          7.19343964e-03 -1.42731192e-02 0.00000000e+00 
4.53082798e-03 -1.12927537e-02 0.00000000e+00 
2.33371323e-03 -7.95678515e-03 0.00000000e+00 
8.10639584e-04 -4.26717056e-03 0.00000000e+00 

        </DataArray>
      </Points>
      <Cells>
        <DataArray type="Int32" Name="connectivity" format="ascii">
0 1
1 2
2 3

        </DataArray>
        <DataArray type="Int32" Name="offsets" format="ascii">
2 4 6 
        </DataArray>
        <DataArray type="UInt8" Name="types" format="ascii">
3 3 3 
        </DataArray>
      </Cells>
      <PointData>
        <DataArray type="Float64" Name="rho">
          1.22500000e+00 1.22500000e+00 1.22500000e+00 1.22500000e+00 
        </DataArray>
        <DataArray type="Float64" Name="rhou">
          3.33408750e+02 3.33408750e+02 3.33408750e+02 3.33408750e+02 
        </DataArray>
        <DataArray type="Float64" Name="rhov">
          7.27500480e+00 7.27500480e+00 7.27500480e+00 7.27500480e+00 
        </DataArray>
        <DataArray type="Float64" Name="E">
          2.98706100e+05 2.98706100e+05 2.98706100e+05 2.98706100e+05 
        </DataArray>
      </PointData>
    </Piece>
    <Piece NumberOfPoints="4" NumberOfCells="3">
      <Points>
        <DataArray type="Float64" NumberOfComponents="3" format="ascii">
          8.10639584e-04 -4.26717056e-03 0.00000000e+00 
1.91366620e-04 -3.27450951e-04 0.00000000e+00 
6.40850572e-04 3.63462302e-03 0.00000000e+00 
2.03182548e-03 7.37539819e-03 0.00000000e+00 

        </DataArray>
      </Points>
      <Cells>
        <DataArray type="Int32" Name="connectivity" format="ascii">
0 1
1 2
2 3

        </DataArray>
        <DataArray type="Int32" Name="offsets" format="ascii">
2 4 6 
        </DataArray>
        <DataArray type="UInt8" Name="types" format="ascii">
3 3 3 
        </DataArray>
      </Cells>
      <PointData>
        <DataArray type="Float64" Name="rho">
          1.22500000e+00 1.22500000e+00 1.22500000e+00 1.22500000e+00 
        </DataArray>
        <DataArray type="Float64" Name="rhou">
          3.33408750e+02 3.33408750e+02 3.33408750e+02 3.33408750e+02 
        </DataArray>
        <DataArray type="Float64" Name="rhov">
          7.27500480e+00 7.27500480e+00 7.27500480e+00 7.27500480e+00 
        </DataArray>
        <DataArray type="Float64" Name="E">
          2.98706100e+05 2.98706100e+05 2.98706100e+05 2.98706100e+05 
        </DataArray>
      </PointData>
    </Piece>
    <Piece NumberOfPoints="4" NumberOfCells="3">
      <Points>
        <DataArray type="Float64" NumberOfComponents="3" format="ascii">
          2.03182548e-03 7.37539819e-03 0.00000000e+00 
4.13410179e-03 1.07714310e-02 0.00000000e+00 
6.73249783e-03 1.38076087e-02 0.00000000e+00 
9.66598373e-03 1.65232457e-02 0.00000000e+00 

        </DataArray>
      </Points>
      <Cells>
        <DataArray type="Int32" Name="connectivity" format="ascii">
0 1
1 2
2 3

        </DataArray>
        <DataArray type="Int32" Name="offsets" format="ascii">
2 4 6 
        </DataArray>
        <DataArray type="UInt8" Name="types" format="ascii">
3 3 3 
        </DataArray>
      </Cells>
      <PointData>
        <DataArray type="Float64" Name="rho">
          1.22500000e+00 1.22500000e+00 1.22500000e+00 1.22500000e+00 
        </DataArray>
        <DataArray type="Float64" Name="rhou">
          3.33408750e+02 3.33408750e+02 3.33408750e+02 3.33408750e+02 
        </DataArray>
        <DataArray type="Float64" Name="rhov">
          7.27500480e+00 7.27500480e+00 7.27500480e+00 7.27500480e+00 
        </DataArray>
        <DataArray type="Float64" Name="E">
          2.98706100e+05 2.98706100e+05 2.98706100e+05 2.98706100e+05 
        </DataArray>
      </PointData>
    </Piece>
    <Piece NumberOfPoints="4" NumberOfCells="3">
      <Points>
        <DataArray type="Float64" NumberOfComponents="3" format="ascii">
          9.66598373e-03 1.65232457e-02 0.00000000e+00 
1.28298048e-02 1.89677756e-02 0.00000000e+00 
1.61561389e-02 2.11867876e-02 0.00000000e+00 
1.96009967e-02 2.32173651e-02 0.00000000e+00 

        </DataArray>
      </Points>
      <Cells>
        <DataArray type="Int32" Name="connectivity" format="ascii">
0 1
1 2
2 3

        </DataArray>
        <DataArray type="Int32" Name="offsets" format="ascii">
2 4 6 
        </DataArray>
        <DataArray type="UInt8" Name="types" format="ascii">
3 3 3 
        </DataArray>
      </Cells>
      <PointData>
        <DataArray type="Float64" Name="rho">
          1.22500000e+00 1.22500000e+00 1.22500000e+00 1.22500000e+00 
        </DataArray>
        <DataArray type="Float64" Name="rhou">
          3.33408750e+02 3.33408750e+02 3.33408750e+02 3.33408750e+02 
        </DataArray>
        <DataArray type="Float64" Name="rhov">
          7.27500480e+00 7.27500480e+00 7.27500480e+00 7.27500480e+00 
        </DataArray>
        <DataArray type="Float64" Name="E">
          2.98706100e+05 2.98706100e+05 2.98706100e+05 2.98706100e+05 
        </DataArray>
      </PointData>
    </Piece>
    <Piece NumberOfPoints="4" NumberOfCells="3">
      <Points>
        <DataArray type="Float64" NumberOfComponents="3" format="ascii">
          1.96009967e-02 2.32173651e-02 0.00000000e+00 
2.31348258e-02 2.50891000e-02 0.00000000e+00 
2.67372411e-02 2.68253610e-02 0.00000000e+00 
3.03938854e-02 2.84444261e-02 0.00000000e+00 

        </DataArray>
      </Points>
      <Cells>
        <DataArray type="Int32" Name="connectivity" format="ascii">
0 1
1 2
2 3

        </DataArray>
        <DataArray type="Int32" Name="offsets" format="ascii">
2 4 6 
        </DataArray>
        <DataArray type="UInt8" Name="types" format="ascii">
3 3 3 
        </DataArray>
      </Cells>
      <PointData>
        <DataArray type="Float64" Name="rho">
          1.22500000e+00 1.22500000e+00 1.22500000e+00 1.22500000e+00 
        </DataArray>
        <DataArray type="Float64" Name="rhou">
          3.33408750e+02 3.33408750e+02 3.33408750e+02 3.33408750e+02 
        </DataArray>
        <DataArray type="Float64" Name="rhov">
          7.27500480e+00 7.27500480e+00 7.27500480e+00 7.27500480e+00 
        </DataArray>
        <DataArray type="Float64" Name="E">
          2.98706100e+05 2.98706100e+05 2.98706100e+05 2.98706100e+05 
        </DataArray>
      </PointData>
    </Piece>
    <Piece NumberOfPoints="4" NumberOfCells="3">
      <Points>
        <DataArray type="Float64" NumberOfComponents="3" format="ascii">
          3.03938854e-02 2.84444261e-02 0.00000000e+00 
3.40943485e-02 2.99607720e-02 0.00000000e+00 
3.78307216e-02 3.13864015e-02 0.00000000e+00 
4.15969416e-02 3.27312648e-02 0.00000000e+00 

        </DataArray>
      </Points>
      <Cells>
        <DataArray type="Int32" Name="connectivity" format="ascii">
0 1
1 2
2 3

        </DataArray>
        <DataArray type="Int32" Name="offsets" format="ascii">
2 4 6 
        </DataArray>
        <DataArray type="UInt8" Name="types" format="ascii">
3 3 3 
        </DataArray>
      </Cells>
      <PointData>
        <DataArray type="Float64" Name="rho">
          1.22500000e+00 1.22500000e+00 1.22500000e+00 1.22500000e+00 
        </DataArray>
        <DataArray type="Float64" Name="rhou">
          3.33408750e+02 3.33408750e+02 3.33408750e+02 3.33408750e+02 
        </DataArray>
        <DataArray type="Float64" Name="rhov">
          7.27500480e+00 7.27500480e+00 7.27500480e+00 7.27500480e+00 
        </DataArray>
        <DataArray type="Float64" Name="E">
          2.98706100e+05 2.98706100e+05 2.98706100e+05 2.98706100e+05 
        </DataArray>
      </PointData>
    </Piece>
    <Piece NumberOfPoints="4" NumberOfCells="3">
      <Points>
        <DataArray type="Float64" NumberOfComponents="3" format="ascii">
          4.15969416e-02 3.27312648e-02 0.00000000e+00 
4.53883260e-02 3.40034962e-02 0.00000000e+00 
4.92011942e-02 3.52098532e-02 0.00000000e+00 
5.30325845e-02 3.63560505e-02 0.00000000e+00 

        </DataArray>
      </Points>
      <Cells>
        <DataArray type="Int32" Name="connectivity" format="ascii">
0 1
1 2
2 3

        </DataArray>
        <DataArray type="Int32" Name="offsets" format="ascii">
2 4 6 
        </DataArray>
        <DataArray type="UInt8" Name="types" format="ascii">
3 3 3 
        </DataArray>
      </Cells>
      <PointData>
        <DataArray type="Float64" Name="rho">
          1.22500000e+00 1.22500000e+00 1.22500000e+00 1.22500000e+00 
        </DataArray>
        <DataArray type="Float64" Name="rhou">
          3.33408750e+02 3.33408750e+02 3.33408750e+02 3.33408750e+02 
        </DataArray>
        <DataArray type="Float64" Name="rhov">
          7.27500480e+00 7.27500480e+00 7.27500480e+00 7.27500480e+00 
        </DataArray>
        <DataArray type="Float64" Name="E">
          2.98706100e+05 2.98706100e+05 2.98706100e+05 2.98706100e+05 
        </DataArray>
      </PointData>
    </Piece>
    <Piece NumberOfPoints="4" NumberOfCells="3">
      <Points>
        <DataArray type="Float64" NumberOfComponents="3" format="ascii">
          5.30325845e-02 3.63560505e-02 0.00000000e+00 
5.68800643e-02 3.74470428e-02 0.00000000e+00 
6.07415959e-02 3.84872220e-02 0.00000000e+00 
6.46155030e-02 3.94803248e-02 0.00000000e+00 

        </DataArray>
      </Points>
      <Cells>
        <DataArray type="Int32" Name="connectivity" format="ascii">
0 1
1 2
2 3

        </DataArray>
        <DataArray type="Int32" Name="offsets" format="ascii">
2 4 6 
        </DataArray>
        <DataArray type="UInt8" Name="types" format="ascii">
3 3 3 
        </DataArray>
      </Cells>
      <PointData>
        <DataArray type="Float64" Name="rho">
          1.22500000e+00 1.22500000e+00 1.22500000e+00 1.22500000e+00 
        </DataArray>
        <DataArray type="Float64" Name="rhou">
          3.33408750e+02 3.33408750e+02 3.33408750e+02 3.33408750e+02 
        </DataArray>
        <DataArray type="Float64" Name="rhov">
          7.27500480e+00 7.27500480e+00 7.27500480e+00 7.27500480e+00 
        </DataArray>
        <DataArray type="Float64" Name="E">
          2.98706100e+05 2.98706100e+05 2.98706100e+05 2.98706100e+05 
        </DataArray>
      </PointData>
    </Piece>
    <Piece NumberOfPoints="4" NumberOfCells="3">
      <Points>
        <DataArray type="Float64" NumberOfComponents="3" format="ascii">
          6.46155030e-02 3.94803248e-02 0.00000000e+00 
6.85004294e-02 4.04294394e-02 0.00000000e+00 
7.23951608e-02 4.13374715e-02 0.00000000e+00 
7.62986317e-02 4.22072113e-02 0.00000000e+00 

        </DataArray>
      </Points>
      <Cells>
        <DataArray type="Int32" Name="connectivity" format="ascii">
0 1
1 2
2 3

        </DataArray>
        <DataArray type="Int32" Name="offsets" format="ascii">
2 4 6 
        </DataArray>
        <DataArray type="UInt8" Name="types" format="ascii">
3 3 3 
        </DataArray>
      </Cells>
      <PointData>
        <DataArray type="Float64" Name="rho">
          1.22500000e+00 1.22500000e+00 1.22500000e+00 1.22500000e+00 
        </DataArray>
        <DataArray type="Float64" Name="rhou">
          3.33408750e+02 3.33408750e+02 3.33408750e+02 3.33408750e+02 
        </DataArray>
        <DataArray type="Float64" Name="rhov">
          7.27500480e+00 7.27500480e+00 7.27500480e+00 7.27500480e+00 
        </DataArray>
        <DataArray type="Float64" Name="E">
          2.98706100e+05 2.98706100e+05 2.98706100e+05 2.98706100e+05 
        </DataArray>
      </PointData>
    </Piece>
    <Piece NumberOfPoints="4" NumberOfCells="3">
      <Points>
        <DataArray type="Float64" NumberOfComponents="3" format="ascii">
          7.62986317e-02 4.22072113e-02 0.00000000e+00 
8.02098960e-02 4.30411920e-02 0.00000000e+00 
8.41281936e-02 4.38414887e-02 0.00000000e+00 
8.80528912e-02 4.46097627e-02 0.00000000e+00 

        </DataArray>
      </Points>
      <Cells>
        <DataArray type="Int32" Name="connectivity" format="ascii">
0 1
1 2
2 3

        </DataArray>
        <DataArray type="Int32" Name="offsets" format="ascii">
2 4 6 
        </DataArray>
        <DataArray type="UInt8" Name="types" format="ascii">
3 3 3 
        </DataArray>
      </Cells>
      <PointData>
        <DataArray type="Float64" Name="rho">
          1.22500000e+00 1.22500000e+00 1.22500000e+00 1.22500000e+00 
        </DataArray>
        <DataArray type="Float64" Name="rhou">
          3.33408750e+02 3.33408750e+02 3.33408750e+02 3.33408750e+02 
        </DataArray>
        <DataArray type="Float64" Name="rhov">
          7.27500480e+00 7.27500480e+00 7.27500480e+00 7.27500480e+00 
        </DataArray>
        <DataArray type="Float64" Name="E">
          2.98706100e+05 2.98706100e+05 2.98706100e+05 2.98706100e+05 
        </DataArray>
      </PointData>
    </Piece>
    <Piece NumberOfPoints="4" NumberOfCells="3">
      <Points>
        <DataArray type="Float64" NumberOfComponents="3" format="ascii">
          8.80528912e-02 4.46097627e-02 0.00000000e+00 
9.19835642e-02 4.53475714e-02 0.00000000e+00 
9.59195644e-02 4.60564308e-02 0.00000000e+00 
9.98597518e-02 4.67394181e-02 0.00000000e+00 

        </DataArray>
      </Points>
      <Cells>
        <DataArray type="Int32" Name="connectivity" format="ascii">
0 1
1 2
2 3

        </DataArray>
        <DataArray type="Int32" Name="offsets" format="ascii">
2 4 6 
        </DataArray>
        <DataArray type="UInt8" Name="types" format="ascii">
3 3 3 
        </DataArray>
      </Cells>
      <PointData>
        <DataArray type="Float64" Name="rho">
          1.22500000e+00 1.22500000e+00 1.22500000e+00 1.22500000e+00 
        </DataArray>
        <DataArray type="Float64" Name="rhou">
          3.33408750e+02 3.33408750e+02 3.33408750e+02 3.33408750e+02 
        </DataArray>
        <DataArray type="Float64" Name="rhov">
          7.27500480e+00 7.27500480e+00 7.27500480e+00 7.27500480e+00 
        </DataArray>
        <DataArray type="Float64" Name="E">
          2.98706100e+05 2.98706100e+05 2.98706100e+05 2.98706100e+05 
        </DataArray>
      </PointData>
    </Piece>
    <Piece NumberOfPoints="4" NumberOfCells="3">
      <Points>
        <DataArray type="Float64" NumberOfComponents="3" format="ascii">
          9.98597518e-02 4.67394181e-02 0.00000000e+00 
1.10118888e-01 4.83862534e-02 0.00000000e+00 
1.20400399e-01 4.98730615e-02 0.00000000e+00 
1.30701363e-01 5.12186773e-02 0.00000000e+00 

        </DataArray>
      </Points>
      <Cells>
        <DataArray type="Int32" Name="connectivity" format="ascii">
0 1
1 2
2 3

        </DataArray>
        <DataArray type="Int32" Name="offsets" format="ascii">
2 4 6 
        </DataArray>
        <DataArray type="UInt8" Name="types" format="ascii">
3 3 3 
        </DataArray>
      </Cells>
      <PointData>
        <DataArray type="Float64" Name="rho">
          1.22500000e+00 1.22500000e+00 1.22500000e+00 1.22500000e+00 
        </DataArray>
        <DataArray type="Float64" Name="rhou">
          3.33408750e+02 3.33408750e+02 3.33408750e+02 3.33408750e+02 
        </DataArray>
        <DataArray type="Float64" Name="rhov">
          7.27500480e+00 7.27500480e+00 7.27500480e+00 7.27500480e+00 
        </DataArray>
        <DataArray type="Float64" Name="E">
          2.98706100e+05 2.98706100e+05 2.98706100e+05 2.98706100e+05 
        </DataArray>
      </PointData>
    </Piece>
    <Piece NumberOfPoints="4" NumberOfCells="3">
      <Points>
        <DataArray type="Float64" NumberOfComponents="3" format="ascii">
          1.30701363e-01 5.12186773e-02 0.00000000e+00 
1.41019106e-01 5.24347536e-02 0.00000000e+00 
1.51350453e-01 5.35292812e-02 0.00000000e+00 
1.61692888e-01 5.45137413e-02 0.00000000e+00 

        </DataArray>
      </Points>
      <Cells>
        <DataArray type="Int32" Name="connectivity" format="ascii">
0 1
1 2
2 3

        </DataArray>
        <DataArray type="Int32" Name="offsets" format="ascii">
2 4 6 
        </DataArray>
        <DataArray type="UInt8" Name="types" format="ascii">
3 3 3 
        </DataArray>
      </Cells>
      <PointData>
        <DataArray type="Float64" Name="rho">
          1.22500000e+00 1.22500000e+00 1.22500000e+00 1.22500000e+00 
        </DataArray>
        <DataArray type="Float64" Name="rhou">
          3.33408750e+02 3.33408750e+02 3.33408750e+02 3.33408750e+02 
        </DataArray>
        <DataArray type="Float64" Name="rhov">
          7.27500480e+00 7.27500480e+00 7.27500480e+00 7.27500480e+00 
        </DataArray>
        <DataArray type="Float64" Name="E">
          2.98706100e+05 2.98706100e+05 2.98706100e+05 2.98706100e+05 
        </DataArray>
      </PointData>
    </Piece>
    <Piece NumberOfPoints="4" NumberOfCells="3">
      <Points>
        <DataArray type="Float64" NumberOfComponents="3" format="ascii">
          1.61692888e-01 5.45137413e-02 0.00000000e+00 
1.72044471e-01 5.53969070e-02 0.00000000e+00 
1.82403773e-01 5.61845005e-02 0.00000000e+00 
1.92769483e-01 5.68825118e-02 0.00000000e+00 

        </DataArray>
      </Points>
      <Cells>
        <DataArray type="Int32" Name="connectivity" format="ascii">
0 1
1 2
2 3

        </DataArray>
        <DataArray type="Int32" Name="offsets" format="ascii">
2 4 6 
        </DataArray>
        <DataArray type="UInt8" Name="types" format="ascii">
3 3 3 
        </DataArray>
      </Cells>
      <PointData>
        <DataArray type="Float64" Name="rho">
          1.22500000e+00 1.22500000e+00 1.22500000e+00 1.22500000e+00 
        </DataArray>
        <DataArray type="Float64" Name="rhou">
          3.33408750e+02 3.33408750e+02 3.33408750e+02 3.33408750e+02 
        </DataArray>
        <DataArray type="Float64" Name="rhov">
          7.27500480e+00 7.27500480e+00 7.27500480e+00 7.27500480e+00 
        </DataArray>
        <DataArray type="Float64" Name="E">
          2.98706100e+05 2.98706100e+05 2.98706100e+05 2.98706100e+05 
        </DataArray>
      </PointData>
    </Piece>
    <Piece NumberOfPoints="4" NumberOfCells="3">
      <Points>
        <DataArray type="Float64" NumberOfComponents="3" format="ascii">
          1.92769483e-01 5.68825118e-02 0.00000000e+00 
2.03140482e-01 5.74972220e-02 0.00000000e+00 
2.13515818e-01 5.80338500e-02 0.00000000e+00 
2.23894730e-01 5.84962890e-02 0.00000000e+00 

        </DataArray>
      </Points>
      <Cells>
        <DataArray type="Int32" Name="connectivity" format="ascii">
0 1
1 2
2 3

        </DataArray>
        <DataArray type="Int32" Name="offsets" format="ascii">
2 4 6 
        </DataArray>
        <DataArray type="UInt8" Name="types" format="ascii">
3 3 3 
        </DataArray>
      </Cells>
      <PointData>
        <DataArray type="Float64" Name="rho">
          1.22500000e+00 1.22500000e+00 1.22500000e+00 1.22500000e+00 
        </DataArray>
        <DataArray type="Float64" Name="rhou">
          3.33408750e+02 3.33408750e+02 3.33408750e+02 3.33408750e+02 
        </DataArray>
        <DataArray type="Float64" Name="rhov">
          7.27500480e+00 7.27500480e+00 7.27500480e+00 7.27500480e+00 
        </DataArray>
        <DataArray type="Float64" Name="E">
          2.98706100e+05 2.98706100e+05 2.98706100e+05 2.98706100e+05 
        </DataArray>
      </PointData>
    </Piece>
    <Piece NumberOfPoints="4" NumberOfCells="3">
      <Points>
        <DataArray type="Float64" NumberOfComponents="3" format="ascii">
          2.23894730e-01 5.84962890e-02 0.00000000e+00 
2.34276548e-01 5.88882305e-02 0.00000000e+00 
2.44660646e-01 5.92139624e-02 0.00000000e+00 
2.55046517e-01 5.94772622e-02 0.00000000e+00 

        </DataArray>
      </Points>
      <Cells>
        <DataArray type="Int32" Name="connectivity" format="ascii">
0 1
1 2
2 3

        </DataArray>
        <DataArray type="Int32" Name="offsets" format="ascii">
2 4 6 
        </DataArray>
        <DataArray type="UInt8" Name="types" format="ascii">
3 3 3 
        </DataArray>
      </Cells>
      <PointData>
        <DataArray type="Float64" Name="rho">
          1.22500000e+00 1.22500000e+00 1.22500000e+00 1.22500000e+00 
        </DataArray>
        <DataArray type="Float64" Name="rhou">
          3.33408750e+02 3.33408750e+02 3.33408750e+02 3.33408750e+02 
        </DataArray>
        <DataArray type="Float64" Name="rhov">
          7.27500480e+00 7.27500480e+00 7.27500480e+00 7.27500480e+00 
        </DataArray>
        <DataArray type="Float64" Name="E">
          2.98706100e+05 2.98706100e+05 2.98706100e+05 2.98706100e+05 
        </DataArray>
      </PointData>
    </Piece>
    <Piece NumberOfPoints="4" NumberOfCells="3">
      <Points>
        <DataArray type="Float64" NumberOfComponents="3" format="ascii">
          2.55046517e-01 5.94772622e-02 0.00000000e+00 
2.65433758e-01 5.96804135e-02 0.00000000e+00 
2.75821954e-01 5.98256700e-02 0.00000000e+00 
2.86210775e-01 5.99167012e-02 0.00000000e+00 

        </DataArray>
      </Points>
      <Cells>
        <DataArray type="Int32" Name="connectivity" format="ascii">
0 1
1 2
2 3

        </DataArray>
        <DataArray type="Int32" Name="offsets" format="ascii">
2 4 6 
        </DataArray>
        <DataArray type="UInt8" Name="types" format="ascii">
3 3 3 
        </DataArray>
      </Cells>
      <PointData>
        <DataArray type="Float64" Name="rho">
          1.22500000e+00 1.22500000e+00 1.22500000e+00 1.22500000e+00 
        </DataArray>
        <DataArray type="Float64" Name="rhou">
          3.33408750e+02 3.33408750e+02 3.33408750e+02 3.33408750e+02 
        </DataArray>
        <DataArray type="Float64" Name="rhov">
          7.27500480e+00 7.27500480e+00 7.27500480e+00 7.27500480e+00 
        </DataArray>
        <DataArray type="Float64" Name="E">
          2.98706100e+05 2.98706100e+05 2.98706100e+05 2.98706100e+05 
        </DataArray>
      </PointData>
    </Piece>
    <Piece NumberOfPoints="4" NumberOfCells="3">
      <Points>
        <DataArray type="Float64" NumberOfComponents="3" format="ascii">
          2.86210775e-01 5.99167012e-02 0.00000000e+00 
2.96599895e-01 5.99572174e-02 0.00000000e+00 
3.06989133e-01 5.99487796e-02 0.00000000e+00 
3.17378193e-01 5.98919280e-02 0.00000000e+00 

        </DataArray>
      </Points>
      <Cells>
        <DataArray type="Int32" Name="connectivity" format="ascii">
0 1
1 2
2 3

        </DataArray>
        <DataArray type="Int32" Name="offsets" format="ascii">
2 4 6 
        </DataArray>
        <DataArray type="UInt8" Name="types" format="ascii">
3 3 3 
        </DataArray>
      </Cells>
      <PointData>
        <DataArray type="Float64" Name="rho">
          1.22500000e+00 1.22500000e+00 1.22500000e+00 1.22500000e+00 
        </DataArray>
        <DataArray type="Float64" Name="rhou">
          3.33408750e+02 3.33408750e+02 3.33408750e+02 3.33408750e+02 
        </DataArray>
        <DataArray type="Float64" Name="rhov">
          7.27500480e+00 7.27500480e+00 7.27500480e+00 7.27500480e+00 
        </DataArray>
        <DataArray type="Float64" Name="E">
          2.98706100e+05 2.98706100e+05 2.98706100e+05 2.98706100e+05 
        </DataArray>
      </PointData>
    </Piece>
    <Piece NumberOfPoints="4" NumberOfCells="3">
      <Points>
        <DataArray type="Float64" NumberOfComponents="3" format="ascii">
          3.17378193e-01 5.98919280e-02 0.00000000e+00 
3.27766895e-01 5.97884916e-02 0.00000000e+00 
3.38155061e-01 5.96415885e-02 0.00000000e+00 
3.48542601e-01 5.94538599e-02 0.00000000e+00 

        </DataArray>
      </Points>
      <Cells>
        <DataArray type="Int32" Name="connectivity" format="ascii">
0 1
1 2
2 3

        </DataArray>
        <DataArray type="Int32" Name="offsets" format="ascii">
2 4 6 
        </DataArray>
        <DataArray type="UInt8" Name="types" format="ascii">
3 3 3 
        </DataArray>
      </Cells>
      <PointData>
        <DataArray type="Float64" Name="rho">
          1.22500000e+00 1.22500000e+00 1.22500000e+00 1.22500000e+00 
        </DataArray>
        <DataArray type="Float64" Name="rhou">
          3.33408750e+02 3.33408750e+02 3.33408750e+02 3.33408750e+02 
        </DataArray>
        <DataArray type="Float64" Name="rhov">
          7.27500480e+00 7.27500480e+00 7.27500480e+00 7.27500480e+00 
        </DataArray>
        <DataArray type="Float64" Name="E">
          2.98706100e+05 2.98706100e+05 2.98706100e+05 2.98706100e+05 
        </DataArray>
      </PointData>
    </Piece>
    <Piece NumberOfPoints="4" NumberOfCells="3">
      <Points>
        <DataArray type="Float64" NumberOfComponents="3" format="ascii">
          3.48542601e-01 5.94538599e-02 0.00000000e+00 
3.58929336e-01 5.92265576e-02 0.00000000e+00 
3.69315147e-01 5.89610897e-02 0.00000000e+00 
3.79699975e-01 5.86590059e-02 0.00000000e+00 

        </DataArray>
      </Points>
      <Cells>
        <DataArray type="Int32" Name="connectivity" format="ascii">
0 1
1 2
2 3

        </DataArray>
        <DataArray type="Int32" Name="offsets" format="ascii">
2 4 6 
        </DataArray>
        <DataArray type="UInt8" Name="types" format="ascii">
3 3 3 
        </DataArray>
      </Cells>
      <PointData>
        <DataArray type="Float64" Name="rho">
          1.22500000e+00 1.22500000e+00 1.22500000e+00 1.22500000e+00 
        </DataArray>
        <DataArray type="Float64" Name="rhou">
          3.33408750e+02 3.33408750e+02 3.33408750e+02 3.33408750e+02 
        </DataArray>
        <DataArray type="Float64" Name="rhov">
          7.27500480e+00 7.27500480e+00 7.27500480e+00 7.27500480e+00 
        </DataArray>
        <DataArray type="Float64" Name="E">
          2.98706100e+05 2.98706100e+05 2.98706100e+05 2.98706100e+05 
        </DataArray>
      </PointData>
    </Piece>
    <Piece NumberOfPoints="4" NumberOfCells="3">
      <Points>
        <DataArray type="Float64" NumberOfComponents="3" format="ascii">
          3.79699975e-01 5.86590059e-02 0.00000000e+00 
3.90083700e-01 5.83211333e-02 0.00000000e+00 
4.00466233e-01 5.79482466e-02 0.00000000e+00 
4.10847515e-01 5.75418957e-02 0.00000000e+00 

        </DataArray>
      </Points>
      <Cells>
        <DataArray type="Int32" Name="connectivity" format="ascii">
0 1
1 2
2 3

        </DataArray>
        <DataArray type="Int32" Name="offsets" format="ascii">
2 4 6 
        </DataArray>
        <DataArray type="UInt8" Name="types" format="ascii">
3 3 3 
        </DataArray>
      </Cells>
      <PointData>
        <DataArray type="Float64" Name="rho">
          1.22500000e+00 1.22500000e+00 1.22500000e+00 1.22500000e+00 
        </DataArray>
        <DataArray type="Float64" Name="rhou">
          3.33408750e+02 3.33408750e+02 3.33408750e+02 3.33408750e+02 
        </DataArray>
        <DataArray type="Float64" Name="rhov">
          7.27500480e+00 7.27500480e+00 7.27500480e+00 7.27500480e+00 
        </DataArray>
        <DataArray type="Float64" Name="E">
          2.98706100e+05 2.98706100e+05 2.98706100e+05 2.98706100e+05 
        </DataArray>
      </PointData>
    </Piece>
    <Piece NumberOfPoints="4" NumberOfCells="3">
      <Points>
        <DataArray type="Float64" NumberOfComponents="3" format="ascii">
          4.10847515e-01 5.75418957e-02 0.00000000e+00 
4.21227485e-01 5.71038015e-02 0.00000000e+00 
4.31606144e-01 5.66351078e-02 0.00000000e+00 
4.41983402e-01 5.61364293e-02 0.00000000e+00 

        </DataArray>
      </Points>
      <Cells>
        <DataArray type="Int32" Name="connectivity" format="ascii">
0 1
1 2
2 3

        </DataArray>
        <DataArray type="Int32" Name="offsets" format="ascii">
2 4 6 
        </DataArray>
        <DataArray type="UInt8" Name="types" format="ascii">
3 3 3 
        </DataArray>
      </Cells>
      <PointData>
        <DataArray type="Float64" Name="rho">
          1.22500000e+00 1.22500000e+00 1.22500000e+00 1.22500000e+00 
        </DataArray>
        <DataArray type="Float64" Name="rhou">
          3.33408750e+02 3.33408750e+02 3.33408750e+02 3.33408750e+02 
        </DataArray>
        <DataArray type="Float64" Name="rhov">
          7.27500480e+00 7.27500480e+00 7.27500480e+00 7.27500480e+00 
        </DataArray>
        <DataArray type="Float64" Name="E">
          2.98706100e+05 2.98706100e+05 2.98706100e+05 2.98706100e+05 
        </DataArray>
      </PointData>
    </Piece>
    <Piece NumberOfPoints="4" NumberOfCells="3">
      <Points>
        <DataArray type="Float64" NumberOfComponents="3" format="ascii">
          4.41983402e-01 5.61364293e-02 0.00000000e+00 
4.52359200e-01 5.56085743e-02 0.00000000e+00 
4.62733537e-01 5.50529286e-02 0.00000000e+00 
4.73106444e-01 5.44707514e-02 0.00000000e+00 

        </DataArray>
      </Points>
      <Cells>
        <DataArray type="Int32" Name="connectivity" format="ascii">
0 1
1 2
2 3

        </DataArray>
        <DataArray type="Int32" Name="offsets" format="ascii">
2 4 6 
        </DataArray>
        <DataArray type="UInt8" Name="types" format="ascii">
3 3 3 
        </DataArray>
      </Cells>
      <PointData>
        <DataArray type="Float64" Name="rho">
          1.22500000e+00 1.22500000e+00 1.22500000e+00 1.22500000e+00 
        </DataArray>
        <DataArray type="Float64" Name="rhou">
          3.33408750e+02 3.33408750e+02 3.33408750e+02 3.33408750e+02 
        </DataArray>
        <DataArray type="Float64" Name="rhov">
          7.27500480e+00 7.27500480e+00 7.27500480e+00 7.27500480e+00 
        </DataArray>
        <DataArray type="Float64" Name="E">
          2.98706100e+05 2.98706100e+05 2.98706100e+05 2.98706100e+05 
        </DataArray>
      </PointData>
    </Piece>
    <Piece NumberOfPoints="4" NumberOfCells="3">
      <Points>
        <DataArray type="Float64" NumberOfComponents="3" format="ascii">
          4.73106444e-01 5.44707514e-02 0.00000000e+00 
4.83477861e-01 5.38627952e-02 0.00000000e+00 
4.93847787e-01 5.32294959e-02 0.00000000e+00 
5.04216135e-01 5.25716618e-02 0.00000000e+00 

        </DataArray>
      </Points>
      <Cells>
        <DataArray type="Int32" Name="connectivity" format="ascii">
0 1
1 2
2 3

        </DataArray>
        <DataArray type="Int32" Name="offsets" format="ascii">
2 4 6 
        </DataArray>
        <DataArray type="UInt8" Name="types" format="ascii">
3 3 3 
        </DataArray>
      </Cells>
      <PointData>
        <DataArray type="Float64" Name="rho">
          1.22500000e+00 1.22500000e+00 1.22500000e+00 1.22500000e+00 
        </DataArray>
        <DataArray type="Float64" Name="rhou">
          3.33408750e+02 3.33408750e+02 3.33408750e+02 3.33408750e+02 
        </DataArray>
        <DataArray type="Float64" Name="rhov">
          7.27500480e+00 7.27500480e+00 7.27500480e+00 7.27500480e+00 
        </DataArray>
        <DataArray type="Float64" Name="E">
          2.98706100e+05 2.98706100e+05 2.98706100e+05 2.98706100e+05 
        </DataArray>
      </PointData>
    </Piece>
    <Piece NumberOfPoints="4" NumberOfCells="3">
      <Points>
        <DataArray type="Float64" NumberOfComponents="3" format="ascii">
          5.04216135e-01 5.25716618e-02 0.00000000e+00 
5.14582992e-01 5.18903993e-02 0.00000000e+00 
5.24948359e-01 5.11864908e-02 0.00000000e+00 
5.35312176e-01 5.04603274e-02 0.00000000e+00 

        </DataArray>
      </Points>
      <Cells>
        <DataArray type="Int32" Name="connectivity" format="ascii">
0 1
1 2
2 3

        </DataArray>
        <DataArray type="Int32" Name="offsets" format="ascii">
2 4 6 
        </DataArray>
        <DataArray type="UInt8" Name="types" format="ascii">
3 3 3 
        </DataArray>
      </Cells>
      <PointData>
        <DataArray type="Float64" Name="rho">
          1.22500000e+00 1.22500000e+00 1.22500000e+00 1.22500000e+00 
        </DataArray>
        <DataArray type="Float64" Name="rhou">
          3.33408750e+02 3.33408750e+02 3.33408750e+02 3.33408750e+02 
        </DataArray>
        <DataArray type="Float64" Name="rhov">
          7.27500480e+00 7.27500480e+00 7.27500480e+00 7.27500480e+00 
        </DataArray>
        <DataArray type="Float64" Name="E">
          2.98706100e+05 2.98706100e+05 2.98706100e+05 2.98706100e+05 
        </DataArray>
      </PointData>
    </Piece>
    <Piece NumberOfPoints="4" NumberOfCells="3">
      <Points>
        <DataArray type="Float64" NumberOfComponents="3" format="ascii">
          5.35312176e-01 5.04603274e-02 0.00000000e+00 
5.45674443e-01 4.97124642e-02 0.00000000e+00 
5.56035221e-01 4.89437394e-02 0.00000000e+00 
5.66394389e-01 4.81546782e-02 0.00000000e+00 

        </DataArray>
      </Points>
      <Cells>
        <DataArray type="Int32" Name="connectivity" format="ascii">
0 1
1 2
2 3

        </DataArray>
        <DataArray type="Int32" Name="offsets" format="ascii">
2 4 6 
        </DataArray>
        <DataArray type="UInt8" Name="types" format="ascii">
3 3 3 
        </DataArray>
      </Cells>
      <PointData>
        <DataArray type="Float64" Name="rho">
          1.22500000e+00 1.22500000e+00 1.22500000e+00 1.22500000e+00 
        </DataArray>
        <DataArray type="Float64" Name="rhou">
          3.33408750e+02 3.33408750e+02 3.33408750e+02 3.33408750e+02 
        </DataArray>
        <DataArray type="Float64" Name="rhov">
          7.27500480e+00 7.27500480e+00 7.27500480e+00 7.27500480e+00 
        </DataArray>
        <DataArray type="Float64" Name="E">
          2.98706100e+05 2.98706100e+05 2.98706100e+05 2.98706100e+05 
        </DataArray>
      </PointData>
    </Piece>
    <Piece NumberOfPoints="4" NumberOfCells="3">
      <Points>
        <DataArray type="Float64" NumberOfComponents="3" format="ascii">
          5.66394389e-01 4.81546782e-02 0.00000000e+00 
5.76752067e-01 4.73455116e-02 0.00000000e+00 
5.87108195e-01 4.65166979e-02 0.00000000e+00 
5.97462773e-01 4.56690118e-02 0.00000000e+00 

        </DataArray>
      </Points>
      <Cells>
        <DataArray type="Int32" Name="connectivity" format="ascii">
0 1
1 2
2 3

        </DataArray>
        <DataArray type="Int32" Name="offsets" format="ascii">
2 4 6 
        </DataArray>
        <DataArray type="UInt8" Name="types" format="ascii">
3 3 3 
        </DataArray>
      </Cells>
      <PointData>
        <DataArray type="Float64" Name="rho">
          1.22500000e+00 1.22500000e+00 1.22500000e+00 1.22500000e+00 
        </DataArray>
        <DataArray type="Float64" Name="rhou">
          3.33408750e+02 3.33408750e+02 3.33408750e+02 3.33408750e+02 
        </DataArray>
        <DataArray type="Float64" Name="rhov">
          7.27500480e+00 7.27500480e+00 7.27500480e+00 7.27500480e+00 
        </DataArray>
        <DataArray type="Float64" Name="E">
          2.98706100e+05 2.98706100e+05 2.98706100e+05 2.98706100e+05 
        </DataArray>
      </PointData>
    </Piece>
    <Piece NumberOfPoints="4" NumberOfCells="3">
      <Points>
        <DataArray type="Float64" NumberOfComponents="3" format="ascii">
          5.97462773e-01 4.56690118e-02 0.00000000e+00 
6.07815862e-01 4.48031016e-02 0.00000000e+00 
6.18167400e-01 4.39192392e-02 0.00000000e+00 
6.28517449e-01 4.30175588e-02 0.00000000e+00 

        </DataArray>
      </Points>
      <Cells>
        <DataArray type="Int32" Name="connectivity" format="ascii">
0 1
1 2
2 3

        </DataArray>
        <DataArray type="Int32" Name="offsets" format="ascii">
2 4 6 
        </DataArray>
        <DataArray type="UInt8" Name="types" format="ascii">
3 3 3 
        </DataArray>
      </Cells>
      <PointData>
        <DataArray type="Float64" Name="rho">
          1.22500000e+00 1.22500000e+00 1.22500000e+00 1.22500000e+00 
        </DataArray>
        <DataArray type="Float64" Name="rhou">
          3.33408750e+02 3.33408750e+02 3.33408750e+02 3.33408750e+02 
        </DataArray>
        <DataArray type="Float64" Name="rhov">
          7.27500480e+00 7.27500480e+00 7.27500480e+00 7.27500480e+00 
        </DataArray>
        <DataArray type="Float64" Name="E">
          2.98706100e+05 2.98706100e+05 2.98706100e+05 2.98706100e+05 
        </DataArray>
      </PointData>
    </Piece>
    <Piece NumberOfPoints="4" NumberOfCells="3">
      <Points>
        <DataArray type="Float64" NumberOfComponents="3" format="ascii">
          6.28517449e-01 4.30175588e-02 0.00000000e+00 
6.38865948e-01 4.20984775e-02 0.00000000e+00 
6.49212897e-01 4.11624312e-02 0.00000000e+00 
6.59558356e-01 4.02097441e-02 0.00000000e+00 

        </DataArray>
      </Points>
      <Cells>
        <DataArray type="Int32" Name="connectivity" format="ascii">
0 1
1 2
2 3

        </DataArray>
        <DataArray type="Int32" Name="offsets" format="ascii">
2 4 6 
        </DataArray>
        <DataArray type="UInt8" Name="types" format="ascii">
3 3 3 
        </DataArray>
      </Cells>
      <PointData>
        <DataArray type="Float64" Name="rho">
          1.22500000e+00 1.22500000e+00 1.22500000e+00 1.22500000e+00 
        </DataArray>
        <DataArray type="Float64" Name="rhou">
          3.33408750e+02 3.33408750e+02 3.33408750e+02 3.33408750e+02 
        </DataArray>
        <DataArray type="Float64" Name="rhov">
          7.27500480e+00 7.27500480e+00 7.27500480e+00 7.27500480e+00 
        </DataArray>
        <DataArray type="Float64" Name="E">
          2.98706100e+05 2.98706100e+05 2.98706100e+05 2.98706100e+05 
        </DataArray>
      </PointData>
    </Piece>
    <Piece NumberOfPoints="4" NumberOfCells="3">
      <Points>
        <DataArray type="Float64" NumberOfComponents="3" format="ascii">
          6.59558356e-01 4.02097441e-02 0.00000000e+00 
6.69902325e-01 3.92407738e-02 0.00000000e+00 
6.80244744e-01 3.82556282e-02 0.00000000e+00 
6.90585554e-01 3.72543521e-02 0.00000000e+00 

        </DataArray>
      </Points>
      <Cells>
        <DataArray type="Int32" Name="connectivity" format="ascii">
0 1
1 2
2 3

        </DataArray>
        <DataArray type="Int32" Name="offsets" format="ascii">
2 4 6 
        </DataArray>
        <DataArray type="UInt8" Name="types" format="ascii">
3 3 3 
        </DataArray>
      </Cells>
      <PointData>
        <DataArray type="Float64" Name="rho">
          1.22500000e+00 1.22500000e+00 1.22500000e+00 1.22500000e+00 
        </DataArray>
        <DataArray type="Float64" Name="rhou">
          3.33408750e+02 3.33408750e+02 3.33408750e+02 3.33408750e+02 
        </DataArray>
        <DataArray type="Float64" Name="rhov">
          7.27500480e+00 7.27500480e+00 7.27500480e+00 7.27500480e+00 
        </DataArray>
        <DataArray type="Float64" Name="E">
          2.98706100e+05 2.98706100e+05 2.98706100e+05 2.98706100e+05 
        </DataArray>
      </PointData>
    </Piece>
    <Piece NumberOfPoints="4" NumberOfCells="3">
      <Points>
        <DataArray type="Float64" NumberOfComponents="3" format="ascii">
          6.90585554e-01 3.72543521e-02 0.00000000e+00 
7.00924933e-01 3.62373814e-02 0.00000000e+00 
7.11262703e-01 3.52048986e-02 0.00000000e+00 
7.21598923e-01 3.41568366e-02 0.00000000e+00 

        </DataArray>
      </Points>
      <Cells>
        <DataArray type="Int32" Name="connectivity" format="ascii">
0 1
1 2
2 3

        </DataArray>
        <DataArray type="Int32" Name="offsets" format="ascii">
2 4 6 
        </DataArray>
        <DataArray type="UInt8" Name="types" format="ascii">
3 3 3 
        </DataArray>
      </Cells>
      <PointData>
        <DataArray type="Float64" Name="rho">
          1.22500000e+00 1.22500000e+00 1.22500000e+00 1.22500000e+00 
        </DataArray>
        <DataArray type="Float64" Name="rhou">
          3.33408750e+02 3.33408750e+02 3.33408750e+02 3.33408750e+02 
        </DataArray>
        <DataArray type="Float64" Name="rhov">
          7.27500480e+00 7.27500480e+00 7.27500480e+00 7.27500480e+00 
        </DataArray>
        <DataArray type="Float64" Name="E">
          2.98706100e+05 2.98706100e+05 2.98706100e+05 2.98706100e+05 
        </DataArray>
      </PointData>
    </Piece>
    <Piece NumberOfPoints="4" NumberOfCells="3">
      <Points>
        <DataArray type="Float64" NumberOfComponents="3" format="ascii">
          7.21598923e-01 3.41568366e-02 0.00000000e+00 
7.31933594e-01 3.30936089e-02 0.00000000e+00 
7.42266715e-01 3.20154354e-02 0.00000000e+00 
7.52598286e-01 3.09220124e-02 0.00000000e+00 

        </DataArray>
      </Points>
      <Cells>
        <DataArray type="Int32" Name="connectivity" format="ascii">
0 1
1 2
2 3

        </DataArray>
        <DataArray type="Int32" Name="offsets" format="ascii">
2 4 6 
        </DataArray>
        <DataArray type="UInt8" Name="types" format="ascii">
3 3 3 
        </DataArray>
      </Cells>
      <PointData>
        <DataArray type="Float64" Name="rho">
          1.22500000e+00 1.22500000e+00 1.22500000e+00 1.22500000e+00 
        </DataArray>
        <DataArray type="Float64" Name="rhou">
          3.33408750e+02 3.33408750e+02 3.33408750e+02 3.33408750e+02 
        </DataArray>
        <DataArray type="Float64" Name="rhov">
          7.27500480e+00 7.27500480e+00 7.27500480e+00 7.27500480e+00 
        </DataArray>
        <DataArray type="Float64" Name="E">
          2.98706100e+05 2.98706100e+05 2.98706100e+05 2.98706100e+05 
        </DataArray>
      </PointData>
    </Piece>
    <Piece NumberOfPoints="4" NumberOfCells="3">
      <Points>
        <DataArray type="Float64" NumberOfComponents="3" format="ascii">
          7.52598286e-01 3.09220124e-02 0.00000000e+00 
7.62928188e-01 2.98135038e-02 0.00000000e+00 
7.73256481e-01 2.86899786e-02 0.00000000e+00 
7.83583105e-01 2.75512449e-02 0.00000000e+00 

        </DataArray>
      </Points>
      <Cells>
        <DataArray type="Int32" Name="connectivity" format="ascii">
0 1
1 2
2 3

        </DataArray>
        <DataArray type="Int32" Name="offsets" format="ascii">
2 4 6 
        </DataArray>
        <DataArray type="UInt8" Name="types" format="ascii">
3 3 3 
        </DataArray>
      </Cells>
      <PointData>
        <DataArray type="Float64" Name="rho">
          1.22500000e+00 1.22500000e+00 1.22500000e+00 1.22500000e+00 
        </DataArray>
        <DataArray type="Float64" Name="rhou">
          3.33408750e+02 3.33408750e+02 3.33408750e+02 3.33408750e+02 
        </DataArray>
        <DataArray type="Float64" Name="rhov">
          7.27500480e+00 7.27500480e+00 7.27500480e+00 7.27500480e+00 
        </DataArray>
        <DataArray type="Float64" Name="E">
          2.98706100e+05 2.98706100e+05 2.98706100e+05 2.98706100e+05 
        </DataArray>
      </PointData>
    </Piece>
    <Piece NumberOfPoints="4" NumberOfCells="3">
      <Points>
        <DataArray type="Float64" NumberOfComponents="3" format="ascii">
          7.83583105e-01 2.75512449e-02 0.00000000e+00 
7.93908060e-01 2.63975188e-02 0.00000000e+00 
8.04231405e-01 2.52291560e-02 0.00000000e+00 
8.14553022e-01 2.40457114e-02 0.00000000e+00 

        </DataArray>
      </Points>
      <Cells>
        <DataArray type="Int32" Name="connectivity" format="ascii">
0 1
1 2
2 3

        </DataArray>
        <DataArray type="Int32" Name="offsets" format="ascii">
2 4 6 
        </DataArray>
        <DataArray type="UInt8" Name="types" format="ascii">
3 3 3 
        </DataArray>
      </Cells>
      <PointData>
        <DataArray type="Float64" Name="rho">
          1.22500000e+00 1.22500000e+00 1.22500000e+00 1.22500000e+00 
        </DataArray>
        <DataArray type="Float64" Name="rhou">
          3.33408750e+02 3.33408750e+02 3.33408750e+02 3.33408750e+02 
        </DataArray>
        <DataArray type="Float64" Name="rhov">
          7.27500480e+00 7.27500480e+00 7.27500480e+00 7.27500480e+00 
        </DataArray>
        <DataArray type="Float64" Name="E">
          2.98706100e+05 2.98706100e+05 2.98706100e+05 2.98706100e+05 
        </DataArray>
      </PointData>
    </Piece>
    <Piece NumberOfPoints="4" NumberOfCells="3">
      <Points>
        <DataArray type="Float64" NumberOfComponents="3" format="ascii">
          8.14553022e-01 2.40457114e-02 0.00000000e+00 
8.24872792e-01 2.28467938e-02 0.00000000e+00 
8.35190892e-01 2.16327831e-02 0.00000000e+00 
8.45507145e-01 2.04038676e-02 0.00000000e+00 

        </DataArray>
      </Points>
      <Cells>
        <DataArray type="Int32" Name="connectivity" format="ascii">
0 1
1 2
2 3

        </DataArray>
        <DataArray type="Int32" Name="offsets" format="ascii">
2 4 6 
        </DataArray>
        <DataArray type="UInt8" Name="types" format="ascii">
3 3 3 
        </DataArray>
      </Cells>
      <PointData>
        <DataArray type="Float64" Name="rho">
          1.22500000e+00 1.22500000e+00 1.22500000e+00 1.22500000e+00 
        </DataArray>
        <DataArray type="Float64" Name="rhou">
          3.33408750e+02 3.33408750e+02 3.33408750e+02 3.33408750e+02 
        </DataArray>
        <DataArray type="Float64" Name="rhov">
          7.27500480e+00 7.27500480e+00 7.27500480e+00 7.27500480e+00 
        </DataArray>
        <DataArray type="Float64" Name="E">
          2.98706100e+05 2.98706100e+05 2.98706100e+05 2.98706100e+05 
        </DataArray>
      </PointData>
    </Piece>
    <Piece NumberOfPoints="4" NumberOfCells="3">
      <Points>
        <DataArray type="Float64" NumberOfComponents="3" format="ascii">
          8.45507145e-01 2.04038676e-02 0.00000000e+00 
8.55821550e-01 1.91591792e-02 0.00000000e+00 
8.66134048e-01 1.78987328e-02 0.00000000e+00 
8.76444638e-01 1.66228991e-02 0.00000000e+00 

        </DataArray>
      </Points>
      <Cells>
        <DataArray type="Int32" Name="connectivity" format="ascii">
0 1
1 2
2 3

        </DataArray>
        <DataArray type="Int32" Name="offsets" format="ascii">
2 4 6 
        </DataArray>
        <DataArray type="UInt8" Name="types" format="ascii">
3 3 3 
        </DataArray>
      </Cells>
      <PointData>
        <DataArray type="Float64" Name="rho">
          1.22500000e+00 1.22500000e+00 1.22500000e+00 1.22500000e+00 
        </DataArray>
        <DataArray type="Float64" Name="rhou">
          3.33408750e+02 3.33408750e+02 3.33408750e+02 3.33408750e+02 
        </DataArray>
        <DataArray type="Float64" Name="rhov">
          7.27500480e+00 7.27500480e+00 7.27500480e+00 7.27500480e+00 
        </DataArray>
        <DataArray type="Float64" Name="E">
          2.98706100e+05 2.98706100e+05 2.98706100e+05 2.98706100e+05 
        </DataArray>
      </PointData>
    </Piece>
    <Piece NumberOfPoints="4" NumberOfCells="3">
      <Points>
        <DataArray type="Float64" NumberOfComponents="3" format="ascii">
          8.76444638e-01 1.66228991e-02 0.00000000e+00 
8.86753201e-01 1.53310820e-02 0.00000000e+00 
8.97059798e-01 1.40233757e-02 0.00000000e+00 
9.07364249e-01 1.26988320e-02 0.00000000e+00 

        </DataArray>
      </Points>
      <Cells>
        <DataArray type="Int32" Name="connectivity" format="ascii">
0 1
1 2
2 3

        </DataArray>
        <DataArray type="Int32" Name="offsets" format="ascii">
2 4 6 
        </DataArray>
        <DataArray type="UInt8" Name="types" format="ascii">
3 3 3 
        </DataArray>
      </Cells>
      <PointData>
        <DataArray type="Float64" Name="rho">
          1.22500000e+00 1.22500000e+00 1.22500000e+00 1.22500000e+00 
        </DataArray>
        <DataArray type="Float64" Name="rhou">
          3.33408750e+02 3.33408750e+02 3.33408750e+02 3.33408750e+02 
        </DataArray>
        <DataArray type="Float64" Name="rhov">
          7.27500480e+00 7.27500480e+00 7.27500480e+00 7.27500480e+00 
        </DataArray>
        <DataArray type="Float64" Name="E">
          2.98706100e+05 2.98706100e+05 2.98706100e+05 2.98706100e+05 
        </DataArray>
      </PointData>
    </Piece>
    <Piece NumberOfPoints="4" NumberOfCells="3">
      <Points>
        <DataArray type="Float64" NumberOfComponents="3" format="ascii">
          9.07364249e-01 1.26988320e-02 0.00000000e+00 
9.17666554e-01 1.13577880e-02 0.00000000e+00 
9.27966774e-01 1.00004105e-02 0.00000000e+00 
9.38264549e-01 8.62528384e-03 0.00000000e+00 

        </DataArray>
      </Points>
      <Cells>
        <DataArray type="Int32" Name="connectivity" format="ascii">
0 1
1 2
2 3

        </DataArray>
        <DataArray type="Int32" Name="offsets" format="ascii">
2 4 6 
        </DataArray>
        <DataArray type="UInt8" Name="types" format="ascii">
3 3 3 
        </DataArray>
      </Cells>
      <PointData>
        <DataArray type="Float64" Name="rho">
          1.22500000e+00 1.22500000e+00 1.22500000e+00 1.22500000e+00 
        </DataArray>
        <DataArray type="Float64" Name="rhou">
          3.33408750e+02 3.33408750e+02 3.33408750e+02 3.33408750e+02 
        </DataArray>
        <DataArray type="Float64" Name="rhov">
          7.27500480e+00 7.27500480e+00 7.27500480e+00 7.27500480e+00 
        </DataArray>
        <DataArray type="Float64" Name="E">
          2.98706100e+05 2.98706100e+05 2.98706100e+05 2.98706100e+05 
        </DataArray>
      </PointData>
    </Piece>
    <Piece NumberOfPoints="4" NumberOfCells="3">
      <Points>
        <DataArray type="Float64" NumberOfComponents="3" format="ascii">
          9.38264549e-01 8.62528384e-03 0.00000000e+00 
9.48560059e-01 7.23283459e-03 0.00000000e+00 
9.58853185e-01 5.82307298e-03 0.00000000e+00 
9.69143867e-01 4.39538015e-03 0.00000000e+00 

        </DataArray>
      </Points>
      <Cells>
        <DataArray type="Int32" Name="connectivity" format="ascii">
0 1
1 2
2 3

        </DataArray>
        <DataArray type="Int32" Name="offsets" format="ascii">
2 4 6 
        </DataArray>
        <DataArray type="UInt8" Name="types" format="ascii">
3 3 3 
        </DataArray>
      </Cells>
      <PointData>
        <DataArray type="Float64" Name="rho">
          1.22500000e+00 1.22500000e+00 1.22500000e+00 1.22500000e+00 
        </DataArray>
        <DataArray type="Float64" Name="rhou">
          3.33408750e+02 3.33408750e+02 3.33408750e+02 3.33408750e+02 
        </DataArray>
        <DataArray type="Float64" Name="rhov">
          7.27500480e+00 7.27500480e+00 7.27500480e+00 7.27500480e+00 
        </DataArray>
        <DataArray type="Float64" Name="E">
          2.98706100e+05 2.98706100e+05 2.98706100e+05 2.98706100e+05 
        </DataArray>
      </PointData>
    </Piece>
    <Piece NumberOfPoints="4" NumberOfCells="3">
      <Points>
        <DataArray type="Float64" NumberOfComponents="3" format="ascii">
          9.69143867e-01 4.39538015e-03 0.00000000e+00 
9.79435980e-01 2.94816052e-03 0.00000000e+00 
9.89725590e-01 1.48259092e-03 0.00000000e+00 
1.00000000e+00 0.00000000e+00 0.00000000e+00 

        </DataArray>
      </Points>
      <Cells>
        <DataArray type="Int32" Name="connectivity" format="ascii">
0 1
1 2
2 3

        </DataArray>
        <DataArray type="Int32" Name="offsets" format="ascii">
2 4 6 
        </DataArray>
        <DataArray type="UInt8" Name="types" format="ascii">
3 3 3 
        </DataArray>
      </Cells>
      <PointData>
        <DataArray type="Float64" Name="rho">
          1.22500000e+00 1.22500000e+00 1.22500000e+00 1.22500000e+00 
        </DataArray>
        <DataArray type="Float64" Name="rhou">
          3.33408750e+02 3.33408750e+02 3.33408750e+02 3.33408750e+02 
        </DataArray>
        <DataArray type="Float64" Name="rhov">
          7.27500480e+00 7.27500480e+00 7.27500480e+00 7.27500480e+00 
        </DataArray>
        <DataArray type="Float64" Name="E">
          2.98706100e+05 2.98706100e+05 2.98706100e+05 2.98706100e+05 
        </DataArray>
      </PointData>
    </Piece>
    <Piece NumberOfPoints="4" NumberOfCells="3">
      <Points>
        <DataArray type="Float64" NumberOfComponents="3" format="ascii">
          9.69029665e-01 -4.41133138e-03 0.00000000e+00 
9.79355037e-01 -2.95961346e-03 0.00000000e+00 
9.89677846e-01 -1.48943183e-03 0.00000000e+00 
1.00000000e+00 0.00000000e+00 0.00000000e+00 

        </DataArray>
      </Points>
      <Cells>
        <DataArray type="Int32" Name="connectivity" format="ascii">
0 1
1 2
2 3

        </DataArray>
        <DataArray type="Int32" Name="offsets" format="ascii">
2 4 6 
        </DataArray>
        <DataArray type="UInt8" Name="types" format="ascii">
3 3 3 
        </DataArray>
      </Cells>
      <PointData>
        <DataArray type="Float64" Name="rho">
          1.22500000e+00 1.22500000e+00 1.22500000e+00 1.22500000e+00 
        </DataArray>
        <DataArray type="Float64" Name="rhou">
          3.33408750e+02 3.33408750e+02 3.33408750e+02 3.33408750e+02 
        </DataArray>
        <DataArray type="Float64" Name="rhov">
          7.27500480e+00 7.27500480e+00 7.27500480e+00 7.27500480e+00 
        </DataArray>
        <DataArray type="Float64" Name="E">
          2.98706100e+05 2.98706100e+05 2.98706100e+05 2.98706100e+05 
        </DataArray>
      </PointData>
    </Piece>
    <Piece NumberOfPoints="4" NumberOfCells="3">
      <Points>
        <DataArray type="Float64" NumberOfComponents="3" format="ascii">
          9.38035965e-01 -8.65600072e-03 0.00000000e+00 
9.48369622e-01 -7.25875143e-03 0.00000000e+00 
9.58700895e-01 -5.84406452e-03 0.00000000e+00 
9.69029665e-01 -4.41133138e-03 0.00000000e+00 

        </DataArray>
      </Points>
      <Cells>
        <DataArray type="Int32" Name="connectivity" format="ascii">
0 1
1 2
2 3

        </DataArray>
        <DataArray type="Int32" Name="offsets" format="ascii">
2 4 6 
        </DataArray>
        <DataArray type="UInt8" Name="types" format="ascii">
3 3 3 
        </DataArray>
      </Cells>
      <PointData>
        <DataArray type="Float64" Name="rho">
          1.22500000e+00 1.22500000e+00 1.22500000e+00 1.22500000e+00 
        </DataArray>
        <DataArray type="Float64" Name="rhou">
          3.33408750e+02 3.33408750e+02 3.33408750e+02 3.33408750e+02 
        </DataArray>
        <DataArray type="Float64" Name="rhov">
          7.27500480e+00 7.27500480e+00 7.27500480e+00 7.27500480e+00 
        </DataArray>
        <DataArray type="Float64" Name="E">
          2.98706100e+05 2.98706100e+05 2.98706100e+05 2.98706100e+05 
        </DataArray>
      </PointData>
    </Piece>
    <Piece NumberOfPoints="4" NumberOfCells="3">
      <Points>
        <DataArray type="Float64" NumberOfComponents="3" format="ascii">
          9.07021165e-01 -1.27432076e-02 0.00000000e+00 
9.17361677e-01 -1.13977119e-02 0.00000000e+00 
9.27700043e-01 -1.00357840e-02 0.00000000e+00 
9.38035965e-01 -8.65600072e-03 0.00000000e+00 

        </DataArray>
      </Points>
      <Cells>
        <DataArray type="Int32" Name="connectivity" format="ascii">
0 1
1 2
2 3

        </DataArray>
        <DataArray type="Int32" Name="offsets" format="ascii">
2 4 6 
        </DataArray>
        <DataArray type="UInt8" Name="types" format="ascii">
3 3 3 
        </DataArray>
      </Cells>
      <PointData>
        <DataArray type="Float64" Name="rho">
          1.22500000e+00 1.22500000e+00 1.22500000e+00 1.22500000e+00 
        </DataArray>
        <DataArray type="Float64" Name="rhou">
          3.33408750e+02 3.33408750e+02 3.33408750e+02 3.33408750e+02 
        </DataArray>
        <DataArray type="Float64" Name="rhov">
          7.27500480e+00 7.27500480e+00 7.27500480e+00 7.27500480e+00 
        </DataArray>
        <DataArray type="Float64" Name="E">
          2.98706100e+05 2.98706100e+05 2.98706100e+05 2.98706100e+05 
        </DataArray>
      </PointData>
    </Piece>
    <Piece NumberOfPoints="4" NumberOfCells="3">
      <Points>
        <DataArray type="Float64" NumberOfComponents="3" format="ascii">
          8.75986874e-01 -1.66798849e-02 0.00000000e+00 
8.86333704e-01 -1.53839625e-02 0.00000000e+00 
8.96678507e-01 -1.40720531e-02 0.00000000e+00 
9.07021165e-01 -1.27432076e-02 0.00000000e+00 

        </DataArray>
      </Points>
      <Cells>
        <DataArray type="Int32" Name="connectivity" format="ascii">
0 1
1 2
2 3

        </DataArray>
        <DataArray type="Int32" Name="offsets" format="ascii">
2 4 6 
        </DataArray>
        <DataArray type="UInt8" Name="types" format="ascii">
3 3 3 
        </DataArray>
      </Cells>
      <PointData>
        <DataArray type="Float64" Name="rho">
          1.22500000e+00 1.22500000e+00 1.22500000e+00 1.22500000e+00 
        </DataArray>
        <DataArray type="Float64" Name="rhou">
          3.33408750e+02 3.33408750e+02 3.33408750e+02 3.33408750e+02 
        </DataArray>
        <DataArray type="Float64" Name="rhov">
          7.27500480e+00 7.27500480e+00 7.27500480e+00 7.27500480e+00 
        </DataArray>
        <DataArray type="Float64" Name="E">
          2.98706100e+05 2.98706100e+05 2.98706100e+05 2.98706100e+05 
        </DataArray>
      </PointData>
    </Piece>
    <Piece NumberOfPoints="4" NumberOfCells="3">
      <Points>
        <DataArray type="Float64" NumberOfComponents="3" format="ascii">
          8.44934702e-01 -2.04724707e-02 0.00000000e+00 
8.55287313e-01 -1.92240477e-02 0.00000000e+00 
8.65638077e-01 -1.79597028e-02 0.00000000e+00 
8.75986874e-01 -1.66798849e-02 0.00000000e+00 

        </DataArray>
      </Points>
      <Cells>
        <DataArray type="Int32" Name="connectivity" format="ascii">
0 1
1 2
2 3

        </DataArray>
        <DataArray type="Int32" Name="offsets" format="ascii">
2 4 6 
        </DataArray>
        <DataArray type="UInt8" Name="types" format="ascii">
3 3 3 
        </DataArray>
      </Cells>
      <PointData>
        <DataArray type="Float64" Name="rho">
          1.22500000e+00 1.22500000e+00 1.22500000e+00 1.22500000e+00 
        </DataArray>
        <DataArray type="Float64" Name="rhou">
          3.33408750e+02 3.33408750e+02 3.33408750e+02 3.33408750e+02 
        </DataArray>
        <DataArray type="Float64" Name="rhov">
          7.27500480e+00 7.27500480e+00 7.27500480e+00 7.27500480e+00 
        </DataArray>
        <DataArray type="Float64" Name="E">
          2.98706100e+05 2.98706100e+05 2.98706100e+05 2.98706100e+05 
        </DataArray>
      </PointData>
    </Piece>
    <Piece NumberOfPoints="4" NumberOfCells="3">
      <Points>
        <DataArray type="Float64" NumberOfComponents="3" format="ascii">
          8.13865662e-01 -2.41250079e-02 0.00000000e+00 
8.24223816e-01 -2.29226518e-02 0.00000000e+00 
8.34580123e-01 -2.17050612e-02 0.00000000e+00 
8.44934702e-01 -2.04724707e-02 0.00000000e+00 

        </DataArray>
      </Points>
      <Cells>
        <DataArray type="Int32" Name="connectivity" format="ascii">
0 1
1 2
2 3

        </DataArray>
        <DataArray type="Int32" Name="offsets" format="ascii">
2 4 6 
        </DataArray>
        <DataArray type="UInt8" Name="types" format="ascii">
3 3 3 
        </DataArray>
      </Cells>
      <PointData>
        <DataArray type="Float64" Name="rho">
          1.22500000e+00 1.22500000e+00 1.22500000e+00 1.22500000e+00 
        </DataArray>
        <DataArray type="Float64" Name="rhou">
          3.33408750e+02 3.33408750e+02 3.33408750e+02 3.33408750e+02 
        </DataArray>
        <DataArray type="Float64" Name="rhov">
          7.27500480e+00 7.27500480e+00 7.27500480e+00 7.27500480e+00 
        </DataArray>
        <DataArray type="Float64" Name="E">
          2.98706100e+05 2.98706100e+05 2.98706100e+05 2.98706100e+05 
        </DataArray>
      </PointData>
    </Piece>
    <Piece NumberOfPoints="4" NumberOfCells="3">
      <Points>
        <DataArray type="Float64" NumberOfComponents="3" format="ascii">
          7.82780826e-01 -2.76402626e-02 0.00000000e+00 
7.93144107e-01 -2.64833923e-02 0.00000000e+00 
8.03505778e-01 -2.53117718e-02 0.00000000e+00 
8.13865662e-01 -2.41250079e-02 0.00000000e+00 

        </DataArray>
      </Points>
      <Cells>
        <DataArray type="Int32" Name="connectivity" format="ascii">
0 1
1 2
2 3

        </DataArray>
        <DataArray type="Int32" Name="offsets" format="ascii">
2 4 6 
        </DataArray>
        <DataArray type="UInt8" Name="types" format="ascii">
3 3 3 
        </DataArray>
      </Cells>
      <PointData>
        <DataArray type="Float64" Name="rho">
          1.22500000e+00 1.22500000e+00 1.22500000e+00 1.22500000e+00 
        </DataArray>
        <DataArray type="Float64" Name="rhou">
          3.33408750e+02 3.33408750e+02 3.33408750e+02 3.33408750e+02 
        </DataArray>
        <DataArray type="Float64" Name="rhov">
          7.27500480e+00 7.27500480e+00 7.27500480e+00 7.27500480e+00 
        </DataArray>
        <DataArray type="Float64" Name="E">
          2.98706100e+05 2.98706100e+05 2.98706100e+05 2.98706100e+05 
        </DataArray>
      </PointData>
    </Piece>
    <Piece NumberOfPoints="4" NumberOfCells="3">
      <Points>
        <DataArray type="Float64" NumberOfComponents="3" format="ascii">
          7.51680970e-01 -3.10197193e-02 0.00000000e+00 
7.62049198e-01 -2.99084149e-02 0.00000000e+00 
7.72415876e-01 -2.87819952e-02 0.00000000e+00 
7.82780826e-01 -2.76402626e-02 0.00000000e+00 

        </DataArray>
      </Points>
      <Cells>
        <DataArray type="Int32" Name="connectivity" format="ascii">
0 1
1 2
2 3

        </DataArray>
        <DataArray type="Int32" Name="offsets" format="ascii">
2 4 6 
        </DataArray>
        <DataArray type="UInt8" Name="types" format="ascii">
3 3 3 
        </DataArray>
      </Cells>
      <PointData>
        <DataArray type="Float64" Name="rho">
          1.22500000e+00 1.22500000e+00 1.22500000e+00 1.22500000e+00 
        </DataArray>
        <DataArray type="Float64" Name="rhou">
          3.33408750e+02 3.33408750e+02 3.33408750e+02 3.33408750e+02 
        </DataArray>
        <DataArray type="Float64" Name="rhov">
          7.27500480e+00 7.27500480e+00 7.27500480e+00 7.27500480e+00 
        </DataArray>
        <DataArray type="Float64" Name="E">
          2.98706100e+05 2.98706100e+05 2.98706100e+05 2.98706100e+05 
        </DataArray>
      </PointData>
    </Piece>
    <Piece NumberOfPoints="4" NumberOfCells="3">
      <Points>
        <DataArray type="Float64" NumberOfComponents="3" format="ascii">
          7.20566452e-01 -3.42622213e-02 0.00000000e+00 
7.30939507e-01 -3.31965312e-02 0.00000000e+00 
7.41311073e-01 -3.21157984e-02 0.00000000e+00 
7.51680970e-01 -3.10197193e-02 0.00000000e+00 

        </DataArray>
      </Points>
      <Cells>
        <DataArray type="Int32" Name="connectivity" format="ascii">
0 1
1 2
2 3

        </DataArray>
        <DataArray type="Int32" Name="offsets" format="ascii">
2 4 6 
        </DataArray>
        <DataArray type="UInt8" Name="types" format="ascii">
3 3 3 
        </DataArray>
      </Cells>
      <PointData>
        <DataArray type="Float64" Name="rho">
          1.22500000e+00 1.22500000e+00 1.22500000e+00 1.22500000e+00 
        </DataArray>
        <DataArray type="Float64" Name="rhou">
          3.33408750e+02 3.33408750e+02 3.33408750e+02 3.33408750e+02 
        </DataArray>
        <DataArray type="Float64" Name="rhov">
          7.27500480e+00 7.27500480e+00 7.27500480e+00 7.27500480e+00 
        </DataArray>
        <DataArray type="Float64" Name="E">
          2.98706100e+05 2.98706100e+05 2.98706100e+05 2.98706100e+05 
        </DataArray>
      </PointData>
    </Piece>
    <Piece NumberOfPoints="4" NumberOfCells="3">
      <Points>
        <DataArray type="Float64" NumberOfComponents="3" format="ascii">
          6.89437866e-01 -3.73662710e-02 0.00000000e+00 
6.99815631e-01 -3.63472365e-02 0.00000000e+00 
7.10191846e-01 -3.53125818e-02 0.00000000e+00 
7.20566452e-01 -3.42622213e-02 0.00000000e+00 

        </DataArray>
      </Points>
      <Cells>
        <DataArray type="Int32" Name="connectivity" format="ascii">
0 1
1 2
2 3

        </DataArray>
        <DataArray type="Int32" Name="offsets" format="ascii">
2 4 6 
        </DataArray>
        <DataArray type="UInt8" Name="types" format="ascii">
3 3 3 
        </DataArray>
      </Cells>
      <PointData>
        <DataArray type="Float64" Name="rho">
          1.22500000e+00 1.22500000e+00 1.22500000e+00 1.22500000e+00 
        </DataArray>
        <DataArray type="Float64" Name="rhou">
          3.33408750e+02 3.33408750e+02 3.33408750e+02 3.33408750e+02 
        </DataArray>
        <DataArray type="Float64" Name="rhov">
          7.27500480e+00 7.27500480e+00 7.27500480e+00 7.27500480e+00 
        </DataArray>
        <DataArray type="Float64" Name="E">
          2.98706100e+05 2.98706100e+05 2.98706100e+05 2.98706100e+05 
        </DataArray>
      </PointData>
    </Piece>
    <Piece NumberOfPoints="4" NumberOfCells="3">
      <Points>
        <DataArray type="Float64" NumberOfComponents="3" format="ascii">
          6.58295333e-01 -4.03269380e-02 0.00000000e+00 
6.68677747e-01 -3.93563360e-02 0.00000000e+00 
6.79058611e-01 -3.83694395e-02 0.00000000e+00 
6.89437866e-01 -3.73662710e-02 0.00000000e+00 

        </DataArray>
      </Points>
      <Cells>
        <DataArray type="Int32" Name="connectivity" format="ascii">
0 1
1 2
2 3

        </DataArray>
        <DataArray type="Int32" Name="offsets" format="ascii">
2 4 6 
        </DataArray>
        <DataArray type="UInt8" Name="types" format="ascii">
3 3 3 
        </DataArray>
      </Cells>
      <PointData>
        <DataArray type="Float64" Name="rho">
          1.22500000e+00 1.22500000e+00 1.22500000e+00 1.22500000e+00 
        </DataArray>
        <DataArray type="Float64" Name="rhou">
          3.33408750e+02 3.33408750e+02 3.33408750e+02 3.33408750e+02 
        </DataArray>
        <DataArray type="Float64" Name="rhov">
          7.27500480e+00 7.27500480e+00 7.27500480e+00 7.27500480e+00 
        </DataArray>
        <DataArray type="Float64" Name="E">
          2.98706100e+05 2.98706100e+05 2.98706100e+05 2.98706100e+05 
        </DataArray>
      </PointData>
    </Piece>
    <Piece NumberOfPoints="4" NumberOfCells="3">
      <Points>
        <DataArray type="Float64" NumberOfComponents="3" format="ascii">
          6.27138972e-01 -4.31386717e-02 0.00000000e+00 
6.37525976e-01 -4.22184542e-02 0.00000000e+00 
6.47911429e-01 -4.12811004e-02 0.00000000e+00 
6.58295333e-01 -4.03269380e-02 0.00000000e+00 

        </DataArray>
      </Points>
      <Cells>
        <DataArray type="Int32" Name="connectivity" format="ascii">
0 1
1 2
2 3

        </DataArray>
        <DataArray type="Int32" Name="offsets" format="ascii">
2 4 6 
        </DataArray>
        <DataArray type="UInt8" Name="types" format="ascii">
3 3 3 
        </DataArray>
      </Cells>
      <PointData>
        <DataArray type="Float64" Name="rho">
          1.22500000e+00 1.22500000e+00 1.22500000e+00 1.22500000e+00 
        </DataArray>
        <DataArray type="Float64" Name="rhou">
          3.33408750e+02 3.33408750e+02 3.33408750e+02 3.33408750e+02 
        </DataArray>
        <DataArray type="Float64" Name="rhov">
          7.27500480e+00 7.27500480e+00 7.27500480e+00 7.27500480e+00 
        </DataArray>
        <DataArray type="Float64" Name="E">
          2.98706100e+05 2.98706100e+05 2.98706100e+05 2.98706100e+05 
        </DataArray>
      </PointData>
    </Piece>
    <Piece NumberOfPoints="4" NumberOfCells="3">
      <Points>
        <DataArray type="Float64" NumberOfComponents="3" format="ascii">
          5.95968783e-01 -4.57924642e-02 0.00000000e+00 
6.06360376e-01 -4.49259281e-02 0.00000000e+00 
6.16750479e-01 -4.40412909e-02 0.00000000e+00 
6.27138972e-01 -4.31386717e-02 0.00000000e+00 

        </DataArray>
      </Points>
      <Cells>
        <DataArray type="Int32" Name="connectivity" format="ascii">
0 1
1 2
2 3

        </DataArray>
        <DataArray type="Int32" Name="offsets" format="ascii">
2 4 6 
        </DataArray>
        <DataArray type="UInt8" Name="types" format="ascii">
3 3 3 
        </DataArray>
      </Cells>
      <PointData>
        <DataArray type="Float64" Name="rho">
          1.22500000e+00 1.22500000e+00 1.22500000e+00 1.22500000e+00 
        </DataArray>
        <DataArray type="Float64" Name="rhou">
          3.33408750e+02 3.33408750e+02 3.33408750e+02 3.33408750e+02 
        </DataArray>
        <DataArray type="Float64" Name="rhov">
          7.27500480e+00 7.27500480e+00 7.27500480e+00 7.27500480e+00 
        </DataArray>
        <DataArray type="Float64" Name="E">
          2.98706100e+05 2.98706100e+05 2.98706100e+05 2.98706100e+05 
        </DataArray>
      </PointData>
    </Piece>
    <Piece NumberOfPoints="4" NumberOfCells="3">
      <Points>
        <DataArray type="Float64" NumberOfComponents="3" format="ascii">
          5.64784765e-01 -4.82786149e-02 0.00000000e+00 
5.75181007e-01 -4.74695377e-02 0.00000000e+00 
5.85575700e-01 -4.66405638e-02 0.00000000e+00 
5.95968783e-01 -4.57924642e-02 0.00000000e+00 

        </DataArray>
      </Points>
      <Cells>
        <DataArray type="Int32" Name="connectivity" format="ascii">
0 1
1 2
2 3

        </DataArray>
        <DataArray type="Int32" Name="offsets" format="ascii">
2 4 6 
        </DataArray>
        <DataArray type="UInt8" Name="types" format="ascii">
3 3 3 
        </DataArray>
      </Cells>
      <PointData>
        <DataArray type="Float64" Name="rho">
          1.22500000e+00 1.22500000e+00 1.22500000e+00 1.22500000e+00 
        </DataArray>
        <DataArray type="Float64" Name="rhou">
          3.33408750e+02 3.33408750e+02 3.33408750e+02 3.33408750e+02 
        </DataArray>
        <DataArray type="Float64" Name="rhov">
          7.27500480e+00 7.27500480e+00 7.27500480e+00 7.27500480e+00 
        </DataArray>
        <DataArray type="Float64" Name="E">
          2.98706100e+05 2.98706100e+05 2.98706100e+05 2.98706100e+05 
        </DataArray>
      </PointData>
    </Piece>
    <Piece NumberOfPoints="4" NumberOfCells="3">
      <Points>
        <DataArray type="Float64" NumberOfComponents="3" format="ascii">
          5.33586800e-01 -5.05827516e-02 0.00000000e+00 
5.43987691e-01 -4.98356484e-02 0.00000000e+00 
5.54387033e-01 -4.90674041e-02 0.00000000e+00 
5.64784765e-01 -4.82786149e-02 0.00000000e+00 

        </DataArray>
      </Points>
      <Cells>
        <DataArray type="Int32" Name="connectivity" format="ascii">
0 1
1 2
2 3

        </DataArray>
        <DataArray type="Int32" Name="offsets" format="ascii">
2 4 6 
        </DataArray>
        <DataArray type="UInt8" Name="types" format="ascii">
3 3 3 
        </DataArray>
      </Cells>
      <PointData>
        <DataArray type="Float64" Name="rho">
          1.22500000e+00 1.22500000e+00 1.22500000e+00 1.22500000e+00 
        </DataArray>
        <DataArray type="Float64" Name="rhou">
          3.33408750e+02 3.33408750e+02 3.33408750e+02 3.33408750e+02 
        </DataArray>
        <DataArray type="Float64" Name="rhov">
          7.27500480e+00 7.27500480e+00 7.27500480e+00 7.27500480e+00 
        </DataArray>
        <DataArray type="Float64" Name="E">
          2.98706100e+05 2.98706100e+05 2.98706100e+05 2.98706100e+05 
        </DataArray>
      </PointData>
    </Piece>
    <Piece NumberOfPoints="4" NumberOfCells="3">
      <Points>
        <DataArray type="Float64" NumberOfComponents="3" format="ascii">
          5.02374947e-01 -5.26902266e-02 0.00000000e+00 
5.12780428e-01 -5.20105064e-02 0.00000000e+00 
5.23184419e-01 -5.13078682e-02 0.00000000e+00 
5.33586800e-01 -5.05827516e-02 0.00000000e+00 

        </DataArray>
      </Points>
      <Cells>
        <DataArray type="Int32" Name="connectivity" format="ascii">
0 1
1 2
2 3

        </DataArray>
        <DataArray type="Int32" Name="offsets" format="ascii">
2 4 6 
        </DataArray>
        <DataArray type="UInt8" Name="types" format="ascii">
3 3 3 
        </DataArray>
      </Cells>
      <PointData>
        <DataArray type="Float64" Name="rho">
          1.22500000e+00 1.22500000e+00 1.22500000e+00 1.22500000e+00 
        </DataArray>
        <DataArray type="Float64" Name="rhou">
          3.33408750e+02 3.33408750e+02 3.33408750e+02 3.33408750e+02 
        </DataArray>
        <DataArray type="Float64" Name="rhov">
          7.27500480e+00 7.27500480e+00 7.27500480e+00 7.27500480e+00 
        </DataArray>
        <DataArray type="Float64" Name="E">
          2.98706100e+05 2.98706100e+05 2.98706100e+05 2.98706100e+05 
        </DataArray>
      </PointData>
    </Piece>
    <Piece NumberOfPoints="4" NumberOfCells="3">
      <Points>
        <DataArray type="Float64" NumberOfComponents="3" format="ascii">
          4.71149325e-01 -5.45825884e-02 0.00000000e+00 
4.81559396e-01 -5.39771840e-02 0.00000000e+00 
4.91967946e-01 -5.33461571e-02 0.00000000e+00 
5.02374947e-01 -5.26902266e-02 0.00000000e+00 

        </DataArray>
      </Points>
      <Cells>
        <DataArray type="Int32" Name="connectivity" format="ascii">
0 1
1 2
2 3

        </DataArray>
        <DataArray type="Int32" Name="offsets" format="ascii">
2 4 6 
        </DataArray>
        <DataArray type="UInt8" Name="types" format="ascii">
3 3 3 
        </DataArray>
      </Cells>
      <PointData>
        <DataArray type="Float64" Name="rho">
          1.22500000e+00 1.22500000e+00 1.22500000e+00 1.22500000e+00 
        </DataArray>
        <DataArray type="Float64" Name="rhou">
          3.33408750e+02 3.33408750e+02 3.33408750e+02 3.33408750e+02 
        </DataArray>
        <DataArray type="Float64" Name="rhov">
          7.27500480e+00 7.27500480e+00 7.27500480e+00 7.27500480e+00 
        </DataArray>
        <DataArray type="Float64" Name="E">
          2.98706100e+05 2.98706100e+05 2.98706100e+05 2.98706100e+05 
        </DataArray>
      </PointData>
    </Piece>
    <Piece NumberOfPoints="4" NumberOfCells="3">
      <Points>
        <DataArray type="Float64" NumberOfComponents="3" format="ascii">
          4.39910263e-01 -5.62384278e-02 0.00000000e+00 
4.50324744e-01 -5.57143167e-02 0.00000000e+00 
4.60737765e-01 -5.51619194e-02 0.00000000e+00 
4.71149325e-01 -5.45825884e-02 0.00000000e+00 

        </DataArray>
      </Points>
      <Cells>
        <DataArray type="Int32" Name="connectivity" format="ascii">
0 1
1 2
2 3

        </DataArray>
        <DataArray type="Int32" Name="offsets" format="ascii">
2 4 6 
        </DataArray>
        <DataArray type="UInt8" Name="types" format="ascii">
3 3 3 
        </DataArray>
      </Cells>
      <PointData>
        <DataArray type="Float64" Name="rho">
          1.22500000e+00 1.22500000e+00 1.22500000e+00 1.22500000e+00 
        </DataArray>
        <DataArray type="Float64" Name="rhou">
          3.33408750e+02 3.33408750e+02 3.33408750e+02 3.33408750e+02 
        </DataArray>
        <DataArray type="Float64" Name="rhov">
          7.27500480e+00 7.27500480e+00 7.27500480e+00 7.27500480e+00 
        </DataArray>
        <DataArray type="Float64" Name="E">
          2.98706100e+05 2.98706100e+05 2.98706100e+05 2.98706100e+05 
        </DataArray>
      </PointData>
    </Piece>
    <Piece NumberOfPoints="4" NumberOfCells="3">
      <Points>
        <DataArray type="Float64" NumberOfComponents="3" format="ascii">
          4.08658355e-01 -5.76302819e-02 0.00000000e+00 
4.19077009e-01 -5.71971126e-02 0.00000000e+00 
4.29494321e-01 -5.67329265e-02 0.00000000e+00 
4.39910263e-01 -5.62384278e-02 0.00000000e+00 

        </DataArray>
      </Points>
      <Cells>
        <DataArray type="Int32" Name="connectivity" format="ascii">
0 1
1 2
2 3

        </DataArray>
        <DataArray type="Int32" Name="offsets" format="ascii">
2 4 6 
        </DataArray>
        <DataArray type="UInt8" Name="types" format="ascii">
3 3 3 
        </DataArray>
      </Cells>
      <PointData>
        <DataArray type="Float64" Name="rho">
          1.22500000e+00 1.22500000e+00 1.22500000e+00 1.22500000e+00 
        </DataArray>
        <DataArray type="Float64" Name="rhou">
          3.33408750e+02 3.33408750e+02 3.33408750e+02 3.33408750e+02 
        </DataArray>
        <DataArray type="Float64" Name="rhov">
          7.27500480e+00 7.27500480e+00 7.27500480e+00 7.27500480e+00 
        </DataArray>
        <DataArray type="Float64" Name="E">
          2.98706100e+05 2.98706100e+05 2.98706100e+05 2.98706100e+05 
        </DataArray>
      </PointData>
    </Piece>
    <Piece NumberOfPoints="4" NumberOfCells="3">
      <Points>
        <DataArray type="Float64" NumberOfComponents="3" format="ascii">
          3.77394795e-01 -5.87291755e-02 0.00000000e+00 
3.87817174e-01 -5.83979115e-02 0.00000000e+00 
3.98238391e-01 -5.80311492e-02 0.00000000e+00 
4.08658355e-01 -5.76302819e-02 0.00000000e+00 

        </DataArray>
      </Points>
      <Cells>
        <DataArray type="Int32" Name="connectivity" format="ascii">
0 1
1 2
2 3

        </DataArray>
        <DataArray type="Int32" Name="offsets" format="ascii">
2 4 6 
        </DataArray>
        <DataArray type="UInt8" Name="types" format="ascii">
3 3 3 
        </DataArray>
      </Cells>
      <PointData>
        <DataArray type="Float64" Name="rho">
          1.22500000e+00 1.22500000e+00 1.22500000e+00 1.22500000e+00 
        </DataArray>
        <DataArray type="Float64" Name="rhou">
          3.33408750e+02 3.33408750e+02 3.33408750e+02 3.33408750e+02 
        </DataArray>
        <DataArray type="Float64" Name="rhov">
          7.27500480e+00 7.27500480e+00 7.27500480e+00 7.27500480e+00 
        </DataArray>
        <DataArray type="Float64" Name="E">
          2.98706100e+05 2.98706100e+05 2.98706100e+05 2.98706100e+05 
        </DataArray>
      </PointData>
    </Piece>
    <Piece NumberOfPoints="4" NumberOfCells="3">
      <Points>
        <DataArray type="Float64" NumberOfComponents="3" format="ascii">
          3.46121490e-01 -5.95011823e-02 0.00000000e+00 
3.56546819e-01 -5.92821389e-02 0.00000000e+00 
3.66971314e-01 -5.90242445e-02 0.00000000e+00 
3.77394795e-01 -5.87291755e-02 0.00000000e+00 

        </DataArray>
      </Points>
      <Cells>
        <DataArray type="Int32" Name="connectivity" format="ascii">
0 1
1 2
2 3

        </DataArray>
        <DataArray type="Int32" Name="offsets" format="ascii">
2 4 6 
        </DataArray>
        <DataArray type="UInt8" Name="types" format="ascii">
3 3 3 
        </DataArray>
      </Cells>
      <PointData>
        <DataArray type="Float64" Name="rho">
          1.22500000e+00 1.22500000e+00 1.22500000e+00 1.22500000e+00 
        </DataArray>
        <DataArray type="Float64" Name="rhou">
          3.33408750e+02 3.33408750e+02 3.33408750e+02 3.33408750e+02 
        </DataArray>
        <DataArray type="Float64" Name="rhov">
          7.27500480e+00 7.27500480e+00 7.27500480e+00 7.27500480e+00 
        </DataArray>
        <DataArray type="Float64" Name="E">
          2.98706100e+05 2.98706100e+05 2.98706100e+05 2.98706100e+05 
        </DataArray>
      </PointData>
    </Piece>
    <Piece NumberOfPoints="4" NumberOfCells="3">
      <Points>
        <DataArray type="Float64" NumberOfComponents="3" format="ascii">
          3.14841360e-01 -5.99102043e-02 0.00000000e+00 
3.25268596e-01 -5.98174632e-02 0.00000000e+00 
3.35695356e-01 -5.96801341e-02 0.00000000e+00 
3.46121490e-01 -5.95011823e-02 0.00000000e+00 

        </DataArray>
      </Points>
      <Cells>
        <DataArray type="Int32" Name="connectivity" format="ascii">
0 1
1 2
2 3

        </DataArray>
        <DataArray type="Int32" Name="offsets" format="ascii">
2 4 6 
        </DataArray>
        <DataArray type="UInt8" Name="types" format="ascii">
3 3 3 
        </DataArray>
      </Cells>
      <PointData>
        <DataArray type="Float64" Name="rho">
          1.22500000e+00 1.22500000e+00 1.22500000e+00 1.22500000e+00 
        </DataArray>
        <DataArray type="Float64" Name="rhou">
          3.33408750e+02 3.33408750e+02 3.33408750e+02 3.33408750e+02 
        </DataArray>
        <DataArray type="Float64" Name="rhov">
          7.27500480e+00 7.27500480e+00 7.27500480e+00 7.27500480e+00 
        </DataArray>
        <DataArray type="Float64" Name="E">
          2.98706100e+05 2.98706100e+05 2.98706100e+05 2.98706100e+05 
        </DataArray>
      </PointData>
    </Piece>
    <Piece NumberOfPoints="4" NumberOfCells="3">
      <Points>
        <DataArray type="Float64" NumberOfComponents="3" format="ascii">
          2.83558637e-01 -5.98983802e-02 0.00000000e+00 
2.93986142e-01 -5.99516556e-02 0.00000000e+00 
3.04413795e-01 -5.99554181e-02 0.00000000e+00 
3.14841360e-01 -5.99102043e-02 0.00000000e+00 

        </DataArray>
      </Points>
      <Cells>
        <DataArray type="Int32" Name="connectivity" format="ascii">
0 1
1 2
2 3

        </DataArray>
        <DataArray type="Int32" Name="offsets" format="ascii">
2 4 6 
        </DataArray>
        <DataArray type="UInt8" Name="types" format="ascii">
3 3 3 
        </DataArray>
      </Cells>
      <PointData>
        <DataArray type="Float64" Name="rho">
          1.22500000e+00 1.22500000e+00 1.22500000e+00 1.22500000e+00 
        </DataArray>
        <DataArray type="Float64" Name="rhou">
          3.33408750e+02 3.33408750e+02 3.33408750e+02 3.33408750e+02 
        </DataArray>
        <DataArray type="Float64" Name="rhov">
          7.27500480e+00 7.27500480e+00 7.27500480e+00 7.27500480e+00 
        </DataArray>
        <DataArray type="Float64" Name="E">
          2.98706100e+05 2.98706100e+05 2.98706100e+05 2.98706100e+05 
        </DataArray>
      </PointData>
    </Piece>
    <Piece NumberOfPoints="4" NumberOfCells="3">
      <Points>
        <DataArray type="Float64" NumberOfComponents="3" format="ascii">
          2.52279758e-01 -5.94130717e-02 0.00000000e+00 
2.62705088e-01 -5.96327744e-02 0.00000000e+00 
2.73131490e-01 -5.97934239e-02 0.00000000e+00 
2.83558637e-01 -5.98983802e-02 0.00000000e+00 

        </DataArray>
      </Points>
      <Cells>
        <DataArray type="Int32" Name="connectivity" format="ascii">
0 1
1 2
2 3

        </DataArray>
        <DataArray type="Int32" Name="offsets" format="ascii">
2 4 6 
        </DataArray>
        <DataArray type="UInt8" Name="types" format="ascii">
3 3 3 
        </DataArray>
      </Cells>
      <PointData>
        <DataArray type="Float64" Name="rho">
          1.22500000e+00 1.22500000e+00 1.22500000e+00 1.22500000e+00 
        </DataArray>
        <DataArray type="Float64" Name="rhou">
          3.33408750e+02 3.33408750e+02 3.33408750e+02 3.33408750e+02 
        </DataArray>
        <DataArray type="Float64" Name="rhov">
          7.27500480e+00 7.27500480e+00 7.27500480e+00 7.27500480e+00 
        </DataArray>
        <DataArray type="Float64" Name="E">
          2.98706100e+05 2.98706100e+05 2.98706100e+05 2.98706100e+05 
        </DataArray>
      </PointData>
    </Piece>
    <Piece NumberOfPoints="4" NumberOfCells="3">
      <Points>
        <DataArray type="Float64" NumberOfComponents="3" format="ascii">
          2.21014455e-01 -5.83752058e-02 0.00000000e+00 
2.31433928e-01 -5.87876961e-02 0.00000000e+00 
2.41855890e-01 -5.91322705e-02 0.00000000e+00 
2.52279758e-01 -5.94130717e-02 0.00000000e+00 

        </DataArray>
      </Points>
      <Cells>
        <DataArray type="Int32" Name="connectivity" format="ascii">
0 1
1 2
2 3

        </DataArray>
        <DataArray type="Int32" Name="offsets" format="ascii">
2 4 6 
        </DataArray>
        <DataArray type="UInt8" Name="types" format="ascii">
3 3 3 
        </DataArray>
      </Cells>
      <PointData>
        <DataArray type="Float64" Name="rho">
          1.22500000e+00 1.22500000e+00 1.22500000e+00 1.22500000e+00 
        </DataArray>
        <DataArray type="Float64" Name="rhou">
          3.33408750e+02 3.33408750e+02 3.33408750e+02 3.33408750e+02 
        </DataArray>
        <DataArray type="Float64" Name="rhov">
          7.27500480e+00 7.27500480e+00 7.27500480e+00 7.27500480e+00 
        </DataArray>
        <DataArray type="Float64" Name="E">
          2.98706100e+05 2.98706100e+05 2.98706100e+05 2.98706100e+05 
        </DataArray>
      </PointData>
    </Piece>
    <Piece NumberOfPoints="4" NumberOfCells="3">
      <Points>
        <DataArray type="Float64" NumberOfComponents="3" format="ascii">
          1.89777538e-01 -5.66898957e-02 0.00000000e+00 
2.00185493e-01 -5.73302582e-02 0.00000000e+00 
2.10598081e-01 -5.78906052e-02 0.00000000e+00 
2.21014455e-01 -5.83752058e-02 0.00000000e+00 

        </DataArray>
      </Points>
      <Cells>
        <DataArray type="Int32" Name="connectivity" format="ascii">
0 1
1 2
2 3

        </DataArray>
        <DataArray type="Int32" Name="offsets" format="ascii">
2 4 6 
        </DataArray>
        <DataArray type="UInt8" Name="types" format="ascii">
3 3 3 
        </DataArray>
      </Cells>
      <PointData>
        <DataArray type="Float64" Name="rho">
          1.22500000e+00 1.22500000e+00 1.22500000e+00 1.22500000e+00 
        </DataArray>
        <DataArray type="Float64" Name="rhou">
          3.33408750e+02 3.33408750e+02 3.33408750e+02 3.33408750e+02 
        </DataArray>
        <DataArray type="Float64" Name="rhov">
          7.27500480e+00 7.27500480e+00 7.27500480e+00 7.27500480e+00 
        </DataArray>
        <DataArray type="Float64" Name="E">
          2.98706100e+05 2.98706100e+05 2.98706100e+05 2.98706100e+05 
        </DataArray>
      </PointData>
    </Piece>
    <Piece NumberOfPoints="4" NumberOfCells="3">
      <Points>
        <DataArray type="Float64" NumberOfComponents="3" format="ascii">
          1.58592433e-01 -5.42296544e-02 0.00000000e+00 
1.68979734e-01 -5.51457107e-02 0.00000000e+00 
1.79375216e-01 -5.59638515e-02 0.00000000e+00 
1.89777538e-01 -5.66898957e-02 0.00000000e+00 

        </DataArray>
      </Points>
      <Cells>
        <DataArray type="Int32" Name="connectivity" format="ascii">
0 1
1 2
2 3

        </DataArray>
        <DataArray type="Int32" Name="offsets" format="ascii">
2 4 6 
        </DataArray>
        <DataArray type="UInt8" Name="types" format="ascii">
3 3 3 
        </DataArray>
      </Cells>
      <PointData>
        <DataArray type="Float64" Name="rho">
          1.22500000e+00 1.22500000e+00 1.22500000e+00 1.22500000e+00 
        </DataArray>
        <DataArray type="Float64" Name="rhou">
          3.33408750e+02 3.33408750e+02 3.33408750e+02 3.33408750e+02 
        </DataArray>
        <DataArray type="Float64" Name="rhov">
          7.27500480e+00 7.27500480e+00 7.27500480e+00 7.27500480e+00 
        </DataArray>
        <DataArray type="Float64" Name="E">
          2.98706100e+05 2.98706100e+05 2.98706100e+05 2.98706100e+05 
        </DataArray>
      </PointData>
    </Piece>
    <Piece NumberOfPoints="4" NumberOfCells="3">
      <Points>
        <DataArray type="Float64" NumberOfComponents="3" format="ascii">
          1.27497971e-01 -5.08146733e-02 0.00000000e+00 
1.37849152e-01 -5.20747155e-02 0.00000000e+00 
1.48214847e-01 -5.32093942e-02 0.00000000e+00 
1.58592433e-01 -5.42296544e-02 0.00000000e+00 

        </DataArray>
      </Points>
      <Cells>
        <DataArray type="Int32" Name="connectivity" format="ascii">
0 1
1 2
2 3

        </DataArray>
        <DataArray type="Int32" Name="offsets" format="ascii">
2 4 6 
        </DataArray>
        <DataArray type="UInt8" Name="types" format="ascii">
3 3 3 
        </DataArray>
      </Cells>
      <PointData>
        <DataArray type="Float64" Name="rho">
          1.22500000e+00 1.22500000e+00 1.22500000e+00 1.22500000e+00 
        </DataArray>
        <DataArray type="Float64" Name="rhou">
          3.33408750e+02 3.33408750e+02 3.33408750e+02 3.33408750e+02 
        </DataArray>
        <DataArray type="Float64" Name="rhov">
          7.27500480e+00 7.27500480e+00 7.27500480e+00 7.27500480e+00 
        </DataArray>
        <DataArray type="Float64" Name="E">
          2.98706100e+05 2.98706100e+05 2.98706100e+05 2.98706100e+05 
        </DataArray>
      </PointData>
    </Piece>
    <Piece NumberOfPoints="4" NumberOfCells="3">
      <Points>
        <DataArray type="Float64" NumberOfComponents="3" format="ascii">
          9.65642184e-02 -4.61716652e-02 0.00000000e+00 
1.06852271e-01 -4.78802323e-02 0.00000000e+00 
1.17164567e-01 -4.94215861e-02 0.00000000e+00 
1.27497971e-01 -5.08146733e-02 0.00000000e+00 

        </DataArray>
      </Points>
      <Cells>
        <DataArray type="Int32" Name="connectivity" format="ascii">
0 1
1 2
2 3

        </DataArray>
        <DataArray type="Int32" Name="offsets" format="ascii">
2 4 6 
        </DataArray>
        <DataArray type="UInt8" Name="types" format="ascii">
3 3 3 
        </DataArray>
      </Cells>
      <PointData>
        <DataArray type="Float64" Name="rho">
          1.22500000e+00 1.22500000e+00 1.22500000e+00 1.22500000e+00 
        </DataArray>
        <DataArray type="Float64" Name="rhou">
          3.33408750e+02 3.33408750e+02 3.33408750e+02 3.33408750e+02 
        </DataArray>
        <DataArray type="Float64" Name="rhov">
          7.27500480e+00 7.27500480e+00 7.27500480e+00 7.27500480e+00 
        </DataArray>
        <DataArray type="Float64" Name="E">
          2.98706100e+05 2.98706100e+05 2.98706100e+05 2.98706100e+05 
        </DataArray>
      </PointData>
    </Piece>
  </UnstructuredGrid>
</VTKFile>
