<?xml version="1.0"?>
<VTKFile type="UnstructuredGrid" version="0.1" byte_order="LittleEndian">
  <UnstructuredGrid>
    <Piece NumberOfPoints="4" NumberOfCells="3">
      <Points>
        <DataArray type="Float64" NumberOfComponents="3" format="ascii">
          9.65642184e-02 -4.61716652e-02 0.00000000e+00 
9.26280916e-02 -4.54656407e-02 0.00000000e+00 
8.86965096e-02 -4.47326750e-02 0.00000000e+00 
8.47706869e-02 -4.39694971e-02 0.00000000e+00 

        </DataArray>
      </Points>
      <Cells>
        <DataArray type="Int32" Name="connectivity" format="ascii">
0 1
1 2
2 3

        </DataArray>
        <DataArray type="Int32" Name="offsets" format="ascii">
2 4 6 
        </DataArray>
        <DataArray type="UInt8" Name="types" format="ascii">
3 3 3 
        </DataArray>
      </Cells>
      <PointData>
        <DataArray type="Float64" Name="rho">
          1.03408460e+00 1.04098653e+00 1.04820312e+00 1.05586643e+00 
        </DataArray>
        <DataArray type="Float64" Name="rhou">
          2.82850286e-02 2.17771332e-02 2.44246346e-02 2.45923473e-02 
        </DataArray>
        <DataArray type="Float64" Name="rhov">
          -2.24299940e-03 -1.02725911e-03 -6.14480442e-04 -9.25766064e-04 
        </DataArray>
        <DataArray type="Float64" Name="E">
          2.36238088e+05 2.37889095e+05 2.39617014e+05 2.41452241e+05 
        </DataArray>
      </PointData>
    </Piece>
    <Piece NumberOfPoints="4" NumberOfCells="3">
      <Points>
        <DataArray type="Float64" NumberOfComponents="3" format="ascii">
          8.47706869e-02 -4.39694971e-02 0.00000000e+00 
8.08513016e-02 -4.31745499e-02 0.00000000e+00 
7.69388378e-02 -4.23462167e-02 0.00000000e+00 
7.30340332e-02 -4.14824970e-02 0.00000000e+00 

        </DataArray>
      </Points>
      <Cells>
        <DataArray type="Int32" Name="connectivity" format="ascii">
0 1
1 2
2 3

        </DataArray>
        <DataArray type="Int32" Name="offsets" format="ascii">
2 4 6 
        </DataArray>
        <DataArray type="UInt8" Name="types" format="ascii">
3 3 3 
        </DataArray>
      </Cells>
      <PointData>
        <DataArray type="Float64" Name="rho">
          1.05586524e+00 1.06395659e+00 1.07251141e+00 1.08159951e+00 
        </DataArray>
        <DataArray type="Float64" Name="rhou">
          2.46856890e-02 2.38542382e-02 2.24357786e-02 2.08603748e-02 
        </DataArray>
        <DataArray type="Float64" Name="rhov">
          -7.31267664e-04 -5.17677389e-04 3.96381674e-04 1.59855482e-03 
        </DataArray>
        <DataArray type="Float64" Name="E">
          2.41451976e+05 2.43391683e+05 2.45443749e+05 2.47624943e+05 
        </DataArray>
      </PointData>
    </Piece>
    <Piece NumberOfPoints="4" NumberOfCells="3">
      <Points>
        <DataArray type="Float64" NumberOfComponents="3" format="ascii">
          7.30340332e-02 -4.14824970e-02 0.00000000e+00 
6.91377968e-02 -4.05809283e-02 0.00000000e+00 
6.52511865e-02 -3.96387354e-02 0.00000000e+00 
6.13753870e-02 -3.86530459e-02 0.00000000e+00 

        </DataArray>
      </Points>
      <Cells>
        <DataArray type="Int32" Name="connectivity" format="ascii">
0 1
1 2
2 3

        </DataArray>
        <DataArray type="Int32" Name="offsets" format="ascii">
2 4 6 
        </DataArray>
        <DataArray type="UInt8" Name="types" format="ascii">
3 3 3 
        </DataArray>
      </Cells>
      <PointData>
        <DataArray type="Float64" Name="rho">
          1.08160011e+00 1.09130502e+00 1.10165849e+00 1.11272011e+00 
        </DataArray>
        <DataArray type="Float64" Name="rhou">
          2.09776713e-02 1.86181238e-02 1.45072797e-02 8.99360435e-03 
        </DataArray>
        <DataArray type="Float64" Name="rhov">
          1.43296441e-03 2.18736264e-03 4.28076848e-03 7.48407628e-03 
        </DataArray>
        <DataArray type="Float64" Name="E">
          2.47625104e+05 2.49956543e+05 2.52445442e+05 2.55106813e+05 
        </DataArray>
      </PointData>
    </Piece>
    <Piece NumberOfPoints="4" NumberOfCells="3">
      <Points>
        <DataArray type="Float64" NumberOfComponents="3" format="ascii">
          6.13753870e-02 -3.86530459e-02 0.00000000e+00 
5.75117208e-02 -3.76208089e-02 0.00000000e+00 
5.36618084e-02 -3.65384258e-02 0.00000000e+00 
4.98276278e-02 -3.54015976e-02 0.00000000e+00 

        </DataArray>
      </Points>
      <Cells>
        <DataArray type="Int32" Name="connectivity" format="ascii">
0 1
1 2
2 3

        </DataArray>
        <DataArray type="Int32" Name="offsets" format="ascii">
2 4 6 
        </DataArray>
        <DataArray type="UInt8" Name="types" format="ascii">
3 3 3 
        </DataArray>
      </Cells>
      <PointData>
        <DataArray type="Float64" Name="rho">
          1.11272037e+00 1.12457281e+00 1.13730091e+00 1.15103606e+00 
        </DataArray>
        <DataArray type="Float64" Name="rhou">
          8.93679875e-03 1.86805437e-03 -7.35804780e-03 -1.88918073e-02 
        </DataArray>
        <DataArray type="Float64" Name="rhov">
          7.25588506e-03 1.19731279e-02 2.00679102e-02 3.15585911e-02 
        </DataArray>
        <DataArray type="Float64" Name="E">
          2.55106878e+05 2.57962467e+05 2.61031682e+05 2.64347051e+05 
        </DataArray>
      </PointData>
    </Piece>
    <Piece NumberOfPoints="4" NumberOfCells="3">
      <Points>
        <DataArray type="Float64" NumberOfComponents="3" format="ascii">
          4.98276278e-02 -3.54015976e-02 0.00000000e+00 
4.60115410e-02 -3.42054628e-02 0.00000000e+00 
4.22164090e-02 -3.29444520e-02 0.00000000e+00 
3.84457745e-02 -3.16120051e-02 0.00000000e+00 

        </DataArray>
      </Points>
      <Cells>
        <DataArray type="Int32" Name="connectivity" format="ascii">
0 1
1 2
2 3

        </DataArray>
        <DataArray type="Int32" Name="offsets" format="ascii">
2 4 6 
        </DataArray>
        <DataArray type="UInt8" Name="types" format="ascii">
3 3 3 
        </DataArray>
      </Cells>
      <PointData>
        <DataArray type="Float64" Name="rho">
          1.15103598e+00 1.16587796e+00 1.18193898e+00 1.19941047e+00 
        </DataArray>
        <DataArray type="Float64" Name="rhou">
          -1.93475099e-02 -3.34956002e-02 -5.24948995e-02 -7.52209690e-02 
        </DataArray>
        <DataArray type="Float64" Name="rhov">
          3.13440511e-02 4.80401714e-02 7.57224952e-02 1.16216614e-01 
        </DataArray>
        <DataArray type="Float64" Name="E">
          2.64346998e+05 2.67936052e+05 2.71824701e+05 2.76061205e+05 
        </DataArray>
      </PointData>
    </Piece>
    <Piece NumberOfPoints="4" NumberOfCells="3">
      <Points>
        <DataArray type="Float64" NumberOfComponents="3" format="ascii">
          3.84457745e-02 -3.16120051e-02 0.00000000e+00 
3.47041376e-02 -3.02002355e-02 0.00000000e+00 
3.09973080e-02 -2.86995135e-02 0.00000000e+00 
2.73328498e-02 -2.70981900e-02 0.00000000e+00 

        </DataArray>
      </Points>
      <Cells>
        <DataArray type="Int32" Name="connectivity" format="ascii">
0 1
1 2
2 3

        </DataArray>
        <DataArray type="Int32" Name="offsets" format="ascii">
2 4 6 
        </DataArray>
        <DataArray type="UInt8" Name="types" format="ascii">
3 3 3 
        </DataArray>
      </Cells>
      <PointData>
        <DataArray type="Float64" Name="rho">
          1.19941069e+00 1.21848198e+00 1.23934643e+00 1.26237546e+00 
        </DataArray>
        <DataArray type="Float64" Name="rhou">
          -7.61733766e-02 -1.00321390e-01 -1.28950520e-01 -1.54334909e-01 
        </DataArray>
        <DataArray type="Float64" Name="rhov">
          1.16135205e-01 1.71717792e-01 2.57684181e-01 3.78027399e-01 
        </DataArray>
        <DataArray type="Float64" Name="E">
          2.76061122e+05 2.80697346e+05 2.85778052e+05 2.91397382e+05 
        </DataArray>
      </PointData>
    </Piece>
    <Piece NumberOfPoints="4" NumberOfCells="3">
      <Points>
        <DataArray type="Float64" NumberOfComponents="3" format="ascii">
          2.73328498e-02 -2.70981900e-02 0.00000000e+00 
2.37206947e-02 -2.53822580e-02 0.00000000e+00 
2.01744195e-02 -2.35341713e-02 0.00000000e+00 
1.67132635e-02 -2.15314496e-02 0.00000000e+00 

        </DataArray>
      </Points>
      <Cells>
        <DataArray type="Int32" Name="connectivity" format="ascii">
0 1
1 2
2 3

        </DataArray>
        <DataArray type="Int32" Name="offsets" format="ascii">
2 4 6 
        </DataArray>
        <DataArray type="UInt8" Name="types" format="ascii">
3 3 3 
        </DataArray>
      </Cells>
      <PointData>
        <DataArray type="Float64" Name="rho">
          1.26238034e+00 1.28791382e+00 1.31640769e+00 1.34920665e+00 
        </DataArray>
        <DataArray type="Float64" Name="rhou">
          -1.54719328e-01 -1.68732596e-01 -1.52983895e-01 -5.68913368e-02 
        </DataArray>
        <DataArray type="Float64" Name="rhov">
          3.78702520e-01 5.30584635e-01 7.41340162e-01 9.59765042e-01 
        </DataArray>
        <DataArray type="Float64" Name="E">
          2.91398283e+05 2.97650868e+05 3.04641054e+05 3.12697354e+05 
        </DataArray>
      </PointData>
    </Piece>
    <Piece NumberOfPoints="4" NumberOfCells="3">
      <Points>
        <DataArray type="Float64" NumberOfComponents="3" format="ascii">
          1.67132635e-02 -2.15314496e-02 0.00000000e+00 
1.33649679e-02 -1.93456318e-02 0.00000000e+00 
1.01706637e-02 -1.69409402e-02 0.00000000e+00 
7.19343964e-03 -1.42731192e-02 0.00000000e+00 

        </DataArray>
      </Points>
      <Cells>
        <DataArray type="Int32" Name="connectivity" format="ascii">
0 1
1 2
2 3

        </DataArray>
        <DataArray type="Int32" Name="offsets" format="ascii">
2 4 6 
        </DataArray>
        <DataArray type="UInt8" Name="types" format="ascii">
3 3 3 
        </DataArray>
      </Cells>
      <PointData>
        <DataArray type="Float64" Name="rho">
          1.34910074e+00 1.38894161e+00 1.43615721e+00 1.50123862e+00 
        </DataArray>
        <DataArray type="Float64" Name="rhou">
          -3.43132168e-02 1.14262561e-01 4.55662399e-01 8.76051419e-01 
        </DataArray>
        <DataArray type="Float64" Name="rhov">
          9.21486992e-01 1.12445135e+00 1.06940515e+00 5.18909818e-01 
        </DataArray>
        <DataArray type="Float64" Name="E">
          3.12673134e+05 3.22462145e+05 3.34055914e+05 3.49921464e+05 
        </DataArray>
      </PointData>
    </Piece>
    <Piece NumberOfPoints="4" NumberOfCells="3">
      <Points>
        <DataArray type="Float64" NumberOfComponents="3" format="ascii">
          7.19343964e-03 -1.42731192e-02 0.00000000e+00 
4.53082798e-03 -1.12927537e-02 0.00000000e+00 
2.33371323e-03 -7.95678515e-03 0.00000000e+00 
8.10639584e-04 -4.26717056e-03 0.00000000e+00 

        </DataArray>
      </Points>
      <Cells>
        <DataArray type="Int32" Name="connectivity" format="ascii">
0 1
1 2
2 3

        </DataArray>
        <DataArray type="Int32" Name="offsets" format="ascii">
2 4 6 
        </DataArray>
        <DataArray type="UInt8" Name="types" format="ascii">
3 3 3 
        </DataArray>
      </Cells>
      <PointData>
        <DataArray type="Float64" Name="rho">
          1.50175830e+00 1.57618263e+00 1.66528140e+00 1.73401768e+00 
        </DataArray>
        <DataArray type="Float64" Name="rhou">
          8.01017787e-01 9.30718355e-01 2.58235713e-01 -1.27739894e+00 
        </DataArray>
        <DataArray type="Float64" Name="rhov">
          6.17700155e-01 -5.12014313e-01 -1.73108200e+00 -1.81919028e+00 
        </DataArray>
        <DataArray type="Float64" Name="E">
          3.50048867e+05 3.68227870e+05 3.89869048e+05 4.06587159e+05 
        </DataArray>
      </PointData>
    </Piece>
    <Piece NumberOfPoints="4" NumberOfCells="3">
      <Points>
        <DataArray type="Float64" NumberOfComponents="3" format="ascii">
          8.10639584e-04 -4.26717056e-03 0.00000000e+00 
1.91366620e-04 -3.27450951e-04 0.00000000e+00 
6.40850572e-04 3.63462302e-03 0.00000000e+00 
2.03182548e-03 7.37539819e-03 0.00000000e+00 

        </DataArray>
      </Points>
      <Cells>
        <DataArray type="Int32" Name="connectivity" format="ascii">
0 1
1 2
2 3

        </DataArray>
        <DataArray type="Int32" Name="offsets" format="ascii">
2 4 6 
        </DataArray>
        <DataArray type="UInt8" Name="types" format="ascii">
3 3 3 
        </DataArray>
      </Cells>
      <PointData>
        <DataArray type="Float64" Name="rho">
          1.73244036e+00 1.75741778e+00 1.70703108e+00 1.61459670e+00 
        </DataArray>
        <DataArray type="Float64" Name="rhou">
          -1.15167926e+00 -1.88167132e+00 -8.36484595e-01 7.52716405e-01 
        </DataArray>
        <DataArray type="Float64" Name="rhov">
          -1.97737888e+00 3.64622845e-01 1.88462879e+00 1.51706576e+00 
        </DataArray>
        <DataArray type="Float64" Name="E">
          4.06205032e+05 4.12188734e+05 3.99864543e+05 3.77276437e+05 
        </DataArray>
      </PointData>
    </Piece>
    <Piece NumberOfPoints="4" NumberOfCells="3">
      <Points>
        <DataArray type="Float64" NumberOfComponents="3" format="ascii">
          2.03182548e-03 7.37539819e-03 0.00000000e+00 
4.13410179e-03 1.07714310e-02 0.00000000e+00 
6.73249783e-03 1.38076087e-02 0.00000000e+00 
9.66598373e-03 1.65232457e-02 0.00000000e+00 

        </DataArray>
      </Points>
      <Cells>
        <DataArray type="Int32" Name="connectivity" format="ascii">
0 1
1 2
2 3

        </DataArray>
        <DataArray type="Int32" Name="offsets" format="ascii">
2 4 6 
        </DataArray>
        <DataArray type="UInt8" Name="types" format="ascii">
3 3 3 
        </DataArray>
      </Cells>
      <PointData>
        <DataArray type="Float64" Name="rho">
          1.61496016e+00 1.50786242e+00 1.41864643e+00 1.35171442e+00 
        </DataArray>
        <DataArray type="Float64" Name="rhou">
          7.24977736e-01 1.15661161e+00 8.41475757e-01 3.76320185e-01 
        </DataArray>
        <DataArray type="Float64" Name="rhov">
          1.75198559e+00 6.27862758e-02 -1.07584757e+00 -1.40121773e+00 
        </DataArray>
        <DataArray type="Float64" Name="E">
          3.77367920e+05 3.51353851e+05 3.29646301e+05 3.13279650e+05 
        </DataArray>
      </PointData>
    </Piece>
    <Piece NumberOfPoints="4" NumberOfCells="3">
      <Points>
        <DataArray type="Float64" NumberOfComponents="3" format="ascii">
          9.66598373e-03 1.65232457e-02 0.00000000e+00 
1.28298048e-02 1.89677756e-02 0.00000000e+00 
1.61561389e-02 2.11867876e-02 0.00000000e+00 
1.96009967e-02 2.32173651e-02 0.00000000e+00 

        </DataArray>
      </Points>
      <Cells>
        <DataArray type="Int32" Name="connectivity" format="ascii">
0 1
1 2
2 3

        </DataArray>
        <DataArray type="Int32" Name="offsets" format="ascii">
2 4 6 
        </DataArray>
        <DataArray type="UInt8" Name="types" format="ascii">
3 3 3 
        </DataArray>
      </Cells>
      <PointData>
        <DataArray type="Float64" Name="rho">
          1.35150892e+00 1.29906820e+00 1.26011936e+00 1.22583641e+00 
        </DataArray>
        <DataArray type="Float64" Name="rhou">
          3.85905089e-01 -1.62329508e-02 -1.98180310e-01 -2.18919991e-01 
        </DataArray>
        <DataArray type="Float64" Name="rhov">
          -1.42583537e+00 -1.32119857e+00 -9.90945583e-01 -6.65374634e-01 
        </DataArray>
        <DataArray type="Float64" Name="E">
          3.13227409e+05 3.00405081e+05 2.90832067e+05 2.82431918e+05 
        </DataArray>
      </PointData>
    </Piece>
    <Piece NumberOfPoints="4" NumberOfCells="3">
      <Points>
        <DataArray type="Float64" NumberOfComponents="3" format="ascii">
          1.96009967e-02 2.32173651e-02 0.00000000e+00 
2.31348258e-02 2.50891000e-02 0.00000000e+00 
2.67372411e-02 2.68253610e-02 0.00000000e+00 
3.03938854e-02 2.84444261e-02 0.00000000e+00 

        </DataArray>
      </Points>
      <Cells>
        <DataArray type="Int32" Name="connectivity" format="ascii">
0 1
1 2
2 3

        </DataArray>
        <DataArray type="Int32" Name="offsets" format="ascii">
2 4 6 
        </DataArray>
        <DataArray type="UInt8" Name="types" format="ascii">
3 3 3 
        </DataArray>
      </Cells>
      <PointData>
        <DataArray type="Float64" Name="rho">
          1.22590023e+00 1.19680519e+00 1.17078669e+00 1.14722665e+00 
        </DataArray>
        <DataArray type="Float64" Name="rhou">
          -2.32058206e-01 -2.18703571e-01 -1.73550962e-01 -1.31357520e-01 
        </DataArray>
        <DataArray type="Float64" Name="rhov">
          -6.83638324e-01 -4.32418753e-01 -2.45675935e-01 -1.32827970e-01 
        </DataArray>
        <DataArray type="Float64" Name="E">
          2.82446859e+05 2.75337361e+05 2.69002554e+05 2.63283351e+05 
        </DataArray>
      </PointData>
    </Piece>
    <Piece NumberOfPoints="4" NumberOfCells="3">
      <Points>
        <DataArray type="Float64" NumberOfComponents="3" format="ascii">
          3.03938854e-02 2.84444261e-02 0.00000000e+00 
3.40943485e-02 2.99607720e-02 0.00000000e+00 
3.78307216e-02 3.13864015e-02 0.00000000e+00 
4.15969416e-02 3.27312648e-02 0.00000000e+00 

        </DataArray>
      </Points>
      <Cells>
        <DataArray type="Int32" Name="connectivity" format="ascii">
0 1
1 2
2 3

        </DataArray>
        <DataArray type="Int32" Name="offsets" format="ascii">
2 4 6 
        </DataArray>
        <DataArray type="UInt8" Name="types" format="ascii">
3 3 3 
        </DataArray>
      </Cells>
      <PointData>
        <DataArray type="Float64" Name="rho">
          1.14722491e+00 1.12590903e+00 1.10654969e+00 1.08890361e+00 
        </DataArray>
        <DataArray type="Float64" Name="rhou">
          -1.29562104e-01 -8.94210555e-02 -5.66259399e-02 -3.36433904e-02 
        </DataArray>
        <DataArray type="Float64" Name="rhov">
          -1.31374738e-01 -5.50998978e-02 -7.91635638e-03 1.75544364e-02 
        </DataArray>
        <DataArray type="Float64" Name="E">
          2.63283198e+05 2.58127428e+05 2.53456181e+05 2.49206128e+05 
        </DataArray>
      </PointData>
    </Piece>
    <Piece NumberOfPoints="4" NumberOfCells="3">
      <Points>
        <DataArray type="Float64" NumberOfComponents="3" format="ascii">
          4.15969416e-02 3.27312648e-02 0.00000000e+00 
4.53883260e-02 3.40034962e-02 0.00000000e+00 
4.92011942e-02 3.52098532e-02 0.00000000e+00 
5.30325845e-02 3.63560505e-02 0.00000000e+00 

        </DataArray>
      </Points>
      <Cells>
        <DataArray type="Int32" Name="connectivity" format="ascii">
0 1
1 2
2 3

        </DataArray>
        <DataArray type="Int32" Name="offsets" format="ascii">
2 4 6 
        </DataArray>
        <DataArray type="UInt8" Name="types" format="ascii">
3 3 3 
        </DataArray>
      </Cells>
      <PointData>
        <DataArray type="Float64" Name="rho">
          1.08890418e+00 1.07278168e+00 1.05799500e+00 1.04438531e+00 
        </DataArray>
        <DataArray type="Float64" Name="rhou">
          -3.25029901e-02 -1.30384680e-02 1.42469735e-03 1.08318814e-02 
        </DataArray>
        <DataArray type="Float64" Name="rhov">
          1.74600437e-02 3.12123874e-02 3.79218273e-02 3.91178364e-02 
        </DataArray>
        <DataArray type="Float64" Name="E">
          2.49206339e+05 2.45331773e+05 2.41783759e+05 2.38522301e+05 
        </DataArray>
      </PointData>
    </Piece>
    <Piece NumberOfPoints="4" NumberOfCells="3">
      <Points>
        <DataArray type="Float64" NumberOfComponents="3" format="ascii">
          5.30325845e-02 3.63560505e-02 0.00000000e+00 
5.68800643e-02 3.74470428e-02 0.00000000e+00 
6.07415959e-02 3.84872220e-02 0.00000000e+00 
6.46155030e-02 3.94803248e-02 0.00000000e+00 

        </DataArray>
      </Points>
      <Cells>
        <DataArray type="Int32" Name="connectivity" format="ascii">
0 1
1 2
2 3

        </DataArray>
        <DataArray type="Int32" Name="offsets" format="ascii">
2 4 6 
        </DataArray>
        <DataArray type="UInt8" Name="types" format="ascii">
3 3 3 
        </DataArray>
      </Cells>
      <PointData>
        <DataArray type="Float64" Name="rho">
          1.04438601e+00 1.03186468e+00 1.02029988e+00 1.00955088e+00 
        </DataArray>
        <DataArray type="Float64" Name="rhou">
          1.11501338e-02 1.81706383e-02 2.37328441e-02 2.75872857e-02 
        </DataArray>
        <DataArray type="Float64" Name="rhov">
          3.87911798e-02 3.71551984e-02 3.51242827e-02 3.19164324e-02 
        </DataArray>
        <DataArray type="Float64" Name="E">
          2.38522460e+05 2.35526038e+05 2.32761335e+05 2.30194191e+05 
        </DataArray>
      </PointData>
    </Piece>
    <Piece NumberOfPoints="4" NumberOfCells="3">
      <Points>
        <DataArray type="Float64" NumberOfComponents="3" format="ascii">
          6.46155030e-02 3.94803248e-02 0.00000000e+00 
6.85004294e-02 4.04294394e-02 0.00000000e+00 
7.23951608e-02 4.13374715e-02 0.00000000e+00 
7.62986317e-02 4.22072113e-02 0.00000000e+00 

        </DataArray>
      </Points>
      <Cells>
        <DataArray type="Int32" Name="connectivity" format="ascii">
0 1
1 2
2 3

        </DataArray>
        <DataArray type="Int32" Name="offsets" format="ascii">
2 4 6 
        </DataArray>
        <DataArray type="UInt8" Name="types" format="ascii">
3 3 3 
        </DataArray>
      </Cells>
      <PointData>
        <DataArray type="Float64" Name="rho">
          1.00955159e+00 9.99576732e-01 9.90286845e-01 9.81626324e-01 
        </DataArray>
        <DataArray type="Float64" Name="rhou">
          2.74073568e-02 2.93711387e-02 3.04854922e-02 3.05933176e-02 
        </DataArray>
        <DataArray type="Float64" Name="rhov">
          3.16177139e-02 2.77235966e-02 2.43567407e-02 2.10565107e-02 
        </DataArray>
        <DataArray type="Float64" Name="E">
          2.30194338e+05 2.27814677e+05 2.25600255e+05 2.23537131e+05 
        </DataArray>
      </PointData>
    </Piece>
    <Piece NumberOfPoints="4" NumberOfCells="3">
      <Points>
        <DataArray type="Float64" NumberOfComponents="3" format="ascii">
          7.62986317e-02 4.22072113e-02 0.00000000e+00 
8.02098960e-02 4.30411920e-02 0.00000000e+00 
8.41281936e-02 4.38414887e-02 0.00000000e+00 
8.80528912e-02 4.46097627e-02 0.00000000e+00 

        </DataArray>
      </Points>
      <Cells>
        <DataArray type="Int32" Name="connectivity" format="ascii">
0 1
1 2
2 3

        </DataArray>
        <DataArray type="Int32" Name="offsets" format="ascii">
2 4 6 
        </DataArray>
        <DataArray type="UInt8" Name="types" format="ascii">
3 3 3 
        </DataArray>
      </Cells>
      <PointData>
        <DataArray type="Float64" Name="rho">
          9.81625383e-01 9.73547817e-01 9.65958657e-01 9.58812024e-01 
        </DataArray>
        <DataArray type="Float64" Name="rhou">
          3.04468264e-02 3.04833544e-02 3.02207221e-02 2.91661901e-02 
        </DataArray>
        <DataArray type="Float64" Name="rhov">
          2.08931510e-02 1.83368448e-02 1.58306320e-02 1.31516515e-02 
        </DataArray>
        <DataArray type="Float64" Name="E">
          2.23536895e+05 2.21614133e+05 2.19808899e+05 2.18110070e+05 
        </DataArray>
      </PointData>
    </Piece>
    <Piece NumberOfPoints="4" NumberOfCells="3">
      <Points>
        <DataArray type="Float64" NumberOfComponents="3" format="ascii">
          8.80528912e-02 4.46097627e-02 0.00000000e+00 
9.19835642e-02 4.53475714e-02 0.00000000e+00 
9.59195644e-02 4.60564308e-02 0.00000000e+00 
9.98597518e-02 4.67394181e-02 0.00000000e+00 

        </DataArray>
      </Points>
      <Cells>
        <DataArray type="Int32" Name="connectivity" format="ascii">
0 1
1 2
2 3

        </DataArray>
        <DataArray type="Int32" Name="offsets" format="ascii">
2 4 6 
        </DataArray>
        <DataArray type="UInt8" Name="types" format="ascii">
3 3 3 
        </DataArray>
      </Cells>
      <PointData>
        <DataArray type="Float64" Name="rho">
          9.58812523e-01 9.52098441e-01 9.45804155e-01 9.39830267e-01 
        </DataArray>
        <DataArray type="Float64" Name="rhou">
          2.89719235e-02 2.75587687e-02 2.40911312e-02 2.86203267e-02 
        </DataArray>
        <DataArray type="Float64" Name="rhov">
          1.33146729e-02 1.07384597e-02 9.15580966e-03 8.65673558e-03 
        </DataArray>
        <DataArray type="Float64" Name="E">
          2.18110186e+05 2.16515393e+05 2.15020749e+05 2.13603214e+05 
        </DataArray>
      </PointData>
    </Piece>
    <Piece NumberOfPoints="4" NumberOfCells="3">
      <Points>
        <DataArray type="Float64" NumberOfComponents="3" format="ascii">
          9.98597518e-02 4.67394181e-02 0.00000000e+00 
1.10118888e-01 4.83862534e-02 0.00000000e+00 
1.20400399e-01 4.98730615e-02 0.00000000e+00 
1.30701363e-01 5.12186773e-02 0.00000000e+00 

        </DataArray>
      </Points>
      <Cells>
        <DataArray type="Int32" Name="connectivity" format="ascii">
0 1
1 2
2 3

        </DataArray>
        <DataArray type="Int32" Name="offsets" format="ascii">
2 4 6 
        </DataArray>
        <DataArray type="UInt8" Name="types" format="ascii">
3 3 3 
        </DataArray>
      </Cells>
      <PointData>
        <DataArray type="Float64" Name="rho">
          9.39757556e-01 9.25823187e-01 9.13800718e-01 9.03463662e-01 
        </DataArray>
        <DataArray type="Float64" Name="rhou">
          2.63491690e-02 1.81779205e-02 1.60535620e-02 1.25893149e-02 
        </DataArray>
        <DataArray type="Float64" Name="rhov">
          7.41939897e-03 4.19070061e-03 3.68318527e-03 3.01022669e-03 
        </DataArray>
        <DataArray type="Float64" Name="E">
          2.13586779e+05 2.10284221e+05 2.07438219e+05 2.04993773e+05 
        </DataArray>
      </PointData>
    </Piece>
    <Piece NumberOfPoints="4" NumberOfCells="3">
      <Points>
        <DataArray type="Float64" NumberOfComponents="3" format="ascii">
          1.30701363e-01 5.12186773e-02 0.00000000e+00 
1.41019106e-01 5.24347536e-02 0.00000000e+00 
1.51350453e-01 5.35292812e-02 0.00000000e+00 
1.61692888e-01 5.45137413e-02 0.00000000e+00 

        </DataArray>
      </Points>
      <Cells>
        <DataArray type="Int32" Name="connectivity" format="ascii">
0 1
1 2
2 3

        </DataArray>
        <DataArray type="Int32" Name="offsets" format="ascii">
2 4 6 
        </DataArray>
        <DataArray type="UInt8" Name="types" format="ascii">
3 3 3 
        </DataArray>
      </Cells>
      <PointData>
        <DataArray type="Float64" Name="rho">
          9.03460164e-01 8.94382040e-01 8.86538454e-01 8.79821231e-01 
        </DataArray>
        <DataArray type="Float64" Name="rhou">
          1.39726586e-02 1.20765667e-02 1.00010564e-02 8.73488858e-03 
        </DataArray>
        <DataArray type="Float64" Name="rhov">
          3.51032596e-03 2.58043423e-03 1.79948021e-03 1.62101117e-03 
        </DataArray>
        <DataArray type="Float64" Name="E">
          2.04992933e+05 2.02849514e+05 2.00999945e+05 1.99417630e+05 
        </DataArray>
      </PointData>
    </Piece>
    <Piece NumberOfPoints="4" NumberOfCells="3">
      <Points>
        <DataArray type="Float64" NumberOfComponents="3" format="ascii">
          1.61692888e-01 5.45137413e-02 0.00000000e+00 
1.72044471e-01 5.53969070e-02 0.00000000e+00 
1.82403773e-01 5.61845005e-02 0.00000000e+00 
1.92769483e-01 5.68825118e-02 0.00000000e+00 

        </DataArray>
      </Points>
      <Cells>
        <DataArray type="Int32" Name="connectivity" format="ascii">
0 1
1 2
2 3

        </DataArray>
        <DataArray type="Int32" Name="offsets" format="ascii">
2 4 6 
        </DataArray>
        <DataArray type="UInt8" Name="types" format="ascii">
3 3 3 
        </DataArray>
      </Cells>
      <PointData>
        <DataArray type="Float64" Name="rho">
          8.79818823e-01 8.74033247e-01 8.69089016e-01 8.64933838e-01 
        </DataArray>
        <DataArray type="Float64" Name="rhou">
          8.77157839e-03 7.63931138e-03 6.60342445e-03 5.69928677e-03 
        </DataArray>
        <DataArray type="Float64" Name="rhov">
          1.67265177e-03 1.30476259e-03 9.23234325e-04 6.92015548e-04 
        </DataArray>
        <DataArray type="Float64" Name="E">
          1.99417090e+05 1.98056118e+05 1.96895016e+05 1.95920913e+05 
        </DataArray>
      </PointData>
    </Piece>
    <Piece NumberOfPoints="4" NumberOfCells="3">
      <Points>
        <DataArray type="Float64" NumberOfComponents="3" format="ascii">
          1.92769483e-01 5.68825118e-02 0.00000000e+00 
2.03140482e-01 5.74972220e-02 0.00000000e+00 
2.13515818e-01 5.80338500e-02 0.00000000e+00 
2.23894730e-01 5.84962890e-02 0.00000000e+00 

        </DataArray>
      </Points>
      <Cells>
        <DataArray type="Int32" Name="connectivity" format="ascii">
0 1
1 2
2 3

        </DataArray>
        <DataArray type="Int32" Name="offsets" format="ascii">
2 4 6 
        </DataArray>
        <DataArray type="UInt8" Name="types" format="ascii">
3 3 3 
        </DataArray>
      </Cells>
      <PointData>
        <DataArray type="Float64" Name="rho">
          8.64933148e-01 8.61487670e-01 8.58668331e-01 8.56417262e-01 
        </DataArray>
        <DataArray type="Float64" Name="rhou">
          5.73608770e-03 5.01303088e-03 4.45541935e-03 3.99401145e-03 
        </DataArray>
        <DataArray type="Float64" Name="rhov">
          7.33459495e-04 6.41767234e-04 5.24283497e-04 3.99833348e-04 
        </DataArray>
        <DataArray type="Float64" Name="E">
          1.95920755e+05 1.95114618e+05 1.94456779e+05 1.93933457e+05 
        </DataArray>
      </PointData>
    </Piece>
    <Piece NumberOfPoints="4" NumberOfCells="3">
      <Points>
        <DataArray type="Float64" NumberOfComponents="3" format="ascii">
          2.23894730e-01 5.84962890e-02 0.00000000e+00 
2.34276548e-01 5.88882305e-02 0.00000000e+00 
2.44660646e-01 5.92139624e-02 0.00000000e+00 
2.55046517e-01 5.94772622e-02 0.00000000e+00 

        </DataArray>
      </Points>
      <Cells>
        <DataArray type="Int32" Name="connectivity" format="ascii">
0 1
1 2
2 3

        </DataArray>
        <DataArray type="Int32" Name="offsets" format="ascii">
2 4 6 
        </DataArray>
        <DataArray type="UInt8" Name="types" format="ascii">
3 3 3 
        </DataArray>
      </Cells>
      <PointData>
        <DataArray type="Float64" Name="rho">
          8.56417835e-01 8.54693216e-01 8.53451000e-01 8.52636222e-01 
        </DataArray>
        <DataArray type="Float64" Name="rhou">
          4.00168024e-03 3.47908875e-03 3.10009629e-03 2.87031677e-03 
        </DataArray>
        <DataArray type="Float64" Name="rhov">
          4.14205283e-04 3.35022336e-04 3.16884551e-04 3.14777717e-04 
        </DataArray>
        <DataArray type="Float64" Name="E">
          1.93933587e+05 1.93534683e+05 1.93249676e+05 1.93065605e+05 
        </DataArray>
      </PointData>
    </Piece>
    <Piece NumberOfPoints="4" NumberOfCells="3">
      <Points>
        <DataArray type="Float64" NumberOfComponents="3" format="ascii">
          2.55046517e-01 5.94772622e-02 0.00000000e+00 
2.65433758e-01 5.96804135e-02 0.00000000e+00 
2.75821954e-01 5.98256700e-02 0.00000000e+00 
2.86210775e-01 5.99167012e-02 0.00000000e+00 

        </DataArray>
      </Points>
      <Cells>
        <DataArray type="Int32" Name="connectivity" format="ascii">
0 1
1 2
2 3

        </DataArray>
        <DataArray type="Int32" Name="offsets" format="ascii">
2 4 6 
        </DataArray>
        <DataArray type="UInt8" Name="types" format="ascii">
3 3 3 
        </DataArray>
      </Cells>
      <PointData>
        <DataArray type="Float64" Name="rho">
          8.52636234e-01 8.52201019e-01 8.52121065e-01 8.52376347e-01 
        </DataArray>
        <DataArray type="Float64" Name="rhou">
          2.86455857e-03 2.57734697e-03 2.28309698e-03 2.01928823e-03 
        </DataArray>
        <DataArray type="Float64" Name="rhov">
          3.26088767e-04 2.29939060e-04 1.71199595e-04 2.04884534e-04 
        </DataArray>
        <DataArray type="Float64" Name="E">
          1.93065611e+05 1.92971204e+05 1.92960625e+05 1.93028935e+05 
        </DataArray>
      </PointData>
    </Piece>
    <Piece NumberOfPoints="4" NumberOfCells="3">
      <Points>
        <DataArray type="Float64" NumberOfComponents="3" format="ascii">
          2.86210775e-01 5.99167012e-02 0.00000000e+00 
2.96599895e-01 5.99572174e-02 0.00000000e+00 
3.06989133e-01 5.99487796e-02 0.00000000e+00 
3.17378193e-01 5.98919280e-02 0.00000000e+00 

        </DataArray>
      </Points>
      <Cells>
        <DataArray type="Int32" Name="connectivity" format="ascii">
0 1
1 2
2 3

        </DataArray>
        <DataArray type="Int32" Name="offsets" format="ascii">
2 4 6 
        </DataArray>
        <DataArray type="UInt8" Name="types" format="ascii">
3 3 3 
        </DataArray>
      </Cells>
      <PointData>
        <DataArray type="Float64" Name="rho">
          8.52375323e-01 8.52917041e-01 8.53698665e-01 8.54705372e-01 
        </DataArray>
        <DataArray type="Float64" Name="rhou">
          2.03826811e-03 1.92300467e-03 1.79694040e-03 1.61528756e-03 
        </DataArray>
        <DataArray type="Float64" Name="rhov">
          2.21286442e-04 2.48460035e-04 1.94020316e-04 1.19511824e-04 
        </DataArray>
        <DataArray type="Float64" Name="E">
          1.93028702e+05 1.93164429e+05 1.93356798e+05 1.93602236e+05 
        </DataArray>
      </PointData>
    </Piece>
    <Piece NumberOfPoints="4" NumberOfCells="3">
      <Points>
        <DataArray type="Float64" NumberOfComponents="3" format="ascii">
          3.17378193e-01 5.98919280e-02 0.00000000e+00 
3.27766895e-01 5.97884916e-02 0.00000000e+00 
3.38155061e-01 5.96415885e-02 0.00000000e+00 
3.48542601e-01 5.94538599e-02 0.00000000e+00 

        </DataArray>
      </Points>
      <Cells>
        <DataArray type="Int32" Name="connectivity" format="ascii">
0 1
1 2
2 3

        </DataArray>
        <DataArray type="Int32" Name="offsets" format="ascii">
2 4 6 
        </DataArray>
        <DataArray type="UInt8" Name="types" format="ascii">
3 3 3 
        </DataArray>
      </Cells>
      <PointData>
        <DataArray type="Float64" Name="rho">
          8.54705720e-01 8.55924984e-01 8.57336759e-01 8.58908278e-01 
        </DataArray>
        <DataArray type="Float64" Name="rhou">
          1.64492898e-03 1.44897612e-03 1.33261800e-03 1.28670283e-03 
        </DataArray>
        <DataArray type="Float64" Name="rhov">
          1.27188470e-04 1.15951709e-04 1.41892637e-04 1.62847243e-04 
        </DataArray>
        <DataArray type="Float64" Name="E">
          1.93602315e+05 1.93897748e+05 1.94238388e+05 1.94616576e+05 
        </DataArray>
      </PointData>
    </Piece>
    <Piece NumberOfPoints="4" NumberOfCells="3">
      <Points>
        <DataArray type="Float64" NumberOfComponents="3" format="ascii">
          3.48542601e-01 5.94538599e-02 0.00000000e+00 
3.58929336e-01 5.92265576e-02 0.00000000e+00 
3.69315147e-01 5.89610897e-02 0.00000000e+00 
3.79699975e-01 5.86590059e-02 0.00000000e+00 

        </DataArray>
      </Points>
      <Cells>
        <DataArray type="Int32" Name="connectivity" format="ascii">
0 1
1 2
2 3

        </DataArray>
        <DataArray type="Int32" Name="offsets" format="ascii">
2 4 6 
        </DataArray>
        <DataArray type="UInt8" Name="types" format="ascii">
3 3 3 
        </DataArray>
      </Cells>
      <PointData>
        <DataArray type="Float64" Name="rho">
          8.58908525e-01 8.60614350e-01 8.62444829e-01 8.64380052e-01 
        </DataArray>
        <DataArray type="Float64" Name="rhou">
          1.29916026e-03 1.17553325e-03 1.08229447e-03 1.03483801e-03 
        </DataArray>
        <DataArray type="Float64" Name="rhov">
          1.59746002e-04 1.23780495e-04 1.16532312e-04 1.15187675e-04 
        </DataArray>
        <DataArray type="Float64" Name="E">
          1.94616633e+05 1.95026416e+05 1.95465450e+05 1.95929074e+05 
        </DataArray>
      </PointData>
    </Piece>
    <Piece NumberOfPoints="4" NumberOfCells="3">
      <Points>
        <DataArray type="Float64" NumberOfComponents="3" format="ascii">
          3.79699975e-01 5.86590059e-02 0.00000000e+00 
3.90083700e-01 5.83211333e-02 0.00000000e+00 
4.00466233e-01 5.79482466e-02 0.00000000e+00 
4.10847515e-01 5.75418957e-02 0.00000000e+00 

        </DataArray>
      </Points>
      <Cells>
        <DataArray type="Int32" Name="connectivity" format="ascii">
0 1
1 2
2 3

        </DataArray>
        <DataArray type="Int32" Name="offsets" format="ascii">
2 4 6 
        </DataArray>
        <DataArray type="UInt8" Name="types" format="ascii">
3 3 3 
        </DataArray>
      </Cells>
      <PointData>
        <DataArray type="Float64" Name="rho">
          8.64380064e-01 8.66403101e-01 8.68503958e-01 8.70675981e-01 
        </DataArray>
        <DataArray type="Float64" Name="rhou">
          1.02716217e-03 9.63497275e-04 8.85360538e-04 8.09983356e-04 
        </DataArray>
        <DataArray type="Float64" Name="rhov">
          1.17638940e-04 8.73881801e-05 6.46625655e-05 7.02521062e-05 
        </DataArray>
        <DataArray type="Float64" Name="E">
          1.95929078e+05 1.96413328e+05 1.96915836e+05 1.97434979e+05 
        </DataArray>
      </PointData>
    </Piece>
    <Piece NumberOfPoints="4" NumberOfCells="3">
      <Points>
        <DataArray type="Float64" NumberOfComponents="3" format="ascii">
          4.10847515e-01 5.75418957e-02 0.00000000e+00 
4.21227485e-01 5.71038015e-02 0.00000000e+00 
4.31606144e-01 5.66351078e-02 0.00000000e+00 
4.41983402e-01 5.61364293e-02 0.00000000e+00 

        </DataArray>
      </Points>
      <Cells>
        <DataArray type="Int32" Name="connectivity" format="ascii">
0 1
1 2
2 3

        </DataArray>
        <DataArray type="Int32" Name="offsets" format="ascii">
2 4 6 
        </DataArray>
        <DataArray type="UInt8" Name="types" format="ascii">
3 3 3 
        </DataArray>
      </Cells>
      <PointData>
        <DataArray type="Float64" Name="rho">
          8.70675780e-01 8.72903237e-01 8.75174337e-01 8.77479257e-01 
        </DataArray>
        <DataArray type="Float64" Name="rhou">
          8.26661760e-04 7.75646768e-04 7.37258455e-04 7.00811172e-04 
        </DataArray>
        <DataArray type="Float64" Name="rhov">
          7.36953601e-05 7.39894491e-05 6.44728043e-05 4.34596204e-05 
        </DataArray>
        <DataArray type="Float64" Name="E">
          1.97434934e+05 1.97967034e+05 1.98509336e+05 1.99059538e+05 
        </DataArray>
      </PointData>
    </Piece>
    <Piece NumberOfPoints="4" NumberOfCells="3">
      <Points>
        <DataArray type="Float64" NumberOfComponents="3" format="ascii">
          4.41983402e-01 5.61364293e-02 0.00000000e+00 
4.52359200e-01 5.56085743e-02 0.00000000e+00 
4.62733537e-01 5.50529286e-02 0.00000000e+00 
4.73106444e-01 5.44707514e-02 0.00000000e+00 

        </DataArray>
      </Points>
      <Cells>
        <DataArray type="Int32" Name="connectivity" format="ascii">
0 1
1 2
2 3

        </DataArray>
        <DataArray type="Int32" Name="offsets" format="ascii">
2 4 6 
        </DataArray>
        <DataArray type="UInt8" Name="types" format="ascii">
3 3 3 
        </DataArray>
      </Cells>
      <PointData>
        <DataArray type="Float64" Name="rho">
          8.77479400e-01 8.79813568e-01 8.82170393e-01 8.84541241e-01 
        </DataArray>
        <DataArray type="Float64" Name="rhou">
          6.97807897e-04 6.42337682e-04 6.02866438e-04 5.80025565e-04 
        </DataArray>
        <DataArray type="Float64" Name="rhov">
          4.41020305e-05 3.67092148e-05 3.72242160e-05 3.74718753e-05 
        </DataArray>
        <DataArray type="Float64" Name="E">
          1.99059571e+05 1.99616566e+05 2.00178794e+05 2.00744236e+05 
        </DataArray>
      </PointData>
    </Piece>
    <Piece NumberOfPoints="4" NumberOfCells="3">
      <Points>
        <DataArray type="Float64" NumberOfComponents="3" format="ascii">
          4.73106444e-01 5.44707514e-02 0.00000000e+00 
4.83477861e-01 5.38627952e-02 0.00000000e+00 
4.93847787e-01 5.32294959e-02 0.00000000e+00 
5.04216135e-01 5.25716618e-02 0.00000000e+00 

        </DataArray>
      </Points>
      <Cells>
        <DataArray type="Int32" Name="connectivity" format="ascii">
0 1
1 2
2 3

        </DataArray>
        <DataArray type="Int32" Name="offsets" format="ascii">
2 4 6 
        </DataArray>
        <DataArray type="UInt8" Name="types" format="ascii">
3 3 3 
        </DataArray>
      </Cells>
      <PointData>
        <DataArray type="Float64" Name="rho">
          8.84541227e-01 8.86919110e-01 8.89298537e-01 8.91678296e-01 
        </DataArray>
        <DataArray type="Float64" Name="rhou">
          5.72355628e-04 5.51879780e-04 5.17120109e-04 4.75797438e-04 
        </DataArray>
        <DataArray type="Float64" Name="rhov">
          3.92881062e-05 2.78145199e-05 1.28081722e-05 1.00853923e-05 
        </DataArray>
        <DataArray type="Float64" Name="E">
          2.00744233e+05 2.01311256e+05 2.01878575e+05 2.02445878e+05 
        </DataArray>
      </PointData>
    </Piece>
    <Piece NumberOfPoints="4" NumberOfCells="3">
      <Points>
        <DataArray type="Float64" NumberOfComponents="3" format="ascii">
          5.04216135e-01 5.25716618e-02 0.00000000e+00 
5.14582992e-01 5.18903993e-02 0.00000000e+00 
5.24948359e-01 5.11864908e-02 0.00000000e+00 
5.35312176e-01 5.04603274e-02 0.00000000e+00 

        </DataArray>
      </Points>
      <Cells>
        <DataArray type="Int32" Name="connectivity" format="ascii">
0 1
1 2
2 3

        </DataArray>
        <DataArray type="Int32" Name="offsets" format="ascii">
2 4 6 
        </DataArray>
        <DataArray type="UInt8" Name="types" format="ascii">
3 3 3 
        </DataArray>
      </Cells>
      <PointData>
        <DataArray type="Float64" Name="rho">
          8.91678210e-01 8.94052802e-01 8.96417679e-01 8.98769296e-01 
        </DataArray>
        <DataArray type="Float64" Name="rhou">
          4.84354449e-04 4.58547792e-04 4.39157287e-04 4.20137807e-04 
        </DataArray>
        <DataArray type="Float64" Name="rhov">
          1.22532615e-05 1.17650340e-05 6.14669511e-06 -5.96073978e-06 
        </DataArray>
        <DataArray type="Float64" Name="E">
          2.02445859e+05 2.03011860e+05 2.03575502e+05 2.04135955e+05 
        </DataArray>
      </PointData>
    </Piece>
    <Piece NumberOfPoints="4" NumberOfCells="3">
      <Points>
        <DataArray type="Float64" NumberOfComponents="3" format="ascii">
          5.35312176e-01 5.04603274e-02 0.00000000e+00 
5.45674443e-01 4.97124642e-02 0.00000000e+00 
5.56035221e-01 4.89437394e-02 0.00000000e+00 
5.66394389e-01 4.81546782e-02 0.00000000e+00 

        </DataArray>
      </Points>
      <Cells>
        <DataArray type="Int32" Name="connectivity" format="ascii">
0 1
1 2
2 3

        </DataArray>
        <DataArray type="Int32" Name="offsets" format="ascii">
2 4 6 
        </DataArray>
        <DataArray type="UInt8" Name="types" format="ascii">
3 3 3 
        </DataArray>
      </Cells>
      <PointData>
        <DataArray type="Float64" Name="rho">
          8.98769341e-01 9.01107006e-01 9.03427774e-01 9.05728757e-01 
        </DataArray>
        <DataArray type="Float64" Name="rhou">
          4.15804140e-04 3.89504307e-04 3.71241303e-04 3.59688832e-04 
        </DataArray>
        <DataArray type="Float64" Name="rhov">
          -5.68040451e-06 -6.64977365e-06 -7.65440432e-06 -1.22070827e-05 
        </DataArray>
        <DataArray type="Float64" Name="E">
          2.04135965e+05 2.04693052e+05 2.05246087e+05 2.05794399e+05 
        </DataArray>
      </PointData>
    </Piece>
    <Piece NumberOfPoints="4" NumberOfCells="3">
      <Points>
        <DataArray type="Float64" NumberOfComponents="3" format="ascii">
          5.66394389e-01 4.81546782e-02 0.00000000e+00 
5.76752067e-01 4.73455116e-02 0.00000000e+00 
5.87108195e-01 4.65166979e-02 0.00000000e+00 
5.97462773e-01 4.56690118e-02 0.00000000e+00 

        </DataArray>
      </Points>
      <Cells>
        <DataArray type="Int32" Name="connectivity" format="ascii">
0 1
1 2
2 3

        </DataArray>
        <DataArray type="Int32" Name="offsets" format="ascii">
2 4 6 
        </DataArray>
        <DataArray type="UInt8" Name="types" format="ascii">
3 3 3 
        </DataArray>
      </Cells>
      <PointData>
        <DataArray type="Float64" Name="rho">
          9.05728787e-01 9.08008313e-01 9.10266091e-01 9.12501254e-01 
        </DataArray>
        <DataArray type="Float64" Name="rhou">
          3.58965626e-04 3.38564212e-04 3.17416644e-04 3.01340596e-04 
        </DataArray>
        <DataArray type="Float64" Name="rhov">
          -1.18677287e-05 -2.08799907e-05 -2.47911075e-05 -2.39206335e-05 
        </DataArray>
        <DataArray type="Float64" Name="E">
          2.05794406e+05 2.06337607e+05 2.06875621e+05 2.07408242e+05 
        </DataArray>
      </PointData>
    </Piece>
    <Piece NumberOfPoints="4" NumberOfCells="3">
      <Points>
        <DataArray type="Float64" NumberOfComponents="3" format="ascii">
          5.97462773e-01 4.56690118e-02 0.00000000e+00 
6.07815862e-01 4.48031016e-02 0.00000000e+00 
6.18167400e-01 4.39192392e-02 0.00000000e+00 
6.28517449e-01 4.30175588e-02 0.00000000e+00 

        </DataArray>
      </Points>
      <Cells>
        <DataArray type="Int32" Name="connectivity" format="ascii">
0 1
1 2
2 3

        </DataArray>
        <DataArray type="Int32" Name="offsets" format="ascii">
2 4 6 
        </DataArray>
        <DataArray type="UInt8" Name="types" format="ascii">
3 3 3 
        </DataArray>
      </Cells>
      <PointData>
        <DataArray type="Float64" Name="rho">
          9.12501191e-01 9.14711893e-01 9.16896371e-01 9.19054847e-01 
        </DataArray>
        <DataArray type="Float64" Name="rhou">
          2.99347188e-04 2.90549925e-04 2.78373152e-04 2.60874082e-04 
        </DataArray>
        <DataArray type="Float64" Name="rhov">
          -2.29873564e-05 -2.37808121e-05 -2.98085398e-05 -3.55946091e-05 
        </DataArray>
        <DataArray type="Float64" Name="E">
          2.07408228e+05 2.07935032e+05 2.08455616e+05 2.08970030e+05 
        </DataArray>
      </PointData>
    </Piece>
    <Piece NumberOfPoints="4" NumberOfCells="3">
      <Points>
        <DataArray type="Float64" NumberOfComponents="3" format="ascii">
          6.28517449e-01 4.30175588e-02 0.00000000e+00 
6.38865948e-01 4.20984775e-02 0.00000000e+00 
6.49212897e-01 4.11624312e-02 0.00000000e+00 
6.59558356e-01 4.02097441e-02 0.00000000e+00 

        </DataArray>
      </Points>
      <Cells>
        <DataArray type="Int32" Name="connectivity" format="ascii">
0 1
1 2
2 3

        </DataArray>
        <DataArray type="Int32" Name="offsets" format="ascii">
2 4 6 
        </DataArray>
        <DataArray type="UInt8" Name="types" format="ascii">
3 3 3 
        </DataArray>
      </Cells>
      <PointData>
        <DataArray type="Float64" Name="rho">
          9.19054839e-01 9.21187205e-01 9.23292683e-01 9.25371035e-01 
        </DataArray>
        <DataArray type="Float64" Name="rhou">
          2.61825984e-04 2.48676042e-04 2.37341924e-04 2.25140113e-04 
        </DataArray>
        <DataArray type="Float64" Name="rhov">
          -3.45661166e-05 -3.56153709e-05 -3.78558087e-05 -4.04710708e-05 
        </DataArray>
        <DataArray type="Float64" Name="E">
          2.08970028e+05 2.09478248e+05 2.09980098e+05 2.10475526e+05 
        </DataArray>
      </PointData>
    </Piece>
    <Piece NumberOfPoints="4" NumberOfCells="3">
      <Points>
        <DataArray type="Float64" NumberOfComponents="3" format="ascii">
          6.59558356e-01 4.02097441e-02 0.00000000e+00 
6.69902325e-01 3.92407738e-02 0.00000000e+00 
6.80244744e-01 3.82556282e-02 0.00000000e+00 
6.90585554e-01 3.72543521e-02 0.00000000e+00 

        </DataArray>
      </Points>
      <Cells>
        <DataArray type="Int32" Name="connectivity" format="ascii">
0 1
1 2
2 3

        </DataArray>
        <DataArray type="Int32" Name="offsets" format="ascii">
2 4 6 
        </DataArray>
        <DataArray type="UInt8" Name="types" format="ascii">
3 3 3 
        </DataArray>
      </Cells>
      <PointData>
        <DataArray type="Float64" Name="rho">
          9.25371018e-01 9.27422326e-01 9.29445513e-01 9.31441466e-01 
        </DataArray>
        <DataArray type="Float64" Name="rhou">
          2.21860124e-04 2.16391503e-04 2.07216494e-04 1.91894354e-04 
        </DataArray>
        <DataArray type="Float64" Name="rhov">
          -3.94193481e-05 -3.97227373e-05 -4.46206450e-05 -4.86840767e-05 
        </DataArray>
        <DataArray type="Float64" Name="E">
          2.10475523e+05 2.10964553e+05 2.11446946e+05 2.11922910e+05 
        </DataArray>
      </PointData>
    </Piece>
    <Piece NumberOfPoints="4" NumberOfCells="3">
      <Points>
        <DataArray type="Float64" NumberOfComponents="3" format="ascii">
          6.90585554e-01 3.72543521e-02 0.00000000e+00 
7.00924933e-01 3.62373814e-02 0.00000000e+00 
7.11262703e-01 3.52048986e-02 0.00000000e+00 
7.21598923e-01 3.41568366e-02 0.00000000e+00 

        </DataArray>
      </Points>
      <Cells>
        <DataArray type="Int32" Name="connectivity" format="ascii">
0 1
1 2
2 3

        </DataArray>
        <DataArray type="Int32" Name="offsets" format="ascii">
2 4 6 
        </DataArray>
        <DataArray type="UInt8" Name="types" format="ascii">
3 3 3 
        </DataArray>
      </Cells>
      <PointData>
        <DataArray type="Float64" Name="rho">
          9.31441423e-01 9.33410643e-01 9.35351989e-01 9.37266195e-01 
        </DataArray>
        <DataArray type="Float64" Name="rhou">
          1.90457471e-04 1.84725405e-04 1.78783005e-04 1.64835759e-04 
        </DataArray>
        <DataArray type="Float64" Name="rhov">
          -4.75474096e-05 -4.52896200e-05 -4.90192466e-05 -5.41887705e-05 
        </DataArray>
        <DataArray type="Float64" Name="E">
          2.11922900e+05 2.12392554e+05 2.12855646e+05 2.13312349e+05 
        </DataArray>
      </PointData>
    </Piece>
    <Piece NumberOfPoints="4" NumberOfCells="3">
      <Points>
        <DataArray type="Float64" NumberOfComponents="3" format="ascii">
          7.21598923e-01 3.41568366e-02 0.00000000e+00 
7.31933594e-01 3.30936089e-02 0.00000000e+00 
7.42266715e-01 3.20154354e-02 0.00000000e+00 
7.52598286e-01 3.09220124e-02 0.00000000e+00 

        </DataArray>
      </Points>
      <Cells>
        <DataArray type="Int32" Name="connectivity" format="ascii">
0 1
1 2
2 3

        </DataArray>
        <DataArray type="Int32" Name="offsets" format="ascii">
2 4 6 
        </DataArray>
        <DataArray type="UInt8" Name="types" format="ascii">
3 3 3 
        </DataArray>
      </Cells>
      <PointData>
        <DataArray type="Float64" Name="rho">
          9.37266174e-01 9.39154374e-01 9.41015266e-01 9.42849456e-01 
        </DataArray>
        <DataArray type="Float64" Name="rhou">
          1.62108252e-04 1.57105218e-04 1.53343059e-04 1.41919914e-04 
        </DataArray>
        <DataArray type="Float64" Name="rhov">
          -5.31989378e-05 -4.88565089e-05 -5.14690231e-05 -5.69877886e-05 
        </DataArray>
        <DataArray type="Float64" Name="E">
          2.13312344e+05 2.13762925e+05 2.14207094e+05 2.14644996e+05 
        </DataArray>
      </PointData>
    </Piece>
    <Piece NumberOfPoints="4" NumberOfCells="3">
      <Points>
        <DataArray type="Float64" NumberOfComponents="3" format="ascii">
          7.52598286e-01 3.09220124e-02 0.00000000e+00 
7.62928188e-01 2.98135038e-02 0.00000000e+00 
7.73256481e-01 2.86899786e-02 0.00000000e+00 
7.83583105e-01 2.75512449e-02 0.00000000e+00 

        </DataArray>
      </Points>
      <Cells>
        <DataArray type="Int32" Name="connectivity" format="ascii">
0 1
1 2
2 3

        </DataArray>
        <DataArray type="Int32" Name="offsets" format="ascii">
2 4 6 
        </DataArray>
        <DataArray type="UInt8" Name="types" format="ascii">
3 3 3 
        </DataArray>
      </Cells>
      <PointData>
        <DataArray type="Float64" Name="rho">
          9.42849451e-01 9.44658193e-01 9.46440730e-01 9.48197853e-01 
        </DataArray>
        <DataArray type="Float64" Name="rhou">
          1.39270671e-04 1.34495556e-04 1.29554732e-04 1.18904788e-04 
        </DataArray>
        <DataArray type="Float64" Name="rhov">
          -5.60480049e-05 -5.38900707e-05 -5.63942855e-05 -5.99506371e-05 
        </DataArray>
        <DataArray type="Float64" Name="E">
          2.14644995e+05 2.15076922e+05 2.15502707e+05 2.15922534e+05 
        </DataArray>
      </PointData>
    </Piece>
    <Piece NumberOfPoints="4" NumberOfCells="3">
      <Points>
        <DataArray type="Float64" NumberOfComponents="3" format="ascii">
          7.83583105e-01 2.75512449e-02 0.00000000e+00 
7.93908060e-01 2.63975188e-02 0.00000000e+00 
8.04231405e-01 2.52291560e-02 0.00000000e+00 
8.14553022e-01 2.40457114e-02 0.00000000e+00 

        </DataArray>
      </Points>
      <Cells>
        <DataArray type="Int32" Name="connectivity" format="ascii">
0 1
1 2
2 3

        </DataArray>
        <DataArray type="Int32" Name="offsets" format="ascii">
2 4 6 
        </DataArray>
        <DataArray type="UInt8" Name="types" format="ascii">
3 3 3 
        </DataArray>
      </Cells>
      <PointData>
        <DataArray type="Float64" Name="rho">
          9.48197860e-01 9.49930430e-01 9.51638437e-01 9.53321291e-01 
        </DataArray>
        <DataArray type="Float64" Name="rhou">
          1.21549090e-04 1.09522904e-04 1.07381315e-04 1.07287529e-04 
        </DataArray>
        <DataArray type="Float64" Name="rhov">
          -6.03106663e-05 -5.66729901e-05 -5.55513090e-05 -6.23986063e-05 
        </DataArray>
        <DataArray type="Float64" Name="E">
          2.15922535e+05 2.16336602e+05 2.16744906e+05 2.17147312e+05 
        </DataArray>
      </PointData>
    </Piece>
    <Piece NumberOfPoints="4" NumberOfCells="3">
      <Points>
        <DataArray type="Float64" NumberOfComponents="3" format="ascii">
          8.14553022e-01 2.40457114e-02 0.00000000e+00 
8.24872792e-01 2.28467938e-02 0.00000000e+00 
8.35190892e-01 2.16327831e-02 0.00000000e+00 
8.45507145e-01 2.04038676e-02 0.00000000e+00 

        </DataArray>
      </Points>
      <Cells>
        <DataArray type="Int32" Name="connectivity" format="ascii">
0 1
1 2
2 3

        </DataArray>
        <DataArray type="Int32" Name="offsets" format="ascii">
2 4 6 
        </DataArray>
        <DataArray type="UInt8" Name="types" format="ascii">
3 3 3 
        </DataArray>
      </Cells>
      <PointData>
        <DataArray type="Float64" Name="rho">
          9.53321336e-01 9.54980826e-01 9.56617338e-01 9.58231112e-01 
        </DataArray>
        <DataArray type="Float64" Name="rhou">
          1.01236014e-04 9.16196697e-05 8.32611145e-05 8.27048468e-05 
        </DataArray>
        <DataArray type="Float64" Name="rhov">
          -6.26546721e-05 -6.27293025e-05 -5.99375458e-05 -5.59560911e-05 
        </DataArray>
        <DataArray type="Float64" Name="E">
          2.17147322e+05 2.17544230e+05 2.17935719e+05 2.18321827e+05 
        </DataArray>
      </PointData>
    </Piece>
    <Piece NumberOfPoints="4" NumberOfCells="3">
      <Points>
        <DataArray type="Float64" NumberOfComponents="3" format="ascii">
          8.45507145e-01 2.04038676e-02 0.00000000e+00 
8.55821550e-01 1.91591792e-02 0.00000000e+00 
8.66134048e-01 1.78987328e-02 0.00000000e+00 
8.76444638e-01 1.66228991e-02 0.00000000e+00 

        </DataArray>
      </Points>
      <Cells>
        <DataArray type="Int32" Name="connectivity" format="ascii">
0 1
1 2
2 3

        </DataArray>
        <DataArray type="Int32" Name="offsets" format="ascii">
2 4 6 
        </DataArray>
        <DataArray type="UInt8" Name="types" format="ascii">
3 3 3 
        </DataArray>
      </Cells>
      <PointData>
        <DataArray type="Float64" Name="rho">
          9.58231228e-01 9.59820942e-01 9.61390725e-01 9.62937089e-01 
        </DataArray>
        <DataArray type="Float64" Name="rhou">
          1.04902891e-04 7.11530231e-05 6.84062590e-05 8.38417284e-05 
        </DataArray>
        <DataArray type="Float64" Name="rhov">
          -5.97090489e-05 -6.75660340e-05 -6.48831119e-05 -8.31989393e-05 
        </DataArray>
        <DataArray type="Float64" Name="E">
          2.18321853e+05 2.18702263e+05 2.19077886e+05 2.19447898e+05 
        </DataArray>
      </PointData>
    </Piece>
    <Piece NumberOfPoints="4" NumberOfCells="3">
      <Points>
        <DataArray type="Float64" NumberOfComponents="3" format="ascii">
          8.76444638e-01 1.66228991e-02 0.00000000e+00 
8.86753201e-01 1.53310820e-02 0.00000000e+00 
8.97059798e-01 1.40233757e-02 0.00000000e+00 
9.07364249e-01 1.26988320e-02 0.00000000e+00 

        </DataArray>
      </Points>
      <Cells>
        <DataArray type="Int32" Name="connectivity" format="ascii">
0 1
1 2
2 3

        </DataArray>
        <DataArray type="Int32" Name="offsets" format="ascii">
2 4 6 
        </DataArray>
        <DataArray type="UInt8" Name="types" format="ascii">
3 3 3 
        </DataArray>
      </Cells>
      <PointData>
        <DataArray type="Float64" Name="rho">
          9.62936623e-01 9.64466587e-01 9.65972501e-01 9.67473912e-01 
        </DataArray>
        <DataArray type="Float64" Name="rhou">
          -1.17009041e-05 8.28293447e-05 2.42803927e-05 -3.19253559e-05 
        </DataArray>
        <DataArray type="Float64" Name="rhov">
          -7.49700057e-05 -7.83348519e-05 -9.79262639e-05 4.81594271e-06 
        </DataArray>
        <DataArray type="Float64" Name="E">
          2.19447792e+05 2.19813756e+05 2.20173892e+05 2.20532616e+05 
        </DataArray>
      </PointData>
    </Piece>
    <Piece NumberOfPoints="4" NumberOfCells="3">
      <Points>
        <DataArray type="Float64" NumberOfComponents="3" format="ascii">
          9.07364249e-01 1.26988320e-02 0.00000000e+00 
9.17666554e-01 1.13577880e-02 0.00000000e+00 
9.27966774e-01 1.00004105e-02 0.00000000e+00 
9.38264549e-01 8.62528384e-03 0.00000000e+00 

        </DataArray>
      </Points>
      <Cells>
        <DataArray type="Int32" Name="connectivity" format="ascii">
0 1
1 2
2 3

        </DataArray>
        <DataArray type="Int32" Name="offsets" format="ascii">
2 4 6 
        </DataArray>
        <DataArray type="UInt8" Name="types" format="ascii">
3 3 3 
        </DataArray>
      </Cells>
      <PointData>
        <DataArray type="Float64" Name="rho">
          9.67478959e-01 9.68932108e-01 9.70412796e-01 9.71744066e-01 
        </DataArray>
        <DataArray type="Float64" Name="rhou">
          8.08636952e-04 -2.39055003e-04 3.32054199e-04 7.71223046e-04 
        </DataArray>
        <DataArray type="Float64" Name="rhov">
          -6.72532805e-05 -1.21724985e-04 -4.77444624e-05 -1.51895878e-03 
        </DataArray>
        <DataArray type="Float64" Name="E">
          2.20533765e+05 2.20881074e+05 2.21234236e+05 2.21552935e+05 
        </DataArray>
      </PointData>
    </Piece>
    <Piece NumberOfPoints="4" NumberOfCells="3">
      <Points>
        <DataArray type="Float64" NumberOfComponents="3" format="ascii">
          9.38264549e-01 8.62528384e-03 0.00000000e+00 
9.48560059e-01 7.23283459e-03 0.00000000e+00 
9.58853185e-01 5.82307298e-03 0.00000000e+00 
9.69143867e-01 4.39538015e-03 0.00000000e+00 

        </DataArray>
      </Points>
      <Cells>
        <DataArray type="Int32" Name="connectivity" format="ascii">
0 1
1 2
2 3

        </DataArray>
        <DataArray type="Int32" Name="offsets" format="ascii">
2 4 6 
        </DataArray>
        <DataArray type="UInt8" Name="types" format="ascii">
3 3 3 
        </DataArray>
      </Cells>
      <PointData>
        <DataArray type="Float64" Name="rho">
          9.71694786e-01 9.73360750e-01 9.74602420e-01 9.77346506e-01 
        </DataArray>
        <DataArray type="Float64" Name="rhou">
          -6.95846829e-03 2.19676533e-03 -3.29823109e-03 -1.97133359e-02 
        </DataArray>
        <DataArray type="Float64" Name="rhov">
          -1.13082319e-03 1.34171948e-04 -1.17764128e-03 1.96202742e-02 
        </DataArray>
        <DataArray type="Float64" Name="E">
          2.21541700e+05 2.21936374e+05 2.22234156e+05 2.22874578e+05 
        </DataArray>
      </PointData>
    </Piece>
    <Piece NumberOfPoints="4" NumberOfCells="3">
      <Points>
        <DataArray type="Float64" NumberOfComponents="3" format="ascii">
          9.69143867e-01 4.39538015e-03 0.00000000e+00 
9.79435980e-01 2.94816052e-03 0.00000000e+00 
9.89725590e-01 1.48259092e-03 0.00000000e+00 
1.00000000e+00 0.00000000e+00 0.00000000e+00 

        </DataArray>
      </Points>
      <Cells>
        <DataArray type="Int32" Name="connectivity" format="ascii">
0 1
1 2
2 3

        </DataArray>
        <DataArray type="Int32" Name="offsets" format="ascii">
2 4 6 
        </DataArray>
        <DataArray type="UInt8" Name="types" format="ascii">
3 3 3 
        </DataArray>
      </Cells>
      <PointData>
        <DataArray type="Float64" Name="rho">
          9.77651047e-01 9.77204936e-01 9.81130939e-01 9.70873101e-01 
        </DataArray>
        <DataArray type="Float64" Name="rhou">
          -1.54172753e-03 -9.93586959e-03 -3.89091609e-02 5.14724015e-01 
        </DataArray>
        <DataArray type="Float64" Name="rhov">
          2.19743085e-02 1.03024417e-03 5.42201120e-02 -1.42319042e-01 
        </DataArray>
        <DataArray type="Float64" Name="E">
          2.22944167e+05 2.22857233e+05 2.23767883e+05 2.21441808e+05 
        </DataArray>
      </PointData>
    </Piece>
    <Piece NumberOfPoints="4" NumberOfCells="3">
      <Points>
        <DataArray type="Float64" NumberOfComponents="3" format="ascii">
          9.69029665e-01 -4.41133138e-03 0.00000000e+00 
9.79355037e-01 -2.95961346e-03 0.00000000e+00 
9.89677846e-01 -1.48943183e-03 0.00000000e+00 
1.00000000e+00 0.00000000e+00 0.00000000e+00 

        </DataArray>
      </Points>
      <Cells>
        <DataArray type="Int32" Name="connectivity" format="ascii">
0 1
1 2
2 3

        </DataArray>
        <DataArray type="Int32" Name="offsets" format="ascii">
2 4 6 
        </DataArray>
        <DataArray type="UInt8" Name="types" format="ascii">
3 3 3 
        </DataArray>
      </Cells>
      <PointData>
        <DataArray type="Float64" Name="rho">
          9.76696054e-01 9.76278305e-01 9.80130296e-01 9.71069930e-01 
        </DataArray>
        <DataArray type="Float64" Name="rhou">
          -9.16544181e-04 -7.86793814e-03 -3.69352214e-02 4.75200206e-01 
        </DataArray>
        <DataArray type="Float64" Name="rhov">
          -2.43585270e-02 2.17772850e-03 -5.06680634e-02 1.48425480e-01 
        </DataArray>
        <DataArray type="Float64" Name="E">
          2.22699626e+05 2.22621464e+05 2.23519195e+05 2.21481164e+05 
        </DataArray>
      </PointData>
    </Piece>
    <Piece NumberOfPoints="4" NumberOfCells="3">
      <Points>
        <DataArray type="Float64" NumberOfComponents="3" format="ascii">
          9.38035965e-01 -8.65600072e-03 0.00000000e+00 
9.48369622e-01 -7.25875143e-03 0.00000000e+00 
9.58700895e-01 -5.84406452e-03 0.00000000e+00 
9.69029665e-01 -4.41133138e-03 0.00000000e+00 

        </DataArray>
      </Points>
      <Cells>
        <DataArray type="Int32" Name="connectivity" format="ascii">
0 1
1 2
2 3

        </DataArray>
        <DataArray type="Int32" Name="offsets" format="ascii">
2 4 6 
        </DataArray>
        <DataArray type="UInt8" Name="types" format="ascii">
3 3 3 
        </DataArray>
      </Cells>
      <PointData>
        <DataArray type="Float64" Name="rho">
          9.70948879e-01 9.72559023e-01 9.73754859e-01 9.76393478e-01 
        </DataArray>
        <DataArray type="Float64" Name="rhou">
          -6.59450157e-03 2.36186627e-03 -2.74608055e-03 -1.77695505e-02 
        </DataArray>
        <DataArray type="Float64" Name="rhov">
          1.14110500e-03 -1.77466689e-04 1.39722609e-03 -1.81454873e-02 
        </DataArray>
        <DataArray type="Float64" Name="E">
          2.21345332e+05 2.21726720e+05 2.22013986e+05 2.22630832e+05 
        </DataArray>
      </PointData>
    </Piece>
    <Piece NumberOfPoints="4" NumberOfCells="3">
      <Points>
        <DataArray type="Float64" NumberOfComponents="3" format="ascii">
          9.07021165e-01 -1.27432076e-02 0.00000000e+00 
9.17361677e-01 -1.13977119e-02 0.00000000e+00 
9.27700043e-01 -1.00357840e-02 0.00000000e+00 
9.38035965e-01 -8.65600072e-03 0.00000000e+00 

        </DataArray>
      </Points>
      <Cells>
        <DataArray type="Int32" Name="connectivity" format="ascii">
0 1
1 2
2 3

        </DataArray>
        <DataArray type="Int32" Name="offsets" format="ascii">
2 4 6 
        </DataArray>
        <DataArray type="UInt8" Name="types" format="ascii">
3 3 3 
        </DataArray>
      </Cells>
      <PointData>
        <DataArray type="Float64" Name="rho">
          9.66901713e-01 9.68292608e-01 9.69716398e-01 9.70997148e-01 
        </DataArray>
        <DataArray type="Float64" Name="rhou">
          9.32557248e-04 -9.72468021e-05 4.86384546e-04 8.92308602e-04 
        </DataArray>
        <DataArray type="Float64" Name="rhov">
          5.36455158e-05 8.18848395e-05 -8.69916866e-06 1.43685945e-03 
        </DataArray>
        <DataArray type="Float64" Name="E">
          2.20379365e+05 2.20711002e+05 2.21050008e+05 2.21356327e+05 
        </DataArray>
      </PointData>
    </Piece>
    <Piece NumberOfPoints="4" NumberOfCells="3">
      <Points>
        <DataArray type="Float64" NumberOfComponents="3" format="ascii">
          8.75986874e-01 -1.66798849e-02 0.00000000e+00 
8.86333704e-01 -1.53839625e-02 0.00000000e+00 
8.96678507e-01 -1.40720531e-02 0.00000000e+00 
9.07021165e-01 -1.27432076e-02 0.00000000e+00 

        </DataArray>
      </Points>
      <Cells>
        <DataArray type="Int32" Name="connectivity" format="ascii">
0 1
1 2
2 3

        </DataArray>
        <DataArray type="Int32" Name="offsets" format="ascii">
2 4 6 
        </DataArray>
        <DataArray type="UInt8" Name="types" format="ascii">
3 3 3 
        </DataArray>
      </Cells>
      <PointData>
        <DataArray type="Float64" Name="rho">
          9.62611919e-01 9.64047033e-01 9.65469568e-01 9.66896646e-01 
        </DataArray>
        <DataArray type="Float64" Name="rhou">
          1.39166280e-04 2.21026445e-04 1.70439654e-04 1.15567030e-04 
        </DataArray>
        <DataArray type="Float64" Name="rhov">
          7.37371253e-05 6.50149202e-05 8.03593081e-05 -1.76665026e-05 
        </DataArray>
        <DataArray type="Float64" Name="E">
          2.19357104e+05 2.19699135e+05 2.20038209e+05 2.20378212e+05 
        </DataArray>
      </PointData>
    </Piece>
    <Piece NumberOfPoints="4" NumberOfCells="3">
      <Points>
        <DataArray type="Float64" NumberOfComponents="3" format="ascii">
          8.44934702e-01 -2.04724707e-02 0.00000000e+00 
8.55287313e-01 -1.92240477e-02 0.00000000e+00 
8.65638077e-01 -1.79597028e-02 0.00000000e+00 
8.75986874e-01 -1.66798849e-02 0.00000000e+00 

        </DataArray>
      </Points>
      <Cells>
        <DataArray type="Int32" Name="connectivity" format="ascii">
0 1
1 2
2 3

        </DataArray>
        <DataArray type="Int32" Name="offsets" format="ascii">
2 4 6 
        </DataArray>
        <DataArray type="UInt8" Name="types" format="ascii">
3 3 3 
        </DataArray>
      </Cells>
      <PointData>
        <DataArray type="Float64" Name="rho">
          9.58271906e-01 9.59724828e-01 9.61174090e-01 9.62612357e-01 
        </DataArray>
        <DataArray type="Float64" Name="rhou">
          2.80108558e-04 2.18790958e-04 2.05412225e-04 2.42969765e-04 
        </DataArray>
        <DataArray type="Float64" Name="rhov">
          4.80618802e-05 6.88854256e-05 5.81484677e-05 7.69453840e-05 
        </DataArray>
        <DataArray type="Float64" Name="E">
          2.18322718e+05 2.18668990e+05 2.19014380e+05 2.19357203e+05 
        </DataArray>
      </PointData>
    </Piece>
    <Piece NumberOfPoints="4" NumberOfCells="3">
      <Points>
        <DataArray type="Float64" NumberOfComponents="3" format="ascii">
          8.13865662e-01 -2.41250079e-02 0.00000000e+00 
8.24223816e-01 -2.29226518e-02 0.00000000e+00 
8.34580123e-01 -2.17050612e-02 0.00000000e+00 
8.44934702e-01 -2.04724707e-02 0.00000000e+00 

        </DataArray>
      </Points>
      <Cells>
        <DataArray type="Int32" Name="connectivity" format="ascii">
0 1
1 2
2 3

        </DataArray>
        <DataArray type="Int32" Name="offsets" format="ascii">
2 4 6 
        </DataArray>
        <DataArray type="UInt8" Name="types" format="ascii">
3 3 3 
        </DataArray>
      </Cells>
      <PointData>
        <DataArray type="Float64" Name="rho">
          9.53857052e-01 9.55335303e-01 9.56807060e-01 9.58271672e-01 
        </DataArray>
        <DataArray type="Float64" Name="rhou">
          2.59156885e-04 2.42540703e-04 2.26045280e-04 2.30348815e-04 
        </DataArray>
        <DataArray type="Float64" Name="rhov">
          5.94598097e-05 6.02505679e-05 5.26340478e-05 4.03711052e-05 
        </DataArray>
        <DataArray type="Float64" Name="E">
          2.17270904e+05 2.17623053e+05 2.17973690e+05 2.18322664e+05 
        </DataArray>
      </PointData>
    </Piece>
    <Piece NumberOfPoints="4" NumberOfCells="3">
      <Points>
        <DataArray type="Float64" NumberOfComponents="3" format="ascii">
          7.82780826e-01 -2.76402626e-02 0.00000000e+00 
7.93144107e-01 -2.64833923e-02 0.00000000e+00 
8.03505778e-01 -2.53117718e-02 0.00000000e+00 
8.13865662e-01 -2.41250079e-02 0.00000000e+00 

        </DataArray>
      </Points>
      <Cells>
        <DataArray type="Int32" Name="connectivity" format="ascii">
0 1
1 2
2 3

        </DataArray>
        <DataArray type="Int32" Name="offsets" format="ascii">
2 4 6 
        </DataArray>
        <DataArray type="UInt8" Name="types" format="ascii">
3 3 3 
        </DataArray>
      </Cells>
      <PointData>
        <DataArray type="Float64" Name="rho">
          9.49377432e-01 9.50878128e-01 9.52372216e-01 9.53856942e-01 
        </DataArray>
        <DataArray type="Float64" Name="rhou">
          2.83845356e-04 2.61573641e-04 2.60223635e-04 2.68663946e-04 
        </DataArray>
        <DataArray type="Float64" Name="rhov">
          5.59203741e-05 4.74575225e-05 4.29882270e-05 5.76095209e-05 
        </DataArray>
        <DataArray type="Float64" Name="E">
          2.16204068e+05 2.16561415e+05 2.16917228e+05 2.17270879e+05 
        </DataArray>
      </PointData>
    </Piece>
    <Piece NumberOfPoints="4" NumberOfCells="3">
      <Points>
        <DataArray type="Float64" NumberOfComponents="3" format="ascii">
          7.51680970e-01 -3.10197193e-02 0.00000000e+00 
7.62049198e-01 -2.99084149e-02 0.00000000e+00 
7.72415876e-01 -2.87819952e-02 0.00000000e+00 
7.82780826e-01 -2.76402626e-02 0.00000000e+00 

        </DataArray>
      </Points>
      <Cells>
        <DataArray type="Int32" Name="connectivity" format="ascii">
0 1
1 2
2 3

        </DataArray>
        <DataArray type="Int32" Name="offsets" format="ascii">
2 4 6 
        </DataArray>
        <DataArray type="UInt8" Name="types" format="ascii">
3 3 3 
        </DataArray>
      </Cells>
      <PointData>
        <DataArray type="Float64" Name="rho">
          9.44837940e-01 9.46358023e-01 9.47871047e-01 9.49377395e-01 
        </DataArray>
        <DataArray type="Float64" Name="rhou">
          3.00335188e-04 2.95246722e-04 2.88800554e-04 2.73451523e-04 
        </DataArray>
        <DataArray type="Float64" Name="rhov">
          4.81575516e-05 4.16013417e-05 4.56789936e-05 5.36048575e-05 
        </DataArray>
        <DataArray type="Float64" Name="E">
          2.15123330e+05 2.15485182e+05 2.15845396e+05 2.16204060e+05 
        </DataArray>
      </PointData>
    </Piece>
    <Piece NumberOfPoints="4" NumberOfCells="3">
      <Points>
        <DataArray type="Float64" NumberOfComponents="3" format="ascii">
          7.20566452e-01 -3.42622213e-02 0.00000000e+00 
7.30939507e-01 -3.31965312e-02 0.00000000e+00 
7.41311073e-01 -3.21157984e-02 0.00000000e+00 
7.51680970e-01 -3.10197193e-02 0.00000000e+00 

        </DataArray>
      </Points>
      <Cells>
        <DataArray type="Int32" Name="connectivity" format="ascii">
0 1
1 2
2 3

        </DataArray>
        <DataArray type="Int32" Name="offsets" format="ascii">
2 4 6 
        </DataArray>
        <DataArray type="UInt8" Name="types" format="ascii">
3 3 3 
        </DataArray>
      </Cells>
      <PointData>
        <DataArray type="Float64" Name="rho">
          9.40246494e-01 9.41783018e-01 9.43313656e-01 9.44837931e-01 
        </DataArray>
        <DataArray type="Float64" Name="rhou">
          3.29011447e-04 3.21370089e-04 3.17739347e-04 3.03694072e-04 
        </DataArray>
        <DataArray type="Float64" Name="rhov">
          4.39551984e-05 3.31388423e-05 3.61417682e-05 4.85204307e-05 
        </DataArray>
        <DataArray type="Float64" Name="E">
          2.14030474e+05 2.14396169e+05 2.14760490e+05 2.15123328e+05 
        </DataArray>
      </PointData>
    </Piece>
    <Piece NumberOfPoints="4" NumberOfCells="3">
      <Points>
        <DataArray type="Float64" NumberOfComponents="3" format="ascii">
          6.89437866e-01 -3.73662710e-02 0.00000000e+00 
6.99815631e-01 -3.63472365e-02 0.00000000e+00 
7.10191846e-01 -3.53125818e-02 0.00000000e+00 
7.20566452e-01 -3.42622213e-02 0.00000000e+00 

        </DataArray>
      </Points>
      <Cells>
        <DataArray type="Int32" Name="connectivity" format="ascii">
0 1
1 2
2 3

        </DataArray>
        <DataArray type="Int32" Name="offsets" format="ascii">
2 4 6 
        </DataArray>
        <DataArray type="UInt8" Name="types" format="ascii">
3 3 3 
        </DataArray>
      </Cells>
      <PointData>
        <DataArray type="Float64" Name="rho">
          9.35618482e-01 9.37165024e-01 9.38707770e-01 9.40246505e-01 
        </DataArray>
        <DataArray type="Float64" Name="rhou">
          3.64304617e-04 3.56431876e-04 3.48761217e-04 3.30070913e-04 
        </DataArray>
        <DataArray type="Float64" Name="rhov">
          3.50324876e-05 2.79603993e-05 3.29720691e-05 4.41138396e-05 
        </DataArray>
        <DataArray type="Float64" Name="E">
          2.12928995e+05 2.13297066e+05 2.13664244e+05 2.14030477e+05 
        </DataArray>
      </PointData>
    </Piece>
    <Piece NumberOfPoints="4" NumberOfCells="3">
      <Points>
        <DataArray type="Float64" NumberOfComponents="3" format="ascii">
          6.58295333e-01 -4.03269380e-02 0.00000000e+00 
6.68677747e-01 -3.93563360e-02 0.00000000e+00 
6.79058611e-01 -3.83694395e-02 0.00000000e+00 
6.89437866e-01 -3.73662710e-02 0.00000000e+00 

        </DataArray>
      </Points>
      <Cells>
        <DataArray type="Int32" Name="connectivity" format="ascii">
0 1
1 2
2 3

        </DataArray>
        <DataArray type="Int32" Name="offsets" format="ascii">
2 4 6 
        </DataArray>
        <DataArray type="UInt8" Name="types" format="ascii">
3 3 3 
        </DataArray>
      </Cells>
      <PointData>
        <DataArray type="Float64" Name="rho">
          9.30974551e-01 9.32523629e-01 9.34071565e-01 9.35618537e-01 
        </DataArray>
        <DataArray type="Float64" Name="rhou">
          4.02811918e-04 3.96818982e-04 3.83574614e-04 3.62376508e-04 
        </DataArray>
        <DataArray type="Float64" Name="rhov">
          2.28271402e-05 2.00699301e-05 2.71562096e-05 3.57268236e-05 
        </DataArray>
        <DataArray type="Float64" Name="E">
          2.11823650e+05 2.12192369e+05 2.12560809e+05 2.12929007e+05 
        </DataArray>
      </PointData>
    </Piece>
    <Piece NumberOfPoints="4" NumberOfCells="3">
      <Points>
        <DataArray type="Float64" NumberOfComponents="3" format="ascii">
          6.27138972e-01 -4.31386717e-02 0.00000000e+00 
6.37525976e-01 -4.22184542e-02 0.00000000e+00 
6.47911429e-01 -4.12811004e-02 0.00000000e+00 
6.58295333e-01 -4.03269380e-02 0.00000000e+00 

        </DataArray>
      </Points>
      <Cells>
        <DataArray type="Int32" Name="connectivity" format="ascii">
0 1
1 2
2 3

        </DataArray>
        <DataArray type="Int32" Name="offsets" format="ascii">
2 4 6 
        </DataArray>
        <DataArray type="UInt8" Name="types" format="ascii">
3 3 3 
        </DataArray>
      </Cells>
      <PointData>
        <DataArray type="Float64" Name="rho">
          9.26343033e-01 9.27883194e-01 9.29427602e-01 9.30974584e-01 
        </DataArray>
        <DataArray type="Float64" Name="rhou">
          4.55081760e-04 4.36111378e-04 4.18535024e-04 4.03680611e-04 
        </DataArray>
        <DataArray type="Float64" Name="rhov">
          1.81836181e-05 1.74577914e-05 1.92432561e-05 2.36623262e-05 
        </DataArray>
        <DataArray type="Float64" Name="E">
          2.10721022e+05 2.11087726e+05 2.11455402e+05 2.11823658e+05 
        </DataArray>
      </PointData>
    </Piece>
    <Piece NumberOfPoints="4" NumberOfCells="3">
      <Points>
        <DataArray type="Float64" NumberOfComponents="3" format="ascii">
          5.95968783e-01 -4.57924642e-02 0.00000000e+00 
6.06360376e-01 -4.49259281e-02 0.00000000e+00 
6.16750479e-01 -4.40412909e-02 0.00000000e+00 
6.27138972e-01 -4.31386717e-02 0.00000000e+00 

        </DataArray>
      </Points>
      <Cells>
        <DataArray type="Int32" Name="connectivity" format="ascii">
0 1
1 2
2 3

        </DataArray>
        <DataArray type="Int32" Name="offsets" format="ascii">
2 4 6 
        </DataArray>
        <DataArray type="UInt8" Name="types" format="ascii">
3 3 3 
        </DataArray>
      </Cells>
      <PointData>
        <DataArray type="Float64" Name="rho">
          9.21765702e-01 9.23283469e-01 9.24809622e-01 9.26343026e-01 
        </DataArray>
        <DataArray type="Float64" Name="rhou">
          5.00021103e-04 4.87981617e-04 4.70635162e-04 4.48491326e-04 
        </DataArray>
        <DataArray type="Float64" Name="rhov">
          4.97614772e-06 2.17500394e-06 9.05709595e-06 1.89611009e-05 
        </DataArray>
        <DataArray type="Float64" Name="E">
          2.09630876e+05 2.09992397e+05 2.10355869e+05 2.10721020e+05 
        </DataArray>
      </PointData>
    </Piece>
    <Piece NumberOfPoints="4" NumberOfCells="3">
      <Points>
        <DataArray type="Float64" NumberOfComponents="3" format="ascii">
          5.64784765e-01 -4.82786149e-02 0.00000000e+00 
5.75181007e-01 -4.74695377e-02 0.00000000e+00 
5.85575700e-01 -4.66405638e-02 0.00000000e+00 
5.95968783e-01 -4.57924642e-02 0.00000000e+00 

        </DataArray>
      </Points>
      <Cells>
        <DataArray type="Int32" Name="connectivity" format="ascii">
0 1
1 2
2 3

        </DataArray>
        <DataArray type="Int32" Name="offsets" format="ascii">
2 4 6 
        </DataArray>
        <DataArray type="UInt8" Name="types" format="ascii">
3 3 3 
        </DataArray>
      </Cells>
      <PointData>
        <DataArray type="Float64" Name="rho">
          9.17299658e-01 9.18771094e-01 9.20260405e-01 9.21765815e-01 
        </DataArray>
        <DataArray type="Float64" Name="rhou">
          5.76001571e-04 5.49928656e-04 5.17103089e-04 4.93726313e-04 
        </DataArray>
        <DataArray type="Float64" Name="rhov">
          -7.71826764e-06 3.98050898e-06 9.09390326e-06 5.88266131e-06 
        </DataArray>
        <DataArray type="Float64" Name="E">
          2.08566601e+05 2.08917339e+05 2.09272249e+05 2.09630902e+05 
        </DataArray>
      </PointData>
    </Piece>
    <Piece NumberOfPoints="4" NumberOfCells="3">
      <Points>
        <DataArray type="Float64" NumberOfComponents="3" format="ascii">
          5.33586800e-01 -5.05827516e-02 0.00000000e+00 
5.43987691e-01 -4.98356484e-02 0.00000000e+00 
5.54387033e-01 -4.90674041e-02 0.00000000e+00 
5.64784765e-01 -4.82786149e-02 0.00000000e+00 

        </DataArray>
      </Points>
      <Cells>
        <DataArray type="Int32" Name="connectivity" format="ascii">
0 1
1 2
2 3

        </DataArray>
        <DataArray type="Int32" Name="offsets" format="ascii">
2 4 6 
        </DataArray>
        <DataArray type="UInt8" Name="types" format="ascii">
3 3 3 
        </DataArray>
      </Cells>
      <PointData>
        <DataArray type="Float64" Name="rho">
          9.13016200e-01 9.14417796e-01 9.15847408e-01 9.17299617e-01 
        </DataArray>
        <DataArray type="Float64" Name="rhou">
          6.49406277e-04 6.10051370e-04 5.81565621e-04 5.70269686e-04 
        </DataArray>
        <DataArray type="Float64" Name="rhov">
          -7.59474008e-06 -7.32752084e-06 -1.01213696e-05 -7.36383716e-06 
        </DataArray>
        <DataArray type="Float64" Name="E">
          2.07545018e+05 2.07879409e+05 2.08220354e+05 2.08566591e+05 
        </DataArray>
      </PointData>
    </Piece>
    <Piece NumberOfPoints="4" NumberOfCells="3">
      <Points>
        <DataArray type="Float64" NumberOfComponents="3" format="ascii">
          5.02374947e-01 -5.26902266e-02 0.00000000e+00 
5.12780428e-01 -5.20105064e-02 0.00000000e+00 
5.23184419e-01 -5.13078682e-02 0.00000000e+00 
5.33586800e-01 -5.05827516e-02 0.00000000e+00 

        </DataArray>
      </Points>
      <Cells>
        <DataArray type="Int32" Name="connectivity" format="ascii">
0 1
1 2
2 3

        </DataArray>
        <DataArray type="Int32" Name="offsets" format="ascii">
2 4 6 
        </DataArray>
        <DataArray type="UInt8" Name="types" format="ascii">
3 3 3 
        </DataArray>
      </Cells>
      <PointData>
        <DataArray type="Float64" Name="rho">
          9.09013953e-01 9.10310519e-01 9.11646600e-01 9.13016105e-01 
        </DataArray>
        <DataArray type="Float64" Name="rhou">
          7.29541069e-04 6.93752901e-04 6.66597458e-04 6.46582749e-04 
        </DataArray>
        <DataArray type="Float64" Name="rhov">
          -1.77845746e-05 -2.39728120e-05 -2.22478927e-05 -8.05288275e-06 
        </DataArray>
        <DataArray type="Float64" Name="E">
          2.06589355e+05 2.06899099e+05 2.07218120e+05 2.07544996e+05 
        </DataArray>
      </PointData>
    </Piece>
    <Piece NumberOfPoints="4" NumberOfCells="3">
      <Points>
        <DataArray type="Float64" NumberOfComponents="3" format="ascii">
          4.71149325e-01 -5.45825884e-02 0.00000000e+00 
4.81559396e-01 -5.39771840e-02 0.00000000e+00 
4.91967946e-01 -5.33461571e-02 0.00000000e+00 
5.02374947e-01 -5.26902266e-02 0.00000000e+00 

        </DataArray>
      </Points>
      <Cells>
        <DataArray type="Int32" Name="connectivity" format="ascii">
0 1
1 2
2 3

        </DataArray>
        <DataArray type="Int32" Name="offsets" format="ascii">
2 4 6 
        </DataArray>
        <DataArray type="UInt8" Name="types" format="ascii">
3 3 3 
        </DataArray>
      </Cells>
      <PointData>
        <DataArray type="Float64" Name="rho">
          9.05423536e-01 9.06566682e-01 9.07763896e-01 9.09014042e-01 
        </DataArray>
        <DataArray type="Float64" Name="rhou">
          8.34643403e-04 8.12470095e-04 7.66154117e-04 7.09690688e-04 
        </DataArray>
        <DataArray type="Float64" Name="rhov">
          -4.29435452e-05 -3.64775870e-05 -1.89594205e-05 -1.49564740e-05 
        </DataArray>
        <DataArray type="Float64" Name="E">
          2.05730425e+05 2.06004104e+05 2.06290525e+05 2.06589376e+05 
        </DataArray>
      </PointData>
    </Piece>
    <Piece NumberOfPoints="4" NumberOfCells="3">
      <Points>
        <DataArray type="Float64" NumberOfComponents="3" format="ascii">
          4.39910263e-01 -5.62384278e-02 0.00000000e+00 
4.50324744e-01 -5.57143167e-02 0.00000000e+00 
4.60737765e-01 -5.51619194e-02 0.00000000e+00 
4.71149325e-01 -5.45825884e-02 0.00000000e+00 

        </DataArray>
      </Points>
      <Cells>
        <DataArray type="Int32" Name="connectivity" format="ascii">
0 1
1 2
2 3

        </DataArray>
        <DataArray type="Int32" Name="offsets" format="ascii">
2 4 6 
        </DataArray>
        <DataArray type="UInt8" Name="types" format="ascii">
3 3 3 
        </DataArray>
      </Cells>
      <PointData>
        <DataArray type="Float64" Name="rho">
          9.02404060e-01 9.03332620e-01 9.04342671e-01 9.05423612e-01 
        </DataArray>
        <DataArray type="Float64" Name="rhou">
          1.00127733e-03 9.24592412e-04 8.66716327e-04 8.39991026e-04 
        </DataArray>
        <DataArray type="Float64" Name="rhov">
          -3.59994266e-05 -2.67821555e-05 -3.31914243e-05 -4.03812707e-05 
        </DataArray>
        <DataArray type="Float64" Name="E">
          2.05005861e+05 2.05229046e+05 2.05471403e+05 2.05730442e+05 
        </DataArray>
      </PointData>
    </Piece>
    <Piece NumberOfPoints="4" NumberOfCells="3">
      <Points>
        <DataArray type="Float64" NumberOfComponents="3" format="ascii">
          4.08658355e-01 -5.76302819e-02 0.00000000e+00 
4.19077009e-01 -5.71971126e-02 0.00000000e+00 
4.29494321e-01 -5.67329265e-02 0.00000000e+00 
4.39910263e-01 -5.62384278e-02 0.00000000e+00 

        </DataArray>
      </Points>
      <Cells>
        <DataArray type="Int32" Name="connectivity" format="ascii">
0 1
1 2
2 3

        </DataArray>
        <DataArray type="Int32" Name="offsets" format="ascii">
2 4 6 
        </DataArray>
        <DataArray type="UInt8" Name="types" format="ascii">
3 3 3 
        </DataArray>
      </Cells>
      <PointData>
        <DataArray type="Float64" Name="rho">
          9.00166523e-01 9.00812761e-01 9.01562458e-01 9.02403828e-01 
        </DataArray>
        <DataArray type="Float64" Name="rhou">
          1.15489019e-03 1.08576025e-03 1.03474840e-03 9.95828493e-04 
        </DataArray>
        <DataArray type="Float64" Name="rhov">
          -4.45517067e-05 -5.69530829e-05 -5.60688519e-05 -3.58178952e-05 
        </DataArray>
        <DataArray type="Float64" Name="E">
          2.04465593e+05 2.04622178e+05 2.04803171e+05 2.05005808e+05 
        </DataArray>
      </PointData>
    </Piece>
    <Piece NumberOfPoints="4" NumberOfCells="3">
      <Points>
        <DataArray type="Float64" NumberOfComponents="3" format="ascii">
          3.77394795e-01 -5.87291755e-02 0.00000000e+00 
3.87817174e-01 -5.83979115e-02 0.00000000e+00 
3.98238391e-01 -5.80311492e-02 0.00000000e+00 
4.08658355e-01 -5.76302819e-02 0.00000000e+00 

        </DataArray>
      </Points>
      <Cells>
        <DataArray type="Int32" Name="connectivity" format="ascii">
0 1
1 2
2 3

        </DataArray>
        <DataArray type="Int32" Name="offsets" format="ascii">
2 4 6 
        </DataArray>
        <DataArray type="UInt8" Name="types" format="ascii">
3 3 3 
        </DataArray>
      </Cells>
      <PointData>
        <DataArray type="Float64" Name="rho">
          8.98976543e-01 8.99239263e-01 8.99637034e-01 9.00166736e-01 
        </DataArray>
        <DataArray type="Float64" Name="rhou">
          1.40237491e-03 1.32924088e-03 1.22814552e-03 1.12356854e-03 
        </DataArray>
        <DataArray type="Float64" Name="rhov">
          -8.80242282e-05 -6.01202402e-05 -3.22879597e-05 -3.96200957e-05 
        </DataArray>
        <DataArray type="Float64" Name="E">
          2.04172443e+05 2.04238523e+05 2.04336531e+05 2.04465642e+05 
        </DataArray>
      </PointData>
    </Piece>
    <Piece NumberOfPoints="4" NumberOfCells="3">
      <Points>
        <DataArray type="Float64" NumberOfComponents="3" format="ascii">
          3.46121490e-01 -5.95011823e-02 0.00000000e+00 
3.56546819e-01 -5.92821389e-02 0.00000000e+00 
3.66971314e-01 -5.90242445e-02 0.00000000e+00 
3.77394795e-01 -5.87291755e-02 0.00000000e+00 

        </DataArray>
      </Points>
      <Cells>
        <DataArray type="Int32" Name="connectivity" format="ascii">
0 1
1 2
2 3

        </DataArray>
        <DataArray type="Int32" Name="offsets" format="ascii">
2 4 6 
        </DataArray>
        <DataArray type="UInt8" Name="types" format="ascii">
3 3 3 
        </DataArray>
      </Cells>
      <PointData>
        <DataArray type="Float64" Name="rho">
          8.99127607e-01 8.98903206e-01 8.98858652e-01 8.98976636e-01 
        </DataArray>
        <DataArray type="Float64" Name="rhou">
          1.74389907e-03 1.59986474e-03 1.47137912e-03 1.40578484e-03 
        </DataArray>
        <DataArray type="Float64" Name="rhov">
          -1.22839375e-04 -8.08150082e-05 -7.34608410e-05 -8.33605045e-05 
        </DataArray>
        <DataArray type="Float64" Name="E">
          2.04196173e+05 2.04147146e+05 2.04140606e+05 2.04172463e+05 
        </DataArray>
      </PointData>
    </Piece>
    <Piece NumberOfPoints="4" NumberOfCells="3">
      <Points>
        <DataArray type="Float64" NumberOfComponents="3" format="ascii">
          3.14841360e-01 -5.99102043e-02 0.00000000e+00 
3.25268596e-01 -5.98174632e-02 0.00000000e+00 
3.35695356e-01 -5.96801341e-02 0.00000000e+00 
3.46121490e-01 -5.95011823e-02 0.00000000e+00 

        </DataArray>
      </Points>
      <Cells>
        <DataArray type="Int32" Name="connectivity" format="ascii">
0 1
1 2
2 3

        </DataArray>
        <DataArray type="Int32" Name="offsets" format="ascii">
2 4 6 
        </DataArray>
        <DataArray type="UInt8" Name="types" format="ascii">
3 3 3 
        </DataArray>
      </Cells>
      <PointData>
        <DataArray type="Float64" Name="rho">
          9.01026179e-01 9.00159348e-01 8.99535748e-01 8.99127316e-01 
        </DataArray>
        <DataArray type="Float64" Name="rhou">
          2.19320220e-03 1.94888082e-03 1.78419153e-03 1.70824132e-03 
        </DataArray>
        <DataArray type="Float64" Name="rhov">
          -5.98217819e-05 -3.63643381e-05 -6.86491084e-05 -1.22069145e-04 
        </DataArray>
        <DataArray type="Float64" Name="E">
          2.04633163e+05 2.04432198e+05 2.04288721e+05 2.04196106e+05 
        </DataArray>
      </PointData>
    </Piece>
    <Piece NumberOfPoints="4" NumberOfCells="3">
      <Points>
        <DataArray type="Float64" NumberOfComponents="3" format="ascii">
          2.83558637e-01 -5.98983802e-02 0.00000000e+00 
2.93986142e-01 -5.99516556e-02 0.00000000e+00 
3.04413795e-01 -5.99554181e-02 0.00000000e+00 
3.14841360e-01 -5.99102043e-02 0.00000000e+00 

        </DataArray>
      </Points>
      <Cells>
        <DataArray type="Int32" Name="connectivity" format="ascii">
0 1
1 2
2 3

        </DataArray>
        <DataArray type="Int32" Name="offsets" format="ascii">
2 4 6 
        </DataArray>
        <DataArray type="UInt8" Name="types" format="ascii">
3 3 3 
        </DataArray>
      </Cells>
      <PointData>
        <DataArray type="Float64" Name="rho">
          9.05187690e-01 9.03530484e-01 9.02148871e-01 9.01025466e-01 
        </DataArray>
        <DataArray type="Float64" Name="rhou">
          2.67017734e-03 2.50531875e-03 2.36796583e-03 2.18412021e-03 
        </DataArray>
        <DataArray type="Float64" Name="rhov">
          -1.17567537e-04 -1.84421103e-04 -1.48416451e-04 -5.31892420e-05 
        </DataArray>
        <DataArray type="Float64" Name="E">
          2.05606292e+05 2.05217779e+05 2.04894727e+05 2.04633000e+05 
        </DataArray>
      </PointData>
    </Piece>
    <Piece NumberOfPoints="4" NumberOfCells="3">
      <Points>
        <DataArray type="Float64" NumberOfComponents="3" format="ascii">
          2.52279758e-01 -5.94130717e-02 0.00000000e+00 
2.62705088e-01 -5.96327744e-02 0.00000000e+00 
2.73131490e-01 -5.97934239e-02 0.00000000e+00 
2.83558637e-01 -5.98983802e-02 0.00000000e+00 

        </DataArray>
      </Points>
      <Cells>
        <DataArray type="Int32" Name="connectivity" format="ascii">
0 1
1 2
2 3

        </DataArray>
        <DataArray type="Int32" Name="offsets" format="ascii">
2 4 6 
        </DataArray>
        <DataArray type="UInt8" Name="types" format="ascii">
3 3 3 
        </DataArray>
      </Cells>
      <PointData>
        <DataArray type="Float64" Name="rho">
          9.12231444e-01 9.09515201e-01 9.07170305e-01 9.05188613e-01 
        </DataArray>
        <DataArray type="Float64" Name="rhou">
          3.64341057e-03 3.33802357e-03 3.00222801e-03 2.65630321e-03 
        </DataArray>
        <DataArray type="Float64" Name="rhov">
          -2.67240537e-04 -1.74387026e-04 -8.66861513e-05 -9.83370790e-05 
        </DataArray>
        <DataArray type="Float64" Name="E">
          2.07262962e+05 2.06623254e+05 2.06071845e+05 2.05606505e+05 
        </DataArray>
      </PointData>
    </Piece>
    <Piece NumberOfPoints="4" NumberOfCells="3">
      <Points>
        <DataArray type="Float64" NumberOfComponents="3" format="ascii">
          2.21014455e-01 -5.83752058e-02 0.00000000e+00 
2.31433928e-01 -5.87876961e-02 0.00000000e+00 
2.41855890e-01 -5.91322705e-02 0.00000000e+00 
2.52279758e-01 -5.94130717e-02 0.00000000e+00 

        </DataArray>
      </Points>
      <Cells>
        <DataArray type="Int32" Name="connectivity" format="ascii">
0 1
1 2
2 3

        </DataArray>
        <DataArray type="Int32" Name="offsets" format="ascii">
2 4 6 
        </DataArray>
        <DataArray type="UInt8" Name="types" format="ascii">
3 3 3 
        </DataArray>
      </Cells>
      <PointData>
        <DataArray type="Float64" Name="rho">
          9.22938257e-01 9.18895032e-01 9.15341812e-01 9.12231625e-01 
        </DataArray>
        <DataArray type="Float64" Name="rhou">
          4.99801267e-03 4.41203881e-03 3.96524703e-03 3.67767942e-03 
        </DataArray>
        <DataArray type="Float64" Name="rhov">
          -3.75147690e-04 -2.70074254e-04 -2.37208353e-04 -2.50872977e-04 
        </DataArray>
        <DataArray type="Float64" Name="E">
          2.09790511e+05 2.08835203e+05 2.07996438e+05 2.07262999e+05 
        </DataArray>
      </PointData>
    </Piece>
    <Piece NumberOfPoints="4" NumberOfCells="3">
      <Points>
        <DataArray type="Float64" NumberOfComponents="3" format="ascii">
          1.89777538e-01 -5.66898957e-02 0.00000000e+00 
2.00185493e-01 -5.73302582e-02 0.00000000e+00 
2.10598081e-01 -5.78906052e-02 0.00000000e+00 
2.21014455e-01 -5.83752058e-02 0.00000000e+00 

        </DataArray>
      </Points>
      <Cells>
        <DataArray type="Int32" Name="connectivity" format="ascii">
0 1
1 2
2 3

        </DataArray>
        <DataArray type="Int32" Name="offsets" format="ascii">
2 4 6 
        </DataArray>
        <DataArray type="UInt8" Name="types" format="ascii">
3 3 3 
        </DataArray>
      </Cells>
      <PointData>
        <DataArray type="Float64" Name="rho">
          9.38392517e-01 9.32636460e-01 9.27504882e-01 9.22937495e-01 
        </DataArray>
        <DataArray type="Float64" Name="rhou">
          6.92251604e-03 6.12077729e-03 5.53452134e-03 5.06056934e-03 
        </DataArray>
        <DataArray type="Float64" Name="rhov">
          -6.59948415e-04 -5.87978606e-04 -4.87197648e-04 -3.62509185e-04 
        </DataArray>
        <DataArray type="Float64" Name="E">
          2.13449020e+05 2.12085262e+05 2.10870509e+05 2.09790336e+05 
        </DataArray>
      </PointData>
    </Piece>
    <Piece NumberOfPoints="4" NumberOfCells="3">
      <Points>
        <DataArray type="Float64" NumberOfComponents="3" format="ascii">
          1.58592433e-01 -5.42296544e-02 0.00000000e+00 
1.68979734e-01 -5.51457107e-02 0.00000000e+00 
1.79375216e-01 -5.59638515e-02 0.00000000e+00 
1.89777538e-01 -5.66898957e-02 0.00000000e+00 

        </DataArray>
      </Points>
      <Cells>
        <DataArray type="Int32" Name="connectivity" format="ascii">
0 1
1 2
2 3

        </DataArray>
        <DataArray type="Int32" Name="offsets" format="ascii">
2 4 6 
        </DataArray>
        <DataArray type="UInt8" Name="types" format="ascii">
3 3 3 
        </DataArray>
      </Cells>
      <PointData>
        <DataArray type="Float64" Name="rho">
          9.60156832e-01 9.52093176e-01 9.44855296e-01 9.38392936e-01 
        </DataArray>
        <DataArray type="Float64" Name="rhou">
          9.98383748e-03 8.90866651e-03 7.95795126e-03 6.99371932e-03 
        </DataArray>
        <DataArray type="Float64" Name="rhov">
          -1.41770937e-03 -1.22411433e-03 -8.90957889e-04 -6.19506382e-04 
        </DataArray>
        <DataArray type="Float64" Name="E">
          2.18614191e+05 2.16698860e+05 2.14981340e+05 2.13449120e+05 
        </DataArray>
      </PointData>
    </Piece>
    <Piece NumberOfPoints="4" NumberOfCells="3">
      <Points>
        <DataArray type="Float64" NumberOfComponents="3" format="ascii">
          1.27497971e-01 -5.08146733e-02 0.00000000e+00 
1.37849152e-01 -5.20747155e-02 0.00000000e+00 
1.48214847e-01 -5.32093942e-02 0.00000000e+00 
1.58592433e-01 -5.42296544e-02 0.00000000e+00 

        </DataArray>
      </Points>
      <Cells>
        <DataArray type="Int32" Name="connectivity" format="ascii">
0 1
1 2
2 3

        </DataArray>
        <DataArray type="Int32" Name="offsets" format="ascii">
2 4 6 
        </DataArray>
        <DataArray type="UInt8" Name="types" format="ascii">
3 3 3 
        </DataArray>
      </Cells>
      <PointData>
        <DataArray type="Float64" Name="rho">
          9.90654328e-01 9.79306575e-01 9.69161539e-01 9.60160886e-01 
        </DataArray>
        <DataArray type="Float64" Name="rhou">
          1.45159447e-02 1.33389762e-02 1.15330458e-02 1.00121790e-02 
        </DataArray>
        <DataArray type="Float64" Name="rhov">
          -2.29878286e-03 -2.04954637e-03 -1.43196045e-03 -1.34592774e-03 
        </DataArray>
        <DataArray type="Float64" Name="E">
          2.25870582e+05 2.23168107e+05 2.20754793e+05 2.18615121e+05 
        </DataArray>
      </PointData>
    </Piece>
    <Piece NumberOfPoints="4" NumberOfCells="3">
      <Points>
        <DataArray type="Float64" NumberOfComponents="3" format="ascii">
          9.65642184e-02 -4.61716652e-02 0.00000000e+00 
1.06852271e-01 -4.78802323e-02 0.00000000e+00 
1.17164567e-01 -4.94215861e-02 0.00000000e+00 
1.27497971e-01 -5.08146733e-02 0.00000000e+00 

        </DataArray>
      </Points>
      <Cells>
        <DataArray type="Int32" Name="connectivity" format="ascii">
0 1
1 2
2 3

        </DataArray>
        <DataArray type="Int32" Name="offsets" format="ascii">
2 4 6 
        </DataArray>
        <DataArray type="UInt8" Name="types" format="ascii">
3 3 3 
        </DataArray>
      </Cells>
      <PointData>
        <DataArray type="Float64" Name="rho">
          1.03399573e+00 1.01771041e+00 1.00329236e+00 9.90662695e-01 
        </DataArray>
        <DataArray type="Float64" Name="rhou">
          2.46879786e-02 1.80998762e-02 1.71908932e-02 1.28680642e-02 
        </DataArray>
        <DataArray type="Float64" Name="rhov">
          -9.31039990e-04 -7.44439155e-04 -1.57330388e-03 -1.61793310e-03 
        </DataArray>
        <DataArray type="Float64" Name="E">
          2.36218014e+05 2.32325352e+05 2.28884180e+05 2.25872600e+05 
        </DataArray>
      </PointData>
    </Piece>
  </UnstructuredGrid>
</VTKFile>
