<?xml version="1.0"?>
<VTKFile type="UnstructuredGrid" version="0.1" byte_order="LittleEndian">
  <UnstructuredGrid>
    <Piece NumberOfPoints="4" NumberOfCells="3">
      <Points>
        <DataArray type="Float64" NumberOfComponents="3" format="ascii">
          9.65642184e-02 -4.61716652e-02 0.00000000e+00 
9.26280916e-02 -4.54656407e-02 0.00000000e+00 
8.86965096e-02 -4.47326750e-02 0.00000000e+00 
8.47706869e-02 -4.39694971e-02 0.00000000e+00 

        </DataArray>
      </Points>
      <Cells>
        <DataArray type="Int32" Name="connectivity" format="ascii">
0 1
1 2
2 3

        </DataArray>
        <DataArray type="Int32" Name="offsets" format="ascii">
2 4 6 
        </DataArray>
        <DataArray type="UInt8" Name="types" format="ascii">
3 3 3 
        </DataArray>
      </Cells>
      <PointData>
        <DataArray type="Float64" Name="rho">
          1.03581005e+00 1.04271932e+00 1.04994307e+00 1.05761317e+00 
        </DataArray>
        <DataArray type="Float64" Name="rhou">
          2.83859991e-02 2.18615922e-02 2.45179906e-02 2.46841774e-02 
        </DataArray>
        <DataArray type="Float64" Name="rhov">
          -2.24354006e-03 -1.02262088e-03 -6.07350444e-04 -9.16971941e-04 
        </DataArray>
        <DataArray type="Float64" Name="E">
          2.36769769e+05 2.38423849e+05 2.40154841e+05 2.41993117e+05 
        </DataArray>
      </PointData>
    </Piece>
    <Piece NumberOfPoints="4" NumberOfCells="3">
      <Points>
        <DataArray type="Float64" NumberOfComponents="3" format="ascii">
          8.47706869e-02 -4.39694971e-02 0.00000000e+00 
8.08513016e-02 -4.31745499e-02 0.00000000e+00 
7.69388378e-02 -4.23462167e-02 0.00000000e+00 
7.30340332e-02 -4.14824970e-02 0.00000000e+00 

        </DataArray>
      </Points>
      <Cells>
        <DataArray type="Int32" Name="connectivity" format="ascii">
0 1
1 2
2 3

        </DataArray>
        <DataArray type="Int32" Name="offsets" format="ascii">
2 4 6 
        </DataArray>
        <DataArray type="UInt8" Name="types" format="ascii">
3 3 3 
        </DataArray>
      </Cells>
      <PointData>
        <DataArray type="Float64" Name="rho">
          1.05761198e+00 1.06570991e+00 1.07427101e+00 1.08336519e+00 
        </DataArray>
        <DataArray type="Float64" Name="rhou">
          2.47791503e-02 2.39456653e-02 2.25224856e-02 2.09425617e-02 
        </DataArray>
        <DataArray type="Float64" Name="rhov">
          -7.22240791e-04 -5.06255937e-04 4.12755830e-04 1.62072455e-03 
        </DataArray>
        <DataArray type="Float64" Name="E">
          2.41992854e+05 2.43935621e+05 2.45990740e+05 2.48175012e+05 
        </DataArray>
      </PointData>
    </Piece>
    <Piece NumberOfPoints="4" NumberOfCells="3">
      <Points>
        <DataArray type="Float64" NumberOfComponents="3" format="ascii">
          7.30340332e-02 -4.14824970e-02 0.00000000e+00 
6.91377968e-02 -4.05809283e-02 0.00000000e+00 
6.52511865e-02 -3.96387354e-02 0.00000000e+00 
6.13753870e-02 -3.86530459e-02 0.00000000e+00 

        </DataArray>
      </Points>
      <Cells>
        <DataArray type="Int32" Name="connectivity" format="ascii">
0 1
1 2
2 3

        </DataArray>
        <DataArray type="Int32" Name="offsets" format="ascii">
2 4 6 
        </DataArray>
        <DataArray type="UInt8" Name="types" format="ascii">
3 3 3 
        </DataArray>
      </Cells>
      <PointData>
        <DataArray type="Float64" Name="rho">
          1.08336579e+00 1.09307658e+00 1.10343584e+00 1.11450320e+00 
        </DataArray>
        <DataArray type="Float64" Name="rhou">
          2.10595430e-02 1.86914289e-02 1.45676639e-02 9.03634115e-03 
        </DataArray>
        <DataArray type="Float64" Name="rhov">
          1.45479820e-03 2.21476945e-03 4.31779490e-03 7.53432857e-03 
        </DataArray>
        <DataArray type="Float64" Name="E">
          2.48175173e+05 2.50509731e+05 2.53001808e+05 2.55666440e+05 
        </DataArray>
      </PointData>
    </Piece>
    <Piece NumberOfPoints="4" NumberOfCells="3">
      <Points>
        <DataArray type="Float64" NumberOfComponents="3" format="ascii">
          6.13753870e-02 -3.86530459e-02 0.00000000e+00 
5.75117208e-02 -3.76208089e-02 0.00000000e+00 
5.36618084e-02 -3.65384258e-02 0.00000000e+00 
4.98276278e-02 -3.54015976e-02 0.00000000e+00 

        </DataArray>
      </Points>
      <Cells>
        <DataArray type="Int32" Name="connectivity" format="ascii">
0 1
1 2
2 3

        </DataArray>
        <DataArray type="Int32" Name="offsets" format="ascii">
2 4 6 
        </DataArray>
        <DataArray type="UInt8" Name="types" format="ascii">
3 3 3 
        </DataArray>
      </Cells>
      <PointData>
        <DataArray type="Float64" Name="rho">
          1.11450346e+00 1.12636161e+00 1.13909551e+00 1.15283673e+00 
        </DataArray>
        <DataArray type="Float64" Name="rhou">
          8.97884276e-03 1.88813834e-03 -7.36559126e-03 -1.89349041e-02 
        </DataArray>
        <DataArray type="Float64" Name="rhov">
          7.30556886e-03 1.20413031e-02 2.01654428e-02 3.16967628e-02 
        </DataArray>
        <DataArray type="Float64" Name="E">
          2.55666504e+05 2.58525456e+05 2.61598172e+05 2.64917231e+05 
        </DataArray>
      </PointData>
    </Piece>
    <Piece NumberOfPoints="4" NumberOfCells="3">
      <Points>
        <DataArray type="Float64" NumberOfComponents="3" format="ascii">
          4.98276278e-02 -3.54015976e-02 0.00000000e+00 
4.60115410e-02 -3.42054628e-02 0.00000000e+00 
4.22164090e-02 -3.29444520e-02 0.00000000e+00 
3.84457745e-02 -3.16120051e-02 0.00000000e+00 

        </DataArray>
      </Points>
      <Cells>
        <DataArray type="Int32" Name="connectivity" format="ascii">
0 1
1 2
2 3

        </DataArray>
        <DataArray type="Int32" Name="offsets" format="ascii">
2 4 6 
        </DataArray>
        <DataArray type="UInt8" Name="types" format="ascii">
3 3 3 
        </DataArray>
      </Cells>
      <PointData>
        <DataArray type="Float64" Name="rho">
          1.15283664e+00 1.16768494e+00 1.18375278e+00 1.20123178e+00 
        </DataArray>
        <DataArray type="Float64" Name="rhou">
          -1.93929273e-02 -3.35811048e-02 -5.26329130e-02 -7.54241204e-02 
        </DataArray>
        <DataArray type="Float64" Name="rhov">
          3.14818696e-02 4.82336840e-02 7.60059775e-02 1.16630398e-01 
        </DataArray>
        <DataArray type="Float64" Name="E">
          2.64917177e+05 2.68510141e+05 2.72402979e+05 2.76644022e+05 
        </DataArray>
      </PointData>
    </Piece>
    <Piece NumberOfPoints="4" NumberOfCells="3">
      <Points>
        <DataArray type="Float64" NumberOfComponents="3" format="ascii">
          3.84457745e-02 -3.16120051e-02 0.00000000e+00 
3.47041376e-02 -3.02002355e-02 0.00000000e+00 
3.09973080e-02 -2.86995135e-02 0.00000000e+00 
2.73328498e-02 -2.70981900e-02 0.00000000e+00 

        </DataArray>
      </Points>
      <Cells>
        <DataArray type="Int32" Name="connectivity" format="ascii">
0 1
1 2
2 3

        </DataArray>
        <DataArray type="Int32" Name="offsets" format="ascii">
2 4 6 
        </DataArray>
        <DataArray type="UInt8" Name="types" format="ascii">
3 3 3 
        </DataArray>
      </Cells>
      <PointData>
        <DataArray type="Float64" Name="rho">
          1.20123200e+00 1.22031165e+00 1.24118561e+00 1.26422565e+00 
        </DataArray>
        <DataArray type="Float64" Name="rhou">
          -7.63804326e-02 -1.00589384e-01 -1.29291883e-01 -1.54744165e-01 
        </DataArray>
        <DataArray type="Float64" Name="rhov">
          1.16548886e-01 1.72303424e-01 2.58539535e-01 3.79261920e-01 
        </DataArray>
        <DataArray type="Float64" Name="E">
          2.76643937e+05 2.81285139e+05 2.86371339e+05 2.91996825e+05 
        </DataArray>
      </PointData>
    </Piece>
    <Piece NumberOfPoints="4" NumberOfCells="3">
      <Points>
        <DataArray type="Float64" NumberOfComponents="3" format="ascii">
          2.73328498e-02 -2.70981900e-02 0.00000000e+00 
2.37206947e-02 -2.53822580e-02 0.00000000e+00 
2.01744195e-02 -2.35341713e-02 0.00000000e+00 
1.67132635e-02 -2.15314496e-02 0.00000000e+00 

        </DataArray>
      </Points>
      <Cells>
        <DataArray type="Int32" Name="connectivity" format="ascii">
0 1
1 2
2 3

        </DataArray>
        <DataArray type="Int32" Name="offsets" format="ascii">
2 4 6 
        </DataArray>
        <DataArray type="UInt8" Name="types" format="ascii">
3 3 3 
        </DataArray>
      </Cells>
      <PointData>
        <DataArray type="Float64" Name="rho">
          1.26423053e+00 1.28977729e+00 1.31828697e+00 1.35110538e+00 
        </DataArray>
        <DataArray type="Float64" Name="rhou">
          -1.55131017e-01 -1.69164825e-01 -1.53363782e-01 -5.70136686e-02 
        </DataArray>
        <DataArray type="Float64" Name="rhov">
          3.79937473e-01 5.32288597e-01 7.43728194e-01 9.62933133e-01 
        </DataArray>
        <DataArray type="Float64" Name="E">
          2.91997729e+05 2.98257397e+05 3.05255698e+05 3.13321615e+05 
        </DataArray>
      </PointData>
    </Piece>
    <Piece NumberOfPoints="4" NumberOfCells="3">
      <Points>
        <DataArray type="Float64" NumberOfComponents="3" format="ascii">
          1.67132635e-02 -2.15314496e-02 0.00000000e+00 
1.33649679e-02 -1.93456318e-02 0.00000000e+00 
1.01706637e-02 -1.69409402e-02 0.00000000e+00 
7.19343964e-03 -1.42731192e-02 0.00000000e+00 

        </DataArray>
      </Points>
      <Cells>
        <DataArray type="Int32" Name="connectivity" format="ascii">
0 1
1 2
2 3

        </DataArray>
        <DataArray type="Int32" Name="offsets" format="ascii">
2 4 6 
        </DataArray>
        <DataArray type="UInt8" Name="types" format="ascii">
3 3 3 
        </DataArray>
      </Cells>
      <PointData>
        <DataArray type="Float64" Name="rho">
          1.35099929e+00 1.39086752e+00 1.43812107e+00 1.50326404e+00 
        </DataArray>
        <DataArray type="Float64" Name="rhou">
          -3.43822060e-02 1.14678668e-01 4.57098046e-01 8.78845406e-01 
        </DataArray>
        <DataArray type="Float64" Name="rhov">
          9.24561499e-01 1.12828015e+00 1.07340886e+00 5.21709046e-01 
        </DataArray>
        <DataArray type="Float64" Name="E">
          3.13297339e+05 3.23098932e+05 3.34708878e+05 3.50598774e+05 
        </DataArray>
      </PointData>
    </Piece>
    <Piece NumberOfPoints="4" NumberOfCells="3">
      <Points>
        <DataArray type="Float64" NumberOfComponents="3" format="ascii">
          7.19343964e-03 -1.42731192e-02 0.00000000e+00 
4.53082798e-03 -1.12927537e-02 0.00000000e+00 
2.33371323e-03 -7.95678515e-03 0.00000000e+00 
8.10639584e-04 -4.26717056e-03 0.00000000e+00 

        </DataArray>
      </Points>
      <Cells>
        <DataArray type="Int32" Name="connectivity" format="ascii">
0 1
1 2
2 3

        </DataArray>
        <DataArray type="Int32" Name="offsets" format="ascii">
2 4 6 
        </DataArray>
        <DataArray type="UInt8" Name="types" format="ascii">
3 3 3 
        </DataArray>
      </Cells>
      <PointData>
        <DataArray type="Float64" Name="rho">
          1.50378484e+00 1.57830068e+00 1.66752896e+00 1.73640824e+00 
        </DataArray>
        <DataArray type="Float64" Name="rhou">
          8.03649669e-01 9.34000749e-01 2.60081887e-01 -1.27971199e+00 
        </DataArray>
        <DataArray type="Float64" Name="rhov">
          6.20668598e-01 -5.12108942e-01 -1.73531230e+00 -1.82526910e+00 
        </DataArray>
        <DataArray type="Float64" Name="E">
          3.50726525e+05 3.68938546e+05 3.90623951e+05 4.07386784e+05 
        </DataArray>
      </PointData>
    </Piece>
    <Piece NumberOfPoints="4" NumberOfCells="3">
      <Points>
        <DataArray type="Float64" NumberOfComponents="3" format="ascii">
          8.10639584e-04 -4.26717056e-03 0.00000000e+00 
1.91366620e-04 -3.27450951e-04 0.00000000e+00 
6.40850572e-04 3.63462302e-03 0.00000000e+00 
2.03182548e-03 7.37539819e-03 0.00000000e+00 

        </DataArray>
      </Points>
      <Cells>
        <DataArray type="Int32" Name="connectivity" format="ascii">
0 1
1 2
2 3

        </DataArray>
        <DataArray type="Int32" Name="offsets" format="ascii">
2 4 6 
        </DataArray>
        <DataArray type="UInt8" Name="types" format="ascii">
3 3 3 
        </DataArray>
      </Cells>
      <PointData>
        <DataArray type="Float64" Name="rho">
          1.73482784e+00 1.75992427e+00 1.70958988e+00 1.61710893e+00 
        </DataArray>
        <DataArray type="Float64" Name="rhou">
          -1.15362834e+00 -1.88725589e+00 -8.40493046e-01 7.53636494e-01 
        </DataArray>
        <DataArray type="Float64" Name="rhov">
          -1.98345514e+00 3.63468764e-01 1.88898964e+00 1.52305270e+00 
        </DataArray>
        <DataArray type="Float64" Name="E">
          4.07003683e+05 4.13019937e+05 4.00700887e+05 3.78087632e+05 
        </DataArray>
      </PointData>
    </Piece>
    <Piece NumberOfPoints="4" NumberOfCells="3">
      <Points>
        <DataArray type="Float64" NumberOfComponents="3" format="ascii">
          2.03182548e-03 7.37539819e-03 0.00000000e+00 
4.13410179e-03 1.07714310e-02 0.00000000e+00 
6.73249783e-03 1.38076087e-02 0.00000000e+00 
9.66598373e-03 1.65232457e-02 0.00000000e+00 

        </DataArray>
      </Points>
      <Cells>
        <DataArray type="Int32" Name="connectivity" format="ascii">
0 1
1 2
2 3

        </DataArray>
        <DataArray type="Int32" Name="offsets" format="ascii">
2 4 6 
        </DataArray>
        <DataArray type="UInt8" Name="types" format="ascii">
3 3 3 
        </DataArray>
      </Cells>
      <PointData>
        <DataArray type="Float64" Name="rho">
          1.61747469e+00 1.51029197e+00 1.42096794e+00 1.35393999e+00 
        </DataArray>
        <DataArray type="Float64" Name="rhou">
          7.25672127e-01 1.15983935e+00 8.44798218e-01 3.78514701e-01 
        </DataArray>
        <DataArray type="Float64" Name="rhov">
          1.75824423e+00 6.50673907e-02 -1.07738241e+00 -1.40483304e+00 
        </DataArray>
        <DataArray type="Float64" Name="E">
          3.78179730e+05 3.52128961e+05 3.30381740e+05 3.13981376e+05 
        </DataArray>
      </PointData>
    </Piece>
    <Piece NumberOfPoints="4" NumberOfCells="3">
      <Points>
        <DataArray type="Float64" NumberOfComponents="3" format="ascii">
          9.66598373e-03 1.65232457e-02 0.00000000e+00 
1.28298048e-02 1.89677756e-02 0.00000000e+00 
1.61561389e-02 2.11867876e-02 0.00000000e+00 
1.96009967e-02 2.32173651e-02 0.00000000e+00 

        </DataArray>
      </Points>
      <Cells>
        <DataArray type="Int32" Name="connectivity" format="ascii">
0 1
1 2
2 3

        </DataArray>
        <DataArray type="Int32" Name="offsets" format="ascii">
2 4 6 
        </DataArray>
        <DataArray type="UInt8" Name="types" format="ascii">
3 3 3 
        </DataArray>
      </Cells>
      <PointData>
        <DataArray type="Float64" Name="rho">
          1.35373387e+00 1.30120482e+00 1.26217967e+00 1.22782288e+00 
        </DataArray>
        <DataArray type="Float64" Name="rhou">
          3.88156192e-01 -1.52704864e-02 -1.98107800e-01 -2.19164841e-01 
        </DataArray>
        <DataArray type="Float64" Name="rhov">
          -1.42941194e+00 -1.32531132e+00 -9.94604409e-01 -6.68316195e-01 
        </DataArray>
        <DataArray type="Float64" Name="E">
          3.13928944e+05 3.01076925e+05 2.91478992e+05 2.83055215e+05 
        </DataArray>
      </PointData>
    </Piece>
    <Piece NumberOfPoints="4" NumberOfCells="3">
      <Points>
        <DataArray type="Float64" NumberOfComponents="3" format="ascii">
          1.96009967e-02 2.32173651e-02 0.00000000e+00 
2.31348258e-02 2.50891000e-02 0.00000000e+00 
2.67372411e-02 2.68253610e-02 0.00000000e+00 
3.03938854e-02 2.84444261e-02 0.00000000e+00 

        </DataArray>
      </Points>
      <Cells>
        <DataArray type="Int32" Name="connectivity" format="ascii">
0 1
1 2
2 3

        </DataArray>
        <DataArray type="Int32" Name="offsets" format="ascii">
2 4 6 
        </DataArray>
        <DataArray type="UInt8" Name="types" format="ascii">
3 3 3 
        </DataArray>
      </Cells>
      <PointData>
        <DataArray type="Float64" Name="rho">
          1.22788682e+00 1.19872100e+00 1.17263332e+00 1.14900391e+00 
        </DataArray>
        <DataArray type="Float64" Name="rhou">
          -2.32347487e-01 -2.19171936e-01 -1.74020964e-01 -1.31761017e-01 
        </DataArray>
        <DataArray type="Float64" Name="rhov">
          -6.86646046e-01 -4.34749488e-01 -2.47414770e-01 -1.34160295e-01 
        </DataArray>
        <DataArray type="Float64" Name="E">
          2.83070193e+05 2.75938658e+05 2.69582692e+05 2.63842669e+05 
        </DataArray>
      </PointData>
    </Piece>
    <Piece NumberOfPoints="4" NumberOfCells="3">
      <Points>
        <DataArray type="Float64" NumberOfComponents="3" format="ascii">
          3.03938854e-02 2.84444261e-02 0.00000000e+00 
3.40943485e-02 2.99607720e-02 0.00000000e+00 
3.78307216e-02 3.13864015e-02 0.00000000e+00 
4.15969416e-02 3.27312648e-02 0.00000000e+00 

        </DataArray>
      </Points>
      <Cells>
        <DataArray type="Int32" Name="connectivity" format="ascii">
0 1
1 2
2 3

        </DataArray>
        <DataArray type="Int32" Name="offsets" format="ascii">
2 4 6 
        </DataArray>
        <DataArray type="UInt8" Name="types" format="ascii">
3 3 3 
        </DataArray>
      </Cells>
      <PointData>
        <DataArray type="Float64" Name="rho">
          1.14900217e+00 1.12761662e+00 1.10818741e+00 1.09047078e+00 
        </DataArray>
        <DataArray type="Float64" Name="rhou">
          -1.29961568e-01 -8.97295164e-02 -5.68391119e-02 -3.37677625e-02 
        </DataArray>
        <DataArray type="Float64" Name="rhov">
          -1.32705754e-01 -5.61029703e-02 -8.68367261e-03 1.69403654e-02 
        </DataArray>
        <DataArray type="Float64" Name="E">
          2.63842515e+05 2.58666266e+05 2.53974803e+05 2.49704639e+05 
        </DataArray>
      </PointData>
    </Piece>
    <Piece NumberOfPoints="4" NumberOfCells="3">
      <Points>
        <DataArray type="Float64" NumberOfComponents="3" format="ascii">
          4.15969416e-02 3.27312648e-02 0.00000000e+00 
4.53883260e-02 3.40034962e-02 0.00000000e+00 
4.92011942e-02 3.52098532e-02 0.00000000e+00 
5.30325845e-02 3.63560505e-02 0.00000000e+00 

        </DataArray>
      </Points>
      <Cells>
        <DataArray type="Int32" Name="connectivity" format="ascii">
0 1
1 2
2 3

        </DataArray>
        <DataArray type="Int32" Name="offsets" format="ascii">
2 4 6 
        </DataArray>
        <DataArray type="UInt8" Name="types" format="ascii">
3 3 3 
        </DataArray>
      </Cells>
      <PointData>
        <DataArray type="Float64" Name="rho">
          1.09047136e+00 1.07427742e+00 1.05941864e+00 1.04573595e+00 
        </DataArray>
        <DataArray type="Float64" Name="rhou">
          -3.26219293e-02 -1.30793881e-02 1.45123586e-03 1.09155303e-02 
        </DataArray>
        <DataArray type="Float64" Name="rhov">
          1.68469021e-02 3.07183934e-02 3.75108063e-02 3.87579778e-02 
        </DataArray>
        <DataArray type="Float64" Name="E">
          2.49704853e+05 2.45810240e+05 2.42242233e+05 2.38960754e+05 
        </DataArray>
      </PointData>
    </Piece>
    <Piece NumberOfPoints="4" NumberOfCells="3">
      <Points>
        <DataArray type="Float64" NumberOfComponents="3" format="ascii">
          5.30325845e-02 3.63560505e-02 0.00000000e+00 
5.68800643e-02 3.74470428e-02 0.00000000e+00 
6.07415959e-02 3.84872220e-02 0.00000000e+00 
6.46155030e-02 3.94803248e-02 0.00000000e+00 

        </DataArray>
      </Points>
      <Cells>
        <DataArray type="Int32" Name="connectivity" format="ascii">
0 1
1 2
2 3

        </DataArray>
        <DataArray type="Int32" Name="offsets" format="ascii">
2 4 6 
        </DataArray>
        <DataArray type="UInt8" Name="types" format="ascii">
3 3 3 
        </DataArray>
      </Cells>
      <PointData>
        <DataArray type="Float64" Name="rho">
          1.04573666e+00 1.03314141e+00 1.02150193e+00 1.01067723e+00 
        </DataArray>
        <DataArray type="Float64" Name="rhou">
          1.12370214e-02 1.82977925e-02 2.38978510e-02 2.77857590e-02 
        </DataArray>
        <DataArray type="Float64" Name="rhov">
          3.84313144e-02 3.68371121e-02 3.48386154e-02 3.16506873e-02 
        </DataArray>
        <DataArray type="Float64" Name="E">
          2.38960915e+05 2.35944451e+05 2.33159677e+05 2.30572352e+05 
        </DataArray>
      </PointData>
    </Piece>
    <Piece NumberOfPoints="4" NumberOfCells="3">
      <Points>
        <DataArray type="Float64" NumberOfComponents="3" format="ascii">
          6.46155030e-02 3.94803248e-02 0.00000000e+00 
6.85004294e-02 4.04294394e-02 0.00000000e+00 
7.23951608e-02 4.13374715e-02 0.00000000e+00 
7.62986317e-02 4.22072113e-02 0.00000000e+00 

        </DataArray>
      </Points>
      <Cells>
        <DataArray type="Int32" Name="connectivity" format="ascii">
0 1
1 2
2 3

        </DataArray>
        <DataArray type="Int32" Name="offsets" format="ascii">
2 4 6 
        </DataArray>
        <DataArray type="UInt8" Name="types" format="ascii">
3 3 3 
        </DataArray>
      </Cells>
      <PointData>
        <DataArray type="Float64" Name="rho">
          1.01067795e+00 1.00062653e+00 9.91259240e-01 9.82520453e-01 
        </DataArray>
        <DataArray type="Float64" Name="rhou">
          2.76061438e-02 2.95868366e-02 3.07163952e-02 3.08356498e-02 
        </DataArray>
        <DataArray type="Float64" Name="rhov">
          3.13512194e-02 2.74766365e-02 2.41266384e-02 2.08390494e-02 
        </DataArray>
        <DataArray type="Float64" Name="E">
          2.30572500e+05 2.28172602e+05 2.25937858e+05 2.23854312e+05 
        </DataArray>
      </PointData>
    </Piece>
    <Piece NumberOfPoints="4" NumberOfCells="3">
      <Points>
        <DataArray type="Float64" NumberOfComponents="3" format="ascii">
          7.62986317e-02 4.22072113e-02 0.00000000e+00 
8.02098960e-02 4.30411920e-02 0.00000000e+00 
8.41281936e-02 4.38414887e-02 0.00000000e+00 
8.80528912e-02 4.46097627e-02 0.00000000e+00 

        </DataArray>
      </Points>
      <Cells>
        <DataArray type="Int32" Name="connectivity" format="ascii">
0 1
1 2
2 3

        </DataArray>
        <DataArray type="Int32" Name="offsets" format="ascii">
2 4 6 
        </DataArray>
        <DataArray type="UInt8" Name="types" format="ascii">
3 3 3 
        </DataArray>
      </Cells>
      <PointData>
        <DataArray type="Float64" Name="rho">
          9.82519517e-01 9.74362934e-01 9.66693888e-01 9.59466418e-01 
        </DataArray>
        <DataArray type="Float64" Name="rhou">
          3.06894374e-02 3.07296901e-02 3.04717651e-02 2.94158926e-02 
        </DataArray>
        <DataArray type="Float64" Name="rhov">
          2.06753272e-02 1.81387118e-02 1.56494412e-02 1.29828289e-02 
        </DataArray>
        <DataArray type="Float64" Name="E">
          2.23854077e+05 2.21910833e+05 2.20084998e+05 2.18365428e+05 
        </DataArray>
      </PointData>
    </Piece>
    <Piece NumberOfPoints="4" NumberOfCells="3">
      <Points>
        <DataArray type="Float64" NumberOfComponents="3" format="ascii">
          8.80528912e-02 4.46097627e-02 0.00000000e+00 
9.19835642e-02 4.53475714e-02 0.00000000e+00 
9.59195644e-02 4.60564308e-02 0.00000000e+00 
9.98597518e-02 4.67394181e-02 0.00000000e+00 

        </DataArray>
      </Points>
      <Cells>
        <DataArray type="Int32" Name="connectivity" format="ascii">
0 1
1 2
2 3

        </DataArray>
        <DataArray type="Int32" Name="offsets" format="ascii">
2 4 6 
        </DataArray>
        <DataArray type="UInt8" Name="types" format="ascii">
3 3 3 
        </DataArray>
      </Cells>
      <PointData>
        <DataArray type="Float64" Name="rho">
          9.59466912e-01 9.52671409e-01 9.46294984e-01 9.40238396e-01 
        </DataArray>
        <DataArray type="Float64" Name="rhou">
          2.92186183e-02 2.78022002e-02 2.43151104e-02 2.88679726e-02 
        </DataArray>
        <DataArray type="Float64" Name="rhov">
          1.31460565e-02 1.05886263e-02 9.02376158e-03 8.55291090e-03 
        </DataArray>
        <DataArray type="Float64" Name="E">
          2.18365542e+05 2.16749967e+05 2.15234449e+05 2.13795989e+05 
        </DataArray>
      </PointData>
    </Piece>
    <Piece NumberOfPoints="4" NumberOfCells="3">
      <Points>
        <DataArray type="Float64" NumberOfComponents="3" format="ascii">
          9.98597518e-02 4.67394181e-02 0.00000000e+00 
1.10118888e-01 4.83862534e-02 0.00000000e+00 
1.20400399e-01 4.98730615e-02 0.00000000e+00 
1.30701363e-01 5.12186773e-02 0.00000000e+00 

        </DataArray>
      </Points>
      <Cells>
        <DataArray type="Int32" Name="connectivity" format="ascii">
0 1
1 2
2 3

        </DataArray>
        <DataArray type="Int32" Name="offsets" format="ascii">
2 4 6 
        </DataArray>
        <DataArray type="UInt8" Name="types" format="ascii">
3 3 3 
        </DataArray>
      </Cells>
      <PointData>
        <DataArray type="Float64" Name="rho">
          9.40165324e-01 9.26012262e-01 9.13768293e-01 9.03208714e-01 
        </DataArray>
        <DataArray type="Float64" Name="rhou">
          2.65872669e-02 1.83666144e-02 1.62263938e-02 1.27391418e-02 
        </DataArray>
        <DataArray type="Float64" Name="rhov">
          7.31192343e-03 4.09350880e-03 3.59672973e-03 2.93046741e-03 
        </DataArray>
        <DataArray type="Float64" Name="E">
          2.13779471e+05 2.10421983e+05 2.07520859e+05 2.05021507e+05 
        </DataArray>
      </PointData>
    </Piece>
    <Piece NumberOfPoints="4" NumberOfCells="3">
      <Points>
        <DataArray type="Float64" NumberOfComponents="3" format="ascii">
          1.30701363e-01 5.12186773e-02 0.00000000e+00 
1.41019106e-01 5.24347536e-02 0.00000000e+00 
1.51350453e-01 5.35292812e-02 0.00000000e+00 
1.61692888e-01 5.45137413e-02 0.00000000e+00 

        </DataArray>
      </Points>
      <Cells>
        <DataArray type="Int32" Name="connectivity" format="ascii">
0 1
1 2
2 3

        </DataArray>
        <DataArray type="Int32" Name="offsets" format="ascii">
2 4 6 
        </DataArray>
        <DataArray type="UInt8" Name="types" format="ascii">
3 3 3 
        </DataArray>
      </Cells>
      <PointData>
        <DataArray type="Float64" Name="rho">
          9.03205214e-01 8.93904164e-01 8.85839780e-01 8.78905935e-01 
        </DataArray>
        <DataArray type="Float64" Name="rhou">
          1.41304418e-02 1.22155856e-02 1.01206577e-02 8.84101539e-03 
        </DataArray>
        <DataArray type="Float64" Name="rhov">
          3.43254811e-03 2.50941553e-03 1.73235262e-03 1.55863493e-03 
        </DataArray>
        <DataArray type="Float64" Name="E">
          2.05020664e+05 2.02822666e+05 2.00919439e+05 1.99284866e+05 
        </DataArray>
      </PointData>
    </Piece>
    <Piece NumberOfPoints="4" NumberOfCells="3">
      <Points>
        <DataArray type="Float64" NumberOfComponents="3" format="ascii">
          1.61692888e-01 5.45137413e-02 0.00000000e+00 
1.72044471e-01 5.53969070e-02 0.00000000e+00 
1.82403773e-01 5.61845005e-02 0.00000000e+00 
1.92769483e-01 5.68825118e-02 0.00000000e+00 

        </DataArray>
      </Points>
      <Cells>
        <DataArray type="Int32" Name="connectivity" format="ascii">
0 1
1 2
2 3

        </DataArray>
        <DataArray type="Int32" Name="offsets" format="ascii">
2 4 6 
        </DataArray>
        <DataArray type="UInt8" Name="types" format="ascii">
3 3 3 
        </DataArray>
      </Cells>
      <PointData>
        <DataArray type="Float64" Name="rho">
          8.78903515e-01 8.72906835e-01 8.67758768e-01 8.63408969e-01 
        </DataArray>
        <DataArray type="Float64" Name="rhou">
          8.87816480e-03 7.73171058e-03 6.68293188e-03 5.76687093e-03 
        </DataArray>
        <DataArray type="Float64" Name="rhov">
          1.61051755e-03 1.24873679e-03 8.70749450e-04 6.42514199e-04 
        </DataArray>
        <DataArray type="Float64" Name="E">
          1.99284323e+05 1.97872804e+05 1.96663280e+05 1.95643340e+05 
        </DataArray>
      </PointData>
    </Piece>
    <Piece NumberOfPoints="4" NumberOfCells="3">
      <Points>
        <DataArray type="Float64" NumberOfComponents="3" format="ascii">
          1.92769483e-01 5.68825118e-02 0.00000000e+00 
2.03140482e-01 5.74972220e-02 0.00000000e+00 
2.13515818e-01 5.80338500e-02 0.00000000e+00 
2.23894730e-01 5.84962890e-02 0.00000000e+00 

        </DataArray>
      </Points>
      <Cells>
        <DataArray type="Int32" Name="connectivity" format="ascii">
0 1
1 2
2 3

        </DataArray>
        <DataArray type="Int32" Name="offsets" format="ascii">
2 4 6 
        </DataArray>
        <DataArray type="UInt8" Name="types" format="ascii">
3 3 3 
        </DataArray>
      </Cells>
      <PointData>
        <DataArray type="Float64" Name="rho">
          8.63408277e-01 8.59779056e-01 8.56788020e-01 8.54378515e-01 
        </DataArray>
        <DataArray type="Float64" Name="rhou">
          5.80398550e-03 5.07044180e-03 4.50450772e-03 4.03523789e-03 
        </DataArray>
        <DataArray type="Float64" Name="rhov">
          6.84058544e-04 5.98205651e-04 4.85034807e-04 3.63824787e-04 
        </DataArray>
        <DataArray type="Float64" Name="E">
          1.95643180e+05 1.94794186e+05 1.94096742e+05 1.93537357e+05 
        </DataArray>
      </PointData>
    </Piece>
    <Piece NumberOfPoints="4" NumberOfCells="3">
      <Points>
        <DataArray type="Float64" NumberOfComponents="3" format="ascii">
          2.23894730e-01 5.84962890e-02 0.00000000e+00 
2.34276548e-01 5.88882305e-02 0.00000000e+00 
2.44660646e-01 5.92139624e-02 0.00000000e+00 
2.55046517e-01 5.94772622e-02 0.00000000e+00 

        </DataArray>
      </Points>
      <Cells>
        <DataArray type="Int32" Name="connectivity" format="ascii">
0 1
1 2
2 3

        </DataArray>
        <DataArray type="Int32" Name="offsets" format="ascii">
2 4 6 
        </DataArray>
        <DataArray type="UInt8" Name="types" format="ascii">
3 3 3 
        </DataArray>
      </Cells>
      <PointData>
        <DataArray type="Float64" Name="rho">
          8.54379094e-01 8.52510496e-01 8.51139587e-01 8.50211825e-01 
        </DataArray>
        <DataArray type="Float64" Name="rhou">
          4.04322316e-03 3.51243270e-03 3.12770154e-03 2.89334340e-03 
        </DataArray>
        <DataArray type="Float64" Name="rhov">
          3.78228836e-04 3.03572347e-04 2.89893698e-04 2.91773334e-04 
        </DataArray>
        <DataArray type="Float64" Name="E">
          1.93537489e+05 1.93106346e+05 1.92793118e+05 1.92584937e+05 
        </DataArray>
      </PointData>
    </Piece>
    <Piece NumberOfPoints="4" NumberOfCells="3">
      <Points>
        <DataArray type="Float64" NumberOfComponents="3" format="ascii">
          2.55046517e-01 5.94772622e-02 0.00000000e+00 
2.65433758e-01 5.96804135e-02 0.00000000e+00 
2.75821954e-01 5.98256700e-02 0.00000000e+00 
2.86210775e-01 5.99167012e-02 0.00000000e+00 

        </DataArray>
      </Points>
      <Cells>
        <DataArray type="Int32" Name="connectivity" format="ascii">
0 1
1 2
2 3

        </DataArray>
        <DataArray type="Int32" Name="offsets" format="ascii">
2 4 6 
        </DataArray>
        <DataArray type="UInt8" Name="types" format="ascii">
3 3 3 
        </DataArray>
      </Cells>
      <PointData>
        <DataArray type="Float64" Name="rho">
          8.50211837e-01 8.49679569e-01 8.49518770e-01 8.49709416e-01 
        </DataArray>
        <DataArray type="Float64" Name="rhou">
          2.88802438e-03 2.59558577e-03 2.29714815e-03 2.02949463e-03 
        </DataArray>
        <DataArray type="Float64" Name="rhov">
          3.03164178e-04 2.10455013e-04 1.55248108e-04 1.92897364e-04 
        </DataArray>
        <DataArray type="Float64" Name="E">
          1.92584943e+05 1.92470587e+05 1.92444277e+05 1.92501059e+05 
        </DataArray>
      </PointData>
    </Piece>
    <Piece NumberOfPoints="4" NumberOfCells="3">
      <Points>
        <DataArray type="Float64" NumberOfComponents="3" format="ascii">
          2.86210775e-01 5.99167012e-02 0.00000000e+00 
2.96599895e-01 5.99572174e-02 0.00000000e+00 
3.06989133e-01 5.99487796e-02 0.00000000e+00 
3.17378193e-01 5.98919280e-02 0.00000000e+00 

        </DataArray>
      </Points>
      <Cells>
        <DataArray type="Int32" Name="connectivity" format="ascii">
0 1
1 2
2 3

        </DataArray>
        <DataArray type="Int32" Name="offsets" format="ascii">
2 4 6 
        </DataArray>
        <DataArray type="UInt8" Name="types" format="ascii">
3 3 3 
        </DataArray>
      </Cells>
      <PointData>
        <DataArray type="Float64" Name="rho">
          8.49708382e-01 8.50201084e-01 8.50948575e-01 8.51935461e-01 
        </DataArray>
        <DataArray type="Float64" Name="rhou">
          2.04909203e-03 1.93186499e-03 1.80397490e-03 1.61973561e-03 
        </DataArray>
        <DataArray type="Float64" Name="rhov">
          2.09422556e-04 2.40385051e-04 1.88750498e-04 1.16640506e-04 
        </DataArray>
        <DataArray type="Float64" Name="E">
          1.92500824e+05 1.92629075e+05 1.92817831e+05 1.93063366e+05 
        </DataArray>
      </PointData>
    </Piece>
    <Piece NumberOfPoints="4" NumberOfCells="3">
      <Points>
        <DataArray type="Float64" NumberOfComponents="3" format="ascii">
          3.17378193e-01 5.98919280e-02 0.00000000e+00 
3.27766895e-01 5.97884916e-02 0.00000000e+00 
3.38155061e-01 5.96415885e-02 0.00000000e+00 
3.48542601e-01 5.94538599e-02 0.00000000e+00 

        </DataArray>
      </Points>
      <Cells>
        <DataArray type="Int32" Name="connectivity" format="ascii">
0 1
1 2
2 3

        </DataArray>
        <DataArray type="Int32" Name="offsets" format="ascii">
2 4 6 
        </DataArray>
        <DataArray type="UInt8" Name="types" format="ascii">
3 3 3 
        </DataArray>
      </Cells>
      <PointData>
        <DataArray type="Float64" Name="rho">
          8.51935811e-01 8.53148837e-01 8.54566971e-01 8.56156209e-01 
        </DataArray>
        <DataArray type="Float64" Name="rhou">
          1.64984318e-03 1.45201511e-03 1.33490432e-03 1.28867098e-03 
        </DataArray>
        <DataArray type="Float64" Name="rhov">
          1.24363862e-04 1.15974268e-04 1.44785539e-04 1.68247724e-04 
        </DataArray>
        <DataArray type="Float64" Name="E">
          1.93063444e+05 1.93362487e+05 1.93709992e+05 1.94097981e+05 
        </DataArray>
      </PointData>
    </Piece>
    <Piece NumberOfPoints="4" NumberOfCells="3">
      <Points>
        <DataArray type="Float64" NumberOfComponents="3" format="ascii">
          3.48542601e-01 5.94538599e-02 0.00000000e+00 
3.58929336e-01 5.92265576e-02 0.00000000e+00 
3.69315147e-01 5.89610897e-02 0.00000000e+00 
3.79699975e-01 5.86590059e-02 0.00000000e+00 

        </DataArray>
      </Points>
      <Cells>
        <DataArray type="Int32" Name="connectivity" format="ascii">
0 1
1 2
2 3

        </DataArray>
        <DataArray type="Int32" Name="offsets" format="ascii">
2 4 6 
        </DataArray>
        <DataArray type="UInt8" Name="types" format="ascii">
3 3 3 
        </DataArray>
      </Cells>
      <PointData>
        <DataArray type="Float64" Name="rho">
          8.56156457e-01 8.57890131e-01 8.59757453e-01 8.61737231e-01 
        </DataArray>
        <DataArray type="Float64" Name="rhou">
          1.30127968e-03 1.17694890e-03 1.08348531e-03 1.03617611e-03 
        </DataArray>
        <DataArray type="Float64" Name="rhov">
          1.65118732e-04 1.30970005e-04 1.25518346e-04 1.25799518e-04 
        </DataArray>
        <DataArray type="Float64" Name="E">
          1.94098038e+05 1.94520237e+05 1.94974005e+05 1.95454345e+05 
        </DataArray>
      </PointData>
    </Piece>
    <Piece NumberOfPoints="4" NumberOfCells="3">
      <Points>
        <DataArray type="Float64" NumberOfComponents="3" format="ascii">
          3.79699975e-01 5.86590059e-02 0.00000000e+00 
3.90083700e-01 5.83211333e-02 0.00000000e+00 
4.00466233e-01 5.79482466e-02 0.00000000e+00 
4.10847515e-01 5.75418957e-02 0.00000000e+00 

        </DataArray>
      </Points>
      <Cells>
        <DataArray type="Int32" Name="connectivity" format="ascii">
0 1
1 2
2 3

        </DataArray>
        <DataArray type="Int32" Name="offsets" format="ascii">
2 4 6 
        </DataArray>
        <DataArray type="UInt8" Name="types" format="ascii">
3 3 3 
        </DataArray>
      </Cells>
      <PointData>
        <DataArray type="Float64" Name="rho">
          8.61737243e-01 8.63811299e-01 8.65968459e-01 8.68200885e-01 
        </DataArray>
        <DataArray type="Float64" Name="rhou">
          1.02847266e-03 9.64907504e-04 8.87035147e-04 8.12306041e-04 
        </DataArray>
        <DataArray type="Float64" Name="rhov">
          1.28222386e-04 9.91818514e-05 7.75833368e-05 8.42022917e-05 
        </DataArray>
        <DataArray type="Float64" Name="E">
          1.95454349e+05 1.95956971e+05 1.96479197e+05 1.97019093e+05 
        </DataArray>
      </PointData>
    </Piece>
    <Piece NumberOfPoints="4" NumberOfCells="3">
      <Points>
        <DataArray type="Float64" NumberOfComponents="3" format="ascii">
          4.10847515e-01 5.75418957e-02 0.00000000e+00 
4.21227485e-01 5.71038015e-02 0.00000000e+00 
4.31606144e-01 5.66351078e-02 0.00000000e+00 
4.41983402e-01 5.61364293e-02 0.00000000e+00 

        </DataArray>
      </Points>
      <Cells>
        <DataArray type="Int32" Name="connectivity" format="ascii">
0 1
1 2
2 3

        </DataArray>
        <DataArray type="Int32" Name="offsets" format="ascii">
2 4 6 
        </DataArray>
        <DataArray type="UInt8" Name="types" format="ascii">
3 3 3 
        </DataArray>
      </Cells>
      <PointData>
        <DataArray type="Float64" Name="rho">
          8.68200685e-01 8.70491502e-01 8.72827870e-01 8.75198967e-01 
        </DataArray>
        <DataArray type="Float64" Name="rhou">
          8.28893575e-04 7.78563761e-04 7.40855225e-04 7.05462728e-04 
        </DataArray>
        <DataArray type="Float64" Name="rhov">
          8.76092229e-05 8.85188246e-05 7.94629657e-05 5.87717514e-05 
        </DataArray>
        <DataArray type="Float64" Name="E">
          1.97019047e+05 1.97572634e+05 1.98136879e+05 1.98709220e+05 
        </DataArray>
      </PointData>
    </Piece>
    <Piece NumberOfPoints="4" NumberOfCells="3">
      <Points>
        <DataArray type="Float64" NumberOfComponents="3" format="ascii">
          4.41983402e-01 5.61364293e-02 0.00000000e+00 
4.52359200e-01 5.56085743e-02 0.00000000e+00 
4.62733537e-01 5.50529286e-02 0.00000000e+00 
4.73106444e-01 5.44707514e-02 0.00000000e+00 

        </DataArray>
      </Points>
      <Cells>
        <DataArray type="Int32" Name="connectivity" format="ascii">
0 1
1 2
2 3

        </DataArray>
        <DataArray type="Int32" Name="offsets" format="ascii">
2 4 6 
        </DataArray>
        <DataArray type="UInt8" Name="types" format="ascii">
3 3 3 
        </DataArray>
      </Cells>
      <PointData>
        <DataArray type="Float64" Name="rho">
          8.75199111e-01 8.77599512e-01 8.80021842e-01 8.82456763e-01 
        </DataArray>
        <DataArray type="Float64" Name="rhou">
          7.02212118e-04 6.47724183e-04 6.09173225e-04 5.87600239e-04 
        </DataArray>
        <DataArray type="Float64" Name="rhov">
          5.93631715e-05 5.20023847e-05 5.23852480e-05 5.23486531e-05 
        </DataArray>
        <DataArray type="Float64" Name="E">
          1.98709253e+05 1.99288356e+05 1.99872455e+05 2.00459347e+05 
        </DataArray>
      </PointData>
    </Piece>
    <Piece NumberOfPoints="4" NumberOfCells="3">
      <Points>
        <DataArray type="Float64" NumberOfComponents="3" format="ascii">
          4.73106444e-01 5.44707514e-02 0.00000000e+00 
4.83477861e-01 5.38627952e-02 0.00000000e+00 
4.93847787e-01 5.32294959e-02 0.00000000e+00 
5.04216135e-01 5.25716618e-02 0.00000000e+00 

        </DataArray>
      </Points>
      <Cells>
        <DataArray type="Int32" Name="connectivity" format="ascii">
0 1
1 2
2 3

        </DataArray>
        <DataArray type="Int32" Name="offsets" format="ascii">
2 4 6 
        </DataArray>
        <DataArray type="UInt8" Name="types" format="ascii">
3 3 3 
        </DataArray>
      </Cells>
      <PointData>
        <DataArray type="Float64" Name="rho">
          8.82456751e-01 8.84896728e-01 8.87335795e-01 8.89772352e-01 
        </DataArray>
        <DataArray type="Float64" Name="rhou">
          5.79668363e-04 5.60232877e-04 5.26440263e-04 4.86403959e-04 
        </DataArray>
        <DataArray type="Float64" Name="rhov">
          5.41189275e-05 4.21584025e-05 2.65799356e-05 2.31465831e-05 
        </DataArray>
        <DataArray type="Float64" Name="E">
          2.00459345e+05 2.01047251e+05 2.01634763e+05 2.02221466e+05 
        </DataArray>
      </PointData>
    </Piece>
    <Piece NumberOfPoints="4" NumberOfCells="3">
      <Points>
        <DataArray type="Float64" NumberOfComponents="3" format="ascii">
          5.04216135e-01 5.25716618e-02 0.00000000e+00 
5.14582992e-01 5.18903993e-02 0.00000000e+00 
5.24948359e-01 5.11864908e-02 0.00000000e+00 
5.35312176e-01 5.04603274e-02 0.00000000e+00 

        </DataArray>
      </Points>
      <Cells>
        <DataArray type="Int32" Name="connectivity" format="ascii">
0 1
1 2
2 3

        </DataArray>
        <DataArray type="Int32" Name="offsets" format="ascii">
2 4 6 
        </DataArray>
        <DataArray type="UInt8" Name="types" format="ascii">
3 3 3 
        </DataArray>
      </Cells>
      <PointData>
        <DataArray type="Float64" Name="rho">
          8.89772267e-01 8.92200561e-01 8.94615856e-01 8.97014503e-01 
        </DataArray>
        <DataArray type="Float64" Name="rhou">
          4.94711155e-04 4.69934931e-04 4.51396017e-04 4.33408425e-04 
        </DataArray>
        <DataArray type="Float64" Name="rhov">
          2.52935848e-05 2.39111569e-05 1.73676354e-05 4.31865558e-06 
        </DataArray>
        <DataArray type="Float64" Name="E">
          2.02221447e+05 2.02805988e+05 2.03387261e+05 2.03964408e+05 
        </DataArray>
      </PointData>
    </Piece>
    <Piece NumberOfPoints="4" NumberOfCells="3">
      <Points>
        <DataArray type="Float64" NumberOfComponents="3" format="ascii">
          5.35312176e-01 5.04603274e-02 0.00000000e+00 
5.45674443e-01 4.97124642e-02 0.00000000e+00 
5.56035221e-01 4.89437394e-02 0.00000000e+00 
5.66394389e-01 4.81546782e-02 0.00000000e+00 

        </DataArray>
      </Points>
      <Cells>
        <DataArray type="Int32" Name="connectivity" format="ascii">
0 1
1 2
2 3

        </DataArray>
        <DataArray type="Int32" Name="offsets" format="ascii">
2 4 6 
        </DataArray>
        <DataArray type="UInt8" Name="types" format="ascii">
3 3 3 
        </DataArray>
      </Cells>
      <PointData>
        <DataArray type="Float64" Name="rho">
          8.97014548e-01 8.99395829e-01 9.01756828e-01 9.04094759e-01 
        </DataArray>
        <DataArray type="Float64" Name="rhou">
          4.28927141e-04 4.03497834e-04 3.85907132e-04 3.75060095e-04 
        </DataArray>
        <DataArray type="Float64" Name="rhov">
          4.60347132e-06 2.54753498e-06 4.49235701e-07 -5.16819462e-06 
        </DataArray>
        <DataArray type="Float64" Name="E">
          2.03964418e+05 2.04537255e+05 2.05105103e+05 2.05667318e+05 
        </DataArray>
      </PointData>
    </Piece>
    <Piece NumberOfPoints="4" NumberOfCells="3">
      <Points>
        <DataArray type="Float64" NumberOfComponents="3" format="ascii">
          5.66394389e-01 4.81546782e-02 0.00000000e+00 
5.76752067e-01 4.73455116e-02 0.00000000e+00 
5.87108195e-01 4.65166979e-02 0.00000000e+00 
5.97462773e-01 4.56690118e-02 0.00000000e+00 

        </DataArray>
      </Points>
      <Cells>
        <DataArray type="Int32" Name="connectivity" format="ascii">
0 1
1 2
2 3

        </DataArray>
        <DataArray type="Int32" Name="offsets" format="ascii">
2 4 6 
        </DataArray>
        <DataArray type="UInt8" Name="types" format="ascii">
3 3 3 
        </DataArray>
      </Cells>
      <PointData>
        <DataArray type="Float64" Name="rho">
          9.04094788e-01 9.06408112e-01 9.08696706e-01 9.10959919e-01 
        </DataArray>
        <DataArray type="Float64" Name="rhou">
          3.74252997e-04 3.54454347e-04 3.33741989e-04 3.18036054e-04 
        </DataArray>
        <DataArray type="Float64" Name="rhov">
          -4.80332714e-06 -1.49101794e-05 -1.99112394e-05 -2.00914156e-05 
        </DataArray>
        <DataArray type="Float64" Name="E">
          2.05667325e+05 2.06223549e+05 2.06773751e+05 2.07317779e+05 
        </DataArray>
      </PointData>
    </Piece>
    <Piece NumberOfPoints="4" NumberOfCells="3">
      <Points>
        <DataArray type="Float64" NumberOfComponents="3" format="ascii">
          5.97462773e-01 4.56690118e-02 0.00000000e+00 
6.07815862e-01 4.48031016e-02 0.00000000e+00 
6.18167400e-01 4.39192392e-02 0.00000000e+00 
6.28517449e-01 4.30175588e-02 0.00000000e+00 

        </DataArray>
      </Points>
      <Cells>
        <DataArray type="Int32" Name="connectivity" format="ascii">
0 1
1 2
2 3

        </DataArray>
        <DataArray type="Int32" Name="offsets" format="ascii">
2 4 6 
        </DataArray>
        <DataArray type="UInt8" Name="types" format="ascii">
3 3 3 
        </DataArray>
      </Cells>
      <PointData>
        <DataArray type="Float64" Name="rho">
          9.10959855e-01 9.13196065e-01 9.15403744e-01 9.17583378e-01 
        </DataArray>
        <DataArray type="Float64" Name="rhou">
          3.16028050e-04 3.07492650e-04 2.95456484e-04 2.78011921e-04 
        </DataArray>
        <DataArray type="Float64" Name="rhov">
          -1.91231175e-05 -2.09338601e-05 -2.79349119e-05 -3.46350380e-05 
        </DataArray>
        <DataArray type="Float64" Name="E">
          2.07317765e+05 2.07855249e+05 2.08385845e+05 2.08909667e+05 
        </DataArray>
      </PointData>
    </Piece>
    <Piece NumberOfPoints="4" NumberOfCells="3">
      <Points>
        <DataArray type="Float64" NumberOfComponents="3" format="ascii">
          6.28517449e-01 4.30175588e-02 0.00000000e+00 
6.38865948e-01 4.20984775e-02 0.00000000e+00 
6.49212897e-01 4.11624312e-02 0.00000000e+00 
6.59558356e-01 4.02097441e-02 0.00000000e+00 

        </DataArray>
      </Points>
      <Cells>
        <DataArray type="Int32" Name="connectivity" format="ascii">
0 1
1 2
2 3

        </DataArray>
        <DataArray type="Int32" Name="offsets" format="ascii">
2 4 6 
        </DataArray>
        <DataArray type="UInt8" Name="types" format="ascii">
3 3 3 
        </DataArray>
      </Cells>
      <PointData>
        <DataArray type="Float64" Name="rho">
          9.17583369e-01 9.19735097e-01 9.21858397e-01 9.23953295e-01 
        </DataArray>
        <DataArray type="Float64" Name="rhou">
          2.78985813e-04 2.65782190e-04 2.54301213e-04 2.41844443e-04 
        </DataArray>
        <DataArray type="Float64" Name="rhov">
          -3.35740970e-05 -3.54966437e-05 -3.85677797e-05 -4.19469380e-05 
        </DataArray>
        <DataArray type="Float64" Name="E">
          2.08909666e+05 2.09426751e+05 2.09936986e+05 2.10440382e+05 
        </DataArray>
      </PointData>
    </Piece>
    <Piece NumberOfPoints="4" NumberOfCells="3">
      <Points>
        <DataArray type="Float64" NumberOfComponents="3" format="ascii">
          6.59558356e-01 4.02097441e-02 0.00000000e+00 
6.69902325e-01 3.92407738e-02 0.00000000e+00 
6.80244744e-01 3.82556282e-02 0.00000000e+00 
6.90585554e-01 3.72543521e-02 0.00000000e+00 

        </DataArray>
      </Points>
      <Cells>
        <DataArray type="Int32" Name="connectivity" format="ascii">
0 1
1 2
2 3

        </DataArray>
        <DataArray type="Int32" Name="offsets" format="ascii">
2 4 6 
        </DataArray>
        <DataArray type="UInt8" Name="types" format="ascii">
3 3 3 
        </DataArray>
      </Cells>
      <PointData>
        <DataArray type="Float64" Name="rho">
          9.23953278e-01 9.26020100e-01 9.28058008e-01 9.30068133e-01 
        </DataArray>
        <DataArray type="Float64" Name="rhou">
          2.38590256e-04 2.32789293e-04 2.23207917e-04 2.07352458e-04 
        </DataArray>
        <DataArray type="Float64" Name="rhov">
          -4.08665495e-05 -4.18671402e-05 -4.74498176e-05 -5.21468093e-05 
        </DataArray>
        <DataArray type="Float64" Name="E">
          2.10440378e+05 2.10937016e+05 2.11426713e+05 2.11909732e+05 
        </DataArray>
      </PointData>
    </Piece>
    <Piece NumberOfPoints="4" NumberOfCells="3">
      <Points>
        <DataArray type="Float64" NumberOfComponents="3" format="ascii">
          6.90585554e-01 3.72543521e-02 0.00000000e+00 
7.00924933e-01 3.62373814e-02 0.00000000e+00 
7.11262703e-01 3.52048986e-02 0.00000000e+00 
7.21598923e-01 3.41568366e-02 0.00000000e+00 

        </DataArray>
      </Points>
      <Cells>
        <DataArray type="Int32" Name="connectivity" format="ascii">
0 1
1 2
2 3

        </DataArray>
        <DataArray type="Int32" Name="offsets" format="ascii">
2 4 6 
        </DataArray>
        <DataArray type="UInt8" Name="types" format="ascii">
3 3 3 
        </DataArray>
      </Cells>
      <PointData>
        <DataArray type="Float64" Name="rho">
          9.30068089e-01 9.32051159e-01 9.34006243e-01 9.35934290e-01 
        </DataArray>
        <DataArray type="Float64" Name="rhou">
          2.05940152e-04 1.99610499e-04 1.93037147e-04 1.78323461e-04 
        </DataArray>
        <DataArray type="Float64" Name="rhov">
          -5.09874347e-05 -4.92621946e-05 -5.35412181e-05 -5.92325592e-05 
        </DataArray>
        <DataArray type="Float64" Name="E">
          2.11909722e+05 2.12386236e+05 2.12856038e+05 2.13319349e+05 
        </DataArray>
      </PointData>
    </Piece>
    <Piece NumberOfPoints="4" NumberOfCells="3">
      <Points>
        <DataArray type="Float64" NumberOfComponents="3" format="ascii">
          7.21598923e-01 3.41568366e-02 0.00000000e+00 
7.31933594e-01 3.30936089e-02 0.00000000e+00 
7.42266715e-01 3.20154354e-02 0.00000000e+00 
7.52598286e-01 3.09220124e-02 0.00000000e+00 

        </DataArray>
      </Points>
      <Cells>
        <DataArray type="Int32" Name="connectivity" format="ascii">
0 1
1 2
2 3

        </DataArray>
        <DataArray type="Int32" Name="offsets" format="ascii">
2 4 6 
        </DataArray>
        <DataArray type="UInt8" Name="types" format="ascii">
3 3 3 
        </DataArray>
      </Cells>
      <PointData>
        <DataArray type="Float64" Name="rho">
          9.35934269e-01 9.37836619e-01 9.39712152e-01 9.41561661e-01 
        </DataArray>
        <DataArray type="Float64" Name="rhou">
          1.75602075e-04 1.69786334e-04 1.65214988e-04 1.52853502e-04 
        </DataArray>
        <DataArray type="Float64" Name="rhov">
          -5.82263419e-05 -5.42653680e-05 -5.73044415e-05 -6.32444945e-05 
        </DataArray>
        <DataArray type="Float64" Name="E">
          2.13319344e+05 2.13776474e+05 2.14227171e+05 2.14671617e+05 
        </DataArray>
      </PointData>
    </Piece>
    <Piece NumberOfPoints="4" NumberOfCells="3">
      <Points>
        <DataArray type="Float64" NumberOfComponents="3" format="ascii">
          7.52598286e-01 3.09220124e-02 0.00000000e+00 
7.62928188e-01 2.98135038e-02 0.00000000e+00 
7.73256481e-01 2.86899786e-02 0.00000000e+00 
7.83583105e-01 2.75512449e-02 0.00000000e+00 

        </DataArray>
      </Points>
      <Cells>
        <DataArray type="Int32" Name="connectivity" format="ascii">
0 1
1 2
2 3

        </DataArray>
        <DataArray type="Int32" Name="offsets" format="ascii">
2 4 6 
        </DataArray>
        <DataArray type="UInt8" Name="types" format="ascii">
3 3 3 
        </DataArray>
      </Cells>
      <PointData>
        <DataArray type="Float64" Name="rho">
          9.41561656e-01 9.43386579e-01 9.45186321e-01 9.46961841e-01 
        </DataArray>
        <DataArray type="Float64" Name="rhou">
          1.50198319e-04 1.44459516e-04 1.38558819e-04 1.26838989e-04 
        </DataArray>
        <DataArray type="Float64" Name="rhov">
          -6.22899721e-05 -6.04165526e-05 -6.32496947e-05 -6.71146032e-05 
        </DataArray>
        <DataArray type="Float64" Name="E">
          2.14671616e+05 2.15110138e+05 2.15542599e+05 2.15969211e+05 
        </DataArray>
      </PointData>
    </Piece>
    <Piece NumberOfPoints="4" NumberOfCells="3">
      <Points>
        <DataArray type="Float64" NumberOfComponents="3" format="ascii">
          7.83583105e-01 2.75512449e-02 0.00000000e+00 
7.93908060e-01 2.63975188e-02 0.00000000e+00 
8.04231405e-01 2.52291560e-02 0.00000000e+00 
8.14553022e-01 2.40457114e-02 0.00000000e+00 

        </DataArray>
      </Points>
      <Cells>
        <DataArray type="Int32" Name="connectivity" format="ascii">
0 1
1 2
2 3

        </DataArray>
        <DataArray type="Int32" Name="offsets" format="ascii">
2 4 6 
        </DataArray>
        <DataArray type="UInt8" Name="types" format="ascii">
3 3 3 
        </DataArray>
      </Cells>
      <PointData>
        <DataArray type="Float64" Name="rho">
          9.46961847e-01 9.48714173e-01 9.50443444e-01 9.52149210e-01 
        </DataArray>
        <DataArray type="Float64" Name="rhou">
          1.29544293e-04 1.16360772e-04 1.13223484e-04 1.12143619e-04 
        </DataArray>
        <DataArray type="Float64" Name="rhov">
          -6.74766553e-05 -6.39971960e-05 -6.30542451e-05 -7.01534437e-05 
        </DataArray>
        <DataArray type="Float64" Name="E">
          2.15969213e+05 2.16390202e+05 2.16805588e+05 2.17215251e+05 
        </DataArray>
      </PointData>
    </Piece>
    <Piece NumberOfPoints="4" NumberOfCells="3">
      <Points>
        <DataArray type="Float64" NumberOfComponents="3" format="ascii">
          8.14553022e-01 2.40457114e-02 0.00000000e+00 
8.24872792e-01 2.28467938e-02 0.00000000e+00 
8.35190892e-01 2.16327831e-02 0.00000000e+00 
8.45507145e-01 2.04038676e-02 0.00000000e+00 

        </DataArray>
      </Points>
      <Cells>
        <DataArray type="Int32" Name="connectivity" format="ascii">
0 1
1 2
2 3

        </DataArray>
        <DataArray type="Int32" Name="offsets" format="ascii">
2 4 6 
        </DataArray>
        <DataArray type="UInt8" Name="types" format="ascii">
3 3 3 
        </DataArray>
      </Cells>
      <PointData>
        <DataArray type="Float64" Name="rho">
          9.52149255e-01 9.53833476e-01 9.55496688e-01 9.57139285e-01 
        </DataArray>
        <DataArray type="Float64" Name="rhou">
          1.06022270e-04 9.52787108e-05 8.58262431e-05 8.42917343e-05 
        </DataArray>
        <DataArray type="Float64" Name="rhov">
          -7.04082374e-05 -7.05925961e-05 -6.78502304e-05 -6.38302467e-05 
        </DataArray>
        <DataArray type="Float64" Name="E">
          2.17215261e+05 2.17619626e+05 2.18018784e+05 2.18412790e+05 
        </DataArray>
      </PointData>
    </Piece>
    <Piece NumberOfPoints="4" NumberOfCells="3">
      <Points>
        <DataArray type="Float64" NumberOfComponents="3" format="ascii">
          8.45507145e-01 2.04038676e-02 0.00000000e+00 
8.55821550e-01 1.91591792e-02 0.00000000e+00 
8.66134048e-01 1.78987328e-02 0.00000000e+00 
8.76444638e-01 1.66228991e-02 0.00000000e+00 

        </DataArray>
      </Points>
      <Cells>
        <DataArray type="Int32" Name="connectivity" format="ascii">
0 1
1 2
2 3

        </DataArray>
        <DataArray type="Int32" Name="offsets" format="ascii">
2 4 6 
        </DataArray>
        <DataArray type="UInt8" Name="types" format="ascii">
3 3 3 
        </DataArray>
      </Cells>
      <PointData>
        <DataArray type="Float64" Name="rho">
          9.57139404e-01 9.58760191e-01 9.60363534e-01 9.61946047e-01 
        </DataArray>
        <DataArray type="Float64" Name="rhou">
          1.06979356e-04 7.16357972e-05 6.80398965e-05 8.29283708e-05 
        </DataArray>
        <DataArray type="Float64" Name="rhov">
          -6.76517590e-05 -7.56233401e-05 -7.28596940e-05 -9.15409352e-05 
        </DataArray>
        <DataArray type="Float64" Name="E">
          2.18412817e+05 2.18801352e+05 2.19185354e+05 2.19563982e+05 
        </DataArray>
      </PointData>
    </Piece>
    <Piece NumberOfPoints="4" NumberOfCells="3">
      <Points>
        <DataArray type="Float64" NumberOfComponents="3" format="ascii">
          8.76444638e-01 1.66228991e-02 0.00000000e+00 
8.86753201e-01 1.53310820e-02 0.00000000e+00 
8.97059798e-01 1.40233757e-02 0.00000000e+00 
9.07364249e-01 1.26988320e-02 0.00000000e+00 

        </DataArray>
      </Points>
      <Cells>
        <DataArray type="Int32" Name="connectivity" format="ascii">
0 1
1 2
2 3

        </DataArray>
        <DataArray type="Int32" Name="offsets" format="ascii">
2 4 6 
        </DataArray>
        <DataArray type="UInt8" Name="types" format="ascii">
3 3 3 
        </DataArray>
      </Cells>
      <PointData>
        <DataArray type="Float64" Name="rho">
          9.61945568e-01 9.63514632e-01 9.65062629e-01 9.66609888e-01 
        </DataArray>
        <DataArray type="Float64" Name="rhou">
          -1.50569704e-05 8.13499135e-05 2.05212265e-05 -3.75216191e-05 
        </DataArray>
        <DataArray type="Float64" Name="rhov">
          -8.30947570e-05 -8.63635941e-05 -1.06275609e-04 -3.62609393e-07 
        </DataArray>
        <DataArray type="Float64" Name="E">
          2.19563873e+05 2.19938733e+05 2.20307992e+05 2.20676186e+05 
        </DataArray>
      </PointData>
    </Piece>
    <Piece NumberOfPoints="4" NumberOfCells="3">
      <Points>
        <DataArray type="Float64" NumberOfComponents="3" format="ascii">
          9.07364249e-01 1.26988320e-02 0.00000000e+00 
9.17666554e-01 1.13577880e-02 0.00000000e+00 
9.27966774e-01 1.00004105e-02 0.00000000e+00 
9.38264549e-01 8.62528384e-03 0.00000000e+00 

        </DataArray>
      </Points>
      <Cells>
        <DataArray type="Int32" Name="connectivity" format="ascii">
0 1
1 2
2 3

        </DataArray>
        <DataArray type="Int32" Name="offsets" format="ascii">
2 4 6 
        </DataArray>
        <DataArray type="UInt8" Name="types" format="ascii">
3 3 3 
        </DataArray>
      </Cells>
      <PointData>
        <DataArray type="Float64" Name="rho">
          9.66615069e-01 9.68116977e-01 9.69651805e-01 9.71038447e-01 
        </DataArray>
        <DataArray type="Float64" Name="rhou">
          8.26349029e-04 -2.50902332e-04 3.36102775e-04 7.84778740e-04 
        </DataArray>
        <DataArray type="Float64" Name="rhov">
          -7.43614617e-05 -1.30294322e-04 -5.39568858e-05 -1.56544466e-03 
        </DataArray>
        <DataArray type="Float64" Name="E">
          2.20677368e+05 2.21034199e+05 2.21397418e+05 2.21725563e+05 
        </DataArray>
      </PointData>
    </Piece>
    <Piece NumberOfPoints="4" NumberOfCells="3">
      <Points>
        <DataArray type="Float64" NumberOfComponents="3" format="ascii">
          9.38264549e-01 8.62528384e-03 0.00000000e+00 
9.48560059e-01 7.23283459e-03 0.00000000e+00 
9.58853185e-01 5.82307298e-03 0.00000000e+00 
9.69143867e-01 4.39538015e-03 0.00000000e+00 

        </DataArray>
      </Points>
      <Cells>
        <DataArray type="Int32" Name="connectivity" format="ascii">
0 1
1 2
2 3

        </DataArray>
        <DataArray type="Int32" Name="offsets" format="ascii">
2 4 6 
        </DataArray>
        <DataArray type="UInt8" Name="types" format="ascii">
3 3 3 
        </DataArray>
      </Cells>
      <PointData>
        <DataArray type="Float64" Name="rho">
          9.70987843e-01 9.72724102e-01 9.74032173e-01 9.76892604e-01 
        </DataArray>
        <DataArray type="Float64" Name="rhou">
          -7.16421517e-03 2.25421681e-03 -3.40633747e-03 -2.02475562e-02 
        </DataArray>
        <DataArray type="Float64" Name="rhov">
          -1.16434226e-03 1.32691419e-04 -1.20842152e-03 2.01718150e-02 
        </DataArray>
        <DataArray type="Float64" Name="E">
          2.21714009e+05 2.22120636e+05 2.22428047e+05 2.23088366e+05 
        </DataArray>
      </PointData>
    </Piece>
    <Piece NumberOfPoints="4" NumberOfCells="3">
      <Points>
        <DataArray type="Float64" NumberOfComponents="3" format="ascii">
          9.69143867e-01 4.39538015e-03 0.00000000e+00 
9.79435980e-01 2.94816052e-03 0.00000000e+00 
9.89725590e-01 1.48259092e-03 0.00000000e+00 
1.00000000e+00 0.00000000e+00 0.00000000e+00 

        </DataArray>
      </Points>
      <Cells>
        <DataArray type="Int32" Name="connectivity" format="ascii">
0 1
1 2
2 3

        </DataArray>
        <DataArray type="Int32" Name="offsets" format="ascii">
2 4 6 
        </DataArray>
        <DataArray type="UInt8" Name="types" format="ascii">
3 3 3 
        </DataArray>
      </Cells>
      <PointData>
        <DataArray type="Float64" Name="rho">
          9.77203048e-01 9.76802174e-01 9.80904813e-01 9.70457308e-01 
        </DataArray>
        <DataArray type="Float64" Name="rhou">
          -1.53753802e-03 -1.02867982e-02 -3.98922707e-02 5.30353396e-01 
        </DataArray>
        <DataArray type="Float64" Name="rhov">
          2.23352009e-02 1.19784062e-03 5.56650756e-02 -1.45685807e-01 
        </DataArray>
        <DataArray type="Float64" Name="E">
          2.23159840e+05 2.23072557e+05 2.24011167e+05 2.21610129e+05 
        </DataArray>
      </PointData>
    </Piece>
    <Piece NumberOfPoints="4" NumberOfCells="3">
      <Points>
        <DataArray type="Float64" NumberOfComponents="3" format="ascii">
          9.69029665e-01 -4.41133138e-03 0.00000000e+00 
9.79355037e-01 -2.95961346e-03 0.00000000e+00 
9.89677846e-01 -1.48943183e-03 0.00000000e+00 
1.00000000e+00 0.00000000e+00 0.00000000e+00 

        </DataArray>
      </Points>
      <Cells>
        <DataArray type="Int32" Name="connectivity" format="ascii">
0 1
1 2
2 3

        </DataArray>
        <DataArray type="Int32" Name="offsets" format="ascii">
2 4 6 
        </DataArray>
        <DataArray type="UInt8" Name="types" format="ascii">
3 3 3 
        </DataArray>
      </Cells>
      <PointData>
        <DataArray type="Float64" Name="rho">
          9.76798814e-01 9.76318500e-01 9.80246775e-01 9.70819093e-01 
        </DataArray>
        <DataArray type="Float64" Name="rhou">
          -9.03653546e-04 -8.12263965e-03 -3.82365556e-02 4.90138459e-01 
        </DataArray>
        <DataArray type="Float64" Name="rhov">
          -2.54225475e-02 2.42329664e-03 -5.24341480e-02 1.53942973e-01 
        </DataArray>
        <DataArray type="Float64" Name="E">
          2.22924023e+05 2.22839398e+05 2.23766485e+05 2.21669658e+05 
        </DataArray>
      </PointData>
    </Piece>
    <Piece NumberOfPoints="4" NumberOfCells="3">
      <Points>
        <DataArray type="Float64" NumberOfComponents="3" format="ascii">
          9.38035965e-01 -8.65600072e-03 0.00000000e+00 
9.48369622e-01 -7.25875143e-03 0.00000000e+00 
9.58700895e-01 -5.84406452e-03 0.00000000e+00 
9.69029665e-01 -4.41133138e-03 0.00000000e+00 

        </DataArray>
      </Points>
      <Cells>
        <DataArray type="Int32" Name="connectivity" format="ascii">
0 1
1 2
2 3

        </DataArray>
        <DataArray type="Int32" Name="offsets" format="ascii">
2 4 6 
        </DataArray>
        <DataArray type="UInt8" Name="types" format="ascii">
3 3 3 
        </DataArray>
      </Cells>
      <PointData>
        <DataArray type="Float64" Name="rho">
          9.70957441e-01 9.72590729e-01 9.73792980e-01 9.76483244e-01 
        </DataArray>
        <DataArray type="Float64" Name="rhou">
          -6.84510305e-03 2.43110968e-03 -2.85058960e-03 -1.83822847e-02 
        </DataArray>
        <DataArray type="Float64" Name="rhov">
          1.18714924e-03 -1.84484076e-04 1.46195073e-03 -1.87545780e-02 
        </DataArray>
        <DataArray type="Float64" Name="E">
          2.21536382e+05 2.21925991e+05 2.22218536e+05 2.22852661e+05 
        </DataArray>
      </PointData>
    </Piece>
    <Piece NumberOfPoints="4" NumberOfCells="3">
      <Points>
        <DataArray type="Float64" NumberOfComponents="3" format="ascii">
          9.07021165e-01 -1.27432076e-02 0.00000000e+00 
9.17361677e-01 -1.13977119e-02 0.00000000e+00 
9.27700043e-01 -1.00357840e-02 0.00000000e+00 
9.38035965e-01 -8.65600072e-03 0.00000000e+00 

        </DataArray>
      </Points>
      <Cells>
        <DataArray type="Int32" Name="connectivity" format="ascii">
0 1
1 2
2 3

        </DataArray>
        <DataArray type="Int32" Name="offsets" format="ascii">
2 4 6 
        </DataArray>
        <DataArray type="UInt8" Name="types" format="ascii">
3 3 3 
        </DataArray>
      </Cells>
      <PointData>
        <DataArray type="Float64" Name="rho">
          9.66868165e-01 9.68273747e-01 9.69714460e-01 9.71007413e-01 
        </DataArray>
        <DataArray type="Float64" Name="rhou">
          9.48937086e-04 -1.18912009e-04 4.86285750e-04 9.06299183e-04 
        </DataArray>
        <DataArray type="Float64" Name="rhov">
          5.67073963e-05 8.57088043e-05 -9.44210942e-06 1.48876718e-03 
        </DataArray>
        <DataArray type="Float64" Name="E">
          2.20555093e+05 2.20891660e+05 2.21236402e+05 2.21547774e+05 
        </DataArray>
      </PointData>
    </Piece>
    <Piece NumberOfPoints="4" NumberOfCells="3">
      <Points>
        <DataArray type="Float64" NumberOfComponents="3" format="ascii">
          8.75986874e-01 -1.66798849e-02 0.00000000e+00 
8.86333704e-01 -1.53839625e-02 0.00000000e+00 
8.96678507e-01 -1.40720531e-02 0.00000000e+00 
9.07021165e-01 -1.27432076e-02 0.00000000e+00 

        </DataArray>
      </Points>
      <Cells>
        <DataArray type="Int32" Name="connectivity" format="ascii">
0 1
1 2
2 3

        </DataArray>
        <DataArray type="Int32" Name="offsets" format="ascii">
2 4 6 
        </DataArray>
        <DataArray type="UInt8" Name="types" format="ascii">
3 3 3 
        </DataArray>
      </Cells>
      <PointData>
        <DataArray type="Float64" Name="rho">
          9.62540265e-01 9.63986315e-01 9.65421349e-01 9.66862913e-01 
        </DataArray>
        <DataArray type="Float64" Name="rhou">
          1.28790905e-04 2.12895030e-04 1.59811241e-04 1.02506298e-04 
        </DataArray>
        <DataArray type="Float64" Name="rhov">
          7.93392095e-05 6.99359780e-05 8.53765603e-05 -1.70844387e-05 
        </DataArray>
        <DataArray type="Float64" Name="E">
          2.19520368e+05 2.19866034e+05 2.20209203e+05 2.20553898e+05 
        </DataArray>
      </PointData>
    </Piece>
    <Piece NumberOfPoints="4" NumberOfCells="3">
      <Points>
        <DataArray type="Float64" NumberOfComponents="3" format="ascii">
          8.44934702e-01 -2.04724707e-02 0.00000000e+00 
8.55287313e-01 -1.92240477e-02 0.00000000e+00 
8.65638077e-01 -1.79597028e-02 0.00000000e+00 
8.75986874e-01 -1.66798849e-02 0.00000000e+00 

        </DataArray>
      </Points>
      <Cells>
        <DataArray type="Int32" Name="connectivity" format="ascii">
0 1
1 2
2 3

        </DataArray>
        <DataArray type="Int32" Name="offsets" format="ascii">
2 4 6 
        </DataArray>
        <DataArray type="UInt8" Name="types" format="ascii">
3 3 3 
        </DataArray>
      </Cells>
      <PointData>
        <DataArray type="Float64" Name="rho">
          9.58179269e-01 9.59637185e-01 9.61093537e-01 9.62540719e-01 
        </DataArray>
        <DataArray type="Float64" Name="rhou">
          2.77894962e-04 2.13453382e-04 1.98789881e-04 2.36530562e-04 
        </DataArray>
        <DataArray type="Float64" Name="rhov">
          5.33085262e-05 7.47084722e-05 6.34275172e-05 8.25987696e-05 
        </DataArray>
        <DataArray type="Float64" Name="E">
          2.18478187e+05 2.18826547e+05 2.19174553e+05 2.19520472e+05 
        </DataArray>
      </PointData>
    </Piece>
    <Piece NumberOfPoints="4" NumberOfCells="3">
      <Points>
        <DataArray type="Float64" NumberOfComponents="3" format="ascii">
          8.13865662e-01 -2.41250079e-02 0.00000000e+00 
8.24223816e-01 -2.29226518e-02 0.00000000e+00 
8.34580123e-01 -2.17050612e-02 0.00000000e+00 
8.44934702e-01 -2.04724707e-02 0.00000000e+00 

        </DataArray>
      </Points>
      <Cells>
        <DataArray type="Int32" Name="connectivity" format="ascii">
0 1
1 2
2 3

        </DataArray>
        <DataArray type="Int32" Name="offsets" format="ascii">
2 4 6 
        </DataArray>
        <DataArray type="UInt8" Name="types" format="ascii">
3 3 3 
        </DataArray>
      </Cells>
      <PointData>
        <DataArray type="Float64" Name="rho">
          9.53760852e-01 9.55238324e-01 9.56711259e-01 9.58179026e-01 
        </DataArray>
        <DataArray type="Float64" Name="rhou">
          2.59736557e-04 2.41457905e-04 2.23382412e-04 2.26652660e-04 
        </DataArray>
        <DataArray type="Float64" Name="rhov">
          6.50505091e-05 6.59240859e-05 5.80629584e-05 4.52953004e-05 
        </DataArray>
        <DataArray type="Float64" Name="E">
          2.17422966e+05 2.17775765e+05 2.18127535e+05 2.18478132e+05 
        </DataArray>
      </PointData>
    </Piece>
    <Piece NumberOfPoints="4" NumberOfCells="3">
      <Points>
        <DataArray type="Float64" NumberOfComponents="3" format="ascii">
          7.82780826e-01 -2.76402626e-02 0.00000000e+00 
7.93144107e-01 -2.64833923e-02 0.00000000e+00 
8.03505778e-01 -2.53117718e-02 0.00000000e+00 
8.13865662e-01 -2.41250079e-02 0.00000000e+00 

        </DataArray>
      </Points>
      <Cells>
        <DataArray type="Int32" Name="connectivity" format="ascii">
0 1
1 2
2 3

        </DataArray>
        <DataArray type="Int32" Name="offsets" format="ascii">
2 4 6 
        </DataArray>
        <DataArray type="UInt8" Name="types" format="ascii">
3 3 3 
        </DataArray>
      </Cells>
      <PointData>
        <DataArray type="Float64" Name="rho">
          9.49294639e-01 9.50789079e-01 9.52278701e-01 9.53760739e-01 
        </DataArray>
        <DataArray type="Float64" Name="rhou">
          2.88722975e-04 2.64676575e-04 2.62177066e-04 2.69634555e-04 
        </DataArray>
        <DataArray type="Float64" Name="rhov">
          6.09609734e-05 5.24254322e-05 4.79499969e-05 6.30658240e-05 
        </DataArray>
        <DataArray type="Float64" Name="E">
          2.16356891e+05 2.16713549e+05 2.17069107e+05 2.17422940e+05 
        </DataArray>
      </PointData>
    </Piece>
    <Piece NumberOfPoints="4" NumberOfCells="3">
      <Points>
        <DataArray type="Float64" NumberOfComponents="3" format="ascii">
          7.51680970e-01 -3.10197193e-02 0.00000000e+00 
7.62049198e-01 -2.99084149e-02 0.00000000e+00 
7.72415876e-01 -2.87819952e-02 0.00000000e+00 
7.82780826e-01 -2.76402626e-02 0.00000000e+00 

        </DataArray>
      </Points>
      <Cells>
        <DataArray type="Int32" Name="connectivity" format="ascii">
0 1
1 2
2 3

        </DataArray>
        <DataArray type="Int32" Name="offsets" format="ascii">
2 4 6 
        </DataArray>
        <DataArray type="UInt8" Name="types" format="ascii">
3 3 3 
        </DataArray>
      </Cells>
      <PointData>
        <DataArray type="Float64" Name="rho">
          9.44783987e-01 9.46292874e-01 9.47796254e-01 9.49294601e-01 
        </DataArray>
        <DataArray type="Float64" Name="rhou">
          3.08887213e-04 3.02655276e-04 2.94985864e-04 2.78085718e-04 
        </DataArray>
        <DataArray type="Float64" Name="rhov">
          5.22043776e-05 4.57376105e-05 5.01607637e-05 5.85023446e-05 
        </DataArray>
        <DataArray type="Float64" Name="E">
          2.15280652e+05 2.15640625e+05 2.15999331e+05 2.16356883e+05 
        </DataArray>
      </PointData>
    </Piece>
    <Piece NumberOfPoints="4" NumberOfCells="3">
      <Points>
        <DataArray type="Float64" NumberOfComponents="3" format="ascii">
          7.20566452e-01 -3.42622213e-02 0.00000000e+00 
7.30939507e-01 -3.31965312e-02 0.00000000e+00 
7.41311073e-01 -3.21157984e-02 0.00000000e+00 
7.51680970e-01 -3.10197193e-02 0.00000000e+00 

        </DataArray>
      </Points>
      <Cells>
        <DataArray type="Int32" Name="connectivity" format="ascii">
0 1
1 2
2 3

        </DataArray>
        <DataArray type="Int32" Name="offsets" format="ascii">
2 4 6 
        </DataArray>
        <DataArray type="UInt8" Name="types" format="ascii">
3 3 3 
        </DataArray>
      </Cells>
      <PointData>
        <DataArray type="Float64" Name="rho">
          9.40234862e-01 9.41755935e-01 9.43272440e-01 9.44783978e-01 
        </DataArray>
        <DataArray type="Float64" Name="rhou">
          3.40833614e-04 3.32241634e-04 3.27658840e-04 3.12323650e-04 
        </DataArray>
        <DataArray type="Float64" Name="rhov">
          4.68851193e-05 3.61261391e-05 3.95159473e-05 5.25108983e-05 
        </DataArray>
        <DataArray type="Float64" Name="E">
          2.14195488e+05 2.14558306e+05 2.14920056e+05 2.15280650e+05 
        </DataArray>
      </PointData>
    </Piece>
    <Piece NumberOfPoints="4" NumberOfCells="3">
      <Points>
        <DataArray type="Float64" NumberOfComponents="3" format="ascii">
          6.89437866e-01 -3.73662710e-02 0.00000000e+00 
6.99815631e-01 -3.63472365e-02 0.00000000e+00 
7.10191846e-01 -3.53125818e-02 0.00000000e+00 
7.20566452e-01 -3.42622213e-02 0.00000000e+00 

        </DataArray>
      </Points>
      <Cells>
        <DataArray type="Int32" Name="connectivity" format="ascii">
0 1
1 2
2 3

        </DataArray>
        <DataArray type="Int32" Name="offsets" format="ascii">
2 4 6 
        </DataArray>
        <DataArray type="UInt8" Name="types" format="ascii">
3 3 3 
        </DataArray>
      </Cells>
      <PointData>
        <DataArray type="Float64" Name="rho">
          9.35660578e-01 9.37188097e-01 9.38712904e-01 9.40234873e-01 
        </DataArray>
        <DataArray type="Float64" Name="rhou">
          3.78590389e-04 3.70082212e-04 3.61644346e-04 3.41863389e-04 
        </DataArray>
        <DataArray type="Float64" Name="rhov">
          3.66244441e-05 2.97484771e-05 3.52349429e-05 4.70008675e-05 
        </DataArray>
        <DataArray type="Float64" Name="E">
          2.13104296e+05 2.13468694e+05 2.13832433e+05 2.14195490e+05 
        </DataArray>
      </PointData>
    </Piece>
    <Piece NumberOfPoints="4" NumberOfCells="3">
      <Points>
        <DataArray type="Float64" NumberOfComponents="3" format="ascii">
          6.58295333e-01 -4.03269380e-02 0.00000000e+00 
6.68677747e-01 -3.93563360e-02 0.00000000e+00 
6.79058611e-01 -3.83694395e-02 0.00000000e+00 
6.89437866e-01 -3.73662710e-02 0.00000000e+00 

        </DataArray>
      </Points>
      <Cells>
        <DataArray type="Int32" Name="connectivity" format="ascii">
0 1
1 2
2 3

        </DataArray>
        <DataArray type="Int32" Name="offsets" format="ascii">
2 4 6 
        </DataArray>
        <DataArray type="UInt8" Name="types" format="ascii">
3 3 3 
        </DataArray>
      </Cells>
      <PointData>
        <DataArray type="Float64" Name="rho">
          9.31079637e-01 9.32606839e-01 9.34133746e-01 9.35660634e-01 
        </DataArray>
        <DataArray type="Float64" Name="rhou">
          4.18510878e-04 4.12282192e-04 3.98494992e-04 3.76533112e-04 
        </DataArray>
        <DataArray type="Float64" Name="rhov">
          2.29864771e-05 2.05414188e-05 2.81578264e-05 3.73087457e-05 
        </DataArray>
        <DataArray type="Float64" Name="E">
          2.12011206e+05 2.12375665e+05 2.12740011e+05 2.13104308e+05 
        </DataArray>
      </PointData>
    </Piece>
    <Piece NumberOfPoints="4" NumberOfCells="3">
      <Points>
        <DataArray type="Float64" NumberOfComponents="3" format="ascii">
          6.27138972e-01 -4.31386717e-02 0.00000000e+00 
6.37525976e-01 -4.22184542e-02 0.00000000e+00 
6.47911429e-01 -4.12811004e-02 0.00000000e+00 
6.58295333e-01 -4.03269380e-02 0.00000000e+00 

        </DataArray>
      </Points>
      <Cells>
        <DataArray type="Int32" Name="connectivity" format="ascii">
0 1
1 2
2 3

        </DataArray>
        <DataArray type="Int32" Name="offsets" format="ascii">
2 4 6 
        </DataArray>
        <DataArray type="UInt8" Name="types" format="ascii">
3 3 3 
        </DataArray>
      </Cells>
      <PointData>
        <DataArray type="Float64" Name="rho">
          9.26518263e-01 9.28034370e-01 9.29555376e-01 9.31079671e-01 
        </DataArray>
        <DataArray type="Float64" Name="rhou">
          4.71276933e-04 4.52196633e-04 4.34376690e-04 4.19282263e-04 
        </DataArray>
        <DataArray type="Float64" Name="rhov">
          1.71129965e-05 1.67429957e-05 1.89414744e-05 2.38388518e-05 
        </DataArray>
        <DataArray type="Float64" Name="E">
          2.10922172e+05 2.11284233e+05 2.11647371e+05 2.12011214e+05 
        </DataArray>
      </PointData>
    </Piece>
    <Piece NumberOfPoints="4" NumberOfCells="3">
      <Points>
        <DataArray type="Float64" NumberOfComponents="3" format="ascii">
          5.95968783e-01 -4.57924642e-02 0.00000000e+00 
6.06360376e-01 -4.49259281e-02 0.00000000e+00 
6.16750479e-01 -4.40412909e-02 0.00000000e+00 
6.27138972e-01 -4.31386717e-02 0.00000000e+00 

        </DataArray>
      </Points>
      <Cells>
        <DataArray type="Int32" Name="connectivity" format="ascii">
0 1
1 2
2 3

        </DataArray>
        <DataArray type="Int32" Name="offsets" format="ascii">
2 4 6 
        </DataArray>
        <DataArray type="UInt8" Name="types" format="ascii">
3 3 3 
        </DataArray>
      </Cells>
      <PointData>
        <DataArray type="Float64" Name="rho">
          9.22016286e-01 9.23508490e-01 9.25009498e-01 9.26518256e-01 
        </DataArray>
        <DataArray type="Float64" Name="rhou">
          5.15445352e-04 5.03793265e-04 4.86587373e-04 4.64454329e-04 
        </DataArray>
        <DataArray type="Float64" Name="rhov">
          2.61041339e-06 1.03015894e-07 7.46511393e-06 1.79248618e-05 
        </DataArray>
        <DataArray type="Float64" Name="E">
          2.09846376e+05 2.10203069e+05 2.10561750e+05 2.10922170e+05 
        </DataArray>
      </PointData>
    </Piece>
    <Piece NumberOfPoints="4" NumberOfCells="3">
      <Points>
        <DataArray type="Float64" NumberOfComponents="3" format="ascii">
          5.64784765e-01 -4.82786149e-02 0.00000000e+00 
5.75181007e-01 -4.74695377e-02 0.00000000e+00 
5.85575700e-01 -4.66405638e-02 0.00000000e+00 
5.95968783e-01 -4.57924642e-02 0.00000000e+00 

        </DataArray>
      </Points>
      <Cells>
        <DataArray type="Int32" Name="connectivity" format="ascii">
0 1
1 2
2 3

        </DataArray>
        <DataArray type="Int32" Name="offsets" format="ascii">
2 4 6 
        </DataArray>
        <DataArray type="UInt8" Name="types" format="ascii">
3 3 3 
        </DataArray>
      </Cells>
      <PointData>
        <DataArray type="Float64" Name="rho">
          9.17629036e-01 9.19073917e-01 9.20536940e-01 9.22016401e-01 
        </DataArray>
        <DataArray type="Float64" Name="rhou">
          5.90153354e-04 5.64555796e-04 5.31974148e-04 5.08951784e-04 
        </DataArray>
        <DataArray type="Float64" Name="rhov">
          -1.12449249e-05 9.56241220e-07 6.48402315e-06 3.57187209e-06 
        </DataArray>
        <DataArray type="Float64" Name="E">
          2.08796680e+05 2.09142560e+05 2.09492603e+05 2.09846402e+05 
        </DataArray>
      </PointData>
    </Piece>
    <Piece NumberOfPoints="4" NumberOfCells="3">
      <Points>
        <DataArray type="Float64" NumberOfComponents="3" format="ascii">
          5.33586800e-01 -5.05827516e-02 0.00000000e+00 
5.43987691e-01 -4.98356484e-02 0.00000000e+00 
5.54387033e-01 -4.90674041e-02 0.00000000e+00 
5.64784765e-01 -4.82786149e-02 0.00000000e+00 

        </DataArray>
      </Points>
      <Cells>
        <DataArray type="Int32" Name="connectivity" format="ascii">
0 1
1 2
2 3

        </DataArray>
        <DataArray type="Int32" Name="offsets" format="ascii">
2 4 6 
        </DataArray>
        <DataArray type="UInt8" Name="types" format="ascii">
3 3 3 
        </DataArray>
      </Cells>
      <PointData>
        <DataArray type="Float64" Name="rho">
          9.13426225e-01 9.14800809e-01 9.16203533e-01 9.17628995e-01 
        </DataArray>
        <DataArray type="Float64" Name="rhou">
          6.61363214e-04 6.22587662e-04 5.94722886e-04 5.84265069e-04 
        </DataArray>
        <DataArray type="Float64" Name="rhov">
          -1.19225887e-05 -1.13708691e-05 -1.39204778e-05 -1.08292864e-05 
        </DataArray>
        <DataArray type="Float64" Name="E">
          2.07789463e+05 2.08119110e+05 2.08455265e+05 2.08796671e+05 
        </DataArray>
      </PointData>
    </Piece>
    <Piece NumberOfPoints="4" NumberOfCells="3">
      <Points>
        <DataArray type="Float64" NumberOfComponents="3" format="ascii">
          5.02374947e-01 -5.26902266e-02 0.00000000e+00 
5.12780428e-01 -5.20105064e-02 0.00000000e+00 
5.23184419e-01 -5.13078682e-02 0.00000000e+00 
5.33586800e-01 -5.05827516e-02 0.00000000e+00 

        </DataArray>
      </Points>
      <Cells>
        <DataArray type="Int32" Name="connectivity" format="ascii">
0 1
1 2
2 3

        </DataArray>
        <DataArray type="Int32" Name="offsets" format="ascii">
2 4 6 
        </DataArray>
        <DataArray type="UInt8" Name="types" format="ascii">
3 3 3 
        </DataArray>
      </Cells>
      <PointData>
        <DataArray type="Float64" Name="rho">
          9.09505324e-01 9.10774756e-01 9.12083720e-01 9.13426128e-01 
        </DataArray>
        <DataArray type="Float64" Name="rhou">
          7.38791277e-04 7.03842149e-04 6.77552926e-04 6.58472928e-04 
        </DataArray>
        <DataArray type="Float64" Name="rhov">
          -2.27836710e-05 -2.88659029e-05 -2.69219314e-05 -1.23292662e-05 
        </DataArray>
        <DataArray type="Float64" Name="E">
          2.06847669e+05 2.07152857e+05 2.07467256e+05 2.07789441e+05 
        </DataArray>
      </PointData>
    </Piece>
    <Piece NumberOfPoints="4" NumberOfCells="3">
      <Points>
        <DataArray type="Float64" NumberOfComponents="3" format="ascii">
          4.71149325e-01 -5.45825884e-02 0.00000000e+00 
4.81559396e-01 -5.39771840e-02 0.00000000e+00 
4.91967946e-01 -5.33461571e-02 0.00000000e+00 
5.02374947e-01 -5.26902266e-02 0.00000000e+00 

        </DataArray>
      </Points>
      <Cells>
        <DataArray type="Int32" Name="connectivity" format="ascii">
0 1
1 2
2 3

        </DataArray>
        <DataArray type="Int32" Name="offsets" format="ascii">
2 4 6 
        </DataArray>
        <DataArray type="UInt8" Name="types" format="ascii">
3 3 3 
        </DataArray>
      </Cells>
      <PointData>
        <DataArray type="Float64" Name="rho">
          9.05996416e-01 9.07112391e-01 9.08282425e-01 9.09505413e-01 
        </DataArray>
        <DataArray type="Float64" Name="rhou">
          8.41153737e-04 8.20054158e-04 7.74523541e-04 7.18745602e-04 
        </DataArray>
        <DataArray type="Float64" Name="rhov">
          -4.84298264e-05 -4.18349504e-05 -2.40479722e-05 -1.98726708e-05 
        </DataArray>
        <DataArray type="Float64" Name="E">
          2.06002054e+05 2.06271352e+05 2.06553334e+05 2.06847690e+05 
        </DataArray>
      </PointData>
    </Piece>
    <Piece NumberOfPoints="4" NumberOfCells="3">
      <Points>
        <DataArray type="Float64" NumberOfComponents="3" format="ascii">
          4.39910263e-01 -5.62384278e-02 0.00000000e+00 
4.50324744e-01 -5.57143167e-02 0.00000000e+00 
4.60737765e-01 -5.51619194e-02 0.00000000e+00 
4.71149325e-01 -5.45825884e-02 0.00000000e+00 

        </DataArray>
      </Points>
      <Cells>
        <DataArray type="Int32" Name="connectivity" format="ascii">
0 1
1 2
2 3

        </DataArray>
        <DataArray type="Int32" Name="offsets" format="ascii">
2 4 6 
        </DataArray>
        <DataArray type="UInt8" Name="types" format="ascii">
3 3 3 
        </DataArray>
      </Cells>
      <PointData>
        <DataArray type="Float64" Name="rho">
          9.03058777e-01 9.03959948e-01 9.04942744e-01 9.05996492e-01 
        </DataArray>
        <DataArray type="Float64" Name="rhou">
          1.00551981e-03 9.29394231e-04 8.72263287e-04 8.46607263e-04 
        </DataArray>
        <DataArray type="Float64" Name="rhov">
          -4.11773639e-05 -3.19612488e-05 -3.85051644e-05 -4.57946247e-05 
        </DataArray>
        <DataArray type="Float64" Name="E">
          2.05290459e+05 2.05509327e+05 2.05747370e+05 2.06002071e+05 
        </DataArray>
      </PointData>
    </Piece>
    <Piece NumberOfPoints="4" NumberOfCells="3">
      <Points>
        <DataArray type="Float64" NumberOfComponents="3" format="ascii">
          4.08658355e-01 -5.76302819e-02 0.00000000e+00 
4.19077009e-01 -5.71971126e-02 0.00000000e+00 
4.29494321e-01 -5.67329265e-02 0.00000000e+00 
4.39910263e-01 -5.62384278e-02 0.00000000e+00 

        </DataArray>
      </Points>
      <Cells>
        <DataArray type="Int32" Name="connectivity" format="ascii">
0 1
1 2
2 3

        </DataArray>
        <DataArray type="Int32" Name="offsets" format="ascii">
2 4 6 
        </DataArray>
        <DataArray type="UInt8" Name="types" format="ascii">
3 3 3 
        </DataArray>
      </Cells>
      <PointData>
        <DataArray type="Float64" Name="rho">
          9.00904517e-01 9.01522750e-01 9.02244720e-01 9.03058543e-01 
        </DataArray>
        <DataArray type="Float64" Name="rhou">
          1.15690831e-03 1.08836537e-03 1.03811965e-03 1.00008744e-03 
        </DataArray>
        <DataArray type="Float64" Name="rhov">
          -4.90295219e-05 -6.18191389e-05 -6.11841878e-05 -4.09677580e-05 
        </DataArray>
        <DataArray type="Float64" Name="E">
          2.04763349e+05 2.04915487e+05 2.05092105e+05 2.05290405e+05 
        </DataArray>
      </PointData>
    </Piece>
    <Piece NumberOfPoints="4" NumberOfCells="3">
      <Points>
        <DataArray type="Float64" NumberOfComponents="3" format="ascii">
          3.77394795e-01 -5.87291755e-02 0.00000000e+00 
3.87817174e-01 -5.83979115e-02 0.00000000e+00 
3.98238391e-01 -5.80311492e-02 0.00000000e+00 
4.08658355e-01 -5.76302819e-02 0.00000000e+00 

        </DataArray>
      </Points>
      <Cells>
        <DataArray type="Int32" Name="connectivity" format="ascii">
0 1
1 2
2 3

        </DataArray>
        <DataArray type="Int32" Name="offsets" format="ascii">
2 4 6 
        </DataArray>
        <DataArray type="UInt8" Name="types" format="ascii">
3 3 3 
        </DataArray>
      </Cells>
      <PointData>
        <DataArray type="Float64" Name="rho">
          8.99801072e-01 9.00034460e-01 9.00403398e-01 9.00904731e-01 
        </DataArray>
        <DataArray type="Float64" Name="rhou">
          1.40336543e-03 1.33060564e-03 1.22974643e-03 1.12540296e-03 
        </DataArray>
        <DataArray type="Float64" Name="rhov">
          -9.15391550e-05 -6.38832461e-05 -3.62838864e-05 -4.40538830e-05 
        </DataArray>
        <DataArray type="Float64" Name="E">
          2.04484336e+05 2.04545540e+05 2.04638844e+05 2.04763398e+05 
        </DataArray>
      </PointData>
    </Piece>
    <Piece NumberOfPoints="4" NumberOfCells="3">
      <Points>
        <DataArray type="Float64" NumberOfComponents="3" format="ascii">
          3.46121490e-01 -5.95011823e-02 0.00000000e+00 
3.56546819e-01 -5.92821389e-02 0.00000000e+00 
3.66971314e-01 -5.90242445e-02 0.00000000e+00 
3.77394795e-01 -5.87291755e-02 0.00000000e+00 

        </DataArray>
      </Points>
      <Cells>
        <DataArray type="Int32" Name="connectivity" format="ascii">
0 1
1 2
2 3

        </DataArray>
        <DataArray type="Int32" Name="offsets" format="ascii">
2 4 6 
        </DataArray>
        <DataArray type="UInt8" Name="types" format="ascii">
3 3 3 
        </DataArray>
      </Cells>
      <PointData>
        <DataArray type="Float64" Name="rho">
          9.00043821e-01 8.99788153e-01 8.99713067e-01 8.99801165e-01 
        </DataArray>
        <DataArray type="Float64" Name="rhou">
          1.74504924e-03 1.60070874e-03 1.47211253e-03 1.40683775e-03 
        </DataArray>
        <DataArray type="Float64" Name="rhov">
          -1.24816810e-04 -8.31459610e-05 -7.63447577e-05 -8.68473004e-05 
        </DataArray>
        <DataArray type="Float64" Name="E">
          2.04524036e+05 2.04469425e+05 2.04457573e+05 2.04484356e+05 
        </DataArray>
      </PointData>
    </Piece>
    <Piece NumberOfPoints="4" NumberOfCells="3">
      <Points>
        <DataArray type="Float64" NumberOfComponents="3" format="ascii">
          3.14841360e-01 -5.99102043e-02 0.00000000e+00 
3.25268596e-01 -5.98174632e-02 0.00000000e+00 
3.35695356e-01 -5.96801341e-02 0.00000000e+00 
3.46121490e-01 -5.95011823e-02 0.00000000e+00 

        </DataArray>
      </Points>
      <Cells>
        <DataArray type="Int32" Name="connectivity" format="ascii">
0 1
1 2
2 3

        </DataArray>
        <DataArray type="Int32" Name="offsets" format="ascii">
2 4 6 
        </DataArray>
        <DataArray type="UInt8" Name="types" format="ascii">
3 3 3 
        </DataArray>
      </Cells>
      <PointData>
        <DataArray type="Float64" Name="rho">
          9.02040976e-01 9.01140394e-01 9.00483957e-01 9.00043528e-01 
        </DataArray>
        <DataArray type="Float64" Name="rhou">
          2.19573838e-03 1.95032029e-03 1.78510711e-03 1.70915440e-03 
        </DataArray>
        <DataArray type="Float64" Name="rhov">
          -5.92546545e-05 -3.63943138e-05 -6.96143842e-05 -1.24058249e-04 
        </DataArray>
        <DataArray type="Float64" Name="E">
          2.04979656e+05 2.04772132e+05 2.04622455e+05 2.04523969e+05 
        </DataArray>
      </PointData>
    </Piece>
    <Piece NumberOfPoints="4" NumberOfCells="3">
      <Points>
        <DataArray type="Float64" NumberOfComponents="3" format="ascii">
          2.83558637e-01 -5.98983802e-02 0.00000000e+00 
2.93986142e-01 -5.99516556e-02 0.00000000e+00 
3.04413795e-01 -5.99554181e-02 0.00000000e+00 
3.14841360e-01 -5.99102043e-02 0.00000000e+00 

        </DataArray>
      </Points>
      <Cells>
        <DataArray type="Int32" Name="connectivity" format="ascii">
0 1
1 2
2 3

        </DataArray>
        <DataArray type="Int32" Name="offsets" format="ascii">
2 4 6 
        </DataArray>
        <DataArray type="UInt8" Name="types" format="ascii">
3 3 3 
        </DataArray>
      </Cells>
      <PointData>
        <DataArray type="Float64" Name="rho">
          9.06308633e-01 9.04615310e-01 9.03198293e-01 9.02040259e-01 
        </DataArray>
        <DataArray type="Float64" Name="rhou">
          2.67500672e-03 2.50935387e-03 2.37138477e-03 2.18656162e-03 
        </DataArray>
        <DataArray type="Float64" Name="rhov">
          -1.15127764e-04 -1.83122007e-04 -1.47668115e-04 -5.26142754e-05 
        </DataArray>
        <DataArray type="Float64" Name="E">
          2.05974604e+05 2.05578471e+05 2.05248144e+05 2.04979492e+05 
        </DataArray>
      </PointData>
    </Piece>
    <Piece NumberOfPoints="4" NumberOfCells="3">
      <Points>
        <DataArray type="Float64" NumberOfComponents="3" format="ascii">
          2.52279758e-01 -5.94130717e-02 0.00000000e+00 
2.62705088e-01 -5.96327744e-02 0.00000000e+00 
2.73131490e-01 -5.97934239e-02 0.00000000e+00 
2.83558637e-01 -5.98983802e-02 0.00000000e+00 

        </DataArray>
      </Points>
      <Cells>
        <DataArray type="Int32" Name="connectivity" format="ascii">
0 1
1 2
2 3

        </DataArray>
        <DataArray type="Int32" Name="offsets" format="ascii">
2 4 6 
        </DataArray>
        <DataArray type="UInt8" Name="types" format="ascii">
3 3 3 
        </DataArray>
      </Cells>
      <PointData>
        <DataArray type="Float64" Name="rho">
          9.13464751e-01 9.10710508e-01 9.08328095e-01 9.06309560e-01 
        </DataArray>
        <DataArray type="Float64" Name="rhou">
          3.65361676e-03 3.34648497e-03 3.00885397e-03 2.66096136e-03 
        </DataArray>
        <DataArray type="Float64" Name="rhov">
          -2.63261872e-04 -1.70713021e-04 -8.33603003e-05 -9.58108828e-05 
        </DataArray>
        <DataArray type="Float64" Name="E">
          2.07656246e+05 2.07007884e+05 2.06448138e+05 2.05974819e+05 
        </DataArray>
      </PointData>
    </Piece>
    <Piece NumberOfPoints="4" NumberOfCells="3">
      <Points>
        <DataArray type="Float64" NumberOfComponents="3" format="ascii">
          2.21014455e-01 -5.83752058e-02 0.00000000e+00 
2.31433928e-01 -5.87876961e-02 0.00000000e+00 
2.41855890e-01 -5.91322705e-02 0.00000000e+00 
2.52279758e-01 -5.94130717e-02 0.00000000e+00 

        </DataArray>
      </Points>
      <Cells>
        <DataArray type="Int32" Name="connectivity" format="ascii">
0 1
1 2
2 3

        </DataArray>
        <DataArray type="Int32" Name="offsets" format="ascii">
2 4 6 
        </DataArray>
        <DataArray type="UInt8" Name="types" format="ascii">
3 3 3 
        </DataArray>
      </Cells>
      <PointData>
        <DataArray type="Float64" Name="rho">
          9.24286811e-01 9.20205118e-01 9.16613429e-01 9.13464934e-01 
        </DataArray>
        <DataArray type="Float64" Name="rhou">
          5.01549858e-03 4.42646537e-03 3.97728582e-03 3.68797763e-03 
        </DataArray>
        <DataArray type="Float64" Name="rhov">
          -3.69614923e-04 -2.64801597e-04 -2.32474434e-04 -2.46797646e-04 
        </DataArray>
        <DataArray type="Float64" Name="E">
          2.10211320e+05 2.09246608e+05 2.08398657e+05 2.07656284e+05 
        </DataArray>
      </PointData>
    </Piece>
    <Piece NumberOfPoints="4" NumberOfCells="3">
      <Points>
        <DataArray type="Float64" NumberOfComponents="3" format="ascii">
          1.89777538e-01 -5.66898957e-02 0.00000000e+00 
2.00185493e-01 -5.73302582e-02 0.00000000e+00 
2.10598081e-01 -5.78906052e-02 0.00000000e+00 
2.21014455e-01 -5.83752058e-02 0.00000000e+00 

        </DataArray>
      </Points>
      <Cells>
        <DataArray type="Int32" Name="connectivity" format="ascii">
0 1
1 2
2 3

        </DataArray>
        <DataArray type="Int32" Name="offsets" format="ascii">
2 4 6 
        </DataArray>
        <DataArray type="UInt8" Name="types" format="ascii">
3 3 3 
        </DataArray>
      </Cells>
      <PointData>
        <DataArray type="Float64" Name="rho">
          9.39854062e-01 9.34060981e-01 9.28891665e-01 9.24286046e-01 
        </DataArray>
        <DataArray type="Float64" Name="rhou">
          6.94972615e-03 6.14407824e-03 5.55485004e-03 5.07826888e-03 
        </DataArray>
        <DataArray type="Float64" Name="rhov">
          -6.54137789e-04 -5.82414831e-04 -4.81683208e-04 -3.56875906e-04 
        </DataArray>
        <DataArray type="Float64" Name="E">
          2.13898796e+05 2.12525312e+05 2.11300886e+05 2.10211144e+05 
        </DataArray>
      </PointData>
    </Piece>
    <Piece NumberOfPoints="4" NumberOfCells="3">
      <Points>
        <DataArray type="Float64" NumberOfComponents="3" format="ascii">
          1.58592433e-01 -5.42296544e-02 0.00000000e+00 
1.68979734e-01 -5.51457107e-02 0.00000000e+00 
1.79375216e-01 -5.59638515e-02 0.00000000e+00 
1.89777538e-01 -5.66898957e-02 0.00000000e+00 

        </DataArray>
      </Points>
      <Cells>
        <DataArray type="Int32" Name="connectivity" format="ascii">
0 1
1 2
2 3

        </DataArray>
        <DataArray type="Int32" Name="offsets" format="ascii">
2 4 6 
        </DataArray>
        <DataArray type="UInt8" Name="types" format="ascii">
3 3 3 
        </DataArray>
      </Cells>
      <PointData>
        <DataArray type="Float64" Name="rho">
          9.61722830e-01 9.53625737e-01 9.46352939e-01 9.39854482e-01 
        </DataArray>
        <DataArray type="Float64" Name="rhou">
          1.00248680e-02 8.94483567e-03 7.98986140e-03 7.02115394e-03 
        </DataArray>
        <DataArray type="Float64" Name="rhov">
          -1.41434750e-03 -1.22014637e-03 -8.85817240e-04 -6.13427176e-04 
        </DataArray>
        <DataArray type="Float64" Name="E">
          2.19092954e+05 2.17168059e+05 2.15440853e+05 2.13898897e+05 
        </DataArray>
      </PointData>
    </Piece>
    <Piece NumberOfPoints="4" NumberOfCells="3">
      <Points>
        <DataArray type="Float64" NumberOfComponents="3" format="ascii">
          1.27497971e-01 -5.08146733e-02 0.00000000e+00 
1.37849152e-01 -5.20747155e-02 0.00000000e+00 
1.48214847e-01 -5.32093942e-02 0.00000000e+00 
1.58592433e-01 -5.42296544e-02 0.00000000e+00 

        </DataArray>
      </Points>
      <Cells>
        <DataArray type="Int32" Name="connectivity" format="ascii">
0 1
1 2
2 3

        </DataArray>
        <DataArray type="Int32" Name="offsets" format="ascii">
2 4 6 
        </DataArray>
        <DataArray type="UInt8" Name="types" format="ascii">
3 3 3 
        </DataArray>
      </Cells>
      <PointData>
        <DataArray type="Float64" Name="rho">
          9.92309885e-01 9.80934265e-01 9.70759287e-01 9.61726895e-01 
        </DataArray>
        <DataArray type="Float64" Name="rhou">
          1.45756041e-02 1.33931504e-02 1.15803756e-02 1.00533676e-02 
        </DataArray>
        <DataArray type="Float64" Name="rhov">
          -2.29996748e-03 -2.04904494e-03 -1.42891463e-03 -1.34214175e-03 
        </DataArray>
        <DataArray type="Float64" Name="E">
          2.26376936e+05 2.23665487e+05 2.21242955e+05 2.19093888e+05 
        </DataArray>
      </PointData>
    </Piece>
    <Piece NumberOfPoints="4" NumberOfCells="3">
      <Points>
        <DataArray type="Float64" NumberOfComponents="3" format="ascii">
          9.65642184e-02 -4.61716652e-02 0.00000000e+00 
1.06852271e-01 -4.78802323e-02 0.00000000e+00 
1.17164567e-01 -4.94215861e-02 0.00000000e+00 
1.27497971e-01 -5.08146733e-02 0.00000000e+00 

        </DataArray>
      </Points>
      <Cells>
        <DataArray type="Int32" Name="connectivity" format="ascii">
0 1
1 2
2 3

        </DataArray>
        <DataArray type="Int32" Name="offsets" format="ascii">
2 4 6 
        </DataArray>
        <DataArray type="UInt8" Name="types" format="ascii">
3 3 3 
        </DataArray>
      </Cells>
      <PointData>
        <DataArray type="Float64" Name="rho">
          1.03572099e+00 1.01941479e+00 1.00497343e+00 9.92318276e-01 
        </DataArray>
        <DataArray type="Float64" Name="rhou">
          2.47798442e-02 1.81722630e-02 1.72596629e-02 1.29228087e-02 
        </DataArray>
        <DataArray type="Float64" Name="rhov">
          -9.27361940e-04 -7.41562634e-04 -1.57272495e-03 -1.61658287e-03 
        </DataArray>
        <DataArray type="Float64" Name="E">
          2.36749643e+05 2.32848814e+05 2.29399198e+05 2.26378961e+05 
        </DataArray>
      </PointData>
    </Piece>
  </UnstructuredGrid>
</VTKFile>
