<?xml version="1.0"?>
<VTKFile type="UnstructuredGrid" version="0.1" byte_order="LittleEndian">
  <UnstructuredGrid>
    <Piece NumberOfPoints="4" NumberOfCells="3">
      <Points>
        <DataArray type="Float64" NumberOfComponents="3" format="ascii">
          9.65642184e-02 -4.61716652e-02 0.00000000e+00 
9.26280916e-02 -4.54656407e-02 0.00000000e+00 
8.86965096e-02 -4.47326750e-02 0.00000000e+00 
8.47706869e-02 -4.39694971e-02 0.00000000e+00 

        </DataArray>
      </Points>
      <Cells>
        <DataArray type="Int32" Name="connectivity" format="ascii">
0 1
1 2
2 3

        </DataArray>
        <DataArray type="Int32" Name="offsets" format="ascii">
2 4 6 
        </DataArray>
        <DataArray type="UInt8" Name="types" format="ascii">
3 3 3 
        </DataArray>
      </Cells>
      <PointData>
        <DataArray type="Float64" Name="rho">
          1.03126398e+00 1.03818093e+00 1.04541269e+00 1.05309167e+00 
        </DataArray>
        <DataArray type="Float64" Name="rhou">
          2.82651690e-02 2.17815295e-02 2.44299355e-02 2.46100559e-02 
        </DataArray>
        <DataArray type="Float64" Name="rhov">
          -2.22805710e-03 -1.01796543e-03 -6.11544233e-04 -9.28446620e-04 
        </DataArray>
        <DataArray type="Float64" Name="E">
          2.35431124e+05 2.37084918e+05 2.38815612e+05 2.40653665e+05 
        </DataArray>
      </PointData>
    </Piece>
    <Piece NumberOfPoints="4" NumberOfCells="3">
      <Points>
        <DataArray type="Float64" NumberOfComponents="3" format="ascii">
          8.47706869e-02 -4.39694971e-02 0.00000000e+00 
8.08513016e-02 -4.31745499e-02 0.00000000e+00 
7.69388378e-02 -4.23462167e-02 0.00000000e+00 
7.30340332e-02 -4.14824970e-02 0.00000000e+00 

        </DataArray>
      </Points>
      <Cells>
        <DataArray type="Int32" Name="connectivity" format="ascii">
0 1
1 2
2 3

        </DataArray>
        <DataArray type="Int32" Name="offsets" format="ascii">
2 4 6 
        </DataArray>
        <DataArray type="UInt8" Name="types" format="ascii">
3 3 3 
        </DataArray>
      </Cells>
      <PointData>
        <DataArray type="Float64" Name="rho">
          1.05309047e+00 1.06119784e+00 1.06976914e+00 1.07887409e+00 
        </DataArray>
        <DataArray type="Float64" Name="rhou">
          2.47011183e-02 2.38799368e-02 2.24747169e-02 2.09120711e-02 
        </DataArray>
        <DataArray type="Float64" Name="rhov">
          -7.33931655e-04 -5.29601635e-04 3.71631730e-04 1.55972612e-03 
        </DataArray>
        <DataArray type="Float64" Name="E">
          2.40653398e+05 2.42595947e+05 2.44650892e+05 2.46834974e+05 
        </DataArray>
      </PointData>
    </Piece>
    <Piece NumberOfPoints="4" NumberOfCells="3">
      <Points>
        <DataArray type="Float64" NumberOfComponents="3" format="ascii">
          7.30340332e-02 -4.14824970e-02 0.00000000e+00 
6.91377968e-02 -4.05809283e-02 0.00000000e+00 
6.52511865e-02 -3.96387354e-02 0.00000000e+00 
6.13753870e-02 -3.86530459e-02 0.00000000e+00 

        </DataArray>
      </Points>
      <Cells>
        <DataArray type="Int32" Name="connectivity" format="ascii">
0 1
1 2
2 3

        </DataArray>
        <DataArray type="Int32" Name="offsets" format="ascii">
2 4 6 
        </DataArray>
        <DataArray type="UInt8" Name="types" format="ascii">
3 3 3 
        </DataArray>
      </Cells>
      <PointData>
        <DataArray type="Float64" Name="rho">
          1.07887469e+00 1.08859703e+00 1.09896837e+00 1.11004824e+00 
        </DataArray>
        <DataArray type="Float64" Name="rhou">
          2.10300583e-02 1.86853769e-02 1.45926683e-02 9.10162856e-03 
        </DataArray>
        <DataArray type="Float64" Name="rhov">
          1.39441896e-03 2.13179230e-03 4.20334981e-03 7.38085498e-03 
        </DataArray>
        <DataArray type="Float64" Name="E">
          2.46835136e+05 2.49169504e+05 2.51661340e+05 2.54325637e+05 
        </DataArray>
      </PointData>
    </Piece>
    <Piece NumberOfPoints="4" NumberOfCells="3">
      <Points>
        <DataArray type="Float64" NumberOfComponents="3" format="ascii">
          6.13753870e-02 -3.86530459e-02 0.00000000e+00 
5.75117208e-02 -3.76208089e-02 0.00000000e+00 
5.36618084e-02 -3.65384258e-02 0.00000000e+00 
4.98276278e-02 -3.54015976e-02 0.00000000e+00 

        </DataArray>
      </Points>
      <Cells>
        <DataArray type="Int32" Name="connectivity" format="ascii">
0 1
1 2
2 3

        </DataArray>
        <DataArray type="Int32" Name="offsets" format="ascii">
2 4 6 
        </DataArray>
        <DataArray type="UInt8" Name="types" format="ascii">
3 3 3 
        </DataArray>
      </Cells>
      <PointData>
        <DataArray type="Float64" Name="rho">
          1.11004851e+00 1.12191982e+00 1.13466725e+00 1.14842218e+00 
        </DataArray>
        <DataArray type="Float64" Name="rhou">
          9.04562964e-03 1.99769048e-03 -7.20492138e-03 -1.87093709e-02 
        </DataArray>
        <DataArray type="Float64" Name="rhov">
          7.15314967e-03 1.18380944e-02 1.98906791e-02 3.13295391e-02 
        </DataArray>
        <DataArray type="Float64" Name="E">
          2.54325702e+05 2.57184242e+05 2.60256392e+05 2.63574651e+05 
        </DataArray>
      </PointData>
    </Piece>
    <Piece NumberOfPoints="4" NumberOfCells="3">
      <Points>
        <DataArray type="Float64" NumberOfComponents="3" format="ascii">
          4.98276278e-02 -3.54015976e-02 0.00000000e+00 
4.60115410e-02 -3.42054628e-02 0.00000000e+00 
4.22164090e-02 -3.29444520e-02 0.00000000e+00 
3.84457745e-02 -3.16120051e-02 0.00000000e+00 

        </DataArray>
      </Points>
      <Cells>
        <DataArray type="Int32" Name="connectivity" format="ascii">
0 1
1 2
2 3

        </DataArray>
        <DataArray type="Int32" Name="offsets" format="ascii">
2 4 6 
        </DataArray>
        <DataArray type="UInt8" Name="types" format="ascii">
3 3 3 
        </DataArray>
      </Cells>
      <PointData>
        <DataArray type="Float64" Name="rho">
          1.14842210e+00 1.16328455e+00 1.17936649e+00 1.19685937e+00 
        </DataArray>
        <DataArray type="Float64" Name="rhou">
          -1.91628124e-02 -3.32885740e-02 -5.22621758e-02 -7.49594876e-02 
        </DataArray>
        <DataArray type="Float64" Name="rhov">
          3.11151008e-02 4.77492387e-02 7.53442646e-02 1.15724079e-01 
        </DataArray>
        <DataArray type="Float64" Name="E">
          2.63574599e+05 2.67166541e+05 2.71058010e+05 2.75297243e+05 
        </DataArray>
      </PointData>
    </Piece>
    <Piece NumberOfPoints="4" NumberOfCells="3">
      <Points>
        <DataArray type="Float64" NumberOfComponents="3" format="ascii">
          3.84457745e-02 -3.16120051e-02 0.00000000e+00 
3.47041376e-02 -3.02002355e-02 0.00000000e+00 
3.09973080e-02 -2.86995135e-02 0.00000000e+00 
2.73328498e-02 -2.70981900e-02 0.00000000e+00 

        </DataArray>
      </Points>
      <Cells>
        <DataArray type="Int32" Name="connectivity" format="ascii">
0 1
1 2
2 3

        </DataArray>
        <DataArray type="Int32" Name="offsets" format="ascii">
2 4 6 
        </DataArray>
        <DataArray type="UInt8" Name="types" format="ascii">
3 3 3 
        </DataArray>
      </Cells>
      <PointData>
        <DataArray type="Float64" Name="rho">
          1.19685960e+00 1.21595292e+00 1.23683987e+00 1.25989185e+00 
        </DataArray>
        <DataArray type="Float64" Name="rhou">
          -7.59094866e-02 -1.00053277e-01 -1.28686749e-01 -1.54096744e-01 
        </DataArray>
        <DataArray type="Float64" Name="rhov">
          1.15643709e-01 1.71094497e-01 2.56872913e-01 3.76974139e-01 
        </DataArray>
        <DataArray type="Float64" Name="E">
          2.75297163e+05 2.79936030e+05 2.85019232e+05 2.90640854e+05 
        </DataArray>
      </PointData>
    </Piece>
    <Piece NumberOfPoints="4" NumberOfCells="3">
      <Points>
        <DataArray type="Float64" NumberOfComponents="3" format="ascii">
          2.73328498e-02 -2.70981900e-02 0.00000000e+00 
2.37206947e-02 -2.53822580e-02 0.00000000e+00 
2.01744195e-02 -2.35341713e-02 0.00000000e+00 
1.67132635e-02 -2.15314496e-02 0.00000000e+00 

        </DataArray>
      </Points>
      <Cells>
        <DataArray type="Int32" Name="connectivity" format="ascii">
0 1
1 2
2 3

        </DataArray>
        <DataArray type="Int32" Name="offsets" format="ascii">
2 4 6 
        </DataArray>
        <DataArray type="UInt8" Name="types" format="ascii">
3 3 3 
        </DataArray>
      </Cells>
      <PointData>
        <DataArray type="Float64" Name="rho">
          1.25989671e+00 1.28545357e+00 1.31397074e+00 1.34679430e+00 
        </DataArray>
        <DataArray type="Float64" Name="rhou">
          -1.54477257e-01 -1.68593129e-01 -1.53011139e-01 -5.72245858e-02 
        </DataArray>
        <DataArray type="Float64" Name="rhov">
          3.77648615e-01 5.29282106e-01 7.39698955e-01 9.57791166e-01 
        </DataArray>
        <DataArray type="Float64" Name="E">
          2.90641752e+05 2.96896352e+05 3.03888122e+05 3.11945688e+05 
        </DataArray>
      </PointData>
    </Piece>
    <Piece NumberOfPoints="4" NumberOfCells="3">
      <Points>
        <DataArray type="Float64" NumberOfComponents="3" format="ascii">
          1.67132635e-02 -2.15314496e-02 0.00000000e+00 
1.33649679e-02 -1.93456318e-02 0.00000000e+00 
1.01706637e-02 -1.69409402e-02 0.00000000e+00 
7.19343964e-03 -1.42731192e-02 0.00000000e+00 

        </DataArray>
      </Points>
      <Cells>
        <DataArray type="Int32" Name="connectivity" format="ascii">
0 1
1 2
2 3

        </DataArray>
        <DataArray type="Int32" Name="offsets" format="ascii">
2 4 6 
        </DataArray>
        <DataArray type="UInt8" Name="types" format="ascii">
3 3 3 
        </DataArray>
      </Cells>
      <PointData>
        <DataArray type="Float64" Name="rho">
          1.34668856e+00 1.38655343e+00 1.43379068e+00 1.49889643e+00 
        </DataArray>
        <DataArray type="Float64" Name="rhou">
          -3.46766269e-02 1.13452995e-01 4.54244709e-01 8.74088923e-01 
        </DataArray>
        <DataArray type="Float64" Name="rhov">
          9.19578504e-01 1.12237213e+00 1.06761149e+00 5.18162392e-01 
        </DataArray>
        <DataArray type="Float64" Name="E">
          3.11921520e+05 3.21710616e+05 3.33302872e+05 3.49164983e+05 
        </DataArray>
      </PointData>
    </Piece>
    <Piece NumberOfPoints="4" NumberOfCells="3">
      <Points>
        <DataArray type="Float64" NumberOfComponents="3" format="ascii">
          7.19343964e-03 -1.42731192e-02 0.00000000e+00 
4.53082798e-03 -1.12927537e-02 0.00000000e+00 
2.33371323e-03 -7.95678515e-03 0.00000000e+00 
8.10639584e-04 -4.26717056e-03 0.00000000e+00 

        </DataArray>
      </Points>
      <Cells>
        <DataArray type="Int32" Name="connectivity" format="ascii">
0 1
1 2
2 3

        </DataArray>
        <DataArray type="Int32" Name="offsets" format="ascii">
2 4 6 
        </DataArray>
        <DataArray type="UInt8" Name="types" format="ascii">
3 3 3 
        </DataArray>
      </Cells>
      <PointData>
        <DataArray type="Float64" Name="rho">
          1.49941558e+00 1.57385535e+00 1.66296554e+00 1.73170217e+00 
        </DataArray>
        <DataArray type="Float64" Name="rhou">
          7.99141521e-01 9.28981425e-01 2.58011433e-01 -1.27498867e+00 
        </DataArray>
        <DataArray type="Float64" Name="rhov">
          6.16827489e-01 -5.11015294e-01 -1.72818440e+00 -1.81621995e+00 
        </DataArray>
        <DataArray type="Float64" Name="E">
          3.49292190e+05 3.67464314e+05 3.89095615e+05 4.05804107e+05 
        </DataArray>
      </PointData>
    </Piece>
    <Piece NumberOfPoints="4" NumberOfCells="3">
      <Points>
        <DataArray type="Float64" NumberOfComponents="3" format="ascii">
          8.10639584e-04 -4.26717056e-03 0.00000000e+00 
1.91366620e-04 -3.27450951e-04 0.00000000e+00 
6.40850572e-04 3.63462302e-03 0.00000000e+00 
2.03182548e-03 7.37539819e-03 0.00000000e+00 

        </DataArray>
      </Points>
      <Cells>
        <DataArray type="Int32" Name="connectivity" format="ascii">
0 1
1 2
2 3

        </DataArray>
        <DataArray type="Int32" Name="offsets" format="ascii">
2 4 6 
        </DataArray>
        <DataArray type="UInt8" Name="types" format="ascii">
3 3 3 
        </DataArray>
      </Cells>
      <PointData>
        <DataArray type="Float64" Name="rho">
          1.73012649e+00 1.75510070e+00 1.70470686e+00 1.61226664e+00 
        </DataArray>
        <DataArray type="Float64" Name="rhou">
          -1.14944138e+00 -1.87809070e+00 -8.34605523e-01 7.51561701e-01 
        </DataArray>
        <DataArray type="Float64" Name="rhov">
          -1.97430199e+00 3.64171259e-01 1.88169364e+00 1.51417936e+00 
        </DataArray>
        <DataArray type="Float64" Name="E">
          4.05422586e+05 4.11402001e+05 3.99083225e+05 3.76506864e+05 
        </DataArray>
      </PointData>
    </Piece>
    <Piece NumberOfPoints="4" NumberOfCells="3">
      <Points>
        <DataArray type="Float64" NumberOfComponents="3" format="ascii">
          2.03182548e-03 7.37539819e-03 0.00000000e+00 
4.13410179e-03 1.07714310e-02 0.00000000e+00 
6.73249783e-03 1.38076087e-02 0.00000000e+00 
9.66598373e-03 1.65232457e-02 0.00000000e+00 

        </DataArray>
      </Points>
      <Cells>
        <DataArray type="Int32" Name="connectivity" format="ascii">
0 1
1 2
2 3

        </DataArray>
        <DataArray type="Int32" Name="offsets" format="ascii">
2 4 6 
        </DataArray>
        <DataArray type="UInt8" Name="types" format="ascii">
3 3 3 
        </DataArray>
      </Cells>
      <PointData>
        <DataArray type="Float64" Name="rho">
          1.61262950e+00 1.50551358e+00 1.41627958e+00 1.34932657e+00 
        </DataArray>
        <DataArray type="Float64" Name="rhou">
          7.23900524e-01 1.15422112e+00 8.39105805e-01 3.74690730e-01 
        </DataArray>
        <DataArray type="Float64" Name="rhov">
          1.74885067e+00 6.21508842e-02 -1.07439925e+00 -1.39875621e+00 
        </DataArray>
        <DataArray type="Float64" Name="E">
          3.76598152e+05 3.50595046e+05 3.28896019e+05 3.12534062e+05 
        </DataArray>
      </PointData>
    </Piece>
    <Piece NumberOfPoints="4" NumberOfCells="3">
      <Points>
        <DataArray type="Float64" NumberOfComponents="3" format="ascii">
          9.66598373e-03 1.65232457e-02 0.00000000e+00 
1.28298048e-02 1.89677756e-02 0.00000000e+00 
1.61561389e-02 2.11867876e-02 0.00000000e+00 
1.96009967e-02 2.32173651e-02 0.00000000e+00 

        </DataArray>
      </Points>
      <Cells>
        <DataArray type="Int32" Name="connectivity" format="ascii">
0 1
1 2
2 3

        </DataArray>
        <DataArray type="Int32" Name="offsets" format="ascii">
2 4 6 
        </DataArray>
        <DataArray type="UInt8" Name="types" format="ascii">
3 3 3 
        </DataArray>
      </Cells>
      <PointData>
        <DataArray type="Float64" Name="rho">
          1.34912120e+00 1.29665410e+00 1.25768104e+00 1.22337343e+00 
        </DataArray>
        <DataArray type="Float64" Name="rhou">
          3.84273710e-01 -1.70429392e-02 -1.98365491e-01 -2.18809483e-01 
        </DataArray>
        <DataArray type="Float64" Name="rhov">
          -1.42333662e+00 -1.31859804e+00 -9.88746610e-01 -6.63641856e-01 
        </DataArray>
        <DataArray type="Float64" Name="E">
          3.12481884e+05 2.99660872e+05 2.90087724e+05 2.81686677e+05 
        </DataArray>
      </PointData>
    </Piece>
    <Piece NumberOfPoints="4" NumberOfCells="3">
      <Points>
        <DataArray type="Float64" NumberOfComponents="3" format="ascii">
          1.96009967e-02 2.32173651e-02 0.00000000e+00 
2.31348258e-02 2.50891000e-02 0.00000000e+00 
2.67372411e-02 2.68253610e-02 0.00000000e+00 
3.03938854e-02 2.84444261e-02 0.00000000e+00 

        </DataArray>
      </Points>
      <Cells>
        <DataArray type="Int32" Name="connectivity" format="ascii">
0 1
1 2
2 3

        </DataArray>
        <DataArray type="Int32" Name="offsets" format="ascii">
2 4 6 
        </DataArray>
        <DataArray type="UInt8" Name="types" format="ascii">
3 3 3 
        </DataArray>
      </Cells>
      <PointData>
        <DataArray type="Float64" Name="rho">
          1.22343713e+00 1.19431757e+00 1.16827501e+00 1.14469098e+00 
        </DataArray>
        <DataArray type="Float64" Name="rhou">
          -2.31921620e-01 -2.18394081e-01 -1.73179152e-01 -1.30962982e-01 
        </DataArray>
        <DataArray type="Float64" Name="rhov">
          -6.81865444e-01 -4.31095295e-01 -2.44727222e-01 -1.32129727e-01 
        </DataArray>
        <DataArray type="Float64" Name="E">
          2.81701583e+05 2.74590434e+05 2.68253642e+05 2.62532120e+05 
        </DataArray>
      </PointData>
    </Piece>
    <Piece NumberOfPoints="4" NumberOfCells="3">
      <Points>
        <DataArray type="Float64" NumberOfComponents="3" format="ascii">
          3.03938854e-02 2.84444261e-02 0.00000000e+00 
3.40943485e-02 2.99607720e-02 0.00000000e+00 
3.78307216e-02 3.13864015e-02 0.00000000e+00 
4.15969416e-02 3.27312648e-02 0.00000000e+00 

        </DataArray>
      </Points>
      <Cells>
        <DataArray type="Int32" Name="connectivity" format="ascii">
0 1
1 2
2 3

        </DataArray>
        <DataArray type="Int32" Name="offsets" format="ascii">
2 4 6 
        </DataArray>
        <DataArray type="UInt8" Name="types" format="ascii">
3 3 3 
        </DataArray>
      </Cells>
      <PointData>
        <DataArray type="Float64" Name="rho">
          1.14468925e+00 1.12335043e+00 1.10396857e+00 1.08630050e+00 
        </DataArray>
        <DataArray type="Float64" Name="rhou">
          -1.29173716e-01 -8.90662781e-02 -5.63072125e-02 -3.33607660e-02 
        </DataArray>
        <DataArray type="Float64" Name="rhov">
          -1.30679875e-01 -5.46131658e-02 -7.57979108e-03 1.77872242e-02 
        </DataArray>
        <DataArray type="Float64" Name="E">
          2.62531968e+05 2.57373785e+05 2.52699941e+05 2.48447170e+05 
        </DataArray>
      </PointData>
    </Piece>
    <Piece NumberOfPoints="4" NumberOfCells="3">
      <Points>
        <DataArray type="Float64" NumberOfComponents="3" format="ascii">
          4.15969416e-02 3.27312648e-02 0.00000000e+00 
4.53883260e-02 3.40034962e-02 0.00000000e+00 
4.92011942e-02 3.52098532e-02 0.00000000e+00 
5.30325845e-02 3.63560505e-02 0.00000000e+00 

        </DataArray>
      </Points>
      <Cells>
        <DataArray type="Int32" Name="connectivity" format="ascii">
0 1
1 2
2 3

        </DataArray>
        <DataArray type="Int32" Name="offsets" format="ascii">
2 4 6 
        </DataArray>
        <DataArray type="UInt8" Name="types" format="ascii">
3 3 3 
        </DataArray>
      </Cells>
      <PointData>
        <DataArray type="Float64" Name="rho">
          1.08630106e+00 1.07015772e+00 1.05535074e+00 1.04172137e+00 
        </DataArray>
        <DataArray type="Float64" Name="rhou">
          -3.22248040e-02 -1.28093289e-02 1.61432972e-03 1.09864487e-02 
        </DataArray>
        <DataArray type="Float64" Name="rhov">
          1.76918324e-02 3.13654737e-02 3.80173970e-02 3.91717405e-02 
        </DataArray>
        <DataArray type="Float64" Name="E">
          2.48447380e+05 2.44570139e+05 2.41019380e+05 2.37755155e+05 
        </DataArray>
      </PointData>
    </Piece>
    <Piece NumberOfPoints="4" NumberOfCells="3">
      <Points>
        <DataArray type="Float64" NumberOfComponents="3" format="ascii">
          5.30325845e-02 3.63560505e-02 0.00000000e+00 
5.68800643e-02 3.74470428e-02 0.00000000e+00 
6.07415959e-02 3.84872220e-02 0.00000000e+00 
6.46155030e-02 3.94803248e-02 0.00000000e+00 

        </DataArray>
      </Points>
      <Cells>
        <DataArray type="Int32" Name="connectivity" format="ascii">
0 1
1 2
2 3

        </DataArray>
        <DataArray type="Int32" Name="offsets" format="ascii">
2 4 6 
        </DataArray>
        <DataArray type="UInt8" Name="types" format="ascii">
3 3 3 
        </DataArray>
      </Cells>
      <PointData>
        <DataArray type="Float64" Name="rho">
          1.04172206e+00 1.02918212e+00 1.01759932e+00 1.00683300e+00 
        </DataArray>
        <DataArray type="Float64" Name="rhou">
          1.13018636e-02 1.82884918e-02 2.38220954e-02 2.76495681e-02 
        </DataArray>
        <DataArray type="Float64" Name="rhov">
          3.88447079e-02 3.71799221e-02 3.51252744e-02 3.18990421e-02 
        </DataArray>
        <DataArray type="Float64" Name="E">
          2.37755312e+05 2.34756211e+05 2.31988832e+05 2.29419052e+05 
        </DataArray>
      </PointData>
    </Piece>
    <Piece NumberOfPoints="4" NumberOfCells="3">
      <Points>
        <DataArray type="Float64" NumberOfComponents="3" format="ascii">
          6.46155030e-02 3.94803248e-02 0.00000000e+00 
6.85004294e-02 4.04294394e-02 0.00000000e+00 
7.23951608e-02 4.13374715e-02 0.00000000e+00 
7.62986317e-02 4.22072113e-02 0.00000000e+00 

        </DataArray>
      </Points>
      <Cells>
        <DataArray type="Int32" Name="connectivity" format="ascii">
0 1
1 2
2 3

        </DataArray>
        <DataArray type="Int32" Name="offsets" format="ascii">
2 4 6 
        </DataArray>
        <DataArray type="UInt8" Name="types" format="ascii">
3 3 3 
        </DataArray>
      </Cells>
      <PointData>
        <DataArray type="Float64" Name="rho">
          1.00683371e+00 9.96842486e-01 9.87536858e-01 9.78861325e-01 
        </DataArray>
        <DataArray type="Float64" Name="rhou">
          2.74690380e-02 2.94112812e-02 3.05080006e-02 3.06002105e-02 
        </DataArray>
        <DataArray type="Float64" Name="rhov">
          3.16006809e-02 2.76969378e-02 2.43210762e-02 2.10134312e-02 
        </DataArray>
        <DataArray type="Float64" Name="E">
          2.29419198e+05 2.27037008e+05 2.24820102e+05 2.22754570e+05 
        </DataArray>
      </PointData>
    </Piece>
    <Piece NumberOfPoints="4" NumberOfCells="3">
      <Points>
        <DataArray type="Float64" NumberOfComponents="3" format="ascii">
          7.62986317e-02 4.22072113e-02 0.00000000e+00 
8.02098960e-02 4.30411920e-02 0.00000000e+00 
8.41281936e-02 4.38414887e-02 0.00000000e+00 
8.80528912e-02 4.46097627e-02 0.00000000e+00 

        </DataArray>
      </Points>
      <Cells>
        <DataArray type="Int32" Name="connectivity" format="ascii">
0 1
1 2
2 3

        </DataArray>
        <DataArray type="Int32" Name="offsets" format="ascii">
2 4 6 
        </DataArray>
        <DataArray type="UInt8" Name="types" format="ascii">
3 3 3 
        </DataArray>
      </Cells>
      <PointData>
        <DataArray type="Float64" Name="rho">
          9.78860381e-01 9.70768703e-01 9.63166063e-01 9.56006695e-01 
        </DataArray>
        <DataArray type="Float64" Name="rhou">
          3.04529772e-02 3.04778441e-02 3.02036308e-02 2.91409461e-02 
        </DataArray>
        <DataArray type="Float64" Name="rhov">
          2.08502515e-02 1.82905498e-02 1.57817471e-02 1.31022169e-02 
        </DataArray>
        <DataArray type="Float64" Name="E">
          2.22754334e+05 2.20829287e+05 2.19021841e+05 2.17320909e+05 
        </DataArray>
      </PointData>
    </Piece>
    <Piece NumberOfPoints="4" NumberOfCells="3">
      <Points>
        <DataArray type="Float64" NumberOfComponents="3" format="ascii">
          8.80528912e-02 4.46097627e-02 0.00000000e+00 
9.19835642e-02 4.53475714e-02 0.00000000e+00 
9.59195644e-02 4.60564308e-02 0.00000000e+00 
9.98597518e-02 4.67394181e-02 0.00000000e+00 

        </DataArray>
      </Points>
      <Cells>
        <DataArray type="Int32" Name="connectivity" format="ascii">
0 1
1 2
2 3

        </DataArray>
        <DataArray type="Int32" Name="offsets" format="ascii">
2 4 6 
        </DataArray>
        <DataArray type="UInt8" Name="types" format="ascii">
3 3 3 
        </DataArray>
      </Cells>
      <PointData>
        <DataArray type="Float64" Name="rho">
          9.56007203e-01 9.49281085e-01 9.42975573e-01 9.36990973e-01 
        </DataArray>
        <DataArray type="Float64" Name="rhou">
          2.89486636e-02 2.75269459e-02 2.40614218e-02 2.85697985e-02 
        </DataArray>
        <DataArray type="Float64" Name="rhov">
          1.32650474e-02 1.06912822e-02 9.10928812e-03 8.61058674e-03 
        </DataArray>
        <DataArray type="Float64" Name="E">
          2.17321027e+05 2.15724229e+05 2.14227702e+05 2.12808358e+05 
        </DataArray>
      </PointData>
    </Piece>
    <Piece NumberOfPoints="4" NumberOfCells="3">
      <Points>
        <DataArray type="Float64" NumberOfComponents="3" format="ascii">
          9.98597518e-02 4.67394181e-02 0.00000000e+00 
1.10118888e-01 4.83862534e-02 0.00000000e+00 
1.20400399e-01 4.98730615e-02 0.00000000e+00 
1.30701363e-01 5.12186773e-02 0.00000000e+00 

        </DataArray>
      </Points>
      <Cells>
        <DataArray type="Int32" Name="connectivity" format="ascii">
0 1
1 2
2 3

        </DataArray>
        <DataArray type="Int32" Name="offsets" format="ascii">
2 4 6 
        </DataArray>
        <DataArray type="UInt8" Name="types" format="ascii">
3 3 3 
        </DataArray>
      </Cells>
      <PointData>
        <DataArray type="Float64" Name="rho">
          9.36918394e-01 9.22959650e-01 9.10917445e-01 9.00565178e-01 
        </DataArray>
        <DataArray type="Float64" Name="rhou">
          2.63028860e-02 1.81406233e-02 1.60142751e-02 1.25551690e-02 
        </DataArray>
        <DataArray type="Float64" Name="rhov">
          7.37799060e-03 4.15370745e-03 3.64567775e-03 2.97561363e-03 
        </DataArray>
        <DataArray type="Float64" Name="E">
          2.12791965e+05 2.09485254e+05 2.06635872e+05 2.04188817e+05 
        </DataArray>
      </PointData>
    </Piece>
    <Piece NumberOfPoints="4" NumberOfCells="3">
      <Points>
        <DataArray type="Float64" NumberOfComponents="3" format="ascii">
          1.30701363e-01 5.12186773e-02 0.00000000e+00 
1.41019106e-01 5.24347536e-02 0.00000000e+00 
1.51350453e-01 5.35292812e-02 0.00000000e+00 
1.61692888e-01 5.45137413e-02 0.00000000e+00 

        </DataArray>
      </Points>
      <Cells>
        <DataArray type="Int32" Name="connectivity" format="ascii">
0 1
1 2
2 3

        </DataArray>
        <DataArray type="Int32" Name="offsets" format="ascii">
2 4 6 
        </DataArray>
        <DataArray type="UInt8" Name="types" format="ascii">
3 3 3 
        </DataArray>
      </Cells>
      <PointData>
        <DataArray type="Float64" Name="rho">
          9.00561692e-01 8.91472661e-01 8.83622225e-01 8.76902010e-01 
        </DataArray>
        <DataArray type="Float64" Name="rhou">
          1.39341070e-02 1.20399761e-02 9.96835500e-03 8.70471094e-03 
        </DataArray>
        <DataArray type="Float64" Name="rhov">
          3.47379771e-03 2.54979291e-03 1.77412872e-03 1.59843776e-03 
        </DataArray>
        <DataArray type="Float64" Name="E">
          2.04187980e+05 2.02042732e+05 2.00192049e+05 1.98609300e+05 
        </DataArray>
      </PointData>
    </Piece>
    <Piece NumberOfPoints="4" NumberOfCells="3">
      <Points>
        <DataArray type="Float64" NumberOfComponents="3" format="ascii">
          1.61692888e-01 5.45137413e-02 0.00000000e+00 
1.72044471e-01 5.53969070e-02 0.00000000e+00 
1.82403773e-01 5.61845005e-02 0.00000000e+00 
1.92769483e-01 5.68825118e-02 0.00000000e+00 

        </DataArray>
      </Points>
      <Cells>
        <DataArray type="Int32" Name="connectivity" format="ascii">
0 1
1 2
2 3

        </DataArray>
        <DataArray type="Int32" Name="offsets" format="ascii">
2 4 6 
        </DataArray>
        <DataArray type="UInt8" Name="types" format="ascii">
3 3 3 
        </DataArray>
      </Cells>
      <PointData>
        <DataArray type="Float64" Name="rho">
          8.76899608e-01 8.71114596e-01 8.66174155e-01 8.62025632e-01 
        </DataArray>
        <DataArray type="Float64" Name="rhou">
          8.74133645e-03 7.61153712e-03 6.57838859e-03 5.67698642e-03 
        </DataArray>
        <DataArray type="Float64" Name="rhov">
          1.64995200e-03 1.28590486e-03 9.08055033e-04 6.79411120e-04 
        </DataArray>
        <DataArray type="Float64" Name="E">
          1.98608761e+05 1.97247989e+05 1.96087652e+05 1.95114797e+05 
        </DataArray>
      </PointData>
    </Piece>
    <Piece NumberOfPoints="4" NumberOfCells="3">
      <Points>
        <DataArray type="Float64" NumberOfComponents="3" format="ascii">
          1.92769483e-01 5.68825118e-02 0.00000000e+00 
2.03140482e-01 5.74972220e-02 0.00000000e+00 
2.13515818e-01 5.80338500e-02 0.00000000e+00 
2.23894730e-01 5.84962890e-02 0.00000000e+00 

        </DataArray>
      </Points>
      <Cells>
        <DataArray type="Int32" Name="connectivity" format="ascii">
0 1
1 2
2 3

        </DataArray>
        <DataArray type="Int32" Name="offsets" format="ascii">
2 4 6 
        </DataArray>
        <DataArray type="UInt8" Name="types" format="ascii">
3 3 3 
        </DataArray>
      </Cells>
      <PointData>
        <DataArray type="Float64" Name="rho">
          8.62024944e-01 8.58588654e-01 8.55780642e-01 8.53542661e-01 
        </DataArray>
        <DataArray type="Float64" Name="rhou">
          5.71354010e-03 4.99282603e-03 4.43698865e-03 3.97705400e-03 
        </DataArray>
        <DataArray type="Float64" Name="rhov">
          7.20676939e-04 6.30911939e-04 5.15229228e-04 3.92263014e-04 
        </DataArray>
        <DataArray type="Float64" Name="E">
          1.95114639e+05 1.94310169e+05 1.93654332e+05 1.93133269e+05 
        </DataArray>
      </PointData>
    </Piece>
    <Piece NumberOfPoints="4" NumberOfCells="3">
      <Points>
        <DataArray type="Float64" NumberOfComponents="3" format="ascii">
          2.23894730e-01 5.84962890e-02 0.00000000e+00 
2.34276548e-01 5.88882305e-02 0.00000000e+00 
2.44660646e-01 5.92139624e-02 0.00000000e+00 
2.55046517e-01 5.94772622e-02 0.00000000e+00 

        </DataArray>
      </Points>
      <Cells>
        <DataArray type="Int32" Name="connectivity" format="ascii">
0 1
1 2
2 3

        </DataArray>
        <DataArray type="Int32" Name="offsets" format="ascii">
2 4 6 
        </DataArray>
        <DataArray type="UInt8" Name="types" format="ascii">
3 3 3 
        </DataArray>
      </Cells>
      <PointData>
        <DataArray type="Float64" Name="rho">
          8.53543231e-01 8.51833086e-01 8.50606357e-01 8.49807757e-01 
        </DataArray>
        <DataArray type="Float64" Name="rhou">
          3.98464837e-03 3.46389141e-03 3.08610047e-03 2.85683391e-03 
        </DataArray>
        <DataArray type="Float64" Name="rhov">
          4.06598774e-04 3.28520111e-04 3.11012412e-04 3.09260298e-04 
        </DataArray>
        <DataArray type="Float64" Name="E">
          1.93133399e+05 1.92736933e+05 1.92454467e+05 1.92272975e+05 
        </DataArray>
      </PointData>
    </Piece>
    <Piece NumberOfPoints="4" NumberOfCells="3">
      <Points>
        <DataArray type="Float64" NumberOfComponents="3" format="ascii">
          2.55046517e-01 5.94772622e-02 0.00000000e+00 
2.65433758e-01 5.96804135e-02 0.00000000e+00 
2.75821954e-01 5.98256700e-02 0.00000000e+00 
2.86210775e-01 5.99167012e-02 0.00000000e+00 

        </DataArray>
      </Points>
      <Cells>
        <DataArray type="Int32" Name="connectivity" format="ascii">
0 1
1 2
2 3

        </DataArray>
        <DataArray type="Int32" Name="offsets" format="ascii">
2 4 6 
        </DataArray>
        <DataArray type="UInt8" Name="types" format="ascii">
3 3 3 
        </DataArray>
      </Cells>
      <PointData>
        <DataArray type="Float64" Name="rho">
          8.49807769e-01 8.49389111e-01 8.49325802e-01 8.49597545e-01 
        </DataArray>
        <DataArray type="Float64" Name="rhou">
          2.85110081e-03 2.56460089e-03 2.27107945e-03 2.00792092e-03 
        </DataArray>
        <DataArray type="Float64" Name="rhov">
          3.20522301e-04 2.25127590e-04 1.66769111e-04 2.00180196e-04 
        </DataArray>
        <DataArray type="Float64" Name="E">
          1.92272982e+05 1.92181135e+05 1.92173038e+05 1.92243701e+05 
        </DataArray>
      </PointData>
    </Piece>
    <Piece NumberOfPoints="4" NumberOfCells="3">
      <Points>
        <DataArray type="Float64" NumberOfComponents="3" format="ascii">
          2.86210775e-01 5.99167012e-02 0.00000000e+00 
2.96599895e-01 5.99572174e-02 0.00000000e+00 
3.06989133e-01 5.99487796e-02 0.00000000e+00 
3.17378193e-01 5.98919280e-02 0.00000000e+00 

        </DataArray>
      </Points>
      <Cells>
        <DataArray type="Int32" Name="connectivity" format="ascii">
0 1
1 2
2 3

        </DataArray>
        <DataArray type="Int32" Name="offsets" format="ascii">
2 4 6 
        </DataArray>
        <DataArray type="UInt8" Name="types" format="ascii">
3 3 3 
        </DataArray>
      </Cells>
      <PointData>
        <DataArray type="Float64" Name="rho">
          8.49596526e-01 8.50154367e-01 8.50951637e-01 8.51973367e-01 
        </DataArray>
        <DataArray type="Float64" Name="rhou">
          2.02669264e-03 1.91119669e-03 1.78480928e-03 1.60322878e-03 
        </DataArray>
        <DataArray type="Float64" Name="rhov">
          2.16477148e-04 2.43433270e-04 1.89184130e-04 1.14899603e-04 
        </DataArray>
        <DataArray type="Float64" Name="E">
          1.92243469e+05 1.92381400e+05 1.92575809e+05 1.92823101e+05 
        </DataArray>
      </PointData>
    </Piece>
    <Piece NumberOfPoints="4" NumberOfCells="3">
      <Points>
        <DataArray type="Float64" NumberOfComponents="3" format="ascii">
          3.17378193e-01 5.98919280e-02 0.00000000e+00 
3.27766895e-01 5.97884916e-02 0.00000000e+00 
3.38155061e-01 5.96415885e-02 0.00000000e+00 
3.48542601e-01 5.94538599e-02 0.00000000e+00 

        </DataArray>
      </Points>
      <Cells>
        <DataArray type="Int32" Name="connectivity" format="ascii">
0 1
1 2
2 3

        </DataArray>
        <DataArray type="Int32" Name="offsets" format="ascii">
2 4 6 
        </DataArray>
        <DataArray type="UInt8" Name="types" format="ascii">
3 3 3 
        </DataArray>
      </Cells>
      <PointData>
        <DataArray type="Float64" Name="rho">
          8.51973713e-01 8.53207285e-01 8.54632598e-01 8.56216924e-01 
        </DataArray>
        <DataArray type="Float64" Name="rhou">
          1.63257422e-03 1.43675766e-03 1.31994692e-03 1.27311697e-03 
        </DataArray>
        <DataArray type="Float64" Name="rhov">
          1.22525480e-04 1.11108942e-04 1.36602465e-04 1.57092052e-04 
        </DataArray>
        <DataArray type="Float64" Name="E">
          1.92823179e+05 1.93120269e+05 1.93462370e+05 1.93841850e+05 
        </DataArray>
      </PointData>
    </Piece>
    <Piece NumberOfPoints="4" NumberOfCells="3">
      <Points>
        <DataArray type="Float64" NumberOfComponents="3" format="ascii">
          3.48542601e-01 5.94538599e-02 0.00000000e+00 
3.58929336e-01 5.92265576e-02 0.00000000e+00 
3.69315147e-01 5.89610897e-02 0.00000000e+00 
3.79699975e-01 5.86590059e-02 0.00000000e+00 

        </DataArray>
      </Points>
      <Cells>
        <DataArray type="Int32" Name="connectivity" format="ascii">
0 1
1 2
2 3

        </DataArray>
        <DataArray type="Int32" Name="offsets" format="ascii">
2 4 6 
        </DataArray>
        <DataArray type="UInt8" Name="types" format="ascii">
3 3 3 
        </DataArray>
      </Cells>
      <PointData>
        <DataArray type="Float64" Name="rho">
          8.56217170e-01 8.57935133e-01 8.59777126e-01 8.61723348e-01 
        </DataArray>
        <DataArray type="Float64" Name="rhou">
          1.28543219e-03 1.16143997e-03 1.06758039e-03 1.01917600e-03 
        </DataArray>
        <DataArray type="Float64" Name="rhov">
          1.54019660e-04 1.18037829e-04 1.10594445e-04 1.08994942e-04 
        </DataArray>
        <DataArray type="Float64" Name="E">
          1.93841906e+05 1.94252839e+05 1.94692903e+05 1.95157474e+05 
        </DataArray>
      </PointData>
    </Piece>
    <Piece NumberOfPoints="4" NumberOfCells="3">
      <Points>
        <DataArray type="Float64" NumberOfComponents="3" format="ascii">
          3.79699975e-01 5.86590059e-02 0.00000000e+00 
3.90083700e-01 5.83211333e-02 0.00000000e+00 
4.00466233e-01 5.79482466e-02 0.00000000e+00 
4.10847515e-01 5.75418957e-02 0.00000000e+00 

        </DataArray>
      </Points>
      <Cells>
        <DataArray type="Int32" Name="connectivity" format="ascii">
0 1
1 2
2 3

        </DataArray>
        <DataArray type="Int32" Name="offsets" format="ascii">
2 4 6 
        </DataArray>
        <DataArray type="UInt8" Name="types" format="ascii">
3 3 3 
        </DataArray>
      </Cells>
      <PointData>
        <DataArray type="Float64" Name="rho">
          8.61723360e-01 8.63757010e-01 8.65868219e-01 8.68050466e-01 
        </DataArray>
        <DataArray type="Float64" Name="rhou">
          1.01152210e-03 9.47107921e-04 8.68311924e-04 7.92240617e-04 
        </DataArray>
        <DataArray type="Float64" Name="rhov">
          1.11422033e-04 8.12072197e-05 5.84805868e-05 6.38441402e-05 
        </DataArray>
        <DataArray type="Float64" Name="E">
          1.95157478e+05 1.95642635e+05 1.96146049e+05 1.96666136e+05 
        </DataArray>
      </PointData>
    </Piece>
    <Piece NumberOfPoints="4" NumberOfCells="3">
      <Points>
        <DataArray type="Float64" NumberOfComponents="3" format="ascii">
          4.10847515e-01 5.75418957e-02 0.00000000e+00 
4.21227485e-01 5.71038015e-02 0.00000000e+00 
4.31606144e-01 5.66351078e-02 0.00000000e+00 
4.41983402e-01 5.61364293e-02 0.00000000e+00 

        </DataArray>
      </Points>
      <Cells>
        <DataArray type="Int32" Name="connectivity" format="ascii">
0 1
1 2
2 3

        </DataArray>
        <DataArray type="Int32" Name="offsets" format="ascii">
2 4 6 
        </DataArray>
        <DataArray type="UInt8" Name="types" format="ascii">
3 3 3 
        </DataArray>
      </Cells>
      <PointData>
        <DataArray type="Float64" Name="rho">
          8.68050266e-01 8.70288000e-01 8.72569604e-01 8.74885431e-01 
        </DataArray>
        <DataArray type="Float64" Name="rhou">
          8.08762625e-04 7.57012605e-04 7.17774509e-04 6.80424237e-04 
        </DataArray>
        <DataArray type="Float64" Name="rhov">
          6.72595848e-05 6.74418390e-05 5.79452514e-05 3.70573546e-05 
        </DataArray>
        <DataArray type="Float64" Name="E">
          1.96666091e+05 1.97199225e+05 1.97742699e+05 1.98294260e+05 
        </DataArray>
      </PointData>
    </Piece>
    <Piece NumberOfPoints="4" NumberOfCells="3">
      <Points>
        <DataArray type="Float64" NumberOfComponents="3" format="ascii">
          4.41983402e-01 5.61364293e-02 0.00000000e+00 
4.52359200e-01 5.56085743e-02 0.00000000e+00 
4.62733537e-01 5.50529286e-02 0.00000000e+00 
4.73106444e-01 5.44707514e-02 0.00000000e+00 

        </DataArray>
      </Points>
      <Cells>
        <DataArray type="Int32" Name="connectivity" format="ascii">
0 1
1 2
2 3

        </DataArray>
        <DataArray type="Int32" Name="offsets" format="ascii">
2 4 6 
        </DataArray>
        <DataArray type="UInt8" Name="types" format="ascii">
3 3 3 
        </DataArray>
      </Cells>
      <PointData>
        <DataArray type="Float64" Name="rho">
          8.74885573e-01 8.77231199e-01 8.79600183e-01 8.81984059e-01 
        </DataArray>
        <DataArray type="Float64" Name="rhou">
          6.77451260e-04 6.21449519e-04 5.81319444e-04 5.57602019e-04 
        </DataArray>
        <DataArray type="Float64" Name="rhov">
          3.76991245e-05 3.03954623e-05 3.09726438e-05 3.12971383e-05 
        </DataArray>
        <DataArray type="Float64" Name="E">
          1.98294292e+05 1.98852871e+05 1.99416949e+05 1.99984551e+05 
        </DataArray>
      </PointData>
    </Piece>
    <Piece NumberOfPoints="4" NumberOfCells="3">
      <Points>
        <DataArray type="Float64" NumberOfComponents="3" format="ascii">
          4.73106444e-01 5.44707514e-02 0.00000000e+00 
4.83477861e-01 5.38627952e-02 0.00000000e+00 
4.93847787e-01 5.32294959e-02 0.00000000e+00 
5.04216135e-01 5.25716618e-02 0.00000000e+00 

        </DataArray>
      </Points>
      <Cells>
        <DataArray type="Int32" Name="connectivity" format="ascii">
0 1
1 2
2 3

        </DataArray>
        <DataArray type="Int32" Name="offsets" format="ascii">
2 4 6 
        </DataArray>
        <DataArray type="UInt8" Name="types" format="ascii">
3 3 3 
        </DataArray>
      </Cells>
      <PointData>
        <DataArray type="Float64" Name="rho">
          8.81984046e-01 8.84375966e-01 8.86770564e-01 8.89166716e-01 
        </DataArray>
        <DataArray type="Float64" Name="rhou">
          5.50049785e-04 5.28903729e-04 4.93654477e-04 4.51858927e-04 
        </DataArray>
        <DataArray type="Float64" Name="rhov">
          3.30995609e-05 2.18857468e-05 7.23103852e-06 4.75551210e-06 
        </DataArray>
        <DataArray type="Float64" Name="E">
          1.99984549e+05 2.00554076e+05 2.01124277e+05 2.01694860e+05 
        </DataArray>
      </PointData>
    </Piece>
    <Piece NumberOfPoints="4" NumberOfCells="3">
      <Points>
        <DataArray type="Float64" NumberOfComponents="3" format="ascii">
          5.04216135e-01 5.25716618e-02 0.00000000e+00 
5.14582992e-01 5.18903993e-02 0.00000000e+00 
5.24948359e-01 5.11864908e-02 0.00000000e+00 
5.35312176e-01 5.04603274e-02 0.00000000e+00 

        </DataArray>
      </Points>
      <Cells>
        <DataArray type="Int32" Name="connectivity" format="ascii">
0 1
1 2
2 3

        </DataArray>
        <DataArray type="Int32" Name="offsets" format="ascii">
2 4 6 
        </DataArray>
        <DataArray type="UInt8" Name="types" format="ascii">
3 3 3 
        </DataArray>
      </Cells>
      <PointData>
        <DataArray type="Float64" Name="rho">
          8.89166631e-01 8.91558934e-01 8.93942920e-01 8.96315109e-01 
        </DataArray>
        <DataArray type="Float64" Name="rhou">
          4.60375211e-04 4.34186747e-04 4.14374776e-04 3.94881243e-04 
        </DataArray>
        <DataArray type="Float64" Name="rhov">
          6.90588996e-06 6.67222039e-06 1.41947887e-06 -1.02241637e-05 
        </DataArray>
        <DataArray type="Float64" Name="E">
          2.01694841e+05 2.02264544e+05 2.02832326e+05 2.03397374e+05 
        </DataArray>
      </PointData>
    </Piece>
    <Piece NumberOfPoints="4" NumberOfCells="3">
      <Points>
        <DataArray type="Float64" NumberOfComponents="3" format="ascii">
          5.35312176e-01 5.04603274e-02 0.00000000e+00 
5.45674443e-01 4.97124642e-02 0.00000000e+00 
5.56035221e-01 4.89437394e-02 0.00000000e+00 
5.66394389e-01 4.81546782e-02 0.00000000e+00 

        </DataArray>
      </Points>
      <Cells>
        <DataArray type="Int32" Name="connectivity" format="ascii">
0 1
1 2
2 3

        </DataArray>
        <DataArray type="Int32" Name="offsets" format="ascii">
2 4 6 
        </DataArray>
        <DataArray type="UInt8" Name="types" format="ascii">
3 3 3 
        </DataArray>
      </Cells>
      <PointData>
        <DataArray type="Float64" Name="rho">
          8.96315153e-01 8.98674867e-01 9.01019185e-01 9.03345239e-01 
        </DataArray>
        <DataArray type="Float64" Name="rhou">
          3.90647162e-04 3.64232082e-04 3.45790565e-04 3.33921162e-04 
        </DataArray>
        <DataArray type="Float64" Name="rhov">
          -9.94254621e-06 -1.05488120e-05 -1.11606470e-05 -1.52644705e-05 
        </DataArray>
        <DataArray type="Float64" Name="E">
          2.03397384e+05 2.03959520e+05 2.04518062e+05 2.05072340e+05 
        </DataArray>
      </PointData>
    </Piece>
    <Piece NumberOfPoints="4" NumberOfCells="3">
      <Points>
        <DataArray type="Float64" NumberOfComponents="3" format="ascii">
          5.66394389e-01 4.81546782e-02 0.00000000e+00 
5.76752067e-01 4.73455116e-02 0.00000000e+00 
5.87108195e-01 4.65166979e-02 0.00000000e+00 
5.97462773e-01 4.56690118e-02 0.00000000e+00 

        </DataArray>
      </Points>
      <Cells>
        <DataArray type="Int32" Name="connectivity" format="ascii">
0 1
1 2
2 3

        </DataArray>
        <DataArray type="Int32" Name="offsets" format="ascii">
2 4 6 
        </DataArray>
        <DataArray type="UInt8" Name="types" format="ascii">
3 3 3 
        </DataArray>
      </Cells>
      <PointData>
        <DataArray type="Float64" Name="rho">
          9.03345268e-01 9.05651371e-01 9.07937195e-01 9.10201831e-01 
        </DataArray>
        <DataArray type="Float64" Name="rhou">
          3.33250447e-04 3.12912375e-04 2.91902479e-04 2.75872007e-04 
        </DataArray>
        <DataArray type="Float64" Name="rhov">
          -1.49309043e-05 -2.33902286e-05 -2.67975988e-05 -2.55078866e-05 
        </DataArray>
        <DataArray type="Float64" Name="E">
          2.05072347e+05 2.05621964e+05 2.06166831e+05 2.06706726e+05 
        </DataArray>
      </PointData>
    </Piece>
    <Piece NumberOfPoints="4" NumberOfCells="3">
      <Points>
        <DataArray type="Float64" NumberOfComponents="3" format="ascii">
          5.97462773e-01 4.56690118e-02 0.00000000e+00 
6.07815862e-01 4.48031016e-02 0.00000000e+00 
6.18167400e-01 4.39192392e-02 0.00000000e+00 
6.28517449e-01 4.30175588e-02 0.00000000e+00 

        </DataArray>
      </Points>
      <Cells>
        <DataArray type="Int32" Name="connectivity" format="ascii">
0 1
1 2
2 3

        </DataArray>
        <DataArray type="Int32" Name="offsets" format="ascii">
2 4 6 
        </DataArray>
        <DataArray type="UInt8" Name="types" format="ascii">
3 3 3 
        </DataArray>
      </Cells>
      <PointData>
        <DataArray type="Float64" Name="rho">
          9.10201769e-01 9.12443331e-01 9.14660017e-01 9.16851973e-01 
        </DataArray>
        <DataArray type="Float64" Name="rhou">
          2.73959589e-04 2.65291211e-04 2.53351452e-04 2.36204442e-04 
        </DataArray>
        <DataArray type="Float64" Name="rhov">
          -2.45923171e-05 -2.49563884e-05 -3.04153504e-05 -3.56294588e-05 
        </DataArray>
        <DataArray type="Float64" Name="E">
          2.06706712e+05 2.07241195e+05 2.07769846e+05 2.08292689e+05 
        </DataArray>
      </PointData>
    </Piece>
    <Piece NumberOfPoints="4" NumberOfCells="3">
      <Points>
        <DataArray type="Float64" NumberOfComponents="3" format="ascii">
          6.28517449e-01 4.30175588e-02 0.00000000e+00 
6.38865948e-01 4.20984775e-02 0.00000000e+00 
6.49212897e-01 4.11624312e-02 0.00000000e+00 
6.59558356e-01 4.02097441e-02 0.00000000e+00 

        </DataArray>
      </Points>
      <Cells>
        <DataArray type="Int32" Name="connectivity" format="ascii">
0 1
1 2
2 3

        </DataArray>
        <DataArray type="Int32" Name="offsets" format="ascii">
2 4 6 
        </DataArray>
        <DataArray type="UInt8" Name="types" format="ascii">
3 3 3 
        </DataArray>
      </Cells>
      <PointData>
        <DataArray type="Float64" Name="rho">
          9.16851965e-01 9.19018997e-01 9.21160258e-01 9.23275427e-01 
        </DataArray>
        <DataArray type="Float64" Name="rhou">
          2.37172764e-04 2.24505044e-04 2.13660444e-04 2.01996795e-04 
        </DataArray>
        <DataArray type="Float64" Name="rhov">
          -3.46243915e-05 -3.52177010e-05 -3.69531868e-05 -3.90663870e-05 
        </DataArray>
        <DataArray type="Float64" Name="E">
          2.08292687e+05 2.08809669e+05 2.09320589e+05 2.09825366e+05 
        </DataArray>
      </PointData>
    </Piece>
    <Piece NumberOfPoints="4" NumberOfCells="3">
      <Points>
        <DataArray type="Float64" NumberOfComponents="3" format="ascii">
          6.59558356e-01 4.02097441e-02 0.00000000e+00 
6.69902325e-01 3.92407738e-02 0.00000000e+00 
6.80244744e-01 3.82556282e-02 0.00000000e+00 
6.90585554e-01 3.72543521e-02 0.00000000e+00 

        </DataArray>
      </Points>
      <Cells>
        <DataArray type="Int32" Name="connectivity" format="ascii">
0 1
1 2
2 3

        </DataArray>
        <DataArray type="Int32" Name="offsets" format="ascii">
2 4 6 
        </DataArray>
        <DataArray type="UInt8" Name="types" format="ascii">
3 3 3 
        </DataArray>
      </Cells>
      <PointData>
        <DataArray type="Float64" Name="rho">
          9.23275410e-01 9.25364473e-01 9.27426291e-01 9.29461636e-01 
        </DataArray>
        <DataArray type="Float64" Name="rhou">
          1.98826009e-04 1.93894801e-04 1.85398108e-04 1.70968682e-04 
        </DataArray>
        <DataArray type="Float64" Name="rhov">
          -3.80452191e-05 -3.79371601e-05 -4.22627067e-05 -4.57795888e-05 
        </DataArray>
        <DataArray type="Float64" Name="E">
          2.09825362e+05 2.10323988e+05 2.10816196e+05 2.11302158e+05 
        </DataArray>
      </PointData>
    </Piece>
    <Piece NumberOfPoints="4" NumberOfCells="3">
      <Points>
        <DataArray type="Float64" NumberOfComponents="3" format="ascii">
          6.90585554e-01 3.72543521e-02 0.00000000e+00 
7.00924933e-01 3.62373814e-02 0.00000000e+00 
7.11262703e-01 3.52048986e-02 0.00000000e+00 
7.21598923e-01 3.41568366e-02 0.00000000e+00 

        </DataArray>
      </Points>
      <Cells>
        <DataArray type="Int32" Name="connectivity" format="ascii">
0 1
1 2
2 3

        </DataArray>
        <DataArray type="Int32" Name="offsets" format="ascii">
2 4 6 
        </DataArray>
        <DataArray type="UInt8" Name="types" format="ascii">
3 3 3 
        </DataArray>
      </Cells>
      <PointData>
        <DataArray type="Float64" Name="rho">
          9.29461594e-01 9.31470856e-01 9.33452840e-01 9.35408169e-01 
        </DataArray>
        <DataArray type="Float64" Name="rhou">
          1.69612270e-04 1.64657556e-04 1.59523288e-04 1.46715207e-04 
        </DataArray>
        <DataArray type="Float64" Name="rhov">
          -4.46768102e-05 -4.21242240e-05 -4.53260572e-05 -4.99192597e-05 
        </DataArray>
        <DataArray type="Float64" Name="E">
          2.11302149e+05 2.11781947e+05 2.12255306e+05 2.12722363e+05 
        </DataArray>
      </PointData>
    </Piece>
    <Piece NumberOfPoints="4" NumberOfCells="3">
      <Points>
        <DataArray type="Float64" NumberOfComponents="3" format="ascii">
          7.21598923e-01 3.41568366e-02 0.00000000e+00 
7.31933594e-01 3.30936089e-02 0.00000000e+00 
7.42266715e-01 3.20154354e-02 0.00000000e+00 
7.52598286e-01 3.09220124e-02 0.00000000e+00 

        </DataArray>
      </Points>
      <Cells>
        <DataArray type="Int32" Name="connectivity" format="ascii">
0 1
1 2
2 3

        </DataArray>
        <DataArray type="Int32" Name="offsets" format="ascii">
2 4 6 
        </DataArray>
        <DataArray type="UInt8" Name="types" format="ascii">
3 3 3 
        </DataArray>
      </Cells>
      <PointData>
        <DataArray type="Float64" Name="rho">
          9.35408149e-01 9.37337822e-01 9.39240504e-01 9.41116693e-01 
        </DataArray>
        <DataArray type="Float64" Name="rhou">
          1.44119040e-04 1.40081663e-04 1.37250552e-04 1.27124015e-04 
        </DataArray>
        <DataArray type="Float64" Name="rhov">
          -4.89653206e-05 -4.44678361e-05 -4.66247614e-05 -5.15729399e-05 
        </DataArray>
        <DataArray type="Float64" Name="E">
          2.12722359e+05 2.13183336e+05 2.13637927e+05 2.14086242e+05 
        </DataArray>
      </PointData>
    </Piece>
    <Piece NumberOfPoints="4" NumberOfCells="3">
      <Points>
        <DataArray type="Float64" NumberOfComponents="3" format="ascii">
          7.52598286e-01 3.09220124e-02 0.00000000e+00 
7.62928188e-01 2.98135038e-02 0.00000000e+00 
7.73256481e-01 2.86899786e-02 0.00000000e+00 
7.83583105e-01 2.75512449e-02 0.00000000e+00 

        </DataArray>
      </Points>
      <Cells>
        <DataArray type="Int32" Name="connectivity" format="ascii">
0 1
1 2
2 3

        </DataArray>
        <DataArray type="Int32" Name="offsets" format="ascii">
2 4 6 
        </DataArray>
        <DataArray type="UInt8" Name="types" format="ascii">
3 3 3 
        </DataArray>
      </Cells>
      <PointData>
        <DataArray type="Float64" Name="rho">
          9.41116688e-01 9.42967502e-01 9.44792137e-01 9.46591268e-01 
        </DataArray>
        <DataArray type="Float64" Name="rhou">
          1.24609922e-04 1.20977857e-04 1.17204043e-04 1.08064537e-04 
        </DataArray>
        <DataArray type="Float64" Name="rhov">
          -5.06744424e-05 -4.83316545e-05 -5.04040722e-05 -5.34902712e-05 
        </DataArray>
        <DataArray type="Float64" Name="E">
          2.14086241e+05 2.14528529e+05 2.14964606e+05 2.15394619e+05 
        </DataArray>
      </PointData>
    </Piece>
    <Piece NumberOfPoints="4" NumberOfCells="3">
      <Points>
        <DataArray type="Float64" NumberOfComponents="3" format="ascii">
          7.83583105e-01 2.75512449e-02 0.00000000e+00 
7.93908060e-01 2.63975188e-02 0.00000000e+00 
8.04231405e-01 2.52291560e-02 0.00000000e+00 
8.14553022e-01 2.40457114e-02 0.00000000e+00 

        </DataArray>
      </Points>
      <Cells>
        <DataArray type="Int32" Name="connectivity" format="ascii">
0 1
1 2
2 3

        </DataArray>
        <DataArray type="Int32" Name="offsets" format="ascii">
2 4 6 
        </DataArray>
        <DataArray type="UInt8" Name="types" format="ascii">
3 3 3 
        </DataArray>
      </Cells>
      <PointData>
        <DataArray type="Float64" Name="rho">
          9.46591274e-01 9.48365639e-01 9.50115149e-01 9.51839169e-01 
        </DataArray>
        <DataArray type="Float64" Name="rhou">
          1.10579162e-04 1.00268671e-04 9.93036725e-05 1.00335007e-04 
        </DataArray>
        <DataArray type="Float64" Name="rhov">
          -5.38364122e-05 -5.01650834e-05 -4.88762452e-05 -5.51048240e-05 
        </DataArray>
        <DataArray type="Float64" Name="E">
          2.15394621e+05 2.15818733e+05 2.16236921e+05 2.16649032e+05 
        </DataArray>
      </PointData>
    </Piece>
    <Piece NumberOfPoints="4" NumberOfCells="3">
      <Points>
        <DataArray type="Float64" NumberOfComponents="3" format="ascii">
          8.14553022e-01 2.40457114e-02 0.00000000e+00 
8.24872792e-01 2.28467938e-02 0.00000000e+00 
8.35190892e-01 2.16327831e-02 0.00000000e+00 
8.45507145e-01 2.04038676e-02 0.00000000e+00 

        </DataArray>
      </Points>
      <Cells>
        <DataArray type="Int32" Name="connectivity" format="ascii">
0 1
1 2
2 3

        </DataArray>
        <DataArray type="Int32" Name="offsets" format="ascii">
2 4 6 
        </DataArray>
        <DataArray type="UInt8" Name="types" format="ascii">
3 3 3 
        </DataArray>
      </Cells>
      <PointData>
        <DataArray type="Float64" Name="rho">
          9.51839211e-01 9.53539353e-01 9.55215885e-01 9.56868940e-01 
        </DataArray>
        <DataArray type="Float64" Name="rhou">
          9.46201518e-05 8.67593950e-05 8.01654624e-05 8.09294295e-05 
        </DataArray>
        <DataArray type="Float64" Name="rhov">
          -5.53696843e-05 -5.52209390e-05 -5.24524715e-05 -4.86914455e-05 
        </DataArray>
        <DataArray type="Float64" Name="E">
          2.16649042e+05 2.17055437e+05 2.17456167e+05 2.17851252e+05 
        </DataArray>
      </PointData>
    </Piece>
    <Piece NumberOfPoints="4" NumberOfCells="3">
      <Points>
        <DataArray type="Float64" NumberOfComponents="3" format="ascii">
          8.45507145e-01 2.04038676e-02 0.00000000e+00 
8.55821550e-01 1.91591792e-02 0.00000000e+00 
8.66134048e-01 1.78987328e-02 0.00000000e+00 
8.76444638e-01 1.66228991e-02 0.00000000e+00 

        </DataArray>
      </Points>
      <Cells>
        <DataArray type="Int32" Name="connectivity" format="ascii">
0 1
1 2
2 3

        </DataArray>
        <DataArray type="Int32" Name="offsets" format="ascii">
2 4 6 
        </DataArray>
        <DataArray type="UInt8" Name="types" format="ascii">
3 3 3 
        </DataArray>
      </Cells>
      <PointData>
        <DataArray type="Float64" Name="rho">
          9.56869048e-01 9.58497319e-01 9.60104533e-01 9.61687326e-01 
        </DataArray>
        <DataArray type="Float64" Name="rhou">
          1.01448495e-04 7.13656622e-05 7.01974961e-05 8.59365626e-05 
        </DataArray>
        <DataArray type="Float64" Name="rhov">
          -5.22236509e-05 -5.93600674e-05 -5.69105958e-05 -7.40931401e-05 
        </DataArray>
        <DataArray type="Float64" Name="E">
          2.17851276e+05 2.18240410e+05 2.18624424e+05 2.19002541e+05 
        </DataArray>
      </PointData>
    </Piece>
    <Piece NumberOfPoints="4" NumberOfCells="3">
      <Points>
        <DataArray type="Float64" NumberOfComponents="3" format="ascii">
          8.76444638e-01 1.66228991e-02 0.00000000e+00 
8.86753201e-01 1.53310820e-02 0.00000000e+00 
8.97059798e-01 1.40233757e-02 0.00000000e+00 
9.07364249e-01 1.26988320e-02 0.00000000e+00 

        </DataArray>
      </Points>
      <Cells>
        <DataArray type="Int32" Name="connectivity" format="ascii">
0 1
1 2
2 3

        </DataArray>
        <DataArray type="Int32" Name="offsets" format="ascii">
2 4 6 
        </DataArray>
        <DataArray type="UInt8" Name="types" format="ascii">
3 3 3 
        </DataArray>
      </Cells>
      <PointData>
        <DataArray type="Float64" Name="rho">
          9.61686891e-01 9.63251708e-01 9.64791254e-01 9.66323736e-01 
        </DataArray>
        <DataArray type="Float64" Name="rhou">
          -3.46573790e-06 8.66566608e-05 3.31417671e-05 -1.80417552e-05 
        </DataArray>
        <DataArray type="Float64" Name="rhov">
          -6.63650889e-05 -6.99753444e-05 -8.87415244e-05 6.82453046e-06 
        </DataArray>
        <DataArray type="Float64" Name="E">
          2.19002442e+05 2.19376117e+05 2.19743683e+05 2.20109287e+05 
        </DataArray>
      </PointData>
    </Piece>
    <Piece NumberOfPoints="4" NumberOfCells="3">
      <Points>
        <DataArray type="Float64" NumberOfComponents="3" format="ascii">
          9.07364249e-01 1.26988320e-02 0.00000000e+00 
9.17666554e-01 1.13577880e-02 0.00000000e+00 
9.27966774e-01 1.00004105e-02 0.00000000e+00 
9.38264549e-01 8.62528384e-03 0.00000000e+00 

        </DataArray>
      </Points>
      <Cells>
        <DataArray type="Int32" Name="connectivity" format="ascii">
0 1
1 2
2 3

        </DataArray>
        <DataArray type="Int32" Name="offsets" format="ascii">
2 4 6 
        </DataArray>
        <DataArray type="UInt8" Name="types" format="ascii">
3 3 3 
        </DataArray>
      </Cells>
      <PointData>
        <DataArray type="Float64" Name="rho">
          9.66328461e-01 9.67812627e-01 9.69319462e-01 9.70682865e-01 
        </DataArray>
        <DataArray type="Float64" Name="rhou">
          7.68956475e-04 -2.10243076e-04 3.24595393e-04 7.37564959e-04 
        </DataArray>
        <DataArray type="Float64" Name="rhov">
          -6.06894101e-05 -1.13007118e-04 -4.53097423e-05 -1.42326475e-03 
        </DataArray>
        <DataArray type="Float64" Name="E">
          2.20110362e+05 2.20464627e+05 2.20823769e+05 2.21150045e+05 
        </DataArray>
      </PointData>
    </Piece>
    <Piece NumberOfPoints="4" NumberOfCells="3">
      <Points>
        <DataArray type="Float64" NumberOfComponents="3" format="ascii">
          9.38264549e-01 8.62528384e-03 0.00000000e+00 
9.48560059e-01 7.23283459e-03 0.00000000e+00 
9.58853185e-01 5.82307298e-03 0.00000000e+00 
9.69143867e-01 4.39538015e-03 0.00000000e+00 

        </DataArray>
      </Points>
      <Cells>
        <DataArray type="Int32" Name="connectivity" format="ascii">
0 1
1 2
2 3

        </DataArray>
        <DataArray type="Int32" Name="offsets" format="ascii">
2 4 6 
        </DataArray>
        <DataArray type="UInt8" Name="types" format="ascii">
3 3 3 
        </DataArray>
      </Cells>
      <PointData>
        <DataArray type="Float64" Name="rho">
          9.70636717e-01 9.72310396e-01 9.73582208e-01 9.76258572e-01 
        </DataArray>
        <DataArray type="Float64" Name="rhou">
          -6.49869050e-03 2.06833182e-03 -3.07739372e-03 -1.84815254e-02 
        </DataArray>
        <DataArray type="Float64" Name="rhov">
          -1.05738547e-03 1.23664930e-04 -1.09698284e-03 1.83892130e-02 
        </DataArray>
        <DataArray type="Float64" Name="E">
          2.21139532e+05 2.21536454e+05 2.21842057e+05 2.22468273e+05 
        </DataArray>
      </PointData>
    </Piece>
    <Piece NumberOfPoints="4" NumberOfCells="3">
      <Points>
        <DataArray type="Float64" NumberOfComponents="3" format="ascii">
          9.69143867e-01 4.39538015e-03 0.00000000e+00 
9.79435980e-01 2.94816052e-03 0.00000000e+00 
9.89725590e-01 1.48259092e-03 0.00000000e+00 
1.00000000e+00 0.00000000e+00 0.00000000e+00 

        </DataArray>
      </Points>
      <Cells>
        <DataArray type="Int32" Name="connectivity" format="ascii">
0 1
1 2
2 3

        </DataArray>
        <DataArray type="Int32" Name="offsets" format="ascii">
2 4 6 
        </DataArray>
        <DataArray type="UInt8" Name="types" format="ascii">
3 3 3 
        </DataArray>
      </Cells>
      <PointData>
        <DataArray type="Float64" Name="rho">
          9.76544352e-01 9.76221929e-01 9.79990908e-01 9.70428989e-01 
        </DataArray>
        <DataArray type="Float64" Name="rhou">
          -1.46555449e-03 -9.31481896e-03 -3.65308943e-02 4.81819455e-01 
        </DataArray>
        <DataArray type="Float64" Name="rhov">
          2.05554466e-02 1.03299461e-03 5.09070655e-02 -1.32794278e-01 
        </DataArray>
        <DataArray type="Float64" Name="E">
          2.22533389e+05 2.22477340e+05 2.23355183e+05 2.21197818e+05 
        </DataArray>
      </PointData>
    </Piece>
    <Piece NumberOfPoints="4" NumberOfCells="3">
      <Points>
        <DataArray type="Float64" NumberOfComponents="3" format="ascii">
          9.69029665e-01 -4.41133138e-03 0.00000000e+00 
9.79355037e-01 -2.95961346e-03 0.00000000e+00 
9.89677846e-01 -1.48943183e-03 0.00000000e+00 
1.00000000e+00 0.00000000e+00 0.00000000e+00 

        </DataArray>
      </Points>
      <Cells>
        <DataArray type="Int32" Name="connectivity" format="ascii">
0 1
1 2
2 3

        </DataArray>
        <DataArray type="Int32" Name="offsets" format="ascii">
2 4 6 
        </DataArray>
        <DataArray type="UInt8" Name="types" format="ascii">
3 3 3 
        </DataArray>
      </Cells>
      <PointData>
        <DataArray type="Float64" Name="rho">
          9.75397430e-01 9.75142705e-01 9.78876131e-01 9.70574158e-01 
        </DataArray>
        <DataArray type="Float64" Name="rhou">
          -9.04708483e-04 -7.29213106e-03 -3.45085598e-02 4.43143461e-01 
        </DataArray>
        <DataArray type="Float64" Name="rhov">
          -2.27676913e-02 2.02108454e-03 -4.73311852e-02 1.38581113e-01 
        </DataArray>
        <DataArray type="Float64" Name="E">
          2.22283635e+05 2.22239856e+05 2.23105800e+05 2.21231412e+05 
        </DataArray>
      </PointData>
    </Piece>
    <Piece NumberOfPoints="4" NumberOfCells="3">
      <Points>
        <DataArray type="Float64" NumberOfComponents="3" format="ascii">
          9.38035965e-01 -8.65600072e-03 0.00000000e+00 
9.48369622e-01 -7.25875143e-03 0.00000000e+00 
9.58700895e-01 -5.84406452e-03 0.00000000e+00 
9.69029665e-01 -4.41133138e-03 0.00000000e+00 

        </DataArray>
      </Points>
      <Cells>
        <DataArray type="Int32" Name="connectivity" format="ascii">
0 1
1 2
2 3

        </DataArray>
        <DataArray type="Int32" Name="offsets" format="ascii">
2 4 6 
        </DataArray>
        <DataArray type="UInt8" Name="types" format="ascii">
3 3 3 
        </DataArray>
      </Cells>
      <PointData>
        <DataArray type="Float64" Name="rho">
          9.69638337e-01 9.71272843e-01 9.72520647e-01 9.75116203e-01 
        </DataArray>
        <DataArray type="Float64" Name="rhou">
          -6.11438128e-03 2.22748151e-03 -2.52904832e-03 -1.65641975e-02 
        </DataArray>
        <DataArray type="Float64" Name="rhov">
          1.06107508e-03 -1.65217181e-04 1.29853518e-03 -1.69263079e-02 
        </DataArray>
        <DataArray type="Float64" Name="E">
          2.20929505e+05 2.21316095e+05 2.21614333e+05 2.22219577e+05 
        </DataArray>
      </PointData>
    </Piece>
    <Piece NumberOfPoints="4" NumberOfCells="3">
      <Points>
        <DataArray type="Float64" NumberOfComponents="3" format="ascii">
          9.07021165e-01 -1.27432076e-02 0.00000000e+00 
9.17361677e-01 -1.13977119e-02 0.00000000e+00 
9.27700043e-01 -1.00357840e-02 0.00000000e+00 
9.38035965e-01 -8.65600072e-03 0.00000000e+00 

        </DataArray>
      </Points>
      <Cells>
        <DataArray type="Int32" Name="connectivity" format="ascii">
0 1
1 2
2 3

        </DataArray>
        <DataArray type="Int32" Name="offsets" format="ascii">
2 4 6 
        </DataArray>
        <DataArray type="UInt8" Name="types" format="ascii">
3 3 3 
        </DataArray>
      </Cells>
      <PointData>
        <DataArray type="Float64" Name="rho">
          9.65460790e-01 9.66893617e-01 9.68355765e-01 9.69683313e-01 
        </DataArray>
        <DataArray type="Float64" Name="rhou">
          8.92511332e-04 -6.51107466e-05 4.79950570e-04 8.60841205e-04 
        </DataArray>
        <DataArray type="Float64" Name="rhov">
          4.65538791e-05 7.25187471e-05 -1.03136050e-05 1.33815668e-03 
        </DataArray>
        <DataArray type="Float64" Name="E">
          2.19932624e+05 2.20274498e+05 2.20622660e+05 2.20939745e+05 
        </DataArray>
      </PointData>
    </Piece>
    <Piece NumberOfPoints="4" NumberOfCells="3">
      <Points>
        <DataArray type="Float64" NumberOfComponents="3" format="ascii">
          8.75986874e-01 -1.66798849e-02 0.00000000e+00 
8.86333704e-01 -1.53839625e-02 0.00000000e+00 
8.96678507e-01 -1.40720531e-02 0.00000000e+00 
9.07021165e-01 -1.27432076e-02 0.00000000e+00 

        </DataArray>
      </Points>
      <Cells>
        <DataArray type="Int32" Name="connectivity" format="ascii">
0 1
1 2
2 3

        </DataArray>
        <DataArray type="Int32" Name="offsets" format="ascii">
2 4 6 
        </DataArray>
        <DataArray type="UInt8" Name="types" format="ascii">
3 3 3 
        </DataArray>
      </Cells>
      <PointData>
        <DataArray type="Float64" Name="rho">
          9.61043854e-01 9.62522666e-01 9.63988072e-01 9.65456067e-01 
        </DataArray>
        <DataArray type="Float64" Name="rhou">
          1.49774321e-04 2.26985613e-04 1.81515590e-04 1.31446625e-04 
        </DataArray>
        <DataArray type="Float64" Name="rhov">
          6.38009053e-05 5.55560162e-05 7.02330364e-05 -1.99477683e-05 
        </DataArray>
        <DataArray type="Float64" Name="E">
          2.18878184e+05 2.19231406e+05 2.19581328e+05 2.19931550e+05 
        </DataArray>
      </PointData>
    </Piece>
    <Piece NumberOfPoints="4" NumberOfCells="3">
      <Points>
        <DataArray type="Float64" NumberOfComponents="3" format="ascii">
          8.44934702e-01 -2.04724707e-02 0.00000000e+00 
8.55287313e-01 -1.92240477e-02 0.00000000e+00 
8.65638077e-01 -1.79597028e-02 0.00000000e+00 
8.75986874e-01 -1.66798849e-02 0.00000000e+00 

        </DataArray>
      </Points>
      <Cells>
        <DataArray type="Int32" Name="connectivity" format="ascii">
0 1
1 2
2 3

        </DataArray>
        <DataArray type="Int32" Name="offsets" format="ascii">
2 4 6 
        </DataArray>
        <DataArray type="UInt8" Name="types" format="ascii">
3 3 3 
        </DataArray>
      </Cells>
      <PointData>
        <DataArray type="Float64" Name="rho">
          9.56565409e-01 9.58065587e-01 9.59560900e-01 9.61044260e-01 
        </DataArray>
        <DataArray type="Float64" Name="rhou">
          2.78397877e-04 2.20974145e-04 2.09267955e-04 2.47035272e-04 
        </DataArray>
        <DataArray type="Float64" Name="rhov">
          3.91681566e-05 5.92409944e-05 4.89348870e-05 6.67554262e-05 
        </DataArray>
        <DataArray type="Float64" Name="E">
          2.17807801e+05 2.18166436e+05 2.18523807e+05 2.18878276e+05 
        </DataArray>
      </PointData>
    </Piece>
    <Piece NumberOfPoints="4" NumberOfCells="3">
      <Points>
        <DataArray type="Float64" NumberOfComponents="3" format="ascii">
          8.13865662e-01 -2.41250079e-02 0.00000000e+00 
8.24223816e-01 -2.29226518e-02 0.00000000e+00 
8.34580123e-01 -2.17050612e-02 0.00000000e+00 
8.44934702e-01 -2.04724707e-02 0.00000000e+00 

        </DataArray>
      </Points>
      <Cells>
        <DataArray type="Int32" Name="connectivity" format="ascii">
0 1
1 2
2 3

        </DataArray>
        <DataArray type="Int32" Name="offsets" format="ascii">
2 4 6 
        </DataArray>
        <DataArray type="UInt8" Name="types" format="ascii">
3 3 3 
        </DataArray>
      </Cells>
      <PointData>
        <DataArray type="Float64" Name="rho">
          9.52003486e-01 9.53531654e-01 9.55052465e-01 9.56565185e-01 
        </DataArray>
        <DataArray type="Float64" Name="rhou">
          2.54256418e-04 2.39453680e-04 2.24859192e-04 2.30518972e-04 
        </DataArray>
        <DataArray type="Float64" Name="rhov">
          5.05268264e-05 5.11698590e-05 4.37232991e-05 3.19060802e-05 
        </DataArray>
        <DataArray type="Float64" Name="E">
          2.16717177e+05 2.17082542e+05 2.17446126e+05 2.17807750e+05 
        </DataArray>
      </PointData>
    </Piece>
    <Piece NumberOfPoints="4" NumberOfCells="3">
      <Points>
        <DataArray type="Float64" NumberOfComponents="3" format="ascii">
          7.82780826e-01 -2.76402626e-02 0.00000000e+00 
7.93144107e-01 -2.64833923e-02 0.00000000e+00 
8.03505778e-01 -2.53117718e-02 0.00000000e+00 
8.13865662e-01 -2.41250079e-02 0.00000000e+00 

        </DataArray>
      </Points>
      <Cells>
        <DataArray type="Int32" Name="connectivity" format="ascii">
0 1
1 2
2 3

        </DataArray>
        <DataArray type="Int32" Name="offsets" format="ascii">
2 4 6 
        </DataArray>
        <DataArray type="UInt8" Name="types" format="ascii">
3 3 3 
        </DataArray>
      </Cells>
      <PointData>
        <DataArray type="Float64" Name="rho">
          9.47370093e-01 9.48922608e-01 9.50467968e-01 9.52003379e-01 
        </DataArray>
        <DataArray type="Float64" Name="rhou">
          2.74363116e-04 2.53933243e-04 2.53873337e-04 2.63420580e-04 
        </DataArray>
        <DataArray type="Float64" Name="rhov">
          4.76922225e-05 3.93018891e-05 3.48108234e-05 4.88677503e-05 
        </DataArray>
        <DataArray type="Float64" Name="E">
          2.15609435e+05 2.15980593e+05 2.16350046e+05 2.16717152e+05 
        </DataArray>
      </PointData>
    </Piece>
    <Piece NumberOfPoints="4" NumberOfCells="3">
      <Points>
        <DataArray type="Float64" NumberOfComponents="3" format="ascii">
          7.51680970e-01 -3.10197193e-02 0.00000000e+00 
7.62049198e-01 -2.99084149e-02 0.00000000e+00 
7.72415876e-01 -2.87819952e-02 0.00000000e+00 
7.82780826e-01 -2.76402626e-02 0.00000000e+00 

        </DataArray>
      </Points>
      <Cells>
        <DataArray type="Int32" Name="connectivity" format="ascii">
0 1
1 2
2 3

        </DataArray>
        <DataArray type="Int32" Name="offsets" format="ascii">
2 4 6 
        </DataArray>
        <DataArray type="UInt8" Name="types" format="ascii">
3 3 3 
        </DataArray>
      </Cells>
      <PointData>
        <DataArray type="Float64" Name="rho">
          9.42672972e-01 9.44245820e-01 9.45811432e-01 9.47370057e-01 
        </DataArray>
        <DataArray type="Float64" Name="rhou">
          2.87062062e-04 2.83170409e-04 2.78040494e-04 2.64276925e-04 
        </DataArray>
        <DataArray type="Float64" Name="rhov">
          4.09732666e-05 3.43486827e-05 3.80872853e-05 4.55795063e-05 
        </DataArray>
        <DataArray type="Float64" Name="E">
          2.14486596e+05 2.14862552e+05 2.15236813e+05 2.15609427e+05 
        </DataArray>
      </PointData>
    </Piece>
    <Piece NumberOfPoints="4" NumberOfCells="3">
      <Points>
        <DataArray type="Float64" NumberOfComponents="3" format="ascii">
          7.20566452e-01 -3.42622213e-02 0.00000000e+00 
7.30939507e-01 -3.31965312e-02 0.00000000e+00 
7.41311073e-01 -3.21157984e-02 0.00000000e+00 
7.51680970e-01 -3.10197193e-02 0.00000000e+00 

        </DataArray>
      </Points>
      <Cells>
        <DataArray type="Int32" Name="connectivity" format="ascii">
0 1
1 2
2 3

        </DataArray>
        <DataArray type="Int32" Name="offsets" format="ascii">
2 4 6 
        </DataArray>
        <DataArray type="UInt8" Name="types" format="ascii">
3 3 3 
        </DataArray>
      </Cells>
      <PointData>
        <DataArray type="Float64" Name="rho">
          9.37923206e-01 9.39512356e-01 9.41095809e-01 9.42672963e-01 
        </DataArray>
        <DataArray type="Float64" Name="rhou">
          3.12274091e-04 3.05695765e-04 3.03154206e-04 2.90430800e-04 
        </DataArray>
        <DataArray type="Float64" Name="rhov">
          3.78812221e-05 2.70205424e-05 2.96616051e-05 4.14524800e-05 
        </DataArray>
        <DataArray type="Float64" Name="E">
          2.13351410e+05 2.13731174e+05 2.14109617e+05 2.14486594e+05 
        </DataArray>
      </PointData>
    </Piece>
    <Piece NumberOfPoints="4" NumberOfCells="3">
      <Points>
        <DataArray type="Float64" NumberOfComponents="3" format="ascii">
          6.89437866e-01 -3.73662710e-02 0.00000000e+00 
6.99815631e-01 -3.63472365e-02 0.00000000e+00 
7.10191846e-01 -3.53125818e-02 0.00000000e+00 
7.20566452e-01 -3.42622213e-02 0.00000000e+00 

        </DataArray>
      </Points>
      <Cells>
        <DataArray type="Int32" Name="connectivity" format="ascii">
0 1
1 2
2 3

        </DataArray>
        <DataArray type="Int32" Name="offsets" format="ascii">
2 4 6 
        </DataArray>
        <DataArray type="UInt8" Name="types" format="ascii">
3 3 3 
        </DataArray>
      </Cells>
      <PointData>
        <DataArray type="Float64" Name="rho">
          9.33139487e-01 9.34737415e-01 9.36332108e-01 9.37923217e-01 
        </DataArray>
        <DataArray type="Float64" Name="rhou">
          3.44665727e-04 3.37646303e-04 3.30965437e-04 3.13453961e-04 
        </DataArray>
        <DataArray type="Float64" Name="rhov">
          3.03049337e-05 2.30379055e-05 2.75944173e-05 3.81412002e-05 
        </DataArray>
        <DataArray type="Float64" Name="E">
          2.12208365e+05 2.12590141e+05 2.12971187e+05 2.13351413e+05 
        </DataArray>
      </PointData>
    </Piece>
    <Piece NumberOfPoints="4" NumberOfCells="3">
      <Points>
        <DataArray type="Float64" NumberOfComponents="3" format="ascii">
          6.58295333e-01 -4.03269380e-02 0.00000000e+00 
6.68677747e-01 -3.93563360e-02 0.00000000e+00 
6.79058611e-01 -3.83694395e-02 0.00000000e+00 
6.89437866e-01 -3.73662710e-02 0.00000000e+00 

        </DataArray>
      </Points>
      <Cells>
        <DataArray type="Int32" Name="connectivity" format="ascii">
0 1
1 2
2 3

        </DataArray>
        <DataArray type="Int32" Name="offsets" format="ascii">
2 4 6 
        </DataArray>
        <DataArray type="UInt8" Name="types" format="ascii">
3 3 3 
        </DataArray>
      </Cells>
      <PointData>
        <DataArray type="Float64" Name="rho">
          9.28345852e-01 9.29943941e-01 9.31541825e-01 9.33139541e-01 
        </DataArray>
        <DataArray type="Float64" Name="rhou">
          3.80980405e-04 3.75579722e-04 3.63207903e-04 3.42954054e-04 
        </DataArray>
        <DataArray type="Float64" Name="rhov">
          1.95903390e-05 1.65095091e-05 2.30716890e-05 3.10682009e-05 
        </DataArray>
        <DataArray type="Float64" Name="E">
          2.11063219e+05 2.11444944e+05 2.11826665e+05 2.12208377e+05 
        </DataArray>
      </PointData>
    </Piece>
    <Piece NumberOfPoints="4" NumberOfCells="3">
      <Points>
        <DataArray type="Float64" NumberOfComponents="3" format="ascii">
          6.27138972e-01 -4.31386717e-02 0.00000000e+00 
6.37525976e-01 -4.22184542e-02 0.00000000e+00 
6.47911429e-01 -4.12811004e-02 0.00000000e+00 
6.58295333e-01 -4.03269380e-02 0.00000000e+00 

        </DataArray>
      </Points>
      <Cells>
        <DataArray type="Int32" Name="connectivity" format="ascii">
0 1
1 2
2 3

        </DataArray>
        <DataArray type="Int32" Name="offsets" format="ascii">
2 4 6 
        </DataArray>
        <DataArray type="UInt8" Name="types" format="ascii">
3 3 3 
        </DataArray>
      </Cells>
      <PointData>
        <DataArray type="Float64" Name="rho">
          9.23573977e-01 9.25159685e-01 9.26750917e-01 9.28345885e-01 
        </DataArray>
        <DataArray type="Float64" Name="rhou">
          4.31636830e-04 4.13212637e-04 3.96337559e-04 3.82056792e-04 
        </DataArray>
        <DataArray type="Float64" Name="rhov">
          1.63679473e-05 1.52452468e-05 1.65651986e-05 2.04648284e-05 
        </DataArray>
        <DataArray type="Float64" Name="E">
          2.09923519e+05 2.10302221e+05 2.10682264e+05 2.11063226e+05 
        </DataArray>
      </PointData>
    </Piece>
    <Piece NumberOfPoints="4" NumberOfCells="3">
      <Points>
        <DataArray type="Float64" NumberOfComponents="3" format="ascii">
          5.95968783e-01 -4.57924642e-02 0.00000000e+00 
6.06360376e-01 -4.49259281e-02 0.00000000e+00 
6.16750479e-01 -4.40412909e-02 0.00000000e+00 
6.27138972e-01 -4.31386717e-02 0.00000000e+00 

        </DataArray>
      </Points>
      <Cells>
        <DataArray type="Int32" Name="connectivity" format="ascii">
0 1
1 2
2 3

        </DataArray>
        <DataArray type="Int32" Name="offsets" format="ascii">
2 4 6 
        </DataArray>
        <DataArray type="UInt8" Name="types" format="ascii">
3 3 3 
        </DataArray>
      </Cells>
      <PointData>
        <DataArray type="Float64" Name="rho">
          9.18868733e-01 9.20427565e-01 9.21996391e-01 9.23573970e-01 
        </DataArray>
        <DataArray type="Float64" Name="rhou">
          4.75874150e-04 4.64037421e-04 4.47124773e-04 4.25373981e-04 
        </DataArray>
        <DataArray type="Float64" Name="rhov">
          4.70790898e-06 1.52825123e-06 7.86603177e-06 1.71612552e-05 
        </DataArray>
        <DataArray type="Float64" Name="E">
          2.08799908e+05 2.09172131e+05 2.09546768e+05 2.09923518e+05 
        </DataArray>
      </PointData>
    </Piece>
    <Piece NumberOfPoints="4" NumberOfCells="3">
      <Points>
        <DataArray type="Float64" NumberOfComponents="3" format="ascii">
          5.64784765e-01 -4.82786149e-02 0.00000000e+00 
5.75181007e-01 -4.74695377e-02 0.00000000e+00 
5.85575700e-01 -4.66405638e-02 0.00000000e+00 
5.95968783e-01 -4.57924642e-02 0.00000000e+00 

        </DataArray>
      </Points>
      <Cells>
        <DataArray type="Int32" Name="connectivity" format="ascii">
0 1
1 2
2 3

        </DataArray>
        <DataArray type="Int32" Name="offsets" format="ascii">
2 4 6 
        </DataArray>
        <DataArray type="UInt8" Name="types" format="ascii">
3 3 3 
        </DataArray>
      </Cells>
      <PointData>
        <DataArray type="Float64" Name="rho">
          9.14289951e-01 9.15797136e-01 9.17324055e-01 9.18868845e-01 
        </DataArray>
        <DataArray type="Float64" Name="rhou">
          5.51576283e-04 5.25603010e-04 4.93126034e-04 4.69886428e-04 
        </DataArray>
        <DataArray type="Float64" Name="rhov">
          -6.46040490e-06 4.68665861e-06 9.27063584e-06 5.60457563e-06 
        </DataArray>
        <DataArray type="Float64" Name="E">
          2.07706526e+05 2.08066443e+05 2.08431063e+05 2.08799934e+05 
        </DataArray>
      </PointData>
    </Piece>
    <Piece NumberOfPoints="4" NumberOfCells="3">
      <Points>
        <DataArray type="Float64" NumberOfComponents="3" format="ascii">
          5.33586800e-01 -5.05827516e-02 0.00000000e+00 
5.43987691e-01 -4.98356484e-02 0.00000000e+00 
5.54387033e-01 -4.90674041e-02 0.00000000e+00 
5.64784765e-01 -4.82786149e-02 0.00000000e+00 

        </DataArray>
      </Points>
      <Cells>
        <DataArray type="Int32" Name="connectivity" format="ascii">
0 1
1 2
2 3

        </DataArray>
        <DataArray type="Int32" Name="offsets" format="ascii">
2 4 6 
        </DataArray>
        <DataArray type="UInt8" Name="types" format="ascii">
3 3 3 
        </DataArray>
      </Cells>
      <PointData>
        <DataArray type="Float64" Name="rho">
          9.09911132e-01 9.11342478e-01 9.12803892e-01 9.14289911e-01 
        </DataArray>
        <DataArray type="Float64" Name="rhou">
          6.25500210e-04 5.86123699e-04 5.57676409e-04 5.46131460e-04 
        </DataArray>
        <DataArray type="Float64" Name="rhov">
          -4.99900371e-06 -5.15859557e-06 -8.39178333e-06 -6.13444723e-06 
        </DataArray>
        <DataArray type="Float64" Name="E">
          2.06660783e+05 2.07002650e+05 2.07351652e+05 2.07706517e+05 
        </DataArray>
      </PointData>
    </Piece>
    <Piece NumberOfPoints="4" NumberOfCells="3">
      <Points>
        <DataArray type="Float64" NumberOfComponents="3" format="ascii">
          5.02374947e-01 -5.26902266e-02 0.00000000e+00 
5.12780428e-01 -5.20105064e-02 0.00000000e+00 
5.23184419e-01 -5.13078682e-02 0.00000000e+00 
5.33586800e-01 -5.05827516e-02 0.00000000e+00 

        </DataArray>
      </Points>
      <Cells>
        <DataArray type="Int32" Name="connectivity" format="ascii">
0 1
1 2
2 3

        </DataArray>
        <DataArray type="Int32" Name="offsets" format="ascii">
2 4 6 
        </DataArray>
        <DataArray type="UInt8" Name="types" format="ascii">
3 3 3 
        </DataArray>
      </Cells>
      <PointData>
        <DataArray type="Float64" Name="rho">
          9.05832360e-01 9.07152280e-01 9.08513875e-01 9.09911037e-01 
        </DataArray>
        <DataArray type="Float64" Name="rhou">
          7.06788673e-04 6.70719941e-04 6.43340625e-04 6.22919880e-04 
        </DataArray>
        <DataArray type="Float64" Name="rhov">
          -1.38599697e-05 -2.03995824e-05 -1.91285906e-05 -5.49424808e-06 
        </DataArray>
        <DataArray type="Float64" Name="E">
          2.05686281e+05 2.06001698e+05 2.06327000e+05 2.06660761e+05 
        </DataArray>
      </PointData>
    </Piece>
    <Piece NumberOfPoints="4" NumberOfCells="3">
      <Points>
        <DataArray type="Float64" NumberOfComponents="3" format="ascii">
          4.71149325e-01 -5.45825884e-02 0.00000000e+00 
4.81559396e-01 -5.39771840e-02 0.00000000e+00 
4.91967946e-01 -5.33461571e-02 0.00000000e+00 
5.02374947e-01 -5.26902266e-02 0.00000000e+00 

        </DataArray>
      </Points>
      <Cells>
        <DataArray type="Int32" Name="connectivity" format="ascii">
0 1
1 2
2 3

        </DataArray>
        <DataArray type="Int32" Name="offsets" format="ascii">
2 4 6 
        </DataArray>
        <DataArray type="UInt8" Name="types" format="ascii">
3 3 3 
        </DataArray>
      </Cells>
      <PointData>
        <DataArray type="Float64" Name="rho">
          9.02184870e-01 9.03344874e-01 9.04561111e-01 9.05832449e-01 
        </DataArray>
        <DataArray type="Float64" Name="rhou">
          8.13494810e-04 7.90737472e-04 7.44092078e-04 6.87257669e-04 
        </DataArray>
        <DataArray type="Float64" Name="rhov">
          -3.77280581e-05 -3.16707621e-05 -1.46702761e-05 -1.11091221e-05 
        </DataArray>
        <DataArray type="Float64" Name="E">
          2.04813966e+05 2.05091501e+05 2.05382383e+05 2.05686301e+05 
        </DataArray>
      </PointData>
    </Piece>
    <Piece NumberOfPoints="4" NumberOfCells="3">
      <Points>
        <DataArray type="Float64" NumberOfComponents="3" format="ascii">
          4.39910263e-01 -5.62384278e-02 0.00000000e+00 
4.50324744e-01 -5.57143167e-02 0.00000000e+00 
4.60737765e-01 -5.51619194e-02 0.00000000e+00 
4.71149325e-01 -5.45825884e-02 0.00000000e+00 

        </DataArray>
      </Points>
      <Cells>
        <DataArray type="Int32" Name="connectivity" format="ascii">
0 1
1 2
2 3

        </DataArray>
        <DataArray type="Int32" Name="offsets" format="ascii">
2 4 6 
        </DataArray>
        <DataArray type="UInt8" Name="types" format="ascii">
3 3 3 
        </DataArray>
      </Cells>
      <PointData>
        <DataArray type="Float64" Name="rho">
          8.99127506e-01 9.00066619e-01 9.01089283e-01 9.02184945e-01 
        </DataArray>
        <DataArray type="Float64" Name="rhou">
          9.81882211e-04 9.04750124e-04 8.46419246e-04 8.18944198e-04 
        </DataArray>
        <DataArray type="Float64" Name="rhov">
          -2.98670342e-05 -2.10206973e-05 -2.77496820e-05 -3.52487341e-05 
        </DataArray>
        <DataArray type="Float64" Name="E">
          2.04081358e+05 2.04306650e+05 2.04551682e+05 2.04813983e+05 
        </DataArray>
      </PointData>
    </Piece>
    <Piece NumberOfPoints="4" NumberOfCells="3">
      <Points>
        <DataArray type="Float64" NumberOfComponents="3" format="ascii">
          4.08658355e-01 -5.76302819e-02 0.00000000e+00 
4.19077009e-01 -5.71971126e-02 0.00000000e+00 
4.29494321e-01 -5.67329265e-02 0.00000000e+00 
4.39910263e-01 -5.62384278e-02 0.00000000e+00 

        </DataArray>
      </Points>
      <Cells>
        <DataArray type="Int32" Name="connectivity" format="ascii">
0 1
1 2
2 3

        </DataArray>
        <DataArray type="Int32" Name="offsets" format="ascii">
2 4 6 
        </DataArray>
        <DataArray type="UInt8" Name="types" format="ascii">
3 3 3 
        </DataArray>
      </Cells>
      <PointData>
        <DataArray type="Float64" Name="rho">
          8.96870131e-01 8.97521074e-01 8.98277361e-01 8.99127275e-01 
        </DataArray>
        <DataArray type="Float64" Name="rhou">
          1.13773010e-03 1.06800035e-03 1.01632782e-03 9.76578786e-04 
        </DataArray>
        <DataArray type="Float64" Name="rhov">
          -3.75655904e-05 -5.01870818e-05 -4.96123196e-05 -2.97514348e-05 
        </DataArray>
        <DataArray type="Float64" Name="E">
          2.03538026e+05 2.03695110e+05 2.03877117e+05 2.04081305e+05 
        </DataArray>
      </PointData>
    </Piece>
    <Piece NumberOfPoints="4" NumberOfCells="3">
      <Points>
        <DataArray type="Float64" NumberOfComponents="3" format="ascii">
          3.77394795e-01 -5.87291755e-02 0.00000000e+00 
3.87817174e-01 -5.83979115e-02 0.00000000e+00 
3.98238391e-01 -5.80311492e-02 0.00000000e+00 
4.08658355e-01 -5.76302819e-02 0.00000000e+00 

        </DataArray>
      </Points>
      <Cells>
        <DataArray type="Int32" Name="connectivity" format="ascii">
0 1
1 2
2 3

        </DataArray>
        <DataArray type="Int32" Name="offsets" format="ascii">
2 4 6 
        </DataArray>
        <DataArray type="UInt8" Name="types" format="ascii">
3 3 3 
        </DataArray>
      </Cells>
      <PointData>
        <DataArray type="Float64" Name="rho">
          8.95676565e-01 8.95938806e-01 8.96337745e-01 8.96870342e-01 
        </DataArray>
        <DataArray type="Float64" Name="rhou">
          1.38735294e-03 1.31349994e-03 1.21183511e-03 1.10664809e-03 
        </DataArray>
        <DataArray type="Float64" Name="rhov">
          -8.01967675e-05 -5.26736827e-05 -2.52098604e-05 -3.27229786e-05 
        </DataArray>
        <DataArray type="Float64" Name="E">
          2.03246228e+05 2.03311408e+05 2.03408957e+05 2.03538075e+05 
        </DataArray>
      </PointData>
    </Piece>
    <Piece NumberOfPoints="4" NumberOfCells="3">
      <Points>
        <DataArray type="Float64" NumberOfComponents="3" format="ascii">
          3.46121490e-01 -5.95011823e-02 0.00000000e+00 
3.56546819e-01 -5.92821389e-02 0.00000000e+00 
3.66971314e-01 -5.90242445e-02 0.00000000e+00 
3.77394795e-01 -5.87291755e-02 0.00000000e+00 

        </DataArray>
      </Points>
      <Cells>
        <DataArray type="Int32" Name="connectivity" format="ascii">
0 1
1 2
2 3

        </DataArray>
        <DataArray type="Int32" Name="offsets" format="ascii">
2 4 6 
        </DataArray>
        <DataArray type="UInt8" Name="types" format="ascii">
3 3 3 
        </DataArray>
      </Cells>
      <PointData>
        <DataArray type="Float64" Name="rho">
          8.95838086e-01 8.95608778e-01 8.95560710e-01 8.95676657e-01 
        </DataArray>
        <DataArray type="Float64" Name="rhou">
          1.73074823e-03 1.58621012e-03 1.45720273e-03 1.39078113e-03 
        </DataArray>
        <DataArray type="Float64" Name="rhov">
          -1.14324346e-04 -7.26847610e-05 -6.55756525e-05 -7.56093024e-05 
        </DataArray>
        <DataArray type="Float64" Name="E">
          2.03275027e+05 2.03223944e+05 2.03215704e+05 2.03246248e+05 
        </DataArray>
      </PointData>
    </Piece>
    <Piece NumberOfPoints="4" NumberOfCells="3">
      <Points>
        <DataArray type="Float64" NumberOfComponents="3" format="ascii">
          3.14841360e-01 -5.99102043e-02 0.00000000e+00 
3.25268596e-01 -5.98174632e-02 0.00000000e+00 
3.35695356e-01 -5.96801341e-02 0.00000000e+00 
3.46121490e-01 -5.95011823e-02 0.00000000e+00 

        </DataArray>
      </Points>
      <Cells>
        <DataArray type="Int32" Name="connectivity" format="ascii">
0 1
1 2
2 3

        </DataArray>
        <DataArray type="Int32" Name="offsets" format="ascii">
2 4 6 
        </DataArray>
        <DataArray type="UInt8" Name="types" format="ascii">
3 3 3 
        </DataArray>
      </Cells>
      <PointData>
        <DataArray type="Float64" Name="rho">
          8.97758959e-01 8.96883497e-01 8.96252441e-01 8.95837796e-01 
        </DataArray>
        <DataArray type="Float64" Name="rhou">
          2.18148524e-03 1.93702129e-03 1.77193626e-03 1.69521607e-03 
        </DataArray>
        <DataArray type="Float64" Name="rhov">
          -5.10066381e-05 -2.78622239e-05 -6.02172055e-05 -1.13572641e-04 
        </DataArray>
        <DataArray type="Float64" Name="E">
          2.03720059e+05 2.03516130e+05 2.03369963e+05 2.03274961e+05 
        </DataArray>
      </PointData>
    </Piece>
    <Piece NumberOfPoints="4" NumberOfCells="3">
      <Points>
        <DataArray type="Float64" NumberOfComponents="3" format="ascii">
          2.83558637e-01 -5.98983802e-02 0.00000000e+00 
2.93986142e-01 -5.99516556e-02 0.00000000e+00 
3.04413795e-01 -5.99554181e-02 0.00000000e+00 
3.14841360e-01 -5.99102043e-02 0.00000000e+00 

        </DataArray>
      </Points>
      <Cells>
        <DataArray type="Int32" Name="connectivity" format="ascii">
0 1
1 2
2 3

        </DataArray>
        <DataArray type="Int32" Name="offsets" format="ascii">
2 4 6 
        </DataArray>
        <DataArray type="UInt8" Name="types" format="ascii">
3 3 3 
        </DataArray>
      </Cells>
      <PointData>
        <DataArray type="Float64" Name="rho">
          9.01952768e-01 9.00283785e-01 8.98891394e-01 8.97758247e-01 
        </DataArray>
        <DataArray type="Float64" Name="rhou">
          2.65970130e-03 2.49457278e-03 2.35671851e-03 2.17249649e-03 
        </DataArray>
        <DataArray type="Float64" Name="rhov">
          -1.07616438e-04 -1.74658533e-04 -1.39112284e-04 -4.44121755e-05 
        </DataArray>
        <DataArray type="Float64" Name="E">
          2.04703505e+05 2.04311338e+05 2.03984842e+05 2.03719897e+05 
        </DataArray>
      </PointData>
    </Piece>
    <Piece NumberOfPoints="4" NumberOfCells="3">
      <Points>
        <DataArray type="Float64" NumberOfComponents="3" format="ascii">
          2.52279758e-01 -5.94130717e-02 0.00000000e+00 
2.62705088e-01 -5.96327744e-02 0.00000000e+00 
2.73131490e-01 -5.97934239e-02 0.00000000e+00 
2.83558637e-01 -5.98983802e-02 0.00000000e+00 

        </DataArray>
      </Points>
      <Cells>
        <DataArray type="Int32" Name="connectivity" format="ascii">
0 1
1 2
2 3

        </DataArray>
        <DataArray type="Int32" Name="offsets" format="ascii">
2 4 6 
        </DataArray>
        <DataArray type="UInt8" Name="types" format="ascii">
3 3 3 
        </DataArray>
      </Cells>
      <PointData>
        <DataArray type="Float64" Name="rho">
          9.09037808e-01 9.06306836e-01 9.03948173e-01 9.01953688e-01 
        </DataArray>
        <DataArray type="Float64" Name="rhou">
          3.63275023e-03 3.32732377e-03 2.99164836e-03 2.64597884e-03 
        </DataArray>
        <DataArray type="Float64" Name="rhov">
          -2.55565391e-04 -1.63640847e-04 -7.66416396e-05 -8.84516193e-05 
        </DataArray>
        <DataArray type="Float64" Name="E">
          2.06372253e+05 2.05728349e+05 2.05172911e+05 2.04703718e+05 
        </DataArray>
      </PointData>
    </Piece>
    <Piece NumberOfPoints="4" NumberOfCells="3">
      <Points>
        <DataArray type="Float64" NumberOfComponents="3" format="ascii">
          2.21014455e-01 -5.83752058e-02 0.00000000e+00 
2.31433928e-01 -5.87876961e-02 0.00000000e+00 
2.41855890e-01 -5.91322705e-02 0.00000000e+00 
2.52279758e-01 -5.94130717e-02 0.00000000e+00 

        </DataArray>
      </Points>
      <Cells>
        <DataArray type="Int32" Name="connectivity" format="ascii">
0 1
1 2
2 3

        </DataArray>
        <DataArray type="Int32" Name="offsets" format="ascii">
2 4 6 
        </DataArray>
        <DataArray type="UInt8" Name="types" format="ascii">
3 3 3 
        </DataArray>
      </Cells>
      <PointData>
        <DataArray type="Float64" Name="rho">
          9.19794765e-01 9.15733791e-01 9.12163870e-01 9.09037989e-01 
        </DataArray>
        <DataArray type="Float64" Name="rhou">
          4.98597743e-03 4.40071190e-03 3.95438465e-03 3.66688666e-03 
        </DataArray>
        <DataArray type="Float64" Name="rhov">
          -3.61013315e-04 -2.57144642e-04 -2.25072614e-04 -2.39179372e-04 
        </DataArray>
        <DataArray type="Float64" Name="E">
          2.08913328e+05 2.07953357e+05 2.07110083e+05 2.06372290e+05 
        </DataArray>
      </PointData>
    </Piece>
    <Piece NumberOfPoints="4" NumberOfCells="3">
      <Points>
        <DataArray type="Float64" NumberOfComponents="3" format="ascii">
          1.89777538e-01 -5.66898957e-02 0.00000000e+00 
2.00185493e-01 -5.73302582e-02 0.00000000e+00 
2.10598081e-01 -5.78906052e-02 0.00000000e+00 
2.21014455e-01 -5.83752058e-02 0.00000000e+00 

        </DataArray>
      </Points>
      <Cells>
        <DataArray type="Int32" Name="connectivity" format="ascii">
0 1
1 2
2 3

        </DataArray>
        <DataArray type="Int32" Name="offsets" format="ascii">
2 4 6 
        </DataArray>
        <DataArray type="UInt8" Name="types" format="ascii">
3 3 3 
        </DataArray>
      </Cells>
      <PointData>
        <DataArray type="Float64" Name="rho">
          9.35309037e-01 9.29531785e-01 9.24380231e-01 9.19794005e-01 
        </DataArray>
        <DataArray type="Float64" Name="rhou">
          6.90821728e-03 6.10752920e-03 5.52190423e-03 5.04841425e-03 
        </DataArray>
        <DataArray type="Float64" Name="rhov">
          -6.41475017e-04 -5.71085961e-04 -4.71746072e-04 -3.48248836e-04 
        </DataArray>
        <DataArray type="Float64" Name="E">
          2.12586765e+05 2.11217870e+05 2.09998144e+05 2.08913154e+05 
        </DataArray>
      </PointData>
    </Piece>
    <Piece NumberOfPoints="4" NumberOfCells="3">
      <Points>
        <DataArray type="Float64" NumberOfComponents="3" format="ascii">
          1.58592433e-01 -5.42296544e-02 0.00000000e+00 
1.68979734e-01 -5.51457107e-02 0.00000000e+00 
1.79375216e-01 -5.59638515e-02 0.00000000e+00 
1.89777538e-01 -5.66898957e-02 0.00000000e+00 

        </DataArray>
      </Points>
      <Cells>
        <DataArray type="Int32" Name="connectivity" format="ascii">
0 1
1 2
2 3

        </DataArray>
        <DataArray type="Int32" Name="offsets" format="ascii">
2 4 6 
        </DataArray>
        <DataArray type="UInt8" Name="types" format="ascii">
3 3 3 
        </DataArray>
      </Cells>
      <PointData>
        <DataArray type="Float64" Name="rho">
          9.57145221e-01 9.49056162e-01 9.41794358e-01 9.35309455e-01 
        </DataArray>
        <DataArray type="Float64" Name="rhou">
          9.96685089e-03 8.89226768e-03 7.94234613e-03 6.97950228e-03 
        </DataArray>
        <DataArray type="Float64" Name="rhov">
          -1.39243581e-03 -1.20118131e-03 -8.70514796e-04 -6.00922259e-04 
        </DataArray>
        <DataArray type="Float64" Name="E">
          2.17768435e+05 2.15847417e+05 2.14124403e+05 2.12586865e+05 
        </DataArray>
      </PointData>
    </Piece>
    <Piece NumberOfPoints="4" NumberOfCells="3">
      <Points>
        <DataArray type="Float64" NumberOfComponents="3" format="ascii">
          1.27497971e-01 -5.08146733e-02 0.00000000e+00 
1.37849152e-01 -5.20747155e-02 0.00000000e+00 
1.48214847e-01 -5.32093942e-02 0.00000000e+00 
1.58592433e-01 -5.42296544e-02 0.00000000e+00 

        </DataArray>
      </Points>
      <Cells>
        <DataArray type="Int32" Name="connectivity" format="ascii">
0 1
1 2
2 3

        </DataArray>
        <DataArray type="Int32" Name="offsets" format="ascii">
2 4 6 
        </DataArray>
        <DataArray type="UInt8" Name="types" format="ascii">
3 3 3 
        </DataArray>
      </Cells>
      <PointData>
        <DataArray type="Float64" Name="rho">
          9.87729185e-01 9.76350822e-01 9.66176967e-01 9.57149269e-01 
        </DataArray>
        <DataArray type="Float64" Name="rhou">
          1.44982118e-02 1.33196690e-02 1.15146556e-02 9.99538117e-03 
        </DataArray>
        <DataArray type="Float64" Name="rhov">
          -2.26749274e-03 -2.02035123e-03 -1.40542566e-03 -1.32038195e-03 
        </DataArray>
        <DataArray type="Float64" Name="E">
          2.25043178e+05 2.22334371e+05 2.19914939e+05 2.17769363e+05 
        </DataArray>
      </PointData>
    </Piece>
    <Piece NumberOfPoints="4" NumberOfCells="3">
      <Points>
        <DataArray type="Float64" NumberOfComponents="3" format="ascii">
          9.65642184e-02 -4.61716652e-02 0.00000000e+00 
1.06852271e-01 -4.78802323e-02 0.00000000e+00 
1.17164567e-01 -4.94215861e-02 0.00000000e+00 
1.27497971e-01 -5.08146733e-02 0.00000000e+00 

        </DataArray>
      </Points>
      <Cells>
        <DataArray type="Int32" Name="connectivity" format="ascii">
0 1
1 2
2 3

        </DataArray>
        <DataArray type="Int32" Name="offsets" format="ascii">
2 4 6 
        </DataArray>
        <DataArray type="UInt8" Name="types" format="ascii">
3 3 3 
        </DataArray>
      </Cells>
      <PointData>
        <DataArray type="Float64" Name="rho">
          1.03117522e+00 1.01485273e+00 1.00039983e+00 9.87737527e-01 
        </DataArray>
        <DataArray type="Float64" Name="rhou">
          2.46733138e-02 1.80877273e-02 1.71727087e-02 1.28555926e-02 
        </DataArray>
        <DataArray type="Float64" Name="rhov">
          -9.19814820e-04 -7.24016631e-04 -1.54545774e-03 -1.58829735e-03 
        </DataArray>
        <DataArray type="Float64" Name="E">
          2.35411092e+05 2.31511360e+05 2.28063363e+05 2.25045188e+05 
        </DataArray>
      </PointData>
    </Piece>
  </UnstructuredGrid>
</VTKFile>
