<?xml version="1.0"?>
<VTKFile type="UnstructuredGrid" version="0.1" byte_order="LittleEndian">
  <UnstructuredGrid>
    <Piece NumberOfPoints="4" NumberOfCells="3">
      <Points>
        <DataArray type="Float64" NumberOfComponents="3" format="ascii">
          9.65642184e-02 -4.61716652e-02 0.00000000e+00 
9.26280916e-02 -4.54656407e-02 0.00000000e+00 
8.86965096e-02 -4.47326750e-02 0.00000000e+00 
8.47706869e-02 -4.39694971e-02 0.00000000e+00 

        </DataArray>
      </Points>
      <Cells>
        <DataArray type="Int32" Name="connectivity" format="ascii">
0 1
1 2
2 3

        </DataArray>
        <DataArray type="Int32" Name="offsets" format="ascii">
2 4 6 
        </DataArray>
        <DataArray type="UInt8" Name="types" format="ascii">
3 3 3 
        </DataArray>
      </Cells>
      <PointData>
        <DataArray type="Float64" Name="rho">
          1.04702065e+00 1.05386751e+00 1.06102320e+00 1.06861752e+00 
        </DataArray>
        <DataArray type="Float64" Name="rhou">
          2.83673135e-02 2.17793686e-02 2.44364077e-02 2.45594215e-02 
        </DataArray>
        <DataArray type="Float64" Name="rhov">
          -2.32554826e-03 -1.10927881e-03 -7.00984914e-04 -1.02166456e-03 
        </DataArray>
        <DataArray type="Float64" Name="E">
          2.39757825e+05 2.41401863e+05 2.43121532e+05 2.44946782e+05 
        </DataArray>
      </PointData>
    </Piece>
    <Piece NumberOfPoints="4" NumberOfCells="3">
      <Points>
        <DataArray type="Float64" NumberOfComponents="3" format="ascii">
          8.47706869e-02 -4.39694971e-02 0.00000000e+00 
8.08513016e-02 -4.31745499e-02 0.00000000e+00 
7.69388378e-02 -4.23462167e-02 0.00000000e+00 
7.30340332e-02 -4.14824970e-02 0.00000000e+00 

        </DataArray>
      </Points>
      <Cells>
        <DataArray type="Int32" Name="connectivity" format="ascii">
0 1
1 2
2 3

        </DataArray>
        <DataArray type="Int32" Name="offsets" format="ascii">
2 4 6 
        </DataArray>
        <DataArray type="UInt8" Name="types" format="ascii">
3 3 3 
        </DataArray>
      </Cells>
      <PointData>
        <DataArray type="Float64" Name="rho">
          1.06861638e+00 1.07663167e+00 1.08510267e+00 1.09409926e+00 
        </DataArray>
        <DataArray type="Float64" Name="rhou">
          2.46631092e-02 2.38051746e-02 2.23518136e-02 2.07431793e-02 
        </DataArray>
        <DataArray type="Float64" Name="rhov">
          -8.27097375e-04 -6.15510959e-04 3.01214112e-04 1.50480952e-03 
        </DataArray>
        <DataArray type="Float64" Name="E">
          2.44946530e+05 2.46874744e+05 2.48913659e+05 2.51080094e+05 
        </DataArray>
      </PointData>
    </Piece>
    <Piece NumberOfPoints="4" NumberOfCells="3">
      <Points>
        <DataArray type="Float64" NumberOfComponents="3" format="ascii">
          7.30340332e-02 -4.14824970e-02 0.00000000e+00 
6.91377968e-02 -4.05809283e-02 0.00000000e+00 
6.52511865e-02 -3.96387354e-02 0.00000000e+00 
6.13753870e-02 -3.86530459e-02 0.00000000e+00 

        </DataArray>
      </Points>
      <Cells>
        <DataArray type="Int32" Name="connectivity" format="ascii">
0 1
1 2
2 3

        </DataArray>
        <DataArray type="Int32" Name="offsets" format="ascii">
2 4 6 
        </DataArray>
        <DataArray type="UInt8" Name="types" format="ascii">
3 3 3 
        </DataArray>
      </Cells>
      <PointData>
        <DataArray type="Float64" Name="rho">
          1.09409983e+00 1.10370461e+00 1.11394975e+00 1.12489476e+00 
        </DataArray>
        <DataArray type="Float64" Name="rhou">
          2.08567365e-02 1.84576884e-02 1.43024976e-02 8.72833394e-03 
        </DataArray>
        <DataArray type="Float64" Name="rhov">
          1.33918690e-03 2.10182596e-03 4.20827022e-03 7.42759905e-03 
        </DataArray>
        <DataArray type="Float64" Name="E">
          2.51080250e+05 2.53395145e+05 2.55865822e+05 2.58507300e+05 
        </DataArray>
      </PointData>
    </Piece>
    <Piece NumberOfPoints="4" NumberOfCells="3">
      <Points>
        <DataArray type="Float64" NumberOfComponents="3" format="ascii">
          6.13753870e-02 -3.86530459e-02 0.00000000e+00 
5.75117208e-02 -3.76208089e-02 0.00000000e+00 
5.36618084e-02 -3.65384258e-02 0.00000000e+00 
4.98276278e-02 -3.54015976e-02 0.00000000e+00 

        </DataArray>
      </Points>
      <Cells>
        <DataArray type="Int32" Name="connectivity" format="ascii">
0 1
1 2
2 3

        </DataArray>
        <DataArray type="Int32" Name="offsets" format="ascii">
2 4 6 
        </DataArray>
        <DataArray type="UInt8" Name="types" format="ascii">
3 3 3 
        </DataArray>
      </Cells>
      <PointData>
        <DataArray type="Float64" Name="rho">
          1.12489502e+00 1.13662164e+00 1.14921504e+00 1.16280635e+00 
        </DataArray>
        <DataArray type="Float64" Name="rhou">
          8.66926315e-03 1.55291883e-03 -7.72060377e-03 -1.93201851e-02 
        </DataArray>
        <DataArray type="Float64" Name="rhov">
          7.19825881e-03 1.19485090e-02 2.00890727e-02 3.16355141e-02 
        </DataArray>
        <DataArray type="Float64" Name="E">
          2.58507363e+05 2.61341211e+05 2.64386942e+05 2.67677088e+05 
        </DataArray>
      </PointData>
    </Piece>
    <Piece NumberOfPoints="4" NumberOfCells="3">
      <Points>
        <DataArray type="Float64" NumberOfComponents="3" format="ascii">
          4.98276278e-02 -3.54015976e-02 0.00000000e+00 
4.60115410e-02 -3.42054628e-02 0.00000000e+00 
4.22164090e-02 -3.29444520e-02 0.00000000e+00 
3.84457745e-02 -3.16120051e-02 0.00000000e+00 

        </DataArray>
      </Points>
      <Cells>
        <DataArray type="Int32" Name="connectivity" format="ascii">
0 1
1 2
2 3

        </DataArray>
        <DataArray type="Int32" Name="offsets" format="ascii">
2 4 6 
        </DataArray>
        <DataArray type="UInt8" Name="types" format="ascii">
3 3 3 
        </DataArray>
      </Cells>
      <PointData>
        <DataArray type="Float64" Name="rho">
          1.16280625e+00 1.17749423e+00 1.19339172e+00 1.21068956e+00 
        </DataArray>
        <DataArray type="Float64" Name="rhou">
          -1.97823573e-02 -3.39620450e-02 -5.29932944e-02 -7.57660248e-02 
        </DataArray>
        <DataArray type="Float64" Name="rhov">
          3.14207975e-02 4.81959487e-02 7.60021811e-02 1.16669513e-01 
        </DataArray>
        <DataArray type="Float64" Name="E">
          2.67677031e+05 2.71238928e+05 2.75098675e+05 2.79304482e+05 
        </DataArray>
      </PointData>
    </Piece>
    <Piece NumberOfPoints="4" NumberOfCells="3">
      <Points>
        <DataArray type="Float64" NumberOfComponents="3" format="ascii">
          3.84457745e-02 -3.16120051e-02 0.00000000e+00 
3.47041376e-02 -3.02002355e-02 0.00000000e+00 
3.09973080e-02 -2.86995135e-02 0.00000000e+00 
2.73328498e-02 -2.70981900e-02 0.00000000e+00 

        </DataArray>
      </Points>
      <Cells>
        <DataArray type="Int32" Name="connectivity" format="ascii">
0 1
1 2
2 3

        </DataArray>
        <DataArray type="Int32" Name="offsets" format="ascii">
2 4 6 
        </DataArray>
        <DataArray type="UInt8" Name="types" format="ascii">
3 3 3 
        </DataArray>
      </Cells>
      <PointData>
        <DataArray type="Float64" Name="rho">
          1.21068975e+00 1.22957629e+00 1.25024545e+00 1.27306702e+00 
        </DataArray>
        <DataArray type="Float64" Name="rhou">
          -7.67272398e-02 -1.00826227e-01 -1.29399154e-01 -1.54716974e-01 
        </DataArray>
        <DataArray type="Float64" Name="rhov">
          1.16585766e-01 1.72384987e-01 2.58708814e-01 3.79583014e-01 
        </DataArray>
        <DataArray type="Float64" Name="E">
          2.79304392e+05 2.83907983e+05 2.88954324e+05 2.94537353e+05 
        </DataArray>
      </PointData>
    </Piece>
    <Piece NumberOfPoints="4" NumberOfCells="3">
      <Points>
        <DataArray type="Float64" NumberOfComponents="3" format="ascii">
          2.73328498e-02 -2.70981900e-02 0.00000000e+00 
2.37206947e-02 -2.53822580e-02 0.00000000e+00 
2.01744195e-02 -2.35341713e-02 0.00000000e+00 
1.67132635e-02 -2.15314496e-02 0.00000000e+00 

        </DataArray>
      </Points>
      <Cells>
        <DataArray type="Int32" Name="connectivity" format="ascii">
0 1
1 2
2 3

        </DataArray>
        <DataArray type="Int32" Name="offsets" format="ascii">
2 4 6 
        </DataArray>
        <DataArray type="UInt8" Name="types" format="ascii">
3 3 3 
        </DataArray>
      </Cells>
      <PointData>
        <DataArray type="Float64" Name="rho">
          1.27307195e+00 1.29838507e+00 1.32664705e+00 1.35919099e+00 
        </DataArray>
        <DataArray type="Float64" Name="rhou">
          -1.55129546e-01 -1.68833874e-01 -1.52750996e-01 -5.60864292e-02 
        </DataArray>
        <DataArray type="Float64" Name="rhov">
          3.80277786e-01 5.32764971e-01 7.44616808e-01 9.64515072e-01 
        </DataArray>
        <DataArray type="Float64" Name="E">
          2.94538271e+05 3.00752615e+05 3.07703148e+05 3.15716368e+05 
        </DataArray>
      </PointData>
    </Piece>
    <Piece NumberOfPoints="4" NumberOfCells="3">
      <Points>
        <DataArray type="Float64" NumberOfComponents="3" format="ascii">
          1.67132635e-02 -2.15314496e-02 0.00000000e+00 
1.33649679e-02 -1.93456318e-02 0.00000000e+00 
1.01706637e-02 -1.69409402e-02 0.00000000e+00 
7.19343964e-03 -1.42731192e-02 0.00000000e+00 

        </DataArray>
      </Points>
      <Cells>
        <DataArray type="Int32" Name="connectivity" format="ascii">
0 1
1 2
2 3

        </DataArray>
        <DataArray type="Int32" Name="offsets" format="ascii">
2 4 6 
        </DataArray>
        <DataArray type="UInt8" Name="types" format="ascii">
3 3 3 
        </DataArray>
      </Cells>
      <PointData>
        <DataArray type="Float64" Name="rho">
          1.35908442e+00 1.39865581e+00 1.44558654e+00 1.51034793e+00 
        </DataArray>
        <DataArray type="Float64" Name="rhou">
          -3.34001445e-02 1.16071564e-01 4.58951250e-01 8.81542507e-01 
        </DataArray>
        <DataArray type="Float64" Name="rhov">
          9.26060971e-01 1.13059130e+00 1.07708963e+00 5.26802362e-01 
        </DataArray>
        <DataArray type="Float64" Name="E">
          3.15691941e+05 3.25437913e+05 3.36988612e+05 3.52811932e+05 
        </DataArray>
      </PointData>
    </Piece>
    <Piece NumberOfPoints="4" NumberOfCells="3">
      <Points>
        <DataArray type="Float64" NumberOfComponents="3" format="ascii">
          7.19343964e-03 -1.42731192e-02 0.00000000e+00 
4.53082798e-03 -1.12927537e-02 0.00000000e+00 
2.33371323e-03 -7.95678515e-03 0.00000000e+00 
8.10639584e-04 -4.26717056e-03 0.00000000e+00 

        </DataArray>
      </Points>
      <Cells>
        <DataArray type="Int32" Name="connectivity" format="ascii">
0 1
1 2
2 3

        </DataArray>
        <DataArray type="Int32" Name="offsets" format="ascii">
2 4 6 
        </DataArray>
        <DataArray type="UInt8" Name="types" format="ascii">
3 3 3 
        </DataArray>
      </Cells>
      <PointData>
        <DataArray type="Float64" Name="rho">
          1.51086824e+00 1.58505928e+00 1.67402293e+00 1.74290009e+00 
        </DataArray>
        <DataArray type="Float64" Name="rhou">
          8.06486674e-01 9.37819136e-01 2.64574061e-01 -1.27613378e+00 
        </DataArray>
        <DataArray type="Float64" Name="rhov">
          6.25362995e-01 -5.07448889e-01 -1.73378249e+00 -1.83032467e+00 
        </DataArray>
        <DataArray type="Float64" Name="E">
          3.52939735e+05 3.71101862e+05 3.92757535e+05 4.09546820e+05 
        </DataArray>
      </PointData>
    </Piece>
    <Piece NumberOfPoints="4" NumberOfCells="3">
      <Points>
        <DataArray type="Float64" NumberOfComponents="3" format="ascii">
          8.10639584e-04 -4.26717056e-03 0.00000000e+00 
1.91366620e-04 -3.27450951e-04 0.00000000e+00 
6.40850572e-04 3.63462302e-03 0.00000000e+00 
2.03182548e-03 7.37539819e-03 0.00000000e+00 

        </DataArray>
      </Points>
      <Cells>
        <DataArray type="Int32" Name="connectivity" format="ascii">
0 1
1 2
2 3

        </DataArray>
        <DataArray type="Int32" Name="offsets" format="ascii">
2 4 6 
        </DataArray>
        <DataArray type="UInt8" Name="types" format="ascii">
3 3 3 
        </DataArray>
      </Cells>
      <PointData>
        <DataArray type="Float64" Name="rho">
          1.74132398e+00 1.76672349e+00 1.71710658e+00 1.62534384e+00 
        </DataArray>
        <DataArray type="Float64" Name="rhou">
          -1.15009022e+00 -1.89081688e+00 -8.49445794e-01 7.47726817e-01 
        </DataArray>
        <DataArray type="Float64" Name="rhov">
          -1.98671461e+00 3.53275569e-01 1.88493462e+00 1.53059729e+00 
        </DataArray>
        <DataArray type="Float64" Name="E">
          4.09164193e+05 4.15266209e+05 4.03104781e+05 3.80632905e+05 
        </DataArray>
      </PointData>
    </Piece>
    <Piece NumberOfPoints="4" NumberOfCells="3">
      <Points>
        <DataArray type="Float64" NumberOfComponents="3" format="ascii">
          2.03182548e-03 7.37539819e-03 0.00000000e+00 
4.13410179e-03 1.07714310e-02 0.00000000e+00 
6.73249783e-03 1.38076087e-02 0.00000000e+00 
9.66598373e-03 1.65232457e-02 0.00000000e+00 

        </DataArray>
      </Points>
      <Cells>
        <DataArray type="Int32" Name="connectivity" format="ascii">
0 1
1 2
2 3

        </DataArray>
        <DataArray type="Int32" Name="offsets" format="ascii">
2 4 6 
        </DataArray>
        <DataArray type="UInt8" Name="types" format="ascii">
3 3 3 
        </DataArray>
      </Cells>
      <PointData>
        <DataArray type="Float64" Name="rho">
          1.62571642e+00 1.51929285e+00 1.43052912e+00 1.36393418e+00 
        </DataArray>
        <DataArray type="Float64" Name="rhou">
          7.19135088e-01 1.16042404e+00 8.50373590e-01 3.85113006e-01 
        </DataArray>
        <DataArray type="Float64" Name="rhov">
          1.76398326e+00 7.49285973e-02 -1.06983583e+00 -1.40210580e+00 
        </DataArray>
        <DataArray type="Float64" Name="E">
          3.80726768e+05 3.54818189e+05 3.33170940e+05 3.16847781e+05 
        </DataArray>
      </PointData>
    </Piece>
    <Piece NumberOfPoints="4" NumberOfCells="3">
      <Points>
        <DataArray type="Float64" NumberOfComponents="3" format="ascii">
          9.66598373e-03 1.65232457e-02 0.00000000e+00 
1.28298048e-02 1.89677756e-02 0.00000000e+00 
1.61561389e-02 2.11867876e-02 0.00000000e+00 
1.96009967e-02 2.32173651e-02 0.00000000e+00 

        </DataArray>
      </Points>
      <Cells>
        <DataArray type="Int32" Name="connectivity" format="ascii">
0 1
1 2
2 3

        </DataArray>
        <DataArray type="Int32" Name="offsets" format="ascii">
2 4 6 
        </DataArray>
        <DataArray type="UInt8" Name="types" format="ascii">
3 3 3 
        </DataArray>
      </Cells>
      <PointData>
        <DataArray type="Float64" Name="rho">
          1.36372840e+00 1.31156989e+00 1.27283162e+00 1.23874139e+00 
        </DataArray>
        <DataArray type="Float64" Name="rhou">
          3.94785271e-01 -9.76803554e-03 -1.94636760e-01 -2.17406056e-01 
        </DataArray>
        <DataArray type="Float64" Name="rhov">
          -1.42650704e+00 -1.32561636e+00 -9.96900191e-01 -6.71558165e-01 
        </DataArray>
        <DataArray type="Float64" Name="E">
          3.16795364e+05 3.04010331e+05 2.94464447e+05 2.86089112e+05 
        </DataArray>
      </PointData>
    </Piece>
    <Piece NumberOfPoints="4" NumberOfCells="3">
      <Points>
        <DataArray type="Float64" NumberOfComponents="3" format="ascii">
          1.96009967e-02 2.32173651e-02 0.00000000e+00 
2.31348258e-02 2.50891000e-02 0.00000000e+00 
2.67372411e-02 2.68253610e-02 0.00000000e+00 
3.03938854e-02 2.84444261e-02 0.00000000e+00 

        </DataArray>
      </Points>
      <Cells>
        <DataArray type="Int32" Name="connectivity" format="ascii">
0 1
1 2
2 3

        </DataArray>
        <DataArray type="Int32" Name="offsets" format="ascii">
2 4 6 
        </DataArray>
        <DataArray type="UInt8" Name="types" format="ascii">
3 3 3 
        </DataArray>
      </Cells>
      <PointData>
        <DataArray type="Float64" Name="rho">
          1.23880558e+00 1.20987854e+00 1.18400946e+00 1.16058292e+00 
        </DataArray>
        <DataArray type="Float64" Name="rhou">
          -2.30612255e-01 -2.18737401e-01 -1.74461225e-01 -1.32756328e-01 
        </DataArray>
        <DataArray type="Float64" Name="rhov">
          -6.89977638e-01 -4.38193670e-01 -2.50626776e-01 -1.37062933e-01 
        </DataArray>
        <DataArray type="Float64" Name="E">
          2.86104169e+05 2.79016165e+05 2.72699827e+05 2.66996401e+05 
        </DataArray>
      </PointData>
    </Piece>
    <Piece NumberOfPoints="4" NumberOfCells="3">
      <Points>
        <DataArray type="Float64" NumberOfComponents="3" format="ascii">
          3.03938854e-02 2.84444261e-02 0.00000000e+00 
3.40943485e-02 2.99607720e-02 0.00000000e+00 
3.78307216e-02 3.13864015e-02 0.00000000e+00 
4.15969416e-02 3.27312648e-02 0.00000000e+00 

        </DataArray>
      </Points>
      <Cells>
        <DataArray type="Int32" Name="connectivity" format="ascii">
0 1
1 2
2 3

        </DataArray>
        <DataArray type="Int32" Name="offsets" format="ascii">
2 4 6 
        </DataArray>
        <DataArray type="UInt8" Name="types" format="ascii">
3 3 3 
        </DataArray>
      </Cells>
      <PointData>
        <DataArray type="Float64" Name="rho">
          1.16058109e+00 1.13937781e+00 1.12011568e+00 1.10255039e+00 
        </DataArray>
        <DataArray type="Float64" Name="rhou">
          -1.30940983e-01 -9.09278359e-02 -5.81412993e-02 -3.50589168e-02 
        </DataArray>
        <DataArray type="Float64" Name="rhov">
          -1.35601034e-01 -5.85693771e-02 -1.07491321e-02 1.52212451e-02 
        </DataArray>
        <DataArray type="Float64" Name="E">
          2.66996227e+05 2.61852446e+05 2.57190481e+05 2.52946656e+05 
        </DataArray>
      </PointData>
    </Piece>
    <Piece NumberOfPoints="4" NumberOfCells="3">
      <Points>
        <DataArray type="Float64" NumberOfComponents="3" format="ascii">
          4.15969416e-02 3.27312648e-02 0.00000000e+00 
4.53883260e-02 3.40034962e-02 0.00000000e+00 
4.92011942e-02 3.52098532e-02 0.00000000e+00 
5.30325845e-02 3.63560505e-02 0.00000000e+00 

        </DataArray>
      </Points>
      <Cells>
        <DataArray type="Int32" Name="connectivity" format="ascii">
0 1
1 2
2 3

        </DataArray>
        <DataArray type="Int32" Name="offsets" format="ascii">
2 4 6 
        </DataArray>
        <DataArray type="UInt8" Name="types" format="ascii">
3 3 3 
        </DataArray>
      </Cells>
      <PointData>
        <DataArray type="Float64" Name="rho">
          1.10255097e+00 1.08649105e+00 1.07175286e+00 1.05817718e+00 
        </DataArray>
        <DataArray type="Float64" Name="rhou">
          -3.39035993e-02 -1.42578381e-02 3.79630851e-04 9.97724903e-03 
        </DataArray>
        <DataArray type="Float64" Name="rhov">
          1.51308799e-02 2.93130810e-02 3.63665041e-02 3.78273500e-02 
        </DataArray>
        <DataArray type="Float64" Name="E">
          2.52946872e+05 2.49075060e+05 2.45527134e+05 2.42262929e+05 
        </DataArray>
      </PointData>
    </Piece>
    <Piece NumberOfPoints="4" NumberOfCells="3">
      <Points>
        <DataArray type="Float64" NumberOfComponents="3" format="ascii">
          5.30325845e-02 3.63560505e-02 0.00000000e+00 
5.68800643e-02 3.74470428e-02 0.00000000e+00 
6.07415959e-02 3.84872220e-02 0.00000000e+00 
6.46155030e-02 3.94803248e-02 0.00000000e+00 

        </DataArray>
      </Points>
      <Cells>
        <DataArray type="Int32" Name="connectivity" format="ascii">
0 1
1 2
2 3

        </DataArray>
        <DataArray type="Int32" Name="offsets" format="ascii">
2 4 6 
        </DataArray>
        <DataArray type="UInt8" Name="types" format="ascii">
3 3 3 
        </DataArray>
      </Cells>
      <PointData>
        <DataArray type="Float64" Name="rho">
          1.05817790e+00 1.04567479e+00 1.03411537e+00 1.02335861e+00 
        </DataArray>
        <DataArray type="Float64" Name="rhou">
          1.03091383e-02 1.75079675e-02 2.32347709e-02 2.72582646e-02 
        </DataArray>
        <DataArray type="Float64" Name="rhov">
          3.75044913e-02 3.60838510e-02 3.42348439e-02 3.11704570e-02 
        </DataArray>
        <DataArray type="Float64" Name="E">
          2.42263095e+05 2.39260806e+05 2.36487689e+05 2.33909435e+05 
        </DataArray>
      </PointData>
    </Piece>
    <Piece NumberOfPoints="4" NumberOfCells="3">
      <Points>
        <DataArray type="Float64" NumberOfComponents="3" format="ascii">
          6.46155030e-02 3.94803248e-02 0.00000000e+00 
6.85004294e-02 4.04294394e-02 0.00000000e+00 
7.23951608e-02 4.13374715e-02 0.00000000e+00 
7.62986317e-02 4.22072113e-02 0.00000000e+00 

        </DataArray>
      </Points>
      <Cells>
        <DataArray type="Int32" Name="connectivity" format="ascii">
0 1
1 2
2 3

        </DataArray>
        <DataArray type="Int32" Name="offsets" format="ascii">
2 4 6 
        </DataArray>
        <DataArray type="UInt8" Name="types" format="ascii">
3 3 3 
        </DataArray>
      </Cells>
      <PointData>
        <DataArray type="Float64" Name="rho">
          1.02335934e+00 1.01336303e+00 1.00403979e+00 9.95333774e-01 
        </DataArray>
        <DataArray type="Float64" Name="rhou">
          2.70820187e-02 2.91778308e-02 3.04064328e-02 3.06204341e-02 
        </DataArray>
        <DataArray type="Float64" Name="rhov">
          3.08711850e-02 2.70874641e-02 2.38174534e-02 2.05975640e-02 
        </DataArray>
        <DataArray type="Float64" Name="E">
          2.33909586e+05 2.31516026e+05 2.29285242e+05 2.27203208e+05 
        </DataArray>
      </PointData>
    </Piece>
    <Piece NumberOfPoints="4" NumberOfCells="3">
      <Points>
        <DataArray type="Float64" NumberOfComponents="3" format="ascii">
          7.62986317e-02 4.22072113e-02 0.00000000e+00 
8.02098960e-02 4.30411920e-02 0.00000000e+00 
8.41281936e-02 4.38414887e-02 0.00000000e+00 
8.80528912e-02 4.46097627e-02 0.00000000e+00 

        </DataArray>
      </Points>
      <Cells>
        <DataArray type="Int32" Name="connectivity" format="ascii">
0 1
1 2
2 3

        </DataArray>
        <DataArray type="Int32" Name="offsets" format="ascii">
2 4 6 
        </DataArray>
        <DataArray type="UInt8" Name="types" format="ascii">
3 3 3 
        </DataArray>
      </Cells>
      <PointData>
        <DataArray type="Float64" Name="rho">
          9.95332865e-01 9.87197367e-01 9.79539115e-01 9.72311730e-01 
        </DataArray>
        <DataArray type="Float64" Name="rhou">
          3.04797760e-02 3.05944899e-02 3.04110802e-02 2.94135502e-02 
        </DataArray>
        <DataArray type="Float64" Name="rhov">
          2.04345317e-02 1.79520406e-02 1.55080143e-02 1.28748300e-02 
        </DataArray>
        <DataArray type="Float64" Name="E">
          2.27202979e+05 2.25258711e+05 2.23429582e+05 2.21704333e+05 
        </DataArray>
      </PointData>
    </Piece>
    <Piece NumberOfPoints="4" NumberOfCells="3">
      <Points>
        <DataArray type="Float64" NumberOfComponents="3" format="ascii">
          8.80528912e-02 4.46097627e-02 0.00000000e+00 
9.19835642e-02 4.53475714e-02 0.00000000e+00 
9.59195644e-02 4.60564308e-02 0.00000000e+00 
9.98597518e-02 4.67394181e-02 0.00000000e+00 

        </DataArray>
      </Points>
      <Cells>
        <DataArray type="Int32" Name="connectivity" format="ascii">
0 1
1 2
2 3

        </DataArray>
        <DataArray type="Int32" Name="offsets" format="ascii">
2 4 6 
        </DataArray>
        <DataArray type="UInt8" Name="types" format="ascii">
3 3 3 
        </DataArray>
      </Cells>
      <PointData>
        <DataArray type="Float64" Name="rho">
          9.72312171e-01 9.65506644e-01 9.59109425e-01 9.53023259e-01 
        </DataArray>
        <DataArray type="Float64" Name="rhou">
          2.92049457e-02 2.78551730e-02 2.43710946e-02 2.90294774e-02 
        </DataArray>
        <DataArray type="Float64" Name="rhov">
          1.30383896e-02 1.05076693e-02 8.96959419e-03 8.53454964e-03 
        </DataArray>
        <DataArray type="Float64" Name="E">
          2.21704435e+05 2.20080954e+05 2.18555131e+05 2.17104398e+05 
        </DataArray>
      </PointData>
    </Piece>
    <Piece NumberOfPoints="4" NumberOfCells="3">
      <Points>
        <DataArray type="Float64" NumberOfComponents="3" format="ascii">
          9.98597518e-02 4.67394181e-02 0.00000000e+00 
1.10118888e-01 4.83862534e-02 0.00000000e+00 
1.20400399e-01 4.98730615e-02 0.00000000e+00 
1.30701363e-01 5.12186773e-02 0.00000000e+00 

        </DataArray>
      </Points>
      <Cells>
        <DataArray type="Int32" Name="connectivity" format="ascii">
0 1
1 2
2 3

        </DataArray>
        <DataArray type="Int32" Name="offsets" format="ascii">
2 4 6 
        </DataArray>
        <DataArray type="UInt8" Name="types" format="ascii">
3 3 3 
        </DataArray>
      </Cells>
      <PointData>
        <DataArray type="Float64" Name="rho">
          9.52949568e-01 9.38670339e-01 9.26235130e-01 9.15421401e-01 
        </DataArray>
        <DataArray type="Float64" Name="rhou">
          2.67425515e-02 1.85298897e-02 1.64299358e-02 1.29475397e-02 
        </DataArray>
        <DataArray type="Float64" Name="rhov">
          7.27771684e-03 4.07039244e-03 3.58969542e-03 2.92263770e-03 
        </DataArray>
        <DataArray type="Float64" Name="E">
          2.17087715e+05 2.13687212e+05 2.10728339e+05 2.08156945e+05 
        </DataArray>
      </PointData>
    </Piece>
    <Piece NumberOfPoints="4" NumberOfCells="3">
      <Points>
        <DataArray type="Float64" NumberOfComponents="3" format="ascii">
          1.30701363e-01 5.12186773e-02 0.00000000e+00 
1.41019106e-01 5.24347536e-02 0.00000000e+00 
1.51350453e-01 5.35292812e-02 0.00000000e+00 
1.61692888e-01 5.45137413e-02 0.00000000e+00 

        </DataArray>
      </Points>
      <Cells>
        <DataArray type="Int32" Name="connectivity" format="ascii">
0 1
1 2
2 3

        </DataArray>
        <DataArray type="Int32" Name="offsets" format="ascii">
2 4 6 
        </DataArray>
        <DataArray type="UInt8" Name="types" format="ascii">
3 3 3 
        </DataArray>
      </Cells>
      <PointData>
        <DataArray type="Float64" Name="rho">
          9.15417866e-01 9.05801329e-01 8.97363423e-01 8.90000916e-01 
        </DataArray>
        <DataArray type="Float64" Name="rhou">
          1.43595370e-02 1.24550113e-02 1.03541634e-02 9.07436511e-03 
        </DataArray>
        <DataArray type="Float64" Name="rhov">
          3.43278263e-03 2.49540891e-03 1.70221472e-03 1.52168473e-03 
        </DataArray>
        <DataArray type="Float64" Name="E">
          2.08156092e+05 2.05871980e+05 2.03869350e+05 2.02122744e+05 
        </DataArray>
      </PointData>
    </Piece>
    <Piece NumberOfPoints="4" NumberOfCells="3">
      <Points>
        <DataArray type="Float64" NumberOfComponents="3" format="ascii">
          1.61692888e-01 5.45137413e-02 0.00000000e+00 
1.72044471e-01 5.53969070e-02 0.00000000e+00 
1.82403773e-01 5.61845005e-02 0.00000000e+00 
1.92769483e-01 5.68825118e-02 0.00000000e+00 

        </DataArray>
      </Points>
      <Cells>
        <DataArray type="Int32" Name="connectivity" format="ascii">
0 1
1 2
2 3

        </DataArray>
        <DataArray type="Int32" Name="offsets" format="ascii">
2 4 6 
        </DataArray>
        <DataArray type="UInt8" Name="types" format="ascii">
3 3 3 
        </DataArray>
      </Cells>
      <PointData>
        <DataArray type="Float64" Name="rho">
          8.89998468e-01 8.83520859e-01 8.77843142e-01 8.72919445e-01 
        </DataArray>
        <DataArray type="Float64" Name="rhou">
          9.11183551e-03 7.96103928e-03 6.90240667e-03 5.97508346e-03 
        </DataArray>
        <DataArray type="Float64" Name="rhov">
          1.57425798e-03 1.20501715e-03 8.14556707e-04 5.76287930e-04 
        </DataArray>
        <DataArray type="Float64" Name="E">
          2.02122193e+05 2.00586641e+05 1.99241899e+05 1.98076608e+05 
        </DataArray>
      </PointData>
    </Piece>
    <Piece NumberOfPoints="4" NumberOfCells="3">
      <Points>
        <DataArray type="Float64" NumberOfComponents="3" format="ascii">
          1.92769483e-01 5.68825118e-02 0.00000000e+00 
2.03140482e-01 5.74972220e-02 0.00000000e+00 
2.13515818e-01 5.80338500e-02 0.00000000e+00 
2.23894730e-01 5.84962890e-02 0.00000000e+00 

        </DataArray>
      </Points>
      <Cells>
        <DataArray type="Int32" Name="connectivity" format="ascii">
0 1
1 2
2 3

        </DataArray>
        <DataArray type="Int32" Name="offsets" format="ascii">
2 4 6 
        </DataArray>
        <DataArray type="UInt8" Name="types" format="ascii">
3 3 3 
        </DataArray>
      </Cells>
      <PointData>
        <DataArray type="Float64" Name="rho">
          8.72918750e-01 8.68676005e-01 8.65036126e-01 8.61947309e-01 
        </DataArray>
        <DataArray type="Float64" Name="rhou">
          6.01262693e-03 5.26723711e-03 4.69133609e-03 4.21313239e-03 
        </DataArray>
        <DataArray type="Float64" Name="rhov">
          6.18416685e-04 5.31441710e-04 4.13649607e-04 2.86438378e-04 
        </DataArray>
        <DataArray type="Float64" Name="E">
          1.98076448e+05 1.97073052e+05 1.96213150e+05 1.95484391e+05 
        </DataArray>
      </PointData>
    </Piece>
    <Piece NumberOfPoints="4" NumberOfCells="3">
      <Points>
        <DataArray type="Float64" NumberOfComponents="3" format="ascii">
          2.23894730e-01 5.84962890e-02 0.00000000e+00 
2.34276548e-01 5.88882305e-02 0.00000000e+00 
2.44660646e-01 5.92139624e-02 0.00000000e+00 
2.55046517e-01 5.94772622e-02 0.00000000e+00 

        </DataArray>
      </Points>
      <Cells>
        <DataArray type="Int32" Name="connectivity" format="ascii">
0 1
1 2
2 3

        </DataArray>
        <DataArray type="Int32" Name="offsets" format="ascii">
2 4 6 
        </DataArray>
        <DataArray type="UInt8" Name="types" format="ascii">
3 3 3 
        </DataArray>
      </Cells>
      <PointData>
        <DataArray type="Float64" Name="rho">
          8.61947924e-01 8.59375205e-01 8.57280857e-01 8.55615109e-01 
        </DataArray>
        <DataArray type="Float64" Name="rhou">
          4.22112729e-03 3.67452088e-03 3.27864755e-03 3.03894960e-03 
        </DataArray>
        <DataArray type="Float64" Name="rhov">
          3.00812706e-04 2.25526861e-04 2.12637370e-04 2.15405979e-04 
        </DataArray>
        <DataArray type="Float64" Name="E">
          1.95484531e+05 1.94878432e+05 1.94385947e+05 1.93995330e+05 
        </DataArray>
      </PointData>
    </Piece>
    <Piece NumberOfPoints="4" NumberOfCells="3">
      <Points>
        <DataArray type="Float64" NumberOfComponents="3" format="ascii">
          2.55046517e-01 5.94772622e-02 0.00000000e+00 
2.65433758e-01 5.96804135e-02 0.00000000e+00 
2.75821954e-01 5.98256700e-02 0.00000000e+00 
2.86210775e-01 5.99167012e-02 0.00000000e+00 

        </DataArray>
      </Points>
      <Cells>
        <DataArray type="Int32" Name="connectivity" format="ascii">
0 1
1 2
2 3

        </DataArray>
        <DataArray type="Int32" Name="offsets" format="ascii">
2 4 6 
        </DataArray>
        <DataArray type="UInt8" Name="types" format="ascii">
3 3 3 
        </DataArray>
      </Cells>
      <PointData>
        <DataArray type="Float64" Name="rho">
          8.55615125e-01 8.54335341e-01 8.53423292e-01 8.52864664e-01 
        </DataArray>
        <DataArray type="Float64" Name="rhou">
          3.03341333e-03 2.72959302e-03 2.41863796e-03 2.13894891e-03 
        </DataArray>
        <DataArray type="Float64" Name="rhov">
          2.27041679e-04 1.33007734e-04 7.75346900e-05 1.19754031e-04 
        </DataArray>
        <DataArray type="Float64" Name="E">
          1.93995337e+05 1.93696551e+05 1.93485182e+05 1.93357622e+05 
        </DataArray>
      </PointData>
    </Piece>
    <Piece NumberOfPoints="4" NumberOfCells="3">
      <Points>
        <DataArray type="Float64" NumberOfComponents="3" format="ascii">
          2.86210775e-01 5.99167012e-02 0.00000000e+00 
2.96599895e-01 5.99572174e-02 0.00000000e+00 
3.06989133e-01 5.99487796e-02 0.00000000e+00 
3.17378193e-01 5.98919280e-02 0.00000000e+00 

        </DataArray>
      </Points>
      <Cells>
        <DataArray type="Int32" Name="connectivity" format="ascii">
0 1
1 2
2 3

        </DataArray>
        <DataArray type="Int32" Name="offsets" format="ascii">
2 4 6 
        </DataArray>
        <DataArray type="UInt8" Name="types" format="ascii">
3 3 3 
        </DataArray>
      </Cells>
      <PointData>
        <DataArray type="Float64" Name="rho">
          8.52863568e-01 8.52612954e-01 8.52626270e-01 8.52892969e-01 
        </DataArray>
        <DataArray type="Float64" Name="rhou">
          2.15968024e-03 2.03931680e-03 1.90699152e-03 1.71245761e-03 
        </DataArray>
        <DataArray type="Float64" Name="rhov">
          1.36771057e-04 1.75141352e-04 1.23998062e-04 4.96618720e-05 
        </DataArray>
        <DataArray type="Float64" Name="E">
          1.93357372e+05 1.93302935e+05 1.93311424e+05 1.93380270e+05 
        </DataArray>
      </PointData>
    </Piece>
    <Piece NumberOfPoints="4" NumberOfCells="3">
      <Points>
        <DataArray type="Float64" NumberOfComponents="3" format="ascii">
          3.17378193e-01 5.98919280e-02 0.00000000e+00 
3.27766895e-01 5.97884916e-02 0.00000000e+00 
3.38155061e-01 5.96415885e-02 0.00000000e+00 
3.48542601e-01 5.94538599e-02 0.00000000e+00 

        </DataArray>
      </Points>
      <Cells>
        <DataArray type="Int32" Name="connectivity" format="ascii">
0 1
1 2
2 3

        </DataArray>
        <DataArray type="Int32" Name="offsets" format="ascii">
2 4 6 
        </DataArray>
        <DataArray type="UInt8" Name="types" format="ascii">
3 3 3 
        </DataArray>
      </Cells>
      <PointData>
        <DataArray type="Float64" Name="rho">
          8.52893355e-01 8.53405162e-01 8.54144886e-01 8.55080628e-01 
        </DataArray>
        <DataArray type="Float64" Name="rhou">
          1.74493846e-03 1.53438512e-03 1.41171142e-03 1.36450890e-03 
        </DataArray>
        <DataArray type="Float64" Name="rhov">
          5.74010201e-05 5.29441349e-05 8.87217151e-05 1.18554663e-04 
        </DataArray>
        <DataArray type="Float64" Name="E">
          1.93380357e+05 1.93507477e+05 1.93688740e+05 1.93916692e+05 
        </DataArray>
      </PointData>
    </Piece>
    <Piece NumberOfPoints="4" NumberOfCells="3">
      <Points>
        <DataArray type="Float64" NumberOfComponents="3" format="ascii">
          3.48542601e-01 5.94538599e-02 0.00000000e+00 
3.58929336e-01 5.92265576e-02 0.00000000e+00 
3.69315147e-01 5.89610897e-02 0.00000000e+00 
3.79699975e-01 5.86590059e-02 0.00000000e+00 

        </DataArray>
      </Points>
      <Cells>
        <DataArray type="Int32" Name="connectivity" format="ascii">
0 1
1 2
2 3

        </DataArray>
        <DataArray type="Int32" Name="offsets" format="ascii">
2 4 6 
        </DataArray>
        <DataArray type="UInt8" Name="types" format="ascii">
3 3 3 
        </DataArray>
      </Cells>
      <PointData>
        <DataArray type="Float64" Name="rho">
          8.55080899e-01 8.56188046e-01 8.57459079e-01 8.58874360e-01 
        </DataArray>
        <DataArray type="Float64" Name="rhou">
          1.37941853e-03 1.24576357e-03 1.14664018e-03 1.09698402e-03 
        </DataArray>
        <DataArray type="Float64" Name="rhov">
          1.15040083e-04 8.22949913e-05 8.07037287e-05 8.47597688e-05 
        </DataArray>
        <DataArray type="Float64" Name="E">
          1.93916754e+05 1.94185632e+05 1.94493585e+05 1.94836013e+05 
        </DataArray>
      </PointData>
    </Piece>
    <Piece NumberOfPoints="4" NumberOfCells="3">
      <Points>
        <DataArray type="Float64" NumberOfComponents="3" format="ascii">
          3.79699975e-01 5.86590059e-02 0.00000000e+00 
3.90083700e-01 5.83211333e-02 0.00000000e+00 
4.00466233e-01 5.79482466e-02 0.00000000e+00 
4.10847515e-01 5.75418957e-02 0.00000000e+00 

        </DataArray>
      </Points>
      <Cells>
        <DataArray type="Int32" Name="connectivity" format="ascii">
0 1
1 2
2 3

        </DataArray>
        <DataArray type="Int32" Name="offsets" format="ascii">
2 4 6 
        </DataArray>
        <DataArray type="UInt8" Name="types" format="ascii">
3 3 3 
        </DataArray>
      </Cells>
      <PointData>
        <DataArray type="Float64" Name="rho">
          8.58874375e-01 8.60417196e-01 8.62078208e-01 8.63851215e-01 
        </DataArray>
        <DataArray type="Float64" Name="rhou">
          1.08915968e-03 1.02050726e-03 9.36322274e-04 8.54421087e-04 
        </DataArray>
        <DataArray type="Float64" Name="rhov">
          8.72296128e-05 5.92755301e-05 3.92446526e-05 5.02099183e-05 
        </DataArray>
        <DataArray type="Float64" Name="E">
          1.94836017e+05 1.95209008e+05 1.95610340e+05 1.96038488e+05 
        </DataArray>
      </PointData>
    </Piece>
    <Piece NumberOfPoints="4" NumberOfCells="3">
      <Points>
        <DataArray type="Float64" NumberOfComponents="3" format="ascii">
          4.10847515e-01 5.75418957e-02 0.00000000e+00 
4.21227485e-01 5.71038015e-02 0.00000000e+00 
4.31606144e-01 5.66351078e-02 0.00000000e+00 
4.41983402e-01 5.61364293e-02 0.00000000e+00 

        </DataArray>
      </Points>
      <Cells>
        <DataArray type="Int32" Name="connectivity" format="ascii">
0 1
1 2
2 3

        </DataArray>
        <DataArray type="Int32" Name="offsets" format="ascii">
2 4 6 
        </DataArray>
        <DataArray type="UInt8" Name="types" format="ascii">
3 3 3 
        </DataArray>
      </Cells>
      <PointData>
        <DataArray type="Float64" Name="rho">
          8.63850993e-01 8.65719338e-01 8.67670382e-01 8.69693327e-01 
        </DataArray>
        <DataArray type="Float64" Name="rhou">
          8.73436425e-04 8.18672055e-04 7.78061879e-04 7.38522764e-04 
        </DataArray>
        <DataArray type="Float64" Name="rhov">
          5.37830935e-05 5.89976277e-05 5.26501169e-05 3.28591512e-05 
        </DataArray>
        <DataArray type="Float64" Name="E">
          1.96038438e+05 1.96489497e+05 1.96960507e+05 1.97448927e+05 
        </DataArray>
      </PointData>
    </Piece>
    <Piece NumberOfPoints="4" NumberOfCells="3">
      <Points>
        <DataArray type="Float64" NumberOfComponents="3" format="ascii">
          4.41983402e-01 5.61364293e-02 0.00000000e+00 
4.52359200e-01 5.56085743e-02 0.00000000e+00 
4.62733537e-01 5.50529286e-02 0.00000000e+00 
4.73106444e-01 5.44707514e-02 0.00000000e+00 

        </DataArray>
      </Points>
      <Cells>
        <DataArray type="Int32" Name="connectivity" format="ascii">
0 1
1 2
2 3

        </DataArray>
        <DataArray type="Int32" Name="offsets" format="ascii">
2 4 6 
        </DataArray>
        <DataArray type="UInt8" Name="types" format="ascii">
3 3 3 
        </DataArray>
      </Cells>
      <PointData>
        <DataArray type="Float64" Name="rho">
          8.69693491e-01 8.71783310e-01 8.73932440e-01 8.76130646e-01 
        </DataArray>
        <DataArray type="Float64" Name="rhou">
          7.35383253e-04 6.74421609e-04 6.31874174e-04 6.07609171e-04 
        </DataArray>
        <DataArray type="Float64" Name="rhov">
          3.33866867e-05 2.87824946e-05 3.29536638e-05 3.64805111e-05 
        </DataArray>
        <DataArray type="Float64" Name="E">
          1.97448965e+05 1.97953564e+05 1.98472535e+05 1.99003464e+05 
        </DataArray>
      </PointData>
    </Piece>
    <Piece NumberOfPoints="4" NumberOfCells="3">
      <Points>
        <DataArray type="Float64" NumberOfComponents="3" format="ascii">
          4.73106444e-01 5.44707514e-02 0.00000000e+00 
4.83477861e-01 5.38627952e-02 0.00000000e+00 
4.93847787e-01 5.32294959e-02 0.00000000e+00 
5.04216135e-01 5.25716618e-02 0.00000000e+00 

        </DataArray>
      </Points>
      <Cells>
        <DataArray type="Int32" Name="connectivity" format="ascii">
0 1
1 2
2 3

        </DataArray>
        <DataArray type="Int32" Name="offsets" format="ascii">
2 4 6 
        </DataArray>
        <DataArray type="UInt8" Name="types" format="ascii">
3 3 3 
        </DataArray>
      </Cells>
      <PointData>
        <DataArray type="Float64" Name="rho">
          8.76130633e-01 8.78369433e-01 8.80641946e-01 8.82945932e-01 
        </DataArray>
        <DataArray type="Float64" Name="rhou">
          5.99203320e-04 5.77316970e-04 5.39430353e-04 4.93968193e-04 
        </DataArray>
        <DataArray type="Float64" Name="rhov">
          3.83914721e-05 2.84020352e-05 1.42327014e-05 1.38678597e-05 
        </DataArray>
        <DataArray type="Float64" Name="E">
          1.99003462e+05 1.99544343e+05 2.00093540e+05 2.00650465e+05 
        </DataArray>
      </PointData>
    </Piece>
    <Piece NumberOfPoints="4" NumberOfCells="3">
      <Points>
        <DataArray type="Float64" NumberOfComponents="3" format="ascii">
          5.04216135e-01 5.25716618e-02 0.00000000e+00 
5.14582992e-01 5.18903993e-02 0.00000000e+00 
5.24948359e-01 5.11864908e-02 0.00000000e+00 
5.35312176e-01 5.04603274e-02 0.00000000e+00 

        </DataArray>
      </Points>
      <Cells>
        <DataArray type="Int32" Name="connectivity" format="ascii">
0 1
1 2
2 3

        </DataArray>
        <DataArray type="Int32" Name="offsets" format="ascii">
2 4 6 
        </DataArray>
        <DataArray type="UInt8" Name="types" format="ascii">
3 3 3 
        </DataArray>
      </Cells>
      <PointData>
        <DataArray type="Float64" Name="rho">
          8.82945837e-01 8.85274107e-01 8.87620428e-01 8.89979599e-01 
        </DataArray>
        <DataArray type="Float64" Name="rhou">
          5.03724853e-04 4.76194793e-04 4.56045460e-04 4.36131258e-04 
        </DataArray>
        <DataArray type="Float64" Name="rhov">
          1.61878640e-05 1.83041859e-05 1.43715416e-05 2.96187847e-06 
        </DataArray>
        <DataArray type="Float64" Name="E">
          2.00650444e+05 2.01213382e+05 2.01780842e+05 2.02351568e+05 
        </DataArray>
      </PointData>
    </Piece>
    <Piece NumberOfPoints="4" NumberOfCells="3">
      <Points>
        <DataArray type="Float64" NumberOfComponents="3" format="ascii">
          5.35312176e-01 5.04603274e-02 0.00000000e+00 
5.45674443e-01 4.97124642e-02 0.00000000e+00 
5.56035221e-01 4.89437394e-02 0.00000000e+00 
5.66394389e-01 4.81546782e-02 0.00000000e+00 

        </DataArray>
      </Points>
      <Cells>
        <DataArray type="Int32" Name="connectivity" format="ascii">
0 1
1 2
2 3

        </DataArray>
        <DataArray type="Int32" Name="offsets" format="ascii">
2 4 6 
        </DataArray>
        <DataArray type="UInt8" Name="types" format="ascii">
3 3 3 
        </DataArray>
      </Cells>
      <PointData>
        <DataArray type="Float64" Name="rho">
          8.89979653e-01 8.92349743e-01 8.94726162e-01 8.97104303e-01 
        </DataArray>
        <DataArray type="Float64" Name="rhou">
          4.31145621e-04 4.03413003e-04 3.85068044e-04 3.74503406e-04 
        </DataArray>
        <DataArray type="Float64" Name="rhov">
          3.19504973e-06 4.35418233e-06 5.40794467e-06 2.37374639e-06 
        </DataArray>
        <DataArray type="Float64" Name="E">
          2.02351580e+05 2.02925058e+05 2.03500168e+05 2.04075789e+05 
        </DataArray>
      </PointData>
    </Piece>
    <Piece NumberOfPoints="4" NumberOfCells="3">
      <Points>
        <DataArray type="Float64" NumberOfComponents="3" format="ascii">
          5.66394389e-01 4.81546782e-02 0.00000000e+00 
5.76752067e-01 4.73455116e-02 0.00000000e+00 
5.87108195e-01 4.65166979e-02 0.00000000e+00 
5.97462773e-01 4.56690118e-02 0.00000000e+00 

        </DataArray>
      </Points>
      <Cells>
        <DataArray type="Int32" Name="connectivity" format="ascii">
0 1
1 2
2 3

        </DataArray>
        <DataArray type="Int32" Name="offsets" format="ascii">
2 4 6 
        </DataArray>
        <DataArray type="UInt8" Name="types" format="ascii">
3 3 3 
        </DataArray>
      </Cells>
      <PointData>
        <DataArray type="Float64" Name="rho">
          8.97104339e-01 8.99481020e-01 9.01854636e-01 9.04222861e-01 
        </DataArray>
        <DataArray type="Float64" Name="rhou">
          3.73636053e-04 3.53165410e-04 3.32219599e-04 3.17480655e-04 
        </DataArray>
        <DataArray type="Float64" Name="rhov">
          2.69279610e-06 -5.59132776e-06 -8.07584721e-06 -5.13103361e-06 
        </DataArray>
        <DataArray type="Float64" Name="E">
          2.04075798e+05 2.04651134e+05 2.05225746e+05 2.05799030e+05 
        </DataArray>
      </PointData>
    </Piece>
    <Piece NumberOfPoints="4" NumberOfCells="3">
      <Points>
        <DataArray type="Float64" NumberOfComponents="3" format="ascii">
          5.97462773e-01 4.56690118e-02 0.00000000e+00 
6.07815862e-01 4.48031016e-02 0.00000000e+00 
6.18167400e-01 4.39192392e-02 0.00000000e+00 
6.28517449e-01 4.30175588e-02 0.00000000e+00 

        </DataArray>
      </Points>
      <Cells>
        <DataArray type="Int32" Name="connectivity" format="ascii">
0 1
1 2
2 3

        </DataArray>
        <DataArray type="Int32" Name="offsets" format="ascii">
2 4 6 
        </DataArray>
        <DataArray type="UInt8" Name="types" format="ascii">
3 3 3 
        </DataArray>
      </Cells>
      <PointData>
        <DataArray type="Float64" Name="rho">
          9.04222790e-01 9.06582226e-01 9.08929592e-01 9.11263891e-01 
        </DataArray>
        <DataArray type="Float64" Name="rhou">
          3.15088318e-04 3.08908623e-04 2.99012046e-04 2.83483282e-04 
        </DataArray>
        <DataArray type="Float64" Name="rhov">
          -4.13819652e-06 -3.34148757e-06 -8.63004436e-06 -1.36990361e-05 
        </DataArray>
        <DataArray type="Float64" Name="E">
          2.05799014e+05 2.06370123e+05 2.06938243e+05 2.07503078e+05 
        </DataArray>
      </PointData>
    </Piece>
    <Piece NumberOfPoints="4" NumberOfCells="3">
      <Points>
        <DataArray type="Float64" NumberOfComponents="3" format="ascii">
          6.28517449e-01 4.30175588e-02 0.00000000e+00 
6.38865948e-01 4.20984775e-02 0.00000000e+00 
6.49212897e-01 4.11624312e-02 0.00000000e+00 
6.59558356e-01 4.02097441e-02 0.00000000e+00 

        </DataArray>
      </Points>
      <Cells>
        <DataArray type="Int32" Name="connectivity" format="ascii">
0 1
1 2
2 3

        </DataArray>
        <DataArray type="Int32" Name="offsets" format="ascii">
2 4 6 
        </DataArray>
        <DataArray type="UInt8" Name="types" format="ascii">
3 3 3 
        </DataArray>
      </Cells>
      <PointData>
        <DataArray type="Float64" Name="rho">
          9.11263883e-01 9.13583820e-01 9.15887364e-01 9.18173122e-01 
        </DataArray>
        <DataArray type="Float64" Name="rhou">
          2.84361605e-04 2.74032346e-04 2.65914920e-04 2.57293082e-04 
        </DataArray>
        <DataArray type="Float64" Name="rhov">
          -1.25969050e-05 -1.24824819e-05 -1.38592420e-05 -1.58033095e-05 
        </DataArray>
        <DataArray type="Float64" Name="E">
          2.07503077e+05 2.08064265e+05 2.08621278e+05 2.09173738e+05 
        </DataArray>
      </PointData>
    </Piece>
    <Piece NumberOfPoints="4" NumberOfCells="3">
      <Points>
        <DataArray type="Float64" NumberOfComponents="3" format="ascii">
          6.59558356e-01 4.02097441e-02 0.00000000e+00 
6.69902325e-01 3.92407738e-02 0.00000000e+00 
6.80244744e-01 3.82556282e-02 0.00000000e+00 
6.90585554e-01 3.72543521e-02 0.00000000e+00 

        </DataArray>
      </Points>
      <Cells>
        <DataArray type="Int32" Name="connectivity" format="ascii">
0 1
1 2
2 3

        </DataArray>
        <DataArray type="Int32" Name="offsets" format="ascii">
2 4 6 
        </DataArray>
        <DataArray type="UInt8" Name="types" format="ascii">
3 3 3 
        </DataArray>
      </Cells>
      <PointData>
        <DataArray type="Float64" Name="rho">
          9.18173104e-01 9.20440168e-01 9.22686353e-01 9.24911764e-01 
        </DataArray>
        <DataArray type="Float64" Name="rhou">
          2.53301836e-04 2.52343722e-04 2.47175084e-04 2.35469737e-04 
        </DataArray>
        <DataArray type="Float64" Name="rhov">
          -1.46696018e-05 -1.42727056e-05 -1.92599465e-05 -2.34692912e-05 
        </DataArray>
        <DataArray type="Float64" Name="E">
          2.09173734e+05 2.09721373e+05 2.10263638e+05 2.10800498e+05 
        </DataArray>
      </PointData>
    </Piece>
    <Piece NumberOfPoints="4" NumberOfCells="3">
      <Points>
        <DataArray type="Float64" NumberOfComponents="3" format="ascii">
          6.90585554e-01 3.72543521e-02 0.00000000e+00 
7.00924933e-01 3.62373814e-02 0.00000000e+00 
7.11262703e-01 3.52048986e-02 0.00000000e+00 
7.21598923e-01 3.41568366e-02 0.00000000e+00 

        </DataArray>
      </Points>
      <Cells>
        <DataArray type="Int32" Name="connectivity" format="ascii">
0 1
1 2
2 3

        </DataArray>
        <DataArray type="Int32" Name="offsets" format="ascii">
2 4 6 
        </DataArray>
        <DataArray type="UInt8" Name="types" format="ascii">
3 3 3 
        </DataArray>
      </Cells>
      <PointData>
        <DataArray type="Float64" Name="rho">
          9.24911716e-01 9.27116145e-01 9.29297550e-01 9.31456096e-01 
        </DataArray>
        <DataArray type="Float64" Name="rhou">
          2.33533908e-04 2.32618696e-04 2.31351661e-04 2.21325645e-04 
        </DataArray>
        <DataArray type="Float64" Name="rhov">
          -2.22298462e-05 -1.95258056e-05 -2.38174107e-05 -2.99628298e-05 
        </DataArray>
        <DataArray type="Float64" Name="E">
          2.10800487e+05 2.11331843e+05 2.11857181e+05 2.12376492e+05 
        </DataArray>
      </PointData>
    </Piece>
    <Piece NumberOfPoints="4" NumberOfCells="3">
      <Points>
        <DataArray type="Float64" NumberOfComponents="3" format="ascii">
          7.21598923e-01 3.41568366e-02 0.00000000e+00 
7.31933594e-01 3.30936089e-02 0.00000000e+00 
7.42266715e-01 3.20154354e-02 0.00000000e+00 
7.52598286e-01 3.09220124e-02 0.00000000e+00 

        </DataArray>
      </Points>
      <Cells>
        <DataArray type="Int32" Name="connectivity" format="ascii">
0 1
1 2
2 3

        </DataArray>
        <DataArray type="Int32" Name="offsets" format="ascii">
2 4 6 
        </DataArray>
        <DataArray type="UInt8" Name="types" format="ascii">
3 3 3 
        </DataArray>
      </Cells>
      <PointData>
        <DataArray type="Float64" Name="rho">
          9.31456073e-01 9.33592507e-01 9.35704834e-01 9.37793310e-01 
        </DataArray>
        <DataArray type="Float64" Name="rhou">
          2.17893616e-04 2.17771054e-04 2.18838467e-04 2.11407766e-04 
        </DataArray>
        <DataArray type="Float64" Name="rhov">
          -2.88737589e-05 -2.44518602e-05 -2.81285357e-05 -3.53247782e-05 
        </DataArray>
        <DataArray type="Float64" Name="E">
          2.12376487e+05 2.12889899e+05 2.13396916e+05 2.13897559e+05 
        </DataArray>
      </PointData>
    </Piece>
    <Piece NumberOfPoints="4" NumberOfCells="3">
      <Points>
        <DataArray type="Float64" NumberOfComponents="3" format="ascii">
          7.52598286e-01 3.09220124e-02 0.00000000e+00 
7.62928188e-01 2.98135038e-02 0.00000000e+00 
7.73256481e-01 2.86899786e-02 0.00000000e+00 
7.83583105e-01 2.75512449e-02 0.00000000e+00 

        </DataArray>
      </Points>
      <Cells>
        <DataArray type="Int32" Name="connectivity" format="ascii">
0 1
1 2
2 3

        </DataArray>
        <DataArray type="Int32" Name="offsets" format="ascii">
2 4 6 
        </DataArray>
        <DataArray type="UInt8" Name="types" format="ascii">
3 3 3 
        </DataArray>
      </Cells>
      <PointData>
        <DataArray type="Float64" Name="rho">
          9.37793305e-01 9.39859035e-01 9.41900857e-01 9.43919441e-01 
        </DataArray>
        <DataArray type="Float64" Name="rhou">
          2.08073526e-04 2.07791776e-04 2.07045518e-04 1.99906794e-04 
        </DataArray>
        <DataArray type="Float64" Name="rhov">
          -3.42689452e-05 -3.29262116e-05 -3.70501576e-05 -4.25349736e-05 
        </DataArray>
        <DataArray type="Float64" Name="E">
          2.13897558e+05 2.14392040e+05 2.14880063e+05 2.15361746e+05 
        </DataArray>
      </PointData>
    </Piece>
    <Piece NumberOfPoints="4" NumberOfCells="3">
      <Points>
        <DataArray type="Float64" NumberOfComponents="3" format="ascii">
          7.83583105e-01 2.75512449e-02 0.00000000e+00 
7.93908060e-01 2.63975188e-02 0.00000000e+00 
8.04231405e-01 2.52291560e-02 0.00000000e+00 
8.14553022e-01 2.40457114e-02 0.00000000e+00 

        </DataArray>
      </Points>
      <Cells>
        <DataArray type="Int32" Name="connectivity" format="ascii">
0 1
1 2
2 3

        </DataArray>
        <DataArray type="Int32" Name="offsets" format="ascii">
2 4 6 
        </DataArray>
        <DataArray type="UInt8" Name="types" format="ascii">
3 3 3 
        </DataArray>
      </Cells>
      <PointData>
        <DataArray type="Float64" Name="rho">
          9.43919449e-01 9.45915629e-01 9.47889258e-01 9.49839563e-01 
        </DataArray>
        <DataArray type="Float64" Name="rhou">
          2.02683263e-04 1.93393045e-04 1.95158041e-04 1.99334090e-04 
        </DataArray>
        <DataArray type="Float64" Name="rhov">
          -4.29445458e-05 -4.03701644e-05 -4.07610119e-05 -5.04229396e-05 
        </DataArray>
        <DataArray type="Float64" Name="E">
          2.15361748e+05 2.15837247e+05 2.16306499e+05 2.16769298e+05 
        </DataArray>
      </PointData>
    </Piece>
    <Piece NumberOfPoints="4" NumberOfCells="3">
      <Points>
        <DataArray type="Float64" NumberOfComponents="3" format="ascii">
          8.14553022e-01 2.40457114e-02 0.00000000e+00 
8.24872792e-01 2.28467938e-02 0.00000000e+00 
8.35190892e-01 2.16327831e-02 0.00000000e+00 
8.45507145e-01 2.04038676e-02 0.00000000e+00 

        </DataArray>
      </Points>
      <Cells>
        <DataArray type="Int32" Name="connectivity" format="ascii">
0 1
1 2
2 3

        </DataArray>
        <DataArray type="Int32" Name="offsets" format="ascii">
2 4 6 
        </DataArray>
        <DataArray type="UInt8" Name="types" format="ascii">
3 3 3 
        </DataArray>
      </Cells>
      <PointData>
        <DataArray type="Float64" Name="rho">
          9.49839614e-01 9.51768608e-01 9.53676693e-01 9.55564109e-01 
        </DataArray>
        <DataArray type="Float64" Name="rhou">
          1.92157303e-04 1.84694415e-04 1.78374804e-04 1.81089259e-04 
        </DataArray>
        <DataArray type="Float64" Name="rhov">
          -5.06967841e-05 -5.27079517e-05 -5.13942923e-05 -4.86246768e-05 
        </DataArray>
        <DataArray type="Float64" Name="E">
          2.16769310e+05 2.17226087e+05 2.17676905e+05 2.18121794e+05 
        </DataArray>
      </PointData>
    </Piece>
    <Piece NumberOfPoints="4" NumberOfCells="3">
      <Points>
        <DataArray type="Float64" NumberOfComponents="3" format="ascii">
          8.45507145e-01 2.04038676e-02 0.00000000e+00 
8.55821550e-01 1.91591792e-02 0.00000000e+00 
8.66134048e-01 1.78987328e-02 0.00000000e+00 
8.76444638e-01 1.66228991e-02 0.00000000e+00 

        </DataArray>
      </Points>
      <Cells>
        <DataArray type="Int32" Name="connectivity" format="ascii">
0 1
1 2
2 3

        </DataArray>
        <DataArray type="Int32" Name="offsets" format="ascii">
2 4 6 
        </DataArray>
        <DataArray type="UInt8" Name="types" format="ascii">
3 3 3 
        </DataArray>
      </Cells>
      <PointData>
        <DataArray type="Float64" Name="rho">
          9.55564243e-01 9.57429418e-01 9.59277061e-01 9.61103072e-01 
        </DataArray>
        <DataArray type="Float64" Name="rhou">
          2.06520837e-04 1.70249169e-04 1.69178017e-04 1.89342412e-04 
        </DataArray>
        <DataArray type="Float64" Name="rhov">
          -5.28729955e-05 -6.40184198e-05 -6.25339655e-05 -8.48026903e-05 
        </DataArray>
        <DataArray type="Float64" Name="E">
          2.18121825e+05 2.18560403e+05 2.18993725e+05 2.19420839e+05 
        </DataArray>
      </PointData>
    </Piece>
    <Piece NumberOfPoints="4" NumberOfCells="3">
      <Points>
        <DataArray type="Float64" NumberOfComponents="3" format="ascii">
          8.76444638e-01 1.66228991e-02 0.00000000e+00 
8.86753201e-01 1.53310820e-02 0.00000000e+00 
8.97059798e-01 1.40233757e-02 0.00000000e+00 
9.07364249e-01 1.26988320e-02 0.00000000e+00 

        </DataArray>
      </Points>
      <Cells>
        <DataArray type="Int32" Name="connectivity" format="ascii">
0 1
1 2
2 3

        </DataArray>
        <DataArray type="Int32" Name="offsets" format="ascii">
2 4 6 
        </DataArray>
        <DataArray type="UInt8" Name="types" format="ascii">
3 3 3 
        </DataArray>
      </Cells>
      <PointData>
        <DataArray type="Float64" Name="rho">
          9.61102551e-01 9.62914701e-01 9.64704185e-01 9.66492453e-01 
        </DataArray>
        <DataArray type="Float64" Name="rhou">
          8.19670364e-05 1.88668314e-04 1.24865898e-04 6.47673590e-05 
        </DataArray>
        <DataArray type="Float64" Name="rhov">
          -7.59201237e-05 -8.01712372e-05 -1.03318732e-04 1.11627205e-05 
        </DataArray>
        <DataArray type="Float64" Name="E">
          2.19420720e+05 2.19843393e+05 2.20259617e+05 2.20674308e+05 
        </DataArray>
      </PointData>
    </Piece>
    <Piece NumberOfPoints="4" NumberOfCells="3">
      <Points>
        <DataArray type="Float64" NumberOfComponents="3" format="ascii">
          9.07364249e-01 1.26988320e-02 0.00000000e+00 
9.17666554e-01 1.13577880e-02 0.00000000e+00 
9.27966774e-01 1.00004105e-02 0.00000000e+00 
9.38264549e-01 8.62528384e-03 0.00000000e+00 

        </DataArray>
      </Points>
      <Cells>
        <DataArray type="Int32" Name="connectivity" format="ascii">
0 1
1 2
2 3

        </DataArray>
        <DataArray type="Int32" Name="offsets" format="ascii">
2 4 6 
        </DataArray>
        <DataArray type="UInt8" Name="types" format="ascii">
3 3 3 
        </DataArray>
      </Cells>
      <PointData>
        <DataArray type="Float64" Name="rho">
          9.66498119e-01 9.68236035e-01 9.70007576e-01 9.71614370e-01 
        </DataArray>
        <DataArray type="Float64" Name="rhou">
          1.00710537e-03 -1.67981331e-04 4.79358636e-04 9.50818988e-04 
        </DataArray>
        <DataArray type="Float64" Name="rhov">
          -6.86544935e-05 -1.30773444e-04 -4.63921383e-05 -1.69437009e-03 
        </DataArray>
        <DataArray type="Float64" Name="E">
          2.20675601e+05 2.21077582e+05 2.21486103e+05 2.21856003e+05 
        </DataArray>
      </PointData>
    </Piece>
    <Piece NumberOfPoints="4" NumberOfCells="3">
      <Points>
        <DataArray type="Float64" NumberOfComponents="3" format="ascii">
          9.38264549e-01 8.62528384e-03 0.00000000e+00 
9.48560059e-01 7.23283459e-03 0.00000000e+00 
9.58853185e-01 5.82307298e-03 0.00000000e+00 
9.69143867e-01 4.39538015e-03 0.00000000e+00 

        </DataArray>
      </Points>
      <Cells>
        <DataArray type="Int32" Name="connectivity" format="ascii">
0 1
1 2
2 3

        </DataArray>
        <DataArray type="Int32" Name="offsets" format="ascii">
2 4 6 
        </DataArray>
        <DataArray type="UInt8" Name="types" format="ascii">
3 3 3 
        </DataArray>
      </Cells>
      <PointData>
        <DataArray type="Float64" Name="rho">
          9.71558966e-01 9.73542218e-01 9.75053758e-01 9.78258651e-01 
        </DataArray>
        <DataArray type="Float64" Name="rhou">
          -7.77527841e-03 2.59974749e-03 -3.68517459e-03 -2.18421313e-02 
        </DataArray>
        <DataArray type="Float64" Name="rhov">
          -1.23821617e-03 1.53318518e-04 -1.25878215e-03 2.21429795e-02 
        </DataArray>
        <DataArray type="Float64" Name="E">
          2.21843357e+05 2.22298399e+05 2.22645255e+05 2.23378639e+05 
        </DataArray>
      </PointData>
    </Piece>
    <Piece NumberOfPoints="4" NumberOfCells="3">
      <Points>
        <DataArray type="Float64" NumberOfComponents="3" format="ascii">
          9.69143867e-01 4.39538015e-03 0.00000000e+00 
9.79435980e-01 2.94816052e-03 0.00000000e+00 
9.89725590e-01 1.48259092e-03 0.00000000e+00 
1.00000000e+00 0.00000000e+00 0.00000000e+00 

        </DataArray>
      </Points>
      <Cells>
        <DataArray type="Int32" Name="connectivity" format="ascii">
0 1
1 2
2 3

        </DataArray>
        <DataArray type="Int32" Name="offsets" format="ascii">
2 4 6 
        </DataArray>
        <DataArray type="UInt8" Name="types" format="ascii">
3 3 3 
        </DataArray>
      </Cells>
      <PointData>
        <DataArray type="Float64" Name="rho">
          9.78595283e-01 9.78223526e-01 9.82741666e-01 9.70794997e-01 
        </DataArray>
        <DataArray type="Float64" Name="rhou">
          -1.55041052e-03 -1.15029247e-02 -4.27052900e-02 5.95743273e-01 
        </DataArray>
        <DataArray type="Float64" Name="rhov">
          2.21487844e-02 2.51099760e-03 6.00601176e-02 -1.55167131e-01 
        </DataArray>
        <DataArray type="Float64" Name="E">
          2.23455767e+05 2.23372330e+05 2.24406009e+05 2.21674925e+05 
        </DataArray>
      </PointData>
    </Piece>
    <Piece NumberOfPoints="4" NumberOfCells="3">
      <Points>
        <DataArray type="Float64" NumberOfComponents="3" format="ascii">
          9.69029665e-01 -4.41133138e-03 0.00000000e+00 
9.79355037e-01 -2.95961346e-03 0.00000000e+00 
9.89677846e-01 -1.48943183e-03 0.00000000e+00 
1.00000000e+00 0.00000000e+00 0.00000000e+00 

        </DataArray>
      </Points>
      <Cells>
        <DataArray type="Int32" Name="connectivity" format="ascii">
0 1
1 2
2 3

        </DataArray>
        <DataArray type="Int32" Name="offsets" format="ascii">
2 4 6 
        </DataArray>
        <DataArray type="UInt8" Name="types" format="ascii">
3 3 3 
        </DataArray>
      </Cells>
      <PointData>
        <DataArray type="Float64" Name="rho">
          9.78844495e-01 9.78125976e-01 9.82636828e-01 9.72012543e-01 
        </DataArray>
        <DataArray type="Float64" Name="rhou">
          -7.95429372e-04 -9.12939883e-03 -4.52829871e-02 5.63479641e-01 
        </DataArray>
        <DataArray type="Float64" Name="rhov">
          -3.20251281e-02 4.17899069e-03 -6.21286401e-02 1.84956679e-01 
        </DataArray>
        <DataArray type="Float64" Name="E">
          2.23442218e+05 2.23290051e+05 2.24334570e+05 2.21940596e+05 
        </DataArray>
      </PointData>
    </Piece>
    <Piece NumberOfPoints="4" NumberOfCells="3">
      <Points>
        <DataArray type="Float64" NumberOfComponents="3" format="ascii">
          9.38035965e-01 -8.65600072e-03 0.00000000e+00 
9.48369622e-01 -7.25875143e-03 0.00000000e+00 
9.58700895e-01 -5.84406452e-03 0.00000000e+00 
9.69029665e-01 -4.41133138e-03 0.00000000e+00 

        </DataArray>
      </Points>
      <Cells>
        <DataArray type="Int32" Name="connectivity" format="ascii">
0 1
1 2
2 3

        </DataArray>
        <DataArray type="Int32" Name="offsets" format="ascii">
2 4 6 
        </DataArray>
        <DataArray type="UInt8" Name="types" format="ascii">
3 3 3 
        </DataArray>
      </Cells>
      <PointData>
        <DataArray type="Float64" Name="rho">
          9.72502024e-01 9.74240476e-01 9.75476438e-01 9.78468452e-01 
        </DataArray>
        <DataArray type="Float64" Name="rhou">
          -7.95370547e-03 2.94855855e-03 -3.19818790e-03 -2.15674524e-02 
        </DataArray>
        <DataArray type="Float64" Name="rhov">
          1.42479811e-03 -2.36358706e-04 1.81144698e-03 -2.19513216e-02 
        </DataArray>
        <DataArray type="Float64" Name="E">
          2.21966198e+05 2.22372710e+05 2.22664284e+05 2.23356834e+05 
        </DataArray>
      </PointData>
    </Piece>
    <Piece NumberOfPoints="4" NumberOfCells="3">
      <Points>
        <DataArray type="Float64" NumberOfComponents="3" format="ascii">
          9.07021165e-01 -1.27432076e-02 0.00000000e+00 
9.17361677e-01 -1.13977119e-02 0.00000000e+00 
9.27700043e-01 -1.00357840e-02 0.00000000e+00 
9.38035965e-01 -8.65600072e-03 0.00000000e+00 

        </DataArray>
      </Points>
      <Cells>
        <DataArray type="Int32" Name="connectivity" format="ascii">
0 1
1 2
2 3

        </DataArray>
        <DataArray type="Int32" Name="offsets" format="ascii">
2 4 6 
        </DataArray>
        <DataArray type="UInt8" Name="types" format="ascii">
3 3 3 
        </DataArray>
      </Cells>
      <PointData>
        <DataArray type="Float64" Name="rho">
          9.68271215e-01 9.69727793e-01 9.71229554e-01 9.72561064e-01 
        </DataArray>
        <DataArray type="Float64" Name="rhou">
          1.19530982e-03 -6.68672799e-05 6.47396336e-04 1.15658270e-03 
        </DataArray>
        <DataArray type="Float64" Name="rhov">
          3.99238040e-05 7.97911263e-05 -3.37863426e-05 1.74633465e-03 
        </DataArray>
        <DataArray type="Float64" Name="E">
          2.20967145e+05 2.21311440e+05 2.21665332e+05 2.21979660e+05 
        </DataArray>
      </PointData>
    </Piece>
    <Piece NumberOfPoints="4" NumberOfCells="3">
      <Points>
        <DataArray type="Float64" NumberOfComponents="3" format="ascii">
          8.75986874e-01 -1.66798849e-02 0.00000000e+00 
8.86333704e-01 -1.53839625e-02 0.00000000e+00 
8.96678507e-01 -1.40720531e-02 0.00000000e+00 
9.07021165e-01 -1.27432076e-02 0.00000000e+00 

        </DataArray>
      </Points>
      <Cells>
        <DataArray type="Int32" Name="connectivity" format="ascii">
0 1
1 2
2 3

        </DataArray>
        <DataArray type="Int32" Name="offsets" format="ascii">
2 4 6 
        </DataArray>
        <DataArray type="UInt8" Name="types" format="ascii">
3 3 3 
        </DataArray>
      </Cells>
      <PointData>
        <DataArray type="Float64" Name="rho">
          9.63782536e-01 9.65281090e-01 9.66768126e-01 9.68265005e-01 
        </DataArray>
        <DataArray type="Float64" Name="rhou">
          2.16040872e-04 3.19502934e-04 2.56630996e-04 1.92002436e-04 
        </DataArray>
        <DataArray type="Float64" Name="rhov">
          6.31577407e-05 5.51140543e-05 7.54055403e-05 -4.61173861e-05 
        </DataArray>
        <DataArray type="Float64" Name="E">
          2.19903465e+05 2.20259109e+05 2.20611592e+05 2.20965731e+05 
        </DataArray>
      </PointData>
    </Piece>
    <Piece NumberOfPoints="4" NumberOfCells="3">
      <Points>
        <DataArray type="Float64" NumberOfComponents="3" format="ascii">
          8.44934702e-01 -2.04724707e-02 0.00000000e+00 
8.55287313e-01 -1.92240477e-02 0.00000000e+00 
8.65638077e-01 -1.79597028e-02 0.00000000e+00 
8.75986874e-01 -1.66798849e-02 0.00000000e+00 

        </DataArray>
      </Points>
      <Cells>
        <DataArray type="Int32" Name="connectivity" format="ascii">
0 1
1 2
2 3

        </DataArray>
        <DataArray type="Int32" Name="offsets" format="ascii">
2 4 6 
        </DataArray>
        <DataArray type="UInt8" Name="types" format="ascii">
3 3 3 
        </DataArray>
      </Cells>
      <PointData>
        <DataArray type="Float64" Name="rho">
          9.59264854e-01 9.60775344e-01 9.62284174e-01 9.63783082e-01 
        </DataArray>
        <DataArray type="Float64" Name="rhou">
          3.77105831e-04 3.09237367e-04 2.96082768e-04 3.40347258e-04 
        </DataArray>
        <DataArray type="Float64" Name="rhov">
          2.75247056e-05 5.31829754e-05 4.33053756e-05 6.81203193e-05 
        </DataArray>
        <DataArray type="Float64" Name="E">
          2.18828739e+05 2.19188457e+05 2.19547379e+05 2.19903590e+05 
        </DataArray>
      </PointData>
    </Piece>
    <Piece NumberOfPoints="4" NumberOfCells="3">
      <Points>
        <DataArray type="Float64" NumberOfComponents="3" format="ascii">
          8.13865662e-01 -2.41250079e-02 0.00000000e+00 
8.24223816e-01 -2.29226518e-02 0.00000000e+00 
8.34580123e-01 -2.17050612e-02 0.00000000e+00 
8.44934702e-01 -2.04724707e-02 0.00000000e+00 

        </DataArray>
      </Points>
      <Cells>
        <DataArray type="Int32" Name="connectivity" format="ascii">
0 1
1 2
2 3

        </DataArray>
        <DataArray type="Int32" Name="offsets" format="ascii">
2 4 6 
        </DataArray>
        <DataArray type="UInt8" Name="types" format="ascii">
3 3 3 
        </DataArray>
      </Cells>
      <PointData>
        <DataArray type="Float64" Name="rho">
          9.54683597e-01 9.56215998e-01 9.57743213e-01 9.59264586e-01 
        </DataArray>
        <DataArray type="Float64" Name="rhou">
          3.42213722e-04 3.27333184e-04 3.11457613e-04 3.19329907e-04 
        </DataArray>
        <DataArray type="Float64" Name="rhov">
          3.45007240e-05 3.74553336e-05 3.10840995e-05 1.94153386e-05 
        </DataArray>
        <DataArray type="Float64" Name="E">
          2.17735938e+05 2.18101785e+05 2.18466086e+05 2.18828678e+05 
        </DataArray>
      </PointData>
    </Piece>
    <Piece NumberOfPoints="4" NumberOfCells="3">
      <Points>
        <DataArray type="Float64" NumberOfComponents="3" format="ascii">
          7.82780826e-01 -2.76402626e-02 0.00000000e+00 
7.93144107e-01 -2.64833923e-02 0.00000000e+00 
8.03505778e-01 -2.53117718e-02 0.00000000e+00 
8.13865662e-01 -2.41250079e-02 0.00000000e+00 

        </DataArray>
      </Points>
      <Cells>
        <DataArray type="Int32" Name="connectivity" format="ascii">
0 1
1 2
2 3

        </DataArray>
        <DataArray type="Int32" Name="offsets" format="ascii">
2 4 6 
        </DataArray>
        <DataArray type="UInt8" Name="types" format="ascii">
3 3 3 
        </DataArray>
      </Cells>
      <PointData>
        <DataArray type="Float64" Name="rho">
          9.50048950e-01 9.51600027e-01 9.53145925e-01 9.54683478e-01 
        </DataArray>
        <DataArray type="Float64" Name="rhou">
          3.56254439e-04 3.36165888e-04 3.38567030e-04 3.52158401e-04 
        </DataArray>
        <DataArray type="Float64" Name="rhov">
          2.59378351e-05 1.81661150e-05 1.49364840e-05 3.31490361e-05 
        </DataArray>
        <DataArray type="Float64" Name="E">
          2.16627797e+05 2.16998925e+05 2.17368539e+05 2.17735910e+05 
        </DataArray>
      </PointData>
    </Piece>
    <Piece NumberOfPoints="4" NumberOfCells="3">
      <Points>
        <DataArray type="Float64" NumberOfComponents="3" format="ascii">
          7.51680970e-01 -3.10197193e-02 0.00000000e+00 
7.62049198e-01 -2.99084149e-02 0.00000000e+00 
7.72415876e-01 -2.87819952e-02 0.00000000e+00 
7.82780826e-01 -2.76402626e-02 0.00000000e+00 

        </DataArray>
      </Points>
      <Cells>
        <DataArray type="Int32" Name="connectivity" format="ascii">
0 1
1 2
2 3

        </DataArray>
        <DataArray type="Int32" Name="offsets" format="ascii">
2 4 6 
        </DataArray>
        <DataArray type="UInt8" Name="types" format="ascii">
3 3 3 
        </DataArray>
      </Cells>
      <PointData>
        <DataArray type="Float64" Name="rho">
          9.45368758e-01 9.46933853e-01 9.48493854e-01 9.50048910e-01 
        </DataArray>
        <DataArray type="Float64" Name="rhou">
          3.58366068e-04 3.58174315e-04 3.55943335e-04 3.44222267e-04 
        </DataArray>
        <DataArray type="Float64" Name="rhov">
          1.44721838e-05 8.27213941e-06 1.39306335e-05 2.41042980e-05 
        </DataArray>
        <DataArray type="Float64" Name="E">
          2.15506400e+05 2.15881643e+05 2.16255432e+05 2.16627787e+05 
        </DataArray>
      </PointData>
    </Piece>
    <Piece NumberOfPoints="4" NumberOfCells="3">
      <Points>
        <DataArray type="Float64" NumberOfComponents="3" format="ascii">
          7.20566452e-01 -3.42622213e-02 0.00000000e+00 
7.30939507e-01 -3.31965312e-02 0.00000000e+00 
7.41311073e-01 -3.21157984e-02 0.00000000e+00 
7.51680970e-01 -3.10197193e-02 0.00000000e+00 

        </DataArray>
      </Points>
      <Cells>
        <DataArray type="Int32" Name="connectivity" format="ascii">
0 1
1 2
2 3

        </DataArray>
        <DataArray type="Int32" Name="offsets" format="ascii">
2 4 6 
        </DataArray>
        <DataArray type="UInt8" Name="types" format="ascii">
3 3 3 
        </DataArray>
      </Cells>
      <PointData>
        <DataArray type="Float64" Name="rho">
          9.40658389e-01 9.42231567e-01 9.43802011e-01 9.45368750e-01 
        </DataArray>
        <DataArray type="Float64" Name="rhou">
          3.72058195e-04 3.69646420e-04 3.71312692e-04 3.61809961e-04 
        </DataArray>
        <DataArray type="Float64" Name="rhov">
          9.12743442e-06 -2.46370070e-06 1.26489075e-06 1.56167535e-05 
        </DataArray>
        <DataArray type="Float64" Name="E">
          2.14375653e+05 2.14753508e+05 2.15130503e+05 2.15506398e+05 
        </DataArray>
      </PointData>
    </Piece>
    <Piece NumberOfPoints="4" NumberOfCells="3">
      <Points>
        <DataArray type="Float64" NumberOfComponents="3" format="ascii">
          6.89437866e-01 -3.73662710e-02 0.00000000e+00 
6.99815631e-01 -3.63472365e-02 0.00000000e+00 
7.10191846e-01 -3.53125818e-02 0.00000000e+00 
7.20566452e-01 -3.42622213e-02 0.00000000e+00 

        </DataArray>
      </Points>
      <Cells>
        <DataArray type="Int32" Name="connectivity" format="ascii">
0 1
1 2
2 3

        </DataArray>
        <DataArray type="Int32" Name="offsets" format="ascii">
2 4 6 
        </DataArray>
        <DataArray type="UInt8" Name="types" format="ascii">
3 3 3 
        </DataArray>
      </Cells>
      <PointData>
        <DataArray type="Float64" Name="rho">
          9.35945796e-01 9.37515823e-01 9.39086974e-01 9.40658402e-01 
        </DataArray>
        <DataArray type="Float64" Name="rhou">
          3.92282190e-04 3.89756673e-04 3.87409812e-04 3.73225950e-04 
        </DataArray>
        <DataArray type="Float64" Name="rhov">
          1.17463720e-06 -7.12218370e-06 -2.06204663e-06 1.00190789e-05 
        </DataArray>
        <DataArray type="Float64" Name="E">
          2.13242538e+05 2.13620209e+05 2.13997990e+05 2.14375656e+05 
        </DataArray>
      </PointData>
    </Piece>
    <Piece NumberOfPoints="4" NumberOfCells="3">
      <Points>
        <DataArray type="Float64" NumberOfComponents="3" format="ascii">
          6.58295333e-01 -4.03269380e-02 0.00000000e+00 
6.68677747e-01 -3.93563360e-02 0.00000000e+00 
6.79058611e-01 -3.83694395e-02 0.00000000e+00 
6.89437866e-01 -3.73662710e-02 0.00000000e+00 

        </DataArray>
      </Points>
      <Cells>
        <DataArray type="Int32" Name="connectivity" format="ascii">
0 1
1 2
2 3

        </DataArray>
        <DataArray type="Int32" Name="offsets" format="ascii">
2 4 6 
        </DataArray>
        <DataArray type="UInt8" Name="types" format="ascii">
3 3 3 
        </DataArray>
      </Cells>
      <PointData>
        <DataArray type="Float64" Name="rho">
          9.31268936e-01 9.32822077e-01 9.34381234e-01 9.35945856e-01 
        </DataArray>
        <DataArray type="Float64" Name="rhou">
          4.16526003e-04 4.15771106e-04 4.07340100e-04 3.90414886e-04 
        </DataArray>
        <DataArray type="Float64" Name="rhov">
          -7.84645753e-06 -1.22267239e-05 -5.77306473e-06 2.57631560e-06 
        </DataArray>
        <DataArray type="Float64" Name="E">
          2.12116603e+05 2.12490630e+05 2.12866002e+05 2.13242552e+05 
        </DataArray>
      </PointData>
    </Piece>
    <Piece NumberOfPoints="4" NumberOfCells="3">
      <Points>
        <DataArray type="Float64" NumberOfComponents="3" format="ascii">
          6.27138972e-01 -4.31386717e-02 0.00000000e+00 
6.37525976e-01 -4.22184542e-02 0.00000000e+00 
6.47911429e-01 -4.12811004e-02 0.00000000e+00 
6.58295333e-01 -4.03269380e-02 0.00000000e+00 

        </DataArray>
      </Points>
      <Cells>
        <DataArray type="Int32" Name="connectivity" format="ascii">
0 1
1 2
2 3

        </DataArray>
        <DataArray type="Int32" Name="offsets" format="ascii">
2 4 6 
        </DataArray>
        <DataArray type="UInt8" Name="types" format="ascii">
3 3 3 
        </DataArray>
      </Cells>
      <PointData>
        <DataArray type="Float64" Name="rho">
          9.26677434e-01 9.28194685e-01 9.29726074e-01 9.31268972e-01 
        </DataArray>
        <DataArray type="Float64" Name="rhou">
          4.57254346e-04 4.41769727e-04 4.28310631e-04 4.17889069e-04 
        </DataArray>
        <DataArray type="Float64" Name="rhov">
          -6.25806187e-06 -9.18869764e-06 -9.34189140e-06 -6.40189180e-06 
        </DataArray>
        <DataArray type="Float64" Name="E">
          2.11010314e+05 2.11375953e+05 2.11744936e+05 2.12116611e+05 
        </DataArray>
      </PointData>
    </Piece>
    <Piece NumberOfPoints="4" NumberOfCells="3">
      <Points>
        <DataArray type="Float64" NumberOfComponents="3" format="ascii">
          5.95968783e-01 -4.57924642e-02 0.00000000e+00 
6.06360376e-01 -4.49259281e-02 0.00000000e+00 
6.16750479e-01 -4.40412909e-02 0.00000000e+00 
6.27138972e-01 -4.31386717e-02 0.00000000e+00 

        </DataArray>
      </Points>
      <Cells>
        <DataArray type="Int32" Name="connectivity" format="ascii">
0 1
1 2
2 3

        </DataArray>
        <DataArray type="Int32" Name="offsets" format="ascii">
2 4 6 
        </DataArray>
        <DataArray type="UInt8" Name="types" format="ascii">
3 3 3 
        </DataArray>
      </Cells>
      <PointData>
        <DataArray type="Float64" Name="rho">
          9.22237124e-01 9.23697006e-01 9.25177771e-01 9.26677426e-01 
        </DataArray>
        <DataArray type="Float64" Name="rhou">
          4.92599940e-04 4.83841133e-04 4.69900778e-04 4.50642736e-04 
        </DataArray>
        <DataArray type="Float64" Name="rhov">
          -1.22378381e-05 -1.79960798e-05 -1.32239733e-05 -5.02863669e-06 
        </DataArray>
        <DataArray type="Float64" Name="E">
          2.09940083e+05 2.10291946e+05 2.10648859e+05 2.11010312e+05 
        </DataArray>
      </PointData>
    </Piece>
    <Piece NumberOfPoints="4" NumberOfCells="3">
      <Points>
        <DataArray type="Float64" NumberOfComponents="3" format="ascii">
          5.64784765e-01 -4.82786149e-02 0.00000000e+00 
5.75181007e-01 -4.74695377e-02 0.00000000e+00 
5.85575700e-01 -4.66405638e-02 0.00000000e+00 
5.95968783e-01 -4.57924642e-02 0.00000000e+00 

        </DataArray>
      </Points>
      <Cells>
        <DataArray type="Int32" Name="connectivity" format="ascii">
0 1
1 2
2 3

        </DataArray>
        <DataArray type="Int32" Name="offsets" format="ascii">
2 4 6 
        </DataArray>
        <DataArray type="UInt8" Name="types" format="ascii">
3 3 3 
        </DataArray>
      </Cells>
      <PointData>
        <DataArray type="Float64" Name="rho">
          9.18029433e-01 9.19399765e-01 9.20803217e-01 9.22237246e-01 
        </DataArray>
        <DataArray type="Float64" Name="rhou">
          5.64666813e-04 5.39497424e-04 5.07887228e-04 4.86370664e-04 
        </DataArray>
        <DataArray type="Float64" Name="rhov">
          -1.63409119e-05 -6.74255297e-06 -4.41028905e-06 -1.10321354e-05 
        </DataArray>
        <DataArray type="Float64" Name="E">
          2.08926034e+05 2.09256247e+05 2.09594488e+05 2.09940111e+05 
        </DataArray>
      </PointData>
    </Piece>
    <Piece NumberOfPoints="4" NumberOfCells="3">
      <Points>
        <DataArray type="Float64" NumberOfComponents="3" format="ascii">
          5.33586800e-01 -5.05827516e-02 0.00000000e+00 
5.43987691e-01 -4.98356484e-02 0.00000000e+00 
5.54387033e-01 -4.90674041e-02 0.00000000e+00 
5.64784765e-01 -4.82786149e-02 0.00000000e+00 

        </DataArray>
      </Points>
      <Cells>
        <DataArray type="Int32" Name="connectivity" format="ascii">
0 1
1 2
2 3

        </DataArray>
        <DataArray type="Int32" Name="offsets" format="ascii">
2 4 6 
        </DataArray>
        <DataArray type="UInt8" Name="types" format="ascii">
3 3 3 
        </DataArray>
      </Cells>
      <PointData>
        <DataArray type="Float64" Name="rho">
          9.14147162e-01 9.15397966e-01 9.16694108e-01 9.18029389e-01 
        </DataArray>
        <DataArray type="Float64" Name="rhou">
          6.36768075e-04 5.96445059e-04 5.68667580e-04 5.59056510e-04 
        </DataArray>
        <DataArray type="Float64" Name="rhov">
          -6.06338556e-06 -9.06210080e-06 -1.55057314e-05 -1.58955643e-05 
        </DataArray>
        <DataArray type="Float64" Name="E">
          2.07991005e+05 2.08292175e+05 2.08604339e+05 2.08926023e+05 
        </DataArray>
      </PointData>
    </Piece>
    <Piece NumberOfPoints="4" NumberOfCells="3">
      <Points>
        <DataArray type="Float64" NumberOfComponents="3" format="ascii">
          5.02374947e-01 -5.26902266e-02 0.00000000e+00 
5.12780428e-01 -5.20105064e-02 0.00000000e+00 
5.23184419e-01 -5.13078682e-02 0.00000000e+00 
5.33586800e-01 -5.05827516e-02 0.00000000e+00 

        </DataArray>
      </Points>
      <Cells>
        <DataArray type="Int32" Name="connectivity" format="ascii">
0 1
1 2
2 3

        </DataArray>
        <DataArray type="Int32" Name="offsets" format="ascii">
2 4 6 
        </DataArray>
        <DataArray type="UInt8" Name="types" format="ascii">
3 3 3 
        </DataArray>
      </Cells>
      <PointData>
        <DataArray type="Float64" Name="rho">
          9.10705336e-01 9.11796754e-01 9.12946170e-01 9.14147058e-01 
        </DataArray>
        <DataArray type="Float64" Name="rhou">
          7.18989755e-04 6.81826981e-04 6.54576156e-04 6.34302813e-04 
        </DataArray>
        <DataArray type="Float64" Name="rhov">
          -6.74945046e-06 -1.68642754e-05 -1.85005996e-05 -6.66288438e-06 
        </DataArray>
        <DataArray type="Float64" Name="E">
          2.07162891e+05 2.07425369e+05 2.07701915e+05 2.07990982e+05 
        </DataArray>
      </PointData>
    </Piece>
    <Piece NumberOfPoints="4" NumberOfCells="3">
      <Points>
        <DataArray type="Float64" NumberOfComponents="3" format="ascii">
          4.71149325e-01 -5.45825884e-02 0.00000000e+00 
4.81559396e-01 -5.39771840e-02 0.00000000e+00 
4.91967946e-01 -5.33461571e-02 0.00000000e+00 
5.02374947e-01 -5.26902266e-02 0.00000000e+00 

        </DataArray>
      </Points>
      <Cells>
        <DataArray type="Int32" Name="connectivity" format="ascii">
0 1
1 2
2 3

        </DataArray>
        <DataArray type="Int32" Name="offsets" format="ascii">
2 4 6 
        </DataArray>
        <DataArray type="UInt8" Name="types" format="ascii">
3 3 3 
        </DataArray>
      </Cells>
      <PointData>
        <DataArray type="Float64" Name="rho">
          9.07843325e-01 9.08724956e-01 9.09679240e-01 9.10705430e-01 
        </DataArray>
        <DataArray type="Float64" Name="rhou">
          8.30519085e-04 8.07151249e-04 7.58423656e-04 6.98143735e-04 
        </DataArray>
        <DataArray type="Float64" Name="rhov">
          -2.38563377e-05 -2.02263894e-05 -4.85720566e-06 -3.98157957e-06 
        </DataArray>
        <DataArray type="Float64" Name="E">
          2.06475158e+05 2.06686883e+05 2.06916213e+05 2.07162913e+05 
        </DataArray>
      </PointData>
    </Piece>
    <Piece NumberOfPoints="4" NumberOfCells="3">
      <Points>
        <DataArray type="Float64" NumberOfComponents="3" format="ascii">
          4.39910263e-01 -5.62384278e-02 0.00000000e+00 
4.50324744e-01 -5.57143167e-02 0.00000000e+00 
4.60737765e-01 -5.51619194e-02 0.00000000e+00 
4.71149325e-01 -5.45825884e-02 0.00000000e+00 

        </DataArray>
      </Points>
      <Cells>
        <DataArray type="Int32" Name="connectivity" format="ascii">
0 1
1 2
2 3

        </DataArray>
        <DataArray type="Int32" Name="offsets" format="ascii">
2 4 6 
        </DataArray>
        <DataArray type="UInt8" Name="types" format="ascii">
3 3 3 
        </DataArray>
      </Cells>
      <PointData>
        <DataArray type="Float64" Name="rho">
          9.05718332e-01 9.06330642e-01 9.07042444e-01 9.07843405e-01 
        </DataArray>
        <DataArray type="Float64" Name="rhou">
          1.00853632e-03 9.26537477e-04 8.65253240e-04 8.36544368e-04 
        </DataArray>
        <DataArray type="Float64" Name="rhov">
          -6.83373551e-06 -2.14655965e-07 -1.04653858e-05 -2.14616508e-05 
        </DataArray>
        <DataArray type="Float64" Name="E">
          2.05965336e+05 2.06112178e+05 2.06282934e+05 2.06475176e+05 
        </DataArray>
      </PointData>
    </Piece>
    <Piece NumberOfPoints="4" NumberOfCells="3">
      <Points>
        <DataArray type="Float64" NumberOfComponents="3" format="ascii">
          4.08658355e-01 -5.76302819e-02 0.00000000e+00 
4.19077009e-01 -5.71971126e-02 0.00000000e+00 
4.29494321e-01 -5.67329265e-02 0.00000000e+00 
4.39910263e-01 -5.62384278e-02 0.00000000e+00 

        </DataArray>
      </Points>
      <Cells>
        <DataArray type="Int32" Name="connectivity" format="ascii">
0 1
1 2
2 3

        </DataArray>
        <DataArray type="Int32" Name="offsets" format="ascii">
2 4 6 
        </DataArray>
        <DataArray type="UInt8" Name="types" format="ascii">
3 3 3 
        </DataArray>
      </Cells>
      <PointData>
        <DataArray type="Float64" Name="rho">
          9.04528480e-01 9.04809932e-01 9.05210124e-01 9.05718083e-01 
        </DataArray>
        <DataArray type="Float64" Name="rhou">
          1.17250983e-03 1.09911543e-03 1.04513551e-03 1.00294261e-03 
        </DataArray>
        <DataArray type="Float64" Name="rhov">
          -7.13705063e-06 -2.35464428e-05 -2.57011753e-05 -7.07627273e-06 
        </DataArray>
        <DataArray type="Float64" Name="E">
          2.05680426e+05 2.05747728e+05 2.05843534e+05 2.05965279e+05 
        </DataArray>
      </PointData>
    </Piece>
    <Piece NumberOfPoints="4" NumberOfCells="3">
      <Points>
        <DataArray type="Float64" NumberOfComponents="3" format="ascii">
          3.77394795e-01 -5.87291755e-02 0.00000000e+00 
3.87817174e-01 -5.83979115e-02 0.00000000e+00 
3.98238391e-01 -5.80311492e-02 0.00000000e+00 
4.08658355e-01 -5.76302819e-02 0.00000000e+00 

        </DataArray>
      </Points>
      <Cells>
        <DataArray type="Int32" Name="connectivity" format="ascii">
0 1
1 2
2 3

        </DataArray>
        <DataArray type="Int32" Name="offsets" format="ascii">
2 4 6 
        </DataArray>
        <DataArray type="UInt8" Name="types" format="ascii">
3 3 3 
        </DataArray>
      </Cells>
      <PointData>
        <DataArray type="Float64" Name="rho">
          9.04513782e-01 9.04372729e-01 9.04378117e-01 9.04528702e-01 
        </DataArray>
        <DataArray type="Float64" Name="rhou">
          1.43521241e-03 1.35782004e-03 1.25090421e-03 1.13944218e-03 
        </DataArray>
        <DataArray type="Float64" Name="rhov">
          -4.54366461e-05 -1.87414419e-05 7.96698413e-06 -2.40134179e-06 
        </DataArray>
        <DataArray type="Float64" Name="E">
          2.05677103e+05 2.05643267e+05 2.05644517e+05 2.05680478e+05 
        </DataArray>
      </PointData>
    </Piece>
    <Piece NumberOfPoints="4" NumberOfCells="3">
      <Points>
        <DataArray type="Float64" NumberOfComponents="3" format="ascii">
          3.46121490e-01 -5.95011823e-02 0.00000000e+00 
3.56546819e-01 -5.92821389e-02 0.00000000e+00 
3.66971314e-01 -5.90242445e-02 0.00000000e+00 
3.77394795e-01 -5.87291755e-02 0.00000000e+00 

        </DataArray>
      </Points>
      <Cells>
        <DataArray type="Int32" Name="connectivity" format="ascii">
0 1
1 2
2 3

        </DataArray>
        <DataArray type="Int32" Name="offsets" format="ascii">
2 4 6 
        </DataArray>
        <DataArray type="UInt8" Name="types" format="ascii">
3 3 3 
        </DataArray>
      </Cells>
      <PointData>
        <DataArray type="Float64" Name="rho">
          9.05927607e-01 9.05275347e-01 9.04809305e-01 9.04513878e-01 
        </DataArray>
        <DataArray type="Float64" Name="rhou">
          1.79350546e-03 1.64260907e-03 1.50804985e-03 1.43883358e-03 
        </DataArray>
        <DataArray type="Float64" Name="rhov">
          -7.51880141e-05 -3.37227666e-05 -2.84301229e-05 -4.09238777e-05 
        </DataArray>
        <DataArray type="Float64" Name="E">
          2.06015413e+05 2.05859453e+05 2.05747914e+05 2.05677124e+05 
        </DataArray>
      </PointData>
    </Piece>
    <Piece NumberOfPoints="4" NumberOfCells="3">
      <Points>
        <DataArray type="Float64" NumberOfComponents="3" format="ascii">
          3.14841360e-01 -5.99102043e-02 0.00000000e+00 
3.25268596e-01 -5.98174632e-02 0.00000000e+00 
3.35695356e-01 -5.96801341e-02 0.00000000e+00 
3.46121490e-01 -5.95011823e-02 0.00000000e+00 

        </DataArray>
      </Points>
      <Cells>
        <DataArray type="Int32" Name="connectivity" format="ascii">
0 1
1 2
2 3

        </DataArray>
        <DataArray type="Int32" Name="offsets" format="ascii">
2 4 6 
        </DataArray>
        <DataArray type="UInt8" Name="types" format="ascii">
3 3 3 
        </DataArray>
      </Cells>
      <PointData>
        <DataArray type="Float64" Name="rho">
          9.09126581e-01 9.07825184e-01 9.06767489e-01 9.05927300e-01 
        </DataArray>
        <DataArray type="Float64" Name="rhou">
          2.25954371e-03 2.00578527e-03 1.83487278e-03 1.75593455e-03 
        </DataArray>
        <DataArray type="Float64" Name="rhov">
          -3.65734031e-06 1.87738452e-05 -1.69543806e-05 -7.46584237e-05 
        </DataArray>
        <DataArray type="Float64" Name="E">
          2.06779661e+05 2.06468948e+05 2.06216233e+05 2.06015343e+05 
        </DataArray>
      </PointData>
    </Piece>
    <Piece NumberOfPoints="4" NumberOfCells="3">
      <Points>
        <DataArray type="Float64" NumberOfComponents="3" format="ascii">
          2.83558637e-01 -5.98983802e-02 0.00000000e+00 
2.93986142e-01 -5.99516556e-02 0.00000000e+00 
3.04413795e-01 -5.99554181e-02 0.00000000e+00 
3.14841360e-01 -5.99102043e-02 0.00000000e+00 

        </DataArray>
      </Points>
      <Cells>
        <DataArray type="Int32" Name="connectivity" format="ascii">
0 1
1 2
2 3

        </DataArray>
        <DataArray type="Int32" Name="offsets" format="ascii">
2 4 6 
        </DataArray>
        <DataArray type="UInt8" Name="types" format="ascii">
3 3 3 
        </DataArray>
      </Cells>
      <PointData>
        <DataArray type="Float64" Name="rho">
          9.14567127e-01 9.12490493e-01 9.10681673e-01 9.09125835e-01 
        </DataArray>
        <DataArray type="Float64" Name="rhou">
          2.74840553e-03 2.58021908e-03 2.43993406e-03 2.25016172e-03 
        </DataArray>
        <DataArray type="Float64" Name="rhov">
          -6.06676607e-05 -1.31733895e-04 -9.54449862e-05 2.97295316e-06 
        </DataArray>
        <DataArray type="Float64" Name="E">
          2.08078500e+05 2.07582685e+05 2.07150856e+05 2.06779491e+05 
        </DataArray>
      </PointData>
    </Piece>
    <Piece NumberOfPoints="4" NumberOfCells="3">
      <Points>
        <DataArray type="Float64" NumberOfComponents="3" format="ascii">
          2.52279758e-01 -5.94130717e-02 0.00000000e+00 
2.62705088e-01 -5.96327744e-02 0.00000000e+00 
2.73131490e-01 -5.97934239e-02 0.00000000e+00 
2.83558637e-01 -5.98983802e-02 0.00000000e+00 

        </DataArray>
      </Points>
      <Cells>
        <DataArray type="Int32" Name="connectivity" format="ascii">
0 1
1 2
2 3

        </DataArray>
        <DataArray type="Int32" Name="offsets" format="ascii">
2 4 6 
        </DataArray>
        <DataArray type="UInt8" Name="types" format="ascii">
3 3 3 
        </DataArray>
      </Cells>
      <PointData>
        <DataArray type="Float64" Name="rho">
          9.22801151e-01 9.19702180e-01 9.16959547e-01 9.14568077e-01 
        </DataArray>
        <DataArray type="Float64" Name="rhou">
          3.74194019e-03 3.43175457e-03 3.08888201e-03 2.73419750e-03 
        </DataArray>
        <DataArray type="Float64" Name="rhov">
          -2.14490004e-04 -1.19264886e-04 -2.89157756e-05 -4.08454460e-05 
        </DataArray>
        <DataArray type="Float64" Name="E">
          2.10043139e+05 2.09303741e+05 2.08649440e+05 2.08078720e+05 
        </DataArray>
      </PointData>
    </Piece>
    <Piece NumberOfPoints="4" NumberOfCells="3">
      <Points>
        <DataArray type="Float64" NumberOfComponents="3" format="ascii">
          2.21014455e-01 -5.83752058e-02 0.00000000e+00 
2.31433928e-01 -5.87876961e-02 0.00000000e+00 
2.41855890e-01 -5.91322705e-02 0.00000000e+00 
2.52279758e-01 -5.94130717e-02 0.00000000e+00 

        </DataArray>
      </Points>
      <Cells>
        <DataArray type="Int32" Name="connectivity" format="ascii">
0 1
1 2
2 3

        </DataArray>
        <DataArray type="Int32" Name="offsets" format="ascii">
2 4 6 
        </DataArray>
        <DataArray type="UInt8" Name="types" format="ascii">
3 3 3 
        </DataArray>
      </Cells>
      <PointData>
        <DataArray type="Float64" Name="rho">
          9.34540464e-01 9.30174708e-01 9.26276562e-01 9.22801336e-01 
        </DataArray>
        <DataArray type="Float64" Name="rhou">
          5.11340230e-03 4.52006986e-03 4.06763348e-03 3.77751552e-03 
        </DataArray>
        <DataArray type="Float64" Name="rhov">
          -3.28213857e-04 -2.19719376e-04 -1.84878813e-04 -1.97400752e-04 
        </DataArray>
        <DataArray type="Float64" Name="E">
          2.12844416e+05 2.11802648e+05 2.10872460e+05 2.10043177e+05 
        </DataArray>
      </PointData>
    </Piece>
    <Piece NumberOfPoints="4" NumberOfCells="3">
      <Points>
        <DataArray type="Float64" NumberOfComponents="3" format="ascii">
          1.89777538e-01 -5.66898957e-02 0.00000000e+00 
2.00185493e-01 -5.73302582e-02 0.00000000e+00 
2.10598081e-01 -5.78906052e-02 0.00000000e+00 
2.21014455e-01 -5.83752058e-02 0.00000000e+00 

        </DataArray>
      </Points>
      <Cells>
        <DataArray type="Int32" Name="connectivity" format="ascii">
0 1
1 2
2 3

        </DataArray>
        <DataArray type="Int32" Name="offsets" format="ascii">
2 4 6 
        </DataArray>
        <DataArray type="UInt8" Name="types" format="ascii">
3 3 3 
        </DataArray>
      </Cells>
      <PointData>
        <DataArray type="Float64" Name="rho">
          9.50803296e-01 9.44806482e-01 9.39404679e-01 9.34539681e-01 
        </DataArray>
        <DataArray type="Float64" Name="rhou">
          7.04858915e-03 6.24208951e-03 5.65329794e-03 5.17755377e-03 
        </DataArray>
        <DataArray type="Float64" Name="rhov">
          -6.28257804e-04 -5.51843538e-04 -4.45690068e-04 -3.14947915e-04 
        </DataArray>
        <DataArray type="Float64" Name="E">
          2.16726658e+05 2.15294804e+05 2.14005308e+05 2.12844236e+05 
        </DataArray>
      </PointData>
    </Piece>
    <Piece NumberOfPoints="4" NumberOfCells="3">
      <Points>
        <DataArray type="Float64" NumberOfComponents="3" format="ascii">
          1.58592433e-01 -5.42296544e-02 0.00000000e+00 
1.68979734e-01 -5.51457107e-02 0.00000000e+00 
1.79375216e-01 -5.59638515e-02 0.00000000e+00 
1.89777538e-01 -5.66898957e-02 0.00000000e+00 

        </DataArray>
      </Points>
      <Cells>
        <DataArray type="Int32" Name="connectivity" format="ascii">
0 1
1 2
2 3

        </DataArray>
        <DataArray type="Int32" Name="offsets" format="ascii">
2 4 6 
        </DataArray>
        <DataArray type="UInt8" Name="types" format="ascii">
3 3 3 
        </DataArray>
      </Cells>
      <PointData>
        <DataArray type="Float64" Name="rho">
          9.73092636e-01 9.64888815e-01 9.57475274e-01 9.50803718e-01 
        </DataArray>
        <DataArray type="Float64" Name="rhou">
          1.01116133e-02 9.03852474e-03 8.08822398e-03 7.12080744e-03 
        </DataArray>
        <DataArray type="Float64" Name="rhov">
          -1.41740410e-03 -1.21371398e-03 -8.68365523e-04 -5.86548093e-04 
        </DataArray>
        <DataArray type="Float64" Name="E">
          2.22051507e+05 2.20090855e+05 2.18319953e+05 2.16726759e+05 
        </DataArray>
      </PointData>
    </Piece>
    <Piece NumberOfPoints="4" NumberOfCells="3">
      <Points>
        <DataArray type="Float64" NumberOfComponents="3" format="ascii">
          1.27497971e-01 -5.08146733e-02 0.00000000e+00 
1.37849152e-01 -5.20747155e-02 0.00000000e+00 
1.48214847e-01 -5.32093942e-02 0.00000000e+00 
1.58592433e-01 -5.42296544e-02 0.00000000e+00 

        </DataArray>
      </Points>
      <Cells>
        <DataArray type="Int32" Name="connectivity" format="ascii">
0 1
1 2
2 3

        </DataArray>
        <DataArray type="Int32" Name="offsets" format="ascii">
2 4 6 
        </DataArray>
        <DataArray type="UInt8" Name="types" format="ascii">
3 3 3 
        </DataArray>
      </Cells>
      <PointData>
        <DataArray type="Float64" Name="rho">
          1.00378039e+00 9.92409132e-01 9.82200233e-01 9.73096733e-01 
        </DataArray>
        <DataArray type="Float64" Name="rhou">
          1.46250264e-02 1.34632884e-02 1.16607000e-02 1.01398623e-02 
        </DataArray>
        <DataArray type="Float64" Name="rhov">
          -2.34680948e-03 -2.07761989e-03 -1.44014837e-03 -1.34427216e-03 
        </DataArray>
        <DataArray type="Float64" Name="E">
          2.29391784e+05 2.26670362e+05 2.24228979e+05 2.22052449e+05 
        </DataArray>
      </PointData>
    </Piece>
    <Piece NumberOfPoints="4" NumberOfCells="3">
      <Points>
        <DataArray type="Float64" NumberOfComponents="3" format="ascii">
          9.65642184e-02 -4.61716652e-02 0.00000000e+00 
1.06852271e-01 -4.78802323e-02 0.00000000e+00 
1.17164567e-01 -4.94215861e-02 0.00000000e+00 
1.27497971e-01 -5.08146733e-02 0.00000000e+00 

        </DataArray>
      </Points>
      <Cells>
        <DataArray type="Int32" Name="connectivity" format="ascii">
0 1
1 2
2 3

        </DataArray>
        <DataArray type="Int32" Name="offsets" format="ascii">
2 4 6 
        </DataArray>
        <DataArray type="UInt8" Name="types" format="ascii">
3 3 3 
        </DataArray>
      </Cells>
      <PointData>
        <DataArray type="Float64" Name="rho">
          1.04693136e+00 1.03075473e+00 1.01639971e+00 1.00378887e+00 
        </DataArray>
        <DataArray type="Float64" Name="rhou">
          2.47560941e-02 1.81692866e-02 1.72916290e-02 1.29570289e-02 
        </DataArray>
        <DataArray type="Float64" Name="rhov">
          -9.96247918e-04 -7.98896809e-04 -1.62505326e-03 -1.65640671e-03 
        </DataArray>
        <DataArray type="Float64" Name="E">
          2.39737609e+05 2.35855519e+05 2.32414776e+05 2.29393832e+05 
        </DataArray>
      </PointData>
    </Piece>
  </UnstructuredGrid>
</VTKFile>
