<?xml version="1.0"?>
<VTKFile type="UnstructuredGrid" version="0.1" byte_order="LittleEndian">
  <UnstructuredGrid>
    <Piece NumberOfPoints="4" NumberOfCells="3">
      <Points>
        <DataArray type="Float64" NumberOfComponents="3" format="ascii">
          9.65642184e-02 -4.61716652e-02 0.00000000e+00 
9.26280916e-02 -4.54656407e-02 0.00000000e+00 
8.86965096e-02 -4.47326750e-02 0.00000000e+00 
8.47706869e-02 -4.39694971e-02 0.00000000e+00 

        </DataArray>
      </Points>
      <Cells>
        <DataArray type="Int32" Name="connectivity" format="ascii">
0 1
1 2
2 3

        </DataArray>
        <DataArray type="Int32" Name="offsets" format="ascii">
2 4 6 
        </DataArray>
        <DataArray type="UInt8" Name="types" format="ascii">
3 3 3 
        </DataArray>
      </Cells>
      <PointData>
        <DataArray type="Float64" Name="rho">
          1.03267262e+00 1.03957887e+00 1.04679998e+00 1.05446818e+00 
        </DataArray>
        <DataArray type="Float64" Name="rhou">
          2.82702243e-02 2.17753081e-02 2.44225076e-02 2.45964199e-02 
        </DataArray>
        <DataArray type="Float64" Name="rhov">
          -2.24491095e-03 -1.03340680e-03 -6.24644614e-04 -9.39690646e-04 
        </DataArray>
        <DataArray type="Float64" Name="E">
          2.35831191e+05 2.37482609e+05 2.39210958e+05 2.41046669e+05 
        </DataArray>
      </PointData>
    </Piece>
    <Piece NumberOfPoints="4" NumberOfCells="3">
      <Points>
        <DataArray type="Float64" NumberOfComponents="3" format="ascii">
          8.47706869e-02 -4.39694971e-02 0.00000000e+00 
8.08513016e-02 -4.31745499e-02 0.00000000e+00 
7.69388378e-02 -4.23462167e-02 0.00000000e+00 
7.30340332e-02 -4.14824970e-02 0.00000000e+00 

        </DataArray>
      </Points>
      <Cells>
        <DataArray type="Int32" Name="connectivity" format="ascii">
0 1
1 2
2 3

        </DataArray>
        <DataArray type="Int32" Name="offsets" format="ascii">
2 4 6 
        </DataArray>
        <DataArray type="UInt8" Name="types" format="ascii">
3 3 3 
        </DataArray>
      </Cells>
      <PointData>
        <DataArray type="Float64" Name="rho">
          1.05446699e+00 1.06256353e+00 1.07112390e+00 1.08021786e+00 
        </DataArray>
        <DataArray type="Float64" Name="rhou">
          2.46885200e-02 2.38621211e-02 2.24502857e-02 2.08811919e-02 
        </DataArray>
        <DataArray type="Float64" Name="rhov">
          -7.45186041e-04 -5.36774279e-04 3.70182161e-04 1.56452562e-03 
        </DataArray>
        <DataArray type="Float64" Name="E">
          2.41046404e+05 2.42986629e+05 2.45039262e+05 2.47221057e+05 
        </DataArray>
      </PointData>
    </Piece>
    <Piece NumberOfPoints="4" NumberOfCells="3">
      <Points>
        <DataArray type="Float64" NumberOfComponents="3" format="ascii">
          7.30340332e-02 -4.14824970e-02 0.00000000e+00 
6.91377968e-02 -4.05809283e-02 0.00000000e+00 
6.52511865e-02 -3.96387354e-02 0.00000000e+00 
6.13753870e-02 -3.86530459e-02 0.00000000e+00 

        </DataArray>
      </Points>
      <Cells>
        <DataArray type="Int32" Name="connectivity" format="ascii">
0 1
1 2
2 3

        </DataArray>
        <DataArray type="Int32" Name="offsets" format="ascii">
2 4 6 
        </DataArray>
        <DataArray type="UInt8" Name="types" format="ascii">
3 3 3 
        </DataArray>
      </Cells>
      <PointData>
        <DataArray type="Float64" Name="rho">
          1.08021846e+00 1.08992964e+00 1.10028974e+00 1.11135832e+00 
        </DataArray>
        <DataArray type="Float64" Name="rhou">
          2.09988691e-02 1.86469066e-02 1.45453440e-02 9.04324847e-03 
        </DataArray>
        <DataArray type="Float64" Name="rhov">
          1.39907037e-03 2.14464259e-03 4.22659260e-03 7.41626662e-03 
        </DataArray>
        <DataArray type="Float64" Name="E">
          2.47221219e+05 2.49553305e+05 2.52042886e+05 2.54704961e+05 
        </DataArray>
      </PointData>
    </Piece>
    <Piece NumberOfPoints="4" NumberOfCells="3">
      <Points>
        <DataArray type="Float64" NumberOfComponents="3" format="ascii">
          6.13753870e-02 -3.86530459e-02 0.00000000e+00 
5.75117208e-02 -3.76208089e-02 0.00000000e+00 
5.36618084e-02 -3.65384258e-02 0.00000000e+00 
4.98276278e-02 -3.54015976e-02 0.00000000e+00 

        </DataArray>
      </Points>
      <Cells>
        <DataArray type="Int32" Name="connectivity" format="ascii">
0 1
1 2
2 3

        </DataArray>
        <DataArray type="Int32" Name="offsets" format="ascii">
2 4 6 
        </DataArray>
        <DataArray type="UInt8" Name="types" format="ascii">
3 3 3 
        </DataArray>
      </Cells>
      <PointData>
        <DataArray type="Float64" Name="rho">
          1.11135858e+00 1.12321842e+00 1.13595429e+00 1.14969757e+00 
        </DataArray>
        <DataArray type="Float64" Name="rhou">
          8.98687437e-03 1.92913911e-03 -7.28472126e-03 -1.88033940e-02 
        </DataArray>
        <DataArray type="Float64" Name="rhov">
          7.18832199e-03 1.18889562e-02 1.99617880e-02 3.14254514e-02 
        </DataArray>
        <DataArray type="Float64" Name="E">
          2.54705026e+05 2.57561360e+05 2.60631342e+05 2.63947483e+05 
        </DataArray>
      </PointData>
    </Piece>
    <Piece NumberOfPoints="4" NumberOfCells="3">
      <Points>
        <DataArray type="Float64" NumberOfComponents="3" format="ascii">
          4.98276278e-02 -3.54015976e-02 0.00000000e+00 
4.60115410e-02 -3.42054628e-02 0.00000000e+00 
4.22164090e-02 -3.29444520e-02 0.00000000e+00 
3.84457745e-02 -3.16120051e-02 0.00000000e+00 

        </DataArray>
      </Points>
      <Cells>
        <DataArray type="Int32" Name="connectivity" format="ascii">
0 1
1 2
2 3

        </DataArray>
        <DataArray type="Int32" Name="offsets" format="ascii">
2 4 6 
        </DataArray>
        <DataArray type="UInt8" Name="types" format="ascii">
3 3 3 
        </DataArray>
      </Cells>
      <PointData>
        <DataArray type="Float64" Name="rho">
          1.14969749e+00 1.16454807e+00 1.18061808e+00 1.19809894e+00 
        </DataArray>
        <DataArray type="Float64" Name="rhou">
          -1.92579232e-02 -3.33939905e-02 -5.23798431e-02 -7.50912484e-02 
        </DataArray>
        <DataArray type="Float64" Name="rhov">
          3.12109618e-02 4.78750473e-02 7.55119010e-02 1.15946533e-01 
        </DataArray>
        <DataArray type="Float64" Name="E">
          2.63947431e+05 2.67537282e+05 2.71426726e+05 2.75664004e+05 
        </DataArray>
      </PointData>
    </Piece>
    <Piece NumberOfPoints="4" NumberOfCells="3">
      <Points>
        <DataArray type="Float64" NumberOfComponents="3" format="ascii">
          3.84457745e-02 -3.16120051e-02 0.00000000e+00 
3.47041376e-02 -3.02002355e-02 0.00000000e+00 
3.09973080e-02 -2.86995135e-02 0.00000000e+00 
2.73328498e-02 -2.70981900e-02 0.00000000e+00 

        </DataArray>
      </Points>
      <Cells>
        <DataArray type="Int32" Name="connectivity" format="ascii">
0 1
1 2
2 3

        </DataArray>
        <DataArray type="Int32" Name="offsets" format="ascii">
2 4 6 
        </DataArray>
        <DataArray type="UInt8" Name="types" format="ascii">
3 3 3 
        </DataArray>
      </Cells>
      <PointData>
        <DataArray type="Float64" Name="rho">
          1.19809916e+00 1.21718028e+00 1.23805495e+00 1.26109457e+00 
        </DataArray>
        <DataArray type="Float64" Name="rhou">
          -7.60424426e-02 -1.00187956e-01 -1.28819808e-01 -1.54218745e-01 
        </DataArray>
        <DataArray type="Float64" Name="rhov">
          1.15865681e-01 1.71379944e-01 2.57248782e-01 3.77466895e-01 
        </DataArray>
        <DataArray type="Float64" Name="E">
          2.75663922e+05 2.80300902e+05 2.85382318e+05 2.91002278e+05 
        </DataArray>
      </PointData>
    </Piece>
    <Piece NumberOfPoints="4" NumberOfCells="3">
      <Points>
        <DataArray type="Float64" NumberOfComponents="3" format="ascii">
          2.73328498e-02 -2.70981900e-02 0.00000000e+00 
2.37206947e-02 -2.53822580e-02 0.00000000e+00 
2.01744195e-02 -2.35341713e-02 0.00000000e+00 
1.67132635e-02 -2.15314496e-02 0.00000000e+00 

        </DataArray>
      </Points>
      <Cells>
        <DataArray type="Int32" Name="connectivity" format="ascii">
0 1
1 2
2 3

        </DataArray>
        <DataArray type="Int32" Name="offsets" format="ascii">
2 4 6 
        </DataArray>
        <DataArray type="UInt8" Name="types" format="ascii">
3 3 3 
        </DataArray>
      </Cells>
      <PointData>
        <DataArray type="Float64" Name="rho">
          1.26109944e+00 1.28664387e+00 1.31514881e+00 1.34795966e+00 
        </DataArray>
        <DataArray type="Float64" Name="rhou">
          -1.54601206e-01 -1.68668546e-01 -1.53008805e-01 -5.70787296e-02 
        </DataArray>
        <DataArray type="Float64" Name="rhov">
          3.78141737e-01 5.29896013e-01 7.40478340e-01 9.58735810e-01 
        </DataArray>
        <DataArray type="Float64" Name="E">
          2.91003178e+05 2.97256273e+05 3.04246773e+05 3.12303241e+05 
        </DataArray>
      </PointData>
    </Piece>
    <Piece NumberOfPoints="4" NumberOfCells="3">
      <Points>
        <DataArray type="Float64" NumberOfComponents="3" format="ascii">
          1.67132635e-02 -2.15314496e-02 0.00000000e+00 
1.33649679e-02 -1.93456318e-02 0.00000000e+00 
1.01706637e-02 -1.69409402e-02 0.00000000e+00 
7.19343964e-03 -1.42731192e-02 0.00000000e+00 

        </DataArray>
      </Points>
      <Cells>
        <DataArray type="Int32" Name="connectivity" format="ascii">
0 1
1 2
2 3

        </DataArray>
        <DataArray type="Int32" Name="offsets" format="ascii">
2 4 6 
        </DataArray>
        <DataArray type="UInt8" Name="types" format="ascii">
3 3 3 
        </DataArray>
      </Cells>
      <PointData>
        <DataArray type="Float64" Name="rho">
          1.34785384e+00 1.38770647e+00 1.43493282e+00 1.50002683e+00 
        </DataArray>
        <DataArray type="Float64" Name="rhou">
          -3.45162327e-02 1.13826276e-01 4.54910213e-01 8.75020380e-01 
        </DataArray>
        <DataArray type="Float64" Name="rhov">
          9.20491670e-01 1.12337605e+00 1.06849066e+00 5.18551325e-01 
        </DataArray>
        <DataArray type="Float64" Name="E">
          3.12279048e+05 3.22067628e+05 3.33660158e+05 3.49523504e+05 
        </DataArray>
      </PointData>
    </Piece>
    <Piece NumberOfPoints="4" NumberOfCells="3">
      <Points>
        <DataArray type="Float64" NumberOfComponents="3" format="ascii">
          7.19343964e-03 -1.42731192e-02 0.00000000e+00 
4.53082798e-03 -1.12927537e-02 0.00000000e+00 
2.33371323e-03 -7.95678515e-03 0.00000000e+00 
8.10639584e-04 -4.26717056e-03 0.00000000e+00 

        </DataArray>
      </Points>
      <Cells>
        <DataArray type="Int32" Name="connectivity" format="ascii">
0 1
1 2
2 3

        </DataArray>
        <DataArray type="Int32" Name="offsets" format="ascii">
2 4 6 
        </DataArray>
        <DataArray type="UInt8" Name="types" format="ascii">
3 3 3 
        </DataArray>
      </Cells>
      <PointData>
        <DataArray type="Float64" Name="rho">
          1.50054624e+00 1.57497901e+00 1.66408482e+00 1.73282281e+00 
        </DataArray>
        <DataArray type="Float64" Name="rhou">
          8.00031815e-01 9.29816044e-01 2.58133825e-01 -1.27612712e+00 
        </DataArray>
        <DataArray type="Float64" Name="rhov">
          6.17275179e-01 -5.11460520e-01 -1.72955054e+00 -1.81764775e+00 
        </DataArray>
        <DataArray type="Float64" Name="E">
          3.49650804e+05 3.67825888e+05 3.89461688e+05 4.06174748e+05 
        </DataArray>
      </PointData>
    </Piece>
    <Piece NumberOfPoints="4" NumberOfCells="3">
      <Points>
        <DataArray type="Float64" NumberOfComponents="3" format="ascii">
          8.10639584e-04 -4.26717056e-03 0.00000000e+00 
1.91366620e-04 -3.27450951e-04 0.00000000e+00 
6.40850572e-04 3.63462302e-03 0.00000000e+00 
2.03182548e-03 7.37539819e-03 0.00000000e+00 

        </DataArray>
      </Points>
      <Cells>
        <DataArray type="Int32" Name="connectivity" format="ascii">
0 1
1 2
2 3

        </DataArray>
        <DataArray type="Int32" Name="offsets" format="ascii">
2 4 6 
        </DataArray>
        <DataArray type="UInt8" Name="types" format="ascii">
3 3 3 
        </DataArray>
      </Cells>
      <PointData>
        <DataArray type="Float64" Name="rho">
          1.73124632e+00 1.75622341e+00 1.70583341e+00 1.61339505e+00 
        </DataArray>
        <DataArray type="Float64" Name="rhou">
          -1.15049718e+00 -1.87981083e+00 -8.35523312e-01 7.52105606e-01 
        </DataArray>
        <DataArray type="Float64" Name="rhov">
          -1.97577671e+00 3.64371301e-01 1.88310194e+00 1.51559185e+00 
        </DataArray>
        <DataArray type="Float64" Name="E">
          4.05792936e+05 4.11774516e+05 3.99453369e+05 3.76871485e+05 
        </DataArray>
      </PointData>
    </Piece>
    <Piece NumberOfPoints="4" NumberOfCells="3">
      <Points>
        <DataArray type="Float64" NumberOfComponents="3" format="ascii">
          2.03182548e-03 7.37539819e-03 0.00000000e+00 
4.13410179e-03 1.07714310e-02 0.00000000e+00 
6.73249783e-03 1.38076087e-02 0.00000000e+00 
9.66598373e-03 1.65232457e-02 0.00000000e+00 

        </DataArray>
      </Points>
      <Cells>
        <DataArray type="Int32" Name="connectivity" format="ascii">
0 1
1 2
2 3

        </DataArray>
        <DataArray type="Int32" Name="offsets" format="ascii">
2 4 6 
        </DataArray>
        <DataArray type="UInt8" Name="types" format="ascii">
3 3 3 
        </DataArray>
      </Cells>
      <PointData>
        <DataArray type="Float64" Name="rho">
          1.61375822e+00 1.50664930e+00 1.41742181e+00 1.35047687e+00 
        </DataArray>
        <DataArray type="Float64" Name="rhou">
          7.24405126e-01 1.15536762e+00 8.40247768e-01 3.75476365e-01 
        </DataArray>
        <DataArray type="Float64" Name="rhov">
          1.75037955e+00 6.24796091e-02 -1.07508289e+00 -1.39994036e+00 
        </DataArray>
        <DataArray type="Float64" Name="E">
          3.76962870e+05 3.50954516e+05 3.29251255e+05 3.12886847e+05 
        </DataArray>
      </PointData>
    </Piece>
    <Piece NumberOfPoints="4" NumberOfCells="3">
      <Points>
        <DataArray type="Float64" NumberOfComponents="3" format="ascii">
          9.66598373e-03 1.65232457e-02 0.00000000e+00 
1.28298048e-02 1.89677756e-02 0.00000000e+00 
1.61561389e-02 2.11867876e-02 0.00000000e+00 
1.96009967e-02 2.32173651e-02 0.00000000e+00 

        </DataArray>
      </Points>
      <Cells>
        <DataArray type="Int32" Name="connectivity" format="ascii">
0 1
1 2
2 3

        </DataArray>
        <DataArray type="Int32" Name="offsets" format="ascii">
2 4 6 
        </DataArray>
        <DataArray type="UInt8" Name="types" format="ascii">
3 3 3 
        </DataArray>
      </Cells>
      <PointData>
        <DataArray type="Float64" Name="rho">
          1.35027143e+00 1.29781502e+00 1.25885192e+00 1.22455459e+00 
        </DataArray>
        <DataArray type="Float64" Name="rhou">
          3.85061035e-01 -1.66530502e-02 -1.98278922e-01 -2.18866102e-01 
        </DataArray>
        <DataArray type="Float64" Name="rhov">
          -1.42453699e+00 -1.31985736e+00 -9.89817788e-01 -6.64490535e-01 
        </DataArray>
        <DataArray type="Float64" Name="E">
          3.12834637e+05 3.00012757e+05 2.90439458e+05 2.82038644e+05 
        </DataArray>
      </PointData>
    </Piece>
    <Piece NumberOfPoints="4" NumberOfCells="3">
      <Points>
        <DataArray type="Float64" NumberOfComponents="3" format="ascii">
          1.96009967e-02 2.32173651e-02 0.00000000e+00 
2.31348258e-02 2.50891000e-02 0.00000000e+00 
2.67372411e-02 2.68253610e-02 0.00000000e+00 
3.03938854e-02 2.84444261e-02 0.00000000e+00 

        </DataArray>
      </Points>
      <Cells>
        <DataArray type="Int32" Name="connectivity" format="ascii">
0 1
1 2
2 3

        </DataArray>
        <DataArray type="Int32" Name="offsets" format="ascii">
2 4 6 
        </DataArray>
        <DataArray type="UInt8" Name="types" format="ascii">
3 3 3 
        </DataArray>
      </Cells>
      <PointData>
        <DataArray type="Float64" Name="rho">
          1.22461835e+00 1.19550914e+00 1.16947688e+00 1.14590325e+00 
        </DataArray>
        <DataArray type="Float64" Name="rhou">
          -2.31990934e-01 -2.18547795e-01 -1.73363540e-01 -1.31158756e-01 
        </DataArray>
        <DataArray type="Float64" Name="rhov">
          -6.82733607e-01 -4.31747999e-01 -2.45199262e-01 -1.32480587e-01 
        </DataArray>
        <DataArray type="Float64" Name="E">
          2.82053566e+05 2.74943033e+05 2.68607052e+05 2.62886534e+05 
        </DataArray>
      </PointData>
    </Piece>
    <Piece NumberOfPoints="4" NumberOfCells="3">
      <Points>
        <DataArray type="Float64" NumberOfComponents="3" format="ascii">
          3.03938854e-02 2.84444261e-02 0.00000000e+00 
3.40943485e-02 2.99607720e-02 0.00000000e+00 
3.78307216e-02 3.13864015e-02 0.00000000e+00 
4.15969416e-02 3.27312648e-02 0.00000000e+00 

        </DataArray>
      </Points>
      <Cells>
        <DataArray type="Int32" Name="connectivity" format="ascii">
0 1
1 2
2 3

        </DataArray>
        <DataArray type="Int32" Name="offsets" format="ascii">
2 4 6 
        </DataArray>
        <DataArray type="UInt8" Name="types" format="ascii">
3 3 3 
        </DataArray>
      </Cells>
      <PointData>
        <DataArray type="Float64" Name="rho">
          1.14590152e+00 1.12457275e+00 1.10520091e+00 1.08754278e+00 
        </DataArray>
        <DataArray type="Float64" Name="rhou">
          -1.29366575e-01 -8.92434208e-02 -5.64674772e-02 -3.35043328e-02 
        </DataArray>
        <DataArray type="Float64" Name="rhov">
          -1.31029167e-01 -5.48611918e-02 -7.75454305e-03 1.76632354e-02 
        </DataArray>
        <DataArray type="Float64" Name="E">
          2.62886381e+05 2.57729284e+05 2.53056653e+05 2.48805199e+05 
        </DataArray>
      </PointData>
    </Piece>
    <Piece NumberOfPoints="4" NumberOfCells="3">
      <Points>
        <DataArray type="Float64" NumberOfComponents="3" format="ascii">
          4.15969416e-02 3.27312648e-02 0.00000000e+00 
4.53883260e-02 3.40034962e-02 0.00000000e+00 
4.92011942e-02 3.52098532e-02 0.00000000e+00 
5.30325845e-02 3.63560505e-02 0.00000000e+00 

        </DataArray>
      </Points>
      <Cells>
        <DataArray type="Int32" Name="connectivity" format="ascii">
0 1
1 2
2 3

        </DataArray>
        <DataArray type="Int32" Name="offsets" format="ascii">
2 4 6 
        </DataArray>
        <DataArray type="UInt8" Name="types" format="ascii">
3 3 3 
        </DataArray>
      </Cells>
      <PointData>
        <DataArray type="Float64" Name="rho">
          1.08754335e+00 1.07140958e+00 1.05661211e+00 1.04299216e+00 
        </DataArray>
        <DataArray type="Float64" Name="rhou">
          -3.23662194e-02 -1.29275644e-02 1.51457604e-03 1.09028358e-02 
        </DataArray>
        <DataArray type="Float64" Name="rhov">
          1.75683245e-02 3.12809637e-02 3.79615078e-02 3.91367227e-02 
        </DataArray>
        <DataArray type="Float64" Name="E">
          2.48805409e+05 2.44929508e+05 2.41380173e+05 2.38117436e+05 
        </DataArray>
      </PointData>
    </Piece>
    <Piece NumberOfPoints="4" NumberOfCells="3">
      <Points>
        <DataArray type="Float64" NumberOfComponents="3" format="ascii">
          5.30325845e-02 3.63560505e-02 0.00000000e+00 
5.68800643e-02 3.74470428e-02 0.00000000e+00 
6.07415959e-02 3.84872220e-02 0.00000000e+00 
6.46155030e-02 3.94803248e-02 0.00000000e+00 

        </DataArray>
      </Points>
      <Cells>
        <DataArray type="Int32" Name="connectivity" format="ascii">
0 1
1 2
2 3

        </DataArray>
        <DataArray type="Int32" Name="offsets" format="ascii">
2 4 6 
        </DataArray>
        <DataArray type="UInt8" Name="types" format="ascii">
3 3 3 
        </DataArray>
      </Cells>
      <PointData>
        <DataArray type="Float64" Name="rho">
          1.04299286e+00 1.03046204e+00 1.01888829e+00 1.00813093e+00 
        </DataArray>
        <DataArray type="Float64" Name="rhou">
          1.12196299e-02 1.82222011e-02 2.37691723e-02 2.76091255e-02 
        </DataArray>
        <DataArray type="Float64" Name="rhov">
          3.88098673e-02 3.71599437e-02 3.51176566e-02 3.19011716e-02 
        </DataArray>
        <DataArray type="Float64" Name="E">
          2.38117594e+05 2.35119991e+05 2.32354166e+05 2.29785981e+05 
        </DataArray>
      </PointData>
    </Piece>
    <Piece NumberOfPoints="4" NumberOfCells="3">
      <Points>
        <DataArray type="Float64" NumberOfComponents="3" format="ascii">
          6.46155030e-02 3.94803248e-02 0.00000000e+00 
6.85004294e-02 4.04294394e-02 0.00000000e+00 
7.23951608e-02 4.13374715e-02 0.00000000e+00 
7.62986317e-02 4.22072113e-02 0.00000000e+00 

        </DataArray>
      </Points>
      <Cells>
        <DataArray type="Int32" Name="connectivity" format="ascii">
0 1
1 2
2 3

        </DataArray>
        <DataArray type="Int32" Name="offsets" format="ascii">
2 4 6 
        </DataArray>
        <DataArray type="UInt8" Name="types" format="ascii">
3 3 3 
        </DataArray>
      </Cells>
      <PointData>
        <DataArray type="Float64" Name="rho">
          1.00813164e+00 9.98149149e-01 9.88852206e-01 9.80185262e-01 
        </DataArray>
        <DataArray type="Float64" Name="rhou">
          2.74288935e-02 2.93813343e-02 3.04864913e-02 3.05861831e-02 
        </DataArray>
        <DataArray type="Float64" Name="rhov">
          3.16026303e-02 2.77044488e-02 2.43339139e-02 2.10307872e-02 
        </DataArray>
        <DataArray type="Float64" Name="E">
          2.29786128e+05 2.27405542e+05 2.25190282e+05 2.23126426e+05 
        </DataArray>
      </PointData>
    </Piece>
    <Piece NumberOfPoints="4" NumberOfCells="3">
      <Points>
        <DataArray type="Float64" NumberOfComponents="3" format="ascii">
          7.62986317e-02 4.22072113e-02 0.00000000e+00 
8.02098960e-02 4.30411920e-02 0.00000000e+00 
8.41281936e-02 4.38414887e-02 0.00000000e+00 
8.80528912e-02 4.46097627e-02 0.00000000e+00 

        </DataArray>
      </Points>
      <Cells>
        <DataArray type="Int32" Name="connectivity" format="ascii">
0 1
1 2
2 3

        </DataArray>
        <DataArray type="Int32" Name="offsets" format="ascii">
2 4 6 
        </DataArray>
        <DataArray type="UInt8" Name="types" format="ascii">
3 3 3 
        </DataArray>
      </Cells>
      <PointData>
        <DataArray type="Float64" Name="rho">
          9.80184319e-01 9.72101052e-01 9.64506789e-01 9.57355713e-01 
        </DataArray>
        <DataArray type="Float64" Name="rhou">
          3.04392756e-02 3.04699271e-02 3.02016026e-02 2.91433072e-02 
        </DataArray>
        <DataArray type="Float64" Name="rhov">
          2.08674955e-02 1.83102310e-02 1.58035756e-02 1.31251630e-02 
        </DataArray>
        <DataArray type="Float64" Name="E">
          2.23126190e+05 2.21202824e+05 2.19397094e+05 2.17697896e+05 
        </DataArray>
      </PointData>
    </Piece>
    <Piece NumberOfPoints="4" NumberOfCells="3">
      <Points>
        <DataArray type="Float64" NumberOfComponents="3" format="ascii">
          8.80528912e-02 4.46097627e-02 0.00000000e+00 
9.19835642e-02 4.53475714e-02 0.00000000e+00 
9.59195644e-02 4.60564308e-02 0.00000000e+00 
9.98597518e-02 4.67394181e-02 0.00000000e+00 

        </DataArray>
      </Points>
      <Cells>
        <DataArray type="Int32" Name="connectivity" format="ascii">
0 1
1 2
2 3

        </DataArray>
        <DataArray type="Int32" Name="offsets" format="ascii">
2 4 6 
        </DataArray>
        <DataArray type="UInt8" Name="types" format="ascii">
3 3 3 
        </DataArray>
      </Cells>
      <PointData>
        <DataArray type="Float64" Name="rho">
          9.57356217e-01 9.50638321e-01 9.44340931e-01 9.38364477e-01 
        </DataArray>
        <DataArray type="Float64" Name="rhou">
          2.89501590e-02 2.75328373e-02 2.40673268e-02 2.85861888e-02 
        </DataArray>
        <DataArray type="Float64" Name="rhov">
          1.32880719e-02 1.07136847e-02 9.13207305e-03 8.63341772e-03 
        </DataArray>
        <DataArray type="Float64" Name="E">
          2.17698013e+05 2.16102970e+05 2.14608213e+05 2.13190673e+05 
        </DataArray>
      </PointData>
    </Piece>
    <Piece NumberOfPoints="4" NumberOfCells="3">
      <Points>
        <DataArray type="Float64" NumberOfComponents="3" format="ascii">
          9.98597518e-02 4.67394181e-02 0.00000000e+00 
1.10118888e-01 4.83862534e-02 0.00000000e+00 
1.20400399e-01 4.98730615e-02 0.00000000e+00 
1.30701363e-01 5.12186773e-02 0.00000000e+00 

        </DataArray>
      </Points>
      <Cells>
        <DataArray type="Int32" Name="connectivity" format="ascii">
0 1
1 2
2 3

        </DataArray>
        <DataArray type="Int32" Name="offsets" format="ascii">
2 4 6 
        </DataArray>
        <DataArray type="UInt8" Name="types" format="ascii">
3 3 3 
        </DataArray>
      </Cells>
      <PointData>
        <DataArray type="Float64" Name="rho">
          9.38291840e-01 9.24353995e-01 9.12332405e-01 9.02000506e-01 
        </DataArray>
        <DataArray type="Float64" Name="rhou">
          2.63172265e-02 1.81515129e-02 1.60265155e-02 1.25652337e-02 
        </DataArray>
        <DataArray type="Float64" Name="rhov">
          7.39873188e-03 4.17413956e-03 3.66767738e-03 2.99718026e-03 
        </DataArray>
        <DataArray type="Float64" Name="E">
          2.13174261e+05 2.09872331e+05 2.07027855e+05 2.04585826e+05 
        </DataArray>
      </PointData>
    </Piece>
    <Piece NumberOfPoints="4" NumberOfCells="3">
      <Points>
        <DataArray type="Float64" NumberOfComponents="3" format="ascii">
          1.30701363e-01 5.12186773e-02 0.00000000e+00 
1.41019106e-01 5.24347536e-02 0.00000000e+00 
1.51350453e-01 5.35292812e-02 0.00000000e+00 
1.61692888e-01 5.45137413e-02 0.00000000e+00 

        </DataArray>
      </Points>
      <Cells>
        <DataArray type="Int32" Name="connectivity" format="ascii">
0 1
1 2
2 3

        </DataArray>
        <DataArray type="Int32" Name="offsets" format="ascii">
2 4 6 
        </DataArray>
        <DataArray type="UInt8" Name="types" format="ascii">
3 3 3 
        </DataArray>
      </Cells>
      <PointData>
        <DataArray type="Float64" Name="rho">
          9.01997013e-01 8.92928197e-01 8.85097817e-01 8.78397440e-01 
        </DataArray>
        <DataArray type="Float64" Name="rhou">
          1.39461890e-02 1.20515957e-02 9.97884909e-03 8.71451981e-03 
        </DataArray>
        <DataArray type="Float64" Name="rhov">
          3.49623633e-03 2.57008254e-03 1.79254743e-03 1.61602170e-03 
        </DataArray>
        <DataArray type="Float64" Name="E">
          2.04584987e+05 2.02444875e+05 2.00599436e+05 1.99022016e+05 
        </DataArray>
      </PointData>
    </Piece>
    <Piece NumberOfPoints="4" NumberOfCells="3">
      <Points>
        <DataArray type="Float64" NumberOfComponents="3" format="ascii">
          1.61692888e-01 5.45137413e-02 0.00000000e+00 
1.72044471e-01 5.53969070e-02 0.00000000e+00 
1.82403773e-01 5.61845005e-02 0.00000000e+00 
1.92769483e-01 5.68825118e-02 0.00000000e+00 

        </DataArray>
      </Points>
      <Cells>
        <DataArray type="Int32" Name="connectivity" format="ascii">
0 1
1 2
2 3

        </DataArray>
        <DataArray type="Int32" Name="offsets" format="ascii">
2 4 6 
        </DataArray>
        <DataArray type="UInt8" Name="types" format="ascii">
3 3 3 
        </DataArray>
      </Cells>
      <PointData>
        <DataArray type="Float64" Name="rho">
          8.78395036e-01 8.72629635e-01 8.67708531e-01 8.63578983e-01 
        </DataArray>
        <DataArray type="Float64" Name="rhou">
          8.75122069e-03 7.62092461e-03 6.58728086e-03 5.68538026e-03 
        </DataArray>
        <DataArray type="Float64" Name="rhov">
          1.66759371e-03 1.30189787e-03 9.22576455e-04 6.92991120e-04 
        </DataArray>
        <DataArray type="Float64" Name="E">
          1.99021477e+05 1.97666100e+05 1.96511204e+05 1.95543809e+05 
        </DataArray>
      </PointData>
    </Piece>
    <Piece NumberOfPoints="4" NumberOfCells="3">
      <Points>
        <DataArray type="Float64" NumberOfComponents="3" format="ascii">
          1.92769483e-01 5.68825118e-02 0.00000000e+00 
2.03140482e-01 5.74972220e-02 0.00000000e+00 
2.13515818e-01 5.80338500e-02 0.00000000e+00 
2.23894730e-01 5.84962890e-02 0.00000000e+00 

        </DataArray>
      </Points>
      <Cells>
        <DataArray type="Int32" Name="connectivity" format="ascii">
0 1
1 2
2 3

        </DataArray>
        <DataArray type="Int32" Name="offsets" format="ascii">
2 4 6 
        </DataArray>
        <DataArray type="UInt8" Name="types" format="ascii">
3 3 3 
        </DataArray>
      </Cells>
      <PointData>
        <DataArray type="Float64" Name="rho">
          8.63578294e-01 8.60160488e-01 8.57370393e-01 8.55149647e-01 
        </DataArray>
        <DataArray type="Float64" Name="rhou">
          5.72211391e-03 5.00110595e-03 4.44521265e-03 3.98537319e-03 
        </DataArray>
        <DataArray type="Float64" Name="rhov">
          7.34359011e-04 6.43579143e-04 5.27006706e-04 4.03377299e-04 
        </DataArray>
        <DataArray type="Float64" Name="E">
          1.95543651e+05 1.94744617e+05 1.94094165e+05 1.93578397e+05 
        </DataArray>
      </PointData>
    </Piece>
    <Piece NumberOfPoints="4" NumberOfCells="3">
      <Points>
        <DataArray type="Float64" NumberOfComponents="3" format="ascii">
          2.23894730e-01 5.84962890e-02 0.00000000e+00 
2.34276548e-01 5.88882305e-02 0.00000000e+00 
2.44660646e-01 5.92139624e-02 0.00000000e+00 
2.55046517e-01 5.94772622e-02 0.00000000e+00 

        </DataArray>
      </Points>
      <Cells>
        <DataArray type="Int32" Name="connectivity" format="ascii">
0 1
1 2
2 3

        </DataArray>
        <DataArray type="Int32" Name="offsets" format="ascii">
2 4 6 
        </DataArray>
        <DataArray type="UInt8" Name="types" format="ascii">
3 3 3 
        </DataArray>
      </Cells>
      <PointData>
        <DataArray type="Float64" Name="rho">
          8.55150217e-01 8.53456476e-01 8.52245187e-01 8.51460946e-01 
        </DataArray>
        <DataArray type="Float64" Name="rhou">
          3.99302117e-03 3.47228341e-03 3.09465175e-03 2.86577645e-03 
        </DataArray>
        <DataArray type="Float64" Name="rhov">
          4.17745562e-04 3.38933273e-04 3.20852536e-04 3.18681863e-04 
        </DataArray>
        <DataArray type="Float64" Name="E">
          1.93578527e+05 1.93187220e+05 1.92909736e+05 1.92733009e+05 
        </DataArray>
      </PointData>
    </Piece>
    <Piece NumberOfPoints="4" NumberOfCells="3">
      <Points>
        <DataArray type="Float64" NumberOfComponents="3" format="ascii">
          2.55046517e-01 5.94772622e-02 0.00000000e+00 
2.65433758e-01 5.96804135e-02 0.00000000e+00 
2.75821954e-01 5.98256700e-02 0.00000000e+00 
2.86210775e-01 5.99167012e-02 0.00000000e+00 

        </DataArray>
      </Points>
      <Cells>
        <DataArray type="Int32" Name="connectivity" format="ascii">
0 1
1 2
2 3

        </DataArray>
        <DataArray type="Int32" Name="offsets" format="ascii">
2 4 6 
        </DataArray>
        <DataArray type="UInt8" Name="types" format="ascii">
3 3 3 
        </DataArray>
      </Cells>
      <PointData>
        <DataArray type="Float64" Name="rho">
          8.51460957e-01 8.51055458e-01 8.51003965e-01 8.51286059e-01 
        </DataArray>
        <DataArray type="Float64" Name="rhou">
          2.86000911e-03 2.57384573e-03 2.28060364e-03 2.01778772e-03 
        </DataArray>
        <DataArray type="Float64" Name="rhov">
          3.29969146e-04 2.33922991e-04 1.75036272e-04 2.08137956e-04 
        </DataArray>
        <DataArray type="Float64" Name="E">
          1.92733015e+05 1.92645673e+05 1.92641781e+05 1.92716304e+05 
        </DataArray>
      </PointData>
    </Piece>
    <Piece NumberOfPoints="4" NumberOfCells="3">
      <Points>
        <DataArray type="Float64" NumberOfComponents="3" format="ascii">
          2.86210775e-01 5.99167012e-02 0.00000000e+00 
2.96599895e-01 5.99572174e-02 0.00000000e+00 
3.06989133e-01 5.99487796e-02 0.00000000e+00 
3.17378193e-01 5.98919280e-02 0.00000000e+00 

        </DataArray>
      </Points>
      <Cells>
        <DataArray type="Int32" Name="connectivity" format="ascii">
0 1
1 2
2 3

        </DataArray>
        <DataArray type="Int32" Name="offsets" format="ascii">
2 4 6 
        </DataArray>
        <DataArray type="UInt8" Name="types" format="ascii">
3 3 3 
        </DataArray>
      </Cells>
      <PointData>
        <DataArray type="Float64" Name="rho">
          8.51285039e-01 8.51851668e-01 8.52656106e-01 8.53683293e-01 
        </DataArray>
        <DataArray type="Float64" Name="rhou">
          2.03659412e-03 1.92146432e-03 1.79547660e-03 1.61430477e-03 
        </DataArray>
        <DataArray type="Float64" Name="rhov">
          2.24480358e-04 2.50963857e-04 1.96190697e-04 1.21452570e-04 
        </DataArray>
        <DataArray type="Float64" Name="E">
          1.92716072e+05 1.92857486e+05 1.93054970e+05 1.93304899e+05 
        </DataArray>
      </PointData>
    </Piece>
    <Piece NumberOfPoints="4" NumberOfCells="3">
      <Points>
        <DataArray type="Float64" NumberOfComponents="3" format="ascii">
          3.17378193e-01 5.98919280e-02 0.00000000e+00 
3.27766895e-01 5.97884916e-02 0.00000000e+00 
3.38155061e-01 5.96415885e-02 0.00000000e+00 
3.48542601e-01 5.94538599e-02 0.00000000e+00 

        </DataArray>
      </Points>
      <Cells>
        <DataArray type="Int32" Name="connectivity" format="ascii">
0 1
1 2
2 3

        </DataArray>
        <DataArray type="Int32" Name="offsets" format="ascii">
2 4 6 
        </DataArray>
        <DataArray type="UInt8" Name="types" format="ascii">
3 3 3 
        </DataArray>
      </Cells>
      <PointData>
        <DataArray type="Float64" Name="rho">
          8.53683639e-01 8.54920871e-01 8.56348001e-01 8.57932279e-01 
        </DataArray>
        <DataArray type="Float64" Name="rhou">
          1.64370039e-03 1.44811547e-03 1.33158668e-03 1.28520710e-03 
        </DataArray>
        <DataArray type="Float64" Name="rhov">
          1.29106933e-04 1.17250588e-04 1.42350815e-04 1.62501288e-04 
        </DataArray>
        <DataArray type="Float64" Name="E">
          1.93304977e+05 1.93604235e+05 1.93948013e+05 1.94328661e+05 
        </DataArray>
      </PointData>
    </Piece>
    <Piece NumberOfPoints="4" NumberOfCells="3">
      <Points>
        <DataArray type="Float64" NumberOfComponents="3" format="ascii">
          3.48542601e-01 5.94538599e-02 0.00000000e+00 
3.58929336e-01 5.92265576e-02 0.00000000e+00 
3.69315147e-01 5.89610897e-02 0.00000000e+00 
3.79699975e-01 5.86590059e-02 0.00000000e+00 

        </DataArray>
      </Points>
      <Cells>
        <DataArray type="Int32" Name="connectivity" format="ascii">
0 1
1 2
2 3

        </DataArray>
        <DataArray type="Int32" Name="offsets" format="ascii">
2 4 6 
        </DataArray>
        <DataArray type="UInt8" Name="types" format="ascii">
3 3 3 
        </DataArray>
      </Cells>
      <PointData>
        <DataArray type="Float64" Name="rho">
          8.57932526e-01 8.59648569e-01 8.61486753e-01 8.63427292e-01 
        </DataArray>
        <DataArray type="Float64" Name="rhou">
          1.29750573e-03 1.17373510e-03 1.08009317e-03 1.03203097e-03 
        </DataArray>
        <DataArray type="Float64" Name="rhov">
          1.59425259e-04 1.22999385e-04 1.15143085e-04 1.13189091e-04 
        </DataArray>
        <DataArray type="Float64" Name="E">
          1.94328717e+05 1.94740296e+05 1.95180470e+05 1.95644609e+05 
        </DataArray>
      </PointData>
    </Piece>
    <Piece NumberOfPoints="4" NumberOfCells="3">
      <Points>
        <DataArray type="Float64" NumberOfComponents="3" format="ascii">
          3.79699975e-01 5.86590059e-02 0.00000000e+00 
3.90083700e-01 5.83211333e-02 0.00000000e+00 
4.00466233e-01 5.79482466e-02 0.00000000e+00 
4.10847515e-01 5.75418957e-02 0.00000000e+00 

        </DataArray>
      </Points>
      <Cells>
        <DataArray type="Int32" Name="connectivity" format="ascii">
0 1
1 2
2 3

        </DataArray>
        <DataArray type="Int32" Name="offsets" format="ascii">
2 4 6 
        </DataArray>
        <DataArray type="UInt8" Name="types" format="ascii">
3 3 3 
        </DataArray>
      </Cells>
      <PointData>
        <DataArray type="Float64" Name="rho">
          8.63427304e-01 8.65453419e-01 8.67555268e-01 8.69726372e-01 
        </DataArray>
        <DataArray type="Float64" Name="rhou">
          1.02433739e-03 9.60110106e-04 8.81438791e-04 8.05529692e-04 
        </DataArray>
        <DataArray type="Float64" Name="rhov">
          1.15632399e-04 8.49916587e-05 6.18469383e-05 6.68837084e-05 
        </DataArray>
        <DataArray type="Float64" Name="E">
          1.95644613e+05 1.96128792e+05 1.96630680e+05 1.97148697e+05 
        </DataArray>
      </PointData>
    </Piece>
    <Piece NumberOfPoints="4" NumberOfCells="3">
      <Points>
        <DataArray type="Float64" NumberOfComponents="3" format="ascii">
          4.10847515e-01 5.75418957e-02 0.00000000e+00 
4.21227485e-01 5.71038015e-02 0.00000000e+00 
4.31606144e-01 5.66351078e-02 0.00000000e+00 
4.41983402e-01 5.61364293e-02 0.00000000e+00 

        </DataArray>
      </Points>
      <Cells>
        <DataArray type="Int32" Name="connectivity" format="ascii">
0 1
1 2
2 3

        </DataArray>
        <DataArray type="Int32" Name="offsets" format="ascii">
2 4 6 
        </DataArray>
        <DataArray type="UInt8" Name="types" format="ascii">
3 3 3 
        </DataArray>
      </Cells>
      <PointData>
        <DataArray type="Float64" Name="rho">
          8.69726172e-01 8.71951034e-01 8.74218096e-01 8.76517778e-01 
        </DataArray>
        <DataArray type="Float64" Name="rhou">
          8.22071070e-04 7.70373504e-04 7.31218010e-04 6.93997326e-04 
        </DataArray>
        <DataArray type="Float64" Name="rhov">
          7.03152345e-05 7.01666506e-05 6.03110628e-05 3.90629152e-05 
        </DataArray>
        <DataArray type="Float64" Name="E">
          1.97148651e+05 1.97679175e+05 1.98219508e+05 1.98767405e+05 
        </DataArray>
      </PointData>
    </Piece>
    <Piece NumberOfPoints="4" NumberOfCells="3">
      <Points>
        <DataArray type="Float64" NumberOfComponents="3" format="ascii">
          4.41983402e-01 5.61364293e-02 0.00000000e+00 
4.52359200e-01 5.56085743e-02 0.00000000e+00 
4.62733537e-01 5.50529286e-02 0.00000000e+00 
4.73106444e-01 5.44707514e-02 0.00000000e+00 

        </DataArray>
      </Points>
      <Cells>
        <DataArray type="Int32" Name="connectivity" format="ascii">
0 1
1 2
2 3

        </DataArray>
        <DataArray type="Int32" Name="offsets" format="ascii">
2 4 6 
        </DataArray>
        <DataArray type="UInt8" Name="types" format="ascii">
3 3 3 
        </DataArray>
      </Cells>
      <PointData>
        <DataArray type="Float64" Name="rho">
          8.76517920e-01 8.78845867e-01 8.81195717e-01 8.83559079e-01 
        </DataArray>
        <DataArray type="Float64" Name="rhou">
          6.91012172e-04 6.34926290e-04 5.94747697e-04 5.71068863e-04 
        </DataArray>
        <DataArray type="Float64" Name="rhov">
          3.97129899e-05 3.20828560e-05 3.23598966e-05 3.24139944e-05 
        </DataArray>
        <DataArray type="Float64" Name="E">
          1.98767438e+05 1.99321847e+05 1.99881262e+05 2.00443724e+05 
        </DataArray>
      </PointData>
    </Piece>
    <Piece NumberOfPoints="4" NumberOfCells="3">
      <Points>
        <DataArray type="Float64" NumberOfComponents="3" format="ascii">
          4.73106444e-01 5.44707514e-02 0.00000000e+00 
4.83477861e-01 5.38627952e-02 0.00000000e+00 
4.93847787e-01 5.32294959e-02 0.00000000e+00 
5.04216135e-01 5.25716618e-02 0.00000000e+00 

        </DataArray>
      </Points>
      <Cells>
        <DataArray type="Int32" Name="connectivity" format="ascii">
0 1
1 2
2 3

        </DataArray>
        <DataArray type="Int32" Name="offsets" format="ascii">
2 4 6 
        </DataArray>
        <DataArray type="UInt8" Name="types" format="ascii">
3 3 3 
        </DataArray>
      </Cells>
      <PointData>
        <DataArray type="Float64" Name="rho">
          8.83559066e-01 8.85929174e-01 8.88300739e-01 8.90672729e-01 
        </DataArray>
        <DataArray type="Float64" Name="rhou">
          5.63475229e-04 5.42259216e-04 5.06871041e-04 4.64915799e-04 
        </DataArray>
        <DataArray type="Float64" Name="rhov">
          3.42297645e-05 2.27129598e-05 7.72552550e-06 4.98291094e-06 
        </DataArray>
        <DataArray type="Float64" Name="E">
          2.00443722e+05 2.01007652e+05 2.01571817e+05 2.02135947e+05 
        </DataArray>
      </PointData>
    </Piece>
    <Piece NumberOfPoints="4" NumberOfCells="3">
      <Points>
        <DataArray type="Float64" NumberOfComponents="3" format="ascii">
          5.04216135e-01 5.25716618e-02 0.00000000e+00 
5.14582992e-01 5.18903993e-02 0.00000000e+00 
5.24948359e-01 5.11864908e-02 0.00000000e+00 
5.35312176e-01 5.04603274e-02 0.00000000e+00 

        </DataArray>
      </Points>
      <Cells>
        <DataArray type="Int32" Name="connectivity" format="ascii">
0 1
1 2
2 3

        </DataArray>
        <DataArray type="Int32" Name="offsets" format="ascii">
2 4 6 
        </DataArray>
        <DataArray type="UInt8" Name="types" format="ascii">
3 3 3 
        </DataArray>
      </Cells>
      <PointData>
        <DataArray type="Float64" Name="rho">
          8.90672643e-01 8.93039734e-01 8.95397538e-01 8.97742652e-01 
        </DataArray>
        <DataArray type="Float64" Name="rhou">
          4.73459661e-04 4.47052894e-04 4.27062381e-04 4.07400423e-04 
        </DataArray>
        <DataArray type="Float64" Name="rhov">
          7.14565858e-06 6.68874713e-06 1.17307558e-06 -1.07666316e-05 
        </DataArray>
        <DataArray type="Float64" Name="E">
          2.02135928e+05 2.02698784e+05 2.03259348e+05 2.03816828e+05 
        </DataArray>
      </PointData>
    </Piece>
    <Piece NumberOfPoints="4" NumberOfCells="3">
      <Points>
        <DataArray type="Float64" NumberOfComponents="3" format="ascii">
          5.35312176e-01 5.04603274e-02 0.00000000e+00 
5.45674443e-01 4.97124642e-02 0.00000000e+00 
5.56035221e-01 4.89437394e-02 0.00000000e+00 
5.66394389e-01 4.81546782e-02 0.00000000e+00 

        </DataArray>
      </Points>
      <Cells>
        <DataArray type="Int32" Name="connectivity" format="ascii">
0 1
1 2
2 3

        </DataArray>
        <DataArray type="Int32" Name="offsets" format="ascii">
2 4 6 
        </DataArray>
        <DataArray type="UInt8" Name="types" format="ascii">
3 3 3 
        </DataArray>
      </Cells>
      <PointData>
        <DataArray type="Float64" Name="rho">
          8.97742696e-01 9.00074531e-01 9.02390242e-01 9.04687033e-01 
        </DataArray>
        <DataArray type="Float64" Name="rhou">
          4.03138721e-04 3.76379650e-04 3.57650348e-04 3.45551326e-04 
        </DataArray>
        <DataArray type="Float64" Name="rhov">
          -1.04820340e-05 -1.13004118e-05 -1.21245403e-05 -1.64582022e-05 
        </DataArray>
        <DataArray type="Float64" Name="E">
          2.03816839e+05 2.04371087e+05 2.04921443e+05 2.05467264e+05 
        </DataArray>
      </PointData>
    </Piece>
    <Piece NumberOfPoints="4" NumberOfCells="3">
      <Points>
        <DataArray type="Float64" NumberOfComponents="3" format="ascii">
          5.66394389e-01 4.81546782e-02 0.00000000e+00 
5.76752067e-01 4.73455116e-02 0.00000000e+00 
5.87108195e-01 4.65166979e-02 0.00000000e+00 
5.97462773e-01 4.56690118e-02 0.00000000e+00 

        </DataArray>
      </Points>
      <Cells>
        <DataArray type="Int32" Name="connectivity" format="ascii">
0 1
1 2
2 3

        </DataArray>
        <DataArray type="Int32" Name="offsets" format="ascii">
2 4 6 
        </DataArray>
        <DataArray type="UInt8" Name="types" format="ascii">
3 3 3 
        </DataArray>
      </Cells>
      <PointData>
        <DataArray type="Float64" Name="rho">
          9.04687063e-01 9.06963322e-01 9.09218802e-01 9.11452671e-01 
        </DataArray>
        <DataArray type="Float64" Name="rhou">
          3.44877632e-04 3.24130032e-04 3.02688654e-04 2.86260024e-04 
        </DataArray>
        <DataArray type="Float64" Name="rhov">
          -1.61195708e-05 -2.48455234e-05 -2.84825800e-05 -2.73639725e-05 
        </DataArray>
        <DataArray type="Float64" Name="E">
          2.05467271e+05 2.06008185e+05 2.06544131e+05 2.07074915e+05 
        </DataArray>
      </PointData>
    </Piece>
    <Piece NumberOfPoints="4" NumberOfCells="3">
      <Points>
        <DataArray type="Float64" NumberOfComponents="3" format="ascii">
          5.97462773e-01 4.56690118e-02 0.00000000e+00 
6.07815862e-01 4.48031016e-02 0.00000000e+00 
6.18167400e-01 4.39192392e-02 0.00000000e+00 
6.28517449e-01 4.30175588e-02 0.00000000e+00 

        </DataArray>
      </Points>
      <Cells>
        <DataArray type="Int32" Name="connectivity" format="ascii">
0 1
1 2
2 3

        </DataArray>
        <DataArray type="Int32" Name="offsets" format="ascii">
2 4 6 
        </DataArray>
        <DataArray type="UInt8" Name="types" format="ascii">
3 3 3 
        </DataArray>
      </Cells>
      <PointData>
        <DataArray type="Float64" Name="rho">
          9.11452608e-01 9.13663044e-01 9.15848303e-01 9.18008607e-01 
        </DataArray>
        <DataArray type="Float64" Name="rhou">
          2.84319201e-04 2.75251106e-04 2.62871445e-04 2.45197938e-04 
        </DataArray>
        <DataArray type="Float64" Name="rhov">
          -2.64391653e-05 -2.69566953e-05 -3.26518192e-05 -3.81031878e-05 
        </DataArray>
        <DataArray type="Float64" Name="E">
          2.07074900e+05 2.07600107e+05 2.08119340e+05 2.08632653e+05 
        </DataArray>
      </PointData>
    </Piece>
    <Piece NumberOfPoints="4" NumberOfCells="3">
      <Points>
        <DataArray type="Float64" NumberOfComponents="3" format="ascii">
          6.28517449e-01 4.30175588e-02 0.00000000e+00 
6.38865948e-01 4.20984775e-02 0.00000000e+00 
6.49212897e-01 4.11624312e-02 0.00000000e+00 
6.59558356e-01 4.02097441e-02 0.00000000e+00 

        </DataArray>
      </Points>
      <Cells>
        <DataArray type="Int32" Name="connectivity" format="ascii">
0 1
1 2
2 3

        </DataArray>
        <DataArray type="Int32" Name="offsets" format="ascii">
2 4 6 
        </DataArray>
        <DataArray type="UInt8" Name="types" format="ascii">
3 3 3 
        </DataArray>
      </Cells>
      <PointData>
        <DataArray type="Float64" Name="rho">
          9.18008599e-01 9.20143824e-01 9.22253187e-01 9.24336427e-01 
        </DataArray>
        <DataArray type="Float64" Name="rhou">
          2.46172036e-04 2.32945319e-04 2.21558958e-04 2.09309543e-04 
        </DataArray>
        <DataArray type="Float64" Name="rhov">
          -3.70864585e-05 -3.78315155e-05 -3.97479070e-05 -4.20406362e-05 
        </DataArray>
        <DataArray type="Float64" Name="E">
          2.08632652e+05 2.09140018e+05 2.09641263e+05 2.10136329e+05 
        </DataArray>
      </PointData>
    </Piece>
    <Piece NumberOfPoints="4" NumberOfCells="3">
      <Points>
        <DataArray type="Float64" NumberOfComponents="3" format="ascii">
          6.59558356e-01 4.02097441e-02 0.00000000e+00 
6.69902325e-01 3.92407738e-02 0.00000000e+00 
6.80244744e-01 3.82556282e-02 0.00000000e+00 
6.90585554e-01 3.72543521e-02 0.00000000e+00 

        </DataArray>
      </Points>
      <Cells>
        <DataArray type="Int32" Name="connectivity" format="ascii">
0 1
1 2
2 3

        </DataArray>
        <DataArray type="Int32" Name="offsets" format="ascii">
2 4 6 
        </DataArray>
        <DataArray type="UInt8" Name="types" format="ascii">
3 3 3 
        </DataArray>
      </Cells>
      <PointData>
        <DataArray type="Float64" Name="rho">
          9.24336410e-01 9.26393582e-01 9.28423592e-01 9.30427288e-01 
        </DataArray>
        <DataArray type="Float64" Name="rhou">
          2.06084683e-04 2.00623419e-04 1.91526472e-04 1.76350074e-04 
        </DataArray>
        <DataArray type="Float64" Name="rhov">
          -4.10035381e-05 -4.10098409e-05 -4.55538643e-05 -4.92753316e-05 
        </DataArray>
        <DataArray type="Float64" Name="E">
          2.10136325e+05 2.10625230e+05 2.11107730e+05 2.11584021e+05 
        </DataArray>
      </PointData>
    </Piece>
    <Piece NumberOfPoints="4" NumberOfCells="3">
      <Points>
        <DataArray type="Float64" NumberOfComponents="3" format="ascii">
          6.90585554e-01 3.72543521e-02 0.00000000e+00 
7.00924933e-01 3.62373814e-02 0.00000000e+00 
7.11262703e-01 3.52048986e-02 0.00000000e+00 
7.21598923e-01 3.41568366e-02 0.00000000e+00 

        </DataArray>
      </Points>
      <Cells>
        <DataArray type="Int32" Name="connectivity" format="ascii">
0 1
1 2
2 3

        </DataArray>
        <DataArray type="Int32" Name="offsets" format="ascii">
2 4 6 
        </DataArray>
        <DataArray type="UInt8" Name="types" format="ascii">
3 3 3 
        </DataArray>
      </Cells>
      <PointData>
        <DataArray type="Float64" Name="rho">
          9.30427245e-01 9.32405086e-01 9.34355912e-01 9.36280413e-01 
        </DataArray>
        <DataArray type="Float64" Name="rhou">
          1.74951807e-04 1.69379392e-04 1.63624080e-04 1.49973234e-04 
        </DataArray>
        <DataArray type="Float64" Name="rhov">
          -4.81551392e-05 -4.56412491e-05 -4.90339770e-05 -5.38529556e-05 
        </DataArray>
        <DataArray type="Float64" Name="E">
          2.11584011e+05 2.12054203e+05 2.12518035e+05 2.12975669e+05 
        </DataArray>
      </PointData>
    </Piece>
    <Piece NumberOfPoints="4" NumberOfCells="3">
      <Points>
        <DataArray type="Float64" NumberOfComponents="3" format="ascii">
          7.21598923e-01 3.41568366e-02 0.00000000e+00 
7.31933594e-01 3.30936089e-02 0.00000000e+00 
7.42266715e-01 3.20154354e-02 0.00000000e+00 
7.52598286e-01 3.09220124e-02 0.00000000e+00 

        </DataArray>
      </Points>
      <Cells>
        <DataArray type="Int32" Name="connectivity" format="ascii">
0 1
1 2
2 3

        </DataArray>
        <DataArray type="Int32" Name="offsets" format="ascii">
2 4 6 
        </DataArray>
        <DataArray type="UInt8" Name="types" format="ascii">
3 3 3 
        </DataArray>
      </Cells>
      <PointData>
        <DataArray type="Float64" Name="rho">
          9.36280392e-01 9.38179649e-01 9.40052343e-01 9.41899036e-01 
        </DataArray>
        <DataArray type="Float64" Name="rhou">
          1.47300445e-04 1.42589800e-04 1.39120228e-04 1.28112614e-04 
        </DataArray>
        <DataArray type="Float64" Name="rhov">
          -5.28796799e-05 -4.83352285e-05 -5.06408088e-05 -5.58157356e-05 
        </DataArray>
        <DataArray type="Float64" Name="E">
          2.12975664e+05 2.13427349e+05 2.13872789e+05 2.14312115e+05 
        </DataArray>
      </PointData>
    </Piece>
    <Piece NumberOfPoints="4" NumberOfCells="3">
      <Points>
        <DataArray type="Float64" NumberOfComponents="3" format="ascii">
          7.52598286e-01 3.09220124e-02 0.00000000e+00 
7.62928188e-01 2.98135038e-02 0.00000000e+00 
7.73256481e-01 2.86899786e-02 0.00000000e+00 
7.83583105e-01 2.75512449e-02 0.00000000e+00 

        </DataArray>
      </Points>
      <Cells>
        <DataArray type="Int32" Name="connectivity" format="ascii">
0 1
1 2
2 3

        </DataArray>
        <DataArray type="Int32" Name="offsets" format="ascii">
2 4 6 
        </DataArray>
        <DataArray type="UInt8" Name="types" format="ascii">
3 3 3 
        </DataArray>
      </Cells>
      <PointData>
        <DataArray type="Float64" Name="rho">
          9.41899031e-01 9.43720919e-01 9.45517219e-01 9.47288668e-01 
        </DataArray>
        <DataArray type="Float64" Name="rhou">
          1.25519590e-04 1.21161296e-04 1.16656889e-04 1.06561100e-04 
        </DataArray>
        <DataArray type="Float64" Name="rhov">
          -5.48943903e-05 -5.25319055e-05 -5.47434029e-05 -5.79973926e-05 
        </DataArray>
        <DataArray type="Float64" Name="E">
          2.14312114e+05 2.14745600e+05 2.15173069e+05 2.15594691e+05 
        </DataArray>
      </PointData>
    </Piece>
    <Piece NumberOfPoints="4" NumberOfCells="3">
      <Points>
        <DataArray type="Float64" NumberOfComponents="3" format="ascii">
          7.83583105e-01 2.75512449e-02 0.00000000e+00 
7.93908060e-01 2.63975188e-02 0.00000000e+00 
8.04231405e-01 2.52291560e-02 0.00000000e+00 
8.14553022e-01 2.40457114e-02 0.00000000e+00 

        </DataArray>
      </Points>
      <Cells>
        <DataArray type="Int32" Name="connectivity" format="ascii">
0 1
1 2
2 3

        </DataArray>
        <DataArray type="Int32" Name="offsets" format="ascii">
2 4 6 
        </DataArray>
        <DataArray type="UInt8" Name="types" format="ascii">
3 3 3 
        </DataArray>
      </Cells>
      <PointData>
        <DataArray type="Float64" Name="rho">
          9.47288675e-01 9.49036078e-01 9.50759378e-01 9.52457950e-01 
        </DataArray>
        <DataArray type="Float64" Name="rhou">
          1.09162326e-04 9.78230363e-05 9.61785944e-05 9.65553805e-05 
        </DataArray>
        <DataArray type="Float64" Name="rhov">
          -5.83550337e-05 -5.45763824e-05 -5.32649622e-05 -5.97636122e-05 
        </DataArray>
        <DataArray type="Float64" Name="E">
          2.15594692e+05 2.16010647e+05 2.16420921e+05 2.16825369e+05 
        </DataArray>
      </PointData>
    </Piece>
    <Piece NumberOfPoints="4" NumberOfCells="3">
      <Points>
        <DataArray type="Float64" NumberOfComponents="3" format="ascii">
          8.14553022e-01 2.40457114e-02 0.00000000e+00 
8.24872792e-01 2.28467938e-02 0.00000000e+00 
8.35190892e-01 2.16327831e-02 0.00000000e+00 
8.45507145e-01 2.04038676e-02 0.00000000e+00 

        </DataArray>
      </Points>
      <Cells>
        <DataArray type="Int32" Name="connectivity" format="ascii">
0 1
1 2
2 3

        </DataArray>
        <DataArray type="Int32" Name="offsets" format="ascii">
2 4 6 
        </DataArray>
        <DataArray type="UInt8" Name="types" format="ascii">
3 3 3 
        </DataArray>
      </Cells>
      <PointData>
        <DataArray type="Float64" Name="rho">
          9.52457994e-01 9.54133539e-01 9.55786369e-01 9.57416648e-01 
        </DataArray>
        <DataArray type="Float64" Name="rhou">
          9.06345631e-05 8.17717791e-05 7.41842710e-05 7.42298441e-05 
        </DataArray>
        <DataArray type="Float64" Name="rhov">
          -6.00256079e-05 -5.98981483e-05 -5.69947635e-05 -5.29884884e-05 
        </DataArray>
        <DataArray type="Float64" Name="E">
          2.16825379e+05 2.17224383e+05 2.17618006e+05 2.18006275e+05 
        </DataArray>
      </PointData>
    </Piece>
    <Piece NumberOfPoints="4" NumberOfCells="3">
      <Points>
        <DataArray type="Float64" NumberOfComponents="3" format="ascii">
          8.45507145e-01 2.04038676e-02 0.00000000e+00 
8.55821550e-01 1.91591792e-02 0.00000000e+00 
8.66134048e-01 1.78987328e-02 0.00000000e+00 
8.76444638e-01 1.66228991e-02 0.00000000e+00 

        </DataArray>
      </Points>
      <Cells>
        <DataArray type="Int32" Name="connectivity" format="ascii">
0 1
1 2
2 3

        </DataArray>
        <DataArray type="Int32" Name="offsets" format="ascii">
2 4 6 
        </DataArray>
        <DataArray type="UInt8" Name="types" format="ascii">
3 3 3 
        </DataArray>
      </Cells>
      <PointData>
        <DataArray type="Float64" Name="rho">
          9.57416761e-01 9.59023132e-01 9.60609519e-01 9.62172418e-01 
        </DataArray>
        <DataArray type="Float64" Name="rhou">
          9.57779862e-05 6.35836000e-05 6.15750934e-05 7.72623880e-05 
        </DataArray>
        <DataArray type="Float64" Name="rhov">
          -5.66589156e-05 -6.41415378e-05 -6.14448406e-05 -7.92090090e-05 
        </DataArray>
        <DataArray type="Float64" Name="E">
          2.18006301e+05 2.18388898e+05 2.18766702e+05 2.19138899e+05 
        </DataArray>
      </PointData>
    </Piece>
    <Piece NumberOfPoints="4" NumberOfCells="3">
      <Points>
        <DataArray type="Float64" NumberOfComponents="3" format="ascii">
          8.76444638e-01 1.66228991e-02 0.00000000e+00 
8.86753201e-01 1.53310820e-02 0.00000000e+00 
8.97059798e-01 1.40233757e-02 0.00000000e+00 
9.07364249e-01 1.26988320e-02 0.00000000e+00 

        </DataArray>
      </Points>
      <Cells>
        <DataArray type="Int32" Name="connectivity" format="ascii">
0 1
1 2
2 3

        </DataArray>
        <DataArray type="Int32" Name="offsets" format="ascii">
2 4 6 
        </DataArray>
        <DataArray type="UInt8" Name="types" format="ascii">
3 3 3 
        </DataArray>
      </Cells>
      <PointData>
        <DataArray type="Float64" Name="rho">
          9.62171965e-01 9.63718095e-01 9.65239861e-01 9.66756159e-01 
        </DataArray>
        <DataArray type="Float64" Name="rhou">
          -1.57510128e-05 7.70695488e-05 2.07679946e-05 -3.32178735e-05 
        </DataArray>
        <DataArray type="Float64" Name="rhov">
          -7.11891624e-05 -7.45821936e-05 -9.37688899e-05 5.97375211e-06 
        </DataArray>
        <DataArray type="Float64" Name="E">
          2.19138796e+05 2.19506903e+05 2.19869181e+05 2.20229933e+05 
        </DataArray>
      </PointData>
    </Piece>
    <Piece NumberOfPoints="4" NumberOfCells="3">
      <Points>
        <DataArray type="Float64" NumberOfComponents="3" format="ascii">
          9.07364249e-01 1.26988320e-02 0.00000000e+00 
9.17666554e-01 1.13577880e-02 0.00000000e+00 
9.27966774e-01 1.00004105e-02 0.00000000e+00 
9.38264549e-01 8.62528384e-03 0.00000000e+00 

        </DataArray>
      </Points>
      <Cells>
        <DataArray type="Int32" Name="connectivity" format="ascii">
0 1
1 2
2 3

        </DataArray>
        <DataArray type="Int32" Name="offsets" format="ascii">
2 4 6 
        </DataArray>
        <DataArray type="UInt8" Name="types" format="ascii">
3 3 3 
        </DataArray>
      </Cells>
      <PointData>
        <DataArray type="Float64" Name="rho">
          9.66761071e-01 9.68229048e-01 9.69722376e-01 9.71068396e-01 
        </DataArray>
        <DataArray type="Float64" Name="rhou">
          7.84775667e-04 -2.33903566e-04 3.22023351e-04 7.50384695e-04 
        </DataArray>
        <DataArray type="Float64" Name="rhov">
          -6.42052812e-05 -1.17744041e-04 -4.65308301e-05 -1.47868450e-03 
        </DataArray>
        <DataArray type="Float64" Name="E">
          2.20231051e+05 2.20580529e+05 2.20935560e+05 2.21256902e+05 
        </DataArray>
      </PointData>
    </Piece>
    <Piece NumberOfPoints="4" NumberOfCells="3">
      <Points>
        <DataArray type="Float64" NumberOfComponents="3" format="ascii">
          9.38264549e-01 8.62528384e-03 0.00000000e+00 
9.48560059e-01 7.23283459e-03 0.00000000e+00 
9.58853185e-01 5.82307298e-03 0.00000000e+00 
9.69143867e-01 4.39538015e-03 0.00000000e+00 

        </DataArray>
      </Points>
      <Cells>
        <DataArray type="Int32" Name="connectivity" format="ascii">
0 1
1 2
2 3

        </DataArray>
        <DataArray type="Int32" Name="offsets" format="ascii">
2 4 6 
        </DataArray>
        <DataArray type="UInt8" Name="types" format="ascii">
3 3 3 
        </DataArray>
      </Cells>
      <PointData>
        <DataArray type="Float64" Name="rho">
          9.71020439e-01 9.72690487e-01 9.73944679e-01 9.76659226e-01 
        </DataArray>
        <DataArray type="Float64" Name="rhou">
          -6.76938603e-03 2.13529488e-03 -3.20917402e-03 -1.91945549e-02 
        </DataArray>
        <DataArray type="Float64" Name="rhov">
          -1.10050614e-03 1.29410470e-04 -1.14629661e-03 1.90910317e-02 
        </DataArray>
        <DataArray type="Float64" Name="E">
          2.21245976e+05 2.21641163e+05 2.21941903e+05 2.22576063e+05 
        </DataArray>
      </PointData>
    </Piece>
    <Piece NumberOfPoints="4" NumberOfCells="3">
      <Points>
        <DataArray type="Float64" NumberOfComponents="3" format="ascii">
          9.69143867e-01 4.39538015e-03 0.00000000e+00 
9.79435980e-01 2.94816052e-03 0.00000000e+00 
9.89725590e-01 1.48259092e-03 0.00000000e+00 
1.00000000e+00 0.00000000e+00 0.00000000e+00 

        </DataArray>
      </Points>
      <Cells>
        <DataArray type="Int32" Name="connectivity" format="ascii">
0 1
1 2
2 3

        </DataArray>
        <DataArray type="Int32" Name="offsets" format="ascii">
2 4 6 
        </DataArray>
        <DataArray type="UInt8" Name="types" format="ascii">
3 3 3 
        </DataArray>
      </Cells>
      <PointData>
        <DataArray type="Float64" Name="rho">
          9.76956274e-01 9.76558497e-01 9.80413869e-01 9.70448745e-01 
        </DataArray>
        <DataArray type="Float64" Name="rhou">
          -1.49640991e-03 -9.67211964e-03 -3.79131904e-02 5.00057691e-01 
        </DataArray>
        <DataArray type="Float64" Name="rhov">
          2.14367870e-02 9.90811489e-04 5.28258365e-02 -1.38357043e-01 
        </DataArray>
        <DataArray type="Float64" Name="E">
          2.22643768e+05 2.22569786e+05 2.23466695e+05 2.21216308e+05 
        </DataArray>
      </PointData>
    </Piece>
    <Piece NumberOfPoints="4" NumberOfCells="3">
      <Points>
        <DataArray type="Float64" NumberOfComponents="3" format="ascii">
          9.69029665e-01 -4.41133138e-03 0.00000000e+00 
9.79355037e-01 -2.95961346e-03 0.00000000e+00 
9.89677846e-01 -1.48943183e-03 0.00000000e+00 
1.00000000e+00 0.00000000e+00 0.00000000e+00 

        </DataArray>
      </Points>
      <Cells>
        <DataArray type="Int32" Name="connectivity" format="ascii">
0 1
1 2
2 3

        </DataArray>
        <DataArray type="Int32" Name="offsets" format="ascii">
2 4 6 
        </DataArray>
        <DataArray type="UInt8" Name="types" format="ascii">
3 3 3 
        </DataArray>
      </Cells>
      <PointData>
        <DataArray type="Float64" Name="rho">
          9.75822728e-01 9.75487899e-01 9.79296440e-01 9.70586316e-01 
        </DataArray>
        <DataArray type="Float64" Name="rhou">
          -9.00571959e-04 -7.63029300e-03 -3.57952042e-02 4.60672870e-01 
        </DataArray>
        <DataArray type="Float64" Name="rhov">
          -2.35550788e-02 2.06186225e-03 -4.91140734e-02 1.43702208e-01 
        </DataArray>
        <DataArray type="Float64" Name="E">
          2.22391576e+05 2.22329658e+05 2.23213240e+05 2.21247353e+05 
        </DataArray>
      </PointData>
    </Piece>
    <Piece NumberOfPoints="4" NumberOfCells="3">
      <Points>
        <DataArray type="Float64" NumberOfComponents="3" format="ascii">
          9.38035965e-01 -8.65600072e-03 0.00000000e+00 
9.48369622e-01 -7.25875143e-03 0.00000000e+00 
9.58700895e-01 -5.84406452e-03 0.00000000e+00 
9.69029665e-01 -4.41133138e-03 0.00000000e+00 

        </DataArray>
      </Points>
      <Cells>
        <DataArray type="Int32" Name="connectivity" format="ascii">
0 1
1 2
2 3

        </DataArray>
        <DataArray type="Int32" Name="offsets" format="ascii">
2 4 6 
        </DataArray>
        <DataArray type="UInt8" Name="types" format="ascii">
3 3 3 
        </DataArray>
      </Cells>
      <PointData>
        <DataArray type="Float64" Name="rho">
          9.70054487e-01 9.71679873e-01 9.72904567e-01 9.75530382e-01 
        </DataArray>
        <DataArray type="Float64" Name="rhou">
          -6.38397398e-03 2.29213643e-03 -2.65759892e-03 -1.72151438e-02 
        </DataArray>
        <DataArray type="Float64" Name="rhov">
          1.10222922e-03 -1.72588762e-04 1.34821197e-03 -1.75876660e-02 
        </DataArray>
        <DataArray type="Float64" Name="E">
          2.21036586e+05 2.21420502e+05 2.21713056e+05 2.22325008e+05 
        </DataArray>
      </PointData>
    </Piece>
    <Piece NumberOfPoints="4" NumberOfCells="3">
      <Points>
        <DataArray type="Float64" NumberOfComponents="3" format="ascii">
          9.07021165e-01 -1.27432076e-02 0.00000000e+00 
9.17361677e-01 -1.13977119e-02 0.00000000e+00 
9.27700043e-01 -1.00357840e-02 0.00000000e+00 
9.38035965e-01 -8.65600072e-03 0.00000000e+00 

        </DataArray>
      </Points>
      <Cells>
        <DataArray type="Int32" Name="connectivity" format="ascii">
0 1
1 2
2 3

        </DataArray>
        <DataArray type="Int32" Name="offsets" format="ascii">
2 4 6 
        </DataArray>
        <DataArray type="UInt8" Name="types" format="ascii">
3 3 3 
        </DataArray>
      </Cells>
      <PointData>
        <DataArray type="Float64" Name="rho">
          9.65939975e-01 9.67351985e-01 9.68795872e-01 9.70101241e-01 
        </DataArray>
        <DataArray type="Float64" Name="rhou">
          9.05795773e-04 -9.07638625e-05 4.75396812e-04 8.68945704e-04 
        </DataArray>
        <DataArray type="Float64" Name="rhov">
          4.98244335e-05 7.69337378e-05 -1.01287411e-05 1.39043865e-03 
        </DataArray>
        <DataArray type="Float64" Name="E">
          2.20056696e+05 2.20392826e+05 2.20735947e+05 2.21047232e+05 
        </DataArray>
      </PointData>
    </Piece>
    <Piece NumberOfPoints="4" NumberOfCells="3">
      <Points>
        <DataArray type="Float64" NumberOfComponents="3" format="ascii">
          8.75986874e-01 -1.66798849e-02 0.00000000e+00 
8.86333704e-01 -1.53839625e-02 0.00000000e+00 
8.96678507e-01 -1.40720531e-02 0.00000000e+00 
9.07021165e-01 -1.27432076e-02 0.00000000e+00 

        </DataArray>
      </Points>
      <Cells>
        <DataArray type="Int32" Name="connectivity" format="ascii">
0 1
1 2
2 3

        </DataArray>
        <DataArray type="Int32" Name="offsets" format="ascii">
2 4 6 
        </DataArray>
        <DataArray type="UInt8" Name="types" format="ascii">
3 3 3 
        </DataArray>
      </Cells>
      <PointData>
        <DataArray type="Float64" Name="rho">
          9.61589392e-01 9.63044866e-01 9.64487880e-01 9.65935065e-01 
        </DataArray>
        <DataArray type="Float64" Name="rhou">
          1.35394471e-04 2.15223478e-04 1.67174861e-04 1.14629489e-04 
        </DataArray>
        <DataArray type="Float64" Name="rhov">
          6.89924730e-05 6.03614840e-05 7.52705573e-05 -1.92719474e-05 
        </DataArray>
        <DataArray type="Float64" Name="E">
          2.19021035e+05 2.19367615e+05 2.19711213e+05 2.20055579e+05 
        </DataArray>
      </PointData>
    </Piece>
    <Piece NumberOfPoints="4" NumberOfCells="3">
      <Points>
        <DataArray type="Float64" NumberOfComponents="3" format="ascii">
          8.44934702e-01 -2.04724707e-02 0.00000000e+00 
8.55287313e-01 -1.92240477e-02 0.00000000e+00 
8.65638077e-01 -1.79597028e-02 0.00000000e+00 
8.75986874e-01 -1.66798849e-02 0.00000000e+00 

        </DataArray>
      </Points>
      <Cells>
        <DataArray type="Int32" Name="connectivity" format="ascii">
0 1
1 2
2 3

        </DataArray>
        <DataArray type="Int32" Name="offsets" format="ascii">
2 4 6 
        </DataArray>
        <DataArray type="UInt8" Name="types" format="ascii">
3 3 3 
        </DataArray>
      </Cells>
      <PointData>
        <DataArray type="Float64" Name="rho">
          9.57187844e-01 9.58661301e-01 9.60131035e-01 9.61589815e-01 
        </DataArray>
        <DataArray type="Float64" Name="rhou">
          2.70638506e-04 2.11108833e-04 1.98630298e-04 2.36357185e-04 
        </DataArray>
        <DataArray type="Float64" Name="rhov">
          4.42519975e-05 6.46105062e-05 5.39015105e-05 7.20825879e-05 
        </DataArray>
        <DataArray type="Float64" Name="E">
          2.17972733e+05 2.18323665e+05 2.18673688e+05 2.19021131e+05 
        </DataArray>
      </PointData>
    </Piece>
    <Piece NumberOfPoints="4" NumberOfCells="3">
      <Points>
        <DataArray type="Float64" NumberOfComponents="3" format="ascii">
          8.13865662e-01 -2.41250079e-02 0.00000000e+00 
8.24223816e-01 -2.29226518e-02 0.00000000e+00 
8.34580123e-01 -2.17050612e-02 0.00000000e+00 
8.44934702e-01 -2.04724707e-02 0.00000000e+00 

        </DataArray>
      </Points>
      <Cells>
        <DataArray type="Int32" Name="connectivity" format="ascii">
0 1
1 2
2 3

        </DataArray>
        <DataArray type="Int32" Name="offsets" format="ascii">
2 4 6 
        </DataArray>
        <DataArray type="UInt8" Name="types" format="ascii">
3 3 3 
        </DataArray>
      </Cells>
      <PointData>
        <DataArray type="Float64" Name="rho">
          9.52711863e-01 9.54210405e-01 9.55702554e-01 9.57187615e-01 
        </DataArray>
        <DataArray type="Float64" Name="rhou">
          2.48276506e-04 2.32468539e-04 2.16919805e-04 2.21847045e-04 
        </DataArray>
        <DataArray type="Float64" Name="rhov">
          5.61253234e-05 5.67035630e-05 4.89927309e-05 3.67440331e-05 
        </DataArray>
        <DataArray type="Float64" Name="E">
          2.16907061e+05 2.17263801e+05 2.17619064e+05 2.17972681e+05 
        </DataArray>
      </PointData>
    </Piece>
    <Piece NumberOfPoints="4" NumberOfCells="3">
      <Points>
        <DataArray type="Float64" NumberOfComponents="3" format="ascii">
          7.82780826e-01 -2.76402626e-02 0.00000000e+00 
7.93144107e-01 -2.64833923e-02 0.00000000e+00 
8.03505778e-01 -2.53117718e-02 0.00000000e+00 
8.13865662e-01 -2.41250079e-02 0.00000000e+00 

        </DataArray>
      </Points>
      <Cells>
        <DataArray type="Int32" Name="connectivity" format="ascii">
0 1
1 2
2 3

        </DataArray>
        <DataArray type="Int32" Name="offsets" format="ascii">
2 4 6 
        </DataArray>
        <DataArray type="UInt8" Name="types" format="ascii">
3 3 3 
        </DataArray>
      </Cells>
      <PointData>
        <DataArray type="Float64" Name="rho">
          9.48172527e-01 9.49692880e-01 9.51206882e-01 9.52711755e-01 
        </DataArray>
        <DataArray type="Float64" Name="rhou">
          2.71122036e-04 2.49614771e-04 2.48885582e-04 2.57776454e-04 
        </DataArray>
        <DataArray type="Float64" Name="rhov">
          5.33668798e-05 4.47845212e-05 4.01397254e-05 5.43429197e-05 
        </DataArray>
        <DataArray type="Float64" Name="E">
          2.15826830e+05 2.16188561e+05 2.16548842e+05 2.16907036e+05 
        </DataArray>
      </PointData>
    </Piece>
    <Piece NumberOfPoints="4" NumberOfCells="3">
      <Points>
        <DataArray type="Float64" NumberOfComponents="3" format="ascii">
          7.51680970e-01 -3.10197193e-02 0.00000000e+00 
7.62049198e-01 -2.99084149e-02 0.00000000e+00 
7.72415876e-01 -2.87819952e-02 0.00000000e+00 
7.82780826e-01 -2.76402626e-02 0.00000000e+00 

        </DataArray>
      </Points>
      <Cells>
        <DataArray type="Int32" Name="connectivity" format="ascii">
0 1
1 2
2 3

        </DataArray>
        <DataArray type="Int32" Name="offsets" format="ascii">
2 4 6 
        </DataArray>
        <DataArray type="UInt8" Name="types" format="ascii">
3 3 3 
        </DataArray>
      </Cells>
      <PointData>
        <DataArray type="Float64" Name="rho">
          9.43576130e-01 9.45114771e-01 9.46646783e-01 9.48172490e-01 
        </DataArray>
        <DataArray type="Float64" Name="rhou">
          2.86294348e-04 2.81637573e-04 2.75756590e-04 2.60995951e-04 
        </DataArray>
        <DataArray type="Float64" Name="rhov">
          4.65094174e-05 3.97756704e-05 4.35489065e-05 5.11149525e-05 
        </DataArray>
        <DataArray type="Float64" Name="E">
          2.14733600e+05 2.15099487e+05 2.15463871e+05 2.15826822e+05 
        </DataArray>
      </PointData>
    </Piece>
    <Piece NumberOfPoints="4" NumberOfCells="3">
      <Points>
        <DataArray type="Float64" NumberOfComponents="3" format="ascii">
          7.20566452e-01 -3.42622213e-02 0.00000000e+00 
7.30939507e-01 -3.31965312e-02 0.00000000e+00 
7.41311073e-01 -3.21157984e-02 0.00000000e+00 
7.51680970e-01 -3.10197193e-02 0.00000000e+00 

        </DataArray>
      </Points>
      <Cells>
        <DataArray type="Int32" Name="connectivity" format="ascii">
0 1
1 2
2 3

        </DataArray>
        <DataArray type="Int32" Name="offsets" format="ascii">
2 4 6 
        </DataArray>
        <DataArray type="UInt8" Name="types" format="ascii">
3 3 3 
        </DataArray>
      </Cells>
      <PointData>
        <DataArray type="Float64" Name="rho">
          9.38932057e-01 9.40485551e-01 9.42033748e-01 9.43576122e-01 
        </DataArray>
        <DataArray type="Float64" Name="rhou">
          3.13966559e-04 3.06643722e-04 3.03419086e-04 2.89789707e-04 
        </DataArray>
        <DataArray type="Float64" Name="rhov">
          4.32114673e-05 3.22302579e-05 3.49257457e-05 4.68901193e-05 
        </DataArray>
        <DataArray type="Float64" Name="E">
          2.13629567e+05 2.13998816e+05 2.14366866e+05 2.14733598e+05 
        </DataArray>
      </PointData>
    </Piece>
    <Piece NumberOfPoints="4" NumberOfCells="3">
      <Points>
        <DataArray type="Float64" NumberOfComponents="3" format="ascii">
          6.89437866e-01 -3.73662710e-02 0.00000000e+00 
6.99815631e-01 -3.63472365e-02 0.00000000e+00 
7.10191846e-01 -3.53125818e-02 0.00000000e+00 
7.20566452e-01 -3.42622213e-02 0.00000000e+00 

        </DataArray>
      </Points>
      <Cells>
        <DataArray type="Int32" Name="connectivity" format="ascii">
0 1
1 2
2 3

        </DataArray>
        <DataArray type="Int32" Name="offsets" format="ascii">
2 4 6 
        </DataArray>
        <DataArray type="UInt8" Name="types" format="ascii">
3 3 3 
        </DataArray>
      </Cells>
      <PointData>
        <DataArray type="Float64" Name="rho">
          9.34257105e-01 9.35818572e-01 9.37376981e-01 9.38932068e-01 
        </DataArray>
        <DataArray type="Float64" Name="rhou">
          3.48665638e-04 3.40966280e-04 3.33594860e-04 3.15201262e-04 
        </DataArray>
        <DataArray type="Float64" Name="rhov">
          3.52541092e-05 2.79632070e-05 3.26386080e-05 4.33738499e-05 
        </DataArray>
        <DataArray type="Float64" Name="E">
          2.12518593e+05 2.12889621e+05 2.13259968e+05 2.13629570e+05 
        </DataArray>
      </PointData>
    </Piece>
    <Piece NumberOfPoints="4" NumberOfCells="3">
      <Points>
        <DataArray type="Float64" NumberOfComponents="3" format="ascii">
          6.58295333e-01 -4.03269380e-02 0.00000000e+00 
6.68677747e-01 -3.93563360e-02 0.00000000e+00 
6.79058611e-01 -3.83694395e-02 0.00000000e+00 
6.89437866e-01 -3.73662710e-02 0.00000000e+00 

        </DataArray>
      </Points>
      <Cells>
        <DataArray type="Int32" Name="connectivity" format="ascii">
0 1
1 2
2 3

        </DataArray>
        <DataArray type="Int32" Name="offsets" format="ascii">
2 4 6 
        </DataArray>
        <DataArray type="UInt8" Name="types" format="ascii">
3 3 3 
        </DataArray>
      </Cells>
      <PointData>
        <DataArray type="Float64" Name="rho">
          9.29573216e-01 9.31134759e-01 9.32696030e-01 9.34257160e-01 
        </DataArray>
        <DataArray type="Float64" Name="rhou">
          3.87032997e-04 3.81050661e-04 3.67993083e-04 3.46940167e-04 
        </DataArray>
        <DataArray type="Float64" Name="rhov">
          2.40261671e-05 2.10100234e-05 2.77449538e-05 3.59314050e-05 
        </DataArray>
        <DataArray type="Float64" Name="E">
          2.11405738e+05 2.11776723e+05 2.12147670e+05 2.12518606e+05 
        </DataArray>
      </PointData>
    </Piece>
    <Piece NumberOfPoints="4" NumberOfCells="3">
      <Points>
        <DataArray type="Float64" NumberOfComponents="3" format="ascii">
          6.27138972e-01 -4.31386717e-02 0.00000000e+00 
6.37525976e-01 -4.22184542e-02 0.00000000e+00 
6.47911429e-01 -4.12811004e-02 0.00000000e+00 
6.58295333e-01 -4.03269380e-02 0.00000000e+00 

        </DataArray>
      </Points>
      <Cells>
        <DataArray type="Int32" Name="connectivity" format="ascii">
0 1
1 2
2 3

        </DataArray>
        <DataArray type="Int32" Name="offsets" format="ascii">
2 4 6 
        </DataArray>
        <DataArray type="UInt8" Name="types" format="ascii">
3 3 3 
        </DataArray>
      </Cells>
      <PointData>
        <DataArray type="Float64" Name="rho">
          9.24909800e-01 9.26459643e-01 9.28014692e-01 9.29573248e-01 
        </DataArray>
        <DataArray type="Float64" Name="rhou">
          4.39546646e-04 4.20517240e-04 4.02997027e-04 3.88083863e-04 
        </DataArray>
        <DataArray type="Float64" Name="rhov">
          2.02726917e-05 1.92757782e-05 2.07513546e-05 2.48271688e-05 
        </DataArray>
        <DataArray type="Float64" Name="E">
          2.10297797e+05 2.10666018e+05 2.11035466e+05 2.11405745e+05 
        </DataArray>
      </PointData>
    </Piece>
    <Piece NumberOfPoints="4" NumberOfCells="3">
      <Points>
        <DataArray type="Float64" NumberOfComponents="3" format="ascii">
          5.95968783e-01 -4.57924642e-02 0.00000000e+00 
6.06360376e-01 -4.49259281e-02 0.00000000e+00 
6.16750479e-01 -4.40412909e-02 0.00000000e+00 
6.27138972e-01 -4.31386717e-02 0.00000000e+00 

        </DataArray>
      </Points>
      <Cells>
        <DataArray type="Int32" Name="connectivity" format="ascii">
0 1
1 2
2 3

        </DataArray>
        <DataArray type="Int32" Name="offsets" format="ascii">
2 4 6 
        </DataArray>
        <DataArray type="UInt8" Name="types" format="ascii">
3 3 3 
        </DataArray>
      </Cells>
      <PointData>
        <DataArray type="Float64" Name="rho">
          9.20309362e-01 9.21833822e-01 9.23367681e-01 9.24909793e-01 
        </DataArray>
        <DataArray type="Float64" Name="rhou">
          4.85230626e-04 4.72946453e-04 4.55492341e-04 4.33172283e-04 
        </DataArray>
        <DataArray type="Float64" Name="rhov">
          7.93293331e-06 4.89042913e-06 1.14538299e-05 2.10029131e-05 
        </DataArray>
        <DataArray type="Float64" Name="E">
          2.09204642e+05 2.09566908e+05 2.09931382e+05 2.10297795e+05 
        </DataArray>
      </PointData>
    </Piece>
    <Piece NumberOfPoints="4" NumberOfCells="3">
      <Points>
        <DataArray type="Float64" NumberOfComponents="3" format="ascii">
          5.64784765e-01 -4.82786149e-02 0.00000000e+00 
5.75181007e-01 -4.74695377e-02 0.00000000e+00 
5.85575700e-01 -4.66405638e-02 0.00000000e+00 
5.95968783e-01 -4.57924642e-02 0.00000000e+00 

        </DataArray>
      </Points>
      <Cells>
        <DataArray type="Int32" Name="connectivity" format="ascii">
0 1
1 2
2 3

        </DataArray>
        <DataArray type="Int32" Name="offsets" format="ascii">
2 4 6 
        </DataArray>
        <DataArray type="UInt8" Name="types" format="ascii">
3 3 3 
        </DataArray>
      </Cells>
      <PointData>
        <DataArray type="Float64" Name="rho">
          9.15829277e-01 9.17304393e-01 9.18798381e-01 9.20309475e-01 
        </DataArray>
        <DataArray type="Float64" Name="rhou">
          5.62231486e-04 5.35837214e-04 5.02823517e-04 4.79126066e-04 
        </DataArray>
        <DataArray type="Float64" Name="rhov">
          -4.00209928e-06 7.41384291e-06 1.22482364e-05 8.78038575e-06 
        </DataArray>
        <DataArray type="Float64" Name="E">
          2.08139636e+05 2.08490373e+05 2.08845524e+05 2.09204668e+05 
        </DataArray>
      </PointData>
    </Piece>
    <Piece NumberOfPoints="4" NumberOfCells="3">
      <Points>
        <DataArray type="Float64" NumberOfComponents="3" format="ascii">
          5.33586800e-01 -5.05827516e-02 0.00000000e+00 
5.43987691e-01 -4.98356484e-02 0.00000000e+00 
5.54387033e-01 -4.90674041e-02 0.00000000e+00 
5.64784765e-01 -4.82786149e-02 0.00000000e+00 

        </DataArray>
      </Points>
      <Cells>
        <DataArray type="Int32" Name="connectivity" format="ascii">
0 1
1 2
2 3

        </DataArray>
        <DataArray type="Int32" Name="offsets" format="ascii">
2 4 6 
        </DataArray>
        <DataArray type="UInt8" Name="types" format="ascii">
3 3 3 
        </DataArray>
      </Cells>
      <PointData>
        <DataArray type="Float64" Name="rho">
          9.11540548e-01 9.12942972e-01 9.14374327e-01 9.15829236e-01 
        </DataArray>
        <DataArray type="Float64" Name="rhou">
          6.37053202e-04 5.97306882e-04 5.68466305e-04 5.56658260e-04 
        </DataArray>
        <DataArray type="Float64" Name="rhov">
          -3.31558009e-06 -3.23651452e-06 -6.23091112e-06 -3.71161800e-06 
        </DataArray>
        <DataArray type="Float64" Name="E">
          2.07119435e+05 2.07453148e+05 2.07793628e+05 2.08139627e+05 
        </DataArray>
      </PointData>
    </Piece>
    <Piece NumberOfPoints="4" NumberOfCells="3">
      <Points>
        <DataArray type="Float64" NumberOfComponents="3" format="ascii">
          5.02374947e-01 -5.26902266e-02 0.00000000e+00 
5.12780428e-01 -5.20105064e-02 0.00000000e+00 
5.23184419e-01 -5.13078682e-02 0.00000000e+00 
5.33586800e-01 -5.05827516e-02 0.00000000e+00 

        </DataArray>
      </Points>
      <Cells>
        <DataArray type="Int32" Name="connectivity" format="ascii">
0 1
1 2
2 3

        </DataArray>
        <DataArray type="Int32" Name="offsets" format="ascii">
2 4 6 
        </DataArray>
        <DataArray type="UInt8" Name="types" format="ascii">
3 3 3 
        </DataArray>
      </Cells>
      <PointData>
        <DataArray type="Float64" Name="rho">
          9.07540832e-01 9.08835774e-01 9.10170988e-01 9.11540452e-01 
        </DataArray>
        <DataArray type="Float64" Name="rhou">
          7.18902103e-04 6.82599491e-04 6.54955414e-04 6.34353088e-04 
        </DataArray>
        <DataArray type="Float64" Name="rhov">
          -1.30798901e-05 -1.93745730e-05 -1.78099594e-05 -3.83600844e-06 
        </DataArray>
        <DataArray type="Float64" Name="E">
          2.06166944e+05 2.06475457e+05 2.06793415e+05 2.07119413e+05 
        </DataArray>
      </PointData>
    </Piece>
    <Piece NumberOfPoints="4" NumberOfCells="3">
      <Points>
        <DataArray type="Float64" NumberOfComponents="3" format="ascii">
          4.71149325e-01 -5.45825884e-02 0.00000000e+00 
4.81559396e-01 -5.39771840e-02 0.00000000e+00 
4.91967946e-01 -5.33461571e-02 0.00000000e+00 
5.02374947e-01 -5.26902266e-02 0.00000000e+00 

        </DataArray>
      </Points>
      <Cells>
        <DataArray type="Int32" Name="connectivity" format="ascii">
0 1
1 2
2 3

        </DataArray>
        <DataArray type="Int32" Name="offsets" format="ascii">
2 4 6 
        </DataArray>
        <DataArray type="UInt8" Name="types" format="ascii">
3 3 3 
        </DataArray>
      </Cells>
      <PointData>
        <DataArray type="Float64" Name="rho">
          9.03959093e-01 9.05098790e-01 9.06293084e-01 9.07540920e-01 
        </DataArray>
        <DataArray type="Float64" Name="rhou">
          8.25880280e-04 8.03058629e-04 7.56217492e-04 6.99211553e-04 
        </DataArray>
        <DataArray type="Float64" Name="rhov">
          -3.79755101e-05 -3.15974427e-05 -1.42216826e-05 -1.03276400e-05 
        </DataArray>
        <DataArray type="Float64" Name="E">
          2.05312505e+05 2.05584575e+05 2.05869491e+05 2.06166965e+05 
        </DataArray>
      </PointData>
    </Piece>
    <Piece NumberOfPoints="4" NumberOfCells="3">
      <Points>
        <DataArray type="Float64" NumberOfComponents="3" format="ascii">
          4.39910263e-01 -5.62384278e-02 0.00000000e+00 
4.50324744e-01 -5.57143167e-02 0.00000000e+00 
4.60737765e-01 -5.51619194e-02 0.00000000e+00 
4.71149325e-01 -5.45825884e-02 0.00000000e+00 

        </DataArray>
      </Points>
      <Cells>
        <DataArray type="Int32" Name="connectivity" format="ascii">
0 1
1 2
2 3

        </DataArray>
        <DataArray type="Int32" Name="offsets" format="ascii">
2 4 6 
        </DataArray>
        <DataArray type="UInt8" Name="types" format="ascii">
3 3 3 
        </DataArray>
      </Cells>
      <PointData>
        <DataArray type="Float64" Name="rho">
          9.00952194e-01 9.01876291e-01 9.02882113e-01 9.03959168e-01 
        </DataArray>
        <DataArray type="Float64" Name="rhou">
          9.94343973e-04 9.17138845e-04 8.58699383e-04 8.31259335e-04 
        </DataArray>
        <DataArray type="Float64" Name="rhov">
          -3.11296230e-05 -2.19221083e-05 -2.83062769e-05 -3.54810982e-05 
        </DataArray>
        <DataArray type="Float64" Name="E">
          2.04593157e+05 2.04814565e+05 2.05055174e+05 2.05312522e+05 
        </DataArray>
      </PointData>
    </Piece>
    <Piece NumberOfPoints="4" NumberOfCells="3">
      <Points>
        <DataArray type="Float64" NumberOfComponents="3" format="ascii">
          4.08658355e-01 -5.76302819e-02 0.00000000e+00 
4.19077009e-01 -5.71971126e-02 0.00000000e+00 
4.29494321e-01 -5.67329265e-02 0.00000000e+00 
4.39910263e-01 -5.62384278e-02 0.00000000e+00 

        </DataArray>
      </Points>
      <Cells>
        <DataArray type="Int32" Name="connectivity" format="ascii">
0 1
1 2
2 3

        </DataArray>
        <DataArray type="Int32" Name="offsets" format="ascii">
2 4 6 
        </DataArray>
        <DataArray type="UInt8" Name="types" format="ascii">
3 3 3 
        </DataArray>
      </Cells>
      <PointData>
        <DataArray type="Float64" Name="rho">
          8.98728471e-01 8.99370135e-01 9.00115193e-01 9.00951963e-01 
        </DataArray>
        <DataArray type="Float64" Name="rhou">
          1.14987512e-03 1.08018767e-03 1.02855377e-03 9.88948229e-04 
        </DataArray>
        <DataArray type="Float64" Name="rhov">
          -3.99558891e-05 -5.22223601e-05 -5.12581269e-05 -3.09946276e-05 
        </DataArray>
        <DataArray type="Float64" Name="E">
          2.04058151e+05 2.04213020e+05 2.04392249e+05 2.04593104e+05 
        </DataArray>
      </PointData>
    </Piece>
    <Piece NumberOfPoints="4" NumberOfCells="3">
      <Points>
        <DataArray type="Float64" NumberOfComponents="3" format="ascii">
          3.77394795e-01 -5.87291755e-02 0.00000000e+00 
3.87817174e-01 -5.83979115e-02 0.00000000e+00 
3.98238391e-01 -5.80311492e-02 0.00000000e+00 
4.08658355e-01 -5.76302819e-02 0.00000000e+00 

        </DataArray>
      </Points>
      <Cells>
        <DataArray type="Int32" Name="connectivity" format="ascii">
0 1
1 2
2 3

        </DataArray>
        <DataArray type="Int32" Name="offsets" format="ascii">
2 4 6 
        </DataArray>
        <DataArray type="UInt8" Name="types" format="ascii">
3 3 3 
        </DataArray>
      </Cells>
      <PointData>
        <DataArray type="Float64" Name="rho">
          8.97550810e-01 8.97809748e-01 8.98203386e-01 8.98728682e-01 
        </DataArray>
        <DataArray type="Float64" Name="rhou">
          1.39893746e-03 1.32527784e-03 1.22371900e-03 1.11868579e-03 
        </DataArray>
        <DataArray type="Float64" Name="rhov">
          -8.38205915e-05 -5.58505957e-05 -2.79356340e-05 -3.50759384e-05 
        </DataArray>
        <DataArray type="Float64" Name="E">
          2.03769621e+05 2.03834273e+05 2.03930734e+05 2.04058200e+05 
        </DataArray>
      </PointData>
    </Piece>
    <Piece NumberOfPoints="4" NumberOfCells="3">
      <Points>
        <DataArray type="Float64" NumberOfComponents="3" format="ascii">
          3.46121490e-01 -5.95011823e-02 0.00000000e+00 
3.56546819e-01 -5.92821389e-02 0.00000000e+00 
3.66971314e-01 -5.90242445e-02 0.00000000e+00 
3.77394795e-01 -5.87291755e-02 0.00000000e+00 

        </DataArray>
      </Points>
      <Cells>
        <DataArray type="Int32" Name="connectivity" format="ascii">
0 1
1 2
2 3

        </DataArray>
        <DataArray type="Int32" Name="offsets" format="ascii">
2 4 6 
        </DataArray>
        <DataArray type="UInt8" Name="types" format="ascii">
3 3 3 
        </DataArray>
      </Cells>
      <PointData>
        <DataArray type="Float64" Name="rho">
          8.97710359e-01 8.97483675e-01 8.97436271e-01 8.97550902e-01 
        </DataArray>
        <DataArray type="Float64" Name="rhou">
          1.74159591e-03 1.59728599e-03 1.46845938e-03 1.40234791e-03 
        </DataArray>
        <DataArray type="Float64" Name="rhov">
          -1.19214591e-04 -7.70959296e-05 -6.95417224e-05 -7.91926773e-05 
        </DataArray>
        <DataArray type="Float64" Name="E">
          2.03796737e+05 2.03746751e+05 2.03739076e+05 2.03769641e+05 
        </DataArray>
      </PointData>
    </Piece>
    <Piece NumberOfPoints="4" NumberOfCells="3">
      <Points>
        <DataArray type="Float64" NumberOfComponents="3" format="ascii">
          3.14841360e-01 -5.99102043e-02 0.00000000e+00 
3.25268596e-01 -5.98174632e-02 0.00000000e+00 
3.35695356e-01 -5.96801341e-02 0.00000000e+00 
3.46121490e-01 -5.95011823e-02 0.00000000e+00 

        </DataArray>
      </Points>
      <Cells>
        <DataArray type="Int32" Name="connectivity" format="ascii">
0 1
1 2
2 3

        </DataArray>
        <DataArray type="Int32" Name="offsets" format="ascii">
2 4 6 
        </DataArray>
        <DataArray type="UInt8" Name="types" format="ascii">
3 3 3 
        </DataArray>
      </Cells>
      <PointData>
        <DataArray type="Float64" Name="rho">
          8.99612011e-01 8.98744818e-01 8.98120182e-01 8.97710069e-01 
        </DataArray>
        <DataArray type="Float64" Name="rhou">
          2.19150035e-03 1.94725370e-03 1.78239442e-03 1.70604271e-03 
        </DataArray>
        <DataArray type="Float64" Name="rhov">
          -5.71648321e-05 -3.35269778e-05 -6.54489299e-05 -1.18444638e-04 
        </DataArray>
        <DataArray type="Float64" Name="E">
          2.04235457e+05 2.04034120e+05 2.03890063e+05 2.03796671e+05 
        </DataArray>
      </PointData>
    </Piece>
    <Piece NumberOfPoints="4" NumberOfCells="3">
      <Points>
        <DataArray type="Float64" NumberOfComponents="3" format="ascii">
          2.83558637e-01 -5.98983802e-02 0.00000000e+00 
2.93986142e-01 -5.99516556e-02 0.00000000e+00 
3.04413795e-01 -5.99554181e-02 0.00000000e+00 
3.14841360e-01 -5.99102043e-02 0.00000000e+00 

        </DataArray>
      </Points>
      <Cells>
        <DataArray type="Int32" Name="connectivity" format="ascii">
0 1
1 2
2 3

        </DataArray>
        <DataArray type="Int32" Name="offsets" format="ascii">
2 4 6 
        </DataArray>
        <DataArray type="UInt8" Name="types" format="ascii">
3 3 3 
        </DataArray>
      </Cells>
      <PointData>
        <DataArray type="Float64" Name="rho">
          9.03770784e-01 9.02115086e-01 9.00734402e-01 8.99611299e-01 
        </DataArray>
        <DataArray type="Float64" Name="rhou">
          2.66869677e-03 2.50380564e-03 2.36630439e-03 2.18248225e-03 
        </DataArray>
        <DataArray type="Float64" Name="rhov">
          -1.15367123e-04 -1.81873417e-04 -1.45756023e-04 -5.05417398e-05 
        </DataArray>
        <DataArray type="Float64" Name="E">
          2.05208500e+05 2.04820208e+05 2.04497188e+05 2.04235295e+05 
        </DataArray>
      </PointData>
    </Piece>
    <Piece NumberOfPoints="4" NumberOfCells="3">
      <Points>
        <DataArray type="Float64" NumberOfComponents="3" format="ascii">
          2.52279758e-01 -5.94130717e-02 0.00000000e+00 
2.62705088e-01 -5.96327744e-02 0.00000000e+00 
2.73131490e-01 -5.97934239e-02 0.00000000e+00 
2.83558637e-01 -5.98983802e-02 0.00000000e+00 

        </DataArray>
      </Points>
      <Cells>
        <DataArray type="Int32" Name="connectivity" format="ascii">
0 1
1 2
2 3

        </DataArray>
        <DataArray type="Int32" Name="offsets" format="ascii">
2 4 6 
        </DataArray>
        <DataArray type="UInt8" Name="types" format="ascii">
3 3 3 
        </DataArray>
      </Cells>
      <PointData>
        <DataArray type="Float64" Name="rho">
          9.10807120e-01 9.08093748e-01 9.05751360e-01 9.03771705e-01 
        </DataArray>
        <DataArray type="Float64" Name="rhou">
          3.64082580e-03 3.33573434e-03 3.00034143e-03 2.65493391e-03 
        </DataArray>
        <DataArray type="Float64" Name="rhov">
          -2.65141392e-04 -1.72437905e-04 -8.47807809e-05 -9.61758927e-05 
        </DataArray>
        <DataArray type="Float64" Name="E">
          2.06863471e+05 2.06224484e+05 2.05673650e+05 2.05208713e+05 
        </DataArray>
      </PointData>
    </Piece>
    <Piece NumberOfPoints="4" NumberOfCells="3">
      <Points>
        <DataArray type="Float64" NumberOfComponents="3" format="ascii">
          2.21014455e-01 -5.83752058e-02 0.00000000e+00 
2.31433928e-01 -5.87876961e-02 0.00000000e+00 
2.41855890e-01 -5.91322705e-02 0.00000000e+00 
2.52279758e-01 -5.94130717e-02 0.00000000e+00 

        </DataArray>
      </Points>
      <Cells>
        <DataArray type="Int32" Name="connectivity" format="ascii">
0 1
1 2
2 3

        </DataArray>
        <DataArray type="Int32" Name="offsets" format="ascii">
2 4 6 
        </DataArray>
        <DataArray type="UInt8" Name="types" format="ascii">
3 3 3 
        </DataArray>
      </Cells>
      <PointData>
        <DataArray type="Float64" Name="rho">
          9.21504370e-01 9.17464363e-01 9.13914374e-01 9.10807301e-01 
        </DataArray>
        <DataArray type="Float64" Name="rhou">
          4.99351006e-03 4.40837667e-03 3.96223099e-03 3.67504338e-03 
        </DataArray>
        <DataArray type="Float64" Name="rhov">
          -3.72831776e-04 -2.68032701e-04 -2.35213565e-04 -2.48787098e-04 
        </DataArray>
        <DataArray type="Float64" Name="E">
          2.09388236e+05 2.08433932e+05 2.07596104e+05 2.06863508e+05 
        </DataArray>
      </PointData>
    </Piece>
    <Piece NumberOfPoints="4" NumberOfCells="3">
      <Points>
        <DataArray type="Float64" NumberOfComponents="3" format="ascii">
          1.89777538e-01 -5.66898957e-02 0.00000000e+00 
2.00185493e-01 -5.73302582e-02 0.00000000e+00 
2.10598081e-01 -5.78906052e-02 0.00000000e+00 
2.21014455e-01 -5.83752058e-02 0.00000000e+00 

        </DataArray>
      </Points>
      <Cells>
        <DataArray type="Int32" Name="connectivity" format="ascii">
0 1
1 2
2 3

        </DataArray>
        <DataArray type="Int32" Name="offsets" format="ascii">
2 4 6 
        </DataArray>
        <DataArray type="UInt8" Name="types" format="ascii">
3 3 3 
        </DataArray>
      </Cells>
      <PointData>
        <DataArray type="Float64" Name="rho">
          9.36950655e-01 9.31196815e-01 9.26067949e-01 9.21503610e-01 
        </DataArray>
        <DataArray type="Float64" Name="rhou">
          6.91550291e-03 6.11477966e-03 5.52928010e-03 5.05599826e-03 
        </DataArray>
        <DataArray type="Float64" Name="rhov">
          -6.56439830e-04 -5.84860976e-04 -4.84473860e-04 -3.60170743e-04 
        </DataArray>
        <DataArray type="Float64" Name="E">
          2.13043685e+05 2.11680920e+05 2.10467199e+05 2.09388062e+05 
        </DataArray>
      </PointData>
    </Piece>
    <Piece NumberOfPoints="4" NumberOfCells="3">
      <Points>
        <DataArray type="Float64" NumberOfComponents="3" format="ascii">
          1.58592433e-01 -5.42296544e-02 0.00000000e+00 
1.68979734e-01 -5.51457107e-02 0.00000000e+00 
1.79375216e-01 -5.59638515e-02 0.00000000e+00 
1.89777538e-01 -5.66898957e-02 0.00000000e+00 

        </DataArray>
      </Points>
      <Cells>
        <DataArray type="Int32" Name="connectivity" format="ascii">
0 1
1 2
2 3

        </DataArray>
        <DataArray type="Int32" Name="offsets" format="ascii">
2 4 6 
        </DataArray>
        <DataArray type="UInt8" Name="types" format="ascii">
3 3 3 
        </DataArray>
      </Cells>
      <PointData>
        <DataArray type="Float64" Name="rho">
          9.58712998e-01 9.50649053e-01 9.43411888e-01 9.36951073e-01 
        </DataArray>
        <DataArray type="Float64" Name="rhou">
          9.97395671e-03 8.89952812e-03 7.94969876e-03 6.98671868e-03 
        </DataArray>
        <DataArray type="Float64" Name="rhov">
          -1.41172013e-03 -1.21886905e-03 -8.86690980e-04 -6.16022024e-04 
        </DataArray>
        <DataArray type="Float64" Name="E">
          2.18206475e+05 2.16291801e+05 2.14575089e+05 2.13043785e+05 
        </DataArray>
      </PointData>
    </Piece>
    <Piece NumberOfPoints="4" NumberOfCells="3">
      <Points>
        <DataArray type="Float64" NumberOfComponents="3" format="ascii">
          1.27497971e-01 -5.08146733e-02 0.00000000e+00 
1.37849152e-01 -5.20747155e-02 0.00000000e+00 
1.48214847e-01 -5.32093942e-02 0.00000000e+00 
1.58592433e-01 -5.42296544e-02 0.00000000e+00 

        </DataArray>
      </Points>
      <Cells>
        <DataArray type="Int32" Name="connectivity" format="ascii">
0 1
1 2
2 3

        </DataArray>
        <DataArray type="Int32" Name="offsets" format="ascii">
2 4 6 
        </DataArray>
        <DataArray type="UInt8" Name="types" format="ascii">
3 3 3 
        </DataArray>
      </Cells>
      <PointData>
        <DataArray type="Float64" Name="rho">
          9.89219047e-01 9.77867022e-01 9.67719176e-01 9.58717047e-01 
        </DataArray>
        <DataArray type="Float64" Name="rhou">
          1.45042513e-02 1.33268264e-02 1.15219272e-02 1.00023911e-02 
        </DataArray>
        <DataArray type="Float64" Name="rhov">
          -2.29079329e-03 -2.04218341e-03 -1.42570131e-03 -1.33994901e-03 
        </DataArray>
        <DataArray type="Float64" Name="E">
          2.25462101e+05 2.22759655e+05 2.20346605e+05 2.18207404e+05 
        </DataArray>
      </PointData>
    </Piece>
    <Piece NumberOfPoints="4" NumberOfCells="3">
      <Points>
        <DataArray type="Float64" NumberOfComponents="3" format="ascii">
          9.65642184e-02 -4.61716652e-02 0.00000000e+00 
1.06852271e-01 -4.78802323e-02 0.00000000e+00 
1.17164567e-01 -4.94215861e-02 0.00000000e+00 
1.27497971e-01 -5.08146733e-02 0.00000000e+00 

        </DataArray>
      </Points>
      <Cells>
        <DataArray type="Int32" Name="connectivity" format="ascii">
0 1
1 2
2 3

        </DataArray>
        <DataArray type="Int32" Name="offsets" format="ascii">
2 4 6 
        </DataArray>
        <DataArray type="UInt8" Name="types" format="ascii">
3 3 3 
        </DataArray>
      </Cells>
      <PointData>
        <DataArray type="Float64" Name="rho">
          1.03258381e+00 1.01628881e+00 1.00186302e+00 9.89227401e-01 
        </DataArray>
        <DataArray type="Float64" Name="rhou">
          2.46761111e-02 1.80902743e-02 1.71784769e-02 1.28592951e-02 
        </DataArray>
        <DataArray type="Float64" Name="rhov">
          -9.34731438e-04 -7.42812778e-04 -1.56758738e-03 -1.61106385e-03 
        </DataArray>
        <DataArray type="Float64" Name="E">
          2.35811141e+05 2.31917649e+05 2.28475950e+05 2.25464115e+05 
        </DataArray>
      </PointData>
    </Piece>
  </UnstructuredGrid>
</VTKFile>
